%TF.GenerationSoftware,KiCad,Pcbnew,9.0.3*%
%TF.CreationDate,2025-08-20T23:40:03-04:00*%
%TF.ProjectId,Mess-ESP-P16,4d657373-2d45-4535-902d-5031362e6b69,rev?*%
%TF.SameCoordinates,Original*%
%TF.FileFunction,Soldermask,Top*%
%TF.FilePolarity,Negative*%
%FSLAX46Y46*%
G04 Gerber Fmt 4.6, Leading zero omitted, Abs format (unit mm)*
G04 Created by KiCad (PCBNEW 9.0.3) date 2025-08-20 23:40:03*
%MOMM*%
%LPD*%
G01*
G04 APERTURE LIST*
G04 Aperture macros list*
%AMRoundRect*
0 Rectangle with rounded corners*
0 $1 Rounding radius*
0 $2 $3 $4 $5 $6 $7 $8 $9 X,Y pos of 4 corners*
0 Add a 4 corners polygon primitive as box body*
4,1,4,$2,$3,$4,$5,$6,$7,$8,$9,$2,$3,0*
0 Add four circle primitives for the rounded corners*
1,1,$1+$1,$2,$3*
1,1,$1+$1,$4,$5*
1,1,$1+$1,$6,$7*
1,1,$1+$1,$8,$9*
0 Add four rect primitives between the rounded corners*
20,1,$1+$1,$2,$3,$4,$5,0*
20,1,$1+$1,$4,$5,$6,$7,0*
20,1,$1+$1,$6,$7,$8,$9,0*
20,1,$1+$1,$8,$9,$2,$3,0*%
%AMFreePoly0*
4,1,6,0.825000,0.000000,0.525000,-0.450000,-0.500000,-0.450000,-0.500000,0.450000,0.525000,0.450000,0.825000,0.000000,0.825000,0.000000,$1*%
%AMFreePoly1*
4,1,6,0.500000,-0.450000,-0.625000,-0.450000,-0.325000,0.000000,-0.625000,0.450000,0.500000,0.450000,0.500000,-0.450000,0.500000,-0.450000,$1*%
G04 Aperture macros list end*
%ADD10C,0.000000*%
%ADD11R,1.700000X1.700000*%
%ADD12C,1.700000*%
%ADD13RoundRect,0.225000X-0.225000X-0.250000X0.225000X-0.250000X0.225000X0.250000X-0.225000X0.250000X0*%
%ADD14RoundRect,0.150000X0.512500X0.150000X-0.512500X0.150000X-0.512500X-0.150000X0.512500X-0.150000X0*%
%ADD15RoundRect,0.225000X-0.250000X0.225000X-0.250000X-0.225000X0.250000X-0.225000X0.250000X0.225000X0*%
%ADD16R,1.050000X0.650000*%
%ADD17C,0.650000*%
%ADD18R,0.600000X1.450000*%
%ADD19R,0.300000X1.450000*%
%ADD20O,1.000000X2.100000*%
%ADD21O,1.000000X1.600000*%
%ADD22RoundRect,0.200000X0.200000X0.275000X-0.200000X0.275000X-0.200000X-0.275000X0.200000X-0.275000X0*%
%ADD23FreePoly0,180.000000*%
%ADD24FreePoly1,180.000000*%
%ADD25R,1.500000X0.900000*%
%ADD26C,0.600000*%
%ADD27R,2.900000X2.900000*%
%ADD28FreePoly0,45.000000*%
%ADD29FreePoly1,45.000000*%
%ADD30RoundRect,0.200000X-0.275000X0.200000X-0.275000X-0.200000X0.275000X-0.200000X0.275000X0.200000X0*%
%ADD31RoundRect,0.225000X0.250000X-0.225000X0.250000X0.225000X-0.250000X0.225000X-0.250000X-0.225000X0*%
%ADD32RoundRect,0.200000X0.275000X-0.200000X0.275000X0.200000X-0.275000X0.200000X-0.275000X-0.200000X0*%
%ADD33RoundRect,0.218750X-0.256250X0.218750X-0.256250X-0.218750X0.256250X-0.218750X0.256250X0.218750X0*%
G04 APERTURE END LIST*
D10*
%TO.C,J52*%
G36*
X100866768Y-154962844D02*
G01*
X98416768Y-154962844D01*
X98416768Y-154062844D01*
X100866768Y-154062844D01*
X100866768Y-154962844D01*
G37*
%TO.C,J51*%
G36*
X93401173Y-154964836D02*
G01*
X91668761Y-156697248D01*
X91032365Y-156060852D01*
X92764777Y-154328440D01*
X93401173Y-154964836D01*
G37*
%TO.C,J46*%
G36*
X70866768Y-154962844D02*
G01*
X68416768Y-154962844D01*
X68416768Y-154062844D01*
X70866768Y-154062844D01*
X70866768Y-154962844D01*
G37*
%TO.C,J45*%
G36*
X63401173Y-154964836D02*
G01*
X61668761Y-156697248D01*
X61032365Y-156060852D01*
X62764777Y-154328440D01*
X63401173Y-154964836D01*
G37*
%TO.C,J40*%
G36*
X130866768Y-121962844D02*
G01*
X128416768Y-121962844D01*
X128416768Y-121062844D01*
X130866768Y-121062844D01*
X130866768Y-121962844D01*
G37*
%TO.C,J39*%
G36*
X123401173Y-121964836D02*
G01*
X121668761Y-123697248D01*
X121032365Y-123060852D01*
X122764777Y-121328440D01*
X123401173Y-121964836D01*
G37*
%TO.C,J34*%
G36*
X100866768Y-121962844D02*
G01*
X98416768Y-121962844D01*
X98416768Y-121062844D01*
X100866768Y-121062844D01*
X100866768Y-121962844D01*
G37*
%TO.C,J33*%
G36*
X93401173Y-121964836D02*
G01*
X91668761Y-123697248D01*
X91032365Y-123060852D01*
X92764777Y-121328440D01*
X93401173Y-121964836D01*
G37*
%TO.C,J28*%
G36*
X70866768Y-121962844D02*
G01*
X68416768Y-121962844D01*
X68416768Y-121062844D01*
X70866768Y-121062844D01*
X70866768Y-121962844D01*
G37*
%TO.C,J27*%
G36*
X63401173Y-121964836D02*
G01*
X61668761Y-123697248D01*
X61032365Y-123060852D01*
X62764777Y-121328440D01*
X63401173Y-121964836D01*
G37*
%TO.C,J22*%
G36*
X130866768Y-88962844D02*
G01*
X128416768Y-88962844D01*
X128416768Y-88062844D01*
X130866768Y-88062844D01*
X130866768Y-88962844D01*
G37*
%TO.C,J21*%
G36*
X123401173Y-88964836D02*
G01*
X121668761Y-90697248D01*
X121032365Y-90060852D01*
X122764777Y-88328440D01*
X123401173Y-88964836D01*
G37*
%TO.C,J16*%
G36*
X100866768Y-88962844D02*
G01*
X98416768Y-88962844D01*
X98416768Y-88062844D01*
X100866768Y-88062844D01*
X100866768Y-88962844D01*
G37*
%TO.C,J15*%
G36*
X93401173Y-88964836D02*
G01*
X91668761Y-90697248D01*
X91032365Y-90060852D01*
X92764777Y-88328440D01*
X93401173Y-88964836D01*
G37*
%TO.C,J10*%
G36*
X70866768Y-88962844D02*
G01*
X68416768Y-88962844D01*
X68416768Y-88062844D01*
X70866768Y-88062844D01*
X70866768Y-88962844D01*
G37*
%TO.C,J9*%
G36*
X63401173Y-88964836D02*
G01*
X61668761Y-90697248D01*
X61032365Y-90060852D01*
X62764777Y-88328440D01*
X63401173Y-88964836D01*
G37*
%TO.C,J3*%
G36*
X123401173Y-154964836D02*
G01*
X121668761Y-156697248D01*
X121032365Y-156060852D01*
X122764777Y-154328440D01*
X123401173Y-154964836D01*
G37*
%TO.C,J4*%
G36*
X130866768Y-154962844D02*
G01*
X128416768Y-154962844D01*
X128416768Y-154062844D01*
X130866768Y-154062844D01*
X130866768Y-154962844D01*
G37*
%TD*%
D11*
%TO.C,J50*%
X112023539Y-139842844D03*
D12*
X112023539Y-142382844D03*
X112023539Y-144922843D03*
X112023539Y-147462844D03*
X112023539Y-150002844D03*
X112023539Y-152542844D03*
X112023539Y-155082844D03*
X112023539Y-157622845D03*
X112023539Y-160162844D03*
%TD*%
D13*
%TO.C,C42*%
X102666769Y-159012844D03*
X104216769Y-159012844D03*
%TD*%
D14*
%TO.C,U44*%
X97224269Y-159442844D03*
X97224269Y-158492844D03*
X97224269Y-157542844D03*
X94949269Y-157542844D03*
X94949269Y-159442844D03*
%TD*%
D15*
%TO.C,C44*%
X100036769Y-157512844D03*
X100036769Y-159062844D03*
%TD*%
D16*
%TO.C,SW27*%
X107201769Y-166377844D03*
X111351769Y-166377844D03*
X107201769Y-168527844D03*
X111351769Y-168527844D03*
%TD*%
D13*
%TO.C,C43*%
X94841769Y-154312844D03*
X96391769Y-154312844D03*
%TD*%
D16*
%TO.C,SW26*%
X87476768Y-166372842D03*
X91626768Y-166372842D03*
X87476768Y-168522842D03*
X91626768Y-168522842D03*
%TD*%
D17*
%TO.C,U45*%
X96436018Y-165278271D03*
X102216018Y-165278271D03*
D18*
X96076018Y-163833271D03*
X96876018Y-163833271D03*
D19*
X98076018Y-163833271D03*
X99076018Y-163833271D03*
X99576018Y-163833271D03*
X100576018Y-163833271D03*
D18*
X101776018Y-163833271D03*
X102576018Y-163833271D03*
X102576018Y-163833271D03*
X101776018Y-163833271D03*
D19*
X101076018Y-163833271D03*
X100076018Y-163833271D03*
X98576018Y-163833271D03*
X97576018Y-163833271D03*
D18*
X96876018Y-163833271D03*
X96076018Y-163833271D03*
D20*
X95006018Y-164748271D03*
D21*
X95006018Y-168928271D03*
D20*
X103646018Y-164748271D03*
D21*
X103646018Y-168928271D03*
%TD*%
D22*
%TO.C,R38*%
X104261769Y-154512844D03*
X102611769Y-154512844D03*
%TD*%
D23*
%TO.C,J52*%
X100366767Y-154512844D03*
D24*
X98916769Y-154512844D03*
%TD*%
D11*
%TO.C,J49*%
X86666769Y-139835688D03*
D12*
X86666769Y-142375688D03*
X86666769Y-144915688D03*
X86666769Y-147455688D03*
X86666769Y-149995688D03*
X86666769Y-152535688D03*
X86666769Y-155075688D03*
X86666769Y-157615688D03*
X86666769Y-160155688D03*
X86666769Y-162695688D03*
%TD*%
D25*
%TO.C,U43*%
X90536769Y-139062844D03*
X90536769Y-140562844D03*
X90536769Y-142062844D03*
X90536769Y-143562844D03*
X90536769Y-145062844D03*
X90536769Y-146562844D03*
X90536769Y-148062844D03*
X90536769Y-149562844D03*
X90536769Y-151062844D03*
X108036769Y-151062844D03*
X108036769Y-149562844D03*
X108036769Y-148062844D03*
X108036769Y-146562844D03*
X108036769Y-145062844D03*
X108036769Y-143562844D03*
X108036769Y-142062844D03*
X108036769Y-140562844D03*
X108036769Y-139062844D03*
D26*
X99146769Y-144712845D03*
X99146769Y-145812844D03*
X99696769Y-144162844D03*
X99696769Y-145262844D03*
X99696769Y-146362844D03*
X100246769Y-144712844D03*
D27*
X100246769Y-145262844D03*
D26*
X100246769Y-145812845D03*
X100796769Y-144162844D03*
X100796769Y-145262844D03*
X100796769Y-146362844D03*
X101346769Y-144712845D03*
X101346769Y-145812844D03*
%TD*%
D22*
%TO.C,R39*%
X108591769Y-163727844D03*
X106941769Y-163727844D03*
%TD*%
D13*
%TO.C,C46*%
X110236769Y-163727844D03*
X111786769Y-163727844D03*
%TD*%
D28*
%TO.C,J51*%
X91704117Y-156025496D03*
D29*
X92729421Y-155000192D03*
%TD*%
D30*
%TO.C,R40*%
X90716770Y-162150342D03*
X90716770Y-163800342D03*
%TD*%
D31*
%TO.C,C45*%
X90716771Y-160535342D03*
X90716771Y-158985342D03*
%TD*%
D32*
%TO.C,R37*%
X106826768Y-160085343D03*
X106826768Y-158435343D03*
%TD*%
D33*
%TO.C,D9*%
X106836769Y-155157842D03*
X106836769Y-156732844D03*
%TD*%
D11*
%TO.C,J44*%
X82023539Y-139842844D03*
D12*
X82023539Y-142382844D03*
X82023539Y-144922843D03*
X82023539Y-147462844D03*
X82023539Y-150002844D03*
X82023539Y-152542844D03*
X82023539Y-155082844D03*
X82023539Y-157622845D03*
X82023539Y-160162844D03*
%TD*%
D13*
%TO.C,C37*%
X72666769Y-159012844D03*
X74216769Y-159012844D03*
%TD*%
D16*
%TO.C,SW25*%
X77201769Y-166377844D03*
X81351769Y-166377844D03*
X77201769Y-168527844D03*
X81351769Y-168527844D03*
%TD*%
D14*
%TO.C,U39*%
X67224269Y-159442844D03*
X67224269Y-158492844D03*
X67224269Y-157542844D03*
X64949269Y-157542844D03*
X64949269Y-159442844D03*
%TD*%
D15*
%TO.C,C39*%
X70036769Y-157512844D03*
X70036769Y-159062844D03*
%TD*%
D23*
%TO.C,J46*%
X70366767Y-154512844D03*
D24*
X68916769Y-154512844D03*
%TD*%
D17*
%TO.C,U40*%
X66436018Y-165278271D03*
X72216018Y-165278271D03*
D18*
X66076018Y-163833271D03*
X66876018Y-163833271D03*
D19*
X68076018Y-163833271D03*
X69076018Y-163833271D03*
X69576018Y-163833271D03*
X70576018Y-163833271D03*
D18*
X71776018Y-163833271D03*
X72576018Y-163833271D03*
X72576018Y-163833271D03*
X71776018Y-163833271D03*
D19*
X71076018Y-163833271D03*
X70076018Y-163833271D03*
X68576018Y-163833271D03*
X67576018Y-163833271D03*
D18*
X66876018Y-163833271D03*
X66076018Y-163833271D03*
D20*
X65006018Y-164748271D03*
D21*
X65006018Y-168928271D03*
D20*
X73646018Y-164748271D03*
D21*
X73646018Y-168928271D03*
%TD*%
D22*
%TO.C,R34*%
X74261769Y-154512844D03*
X72611769Y-154512844D03*
%TD*%
D13*
%TO.C,C38*%
X64841769Y-154312844D03*
X66391769Y-154312844D03*
%TD*%
D16*
%TO.C,SW24*%
X57476768Y-166372842D03*
X61626768Y-166372842D03*
X57476768Y-168522842D03*
X61626768Y-168522842D03*
%TD*%
D11*
%TO.C,J43*%
X56666769Y-139835688D03*
D12*
X56666769Y-142375688D03*
X56666769Y-144915688D03*
X56666769Y-147455688D03*
X56666769Y-149995688D03*
X56666769Y-152535688D03*
X56666769Y-155075688D03*
X56666769Y-157615688D03*
X56666769Y-160155688D03*
X56666769Y-162695688D03*
%TD*%
D25*
%TO.C,U38*%
X60536769Y-139062844D03*
X60536769Y-140562844D03*
X60536769Y-142062844D03*
X60536769Y-143562844D03*
X60536769Y-145062844D03*
X60536769Y-146562844D03*
X60536769Y-148062844D03*
X60536769Y-149562844D03*
X60536769Y-151062844D03*
X78036769Y-151062844D03*
X78036769Y-149562844D03*
X78036769Y-148062844D03*
X78036769Y-146562844D03*
X78036769Y-145062844D03*
X78036769Y-143562844D03*
X78036769Y-142062844D03*
X78036769Y-140562844D03*
X78036769Y-139062844D03*
D26*
X69146769Y-144712845D03*
X69146769Y-145812844D03*
X69696769Y-144162844D03*
X69696769Y-145262844D03*
X69696769Y-146362844D03*
X70246769Y-144712844D03*
D27*
X70246769Y-145262844D03*
D26*
X70246769Y-145812845D03*
X70796769Y-144162844D03*
X70796769Y-145262844D03*
X70796769Y-146362844D03*
X71346769Y-144712845D03*
X71346769Y-145812844D03*
%TD*%
D22*
%TO.C,R35*%
X78591769Y-163727844D03*
X76941769Y-163727844D03*
%TD*%
D13*
%TO.C,C41*%
X80236769Y-163727844D03*
X81786769Y-163727844D03*
%TD*%
D28*
%TO.C,J45*%
X61704117Y-156025496D03*
D29*
X62729421Y-155000192D03*
%TD*%
D30*
%TO.C,R36*%
X60716770Y-162150342D03*
X60716770Y-163800342D03*
%TD*%
D31*
%TO.C,C40*%
X60716771Y-160535342D03*
X60716771Y-158985342D03*
%TD*%
D32*
%TO.C,R33*%
X76826768Y-160085343D03*
X76826768Y-158435343D03*
%TD*%
D33*
%TO.C,D8*%
X76836769Y-155157842D03*
X76836769Y-156732844D03*
%TD*%
D23*
%TO.C,J40*%
X130366767Y-121512844D03*
D24*
X128916769Y-121512844D03*
%TD*%
D17*
%TO.C,U35*%
X126436018Y-132278271D03*
X132216018Y-132278271D03*
D18*
X126076018Y-130833271D03*
X126876018Y-130833271D03*
D19*
X128076018Y-130833271D03*
X129076018Y-130833271D03*
X129576018Y-130833271D03*
X130576018Y-130833271D03*
D18*
X131776018Y-130833271D03*
X132576018Y-130833271D03*
X132576018Y-130833271D03*
X131776018Y-130833271D03*
D19*
X131076018Y-130833271D03*
X130076018Y-130833271D03*
X128576018Y-130833271D03*
X127576018Y-130833271D03*
D18*
X126876018Y-130833271D03*
X126076018Y-130833271D03*
D20*
X125006018Y-131748271D03*
D21*
X125006018Y-135928271D03*
D20*
X133646018Y-131748271D03*
D21*
X133646018Y-135928271D03*
%TD*%
D16*
%TO.C,SW23*%
X137201769Y-133377844D03*
X141351769Y-133377844D03*
X137201769Y-135527844D03*
X141351769Y-135527844D03*
%TD*%
D13*
%TO.C,C32*%
X132666769Y-126012844D03*
X134216769Y-126012844D03*
%TD*%
D11*
%TO.C,J38*%
X142023539Y-106842844D03*
D12*
X142023539Y-109382844D03*
X142023539Y-111922843D03*
X142023539Y-114462844D03*
X142023539Y-117002844D03*
X142023539Y-119542844D03*
X142023539Y-122082844D03*
X142023539Y-124622845D03*
X142023539Y-127162844D03*
%TD*%
D22*
%TO.C,R30*%
X134261769Y-121512844D03*
X132611769Y-121512844D03*
%TD*%
D15*
%TO.C,C34*%
X130036769Y-124512844D03*
X130036769Y-126062844D03*
%TD*%
D13*
%TO.C,C33*%
X124841769Y-121312844D03*
X126391769Y-121312844D03*
%TD*%
D16*
%TO.C,SW22*%
X117476768Y-133372842D03*
X121626768Y-133372842D03*
X117476768Y-135522842D03*
X121626768Y-135522842D03*
%TD*%
D11*
%TO.C,J37*%
X116666769Y-106835688D03*
D12*
X116666769Y-109375688D03*
X116666769Y-111915688D03*
X116666769Y-114455688D03*
X116666769Y-116995688D03*
X116666769Y-119535688D03*
X116666769Y-122075688D03*
X116666769Y-124615688D03*
X116666769Y-127155688D03*
X116666769Y-129695688D03*
%TD*%
D25*
%TO.C,U33*%
X120536769Y-106062844D03*
X120536769Y-107562844D03*
X120536769Y-109062844D03*
X120536769Y-110562844D03*
X120536769Y-112062844D03*
X120536769Y-113562844D03*
X120536769Y-115062844D03*
X120536769Y-116562844D03*
X120536769Y-118062844D03*
X138036769Y-118062844D03*
X138036769Y-116562844D03*
X138036769Y-115062844D03*
X138036769Y-113562844D03*
X138036769Y-112062844D03*
X138036769Y-110562844D03*
X138036769Y-109062844D03*
X138036769Y-107562844D03*
X138036769Y-106062844D03*
D26*
X129146769Y-111712845D03*
X129146769Y-112812844D03*
X129696769Y-111162844D03*
X129696769Y-112262844D03*
X129696769Y-113362844D03*
X130246769Y-111712844D03*
D27*
X130246769Y-112262844D03*
D26*
X130246769Y-112812845D03*
X130796769Y-111162844D03*
X130796769Y-112262844D03*
X130796769Y-113362844D03*
X131346769Y-111712845D03*
X131346769Y-112812844D03*
%TD*%
D22*
%TO.C,R31*%
X138591769Y-130727844D03*
X136941769Y-130727844D03*
%TD*%
D13*
%TO.C,C36*%
X140236769Y-130727844D03*
X141786769Y-130727844D03*
%TD*%
D28*
%TO.C,J39*%
X121704117Y-123025496D03*
D29*
X122729421Y-122000192D03*
%TD*%
D14*
%TO.C,U34*%
X127224269Y-126442844D03*
X127224269Y-125492844D03*
X127224269Y-124542844D03*
X124949269Y-124542844D03*
X124949269Y-126442844D03*
%TD*%
D30*
%TO.C,R32*%
X120716770Y-129150342D03*
X120716770Y-130800342D03*
%TD*%
D31*
%TO.C,C35*%
X120716771Y-127535342D03*
X120716771Y-125985342D03*
%TD*%
D33*
%TO.C,D7*%
X136836769Y-122157842D03*
X136836769Y-123732844D03*
%TD*%
D32*
%TO.C,R29*%
X136826768Y-127085343D03*
X136826768Y-125435343D03*
%TD*%
D13*
%TO.C,C28*%
X94841769Y-121312844D03*
X96391769Y-121312844D03*
%TD*%
D14*
%TO.C,U29*%
X97224269Y-126442844D03*
X97224269Y-125492844D03*
X97224269Y-124542844D03*
X94949269Y-124542844D03*
X94949269Y-126442844D03*
%TD*%
D15*
%TO.C,C29*%
X100036769Y-124512844D03*
X100036769Y-126062844D03*
%TD*%
D23*
%TO.C,J34*%
X100366767Y-121512844D03*
D24*
X98916769Y-121512844D03*
%TD*%
D16*
%TO.C,SW21*%
X107201769Y-133377844D03*
X111351769Y-133377844D03*
X107201769Y-135527844D03*
X111351769Y-135527844D03*
%TD*%
%TO.C,SW20*%
X87476768Y-133372842D03*
X91626768Y-133372842D03*
X87476768Y-135522842D03*
X91626768Y-135522842D03*
%TD*%
D17*
%TO.C,U30*%
X96436018Y-132278271D03*
X102216018Y-132278271D03*
D18*
X96076018Y-130833271D03*
X96876018Y-130833271D03*
D19*
X98076018Y-130833271D03*
X99076018Y-130833271D03*
X99576018Y-130833271D03*
X100576018Y-130833271D03*
D18*
X101776018Y-130833271D03*
X102576018Y-130833271D03*
X102576018Y-130833271D03*
X101776018Y-130833271D03*
D19*
X101076018Y-130833271D03*
X100076018Y-130833271D03*
X98576018Y-130833271D03*
X97576018Y-130833271D03*
D18*
X96876018Y-130833271D03*
X96076018Y-130833271D03*
D20*
X95006018Y-131748271D03*
D21*
X95006018Y-135928271D03*
D20*
X103646018Y-131748271D03*
D21*
X103646018Y-135928271D03*
%TD*%
D11*
%TO.C,J32*%
X112023539Y-106842844D03*
D12*
X112023539Y-109382844D03*
X112023539Y-111922843D03*
X112023539Y-114462844D03*
X112023539Y-117002844D03*
X112023539Y-119542844D03*
X112023539Y-122082844D03*
X112023539Y-124622845D03*
X112023539Y-127162844D03*
%TD*%
D22*
%TO.C,R26*%
X104261769Y-121512844D03*
X102611769Y-121512844D03*
%TD*%
D13*
%TO.C,C27*%
X102666769Y-126012844D03*
X104216769Y-126012844D03*
%TD*%
D11*
%TO.C,J31*%
X86666769Y-106835688D03*
D12*
X86666769Y-109375688D03*
X86666769Y-111915688D03*
X86666769Y-114455688D03*
X86666769Y-116995688D03*
X86666769Y-119535688D03*
X86666769Y-122075688D03*
X86666769Y-124615688D03*
X86666769Y-127155688D03*
X86666769Y-129695688D03*
%TD*%
D25*
%TO.C,U28*%
X90536769Y-106062844D03*
X90536769Y-107562844D03*
X90536769Y-109062844D03*
X90536769Y-110562844D03*
X90536769Y-112062844D03*
X90536769Y-113562844D03*
X90536769Y-115062844D03*
X90536769Y-116562844D03*
X90536769Y-118062844D03*
X108036769Y-118062844D03*
X108036769Y-116562844D03*
X108036769Y-115062844D03*
X108036769Y-113562844D03*
X108036769Y-112062844D03*
X108036769Y-110562844D03*
X108036769Y-109062844D03*
X108036769Y-107562844D03*
X108036769Y-106062844D03*
D26*
X99146769Y-111712845D03*
X99146769Y-112812844D03*
X99696769Y-111162844D03*
X99696769Y-112262844D03*
X99696769Y-113362844D03*
X100246769Y-111712844D03*
D27*
X100246769Y-112262844D03*
D26*
X100246769Y-112812845D03*
X100796769Y-111162844D03*
X100796769Y-112262844D03*
X100796769Y-113362844D03*
X101346769Y-111712845D03*
X101346769Y-112812844D03*
%TD*%
D22*
%TO.C,R27*%
X108591769Y-130727844D03*
X106941769Y-130727844D03*
%TD*%
D13*
%TO.C,C31*%
X110236769Y-130727844D03*
X111786769Y-130727844D03*
%TD*%
D28*
%TO.C,J33*%
X91704117Y-123025496D03*
D29*
X92729421Y-122000192D03*
%TD*%
D30*
%TO.C,R28*%
X90716770Y-129150342D03*
X90716770Y-130800342D03*
%TD*%
D31*
%TO.C,C30*%
X90716771Y-127535342D03*
X90716771Y-125985342D03*
%TD*%
D33*
%TO.C,D6*%
X106836769Y-122157842D03*
X106836769Y-123732844D03*
%TD*%
D32*
%TO.C,R25*%
X106826768Y-127085343D03*
X106826768Y-125435343D03*
%TD*%
D11*
%TO.C,J26*%
X82023539Y-106842844D03*
D12*
X82023539Y-109382844D03*
X82023539Y-111922843D03*
X82023539Y-114462844D03*
X82023539Y-117002844D03*
X82023539Y-119542844D03*
X82023539Y-122082844D03*
X82023539Y-124622845D03*
X82023539Y-127162844D03*
%TD*%
D13*
%TO.C,C22*%
X72666769Y-126012844D03*
X74216769Y-126012844D03*
%TD*%
%TO.C,C23*%
X64841769Y-121312844D03*
X66391769Y-121312844D03*
%TD*%
D15*
%TO.C,C24*%
X70036769Y-124512844D03*
X70036769Y-126062844D03*
%TD*%
D16*
%TO.C,SW19*%
X77201769Y-133377844D03*
X81351769Y-133377844D03*
X77201769Y-135527844D03*
X81351769Y-135527844D03*
%TD*%
D23*
%TO.C,J28*%
X70366767Y-121512844D03*
D24*
X68916769Y-121512844D03*
%TD*%
D17*
%TO.C,U25*%
X66436018Y-132278271D03*
X72216018Y-132278271D03*
D18*
X66076018Y-130833271D03*
X66876018Y-130833271D03*
D19*
X68076018Y-130833271D03*
X69076018Y-130833271D03*
X69576018Y-130833271D03*
X70576018Y-130833271D03*
D18*
X71776018Y-130833271D03*
X72576018Y-130833271D03*
X72576018Y-130833271D03*
X71776018Y-130833271D03*
D19*
X71076018Y-130833271D03*
X70076018Y-130833271D03*
X68576018Y-130833271D03*
X67576018Y-130833271D03*
D18*
X66876018Y-130833271D03*
X66076018Y-130833271D03*
D20*
X65006018Y-131748271D03*
D21*
X65006018Y-135928271D03*
D20*
X73646018Y-131748271D03*
D21*
X73646018Y-135928271D03*
%TD*%
D16*
%TO.C,SW18*%
X57476768Y-133372842D03*
X61626768Y-133372842D03*
X57476768Y-135522842D03*
X61626768Y-135522842D03*
%TD*%
D22*
%TO.C,R14*%
X74261769Y-121512844D03*
X72611769Y-121512844D03*
%TD*%
D14*
%TO.C,U24*%
X67224269Y-126442844D03*
X67224269Y-125492844D03*
X67224269Y-124542844D03*
X64949269Y-124542844D03*
X64949269Y-126442844D03*
%TD*%
D11*
%TO.C,J25*%
X56666769Y-106835688D03*
D12*
X56666769Y-109375688D03*
X56666769Y-111915688D03*
X56666769Y-114455688D03*
X56666769Y-116995688D03*
X56666769Y-119535688D03*
X56666769Y-122075688D03*
X56666769Y-124615688D03*
X56666769Y-127155688D03*
X56666769Y-129695688D03*
%TD*%
D25*
%TO.C,U23*%
X60536769Y-106062844D03*
X60536769Y-107562844D03*
X60536769Y-109062844D03*
X60536769Y-110562844D03*
X60536769Y-112062844D03*
X60536769Y-113562844D03*
X60536769Y-115062844D03*
X60536769Y-116562844D03*
X60536769Y-118062844D03*
X78036769Y-118062844D03*
X78036769Y-116562844D03*
X78036769Y-115062844D03*
X78036769Y-113562844D03*
X78036769Y-112062844D03*
X78036769Y-110562844D03*
X78036769Y-109062844D03*
X78036769Y-107562844D03*
X78036769Y-106062844D03*
D26*
X69146769Y-111712845D03*
X69146769Y-112812844D03*
X69696769Y-111162844D03*
X69696769Y-112262844D03*
X69696769Y-113362844D03*
X70246769Y-111712844D03*
D27*
X70246769Y-112262844D03*
D26*
X70246769Y-112812845D03*
X70796769Y-111162844D03*
X70796769Y-112262844D03*
X70796769Y-113362844D03*
X71346769Y-111712845D03*
X71346769Y-112812844D03*
%TD*%
D13*
%TO.C,C26*%
X80236769Y-130727844D03*
X81786769Y-130727844D03*
%TD*%
D22*
%TO.C,R23*%
X78591769Y-130727844D03*
X76941769Y-130727844D03*
%TD*%
D28*
%TO.C,J27*%
X61704117Y-123025496D03*
D29*
X62729421Y-122000192D03*
%TD*%
D30*
%TO.C,R24*%
X60716770Y-129150342D03*
X60716770Y-130800342D03*
%TD*%
D31*
%TO.C,C25*%
X60716771Y-127535342D03*
X60716771Y-125985342D03*
%TD*%
D33*
%TO.C,D5*%
X76836769Y-122157842D03*
X76836769Y-123732844D03*
%TD*%
D32*
%TO.C,R9*%
X76826768Y-127085343D03*
X76826768Y-125435343D03*
%TD*%
D23*
%TO.C,J22*%
X130366767Y-88512844D03*
D24*
X128916769Y-88512844D03*
%TD*%
D11*
%TO.C,J20*%
X142023539Y-73842844D03*
D12*
X142023539Y-76382844D03*
X142023539Y-78922843D03*
X142023539Y-81462844D03*
X142023539Y-84002844D03*
X142023539Y-86542844D03*
X142023539Y-89082844D03*
X142023539Y-91622845D03*
X142023539Y-94162844D03*
%TD*%
D13*
%TO.C,C17*%
X132666769Y-93012844D03*
X134216769Y-93012844D03*
%TD*%
D16*
%TO.C,SW17*%
X137201769Y-100377844D03*
X141351769Y-100377844D03*
X137201769Y-102527844D03*
X141351769Y-102527844D03*
%TD*%
D13*
%TO.C,C18*%
X124841769Y-88312844D03*
X126391769Y-88312844D03*
%TD*%
D17*
%TO.C,U20*%
X126436018Y-99278271D03*
X132216018Y-99278271D03*
D18*
X126076018Y-97833271D03*
X126876018Y-97833271D03*
D19*
X128076018Y-97833271D03*
X129076018Y-97833271D03*
X129576018Y-97833271D03*
X130576018Y-97833271D03*
D18*
X131776018Y-97833271D03*
X132576018Y-97833271D03*
X132576018Y-97833271D03*
X131776018Y-97833271D03*
D19*
X131076018Y-97833271D03*
X130076018Y-97833271D03*
X128576018Y-97833271D03*
X127576018Y-97833271D03*
D18*
X126876018Y-97833271D03*
X126076018Y-97833271D03*
D20*
X125006018Y-98748271D03*
D21*
X125006018Y-102928271D03*
D20*
X133646018Y-98748271D03*
D21*
X133646018Y-102928271D03*
%TD*%
D15*
%TO.C,C19*%
X130036769Y-91512844D03*
X130036769Y-93062844D03*
%TD*%
D22*
%TO.C,R13*%
X134261769Y-88512844D03*
X132611769Y-88512844D03*
%TD*%
D14*
%TO.C,U19*%
X127224269Y-93442844D03*
X127224269Y-92492844D03*
X127224269Y-91542844D03*
X124949269Y-91542844D03*
X124949269Y-93442844D03*
%TD*%
D16*
%TO.C,SW16*%
X117476768Y-100372842D03*
X121626768Y-100372842D03*
X117476768Y-102522842D03*
X121626768Y-102522842D03*
%TD*%
D11*
%TO.C,J19*%
X116666769Y-73835688D03*
D12*
X116666769Y-76375688D03*
X116666769Y-78915688D03*
X116666769Y-81455688D03*
X116666769Y-83995688D03*
X116666769Y-86535688D03*
X116666769Y-89075688D03*
X116666769Y-91615688D03*
X116666769Y-94155688D03*
X116666769Y-96695688D03*
%TD*%
D25*
%TO.C,U18*%
X120536769Y-73062844D03*
X120536769Y-74562844D03*
X120536769Y-76062844D03*
X120536769Y-77562844D03*
X120536769Y-79062844D03*
X120536769Y-80562844D03*
X120536769Y-82062844D03*
X120536769Y-83562844D03*
X120536769Y-85062844D03*
X138036769Y-85062844D03*
X138036769Y-83562844D03*
X138036769Y-82062844D03*
X138036769Y-80562844D03*
X138036769Y-79062844D03*
X138036769Y-77562844D03*
X138036769Y-76062844D03*
X138036769Y-74562844D03*
X138036769Y-73062844D03*
D26*
X129146769Y-78712845D03*
X129146769Y-79812844D03*
X129696769Y-78162844D03*
X129696769Y-79262844D03*
X129696769Y-80362844D03*
X130246769Y-78712844D03*
D27*
X130246769Y-79262844D03*
D26*
X130246769Y-79812845D03*
X130796769Y-78162844D03*
X130796769Y-79262844D03*
X130796769Y-80362844D03*
X131346769Y-78712845D03*
X131346769Y-79812844D03*
%TD*%
D22*
%TO.C,R21*%
X138591769Y-97727844D03*
X136941769Y-97727844D03*
%TD*%
D13*
%TO.C,C21*%
X140236769Y-97727844D03*
X141786769Y-97727844D03*
%TD*%
D28*
%TO.C,J21*%
X121704117Y-90025496D03*
D29*
X122729421Y-89000192D03*
%TD*%
D30*
%TO.C,R22*%
X120716770Y-96150342D03*
X120716770Y-97800342D03*
%TD*%
D31*
%TO.C,C20*%
X120716771Y-94535342D03*
X120716771Y-92985342D03*
%TD*%
D33*
%TO.C,D4*%
X136836769Y-89157842D03*
X136836769Y-90732844D03*
%TD*%
D32*
%TO.C,R8*%
X136826768Y-94085343D03*
X136826768Y-92435343D03*
%TD*%
D13*
%TO.C,C8*%
X102666769Y-93012844D03*
X104216769Y-93012844D03*
%TD*%
D16*
%TO.C,SW15*%
X107201769Y-100377844D03*
X111351769Y-100377844D03*
X107201769Y-102527844D03*
X111351769Y-102527844D03*
%TD*%
D13*
%TO.C,C13*%
X94841769Y-88312844D03*
X96391769Y-88312844D03*
%TD*%
D14*
%TO.C,U14*%
X97224269Y-93442844D03*
X97224269Y-92492844D03*
X97224269Y-91542844D03*
X94949269Y-91542844D03*
X94949269Y-93442844D03*
%TD*%
D15*
%TO.C,C14*%
X100036769Y-91512844D03*
X100036769Y-93062844D03*
%TD*%
D17*
%TO.C,U15*%
X96436018Y-99278271D03*
X102216018Y-99278271D03*
D18*
X96076018Y-97833271D03*
X96876018Y-97833271D03*
D19*
X98076018Y-97833271D03*
X99076018Y-97833271D03*
X99576018Y-97833271D03*
X100576018Y-97833271D03*
D18*
X101776018Y-97833271D03*
X102576018Y-97833271D03*
X102576018Y-97833271D03*
X101776018Y-97833271D03*
D19*
X101076018Y-97833271D03*
X100076018Y-97833271D03*
X98576018Y-97833271D03*
X97576018Y-97833271D03*
D18*
X96876018Y-97833271D03*
X96076018Y-97833271D03*
D20*
X95006018Y-98748271D03*
D21*
X95006018Y-102928271D03*
D20*
X103646018Y-98748271D03*
D21*
X103646018Y-102928271D03*
%TD*%
D16*
%TO.C,SW14*%
X87476768Y-100372842D03*
X91626768Y-100372842D03*
X87476768Y-102522842D03*
X91626768Y-102522842D03*
%TD*%
D22*
%TO.C,R12*%
X104261769Y-88512844D03*
X102611769Y-88512844D03*
%TD*%
D23*
%TO.C,J16*%
X100366767Y-88512844D03*
D24*
X98916769Y-88512844D03*
%TD*%
D11*
%TO.C,J14*%
X112023539Y-73842844D03*
D12*
X112023539Y-76382844D03*
X112023539Y-78922843D03*
X112023539Y-81462844D03*
X112023539Y-84002844D03*
X112023539Y-86542844D03*
X112023539Y-89082844D03*
X112023539Y-91622845D03*
X112023539Y-94162844D03*
%TD*%
D11*
%TO.C,J13*%
X86666769Y-73835688D03*
D12*
X86666769Y-76375688D03*
X86666769Y-78915688D03*
X86666769Y-81455688D03*
X86666769Y-83995688D03*
X86666769Y-86535688D03*
X86666769Y-89075688D03*
X86666769Y-91615688D03*
X86666769Y-94155688D03*
X86666769Y-96695688D03*
%TD*%
D22*
%TO.C,R19*%
X108591769Y-97727844D03*
X106941769Y-97727844D03*
%TD*%
D13*
%TO.C,C16*%
X110236769Y-97727844D03*
X111786769Y-97727844D03*
%TD*%
D28*
%TO.C,J15*%
X91704117Y-90025496D03*
D29*
X92729421Y-89000192D03*
%TD*%
D30*
%TO.C,R20*%
X90716770Y-96150342D03*
X90716770Y-97800342D03*
%TD*%
D31*
%TO.C,C15*%
X90716771Y-94535342D03*
X90716771Y-92985342D03*
%TD*%
D33*
%TO.C,D3*%
X106836769Y-89157842D03*
X106836769Y-90732844D03*
%TD*%
D32*
%TO.C,R7*%
X106826768Y-94085343D03*
X106826768Y-92435343D03*
%TD*%
D25*
%TO.C,U13*%
X90536769Y-73062844D03*
X90536769Y-74562844D03*
X90536769Y-76062844D03*
X90536769Y-77562844D03*
X90536769Y-79062844D03*
X90536769Y-80562844D03*
X90536769Y-82062844D03*
X90536769Y-83562844D03*
X90536769Y-85062844D03*
X108036769Y-85062844D03*
X108036769Y-83562844D03*
X108036769Y-82062844D03*
X108036769Y-80562844D03*
X108036769Y-79062844D03*
X108036769Y-77562844D03*
X108036769Y-76062844D03*
X108036769Y-74562844D03*
X108036769Y-73062844D03*
D26*
X99146769Y-78712845D03*
X99146769Y-79812844D03*
X99696769Y-78162844D03*
X99696769Y-79262844D03*
X99696769Y-80362844D03*
X100246769Y-78712844D03*
D27*
X100246769Y-79262844D03*
D26*
X100246769Y-79812845D03*
X100796769Y-78162844D03*
X100796769Y-79262844D03*
X100796769Y-80362844D03*
X101346769Y-78712845D03*
X101346769Y-79812844D03*
%TD*%
D23*
%TO.C,J10*%
X70366767Y-88512844D03*
D24*
X68916769Y-88512844D03*
%TD*%
D11*
%TO.C,J8*%
X82023539Y-73842844D03*
D12*
X82023539Y-76382844D03*
X82023539Y-78922843D03*
X82023539Y-81462844D03*
X82023539Y-84002844D03*
X82023539Y-86542844D03*
X82023539Y-89082844D03*
X82023539Y-91622845D03*
X82023539Y-94162844D03*
%TD*%
D16*
%TO.C,SW13*%
X77201769Y-100377844D03*
X81351769Y-100377844D03*
X77201769Y-102527844D03*
X81351769Y-102527844D03*
%TD*%
D13*
%TO.C,C6*%
X64841769Y-88312844D03*
X66391769Y-88312844D03*
%TD*%
D14*
%TO.C,U8*%
X67224269Y-93442844D03*
X67224269Y-92492844D03*
X67224269Y-91542844D03*
X64949269Y-91542844D03*
X64949269Y-93442844D03*
%TD*%
D15*
%TO.C,C7*%
X70036769Y-91512844D03*
X70036769Y-93062844D03*
%TD*%
D17*
%TO.C,U11*%
X66436018Y-99278271D03*
X72216018Y-99278271D03*
D18*
X66076018Y-97833271D03*
X66876018Y-97833271D03*
D19*
X68076018Y-97833271D03*
X69076018Y-97833271D03*
X69576018Y-97833271D03*
X70576018Y-97833271D03*
D18*
X71776018Y-97833271D03*
X72576018Y-97833271D03*
X72576018Y-97833271D03*
X71776018Y-97833271D03*
D19*
X71076018Y-97833271D03*
X70076018Y-97833271D03*
X68576018Y-97833271D03*
X67576018Y-97833271D03*
D18*
X66876018Y-97833271D03*
X66076018Y-97833271D03*
D20*
X65006018Y-98748271D03*
D21*
X65006018Y-102928271D03*
D20*
X73646018Y-98748271D03*
D21*
X73646018Y-102928271D03*
%TD*%
D22*
%TO.C,R11*%
X74261769Y-88512844D03*
X72611769Y-88512844D03*
%TD*%
D16*
%TO.C,SW12*%
X57476768Y-100372842D03*
X61626768Y-100372842D03*
X57476768Y-102522842D03*
X61626768Y-102522842D03*
%TD*%
D13*
%TO.C,C3*%
X72666769Y-93012844D03*
X74216769Y-93012844D03*
%TD*%
D11*
%TO.C,J7*%
X56666769Y-73835688D03*
D12*
X56666769Y-76375688D03*
X56666769Y-78915688D03*
X56666769Y-81455688D03*
X56666769Y-83995688D03*
X56666769Y-86535688D03*
X56666769Y-89075688D03*
X56666769Y-91615688D03*
X56666769Y-94155688D03*
X56666769Y-96695688D03*
%TD*%
D25*
%TO.C,U7*%
X60536769Y-73062844D03*
X60536769Y-74562844D03*
X60536769Y-76062844D03*
X60536769Y-77562844D03*
X60536769Y-79062844D03*
X60536769Y-80562844D03*
X60536769Y-82062844D03*
X60536769Y-83562844D03*
X60536769Y-85062844D03*
X78036769Y-85062844D03*
X78036769Y-83562844D03*
X78036769Y-82062844D03*
X78036769Y-80562844D03*
X78036769Y-79062844D03*
X78036769Y-77562844D03*
X78036769Y-76062844D03*
X78036769Y-74562844D03*
X78036769Y-73062844D03*
D26*
X69146769Y-78712845D03*
X69146769Y-79812844D03*
X69696769Y-78162844D03*
X69696769Y-79262844D03*
X69696769Y-80362844D03*
X70246769Y-78712844D03*
D27*
X70246769Y-79262844D03*
D26*
X70246769Y-79812845D03*
X70796769Y-78162844D03*
X70796769Y-79262844D03*
X70796769Y-80362844D03*
X71346769Y-78712845D03*
X71346769Y-79812844D03*
%TD*%
D28*
%TO.C,J9*%
X61704117Y-90025496D03*
D29*
X62729421Y-89000192D03*
%TD*%
D30*
%TO.C,R18*%
X60716770Y-96150342D03*
X60716770Y-97800342D03*
%TD*%
D31*
%TO.C,C11*%
X60716771Y-94535342D03*
X60716771Y-92985342D03*
%TD*%
D32*
%TO.C,R6*%
X76826768Y-94085343D03*
X76826768Y-92435343D03*
%TD*%
D33*
%TO.C,D2*%
X76836769Y-89157842D03*
X76836769Y-90732844D03*
%TD*%
D22*
%TO.C,R17*%
X78591769Y-97727844D03*
X76941769Y-97727844D03*
%TD*%
D13*
%TO.C,C12*%
X80236769Y-97727844D03*
X81786769Y-97727844D03*
%TD*%
D22*
%TO.C,R10*%
X134261769Y-154512844D03*
X132611769Y-154512844D03*
%TD*%
D28*
%TO.C,J3*%
X121704117Y-156025496D03*
D29*
X122729421Y-155000192D03*
%TD*%
D15*
%TO.C,C5*%
X130036769Y-157512844D03*
X130036769Y-159062844D03*
%TD*%
D14*
%TO.C,U6*%
X127224269Y-159442844D03*
X127224269Y-158492844D03*
X127224269Y-157542844D03*
X124949269Y-157542844D03*
X124949269Y-159442844D03*
%TD*%
D16*
%TO.C,SW10*%
X117476768Y-166372842D03*
X121626768Y-166372842D03*
X117476768Y-168522842D03*
X121626768Y-168522842D03*
%TD*%
D13*
%TO.C,C10*%
X140236769Y-163727844D03*
X141786769Y-163727844D03*
%TD*%
D17*
%TO.C,U10*%
X126436018Y-165278271D03*
X132216018Y-165278271D03*
D18*
X126076018Y-163833271D03*
X126876018Y-163833271D03*
D19*
X128076018Y-163833271D03*
X129076018Y-163833271D03*
X129576018Y-163833271D03*
X130576018Y-163833271D03*
D18*
X131776018Y-163833271D03*
X132576018Y-163833271D03*
X132576018Y-163833271D03*
X131776018Y-163833271D03*
D19*
X131076018Y-163833271D03*
X130076018Y-163833271D03*
X128576018Y-163833271D03*
X127576018Y-163833271D03*
D18*
X126876018Y-163833271D03*
X126076018Y-163833271D03*
D20*
X125006018Y-164748271D03*
D21*
X125006018Y-168928271D03*
D20*
X133646018Y-164748271D03*
D21*
X133646018Y-168928271D03*
%TD*%
D31*
%TO.C,C9*%
X120716771Y-160535342D03*
X120716771Y-158985342D03*
%TD*%
D22*
%TO.C,R15*%
X138591769Y-163727844D03*
X136941769Y-163727844D03*
%TD*%
D30*
%TO.C,R16*%
X120716770Y-162150342D03*
X120716770Y-163800342D03*
%TD*%
D11*
%TO.C,J1*%
X116666769Y-139835688D03*
D12*
X116666769Y-142375688D03*
X116666769Y-144915688D03*
X116666769Y-147455688D03*
X116666769Y-149995688D03*
X116666769Y-152535688D03*
X116666769Y-155075688D03*
X116666769Y-157615688D03*
X116666769Y-160155688D03*
X116666769Y-162695688D03*
%TD*%
D16*
%TO.C,SW11*%
X137201769Y-166377844D03*
X141351769Y-166377844D03*
X137201769Y-168527844D03*
X141351769Y-168527844D03*
%TD*%
D23*
%TO.C,J4*%
X130366767Y-154512844D03*
D24*
X128916769Y-154512844D03*
%TD*%
D25*
%TO.C,U5*%
X120536769Y-139062844D03*
X120536769Y-140562844D03*
X120536769Y-142062844D03*
X120536769Y-143562844D03*
X120536769Y-145062844D03*
X120536769Y-146562844D03*
X120536769Y-148062844D03*
X120536769Y-149562844D03*
X120536769Y-151062844D03*
X138036769Y-151062844D03*
X138036769Y-149562844D03*
X138036769Y-148062844D03*
X138036769Y-146562844D03*
X138036769Y-145062844D03*
X138036769Y-143562844D03*
X138036769Y-142062844D03*
X138036769Y-140562844D03*
X138036769Y-139062844D03*
D26*
X129146769Y-144712845D03*
X129146769Y-145812844D03*
X129696769Y-144162844D03*
X129696769Y-145262844D03*
X129696769Y-146362844D03*
X130246769Y-144712844D03*
D27*
X130246769Y-145262844D03*
D26*
X130246769Y-145812845D03*
X130796769Y-144162844D03*
X130796769Y-145262844D03*
X130796769Y-146362844D03*
X131346769Y-144712845D03*
X131346769Y-145812844D03*
%TD*%
D13*
%TO.C,C2*%
X132666769Y-159012844D03*
X134216769Y-159012844D03*
%TD*%
D11*
%TO.C,J2*%
X142023539Y-139842844D03*
D12*
X142023539Y-142382844D03*
X142023539Y-144922843D03*
X142023539Y-147462844D03*
X142023539Y-150002844D03*
X142023539Y-152542844D03*
X142023539Y-155082844D03*
X142023539Y-157622845D03*
X142023539Y-160162844D03*
%TD*%
D32*
%TO.C,R5*%
X136826768Y-160085343D03*
X136826768Y-158435343D03*
%TD*%
D33*
%TO.C,D1*%
X136836769Y-155157842D03*
X136836769Y-156732844D03*
%TD*%
D13*
%TO.C,C4*%
X124841769Y-154312844D03*
X126391769Y-154312844D03*
%TD*%
M02*
