%TF.GenerationSoftware,KiCad,Pcbnew,9.0.3*%
%TF.CreationDate,2025-08-20T23:40:03-04:00*%
%TF.ProjectId,Mess-ESP-P16,4d657373-2d45-4535-902d-5031362e6b69,rev?*%
%TF.SameCoordinates,Original*%
%TF.FileFunction,Soldermask,Bot*%
%TF.FilePolarity,Negative*%
%FSLAX46Y46*%
G04 Gerber Fmt 4.6, Leading zero omitted, Abs format (unit mm)*
G04 Created by KiCad (PCBNEW 9.0.3) date 2025-08-20 23:40:03*
%MOMM*%
%LPD*%
G01*
G04 APERTURE LIST*
G04 Aperture macros list*
%AMRoundRect*
0 Rectangle with rounded corners*
0 $1 Rounding radius*
0 $2 $3 $4 $5 $6 $7 $8 $9 X,Y pos of 4 corners*
0 Add a 4 corners polygon primitive as box body*
4,1,4,$2,$3,$4,$5,$6,$7,$8,$9,$2,$3,0*
0 Add four circle primitives for the rounded corners*
1,1,$1+$1,$2,$3*
1,1,$1+$1,$4,$5*
1,1,$1+$1,$6,$7*
1,1,$1+$1,$8,$9*
0 Add four rect primitives between the rounded corners*
20,1,$1+$1,$2,$3,$4,$5,0*
20,1,$1+$1,$4,$5,$6,$7,0*
20,1,$1+$1,$6,$7,$8,$9,0*
20,1,$1+$1,$8,$9,$2,$3,0*%
%AMFreePoly0*
4,1,6,0.825000,0.000000,0.525000,-0.450000,-0.500000,-0.450000,-0.500000,0.450000,0.525000,0.450000,0.825000,0.000000,0.825000,0.000000,$1*%
%AMFreePoly1*
4,1,6,0.500000,-0.450000,-0.625000,-0.450000,-0.325000,0.000000,-0.625000,0.450000,0.500000,0.450000,0.500000,-0.450000,0.500000,-0.450000,$1*%
G04 Aperture macros list end*
%ADD10C,0.000000*%
%ADD11R,1.700000X1.700000*%
%ADD12C,1.700000*%
%ADD13FreePoly0,270.000000*%
%ADD14FreePoly1,270.000000*%
%ADD15R,2.500000X1.000000*%
%ADD16R,1.000000X1.800000*%
%ADD17C,0.650000*%
%ADD18O,1.000000X2.100000*%
%ADD19O,1.000000X1.600000*%
%ADD20RoundRect,0.150000X0.512500X0.150000X-0.512500X0.150000X-0.512500X-0.150000X0.512500X-0.150000X0*%
G04 APERTURE END LIST*
D10*
%TO.C,J54*%
G36*
X101206769Y-151567844D02*
G01*
X100306769Y-151567844D01*
X100306769Y-149117844D01*
X101206769Y-149117844D01*
X101206769Y-151567844D01*
G37*
%TO.C,J53*%
G36*
X98226769Y-151517844D02*
G01*
X97326769Y-151517844D01*
X97326769Y-149067844D01*
X98226769Y-149067844D01*
X98226769Y-151517844D01*
G37*
%TO.C,J48*%
G36*
X71206769Y-151567844D02*
G01*
X70306769Y-151567844D01*
X70306769Y-149117844D01*
X71206769Y-149117844D01*
X71206769Y-151567844D01*
G37*
%TO.C,J47*%
G36*
X68226769Y-151517844D02*
G01*
X67326769Y-151517844D01*
X67326769Y-149067844D01*
X68226769Y-149067844D01*
X68226769Y-151517844D01*
G37*
%TO.C,J42*%
G36*
X131206769Y-118567844D02*
G01*
X130306769Y-118567844D01*
X130306769Y-116117844D01*
X131206769Y-116117844D01*
X131206769Y-118567844D01*
G37*
%TO.C,J41*%
G36*
X128226769Y-118517844D02*
G01*
X127326769Y-118517844D01*
X127326769Y-116067844D01*
X128226769Y-116067844D01*
X128226769Y-118517844D01*
G37*
%TO.C,J36*%
G36*
X101206769Y-118567844D02*
G01*
X100306769Y-118567844D01*
X100306769Y-116117844D01*
X101206769Y-116117844D01*
X101206769Y-118567844D01*
G37*
%TO.C,J35*%
G36*
X98226769Y-118517844D02*
G01*
X97326769Y-118517844D01*
X97326769Y-116067844D01*
X98226769Y-116067844D01*
X98226769Y-118517844D01*
G37*
%TO.C,J30*%
G36*
X71206769Y-118567844D02*
G01*
X70306769Y-118567844D01*
X70306769Y-116117844D01*
X71206769Y-116117844D01*
X71206769Y-118567844D01*
G37*
%TO.C,J29*%
G36*
X68226769Y-118517844D02*
G01*
X67326769Y-118517844D01*
X67326769Y-116067844D01*
X68226769Y-116067844D01*
X68226769Y-118517844D01*
G37*
%TO.C,J24*%
G36*
X131206769Y-85567844D02*
G01*
X130306769Y-85567844D01*
X130306769Y-83117844D01*
X131206769Y-83117844D01*
X131206769Y-85567844D01*
G37*
%TO.C,J23*%
G36*
X128226769Y-85517844D02*
G01*
X127326769Y-85517844D01*
X127326769Y-83067844D01*
X128226769Y-83067844D01*
X128226769Y-85517844D01*
G37*
%TO.C,J18*%
G36*
X101206769Y-85567844D02*
G01*
X100306769Y-85567844D01*
X100306769Y-83117844D01*
X101206769Y-83117844D01*
X101206769Y-85567844D01*
G37*
%TO.C,J17*%
G36*
X98226769Y-85517844D02*
G01*
X97326769Y-85517844D01*
X97326769Y-83067844D01*
X98226769Y-83067844D01*
X98226769Y-85517844D01*
G37*
%TO.C,J12*%
G36*
X71206769Y-85567844D02*
G01*
X70306769Y-85567844D01*
X70306769Y-83117844D01*
X71206769Y-83117844D01*
X71206769Y-85567844D01*
G37*
%TO.C,J11*%
G36*
X68226769Y-85517844D02*
G01*
X67326769Y-85517844D01*
X67326769Y-83067844D01*
X68226769Y-83067844D01*
X68226769Y-85517844D01*
G37*
%TO.C,J5*%
G36*
X128226769Y-151517844D02*
G01*
X127326769Y-151517844D01*
X127326769Y-149067844D01*
X128226769Y-149067844D01*
X128226769Y-151517844D01*
G37*
%TO.C,J6*%
G36*
X131206769Y-151567844D02*
G01*
X130306769Y-151567844D01*
X130306769Y-149117844D01*
X131206769Y-149117844D01*
X131206769Y-151567844D01*
G37*
%TD*%
D11*
%TO.C,J50*%
X112023539Y-139842844D03*
D12*
X112023539Y-142382844D03*
X112023539Y-144922843D03*
X112023539Y-147462844D03*
X112023539Y-150002844D03*
X112023539Y-152542844D03*
X112023539Y-155082844D03*
X112023539Y-157622845D03*
X112023539Y-160162844D03*
%TD*%
D13*
%TO.C,J54*%
X100756769Y-149617845D03*
D14*
X100756769Y-151067843D03*
%TD*%
D13*
%TO.C,J53*%
X97776769Y-149567845D03*
D14*
X97776769Y-151017843D03*
%TD*%
D15*
%TO.C,U41*%
X106946769Y-139082844D03*
X106946769Y-141082844D03*
X106946769Y-143082844D03*
X106946769Y-145082843D03*
X106946769Y-147082844D03*
X106946769Y-149082845D03*
X106946769Y-151082844D03*
X106946769Y-153082844D03*
D16*
X104346769Y-154582843D03*
X102346769Y-154582844D03*
X100346769Y-154582844D03*
X98346769Y-154582844D03*
X96346769Y-154582844D03*
X94346769Y-154582843D03*
D15*
X91746769Y-153082844D03*
X91746769Y-151082844D03*
X91746769Y-149082845D03*
X91746769Y-147082844D03*
X91746769Y-145082843D03*
X91746769Y-143082844D03*
X91746769Y-141082844D03*
X91746769Y-139082844D03*
%TD*%
D17*
%TO.C,U45*%
X96436018Y-165278271D03*
X102216018Y-165278271D03*
D18*
X95006018Y-164748271D03*
D19*
X95006018Y-168928271D03*
D18*
X103646018Y-164748271D03*
D19*
X103646018Y-168928271D03*
%TD*%
D20*
%TO.C,U42*%
X93454269Y-158262844D03*
X93454269Y-160162844D03*
X91179269Y-159212844D03*
%TD*%
D11*
%TO.C,J49*%
X86666769Y-139835688D03*
D12*
X86666769Y-142375688D03*
X86666769Y-144915688D03*
X86666769Y-147455688D03*
X86666769Y-149995688D03*
X86666769Y-152535688D03*
X86666769Y-155075688D03*
X86666769Y-157615688D03*
X86666769Y-160155688D03*
X86666769Y-162695688D03*
%TD*%
D11*
%TO.C,J44*%
X82023539Y-139842844D03*
D12*
X82023539Y-142382844D03*
X82023539Y-144922843D03*
X82023539Y-147462844D03*
X82023539Y-150002844D03*
X82023539Y-152542844D03*
X82023539Y-155082844D03*
X82023539Y-157622845D03*
X82023539Y-160162844D03*
%TD*%
D13*
%TO.C,J48*%
X70756769Y-149617845D03*
D14*
X70756769Y-151067843D03*
%TD*%
D13*
%TO.C,J47*%
X67776769Y-149567845D03*
D14*
X67776769Y-151017843D03*
%TD*%
D20*
%TO.C,U37*%
X63454269Y-158262844D03*
X63454269Y-160162844D03*
X61179269Y-159212844D03*
%TD*%
D17*
%TO.C,U40*%
X66436018Y-165278271D03*
X72216018Y-165278271D03*
D18*
X65006018Y-164748271D03*
D19*
X65006018Y-168928271D03*
D18*
X73646018Y-164748271D03*
D19*
X73646018Y-168928271D03*
%TD*%
D15*
%TO.C,U36*%
X76946769Y-139082844D03*
X76946769Y-141082844D03*
X76946769Y-143082844D03*
X76946769Y-145082843D03*
X76946769Y-147082844D03*
X76946769Y-149082845D03*
X76946769Y-151082844D03*
X76946769Y-153082844D03*
D16*
X74346769Y-154582843D03*
X72346769Y-154582844D03*
X70346769Y-154582844D03*
X68346769Y-154582844D03*
X66346769Y-154582844D03*
X64346769Y-154582843D03*
D15*
X61746769Y-153082844D03*
X61746769Y-151082844D03*
X61746769Y-149082845D03*
X61746769Y-147082844D03*
X61746769Y-145082843D03*
X61746769Y-143082844D03*
X61746769Y-141082844D03*
X61746769Y-139082844D03*
%TD*%
D11*
%TO.C,J43*%
X56666769Y-139835688D03*
D12*
X56666769Y-142375688D03*
X56666769Y-144915688D03*
X56666769Y-147455688D03*
X56666769Y-149995688D03*
X56666769Y-152535688D03*
X56666769Y-155075688D03*
X56666769Y-157615688D03*
X56666769Y-160155688D03*
X56666769Y-162695688D03*
%TD*%
D13*
%TO.C,J42*%
X130756769Y-116617845D03*
D14*
X130756769Y-118067843D03*
%TD*%
D20*
%TO.C,U32*%
X123454269Y-125262844D03*
X123454269Y-127162844D03*
X121179269Y-126212844D03*
%TD*%
D17*
%TO.C,U35*%
X126436018Y-132278271D03*
X132216018Y-132278271D03*
D18*
X125006018Y-131748271D03*
D19*
X125006018Y-135928271D03*
D18*
X133646018Y-131748271D03*
D19*
X133646018Y-135928271D03*
%TD*%
D13*
%TO.C,J41*%
X127776769Y-116567845D03*
D14*
X127776769Y-118017843D03*
%TD*%
D11*
%TO.C,J38*%
X142023539Y-106842844D03*
D12*
X142023539Y-109382844D03*
X142023539Y-111922843D03*
X142023539Y-114462844D03*
X142023539Y-117002844D03*
X142023539Y-119542844D03*
X142023539Y-122082844D03*
X142023539Y-124622845D03*
X142023539Y-127162844D03*
%TD*%
D15*
%TO.C,U31*%
X136946769Y-106082844D03*
X136946769Y-108082844D03*
X136946769Y-110082844D03*
X136946769Y-112082843D03*
X136946769Y-114082844D03*
X136946769Y-116082845D03*
X136946769Y-118082844D03*
X136946769Y-120082844D03*
D16*
X134346769Y-121582843D03*
X132346769Y-121582844D03*
X130346769Y-121582844D03*
X128346769Y-121582844D03*
X126346769Y-121582844D03*
X124346769Y-121582843D03*
D15*
X121746769Y-120082844D03*
X121746769Y-118082844D03*
X121746769Y-116082845D03*
X121746769Y-114082844D03*
X121746769Y-112082843D03*
X121746769Y-110082844D03*
X121746769Y-108082844D03*
X121746769Y-106082844D03*
%TD*%
D11*
%TO.C,J37*%
X116666769Y-106835688D03*
D12*
X116666769Y-109375688D03*
X116666769Y-111915688D03*
X116666769Y-114455688D03*
X116666769Y-116995688D03*
X116666769Y-119535688D03*
X116666769Y-122075688D03*
X116666769Y-124615688D03*
X116666769Y-127155688D03*
X116666769Y-129695688D03*
%TD*%
D13*
%TO.C,J36*%
X100756769Y-116617845D03*
D14*
X100756769Y-118067843D03*
%TD*%
D13*
%TO.C,J35*%
X97776769Y-116567845D03*
D14*
X97776769Y-118017843D03*
%TD*%
D20*
%TO.C,U27*%
X93454269Y-125262844D03*
X93454269Y-127162844D03*
X91179269Y-126212844D03*
%TD*%
D17*
%TO.C,U30*%
X96436018Y-132278271D03*
X102216018Y-132278271D03*
D18*
X95006018Y-131748271D03*
D19*
X95006018Y-135928271D03*
D18*
X103646018Y-131748271D03*
D19*
X103646018Y-135928271D03*
%TD*%
D11*
%TO.C,J32*%
X112023539Y-106842844D03*
D12*
X112023539Y-109382844D03*
X112023539Y-111922843D03*
X112023539Y-114462844D03*
X112023539Y-117002844D03*
X112023539Y-119542844D03*
X112023539Y-122082844D03*
X112023539Y-124622845D03*
X112023539Y-127162844D03*
%TD*%
D15*
%TO.C,U26*%
X106946769Y-106082844D03*
X106946769Y-108082844D03*
X106946769Y-110082844D03*
X106946769Y-112082843D03*
X106946769Y-114082844D03*
X106946769Y-116082845D03*
X106946769Y-118082844D03*
X106946769Y-120082844D03*
D16*
X104346769Y-121582843D03*
X102346769Y-121582844D03*
X100346769Y-121582844D03*
X98346769Y-121582844D03*
X96346769Y-121582844D03*
X94346769Y-121582843D03*
D15*
X91746769Y-120082844D03*
X91746769Y-118082844D03*
X91746769Y-116082845D03*
X91746769Y-114082844D03*
X91746769Y-112082843D03*
X91746769Y-110082844D03*
X91746769Y-108082844D03*
X91746769Y-106082844D03*
%TD*%
D11*
%TO.C,J31*%
X86666769Y-106835688D03*
D12*
X86666769Y-109375688D03*
X86666769Y-111915688D03*
X86666769Y-114455688D03*
X86666769Y-116995688D03*
X86666769Y-119535688D03*
X86666769Y-122075688D03*
X86666769Y-124615688D03*
X86666769Y-127155688D03*
X86666769Y-129695688D03*
%TD*%
D11*
%TO.C,J26*%
X82023539Y-106842844D03*
D12*
X82023539Y-109382844D03*
X82023539Y-111922843D03*
X82023539Y-114462844D03*
X82023539Y-117002844D03*
X82023539Y-119542844D03*
X82023539Y-122082844D03*
X82023539Y-124622845D03*
X82023539Y-127162844D03*
%TD*%
D13*
%TO.C,J30*%
X70756769Y-116617845D03*
D14*
X70756769Y-118067843D03*
%TD*%
D13*
%TO.C,J29*%
X67776769Y-116567845D03*
D14*
X67776769Y-118017843D03*
%TD*%
D20*
%TO.C,U22*%
X63454269Y-125262844D03*
X63454269Y-127162844D03*
X61179269Y-126212844D03*
%TD*%
D17*
%TO.C,U25*%
X66436018Y-132278271D03*
X72216018Y-132278271D03*
D18*
X65006018Y-131748271D03*
D19*
X65006018Y-135928271D03*
D18*
X73646018Y-131748271D03*
D19*
X73646018Y-135928271D03*
%TD*%
D15*
%TO.C,U21*%
X76946769Y-106082844D03*
X76946769Y-108082844D03*
X76946769Y-110082844D03*
X76946769Y-112082843D03*
X76946769Y-114082844D03*
X76946769Y-116082845D03*
X76946769Y-118082844D03*
X76946769Y-120082844D03*
D16*
X74346769Y-121582843D03*
X72346769Y-121582844D03*
X70346769Y-121582844D03*
X68346769Y-121582844D03*
X66346769Y-121582844D03*
X64346769Y-121582843D03*
D15*
X61746769Y-120082844D03*
X61746769Y-118082844D03*
X61746769Y-116082845D03*
X61746769Y-114082844D03*
X61746769Y-112082843D03*
X61746769Y-110082844D03*
X61746769Y-108082844D03*
X61746769Y-106082844D03*
%TD*%
D11*
%TO.C,J25*%
X56666769Y-106835688D03*
D12*
X56666769Y-109375688D03*
X56666769Y-111915688D03*
X56666769Y-114455688D03*
X56666769Y-116995688D03*
X56666769Y-119535688D03*
X56666769Y-122075688D03*
X56666769Y-124615688D03*
X56666769Y-127155688D03*
X56666769Y-129695688D03*
%TD*%
D11*
%TO.C,J20*%
X142023539Y-73842844D03*
D12*
X142023539Y-76382844D03*
X142023539Y-78922843D03*
X142023539Y-81462844D03*
X142023539Y-84002844D03*
X142023539Y-86542844D03*
X142023539Y-89082844D03*
X142023539Y-91622845D03*
X142023539Y-94162844D03*
%TD*%
D13*
%TO.C,J24*%
X130756769Y-83617845D03*
D14*
X130756769Y-85067843D03*
%TD*%
D13*
%TO.C,J23*%
X127776769Y-83567845D03*
D14*
X127776769Y-85017843D03*
%TD*%
D20*
%TO.C,U17*%
X123454269Y-92262844D03*
X123454269Y-94162844D03*
X121179269Y-93212844D03*
%TD*%
D17*
%TO.C,U20*%
X126436018Y-99278271D03*
X132216018Y-99278271D03*
D18*
X125006018Y-98748271D03*
D19*
X125006018Y-102928271D03*
D18*
X133646018Y-98748271D03*
D19*
X133646018Y-102928271D03*
%TD*%
D15*
%TO.C,U16*%
X136946769Y-73082844D03*
X136946769Y-75082844D03*
X136946769Y-77082844D03*
X136946769Y-79082843D03*
X136946769Y-81082844D03*
X136946769Y-83082845D03*
X136946769Y-85082844D03*
X136946769Y-87082844D03*
D16*
X134346769Y-88582843D03*
X132346769Y-88582844D03*
X130346769Y-88582844D03*
X128346769Y-88582844D03*
X126346769Y-88582844D03*
X124346769Y-88582843D03*
D15*
X121746769Y-87082844D03*
X121746769Y-85082844D03*
X121746769Y-83082845D03*
X121746769Y-81082844D03*
X121746769Y-79082843D03*
X121746769Y-77082844D03*
X121746769Y-75082844D03*
X121746769Y-73082844D03*
%TD*%
D11*
%TO.C,J19*%
X116666769Y-73835688D03*
D12*
X116666769Y-76375688D03*
X116666769Y-78915688D03*
X116666769Y-81455688D03*
X116666769Y-83995688D03*
X116666769Y-86535688D03*
X116666769Y-89075688D03*
X116666769Y-91615688D03*
X116666769Y-94155688D03*
X116666769Y-96695688D03*
%TD*%
D13*
%TO.C,J18*%
X100756769Y-83617845D03*
D14*
X100756769Y-85067843D03*
%TD*%
D17*
%TO.C,U15*%
X96436018Y-99278271D03*
X102216018Y-99278271D03*
D18*
X95006018Y-98748271D03*
D19*
X95006018Y-102928271D03*
D18*
X103646018Y-98748271D03*
D19*
X103646018Y-102928271D03*
%TD*%
D20*
%TO.C,U12*%
X93454269Y-92262844D03*
X93454269Y-94162844D03*
X91179269Y-93212844D03*
%TD*%
D13*
%TO.C,J17*%
X97776769Y-83567845D03*
D14*
X97776769Y-85017843D03*
%TD*%
D15*
%TO.C,U9*%
X106946769Y-73082844D03*
X106946769Y-75082844D03*
X106946769Y-77082844D03*
X106946769Y-79082843D03*
X106946769Y-81082844D03*
X106946769Y-83082845D03*
X106946769Y-85082844D03*
X106946769Y-87082844D03*
D16*
X104346769Y-88582843D03*
X102346769Y-88582844D03*
X100346769Y-88582844D03*
X98346769Y-88582844D03*
X96346769Y-88582844D03*
X94346769Y-88582843D03*
D15*
X91746769Y-87082844D03*
X91746769Y-85082844D03*
X91746769Y-83082845D03*
X91746769Y-81082844D03*
X91746769Y-79082843D03*
X91746769Y-77082844D03*
X91746769Y-75082844D03*
X91746769Y-73082844D03*
%TD*%
D11*
%TO.C,J14*%
X112023539Y-73842844D03*
D12*
X112023539Y-76382844D03*
X112023539Y-78922843D03*
X112023539Y-81462844D03*
X112023539Y-84002844D03*
X112023539Y-86542844D03*
X112023539Y-89082844D03*
X112023539Y-91622845D03*
X112023539Y-94162844D03*
%TD*%
D11*
%TO.C,J13*%
X86666769Y-73835688D03*
D12*
X86666769Y-76375688D03*
X86666769Y-78915688D03*
X86666769Y-81455688D03*
X86666769Y-83995688D03*
X86666769Y-86535688D03*
X86666769Y-89075688D03*
X86666769Y-91615688D03*
X86666769Y-94155688D03*
X86666769Y-96695688D03*
%TD*%
D11*
%TO.C,J8*%
X82023539Y-73842844D03*
D12*
X82023539Y-76382844D03*
X82023539Y-78922843D03*
X82023539Y-81462844D03*
X82023539Y-84002844D03*
X82023539Y-86542844D03*
X82023539Y-89082844D03*
X82023539Y-91622845D03*
X82023539Y-94162844D03*
%TD*%
D13*
%TO.C,J12*%
X70756769Y-83617845D03*
D14*
X70756769Y-85067843D03*
%TD*%
D17*
%TO.C,U11*%
X66436018Y-99278271D03*
X72216018Y-99278271D03*
D18*
X65006018Y-98748271D03*
D19*
X65006018Y-102928271D03*
D18*
X73646018Y-98748271D03*
D19*
X73646018Y-102928271D03*
%TD*%
D13*
%TO.C,J11*%
X67776769Y-83567845D03*
D14*
X67776769Y-85017843D03*
%TD*%
D15*
%TO.C,U3*%
X76946769Y-73082844D03*
X76946769Y-75082844D03*
X76946769Y-77082844D03*
X76946769Y-79082843D03*
X76946769Y-81082844D03*
X76946769Y-83082845D03*
X76946769Y-85082844D03*
X76946769Y-87082844D03*
D16*
X74346769Y-88582843D03*
X72346769Y-88582844D03*
X70346769Y-88582844D03*
X68346769Y-88582844D03*
X66346769Y-88582844D03*
X64346769Y-88582843D03*
D15*
X61746769Y-87082844D03*
X61746769Y-85082844D03*
X61746769Y-83082845D03*
X61746769Y-81082844D03*
X61746769Y-79082843D03*
X61746769Y-77082844D03*
X61746769Y-75082844D03*
X61746769Y-73082844D03*
%TD*%
D11*
%TO.C,J7*%
X56666769Y-73835688D03*
D12*
X56666769Y-76375688D03*
X56666769Y-78915688D03*
X56666769Y-81455688D03*
X56666769Y-83995688D03*
X56666769Y-86535688D03*
X56666769Y-89075688D03*
X56666769Y-91615688D03*
X56666769Y-94155688D03*
X56666769Y-96695688D03*
%TD*%
D20*
%TO.C,U4*%
X63454269Y-92262844D03*
X63454269Y-94162844D03*
X61179269Y-93212844D03*
%TD*%
D17*
%TO.C,U10*%
X126436018Y-165278271D03*
X132216018Y-165278271D03*
D18*
X125006018Y-164748271D03*
D19*
X125006018Y-168928271D03*
D18*
X133646018Y-164748271D03*
D19*
X133646018Y-168928271D03*
%TD*%
D11*
%TO.C,J1*%
X116666769Y-139835688D03*
D12*
X116666769Y-142375688D03*
X116666769Y-144915688D03*
X116666769Y-147455688D03*
X116666769Y-149995688D03*
X116666769Y-152535688D03*
X116666769Y-155075688D03*
X116666769Y-157615688D03*
X116666769Y-160155688D03*
X116666769Y-162695688D03*
%TD*%
D11*
%TO.C,J2*%
X142023539Y-139842844D03*
D12*
X142023539Y-142382844D03*
X142023539Y-144922843D03*
X142023539Y-147462844D03*
X142023539Y-150002844D03*
X142023539Y-152542844D03*
X142023539Y-155082844D03*
X142023539Y-157622845D03*
X142023539Y-160162844D03*
%TD*%
D20*
%TO.C,U2*%
X123454269Y-158262844D03*
X123454269Y-160162844D03*
X121179269Y-159212844D03*
%TD*%
D15*
%TO.C,U1*%
X136946769Y-139082844D03*
X136946769Y-141082844D03*
X136946769Y-143082844D03*
X136946769Y-145082843D03*
X136946769Y-147082844D03*
X136946769Y-149082845D03*
X136946769Y-151082844D03*
X136946769Y-153082844D03*
D16*
X134346769Y-154582843D03*
X132346769Y-154582844D03*
X130346769Y-154582844D03*
X128346769Y-154582844D03*
X126346769Y-154582844D03*
X124346769Y-154582843D03*
D15*
X121746769Y-153082844D03*
X121746769Y-151082844D03*
X121746769Y-149082845D03*
X121746769Y-147082844D03*
X121746769Y-145082843D03*
X121746769Y-143082844D03*
X121746769Y-141082844D03*
X121746769Y-139082844D03*
%TD*%
D13*
%TO.C,J5*%
X127776769Y-149567845D03*
D14*
X127776769Y-151017843D03*
%TD*%
D13*
%TO.C,J6*%
X130756769Y-149617845D03*
D14*
X130756769Y-151067843D03*
%TD*%
M02*
