%TF.GenerationSoftware,KiCad,Pcbnew,9.0.3*%
%TF.CreationDate,2025-08-20T23:40:02-04:00*%
%TF.ProjectId,Mess-ESP-P16,4d657373-2d45-4535-902d-5031362e6b69,rev?*%
%TF.SameCoordinates,Original*%
%TF.FileFunction,Paste,Bot*%
%TF.FilePolarity,Positive*%
%FSLAX46Y46*%
G04 Gerber Fmt 4.6, Leading zero omitted, Abs format (unit mm)*
G04 Created by KiCad (PCBNEW 9.0.3) date 2025-08-20 23:40:02*
%MOMM*%
%LPD*%
G01*
G04 APERTURE LIST*
G04 Aperture macros list*
%AMRoundRect*
0 Rectangle with rounded corners*
0 $1 Rounding radius*
0 $2 $3 $4 $5 $6 $7 $8 $9 X,Y pos of 4 corners*
0 Add a 4 corners polygon primitive as box body*
4,1,4,$2,$3,$4,$5,$6,$7,$8,$9,$2,$3,0*
0 Add four circle primitives for the rounded corners*
1,1,$1+$1,$2,$3*
1,1,$1+$1,$4,$5*
1,1,$1+$1,$6,$7*
1,1,$1+$1,$8,$9*
0 Add four rect primitives between the rounded corners*
20,1,$1+$1,$2,$3,$4,$5,0*
20,1,$1+$1,$4,$5,$6,$7,0*
20,1,$1+$1,$6,$7,$8,$9,0*
20,1,$1+$1,$8,$9,$2,$3,0*%
G04 Aperture macros list end*
%ADD10R,2.500000X1.000000*%
%ADD11R,1.000000X1.800000*%
%ADD12RoundRect,0.150000X0.512500X0.150000X-0.512500X0.150000X-0.512500X-0.150000X0.512500X-0.150000X0*%
G04 APERTURE END LIST*
D10*
%TO.C,U41*%
X106946769Y-139082844D03*
X106946769Y-141082844D03*
X106946769Y-143082844D03*
X106946769Y-145082843D03*
X106946769Y-147082844D03*
X106946769Y-149082845D03*
X106946769Y-151082844D03*
X106946769Y-153082844D03*
D11*
X104346769Y-154582843D03*
X102346769Y-154582844D03*
X100346769Y-154582844D03*
X98346769Y-154582844D03*
X96346769Y-154582844D03*
X94346769Y-154582843D03*
D10*
X91746769Y-153082844D03*
X91746769Y-151082844D03*
X91746769Y-149082845D03*
X91746769Y-147082844D03*
X91746769Y-145082843D03*
X91746769Y-143082844D03*
X91746769Y-141082844D03*
X91746769Y-139082844D03*
%TD*%
D12*
%TO.C,U42*%
X93454269Y-158262844D03*
X93454269Y-160162844D03*
X91179269Y-159212844D03*
%TD*%
%TO.C,U37*%
X63454269Y-158262844D03*
X63454269Y-160162844D03*
X61179269Y-159212844D03*
%TD*%
D10*
%TO.C,U36*%
X76946769Y-139082844D03*
X76946769Y-141082844D03*
X76946769Y-143082844D03*
X76946769Y-145082843D03*
X76946769Y-147082844D03*
X76946769Y-149082845D03*
X76946769Y-151082844D03*
X76946769Y-153082844D03*
D11*
X74346769Y-154582843D03*
X72346769Y-154582844D03*
X70346769Y-154582844D03*
X68346769Y-154582844D03*
X66346769Y-154582844D03*
X64346769Y-154582843D03*
D10*
X61746769Y-153082844D03*
X61746769Y-151082844D03*
X61746769Y-149082845D03*
X61746769Y-147082844D03*
X61746769Y-145082843D03*
X61746769Y-143082844D03*
X61746769Y-141082844D03*
X61746769Y-139082844D03*
%TD*%
D12*
%TO.C,U32*%
X123454269Y-125262844D03*
X123454269Y-127162844D03*
X121179269Y-126212844D03*
%TD*%
D10*
%TO.C,U31*%
X136946769Y-106082844D03*
X136946769Y-108082844D03*
X136946769Y-110082844D03*
X136946769Y-112082843D03*
X136946769Y-114082844D03*
X136946769Y-116082845D03*
X136946769Y-118082844D03*
X136946769Y-120082844D03*
D11*
X134346769Y-121582843D03*
X132346769Y-121582844D03*
X130346769Y-121582844D03*
X128346769Y-121582844D03*
X126346769Y-121582844D03*
X124346769Y-121582843D03*
D10*
X121746769Y-120082844D03*
X121746769Y-118082844D03*
X121746769Y-116082845D03*
X121746769Y-114082844D03*
X121746769Y-112082843D03*
X121746769Y-110082844D03*
X121746769Y-108082844D03*
X121746769Y-106082844D03*
%TD*%
D12*
%TO.C,U27*%
X93454269Y-125262844D03*
X93454269Y-127162844D03*
X91179269Y-126212844D03*
%TD*%
D10*
%TO.C,U26*%
X106946769Y-106082844D03*
X106946769Y-108082844D03*
X106946769Y-110082844D03*
X106946769Y-112082843D03*
X106946769Y-114082844D03*
X106946769Y-116082845D03*
X106946769Y-118082844D03*
X106946769Y-120082844D03*
D11*
X104346769Y-121582843D03*
X102346769Y-121582844D03*
X100346769Y-121582844D03*
X98346769Y-121582844D03*
X96346769Y-121582844D03*
X94346769Y-121582843D03*
D10*
X91746769Y-120082844D03*
X91746769Y-118082844D03*
X91746769Y-116082845D03*
X91746769Y-114082844D03*
X91746769Y-112082843D03*
X91746769Y-110082844D03*
X91746769Y-108082844D03*
X91746769Y-106082844D03*
%TD*%
D12*
%TO.C,U22*%
X63454269Y-125262844D03*
X63454269Y-127162844D03*
X61179269Y-126212844D03*
%TD*%
D10*
%TO.C,U21*%
X76946769Y-106082844D03*
X76946769Y-108082844D03*
X76946769Y-110082844D03*
X76946769Y-112082843D03*
X76946769Y-114082844D03*
X76946769Y-116082845D03*
X76946769Y-118082844D03*
X76946769Y-120082844D03*
D11*
X74346769Y-121582843D03*
X72346769Y-121582844D03*
X70346769Y-121582844D03*
X68346769Y-121582844D03*
X66346769Y-121582844D03*
X64346769Y-121582843D03*
D10*
X61746769Y-120082844D03*
X61746769Y-118082844D03*
X61746769Y-116082845D03*
X61746769Y-114082844D03*
X61746769Y-112082843D03*
X61746769Y-110082844D03*
X61746769Y-108082844D03*
X61746769Y-106082844D03*
%TD*%
D12*
%TO.C,U17*%
X123454269Y-92262844D03*
X123454269Y-94162844D03*
X121179269Y-93212844D03*
%TD*%
D10*
%TO.C,U16*%
X136946769Y-73082844D03*
X136946769Y-75082844D03*
X136946769Y-77082844D03*
X136946769Y-79082843D03*
X136946769Y-81082844D03*
X136946769Y-83082845D03*
X136946769Y-85082844D03*
X136946769Y-87082844D03*
D11*
X134346769Y-88582843D03*
X132346769Y-88582844D03*
X130346769Y-88582844D03*
X128346769Y-88582844D03*
X126346769Y-88582844D03*
X124346769Y-88582843D03*
D10*
X121746769Y-87082844D03*
X121746769Y-85082844D03*
X121746769Y-83082845D03*
X121746769Y-81082844D03*
X121746769Y-79082843D03*
X121746769Y-77082844D03*
X121746769Y-75082844D03*
X121746769Y-73082844D03*
%TD*%
D12*
%TO.C,U12*%
X93454269Y-92262844D03*
X93454269Y-94162844D03*
X91179269Y-93212844D03*
%TD*%
D10*
%TO.C,U9*%
X106946769Y-73082844D03*
X106946769Y-75082844D03*
X106946769Y-77082844D03*
X106946769Y-79082843D03*
X106946769Y-81082844D03*
X106946769Y-83082845D03*
X106946769Y-85082844D03*
X106946769Y-87082844D03*
D11*
X104346769Y-88582843D03*
X102346769Y-88582844D03*
X100346769Y-88582844D03*
X98346769Y-88582844D03*
X96346769Y-88582844D03*
X94346769Y-88582843D03*
D10*
X91746769Y-87082844D03*
X91746769Y-85082844D03*
X91746769Y-83082845D03*
X91746769Y-81082844D03*
X91746769Y-79082843D03*
X91746769Y-77082844D03*
X91746769Y-75082844D03*
X91746769Y-73082844D03*
%TD*%
%TO.C,U3*%
X76946769Y-73082844D03*
X76946769Y-75082844D03*
X76946769Y-77082844D03*
X76946769Y-79082843D03*
X76946769Y-81082844D03*
X76946769Y-83082845D03*
X76946769Y-85082844D03*
X76946769Y-87082844D03*
D11*
X74346769Y-88582843D03*
X72346769Y-88582844D03*
X70346769Y-88582844D03*
X68346769Y-88582844D03*
X66346769Y-88582844D03*
X64346769Y-88582843D03*
D10*
X61746769Y-87082844D03*
X61746769Y-85082844D03*
X61746769Y-83082845D03*
X61746769Y-81082844D03*
X61746769Y-79082843D03*
X61746769Y-77082844D03*
X61746769Y-75082844D03*
X61746769Y-73082844D03*
%TD*%
D12*
%TO.C,U4*%
X63454269Y-92262844D03*
X63454269Y-94162844D03*
X61179269Y-93212844D03*
%TD*%
%TO.C,U2*%
X123454269Y-158262844D03*
X123454269Y-160162844D03*
X121179269Y-159212844D03*
%TD*%
D10*
%TO.C,U1*%
X136946769Y-139082844D03*
X136946769Y-141082844D03*
X136946769Y-143082844D03*
X136946769Y-145082843D03*
X136946769Y-147082844D03*
X136946769Y-149082845D03*
X136946769Y-151082844D03*
X136946769Y-153082844D03*
D11*
X134346769Y-154582843D03*
X132346769Y-154582844D03*
X130346769Y-154582844D03*
X128346769Y-154582844D03*
X126346769Y-154582844D03*
X124346769Y-154582843D03*
D10*
X121746769Y-153082844D03*
X121746769Y-151082844D03*
X121746769Y-149082845D03*
X121746769Y-147082844D03*
X121746769Y-145082843D03*
X121746769Y-143082844D03*
X121746769Y-141082844D03*
X121746769Y-139082844D03*
%TD*%
M02*
