%TF.GenerationSoftware,KiCad,Pcbnew,9.0.3*%
%TF.CreationDate,2025-08-20T23:40:03-04:00*%
%TF.ProjectId,Mess-ESP-P16,4d657373-2d45-4535-902d-5031362e6b69,rev?*%
%TF.SameCoordinates,Original*%
%TF.FileFunction,Profile,NP*%
%FSLAX46Y46*%
G04 Gerber Fmt 4.6, Leading zero omitted, Abs format (unit mm)*
G04 Created by KiCad (PCBNEW 9.0.3) date 2025-08-20 23:40:03*
%MOMM*%
%LPD*%
G01*
G04 APERTURE LIST*
%TA.AperFunction,Profile*%
%ADD10C,1.000000*%
%TD*%
%TA.AperFunction,Profile*%
%ADD11C,0.050000*%
%TD*%
G04 APERTURE END LIST*
D10*
X143597177Y-137699999D02*
X55202668Y-137699999D01*
X143595938Y-104678140D02*
X55201429Y-104678140D01*
X84412514Y-72602822D02*
X84412514Y-169802822D01*
D11*
X54699999Y-72080000D02*
X144120000Y-72080000D01*
X144120000Y-170300001D01*
X54699999Y-170300001D01*
X54699999Y-72080000D01*
X114120000Y-170300001D02*
X84700000Y-170300000D01*
X84699999Y-138080000D01*
X114120000Y-138080000D01*
X114120000Y-170300001D01*
X84120000Y-170300001D02*
X54700000Y-170300000D01*
X54699999Y-138080000D01*
X84120000Y-138080000D01*
X84120000Y-170300001D01*
X144120000Y-137300001D02*
X114700000Y-137300000D01*
X114699999Y-105080000D01*
X144120000Y-105080000D01*
X144120000Y-137300001D01*
X114120000Y-137300001D02*
X84700000Y-137300000D01*
X84699999Y-105080000D01*
X114120000Y-105080000D01*
X114120000Y-137300001D01*
X84120000Y-137300001D02*
X54700000Y-137300000D01*
X54699999Y-105080000D01*
X84120000Y-105080000D01*
X84120000Y-137300001D01*
X144120000Y-104300001D02*
X114700000Y-104300000D01*
X114699999Y-72080000D01*
X144120000Y-72080000D01*
X144120000Y-104300001D01*
X114120000Y-104300001D02*
X84700000Y-104300000D01*
X84699999Y-72080000D01*
X114120000Y-72080000D01*
X114120000Y-104300001D01*
X84120000Y-104300001D02*
X54700000Y-104300000D01*
X54699999Y-72080000D01*
X84120000Y-72080000D01*
X84120000Y-104300001D01*
D10*
X114416932Y-72600000D02*
X114416932Y-169800000D01*
D11*
X144120000Y-170300001D02*
X114700000Y-170300000D01*
X114699999Y-138080000D01*
X144120000Y-138080000D01*
X144120000Y-170300001D01*
M02*
