%TF.GenerationSoftware,KiCad,Pcbnew,9.0.4*%
%TF.CreationDate,2025-08-29T12:47:32-04:00*%
%TF.ProjectId,IOT-MESS-CHP20,494f542d-4d45-4535-932d-43485032302e,rev?*%
%TF.SameCoordinates,Original*%
%TF.FileFunction,Soldermask,Top*%
%TF.FilePolarity,Negative*%
%FSLAX46Y46*%
G04 Gerber Fmt 4.6, Leading zero omitted, Abs format (unit mm)*
G04 Created by KiCad (PCBNEW 9.0.4) date 2025-08-29 12:47:32*
%MOMM*%
%LPD*%
G01*
G04 APERTURE LIST*
G04 Aperture macros list*
%AMRoundRect*
0 Rectangle with rounded corners*
0 $1 Rounding radius*
0 $2 $3 $4 $5 $6 $7 $8 $9 X,Y pos of 4 corners*
0 Add a 4 corners polygon primitive as box body*
4,1,4,$2,$3,$4,$5,$6,$7,$8,$9,$2,$3,0*
0 Add four circle primitives for the rounded corners*
1,1,$1+$1,$2,$3*
1,1,$1+$1,$4,$5*
1,1,$1+$1,$6,$7*
1,1,$1+$1,$8,$9*
0 Add four rect primitives between the rounded corners*
20,1,$1+$1,$2,$3,$4,$5,0*
20,1,$1+$1,$4,$5,$6,$7,0*
20,1,$1+$1,$6,$7,$8,$9,0*
20,1,$1+$1,$8,$9,$2,$3,0*%
%AMFreePoly0*
4,1,23,0.450000,-0.550000,-0.100000,-0.550000,-0.100000,-0.547433,-0.139158,-0.547433,-0.214805,-0.527164,-0.282628,-0.488006,-0.338006,-0.432628,-0.377164,-0.364805,-0.397433,-0.289158,-0.397433,-0.250000,-0.400000,-0.250000,-0.400000,0.250000,-0.397433,0.250000,-0.397433,0.289158,-0.377164,0.364805,-0.338006,0.432628,-0.282628,0.488006,-0.214805,0.527164,-0.139158,0.547433,-0.100000,0.547433,
-0.100000,0.550000,0.450000,0.550000,0.450000,-0.550000,0.450000,-0.550000,$1*%
%AMFreePoly1*
4,1,23,0.100000,0.547433,0.139158,0.547433,0.214805,0.527164,0.282628,0.488006,0.338006,0.432628,0.377164,0.364805,0.397433,0.289158,0.397433,0.250000,0.400000,0.250000,0.400000,-0.250000,0.397433,-0.250000,0.397433,-0.289158,0.377164,-0.364805,0.338006,-0.432628,0.282628,-0.488006,0.214805,-0.527164,0.139158,-0.547433,0.100000,-0.547433,0.100000,-0.550000,-0.450000,-0.550000,
-0.450000,0.550000,0.100000,0.550000,0.100000,0.547433,0.100000,0.547433,$1*%
%AMFreePoly2*
4,1,6,0.825000,0.000000,0.525000,-0.450000,-0.500000,-0.450000,-0.500000,0.450000,0.525000,0.450000,0.825000,0.000000,0.825000,0.000000,$1*%
%AMFreePoly3*
4,1,6,0.500000,-0.450000,-0.625000,-0.450000,-0.325000,0.000000,-0.625000,0.450000,0.500000,0.450000,0.500000,-0.450000,0.500000,-0.450000,$1*%
G04 Aperture macros list end*
%ADD10C,0.000000*%
%ADD11RoundRect,0.225000X0.250000X-0.225000X0.250000X0.225000X-0.250000X0.225000X-0.250000X-0.225000X0*%
%ADD12RoundRect,0.218750X0.256250X-0.218750X0.256250X0.218750X-0.256250X0.218750X-0.256250X-0.218750X0*%
%ADD13RoundRect,0.150000X-0.512500X-0.150000X0.512500X-0.150000X0.512500X0.150000X-0.512500X0.150000X0*%
%ADD14FreePoly0,0.000000*%
%ADD15R,1.000000X1.100000*%
%ADD16FreePoly1,0.000000*%
%ADD17RoundRect,0.225000X-0.225000X-0.250000X0.225000X-0.250000X0.225000X0.250000X-0.225000X0.250000X0*%
%ADD18RoundRect,0.225000X-0.250000X0.225000X-0.250000X-0.225000X0.250000X-0.225000X0.250000X0.225000X0*%
%ADD19RoundRect,0.200000X0.275000X-0.200000X0.275000X0.200000X-0.275000X0.200000X-0.275000X-0.200000X0*%
%ADD20RoundRect,0.200000X-0.275000X0.200000X-0.275000X-0.200000X0.275000X-0.200000X0.275000X0.200000X0*%
%ADD21R,1.700000X1.700000*%
%ADD22C,1.700000*%
%ADD23RoundRect,0.100000X-0.637500X-0.100000X0.637500X-0.100000X0.637500X0.100000X-0.637500X0.100000X0*%
%ADD24FreePoly0,90.000000*%
%ADD25R,1.100000X1.000000*%
%ADD26FreePoly1,90.000000*%
%ADD27FreePoly2,180.000000*%
%ADD28FreePoly3,180.000000*%
%ADD29RoundRect,0.250000X-0.450000X-0.350000X0.450000X-0.350000X0.450000X0.350000X-0.450000X0.350000X0*%
%ADD30RoundRect,0.225000X0.225000X0.250000X-0.225000X0.250000X-0.225000X-0.250000X0.225000X-0.250000X0*%
%ADD31RoundRect,0.050000X-0.050000X0.375000X-0.050000X-0.375000X0.050000X-0.375000X0.050000X0.375000X0*%
%ADD32RoundRect,0.050000X-0.375000X0.050000X-0.375000X-0.050000X0.375000X-0.050000X0.375000X0.050000X0*%
%ADD33R,1.650000X1.650000*%
%ADD34C,0.650000*%
%ADD35R,0.600000X1.450000*%
%ADD36R,0.300000X1.450000*%
%ADD37O,1.000000X2.100000*%
%ADD38O,1.000000X1.600000*%
G04 APERTURE END LIST*
D10*
%TO.C,J3*%
G36*
X179750000Y-96150000D02*
G01*
X178250000Y-96150000D01*
X178250000Y-95050000D01*
X179750000Y-95050000D01*
X179750000Y-96150000D01*
G37*
%TO.C,J6*%
G36*
X176917501Y-119350000D02*
G01*
X175817501Y-119350000D01*
X175817501Y-117850000D01*
X176917501Y-117850000D01*
X176917501Y-119350000D01*
G37*
%TO.C,J9*%
G36*
X181600001Y-120275000D02*
G01*
X179150001Y-120275000D01*
X179150001Y-119375000D01*
X181600001Y-119375000D01*
X181600001Y-120275000D01*
G37*
%TD*%
D11*
%TO.C,C4*%
X172900000Y-123675000D03*
X172900000Y-122125000D03*
%TD*%
D12*
%TO.C,D1*%
X170200000Y-125887501D03*
X170200000Y-124312499D03*
%TD*%
D13*
%TO.C,U5*%
X176025000Y-122100000D03*
X176025000Y-123050000D03*
X176025000Y-124000000D03*
X178300000Y-124000000D03*
X178300000Y-122100000D03*
%TD*%
D14*
%TO.C,J3*%
X177900001Y-95600000D03*
D15*
X179000000Y-95600000D03*
D16*
X180099999Y-95600000D03*
%TD*%
D17*
%TO.C,C1*%
X172005000Y-115100000D03*
X173555000Y-115100000D03*
%TD*%
D18*
%TO.C,C3*%
X172900000Y-118850000D03*
X172900000Y-120400000D03*
%TD*%
D19*
%TO.C,R2*%
X183700000Y-125950000D03*
X183700000Y-124300000D03*
%TD*%
D20*
%TO.C,R4*%
X170200000Y-120950000D03*
X170200000Y-122600000D03*
%TD*%
D18*
%TO.C,C5*%
X181100000Y-122450000D03*
X181100000Y-124000000D03*
%TD*%
D21*
%TO.C,J4*%
X166700000Y-97940000D03*
D22*
X166700000Y-100480000D03*
X166700000Y-103020000D03*
X166700000Y-105560000D03*
X166700000Y-108100000D03*
X166700000Y-110640000D03*
X166700000Y-113180000D03*
X166700000Y-115720000D03*
X166700000Y-118260000D03*
X166700000Y-120800000D03*
X166700000Y-123340000D03*
X166700000Y-125880000D03*
X166700000Y-128420000D03*
X166700000Y-130960000D03*
X166700000Y-133500000D03*
%TD*%
D23*
%TO.C,U2*%
X173768972Y-98355999D03*
X173768972Y-99005999D03*
X173768972Y-99655999D03*
X173768972Y-100305999D03*
X173768972Y-100955999D03*
X173768972Y-101605999D03*
X173768972Y-102255999D03*
X173768972Y-102905999D03*
X173768972Y-103555999D03*
X173768972Y-104205999D03*
X179493972Y-104205999D03*
X179493972Y-103555999D03*
X179493972Y-102905999D03*
X179493972Y-102255999D03*
X179493972Y-101605999D03*
X179493972Y-100955999D03*
X179493972Y-100305999D03*
X179493972Y-99655999D03*
X179493972Y-99005999D03*
X179493972Y-98355999D03*
%TD*%
D24*
%TO.C,J6*%
X176367501Y-119699999D03*
D25*
X176367501Y-118600000D03*
D26*
X176367501Y-117500001D03*
%TD*%
D27*
%TO.C,J9*%
X181100000Y-119825000D03*
D28*
X179650002Y-119825000D03*
%TD*%
D21*
%TO.C,J5*%
X187000000Y-97960000D03*
D22*
X187000000Y-100500000D03*
X187000000Y-103040000D03*
X187000000Y-105580000D03*
X187000000Y-108120000D03*
X187000000Y-110660000D03*
X187000000Y-113200000D03*
X187000000Y-115740000D03*
X187000000Y-118280000D03*
X187000000Y-120820000D03*
X187000000Y-123360000D03*
X187000000Y-125900000D03*
X187000000Y-128440000D03*
X187000000Y-130980000D03*
X187000000Y-133520000D03*
%TD*%
D29*
%TO.C,K1*%
X180400000Y-116900000D03*
X182600000Y-116900000D03*
X182600000Y-115200000D03*
X180400000Y-115200000D03*
%TD*%
D20*
%TO.C,R3*%
X183700000Y-121000000D03*
X183700000Y-122650000D03*
%TD*%
D30*
%TO.C,C2*%
X176850000Y-115100000D03*
X175300000Y-115100000D03*
%TD*%
D31*
%TO.C,U1*%
X176343972Y-107930999D03*
X175943972Y-107930999D03*
X175543972Y-107930999D03*
X175143972Y-107930999D03*
X174743972Y-107930999D03*
D32*
X174093972Y-108580999D03*
X174093972Y-108980999D03*
X174093972Y-109380999D03*
X174093972Y-109780999D03*
X174093972Y-110180999D03*
D31*
X174743972Y-110830999D03*
X175143972Y-110830999D03*
X175543972Y-110830999D03*
X175943972Y-110830999D03*
X176343972Y-110830999D03*
D32*
X176993972Y-110180999D03*
X176993972Y-109780999D03*
X176993972Y-109380999D03*
X176993972Y-108980999D03*
X176993972Y-108580999D03*
D33*
X175543972Y-109380999D03*
%TD*%
D34*
%TO.C,U4*%
X173990000Y-129500000D03*
X179770000Y-129500000D03*
D35*
X173630000Y-128055000D03*
X174430000Y-128055000D03*
D36*
X175630000Y-128055000D03*
X176630000Y-128055000D03*
X177130000Y-128055000D03*
X178130000Y-128055000D03*
D35*
X179330000Y-128055000D03*
X180130000Y-128055000D03*
X180130000Y-128055000D03*
X179330000Y-128055000D03*
D36*
X178630000Y-128055000D03*
X177630000Y-128055000D03*
X176130000Y-128055000D03*
X175130000Y-128055000D03*
D35*
X174430000Y-128055000D03*
X173630000Y-128055000D03*
D37*
X172560000Y-128970000D03*
D38*
X172560000Y-133150000D03*
D37*
X181200000Y-128970000D03*
D38*
X181200000Y-133150000D03*
%TD*%
M02*
