%TF.GenerationSoftware,KiCad,Pcbnew,9.0.4*%
%TF.CreationDate,2025-08-29T12:47:32-04:00*%
%TF.ProjectId,IOT-MESS-CHP20,494f542d-4d45-4535-932d-43485032302e,rev?*%
%TF.SameCoordinates,Original*%
%TF.FileFunction,Soldermask,Bot*%
%TF.FilePolarity,Negative*%
%FSLAX46Y46*%
G04 Gerber Fmt 4.6, Leading zero omitted, Abs format (unit mm)*
G04 Created by KiCad (PCBNEW 9.0.4) date 2025-08-29 12:47:32*
%MOMM*%
%LPD*%
G01*
G04 APERTURE LIST*
G04 Aperture macros list*
%AMRoundRect*
0 Rectangle with rounded corners*
0 $1 Rounding radius*
0 $2 $3 $4 $5 $6 $7 $8 $9 X,Y pos of 4 corners*
0 Add a 4 corners polygon primitive as box body*
4,1,4,$2,$3,$4,$5,$6,$7,$8,$9,$2,$3,0*
0 Add four circle primitives for the rounded corners*
1,1,$1+$1,$2,$3*
1,1,$1+$1,$4,$5*
1,1,$1+$1,$6,$7*
1,1,$1+$1,$8,$9*
0 Add four rect primitives between the rounded corners*
20,1,$1+$1,$2,$3,$4,$5,0*
20,1,$1+$1,$4,$5,$6,$7,0*
20,1,$1+$1,$6,$7,$8,$9,0*
20,1,$1+$1,$8,$9,$2,$3,0*%
%AMFreePoly0*
4,1,6,0.825000,0.000000,0.525000,-0.450000,-0.500000,-0.450000,-0.500000,0.450000,0.525000,0.450000,0.825000,0.000000,0.825000,0.000000,$1*%
%AMFreePoly1*
4,1,6,0.500000,-0.450000,-0.625000,-0.450000,-0.325000,0.000000,-0.625000,0.450000,0.500000,0.450000,0.500000,-0.450000,0.500000,-0.450000,$1*%
G04 Aperture macros list end*
%ADD10C,0.000000*%
%ADD11R,1.700000X1.700000*%
%ADD12C,1.700000*%
%ADD13C,0.650000*%
%ADD14O,1.000000X2.100000*%
%ADD15O,1.000000X1.600000*%
%ADD16RoundRect,0.150000X-0.150000X0.512500X-0.150000X-0.512500X0.150000X-0.512500X0.150000X0.512500X0*%
%ADD17FreePoly0,0.000000*%
%ADD18FreePoly1,0.000000*%
%ADD19FreePoly0,90.000000*%
%ADD20FreePoly1,90.000000*%
%ADD21RoundRect,0.150000X-0.850000X-0.150000X0.850000X-0.150000X0.850000X0.150000X-0.850000X0.150000X0*%
%ADD22FreePoly0,180.000000*%
%ADD23FreePoly1,180.000000*%
G04 APERTURE END LIST*
D10*
%TO.C,J1*%
G36*
X173425000Y-115850000D02*
G01*
X170975000Y-115850000D01*
X170975000Y-114950000D01*
X173425000Y-114950000D01*
X173425000Y-115850000D01*
G37*
%TO.C,J7*%
G36*
X170750000Y-104225000D02*
G01*
X169850000Y-104225000D01*
X169850000Y-101775000D01*
X170750000Y-101775000D01*
X170750000Y-104225000D01*
G37*
%TO.C,J2*%
G36*
X177925000Y-115850000D02*
G01*
X175475000Y-115850000D01*
X175475000Y-114950000D01*
X177925000Y-114950000D01*
X177925000Y-115850000D01*
G37*
%TD*%
D11*
%TO.C,J4*%
X166700000Y-97940000D03*
D12*
X166700000Y-100480000D03*
X166700000Y-103020000D03*
X166700000Y-105560000D03*
X166700000Y-108100000D03*
X166700000Y-110640000D03*
X166700000Y-113180000D03*
X166700000Y-115720000D03*
X166700000Y-118260000D03*
X166700000Y-120800000D03*
X166700000Y-123340000D03*
X166700000Y-125880000D03*
X166700000Y-128420000D03*
X166700000Y-130960000D03*
X166700000Y-133500000D03*
%TD*%
D11*
%TO.C,J5*%
X187000000Y-97960000D03*
D12*
X187000000Y-100500000D03*
X187000000Y-103040000D03*
X187000000Y-105580000D03*
X187000000Y-108120000D03*
X187000000Y-110660000D03*
X187000000Y-113200000D03*
X187000000Y-115740000D03*
X187000000Y-118280000D03*
X187000000Y-120820000D03*
X187000000Y-123360000D03*
X187000000Y-125900000D03*
X187000000Y-128440000D03*
X187000000Y-130980000D03*
X187000000Y-133520000D03*
%TD*%
D13*
%TO.C,U4*%
X173990000Y-129500000D03*
X179770000Y-129500000D03*
D14*
X172560000Y-128970000D03*
D15*
X172560000Y-133150000D03*
D14*
X181200000Y-128970000D03*
D15*
X181200000Y-133150000D03*
%TD*%
D16*
%TO.C,U6*%
X179850000Y-122425000D03*
X181750000Y-122425000D03*
X180800000Y-124700000D03*
%TD*%
D17*
%TO.C,J1*%
X171475001Y-115400000D03*
D18*
X172924999Y-115400000D03*
%TD*%
D19*
%TO.C,J7*%
X170300000Y-103724999D03*
D20*
X170300000Y-102275001D03*
%TD*%
D21*
%TO.C,U3*%
X174193972Y-107571000D03*
X174193972Y-106301000D03*
X174193972Y-105031000D03*
X174193972Y-103761000D03*
X174193972Y-102491000D03*
X174193972Y-101221000D03*
X174193972Y-99951000D03*
X174193972Y-98681000D03*
X179193972Y-98681000D03*
X179193972Y-99951000D03*
X179193972Y-101221000D03*
X179193972Y-102491000D03*
X179193972Y-103761000D03*
X179193972Y-105031000D03*
X179193972Y-106301000D03*
X179193972Y-107571000D03*
%TD*%
D22*
%TO.C,J2*%
X177424999Y-115400000D03*
D23*
X175975001Y-115400000D03*
%TD*%
M02*
