%TF.GenerationSoftware,KiCad,Pcbnew,9.0.4*%
%TF.CreationDate,2025-08-29T12:47:32-04:00*%
%TF.ProjectId,IOT-MESS-CHP20,494f542d-4d45-4535-932d-43485032302e,rev?*%
%TF.SameCoordinates,Original*%
%TF.FileFunction,Copper,L2,Bot*%
%TF.FilePolarity,Positive*%
%FSLAX46Y46*%
G04 Gerber Fmt 4.6, Leading zero omitted, Abs format (unit mm)*
G04 Created by KiCad (PCBNEW 9.0.4) date 2025-08-29 12:47:32*
%MOMM*%
%LPD*%
G01*
G04 APERTURE LIST*
G04 Aperture macros list*
%AMRoundRect*
0 Rectangle with rounded corners*
0 $1 Rounding radius*
0 $2 $3 $4 $5 $6 $7 $8 $9 X,Y pos of 4 corners*
0 Add a 4 corners polygon primitive as box body*
4,1,4,$2,$3,$4,$5,$6,$7,$8,$9,$2,$3,0*
0 Add four circle primitives for the rounded corners*
1,1,$1+$1,$2,$3*
1,1,$1+$1,$4,$5*
1,1,$1+$1,$6,$7*
1,1,$1+$1,$8,$9*
0 Add four rect primitives between the rounded corners*
20,1,$1+$1,$2,$3,$4,$5,0*
20,1,$1+$1,$4,$5,$6,$7,0*
20,1,$1+$1,$6,$7,$8,$9,0*
20,1,$1+$1,$8,$9,$2,$3,0*%
%AMFreePoly0*
4,1,6,0.825000,0.000000,0.525000,-0.450000,-0.500000,-0.450000,-0.500000,0.450000,0.525000,0.450000,0.825000,0.000000,0.825000,0.000000,$1*%
%AMFreePoly1*
4,1,6,0.500000,-0.450000,-0.625000,-0.450000,-0.325000,0.000000,-0.625000,0.450000,0.500000,0.450000,0.500000,-0.450000,0.500000,-0.450000,$1*%
G04 Aperture macros list end*
%TA.AperFunction,ComponentPad*%
%ADD10R,0.900000X0.500000*%
%TD*%
%TA.AperFunction,ComponentPad*%
%ADD11R,1.700000X1.700000*%
%TD*%
%TA.AperFunction,ComponentPad*%
%ADD12C,1.700000*%
%TD*%
%TA.AperFunction,HeatsinkPad*%
%ADD13C,0.500000*%
%TD*%
%TA.AperFunction,HeatsinkPad*%
%ADD14R,1.650000X1.650000*%
%TD*%
%TA.AperFunction,HeatsinkPad*%
%ADD15O,1.000000X2.100000*%
%TD*%
%TA.AperFunction,HeatsinkPad*%
%ADD16O,1.000000X1.600000*%
%TD*%
%TA.AperFunction,SMDPad,CuDef*%
%ADD17RoundRect,0.150000X-0.150000X0.512500X-0.150000X-0.512500X0.150000X-0.512500X0.150000X0.512500X0*%
%TD*%
%TA.AperFunction,SMDPad,CuDef*%
%ADD18FreePoly0,0.000000*%
%TD*%
%TA.AperFunction,SMDPad,CuDef*%
%ADD19FreePoly1,0.000000*%
%TD*%
%TA.AperFunction,SMDPad,CuDef*%
%ADD20FreePoly0,90.000000*%
%TD*%
%TA.AperFunction,SMDPad,CuDef*%
%ADD21FreePoly1,90.000000*%
%TD*%
%TA.AperFunction,SMDPad,CuDef*%
%ADD22RoundRect,0.150000X-0.850000X-0.150000X0.850000X-0.150000X0.850000X0.150000X-0.850000X0.150000X0*%
%TD*%
%TA.AperFunction,SMDPad,CuDef*%
%ADD23FreePoly0,180.000000*%
%TD*%
%TA.AperFunction,SMDPad,CuDef*%
%ADD24FreePoly1,180.000000*%
%TD*%
%TA.AperFunction,ViaPad*%
%ADD25C,0.600000*%
%TD*%
%TA.AperFunction,Conductor*%
%ADD26C,0.300000*%
%TD*%
%TA.AperFunction,Conductor*%
%ADD27C,0.500000*%
%TD*%
%TA.AperFunction,Conductor*%
%ADD28C,0.200000*%
%TD*%
%TA.AperFunction,Conductor*%
%ADD29C,0.400000*%
%TD*%
G04 APERTURE END LIST*
D10*
%TO.P,AE2,2,Shield*%
%TO.N,unconnected-(AE2-Shield-Pad2)*%
X183700000Y-94300000D03*
%TD*%
D11*
%TO.P,J4,1,Pin_1*%
%TO.N,P_1*%
X166700000Y-97940000D03*
D12*
%TO.P,J4,2,Pin_2*%
%TO.N,P_2*%
X166700000Y-100480000D03*
%TO.P,J4,3,Pin_3*%
%TO.N,P_3*%
X166700000Y-103020000D03*
%TO.P,J4,4,Pin_4*%
%TO.N,P_4*%
X166700000Y-105560000D03*
%TO.P,J4,5,Pin_5*%
%TO.N,P_5*%
X166700000Y-108100000D03*
%TO.P,J4,6,Pin_6*%
%TO.N,P_6*%
X166700000Y-110640000D03*
%TO.P,J4,7,Pin_7*%
%TO.N,P_7*%
X166700000Y-113180000D03*
%TO.P,J4,8,Pin_8*%
%TO.N,P_8*%
X166700000Y-115720000D03*
%TO.P,J4,9,Pin_9*%
%TO.N,P_9*%
X166700000Y-118260000D03*
%TO.P,J4,10,Pin_10*%
%TO.N,P_10*%
X166700000Y-120800000D03*
%TO.P,J4,11,Pin_11*%
%TO.N,OSCI*%
X166700000Y-123340000D03*
%TO.P,J4,12,Pin_12*%
%TO.N,+3.3V*%
X166700000Y-125880000D03*
%TO.P,J4,13,Pin_13*%
%TO.N,P_0*%
X166700000Y-128420000D03*
%TO.P,J4,14,Pin_14*%
%TO.N,5V*%
X166700000Y-130960000D03*
%TO.P,J4,15,Pin_15*%
%TO.N,LDO_EN*%
X166700000Y-133500000D03*
%TD*%
D11*
%TO.P,J5,1,Pin_1*%
%TO.N,P_20*%
X187000000Y-97960000D03*
D12*
%TO.P,J5,2,Pin_2*%
%TO.N,P_19*%
X187000000Y-100500000D03*
%TO.P,J5,3,Pin_3*%
%TO.N,P_18*%
X187000000Y-103040000D03*
%TO.P,J5,4,Pin_4*%
%TO.N,P_17*%
X187000000Y-105580000D03*
%TO.P,J5,5,Pin_5*%
%TO.N,P_16*%
X187000000Y-108120000D03*
%TO.P,J5,6,Pin_6*%
%TO.N,P_15*%
X187000000Y-110660000D03*
%TO.P,J5,7,Pin_7*%
%TO.N,P_14*%
X187000000Y-113200000D03*
%TO.P,J5,8,Pin_8*%
%TO.N,P_13*%
X187000000Y-115740000D03*
%TO.P,J5,9,Pin_9*%
%TO.N,P_12*%
X187000000Y-118280000D03*
%TO.P,J5,10,Pin_10*%
%TO.N,P_11*%
X187000000Y-120820000D03*
%TO.P,J5,11,Pin_11*%
%TO.N,OSCO*%
X187000000Y-123360000D03*
%TO.P,J5,12,Pin_12*%
%TO.N,CC1*%
X187000000Y-125900000D03*
%TO.P,J5,13,Pin_13*%
%TO.N,CC2*%
X187000000Y-128440000D03*
%TO.P,J5,14,Pin_14*%
%TO.N,D+*%
X187000000Y-130980000D03*
%TO.P,J5,15,Pin_15*%
%TO.N,D-*%
X187000000Y-133520000D03*
%TD*%
D13*
%TO.P,U1,21,GND*%
%TO.N,P_0*%
X176118972Y-108805999D03*
X174968972Y-108805999D03*
D14*
X175543972Y-109380999D03*
D13*
X176118972Y-109955999D03*
X174968972Y-109955999D03*
%TD*%
D15*
%TO.P,U4,S1,SHIELD*%
%TO.N,P_0*%
X172560000Y-128970000D03*
D16*
X172560000Y-133150000D03*
D15*
X181200000Y-128970000D03*
D16*
X181200000Y-133150000D03*
%TD*%
D17*
%TO.P,U6,1,GND*%
%TO.N,P_0*%
X179850000Y-122425000D03*
%TO.P,U6,2,VO*%
%TO.N,Net-(J9-A)*%
X181750000Y-122425000D03*
%TO.P,U6,3,VI*%
%TO.N,5V*%
X180800000Y-124700000D03*
%TD*%
D18*
%TO.P,J1,1,A*%
%TO.N,OSCI*%
X171475001Y-115400000D03*
D19*
%TO.P,J1,2,B*%
%TO.N,P_5*%
X172924999Y-115400000D03*
%TD*%
D20*
%TO.P,J7,1,A*%
%TO.N,P_7*%
X170300000Y-103724999D03*
D21*
%TO.P,J7,2,B*%
%TO.N,P_0*%
X170300000Y-102275001D03*
%TD*%
D22*
%TO.P,U3,1,PC1/SDA*%
%TO.N,P_11*%
X174193972Y-107571000D03*
%TO.P,U3,2,PC2/SCL*%
%TO.N,P_12*%
X174193972Y-106301000D03*
%TO.P,U3,3,PC3*%
%TO.N,P_13*%
X174193972Y-105031000D03*
%TO.P,U3,4,PC4/A2*%
%TO.N,P_14*%
X174193972Y-103761000D03*
%TO.P,U3,5,PC6/MOSI*%
%TO.N,P_16*%
X174193972Y-102491000D03*
%TO.P,U3,6,PC7/MISO*%
%TO.N,P_17*%
X174193972Y-101221000D03*
%TO.P,U3,7,PD1/SWIO*%
%TO.N,P_18*%
X174193972Y-99951000D03*
%TO.P,U3,8,PD4/A7*%
%TO.N,P_1*%
X174193972Y-98681000D03*
%TO.P,U3,9,PD5/A5/UTX*%
%TO.N,P_2*%
X179193972Y-98681000D03*
%TO.P,U3,10,PD6/A6/URX*%
%TO.N,P_3*%
X179193972Y-99951000D03*
%TO.P,U3,11,PD7/NRST*%
%TO.N,P_4*%
X179193972Y-101221000D03*
%TO.P,U3,12,PA1/A1/OSC_IN*%
%TO.N,P_5*%
X179193972Y-102491000D03*
%TO.P,U3,13,PA2/A0/OSC_OUT*%
%TO.N,P_6*%
X179193972Y-103761000D03*
%TO.P,U3,14,GND*%
%TO.N,P_7*%
X179193972Y-105031000D03*
%TO.P,U3,15,VDD*%
%TO.N,P_9*%
X179193972Y-106301000D03*
%TO.P,U3,16,PC0*%
%TO.N,P_10*%
X179193972Y-107571000D03*
%TD*%
D23*
%TO.P,J2,1,A*%
%TO.N,OSCO*%
X177424999Y-115400000D03*
D24*
%TO.P,J2,2,B*%
%TO.N,P_6*%
X175975001Y-115400000D03*
%TD*%
D25*
%TO.N,OSCI*%
X171690380Y-114009620D03*
%TO.N,P_0*%
X174400000Y-115100000D03*
%TO.N,OSCO*%
X178350000Y-114500000D03*
%TO.N,P_5*%
X176000000Y-101100000D03*
X169200000Y-99000000D03*
%TO.N,P_6*%
X175765472Y-101914001D03*
%TO.N,P_20*%
X181200000Y-98355999D03*
X179843972Y-108472728D03*
%TO.N,P_9*%
X181550000Y-106769238D03*
X180600000Y-111450000D03*
X177600000Y-117600000D03*
%TO.N,5V*%
X179800000Y-125700000D03*
%TO.N,P_2*%
X176748016Y-98300514D03*
%TO.N,CC1*%
X176380000Y-130700000D03*
%TO.N,P_1*%
X175400000Y-98000000D03*
%TO.N,P_3*%
X176900000Y-99085946D03*
%TO.N,P_10*%
X173189201Y-108781000D03*
%TO.N,P_7*%
X169350000Y-104963879D03*
X175790972Y-105701000D03*
%TO.N,P_4*%
X176238969Y-99780271D03*
%TO.N,P_17*%
X183205999Y-100305999D03*
X177940500Y-111530999D03*
%TO.N,P_11*%
X180745169Y-107205831D03*
X172643972Y-110450000D03*
%TO.N,P_14*%
X174700000Y-113080999D03*
X183500000Y-113030999D03*
%TO.N,P_12*%
X173243972Y-111200000D03*
X181193972Y-104480999D03*
%TO.N,P_13*%
X181193972Y-103280999D03*
X173893972Y-112380999D03*
%TO.N,P_19*%
X179782615Y-109382615D03*
%TO.N,P_18*%
X182194480Y-99655998D03*
X180493934Y-110045405D03*
%TO.N,P_15*%
X183550000Y-112232562D03*
%TO.N,P_16*%
X183605740Y-102894260D03*
X177400000Y-120700000D03*
X183465380Y-111184620D03*
%TO.N,LDO_EN*%
X175550000Y-125000000D03*
X173900000Y-123800000D03*
%TO.N,Net-(J9-A)*%
X178600000Y-121200000D03*
X182100000Y-120000000D03*
%TD*%
D26*
%TO.N,OSCI*%
X171475001Y-114124999D02*
X171475001Y-115400000D01*
X171690380Y-114009620D02*
X171590380Y-114009620D01*
X171590380Y-114009620D02*
X171475001Y-114124999D01*
%TO.N,OSCO*%
X177900000Y-114500000D02*
X177424999Y-114975001D01*
X178350000Y-114500000D02*
X177900000Y-114500000D01*
X177424999Y-114975001D02*
X177424999Y-115400000D01*
D27*
%TO.N,P_5*%
X168600000Y-106200000D02*
X166700000Y-108100000D01*
X168600000Y-99600000D02*
X168600000Y-106200000D01*
D26*
X172924999Y-114324999D02*
X166700000Y-108100000D01*
D27*
X169200000Y-99000000D02*
X168600000Y-99600000D01*
D26*
X179193972Y-102491000D02*
X177391000Y-102491000D01*
X177391000Y-102491000D02*
X176000000Y-101100000D01*
X172924999Y-115400000D02*
X172924999Y-114324999D01*
%TO.N,P_6*%
X174575001Y-116800000D02*
X175975001Y-115400000D01*
X177612471Y-103761000D02*
X175765472Y-101914001D01*
X179193972Y-103761000D02*
X177612471Y-103761000D01*
X166700000Y-110640000D02*
X169000000Y-112940000D01*
X170500000Y-116800000D02*
X174575001Y-116800000D01*
X169000000Y-115300000D02*
X170500000Y-116800000D01*
X169000000Y-112940000D02*
X169000000Y-115300000D01*
%TO.N,P_20*%
X180827272Y-108472728D02*
X179843972Y-108472728D01*
X182400000Y-103200000D02*
X182400000Y-106900000D01*
X182400000Y-106900000D02*
X180827272Y-108472728D01*
X181200000Y-98355999D02*
X181200000Y-102000000D01*
X181200000Y-102000000D02*
X182400000Y-103200000D01*
D27*
%TO.N,P_9*%
X181550000Y-106769238D02*
X181369238Y-106769238D01*
X180500000Y-111800000D02*
X180500000Y-112100000D01*
X180600000Y-111450000D02*
X180600000Y-111700000D01*
X179100000Y-113500000D02*
X179100000Y-116100000D01*
X180901000Y-106301000D02*
X179193972Y-106301000D01*
X180600000Y-111700000D02*
X180500000Y-111800000D01*
X173700000Y-118260000D02*
X166700000Y-118260000D01*
X176940000Y-118260000D02*
X177600000Y-117600000D01*
X173700000Y-118260000D02*
X176940000Y-118260000D01*
X179100000Y-116100000D02*
X177600000Y-117600000D01*
X181369238Y-106769238D02*
X180901000Y-106301000D01*
X180500000Y-112100000D02*
X179100000Y-113500000D01*
X166960000Y-118000000D02*
X166700000Y-118260000D01*
%TO.N,5V*%
X179800000Y-125700000D02*
X180800000Y-124700000D01*
D26*
%TO.N,P_2*%
X179193972Y-98680999D02*
X178813487Y-98300514D01*
X178813487Y-98300514D02*
X176748016Y-98300514D01*
%TO.N,CC1*%
X182200000Y-130700000D02*
X187000000Y-125900000D01*
X176380000Y-130700000D02*
X182380000Y-130700000D01*
D28*
%TO.N,P_1*%
X175400000Y-98000000D02*
X174674971Y-98000000D01*
X174193972Y-98480999D02*
X174193972Y-98680999D01*
X174674971Y-98000000D02*
X174193972Y-98480999D01*
D26*
%TO.N,P_3*%
X177765054Y-99951000D02*
X176900000Y-99085946D01*
X179193972Y-99951000D02*
X177765054Y-99951000D01*
D28*
%TO.N,P_10*%
X173273789Y-108865588D02*
X173334412Y-108865588D01*
X173945001Y-108254999D02*
X178509974Y-108254999D01*
X178509974Y-108254999D02*
X179193972Y-107571001D01*
X173334412Y-108865588D02*
X173945001Y-108254999D01*
X173189201Y-108781000D02*
X173273789Y-108865588D01*
%TO.N,P_7*%
X177111072Y-105030999D02*
X179193972Y-105030999D01*
D26*
X169350000Y-104674999D02*
X170300000Y-103724999D01*
D28*
X177110072Y-105029999D02*
X177111072Y-105030999D01*
D26*
X169350000Y-104963879D02*
X169350000Y-104674999D01*
D28*
X175790972Y-105701000D02*
X176461973Y-105029999D01*
X176461973Y-105029999D02*
X177110072Y-105029999D01*
D26*
%TO.N,P_4*%
X177679699Y-101221001D02*
X176238969Y-99780271D01*
X179193972Y-101221001D02*
X177679699Y-101221001D01*
%TO.N,P_17*%
X177900000Y-111480999D02*
X178580999Y-110800000D01*
X182900000Y-98000000D02*
X181748000Y-96848000D01*
X182900000Y-100000000D02*
X182900000Y-98000000D01*
X177940500Y-111530999D02*
X177900000Y-111490499D01*
X181780000Y-110800000D02*
X187000000Y-105580000D01*
X173605773Y-96848000D02*
X172341972Y-98111801D01*
X173751295Y-101221001D02*
X174193972Y-101221001D01*
X177900000Y-111490499D02*
X177900000Y-111480999D01*
X178580999Y-110800000D02*
X181780000Y-110800000D01*
X183205999Y-100305999D02*
X182900000Y-100000000D01*
X181748000Y-96848000D02*
X173605773Y-96848000D01*
X172341972Y-99811678D02*
X173751295Y-101221001D01*
X172341972Y-98111801D02*
X172341972Y-99811678D01*
%TO.N,P_11*%
X172643972Y-109963212D02*
X172068707Y-109387947D01*
X172643972Y-110450000D02*
X172643972Y-109963212D01*
X173028999Y-107571001D02*
X174193972Y-107571001D01*
X172068707Y-109387947D02*
X172068707Y-108531293D01*
D28*
X180329999Y-106970001D02*
X178153004Y-106970001D01*
X177661503Y-107461503D02*
X177552004Y-107571001D01*
D26*
X172068707Y-108531293D02*
X173028999Y-107571001D01*
D28*
X180565829Y-107205831D02*
X180329999Y-106970001D01*
X177661503Y-107461503D02*
X177552005Y-107571001D01*
X177552005Y-107571001D02*
X174193972Y-107571001D01*
X180745169Y-107205831D02*
X180565829Y-107205831D01*
X178153004Y-106970001D02*
X177661503Y-107461503D01*
D26*
%TO.N,P_14*%
X183500000Y-113030999D02*
X183669001Y-113200000D01*
X172817461Y-103761000D02*
X174193972Y-103761000D01*
X170400000Y-111091480D02*
X170400000Y-106178461D01*
X170400000Y-106178461D02*
X172817461Y-103761000D01*
X172389519Y-113080999D02*
X170400000Y-111091480D01*
X174700000Y-113080999D02*
X172389519Y-113080999D01*
X183669001Y-113200000D02*
X187000000Y-113200000D01*
D28*
%TO.N,P_12*%
X181193972Y-104831056D02*
X181193972Y-104480999D01*
D26*
X171402000Y-110193480D02*
X171402000Y-106593501D01*
X173243972Y-111200000D02*
X173143972Y-111100000D01*
X173143972Y-111100000D02*
X172308520Y-111100000D01*
D28*
X177473971Y-106301000D02*
X174193972Y-106301000D01*
X180325028Y-105700000D02*
X181193972Y-104831056D01*
D26*
X171694501Y-106301000D02*
X174193972Y-106301000D01*
X171402000Y-106593501D02*
X171694501Y-106301000D01*
D28*
X178074971Y-105700000D02*
X180325028Y-105700000D01*
X177473971Y-106301000D02*
X178074971Y-105700000D01*
D26*
X172308520Y-111100000D02*
X171402000Y-110193480D01*
D28*
%TO.N,P_13*%
X181193972Y-103402968D02*
X181193972Y-103280999D01*
D26*
X172255982Y-105030999D02*
X170901000Y-106385981D01*
X172880999Y-112380999D02*
X173893972Y-112380999D01*
D28*
X174843972Y-104380999D02*
X180215941Y-104380999D01*
X180215941Y-104380999D02*
X181193972Y-103402968D01*
D26*
X170901000Y-106385981D02*
X170901000Y-110401000D01*
D28*
X174843972Y-104380999D02*
X174193972Y-105030999D01*
D26*
X170901000Y-110401000D02*
X172880999Y-112380999D01*
X174193972Y-105030999D02*
X172255982Y-105030999D01*
%TO.N,P_19*%
X185200000Y-102300000D02*
X185200000Y-104808520D01*
X180065230Y-109100000D02*
X179782615Y-109382615D01*
X180908520Y-109100000D02*
X180065230Y-109100000D01*
X185200000Y-104808520D02*
X180908520Y-109100000D01*
X187000000Y-100500000D02*
X185200000Y-102300000D01*
%TO.N,P_18*%
X172842972Y-98319321D02*
X172842972Y-99042677D01*
X187000000Y-103810818D02*
X187000000Y-103040000D01*
D29*
X180765413Y-110045405D02*
X180493934Y-110045405D01*
D26*
X182194480Y-98234480D02*
X181309000Y-97349000D01*
X187000000Y-103810818D02*
X180765413Y-110045405D01*
X173751295Y-99951000D02*
X174193972Y-99951000D01*
X173813293Y-97349000D02*
X172842972Y-98319321D01*
X182194480Y-99655998D02*
X182194480Y-98234480D01*
X172842972Y-99042677D02*
X173751295Y-99951000D01*
X181309000Y-97349000D02*
X173813293Y-97349000D01*
%TO.N,P_15*%
X183550000Y-112232562D02*
X183698437Y-112380999D01*
X185279001Y-112380999D02*
X187000000Y-110660000D01*
X183698437Y-112380999D02*
X185279001Y-112380999D01*
%TO.N,P_16*%
X171840972Y-101137999D02*
X173193973Y-102491000D01*
X173193973Y-102491000D02*
X174193972Y-102491000D01*
X182400000Y-96400000D02*
X184601000Y-98601000D01*
D28*
X173993973Y-102280998D02*
X174493972Y-102280998D01*
D27*
X183465380Y-111184620D02*
X182600000Y-112050000D01*
X187000000Y-108120000D02*
X187300000Y-108120000D01*
D26*
X171840972Y-97904281D02*
X171840972Y-101137999D01*
D27*
X186530000Y-108120000D02*
X187000000Y-108120000D01*
X182600000Y-115500000D02*
X177400000Y-120700000D01*
D26*
X173398252Y-96347000D02*
X171840972Y-97904281D01*
D27*
X182600000Y-112050000D02*
X182600000Y-115500000D01*
D26*
X182347000Y-96347000D02*
X173398252Y-96347000D01*
D27*
X183465380Y-111184620D02*
X186530000Y-108120000D01*
D26*
X184601000Y-101899000D02*
X183605740Y-102894260D01*
X184601000Y-98601000D02*
X184601000Y-101899000D01*
%TO.N,LDO_EN*%
X169900000Y-130300000D02*
X169900000Y-128000000D01*
X169900000Y-128000000D02*
X173890914Y-124009086D01*
X175550000Y-125000000D02*
X174450000Y-123900000D01*
X174450000Y-123900000D02*
X174000000Y-123900000D01*
X174000000Y-123900000D02*
X173900000Y-123800000D01*
X166700000Y-133500000D02*
X169900000Y-130300000D01*
D27*
%TO.N,Net-(J9-A)*%
X182100000Y-120000000D02*
X182100000Y-122074999D01*
X182100000Y-120000000D02*
X179800000Y-120000000D01*
X182100000Y-122074999D02*
X181749999Y-122425000D01*
X179800000Y-120000000D02*
X178600000Y-121200000D01*
%TD*%
%TA.AperFunction,Conductor*%
%TO.N,P_0*%
G36*
X188542539Y-93119685D02*
G01*
X188588294Y-93172489D01*
X188599500Y-93224000D01*
X188599500Y-135175500D01*
X188579815Y-135242539D01*
X188527011Y-135288294D01*
X188475500Y-135299500D01*
X165224500Y-135299500D01*
X165157461Y-135279815D01*
X165111706Y-135227011D01*
X165100500Y-135175500D01*
X165100500Y-133413389D01*
X165599500Y-133413389D01*
X165599500Y-133586610D01*
X165624062Y-133741693D01*
X165626598Y-133757701D01*
X165680127Y-133922445D01*
X165758768Y-134076788D01*
X165860586Y-134216928D01*
X165983072Y-134339414D01*
X166123212Y-134441232D01*
X166277555Y-134519873D01*
X166442299Y-134573402D01*
X166613389Y-134600500D01*
X166613390Y-134600500D01*
X166786610Y-134600500D01*
X166786611Y-134600500D01*
X166957701Y-134573402D01*
X167122445Y-134519873D01*
X167276788Y-134441232D01*
X167416928Y-134339414D01*
X167539414Y-134216928D01*
X167641232Y-134076788D01*
X167719873Y-133922445D01*
X167773402Y-133757701D01*
X167800500Y-133586611D01*
X167800500Y-133413389D01*
X167800500Y-133413388D01*
X167793317Y-133368035D01*
X167776570Y-133262302D01*
X167773402Y-133242299D01*
X167735741Y-133126393D01*
X167733747Y-133056558D01*
X167765990Y-133000401D01*
X168014887Y-132751504D01*
X171560000Y-132751504D01*
X171560000Y-132900000D01*
X172260000Y-132900000D01*
X172260000Y-133400000D01*
X171560000Y-133400000D01*
X171560000Y-133548495D01*
X171598427Y-133741681D01*
X171598430Y-133741693D01*
X171673807Y-133923671D01*
X171673814Y-133923684D01*
X171783248Y-134087462D01*
X171783251Y-134087466D01*
X171922533Y-134226748D01*
X171922537Y-134226751D01*
X172086315Y-134336185D01*
X172086328Y-134336192D01*
X172268308Y-134411569D01*
X172310000Y-134419862D01*
X172310000Y-133616988D01*
X172319940Y-133634205D01*
X172375795Y-133690060D01*
X172444204Y-133729556D01*
X172520504Y-133750000D01*
X172599496Y-133750000D01*
X172675796Y-133729556D01*
X172744205Y-133690060D01*
X172800060Y-133634205D01*
X172810000Y-133616988D01*
X172810000Y-134419862D01*
X172851690Y-134411569D01*
X172851692Y-134411569D01*
X173033671Y-134336192D01*
X173033684Y-134336185D01*
X173197462Y-134226751D01*
X173197466Y-134226748D01*
X173336748Y-134087466D01*
X173336751Y-134087462D01*
X173446185Y-133923684D01*
X173446192Y-133923671D01*
X173521569Y-133741693D01*
X173521572Y-133741681D01*
X173559999Y-133548495D01*
X173560000Y-133548492D01*
X173560000Y-133400000D01*
X172860000Y-133400000D01*
X172860000Y-132900000D01*
X173560000Y-132900000D01*
X173560000Y-132751508D01*
X173559999Y-132751504D01*
X180200000Y-132751504D01*
X180200000Y-132900000D01*
X180900000Y-132900000D01*
X180900000Y-133400000D01*
X180200000Y-133400000D01*
X180200000Y-133548495D01*
X180238427Y-133741681D01*
X180238430Y-133741693D01*
X180313807Y-133923671D01*
X180313814Y-133923684D01*
X180423248Y-134087462D01*
X180423251Y-134087466D01*
X180562533Y-134226748D01*
X180562537Y-134226751D01*
X180726315Y-134336185D01*
X180726328Y-134336192D01*
X180908308Y-134411569D01*
X180950000Y-134419862D01*
X180950000Y-133616988D01*
X180959940Y-133634205D01*
X181015795Y-133690060D01*
X181084204Y-133729556D01*
X181160504Y-133750000D01*
X181239496Y-133750000D01*
X181315796Y-133729556D01*
X181384205Y-133690060D01*
X181440060Y-133634205D01*
X181450000Y-133616988D01*
X181450000Y-134419862D01*
X181491690Y-134411569D01*
X181491692Y-134411569D01*
X181673671Y-134336192D01*
X181673684Y-134336185D01*
X181837462Y-134226751D01*
X181837466Y-134226748D01*
X181976748Y-134087466D01*
X181976751Y-134087462D01*
X182086185Y-133923684D01*
X182086192Y-133923671D01*
X182161569Y-133741693D01*
X182161572Y-133741681D01*
X182199999Y-133548495D01*
X182200000Y-133548492D01*
X182200000Y-133433389D01*
X185899500Y-133433389D01*
X185899500Y-133606611D01*
X185907677Y-133658239D01*
X185923429Y-133757697D01*
X185926598Y-133777701D01*
X185980127Y-133942445D01*
X186058768Y-134096788D01*
X186160586Y-134236928D01*
X186283072Y-134359414D01*
X186423212Y-134461232D01*
X186577555Y-134539873D01*
X186742299Y-134593402D01*
X186913389Y-134620500D01*
X186913390Y-134620500D01*
X187086610Y-134620500D01*
X187086611Y-134620500D01*
X187257701Y-134593402D01*
X187422445Y-134539873D01*
X187576788Y-134461232D01*
X187716928Y-134359414D01*
X187839414Y-134236928D01*
X187941232Y-134096788D01*
X188019873Y-133942445D01*
X188073402Y-133777701D01*
X188100500Y-133606611D01*
X188100500Y-133433389D01*
X188073402Y-133262299D01*
X188019873Y-133097555D01*
X187941232Y-132943212D01*
X187839414Y-132803072D01*
X187716928Y-132680586D01*
X187576788Y-132578768D01*
X187422445Y-132500127D01*
X187257701Y-132446598D01*
X187257699Y-132446597D01*
X187257698Y-132446597D01*
X187126271Y-132425781D01*
X187086611Y-132419500D01*
X186913389Y-132419500D01*
X186873728Y-132425781D01*
X186742302Y-132446597D01*
X186577552Y-132500128D01*
X186423211Y-132578768D01*
X186343256Y-132636859D01*
X186283072Y-132680586D01*
X186283070Y-132680588D01*
X186283069Y-132680588D01*
X186160588Y-132803069D01*
X186160588Y-132803070D01*
X186160586Y-132803072D01*
X186116859Y-132863256D01*
X186058768Y-132943211D01*
X185980128Y-133097552D01*
X185926597Y-133262302D01*
X185909851Y-133368035D01*
X185899500Y-133433389D01*
X182200000Y-133433389D01*
X182200000Y-133400000D01*
X181500000Y-133400000D01*
X181500000Y-132900000D01*
X182200000Y-132900000D01*
X182200000Y-132751508D01*
X182199999Y-132751504D01*
X182161572Y-132558318D01*
X182161569Y-132558306D01*
X182086192Y-132376328D01*
X182086185Y-132376315D01*
X181976751Y-132212537D01*
X181976748Y-132212533D01*
X181837466Y-132073251D01*
X181837462Y-132073248D01*
X181673684Y-131963814D01*
X181673671Y-131963807D01*
X181491691Y-131888429D01*
X181491683Y-131888427D01*
X181450000Y-131880135D01*
X181450000Y-132683011D01*
X181440060Y-132665795D01*
X181384205Y-132609940D01*
X181315796Y-132570444D01*
X181239496Y-132550000D01*
X181160504Y-132550000D01*
X181084204Y-132570444D01*
X181015795Y-132609940D01*
X180959940Y-132665795D01*
X180950000Y-132683011D01*
X180950000Y-131880136D01*
X180949999Y-131880135D01*
X180908316Y-131888427D01*
X180908308Y-131888429D01*
X180726328Y-131963807D01*
X180726315Y-131963814D01*
X180562537Y-132073248D01*
X180562533Y-132073251D01*
X180423251Y-132212533D01*
X180423248Y-132212537D01*
X180313814Y-132376315D01*
X180313807Y-132376328D01*
X180238430Y-132558306D01*
X180238427Y-132558318D01*
X180200000Y-132751504D01*
X173559999Y-132751504D01*
X173521572Y-132558318D01*
X173521569Y-132558306D01*
X173446192Y-132376328D01*
X173446185Y-132376315D01*
X173336751Y-132212537D01*
X173336748Y-132212533D01*
X173197466Y-132073251D01*
X173197462Y-132073248D01*
X173033684Y-131963814D01*
X173033671Y-131963807D01*
X172851691Y-131888429D01*
X172851683Y-131888427D01*
X172810000Y-131880135D01*
X172810000Y-132683011D01*
X172800060Y-132665795D01*
X172744205Y-132609940D01*
X172675796Y-132570444D01*
X172599496Y-132550000D01*
X172520504Y-132550000D01*
X172444204Y-132570444D01*
X172375795Y-132609940D01*
X172319940Y-132665795D01*
X172310000Y-132683011D01*
X172310000Y-131880136D01*
X172309999Y-131880135D01*
X172268316Y-131888427D01*
X172268308Y-131888429D01*
X172086328Y-131963807D01*
X172086315Y-131963814D01*
X171922537Y-132073248D01*
X171922533Y-132073251D01*
X171783251Y-132212533D01*
X171783248Y-132212537D01*
X171673814Y-132376315D01*
X171673807Y-132376328D01*
X171598430Y-132558306D01*
X171598427Y-132558318D01*
X171560000Y-132751504D01*
X168014887Y-132751504D01*
X170138868Y-130627525D01*
X175829500Y-130627525D01*
X175829500Y-130772475D01*
X175861899Y-130893389D01*
X175867017Y-130912488D01*
X175939488Y-131038011D01*
X175939490Y-131038013D01*
X175939491Y-131038015D01*
X176041985Y-131140509D01*
X176041986Y-131140510D01*
X176041988Y-131140511D01*
X176167511Y-131212982D01*
X176167512Y-131212982D01*
X176167515Y-131212984D01*
X176307525Y-131250500D01*
X176307528Y-131250500D01*
X176452472Y-131250500D01*
X176452475Y-131250500D01*
X176592485Y-131212984D01*
X176718015Y-131140509D01*
X176721705Y-131136819D01*
X176783028Y-131103334D01*
X176809386Y-131100500D01*
X182432725Y-131100500D01*
X182432727Y-131100500D01*
X182534587Y-131073207D01*
X182625913Y-131020480D01*
X182700480Y-130945913D01*
X182730805Y-130893389D01*
X185899500Y-130893389D01*
X185899500Y-131066611D01*
X185905316Y-131103334D01*
X185923429Y-131217697D01*
X185926598Y-131237701D01*
X185980127Y-131402445D01*
X186058768Y-131556788D01*
X186160586Y-131696928D01*
X186283072Y-131819414D01*
X186423212Y-131921232D01*
X186577555Y-131999873D01*
X186742299Y-132053402D01*
X186913389Y-132080500D01*
X186913390Y-132080500D01*
X187086610Y-132080500D01*
X187086611Y-132080500D01*
X187257701Y-132053402D01*
X187422445Y-131999873D01*
X187576788Y-131921232D01*
X187716928Y-131819414D01*
X187839414Y-131696928D01*
X187941232Y-131556788D01*
X188019873Y-131402445D01*
X188073402Y-131237701D01*
X188100500Y-131066611D01*
X188100500Y-130893389D01*
X188073402Y-130722299D01*
X188019873Y-130557555D01*
X187941232Y-130403212D01*
X187839414Y-130263072D01*
X187716928Y-130140586D01*
X187576788Y-130038768D01*
X187447052Y-129972665D01*
X187422447Y-129960128D01*
X187422446Y-129960127D01*
X187422445Y-129960127D01*
X187257701Y-129906598D01*
X187257699Y-129906597D01*
X187257698Y-129906597D01*
X187126271Y-129885781D01*
X187086611Y-129879500D01*
X186913389Y-129879500D01*
X186873728Y-129885781D01*
X186742302Y-129906597D01*
X186577552Y-129960128D01*
X186423211Y-130038768D01*
X186398774Y-130056523D01*
X186283072Y-130140586D01*
X186283070Y-130140588D01*
X186283069Y-130140588D01*
X186160588Y-130263069D01*
X186160588Y-130263070D01*
X186160586Y-130263072D01*
X186116859Y-130323256D01*
X186058768Y-130403211D01*
X185980128Y-130557552D01*
X185926597Y-130722302D01*
X185918651Y-130772472D01*
X185899500Y-130893389D01*
X182730805Y-130893389D01*
X182753207Y-130854587D01*
X182780500Y-130752727D01*
X182780500Y-130724277D01*
X182783187Y-130711581D01*
X182793850Y-130691786D01*
X182800185Y-130670215D01*
X182816136Y-130650420D01*
X182816325Y-130650070D01*
X182816493Y-130649976D01*
X182816814Y-130649578D01*
X185113002Y-128353389D01*
X185899500Y-128353389D01*
X185899500Y-128526610D01*
X185913181Y-128612993D01*
X185926598Y-128697701D01*
X185980127Y-128862445D01*
X186058768Y-129016788D01*
X186160586Y-129156928D01*
X186283072Y-129279414D01*
X186423212Y-129381232D01*
X186577555Y-129459873D01*
X186742299Y-129513402D01*
X186913389Y-129540500D01*
X186913390Y-129540500D01*
X187086610Y-129540500D01*
X187086611Y-129540500D01*
X187257701Y-129513402D01*
X187422445Y-129459873D01*
X187576788Y-129381232D01*
X187716928Y-129279414D01*
X187839414Y-129156928D01*
X187941232Y-129016788D01*
X188019873Y-128862445D01*
X188073402Y-128697701D01*
X188100500Y-128526611D01*
X188100500Y-128353389D01*
X188073402Y-128182299D01*
X188019873Y-128017555D01*
X187941232Y-127863212D01*
X187839414Y-127723072D01*
X187716928Y-127600586D01*
X187576788Y-127498768D01*
X187497614Y-127458427D01*
X187422447Y-127420128D01*
X187422446Y-127420127D01*
X187422445Y-127420127D01*
X187257701Y-127366598D01*
X187257699Y-127366597D01*
X187257698Y-127366597D01*
X187126271Y-127345781D01*
X187086611Y-127339500D01*
X186913389Y-127339500D01*
X186873728Y-127345781D01*
X186742302Y-127366597D01*
X186577552Y-127420128D01*
X186423211Y-127498768D01*
X186374985Y-127533807D01*
X186283072Y-127600586D01*
X186283070Y-127600588D01*
X186283069Y-127600588D01*
X186160588Y-127723069D01*
X186160588Y-127723070D01*
X186160586Y-127723072D01*
X186138052Y-127754087D01*
X186058768Y-127863211D01*
X185980128Y-128017552D01*
X185926597Y-128182302D01*
X185899500Y-128353389D01*
X185113002Y-128353389D01*
X186500401Y-126965990D01*
X186561722Y-126932507D01*
X186626393Y-126935741D01*
X186742299Y-126973402D01*
X186913389Y-127000500D01*
X186913390Y-127000500D01*
X187086610Y-127000500D01*
X187086611Y-127000500D01*
X187257701Y-126973402D01*
X187422445Y-126919873D01*
X187576788Y-126841232D01*
X187716928Y-126739414D01*
X187839414Y-126616928D01*
X187941232Y-126476788D01*
X188019873Y-126322445D01*
X188073402Y-126157701D01*
X188100500Y-125986611D01*
X188100500Y-125813389D01*
X188073402Y-125642299D01*
X188019873Y-125477555D01*
X187941232Y-125323212D01*
X187839414Y-125183072D01*
X187716928Y-125060586D01*
X187576788Y-124958768D01*
X187422445Y-124880127D01*
X187257701Y-124826598D01*
X187257699Y-124826597D01*
X187257698Y-124826597D01*
X187126271Y-124805781D01*
X187086611Y-124799500D01*
X186913389Y-124799500D01*
X186873728Y-124805781D01*
X186742302Y-124826597D01*
X186577552Y-124880128D01*
X186423211Y-124958768D01*
X186344586Y-125015893D01*
X186283072Y-125060586D01*
X186283070Y-125060588D01*
X186283069Y-125060588D01*
X186160588Y-125183069D01*
X186160588Y-125183070D01*
X186160586Y-125183072D01*
X186157721Y-125187016D01*
X186058768Y-125323211D01*
X185980128Y-125477552D01*
X185926597Y-125642302D01*
X185899500Y-125813389D01*
X185899500Y-125986610D01*
X185926597Y-126157698D01*
X185964256Y-126273600D01*
X185966251Y-126343441D01*
X185934006Y-126399599D01*
X182347570Y-129986036D01*
X182286247Y-130019521D01*
X182216555Y-130014537D01*
X182160622Y-129972665D01*
X182136205Y-129907201D01*
X182145328Y-129850902D01*
X182161570Y-129811689D01*
X182161572Y-129811681D01*
X182199999Y-129618495D01*
X182200000Y-129618492D01*
X182200000Y-129220000D01*
X181500000Y-129220000D01*
X181500000Y-128720000D01*
X182200000Y-128720000D01*
X182200000Y-128321508D01*
X182199999Y-128321504D01*
X182161572Y-128128318D01*
X182161569Y-128128306D01*
X182086192Y-127946328D01*
X182086185Y-127946315D01*
X181976751Y-127782537D01*
X181976748Y-127782533D01*
X181837466Y-127643251D01*
X181837462Y-127643248D01*
X181673684Y-127533814D01*
X181673671Y-127533807D01*
X181491691Y-127458429D01*
X181491683Y-127458427D01*
X181450000Y-127450135D01*
X181450000Y-128253011D01*
X181440060Y-128235795D01*
X181384205Y-128179940D01*
X181315796Y-128140444D01*
X181239496Y-128120000D01*
X181160504Y-128120000D01*
X181084204Y-128140444D01*
X181015795Y-128179940D01*
X180959940Y-128235795D01*
X180950000Y-128253011D01*
X180950000Y-127450136D01*
X180949999Y-127450135D01*
X180908316Y-127458427D01*
X180908308Y-127458429D01*
X180726328Y-127533807D01*
X180726315Y-127533814D01*
X180562537Y-127643248D01*
X180562533Y-127643251D01*
X180423251Y-127782533D01*
X180423248Y-127782537D01*
X180313814Y-127946315D01*
X180313807Y-127946328D01*
X180238430Y-128128306D01*
X180238427Y-128128318D01*
X180200000Y-128321504D01*
X180200000Y-128720000D01*
X180900000Y-128720000D01*
X180900000Y-129220000D01*
X180344464Y-129220000D01*
X180277425Y-129200315D01*
X180237077Y-129158000D01*
X180230517Y-129146638D01*
X180230513Y-129146633D01*
X180123367Y-129039487D01*
X180123365Y-129039485D01*
X180057750Y-129001602D01*
X179992136Y-128963719D01*
X179896959Y-128938217D01*
X179845766Y-128924500D01*
X179694234Y-128924500D01*
X179547863Y-128963719D01*
X179416635Y-129039485D01*
X179416632Y-129039487D01*
X179309487Y-129146632D01*
X179309485Y-129146635D01*
X179233719Y-129277863D01*
X179194500Y-129424234D01*
X179194500Y-129575765D01*
X179233719Y-129722136D01*
X179245578Y-129742676D01*
X179309485Y-129853365D01*
X179416635Y-129960515D01*
X179547865Y-130036281D01*
X179620433Y-130055725D01*
X179680094Y-130092090D01*
X179710623Y-130154937D01*
X179702328Y-130224312D01*
X179657843Y-130278190D01*
X179591291Y-130299465D01*
X179588340Y-130299500D01*
X176809386Y-130299500D01*
X176742347Y-130279815D01*
X176721705Y-130263181D01*
X176718017Y-130259493D01*
X176718011Y-130259488D01*
X176592488Y-130187017D01*
X176592489Y-130187017D01*
X176581006Y-130183940D01*
X176452475Y-130149500D01*
X176307525Y-130149500D01*
X176178993Y-130183940D01*
X176167511Y-130187017D01*
X176041988Y-130259488D01*
X176041982Y-130259493D01*
X175939493Y-130361982D01*
X175939488Y-130361988D01*
X175867017Y-130487511D01*
X175867016Y-130487515D01*
X175829500Y-130627525D01*
X170138868Y-130627525D01*
X170220480Y-130545913D01*
X170273206Y-130454588D01*
X170273207Y-130454587D01*
X170300500Y-130352727D01*
X170300500Y-128321504D01*
X171560000Y-128321504D01*
X171560000Y-128720000D01*
X172260000Y-128720000D01*
X172260000Y-129220000D01*
X171560000Y-129220000D01*
X171560000Y-129618495D01*
X171598427Y-129811681D01*
X171598430Y-129811693D01*
X171673807Y-129993671D01*
X171673814Y-129993684D01*
X171783248Y-130157462D01*
X171783251Y-130157466D01*
X171922533Y-130296748D01*
X171922537Y-130296751D01*
X172086315Y-130406185D01*
X172086328Y-130406192D01*
X172268308Y-130481569D01*
X172310000Y-130489862D01*
X172310000Y-129686988D01*
X172319940Y-129704205D01*
X172375795Y-129760060D01*
X172444204Y-129799556D01*
X172520504Y-129820000D01*
X172599496Y-129820000D01*
X172675796Y-129799556D01*
X172744205Y-129760060D01*
X172800060Y-129704205D01*
X172810000Y-129686988D01*
X172810000Y-130489862D01*
X172851681Y-130481572D01*
X172851692Y-130481569D01*
X173033671Y-130406192D01*
X173033684Y-130406185D01*
X173197462Y-130296751D01*
X173197466Y-130296748D01*
X173336748Y-130157466D01*
X173336751Y-130157462D01*
X173449574Y-129988613D01*
X173451007Y-129989570D01*
X173494198Y-129945580D01*
X173562332Y-129930103D01*
X173628018Y-129953919D01*
X173630089Y-129955697D01*
X173630189Y-129955568D01*
X173636630Y-129960510D01*
X173636635Y-129960515D01*
X173767865Y-130036281D01*
X173914234Y-130075500D01*
X173914236Y-130075500D01*
X174065764Y-130075500D01*
X174065766Y-130075500D01*
X174212135Y-130036281D01*
X174343365Y-129960515D01*
X174450515Y-129853365D01*
X174526281Y-129722135D01*
X174565500Y-129575766D01*
X174565500Y-129424234D01*
X174526281Y-129277865D01*
X174450515Y-129146635D01*
X174343365Y-129039485D01*
X174277750Y-129001602D01*
X174212136Y-128963719D01*
X174116959Y-128938217D01*
X174065766Y-128924500D01*
X173914234Y-128924500D01*
X173767863Y-128963719D01*
X173636635Y-129039485D01*
X173636632Y-129039487D01*
X173529486Y-129146633D01*
X173529482Y-129146638D01*
X173522923Y-129158000D01*
X173472356Y-129206216D01*
X173415536Y-129220000D01*
X172860000Y-129220000D01*
X172860000Y-128720000D01*
X173560000Y-128720000D01*
X173560000Y-128321508D01*
X173559999Y-128321504D01*
X173521572Y-128128318D01*
X173521569Y-128128306D01*
X173446192Y-127946328D01*
X173446185Y-127946315D01*
X173336751Y-127782537D01*
X173336748Y-127782533D01*
X173197466Y-127643251D01*
X173197462Y-127643248D01*
X173033684Y-127533814D01*
X173033671Y-127533807D01*
X172851691Y-127458429D01*
X172851683Y-127458427D01*
X172810000Y-127450135D01*
X172810000Y-128253011D01*
X172800060Y-128235795D01*
X172744205Y-128179940D01*
X172675796Y-128140444D01*
X172599496Y-128120000D01*
X172520504Y-128120000D01*
X172444204Y-128140444D01*
X172375795Y-128179940D01*
X172319940Y-128235795D01*
X172310000Y-128253011D01*
X172310000Y-127450136D01*
X172309999Y-127450135D01*
X172268316Y-127458427D01*
X172268308Y-127458429D01*
X172086328Y-127533807D01*
X172086315Y-127533814D01*
X171922537Y-127643248D01*
X171922533Y-127643251D01*
X171783251Y-127782533D01*
X171783248Y-127782537D01*
X171673814Y-127946315D01*
X171673807Y-127946328D01*
X171598430Y-128128306D01*
X171598427Y-128128318D01*
X171560000Y-128321504D01*
X170300500Y-128321504D01*
X170300500Y-128217254D01*
X170320185Y-128150215D01*
X170336819Y-128129573D01*
X172838867Y-125627525D01*
X179249500Y-125627525D01*
X179249500Y-125772475D01*
X179274266Y-125864902D01*
X179287017Y-125912488D01*
X179359488Y-126038011D01*
X179359490Y-126038013D01*
X179359491Y-126038015D01*
X179461985Y-126140509D01*
X179461986Y-126140510D01*
X179461988Y-126140511D01*
X179587511Y-126212982D01*
X179587512Y-126212982D01*
X179587515Y-126212984D01*
X179727525Y-126250500D01*
X179727528Y-126250500D01*
X179872472Y-126250500D01*
X179872475Y-126250500D01*
X180012485Y-126212984D01*
X180138015Y-126140509D01*
X180240509Y-126038015D01*
X180312984Y-125912485D01*
X180312985Y-125912478D01*
X180316029Y-125905133D01*
X180342907Y-125864905D01*
X180558496Y-125649316D01*
X180619817Y-125615833D01*
X180646166Y-125612999D01*
X180981518Y-125612999D01*
X181075304Y-125598146D01*
X181188342Y-125540550D01*
X181278050Y-125450842D01*
X181335646Y-125337804D01*
X181335646Y-125337802D01*
X181335647Y-125337801D01*
X181350499Y-125244024D01*
X181350500Y-125244019D01*
X181350499Y-124155982D01*
X181335646Y-124062196D01*
X181278050Y-123949158D01*
X181278046Y-123949154D01*
X181278045Y-123949152D01*
X181188347Y-123859454D01*
X181188344Y-123859452D01*
X181188342Y-123859450D01*
X181111517Y-123820305D01*
X181075301Y-123801852D01*
X180981524Y-123787000D01*
X180618482Y-123787000D01*
X180537519Y-123799823D01*
X180524696Y-123801854D01*
X180411658Y-123859450D01*
X180411657Y-123859451D01*
X180411652Y-123859454D01*
X180321954Y-123949152D01*
X180321951Y-123949157D01*
X180264352Y-124062198D01*
X180249500Y-124155975D01*
X180249500Y-124491323D01*
X180229815Y-124558362D01*
X180213181Y-124579004D01*
X179635093Y-125157091D01*
X179594873Y-125183968D01*
X179587515Y-125187016D01*
X179461988Y-125259489D01*
X179461982Y-125259493D01*
X179359493Y-125361982D01*
X179359488Y-125361988D01*
X179287017Y-125487511D01*
X179287016Y-125487515D01*
X179249500Y-125627525D01*
X172838867Y-125627525D01*
X174129573Y-124336819D01*
X174190896Y-124303334D01*
X174217254Y-124300500D01*
X174232745Y-124300500D01*
X174299784Y-124320185D01*
X174320426Y-124336819D01*
X174963181Y-124979574D01*
X174996666Y-125040897D01*
X174999500Y-125067255D01*
X174999500Y-125072475D01*
X175029135Y-125183072D01*
X175037017Y-125212488D01*
X175109488Y-125338011D01*
X175109490Y-125338013D01*
X175109491Y-125338015D01*
X175211985Y-125440509D01*
X175211986Y-125440510D01*
X175211988Y-125440511D01*
X175337511Y-125512982D01*
X175337512Y-125512982D01*
X175337515Y-125512984D01*
X175477525Y-125550500D01*
X175477528Y-125550500D01*
X175622472Y-125550500D01*
X175622475Y-125550500D01*
X175762485Y-125512984D01*
X175764170Y-125512011D01*
X175764171Y-125512011D01*
X175806605Y-125487511D01*
X175888015Y-125440509D01*
X175990509Y-125338015D01*
X176062984Y-125212485D01*
X176100500Y-125072475D01*
X176100500Y-124927525D01*
X176062984Y-124787515D01*
X175990509Y-124661985D01*
X175888015Y-124559491D01*
X175888013Y-124559490D01*
X175888011Y-124559488D01*
X175762488Y-124487017D01*
X175762489Y-124487017D01*
X175751006Y-124483940D01*
X175622475Y-124449500D01*
X175622472Y-124449500D01*
X175617255Y-124449500D01*
X175550216Y-124429815D01*
X175529574Y-124413181D01*
X174695915Y-123579522D01*
X174695913Y-123579520D01*
X174625352Y-123538781D01*
X174604589Y-123526793D01*
X174553657Y-123513146D01*
X174502727Y-123499500D01*
X174502726Y-123499500D01*
X174429386Y-123499500D01*
X174362347Y-123479815D01*
X174341705Y-123463181D01*
X174238017Y-123359493D01*
X174238011Y-123359488D01*
X174112488Y-123287017D01*
X174112489Y-123287017D01*
X174101006Y-123283940D01*
X173972475Y-123249500D01*
X173827525Y-123249500D01*
X173698993Y-123283940D01*
X173687511Y-123287017D01*
X173561988Y-123359488D01*
X173561982Y-123359493D01*
X173459493Y-123461982D01*
X173459488Y-123461988D01*
X173387017Y-123587511D01*
X173387016Y-123587515D01*
X173349500Y-123727525D01*
X173349500Y-123872475D01*
X173353185Y-123886227D01*
X173354562Y-123891367D01*
X173352897Y-123961217D01*
X173322467Y-124011139D01*
X169579522Y-127754084D01*
X169579518Y-127754090D01*
X169526792Y-127845412D01*
X169526793Y-127845413D01*
X169499500Y-127947273D01*
X169499500Y-130082744D01*
X169479815Y-130149783D01*
X169463181Y-130170425D01*
X167199599Y-132434006D01*
X167138276Y-132467491D01*
X167073600Y-132464256D01*
X166957698Y-132426597D01*
X166826271Y-132405781D01*
X166786611Y-132399500D01*
X166613389Y-132399500D01*
X166573728Y-132405781D01*
X166442302Y-132426597D01*
X166277552Y-132480128D01*
X166123211Y-132558768D01*
X166107141Y-132570444D01*
X165983072Y-132660586D01*
X165983070Y-132660588D01*
X165983069Y-132660588D01*
X165860588Y-132783069D01*
X165860588Y-132783070D01*
X165860586Y-132783072D01*
X165816859Y-132843256D01*
X165758768Y-132923211D01*
X165680128Y-133077552D01*
X165680127Y-133077554D01*
X165680127Y-133077555D01*
X165653362Y-133159927D01*
X165626597Y-133242302D01*
X165599500Y-133413389D01*
X165100500Y-133413389D01*
X165100500Y-128313753D01*
X165350000Y-128313753D01*
X165350000Y-128526246D01*
X165383242Y-128736127D01*
X165383242Y-128736130D01*
X165448904Y-128938217D01*
X165545375Y-129127550D01*
X165584728Y-129181716D01*
X166217037Y-128549408D01*
X166234075Y-128612993D01*
X166299901Y-128727007D01*
X166392993Y-128820099D01*
X166507007Y-128885925D01*
X166570590Y-128902962D01*
X165938282Y-129535269D01*
X165938282Y-129535270D01*
X165992449Y-129574624D01*
X166181784Y-129671096D01*
X166280711Y-129703239D01*
X166338387Y-129742676D01*
X166365586Y-129807034D01*
X166353672Y-129875881D01*
X166306428Y-129927357D01*
X166280722Y-129939097D01*
X166279522Y-129939487D01*
X166277550Y-129940128D01*
X166123211Y-130018768D01*
X166095684Y-130038768D01*
X165983072Y-130120586D01*
X165983070Y-130120588D01*
X165983069Y-130120588D01*
X165860588Y-130243069D01*
X165860588Y-130243070D01*
X165860586Y-130243072D01*
X165846057Y-130263070D01*
X165758768Y-130383211D01*
X165680128Y-130537552D01*
X165626597Y-130702302D01*
X165599500Y-130873389D01*
X165599500Y-131046610D01*
X165625850Y-131212982D01*
X165626598Y-131217701D01*
X165680127Y-131382445D01*
X165758768Y-131536788D01*
X165860586Y-131676928D01*
X165983072Y-131799414D01*
X166123212Y-131901232D01*
X166277555Y-131979873D01*
X166442299Y-132033402D01*
X166613389Y-132060500D01*
X166613390Y-132060500D01*
X166786610Y-132060500D01*
X166786611Y-132060500D01*
X166957701Y-132033402D01*
X167122445Y-131979873D01*
X167276788Y-131901232D01*
X167416928Y-131799414D01*
X167539414Y-131676928D01*
X167641232Y-131536788D01*
X167719873Y-131382445D01*
X167773402Y-131217701D01*
X167800500Y-131046611D01*
X167800500Y-130873389D01*
X167773402Y-130702299D01*
X167719873Y-130537555D01*
X167641232Y-130383212D01*
X167539414Y-130243072D01*
X167416928Y-130120586D01*
X167276788Y-130018768D01*
X167268484Y-130014537D01*
X167122446Y-129940127D01*
X167119284Y-129939100D01*
X167118236Y-129938383D01*
X167117952Y-129938266D01*
X167117976Y-129938206D01*
X167061609Y-129899661D01*
X167034413Y-129835302D01*
X167046329Y-129766456D01*
X167093574Y-129714981D01*
X167119288Y-129703239D01*
X167218215Y-129671096D01*
X167407554Y-129574622D01*
X167461716Y-129535270D01*
X167461717Y-129535270D01*
X166829408Y-128902962D01*
X166892993Y-128885925D01*
X167007007Y-128820099D01*
X167100099Y-128727007D01*
X167165925Y-128612993D01*
X167182962Y-128549409D01*
X167815270Y-129181717D01*
X167815270Y-129181716D01*
X167854622Y-129127554D01*
X167951095Y-128938217D01*
X168016757Y-128736130D01*
X168016757Y-128736127D01*
X168050000Y-128526246D01*
X168050000Y-128313753D01*
X168016757Y-128103872D01*
X168016757Y-128103869D01*
X167951095Y-127901782D01*
X167854624Y-127712449D01*
X167815270Y-127658282D01*
X167815269Y-127658282D01*
X167182962Y-128290590D01*
X167165925Y-128227007D01*
X167100099Y-128112993D01*
X167007007Y-128019901D01*
X166892993Y-127954075D01*
X166829409Y-127937037D01*
X167461716Y-127304728D01*
X167407550Y-127265375D01*
X167218217Y-127168904D01*
X167119287Y-127136760D01*
X167061611Y-127097323D01*
X167034413Y-127032964D01*
X167046328Y-126964118D01*
X167093572Y-126912642D01*
X167119290Y-126900897D01*
X167122445Y-126899873D01*
X167276788Y-126821232D01*
X167416928Y-126719414D01*
X167539414Y-126596928D01*
X167641232Y-126456788D01*
X167719873Y-126302445D01*
X167773402Y-126137701D01*
X167800500Y-125966611D01*
X167800500Y-125793389D01*
X167773402Y-125622299D01*
X167719873Y-125457555D01*
X167641232Y-125303212D01*
X167539414Y-125163072D01*
X167416928Y-125040586D01*
X167276788Y-124938768D01*
X167122445Y-124860127D01*
X166957701Y-124806598D01*
X166957699Y-124806597D01*
X166957698Y-124806597D01*
X166826271Y-124785781D01*
X166786611Y-124779500D01*
X166613389Y-124779500D01*
X166573728Y-124785781D01*
X166442302Y-124806597D01*
X166277552Y-124860128D01*
X166123211Y-124938768D01*
X166043256Y-124996859D01*
X165983072Y-125040586D01*
X165983070Y-125040588D01*
X165983069Y-125040588D01*
X165860588Y-125163069D01*
X165860588Y-125163070D01*
X165860586Y-125163072D01*
X165846057Y-125183070D01*
X165758768Y-125303211D01*
X165680128Y-125457552D01*
X165626597Y-125622302D01*
X165602813Y-125772472D01*
X165599500Y-125793389D01*
X165599500Y-125966611D01*
X165626598Y-126137701D01*
X165680127Y-126302445D01*
X165758768Y-126456788D01*
X165860586Y-126596928D01*
X165983072Y-126719414D01*
X166123212Y-126821232D01*
X166277555Y-126899873D01*
X166280708Y-126900897D01*
X166281752Y-126901611D01*
X166282048Y-126901734D01*
X166282022Y-126901795D01*
X166338383Y-126940330D01*
X166365585Y-127004688D01*
X166353674Y-127073535D01*
X166306433Y-127125013D01*
X166280712Y-127136760D01*
X166181783Y-127168904D01*
X165992439Y-127265380D01*
X165938282Y-127304727D01*
X165938282Y-127304728D01*
X166570591Y-127937037D01*
X166507007Y-127954075D01*
X166392993Y-128019901D01*
X166299901Y-128112993D01*
X166234075Y-128227007D01*
X166217037Y-128290591D01*
X165584728Y-127658282D01*
X165584727Y-127658282D01*
X165545380Y-127712439D01*
X165448904Y-127901782D01*
X165383242Y-128103869D01*
X165383242Y-128103872D01*
X165350000Y-128313753D01*
X165100500Y-128313753D01*
X165100500Y-123253389D01*
X165599500Y-123253389D01*
X165599500Y-123426610D01*
X165624984Y-123587515D01*
X165626598Y-123597701D01*
X165680127Y-123762445D01*
X165758768Y-123916788D01*
X165860586Y-124056928D01*
X165983072Y-124179414D01*
X166123212Y-124281232D01*
X166277555Y-124359873D01*
X166442299Y-124413402D01*
X166613389Y-124440500D01*
X166613390Y-124440500D01*
X166786610Y-124440500D01*
X166786611Y-124440500D01*
X166957701Y-124413402D01*
X167122445Y-124359873D01*
X167276788Y-124281232D01*
X167416928Y-124179414D01*
X167539414Y-124056928D01*
X167641232Y-123916788D01*
X167719873Y-123762445D01*
X167773402Y-123597701D01*
X167800500Y-123426611D01*
X167800500Y-123253389D01*
X167773402Y-123082299D01*
X167747684Y-123003149D01*
X179050000Y-123003149D01*
X179052899Y-123039989D01*
X179052900Y-123039995D01*
X179098716Y-123197693D01*
X179098717Y-123197696D01*
X179182314Y-123339052D01*
X179182321Y-123339061D01*
X179298438Y-123455178D01*
X179298447Y-123455185D01*
X179439801Y-123538781D01*
X179597514Y-123584600D01*
X179597511Y-123584600D01*
X179599998Y-123584795D01*
X179600000Y-123584795D01*
X180100000Y-123584795D01*
X180100001Y-123584795D01*
X180102486Y-123584600D01*
X180260198Y-123538781D01*
X180401552Y-123455185D01*
X180401561Y-123455178D01*
X180517678Y-123339061D01*
X180517685Y-123339052D01*
X180601282Y-123197696D01*
X180601283Y-123197693D01*
X180647099Y-123039995D01*
X180647100Y-123039989D01*
X180649999Y-123003149D01*
X180650000Y-123003134D01*
X180650000Y-122675000D01*
X180100000Y-122675000D01*
X180100000Y-123584795D01*
X179600000Y-123584795D01*
X179600000Y-122675000D01*
X179050000Y-122675000D01*
X179050000Y-123003149D01*
X167747684Y-123003149D01*
X167719873Y-122917555D01*
X167641232Y-122763212D01*
X167539414Y-122623072D01*
X167416928Y-122500586D01*
X167276788Y-122398768D01*
X167122445Y-122320127D01*
X166957701Y-122266598D01*
X166957699Y-122266597D01*
X166957698Y-122266597D01*
X166826271Y-122245781D01*
X166786611Y-122239500D01*
X166613389Y-122239500D01*
X166573728Y-122245781D01*
X166442302Y-122266597D01*
X166277552Y-122320128D01*
X166123211Y-122398768D01*
X166095684Y-122418768D01*
X165983072Y-122500586D01*
X165983070Y-122500588D01*
X165983069Y-122500588D01*
X165860588Y-122623069D01*
X165860588Y-122623070D01*
X165860586Y-122623072D01*
X165846057Y-122643070D01*
X165758768Y-122763211D01*
X165680128Y-122917552D01*
X165626597Y-123082302D01*
X165599500Y-123253389D01*
X165100500Y-123253389D01*
X165100500Y-120713389D01*
X165599500Y-120713389D01*
X165599500Y-120886610D01*
X165618602Y-121007220D01*
X165626598Y-121057701D01*
X165680127Y-121222445D01*
X165758768Y-121376788D01*
X165860586Y-121516928D01*
X165983072Y-121639414D01*
X166123212Y-121741232D01*
X166277555Y-121819873D01*
X166442299Y-121873402D01*
X166613389Y-121900500D01*
X166613390Y-121900500D01*
X166786610Y-121900500D01*
X166786611Y-121900500D01*
X166957701Y-121873402D01*
X167122445Y-121819873D01*
X167276788Y-121741232D01*
X167416928Y-121639414D01*
X167539414Y-121516928D01*
X167641232Y-121376788D01*
X167719873Y-121222445D01*
X167773402Y-121057701D01*
X167800500Y-120886611D01*
X167800500Y-120713389D01*
X167796323Y-120687016D01*
X167788686Y-120638795D01*
X167786901Y-120627525D01*
X176849500Y-120627525D01*
X176849500Y-120772475D01*
X176880083Y-120886610D01*
X176887017Y-120912488D01*
X176959488Y-121038011D01*
X176959490Y-121038013D01*
X176959491Y-121038015D01*
X177061985Y-121140509D01*
X177061986Y-121140510D01*
X177061988Y-121140511D01*
X177187511Y-121212982D01*
X177187512Y-121212982D01*
X177187515Y-121212984D01*
X177327525Y-121250500D01*
X177327528Y-121250500D01*
X177472472Y-121250500D01*
X177472475Y-121250500D01*
X177612485Y-121212984D01*
X177738015Y-121140509D01*
X177837819Y-121040705D01*
X177899142Y-121007220D01*
X177968834Y-121012204D01*
X178024767Y-121054076D01*
X178049184Y-121119540D01*
X178049500Y-121128386D01*
X178049500Y-121272475D01*
X178077451Y-121376788D01*
X178087017Y-121412488D01*
X178159488Y-121538011D01*
X178159490Y-121538013D01*
X178159491Y-121538015D01*
X178261985Y-121640509D01*
X178261986Y-121640510D01*
X178261988Y-121640511D01*
X178387511Y-121712982D01*
X178387512Y-121712982D01*
X178387515Y-121712984D01*
X178527525Y-121750500D01*
X178527528Y-121750500D01*
X178672472Y-121750500D01*
X178672475Y-121750500D01*
X178812485Y-121712984D01*
X178868905Y-121680409D01*
X178936803Y-121663936D01*
X179002830Y-121686787D01*
X179046022Y-121741708D01*
X179052239Y-121803600D01*
X179053397Y-121803692D01*
X179050000Y-121846850D01*
X179050000Y-122175000D01*
X179600000Y-122175000D01*
X180100000Y-122175000D01*
X180650000Y-122175000D01*
X180650000Y-121846865D01*
X180649999Y-121846850D01*
X180647100Y-121810010D01*
X180647099Y-121810004D01*
X180601283Y-121652306D01*
X180601282Y-121652303D01*
X180517685Y-121510947D01*
X180517678Y-121510938D01*
X180401561Y-121394821D01*
X180401552Y-121394814D01*
X180260196Y-121311217D01*
X180260193Y-121311216D01*
X180102494Y-121265400D01*
X180102497Y-121265400D01*
X180100000Y-121265203D01*
X180100000Y-122175000D01*
X179600000Y-122175000D01*
X179600000Y-121305658D01*
X179493550Y-121276625D01*
X179492332Y-121275875D01*
X179490902Y-121275871D01*
X179462680Y-121257619D01*
X179434053Y-121239994D01*
X179433433Y-121238704D01*
X179432233Y-121237928D01*
X179418360Y-121207318D01*
X179403805Y-121177011D01*
X179403981Y-121175591D01*
X179403391Y-121174289D01*
X179408269Y-121141033D01*
X179412410Y-121107673D01*
X179413325Y-121106574D01*
X179413533Y-121105159D01*
X179438495Y-121069317D01*
X179970994Y-120536819D01*
X180032317Y-120503334D01*
X180058675Y-120500500D01*
X181475500Y-120500500D01*
X181542539Y-120520185D01*
X181588294Y-120572989D01*
X181599500Y-120624500D01*
X181599500Y-121401181D01*
X181579815Y-121468220D01*
X181527011Y-121513975D01*
X181494897Y-121523654D01*
X181474700Y-121526852D01*
X181474699Y-121526852D01*
X181452799Y-121538011D01*
X181361658Y-121584450D01*
X181361657Y-121584451D01*
X181361652Y-121584454D01*
X181271954Y-121674152D01*
X181271951Y-121674157D01*
X181271950Y-121674158D01*
X181265515Y-121686787D01*
X181214352Y-121787198D01*
X181199500Y-121880975D01*
X181199500Y-122969017D01*
X181204904Y-123003134D01*
X181214354Y-123062804D01*
X181271950Y-123175842D01*
X181271952Y-123175844D01*
X181271954Y-123175847D01*
X181361652Y-123265545D01*
X181361654Y-123265546D01*
X181361658Y-123265550D01*
X181474694Y-123323145D01*
X181474698Y-123323147D01*
X181568475Y-123337999D01*
X181568481Y-123338000D01*
X181931518Y-123337999D01*
X182025304Y-123323146D01*
X182122957Y-123273389D01*
X185899500Y-123273389D01*
X185899500Y-123446611D01*
X185904759Y-123479815D01*
X185923429Y-123597697D01*
X185926598Y-123617701D01*
X185980127Y-123782445D01*
X186058768Y-123936788D01*
X186160586Y-124076928D01*
X186283072Y-124199414D01*
X186423212Y-124301232D01*
X186577555Y-124379873D01*
X186742299Y-124433402D01*
X186913389Y-124460500D01*
X186913390Y-124460500D01*
X187086610Y-124460500D01*
X187086611Y-124460500D01*
X187257701Y-124433402D01*
X187422445Y-124379873D01*
X187576788Y-124301232D01*
X187716928Y-124199414D01*
X187839414Y-124076928D01*
X187941232Y-123936788D01*
X188019873Y-123782445D01*
X188073402Y-123617701D01*
X188100500Y-123446611D01*
X188100500Y-123273389D01*
X188073402Y-123102299D01*
X188019873Y-122937555D01*
X187941232Y-122783212D01*
X187839414Y-122643072D01*
X187716928Y-122520586D01*
X187576788Y-122418768D01*
X187422445Y-122340127D01*
X187257701Y-122286598D01*
X187257699Y-122286597D01*
X187257698Y-122286597D01*
X187126271Y-122265781D01*
X187086611Y-122259500D01*
X186913389Y-122259500D01*
X186873728Y-122265781D01*
X186742302Y-122286597D01*
X186577552Y-122340128D01*
X186423211Y-122418768D01*
X186343256Y-122476859D01*
X186283072Y-122520586D01*
X186283070Y-122520588D01*
X186283069Y-122520588D01*
X186160588Y-122643069D01*
X186160588Y-122643070D01*
X186160586Y-122643072D01*
X186137389Y-122675000D01*
X186058768Y-122783211D01*
X185980128Y-122937552D01*
X185926597Y-123102302D01*
X185903284Y-123249500D01*
X185899500Y-123273389D01*
X182122957Y-123273389D01*
X182138342Y-123265550D01*
X182154392Y-123249500D01*
X182223057Y-123180836D01*
X182228045Y-123175847D01*
X182228050Y-123175842D01*
X182285646Y-123062804D01*
X182285646Y-123062802D01*
X182285647Y-123062801D01*
X182300499Y-122969024D01*
X182300500Y-122969019D01*
X182300499Y-122633674D01*
X182320183Y-122566636D01*
X182336813Y-122545999D01*
X182500500Y-122382313D01*
X182566392Y-122268185D01*
X182600500Y-122140892D01*
X182600500Y-122009107D01*
X182600500Y-120733389D01*
X185899500Y-120733389D01*
X185899500Y-120906610D01*
X185925269Y-121069314D01*
X185926598Y-121077701D01*
X185980127Y-121242445D01*
X186058768Y-121396788D01*
X186160586Y-121536928D01*
X186283072Y-121659414D01*
X186423212Y-121761232D01*
X186577555Y-121839873D01*
X186742299Y-121893402D01*
X186913389Y-121920500D01*
X186913390Y-121920500D01*
X187086610Y-121920500D01*
X187086611Y-121920500D01*
X187257701Y-121893402D01*
X187422445Y-121839873D01*
X187576788Y-121761232D01*
X187716928Y-121659414D01*
X187839414Y-121536928D01*
X187941232Y-121396788D01*
X188019873Y-121242445D01*
X188073402Y-121077701D01*
X188100500Y-120906611D01*
X188100500Y-120733389D01*
X188073402Y-120562299D01*
X188019873Y-120397555D01*
X187941232Y-120243212D01*
X187839414Y-120103072D01*
X187716928Y-119980586D01*
X187576788Y-119878768D01*
X187422445Y-119800127D01*
X187257701Y-119746598D01*
X187257699Y-119746597D01*
X187257698Y-119746597D01*
X187126271Y-119725781D01*
X187086611Y-119719500D01*
X186913389Y-119719500D01*
X186873728Y-119725781D01*
X186742302Y-119746597D01*
X186577552Y-119800128D01*
X186423211Y-119878768D01*
X186356104Y-119927525D01*
X186283072Y-119980586D01*
X186283070Y-119980588D01*
X186283069Y-119980588D01*
X186160588Y-120103069D01*
X186160588Y-120103070D01*
X186160586Y-120103072D01*
X186121339Y-120157091D01*
X186058768Y-120243211D01*
X185980128Y-120397552D01*
X185926597Y-120562302D01*
X185899500Y-120733389D01*
X182600500Y-120733389D01*
X182600500Y-120267288D01*
X182609941Y-120219831D01*
X182612982Y-120212488D01*
X182612981Y-120212488D01*
X182612984Y-120212485D01*
X182650500Y-120072475D01*
X182650500Y-119927525D01*
X182612984Y-119787515D01*
X182589360Y-119746598D01*
X182540511Y-119661988D01*
X182540506Y-119661982D01*
X182438017Y-119559493D01*
X182438011Y-119559488D01*
X182312488Y-119487017D01*
X182312489Y-119487017D01*
X182301006Y-119483940D01*
X182172475Y-119449500D01*
X182027525Y-119449500D01*
X181943519Y-119472009D01*
X181887513Y-119487016D01*
X181880162Y-119490062D01*
X181832711Y-119499500D01*
X179734107Y-119499500D01*
X179599466Y-119535577D01*
X179529616Y-119533914D01*
X179471754Y-119494751D01*
X179444250Y-119430523D01*
X179455837Y-119361621D01*
X179479692Y-119328121D01*
X180441203Y-118366610D01*
X180614424Y-118193389D01*
X185899500Y-118193389D01*
X185899500Y-118366610D01*
X185923429Y-118517697D01*
X185926598Y-118537701D01*
X185980127Y-118702445D01*
X186058768Y-118856788D01*
X186160586Y-118996928D01*
X186283072Y-119119414D01*
X186423212Y-119221232D01*
X186577555Y-119299873D01*
X186742299Y-119353402D01*
X186913389Y-119380500D01*
X186913390Y-119380500D01*
X187086610Y-119380500D01*
X187086611Y-119380500D01*
X187257701Y-119353402D01*
X187422445Y-119299873D01*
X187576788Y-119221232D01*
X187716928Y-119119414D01*
X187839414Y-118996928D01*
X187941232Y-118856788D01*
X188019873Y-118702445D01*
X188073402Y-118537701D01*
X188100500Y-118366611D01*
X188100500Y-118193389D01*
X188073402Y-118022299D01*
X188019873Y-117857555D01*
X187941232Y-117703212D01*
X187839414Y-117563072D01*
X187716928Y-117440586D01*
X187576788Y-117338768D01*
X187422445Y-117260127D01*
X187257701Y-117206598D01*
X187257699Y-117206597D01*
X187257698Y-117206597D01*
X187126271Y-117185781D01*
X187086611Y-117179500D01*
X186913389Y-117179500D01*
X186873728Y-117185781D01*
X186742302Y-117206597D01*
X186577552Y-117260128D01*
X186423211Y-117338768D01*
X186356118Y-117387515D01*
X186283072Y-117440586D01*
X186283070Y-117440588D01*
X186283069Y-117440588D01*
X186160588Y-117563069D01*
X186160588Y-117563070D01*
X186160586Y-117563072D01*
X186116859Y-117623256D01*
X186058768Y-117703211D01*
X185980128Y-117857552D01*
X185926597Y-118022302D01*
X185899500Y-118193389D01*
X180614424Y-118193389D01*
X183000500Y-115807314D01*
X183000906Y-115806610D01*
X183004821Y-115799831D01*
X183004823Y-115799825D01*
X183008234Y-115793918D01*
X183066392Y-115693186D01*
X183077055Y-115653389D01*
X185899500Y-115653389D01*
X185899500Y-115826611D01*
X185903205Y-115850002D01*
X185923429Y-115977697D01*
X185926598Y-115997701D01*
X185980127Y-116162445D01*
X186058768Y-116316788D01*
X186160586Y-116456928D01*
X186283072Y-116579414D01*
X186423212Y-116681232D01*
X186577555Y-116759873D01*
X186742299Y-116813402D01*
X186913389Y-116840500D01*
X186913390Y-116840500D01*
X187086610Y-116840500D01*
X187086611Y-116840500D01*
X187257701Y-116813402D01*
X187422445Y-116759873D01*
X187576788Y-116681232D01*
X187716928Y-116579414D01*
X187839414Y-116456928D01*
X187941232Y-116316788D01*
X188019873Y-116162445D01*
X188073402Y-115997701D01*
X188100500Y-115826611D01*
X188100500Y-115653389D01*
X188073402Y-115482299D01*
X188019873Y-115317555D01*
X187941232Y-115163212D01*
X187839414Y-115023072D01*
X187716928Y-114900586D01*
X187576788Y-114798768D01*
X187422445Y-114720127D01*
X187257701Y-114666598D01*
X187257699Y-114666597D01*
X187257698Y-114666597D01*
X187126271Y-114645781D01*
X187086611Y-114639500D01*
X186913389Y-114639500D01*
X186873728Y-114645781D01*
X186742302Y-114666597D01*
X186577552Y-114720128D01*
X186423211Y-114798768D01*
X186349640Y-114852221D01*
X186283072Y-114900586D01*
X186283070Y-114900588D01*
X186283069Y-114900588D01*
X186160588Y-115023069D01*
X186160588Y-115023070D01*
X186160586Y-115023072D01*
X186138028Y-115054121D01*
X186058768Y-115163211D01*
X185980128Y-115317552D01*
X185926597Y-115482302D01*
X185916522Y-115545915D01*
X185899500Y-115653389D01*
X183077055Y-115653389D01*
X183100500Y-115565892D01*
X183100500Y-113650784D01*
X183120185Y-113583745D01*
X183172989Y-113537990D01*
X183242147Y-113528046D01*
X183279900Y-113541113D01*
X183280001Y-113540871D01*
X183284078Y-113542559D01*
X183286504Y-113543399D01*
X183287515Y-113543983D01*
X183427525Y-113581499D01*
X183529034Y-113581499D01*
X183540744Y-113582053D01*
X183551090Y-113583034D01*
X183616275Y-113600501D01*
X183721728Y-113600501D01*
X183721732Y-113600500D01*
X185892958Y-113600500D01*
X185959997Y-113620185D01*
X186003443Y-113668206D01*
X186058766Y-113776786D01*
X186073548Y-113797131D01*
X186160586Y-113916928D01*
X186283072Y-114039414D01*
X186423212Y-114141232D01*
X186577555Y-114219873D01*
X186742299Y-114273402D01*
X186913389Y-114300500D01*
X186913390Y-114300500D01*
X187086610Y-114300500D01*
X187086611Y-114300500D01*
X187257701Y-114273402D01*
X187422445Y-114219873D01*
X187576788Y-114141232D01*
X187716928Y-114039414D01*
X187839414Y-113916928D01*
X187941232Y-113776788D01*
X188019873Y-113622445D01*
X188073402Y-113457701D01*
X188100500Y-113286611D01*
X188100500Y-113113389D01*
X188073402Y-112942299D01*
X188019873Y-112777555D01*
X187941232Y-112623212D01*
X187839414Y-112483072D01*
X187716928Y-112360586D01*
X187576788Y-112258768D01*
X187422445Y-112180127D01*
X187257701Y-112126598D01*
X187257699Y-112126597D01*
X187257698Y-112126597D01*
X187126271Y-112105781D01*
X187086611Y-112099500D01*
X186913389Y-112099500D01*
X186873728Y-112105781D01*
X186742302Y-112126597D01*
X186742299Y-112126598D01*
X186621366Y-112165892D01*
X186577552Y-112180128D01*
X186423211Y-112258768D01*
X186375838Y-112293187D01*
X186283072Y-112360586D01*
X186283070Y-112360588D01*
X186283069Y-112360588D01*
X186160588Y-112483069D01*
X186160588Y-112483070D01*
X186160586Y-112483072D01*
X186150542Y-112496897D01*
X186058766Y-112623213D01*
X186003443Y-112731794D01*
X185955469Y-112782591D01*
X185892958Y-112799500D01*
X185726255Y-112799500D01*
X185659216Y-112779815D01*
X185613461Y-112727011D01*
X185603517Y-112657853D01*
X185632542Y-112594297D01*
X185638574Y-112587819D01*
X185819080Y-112407313D01*
X186500401Y-111725990D01*
X186561722Y-111692507D01*
X186626393Y-111695741D01*
X186742299Y-111733402D01*
X186913389Y-111760500D01*
X186913390Y-111760500D01*
X187086610Y-111760500D01*
X187086611Y-111760500D01*
X187257701Y-111733402D01*
X187422445Y-111679873D01*
X187576788Y-111601232D01*
X187716928Y-111499414D01*
X187839414Y-111376928D01*
X187941232Y-111236788D01*
X188019873Y-111082445D01*
X188073402Y-110917701D01*
X188100500Y-110746611D01*
X188100500Y-110573389D01*
X188073402Y-110402299D01*
X188019873Y-110237555D01*
X187941232Y-110083212D01*
X187839414Y-109943072D01*
X187716928Y-109820586D01*
X187576788Y-109718768D01*
X187422445Y-109640127D01*
X187257701Y-109586598D01*
X187257699Y-109586597D01*
X187257698Y-109586597D01*
X187126271Y-109565781D01*
X187086611Y-109559500D01*
X186913389Y-109559500D01*
X186873728Y-109565781D01*
X186742302Y-109586597D01*
X186577552Y-109640128D01*
X186423211Y-109718768D01*
X186354364Y-109768789D01*
X186283072Y-109820586D01*
X186283070Y-109820588D01*
X186283069Y-109820588D01*
X186160588Y-109943069D01*
X186160588Y-109943070D01*
X186160586Y-109943072D01*
X186138893Y-109972930D01*
X186058768Y-110083211D01*
X185980128Y-110237552D01*
X185926597Y-110402302D01*
X185899500Y-110573389D01*
X185899500Y-110746610D01*
X185926597Y-110917698D01*
X185964256Y-111033600D01*
X185966251Y-111103441D01*
X185934006Y-111159599D01*
X185149427Y-111944180D01*
X185088104Y-111977665D01*
X185061746Y-111980499D01*
X184111725Y-111980499D01*
X184044686Y-111960814D01*
X184004338Y-111918500D01*
X183990509Y-111894547D01*
X183888015Y-111792053D01*
X183868490Y-111780780D01*
X183820276Y-111730215D01*
X183807052Y-111661608D01*
X183833020Y-111596743D01*
X183842794Y-111585729D01*
X183905889Y-111522635D01*
X183978364Y-111397105D01*
X183978365Y-111397098D01*
X183981409Y-111389753D01*
X184008287Y-111349525D01*
X186275622Y-109082190D01*
X186336943Y-109048707D01*
X186406635Y-109053691D01*
X186419596Y-109059388D01*
X186423204Y-109061226D01*
X186423212Y-109061232D01*
X186577555Y-109139873D01*
X186742299Y-109193402D01*
X186913389Y-109220500D01*
X186913390Y-109220500D01*
X187086610Y-109220500D01*
X187086611Y-109220500D01*
X187257701Y-109193402D01*
X187422445Y-109139873D01*
X187576788Y-109061232D01*
X187716928Y-108959414D01*
X187839414Y-108836928D01*
X187941232Y-108696788D01*
X188019873Y-108542445D01*
X188073402Y-108377701D01*
X188100500Y-108206611D01*
X188100500Y-108033389D01*
X188073402Y-107862299D01*
X188019873Y-107697555D01*
X187941232Y-107543212D01*
X187839414Y-107403072D01*
X187716928Y-107280586D01*
X187576788Y-107178768D01*
X187422445Y-107100127D01*
X187257701Y-107046598D01*
X187257699Y-107046597D01*
X187257698Y-107046597D01*
X187126271Y-107025781D01*
X187086611Y-107019500D01*
X186913389Y-107019500D01*
X186873728Y-107025781D01*
X186742302Y-107046597D01*
X186577552Y-107100128D01*
X186423211Y-107178768D01*
X186343256Y-107236859D01*
X186283072Y-107280586D01*
X186283070Y-107280588D01*
X186283069Y-107280588D01*
X186160588Y-107403069D01*
X186160588Y-107403070D01*
X186160586Y-107403072D01*
X186149511Y-107418316D01*
X186058768Y-107543211D01*
X185980128Y-107697552D01*
X185926597Y-107862302D01*
X185904053Y-108004641D01*
X185874124Y-108067776D01*
X185869261Y-108072924D01*
X183300473Y-110641711D01*
X183260253Y-110668588D01*
X183252895Y-110671636D01*
X183127368Y-110744109D01*
X183127362Y-110744113D01*
X183024873Y-110846602D01*
X183024869Y-110846608D01*
X182952396Y-110972135D01*
X182949348Y-110979493D01*
X182922471Y-111019713D01*
X182292686Y-111649500D01*
X182199502Y-111742683D01*
X182199500Y-111742686D01*
X182133608Y-111856812D01*
X182099500Y-111984108D01*
X182099500Y-115241323D01*
X182079815Y-115308362D01*
X182063181Y-115329004D01*
X177235093Y-120157091D01*
X177194873Y-120183968D01*
X177187515Y-120187016D01*
X177061988Y-120259489D01*
X177061982Y-120259493D01*
X176959493Y-120361982D01*
X176959488Y-120361988D01*
X176887017Y-120487511D01*
X176887016Y-120487515D01*
X176849500Y-120627525D01*
X167786901Y-120627525D01*
X167776570Y-120562302D01*
X167773402Y-120542299D01*
X167719873Y-120377555D01*
X167641232Y-120223212D01*
X167539414Y-120083072D01*
X167416928Y-119960586D01*
X167276788Y-119858768D01*
X167122445Y-119780127D01*
X166957701Y-119726598D01*
X166957699Y-119726597D01*
X166957698Y-119726597D01*
X166826271Y-119705781D01*
X166786611Y-119699500D01*
X166613389Y-119699500D01*
X166573728Y-119705781D01*
X166442302Y-119726597D01*
X166277552Y-119780128D01*
X166123211Y-119858768D01*
X166095684Y-119878768D01*
X165983072Y-119960586D01*
X165983070Y-119960588D01*
X165983069Y-119960588D01*
X165860588Y-120083069D01*
X165860588Y-120083070D01*
X165860586Y-120083072D01*
X165846057Y-120103070D01*
X165758768Y-120223211D01*
X165680128Y-120377552D01*
X165626597Y-120542302D01*
X165599500Y-120713389D01*
X165100500Y-120713389D01*
X165100500Y-115633389D01*
X165599500Y-115633389D01*
X165599500Y-115806611D01*
X165599612Y-115807315D01*
X165621858Y-115947778D01*
X165626598Y-115977701D01*
X165680127Y-116142445D01*
X165758768Y-116296788D01*
X165860586Y-116436928D01*
X165983072Y-116559414D01*
X166123212Y-116661232D01*
X166277555Y-116739873D01*
X166442299Y-116793402D01*
X166613389Y-116820500D01*
X166613390Y-116820500D01*
X166786610Y-116820500D01*
X166786611Y-116820500D01*
X166957701Y-116793402D01*
X167122445Y-116739873D01*
X167276788Y-116661232D01*
X167416928Y-116559414D01*
X167539414Y-116436928D01*
X167641232Y-116296788D01*
X167719873Y-116142445D01*
X167773402Y-115977701D01*
X167800500Y-115806611D01*
X167800500Y-115633389D01*
X167773402Y-115462299D01*
X167719873Y-115297555D01*
X167641232Y-115143212D01*
X167539414Y-115003072D01*
X167416928Y-114880586D01*
X167276788Y-114778768D01*
X167149572Y-114713949D01*
X167122447Y-114700128D01*
X167122446Y-114700127D01*
X167122445Y-114700127D01*
X166957701Y-114646598D01*
X166957699Y-114646597D01*
X166957698Y-114646597D01*
X166826271Y-114625781D01*
X166786611Y-114619500D01*
X166613389Y-114619500D01*
X166573728Y-114625781D01*
X166442302Y-114646597D01*
X166277552Y-114700128D01*
X166123211Y-114778768D01*
X166095684Y-114798768D01*
X165983072Y-114880586D01*
X165983070Y-114880588D01*
X165983069Y-114880588D01*
X165860588Y-115003069D01*
X165860588Y-115003070D01*
X165860586Y-115003072D01*
X165823497Y-115054121D01*
X165758768Y-115143211D01*
X165680128Y-115297552D01*
X165626597Y-115462302D01*
X165604031Y-115604784D01*
X165599500Y-115633389D01*
X165100500Y-115633389D01*
X165100500Y-113093389D01*
X165599500Y-113093389D01*
X165599500Y-113266610D01*
X165623638Y-113419016D01*
X165626598Y-113437701D01*
X165680127Y-113602445D01*
X165758768Y-113756788D01*
X165860586Y-113896928D01*
X165983072Y-114019414D01*
X166123212Y-114121232D01*
X166277555Y-114199873D01*
X166442299Y-114253402D01*
X166613389Y-114280500D01*
X166613390Y-114280500D01*
X166786610Y-114280500D01*
X166786611Y-114280500D01*
X166957701Y-114253402D01*
X167122445Y-114199873D01*
X167276788Y-114121232D01*
X167416928Y-114019414D01*
X167539414Y-113896928D01*
X167641232Y-113756788D01*
X167719873Y-113602445D01*
X167773402Y-113437701D01*
X167800500Y-113266611D01*
X167800500Y-113093389D01*
X167773402Y-112922299D01*
X167719873Y-112757555D01*
X167641232Y-112603212D01*
X167539414Y-112463072D01*
X167416928Y-112340586D01*
X167276788Y-112238768D01*
X167122445Y-112160127D01*
X166957701Y-112106598D01*
X166957699Y-112106597D01*
X166957698Y-112106597D01*
X166799232Y-112081499D01*
X166786611Y-112079500D01*
X166613389Y-112079500D01*
X166600768Y-112081499D01*
X166442302Y-112106597D01*
X166277552Y-112160128D01*
X166123211Y-112238768D01*
X166095684Y-112258768D01*
X165983072Y-112340586D01*
X165983070Y-112340588D01*
X165983069Y-112340588D01*
X165860588Y-112463069D01*
X165860588Y-112463070D01*
X165860586Y-112463072D01*
X165846057Y-112483070D01*
X165758768Y-112603211D01*
X165680128Y-112757552D01*
X165626597Y-112922302D01*
X165599500Y-113093389D01*
X165100500Y-113093389D01*
X165100500Y-105473389D01*
X165599500Y-105473389D01*
X165599500Y-105646611D01*
X165607211Y-105695297D01*
X165624757Y-105806082D01*
X165626598Y-105817701D01*
X165680127Y-105982445D01*
X165758768Y-106136788D01*
X165860586Y-106276928D01*
X165983072Y-106399414D01*
X166123212Y-106501232D01*
X166277555Y-106579873D01*
X166442299Y-106633402D01*
X166613389Y-106660500D01*
X166613390Y-106660500D01*
X166786610Y-106660500D01*
X166786611Y-106660500D01*
X166957701Y-106633402D01*
X167122445Y-106579873D01*
X167219748Y-106530294D01*
X167288417Y-106517398D01*
X167353157Y-106543674D01*
X167393415Y-106600780D01*
X167396407Y-106670586D01*
X167363724Y-106728460D01*
X167092860Y-106999324D01*
X167031537Y-107032809D01*
X166966866Y-107029576D01*
X166957701Y-107026598D01*
X166957699Y-107026597D01*
X166957697Y-107026597D01*
X166836780Y-107007446D01*
X166786611Y-106999500D01*
X166613389Y-106999500D01*
X166573728Y-107005781D01*
X166442302Y-107026597D01*
X166277552Y-107080128D01*
X166123211Y-107158768D01*
X166069497Y-107197794D01*
X165983072Y-107260586D01*
X165983070Y-107260588D01*
X165983069Y-107260588D01*
X165860588Y-107383069D01*
X165860588Y-107383070D01*
X165860586Y-107383072D01*
X165846057Y-107403070D01*
X165758768Y-107523211D01*
X165680128Y-107677552D01*
X165626597Y-107842302D01*
X165617287Y-107901087D01*
X165599500Y-108013389D01*
X165599500Y-108186611D01*
X165626598Y-108357701D01*
X165680127Y-108522445D01*
X165758768Y-108676788D01*
X165860586Y-108816928D01*
X165983072Y-108939414D01*
X166123212Y-109041232D01*
X166277555Y-109119873D01*
X166442299Y-109173402D01*
X166613389Y-109200500D01*
X166613390Y-109200500D01*
X166786610Y-109200500D01*
X166786611Y-109200500D01*
X166957701Y-109173402D01*
X167073602Y-109135742D01*
X167143442Y-109133748D01*
X167199600Y-109165993D01*
X171396814Y-113363207D01*
X171430299Y-113424530D01*
X171425315Y-113494222D01*
X171383443Y-113550155D01*
X171371137Y-113558272D01*
X171364396Y-113562165D01*
X171352365Y-113569111D01*
X171352362Y-113569113D01*
X171249873Y-113671602D01*
X171249868Y-113671608D01*
X171177397Y-113797131D01*
X171177395Y-113797135D01*
X171160452Y-113860364D01*
X171148065Y-113890267D01*
X171101793Y-113970411D01*
X171101794Y-113970412D01*
X171074501Y-114072272D01*
X171074501Y-114572943D01*
X171054816Y-114639982D01*
X171002012Y-114685737D01*
X170974693Y-114694560D01*
X170877229Y-114713947D01*
X170877222Y-114713950D01*
X170794335Y-114769333D01*
X170794334Y-114769334D01*
X170738951Y-114852221D01*
X170738948Y-114852228D01*
X170719501Y-114949995D01*
X170719501Y-115850004D01*
X170738948Y-115947771D01*
X170738951Y-115947778D01*
X170794334Y-116030665D01*
X170794335Y-116030666D01*
X170877225Y-116086051D01*
X170877228Y-116086051D01*
X170877229Y-116086052D01*
X170974996Y-116105499D01*
X170974999Y-116105500D01*
X170975001Y-116105500D01*
X171999997Y-116105500D01*
X172000001Y-116105500D01*
X172050109Y-116100538D01*
X172050111Y-116100537D01*
X172096013Y-116081468D01*
X172165475Y-116073926D01*
X172191043Y-116081419D01*
X172202221Y-116086049D01*
X172202223Y-116086051D01*
X172202225Y-116086051D01*
X172202229Y-116086053D01*
X172299994Y-116105499D01*
X172299997Y-116105500D01*
X172299999Y-116105500D01*
X173425001Y-116105500D01*
X173425002Y-116105499D01*
X173522775Y-116086051D01*
X173605665Y-116030666D01*
X173661050Y-115947776D01*
X173680499Y-115850000D01*
X173680499Y-114950000D01*
X173680499Y-114949997D01*
X173680498Y-114949995D01*
X173661051Y-114852228D01*
X173661050Y-114852227D01*
X173661050Y-114852224D01*
X173605665Y-114769334D01*
X173605664Y-114769333D01*
X173522777Y-114713950D01*
X173522770Y-114713947D01*
X173425307Y-114694560D01*
X173363396Y-114662175D01*
X173328822Y-114601459D01*
X173325499Y-114572943D01*
X173325499Y-114272274D01*
X173325499Y-114272272D01*
X173306100Y-114199873D01*
X173306100Y-114199871D01*
X173298207Y-114170413D01*
X173281359Y-114141232D01*
X173245479Y-114079086D01*
X172859573Y-113693180D01*
X172826088Y-113631857D01*
X172831072Y-113562165D01*
X172872944Y-113506232D01*
X172938408Y-113481815D01*
X172947254Y-113481499D01*
X174270614Y-113481499D01*
X174337653Y-113501184D01*
X174358295Y-113517818D01*
X174361985Y-113521508D01*
X174361986Y-113521509D01*
X174361988Y-113521510D01*
X174487511Y-113593981D01*
X174487512Y-113593981D01*
X174487515Y-113593983D01*
X174627525Y-113631499D01*
X174627528Y-113631499D01*
X174772472Y-113631499D01*
X174772475Y-113631499D01*
X174912485Y-113593983D01*
X175038015Y-113521508D01*
X175140509Y-113419014D01*
X175212984Y-113293484D01*
X175250500Y-113153474D01*
X175250500Y-113008524D01*
X175212984Y-112868514D01*
X175165004Y-112785411D01*
X175140511Y-112742987D01*
X175140506Y-112742981D01*
X175038017Y-112640492D01*
X175038011Y-112640487D01*
X174912488Y-112568016D01*
X174912489Y-112568016D01*
X174901006Y-112564939D01*
X174772475Y-112530499D01*
X174627525Y-112530499D01*
X174600565Y-112537723D01*
X174530715Y-112536060D01*
X174472852Y-112496897D01*
X174445349Y-112432668D01*
X174444472Y-112417948D01*
X174444472Y-112308526D01*
X174444472Y-112308524D01*
X174406956Y-112168514D01*
X174402114Y-112160128D01*
X174334483Y-112042987D01*
X174334478Y-112042981D01*
X174231989Y-111940492D01*
X174231983Y-111940487D01*
X174106460Y-111868016D01*
X174106461Y-111868016D01*
X174094978Y-111864939D01*
X173966447Y-111830499D01*
X173821497Y-111830499D01*
X173681487Y-111868015D01*
X173681485Y-111868016D01*
X173673637Y-111870119D01*
X173673217Y-111868554D01*
X173613150Y-111875001D01*
X173550676Y-111843715D01*
X173515034Y-111783620D01*
X173517541Y-111713795D01*
X173557399Y-111656410D01*
X173573181Y-111645592D01*
X173581987Y-111640509D01*
X173684481Y-111538015D01*
X173756956Y-111412485D01*
X173794472Y-111272475D01*
X173794472Y-111127525D01*
X173756956Y-110987515D01*
X173752324Y-110979493D01*
X173684483Y-110861988D01*
X173684478Y-110861982D01*
X173581989Y-110759493D01*
X173581987Y-110759491D01*
X173456457Y-110687016D01*
X173316447Y-110649500D01*
X173300159Y-110649500D01*
X173282625Y-110644205D01*
X173268091Y-110634706D01*
X173264242Y-110633576D01*
X174644947Y-110633576D01*
X174750208Y-110677177D01*
X174750212Y-110677178D01*
X174895098Y-110705998D01*
X174895101Y-110705999D01*
X175042843Y-110705999D01*
X175042845Y-110705998D01*
X175187732Y-110677178D01*
X175187747Y-110677174D01*
X175292996Y-110633577D01*
X175292996Y-110633576D01*
X175794947Y-110633576D01*
X175900208Y-110677177D01*
X175900212Y-110677178D01*
X176045098Y-110705998D01*
X176045101Y-110705999D01*
X176192843Y-110705999D01*
X176192845Y-110705998D01*
X176337732Y-110677178D01*
X176337747Y-110677174D01*
X176442996Y-110633577D01*
X176442996Y-110633576D01*
X176118973Y-110309553D01*
X176118972Y-110309553D01*
X175794947Y-110633576D01*
X175292996Y-110633576D01*
X174968973Y-110309553D01*
X174968972Y-110309553D01*
X174644947Y-110633576D01*
X173264242Y-110633576D01*
X173251433Y-110629815D01*
X173239454Y-110615990D01*
X173224138Y-110605981D01*
X173217045Y-110590130D01*
X173205678Y-110577011D01*
X173200475Y-110553095D01*
X173195602Y-110542204D01*
X173196630Y-110535421D01*
X173194472Y-110525500D01*
X173194472Y-110377527D01*
X173194472Y-110377525D01*
X173156956Y-110237515D01*
X173151155Y-110227468D01*
X173084483Y-110111988D01*
X173084478Y-110111982D01*
X173080792Y-110108296D01*
X173067045Y-110083120D01*
X173050736Y-110059524D01*
X173049304Y-110050631D01*
X173047307Y-110046973D01*
X173044543Y-110024778D01*
X173044472Y-110022664D01*
X173044472Y-110015942D01*
X173044473Y-110015939D01*
X173044473Y-109910485D01*
X173036874Y-109882125D01*
X174218972Y-109882125D01*
X174218972Y-110029872D01*
X174247792Y-110174758D01*
X174247794Y-110174766D01*
X174291393Y-110280023D01*
X174615418Y-109955999D01*
X174615418Y-109955998D01*
X174595528Y-109936108D01*
X174868972Y-109936108D01*
X174868972Y-109975890D01*
X174884196Y-110012644D01*
X174912327Y-110040775D01*
X174949081Y-110055999D01*
X174988863Y-110055999D01*
X175025617Y-110040775D01*
X175053748Y-110012644D01*
X175068972Y-109975890D01*
X175068972Y-109955999D01*
X175322526Y-109955999D01*
X175543972Y-110177445D01*
X175765418Y-109955999D01*
X175745527Y-109936108D01*
X176018972Y-109936108D01*
X176018972Y-109975890D01*
X176034196Y-110012644D01*
X176062327Y-110040775D01*
X176099081Y-110055999D01*
X176138863Y-110055999D01*
X176175617Y-110040775D01*
X176203748Y-110012644D01*
X176218972Y-109975890D01*
X176218972Y-109955998D01*
X176472526Y-109955998D01*
X176472526Y-109956000D01*
X176796549Y-110280023D01*
X176796550Y-110280023D01*
X176840147Y-110174774D01*
X176840151Y-110174759D01*
X176868971Y-110029872D01*
X176868972Y-110029870D01*
X176868972Y-109882127D01*
X176868971Y-109882125D01*
X176840151Y-109737239D01*
X176840150Y-109737235D01*
X176796549Y-109631974D01*
X176472526Y-109955998D01*
X176218972Y-109955998D01*
X176218972Y-109936108D01*
X176203748Y-109899354D01*
X176175617Y-109871223D01*
X176138863Y-109855999D01*
X176099081Y-109855999D01*
X176062327Y-109871223D01*
X176034196Y-109899354D01*
X176018972Y-109936108D01*
X175745527Y-109936108D01*
X175543972Y-109734553D01*
X175322526Y-109955999D01*
X175068972Y-109955999D01*
X175068972Y-109936108D01*
X175053748Y-109899354D01*
X175025617Y-109871223D01*
X174988863Y-109855999D01*
X174949081Y-109855999D01*
X174912327Y-109871223D01*
X174884196Y-109899354D01*
X174868972Y-109936108D01*
X174595528Y-109936108D01*
X174291393Y-109631973D01*
X174291392Y-109631973D01*
X174247795Y-109737227D01*
X174247792Y-109737239D01*
X174218972Y-109882125D01*
X173036874Y-109882125D01*
X173017179Y-109808625D01*
X172994181Y-109768792D01*
X172994180Y-109768790D01*
X172994180Y-109768789D01*
X172964454Y-109717302D01*
X172964453Y-109717301D01*
X172964452Y-109717299D01*
X172889885Y-109642732D01*
X172889884Y-109642731D01*
X172885554Y-109638401D01*
X172885543Y-109638391D01*
X172628152Y-109380999D01*
X174747526Y-109380999D01*
X174968972Y-109602445D01*
X175190418Y-109380999D01*
X175897526Y-109380999D01*
X176118972Y-109602445D01*
X176340418Y-109380999D01*
X176118972Y-109159553D01*
X175897526Y-109380999D01*
X175190418Y-109380999D01*
X174968972Y-109159553D01*
X174747526Y-109380999D01*
X172628152Y-109380999D01*
X172505526Y-109258373D01*
X172472041Y-109197050D01*
X172469207Y-109170692D01*
X172469207Y-109097707D01*
X172488892Y-109030668D01*
X172541696Y-108984913D01*
X172610854Y-108974969D01*
X172674410Y-109003994D01*
X172700593Y-109035706D01*
X172748692Y-109119015D01*
X172851186Y-109221509D01*
X172851187Y-109221510D01*
X172851189Y-109221511D01*
X172976712Y-109293982D01*
X172976713Y-109293982D01*
X172976716Y-109293984D01*
X173116726Y-109331500D01*
X173116729Y-109331500D01*
X173261673Y-109331500D01*
X173261676Y-109331500D01*
X173401686Y-109293984D01*
X173527216Y-109221509D01*
X173629710Y-109119015D01*
X173694008Y-109007644D01*
X173713709Y-108981970D01*
X174007292Y-108688388D01*
X174068614Y-108654904D01*
X174138306Y-108659888D01*
X174194239Y-108701760D01*
X174218656Y-108767224D01*
X174218972Y-108776070D01*
X174218972Y-108879872D01*
X174247792Y-109024758D01*
X174247794Y-109024766D01*
X174291393Y-109130023D01*
X174635309Y-108786108D01*
X174868972Y-108786108D01*
X174868972Y-108825890D01*
X174884196Y-108862644D01*
X174912327Y-108890775D01*
X174949081Y-108905999D01*
X174988863Y-108905999D01*
X175025617Y-108890775D01*
X175053748Y-108862644D01*
X175068972Y-108825890D01*
X175068972Y-108786108D01*
X175053748Y-108749354D01*
X175025617Y-108721223D01*
X174988863Y-108705999D01*
X174949081Y-108705999D01*
X174912327Y-108721223D01*
X174884196Y-108749354D01*
X174868972Y-108786108D01*
X174635309Y-108786108D01*
X174779599Y-108641818D01*
X174840922Y-108608333D01*
X174867280Y-108605499D01*
X175223664Y-108605499D01*
X175290703Y-108625184D01*
X175336458Y-108677988D01*
X175346402Y-108747146D01*
X175322526Y-108799427D01*
X175322526Y-108805999D01*
X175543972Y-109027445D01*
X175765418Y-108805999D01*
X175765418Y-108796703D01*
X175759633Y-108786108D01*
X176018972Y-108786108D01*
X176018972Y-108825890D01*
X176034196Y-108862644D01*
X176062327Y-108890775D01*
X176099081Y-108905999D01*
X176138863Y-108905999D01*
X176175617Y-108890775D01*
X176203748Y-108862644D01*
X176218972Y-108825890D01*
X176218972Y-108786108D01*
X176203748Y-108749354D01*
X176175617Y-108721223D01*
X176138863Y-108705999D01*
X176099081Y-108705999D01*
X176062327Y-108721223D01*
X176034196Y-108749354D01*
X176018972Y-108786108D01*
X175759633Y-108786108D01*
X175743114Y-108755857D01*
X175748098Y-108686165D01*
X175789970Y-108630232D01*
X175855434Y-108605815D01*
X175864280Y-108605499D01*
X176220664Y-108605499D01*
X176287703Y-108625184D01*
X176308345Y-108641818D01*
X176796549Y-109130023D01*
X176796550Y-109130023D01*
X176840147Y-109024774D01*
X176840151Y-109024759D01*
X176868971Y-108879872D01*
X176868972Y-108879870D01*
X176868972Y-108729499D01*
X176888657Y-108662460D01*
X176941461Y-108616705D01*
X176992972Y-108605499D01*
X178556116Y-108605499D01*
X178556118Y-108605499D01*
X178645262Y-108581613D01*
X178667948Y-108568515D01*
X178725186Y-108535469D01*
X179102835Y-108157817D01*
X179129762Y-108143114D01*
X179155581Y-108126522D01*
X179161781Y-108125630D01*
X179164158Y-108124333D01*
X179190516Y-108121499D01*
X179206565Y-108121499D01*
X179273604Y-108141184D01*
X179319359Y-108193988D01*
X179329303Y-108263146D01*
X179326343Y-108277577D01*
X179293472Y-108400253D01*
X179293472Y-108545203D01*
X179328731Y-108676788D01*
X179330989Y-108685216D01*
X179403460Y-108810739D01*
X179408410Y-108817189D01*
X179406946Y-108818312D01*
X179435516Y-108870634D01*
X179430532Y-108940326D01*
X179402033Y-108984672D01*
X179342106Y-109044600D01*
X179342103Y-109044603D01*
X179269632Y-109170126D01*
X179269631Y-109170130D01*
X179232115Y-109310140D01*
X179232115Y-109455090D01*
X179252836Y-109532421D01*
X179269632Y-109595103D01*
X179342103Y-109720626D01*
X179342105Y-109720628D01*
X179342106Y-109720630D01*
X179444600Y-109823124D01*
X179444601Y-109823125D01*
X179444603Y-109823126D01*
X179570126Y-109895597D01*
X179570127Y-109895597D01*
X179570130Y-109895599D01*
X179710140Y-109933115D01*
X179710143Y-109933115D01*
X179819434Y-109933115D01*
X179886473Y-109952800D01*
X179932228Y-110005604D01*
X179941611Y-110035933D01*
X179943434Y-110046448D01*
X179943434Y-110117880D01*
X179978517Y-110248811D01*
X179979472Y-110254318D01*
X179976110Y-110283692D01*
X179975407Y-110313256D01*
X179972182Y-110318019D01*
X179971529Y-110323735D01*
X179952817Y-110346632D01*
X179936245Y-110371118D01*
X179930957Y-110373382D01*
X179927317Y-110377837D01*
X179899200Y-110386981D01*
X179872017Y-110398623D01*
X179861479Y-110399250D01*
X179860873Y-110399448D01*
X179860372Y-110399316D01*
X179857295Y-110399500D01*
X178528272Y-110399500D01*
X178426409Y-110426793D01*
X178335086Y-110479520D01*
X178335083Y-110479522D01*
X177845185Y-110969419D01*
X177789600Y-111001512D01*
X177728016Y-111018014D01*
X177728011Y-111018016D01*
X177602488Y-111090487D01*
X177602482Y-111090492D01*
X177499993Y-111192981D01*
X177499988Y-111192987D01*
X177427517Y-111318510D01*
X177427516Y-111318514D01*
X177390000Y-111458524D01*
X177390000Y-111603474D01*
X177427302Y-111742686D01*
X177427517Y-111743487D01*
X177499988Y-111869010D01*
X177499990Y-111869012D01*
X177499991Y-111869014D01*
X177602485Y-111971508D01*
X177602486Y-111971509D01*
X177602488Y-111971510D01*
X177728011Y-112043981D01*
X177728012Y-112043981D01*
X177728015Y-112043983D01*
X177868025Y-112081499D01*
X177868028Y-112081499D01*
X178012972Y-112081499D01*
X178012975Y-112081499D01*
X178152985Y-112043983D01*
X178278515Y-111971508D01*
X178381009Y-111869014D01*
X178453484Y-111743484D01*
X178491000Y-111603474D01*
X178491000Y-111507753D01*
X178510685Y-111440714D01*
X178527319Y-111420072D01*
X178710573Y-111236819D01*
X178771896Y-111203334D01*
X178798254Y-111200500D01*
X179935334Y-111200500D01*
X180002373Y-111220185D01*
X180048128Y-111272989D01*
X180059247Y-111329133D01*
X180058724Y-111343097D01*
X180049500Y-111377525D01*
X180049500Y-111522475D01*
X180051709Y-111530721D01*
X180051070Y-111547825D01*
X180043166Y-111571440D01*
X180039328Y-111596046D01*
X180034546Y-111605188D01*
X180033610Y-111606807D01*
X180033608Y-111606812D01*
X180033608Y-111606814D01*
X180007033Y-111705993D01*
X179999500Y-111734108D01*
X179999500Y-111841324D01*
X179979815Y-111908363D01*
X179963181Y-111929005D01*
X178699502Y-113192683D01*
X178699500Y-113192686D01*
X178633608Y-113306812D01*
X178599500Y-113434108D01*
X178599500Y-113835334D01*
X178579815Y-113902373D01*
X178527011Y-113948128D01*
X178457853Y-113958072D01*
X178443410Y-113955109D01*
X178422475Y-113949500D01*
X178277525Y-113949500D01*
X178148993Y-113983940D01*
X178137511Y-113987017D01*
X178011988Y-114059488D01*
X178011982Y-114059493D01*
X178008295Y-114063181D01*
X177946972Y-114096666D01*
X177920614Y-114099500D01*
X177847273Y-114099500D01*
X177745410Y-114126793D01*
X177654087Y-114179520D01*
X177654084Y-114179522D01*
X177175426Y-114658181D01*
X177114103Y-114691666D01*
X177087745Y-114694500D01*
X176899999Y-114694500D01*
X176859912Y-114698469D01*
X176849890Y-114699462D01*
X176849888Y-114699462D01*
X176803985Y-114718532D01*
X176734524Y-114726072D01*
X176708962Y-114718581D01*
X176697777Y-114713948D01*
X176600004Y-114694500D01*
X176600001Y-114694500D01*
X175475001Y-114694500D01*
X175474998Y-114694500D01*
X175377229Y-114713947D01*
X175377222Y-114713950D01*
X175294335Y-114769333D01*
X175294334Y-114769334D01*
X175238951Y-114852221D01*
X175238948Y-114852228D01*
X175219501Y-114949995D01*
X175219501Y-115537745D01*
X175199816Y-115604784D01*
X175183182Y-115625426D01*
X174445427Y-116363181D01*
X174384104Y-116396666D01*
X174357746Y-116399500D01*
X170717255Y-116399500D01*
X170650216Y-116379815D01*
X170629574Y-116363181D01*
X169436819Y-115170426D01*
X169403334Y-115109103D01*
X169400500Y-115082745D01*
X169400500Y-112887274D01*
X169400499Y-112887270D01*
X169395474Y-112868515D01*
X169395473Y-112868510D01*
X169373207Y-112785412D01*
X169320480Y-112694087D01*
X167765993Y-111139600D01*
X167732508Y-111078277D01*
X167735742Y-111013603D01*
X167773402Y-110897701D01*
X167800500Y-110726611D01*
X167800500Y-110553389D01*
X167773402Y-110382299D01*
X167719873Y-110217555D01*
X167641232Y-110063212D01*
X167539414Y-109923072D01*
X167416928Y-109800586D01*
X167276788Y-109698768D01*
X167122445Y-109620127D01*
X166957701Y-109566598D01*
X166957699Y-109566597D01*
X166957698Y-109566597D01*
X166826271Y-109545781D01*
X166786611Y-109539500D01*
X166613389Y-109539500D01*
X166573728Y-109545781D01*
X166442302Y-109566597D01*
X166277552Y-109620128D01*
X166123211Y-109698768D01*
X166073958Y-109734553D01*
X165983072Y-109800586D01*
X165983070Y-109800588D01*
X165983069Y-109800588D01*
X165860588Y-109923069D01*
X165860588Y-109923070D01*
X165860586Y-109923072D01*
X165824362Y-109972930D01*
X165758768Y-110063211D01*
X165680128Y-110217552D01*
X165626597Y-110382302D01*
X165599547Y-110553095D01*
X165599500Y-110553389D01*
X165599500Y-110726611D01*
X165602272Y-110744111D01*
X165620941Y-110861988D01*
X165626598Y-110897701D01*
X165680127Y-111062445D01*
X165758768Y-111216788D01*
X165860586Y-111356928D01*
X165983072Y-111479414D01*
X166123212Y-111581232D01*
X166277555Y-111659873D01*
X166442299Y-111713402D01*
X166613389Y-111740500D01*
X166613390Y-111740500D01*
X166786610Y-111740500D01*
X166786611Y-111740500D01*
X166957701Y-111713402D01*
X167073602Y-111675742D01*
X167143442Y-111673748D01*
X167199600Y-111705993D01*
X168563181Y-113069574D01*
X168596666Y-113130897D01*
X168599500Y-113157255D01*
X168599500Y-115352726D01*
X168626793Y-115454589D01*
X168642792Y-115482299D01*
X168679520Y-115545913D01*
X170179519Y-117045912D01*
X170179520Y-117045913D01*
X170254087Y-117120480D01*
X170345413Y-117173207D01*
X170447273Y-117200500D01*
X170447275Y-117200500D01*
X174627726Y-117200500D01*
X174627728Y-117200500D01*
X174729589Y-117173207D01*
X174820914Y-117120480D01*
X175799575Y-116141819D01*
X175860898Y-116108334D01*
X175887256Y-116105500D01*
X176599991Y-116105500D01*
X176600001Y-116105500D01*
X176649584Y-116100643D01*
X176696253Y-116081368D01*
X176765730Y-116073972D01*
X176791045Y-116081420D01*
X176802220Y-116086049D01*
X176802223Y-116086051D01*
X176802226Y-116086051D01*
X176802227Y-116086052D01*
X176899994Y-116105499D01*
X176899997Y-116105500D01*
X176899999Y-116105500D01*
X177925001Y-116105500D01*
X177925002Y-116105499D01*
X178022775Y-116086051D01*
X178105665Y-116030666D01*
X178161050Y-115947776D01*
X178180499Y-115850000D01*
X178180499Y-115174500D01*
X178182034Y-115169271D01*
X178180950Y-115163930D01*
X178191774Y-115136100D01*
X178200184Y-115107461D01*
X178204301Y-115103892D01*
X178206278Y-115098812D01*
X178230432Y-115081250D01*
X178252988Y-115061706D01*
X178259551Y-115060079D01*
X178262790Y-115057725D01*
X178283593Y-115054121D01*
X178297379Y-115050705D01*
X178300943Y-115050500D01*
X178422475Y-115050500D01*
X178455690Y-115041599D01*
X178468380Y-115040870D01*
X178490524Y-115046011D01*
X178513253Y-115046552D01*
X178523906Y-115053762D01*
X178536439Y-115056672D01*
X178552289Y-115072971D01*
X178571117Y-115085713D01*
X178576181Y-115097538D01*
X178585151Y-115106762D01*
X178589673Y-115129042D01*
X178598623Y-115149940D01*
X178599500Y-115164665D01*
X178599500Y-115841323D01*
X178579815Y-115908362D01*
X178563181Y-115929004D01*
X177435093Y-117057091D01*
X177394873Y-117083968D01*
X177387515Y-117087016D01*
X177261988Y-117159489D01*
X177261982Y-117159493D01*
X177159493Y-117261982D01*
X177159489Y-117261988D01*
X177087016Y-117387515D01*
X177083968Y-117394873D01*
X177057091Y-117435093D01*
X176769003Y-117723182D01*
X176707683Y-117756666D01*
X176681324Y-117759500D01*
X167756090Y-117759500D01*
X167689051Y-117739815D01*
X167645607Y-117691798D01*
X167641234Y-117683216D01*
X167641229Y-117683207D01*
X167611672Y-117642526D01*
X167539414Y-117543072D01*
X167416928Y-117420586D01*
X167276788Y-117318768D01*
X167122445Y-117240127D01*
X166957701Y-117186598D01*
X166957699Y-117186597D01*
X166957698Y-117186597D01*
X166826271Y-117165781D01*
X166786611Y-117159500D01*
X166613389Y-117159500D01*
X166573728Y-117165781D01*
X166442302Y-117186597D01*
X166277552Y-117240128D01*
X166123211Y-117318768D01*
X166095684Y-117338768D01*
X165983072Y-117420586D01*
X165983070Y-117420588D01*
X165983069Y-117420588D01*
X165860588Y-117543069D01*
X165860588Y-117543070D01*
X165860586Y-117543072D01*
X165846057Y-117563070D01*
X165758768Y-117683211D01*
X165680128Y-117837552D01*
X165626597Y-118002302D01*
X165620546Y-118040509D01*
X165599500Y-118173389D01*
X165599500Y-118346611D01*
X165626598Y-118517701D01*
X165680127Y-118682445D01*
X165758768Y-118836788D01*
X165860586Y-118976928D01*
X165983072Y-119099414D01*
X166123212Y-119201232D01*
X166277555Y-119279873D01*
X166442299Y-119333402D01*
X166613389Y-119360500D01*
X166613390Y-119360500D01*
X166786610Y-119360500D01*
X166786611Y-119360500D01*
X166957701Y-119333402D01*
X167122445Y-119279873D01*
X167276788Y-119201232D01*
X167416928Y-119099414D01*
X167539414Y-118976928D01*
X167641232Y-118836788D01*
X167645607Y-118828202D01*
X167693582Y-118777408D01*
X167756090Y-118760500D01*
X177005890Y-118760500D01*
X177005892Y-118760500D01*
X177133186Y-118726392D01*
X177247314Y-118660500D01*
X177764905Y-118142907D01*
X177805133Y-118116029D01*
X177812478Y-118112985D01*
X177812485Y-118112984D01*
X177938015Y-118040509D01*
X178040509Y-117938015D01*
X178112984Y-117812485D01*
X178112985Y-117812478D01*
X178116029Y-117805133D01*
X178142907Y-117764905D01*
X179500499Y-116407315D01*
X179513335Y-116385084D01*
X179566392Y-116293186D01*
X179600500Y-116165893D01*
X179600500Y-116034108D01*
X179600500Y-113758676D01*
X179620185Y-113691637D01*
X179636819Y-113670995D01*
X180238240Y-113069574D01*
X180900500Y-112407314D01*
X180966392Y-112293186D01*
X181000500Y-112165892D01*
X181000500Y-112040539D01*
X181003924Y-112026741D01*
X181002995Y-112015788D01*
X181013563Y-111987904D01*
X181014890Y-111982559D01*
X181015955Y-111980544D01*
X181066392Y-111893186D01*
X181067109Y-111890509D01*
X181100500Y-111765893D01*
X181100500Y-111717288D01*
X181109941Y-111669831D01*
X181112982Y-111662488D01*
X181112981Y-111662488D01*
X181112984Y-111662485D01*
X181150500Y-111522475D01*
X181150500Y-111377525D01*
X181144891Y-111356592D01*
X181146554Y-111286743D01*
X181185717Y-111228881D01*
X181249945Y-111201377D01*
X181264666Y-111200500D01*
X181832725Y-111200500D01*
X181832727Y-111200500D01*
X181934588Y-111173207D01*
X182025913Y-111120480D01*
X186500401Y-106645990D01*
X186561722Y-106612507D01*
X186626393Y-106615741D01*
X186742299Y-106653402D01*
X186913389Y-106680500D01*
X186913390Y-106680500D01*
X187086610Y-106680500D01*
X187086611Y-106680500D01*
X187257701Y-106653402D01*
X187422445Y-106599873D01*
X187576788Y-106521232D01*
X187716928Y-106419414D01*
X187839414Y-106296928D01*
X187941232Y-106156788D01*
X188019873Y-106002445D01*
X188073402Y-105837701D01*
X188100500Y-105666611D01*
X188100500Y-105493389D01*
X188073402Y-105322299D01*
X188019873Y-105157555D01*
X187941232Y-105003212D01*
X187839414Y-104863072D01*
X187716928Y-104740586D01*
X187576788Y-104638768D01*
X187422445Y-104560127D01*
X187257701Y-104506598D01*
X187257699Y-104506597D01*
X187257698Y-104506597D01*
X187163904Y-104491742D01*
X187152527Y-104486349D01*
X187139968Y-104485451D01*
X187121553Y-104471666D01*
X187100769Y-104461813D01*
X187094113Y-104451123D01*
X187084035Y-104443579D01*
X187075997Y-104422028D01*
X187063838Y-104402501D01*
X187064017Y-104389911D01*
X187059618Y-104378115D01*
X187064507Y-104355638D01*
X187064836Y-104332639D01*
X187072148Y-104320512D01*
X187074470Y-104309842D01*
X187095618Y-104281591D01*
X187245699Y-104131510D01*
X187295059Y-104101263D01*
X187398695Y-104067590D01*
X187422440Y-104059875D01*
X187422442Y-104059873D01*
X187422445Y-104059873D01*
X187576788Y-103981232D01*
X187716928Y-103879414D01*
X187839414Y-103756928D01*
X187941232Y-103616788D01*
X188019873Y-103462445D01*
X188073402Y-103297701D01*
X188100500Y-103126611D01*
X188100500Y-102953389D01*
X188073402Y-102782299D01*
X188019873Y-102617555D01*
X187941232Y-102463212D01*
X187839414Y-102323072D01*
X187716928Y-102200586D01*
X187576788Y-102098768D01*
X187422445Y-102020127D01*
X187257701Y-101966598D01*
X187257699Y-101966597D01*
X187257698Y-101966597D01*
X187126271Y-101945781D01*
X187086611Y-101939500D01*
X186913389Y-101939500D01*
X186873728Y-101945781D01*
X186742302Y-101966597D01*
X186577552Y-102020128D01*
X186423211Y-102098768D01*
X186346383Y-102154588D01*
X186283072Y-102200586D01*
X186283070Y-102200588D01*
X186283069Y-102200588D01*
X186160588Y-102323069D01*
X186160588Y-102323070D01*
X186160586Y-102323072D01*
X186130608Y-102364333D01*
X186058768Y-102463211D01*
X185980128Y-102617552D01*
X185926597Y-102782302D01*
X185899500Y-102953389D01*
X185899500Y-103126611D01*
X185900989Y-103136012D01*
X185924261Y-103282950D01*
X185926598Y-103297701D01*
X185980127Y-103462445D01*
X186058768Y-103616788D01*
X186160586Y-103756928D01*
X186160588Y-103756930D01*
X186236360Y-103832702D01*
X186269845Y-103894025D01*
X186264861Y-103963717D01*
X186236360Y-104008064D01*
X185812181Y-104432243D01*
X185750858Y-104465728D01*
X185681166Y-104460744D01*
X185625233Y-104418872D01*
X185600816Y-104353408D01*
X185600500Y-104344562D01*
X185600500Y-102517254D01*
X185620185Y-102450215D01*
X185636815Y-102429577D01*
X186500401Y-101565990D01*
X186561722Y-101532507D01*
X186626393Y-101535741D01*
X186742299Y-101573402D01*
X186913389Y-101600500D01*
X186913390Y-101600500D01*
X187086610Y-101600500D01*
X187086611Y-101600500D01*
X187257701Y-101573402D01*
X187422445Y-101519873D01*
X187576788Y-101441232D01*
X187716928Y-101339414D01*
X187839414Y-101216928D01*
X187941232Y-101076788D01*
X188019873Y-100922445D01*
X188073402Y-100757701D01*
X188100500Y-100586611D01*
X188100500Y-100413389D01*
X188073402Y-100242299D01*
X188019873Y-100077555D01*
X187941232Y-99923212D01*
X187839414Y-99783072D01*
X187716928Y-99660586D01*
X187576788Y-99558768D01*
X187422445Y-99480127D01*
X187257701Y-99426598D01*
X187257699Y-99426597D01*
X187257698Y-99426597D01*
X187117927Y-99404460D01*
X187086611Y-99399500D01*
X186913389Y-99399500D01*
X186882073Y-99404460D01*
X186742302Y-99426597D01*
X186577552Y-99480128D01*
X186423211Y-99558768D01*
X186343256Y-99616859D01*
X186283072Y-99660586D01*
X186283070Y-99660588D01*
X186283069Y-99660588D01*
X186160588Y-99783069D01*
X186160588Y-99783070D01*
X186160586Y-99783072D01*
X186135960Y-99816967D01*
X186058768Y-99923211D01*
X185980128Y-100077552D01*
X185980127Y-100077554D01*
X185980127Y-100077555D01*
X185966894Y-100118282D01*
X185926597Y-100242302D01*
X185899500Y-100413389D01*
X185899500Y-100586611D01*
X185901409Y-100598662D01*
X185926597Y-100757698D01*
X185964256Y-100873600D01*
X185966251Y-100943441D01*
X185934006Y-100999599D01*
X185213181Y-101720425D01*
X185151858Y-101753910D01*
X185082167Y-101748926D01*
X185026233Y-101707054D01*
X185001816Y-101641590D01*
X185001500Y-101632744D01*
X185001500Y-98548275D01*
X185001499Y-98548268D01*
X184994715Y-98522950D01*
X184994715Y-98522951D01*
X184974207Y-98446412D01*
X184921480Y-98355087D01*
X183651714Y-97085321D01*
X185899500Y-97085321D01*
X185899500Y-98834678D01*
X185914032Y-98907735D01*
X185914033Y-98907739D01*
X185914034Y-98907740D01*
X185969399Y-98990601D01*
X186050888Y-99045049D01*
X186052260Y-99045966D01*
X186052264Y-99045967D01*
X186125321Y-99060499D01*
X186125324Y-99060500D01*
X186125326Y-99060500D01*
X187874676Y-99060500D01*
X187874677Y-99060499D01*
X187947740Y-99045966D01*
X188030601Y-98990601D01*
X188085966Y-98907740D01*
X188100500Y-98834674D01*
X188100500Y-97085326D01*
X188100500Y-97085323D01*
X188100499Y-97085321D01*
X188085967Y-97012264D01*
X188085966Y-97012260D01*
X188072605Y-96992264D01*
X188030601Y-96929399D01*
X187947740Y-96874034D01*
X187947739Y-96874033D01*
X187947735Y-96874032D01*
X187874677Y-96859500D01*
X187874674Y-96859500D01*
X186125326Y-96859500D01*
X186125323Y-96859500D01*
X186052264Y-96874032D01*
X186052260Y-96874033D01*
X185969399Y-96929399D01*
X185914033Y-97012260D01*
X185914032Y-97012264D01*
X185899500Y-97085321D01*
X183651714Y-97085321D01*
X182645913Y-96079520D01*
X182592913Y-96026520D01*
X182501587Y-95973793D01*
X182399727Y-95946500D01*
X173450979Y-95946500D01*
X173345525Y-95946500D01*
X173243662Y-95973793D01*
X173152339Y-96026520D01*
X173152336Y-96026522D01*
X171520494Y-97658365D01*
X171520490Y-97658371D01*
X171467765Y-97749691D01*
X171465989Y-97756321D01*
X171440472Y-97851554D01*
X171440472Y-101085272D01*
X171440472Y-101190726D01*
X171447493Y-101216928D01*
X171467765Y-101292588D01*
X171494128Y-101338249D01*
X171520492Y-101383912D01*
X172873492Y-102736912D01*
X172873493Y-102736913D01*
X172948060Y-102811480D01*
X172948061Y-102811481D01*
X172948063Y-102811482D01*
X172963403Y-102820338D01*
X173011621Y-102870903D01*
X173011892Y-102871433D01*
X173015922Y-102879343D01*
X173105624Y-102969045D01*
X173105626Y-102969046D01*
X173105630Y-102969050D01*
X173196823Y-103015515D01*
X173200434Y-103018926D01*
X173205230Y-103020219D01*
X173225581Y-103042675D01*
X173247619Y-103063490D01*
X173248813Y-103068312D01*
X173252148Y-103071992D01*
X173257127Y-103101888D01*
X173264414Y-103131311D01*
X173262811Y-103136012D01*
X173263628Y-103140912D01*
X173251652Y-103168757D01*
X173241876Y-103197446D01*
X173237450Y-103201781D01*
X173236024Y-103205098D01*
X173225299Y-103213684D01*
X173209872Y-103228798D01*
X173203583Y-103233039D01*
X173105630Y-103282950D01*
X173055956Y-103332623D01*
X173046062Y-103339298D01*
X173023684Y-103346412D01*
X173003077Y-103357666D01*
X172980739Y-103360067D01*
X172979477Y-103360469D01*
X172978772Y-103360279D01*
X172976718Y-103360500D01*
X172764734Y-103360500D01*
X172662871Y-103387793D01*
X172571548Y-103440520D01*
X172571545Y-103440522D01*
X170079522Y-105932545D01*
X170079520Y-105932548D01*
X170039165Y-106002445D01*
X170026793Y-106023873D01*
X170015639Y-106065501D01*
X170015639Y-106065502D01*
X170015638Y-106065501D01*
X169999500Y-106125732D01*
X169999500Y-110533745D01*
X169979815Y-110600784D01*
X169927011Y-110646539D01*
X169857853Y-110656483D01*
X169794297Y-110627458D01*
X169787819Y-110621426D01*
X167765993Y-108599600D01*
X167732508Y-108538277D01*
X167735742Y-108473603D01*
X167773402Y-108357701D01*
X167800500Y-108186611D01*
X167800500Y-108013389D01*
X167773402Y-107842299D01*
X167770424Y-107833137D01*
X167768430Y-107763296D01*
X167800675Y-107707138D01*
X168373632Y-107134181D01*
X169000500Y-106507314D01*
X169066392Y-106393186D01*
X169100500Y-106265892D01*
X169100500Y-106134107D01*
X169100500Y-105628544D01*
X169120185Y-105561505D01*
X169172989Y-105515750D01*
X169242147Y-105505806D01*
X169256576Y-105508765D01*
X169277525Y-105514379D01*
X169277528Y-105514379D01*
X169422472Y-105514379D01*
X169422475Y-105514379D01*
X169562485Y-105476863D01*
X169688015Y-105404388D01*
X169790509Y-105301894D01*
X169862984Y-105176364D01*
X169900500Y-105036354D01*
X169900500Y-104891404D01*
X169876655Y-104802414D01*
X169876940Y-104790414D01*
X169872746Y-104779167D01*
X169877756Y-104756132D01*
X169878318Y-104732566D01*
X169885417Y-104720918D01*
X169887598Y-104710894D01*
X169908742Y-104682648D01*
X170074575Y-104516815D01*
X170135898Y-104483333D01*
X170162255Y-104480499D01*
X170750002Y-104480499D01*
X170750003Y-104480498D01*
X170847776Y-104461050D01*
X170930666Y-104405665D01*
X170986051Y-104322775D01*
X171005500Y-104224999D01*
X171005500Y-103199999D01*
X171000538Y-103149891D01*
X170999450Y-103147273D01*
X170962292Y-103057829D01*
X170891725Y-102987409D01*
X170891724Y-102987408D01*
X170666726Y-102837410D01*
X170441726Y-102687410D01*
X170350108Y-102649461D01*
X170350002Y-102649460D01*
X170250416Y-102649355D01*
X170250414Y-102649356D01*
X170158278Y-102687408D01*
X170158270Y-102687412D01*
X169708280Y-102987405D01*
X169708265Y-102987416D01*
X169669334Y-103019332D01*
X169613948Y-103102224D01*
X169613947Y-103102227D01*
X169594500Y-103199994D01*
X169594500Y-103812744D01*
X169574815Y-103879783D01*
X169558181Y-103900425D01*
X169312181Y-104146425D01*
X169250858Y-104179910D01*
X169181166Y-104174926D01*
X169125233Y-104133054D01*
X169100816Y-104067590D01*
X169100500Y-104058744D01*
X169100500Y-99858675D01*
X169120185Y-99791636D01*
X169136815Y-99770998D01*
X169364905Y-99542907D01*
X169405133Y-99516029D01*
X169412478Y-99512985D01*
X169412485Y-99512984D01*
X169538015Y-99440509D01*
X169640509Y-99338015D01*
X169712984Y-99212485D01*
X169750500Y-99072475D01*
X169750500Y-98927525D01*
X169712984Y-98787515D01*
X169711754Y-98785385D01*
X169640511Y-98661988D01*
X169640506Y-98661982D01*
X169538017Y-98559493D01*
X169538011Y-98559488D01*
X169412488Y-98487017D01*
X169412489Y-98487017D01*
X169395366Y-98482429D01*
X169272475Y-98449500D01*
X169127525Y-98449500D01*
X169004634Y-98482429D01*
X168987511Y-98487017D01*
X168861988Y-98559488D01*
X168861982Y-98559493D01*
X168759493Y-98661982D01*
X168759489Y-98661988D01*
X168687016Y-98787515D01*
X168683968Y-98794873D01*
X168657091Y-98835093D01*
X168292686Y-99199500D01*
X168199502Y-99292683D01*
X168199500Y-99292686D01*
X168133608Y-99406812D01*
X168099500Y-99534108D01*
X168099500Y-105941323D01*
X168079815Y-106008362D01*
X168063181Y-106029004D01*
X167868460Y-106223725D01*
X167807137Y-106257210D01*
X167737445Y-106252226D01*
X167681512Y-106210354D01*
X167657095Y-106144890D01*
X167670293Y-106079750D01*
X167719873Y-105982445D01*
X167773402Y-105817701D01*
X167800500Y-105646611D01*
X167800500Y-105473389D01*
X167773402Y-105302299D01*
X167719873Y-105137555D01*
X167641232Y-104983212D01*
X167539414Y-104843072D01*
X167416928Y-104720586D01*
X167276788Y-104618768D01*
X167122445Y-104540127D01*
X166957701Y-104486598D01*
X166957699Y-104486597D01*
X166957698Y-104486597D01*
X166825933Y-104465728D01*
X166786611Y-104459500D01*
X166613389Y-104459500D01*
X166574067Y-104465728D01*
X166442302Y-104486597D01*
X166277552Y-104540128D01*
X166123211Y-104618768D01*
X166064439Y-104661469D01*
X165983072Y-104720586D01*
X165983070Y-104720588D01*
X165983069Y-104720588D01*
X165860588Y-104843069D01*
X165860588Y-104843070D01*
X165860586Y-104843072D01*
X165846057Y-104863070D01*
X165758768Y-104983211D01*
X165680128Y-105137552D01*
X165626597Y-105302302D01*
X165610428Y-105404390D01*
X165599500Y-105473389D01*
X165100500Y-105473389D01*
X165100500Y-102933389D01*
X165599500Y-102933389D01*
X165599500Y-103106611D01*
X165602668Y-103126610D01*
X165620069Y-103236483D01*
X165626598Y-103277701D01*
X165680127Y-103442445D01*
X165758768Y-103596788D01*
X165860586Y-103736928D01*
X165983072Y-103859414D01*
X166123212Y-103961232D01*
X166277555Y-104039873D01*
X166442299Y-104093402D01*
X166613389Y-104120500D01*
X166613390Y-104120500D01*
X166786610Y-104120500D01*
X166786611Y-104120500D01*
X166957701Y-104093402D01*
X167122445Y-104039873D01*
X167276788Y-103961232D01*
X167416928Y-103859414D01*
X167539414Y-103736928D01*
X167641232Y-103596788D01*
X167719873Y-103442445D01*
X167773402Y-103277701D01*
X167800500Y-103106611D01*
X167800500Y-102933389D01*
X167773402Y-102762299D01*
X167719873Y-102597555D01*
X167641232Y-102443212D01*
X167539414Y-102303072D01*
X167416928Y-102180586D01*
X167276788Y-102078768D01*
X167122445Y-102000127D01*
X166957701Y-101946598D01*
X166957699Y-101946597D01*
X166957698Y-101946597D01*
X166826271Y-101925781D01*
X166786611Y-101919500D01*
X166613389Y-101919500D01*
X166573728Y-101925781D01*
X166442302Y-101946597D01*
X166277552Y-102000128D01*
X166123211Y-102078768D01*
X166090330Y-102102658D01*
X165983072Y-102180586D01*
X165983070Y-102180588D01*
X165983069Y-102180588D01*
X165860588Y-102303069D01*
X165860588Y-102303070D01*
X165860586Y-102303072D01*
X165816859Y-102363256D01*
X165758768Y-102443211D01*
X165680128Y-102597552D01*
X165626597Y-102762302D01*
X165605663Y-102894476D01*
X165599500Y-102933389D01*
X165100500Y-102933389D01*
X165100500Y-100393389D01*
X165599500Y-100393389D01*
X165599500Y-100566611D01*
X165602668Y-100586610D01*
X165620069Y-100696483D01*
X165626598Y-100737701D01*
X165680127Y-100902445D01*
X165758768Y-101056788D01*
X165860586Y-101196928D01*
X165983072Y-101319414D01*
X166123212Y-101421232D01*
X166277555Y-101499873D01*
X166442299Y-101553402D01*
X166613389Y-101580500D01*
X166613390Y-101580500D01*
X166786610Y-101580500D01*
X166786611Y-101580500D01*
X166957701Y-101553402D01*
X167122445Y-101499873D01*
X167276788Y-101421232D01*
X167416928Y-101319414D01*
X167539414Y-101196928D01*
X167641232Y-101056788D01*
X167719873Y-100902445D01*
X167773402Y-100737701D01*
X167800500Y-100566611D01*
X167800500Y-100393389D01*
X167773402Y-100222299D01*
X167719873Y-100057555D01*
X167641232Y-99903212D01*
X167539414Y-99763072D01*
X167416928Y-99640586D01*
X167276788Y-99538768D01*
X167122445Y-99460127D01*
X166957701Y-99406598D01*
X166957699Y-99406597D01*
X166957698Y-99406597D01*
X166826271Y-99385781D01*
X166786611Y-99379500D01*
X166613389Y-99379500D01*
X166573728Y-99385781D01*
X166442302Y-99406597D01*
X166277552Y-99460128D01*
X166123211Y-99538768D01*
X166083272Y-99567786D01*
X165983072Y-99640586D01*
X165983070Y-99640588D01*
X165983069Y-99640588D01*
X165860588Y-99763069D01*
X165860588Y-99763070D01*
X165860586Y-99763072D01*
X165832674Y-99801490D01*
X165758768Y-99903211D01*
X165680128Y-100057552D01*
X165680127Y-100057554D01*
X165680127Y-100057555D01*
X165655770Y-100132519D01*
X165626597Y-100222302D01*
X165603380Y-100368894D01*
X165599500Y-100393389D01*
X165100500Y-100393389D01*
X165100500Y-97065321D01*
X165599500Y-97065321D01*
X165599500Y-98814678D01*
X165614032Y-98887735D01*
X165614033Y-98887739D01*
X165614034Y-98887740D01*
X165669399Y-98970601D01*
X165733560Y-99013471D01*
X165752260Y-99025966D01*
X165752264Y-99025967D01*
X165825321Y-99040499D01*
X165825324Y-99040500D01*
X165825326Y-99040500D01*
X167574676Y-99040500D01*
X167574677Y-99040499D01*
X167647740Y-99025966D01*
X167730601Y-98970601D01*
X167785966Y-98887740D01*
X167800500Y-98814674D01*
X167800500Y-97065326D01*
X167800500Y-97065323D01*
X167800499Y-97065321D01*
X167785967Y-96992264D01*
X167785966Y-96992260D01*
X167743964Y-96929399D01*
X167730601Y-96909399D01*
X167647740Y-96854034D01*
X167647739Y-96854033D01*
X167647735Y-96854032D01*
X167574677Y-96839500D01*
X167574674Y-96839500D01*
X165825326Y-96839500D01*
X165825323Y-96839500D01*
X165752264Y-96854032D01*
X165752260Y-96854033D01*
X165669399Y-96909399D01*
X165614033Y-96992260D01*
X165614032Y-96992264D01*
X165599500Y-97065321D01*
X165100500Y-97065321D01*
X165100500Y-94025321D01*
X182999500Y-94025321D01*
X182999500Y-94574678D01*
X183014032Y-94647735D01*
X183014033Y-94647739D01*
X183014034Y-94647740D01*
X183069399Y-94730601D01*
X183152260Y-94785966D01*
X183152264Y-94785967D01*
X183225321Y-94800499D01*
X183225324Y-94800500D01*
X183225326Y-94800500D01*
X184174676Y-94800500D01*
X184174677Y-94800499D01*
X184247740Y-94785966D01*
X184330601Y-94730601D01*
X184385966Y-94647740D01*
X184400500Y-94574674D01*
X184400500Y-94025326D01*
X184400500Y-94025323D01*
X184400499Y-94025321D01*
X184385967Y-93952264D01*
X184385966Y-93952260D01*
X184330601Y-93869399D01*
X184247740Y-93814034D01*
X184247739Y-93814033D01*
X184247735Y-93814032D01*
X184174677Y-93799500D01*
X184174674Y-93799500D01*
X183225326Y-93799500D01*
X183225323Y-93799500D01*
X183152264Y-93814032D01*
X183152260Y-93814033D01*
X183069399Y-93869399D01*
X183014033Y-93952260D01*
X183014032Y-93952264D01*
X182999500Y-94025321D01*
X165100500Y-94025321D01*
X165100500Y-93224000D01*
X165120185Y-93156961D01*
X165172989Y-93111206D01*
X165224500Y-93100000D01*
X188475500Y-93100000D01*
X188542539Y-93119685D01*
G37*
%TD.AperFunction*%
%TD*%
M02*
