%TF.GenerationSoftware,KiCad,Pcbnew,9.0.4*%
%TF.CreationDate,2025-12-21T12:46:41-05:00*%
%TF.ProjectId,Mess-Breakout+Perf,4d657373-2d42-4726-9561-6b6f75742b50,rev?*%
%TF.SameCoordinates,Original*%
%TF.FileFunction,Soldermask,Bot*%
%TF.FilePolarity,Negative*%
%FSLAX46Y46*%
G04 Gerber Fmt 4.6, Leading zero omitted, Abs format (unit mm)*
G04 Created by KiCad (PCBNEW 9.0.4) date 2025-12-21 12:46:41*
%MOMM*%
%LPD*%
G01*
G04 APERTURE LIST*
%ADD10R,1.700000X1.700000*%
%ADD11C,1.700000*%
G04 APERTURE END LIST*
D10*
%TO.C,J11*%
X89489723Y-44888589D03*
D11*
X86949723Y-44888589D03*
X89489723Y-47428589D03*
X86949723Y-47428589D03*
X89489723Y-49968589D03*
X86949723Y-49968589D03*
X89489723Y-52508589D03*
X86949723Y-52508589D03*
X89489723Y-55048589D03*
X86949723Y-55048589D03*
X89489723Y-57588589D03*
X86949723Y-57588589D03*
X89489723Y-60128589D03*
X86949723Y-60128589D03*
X89489723Y-62668589D03*
X86949723Y-62668589D03*
X89489723Y-65208589D03*
X86949723Y-65208589D03*
X89489723Y-67748589D03*
X86949723Y-67748589D03*
X89489723Y-70288589D03*
X86949723Y-70288589D03*
X89489723Y-72828589D03*
X86949723Y-72828589D03*
X89489723Y-75368589D03*
X86949723Y-75368589D03*
X89489723Y-77908589D03*
X86949723Y-77908589D03*
X89489723Y-80448589D03*
X86949723Y-80448589D03*
X89489723Y-82988589D03*
X86949723Y-82988589D03*
X89489723Y-85528589D03*
X86949723Y-85528589D03*
X89489723Y-88068589D03*
X86949723Y-88068589D03*
X89489723Y-90608589D03*
X86949723Y-90608589D03*
X89489723Y-93148589D03*
X86949723Y-93148589D03*
X89489723Y-95688589D03*
X86949723Y-95688589D03*
X89489723Y-98228589D03*
X86949723Y-98228589D03*
X89489723Y-100768589D03*
X86949723Y-100768589D03*
X89489723Y-103308589D03*
X86949723Y-103308589D03*
X89489723Y-105848589D03*
X86949723Y-105848589D03*
X89489723Y-108388589D03*
X86949723Y-108388589D03*
X89489723Y-110928589D03*
X86949723Y-110928589D03*
X89489723Y-113468589D03*
X86949723Y-113468589D03*
X89489723Y-116008589D03*
X86949723Y-116008589D03*
X89489723Y-118548589D03*
X86949723Y-118548589D03*
X89489723Y-121088589D03*
X86949723Y-121088589D03*
X89489723Y-123628589D03*
X86949723Y-123628589D03*
X89489723Y-126168589D03*
X86949723Y-126168589D03*
X89489723Y-128708589D03*
X86949723Y-128708589D03*
X89489723Y-131248589D03*
X86949723Y-131248589D03*
X89489723Y-133788589D03*
X86949723Y-133788589D03*
X89489723Y-136328589D03*
X86949723Y-136328589D03*
X89489723Y-138868589D03*
X86949723Y-138868589D03*
%TD*%
D10*
%TO.C,J12*%
X82949723Y-44888589D03*
D11*
X82949723Y-47428589D03*
X82949723Y-49968589D03*
X82949723Y-52508589D03*
X82949723Y-55048589D03*
X82949723Y-57588589D03*
X82949723Y-60128589D03*
X82949723Y-62668589D03*
X82949723Y-65208589D03*
X82949723Y-67748589D03*
X82949723Y-70288589D03*
X82949723Y-72828589D03*
X82949723Y-75368589D03*
X82949723Y-77908589D03*
X82949723Y-80448589D03*
X82949723Y-82988589D03*
X82949723Y-85528589D03*
X82949723Y-88068589D03*
X82949723Y-90608589D03*
X82949723Y-93148589D03*
X82949723Y-95688589D03*
X82949723Y-98228589D03*
X82949723Y-100768589D03*
X82949723Y-103308589D03*
X82949723Y-105848589D03*
X82949723Y-108388589D03*
X82949723Y-110928589D03*
X82949723Y-113468589D03*
X82949723Y-116008589D03*
X82949723Y-118548589D03*
X82949723Y-121088589D03*
X82949723Y-123628589D03*
X82949723Y-126168589D03*
X82949723Y-128708589D03*
X82949723Y-131248589D03*
X82949723Y-133788589D03*
X82949723Y-136328589D03*
X82949723Y-138868589D03*
%TD*%
D10*
%TO.C,J10*%
X95438723Y-56480001D03*
D11*
X95438723Y-59020001D03*
X95438723Y-61560000D03*
X95438723Y-64100001D03*
X95438723Y-66640001D03*
X95438723Y-69180001D03*
X95438723Y-71720001D03*
X95438723Y-74260002D03*
X95438723Y-76800001D03*
X95438723Y-79340001D03*
X95438723Y-81880001D03*
X95438723Y-84420000D03*
X95438723Y-86960001D03*
X95438723Y-89500001D03*
X95438723Y-92040001D03*
X95438723Y-94580000D03*
X95438723Y-97120002D03*
X95438723Y-99660001D03*
X95438723Y-102200001D03*
X95438723Y-104740001D03*
X95438723Y-107280000D03*
X95438723Y-109820001D03*
X95438723Y-112360001D03*
X95438723Y-114900001D03*
X95438723Y-117440000D03*
X95438723Y-119980002D03*
X95438723Y-122520001D03*
X95438723Y-125060001D03*
X95438723Y-127600001D03*
X95438723Y-130140002D03*
%TD*%
D10*
%TO.C,J13*%
X100538723Y-56500000D03*
D11*
X97998723Y-56500000D03*
X100538723Y-59040000D03*
X97998723Y-59040000D03*
X100538723Y-61579999D03*
X97998723Y-61580000D03*
X100538723Y-64120000D03*
X97998723Y-64120000D03*
X100538723Y-66660000D03*
X97998723Y-66660000D03*
X100538723Y-69200000D03*
X97998723Y-69200000D03*
X100538723Y-71740000D03*
X97998723Y-71740000D03*
X100538723Y-74280001D03*
X97998723Y-74280000D03*
X100538723Y-76820000D03*
X97998723Y-76820000D03*
X100538723Y-79360000D03*
X97998723Y-79360000D03*
X100538723Y-81900000D03*
X97998723Y-81900000D03*
X100538723Y-84439999D03*
X97998723Y-84440000D03*
X100538723Y-86980000D03*
X97998723Y-86980000D03*
X100538723Y-89520000D03*
X97998723Y-89520000D03*
X100538723Y-92060000D03*
X97998723Y-92060000D03*
X100538723Y-94599999D03*
X97998723Y-94600000D03*
X100538723Y-97140001D03*
X97998723Y-97140000D03*
X100538723Y-99680000D03*
X97998723Y-99680000D03*
X100538723Y-102220000D03*
X97998723Y-102220000D03*
X100538723Y-104760000D03*
X97998723Y-104760000D03*
X100538723Y-107299999D03*
X97998723Y-107300000D03*
X100538723Y-109840000D03*
X97998723Y-109840000D03*
X100538723Y-112380000D03*
X97998723Y-112380000D03*
X100538723Y-114920000D03*
X97998723Y-114920000D03*
X100538723Y-117459999D03*
X97998723Y-117460000D03*
X100538723Y-120000001D03*
X97998723Y-120000000D03*
X100538723Y-122540000D03*
X97998723Y-122540000D03*
X100538723Y-125080000D03*
X97998723Y-125080000D03*
X100538723Y-127620000D03*
X97998723Y-127620000D03*
X100538723Y-130160001D03*
X97998723Y-130160000D03*
%TD*%
D10*
%TO.C,J8*%
X49949723Y-44888589D03*
D11*
X49949723Y-47428589D03*
X49949723Y-49968589D03*
X49949723Y-52508589D03*
X49949723Y-55048589D03*
X49949723Y-57588589D03*
X49949723Y-60128589D03*
X49949723Y-62668589D03*
X49949723Y-65208589D03*
X49949723Y-67748589D03*
X49949723Y-70288589D03*
X49949723Y-72828589D03*
X49949723Y-75368589D03*
X49949723Y-77908589D03*
X49949723Y-80448589D03*
X49949723Y-82988589D03*
X49949723Y-85528589D03*
X49949723Y-88068589D03*
X49949723Y-90608589D03*
X49949723Y-93148589D03*
X49949723Y-95688589D03*
X49949723Y-98228589D03*
X49949723Y-100768589D03*
X49949723Y-103308589D03*
X49949723Y-105848589D03*
X49949723Y-108388589D03*
X49949723Y-110928589D03*
X49949723Y-113468589D03*
X49949723Y-116008589D03*
X49949723Y-118548589D03*
X49949723Y-121088589D03*
X49949723Y-123628589D03*
X49949723Y-126168589D03*
X49949723Y-128708589D03*
X49949723Y-131248589D03*
X49949723Y-133788589D03*
X49949723Y-136328589D03*
X49949723Y-138868589D03*
%TD*%
D10*
%TO.C,J7*%
X56489723Y-44888589D03*
D11*
X53949723Y-44888589D03*
X56489723Y-47428589D03*
X53949723Y-47428589D03*
X56489723Y-49968589D03*
X53949723Y-49968589D03*
X56489723Y-52508589D03*
X53949723Y-52508589D03*
X56489723Y-55048589D03*
X53949723Y-55048589D03*
X56489723Y-57588589D03*
X53949723Y-57588589D03*
X56489723Y-60128589D03*
X53949723Y-60128589D03*
X56489723Y-62668589D03*
X53949723Y-62668589D03*
X56489723Y-65208589D03*
X53949723Y-65208589D03*
X56489723Y-67748589D03*
X53949723Y-67748589D03*
X56489723Y-70288589D03*
X53949723Y-70288589D03*
X56489723Y-72828589D03*
X53949723Y-72828589D03*
X56489723Y-75368589D03*
X53949723Y-75368589D03*
X56489723Y-77908589D03*
X53949723Y-77908589D03*
X56489723Y-80448589D03*
X53949723Y-80448589D03*
X56489723Y-82988589D03*
X53949723Y-82988589D03*
X56489723Y-85528589D03*
X53949723Y-85528589D03*
X56489723Y-88068589D03*
X53949723Y-88068589D03*
X56489723Y-90608589D03*
X53949723Y-90608589D03*
X56489723Y-93148589D03*
X53949723Y-93148589D03*
X56489723Y-95688589D03*
X53949723Y-95688589D03*
X56489723Y-98228589D03*
X53949723Y-98228589D03*
X56489723Y-100768589D03*
X53949723Y-100768589D03*
X56489723Y-103308589D03*
X53949723Y-103308589D03*
X56489723Y-105848589D03*
X53949723Y-105848589D03*
X56489723Y-108388589D03*
X53949723Y-108388589D03*
X56489723Y-110928589D03*
X53949723Y-110928589D03*
X56489723Y-113468589D03*
X53949723Y-113468589D03*
X56489723Y-116008589D03*
X53949723Y-116008589D03*
X56489723Y-118548589D03*
X53949723Y-118548589D03*
X56489723Y-121088589D03*
X53949723Y-121088589D03*
X56489723Y-123628589D03*
X53949723Y-123628589D03*
X56489723Y-126168589D03*
X53949723Y-126168589D03*
X56489723Y-128708589D03*
X53949723Y-128708589D03*
X56489723Y-131248589D03*
X53949723Y-131248589D03*
X56489723Y-133788589D03*
X53949723Y-133788589D03*
X56489723Y-136328589D03*
X53949723Y-136328589D03*
X56489723Y-138868589D03*
X53949723Y-138868589D03*
%TD*%
D10*
%TO.C,J6*%
X62438723Y-56480001D03*
D11*
X62438723Y-59020001D03*
X62438723Y-61560000D03*
X62438723Y-64100001D03*
X62438723Y-66640001D03*
X62438723Y-69180001D03*
X62438723Y-71720001D03*
X62438723Y-74260002D03*
X62438723Y-76800001D03*
X62438723Y-79340001D03*
X62438723Y-81880001D03*
X62438723Y-84420000D03*
X62438723Y-86960001D03*
X62438723Y-89500001D03*
X62438723Y-92040001D03*
X62438723Y-94580000D03*
X62438723Y-97120002D03*
X62438723Y-99660001D03*
X62438723Y-102200001D03*
X62438723Y-104740001D03*
X62438723Y-107280000D03*
X62438723Y-109820001D03*
X62438723Y-112360001D03*
X62438723Y-114900001D03*
X62438723Y-117440000D03*
X62438723Y-119980002D03*
X62438723Y-122520001D03*
X62438723Y-125060001D03*
X62438723Y-127600001D03*
X62438723Y-130140002D03*
%TD*%
D10*
%TO.C,J9*%
X67538723Y-56500000D03*
D11*
X64998723Y-56500000D03*
X67538723Y-59040000D03*
X64998723Y-59040000D03*
X67538723Y-61579999D03*
X64998723Y-61580000D03*
X67538723Y-64120000D03*
X64998723Y-64120000D03*
X67538723Y-66660000D03*
X64998723Y-66660000D03*
X67538723Y-69200000D03*
X64998723Y-69200000D03*
X67538723Y-71740000D03*
X64998723Y-71740000D03*
X67538723Y-74280001D03*
X64998723Y-74280000D03*
X67538723Y-76820000D03*
X64998723Y-76820000D03*
X67538723Y-79360000D03*
X64998723Y-79360000D03*
X67538723Y-81900000D03*
X64998723Y-81900000D03*
X67538723Y-84439999D03*
X64998723Y-84440000D03*
X67538723Y-86980000D03*
X64998723Y-86980000D03*
X67538723Y-89520000D03*
X64998723Y-89520000D03*
X67538723Y-92060000D03*
X64998723Y-92060000D03*
X67538723Y-94599999D03*
X64998723Y-94600000D03*
X67538723Y-97140001D03*
X64998723Y-97140000D03*
X67538723Y-99680000D03*
X64998723Y-99680000D03*
X67538723Y-102220000D03*
X64998723Y-102220000D03*
X67538723Y-104760000D03*
X64998723Y-104760000D03*
X67538723Y-107299999D03*
X64998723Y-107300000D03*
X67538723Y-109840000D03*
X64998723Y-109840000D03*
X67538723Y-112380000D03*
X64998723Y-112380000D03*
X67538723Y-114920000D03*
X64998723Y-114920000D03*
X67538723Y-117459999D03*
X64998723Y-117460000D03*
X67538723Y-120000001D03*
X64998723Y-120000000D03*
X67538723Y-122540000D03*
X64998723Y-122540000D03*
X67538723Y-125080000D03*
X64998723Y-125080000D03*
X67538723Y-127620000D03*
X64998723Y-127620000D03*
X67538723Y-130160001D03*
X64998723Y-130160000D03*
%TD*%
D10*
%TO.C,J5*%
X133538723Y-56500000D03*
D11*
X130998723Y-56500000D03*
X133538723Y-59040000D03*
X130998723Y-59040000D03*
X133538723Y-61579999D03*
X130998723Y-61580000D03*
X133538723Y-64120000D03*
X130998723Y-64120000D03*
X133538723Y-66660000D03*
X130998723Y-66660000D03*
X133538723Y-69200000D03*
X130998723Y-69200000D03*
X133538723Y-71740000D03*
X130998723Y-71740000D03*
X133538723Y-74280001D03*
X130998723Y-74280000D03*
X133538723Y-76820000D03*
X130998723Y-76820000D03*
X133538723Y-79360000D03*
X130998723Y-79360000D03*
X133538723Y-81900000D03*
X130998723Y-81900000D03*
X133538723Y-84439999D03*
X130998723Y-84440000D03*
X133538723Y-86980000D03*
X130998723Y-86980000D03*
X133538723Y-89520000D03*
X130998723Y-89520000D03*
X133538723Y-92060000D03*
X130998723Y-92060000D03*
X133538723Y-94599999D03*
X130998723Y-94600000D03*
X133538723Y-97140001D03*
X130998723Y-97140000D03*
X133538723Y-99680000D03*
X130998723Y-99680000D03*
X133538723Y-102220000D03*
X130998723Y-102220000D03*
X133538723Y-104760000D03*
X130998723Y-104760000D03*
X133538723Y-107299999D03*
X130998723Y-107300000D03*
X133538723Y-109840000D03*
X130998723Y-109840000D03*
X133538723Y-112380000D03*
X130998723Y-112380000D03*
X133538723Y-114920000D03*
X130998723Y-114920000D03*
X133538723Y-117459999D03*
X130998723Y-117460000D03*
X133538723Y-120000001D03*
X130998723Y-120000000D03*
X133538723Y-122540000D03*
X130998723Y-122540000D03*
X133538723Y-125080000D03*
X130998723Y-125080000D03*
X133538723Y-127620000D03*
X130998723Y-127620000D03*
X133538723Y-130160001D03*
X130998723Y-130160000D03*
%TD*%
D10*
%TO.C,J4*%
X115949723Y-44888589D03*
D11*
X115949723Y-47428589D03*
X115949723Y-49968589D03*
X115949723Y-52508589D03*
X115949723Y-55048589D03*
X115949723Y-57588589D03*
X115949723Y-60128589D03*
X115949723Y-62668589D03*
X115949723Y-65208589D03*
X115949723Y-67748589D03*
X115949723Y-70288589D03*
X115949723Y-72828589D03*
X115949723Y-75368589D03*
X115949723Y-77908589D03*
X115949723Y-80448589D03*
X115949723Y-82988589D03*
X115949723Y-85528589D03*
X115949723Y-88068589D03*
X115949723Y-90608589D03*
X115949723Y-93148589D03*
X115949723Y-95688589D03*
X115949723Y-98228589D03*
X115949723Y-100768589D03*
X115949723Y-103308589D03*
X115949723Y-105848589D03*
X115949723Y-108388589D03*
X115949723Y-110928589D03*
X115949723Y-113468589D03*
X115949723Y-116008589D03*
X115949723Y-118548589D03*
X115949723Y-121088589D03*
X115949723Y-123628589D03*
X115949723Y-126168589D03*
X115949723Y-128708589D03*
X115949723Y-131248589D03*
X115949723Y-133788589D03*
X115949723Y-136328589D03*
X115949723Y-138868589D03*
%TD*%
D10*
%TO.C,J3*%
X122489723Y-44888589D03*
D11*
X119949723Y-44888589D03*
X122489723Y-47428589D03*
X119949723Y-47428589D03*
X122489723Y-49968589D03*
X119949723Y-49968589D03*
X122489723Y-52508589D03*
X119949723Y-52508589D03*
X122489723Y-55048589D03*
X119949723Y-55048589D03*
X122489723Y-57588589D03*
X119949723Y-57588589D03*
X122489723Y-60128589D03*
X119949723Y-60128589D03*
X122489723Y-62668589D03*
X119949723Y-62668589D03*
X122489723Y-65208589D03*
X119949723Y-65208589D03*
X122489723Y-67748589D03*
X119949723Y-67748589D03*
X122489723Y-70288589D03*
X119949723Y-70288589D03*
X122489723Y-72828589D03*
X119949723Y-72828589D03*
X122489723Y-75368589D03*
X119949723Y-75368589D03*
X122489723Y-77908589D03*
X119949723Y-77908589D03*
X122489723Y-80448589D03*
X119949723Y-80448589D03*
X122489723Y-82988589D03*
X119949723Y-82988589D03*
X122489723Y-85528589D03*
X119949723Y-85528589D03*
X122489723Y-88068589D03*
X119949723Y-88068589D03*
X122489723Y-90608589D03*
X119949723Y-90608589D03*
X122489723Y-93148589D03*
X119949723Y-93148589D03*
X122489723Y-95688589D03*
X119949723Y-95688589D03*
X122489723Y-98228589D03*
X119949723Y-98228589D03*
X122489723Y-100768589D03*
X119949723Y-100768589D03*
X122489723Y-103308589D03*
X119949723Y-103308589D03*
X122489723Y-105848589D03*
X119949723Y-105848589D03*
X122489723Y-108388589D03*
X119949723Y-108388589D03*
X122489723Y-110928589D03*
X119949723Y-110928589D03*
X122489723Y-113468589D03*
X119949723Y-113468589D03*
X122489723Y-116008589D03*
X119949723Y-116008589D03*
X122489723Y-118548589D03*
X119949723Y-118548589D03*
X122489723Y-121088589D03*
X119949723Y-121088589D03*
X122489723Y-123628589D03*
X119949723Y-123628589D03*
X122489723Y-126168589D03*
X119949723Y-126168589D03*
X122489723Y-128708589D03*
X119949723Y-128708589D03*
X122489723Y-131248589D03*
X119949723Y-131248589D03*
X122489723Y-133788589D03*
X119949723Y-133788589D03*
X122489723Y-136328589D03*
X119949723Y-136328589D03*
X122489723Y-138868589D03*
X119949723Y-138868589D03*
%TD*%
D10*
%TO.C,J2*%
X128438723Y-56480001D03*
D11*
X128438723Y-59020001D03*
X128438723Y-61560000D03*
X128438723Y-64100001D03*
X128438723Y-66640001D03*
X128438723Y-69180001D03*
X128438723Y-71720001D03*
X128438723Y-74260002D03*
X128438723Y-76800001D03*
X128438723Y-79340001D03*
X128438723Y-81880001D03*
X128438723Y-84420000D03*
X128438723Y-86960001D03*
X128438723Y-89500001D03*
X128438723Y-92040001D03*
X128438723Y-94580000D03*
X128438723Y-97120002D03*
X128438723Y-99660001D03*
X128438723Y-102200001D03*
X128438723Y-104740001D03*
X128438723Y-107280000D03*
X128438723Y-109820001D03*
X128438723Y-112360001D03*
X128438723Y-114900001D03*
X128438723Y-117440000D03*
X128438723Y-119980002D03*
X128438723Y-122520001D03*
X128438723Y-125060001D03*
X128438723Y-127600001D03*
X128438723Y-130140002D03*
%TD*%
M02*
