%TF.GenerationSoftware,KiCad,Pcbnew,9.0.4*%
%TF.CreationDate,2025-12-21T12:46:40-05:00*%
%TF.ProjectId,Mess-Breakout+Perf,4d657373-2d42-4726-9561-6b6f75742b50,rev?*%
%TF.SameCoordinates,Original*%
%TF.FileFunction,Copper,L1,Top*%
%TF.FilePolarity,Positive*%
%FSLAX46Y46*%
G04 Gerber Fmt 4.6, Leading zero omitted, Abs format (unit mm)*
G04 Created by KiCad (PCBNEW 9.0.4) date 2025-12-21 12:46:40*
%MOMM*%
%LPD*%
G01*
G04 APERTURE LIST*
G04 Aperture macros list*
%AMFreePoly0*
4,1,23,0.450000,-0.550000,-0.100000,-0.550000,-0.100000,-0.547433,-0.139158,-0.547433,-0.214805,-0.527164,-0.282628,-0.488006,-0.338006,-0.432628,-0.377164,-0.364805,-0.397433,-0.289158,-0.397433,-0.250000,-0.400000,-0.250000,-0.400000,0.250000,-0.397433,0.250000,-0.397433,0.289158,-0.377164,0.364805,-0.338006,0.432628,-0.282628,0.488006,-0.214805,0.527164,-0.139158,0.547433,-0.100000,0.547433,
-0.100000,0.550000,0.450000,0.550000,0.450000,-0.550000,0.450000,-0.550000,$1*%
%AMFreePoly1*
4,1,23,0.100000,0.547433,0.139158,0.547433,0.214805,0.527164,0.282628,0.488006,0.338006,0.432628,0.377164,0.364805,0.397433,0.289158,0.397433,0.250000,0.400000,0.250000,0.400000,-0.250000,0.397433,-0.250000,0.397433,-0.289158,0.377164,-0.364805,0.338006,-0.432628,0.282628,-0.488006,0.214805,-0.527164,0.139158,-0.547433,0.100000,-0.547433,0.100000,-0.550000,-0.450000,-0.550000,
-0.450000,0.550000,0.100000,0.550000,0.100000,0.547433,0.100000,0.547433,$1*%
G04 Aperture macros list end*
%TA.AperFunction,SMDPad,CuDef*%
%ADD10R,7.100000X0.900000*%
%TD*%
%TA.AperFunction,SMDPad,CuDef*%
%ADD11FreePoly0,270.000000*%
%TD*%
%TA.AperFunction,SMDPad,CuDef*%
%ADD12FreePoly1,90.000000*%
%TD*%
%TA.AperFunction,SMDPad,CuDef*%
%ADD13R,1.100000X0.750000*%
%TD*%
%TA.AperFunction,ComponentPad*%
%ADD14R,1.700000X1.700000*%
%TD*%
%TA.AperFunction,ComponentPad*%
%ADD15C,1.700000*%
%TD*%
%TA.AperFunction,ViaPad*%
%ADD16C,0.600000*%
%TD*%
%TA.AperFunction,Conductor*%
%ADD17C,0.500000*%
%TD*%
%TA.AperFunction,Conductor*%
%ADD18C,0.800000*%
%TD*%
%TA.AperFunction,Conductor*%
%ADD19C,1.000000*%
%TD*%
%TA.AperFunction,Conductor*%
%ADD20C,0.400000*%
%TD*%
G04 APERTURE END LIST*
D10*
%TO.P,P63,0,C*%
%TO.N,P3*%
X97837900Y-45050000D03*
D11*
%TO.P,P63,1,B*%
%TO.N,/JA1*%
X94837900Y-44000000D03*
D12*
%TO.P,P63,2,B*%
%TO.N,/JA2*%
X96837900Y-43999999D03*
D11*
%TO.P,P63,3,B*%
%TO.N,/JA3*%
X98837900Y-44000000D03*
D12*
%TO.P,P63,4,B*%
%TO.N,/JA4*%
X100837900Y-44000000D03*
%TD*%
D10*
%TO.P,P82,0,C*%
%TO.N,P22*%
X108137900Y-116350000D03*
D13*
X105137900Y-116100000D03*
X107137900Y-116100000D03*
X109137900Y-116100000D03*
X111137900Y-116100000D03*
D11*
%TO.P,P82,1,B*%
%TO.N,/JA1*%
X105137900Y-115100001D03*
D12*
%TO.P,P82,2,B*%
%TO.N,/JA2*%
X107137900Y-115100000D03*
D11*
%TO.P,P82,3,B*%
%TO.N,/JA3*%
X109137901Y-115100000D03*
D12*
%TO.P,P82,4,B*%
%TO.N,/JA4*%
X111137900Y-115100000D03*
%TD*%
D10*
%TO.P,P66,0,C*%
%TO.N,P6*%
X108137900Y-53300000D03*
D13*
X105137900Y-53050000D03*
X107137900Y-53050000D03*
X109137900Y-53050000D03*
X111137900Y-53050000D03*
D11*
%TO.P,P66,1,B*%
%TO.N,/JA1*%
X105137900Y-52050001D03*
D12*
%TO.P,P66,2,B*%
%TO.N,/JA2*%
X107137900Y-52050000D03*
D11*
%TO.P,P66,3,B*%
%TO.N,/JA3*%
X109137901Y-52050000D03*
D12*
%TO.P,P66,4,B*%
%TO.N,/JA4*%
X111137900Y-52050000D03*
%TD*%
D10*
%TO.P,P89,0,C*%
%TO.N,P29*%
X97837900Y-135750000D03*
D11*
%TO.P,P89,1,B*%
%TO.N,/JA1*%
X94837900Y-134700000D03*
D12*
%TO.P,P89,2,B*%
%TO.N,/JA2*%
X96837900Y-134699999D03*
D11*
%TO.P,P89,3,B*%
%TO.N,/JA3*%
X98837900Y-134700000D03*
D12*
%TO.P,P89,4,B*%
%TO.N,/JA4*%
X100837900Y-134700000D03*
%TD*%
D10*
%TO.P,P64,0,C*%
%TO.N,P4*%
X108137901Y-45300000D03*
D13*
X105137901Y-45050000D03*
X107137901Y-45050000D03*
X109137901Y-45050000D03*
X111137901Y-45050000D03*
D11*
%TO.P,P64,1,B*%
%TO.N,/JA1*%
X105137901Y-44050001D03*
D12*
%TO.P,P64,2,B*%
%TO.N,/JA2*%
X107137901Y-44050000D03*
D11*
%TO.P,P64,3,B*%
%TO.N,/JA3*%
X109137902Y-44050000D03*
D12*
%TO.P,P64,4,B*%
%TO.N,/JA4*%
X111137901Y-44050000D03*
%TD*%
D10*
%TO.P,P77,0,C*%
%TO.N,P17*%
X108137900Y-96850000D03*
D13*
X105137900Y-96600000D03*
X107137900Y-96600000D03*
X109137900Y-96600000D03*
X111137900Y-96600000D03*
D11*
%TO.P,P77,1,B*%
%TO.N,/JA1*%
X105137900Y-95600001D03*
D12*
%TO.P,P77,2,B*%
%TO.N,/JA2*%
X107137900Y-95600000D03*
D11*
%TO.P,P77,3,B*%
%TO.N,/JA3*%
X109137901Y-95600000D03*
D12*
%TO.P,P77,4,B*%
%TO.N,/JA4*%
X111137900Y-95600000D03*
%TD*%
D10*
%TO.P,P86,0,C*%
%TO.N,P26*%
X108137900Y-132050000D03*
D13*
X105137900Y-131800000D03*
X107137900Y-131800000D03*
X109137900Y-131800000D03*
X111137900Y-131800000D03*
D11*
%TO.P,P86,1,B*%
%TO.N,/JA1*%
X105137900Y-130800001D03*
D12*
%TO.P,P86,2,B*%
%TO.N,/JA2*%
X107137900Y-130800000D03*
D11*
%TO.P,P86,3,B*%
%TO.N,/JA3*%
X109137901Y-130800000D03*
D12*
%TO.P,P86,4,B*%
%TO.N,/JA4*%
X111137900Y-130800000D03*
%TD*%
D10*
%TO.P,P76,0,C*%
%TO.N,P16*%
X108137900Y-92850000D03*
D13*
X105137900Y-92600000D03*
X107137900Y-92600000D03*
X109137900Y-92600000D03*
X111137900Y-92600000D03*
D11*
%TO.P,P76,1,B*%
%TO.N,/JA1*%
X105137900Y-91600001D03*
D12*
%TO.P,P76,2,B*%
%TO.N,/JA2*%
X107137900Y-91600000D03*
D11*
%TO.P,P76,3,B*%
%TO.N,/JA3*%
X109137901Y-91600000D03*
D12*
%TO.P,P76,4,B*%
%TO.N,/JA4*%
X111137900Y-91600000D03*
%TD*%
D10*
%TO.P,P83,0,C*%
%TO.N,P23*%
X108137901Y-120350000D03*
D13*
X105137901Y-120100000D03*
X107137901Y-120100000D03*
X109137901Y-120100000D03*
X111137901Y-120100000D03*
D11*
%TO.P,P83,1,B*%
%TO.N,/JA1*%
X105137901Y-119100001D03*
D12*
%TO.P,P83,2,B*%
%TO.N,/JA2*%
X107137901Y-119100000D03*
D11*
%TO.P,P83,3,B*%
%TO.N,/JA3*%
X109137902Y-119100000D03*
D12*
%TO.P,P83,4,B*%
%TO.N,/JA4*%
X111137901Y-119100000D03*
%TD*%
D10*
%TO.P,P79,0,C*%
%TO.N,P19*%
X108137900Y-104650000D03*
D13*
X105137900Y-104400000D03*
X107137900Y-104400000D03*
X109137900Y-104400000D03*
X111137900Y-104400000D03*
D11*
%TO.P,P79,1,B*%
%TO.N,/JA1*%
X105137900Y-103400001D03*
D12*
%TO.P,P79,2,B*%
%TO.N,/JA2*%
X107137900Y-103400000D03*
D11*
%TO.P,P79,3,B*%
%TO.N,/JA3*%
X109137901Y-103400000D03*
D12*
%TO.P,P79,4,B*%
%TO.N,/JA4*%
X111137900Y-103400000D03*
%TD*%
D10*
%TO.P,P74,0,C*%
%TO.N,P14*%
X108137901Y-84950000D03*
D13*
X105137901Y-84700000D03*
X107137901Y-84700000D03*
X109137901Y-84700000D03*
X111137901Y-84700000D03*
D11*
%TO.P,P74,1,B*%
%TO.N,/JA1*%
X105137901Y-83700001D03*
D12*
%TO.P,P74,2,B*%
%TO.N,/JA2*%
X107137901Y-83700000D03*
D11*
%TO.P,P74,3,B*%
%TO.N,/JA3*%
X109137902Y-83700000D03*
D12*
%TO.P,P74,4,B*%
%TO.N,/JA4*%
X111137901Y-83700000D03*
%TD*%
D10*
%TO.P,P69,0,C*%
%TO.N,P9*%
X108137900Y-65300000D03*
D13*
X105137900Y-65050000D03*
X107137900Y-65050000D03*
X109137900Y-65050000D03*
X111137900Y-65050000D03*
D11*
%TO.P,P69,1,B*%
%TO.N,/JA1*%
X105137900Y-64050001D03*
D12*
%TO.P,P69,2,B*%
%TO.N,/JA2*%
X107137900Y-64050000D03*
D11*
%TO.P,P69,3,B*%
%TO.N,/JA3*%
X109137901Y-64050000D03*
D12*
%TO.P,P69,4,B*%
%TO.N,/JA4*%
X111137900Y-64050000D03*
%TD*%
D10*
%TO.P,P67,0,C*%
%TO.N,P7*%
X108137900Y-57300000D03*
D13*
X105137900Y-57050000D03*
X107137900Y-57050000D03*
X109137900Y-57050000D03*
X111137900Y-57050000D03*
D11*
%TO.P,P67,1,B*%
%TO.N,/JA1*%
X105137900Y-56050001D03*
D12*
%TO.P,P67,2,B*%
%TO.N,/JA2*%
X107137900Y-56050000D03*
D11*
%TO.P,P67,3,B*%
%TO.N,/JA3*%
X109137901Y-56050000D03*
D12*
%TO.P,P67,4,B*%
%TO.N,/JA4*%
X111137900Y-56050000D03*
%TD*%
D10*
%TO.P,P71,0,C*%
%TO.N,P11*%
X108137900Y-73200001D03*
D13*
X105137900Y-72950001D03*
X107137900Y-72950001D03*
X109137900Y-72950001D03*
X111137900Y-72950001D03*
D11*
%TO.P,P71,1,B*%
%TO.N,/JA1*%
X105137900Y-71950002D03*
D12*
%TO.P,P71,2,B*%
%TO.N,/JA2*%
X107137900Y-71950001D03*
D11*
%TO.P,P71,3,B*%
%TO.N,/JA3*%
X109137901Y-71950001D03*
D12*
%TO.P,P71,4,B*%
%TO.N,/JA4*%
X111137900Y-71950001D03*
%TD*%
D14*
%TO.P,J11,1,Pin_1*%
%TO.N,/B1*%
X89489723Y-44888589D03*
D15*
%TO.P,J11,2,Pin_2*%
X86949723Y-44888589D03*
%TO.P,J11,3,Pin_3*%
%TO.N,/B2*%
X89489723Y-47428589D03*
%TO.P,J11,4,Pin_4*%
X86949723Y-47428589D03*
%TO.P,J11,5,Pin_5*%
%TO.N,/B3*%
X89489723Y-49968589D03*
%TO.P,J11,6,Pin_6*%
X86949723Y-49968589D03*
%TO.P,J11,7,Pin_7*%
%TO.N,/B4*%
X89489723Y-52508589D03*
%TO.P,J11,8,Pin_8*%
X86949723Y-52508589D03*
%TO.P,J11,9,Pin_9*%
%TO.N,/B5*%
X89489723Y-55048589D03*
%TO.P,J11,10,Pin_10*%
X86949723Y-55048589D03*
%TO.P,J11,11,Pin_11*%
%TO.N,/B6*%
X89489723Y-57588589D03*
%TO.P,J11,12,Pin_12*%
X86949723Y-57588589D03*
%TO.P,J11,13,Pin_13*%
%TO.N,/B7*%
X89489723Y-60128589D03*
%TO.P,J11,14,Pin_14*%
X86949723Y-60128589D03*
%TO.P,J11,15,Pin_15*%
%TO.N,/B8*%
X89489723Y-62668589D03*
%TO.P,J11,16,Pin_16*%
X86949723Y-62668589D03*
%TO.P,J11,17,Pin_17*%
%TO.N,/B9*%
X89489723Y-65208589D03*
%TO.P,J11,18,Pin_18*%
X86949723Y-65208589D03*
%TO.P,J11,19,Pin_19*%
%TO.N,/B10*%
X89489723Y-67748589D03*
%TO.P,J11,20,Pin_20*%
X86949723Y-67748589D03*
%TO.P,J11,21,Pin_21*%
%TO.N,/B11*%
X89489723Y-70288589D03*
%TO.P,J11,22,Pin_22*%
X86949723Y-70288589D03*
%TO.P,J11,23,Pin_23*%
%TO.N,/B12*%
X89489723Y-72828589D03*
%TO.P,J11,24,Pin_24*%
X86949723Y-72828589D03*
%TO.P,J11,25,Pin_25*%
%TO.N,/B13*%
X89489723Y-75368589D03*
%TO.P,J11,26,Pin_26*%
X86949723Y-75368589D03*
%TO.P,J11,27,Pin_27*%
%TO.N,/B14*%
X89489723Y-77908589D03*
%TO.P,J11,28,Pin_28*%
X86949723Y-77908589D03*
%TO.P,J11,29,Pin_29*%
%TO.N,/B15*%
X89489723Y-80448589D03*
%TO.P,J11,30,Pin_30*%
X86949723Y-80448589D03*
%TO.P,J11,31,Pin_31*%
%TO.N,/B16*%
X89489723Y-82988589D03*
%TO.P,J11,32,Pin_32*%
X86949723Y-82988589D03*
%TO.P,J11,33,Pin_33*%
%TO.N,/B17*%
X89489723Y-85528589D03*
%TO.P,J11,34,Pin_34*%
X86949723Y-85528589D03*
%TO.P,J11,35,Pin_35*%
%TO.N,/B18*%
X89489723Y-88068589D03*
%TO.P,J11,36,Pin_36*%
X86949723Y-88068589D03*
%TO.P,J11,37,Pin_37*%
%TO.N,/B19*%
X89489723Y-90608589D03*
%TO.P,J11,38,Pin_38*%
X86949723Y-90608589D03*
%TO.P,J11,39,Pin_39*%
%TO.N,/B20*%
X89489723Y-93148589D03*
%TO.P,J11,40,Pin_40*%
X86949723Y-93148589D03*
%TO.P,J11,41,Pin_41*%
%TO.N,/B21*%
X89489723Y-95688589D03*
%TO.P,J11,42,Pin_42*%
X86949723Y-95688589D03*
%TO.P,J11,43,Pin_43*%
%TO.N,/B22*%
X89489723Y-98228589D03*
%TO.P,J11,44,Pin_44*%
X86949723Y-98228589D03*
%TO.P,J11,45,Pin_45*%
%TO.N,/B23*%
X89489723Y-100768589D03*
%TO.P,J11,46,Pin_46*%
X86949723Y-100768589D03*
%TO.P,J11,47,Pin_47*%
%TO.N,/B24*%
X89489723Y-103308589D03*
%TO.P,J11,48,Pin_48*%
X86949723Y-103308589D03*
%TO.P,J11,49,Pin_49*%
%TO.N,/B25*%
X89489723Y-105848589D03*
%TO.P,J11,50,Pin_50*%
X86949723Y-105848589D03*
%TO.P,J11,51,Pin_51*%
%TO.N,/B26*%
X89489723Y-108388589D03*
%TO.P,J11,52,Pin_52*%
X86949723Y-108388589D03*
%TO.P,J11,53,Pin_53*%
%TO.N,/B27*%
X89489723Y-110928589D03*
%TO.P,J11,54,Pin_54*%
X86949723Y-110928589D03*
%TO.P,J11,55,Pin_55*%
%TO.N,/B28*%
X89489723Y-113468589D03*
%TO.P,J11,56,Pin_56*%
X86949723Y-113468589D03*
%TO.P,J11,57,Pin_57*%
%TO.N,/B29*%
X89489723Y-116008589D03*
%TO.P,J11,58,Pin_58*%
X86949723Y-116008589D03*
%TO.P,J11,59,Pin_59*%
%TO.N,/B30*%
X89489723Y-118548589D03*
%TO.P,J11,60,Pin_60*%
X86949723Y-118548589D03*
%TO.P,J11,61,Pin_61*%
%TO.N,/B31*%
X89489723Y-121088589D03*
%TO.P,J11,62,Pin_62*%
X86949723Y-121088589D03*
%TO.P,J11,63,Pin_63*%
%TO.N,/B32*%
X89489723Y-123628589D03*
%TO.P,J11,64,Pin_64*%
X86949723Y-123628589D03*
%TO.P,J11,65,Pin_65*%
%TO.N,/B33*%
X89489723Y-126168589D03*
%TO.P,J11,66,Pin_66*%
X86949723Y-126168589D03*
%TO.P,J11,67,Pin_67*%
%TO.N,/B34*%
X89489723Y-128708589D03*
%TO.P,J11,68,Pin_68*%
X86949723Y-128708589D03*
%TO.P,J11,69,Pin_69*%
%TO.N,/B35*%
X89489723Y-131248589D03*
%TO.P,J11,70,Pin_70*%
X86949723Y-131248589D03*
%TO.P,J11,71,Pin_71*%
%TO.N,/B36*%
X89489723Y-133788589D03*
%TO.P,J11,72,Pin_72*%
X86949723Y-133788589D03*
%TO.P,J11,73,Pin_73*%
%TO.N,/B37*%
X89489723Y-136328589D03*
%TO.P,J11,74,Pin_74*%
X86949723Y-136328589D03*
%TO.P,J11,75,Pin_75*%
%TO.N,/B38*%
X89489723Y-138868589D03*
%TO.P,J11,76,Pin_76*%
X86949723Y-138868589D03*
%TD*%
D14*
%TO.P,J12,1,Pin_1*%
%TO.N,/B1*%
X82949723Y-44888589D03*
D15*
%TO.P,J12,2,Pin_2*%
%TO.N,/B2*%
X82949723Y-47428589D03*
%TO.P,J12,3,Pin_3*%
%TO.N,/B3*%
X82949723Y-49968589D03*
%TO.P,J12,4,Pin_4*%
%TO.N,/B4*%
X82949723Y-52508589D03*
%TO.P,J12,5,Pin_5*%
%TO.N,/B5*%
X82949723Y-55048589D03*
%TO.P,J12,6,Pin_6*%
%TO.N,/B6*%
X82949723Y-57588589D03*
%TO.P,J12,7,Pin_7*%
%TO.N,/B7*%
X82949723Y-60128589D03*
%TO.P,J12,8,Pin_8*%
%TO.N,/B8*%
X82949723Y-62668589D03*
%TO.P,J12,9,Pin_9*%
%TO.N,/B9*%
X82949723Y-65208589D03*
%TO.P,J12,10,Pin_10*%
%TO.N,/B10*%
X82949723Y-67748589D03*
%TO.P,J12,11,Pin_11*%
%TO.N,/B11*%
X82949723Y-70288589D03*
%TO.P,J12,12,Pin_12*%
%TO.N,/B12*%
X82949723Y-72828589D03*
%TO.P,J12,13,Pin_13*%
%TO.N,/B13*%
X82949723Y-75368589D03*
%TO.P,J12,14,Pin_14*%
%TO.N,/B14*%
X82949723Y-77908589D03*
%TO.P,J12,15,Pin_15*%
%TO.N,/B15*%
X82949723Y-80448589D03*
%TO.P,J12,16,Pin_16*%
%TO.N,/B16*%
X82949723Y-82988589D03*
%TO.P,J12,17,Pin_17*%
%TO.N,/B17*%
X82949723Y-85528589D03*
%TO.P,J12,18,Pin_18*%
%TO.N,/B18*%
X82949723Y-88068589D03*
%TO.P,J12,19,Pin_19*%
%TO.N,/B19*%
X82949723Y-90608589D03*
%TO.P,J12,20,Pin_20*%
%TO.N,/B20*%
X82949723Y-93148589D03*
%TO.P,J12,21,Pin_21*%
%TO.N,/B21*%
X82949723Y-95688589D03*
%TO.P,J12,22,Pin_22*%
%TO.N,/B22*%
X82949723Y-98228589D03*
%TO.P,J12,23,Pin_23*%
%TO.N,/B23*%
X82949723Y-100768589D03*
%TO.P,J12,24,Pin_24*%
%TO.N,/B24*%
X82949723Y-103308589D03*
%TO.P,J12,25,Pin_25*%
%TO.N,/B25*%
X82949723Y-105848589D03*
%TO.P,J12,26,Pin_26*%
%TO.N,/B26*%
X82949723Y-108388589D03*
%TO.P,J12,27,Pin_27*%
%TO.N,/B27*%
X82949723Y-110928589D03*
%TO.P,J12,28,Pin_28*%
%TO.N,/B28*%
X82949723Y-113468589D03*
%TO.P,J12,29,Pin_29*%
%TO.N,/B29*%
X82949723Y-116008589D03*
%TO.P,J12,30,Pin_30*%
%TO.N,/B30*%
X82949723Y-118548589D03*
%TO.P,J12,31,Pin_31*%
%TO.N,/B31*%
X82949723Y-121088589D03*
%TO.P,J12,32,Pin_32*%
%TO.N,/B32*%
X82949723Y-123628589D03*
%TO.P,J12,33,Pin_33*%
%TO.N,/B33*%
X82949723Y-126168589D03*
%TO.P,J12,34,Pin_34*%
%TO.N,/B34*%
X82949723Y-128708589D03*
%TO.P,J12,35,Pin_35*%
%TO.N,/B35*%
X82949723Y-131248589D03*
%TO.P,J12,36,Pin_36*%
%TO.N,/B36*%
X82949723Y-133788589D03*
%TO.P,J12,37,Pin_37*%
%TO.N,/B37*%
X82949723Y-136328589D03*
%TO.P,J12,38,Pin_38*%
%TO.N,/B38*%
X82949723Y-138868589D03*
%TD*%
D10*
%TO.P,P65,0,C*%
%TO.N,P5*%
X108137900Y-49300001D03*
D13*
X105137900Y-49050001D03*
X107137900Y-49050001D03*
X109137900Y-49050001D03*
X111137900Y-49050001D03*
D11*
%TO.P,P65,1,B*%
%TO.N,/JA1*%
X105137900Y-48050002D03*
D12*
%TO.P,P65,2,B*%
%TO.N,/JA2*%
X107137900Y-48050001D03*
D11*
%TO.P,P65,3,B*%
%TO.N,/JA3*%
X109137901Y-48050001D03*
D12*
%TO.P,P65,4,B*%
%TO.N,/JA4*%
X111137900Y-48050001D03*
%TD*%
D10*
%TO.P,P73,0,C*%
%TO.N,P13*%
X108137900Y-81050000D03*
D13*
X105137900Y-80800000D03*
X107137900Y-80800000D03*
X109137900Y-80800000D03*
X111137900Y-80800000D03*
D11*
%TO.P,P73,1,B*%
%TO.N,/JA1*%
X105137900Y-79800001D03*
D12*
%TO.P,P73,2,B*%
%TO.N,/JA2*%
X107137900Y-79800000D03*
D11*
%TO.P,P73,3,B*%
%TO.N,/JA3*%
X109137901Y-79800000D03*
D12*
%TO.P,P73,4,B*%
%TO.N,/JA4*%
X111137900Y-79800000D03*
%TD*%
D10*
%TO.P,P62,0,C*%
%TO.N,P2*%
X97837900Y-49135000D03*
D11*
%TO.P,P62,1,B*%
%TO.N,/JA1*%
X94837900Y-48085000D03*
D12*
%TO.P,P62,2,B*%
%TO.N,/JA2*%
X96837900Y-48084999D03*
D11*
%TO.P,P62,3,B*%
%TO.N,/JA3*%
X98837900Y-48085000D03*
D12*
%TO.P,P62,4,B*%
%TO.N,/JA4*%
X100837900Y-48085000D03*
%TD*%
D10*
%TO.P,P75,0,C*%
%TO.N,P15*%
X108137900Y-88950001D03*
D13*
X105137900Y-88700001D03*
X107137900Y-88700001D03*
X109137900Y-88700001D03*
X111137900Y-88700001D03*
D11*
%TO.P,P75,1,B*%
%TO.N,/JA1*%
X105137900Y-87700002D03*
D12*
%TO.P,P75,2,B*%
%TO.N,/JA2*%
X107137900Y-87700001D03*
D11*
%TO.P,P75,3,B*%
%TO.N,/JA3*%
X109137901Y-87700001D03*
D12*
%TO.P,P75,4,B*%
%TO.N,/JA4*%
X111137900Y-87700001D03*
%TD*%
D10*
%TO.P,P90,0,C*%
%TO.N,P30*%
X97862899Y-139650001D03*
D11*
%TO.P,P90,1,B*%
%TO.N,/JA1*%
X94862899Y-138600001D03*
D12*
%TO.P,P90,2,B*%
%TO.N,/JA2*%
X96862899Y-138600000D03*
D11*
%TO.P,P90,3,B*%
%TO.N,/JA3*%
X98862899Y-138600001D03*
D12*
%TO.P,P90,4,B*%
%TO.N,/JA4*%
X100862899Y-138600001D03*
%TD*%
D10*
%TO.P,P72,0,C*%
%TO.N,P12*%
X108137900Y-77200000D03*
D13*
X105137900Y-76950000D03*
X107137900Y-76950000D03*
X109137900Y-76950000D03*
X111137900Y-76950000D03*
D11*
%TO.P,P72,1,B*%
%TO.N,/JA1*%
X105137900Y-75950001D03*
D12*
%TO.P,P72,2,B*%
%TO.N,/JA2*%
X107137900Y-75950000D03*
D11*
%TO.P,P72,3,B*%
%TO.N,/JA3*%
X109137901Y-75950000D03*
D12*
%TO.P,P72,4,B*%
%TO.N,/JA4*%
X111137900Y-75950000D03*
%TD*%
D10*
%TO.P,P78,0,C*%
%TO.N,P18*%
X108137901Y-100750000D03*
D13*
X105137901Y-100500000D03*
X107137901Y-100500000D03*
X109137901Y-100500000D03*
X111137901Y-100500000D03*
D11*
%TO.P,P78,1,B*%
%TO.N,/JA1*%
X105137901Y-99500001D03*
D12*
%TO.P,P78,2,B*%
%TO.N,/JA2*%
X107137901Y-99500000D03*
D11*
%TO.P,P78,3,B*%
%TO.N,/JA3*%
X109137902Y-99500000D03*
D12*
%TO.P,P78,4,B*%
%TO.N,/JA4*%
X111137901Y-99500000D03*
%TD*%
D10*
%TO.P,P68,0,C*%
%TO.N,P8*%
X108137900Y-61300000D03*
D13*
X105137900Y-61050000D03*
X107137900Y-61050000D03*
X109137900Y-61050000D03*
X111137900Y-61050000D03*
D11*
%TO.P,P68,1,B*%
%TO.N,/JA1*%
X105137900Y-60050001D03*
D12*
%TO.P,P68,2,B*%
%TO.N,/JA2*%
X107137900Y-60050000D03*
D11*
%TO.P,P68,3,B*%
%TO.N,/JA3*%
X109137901Y-60050000D03*
D12*
%TO.P,P68,4,B*%
%TO.N,/JA4*%
X111137900Y-60050000D03*
%TD*%
D10*
%TO.P,P84,0,C*%
%TO.N,P24*%
X108137900Y-124250000D03*
D13*
X105137900Y-124000000D03*
X107137900Y-124000000D03*
X109137900Y-124000000D03*
X111137900Y-124000000D03*
D11*
%TO.P,P84,1,B*%
%TO.N,/JA1*%
X105137900Y-123000001D03*
D12*
%TO.P,P84,2,B*%
%TO.N,/JA2*%
X107137900Y-123000000D03*
D11*
%TO.P,P84,3,B*%
%TO.N,/JA3*%
X109137901Y-123000000D03*
D12*
%TO.P,P84,4,B*%
%TO.N,/JA4*%
X111137900Y-123000000D03*
%TD*%
D10*
%TO.P,P80,0,C*%
%TO.N,P20*%
X108137901Y-108550000D03*
D13*
X105137901Y-108300000D03*
X107137901Y-108300000D03*
X109137901Y-108300000D03*
X111137901Y-108300000D03*
D11*
%TO.P,P80,1,B*%
%TO.N,/JA1*%
X105137901Y-107300001D03*
D12*
%TO.P,P80,2,B*%
%TO.N,/JA2*%
X107137901Y-107300000D03*
D11*
%TO.P,P80,3,B*%
%TO.N,/JA3*%
X109137902Y-107300000D03*
D12*
%TO.P,P80,4,B*%
%TO.N,/JA4*%
X111137901Y-107300000D03*
%TD*%
D10*
%TO.P,P88,0,C*%
%TO.N,P28*%
X108137900Y-139950000D03*
D13*
X105137900Y-139700000D03*
X107137900Y-139700000D03*
X109137900Y-139700000D03*
X111137900Y-139700000D03*
D11*
%TO.P,P88,1,B*%
%TO.N,/JA1*%
X105137900Y-138700001D03*
D12*
%TO.P,P88,2,B*%
%TO.N,/JA2*%
X107137900Y-138700000D03*
D11*
%TO.P,P88,3,B*%
%TO.N,/JA3*%
X109137901Y-138700000D03*
D12*
%TO.P,P88,4,B*%
%TO.N,/JA4*%
X111137900Y-138700000D03*
%TD*%
D10*
%TO.P,P61,0,C*%
%TO.N,P1*%
X97837900Y-53100000D03*
D11*
%TO.P,P61,1,B*%
%TO.N,/JA1*%
X94837900Y-52050000D03*
D12*
%TO.P,P61,2,B*%
%TO.N,/JA2*%
X96837900Y-52049999D03*
D11*
%TO.P,P61,3,B*%
%TO.N,/JA3*%
X98837900Y-52050000D03*
D12*
%TO.P,P61,4,B*%
%TO.N,/JA4*%
X100837900Y-52050000D03*
%TD*%
D10*
%TO.P,P81,0,C*%
%TO.N,P21*%
X108137900Y-112450000D03*
D13*
X105137900Y-112200000D03*
X107137900Y-112200000D03*
X109137900Y-112200000D03*
X111137900Y-112200000D03*
D11*
%TO.P,P81,1,B*%
%TO.N,/JA1*%
X105137900Y-111200001D03*
D12*
%TO.P,P81,2,B*%
%TO.N,/JA2*%
X107137900Y-111200000D03*
D11*
%TO.P,P81,3,B*%
%TO.N,/JA3*%
X109137901Y-111200000D03*
D12*
%TO.P,P81,4,B*%
%TO.N,/JA4*%
X111137900Y-111200000D03*
%TD*%
D10*
%TO.P,P70,0,C*%
%TO.N,P10*%
X108137900Y-69300000D03*
D13*
X105137900Y-69050000D03*
X107137900Y-69050000D03*
X109137900Y-69050000D03*
X111137900Y-69050000D03*
D11*
%TO.P,P70,1,B*%
%TO.N,/JA1*%
X105137900Y-68050001D03*
D12*
%TO.P,P70,2,B*%
%TO.N,/JA2*%
X107137900Y-68050000D03*
D11*
%TO.P,P70,3,B*%
%TO.N,/JA3*%
X109137901Y-68050000D03*
D12*
%TO.P,P70,4,B*%
%TO.N,/JA4*%
X111137900Y-68050000D03*
%TD*%
D10*
%TO.P,P85,0,C*%
%TO.N,P25*%
X108137900Y-128150000D03*
D13*
X105137900Y-127900000D03*
X107137900Y-127900000D03*
X109137900Y-127900000D03*
X111137900Y-127900000D03*
D11*
%TO.P,P85,1,B*%
%TO.N,/JA1*%
X105137900Y-126900001D03*
D12*
%TO.P,P85,2,B*%
%TO.N,/JA2*%
X107137900Y-126900000D03*
D11*
%TO.P,P85,3,B*%
%TO.N,/JA3*%
X109137901Y-126900000D03*
D12*
%TO.P,P85,4,B*%
%TO.N,/JA4*%
X111137900Y-126900000D03*
%TD*%
D10*
%TO.P,P87,0,C*%
%TO.N,P27*%
X108137900Y-136050000D03*
D13*
X105137900Y-135800000D03*
X107137900Y-135800000D03*
X109137900Y-135800000D03*
X111137900Y-135800000D03*
D11*
%TO.P,P87,1,B*%
%TO.N,/JA1*%
X105137900Y-134800001D03*
D12*
%TO.P,P87,2,B*%
%TO.N,/JA2*%
X107137900Y-134800000D03*
D11*
%TO.P,P87,3,B*%
%TO.N,/JA3*%
X109137901Y-134800000D03*
D12*
%TO.P,P87,4,B*%
%TO.N,/JA4*%
X111137900Y-134800000D03*
%TD*%
D14*
%TO.P,J10,1,Pin_1*%
%TO.N,P1*%
X95438723Y-56480001D03*
D15*
%TO.P,J10,2,Pin_2*%
%TO.N,P2*%
X95438723Y-59020001D03*
%TO.P,J10,3,Pin_3*%
%TO.N,P3*%
X95438723Y-61560000D03*
%TO.P,J10,4,Pin_4*%
%TO.N,P4*%
X95438723Y-64100001D03*
%TO.P,J10,5,Pin_5*%
%TO.N,P5*%
X95438723Y-66640001D03*
%TO.P,J10,6,Pin_6*%
%TO.N,P6*%
X95438723Y-69180001D03*
%TO.P,J10,7,Pin_7*%
%TO.N,P7*%
X95438723Y-71720001D03*
%TO.P,J10,8,Pin_8*%
%TO.N,P8*%
X95438723Y-74260002D03*
%TO.P,J10,9,Pin_9*%
%TO.N,P9*%
X95438723Y-76800001D03*
%TO.P,J10,10,Pin_10*%
%TO.N,P10*%
X95438723Y-79340001D03*
%TO.P,J10,11,Pin_11*%
%TO.N,P11*%
X95438723Y-81880001D03*
%TO.P,J10,12,Pin_12*%
%TO.N,P12*%
X95438723Y-84420000D03*
%TO.P,J10,13,Pin_13*%
%TO.N,P13*%
X95438723Y-86960001D03*
%TO.P,J10,14,Pin_14*%
%TO.N,P14*%
X95438723Y-89500001D03*
%TO.P,J10,15,Pin_15*%
%TO.N,P15*%
X95438723Y-92040001D03*
%TO.P,J10,16,Pin_16*%
%TO.N,P16*%
X95438723Y-94580000D03*
%TO.P,J10,17,Pin_17*%
%TO.N,P17*%
X95438723Y-97120002D03*
%TO.P,J10,18,Pin_18*%
%TO.N,P18*%
X95438723Y-99660001D03*
%TO.P,J10,19,Pin_19*%
%TO.N,P19*%
X95438723Y-102200001D03*
%TO.P,J10,20,Pin_20*%
%TO.N,P20*%
X95438723Y-104740001D03*
%TO.P,J10,21,Pin_21*%
%TO.N,P21*%
X95438723Y-107280000D03*
%TO.P,J10,22,Pin_22*%
%TO.N,P22*%
X95438723Y-109820001D03*
%TO.P,J10,23,Pin_23*%
%TO.N,P23*%
X95438723Y-112360001D03*
%TO.P,J10,24,Pin_24*%
%TO.N,P24*%
X95438723Y-114900001D03*
%TO.P,J10,25,Pin_25*%
%TO.N,P25*%
X95438723Y-117440000D03*
%TO.P,J10,26,Pin_26*%
%TO.N,P26*%
X95438723Y-119980002D03*
%TO.P,J10,27,Pin_27*%
%TO.N,P27*%
X95438723Y-122520001D03*
%TO.P,J10,28,Pin_28*%
%TO.N,P28*%
X95438723Y-125060001D03*
%TO.P,J10,29,Pin_29*%
%TO.N,P29*%
X95438723Y-127600001D03*
%TO.P,J10,30,Pin_30*%
%TO.N,P30*%
X95438723Y-130140002D03*
%TD*%
D14*
%TO.P,J13,1,Pin_1*%
%TO.N,P1*%
X100538723Y-56500000D03*
D15*
%TO.P,J13,2,Pin_2*%
X97998723Y-56500000D03*
%TO.P,J13,3,Pin_3*%
%TO.N,P2*%
X100538723Y-59040000D03*
%TO.P,J13,4,Pin_4*%
X97998723Y-59040000D03*
%TO.P,J13,5,Pin_5*%
%TO.N,P3*%
X100538723Y-61579999D03*
%TO.P,J13,6,Pin_6*%
X97998723Y-61580000D03*
%TO.P,J13,7,Pin_7*%
%TO.N,P4*%
X100538723Y-64120000D03*
%TO.P,J13,8,Pin_8*%
X97998723Y-64120000D03*
%TO.P,J13,9,Pin_9*%
%TO.N,P5*%
X100538723Y-66660000D03*
%TO.P,J13,10,Pin_10*%
X97998723Y-66660000D03*
%TO.P,J13,11,Pin_11*%
%TO.N,P6*%
X100538723Y-69200000D03*
%TO.P,J13,12,Pin_12*%
X97998723Y-69200000D03*
%TO.P,J13,13,Pin_13*%
%TO.N,P7*%
X100538723Y-71740000D03*
%TO.P,J13,14,Pin_14*%
X97998723Y-71740000D03*
%TO.P,J13,15,Pin_15*%
%TO.N,P8*%
X100538723Y-74280001D03*
%TO.P,J13,16,Pin_16*%
X97998723Y-74280000D03*
%TO.P,J13,17,Pin_17*%
%TO.N,P9*%
X100538723Y-76820000D03*
%TO.P,J13,18,Pin_18*%
X97998723Y-76820000D03*
%TO.P,J13,19,Pin_19*%
%TO.N,P10*%
X100538723Y-79360000D03*
%TO.P,J13,20,Pin_20*%
X97998723Y-79360000D03*
%TO.P,J13,21,Pin_21*%
%TO.N,P11*%
X100538723Y-81900000D03*
%TO.P,J13,22,Pin_22*%
X97998723Y-81900000D03*
%TO.P,J13,23,Pin_23*%
%TO.N,P12*%
X100538723Y-84439999D03*
%TO.P,J13,24,Pin_24*%
X97998723Y-84440000D03*
%TO.P,J13,25,Pin_25*%
%TO.N,P13*%
X100538723Y-86980000D03*
%TO.P,J13,26,Pin_26*%
X97998723Y-86980000D03*
%TO.P,J13,27,Pin_27*%
%TO.N,P14*%
X100538723Y-89520000D03*
%TO.P,J13,28,Pin_28*%
X97998723Y-89520000D03*
%TO.P,J13,29,Pin_29*%
%TO.N,P15*%
X100538723Y-92060000D03*
%TO.P,J13,30,Pin_30*%
X97998723Y-92060000D03*
%TO.P,J13,31,Pin_31*%
%TO.N,P16*%
X100538723Y-94599999D03*
%TO.P,J13,32,Pin_32*%
X97998723Y-94600000D03*
%TO.P,J13,33,Pin_33*%
%TO.N,P17*%
X100538723Y-97140001D03*
%TO.P,J13,34,Pin_34*%
X97998723Y-97140000D03*
%TO.P,J13,35,Pin_35*%
%TO.N,P18*%
X100538723Y-99680000D03*
%TO.P,J13,36,Pin_36*%
X97998723Y-99680000D03*
%TO.P,J13,37,Pin_37*%
%TO.N,P19*%
X100538723Y-102220000D03*
%TO.P,J13,38,Pin_38*%
X97998723Y-102220000D03*
%TO.P,J13,39,Pin_39*%
%TO.N,P20*%
X100538723Y-104760000D03*
%TO.P,J13,40,Pin_40*%
X97998723Y-104760000D03*
%TO.P,J13,41,Pin_41*%
%TO.N,P21*%
X100538723Y-107299999D03*
%TO.P,J13,42,Pin_42*%
X97998723Y-107300000D03*
%TO.P,J13,43,Pin_43*%
%TO.N,P22*%
X100538723Y-109840000D03*
%TO.P,J13,44,Pin_44*%
X97998723Y-109840000D03*
%TO.P,J13,45,Pin_45*%
%TO.N,P23*%
X100538723Y-112380000D03*
%TO.P,J13,46,Pin_46*%
X97998723Y-112380000D03*
%TO.P,J13,47,Pin_47*%
%TO.N,P24*%
X100538723Y-114920000D03*
%TO.P,J13,48,Pin_48*%
X97998723Y-114920000D03*
%TO.P,J13,49,Pin_49*%
%TO.N,P25*%
X100538723Y-117459999D03*
%TO.P,J13,50,Pin_50*%
X97998723Y-117460000D03*
%TO.P,J13,51,Pin_51*%
%TO.N,P26*%
X100538723Y-120000001D03*
%TO.P,J13,52,Pin_52*%
X97998723Y-120000000D03*
%TO.P,J13,53,Pin_53*%
%TO.N,P27*%
X100538723Y-122540000D03*
%TO.P,J13,54,Pin_54*%
X97998723Y-122540000D03*
%TO.P,J13,55,Pin_55*%
%TO.N,P28*%
X100538723Y-125080000D03*
%TO.P,J13,56,Pin_56*%
X97998723Y-125080000D03*
%TO.P,J13,57,Pin_57*%
%TO.N,P29*%
X100538723Y-127620000D03*
%TO.P,J13,58,Pin_58*%
X97998723Y-127620000D03*
%TO.P,J13,59,Pin_59*%
%TO.N,P30*%
X100538723Y-130160001D03*
%TO.P,J13,60,Pin_60*%
X97998723Y-130160000D03*
%TD*%
D10*
%TO.P,P33,0,C*%
%TO.N,P3*%
X64837900Y-45050000D03*
D11*
%TO.P,P33,1,B*%
%TO.N,/JA1*%
X61837900Y-44000000D03*
D12*
%TO.P,P33,2,B*%
%TO.N,/JA2*%
X63837900Y-43999999D03*
D11*
%TO.P,P33,3,B*%
%TO.N,/JA3*%
X65837900Y-44000000D03*
D12*
%TO.P,P33,4,B*%
%TO.N,/JA4*%
X67837900Y-44000000D03*
%TD*%
D10*
%TO.P,P52,0,C*%
%TO.N,P22*%
X75137900Y-116350000D03*
D13*
X72137900Y-116100000D03*
X74137900Y-116100000D03*
X76137900Y-116100000D03*
X78137900Y-116100000D03*
D11*
%TO.P,P52,1,B*%
%TO.N,/JA1*%
X72137900Y-115100001D03*
D12*
%TO.P,P52,2,B*%
%TO.N,/JA2*%
X74137900Y-115100000D03*
D11*
%TO.P,P52,3,B*%
%TO.N,/JA3*%
X76137901Y-115100000D03*
D12*
%TO.P,P52,4,B*%
%TO.N,/JA4*%
X78137900Y-115100000D03*
%TD*%
D10*
%TO.P,P59,0,C*%
%TO.N,P29*%
X64837900Y-135750000D03*
D11*
%TO.P,P59,1,B*%
%TO.N,/JA1*%
X61837900Y-134700000D03*
D12*
%TO.P,P59,2,B*%
%TO.N,/JA2*%
X63837900Y-134699999D03*
D11*
%TO.P,P59,3,B*%
%TO.N,/JA3*%
X65837900Y-134700000D03*
D12*
%TO.P,P59,4,B*%
%TO.N,/JA4*%
X67837900Y-134700000D03*
%TD*%
D10*
%TO.P,P34,0,C*%
%TO.N,P4*%
X75137901Y-45300000D03*
D13*
X72137901Y-45050000D03*
X74137901Y-45050000D03*
X76137901Y-45050000D03*
X78137901Y-45050000D03*
D11*
%TO.P,P34,1,B*%
%TO.N,/JA1*%
X72137901Y-44050001D03*
D12*
%TO.P,P34,2,B*%
%TO.N,/JA2*%
X74137901Y-44050000D03*
D11*
%TO.P,P34,3,B*%
%TO.N,/JA3*%
X76137902Y-44050000D03*
D12*
%TO.P,P34,4,B*%
%TO.N,/JA4*%
X78137901Y-44050000D03*
%TD*%
D10*
%TO.P,P50,0,C*%
%TO.N,P20*%
X75137901Y-108550000D03*
D13*
X72137901Y-108300000D03*
X74137901Y-108300000D03*
X76137901Y-108300000D03*
X78137901Y-108300000D03*
D11*
%TO.P,P50,1,B*%
%TO.N,/JA1*%
X72137901Y-107300001D03*
D12*
%TO.P,P50,2,B*%
%TO.N,/JA2*%
X74137901Y-107300000D03*
D11*
%TO.P,P50,3,B*%
%TO.N,/JA3*%
X76137902Y-107300000D03*
D12*
%TO.P,P50,4,B*%
%TO.N,/JA4*%
X78137901Y-107300000D03*
%TD*%
D10*
%TO.P,P56,0,C*%
%TO.N,P26*%
X75137900Y-132050000D03*
D13*
X72137900Y-131800000D03*
X74137900Y-131800000D03*
X76137900Y-131800000D03*
X78137900Y-131800000D03*
D11*
%TO.P,P56,1,B*%
%TO.N,/JA1*%
X72137900Y-130800001D03*
D12*
%TO.P,P56,2,B*%
%TO.N,/JA2*%
X74137900Y-130800000D03*
D11*
%TO.P,P56,3,B*%
%TO.N,/JA3*%
X76137901Y-130800000D03*
D12*
%TO.P,P56,4,B*%
%TO.N,/JA4*%
X78137900Y-130800000D03*
%TD*%
D10*
%TO.P,P51,0,C*%
%TO.N,P21*%
X75137900Y-112450000D03*
D13*
X72137900Y-112200000D03*
X74137900Y-112200000D03*
X76137900Y-112200000D03*
X78137900Y-112200000D03*
D11*
%TO.P,P51,1,B*%
%TO.N,/JA1*%
X72137900Y-111200001D03*
D12*
%TO.P,P51,2,B*%
%TO.N,/JA2*%
X74137900Y-111200000D03*
D11*
%TO.P,P51,3,B*%
%TO.N,/JA3*%
X76137901Y-111200000D03*
D12*
%TO.P,P51,4,B*%
%TO.N,/JA4*%
X78137900Y-111200000D03*
%TD*%
D10*
%TO.P,P46,0,C*%
%TO.N,P16*%
X75137900Y-92850000D03*
D13*
X72137900Y-92600000D03*
X74137900Y-92600000D03*
X76137900Y-92600000D03*
X78137900Y-92600000D03*
D11*
%TO.P,P46,1,B*%
%TO.N,/JA1*%
X72137900Y-91600001D03*
D12*
%TO.P,P46,2,B*%
%TO.N,/JA2*%
X74137900Y-91600000D03*
D11*
%TO.P,P46,3,B*%
%TO.N,/JA3*%
X76137901Y-91600000D03*
D12*
%TO.P,P46,4,B*%
%TO.N,/JA4*%
X78137900Y-91600000D03*
%TD*%
D10*
%TO.P,P57,0,C*%
%TO.N,P27*%
X75137900Y-136050000D03*
D13*
X72137900Y-135800000D03*
X74137900Y-135800000D03*
X76137900Y-135800000D03*
X78137900Y-135800000D03*
D11*
%TO.P,P57,1,B*%
%TO.N,/JA1*%
X72137900Y-134800001D03*
D12*
%TO.P,P57,2,B*%
%TO.N,/JA2*%
X74137900Y-134800000D03*
D11*
%TO.P,P57,3,B*%
%TO.N,/JA3*%
X76137901Y-134800000D03*
D12*
%TO.P,P57,4,B*%
%TO.N,/JA4*%
X78137900Y-134800000D03*
%TD*%
D10*
%TO.P,P49,0,C*%
%TO.N,P19*%
X75137900Y-104650000D03*
D13*
X72137900Y-104400000D03*
X74137900Y-104400000D03*
X76137900Y-104400000D03*
X78137900Y-104400000D03*
D11*
%TO.P,P49,1,B*%
%TO.N,/JA1*%
X72137900Y-103400001D03*
D12*
%TO.P,P49,2,B*%
%TO.N,/JA2*%
X74137900Y-103400000D03*
D11*
%TO.P,P49,3,B*%
%TO.N,/JA3*%
X76137901Y-103400000D03*
D12*
%TO.P,P49,4,B*%
%TO.N,/JA4*%
X78137900Y-103400000D03*
%TD*%
D10*
%TO.P,P45,0,C*%
%TO.N,P15*%
X75137900Y-88950001D03*
D13*
X72137900Y-88700001D03*
X74137900Y-88700001D03*
X76137900Y-88700001D03*
X78137900Y-88700001D03*
D11*
%TO.P,P45,1,B*%
%TO.N,/JA1*%
X72137900Y-87700002D03*
D12*
%TO.P,P45,2,B*%
%TO.N,/JA2*%
X74137900Y-87700001D03*
D11*
%TO.P,P45,3,B*%
%TO.N,/JA3*%
X76137901Y-87700001D03*
D12*
%TO.P,P45,4,B*%
%TO.N,/JA4*%
X78137900Y-87700001D03*
%TD*%
D10*
%TO.P,P47,0,C*%
%TO.N,P17*%
X75137900Y-96850000D03*
D13*
X72137900Y-96600000D03*
X74137900Y-96600000D03*
X76137900Y-96600000D03*
X78137900Y-96600000D03*
D11*
%TO.P,P47,1,B*%
%TO.N,/JA1*%
X72137900Y-95600001D03*
D12*
%TO.P,P47,2,B*%
%TO.N,/JA2*%
X74137900Y-95600000D03*
D11*
%TO.P,P47,3,B*%
%TO.N,/JA3*%
X76137901Y-95600000D03*
D12*
%TO.P,P47,4,B*%
%TO.N,/JA4*%
X78137900Y-95600000D03*
%TD*%
D10*
%TO.P,P37,0,C*%
%TO.N,P7*%
X75137900Y-57300000D03*
D13*
X72137900Y-57050000D03*
X74137900Y-57050000D03*
X76137900Y-57050000D03*
X78137900Y-57050000D03*
D11*
%TO.P,P37,1,B*%
%TO.N,/JA1*%
X72137900Y-56050001D03*
D12*
%TO.P,P37,2,B*%
%TO.N,/JA2*%
X74137900Y-56050000D03*
D11*
%TO.P,P37,3,B*%
%TO.N,/JA3*%
X76137901Y-56050000D03*
D12*
%TO.P,P37,4,B*%
%TO.N,/JA4*%
X78137900Y-56050000D03*
%TD*%
D14*
%TO.P,J8,1,Pin_1*%
%TO.N,/B1*%
X49949723Y-44888589D03*
D15*
%TO.P,J8,2,Pin_2*%
%TO.N,/B2*%
X49949723Y-47428589D03*
%TO.P,J8,3,Pin_3*%
%TO.N,/B3*%
X49949723Y-49968589D03*
%TO.P,J8,4,Pin_4*%
%TO.N,/B4*%
X49949723Y-52508589D03*
%TO.P,J8,5,Pin_5*%
%TO.N,/B5*%
X49949723Y-55048589D03*
%TO.P,J8,6,Pin_6*%
%TO.N,/B6*%
X49949723Y-57588589D03*
%TO.P,J8,7,Pin_7*%
%TO.N,/B7*%
X49949723Y-60128589D03*
%TO.P,J8,8,Pin_8*%
%TO.N,/B8*%
X49949723Y-62668589D03*
%TO.P,J8,9,Pin_9*%
%TO.N,/B9*%
X49949723Y-65208589D03*
%TO.P,J8,10,Pin_10*%
%TO.N,/B10*%
X49949723Y-67748589D03*
%TO.P,J8,11,Pin_11*%
%TO.N,/B11*%
X49949723Y-70288589D03*
%TO.P,J8,12,Pin_12*%
%TO.N,/B12*%
X49949723Y-72828589D03*
%TO.P,J8,13,Pin_13*%
%TO.N,/B13*%
X49949723Y-75368589D03*
%TO.P,J8,14,Pin_14*%
%TO.N,/B14*%
X49949723Y-77908589D03*
%TO.P,J8,15,Pin_15*%
%TO.N,/B15*%
X49949723Y-80448589D03*
%TO.P,J8,16,Pin_16*%
%TO.N,/B16*%
X49949723Y-82988589D03*
%TO.P,J8,17,Pin_17*%
%TO.N,/B17*%
X49949723Y-85528589D03*
%TO.P,J8,18,Pin_18*%
%TO.N,/B18*%
X49949723Y-88068589D03*
%TO.P,J8,19,Pin_19*%
%TO.N,/B19*%
X49949723Y-90608589D03*
%TO.P,J8,20,Pin_20*%
%TO.N,/B20*%
X49949723Y-93148589D03*
%TO.P,J8,21,Pin_21*%
%TO.N,/B21*%
X49949723Y-95688589D03*
%TO.P,J8,22,Pin_22*%
%TO.N,/B22*%
X49949723Y-98228589D03*
%TO.P,J8,23,Pin_23*%
%TO.N,/B23*%
X49949723Y-100768589D03*
%TO.P,J8,24,Pin_24*%
%TO.N,/B24*%
X49949723Y-103308589D03*
%TO.P,J8,25,Pin_25*%
%TO.N,/B25*%
X49949723Y-105848589D03*
%TO.P,J8,26,Pin_26*%
%TO.N,/B26*%
X49949723Y-108388589D03*
%TO.P,J8,27,Pin_27*%
%TO.N,/B27*%
X49949723Y-110928589D03*
%TO.P,J8,28,Pin_28*%
%TO.N,/B28*%
X49949723Y-113468589D03*
%TO.P,J8,29,Pin_29*%
%TO.N,/B29*%
X49949723Y-116008589D03*
%TO.P,J8,30,Pin_30*%
%TO.N,/B30*%
X49949723Y-118548589D03*
%TO.P,J8,31,Pin_31*%
%TO.N,/B31*%
X49949723Y-121088589D03*
%TO.P,J8,32,Pin_32*%
%TO.N,/B32*%
X49949723Y-123628589D03*
%TO.P,J8,33,Pin_33*%
%TO.N,/B33*%
X49949723Y-126168589D03*
%TO.P,J8,34,Pin_34*%
%TO.N,/B34*%
X49949723Y-128708589D03*
%TO.P,J8,35,Pin_35*%
%TO.N,/B35*%
X49949723Y-131248589D03*
%TO.P,J8,36,Pin_36*%
%TO.N,/B36*%
X49949723Y-133788589D03*
%TO.P,J8,37,Pin_37*%
%TO.N,/B37*%
X49949723Y-136328589D03*
%TO.P,J8,38,Pin_38*%
%TO.N,/B38*%
X49949723Y-138868589D03*
%TD*%
D10*
%TO.P,P39,0,C*%
%TO.N,P9*%
X75137900Y-65300000D03*
D13*
X72137900Y-65050000D03*
X74137900Y-65050000D03*
X76137900Y-65050000D03*
X78137900Y-65050000D03*
D11*
%TO.P,P39,1,B*%
%TO.N,/JA1*%
X72137900Y-64050001D03*
D12*
%TO.P,P39,2,B*%
%TO.N,/JA2*%
X74137900Y-64050000D03*
D11*
%TO.P,P39,3,B*%
%TO.N,/JA3*%
X76137901Y-64050000D03*
D12*
%TO.P,P39,4,B*%
%TO.N,/JA4*%
X78137900Y-64050000D03*
%TD*%
D10*
%TO.P,P36,0,C*%
%TO.N,P6*%
X75137900Y-53300000D03*
D13*
X72137900Y-53050000D03*
X74137900Y-53050000D03*
X76137900Y-53050000D03*
X78137900Y-53050000D03*
D11*
%TO.P,P36,1,B*%
%TO.N,/JA1*%
X72137900Y-52050001D03*
D12*
%TO.P,P36,2,B*%
%TO.N,/JA2*%
X74137900Y-52050000D03*
D11*
%TO.P,P36,3,B*%
%TO.N,/JA3*%
X76137901Y-52050000D03*
D12*
%TO.P,P36,4,B*%
%TO.N,/JA4*%
X78137900Y-52050000D03*
%TD*%
D10*
%TO.P,P32,0,C*%
%TO.N,P2*%
X64837900Y-49135000D03*
D11*
%TO.P,P32,1,B*%
%TO.N,/JA1*%
X61837900Y-48085000D03*
D12*
%TO.P,P32,2,B*%
%TO.N,/JA2*%
X63837900Y-48084999D03*
D11*
%TO.P,P32,3,B*%
%TO.N,/JA3*%
X65837900Y-48085000D03*
D12*
%TO.P,P32,4,B*%
%TO.N,/JA4*%
X67837900Y-48085000D03*
%TD*%
D10*
%TO.P,P31,0,C*%
%TO.N,P1*%
X64837900Y-53100000D03*
D11*
%TO.P,P31,1,B*%
%TO.N,/JA1*%
X61837900Y-52050000D03*
D12*
%TO.P,P31,2,B*%
%TO.N,/JA2*%
X63837900Y-52049999D03*
D11*
%TO.P,P31,3,B*%
%TO.N,/JA3*%
X65837900Y-52050000D03*
D12*
%TO.P,P31,4,B*%
%TO.N,/JA4*%
X67837900Y-52050000D03*
%TD*%
D10*
%TO.P,P41,0,C*%
%TO.N,P11*%
X75137900Y-73200001D03*
D13*
X72137900Y-72950001D03*
X74137900Y-72950001D03*
X76137900Y-72950001D03*
X78137900Y-72950001D03*
D11*
%TO.P,P41,1,B*%
%TO.N,/JA1*%
X72137900Y-71950002D03*
D12*
%TO.P,P41,2,B*%
%TO.N,/JA2*%
X74137900Y-71950001D03*
D11*
%TO.P,P41,3,B*%
%TO.N,/JA3*%
X76137901Y-71950001D03*
D12*
%TO.P,P41,4,B*%
%TO.N,/JA4*%
X78137900Y-71950001D03*
%TD*%
D10*
%TO.P,P40,0,C*%
%TO.N,P10*%
X75137900Y-69300000D03*
D13*
X72137900Y-69050000D03*
X74137900Y-69050000D03*
X76137900Y-69050000D03*
X78137900Y-69050000D03*
D11*
%TO.P,P40,1,B*%
%TO.N,/JA1*%
X72137900Y-68050001D03*
D12*
%TO.P,P40,2,B*%
%TO.N,/JA2*%
X74137900Y-68050000D03*
D11*
%TO.P,P40,3,B*%
%TO.N,/JA3*%
X76137901Y-68050000D03*
D12*
%TO.P,P40,4,B*%
%TO.N,/JA4*%
X78137900Y-68050000D03*
%TD*%
D10*
%TO.P,P43,0,C*%
%TO.N,P13*%
X75137900Y-81050000D03*
D13*
X72137900Y-80800000D03*
X74137900Y-80800000D03*
X76137900Y-80800000D03*
X78137900Y-80800000D03*
D11*
%TO.P,P43,1,B*%
%TO.N,/JA1*%
X72137900Y-79800001D03*
D12*
%TO.P,P43,2,B*%
%TO.N,/JA2*%
X74137900Y-79800000D03*
D11*
%TO.P,P43,3,B*%
%TO.N,/JA3*%
X76137901Y-79800000D03*
D12*
%TO.P,P43,4,B*%
%TO.N,/JA4*%
X78137900Y-79800000D03*
%TD*%
D14*
%TO.P,J7,1,Pin_1*%
%TO.N,/B1*%
X56489723Y-44888589D03*
D15*
%TO.P,J7,2,Pin_2*%
X53949723Y-44888589D03*
%TO.P,J7,3,Pin_3*%
%TO.N,/B2*%
X56489723Y-47428589D03*
%TO.P,J7,4,Pin_4*%
X53949723Y-47428589D03*
%TO.P,J7,5,Pin_5*%
%TO.N,/B3*%
X56489723Y-49968589D03*
%TO.P,J7,6,Pin_6*%
X53949723Y-49968589D03*
%TO.P,J7,7,Pin_7*%
%TO.N,/B4*%
X56489723Y-52508589D03*
%TO.P,J7,8,Pin_8*%
X53949723Y-52508589D03*
%TO.P,J7,9,Pin_9*%
%TO.N,/B5*%
X56489723Y-55048589D03*
%TO.P,J7,10,Pin_10*%
X53949723Y-55048589D03*
%TO.P,J7,11,Pin_11*%
%TO.N,/B6*%
X56489723Y-57588589D03*
%TO.P,J7,12,Pin_12*%
X53949723Y-57588589D03*
%TO.P,J7,13,Pin_13*%
%TO.N,/B7*%
X56489723Y-60128589D03*
%TO.P,J7,14,Pin_14*%
X53949723Y-60128589D03*
%TO.P,J7,15,Pin_15*%
%TO.N,/B8*%
X56489723Y-62668589D03*
%TO.P,J7,16,Pin_16*%
X53949723Y-62668589D03*
%TO.P,J7,17,Pin_17*%
%TO.N,/B9*%
X56489723Y-65208589D03*
%TO.P,J7,18,Pin_18*%
X53949723Y-65208589D03*
%TO.P,J7,19,Pin_19*%
%TO.N,/B10*%
X56489723Y-67748589D03*
%TO.P,J7,20,Pin_20*%
X53949723Y-67748589D03*
%TO.P,J7,21,Pin_21*%
%TO.N,/B11*%
X56489723Y-70288589D03*
%TO.P,J7,22,Pin_22*%
X53949723Y-70288589D03*
%TO.P,J7,23,Pin_23*%
%TO.N,/B12*%
X56489723Y-72828589D03*
%TO.P,J7,24,Pin_24*%
X53949723Y-72828589D03*
%TO.P,J7,25,Pin_25*%
%TO.N,/B13*%
X56489723Y-75368589D03*
%TO.P,J7,26,Pin_26*%
X53949723Y-75368589D03*
%TO.P,J7,27,Pin_27*%
%TO.N,/B14*%
X56489723Y-77908589D03*
%TO.P,J7,28,Pin_28*%
X53949723Y-77908589D03*
%TO.P,J7,29,Pin_29*%
%TO.N,/B15*%
X56489723Y-80448589D03*
%TO.P,J7,30,Pin_30*%
X53949723Y-80448589D03*
%TO.P,J7,31,Pin_31*%
%TO.N,/B16*%
X56489723Y-82988589D03*
%TO.P,J7,32,Pin_32*%
X53949723Y-82988589D03*
%TO.P,J7,33,Pin_33*%
%TO.N,/B17*%
X56489723Y-85528589D03*
%TO.P,J7,34,Pin_34*%
X53949723Y-85528589D03*
%TO.P,J7,35,Pin_35*%
%TO.N,/B18*%
X56489723Y-88068589D03*
%TO.P,J7,36,Pin_36*%
X53949723Y-88068589D03*
%TO.P,J7,37,Pin_37*%
%TO.N,/B19*%
X56489723Y-90608589D03*
%TO.P,J7,38,Pin_38*%
X53949723Y-90608589D03*
%TO.P,J7,39,Pin_39*%
%TO.N,/B20*%
X56489723Y-93148589D03*
%TO.P,J7,40,Pin_40*%
X53949723Y-93148589D03*
%TO.P,J7,41,Pin_41*%
%TO.N,/B21*%
X56489723Y-95688589D03*
%TO.P,J7,42,Pin_42*%
X53949723Y-95688589D03*
%TO.P,J7,43,Pin_43*%
%TO.N,/B22*%
X56489723Y-98228589D03*
%TO.P,J7,44,Pin_44*%
X53949723Y-98228589D03*
%TO.P,J7,45,Pin_45*%
%TO.N,/B23*%
X56489723Y-100768589D03*
%TO.P,J7,46,Pin_46*%
X53949723Y-100768589D03*
%TO.P,J7,47,Pin_47*%
%TO.N,/B24*%
X56489723Y-103308589D03*
%TO.P,J7,48,Pin_48*%
X53949723Y-103308589D03*
%TO.P,J7,49,Pin_49*%
%TO.N,/B25*%
X56489723Y-105848589D03*
%TO.P,J7,50,Pin_50*%
X53949723Y-105848589D03*
%TO.P,J7,51,Pin_51*%
%TO.N,/B26*%
X56489723Y-108388589D03*
%TO.P,J7,52,Pin_52*%
X53949723Y-108388589D03*
%TO.P,J7,53,Pin_53*%
%TO.N,/B27*%
X56489723Y-110928589D03*
%TO.P,J7,54,Pin_54*%
X53949723Y-110928589D03*
%TO.P,J7,55,Pin_55*%
%TO.N,/B28*%
X56489723Y-113468589D03*
%TO.P,J7,56,Pin_56*%
X53949723Y-113468589D03*
%TO.P,J7,57,Pin_57*%
%TO.N,/B29*%
X56489723Y-116008589D03*
%TO.P,J7,58,Pin_58*%
X53949723Y-116008589D03*
%TO.P,J7,59,Pin_59*%
%TO.N,/B30*%
X56489723Y-118548589D03*
%TO.P,J7,60,Pin_60*%
X53949723Y-118548589D03*
%TO.P,J7,61,Pin_61*%
%TO.N,/B31*%
X56489723Y-121088589D03*
%TO.P,J7,62,Pin_62*%
X53949723Y-121088589D03*
%TO.P,J7,63,Pin_63*%
%TO.N,/B32*%
X56489723Y-123628589D03*
%TO.P,J7,64,Pin_64*%
X53949723Y-123628589D03*
%TO.P,J7,65,Pin_65*%
%TO.N,/B33*%
X56489723Y-126168589D03*
%TO.P,J7,66,Pin_66*%
X53949723Y-126168589D03*
%TO.P,J7,67,Pin_67*%
%TO.N,/B34*%
X56489723Y-128708589D03*
%TO.P,J7,68,Pin_68*%
X53949723Y-128708589D03*
%TO.P,J7,69,Pin_69*%
%TO.N,/B35*%
X56489723Y-131248589D03*
%TO.P,J7,70,Pin_70*%
X53949723Y-131248589D03*
%TO.P,J7,71,Pin_71*%
%TO.N,/B36*%
X56489723Y-133788589D03*
%TO.P,J7,72,Pin_72*%
X53949723Y-133788589D03*
%TO.P,J7,73,Pin_73*%
%TO.N,/B37*%
X56489723Y-136328589D03*
%TO.P,J7,74,Pin_74*%
X53949723Y-136328589D03*
%TO.P,J7,75,Pin_75*%
%TO.N,/B38*%
X56489723Y-138868589D03*
%TO.P,J7,76,Pin_76*%
X53949723Y-138868589D03*
%TD*%
D10*
%TO.P,P53,0,C*%
%TO.N,P23*%
X75137901Y-120350000D03*
D13*
X72137901Y-120100000D03*
X74137901Y-120100000D03*
X76137901Y-120100000D03*
X78137901Y-120100000D03*
D11*
%TO.P,P53,1,B*%
%TO.N,/JA1*%
X72137901Y-119100001D03*
D12*
%TO.P,P53,2,B*%
%TO.N,/JA2*%
X74137901Y-119100000D03*
D11*
%TO.P,P53,3,B*%
%TO.N,/JA3*%
X76137902Y-119100000D03*
D12*
%TO.P,P53,4,B*%
%TO.N,/JA4*%
X78137901Y-119100000D03*
%TD*%
D10*
%TO.P,P60,0,C*%
%TO.N,P30*%
X64862899Y-139650001D03*
D11*
%TO.P,P60,1,B*%
%TO.N,/JA1*%
X61862899Y-138600001D03*
D12*
%TO.P,P60,2,B*%
%TO.N,/JA2*%
X63862899Y-138600000D03*
D11*
%TO.P,P60,3,B*%
%TO.N,/JA3*%
X65862899Y-138600001D03*
D12*
%TO.P,P60,4,B*%
%TO.N,/JA4*%
X67862899Y-138600001D03*
%TD*%
D10*
%TO.P,P38,0,C*%
%TO.N,P8*%
X75137900Y-61300000D03*
D13*
X72137900Y-61050000D03*
X74137900Y-61050000D03*
X76137900Y-61050000D03*
X78137900Y-61050000D03*
D11*
%TO.P,P38,1,B*%
%TO.N,/JA1*%
X72137900Y-60050001D03*
D12*
%TO.P,P38,2,B*%
%TO.N,/JA2*%
X74137900Y-60050000D03*
D11*
%TO.P,P38,3,B*%
%TO.N,/JA3*%
X76137901Y-60050000D03*
D12*
%TO.P,P38,4,B*%
%TO.N,/JA4*%
X78137900Y-60050000D03*
%TD*%
D10*
%TO.P,P42,0,C*%
%TO.N,P12*%
X75137900Y-77200000D03*
D13*
X72137900Y-76950000D03*
X74137900Y-76950000D03*
X76137900Y-76950000D03*
X78137900Y-76950000D03*
D11*
%TO.P,P42,1,B*%
%TO.N,/JA1*%
X72137900Y-75950001D03*
D12*
%TO.P,P42,2,B*%
%TO.N,/JA2*%
X74137900Y-75950000D03*
D11*
%TO.P,P42,3,B*%
%TO.N,/JA3*%
X76137901Y-75950000D03*
D12*
%TO.P,P42,4,B*%
%TO.N,/JA4*%
X78137900Y-75950000D03*
%TD*%
D10*
%TO.P,P48,0,C*%
%TO.N,P18*%
X75137901Y-100750000D03*
D13*
X72137901Y-100500000D03*
X74137901Y-100500000D03*
X76137901Y-100500000D03*
X78137901Y-100500000D03*
D11*
%TO.P,P48,1,B*%
%TO.N,/JA1*%
X72137901Y-99500001D03*
D12*
%TO.P,P48,2,B*%
%TO.N,/JA2*%
X74137901Y-99500000D03*
D11*
%TO.P,P48,3,B*%
%TO.N,/JA3*%
X76137902Y-99500000D03*
D12*
%TO.P,P48,4,B*%
%TO.N,/JA4*%
X78137901Y-99500000D03*
%TD*%
D10*
%TO.P,P44,0,C*%
%TO.N,P14*%
X75137901Y-84950000D03*
D13*
X72137901Y-84700000D03*
X74137901Y-84700000D03*
X76137901Y-84700000D03*
X78137901Y-84700000D03*
D11*
%TO.P,P44,1,B*%
%TO.N,/JA1*%
X72137901Y-83700001D03*
D12*
%TO.P,P44,2,B*%
%TO.N,/JA2*%
X74137901Y-83700000D03*
D11*
%TO.P,P44,3,B*%
%TO.N,/JA3*%
X76137902Y-83700000D03*
D12*
%TO.P,P44,4,B*%
%TO.N,/JA4*%
X78137901Y-83700000D03*
%TD*%
D14*
%TO.P,J6,1,Pin_1*%
%TO.N,P1*%
X62438723Y-56480001D03*
D15*
%TO.P,J6,2,Pin_2*%
%TO.N,P2*%
X62438723Y-59020001D03*
%TO.P,J6,3,Pin_3*%
%TO.N,P3*%
X62438723Y-61560000D03*
%TO.P,J6,4,Pin_4*%
%TO.N,P4*%
X62438723Y-64100001D03*
%TO.P,J6,5,Pin_5*%
%TO.N,P5*%
X62438723Y-66640001D03*
%TO.P,J6,6,Pin_6*%
%TO.N,P6*%
X62438723Y-69180001D03*
%TO.P,J6,7,Pin_7*%
%TO.N,P7*%
X62438723Y-71720001D03*
%TO.P,J6,8,Pin_8*%
%TO.N,P8*%
X62438723Y-74260002D03*
%TO.P,J6,9,Pin_9*%
%TO.N,P9*%
X62438723Y-76800001D03*
%TO.P,J6,10,Pin_10*%
%TO.N,P10*%
X62438723Y-79340001D03*
%TO.P,J6,11,Pin_11*%
%TO.N,P11*%
X62438723Y-81880001D03*
%TO.P,J6,12,Pin_12*%
%TO.N,P12*%
X62438723Y-84420000D03*
%TO.P,J6,13,Pin_13*%
%TO.N,P13*%
X62438723Y-86960001D03*
%TO.P,J6,14,Pin_14*%
%TO.N,P14*%
X62438723Y-89500001D03*
%TO.P,J6,15,Pin_15*%
%TO.N,P15*%
X62438723Y-92040001D03*
%TO.P,J6,16,Pin_16*%
%TO.N,P16*%
X62438723Y-94580000D03*
%TO.P,J6,17,Pin_17*%
%TO.N,P17*%
X62438723Y-97120002D03*
%TO.P,J6,18,Pin_18*%
%TO.N,P18*%
X62438723Y-99660001D03*
%TO.P,J6,19,Pin_19*%
%TO.N,P19*%
X62438723Y-102200001D03*
%TO.P,J6,20,Pin_20*%
%TO.N,P20*%
X62438723Y-104740001D03*
%TO.P,J6,21,Pin_21*%
%TO.N,P21*%
X62438723Y-107280000D03*
%TO.P,J6,22,Pin_22*%
%TO.N,P22*%
X62438723Y-109820001D03*
%TO.P,J6,23,Pin_23*%
%TO.N,P23*%
X62438723Y-112360001D03*
%TO.P,J6,24,Pin_24*%
%TO.N,P24*%
X62438723Y-114900001D03*
%TO.P,J6,25,Pin_25*%
%TO.N,P25*%
X62438723Y-117440000D03*
%TO.P,J6,26,Pin_26*%
%TO.N,P26*%
X62438723Y-119980002D03*
%TO.P,J6,27,Pin_27*%
%TO.N,P27*%
X62438723Y-122520001D03*
%TO.P,J6,28,Pin_28*%
%TO.N,P28*%
X62438723Y-125060001D03*
%TO.P,J6,29,Pin_29*%
%TO.N,P29*%
X62438723Y-127600001D03*
%TO.P,J6,30,Pin_30*%
%TO.N,P30*%
X62438723Y-130140002D03*
%TD*%
D14*
%TO.P,J9,1,Pin_1*%
%TO.N,P1*%
X67538723Y-56500000D03*
D15*
%TO.P,J9,2,Pin_2*%
X64998723Y-56500000D03*
%TO.P,J9,3,Pin_3*%
%TO.N,P2*%
X67538723Y-59040000D03*
%TO.P,J9,4,Pin_4*%
X64998723Y-59040000D03*
%TO.P,J9,5,Pin_5*%
%TO.N,P3*%
X67538723Y-61579999D03*
%TO.P,J9,6,Pin_6*%
X64998723Y-61580000D03*
%TO.P,J9,7,Pin_7*%
%TO.N,P4*%
X67538723Y-64120000D03*
%TO.P,J9,8,Pin_8*%
X64998723Y-64120000D03*
%TO.P,J9,9,Pin_9*%
%TO.N,P5*%
X67538723Y-66660000D03*
%TO.P,J9,10,Pin_10*%
X64998723Y-66660000D03*
%TO.P,J9,11,Pin_11*%
%TO.N,P6*%
X67538723Y-69200000D03*
%TO.P,J9,12,Pin_12*%
X64998723Y-69200000D03*
%TO.P,J9,13,Pin_13*%
%TO.N,P7*%
X67538723Y-71740000D03*
%TO.P,J9,14,Pin_14*%
X64998723Y-71740000D03*
%TO.P,J9,15,Pin_15*%
%TO.N,P8*%
X67538723Y-74280001D03*
%TO.P,J9,16,Pin_16*%
X64998723Y-74280000D03*
%TO.P,J9,17,Pin_17*%
%TO.N,P9*%
X67538723Y-76820000D03*
%TO.P,J9,18,Pin_18*%
X64998723Y-76820000D03*
%TO.P,J9,19,Pin_19*%
%TO.N,P10*%
X67538723Y-79360000D03*
%TO.P,J9,20,Pin_20*%
X64998723Y-79360000D03*
%TO.P,J9,21,Pin_21*%
%TO.N,P11*%
X67538723Y-81900000D03*
%TO.P,J9,22,Pin_22*%
X64998723Y-81900000D03*
%TO.P,J9,23,Pin_23*%
%TO.N,P12*%
X67538723Y-84439999D03*
%TO.P,J9,24,Pin_24*%
X64998723Y-84440000D03*
%TO.P,J9,25,Pin_25*%
%TO.N,P13*%
X67538723Y-86980000D03*
%TO.P,J9,26,Pin_26*%
X64998723Y-86980000D03*
%TO.P,J9,27,Pin_27*%
%TO.N,P14*%
X67538723Y-89520000D03*
%TO.P,J9,28,Pin_28*%
X64998723Y-89520000D03*
%TO.P,J9,29,Pin_29*%
%TO.N,P15*%
X67538723Y-92060000D03*
%TO.P,J9,30,Pin_30*%
X64998723Y-92060000D03*
%TO.P,J9,31,Pin_31*%
%TO.N,P16*%
X67538723Y-94599999D03*
%TO.P,J9,32,Pin_32*%
X64998723Y-94600000D03*
%TO.P,J9,33,Pin_33*%
%TO.N,P17*%
X67538723Y-97140001D03*
%TO.P,J9,34,Pin_34*%
X64998723Y-97140000D03*
%TO.P,J9,35,Pin_35*%
%TO.N,P18*%
X67538723Y-99680000D03*
%TO.P,J9,36,Pin_36*%
X64998723Y-99680000D03*
%TO.P,J9,37,Pin_37*%
%TO.N,P19*%
X67538723Y-102220000D03*
%TO.P,J9,38,Pin_38*%
X64998723Y-102220000D03*
%TO.P,J9,39,Pin_39*%
%TO.N,P20*%
X67538723Y-104760000D03*
%TO.P,J9,40,Pin_40*%
X64998723Y-104760000D03*
%TO.P,J9,41,Pin_41*%
%TO.N,P21*%
X67538723Y-107299999D03*
%TO.P,J9,42,Pin_42*%
X64998723Y-107300000D03*
%TO.P,J9,43,Pin_43*%
%TO.N,P22*%
X67538723Y-109840000D03*
%TO.P,J9,44,Pin_44*%
X64998723Y-109840000D03*
%TO.P,J9,45,Pin_45*%
%TO.N,P23*%
X67538723Y-112380000D03*
%TO.P,J9,46,Pin_46*%
X64998723Y-112380000D03*
%TO.P,J9,47,Pin_47*%
%TO.N,P24*%
X67538723Y-114920000D03*
%TO.P,J9,48,Pin_48*%
X64998723Y-114920000D03*
%TO.P,J9,49,Pin_49*%
%TO.N,P25*%
X67538723Y-117459999D03*
%TO.P,J9,50,Pin_50*%
X64998723Y-117460000D03*
%TO.P,J9,51,Pin_51*%
%TO.N,P26*%
X67538723Y-120000001D03*
%TO.P,J9,52,Pin_52*%
X64998723Y-120000000D03*
%TO.P,J9,53,Pin_53*%
%TO.N,P27*%
X67538723Y-122540000D03*
%TO.P,J9,54,Pin_54*%
X64998723Y-122540000D03*
%TO.P,J9,55,Pin_55*%
%TO.N,P28*%
X67538723Y-125080000D03*
%TO.P,J9,56,Pin_56*%
X64998723Y-125080000D03*
%TO.P,J9,57,Pin_57*%
%TO.N,P29*%
X67538723Y-127620000D03*
%TO.P,J9,58,Pin_58*%
X64998723Y-127620000D03*
%TO.P,J9,59,Pin_59*%
%TO.N,P30*%
X67538723Y-130160001D03*
%TO.P,J9,60,Pin_60*%
X64998723Y-130160000D03*
%TD*%
D10*
%TO.P,P55,0,C*%
%TO.N,P25*%
X75137900Y-128150000D03*
D13*
X72137900Y-127900000D03*
X74137900Y-127900000D03*
X76137900Y-127900000D03*
X78137900Y-127900000D03*
D11*
%TO.P,P55,1,B*%
%TO.N,/JA1*%
X72137900Y-126900001D03*
D12*
%TO.P,P55,2,B*%
%TO.N,/JA2*%
X74137900Y-126900000D03*
D11*
%TO.P,P55,3,B*%
%TO.N,/JA3*%
X76137901Y-126900000D03*
D12*
%TO.P,P55,4,B*%
%TO.N,/JA4*%
X78137900Y-126900000D03*
%TD*%
D10*
%TO.P,P58,0,C*%
%TO.N,P28*%
X75137900Y-139950000D03*
D13*
X72137900Y-139700000D03*
X74137900Y-139700000D03*
X76137900Y-139700000D03*
X78137900Y-139700000D03*
D11*
%TO.P,P58,1,B*%
%TO.N,/JA1*%
X72137900Y-138700001D03*
D12*
%TO.P,P58,2,B*%
%TO.N,/JA2*%
X74137900Y-138700000D03*
D11*
%TO.P,P58,3,B*%
%TO.N,/JA3*%
X76137901Y-138700000D03*
D12*
%TO.P,P58,4,B*%
%TO.N,/JA4*%
X78137900Y-138700000D03*
%TD*%
D10*
%TO.P,P35,0,C*%
%TO.N,P5*%
X75137900Y-49300001D03*
D13*
X72137900Y-49050001D03*
X74137900Y-49050001D03*
X76137900Y-49050001D03*
X78137900Y-49050001D03*
D11*
%TO.P,P35,1,B*%
%TO.N,/JA1*%
X72137900Y-48050002D03*
D12*
%TO.P,P35,2,B*%
%TO.N,/JA2*%
X74137900Y-48050001D03*
D11*
%TO.P,P35,3,B*%
%TO.N,/JA3*%
X76137901Y-48050001D03*
D12*
%TO.P,P35,4,B*%
%TO.N,/JA4*%
X78137900Y-48050001D03*
%TD*%
D10*
%TO.P,P54,0,C*%
%TO.N,P24*%
X75137900Y-124250000D03*
D13*
X72137900Y-124000000D03*
X74137900Y-124000000D03*
X76137900Y-124000000D03*
X78137900Y-124000000D03*
D11*
%TO.P,P54,1,B*%
%TO.N,/JA1*%
X72137900Y-123000001D03*
D12*
%TO.P,P54,2,B*%
%TO.N,/JA2*%
X74137900Y-123000000D03*
D11*
%TO.P,P54,3,B*%
%TO.N,/JA3*%
X76137901Y-123000000D03*
D12*
%TO.P,P54,4,B*%
%TO.N,/JA4*%
X78137900Y-123000000D03*
%TD*%
D10*
%TO.P,P30,0,C*%
%TO.N,P30*%
X130862899Y-139650001D03*
D11*
%TO.P,P30,1,B*%
%TO.N,/JA1*%
X127862899Y-138600001D03*
D12*
%TO.P,P30,2,B*%
%TO.N,/JA2*%
X129862899Y-138600000D03*
D11*
%TO.P,P30,3,B*%
%TO.N,/JA3*%
X131862899Y-138600001D03*
D12*
%TO.P,P30,4,B*%
%TO.N,/JA4*%
X133862899Y-138600001D03*
%TD*%
D10*
%TO.P,P7,0,C*%
%TO.N,P7*%
X141137900Y-57300000D03*
D13*
X138137900Y-57050000D03*
X140137900Y-57050000D03*
X142137900Y-57050000D03*
X144137900Y-57050000D03*
D11*
%TO.P,P7,1,B*%
%TO.N,/JA1*%
X138137900Y-56050001D03*
D12*
%TO.P,P7,2,B*%
%TO.N,/JA2*%
X140137900Y-56050000D03*
D11*
%TO.P,P7,3,B*%
%TO.N,/JA3*%
X142137901Y-56050000D03*
D12*
%TO.P,P7,4,B*%
%TO.N,/JA4*%
X144137900Y-56050000D03*
%TD*%
D10*
%TO.P,P27,0,C*%
%TO.N,P27*%
X141137900Y-136050000D03*
D13*
X138137900Y-135800000D03*
X140137900Y-135800000D03*
X142137900Y-135800000D03*
X144137900Y-135800000D03*
D11*
%TO.P,P27,1,B*%
%TO.N,/JA1*%
X138137900Y-134800001D03*
D12*
%TO.P,P27,2,B*%
%TO.N,/JA2*%
X140137900Y-134800000D03*
D11*
%TO.P,P27,3,B*%
%TO.N,/JA3*%
X142137901Y-134800000D03*
D12*
%TO.P,P27,4,B*%
%TO.N,/JA4*%
X144137900Y-134800000D03*
%TD*%
D10*
%TO.P,P13,0,C*%
%TO.N,P13*%
X141137900Y-81050000D03*
D13*
X138137900Y-80800000D03*
X140137900Y-80800000D03*
X142137900Y-80800000D03*
X144137900Y-80800000D03*
D11*
%TO.P,P13,1,B*%
%TO.N,/JA1*%
X138137900Y-79800001D03*
D12*
%TO.P,P13,2,B*%
%TO.N,/JA2*%
X140137900Y-79800000D03*
D11*
%TO.P,P13,3,B*%
%TO.N,/JA3*%
X142137901Y-79800000D03*
D12*
%TO.P,P13,4,B*%
%TO.N,/JA4*%
X144137900Y-79800000D03*
%TD*%
D10*
%TO.P,P28,0,C*%
%TO.N,P28*%
X141137900Y-139950000D03*
D13*
X138137900Y-139700000D03*
X140137900Y-139700000D03*
X142137900Y-139700000D03*
X144137900Y-139700000D03*
D11*
%TO.P,P28,1,B*%
%TO.N,/JA1*%
X138137900Y-138700001D03*
D12*
%TO.P,P28,2,B*%
%TO.N,/JA2*%
X140137900Y-138700000D03*
D11*
%TO.P,P28,3,B*%
%TO.N,/JA3*%
X142137901Y-138700000D03*
D12*
%TO.P,P28,4,B*%
%TO.N,/JA4*%
X144137900Y-138700000D03*
%TD*%
D10*
%TO.P,P14,0,C*%
%TO.N,P14*%
X141137901Y-84950000D03*
D13*
X138137901Y-84700000D03*
X140137901Y-84700000D03*
X142137901Y-84700000D03*
X144137901Y-84700000D03*
D11*
%TO.P,P14,1,B*%
%TO.N,/JA1*%
X138137901Y-83700001D03*
D12*
%TO.P,P14,2,B*%
%TO.N,/JA2*%
X140137901Y-83700000D03*
D11*
%TO.P,P14,3,B*%
%TO.N,/JA3*%
X142137902Y-83700000D03*
D12*
%TO.P,P14,4,B*%
%TO.N,/JA4*%
X144137901Y-83700000D03*
%TD*%
D10*
%TO.P,P1,0,C*%
%TO.N,P1*%
X130837900Y-53100000D03*
D11*
%TO.P,P1,1,B*%
%TO.N,/JA1*%
X127837900Y-52050000D03*
D12*
%TO.P,P1,2,B*%
%TO.N,/JA2*%
X129837900Y-52049999D03*
D11*
%TO.P,P1,3,B*%
%TO.N,/JA3*%
X131837900Y-52050000D03*
D12*
%TO.P,P1,4,B*%
%TO.N,/JA4*%
X133837900Y-52050000D03*
%TD*%
D10*
%TO.P,P8,0,C*%
%TO.N,P8*%
X141137900Y-61300000D03*
D13*
X138137900Y-61050000D03*
X140137900Y-61050000D03*
X142137900Y-61050000D03*
X144137900Y-61050000D03*
D11*
%TO.P,P8,1,B*%
%TO.N,/JA1*%
X138137900Y-60050001D03*
D12*
%TO.P,P8,2,B*%
%TO.N,/JA2*%
X140137900Y-60050000D03*
D11*
%TO.P,P8,3,B*%
%TO.N,/JA3*%
X142137901Y-60050000D03*
D12*
%TO.P,P8,4,B*%
%TO.N,/JA4*%
X144137900Y-60050000D03*
%TD*%
D10*
%TO.P,P21,0,C*%
%TO.N,P21*%
X141137900Y-112450000D03*
D13*
X138137900Y-112200000D03*
X140137900Y-112200000D03*
X142137900Y-112200000D03*
X144137900Y-112200000D03*
D11*
%TO.P,P21,1,B*%
%TO.N,/JA1*%
X138137900Y-111200001D03*
D12*
%TO.P,P21,2,B*%
%TO.N,/JA2*%
X140137900Y-111200000D03*
D11*
%TO.P,P21,3,B*%
%TO.N,/JA3*%
X142137901Y-111200000D03*
D12*
%TO.P,P21,4,B*%
%TO.N,/JA4*%
X144137900Y-111200000D03*
%TD*%
D10*
%TO.P,P10,0,C*%
%TO.N,P10*%
X141137900Y-69300000D03*
D13*
X138137900Y-69050000D03*
X140137900Y-69050000D03*
X142137900Y-69050000D03*
X144137900Y-69050000D03*
D11*
%TO.P,P10,1,B*%
%TO.N,/JA1*%
X138137900Y-68050001D03*
D12*
%TO.P,P10,2,B*%
%TO.N,/JA2*%
X140137900Y-68050000D03*
D11*
%TO.P,P10,3,B*%
%TO.N,/JA3*%
X142137901Y-68050000D03*
D12*
%TO.P,P10,4,B*%
%TO.N,/JA4*%
X144137900Y-68050000D03*
%TD*%
D10*
%TO.P,P23,0,C*%
%TO.N,P23*%
X141137901Y-120350000D03*
D13*
X138137901Y-120100000D03*
X140137901Y-120100000D03*
X142137901Y-120100000D03*
X144137901Y-120100000D03*
D11*
%TO.P,P23,1,B*%
%TO.N,/JA1*%
X138137901Y-119100001D03*
D12*
%TO.P,P23,2,B*%
%TO.N,/JA2*%
X140137901Y-119100000D03*
D11*
%TO.P,P23,3,B*%
%TO.N,/JA3*%
X142137902Y-119100000D03*
D12*
%TO.P,P23,4,B*%
%TO.N,/JA4*%
X144137901Y-119100000D03*
%TD*%
D10*
%TO.P,P12,0,C*%
%TO.N,P12*%
X141137900Y-77200000D03*
D13*
X138137900Y-76950000D03*
X140137900Y-76950000D03*
X142137900Y-76950000D03*
X144137900Y-76950000D03*
D11*
%TO.P,P12,1,B*%
%TO.N,/JA1*%
X138137900Y-75950001D03*
D12*
%TO.P,P12,2,B*%
%TO.N,/JA2*%
X140137900Y-75950000D03*
D11*
%TO.P,P12,3,B*%
%TO.N,/JA3*%
X142137901Y-75950000D03*
D12*
%TO.P,P12,4,B*%
%TO.N,/JA4*%
X144137900Y-75950000D03*
%TD*%
D14*
%TO.P,J5,1,Pin_1*%
%TO.N,P1*%
X133538723Y-56500000D03*
D15*
%TO.P,J5,2,Pin_2*%
X130998723Y-56500000D03*
%TO.P,J5,3,Pin_3*%
%TO.N,P2*%
X133538723Y-59040000D03*
%TO.P,J5,4,Pin_4*%
X130998723Y-59040000D03*
%TO.P,J5,5,Pin_5*%
%TO.N,P3*%
X133538723Y-61579999D03*
%TO.P,J5,6,Pin_6*%
X130998723Y-61580000D03*
%TO.P,J5,7,Pin_7*%
%TO.N,P4*%
X133538723Y-64120000D03*
%TO.P,J5,8,Pin_8*%
X130998723Y-64120000D03*
%TO.P,J5,9,Pin_9*%
%TO.N,P5*%
X133538723Y-66660000D03*
%TO.P,J5,10,Pin_10*%
X130998723Y-66660000D03*
%TO.P,J5,11,Pin_11*%
%TO.N,P6*%
X133538723Y-69200000D03*
%TO.P,J5,12,Pin_12*%
X130998723Y-69200000D03*
%TO.P,J5,13,Pin_13*%
%TO.N,P7*%
X133538723Y-71740000D03*
%TO.P,J5,14,Pin_14*%
X130998723Y-71740000D03*
%TO.P,J5,15,Pin_15*%
%TO.N,P8*%
X133538723Y-74280001D03*
%TO.P,J5,16,Pin_16*%
X130998723Y-74280000D03*
%TO.P,J5,17,Pin_17*%
%TO.N,P9*%
X133538723Y-76820000D03*
%TO.P,J5,18,Pin_18*%
X130998723Y-76820000D03*
%TO.P,J5,19,Pin_19*%
%TO.N,P10*%
X133538723Y-79360000D03*
%TO.P,J5,20,Pin_20*%
X130998723Y-79360000D03*
%TO.P,J5,21,Pin_21*%
%TO.N,P11*%
X133538723Y-81900000D03*
%TO.P,J5,22,Pin_22*%
X130998723Y-81900000D03*
%TO.P,J5,23,Pin_23*%
%TO.N,P12*%
X133538723Y-84439999D03*
%TO.P,J5,24,Pin_24*%
X130998723Y-84440000D03*
%TO.P,J5,25,Pin_25*%
%TO.N,P13*%
X133538723Y-86980000D03*
%TO.P,J5,26,Pin_26*%
X130998723Y-86980000D03*
%TO.P,J5,27,Pin_27*%
%TO.N,P14*%
X133538723Y-89520000D03*
%TO.P,J5,28,Pin_28*%
X130998723Y-89520000D03*
%TO.P,J5,29,Pin_29*%
%TO.N,P15*%
X133538723Y-92060000D03*
%TO.P,J5,30,Pin_30*%
X130998723Y-92060000D03*
%TO.P,J5,31,Pin_31*%
%TO.N,P16*%
X133538723Y-94599999D03*
%TO.P,J5,32,Pin_32*%
X130998723Y-94600000D03*
%TO.P,J5,33,Pin_33*%
%TO.N,P17*%
X133538723Y-97140001D03*
%TO.P,J5,34,Pin_34*%
X130998723Y-97140000D03*
%TO.P,J5,35,Pin_35*%
%TO.N,P18*%
X133538723Y-99680000D03*
%TO.P,J5,36,Pin_36*%
X130998723Y-99680000D03*
%TO.P,J5,37,Pin_37*%
%TO.N,P19*%
X133538723Y-102220000D03*
%TO.P,J5,38,Pin_38*%
X130998723Y-102220000D03*
%TO.P,J5,39,Pin_39*%
%TO.N,P20*%
X133538723Y-104760000D03*
%TO.P,J5,40,Pin_40*%
X130998723Y-104760000D03*
%TO.P,J5,41,Pin_41*%
%TO.N,P21*%
X133538723Y-107299999D03*
%TO.P,J5,42,Pin_42*%
X130998723Y-107300000D03*
%TO.P,J5,43,Pin_43*%
%TO.N,P22*%
X133538723Y-109840000D03*
%TO.P,J5,44,Pin_44*%
X130998723Y-109840000D03*
%TO.P,J5,45,Pin_45*%
%TO.N,P23*%
X133538723Y-112380000D03*
%TO.P,J5,46,Pin_46*%
X130998723Y-112380000D03*
%TO.P,J5,47,Pin_47*%
%TO.N,P24*%
X133538723Y-114920000D03*
%TO.P,J5,48,Pin_48*%
X130998723Y-114920000D03*
%TO.P,J5,49,Pin_49*%
%TO.N,P25*%
X133538723Y-117459999D03*
%TO.P,J5,50,Pin_50*%
X130998723Y-117460000D03*
%TO.P,J5,51,Pin_51*%
%TO.N,P26*%
X133538723Y-120000001D03*
%TO.P,J5,52,Pin_52*%
X130998723Y-120000000D03*
%TO.P,J5,53,Pin_53*%
%TO.N,P27*%
X133538723Y-122540000D03*
%TO.P,J5,54,Pin_54*%
X130998723Y-122540000D03*
%TO.P,J5,55,Pin_55*%
%TO.N,P28*%
X133538723Y-125080000D03*
%TO.P,J5,56,Pin_56*%
X130998723Y-125080000D03*
%TO.P,J5,57,Pin_57*%
%TO.N,P29*%
X133538723Y-127620000D03*
%TO.P,J5,58,Pin_58*%
X130998723Y-127620000D03*
%TO.P,J5,59,Pin_59*%
%TO.N,P30*%
X133538723Y-130160001D03*
%TO.P,J5,60,Pin_60*%
X130998723Y-130160000D03*
%TD*%
D14*
%TO.P,J4,1,Pin_1*%
%TO.N,/B1*%
X115949723Y-44888589D03*
D15*
%TO.P,J4,2,Pin_2*%
%TO.N,/B2*%
X115949723Y-47428589D03*
%TO.P,J4,3,Pin_3*%
%TO.N,/B3*%
X115949723Y-49968589D03*
%TO.P,J4,4,Pin_4*%
%TO.N,/B4*%
X115949723Y-52508589D03*
%TO.P,J4,5,Pin_5*%
%TO.N,/B5*%
X115949723Y-55048589D03*
%TO.P,J4,6,Pin_6*%
%TO.N,/B6*%
X115949723Y-57588589D03*
%TO.P,J4,7,Pin_7*%
%TO.N,/B7*%
X115949723Y-60128589D03*
%TO.P,J4,8,Pin_8*%
%TO.N,/B8*%
X115949723Y-62668589D03*
%TO.P,J4,9,Pin_9*%
%TO.N,/B9*%
X115949723Y-65208589D03*
%TO.P,J4,10,Pin_10*%
%TO.N,/B10*%
X115949723Y-67748589D03*
%TO.P,J4,11,Pin_11*%
%TO.N,/B11*%
X115949723Y-70288589D03*
%TO.P,J4,12,Pin_12*%
%TO.N,/B12*%
X115949723Y-72828589D03*
%TO.P,J4,13,Pin_13*%
%TO.N,/B13*%
X115949723Y-75368589D03*
%TO.P,J4,14,Pin_14*%
%TO.N,/B14*%
X115949723Y-77908589D03*
%TO.P,J4,15,Pin_15*%
%TO.N,/B15*%
X115949723Y-80448589D03*
%TO.P,J4,16,Pin_16*%
%TO.N,/B16*%
X115949723Y-82988589D03*
%TO.P,J4,17,Pin_17*%
%TO.N,/B17*%
X115949723Y-85528589D03*
%TO.P,J4,18,Pin_18*%
%TO.N,/B18*%
X115949723Y-88068589D03*
%TO.P,J4,19,Pin_19*%
%TO.N,/B19*%
X115949723Y-90608589D03*
%TO.P,J4,20,Pin_20*%
%TO.N,/B20*%
X115949723Y-93148589D03*
%TO.P,J4,21,Pin_21*%
%TO.N,/B21*%
X115949723Y-95688589D03*
%TO.P,J4,22,Pin_22*%
%TO.N,/B22*%
X115949723Y-98228589D03*
%TO.P,J4,23,Pin_23*%
%TO.N,/B23*%
X115949723Y-100768589D03*
%TO.P,J4,24,Pin_24*%
%TO.N,/B24*%
X115949723Y-103308589D03*
%TO.P,J4,25,Pin_25*%
%TO.N,/B25*%
X115949723Y-105848589D03*
%TO.P,J4,26,Pin_26*%
%TO.N,/B26*%
X115949723Y-108388589D03*
%TO.P,J4,27,Pin_27*%
%TO.N,/B27*%
X115949723Y-110928589D03*
%TO.P,J4,28,Pin_28*%
%TO.N,/B28*%
X115949723Y-113468589D03*
%TO.P,J4,29,Pin_29*%
%TO.N,/B29*%
X115949723Y-116008589D03*
%TO.P,J4,30,Pin_30*%
%TO.N,/B30*%
X115949723Y-118548589D03*
%TO.P,J4,31,Pin_31*%
%TO.N,/B31*%
X115949723Y-121088589D03*
%TO.P,J4,32,Pin_32*%
%TO.N,/B32*%
X115949723Y-123628589D03*
%TO.P,J4,33,Pin_33*%
%TO.N,/B33*%
X115949723Y-126168589D03*
%TO.P,J4,34,Pin_34*%
%TO.N,/B34*%
X115949723Y-128708589D03*
%TO.P,J4,35,Pin_35*%
%TO.N,/B35*%
X115949723Y-131248589D03*
%TO.P,J4,36,Pin_36*%
%TO.N,/B36*%
X115949723Y-133788589D03*
%TO.P,J4,37,Pin_37*%
%TO.N,/B37*%
X115949723Y-136328589D03*
%TO.P,J4,38,Pin_38*%
%TO.N,/B38*%
X115949723Y-138868589D03*
%TD*%
D10*
%TO.P,P16,0,C*%
%TO.N,P16*%
X141137900Y-92850000D03*
D13*
X138137900Y-92600000D03*
X140137900Y-92600000D03*
X142137900Y-92600000D03*
X144137900Y-92600000D03*
D11*
%TO.P,P16,1,B*%
%TO.N,/JA1*%
X138137900Y-91600001D03*
D12*
%TO.P,P16,2,B*%
%TO.N,/JA2*%
X140137900Y-91600000D03*
D11*
%TO.P,P16,3,B*%
%TO.N,/JA3*%
X142137901Y-91600000D03*
D12*
%TO.P,P16,4,B*%
%TO.N,/JA4*%
X144137900Y-91600000D03*
%TD*%
D10*
%TO.P,P26,0,C*%
%TO.N,P26*%
X141137900Y-132050000D03*
D13*
X138137900Y-131800000D03*
X140137900Y-131800000D03*
X142137900Y-131800000D03*
X144137900Y-131800000D03*
D11*
%TO.P,P26,1,B*%
%TO.N,/JA1*%
X138137900Y-130800001D03*
D12*
%TO.P,P26,2,B*%
%TO.N,/JA2*%
X140137900Y-130800000D03*
D11*
%TO.P,P26,3,B*%
%TO.N,/JA3*%
X142137901Y-130800000D03*
D12*
%TO.P,P26,4,B*%
%TO.N,/JA4*%
X144137900Y-130800000D03*
%TD*%
D10*
%TO.P,P19,0,C*%
%TO.N,P19*%
X141137900Y-104650000D03*
D13*
X138137900Y-104400000D03*
X140137900Y-104400000D03*
X142137900Y-104400000D03*
X144137900Y-104400000D03*
D11*
%TO.P,P19,1,B*%
%TO.N,/JA1*%
X138137900Y-103400001D03*
D12*
%TO.P,P19,2,B*%
%TO.N,/JA2*%
X140137900Y-103400000D03*
D11*
%TO.P,P19,3,B*%
%TO.N,/JA3*%
X142137901Y-103400000D03*
D12*
%TO.P,P19,4,B*%
%TO.N,/JA4*%
X144137900Y-103400000D03*
%TD*%
D10*
%TO.P,P24,0,C*%
%TO.N,P24*%
X141137900Y-124250000D03*
D13*
X138137900Y-124000000D03*
X140137900Y-124000000D03*
X142137900Y-124000000D03*
X144137900Y-124000000D03*
D11*
%TO.P,P24,1,B*%
%TO.N,/JA1*%
X138137900Y-123000001D03*
D12*
%TO.P,P24,2,B*%
%TO.N,/JA2*%
X140137900Y-123000000D03*
D11*
%TO.P,P24,3,B*%
%TO.N,/JA3*%
X142137901Y-123000000D03*
D12*
%TO.P,P24,4,B*%
%TO.N,/JA4*%
X144137900Y-123000000D03*
%TD*%
D14*
%TO.P,J3,1,Pin_1*%
%TO.N,/B1*%
X122489723Y-44888589D03*
D15*
%TO.P,J3,2,Pin_2*%
X119949723Y-44888589D03*
%TO.P,J3,3,Pin_3*%
%TO.N,/B2*%
X122489723Y-47428589D03*
%TO.P,J3,4,Pin_4*%
X119949723Y-47428589D03*
%TO.P,J3,5,Pin_5*%
%TO.N,/B3*%
X122489723Y-49968589D03*
%TO.P,J3,6,Pin_6*%
X119949723Y-49968589D03*
%TO.P,J3,7,Pin_7*%
%TO.N,/B4*%
X122489723Y-52508589D03*
%TO.P,J3,8,Pin_8*%
X119949723Y-52508589D03*
%TO.P,J3,9,Pin_9*%
%TO.N,/B5*%
X122489723Y-55048589D03*
%TO.P,J3,10,Pin_10*%
X119949723Y-55048589D03*
%TO.P,J3,11,Pin_11*%
%TO.N,/B6*%
X122489723Y-57588589D03*
%TO.P,J3,12,Pin_12*%
X119949723Y-57588589D03*
%TO.P,J3,13,Pin_13*%
%TO.N,/B7*%
X122489723Y-60128589D03*
%TO.P,J3,14,Pin_14*%
X119949723Y-60128589D03*
%TO.P,J3,15,Pin_15*%
%TO.N,/B8*%
X122489723Y-62668589D03*
%TO.P,J3,16,Pin_16*%
X119949723Y-62668589D03*
%TO.P,J3,17,Pin_17*%
%TO.N,/B9*%
X122489723Y-65208589D03*
%TO.P,J3,18,Pin_18*%
X119949723Y-65208589D03*
%TO.P,J3,19,Pin_19*%
%TO.N,/B10*%
X122489723Y-67748589D03*
%TO.P,J3,20,Pin_20*%
X119949723Y-67748589D03*
%TO.P,J3,21,Pin_21*%
%TO.N,/B11*%
X122489723Y-70288589D03*
%TO.P,J3,22,Pin_22*%
X119949723Y-70288589D03*
%TO.P,J3,23,Pin_23*%
%TO.N,/B12*%
X122489723Y-72828589D03*
%TO.P,J3,24,Pin_24*%
X119949723Y-72828589D03*
%TO.P,J3,25,Pin_25*%
%TO.N,/B13*%
X122489723Y-75368589D03*
%TO.P,J3,26,Pin_26*%
X119949723Y-75368589D03*
%TO.P,J3,27,Pin_27*%
%TO.N,/B14*%
X122489723Y-77908589D03*
%TO.P,J3,28,Pin_28*%
X119949723Y-77908589D03*
%TO.P,J3,29,Pin_29*%
%TO.N,/B15*%
X122489723Y-80448589D03*
%TO.P,J3,30,Pin_30*%
X119949723Y-80448589D03*
%TO.P,J3,31,Pin_31*%
%TO.N,/B16*%
X122489723Y-82988589D03*
%TO.P,J3,32,Pin_32*%
X119949723Y-82988589D03*
%TO.P,J3,33,Pin_33*%
%TO.N,/B17*%
X122489723Y-85528589D03*
%TO.P,J3,34,Pin_34*%
X119949723Y-85528589D03*
%TO.P,J3,35,Pin_35*%
%TO.N,/B18*%
X122489723Y-88068589D03*
%TO.P,J3,36,Pin_36*%
X119949723Y-88068589D03*
%TO.P,J3,37,Pin_37*%
%TO.N,/B19*%
X122489723Y-90608589D03*
%TO.P,J3,38,Pin_38*%
X119949723Y-90608589D03*
%TO.P,J3,39,Pin_39*%
%TO.N,/B20*%
X122489723Y-93148589D03*
%TO.P,J3,40,Pin_40*%
X119949723Y-93148589D03*
%TO.P,J3,41,Pin_41*%
%TO.N,/B21*%
X122489723Y-95688589D03*
%TO.P,J3,42,Pin_42*%
X119949723Y-95688589D03*
%TO.P,J3,43,Pin_43*%
%TO.N,/B22*%
X122489723Y-98228589D03*
%TO.P,J3,44,Pin_44*%
X119949723Y-98228589D03*
%TO.P,J3,45,Pin_45*%
%TO.N,/B23*%
X122489723Y-100768589D03*
%TO.P,J3,46,Pin_46*%
X119949723Y-100768589D03*
%TO.P,J3,47,Pin_47*%
%TO.N,/B24*%
X122489723Y-103308589D03*
%TO.P,J3,48,Pin_48*%
X119949723Y-103308589D03*
%TO.P,J3,49,Pin_49*%
%TO.N,/B25*%
X122489723Y-105848589D03*
%TO.P,J3,50,Pin_50*%
X119949723Y-105848589D03*
%TO.P,J3,51,Pin_51*%
%TO.N,/B26*%
X122489723Y-108388589D03*
%TO.P,J3,52,Pin_52*%
X119949723Y-108388589D03*
%TO.P,J3,53,Pin_53*%
%TO.N,/B27*%
X122489723Y-110928589D03*
%TO.P,J3,54,Pin_54*%
X119949723Y-110928589D03*
%TO.P,J3,55,Pin_55*%
%TO.N,/B28*%
X122489723Y-113468589D03*
%TO.P,J3,56,Pin_56*%
X119949723Y-113468589D03*
%TO.P,J3,57,Pin_57*%
%TO.N,/B29*%
X122489723Y-116008589D03*
%TO.P,J3,58,Pin_58*%
X119949723Y-116008589D03*
%TO.P,J3,59,Pin_59*%
%TO.N,/B30*%
X122489723Y-118548589D03*
%TO.P,J3,60,Pin_60*%
X119949723Y-118548589D03*
%TO.P,J3,61,Pin_61*%
%TO.N,/B31*%
X122489723Y-121088589D03*
%TO.P,J3,62,Pin_62*%
X119949723Y-121088589D03*
%TO.P,J3,63,Pin_63*%
%TO.N,/B32*%
X122489723Y-123628589D03*
%TO.P,J3,64,Pin_64*%
X119949723Y-123628589D03*
%TO.P,J3,65,Pin_65*%
%TO.N,/B33*%
X122489723Y-126168589D03*
%TO.P,J3,66,Pin_66*%
X119949723Y-126168589D03*
%TO.P,J3,67,Pin_67*%
%TO.N,/B34*%
X122489723Y-128708589D03*
%TO.P,J3,68,Pin_68*%
X119949723Y-128708589D03*
%TO.P,J3,69,Pin_69*%
%TO.N,/B35*%
X122489723Y-131248589D03*
%TO.P,J3,70,Pin_70*%
X119949723Y-131248589D03*
%TO.P,J3,71,Pin_71*%
%TO.N,/B36*%
X122489723Y-133788589D03*
%TO.P,J3,72,Pin_72*%
X119949723Y-133788589D03*
%TO.P,J3,73,Pin_73*%
%TO.N,/B37*%
X122489723Y-136328589D03*
%TO.P,J3,74,Pin_74*%
X119949723Y-136328589D03*
%TO.P,J3,75,Pin_75*%
%TO.N,/B38*%
X122489723Y-138868589D03*
%TO.P,J3,76,Pin_76*%
X119949723Y-138868589D03*
%TD*%
D10*
%TO.P,P18,0,C*%
%TO.N,P18*%
X141137901Y-100750000D03*
D13*
X138137901Y-100500000D03*
X140137901Y-100500000D03*
X142137901Y-100500000D03*
X144137901Y-100500000D03*
D11*
%TO.P,P18,1,B*%
%TO.N,/JA1*%
X138137901Y-99500001D03*
D12*
%TO.P,P18,2,B*%
%TO.N,/JA2*%
X140137901Y-99500000D03*
D11*
%TO.P,P18,3,B*%
%TO.N,/JA3*%
X142137902Y-99500000D03*
D12*
%TO.P,P18,4,B*%
%TO.N,/JA4*%
X144137901Y-99500000D03*
%TD*%
D10*
%TO.P,P2,0,C*%
%TO.N,P2*%
X130837900Y-49135000D03*
D11*
%TO.P,P2,1,B*%
%TO.N,/JA1*%
X127837900Y-48085000D03*
D12*
%TO.P,P2,2,B*%
%TO.N,/JA2*%
X129837900Y-48084999D03*
D11*
%TO.P,P2,3,B*%
%TO.N,/JA3*%
X131837900Y-48085000D03*
D12*
%TO.P,P2,4,B*%
%TO.N,/JA4*%
X133837900Y-48085000D03*
%TD*%
D10*
%TO.P,P5,0,C*%
%TO.N,P5*%
X141137900Y-49300001D03*
D13*
X138137900Y-49050001D03*
X140137900Y-49050001D03*
X142137900Y-49050001D03*
X144137900Y-49050001D03*
D11*
%TO.P,P5,1,B*%
%TO.N,/JA1*%
X138137900Y-48050002D03*
D12*
%TO.P,P5,2,B*%
%TO.N,/JA2*%
X140137900Y-48050001D03*
D11*
%TO.P,P5,3,B*%
%TO.N,/JA3*%
X142137901Y-48050001D03*
D12*
%TO.P,P5,4,B*%
%TO.N,/JA4*%
X144137900Y-48050001D03*
%TD*%
D10*
%TO.P,P4,0,C*%
%TO.N,P4*%
X141137901Y-45300000D03*
D13*
X138137901Y-45050000D03*
X140137901Y-45050000D03*
X142137901Y-45050000D03*
X144137901Y-45050000D03*
D11*
%TO.P,P4,1,B*%
%TO.N,/JA1*%
X138137901Y-44050001D03*
D12*
%TO.P,P4,2,B*%
%TO.N,/JA2*%
X140137901Y-44050000D03*
D11*
%TO.P,P4,3,B*%
%TO.N,/JA3*%
X142137902Y-44050000D03*
D12*
%TO.P,P4,4,B*%
%TO.N,/JA4*%
X144137901Y-44050000D03*
%TD*%
D10*
%TO.P,P25,0,C*%
%TO.N,P25*%
X141137900Y-128150000D03*
D13*
X138137900Y-127900000D03*
X140137900Y-127900000D03*
X142137900Y-127900000D03*
X144137900Y-127900000D03*
D11*
%TO.P,P25,1,B*%
%TO.N,/JA1*%
X138137900Y-126900001D03*
D12*
%TO.P,P25,2,B*%
%TO.N,/JA2*%
X140137900Y-126900000D03*
D11*
%TO.P,P25,3,B*%
%TO.N,/JA3*%
X142137901Y-126900000D03*
D12*
%TO.P,P25,4,B*%
%TO.N,/JA4*%
X144137900Y-126900000D03*
%TD*%
D10*
%TO.P,P17,0,C*%
%TO.N,P17*%
X141137900Y-96850000D03*
D13*
X138137900Y-96600000D03*
X140137900Y-96600000D03*
X142137900Y-96600000D03*
X144137900Y-96600000D03*
D11*
%TO.P,P17,1,B*%
%TO.N,/JA1*%
X138137900Y-95600001D03*
D12*
%TO.P,P17,2,B*%
%TO.N,/JA2*%
X140137900Y-95600000D03*
D11*
%TO.P,P17,3,B*%
%TO.N,/JA3*%
X142137901Y-95600000D03*
D12*
%TO.P,P17,4,B*%
%TO.N,/JA4*%
X144137900Y-95600000D03*
%TD*%
D14*
%TO.P,J2,1,Pin_1*%
%TO.N,P1*%
X128438723Y-56480001D03*
D15*
%TO.P,J2,2,Pin_2*%
%TO.N,P2*%
X128438723Y-59020001D03*
%TO.P,J2,3,Pin_3*%
%TO.N,P3*%
X128438723Y-61560000D03*
%TO.P,J2,4,Pin_4*%
%TO.N,P4*%
X128438723Y-64100001D03*
%TO.P,J2,5,Pin_5*%
%TO.N,P5*%
X128438723Y-66640001D03*
%TO.P,J2,6,Pin_6*%
%TO.N,P6*%
X128438723Y-69180001D03*
%TO.P,J2,7,Pin_7*%
%TO.N,P7*%
X128438723Y-71720001D03*
%TO.P,J2,8,Pin_8*%
%TO.N,P8*%
X128438723Y-74260002D03*
%TO.P,J2,9,Pin_9*%
%TO.N,P9*%
X128438723Y-76800001D03*
%TO.P,J2,10,Pin_10*%
%TO.N,P10*%
X128438723Y-79340001D03*
%TO.P,J2,11,Pin_11*%
%TO.N,P11*%
X128438723Y-81880001D03*
%TO.P,J2,12,Pin_12*%
%TO.N,P12*%
X128438723Y-84420000D03*
%TO.P,J2,13,Pin_13*%
%TO.N,P13*%
X128438723Y-86960001D03*
%TO.P,J2,14,Pin_14*%
%TO.N,P14*%
X128438723Y-89500001D03*
%TO.P,J2,15,Pin_15*%
%TO.N,P15*%
X128438723Y-92040001D03*
%TO.P,J2,16,Pin_16*%
%TO.N,P16*%
X128438723Y-94580000D03*
%TO.P,J2,17,Pin_17*%
%TO.N,P17*%
X128438723Y-97120002D03*
%TO.P,J2,18,Pin_18*%
%TO.N,P18*%
X128438723Y-99660001D03*
%TO.P,J2,19,Pin_19*%
%TO.N,P19*%
X128438723Y-102200001D03*
%TO.P,J2,20,Pin_20*%
%TO.N,P20*%
X128438723Y-104740001D03*
%TO.P,J2,21,Pin_21*%
%TO.N,P21*%
X128438723Y-107280000D03*
%TO.P,J2,22,Pin_22*%
%TO.N,P22*%
X128438723Y-109820001D03*
%TO.P,J2,23,Pin_23*%
%TO.N,P23*%
X128438723Y-112360001D03*
%TO.P,J2,24,Pin_24*%
%TO.N,P24*%
X128438723Y-114900001D03*
%TO.P,J2,25,Pin_25*%
%TO.N,P25*%
X128438723Y-117440000D03*
%TO.P,J2,26,Pin_26*%
%TO.N,P26*%
X128438723Y-119980002D03*
%TO.P,J2,27,Pin_27*%
%TO.N,P27*%
X128438723Y-122520001D03*
%TO.P,J2,28,Pin_28*%
%TO.N,P28*%
X128438723Y-125060001D03*
%TO.P,J2,29,Pin_29*%
%TO.N,P29*%
X128438723Y-127600001D03*
%TO.P,J2,30,Pin_30*%
%TO.N,P30*%
X128438723Y-130140002D03*
%TD*%
D10*
%TO.P,P20,0,C*%
%TO.N,P20*%
X141137901Y-108550000D03*
D13*
X138137901Y-108300000D03*
X140137901Y-108300000D03*
X142137901Y-108300000D03*
X144137901Y-108300000D03*
D11*
%TO.P,P20,1,B*%
%TO.N,/JA1*%
X138137901Y-107300001D03*
D12*
%TO.P,P20,2,B*%
%TO.N,/JA2*%
X140137901Y-107300000D03*
D11*
%TO.P,P20,3,B*%
%TO.N,/JA3*%
X142137902Y-107300000D03*
D12*
%TO.P,P20,4,B*%
%TO.N,/JA4*%
X144137901Y-107300000D03*
%TD*%
D10*
%TO.P,P3,0,C*%
%TO.N,P3*%
X130837900Y-45050000D03*
D11*
%TO.P,P3,1,B*%
%TO.N,/JA1*%
X127837900Y-44000000D03*
D12*
%TO.P,P3,2,B*%
%TO.N,/JA2*%
X129837900Y-43999999D03*
D11*
%TO.P,P3,3,B*%
%TO.N,/JA3*%
X131837900Y-44000000D03*
D12*
%TO.P,P3,4,B*%
%TO.N,/JA4*%
X133837900Y-44000000D03*
%TD*%
D10*
%TO.P,P29,0,C*%
%TO.N,P29*%
X130837900Y-135750000D03*
D11*
%TO.P,P29,1,B*%
%TO.N,/JA1*%
X127837900Y-134700000D03*
D12*
%TO.P,P29,2,B*%
%TO.N,/JA2*%
X129837900Y-134699999D03*
D11*
%TO.P,P29,3,B*%
%TO.N,/JA3*%
X131837900Y-134700000D03*
D12*
%TO.P,P29,4,B*%
%TO.N,/JA4*%
X133837900Y-134700000D03*
%TD*%
D10*
%TO.P,P22,0,C*%
%TO.N,P22*%
X141137900Y-116350000D03*
D13*
X138137900Y-116100000D03*
X140137900Y-116100000D03*
X142137900Y-116100000D03*
X144137900Y-116100000D03*
D11*
%TO.P,P22,1,B*%
%TO.N,/JA1*%
X138137900Y-115100001D03*
D12*
%TO.P,P22,2,B*%
%TO.N,/JA2*%
X140137900Y-115100000D03*
D11*
%TO.P,P22,3,B*%
%TO.N,/JA3*%
X142137901Y-115100000D03*
D12*
%TO.P,P22,4,B*%
%TO.N,/JA4*%
X144137900Y-115100000D03*
%TD*%
D10*
%TO.P,P9,0,C*%
%TO.N,P9*%
X141137900Y-65300000D03*
D13*
X138137900Y-65050000D03*
X140137900Y-65050000D03*
X142137900Y-65050000D03*
X144137900Y-65050000D03*
D11*
%TO.P,P9,1,B*%
%TO.N,/JA1*%
X138137900Y-64050001D03*
D12*
%TO.P,P9,2,B*%
%TO.N,/JA2*%
X140137900Y-64050000D03*
D11*
%TO.P,P9,3,B*%
%TO.N,/JA3*%
X142137901Y-64050000D03*
D12*
%TO.P,P9,4,B*%
%TO.N,/JA4*%
X144137900Y-64050000D03*
%TD*%
D10*
%TO.P,P11,0,C*%
%TO.N,P11*%
X141137900Y-73200001D03*
D13*
X138137900Y-72950001D03*
X140137900Y-72950001D03*
X142137900Y-72950001D03*
X144137900Y-72950001D03*
D11*
%TO.P,P11,1,B*%
%TO.N,/JA1*%
X138137900Y-71950002D03*
D12*
%TO.P,P11,2,B*%
%TO.N,/JA2*%
X140137900Y-71950001D03*
D11*
%TO.P,P11,3,B*%
%TO.N,/JA3*%
X142137901Y-71950001D03*
D12*
%TO.P,P11,4,B*%
%TO.N,/JA4*%
X144137900Y-71950001D03*
%TD*%
D10*
%TO.P,P15,0,C*%
%TO.N,P15*%
X141137900Y-88950001D03*
D13*
X138137900Y-88700001D03*
X140137900Y-88700001D03*
X142137900Y-88700001D03*
X144137900Y-88700001D03*
D11*
%TO.P,P15,1,B*%
%TO.N,/JA1*%
X138137900Y-87700002D03*
D12*
%TO.P,P15,2,B*%
%TO.N,/JA2*%
X140137900Y-87700001D03*
D11*
%TO.P,P15,3,B*%
%TO.N,/JA3*%
X142137901Y-87700001D03*
D12*
%TO.P,P15,4,B*%
%TO.N,/JA4*%
X144137900Y-87700001D03*
%TD*%
D10*
%TO.P,P6,0,C*%
%TO.N,P6*%
X141137900Y-53300000D03*
D13*
X138137900Y-53050000D03*
X140137900Y-53050000D03*
X142137900Y-53050000D03*
X144137900Y-53050000D03*
D11*
%TO.P,P6,1,B*%
%TO.N,/JA1*%
X138137900Y-52050001D03*
D12*
%TO.P,P6,2,B*%
%TO.N,/JA2*%
X140137900Y-52050000D03*
D11*
%TO.P,P6,3,B*%
%TO.N,/JA3*%
X142137901Y-52050000D03*
D12*
%TO.P,P6,4,B*%
%TO.N,/JA4*%
X144137900Y-52050000D03*
%TD*%
D16*
%TO.N,/JA1*%
X105337900Y-102400000D03*
X105337900Y-75000000D03*
X105337900Y-137700001D03*
X105337900Y-47100000D03*
X105337900Y-63100001D03*
X105337900Y-71000000D03*
%TO.N,/JA3*%
X109137900Y-137800000D03*
X109137900Y-106400000D03*
X109137900Y-75000000D03*
X109137900Y-102500000D03*
X109137900Y-98600000D03*
X98837900Y-51100000D03*
X98837900Y-47200000D03*
%TO.N,/JA4*%
X111137900Y-59100000D03*
%TO.N,/JA3*%
X109137900Y-90700000D03*
%TO.N,/JA2*%
X107137900Y-122000000D03*
%TO.N,/JA3*%
X109137900Y-47100000D03*
X109137900Y-59100000D03*
X109137900Y-118200000D03*
X109137900Y-114200001D03*
%TO.N,/JA4*%
X111137900Y-71000000D03*
X110537900Y-140899998D03*
X110137900Y-43500000D03*
X100737900Y-136900000D03*
%TO.N,/JA3*%
X109137900Y-86800000D03*
%TO.N,/JA4*%
X111137900Y-106400000D03*
%TO.N,/JA3*%
X109137900Y-55100000D03*
%TO.N,/JA4*%
X111137900Y-75000000D03*
X111137900Y-137700000D03*
X111137900Y-82800000D03*
X111137900Y-90700000D03*
X111137900Y-102500000D03*
X111137900Y-94700000D03*
%TO.N,/JA3*%
X109137900Y-110300000D03*
%TO.N,P25*%
X104337900Y-128800000D03*
%TO.N,P3*%
X93837901Y-45700000D03*
%TO.N,P4*%
X102937900Y-46300000D03*
%TO.N,P27*%
X103737900Y-135700000D03*
%TO.N,/JA3*%
X109137900Y-63100000D03*
%TO.N,P30*%
X94337900Y-140500000D03*
%TO.N,/JA1*%
X105337900Y-59200000D03*
%TO.N,/JA3*%
X109137900Y-129900000D03*
%TO.N,/JA2*%
X107137900Y-47100000D03*
%TO.N,/JA1*%
X105337900Y-67100000D03*
%TO.N,/JA3*%
X109137900Y-126000001D03*
%TO.N,/JA4*%
X111137900Y-98600000D03*
%TO.N,P6*%
X103437900Y-53700000D03*
%TO.N,/JA1*%
X94837899Y-133850001D03*
X105337900Y-51100000D03*
X94837900Y-51100000D03*
X105337900Y-118100001D03*
X105337900Y-94600000D03*
%TO.N,P10*%
X104137900Y-70600000D03*
%TO.N,/JA1*%
X94837899Y-137850001D03*
X103860900Y-44300000D03*
%TO.N,P12*%
X103437901Y-78400000D03*
%TO.N,/JA4*%
X111137900Y-78900000D03*
X111137900Y-63100000D03*
%TO.N,P8*%
X104137900Y-62000000D03*
%TO.N,/JA1*%
X105337900Y-125900001D03*
X105337900Y-129800000D03*
%TO.N,/JA3*%
X98837900Y-133849999D03*
%TO.N,/JA4*%
X111137900Y-118200000D03*
%TO.N,/JA3*%
X109137900Y-71000000D03*
%TO.N,/JA2*%
X106687899Y-44049999D03*
%TO.N,/JA4*%
X100837900Y-47100001D03*
%TO.N,/JA2*%
X107137900Y-86700001D03*
X107137900Y-118100001D03*
X107137901Y-59100000D03*
X107137901Y-114100000D03*
%TO.N,/JA4*%
X111137900Y-114200001D03*
X111137900Y-126000001D03*
%TO.N,/JA2*%
X107137901Y-125900000D03*
X107137900Y-67100000D03*
X107137900Y-90600000D03*
%TO.N,/JA4*%
X100837900Y-51100000D03*
%TO.N,/JA2*%
X96837900Y-43161001D03*
X107137900Y-129800000D03*
X96837900Y-47100001D03*
X96837900Y-133850000D03*
%TO.N,/JA1*%
X105337900Y-55200000D03*
%TO.N,/JA2*%
X107137900Y-133800000D03*
X107137900Y-51000001D03*
X107137900Y-63100001D03*
X107137900Y-98500000D03*
%TO.N,/JA1*%
X105337900Y-86700001D03*
X105337900Y-82700001D03*
%TO.N,/JA4*%
X111137900Y-110300000D03*
%TO.N,/JA2*%
X107137900Y-106300001D03*
%TO.N,/JA3*%
X109137900Y-94700000D03*
%TO.N,/JA2*%
X107137900Y-110200000D03*
%TO.N,/JA1*%
X105337900Y-110200000D03*
%TO.N,/JA2*%
X96837900Y-51100000D03*
X107137900Y-78800000D03*
%TO.N,/JA3*%
X109137900Y-67200000D03*
%TO.N,/JA2*%
X107137901Y-137700000D03*
%TO.N,/JA1*%
X105837900Y-122000000D03*
%TO.N,/JA3*%
X109137900Y-122100000D03*
%TO.N,/JA4*%
X111137900Y-67100000D03*
X111137900Y-47100001D03*
%TO.N,/JA2*%
X107137900Y-102400000D03*
%TO.N,/JA4*%
X111137900Y-51100000D03*
%TO.N,/JA3*%
X109137900Y-51100000D03*
%TO.N,P23*%
X104137900Y-121500001D03*
%TO.N,/JA2*%
X107137901Y-82700000D03*
X107137901Y-55100000D03*
%TO.N,/JA3*%
X98837900Y-137750000D03*
%TO.N,/JA4*%
X111137900Y-86800000D03*
X111137900Y-133900000D03*
%TO.N,/JA1*%
X105337900Y-90600000D03*
%TO.N,/JA3*%
X109137900Y-133900000D03*
%TO.N,/JA1*%
X105337900Y-114100001D03*
%TO.N,/JA2*%
X107137900Y-71000000D03*
%TO.N,/JA3*%
X108137900Y-43500000D03*
X109137900Y-78900000D03*
%TO.N,/JA1*%
X105337900Y-106300001D03*
%TO.N,/JA4*%
X100837899Y-133850001D03*
%TO.N,/JA1*%
X105337900Y-133800000D03*
%TO.N,/JA4*%
X111137900Y-55100000D03*
%TO.N,/JA2*%
X107137901Y-94600000D03*
%TO.N,/JA1*%
X105337900Y-78800000D03*
%TO.N,/JA3*%
X109137900Y-82800000D03*
%TO.N,/JA1*%
X105337900Y-98500000D03*
X94837900Y-47100000D03*
%TO.N,/JA3*%
X98837900Y-43161001D03*
%TO.N,/JA2*%
X107137901Y-75000000D03*
%TO.N,/JA4*%
X100837900Y-43161001D03*
%TO.N,/JA2*%
X96837900Y-137750000D03*
%TO.N,/JA1*%
X94837900Y-43161001D03*
%TO.N,/JA4*%
X111137900Y-122100000D03*
X111137900Y-129900000D03*
%TO.N,/JA2*%
X74137900Y-47100000D03*
X63837900Y-137750000D03*
%TO.N,/JA1*%
X72337900Y-129800000D03*
X72337900Y-75000000D03*
%TO.N,P23*%
X71137900Y-121500001D03*
%TO.N,/JA1*%
X72337900Y-47100000D03*
X72337900Y-63100001D03*
X72337900Y-71000000D03*
%TO.N,/JA3*%
X76137900Y-114200001D03*
X76137900Y-51100000D03*
X76137900Y-71000000D03*
X76137900Y-133900000D03*
X76137900Y-106400000D03*
X76137900Y-102500000D03*
X76137900Y-63100000D03*
X76137900Y-98600000D03*
X65837900Y-51100000D03*
%TO.N,/JA4*%
X78137900Y-59100000D03*
%TO.N,/JA3*%
X76137900Y-90700000D03*
X76137900Y-47100000D03*
%TO.N,/JA4*%
X67837899Y-133850001D03*
%TO.N,/JA3*%
X76137900Y-59100000D03*
X76137900Y-118200000D03*
%TO.N,/JA4*%
X78137900Y-55100000D03*
X78137900Y-71000000D03*
X77537900Y-140899998D03*
X77137900Y-43500000D03*
X67737900Y-136900000D03*
X67837900Y-47100001D03*
X67837900Y-43161001D03*
%TO.N,/JA2*%
X74137900Y-122000000D03*
%TO.N,/JA3*%
X76137900Y-86800000D03*
%TO.N,/JA4*%
X78137900Y-106400000D03*
%TO.N,/JA3*%
X76137900Y-55100000D03*
%TO.N,/JA1*%
X72337900Y-125900001D03*
%TO.N,/JA4*%
X78137900Y-67100000D03*
X78137900Y-137700000D03*
X78137900Y-82800000D03*
X78137900Y-133900000D03*
X78137900Y-102500000D03*
X78137900Y-94700000D03*
%TO.N,/JA2*%
X74137901Y-59100000D03*
%TO.N,P25*%
X71337900Y-128800000D03*
%TO.N,P3*%
X60837901Y-45700000D03*
%TO.N,P4*%
X69937900Y-46300000D03*
%TO.N,P27*%
X70737900Y-135700000D03*
%TO.N,P30*%
X61337900Y-140500000D03*
%TO.N,/JA1*%
X72337900Y-67100000D03*
%TO.N,/JA3*%
X76137900Y-126000001D03*
%TO.N,P6*%
X70437900Y-53700000D03*
%TO.N,/JA1*%
X72337900Y-133800000D03*
X61837899Y-133850001D03*
%TO.N,/JA3*%
X76137900Y-110300000D03*
%TO.N,/JA1*%
X72337900Y-51100000D03*
%TO.N,/JA3*%
X75137900Y-43500000D03*
%TO.N,/JA1*%
X72337900Y-90600000D03*
X72337900Y-82700001D03*
X61837900Y-51100000D03*
X72337900Y-118100001D03*
X72337900Y-78800000D03*
X72337900Y-106300001D03*
%TO.N,P10*%
X71137900Y-70600000D03*
%TO.N,/JA1*%
X61837899Y-137850001D03*
%TO.N,P12*%
X70437901Y-78400000D03*
%TO.N,/JA4*%
X78137900Y-98600000D03*
%TO.N,P8*%
X71137900Y-62000000D03*
%TO.N,/JA1*%
X72337900Y-86700001D03*
%TO.N,/JA4*%
X78137900Y-78900000D03*
X78137900Y-63100000D03*
%TO.N,/JA1*%
X72337900Y-137700001D03*
%TO.N,/JA3*%
X76137900Y-94700000D03*
X65837900Y-133849999D03*
%TO.N,/JA4*%
X78137900Y-118200000D03*
%TO.N,/JA2*%
X74137900Y-102400000D03*
X74137900Y-86700001D03*
X74137900Y-118100001D03*
X74137901Y-114100000D03*
%TO.N,/JA4*%
X78137900Y-126000001D03*
%TO.N,/JA2*%
X74137900Y-67100000D03*
X74137900Y-90600000D03*
%TO.N,/JA4*%
X67837900Y-51100000D03*
%TO.N,/JA2*%
X63837900Y-43161001D03*
X74137900Y-129800000D03*
X63837900Y-47100001D03*
X63837900Y-133850000D03*
X74137900Y-51000001D03*
X74137900Y-98500000D03*
%TO.N,/JA3*%
X76137900Y-129900000D03*
%TO.N,/JA2*%
X74137900Y-106300001D03*
X74137900Y-133800000D03*
%TO.N,/JA1*%
X72337900Y-102400000D03*
X72337900Y-110200000D03*
%TO.N,/JA2*%
X74137900Y-63100001D03*
X63837900Y-51100000D03*
X74137900Y-78800000D03*
%TO.N,/JA3*%
X76137900Y-67200000D03*
%TO.N,/JA2*%
X74137901Y-137700000D03*
%TO.N,/JA4*%
X78137900Y-75000000D03*
%TO.N,/JA3*%
X65837900Y-43161001D03*
X76137900Y-122100000D03*
%TO.N,/JA1*%
X70860900Y-44300000D03*
X72337900Y-55200000D03*
%TO.N,/JA4*%
X78137900Y-47100001D03*
X78137900Y-51100000D03*
%TO.N,/JA1*%
X72337900Y-94600000D03*
%TO.N,/JA2*%
X73687899Y-44049999D03*
%TO.N,/JA3*%
X76137900Y-137800000D03*
%TO.N,/JA2*%
X74137901Y-82700000D03*
%TO.N,/JA3*%
X65837900Y-137750000D03*
%TO.N,/JA4*%
X78137900Y-86800000D03*
%TO.N,/JA1*%
X72337900Y-114100001D03*
%TO.N,/JA2*%
X74137900Y-71000000D03*
X74137901Y-55100000D03*
X74137901Y-125900000D03*
%TO.N,/JA1*%
X72337900Y-59200000D03*
%TO.N,/JA3*%
X76137900Y-78900000D03*
%TO.N,/JA2*%
X74137900Y-110200000D03*
%TO.N,/JA4*%
X78137900Y-114200001D03*
%TO.N,/JA2*%
X74137901Y-94600000D03*
%TO.N,/JA1*%
X72337900Y-98500000D03*
%TO.N,/JA4*%
X78137900Y-110300000D03*
%TO.N,/JA1*%
X61837900Y-47100000D03*
%TO.N,/JA4*%
X78137900Y-90700000D03*
%TO.N,/JA1*%
X72837900Y-122000000D03*
%TO.N,/JA2*%
X74137901Y-75000000D03*
%TO.N,/JA3*%
X65837900Y-47200000D03*
%TO.N,/JA1*%
X61837900Y-43161001D03*
%TO.N,/JA4*%
X78137900Y-122100000D03*
X78137900Y-129900000D03*
%TO.N,/JA3*%
X76137900Y-82800000D03*
X76137900Y-75000000D03*
%TO.N,P25*%
X137337900Y-128800000D03*
%TO.N,P30*%
X127337900Y-140500000D03*
%TO.N,P3*%
X126837901Y-45700000D03*
%TO.N,P8*%
X137137900Y-62000000D03*
%TO.N,P4*%
X135937900Y-46300000D03*
%TO.N,P27*%
X136737900Y-135700000D03*
%TO.N,P10*%
X137137900Y-70600000D03*
%TO.N,P12*%
X136437901Y-78400000D03*
%TO.N,P6*%
X136437900Y-53700000D03*
%TO.N,/JA1*%
X138337900Y-90600000D03*
X138337900Y-94600000D03*
X138337900Y-110200000D03*
X127837900Y-51100000D03*
X138337900Y-78800000D03*
X138337900Y-133800000D03*
X138337900Y-82700001D03*
X138337900Y-51100000D03*
X127837899Y-133850001D03*
X127837899Y-137850001D03*
X138337900Y-47100000D03*
X138337900Y-106300001D03*
X138337900Y-137700001D03*
X138337900Y-98500000D03*
X138337900Y-86700001D03*
X138337900Y-118100001D03*
X136860900Y-44300000D03*
X138337900Y-67100000D03*
X138337900Y-71000000D03*
X138337900Y-59200000D03*
X138337900Y-114100001D03*
X138337900Y-63100001D03*
X127837900Y-43161001D03*
X138337900Y-55200000D03*
X138837900Y-122000000D03*
X127837900Y-47100000D03*
X138337900Y-129800000D03*
X138337900Y-75000000D03*
X138337900Y-102400000D03*
X138337900Y-125900001D03*
%TO.N,P23*%
X137137900Y-121500001D03*
%TO.N,/JA2*%
X129837900Y-137750000D03*
X140137901Y-59100000D03*
X140137900Y-122000000D03*
X129837900Y-51100000D03*
X140137900Y-47100000D03*
X140137900Y-110200000D03*
X140137900Y-133800000D03*
X140137900Y-98500000D03*
X129837900Y-133850000D03*
X140137901Y-137700000D03*
X140137901Y-55100000D03*
X140137900Y-129800000D03*
X140137900Y-71000000D03*
X140137900Y-51000001D03*
X129837900Y-47100001D03*
X129837900Y-43161001D03*
X140137900Y-106300001D03*
X140137901Y-75000000D03*
X140137901Y-125900000D03*
X140137901Y-94600000D03*
X140137901Y-82700000D03*
X140137900Y-63100001D03*
X140137900Y-118100001D03*
X140137900Y-90600000D03*
X140137900Y-78800000D03*
X140137901Y-114100000D03*
X140137900Y-102400000D03*
X140137900Y-67100000D03*
X140137900Y-86700001D03*
X139687899Y-44049999D03*
%TO.N,/JA4*%
X144137900Y-126000001D03*
X144137900Y-86800000D03*
X144137900Y-67100000D03*
X133837900Y-51100000D03*
X144137900Y-51100000D03*
X144137900Y-133900000D03*
X144137900Y-63100000D03*
X144137900Y-90700000D03*
X144137900Y-82800000D03*
X144137900Y-47100001D03*
X144137900Y-94700000D03*
X144137900Y-102500000D03*
X144137900Y-137700000D03*
X144137900Y-114200001D03*
X144137900Y-98600000D03*
X144137900Y-75000000D03*
X143537900Y-140899998D03*
X143137900Y-43500000D03*
X144137900Y-55100000D03*
X144137900Y-71000000D03*
X144137900Y-118200000D03*
X133837900Y-43161001D03*
X144137900Y-78900000D03*
X133837900Y-47100001D03*
X144137900Y-129900000D03*
X144137900Y-106400000D03*
X133737900Y-136900000D03*
X144137900Y-122100000D03*
X133837899Y-133850001D03*
X144137900Y-59100000D03*
X144137900Y-110300000D03*
%TO.N,/JA3*%
X142137900Y-47100000D03*
X141137900Y-43500000D03*
X142137900Y-90700000D03*
X142137900Y-86800000D03*
X131837900Y-47200000D03*
X142137900Y-67200000D03*
X131837900Y-137750000D03*
X142137900Y-59100000D03*
X142137900Y-118200000D03*
X142137900Y-102500000D03*
X142137900Y-114200001D03*
X142137900Y-122100000D03*
X142137900Y-129900000D03*
X142137900Y-51100000D03*
X142137900Y-133900000D03*
X142137900Y-71000000D03*
X142137900Y-98600000D03*
X142137900Y-126000001D03*
X142137900Y-110300000D03*
X142137900Y-82800000D03*
X142137900Y-55100000D03*
X131837900Y-51100000D03*
X131837900Y-133849999D03*
X142137900Y-75000000D03*
X142137900Y-106400000D03*
X142137900Y-78900000D03*
X142137900Y-94700000D03*
X142137900Y-63100000D03*
X142137900Y-137800000D03*
X131837900Y-43161001D03*
%TD*%
D17*
%TO.N,P3*%
X97837900Y-45050000D02*
X94487901Y-45050000D01*
D18*
%TO.N,P16*%
X102288722Y-92850000D02*
X108137899Y-92850000D01*
X100538723Y-94599999D02*
X102288722Y-92850000D01*
%TO.N,P5*%
X101993900Y-65204823D02*
X101993900Y-51448984D01*
%TO.N,P24*%
X103136900Y-123599000D02*
X103787900Y-124250000D01*
%TO.N,P10*%
X105437900Y-69300000D02*
X108137900Y-69300000D01*
%TO.N,P5*%
X104142884Y-49300000D02*
X108137900Y-49300000D01*
%TO.N,P14*%
X100538723Y-89520000D02*
X105108723Y-84950000D01*
%TO.N,P10*%
X104137900Y-70600000D02*
X105437900Y-69300000D01*
%TO.N,P12*%
X104637901Y-77200000D02*
X108137900Y-77200000D01*
%TO.N,P7*%
X103837900Y-57300000D02*
X108137900Y-57300000D01*
%TO.N,P26*%
X104530884Y-132050000D02*
X108137900Y-132050000D01*
%TO.N,P7*%
X103136900Y-66201000D02*
X103136900Y-58001000D01*
X101989723Y-67348177D02*
X103136900Y-66201000D01*
%TO.N,P28*%
X100538723Y-125080000D02*
X102018899Y-126560176D01*
%TO.N,P23*%
X105687900Y-120350000D02*
X108137900Y-120350000D01*
X104137900Y-121500001D02*
X104537900Y-121500000D01*
%TO.N,P19*%
X102968723Y-104650000D02*
X108137899Y-104650000D01*
%TO.N,P24*%
X100538723Y-114920000D02*
X103136900Y-117518178D01*
%TO.N,/JA1*%
X105337900Y-126700000D02*
X105137900Y-126900000D01*
X94837900Y-43161001D02*
X94837900Y-44000000D01*
X105337900Y-114100001D02*
X105337900Y-114900000D01*
X105337900Y-82700001D02*
X105337900Y-83500000D01*
X104110899Y-44050000D02*
X105137900Y-44050000D01*
X105337900Y-79600001D02*
X105137901Y-79800000D01*
X94837900Y-52050000D02*
X94837900Y-51100000D01*
X105837900Y-122000000D02*
X105837900Y-122300001D01*
D19*
%TO.N,/B1*%
X82949723Y-44888589D02*
X89489723Y-44888589D01*
%TO.N,/B3*%
X82949723Y-49968589D02*
X89489723Y-49968589D01*
%TO.N,/B22*%
X82949723Y-98228589D02*
X89489723Y-98228589D01*
%TO.N,/B37*%
X82949723Y-136328589D02*
X89489723Y-136328589D01*
D18*
%TO.N,/JA1*%
X105337900Y-110200000D02*
X105337900Y-111000001D01*
D19*
%TO.N,/B29*%
X82949723Y-116008589D02*
X89489723Y-116008589D01*
%TO.N,/B19*%
X82949723Y-90608589D02*
X89489723Y-90608589D01*
%TO.N,/B17*%
X82949723Y-85528589D02*
X89489723Y-85528589D01*
%TO.N,/B35*%
X82949723Y-131248589D02*
X89489723Y-131248589D01*
%TO.N,/B13*%
X82949723Y-75368589D02*
X89489723Y-75368589D01*
%TO.N,/B4*%
X82949723Y-52508589D02*
X89489723Y-52508589D01*
D18*
%TO.N,/JA1*%
X105337900Y-63850000D02*
X105137900Y-64050001D01*
D19*
%TO.N,/B6*%
X82949723Y-57588589D02*
X89489723Y-57588589D01*
%TO.N,/B14*%
X82949723Y-77908589D02*
X89489723Y-77908589D01*
D18*
%TO.N,/JA1*%
X105337900Y-137700001D02*
X105337900Y-138500000D01*
X105337900Y-118900000D02*
X105137900Y-119100000D01*
%TO.N,/JA3*%
X109137900Y-63100000D02*
X109137900Y-64050000D01*
X109137900Y-71000000D02*
X109137900Y-71950000D01*
D19*
%TO.N,/B24*%
X82949723Y-103308589D02*
X89489723Y-103308589D01*
D18*
%TO.N,/JA3*%
X109137900Y-138700000D02*
X109137900Y-137800000D01*
X109137900Y-59100000D02*
X109137900Y-60050000D01*
%TO.N,P27*%
X103737900Y-135700000D02*
X104087900Y-136050000D01*
D17*
%TO.N,/JA3*%
X98837900Y-133849999D02*
X98837900Y-134800000D01*
D19*
%TO.N,/B38*%
X82949723Y-138868589D02*
X89489723Y-138868589D01*
D18*
%TO.N,/JA3*%
X109137900Y-106400000D02*
X109137900Y-107300000D01*
X109137900Y-98600000D02*
X109137900Y-99500000D01*
%TO.N,P7*%
X100538723Y-71740000D02*
X101989723Y-70289000D01*
%TO.N,/JA3*%
X98837900Y-52050000D02*
X98837900Y-51100000D01*
X109137900Y-78900000D02*
X109137900Y-79800000D01*
X109137900Y-75000000D02*
X109137900Y-75950000D01*
X109137900Y-118200000D02*
X109137900Y-119100000D01*
D19*
%TO.N,/B30*%
X82949723Y-118548589D02*
X89489723Y-118548589D01*
D20*
%TO.N,/JA3*%
X107886900Y-43249000D02*
X103092362Y-43249000D01*
D18*
X109137900Y-47100000D02*
X109137900Y-48050000D01*
X109137900Y-55100000D02*
X109137900Y-56050000D01*
D17*
%TO.N,/JA1*%
X94837899Y-133850001D02*
X94837900Y-134800000D01*
D19*
%TO.N,/B21*%
X82949723Y-95688589D02*
X89489723Y-95688589D01*
D18*
%TO.N,/JA1*%
X105337900Y-102400000D02*
X105337900Y-103200001D01*
X94837900Y-47100000D02*
X94837900Y-48085000D01*
X105337900Y-90600000D02*
X105337900Y-91400001D01*
D17*
%TO.N,P29*%
X93831900Y-135338884D02*
X93831900Y-129206825D01*
D18*
%TO.N,P8*%
X104137900Y-62000000D02*
X104837900Y-61300000D01*
%TO.N,P28*%
X102018899Y-126560176D02*
X102018899Y-137380999D01*
D17*
%TO.N,P29*%
X94243016Y-135750000D02*
X93831900Y-135338884D01*
D18*
%TO.N,P13*%
X103987900Y-81050000D02*
X108137899Y-81050000D01*
%TO.N,/JA3*%
X109137900Y-126000001D02*
X109137900Y-126900000D01*
%TO.N,P13*%
X101989723Y-83048177D02*
X103987900Y-81050000D01*
X101989723Y-85529000D02*
X101989723Y-83048177D01*
%TO.N,P8*%
X104837900Y-61300000D02*
X106943900Y-61300000D01*
%TO.N,P13*%
X100538723Y-86980000D02*
X101989723Y-85529000D01*
%TO.N,/JA1*%
X105337900Y-55850001D02*
X105137901Y-56050000D01*
D19*
%TO.N,/B28*%
X82949723Y-113468589D02*
X89489723Y-113468589D01*
D18*
%TO.N,/JA1*%
X105337900Y-125900001D02*
X105337900Y-126700000D01*
%TO.N,P7*%
X101989723Y-70289000D02*
X101989723Y-67348177D01*
%TO.N,/JA1*%
X105337900Y-91400001D02*
X105137901Y-91600000D01*
X105337900Y-107100000D02*
X105137900Y-107300000D01*
X105337900Y-103200001D02*
X105137901Y-103400000D01*
X105837900Y-122300001D02*
X105137901Y-123000000D01*
X105337899Y-75750000D02*
X105137900Y-75950000D01*
X105337900Y-98500000D02*
X105337900Y-99300000D01*
X105337900Y-59200000D02*
X105337900Y-59850001D01*
D19*
%TO.N,/B20*%
X82949723Y-93148589D02*
X89489723Y-93148589D01*
D18*
%TO.N,P4*%
X102937900Y-46300000D02*
X103137900Y-46300000D01*
%TO.N,P1*%
X97837900Y-53100000D02*
X97837900Y-56339177D01*
%TO.N,/JA1*%
X105337900Y-111000001D02*
X105137901Y-111200000D01*
X105337900Y-86700001D02*
X105337900Y-87500000D01*
%TO.N,P21*%
X104530884Y-112450000D02*
X108137900Y-112450000D01*
%TO.N,P11*%
X105362218Y-73200001D02*
X108137900Y-73200000D01*
%TO.N,P14*%
X105108723Y-84950000D02*
X108137900Y-84950000D01*
%TO.N,P11*%
X101989723Y-80449000D02*
X101989723Y-76572495D01*
%TO.N,P17*%
X100538723Y-97140002D02*
X100597899Y-97140001D01*
%TO.N,/JA1*%
X105337900Y-75000000D02*
X105337899Y-75750000D01*
D17*
%TO.N,/JA3*%
X98837900Y-138700000D02*
X98837900Y-137750000D01*
D18*
%TO.N,P19*%
X100538723Y-102220000D02*
X102968723Y-104650000D01*
%TO.N,P9*%
X103037900Y-67900000D02*
X105637900Y-65300001D01*
%TO.N,P17*%
X106943900Y-96850000D02*
X107137900Y-96656000D01*
%TO.N,/JA1*%
X105337900Y-67850000D02*
X105137900Y-68050000D01*
X105337900Y-78800000D02*
X105337900Y-79600001D01*
D19*
%TO.N,/B2*%
X82949723Y-47428589D02*
X89489723Y-47428589D01*
D18*
%TO.N,P9*%
X100538723Y-76332025D02*
X103037900Y-73832848D01*
D19*
%TO.N,/B31*%
X82949723Y-121088589D02*
X89489723Y-121088589D01*
D18*
%TO.N,/JA3*%
X98837900Y-47200000D02*
X98837900Y-48085000D01*
D20*
X100186900Y-45851000D02*
X98837900Y-47200000D01*
D17*
%TO.N,P2*%
X94602900Y-49135000D02*
X93788900Y-49949000D01*
X97837901Y-49135000D02*
X94602900Y-49135000D01*
D18*
%TO.N,P25*%
X104987900Y-128150000D02*
X107937900Y-128150000D01*
%TO.N,/JA4*%
X111137900Y-114200001D02*
X111137900Y-115100000D01*
D20*
%TO.N,/JA3*%
X108137900Y-43500000D02*
X107886900Y-43249000D01*
D17*
%TO.N,/JA4*%
X100737900Y-136900000D02*
X100737900Y-137700000D01*
D19*
%TO.N,/B23*%
X82949723Y-100768589D02*
X89489723Y-100768589D01*
D18*
%TO.N,/JA4*%
X111137900Y-82800000D02*
X111137900Y-83700000D01*
D17*
X100837899Y-137799999D02*
X100837899Y-138700001D01*
D18*
%TO.N,/JA1*%
X105337900Y-63100001D02*
X105337900Y-63850000D01*
%TO.N,/JA4*%
X111137900Y-51100000D02*
X111137900Y-52050000D01*
%TO.N,P6*%
X103837900Y-53300000D02*
X108137900Y-53300000D01*
%TO.N,/JA1*%
X105337900Y-114900000D02*
X105137900Y-115100000D01*
X105337900Y-106300001D02*
X105337900Y-107100000D01*
%TO.N,/JA4*%
X100837900Y-47100001D02*
X100837900Y-48085000D01*
X111137900Y-106400000D02*
X111137900Y-107300000D01*
D17*
%TO.N,P29*%
X97837900Y-135750000D02*
X94243016Y-135750000D01*
D18*
%TO.N,/JA4*%
X100837900Y-52050000D02*
X100837900Y-51100000D01*
D19*
%TO.N,/B25*%
X82949723Y-105848589D02*
X89489723Y-105848589D01*
D18*
%TO.N,/JA1*%
X105337900Y-47100000D02*
X105337900Y-47850000D01*
%TO.N,/JA4*%
X111137900Y-138700000D02*
X111137900Y-137700000D01*
X111137900Y-67100000D02*
X111137900Y-68050000D01*
X111137900Y-86800000D02*
X111137900Y-87700000D01*
X111137900Y-71000000D02*
X111137900Y-71950000D01*
X111137900Y-118200000D02*
X111137900Y-119100000D01*
D17*
X103987898Y-140899998D02*
X110537900Y-140899998D01*
D18*
%TO.N,/JA1*%
X105337900Y-94600000D02*
X105337900Y-95400001D01*
%TO.N,/JA3*%
X109137900Y-44050000D02*
X108687900Y-44050000D01*
%TO.N,/JA4*%
X111137900Y-94700000D02*
X111137900Y-95600000D01*
%TO.N,/JA1*%
X105337900Y-130600000D02*
X105137900Y-130800000D01*
%TO.N,P9*%
X105637900Y-65300001D02*
X108137900Y-65300001D01*
D17*
%TO.N,/JA4*%
X100737900Y-137650001D02*
X103987898Y-140899998D01*
X100737900Y-137700000D02*
X100837899Y-137799999D01*
D19*
%TO.N,/B8*%
X82949723Y-62668589D02*
X89489723Y-62668589D01*
D18*
%TO.N,/JA4*%
X111137900Y-98600000D02*
X111137900Y-99500000D01*
%TO.N,/JA1*%
X105337900Y-71000000D02*
X105337900Y-71750000D01*
D19*
%TO.N,/B33*%
X82949723Y-126168589D02*
X89489723Y-126168589D01*
D18*
%TO.N,/JA3*%
X109137900Y-94700000D02*
X109137900Y-95600000D01*
D17*
%TO.N,/JA4*%
X100737900Y-136900000D02*
X100737900Y-137650001D01*
D18*
%TO.N,P26*%
X102037900Y-125163550D02*
X103019899Y-126145549D01*
%TO.N,/JA4*%
X111137900Y-122100000D02*
X111137900Y-123000000D01*
X111137900Y-78900000D02*
X111137900Y-79800000D01*
X111137900Y-59100000D02*
X111137900Y-60050000D01*
X111137900Y-44050000D02*
X110687900Y-44050000D01*
%TO.N,P28*%
X102018899Y-137380999D02*
X104587900Y-139950000D01*
%TO.N,/JA4*%
X111137900Y-75000000D02*
X111137900Y-75950000D01*
D17*
%TO.N,P3*%
X94487901Y-45050000D02*
X93837901Y-45700000D01*
D19*
%TO.N,/B18*%
X82949723Y-88068589D02*
X89489723Y-88068589D01*
D18*
%TO.N,P17*%
X100597899Y-97140001D02*
X100887900Y-96850000D01*
%TO.N,/JA1*%
X105337900Y-134600001D02*
X105137901Y-134800000D01*
%TO.N,P21*%
X100538723Y-107299999D02*
X103981901Y-110743176D01*
%TO.N,P5*%
X101993900Y-51448984D02*
X104142884Y-49300000D01*
%TO.N,/JA1*%
X105337900Y-59850001D02*
X105137901Y-60050000D01*
X105337900Y-83500000D02*
X105137900Y-83700000D01*
%TO.N,P5*%
X100538723Y-66660000D02*
X101993900Y-65204823D01*
%TO.N,P6*%
X103437900Y-53700000D02*
X103837900Y-53300000D01*
D19*
%TO.N,/B9*%
X82949723Y-65208589D02*
X89489723Y-65208589D01*
D17*
%TO.N,/JA4*%
X100837899Y-133850001D02*
X100837899Y-134800000D01*
D18*
%TO.N,/JA3*%
X109137900Y-129900000D02*
X109137900Y-130800000D01*
X109137900Y-122100000D02*
X109137900Y-123000000D01*
%TO.N,/JA1*%
X105337900Y-138500000D02*
X105137900Y-138700000D01*
X105337900Y-129800000D02*
X105337900Y-130600000D01*
%TO.N,P26*%
X103019899Y-130539015D02*
X104530884Y-132050000D01*
%TO.N,/JA1*%
X105337900Y-67100000D02*
X105337900Y-67850000D01*
%TO.N,P9*%
X103037900Y-73832848D02*
X103037900Y-67900000D01*
%TO.N,/JA3*%
X109137900Y-90700000D02*
X109137900Y-91600000D01*
%TO.N,P24*%
X103787900Y-124250000D02*
X108137900Y-124250000D01*
%TO.N,/JA4*%
X111137900Y-129900000D02*
X111137900Y-130800000D01*
%TO.N,/JA1*%
X105337900Y-99300000D02*
X105137900Y-99500000D01*
%TO.N,P9*%
X100538723Y-76820000D02*
X100538723Y-76332025D01*
%TO.N,P26*%
X100538723Y-120000001D02*
X102037900Y-121499178D01*
%TO.N,P21*%
X103981901Y-110743176D02*
X103981900Y-111901016D01*
%TO.N,/JA3*%
X109137900Y-82800000D02*
X109137900Y-83700000D01*
%TO.N,P12*%
X103437901Y-78400000D02*
X104637901Y-77200000D01*
%TO.N,/JA2*%
X107137900Y-110200000D02*
X107137900Y-111199999D01*
%TO.N,/JA3*%
X108687900Y-44050000D02*
X108137900Y-43500000D01*
%TO.N,P4*%
X103137900Y-46300000D02*
X104137900Y-45300000D01*
D19*
%TO.N,/B12*%
X82949723Y-72828589D02*
X89489723Y-72828589D01*
D18*
%TO.N,P15*%
X103648722Y-88950001D02*
X108137900Y-88950002D01*
%TO.N,/JA3*%
X109137900Y-86800000D02*
X109137900Y-87700000D01*
%TO.N,/JA1*%
X105337900Y-51850000D02*
X105137900Y-52050000D01*
%TO.N,/JA2*%
X96837900Y-51100000D02*
X96837900Y-52050000D01*
D19*
%TO.N,/B11*%
X82949723Y-70288589D02*
X89489723Y-70288589D01*
D18*
%TO.N,P23*%
X104537900Y-121500000D02*
X105687900Y-120350000D01*
%TO.N,/JA4*%
X111137900Y-90700000D02*
X111137900Y-91600000D01*
%TO.N,/JA3*%
X109137900Y-51100000D02*
X109137900Y-52050000D01*
%TO.N,P26*%
X103019899Y-126145549D02*
X103019899Y-130539015D01*
%TO.N,/JA3*%
X98837900Y-43161001D02*
X98837900Y-44000000D01*
X109137900Y-133900000D02*
X109137900Y-134800000D01*
X109137900Y-114200001D02*
X109137900Y-115100000D01*
X109137900Y-67200000D02*
X109137900Y-68050000D01*
D17*
%TO.N,P30*%
X95187899Y-139650001D02*
X97862900Y-139650001D01*
D18*
%TO.N,/JA4*%
X111137900Y-133900000D02*
X111137900Y-134800000D01*
D19*
%TO.N,/B10*%
X82949723Y-67748589D02*
X89489723Y-67748589D01*
D17*
%TO.N,P2*%
X93788900Y-57370178D02*
X95438723Y-59020002D01*
%TO.N,P30*%
X94337900Y-140500000D02*
X95187899Y-139650001D01*
D19*
%TO.N,/B5*%
X82949723Y-55048589D02*
X89489723Y-55048589D01*
D20*
%TO.N,/JA2*%
X101738900Y-49566215D02*
X101738901Y-49899000D01*
D18*
%TO.N,P18*%
X100538723Y-99680000D02*
X101608724Y-100750000D01*
D20*
%TO.N,/JA2*%
X105006115Y-46299000D02*
X101738900Y-49566215D01*
D18*
X96837900Y-43161001D02*
X96837900Y-44000001D01*
X107137900Y-118100001D02*
X107137900Y-119100000D01*
X106687899Y-44049999D02*
X107137900Y-44049999D01*
D19*
%TO.N,/B34*%
X82949723Y-128708589D02*
X89489723Y-128708589D01*
D18*
%TO.N,/JA2*%
X107137900Y-78800000D02*
X107137900Y-79799999D01*
%TO.N,/JA4*%
X100837900Y-43161001D02*
X100837900Y-44000001D01*
D20*
%TO.N,/JA2*%
X106336900Y-46299000D02*
X105006115Y-46299000D01*
D19*
%TO.N,/B15*%
X82949723Y-80448589D02*
X89489723Y-80448589D01*
D18*
%TO.N,P8*%
X106943900Y-61300000D02*
X107137900Y-61106000D01*
D17*
%TO.N,/JA2*%
X96837901Y-138700000D02*
X96837900Y-137750000D01*
%TO.N,P29*%
X93831900Y-129206825D02*
X95438723Y-127600001D01*
D18*
%TO.N,P22*%
X101989723Y-111291000D02*
X101989723Y-113808839D01*
D19*
%TO.N,/B7*%
X82949723Y-60128589D02*
X89489723Y-60128589D01*
D18*
%TO.N,/JA2*%
X107137900Y-51000001D02*
X107137900Y-52049999D01*
%TO.N,P24*%
X103136900Y-117518178D02*
X103136900Y-123599000D01*
%TO.N,P15*%
X100538723Y-92060000D02*
X103648722Y-88950001D01*
%TO.N,P28*%
X104587900Y-139950000D02*
X108137900Y-139950000D01*
%TO.N,P7*%
X103136900Y-58001000D02*
X103837900Y-57300000D01*
D20*
%TO.N,/JA2*%
X106336900Y-46299000D02*
X107137900Y-47100000D01*
D18*
X107137901Y-125900000D02*
X107137901Y-126899999D01*
%TO.N,P22*%
X101989723Y-113808839D02*
X104530884Y-116350000D01*
%TO.N,/JA1*%
X105337900Y-51100000D02*
X105337900Y-51850000D01*
%TO.N,/JA2*%
X107137901Y-94600000D02*
X107137901Y-95599999D01*
X107137900Y-129800000D02*
X107137900Y-130799999D01*
D19*
%TO.N,/B26*%
X82949723Y-108388589D02*
X89489723Y-108388589D01*
D18*
%TO.N,/JA1*%
X105337900Y-87500000D02*
X105137900Y-87700000D01*
%TO.N,/JA2*%
X107137900Y-102400000D02*
X107137900Y-103399999D01*
X107137900Y-67100000D02*
X107137901Y-68049999D01*
%TO.N,/JA1*%
X105337900Y-118100001D02*
X105337900Y-118900000D01*
%TO.N,P1*%
X97837900Y-56339177D02*
X97998723Y-56500000D01*
%TO.N,/JA2*%
X107137900Y-86700001D02*
X107137900Y-87699999D01*
D17*
%TO.N,/JA1*%
X94837900Y-138700000D02*
X94837899Y-137850001D01*
D18*
%TO.N,P27*%
X104087900Y-136050000D02*
X107937900Y-136050000D01*
%TO.N,/JA2*%
X107137900Y-47100000D02*
X107137900Y-48050001D01*
D20*
X101738901Y-49899000D02*
X101338900Y-50299000D01*
D18*
X107137901Y-55100000D02*
X107137900Y-56049999D01*
D19*
%TO.N,/B36*%
X82949723Y-133788589D02*
X89489723Y-133788589D01*
D18*
%TO.N,/JA2*%
X107137900Y-71000000D02*
X107137900Y-71949999D01*
D19*
%TO.N,/B32*%
X82949723Y-123628589D02*
X89489723Y-123628589D01*
D20*
%TO.N,/JA2*%
X97638900Y-50299000D02*
X96837900Y-51100000D01*
D18*
X107137900Y-90600000D02*
X107137900Y-91599999D01*
%TO.N,/JA1*%
X105337900Y-133800000D02*
X105337900Y-134600001D01*
D17*
%TO.N,/JA2*%
X96837900Y-133850000D02*
X96837900Y-134800000D01*
D18*
X107137900Y-98500000D02*
X107137900Y-99499999D01*
%TO.N,P21*%
X103981900Y-111901016D02*
X104530884Y-112450000D01*
D20*
%TO.N,/JA3*%
X101738901Y-45851000D02*
X100186900Y-45851000D01*
D18*
%TO.N,/JA2*%
X107137901Y-75000000D02*
X107137900Y-75949999D01*
X107137901Y-137700000D02*
X107137900Y-138700000D01*
X107137900Y-133800000D02*
X107137900Y-134799999D01*
%TO.N,/JA4*%
X111137900Y-102500000D02*
X111137900Y-103400000D01*
%TO.N,/JA1*%
X105337900Y-47850000D02*
X105137900Y-48050000D01*
%TO.N,P17*%
X100887900Y-96850000D02*
X106943900Y-96850000D01*
%TO.N,P20*%
X100538723Y-104760001D02*
X104328723Y-108550000D01*
%TO.N,/JA2*%
X107137901Y-82700000D02*
X107137900Y-83700000D01*
%TO.N,P4*%
X104137900Y-45300000D02*
X108137900Y-45300000D01*
%TO.N,P11*%
X101989723Y-76572495D02*
X105362218Y-73200001D01*
%TO.N,/JA2*%
X107137901Y-114100000D02*
X107137901Y-115099999D01*
%TO.N,/JA4*%
X111137900Y-126000001D02*
X111137900Y-126900000D01*
X110687900Y-44050000D02*
X110137900Y-43500000D01*
%TO.N,/JA1*%
X105337900Y-55200000D02*
X105337900Y-55850001D01*
%TO.N,/JA2*%
X107137900Y-122000000D02*
X107137900Y-122999999D01*
X96837900Y-47100001D02*
X96837900Y-48085000D01*
X107137900Y-63100001D02*
X107137901Y-64049999D01*
D19*
%TO.N,P8*%
X95355527Y-74240825D02*
X100437899Y-74240826D01*
%TO.N,P10*%
X95355527Y-79320824D02*
X100437900Y-79320824D01*
%TO.N,P6*%
X95355527Y-69160824D02*
X100437900Y-69160824D01*
%TO.N,P28*%
X95355527Y-125040824D02*
X100437900Y-125040824D01*
%TO.N,P27*%
X95355527Y-122500825D02*
X100437900Y-122500824D01*
%TO.N,P25*%
X95355527Y-117420823D02*
X100437900Y-117420823D01*
%TO.N,P21*%
X95355527Y-107260823D02*
X100437901Y-107260824D01*
%TO.N,P18*%
X95355527Y-99640824D02*
X100437900Y-99640824D01*
%TO.N,P13*%
X95355527Y-86940824D02*
X100437900Y-86940824D01*
%TO.N,P23*%
X95355527Y-112340824D02*
X100437900Y-112340824D01*
%TO.N,P30*%
X95355527Y-130120825D02*
X100437899Y-130120826D01*
%TO.N,P2*%
X95355527Y-59000824D02*
X100437900Y-59000824D01*
%TO.N,P17*%
X95355527Y-97100825D02*
X100437899Y-97100826D01*
%TO.N,P12*%
X95355527Y-84400823D02*
X100437901Y-84400824D01*
%TO.N,P19*%
X95355527Y-102180824D02*
X100437900Y-102180824D01*
%TO.N,P22*%
X95355527Y-109800824D02*
X100437900Y-109800824D01*
%TO.N,P9*%
X95355527Y-76780824D02*
X100437900Y-76780824D01*
%TO.N,P29*%
X95355527Y-127580824D02*
X100437900Y-127580824D01*
%TO.N,P1*%
X95355527Y-56460824D02*
X100437900Y-56460824D01*
%TO.N,P11*%
X95355527Y-81860824D02*
X100437900Y-81860824D01*
%TO.N,P5*%
X95355527Y-66620825D02*
X100437900Y-66620825D01*
%TO.N,P16*%
X95355527Y-94560823D02*
X100437900Y-94560823D01*
%TO.N,P7*%
X95355527Y-71700824D02*
X100437900Y-71700824D01*
%TO.N,P14*%
X95355527Y-89480824D02*
X100437900Y-89480824D01*
%TO.N,P20*%
X95355527Y-104720824D02*
X100437900Y-104720824D01*
%TO.N,P4*%
X95355527Y-64080824D02*
X100437900Y-64080824D01*
%TO.N,P3*%
X95355527Y-61540823D02*
X100437901Y-61540824D01*
%TO.N,P24*%
X95355527Y-114880824D02*
X100437900Y-114880824D01*
%TO.N,P26*%
X95355527Y-119960825D02*
X100437899Y-119960826D01*
%TO.N,P15*%
X95355527Y-92020824D02*
X100437900Y-92020824D01*
D18*
%TO.N,/JA1*%
X105337900Y-71750000D02*
X105137900Y-71950000D01*
%TO.N,/JA4*%
X111137900Y-47100001D02*
X111137900Y-48050000D01*
%TO.N,/JA2*%
X107137901Y-59100000D02*
X107137901Y-60049999D01*
%TO.N,P20*%
X104328723Y-108550000D02*
X108137900Y-108550000D01*
D17*
%TO.N,P2*%
X93788900Y-49949000D02*
X93788900Y-57370178D01*
D18*
%TO.N,P26*%
X102037900Y-121499178D02*
X102037900Y-125163550D01*
D20*
%TO.N,/JA3*%
X101738900Y-44602463D02*
X101738901Y-45851000D01*
D19*
%TO.N,/B27*%
X82949723Y-110928589D02*
X89489723Y-110928589D01*
D18*
%TO.N,P11*%
X100538723Y-81900001D02*
X101989723Y-80449000D01*
%TO.N,/JA4*%
X111137900Y-110300000D02*
X111137900Y-111200000D01*
%TO.N,P22*%
X100538723Y-109840000D02*
X101989723Y-111291000D01*
D19*
%TO.N,/B16*%
X82949723Y-82988589D02*
X89489723Y-82988589D01*
D18*
%TO.N,P25*%
X104337900Y-128800000D02*
X104987900Y-128150000D01*
%TO.N,P22*%
X104530884Y-116350000D02*
X108137900Y-116350000D01*
D20*
%TO.N,/JA3*%
X103092362Y-43249000D02*
X101738900Y-44602463D01*
D18*
%TO.N,/JA4*%
X111137900Y-63100000D02*
X111137900Y-64050000D01*
%TO.N,/JA1*%
X103860900Y-44300000D02*
X104110899Y-44050000D01*
X105337900Y-95400001D02*
X105137900Y-95600001D01*
%TO.N,/JA3*%
X109137900Y-110300000D02*
X109137900Y-111200000D01*
D20*
%TO.N,/JA2*%
X101338900Y-50299000D02*
X97638900Y-50299000D01*
D18*
%TO.N,/JA3*%
X109137900Y-102500000D02*
X109137900Y-103400000D01*
%TO.N,/JA2*%
X107137900Y-106300001D02*
X107137900Y-107300000D01*
%TO.N,/JA4*%
X111137900Y-55100000D02*
X111137900Y-56050000D01*
%TO.N,P18*%
X101608724Y-100750000D02*
X108137900Y-100750000D01*
D17*
%TO.N,P30*%
X61337900Y-140500000D02*
X62187899Y-139650001D01*
D18*
%TO.N,P16*%
X69288722Y-92850000D02*
X75137899Y-92850000D01*
D17*
%TO.N,P30*%
X62187899Y-139650001D02*
X64862900Y-139650001D01*
D18*
%TO.N,P16*%
X67538723Y-94599999D02*
X69288722Y-92850000D01*
%TO.N,P5*%
X68993900Y-65204823D02*
X68993900Y-51448984D01*
%TO.N,P24*%
X70136900Y-123599000D02*
X70787900Y-124250000D01*
%TO.N,P5*%
X68993900Y-51448984D02*
X71142884Y-49300000D01*
%TO.N,P10*%
X71137900Y-70600000D02*
X72437900Y-69300000D01*
%TO.N,P24*%
X70136900Y-117518178D02*
X70136900Y-123599000D01*
%TO.N,P26*%
X71530884Y-132050000D02*
X75137900Y-132050000D01*
D17*
%TO.N,P3*%
X64837900Y-45050000D02*
X61487901Y-45050000D01*
D18*
%TO.N,P26*%
X70019899Y-130539015D02*
X71530884Y-132050000D01*
%TO.N,P28*%
X67538723Y-125080000D02*
X69018899Y-126560176D01*
%TO.N,P4*%
X71137900Y-45300000D02*
X75137900Y-45300000D01*
%TO.N,P23*%
X72687900Y-120350000D02*
X75137900Y-120350000D01*
X71137900Y-121500001D02*
X71537900Y-121500000D01*
%TO.N,P24*%
X67538723Y-114920000D02*
X70136900Y-117518178D01*
%TO.N,/JA1*%
X72337900Y-126700000D02*
X72137900Y-126900000D01*
X72337900Y-47850000D02*
X72137900Y-48050000D01*
%TO.N,P28*%
X71587900Y-139950000D02*
X75137900Y-139950000D01*
%TO.N,/JA1*%
X72337900Y-106300001D02*
X72337900Y-107100000D01*
X72337900Y-114100001D02*
X72337900Y-114900000D01*
X72337900Y-67850000D02*
X72137900Y-68050000D01*
X72337900Y-79600001D02*
X72137901Y-79800000D01*
X61837900Y-52050000D02*
X61837900Y-51100000D01*
X72337900Y-129800000D02*
X72337900Y-130600000D01*
D19*
%TO.N,/B36*%
X49949723Y-133788589D02*
X56489723Y-133788589D01*
%TO.N,/B1*%
X49949723Y-44888589D02*
X56489723Y-44888589D01*
%TO.N,/B33*%
X49949723Y-126168589D02*
X56489723Y-126168589D01*
%TO.N,/B3*%
X49949723Y-49968589D02*
X56489723Y-49968589D01*
%TO.N,/B22*%
X49949723Y-98228589D02*
X56489723Y-98228589D01*
%TO.N,/B37*%
X49949723Y-136328589D02*
X56489723Y-136328589D01*
D18*
%TO.N,/JA1*%
X72337900Y-110200000D02*
X72337900Y-111000001D01*
D19*
%TO.N,/B19*%
X49949723Y-90608589D02*
X56489723Y-90608589D01*
%TO.N,/B9*%
X49949723Y-65208589D02*
X56489723Y-65208589D01*
%TO.N,/B17*%
X49949723Y-85528589D02*
X56489723Y-85528589D01*
%TO.N,/B35*%
X49949723Y-131248589D02*
X56489723Y-131248589D01*
D18*
%TO.N,/JA1*%
X72337900Y-63850000D02*
X72137900Y-64050001D01*
D19*
%TO.N,/B6*%
X49949723Y-57588589D02*
X56489723Y-57588589D01*
%TO.N,/B20*%
X49949723Y-93148589D02*
X56489723Y-93148589D01*
D18*
%TO.N,/JA1*%
X72337900Y-137700001D02*
X72337900Y-138500000D01*
D19*
%TO.N,/B7*%
X49949723Y-60128589D02*
X56489723Y-60128589D01*
D18*
%TO.N,/JA1*%
X72337900Y-118900000D02*
X72137900Y-119100000D01*
%TO.N,/JA3*%
X65837900Y-43161001D02*
X65837900Y-44000000D01*
X76137900Y-63100000D02*
X76137900Y-64050000D01*
%TO.N,P26*%
X69037900Y-125163550D02*
X70019899Y-126145549D01*
%TO.N,/JA3*%
X76137900Y-67200000D02*
X76137900Y-68050000D01*
X76137900Y-71000000D02*
X76137900Y-71950000D01*
D19*
%TO.N,/B24*%
X49949723Y-103308589D02*
X56489723Y-103308589D01*
D18*
%TO.N,/JA3*%
X76137900Y-138700000D02*
X76137900Y-137800000D01*
X76137900Y-59100000D02*
X76137900Y-60050000D01*
X76137900Y-55100000D02*
X76137900Y-56050000D01*
D17*
X65837900Y-133849999D02*
X65837900Y-134800000D01*
D19*
%TO.N,/B28*%
X49949723Y-113468589D02*
X56489723Y-113468589D01*
%TO.N,/B38*%
X49949723Y-138868589D02*
X56489723Y-138868589D01*
D18*
%TO.N,/JA3*%
X76137900Y-106400000D02*
X76137900Y-107300000D01*
X75687900Y-44050000D02*
X75137900Y-43500000D01*
D20*
X67186900Y-45851000D02*
X65837900Y-47200000D01*
D18*
X76137900Y-78900000D02*
X76137900Y-79800000D01*
%TO.N,/JA1*%
X72337900Y-55200000D02*
X72337900Y-55850001D01*
%TO.N,/JA3*%
X76137900Y-75000000D02*
X76137900Y-75950000D01*
X76137900Y-129900000D02*
X76137900Y-130800000D01*
X76137900Y-47100000D02*
X76137900Y-48050000D01*
X76137900Y-118200000D02*
X76137900Y-119100000D01*
%TO.N,P15*%
X70648722Y-88950001D02*
X75137900Y-88950002D01*
D19*
%TO.N,/B30*%
X49949723Y-118548589D02*
X56489723Y-118548589D01*
D18*
%TO.N,/JA3*%
X65837900Y-47200000D02*
X65837900Y-48085000D01*
D20*
X74886900Y-43249000D02*
X70092362Y-43249000D01*
D17*
%TO.N,/JA1*%
X61837899Y-133850001D02*
X61837900Y-134800000D01*
D18*
X72337900Y-51850000D02*
X72137900Y-52050000D01*
%TO.N,P27*%
X70737900Y-135700000D02*
X71087900Y-136050000D01*
%TO.N,/JA1*%
X72337900Y-90600000D02*
X72337900Y-91400001D01*
%TO.N,/JA3*%
X76137900Y-90700000D02*
X76137900Y-91600000D01*
%TO.N,P18*%
X68608724Y-100750000D02*
X75137900Y-100750000D01*
%TO.N,P13*%
X70987900Y-81050000D02*
X75137899Y-81050000D01*
%TO.N,/JA3*%
X76137900Y-126000001D02*
X76137900Y-126900000D01*
%TO.N,P13*%
X68989723Y-83048177D02*
X70987900Y-81050000D01*
X68989723Y-85529000D02*
X68989723Y-83048177D01*
%TO.N,P8*%
X71837900Y-61300000D02*
X73943900Y-61300000D01*
%TO.N,P13*%
X67538723Y-86980000D02*
X68989723Y-85529000D01*
%TO.N,/JA1*%
X72337900Y-125900001D02*
X72337900Y-126700000D01*
X72337900Y-138500000D02*
X72137900Y-138700000D01*
%TO.N,P7*%
X68989723Y-70289000D02*
X68989723Y-67348177D01*
%TO.N,/JA1*%
X72337900Y-91400001D02*
X72137901Y-91600000D01*
X72337900Y-103200001D02*
X72137901Y-103400000D01*
X72837900Y-122300001D02*
X72137901Y-123000000D01*
X72337900Y-98500000D02*
X72337900Y-99300000D01*
D19*
%TO.N,/B27*%
X49949723Y-110928589D02*
X56489723Y-110928589D01*
D18*
%TO.N,P4*%
X69937900Y-46300000D02*
X70137900Y-46300000D01*
%TO.N,P1*%
X64837900Y-53100000D02*
X64837900Y-56339177D01*
%TO.N,P6*%
X70837900Y-53300000D02*
X75137900Y-53300000D01*
%TO.N,/JA1*%
X72337900Y-86700001D02*
X72337900Y-87500000D01*
%TO.N,P21*%
X71530884Y-112450000D02*
X75137900Y-112450000D01*
%TO.N,P8*%
X73943900Y-61300000D02*
X74137900Y-61106000D01*
%TO.N,P11*%
X72362218Y-73200001D02*
X75137900Y-73200000D01*
%TO.N,P17*%
X67538723Y-97140002D02*
X67597899Y-97140001D01*
%TO.N,/JA1*%
X72337900Y-75000000D02*
X72337899Y-75750000D01*
D17*
%TO.N,/JA3*%
X65837900Y-138700000D02*
X65837900Y-137750000D01*
D18*
%TO.N,P19*%
X67538723Y-102220000D02*
X69968723Y-104650000D01*
%TO.N,P9*%
X67538723Y-76820000D02*
X67538723Y-76332025D01*
%TO.N,P17*%
X73943900Y-96850000D02*
X74137900Y-96656000D01*
X67597899Y-97140001D02*
X67887900Y-96850000D01*
%TO.N,/JA1*%
X72337900Y-78800000D02*
X72337900Y-79600001D01*
%TO.N,P9*%
X70037900Y-73832848D02*
X70037900Y-67900000D01*
X67538723Y-76332025D02*
X70037900Y-73832848D01*
%TO.N,P5*%
X71142884Y-49300000D02*
X75137900Y-49300000D01*
D19*
%TO.N,/B18*%
X49949723Y-88068589D02*
X56489723Y-88068589D01*
D18*
%TO.N,P18*%
X67538723Y-99680000D02*
X68608724Y-100750000D01*
D17*
%TO.N,P2*%
X61602900Y-49135000D02*
X60788900Y-49949000D01*
X60788900Y-57370178D02*
X62438723Y-59020002D01*
X64837901Y-49135000D02*
X61602900Y-49135000D01*
D18*
%TO.N,P25*%
X71987900Y-128150000D02*
X74937900Y-128150000D01*
%TO.N,/JA4*%
X78137900Y-114200001D02*
X78137900Y-115100000D01*
%TO.N,P7*%
X67538723Y-71740000D02*
X68989723Y-70289000D01*
%TO.N,P26*%
X69037900Y-121499178D02*
X69037900Y-125163550D01*
D20*
%TO.N,/JA3*%
X75137900Y-43500000D02*
X74886900Y-43249000D01*
D17*
%TO.N,/JA4*%
X67737900Y-136900000D02*
X67737900Y-137700000D01*
D19*
%TO.N,/B23*%
X49949723Y-100768589D02*
X56489723Y-100768589D01*
D18*
%TO.N,/JA4*%
X78137900Y-82800000D02*
X78137900Y-83700000D01*
D17*
X67837899Y-137799999D02*
X67837899Y-138700001D01*
D18*
%TO.N,/JA1*%
X72337900Y-63100001D02*
X72337900Y-63850000D01*
%TO.N,/JA4*%
X78137900Y-51100000D02*
X78137900Y-52050000D01*
%TO.N,/JA1*%
X72337900Y-130600000D02*
X72137900Y-130800000D01*
%TO.N,/JA4*%
X78137900Y-106400000D02*
X78137900Y-107300000D01*
D17*
%TO.N,P29*%
X64837900Y-135750000D02*
X61243016Y-135750000D01*
D18*
%TO.N,/JA4*%
X67837900Y-52050000D02*
X67837900Y-51100000D01*
D19*
%TO.N,/B25*%
X49949723Y-105848589D02*
X56489723Y-105848589D01*
D18*
%TO.N,/JA4*%
X78137900Y-138700000D02*
X78137900Y-137700000D01*
X78137900Y-67100000D02*
X78137900Y-68050000D01*
X67837900Y-43161001D02*
X67837900Y-44000001D01*
X78137900Y-86800000D02*
X78137900Y-87700000D01*
X78137900Y-71000000D02*
X78137900Y-71950000D01*
X78137900Y-133900000D02*
X78137900Y-134800000D01*
X78137900Y-118200000D02*
X78137900Y-119100000D01*
%TO.N,/JA1*%
X71110899Y-44050000D02*
X72137900Y-44050000D01*
D17*
%TO.N,/JA4*%
X70987898Y-140899998D02*
X77537900Y-140899998D01*
D18*
%TO.N,/JA1*%
X70860900Y-44300000D02*
X71110899Y-44050000D01*
X72337900Y-94600000D02*
X72337900Y-95400001D01*
%TO.N,/JA3*%
X76137900Y-44050000D02*
X75687900Y-44050000D01*
%TO.N,/JA1*%
X61837900Y-43161001D02*
X61837900Y-44000000D01*
D17*
%TO.N,P2*%
X60788900Y-49949000D02*
X60788900Y-57370178D01*
D18*
%TO.N,P9*%
X72637900Y-65300001D02*
X75137900Y-65300001D01*
%TO.N,/JA1*%
X72337900Y-55850001D02*
X72137901Y-56050000D01*
D17*
%TO.N,/JA4*%
X67737900Y-137650001D02*
X70987898Y-140899998D01*
X67737900Y-137700000D02*
X67837899Y-137799999D01*
D19*
%TO.N,/B8*%
X49949723Y-62668589D02*
X56489723Y-62668589D01*
D18*
%TO.N,P21*%
X70981901Y-110743176D02*
X70981900Y-111901016D01*
%TO.N,/JA4*%
X78137900Y-98600000D02*
X78137900Y-99500000D01*
D19*
%TO.N,/B26*%
X49949723Y-108388589D02*
X56489723Y-108388589D01*
D18*
%TO.N,/JA1*%
X72337900Y-71000000D02*
X72337900Y-71750000D01*
%TO.N,/JA3*%
X76137900Y-94700000D02*
X76137900Y-95600000D01*
%TO.N,/JA4*%
X78137900Y-122100000D02*
X78137900Y-123000000D01*
X78137900Y-59100000D02*
X78137900Y-60050000D01*
X78137900Y-44050000D02*
X77687900Y-44050000D01*
%TO.N,P11*%
X68989723Y-80449000D02*
X68989723Y-76572495D01*
%TO.N,/JA4*%
X78137900Y-75000000D02*
X78137900Y-75950000D01*
%TO.N,/JA1*%
X72337900Y-134600001D02*
X72137901Y-134800000D01*
%TO.N,P21*%
X67538723Y-107299999D02*
X70981901Y-110743176D01*
%TO.N,P8*%
X71137900Y-62000000D02*
X71837900Y-61300000D01*
%TO.N,P19*%
X69968723Y-104650000D02*
X75137899Y-104650000D01*
%TO.N,/JA1*%
X72337900Y-59850001D02*
X72137901Y-60050000D01*
D17*
%TO.N,P3*%
X61487901Y-45050000D02*
X60837901Y-45700000D01*
D18*
%TO.N,/JA1*%
X72337900Y-83500000D02*
X72137900Y-83700000D01*
%TO.N,P7*%
X70136900Y-66201000D02*
X70136900Y-58001000D01*
%TO.N,P5*%
X67538723Y-66660000D02*
X68993900Y-65204823D01*
%TO.N,P6*%
X70437900Y-53700000D02*
X70837900Y-53300000D01*
%TO.N,/JA1*%
X72337900Y-47100000D02*
X72337900Y-47850000D01*
D17*
%TO.N,/JA4*%
X67837899Y-133850001D02*
X67837899Y-134800000D01*
D18*
%TO.N,/JA3*%
X65837900Y-52050000D02*
X65837900Y-51100000D01*
D19*
%TO.N,/B4*%
X49949723Y-52508589D02*
X56489723Y-52508589D01*
D18*
%TO.N,/JA3*%
X76137900Y-122100000D02*
X76137900Y-123000000D01*
D19*
%TO.N,P10*%
X62355527Y-79320824D02*
X67437900Y-79320824D01*
%TO.N,P28*%
X62355527Y-125040824D02*
X67437900Y-125040824D01*
%TO.N,P27*%
X62355527Y-122500825D02*
X67437900Y-122500824D01*
%TO.N,P21*%
X62355527Y-107260823D02*
X67437901Y-107260824D01*
%TO.N,P25*%
X62355527Y-117420823D02*
X67437900Y-117420823D01*
%TO.N,P8*%
X62355527Y-74240825D02*
X67437899Y-74240826D01*
%TO.N,P23*%
X62355527Y-112340824D02*
X67437900Y-112340824D01*
%TO.N,P6*%
X62355527Y-69160824D02*
X67437900Y-69160824D01*
%TO.N,P30*%
X62355527Y-130120825D02*
X67437899Y-130120826D01*
%TO.N,P2*%
X62355527Y-59000824D02*
X67437900Y-59000824D01*
%TO.N,P17*%
X62355527Y-97100825D02*
X67437899Y-97100826D01*
%TO.N,P19*%
X62355527Y-102180824D02*
X67437900Y-102180824D01*
%TO.N,P12*%
X62355527Y-84400823D02*
X67437901Y-84400824D01*
%TO.N,P22*%
X62355527Y-109800824D02*
X67437900Y-109800824D01*
%TO.N,P9*%
X62355527Y-76780824D02*
X67437900Y-76780824D01*
%TO.N,P29*%
X62355527Y-127580824D02*
X67437900Y-127580824D01*
%TO.N,P1*%
X62355527Y-56460824D02*
X67437900Y-56460824D01*
%TO.N,P11*%
X62355527Y-81860824D02*
X67437900Y-81860824D01*
%TO.N,P7*%
X62355527Y-71700824D02*
X67437900Y-71700824D01*
%TO.N,P5*%
X62355527Y-66620825D02*
X67437900Y-66620825D01*
%TO.N,P16*%
X62355527Y-94560823D02*
X67437900Y-94560823D01*
%TO.N,P14*%
X62355527Y-89480824D02*
X67437900Y-89480824D01*
%TO.N,P20*%
X62355527Y-104720824D02*
X67437900Y-104720824D01*
%TO.N,P18*%
X62355527Y-99640824D02*
X67437900Y-99640824D01*
%TO.N,P4*%
X62355527Y-64080824D02*
X67437900Y-64080824D01*
%TO.N,P3*%
X62355527Y-61540823D02*
X67437901Y-61540824D01*
%TO.N,P13*%
X62355527Y-86940824D02*
X67437900Y-86940824D01*
%TO.N,P24*%
X62355527Y-114880824D02*
X67437900Y-114880824D01*
%TO.N,P26*%
X62355527Y-119960825D02*
X67437899Y-119960826D01*
%TO.N,P15*%
X62355527Y-92020824D02*
X67437900Y-92020824D01*
D18*
%TO.N,/JA1*%
X72337900Y-67100000D02*
X72337900Y-67850000D01*
%TO.N,P28*%
X69018899Y-137380999D02*
X71587900Y-139950000D01*
%TO.N,/JA1*%
X72337900Y-99300000D02*
X72137900Y-99500000D01*
D19*
%TO.N,/B2*%
X49949723Y-47428589D02*
X56489723Y-47428589D01*
D18*
%TO.N,P26*%
X67538723Y-120000001D02*
X69037900Y-121499178D01*
%TO.N,/JA3*%
X76137900Y-51100000D02*
X76137900Y-52050000D01*
X76137900Y-82800000D02*
X76137900Y-83700000D01*
%TO.N,P25*%
X71337900Y-128800000D02*
X71987900Y-128150000D01*
%TO.N,/JA2*%
X74137900Y-110200000D02*
X74137900Y-111199999D01*
D19*
%TO.N,/B12*%
X49949723Y-72828589D02*
X56489723Y-72828589D01*
D18*
%TO.N,/JA3*%
X76137900Y-86800000D02*
X76137900Y-87700000D01*
%TO.N,/JA2*%
X63837900Y-51100000D02*
X63837900Y-52050000D01*
D19*
%TO.N,/B11*%
X49949723Y-70288589D02*
X56489723Y-70288589D01*
D18*
%TO.N,P23*%
X71537900Y-121500000D02*
X72687900Y-120350000D01*
%TO.N,/JA1*%
X61837900Y-47100000D02*
X61837900Y-48085000D01*
%TO.N,P9*%
X70037900Y-67900000D02*
X72637900Y-65300001D01*
%TO.N,/JA4*%
X78137900Y-90700000D02*
X78137900Y-91600000D01*
D17*
%TO.N,P29*%
X61243016Y-135750000D02*
X60831900Y-135338884D01*
D18*
%TO.N,P26*%
X70019899Y-126145549D02*
X70019899Y-130539015D01*
%TO.N,/JA1*%
X72337900Y-114900000D02*
X72137900Y-115100000D01*
%TO.N,/JA3*%
X76137900Y-114200001D02*
X76137900Y-115100000D01*
%TO.N,/JA1*%
X72337900Y-71750000D02*
X72137900Y-71950000D01*
X72337900Y-82700001D02*
X72337900Y-83500000D01*
X72337900Y-102400000D02*
X72337900Y-103200001D01*
D19*
%TO.N,/B10*%
X49949723Y-67748589D02*
X56489723Y-67748589D01*
D18*
%TO.N,/JA1*%
X72337900Y-107100000D02*
X72137900Y-107300000D01*
D19*
%TO.N,/B5*%
X49949723Y-55048589D02*
X56489723Y-55048589D01*
D17*
%TO.N,/JA4*%
X67737900Y-136900000D02*
X67737900Y-137650001D01*
D20*
%TO.N,/JA2*%
X68738900Y-49566215D02*
X68738901Y-49899000D01*
X72006115Y-46299000D02*
X68738900Y-49566215D01*
D18*
X63837900Y-43161001D02*
X63837900Y-44000001D01*
X74137900Y-118100001D02*
X74137900Y-119100000D01*
X73687899Y-44049999D02*
X74137900Y-44049999D01*
D19*
%TO.N,/B34*%
X49949723Y-128708589D02*
X56489723Y-128708589D01*
%TO.N,/B31*%
X49949723Y-121088589D02*
X56489723Y-121088589D01*
D20*
%TO.N,/JA2*%
X73336900Y-46299000D02*
X72006115Y-46299000D01*
D18*
%TO.N,P14*%
X72108723Y-84950000D02*
X75137900Y-84950000D01*
D19*
%TO.N,/B21*%
X49949723Y-95688589D02*
X56489723Y-95688589D01*
%TO.N,/B15*%
X49949723Y-80448589D02*
X56489723Y-80448589D01*
D17*
%TO.N,/JA2*%
X63837901Y-138700000D02*
X63837900Y-137750000D01*
%TO.N,P29*%
X60831900Y-129206825D02*
X62438723Y-127600001D01*
D18*
%TO.N,P22*%
X68989723Y-111291000D02*
X68989723Y-113808839D01*
%TO.N,/JA3*%
X76137900Y-133900000D02*
X76137900Y-134800000D01*
%TO.N,/JA4*%
X78137900Y-94700000D02*
X78137900Y-95600000D01*
%TO.N,/JA2*%
X74137900Y-51000001D02*
X74137900Y-52049999D01*
%TO.N,P12*%
X71637901Y-77200000D02*
X75137900Y-77200000D01*
%TO.N,P15*%
X67538723Y-92060000D02*
X70648722Y-88950001D01*
%TO.N,P7*%
X70136900Y-58001000D02*
X70837900Y-57300000D01*
D20*
%TO.N,/JA2*%
X73336900Y-46299000D02*
X74137900Y-47100000D01*
D18*
X74137901Y-125900000D02*
X74137901Y-126899999D01*
D19*
%TO.N,/B29*%
X49949723Y-116008589D02*
X56489723Y-116008589D01*
D18*
%TO.N,P22*%
X68989723Y-113808839D02*
X71530884Y-116350000D01*
%TO.N,/JA1*%
X72337900Y-51100000D02*
X72337900Y-51850000D01*
%TO.N,/JA2*%
X74137901Y-94600000D02*
X74137901Y-95599999D01*
%TO.N,/JA1*%
X72837900Y-122000000D02*
X72837900Y-122300001D01*
%TO.N,/JA2*%
X74137900Y-129800000D02*
X74137900Y-130799999D01*
%TO.N,/JA1*%
X72337900Y-87500000D02*
X72137900Y-87700000D01*
%TO.N,/JA2*%
X63837900Y-47100001D02*
X63837900Y-48085000D01*
X74137901Y-82700000D02*
X74137900Y-83700000D01*
D19*
%TO.N,/B13*%
X49949723Y-75368589D02*
X56489723Y-75368589D01*
D18*
%TO.N,/JA2*%
X74137900Y-102400000D02*
X74137900Y-103399999D01*
X74137900Y-67100000D02*
X74137901Y-68049999D01*
%TO.N,P24*%
X70787900Y-124250000D02*
X75137900Y-124250000D01*
%TO.N,/JA1*%
X72337900Y-118100001D02*
X72337900Y-118900000D01*
%TO.N,P1*%
X64837900Y-56339177D02*
X64998723Y-56500000D01*
%TO.N,/JA2*%
X74137900Y-86700001D02*
X74137900Y-87699999D01*
D19*
%TO.N,/B14*%
X49949723Y-77908589D02*
X56489723Y-77908589D01*
D17*
%TO.N,/JA1*%
X61837900Y-138700000D02*
X61837899Y-137850001D01*
D18*
%TO.N,P27*%
X71087900Y-136050000D02*
X74937900Y-136050000D01*
%TO.N,P7*%
X70837900Y-57300000D02*
X75137900Y-57300000D01*
%TO.N,/JA2*%
X74137900Y-47100000D02*
X74137900Y-48050001D01*
%TO.N,/JA4*%
X78137900Y-78900000D02*
X78137900Y-79800000D01*
D20*
%TO.N,/JA2*%
X68738901Y-49899000D02*
X68338900Y-50299000D01*
D18*
X74137901Y-137700000D02*
X74137900Y-138700000D01*
%TO.N,P7*%
X68989723Y-67348177D02*
X70136900Y-66201000D01*
%TO.N,/JA2*%
X74137901Y-55100000D02*
X74137900Y-56049999D01*
%TO.N,/JA3*%
X76137900Y-102500000D02*
X76137900Y-103400000D01*
%TO.N,/JA2*%
X74137900Y-71000000D02*
X74137900Y-71949999D01*
%TO.N,/JA3*%
X76137900Y-98600000D02*
X76137900Y-99500000D01*
D19*
%TO.N,/B32*%
X49949723Y-123628589D02*
X56489723Y-123628589D01*
D20*
%TO.N,/JA2*%
X64638900Y-50299000D02*
X63837900Y-51100000D01*
D18*
%TO.N,P10*%
X72437900Y-69300000D02*
X75137900Y-69300000D01*
%TO.N,/JA2*%
X74137900Y-90600000D02*
X74137900Y-91599999D01*
%TO.N,/JA1*%
X72337900Y-133800000D02*
X72337900Y-134600001D01*
D17*
%TO.N,/JA2*%
X63837900Y-133850000D02*
X63837900Y-134800000D01*
D18*
X74137900Y-98500000D02*
X74137900Y-99499999D01*
%TO.N,P21*%
X70981900Y-111901016D02*
X71530884Y-112450000D01*
D20*
%TO.N,/JA3*%
X68738901Y-45851000D02*
X67186900Y-45851000D01*
D18*
%TO.N,/JA2*%
X74137901Y-75000000D02*
X74137900Y-75949999D01*
X74137900Y-133800000D02*
X74137900Y-134799999D01*
%TO.N,/JA4*%
X67837900Y-47100001D02*
X67837900Y-48085000D01*
%TO.N,/JA1*%
X72337900Y-59200000D02*
X72337900Y-59850001D01*
%TO.N,/JA4*%
X78137900Y-102500000D02*
X78137900Y-103400000D01*
%TO.N,P17*%
X67887900Y-96850000D02*
X73943900Y-96850000D01*
%TO.N,/JA2*%
X74137900Y-78800000D02*
X74137900Y-79799999D01*
%TO.N,P20*%
X67538723Y-104760001D02*
X71328723Y-108550000D01*
%TO.N,P11*%
X68989723Y-76572495D02*
X72362218Y-73200001D01*
%TO.N,/JA2*%
X74137901Y-114100000D02*
X74137901Y-115099999D01*
%TO.N,/JA4*%
X78137900Y-126000001D02*
X78137900Y-126900000D01*
%TO.N,/JA1*%
X72337900Y-111000001D02*
X72137901Y-111200000D01*
%TO.N,/JA4*%
X77687900Y-44050000D02*
X77137900Y-43500000D01*
%TO.N,/JA2*%
X74137900Y-122000000D02*
X74137900Y-122999999D01*
X74137900Y-63100001D02*
X74137901Y-64049999D01*
%TO.N,P4*%
X70137900Y-46300000D02*
X71137900Y-45300000D01*
%TO.N,/JA4*%
X78137900Y-47100001D02*
X78137900Y-48050000D01*
%TO.N,/JA2*%
X74137901Y-59100000D02*
X74137901Y-60049999D01*
%TO.N,P20*%
X71328723Y-108550000D02*
X75137900Y-108550000D01*
D17*
%TO.N,P29*%
X60831900Y-135338884D02*
X60831900Y-129206825D01*
D20*
%TO.N,/JA3*%
X68738900Y-44602463D02*
X68738901Y-45851000D01*
D18*
%TO.N,P11*%
X67538723Y-81900001D02*
X68989723Y-80449000D01*
%TO.N,/JA4*%
X78137900Y-110300000D02*
X78137900Y-111200000D01*
%TO.N,P12*%
X70437901Y-78400000D02*
X71637901Y-77200000D01*
%TO.N,P22*%
X67538723Y-109840000D02*
X68989723Y-111291000D01*
%TO.N,P14*%
X67538723Y-89520000D02*
X72108723Y-84950000D01*
D19*
%TO.N,/B16*%
X49949723Y-82988589D02*
X56489723Y-82988589D01*
D18*
%TO.N,/JA1*%
X72337899Y-75750000D02*
X72137900Y-75950000D01*
%TO.N,P22*%
X71530884Y-116350000D02*
X75137900Y-116350000D01*
%TO.N,P28*%
X69018899Y-126560176D02*
X69018899Y-137380999D01*
D20*
%TO.N,/JA3*%
X70092362Y-43249000D02*
X68738900Y-44602463D01*
D18*
%TO.N,/JA4*%
X78137900Y-63100000D02*
X78137900Y-64050000D01*
%TO.N,/JA1*%
X72337900Y-95400001D02*
X72137900Y-95600001D01*
%TO.N,/JA4*%
X78137900Y-129900000D02*
X78137900Y-130800000D01*
%TO.N,/JA3*%
X76137900Y-110300000D02*
X76137900Y-111200000D01*
D20*
%TO.N,/JA2*%
X68338900Y-50299000D02*
X64638900Y-50299000D01*
D18*
X74137900Y-106300001D02*
X74137900Y-107300000D01*
%TO.N,/JA4*%
X78137900Y-55100000D02*
X78137900Y-56050000D01*
D19*
%TO.N,P2*%
X128355527Y-59000824D02*
X133437900Y-59000824D01*
D17*
X126788900Y-49949000D02*
X126788900Y-57370178D01*
X130837901Y-49135000D02*
X127602900Y-49135000D01*
X126788900Y-57370178D02*
X128438723Y-59020002D01*
X127602900Y-49135000D02*
X126788900Y-49949000D01*
D19*
%TO.N,P25*%
X128355527Y-117420823D02*
X133437900Y-117420823D01*
D18*
X137987900Y-128150000D02*
X140937900Y-128150000D01*
X137337900Y-128800000D02*
X137987900Y-128150000D01*
D19*
%TO.N,P30*%
X128355527Y-130120825D02*
X133437899Y-130120826D01*
D17*
X128187899Y-139650001D02*
X130862900Y-139650001D01*
X127337900Y-140500000D02*
X128187899Y-139650001D01*
%TO.N,P3*%
X130837900Y-45050000D02*
X127487901Y-45050000D01*
X127487901Y-45050000D02*
X126837901Y-45700000D01*
D19*
X128355527Y-61540823D02*
X133437901Y-61540824D01*
D18*
%TO.N,P16*%
X133538723Y-94599999D02*
X135288722Y-92850000D01*
X135288722Y-92850000D02*
X141137899Y-92850000D01*
D19*
X128355527Y-94560823D02*
X133437900Y-94560823D01*
D18*
%TO.N,P13*%
X134989723Y-83048177D02*
X136987900Y-81050000D01*
X133538723Y-86980000D02*
X134989723Y-85529000D01*
D19*
X128355527Y-86940824D02*
X133437900Y-86940824D01*
D18*
X134989723Y-85529000D02*
X134989723Y-83048177D01*
X136987900Y-81050000D02*
X141137899Y-81050000D01*
%TO.N,P18*%
X134608724Y-100750000D02*
X141137900Y-100750000D01*
D19*
X128355527Y-99640824D02*
X133437900Y-99640824D01*
D18*
X133538723Y-99680000D02*
X134608724Y-100750000D01*
%TO.N,P1*%
X130837900Y-56339177D02*
X130998723Y-56500000D01*
D19*
X128355527Y-56460824D02*
X133437900Y-56460824D01*
D18*
X130837900Y-53100000D02*
X130837900Y-56339177D01*
D19*
%TO.N,P29*%
X128355527Y-127580824D02*
X133437900Y-127580824D01*
D17*
X130837900Y-135750000D02*
X127243016Y-135750000D01*
X127243016Y-135750000D02*
X126831900Y-135338884D01*
X126831900Y-135338884D02*
X126831900Y-129206825D01*
X126831900Y-129206825D02*
X128438723Y-127600001D01*
D18*
%TO.N,P8*%
X139943900Y-61300000D02*
X140137900Y-61106000D01*
X137137900Y-62000000D02*
X137837900Y-61300000D01*
X137837900Y-61300000D02*
X139943900Y-61300000D01*
D19*
X128355527Y-74240825D02*
X133437899Y-74240826D01*
D18*
%TO.N,P15*%
X133538723Y-92060000D02*
X136648722Y-88950001D01*
X136648722Y-88950001D02*
X141137900Y-88950002D01*
D19*
X128355527Y-92020824D02*
X133437900Y-92020824D01*
%TO.N,P4*%
X128355527Y-64080824D02*
X133437900Y-64080824D01*
D18*
X135937900Y-46300000D02*
X136137900Y-46300000D01*
X136137900Y-46300000D02*
X137137900Y-45300000D01*
X137137900Y-45300000D02*
X141137900Y-45300000D01*
%TO.N,P27*%
X137087900Y-136050000D02*
X140937900Y-136050000D01*
X136737900Y-135700000D02*
X137087900Y-136050000D01*
D19*
X128355527Y-122500825D02*
X133437900Y-122500824D01*
%TO.N,P7*%
X128355527Y-71700824D02*
X133437900Y-71700824D01*
D18*
X136136900Y-66201000D02*
X136136900Y-58001000D01*
X134989723Y-70289000D02*
X134989723Y-67348177D01*
X134989723Y-67348177D02*
X136136900Y-66201000D01*
X133538723Y-71740000D02*
X134989723Y-70289000D01*
X136837900Y-57300000D02*
X141137900Y-57300000D01*
X136136900Y-58001000D02*
X136837900Y-57300000D01*
D19*
%TO.N,P26*%
X128355527Y-119960825D02*
X133437899Y-119960826D01*
D18*
X135037900Y-121499178D02*
X135037900Y-125163550D01*
X133538723Y-120000001D02*
X135037900Y-121499178D01*
X137530884Y-132050000D02*
X141137900Y-132050000D01*
X136019899Y-126145549D02*
X136019899Y-130539015D01*
X136019899Y-130539015D02*
X137530884Y-132050000D01*
X135037900Y-125163550D02*
X136019899Y-126145549D01*
%TO.N,P28*%
X133538723Y-125080000D02*
X135018899Y-126560176D01*
D19*
X128355527Y-125040824D02*
X133437900Y-125040824D01*
D18*
X135018899Y-126560176D02*
X135018899Y-137380999D01*
X137587900Y-139950000D02*
X141137900Y-139950000D01*
X135018899Y-137380999D02*
X137587900Y-139950000D01*
%TO.N,P10*%
X137137900Y-70600000D02*
X138437900Y-69300000D01*
X138437900Y-69300000D02*
X141137900Y-69300000D01*
D19*
X128355527Y-79320824D02*
X133437900Y-79320824D01*
D18*
%TO.N,P24*%
X136136900Y-123599000D02*
X136787900Y-124250000D01*
X133538723Y-114920000D02*
X136136900Y-117518178D01*
X136787900Y-124250000D02*
X141137900Y-124250000D01*
X136136900Y-117518178D02*
X136136900Y-123599000D01*
D19*
X128355527Y-114880824D02*
X133437900Y-114880824D01*
%TO.N,P14*%
X128355527Y-89480824D02*
X133437900Y-89480824D01*
D18*
X133538723Y-89520000D02*
X138108723Y-84950000D01*
X138108723Y-84950000D02*
X141137900Y-84950000D01*
%TO.N,P5*%
X137142884Y-49300000D02*
X141137900Y-49300000D01*
X134993900Y-51448984D02*
X137142884Y-49300000D01*
X134993900Y-65204823D02*
X134993900Y-51448984D01*
D19*
X128355527Y-66620825D02*
X133437900Y-66620825D01*
D18*
X133538723Y-66660000D02*
X134993900Y-65204823D01*
%TO.N,P12*%
X137637901Y-77200000D02*
X141137900Y-77200000D01*
X136437901Y-78400000D02*
X137637901Y-77200000D01*
D19*
X128355527Y-84400823D02*
X133437901Y-84400824D01*
D18*
%TO.N,P17*%
X133597899Y-97140001D02*
X133887900Y-96850000D01*
D19*
X128355527Y-97100825D02*
X133437899Y-97100826D01*
D18*
X139943900Y-96850000D02*
X140137900Y-96656000D01*
X133887900Y-96850000D02*
X139943900Y-96850000D01*
X133538723Y-97140002D02*
X133597899Y-97140001D01*
%TO.N,P9*%
X138637900Y-65300001D02*
X141137900Y-65300001D01*
D19*
X128355527Y-76780824D02*
X133437900Y-76780824D01*
D18*
X133538723Y-76332025D02*
X136037900Y-73832848D01*
X133538723Y-76820000D02*
X133538723Y-76332025D01*
X136037900Y-73832848D02*
X136037900Y-67900000D01*
X136037900Y-67900000D02*
X138637900Y-65300001D01*
%TO.N,P11*%
X134989723Y-80449000D02*
X134989723Y-76572495D01*
D19*
X128355527Y-81860824D02*
X133437900Y-81860824D01*
D18*
X134989723Y-76572495D02*
X138362218Y-73200001D01*
X133538723Y-81900001D02*
X134989723Y-80449000D01*
X138362218Y-73200001D02*
X141137900Y-73200000D01*
%TO.N,P6*%
X136837900Y-53300000D02*
X141137900Y-53300000D01*
X136437900Y-53700000D02*
X136837900Y-53300000D01*
D19*
X128355527Y-69160824D02*
X133437900Y-69160824D01*
D18*
%TO.N,/JA1*%
X138337900Y-59200000D02*
X138337900Y-59850001D01*
X138337900Y-130600000D02*
X138137900Y-130800000D01*
X138337900Y-86700001D02*
X138337900Y-87500000D01*
X138337900Y-98500000D02*
X138337900Y-99300000D01*
X138337899Y-75750000D02*
X138137900Y-75950000D01*
X138837900Y-122300001D02*
X138137901Y-123000000D01*
X138337900Y-134600001D02*
X138137901Y-134800000D01*
X138337900Y-71750000D02*
X138137900Y-71950000D01*
X138337900Y-103200001D02*
X138137901Y-103400000D01*
X138337900Y-107100000D02*
X138137900Y-107300000D01*
X138337900Y-91400001D02*
X138137901Y-91600000D01*
X138337900Y-138500000D02*
X138137900Y-138700000D01*
X138337900Y-125900001D02*
X138337900Y-126700000D01*
X138337900Y-78800000D02*
X138337900Y-79600001D01*
X136860900Y-44300000D02*
X137110899Y-44050000D01*
X138337900Y-129800000D02*
X138337900Y-130600000D01*
X138337900Y-55850001D02*
X138137901Y-56050000D01*
X138337900Y-114900000D02*
X138137900Y-115100000D01*
X138337900Y-137700001D02*
X138337900Y-138500000D01*
X138337900Y-82700001D02*
X138337900Y-83500000D01*
X138337900Y-111000001D02*
X138137901Y-111200000D01*
X137110899Y-44050000D02*
X138137900Y-44050000D01*
X138337900Y-67100000D02*
X138337900Y-67850000D01*
X138337900Y-133800000D02*
X138337900Y-134600001D01*
X138837900Y-122000000D02*
X138837900Y-122300001D01*
X138337900Y-51850000D02*
X138137900Y-52050000D01*
X138337900Y-63850000D02*
X138137900Y-64050001D01*
X138337900Y-55200000D02*
X138337900Y-55850001D01*
X127837900Y-52050000D02*
X127837900Y-51100000D01*
X138337900Y-63100001D02*
X138337900Y-63850000D01*
X138337900Y-99300000D02*
X138137900Y-99500000D01*
X138337900Y-79600001D02*
X138137901Y-79800000D01*
X138337900Y-59850001D02*
X138137901Y-60050000D01*
X138337900Y-71000000D02*
X138337900Y-71750000D01*
D17*
X127837899Y-133850001D02*
X127837900Y-134800000D01*
D18*
X138337900Y-51100000D02*
X138337900Y-51850000D01*
X138337900Y-67850000D02*
X138137900Y-68050000D01*
X138337900Y-110200000D02*
X138337900Y-111000001D01*
X138337900Y-126700000D02*
X138137900Y-126900000D01*
X127837900Y-47100000D02*
X127837900Y-48085000D01*
X138337900Y-118900000D02*
X138137900Y-119100000D01*
X138337900Y-47850000D02*
X138137900Y-48050000D01*
D17*
X127837900Y-138700000D02*
X127837899Y-137850001D01*
D18*
X138337900Y-75000000D02*
X138337899Y-75750000D01*
X138337900Y-114100001D02*
X138337900Y-114900000D01*
X138337900Y-87500000D02*
X138137900Y-87700000D01*
X138337900Y-106300001D02*
X138337900Y-107100000D01*
X138337900Y-94600000D02*
X138337900Y-95400001D01*
X138337900Y-90600000D02*
X138337900Y-91400001D01*
X138337900Y-83500000D02*
X138137900Y-83700000D01*
X138337900Y-102400000D02*
X138337900Y-103200001D01*
X138337900Y-95400001D02*
X138137900Y-95600001D01*
X138337900Y-47100000D02*
X138337900Y-47850000D01*
X138337900Y-118100001D02*
X138337900Y-118900000D01*
X127837900Y-43161001D02*
X127837900Y-44000000D01*
%TO.N,P21*%
X133538723Y-107299999D02*
X136981901Y-110743176D01*
X136981900Y-111901016D02*
X137530884Y-112450000D01*
D19*
X128355527Y-107260823D02*
X133437901Y-107260824D01*
D18*
X136981901Y-110743176D02*
X136981900Y-111901016D01*
X137530884Y-112450000D02*
X141137900Y-112450000D01*
D19*
%TO.N,P19*%
X128355527Y-102180824D02*
X133437900Y-102180824D01*
D18*
X133538723Y-102220000D02*
X135968723Y-104650000D01*
X135968723Y-104650000D02*
X141137899Y-104650000D01*
%TO.N,P23*%
X137137900Y-121500001D02*
X137537900Y-121500000D01*
D19*
X128355527Y-112340824D02*
X133437900Y-112340824D01*
D18*
X137537900Y-121500000D02*
X138687900Y-120350000D01*
X138687900Y-120350000D02*
X141137900Y-120350000D01*
D19*
%TO.N,P20*%
X128355527Y-104720824D02*
X133437900Y-104720824D01*
D18*
X133538723Y-104760001D02*
X137328723Y-108550000D01*
X137328723Y-108550000D02*
X141137900Y-108550000D01*
%TO.N,P22*%
X137530884Y-116350000D02*
X141137900Y-116350000D01*
D19*
X128355527Y-109800824D02*
X133437900Y-109800824D01*
D18*
X134989723Y-111291000D02*
X134989723Y-113808839D01*
X133538723Y-109840000D02*
X134989723Y-111291000D01*
X134989723Y-113808839D02*
X137530884Y-116350000D01*
D20*
%TO.N,/JA2*%
X134738901Y-49899000D02*
X134338900Y-50299000D01*
D18*
X140137900Y-51000001D02*
X140137900Y-52049999D01*
X140137900Y-78800000D02*
X140137900Y-79799999D01*
D20*
X139336900Y-46299000D02*
X140137900Y-47100000D01*
D17*
X129837901Y-138700000D02*
X129837900Y-137750000D01*
D18*
X140137900Y-47100000D02*
X140137900Y-48050001D01*
X140137901Y-59100000D02*
X140137901Y-60049999D01*
X140137901Y-125900000D02*
X140137901Y-126899999D01*
X140137900Y-63100001D02*
X140137901Y-64049999D01*
X140137900Y-122000000D02*
X140137900Y-122999999D01*
X139687899Y-44049999D02*
X140137900Y-44049999D01*
D17*
X129837900Y-133850000D02*
X129837900Y-134800000D01*
D18*
X140137900Y-67100000D02*
X140137901Y-68049999D01*
D20*
X139336900Y-46299000D02*
X138006115Y-46299000D01*
D18*
X140137900Y-102400000D02*
X140137900Y-103399999D01*
X140137900Y-98500000D02*
X140137900Y-99499999D01*
X140137901Y-114100000D02*
X140137901Y-115099999D01*
D20*
X138006115Y-46299000D02*
X134738900Y-49566215D01*
D18*
X140137900Y-86700001D02*
X140137900Y-87699999D01*
X140137900Y-106300001D02*
X140137900Y-107300000D01*
X140137901Y-82700000D02*
X140137900Y-83700000D01*
X140137900Y-133800000D02*
X140137900Y-134799999D01*
X140137901Y-75000000D02*
X140137900Y-75949999D01*
D20*
X130638900Y-50299000D02*
X129837900Y-51100000D01*
D18*
X140137900Y-118100001D02*
X140137900Y-119100000D01*
X140137901Y-55100000D02*
X140137900Y-56049999D01*
D20*
X134338900Y-50299000D02*
X130638900Y-50299000D01*
D18*
X129837900Y-47100001D02*
X129837900Y-48085000D01*
X140137900Y-129800000D02*
X140137900Y-130799999D01*
X129837900Y-43161001D02*
X129837900Y-44000001D01*
X140137900Y-90600000D02*
X140137900Y-91599999D01*
X140137900Y-71000000D02*
X140137900Y-71949999D01*
X140137901Y-137700000D02*
X140137900Y-138700000D01*
D20*
X134738900Y-49566215D02*
X134738901Y-49899000D01*
D18*
X140137901Y-94600000D02*
X140137901Y-95599999D01*
X129837900Y-51100000D02*
X129837900Y-52050000D01*
X140137900Y-110200000D02*
X140137900Y-111199999D01*
%TO.N,/JA4*%
X144137900Y-47100001D02*
X144137900Y-48050000D01*
X144137900Y-63100000D02*
X144137900Y-64050000D01*
X143687900Y-44050000D02*
X143137900Y-43500000D01*
X144137900Y-102500000D02*
X144137900Y-103400000D01*
X144137900Y-90700000D02*
X144137900Y-91600000D01*
X144137900Y-122100000D02*
X144137900Y-123000000D01*
X144137900Y-44050000D02*
X143687900Y-44050000D01*
X144137900Y-138700000D02*
X144137900Y-137700000D01*
X144137900Y-94700000D02*
X144137900Y-95600000D01*
X133837900Y-47100001D02*
X133837900Y-48085000D01*
X144137900Y-82800000D02*
X144137900Y-83700000D01*
X133837900Y-52050000D02*
X133837900Y-51100000D01*
X144137900Y-106400000D02*
X144137900Y-107300000D01*
D17*
X136987898Y-140899998D02*
X143537900Y-140899998D01*
D18*
X133837900Y-43161001D02*
X133837900Y-44000001D01*
X144137900Y-126000001D02*
X144137900Y-126900000D01*
X144137900Y-75000000D02*
X144137900Y-75950000D01*
X144137900Y-59100000D02*
X144137900Y-60050000D01*
D17*
X133837899Y-137799999D02*
X133837899Y-138700001D01*
X133737900Y-137700000D02*
X133837899Y-137799999D01*
D18*
X144137900Y-133900000D02*
X144137900Y-134800000D01*
X144137900Y-51100000D02*
X144137900Y-52050000D01*
X144137900Y-86800000D02*
X144137900Y-87700000D01*
D17*
X133737900Y-137650001D02*
X136987898Y-140899998D01*
D18*
X144137900Y-78900000D02*
X144137900Y-79800000D01*
X144137900Y-118200000D02*
X144137900Y-119100000D01*
X144137900Y-71000000D02*
X144137900Y-71950000D01*
D17*
X133737900Y-136900000D02*
X133737900Y-137650001D01*
D18*
X144137900Y-55100000D02*
X144137900Y-56050000D01*
X144137900Y-129900000D02*
X144137900Y-130800000D01*
X144137900Y-67100000D02*
X144137900Y-68050000D01*
D17*
X133737900Y-136900000D02*
X133737900Y-137700000D01*
X133837899Y-133850001D02*
X133837899Y-134800000D01*
D18*
X144137900Y-98600000D02*
X144137900Y-99500000D01*
X144137900Y-114200001D02*
X144137900Y-115100000D01*
X144137900Y-110300000D02*
X144137900Y-111200000D01*
%TO.N,/JA3*%
X142137900Y-102500000D02*
X142137900Y-103400000D01*
X142137900Y-122100000D02*
X142137900Y-123000000D01*
X142137900Y-106400000D02*
X142137900Y-107300000D01*
D20*
X133186900Y-45851000D02*
X131837900Y-47200000D01*
D18*
X142137900Y-138700000D02*
X142137900Y-137800000D01*
X142137900Y-71000000D02*
X142137900Y-71950000D01*
X142137900Y-110300000D02*
X142137900Y-111200000D01*
D20*
X140886900Y-43249000D02*
X136092362Y-43249000D01*
X134738900Y-44602463D02*
X134738901Y-45851000D01*
D18*
X142137900Y-98600000D02*
X142137900Y-99500000D01*
X142137900Y-55100000D02*
X142137900Y-56050000D01*
D20*
X134738901Y-45851000D02*
X133186900Y-45851000D01*
D18*
X142137900Y-126000001D02*
X142137900Y-126900000D01*
X142137900Y-114200001D02*
X142137900Y-115100000D01*
X142137900Y-82800000D02*
X142137900Y-83700000D01*
X131837900Y-43161001D02*
X131837900Y-44000000D01*
X131837900Y-47200000D02*
X131837900Y-48085000D01*
X142137900Y-78900000D02*
X142137900Y-79800000D01*
X142137900Y-47100000D02*
X142137900Y-48050000D01*
X142137900Y-133900000D02*
X142137900Y-134800000D01*
X142137900Y-86800000D02*
X142137900Y-87700000D01*
D20*
X136092362Y-43249000D02*
X134738900Y-44602463D01*
D18*
X142137900Y-51100000D02*
X142137900Y-52050000D01*
X142137900Y-44050000D02*
X141687900Y-44050000D01*
D17*
X131837900Y-133849999D02*
X131837900Y-134800000D01*
D18*
X142137900Y-94700000D02*
X142137900Y-95600000D01*
X142137900Y-59100000D02*
X142137900Y-60050000D01*
X142137900Y-118200000D02*
X142137900Y-119100000D01*
X142137900Y-129900000D02*
X142137900Y-130800000D01*
D17*
X131837900Y-138700000D02*
X131837900Y-137750000D01*
D18*
X131837900Y-52050000D02*
X131837900Y-51100000D01*
X142137900Y-75000000D02*
X142137900Y-75950000D01*
X142137900Y-67200000D02*
X142137900Y-68050000D01*
X142137900Y-63100000D02*
X142137900Y-64050000D01*
X142137900Y-90700000D02*
X142137900Y-91600000D01*
D20*
X141137900Y-43500000D02*
X140886900Y-43249000D01*
D18*
X141687900Y-44050000D02*
X141137900Y-43500000D01*
D19*
%TO.N,/B28*%
X115949723Y-113468589D02*
X122489723Y-113468589D01*
%TO.N,/B17*%
X115949723Y-85528589D02*
X122489723Y-85528589D01*
%TO.N,/B8*%
X115949723Y-62668589D02*
X122489723Y-62668589D01*
%TO.N,/B19*%
X115949723Y-90608589D02*
X122489723Y-90608589D01*
%TO.N,/B6*%
X115949723Y-57588589D02*
X122489723Y-57588589D01*
%TO.N,/B11*%
X115949723Y-70288589D02*
X122489723Y-70288589D01*
%TO.N,/B14*%
X115949723Y-77908589D02*
X122489723Y-77908589D01*
%TO.N,/B22*%
X115949723Y-98228589D02*
X122489723Y-98228589D01*
%TO.N,/B21*%
X115949723Y-95688589D02*
X122489723Y-95688589D01*
%TO.N,/B16*%
X115949723Y-82988589D02*
X122489723Y-82988589D01*
%TO.N,/B27*%
X115949723Y-110928589D02*
X122489723Y-110928589D01*
%TO.N,/B13*%
X115949723Y-75368589D02*
X122489723Y-75368589D01*
%TO.N,/B9*%
X115949723Y-65208589D02*
X122489723Y-65208589D01*
%TO.N,/B10*%
X115949723Y-67748589D02*
X122489723Y-67748589D01*
%TO.N,/B24*%
X115949723Y-103308589D02*
X122489723Y-103308589D01*
%TO.N,/B1*%
X115949723Y-44888589D02*
X122489723Y-44888589D01*
%TO.N,/B12*%
X115949723Y-72828589D02*
X122489723Y-72828589D01*
%TO.N,/B7*%
X115949723Y-60128589D02*
X122489723Y-60128589D01*
%TO.N,/B20*%
X115949723Y-93148589D02*
X122489723Y-93148589D01*
%TO.N,/B4*%
X115949723Y-52508589D02*
X122489723Y-52508589D01*
%TO.N,/B26*%
X115949723Y-108388589D02*
X122489723Y-108388589D01*
%TO.N,/B23*%
X115949723Y-100768589D02*
X122489723Y-100768589D01*
%TO.N,/B2*%
X115949723Y-47428589D02*
X122489723Y-47428589D01*
%TO.N,/B3*%
X115949723Y-49968589D02*
X122489723Y-49968589D01*
%TO.N,/B5*%
X115949723Y-55048589D02*
X122489723Y-55048589D01*
%TO.N,/B15*%
X115949723Y-80448589D02*
X122489723Y-80448589D01*
%TO.N,/B18*%
X115949723Y-88068589D02*
X122489723Y-88068589D01*
%TO.N,/B25*%
X115949723Y-105848589D02*
X122489723Y-105848589D01*
%TO.N,/B37*%
X115949723Y-136328589D02*
X122489723Y-136328589D01*
%TO.N,/B30*%
X115949723Y-118548589D02*
X122489723Y-118548589D01*
%TO.N,/B32*%
X115949723Y-123628589D02*
X122489723Y-123628589D01*
%TO.N,/B29*%
X115949723Y-116008589D02*
X122489723Y-116008589D01*
%TO.N,/B31*%
X115949723Y-121088589D02*
X122489723Y-121088589D01*
%TO.N,/B35*%
X115949723Y-131248589D02*
X122489723Y-131248589D01*
%TO.N,/B38*%
X115949723Y-138868589D02*
X122489723Y-138868589D01*
%TO.N,/B34*%
X115949723Y-128708589D02*
X122489723Y-128708589D01*
%TO.N,/B36*%
X115949723Y-133788589D02*
X122489723Y-133788589D01*
%TO.N,/B33*%
X115949723Y-126168589D02*
X122489723Y-126168589D01*
%TD*%
M02*
