%TF.GenerationSoftware,KiCad,Pcbnew,9.0.4*%
%TF.CreationDate,2025-12-21T12:46:40-05:00*%
%TF.ProjectId,Mess-Breakout+Perf,4d657373-2d42-4726-9561-6b6f75742b50,rev?*%
%TF.SameCoordinates,Original*%
%TF.FileFunction,Copper,L2,Bot*%
%TF.FilePolarity,Positive*%
%FSLAX46Y46*%
G04 Gerber Fmt 4.6, Leading zero omitted, Abs format (unit mm)*
G04 Created by KiCad (PCBNEW 9.0.4) date 2025-12-21 12:46:40*
%MOMM*%
%LPD*%
G01*
G04 APERTURE LIST*
%TA.AperFunction,ComponentPad*%
%ADD10R,1.700000X1.700000*%
%TD*%
%TA.AperFunction,ComponentPad*%
%ADD11C,1.700000*%
%TD*%
%TA.AperFunction,ViaPad*%
%ADD12C,0.600000*%
%TD*%
%TA.AperFunction,Conductor*%
%ADD13C,0.500000*%
%TD*%
%TA.AperFunction,Conductor*%
%ADD14C,0.800000*%
%TD*%
%TA.AperFunction,Conductor*%
%ADD15C,0.400000*%
%TD*%
G04 APERTURE END LIST*
D10*
%TO.P,J11,1,Pin_1*%
%TO.N,/B1*%
X89489723Y-44888589D03*
D11*
%TO.P,J11,2,Pin_2*%
X86949723Y-44888589D03*
%TO.P,J11,3,Pin_3*%
%TO.N,/B2*%
X89489723Y-47428589D03*
%TO.P,J11,4,Pin_4*%
X86949723Y-47428589D03*
%TO.P,J11,5,Pin_5*%
%TO.N,/B3*%
X89489723Y-49968589D03*
%TO.P,J11,6,Pin_6*%
X86949723Y-49968589D03*
%TO.P,J11,7,Pin_7*%
%TO.N,/B4*%
X89489723Y-52508589D03*
%TO.P,J11,8,Pin_8*%
X86949723Y-52508589D03*
%TO.P,J11,9,Pin_9*%
%TO.N,/B5*%
X89489723Y-55048589D03*
%TO.P,J11,10,Pin_10*%
X86949723Y-55048589D03*
%TO.P,J11,11,Pin_11*%
%TO.N,/B6*%
X89489723Y-57588589D03*
%TO.P,J11,12,Pin_12*%
X86949723Y-57588589D03*
%TO.P,J11,13,Pin_13*%
%TO.N,/B7*%
X89489723Y-60128589D03*
%TO.P,J11,14,Pin_14*%
X86949723Y-60128589D03*
%TO.P,J11,15,Pin_15*%
%TO.N,/B8*%
X89489723Y-62668589D03*
%TO.P,J11,16,Pin_16*%
X86949723Y-62668589D03*
%TO.P,J11,17,Pin_17*%
%TO.N,/B9*%
X89489723Y-65208589D03*
%TO.P,J11,18,Pin_18*%
X86949723Y-65208589D03*
%TO.P,J11,19,Pin_19*%
%TO.N,/B10*%
X89489723Y-67748589D03*
%TO.P,J11,20,Pin_20*%
X86949723Y-67748589D03*
%TO.P,J11,21,Pin_21*%
%TO.N,/B11*%
X89489723Y-70288589D03*
%TO.P,J11,22,Pin_22*%
X86949723Y-70288589D03*
%TO.P,J11,23,Pin_23*%
%TO.N,/B12*%
X89489723Y-72828589D03*
%TO.P,J11,24,Pin_24*%
X86949723Y-72828589D03*
%TO.P,J11,25,Pin_25*%
%TO.N,/B13*%
X89489723Y-75368589D03*
%TO.P,J11,26,Pin_26*%
X86949723Y-75368589D03*
%TO.P,J11,27,Pin_27*%
%TO.N,/B14*%
X89489723Y-77908589D03*
%TO.P,J11,28,Pin_28*%
X86949723Y-77908589D03*
%TO.P,J11,29,Pin_29*%
%TO.N,/B15*%
X89489723Y-80448589D03*
%TO.P,J11,30,Pin_30*%
X86949723Y-80448589D03*
%TO.P,J11,31,Pin_31*%
%TO.N,/B16*%
X89489723Y-82988589D03*
%TO.P,J11,32,Pin_32*%
X86949723Y-82988589D03*
%TO.P,J11,33,Pin_33*%
%TO.N,/B17*%
X89489723Y-85528589D03*
%TO.P,J11,34,Pin_34*%
X86949723Y-85528589D03*
%TO.P,J11,35,Pin_35*%
%TO.N,/B18*%
X89489723Y-88068589D03*
%TO.P,J11,36,Pin_36*%
X86949723Y-88068589D03*
%TO.P,J11,37,Pin_37*%
%TO.N,/B19*%
X89489723Y-90608589D03*
%TO.P,J11,38,Pin_38*%
X86949723Y-90608589D03*
%TO.P,J11,39,Pin_39*%
%TO.N,/B20*%
X89489723Y-93148589D03*
%TO.P,J11,40,Pin_40*%
X86949723Y-93148589D03*
%TO.P,J11,41,Pin_41*%
%TO.N,/B21*%
X89489723Y-95688589D03*
%TO.P,J11,42,Pin_42*%
X86949723Y-95688589D03*
%TO.P,J11,43,Pin_43*%
%TO.N,/B22*%
X89489723Y-98228589D03*
%TO.P,J11,44,Pin_44*%
X86949723Y-98228589D03*
%TO.P,J11,45,Pin_45*%
%TO.N,/B23*%
X89489723Y-100768589D03*
%TO.P,J11,46,Pin_46*%
X86949723Y-100768589D03*
%TO.P,J11,47,Pin_47*%
%TO.N,/B24*%
X89489723Y-103308589D03*
%TO.P,J11,48,Pin_48*%
X86949723Y-103308589D03*
%TO.P,J11,49,Pin_49*%
%TO.N,/B25*%
X89489723Y-105848589D03*
%TO.P,J11,50,Pin_50*%
X86949723Y-105848589D03*
%TO.P,J11,51,Pin_51*%
%TO.N,/B26*%
X89489723Y-108388589D03*
%TO.P,J11,52,Pin_52*%
X86949723Y-108388589D03*
%TO.P,J11,53,Pin_53*%
%TO.N,/B27*%
X89489723Y-110928589D03*
%TO.P,J11,54,Pin_54*%
X86949723Y-110928589D03*
%TO.P,J11,55,Pin_55*%
%TO.N,/B28*%
X89489723Y-113468589D03*
%TO.P,J11,56,Pin_56*%
X86949723Y-113468589D03*
%TO.P,J11,57,Pin_57*%
%TO.N,/B29*%
X89489723Y-116008589D03*
%TO.P,J11,58,Pin_58*%
X86949723Y-116008589D03*
%TO.P,J11,59,Pin_59*%
%TO.N,/B30*%
X89489723Y-118548589D03*
%TO.P,J11,60,Pin_60*%
X86949723Y-118548589D03*
%TO.P,J11,61,Pin_61*%
%TO.N,/B31*%
X89489723Y-121088589D03*
%TO.P,J11,62,Pin_62*%
X86949723Y-121088589D03*
%TO.P,J11,63,Pin_63*%
%TO.N,/B32*%
X89489723Y-123628589D03*
%TO.P,J11,64,Pin_64*%
X86949723Y-123628589D03*
%TO.P,J11,65,Pin_65*%
%TO.N,/B33*%
X89489723Y-126168589D03*
%TO.P,J11,66,Pin_66*%
X86949723Y-126168589D03*
%TO.P,J11,67,Pin_67*%
%TO.N,/B34*%
X89489723Y-128708589D03*
%TO.P,J11,68,Pin_68*%
X86949723Y-128708589D03*
%TO.P,J11,69,Pin_69*%
%TO.N,/B35*%
X89489723Y-131248589D03*
%TO.P,J11,70,Pin_70*%
X86949723Y-131248589D03*
%TO.P,J11,71,Pin_71*%
%TO.N,/B36*%
X89489723Y-133788589D03*
%TO.P,J11,72,Pin_72*%
X86949723Y-133788589D03*
%TO.P,J11,73,Pin_73*%
%TO.N,/B37*%
X89489723Y-136328589D03*
%TO.P,J11,74,Pin_74*%
X86949723Y-136328589D03*
%TO.P,J11,75,Pin_75*%
%TO.N,/B38*%
X89489723Y-138868589D03*
%TO.P,J11,76,Pin_76*%
X86949723Y-138868589D03*
%TD*%
D10*
%TO.P,J12,1,Pin_1*%
%TO.N,/B1*%
X82949723Y-44888589D03*
D11*
%TO.P,J12,2,Pin_2*%
%TO.N,/B2*%
X82949723Y-47428589D03*
%TO.P,J12,3,Pin_3*%
%TO.N,/B3*%
X82949723Y-49968589D03*
%TO.P,J12,4,Pin_4*%
%TO.N,/B4*%
X82949723Y-52508589D03*
%TO.P,J12,5,Pin_5*%
%TO.N,/B5*%
X82949723Y-55048589D03*
%TO.P,J12,6,Pin_6*%
%TO.N,/B6*%
X82949723Y-57588589D03*
%TO.P,J12,7,Pin_7*%
%TO.N,/B7*%
X82949723Y-60128589D03*
%TO.P,J12,8,Pin_8*%
%TO.N,/B8*%
X82949723Y-62668589D03*
%TO.P,J12,9,Pin_9*%
%TO.N,/B9*%
X82949723Y-65208589D03*
%TO.P,J12,10,Pin_10*%
%TO.N,/B10*%
X82949723Y-67748589D03*
%TO.P,J12,11,Pin_11*%
%TO.N,/B11*%
X82949723Y-70288589D03*
%TO.P,J12,12,Pin_12*%
%TO.N,/B12*%
X82949723Y-72828589D03*
%TO.P,J12,13,Pin_13*%
%TO.N,/B13*%
X82949723Y-75368589D03*
%TO.P,J12,14,Pin_14*%
%TO.N,/B14*%
X82949723Y-77908589D03*
%TO.P,J12,15,Pin_15*%
%TO.N,/B15*%
X82949723Y-80448589D03*
%TO.P,J12,16,Pin_16*%
%TO.N,/B16*%
X82949723Y-82988589D03*
%TO.P,J12,17,Pin_17*%
%TO.N,/B17*%
X82949723Y-85528589D03*
%TO.P,J12,18,Pin_18*%
%TO.N,/B18*%
X82949723Y-88068589D03*
%TO.P,J12,19,Pin_19*%
%TO.N,/B19*%
X82949723Y-90608589D03*
%TO.P,J12,20,Pin_20*%
%TO.N,/B20*%
X82949723Y-93148589D03*
%TO.P,J12,21,Pin_21*%
%TO.N,/B21*%
X82949723Y-95688589D03*
%TO.P,J12,22,Pin_22*%
%TO.N,/B22*%
X82949723Y-98228589D03*
%TO.P,J12,23,Pin_23*%
%TO.N,/B23*%
X82949723Y-100768589D03*
%TO.P,J12,24,Pin_24*%
%TO.N,/B24*%
X82949723Y-103308589D03*
%TO.P,J12,25,Pin_25*%
%TO.N,/B25*%
X82949723Y-105848589D03*
%TO.P,J12,26,Pin_26*%
%TO.N,/B26*%
X82949723Y-108388589D03*
%TO.P,J12,27,Pin_27*%
%TO.N,/B27*%
X82949723Y-110928589D03*
%TO.P,J12,28,Pin_28*%
%TO.N,/B28*%
X82949723Y-113468589D03*
%TO.P,J12,29,Pin_29*%
%TO.N,/B29*%
X82949723Y-116008589D03*
%TO.P,J12,30,Pin_30*%
%TO.N,/B30*%
X82949723Y-118548589D03*
%TO.P,J12,31,Pin_31*%
%TO.N,/B31*%
X82949723Y-121088589D03*
%TO.P,J12,32,Pin_32*%
%TO.N,/B32*%
X82949723Y-123628589D03*
%TO.P,J12,33,Pin_33*%
%TO.N,/B33*%
X82949723Y-126168589D03*
%TO.P,J12,34,Pin_34*%
%TO.N,/B34*%
X82949723Y-128708589D03*
%TO.P,J12,35,Pin_35*%
%TO.N,/B35*%
X82949723Y-131248589D03*
%TO.P,J12,36,Pin_36*%
%TO.N,/B36*%
X82949723Y-133788589D03*
%TO.P,J12,37,Pin_37*%
%TO.N,/B37*%
X82949723Y-136328589D03*
%TO.P,J12,38,Pin_38*%
%TO.N,/B38*%
X82949723Y-138868589D03*
%TD*%
D10*
%TO.P,J10,1,Pin_1*%
%TO.N,P1*%
X95438723Y-56480001D03*
D11*
%TO.P,J10,2,Pin_2*%
%TO.N,P2*%
X95438723Y-59020001D03*
%TO.P,J10,3,Pin_3*%
%TO.N,P3*%
X95438723Y-61560000D03*
%TO.P,J10,4,Pin_4*%
%TO.N,P4*%
X95438723Y-64100001D03*
%TO.P,J10,5,Pin_5*%
%TO.N,P5*%
X95438723Y-66640001D03*
%TO.P,J10,6,Pin_6*%
%TO.N,P6*%
X95438723Y-69180001D03*
%TO.P,J10,7,Pin_7*%
%TO.N,P7*%
X95438723Y-71720001D03*
%TO.P,J10,8,Pin_8*%
%TO.N,P8*%
X95438723Y-74260002D03*
%TO.P,J10,9,Pin_9*%
%TO.N,P9*%
X95438723Y-76800001D03*
%TO.P,J10,10,Pin_10*%
%TO.N,P10*%
X95438723Y-79340001D03*
%TO.P,J10,11,Pin_11*%
%TO.N,P11*%
X95438723Y-81880001D03*
%TO.P,J10,12,Pin_12*%
%TO.N,P12*%
X95438723Y-84420000D03*
%TO.P,J10,13,Pin_13*%
%TO.N,P13*%
X95438723Y-86960001D03*
%TO.P,J10,14,Pin_14*%
%TO.N,P14*%
X95438723Y-89500001D03*
%TO.P,J10,15,Pin_15*%
%TO.N,P15*%
X95438723Y-92040001D03*
%TO.P,J10,16,Pin_16*%
%TO.N,P16*%
X95438723Y-94580000D03*
%TO.P,J10,17,Pin_17*%
%TO.N,P17*%
X95438723Y-97120002D03*
%TO.P,J10,18,Pin_18*%
%TO.N,P18*%
X95438723Y-99660001D03*
%TO.P,J10,19,Pin_19*%
%TO.N,P19*%
X95438723Y-102200001D03*
%TO.P,J10,20,Pin_20*%
%TO.N,P20*%
X95438723Y-104740001D03*
%TO.P,J10,21,Pin_21*%
%TO.N,P21*%
X95438723Y-107280000D03*
%TO.P,J10,22,Pin_22*%
%TO.N,P22*%
X95438723Y-109820001D03*
%TO.P,J10,23,Pin_23*%
%TO.N,P23*%
X95438723Y-112360001D03*
%TO.P,J10,24,Pin_24*%
%TO.N,P24*%
X95438723Y-114900001D03*
%TO.P,J10,25,Pin_25*%
%TO.N,P25*%
X95438723Y-117440000D03*
%TO.P,J10,26,Pin_26*%
%TO.N,P26*%
X95438723Y-119980002D03*
%TO.P,J10,27,Pin_27*%
%TO.N,P27*%
X95438723Y-122520001D03*
%TO.P,J10,28,Pin_28*%
%TO.N,P28*%
X95438723Y-125060001D03*
%TO.P,J10,29,Pin_29*%
%TO.N,P29*%
X95438723Y-127600001D03*
%TO.P,J10,30,Pin_30*%
%TO.N,P30*%
X95438723Y-130140002D03*
%TD*%
D10*
%TO.P,J13,1,Pin_1*%
%TO.N,P1*%
X100538723Y-56500000D03*
D11*
%TO.P,J13,2,Pin_2*%
X97998723Y-56500000D03*
%TO.P,J13,3,Pin_3*%
%TO.N,P2*%
X100538723Y-59040000D03*
%TO.P,J13,4,Pin_4*%
X97998723Y-59040000D03*
%TO.P,J13,5,Pin_5*%
%TO.N,P3*%
X100538723Y-61579999D03*
%TO.P,J13,6,Pin_6*%
X97998723Y-61580000D03*
%TO.P,J13,7,Pin_7*%
%TO.N,P4*%
X100538723Y-64120000D03*
%TO.P,J13,8,Pin_8*%
X97998723Y-64120000D03*
%TO.P,J13,9,Pin_9*%
%TO.N,P5*%
X100538723Y-66660000D03*
%TO.P,J13,10,Pin_10*%
X97998723Y-66660000D03*
%TO.P,J13,11,Pin_11*%
%TO.N,P6*%
X100538723Y-69200000D03*
%TO.P,J13,12,Pin_12*%
X97998723Y-69200000D03*
%TO.P,J13,13,Pin_13*%
%TO.N,P7*%
X100538723Y-71740000D03*
%TO.P,J13,14,Pin_14*%
X97998723Y-71740000D03*
%TO.P,J13,15,Pin_15*%
%TO.N,P8*%
X100538723Y-74280001D03*
%TO.P,J13,16,Pin_16*%
X97998723Y-74280000D03*
%TO.P,J13,17,Pin_17*%
%TO.N,P9*%
X100538723Y-76820000D03*
%TO.P,J13,18,Pin_18*%
X97998723Y-76820000D03*
%TO.P,J13,19,Pin_19*%
%TO.N,P10*%
X100538723Y-79360000D03*
%TO.P,J13,20,Pin_20*%
X97998723Y-79360000D03*
%TO.P,J13,21,Pin_21*%
%TO.N,P11*%
X100538723Y-81900000D03*
%TO.P,J13,22,Pin_22*%
X97998723Y-81900000D03*
%TO.P,J13,23,Pin_23*%
%TO.N,P12*%
X100538723Y-84439999D03*
%TO.P,J13,24,Pin_24*%
X97998723Y-84440000D03*
%TO.P,J13,25,Pin_25*%
%TO.N,P13*%
X100538723Y-86980000D03*
%TO.P,J13,26,Pin_26*%
X97998723Y-86980000D03*
%TO.P,J13,27,Pin_27*%
%TO.N,P14*%
X100538723Y-89520000D03*
%TO.P,J13,28,Pin_28*%
X97998723Y-89520000D03*
%TO.P,J13,29,Pin_29*%
%TO.N,P15*%
X100538723Y-92060000D03*
%TO.P,J13,30,Pin_30*%
X97998723Y-92060000D03*
%TO.P,J13,31,Pin_31*%
%TO.N,P16*%
X100538723Y-94599999D03*
%TO.P,J13,32,Pin_32*%
X97998723Y-94600000D03*
%TO.P,J13,33,Pin_33*%
%TO.N,P17*%
X100538723Y-97140001D03*
%TO.P,J13,34,Pin_34*%
X97998723Y-97140000D03*
%TO.P,J13,35,Pin_35*%
%TO.N,P18*%
X100538723Y-99680000D03*
%TO.P,J13,36,Pin_36*%
X97998723Y-99680000D03*
%TO.P,J13,37,Pin_37*%
%TO.N,P19*%
X100538723Y-102220000D03*
%TO.P,J13,38,Pin_38*%
X97998723Y-102220000D03*
%TO.P,J13,39,Pin_39*%
%TO.N,P20*%
X100538723Y-104760000D03*
%TO.P,J13,40,Pin_40*%
X97998723Y-104760000D03*
%TO.P,J13,41,Pin_41*%
%TO.N,P21*%
X100538723Y-107299999D03*
%TO.P,J13,42,Pin_42*%
X97998723Y-107300000D03*
%TO.P,J13,43,Pin_43*%
%TO.N,P22*%
X100538723Y-109840000D03*
%TO.P,J13,44,Pin_44*%
X97998723Y-109840000D03*
%TO.P,J13,45,Pin_45*%
%TO.N,P23*%
X100538723Y-112380000D03*
%TO.P,J13,46,Pin_46*%
X97998723Y-112380000D03*
%TO.P,J13,47,Pin_47*%
%TO.N,P24*%
X100538723Y-114920000D03*
%TO.P,J13,48,Pin_48*%
X97998723Y-114920000D03*
%TO.P,J13,49,Pin_49*%
%TO.N,P25*%
X100538723Y-117459999D03*
%TO.P,J13,50,Pin_50*%
X97998723Y-117460000D03*
%TO.P,J13,51,Pin_51*%
%TO.N,P26*%
X100538723Y-120000001D03*
%TO.P,J13,52,Pin_52*%
X97998723Y-120000000D03*
%TO.P,J13,53,Pin_53*%
%TO.N,P27*%
X100538723Y-122540000D03*
%TO.P,J13,54,Pin_54*%
X97998723Y-122540000D03*
%TO.P,J13,55,Pin_55*%
%TO.N,P28*%
X100538723Y-125080000D03*
%TO.P,J13,56,Pin_56*%
X97998723Y-125080000D03*
%TO.P,J13,57,Pin_57*%
%TO.N,P29*%
X100538723Y-127620000D03*
%TO.P,J13,58,Pin_58*%
X97998723Y-127620000D03*
%TO.P,J13,59,Pin_59*%
%TO.N,P30*%
X100538723Y-130160001D03*
%TO.P,J13,60,Pin_60*%
X97998723Y-130160000D03*
%TD*%
D10*
%TO.P,J8,1,Pin_1*%
%TO.N,/B1*%
X49949723Y-44888589D03*
D11*
%TO.P,J8,2,Pin_2*%
%TO.N,/B2*%
X49949723Y-47428589D03*
%TO.P,J8,3,Pin_3*%
%TO.N,/B3*%
X49949723Y-49968589D03*
%TO.P,J8,4,Pin_4*%
%TO.N,/B4*%
X49949723Y-52508589D03*
%TO.P,J8,5,Pin_5*%
%TO.N,/B5*%
X49949723Y-55048589D03*
%TO.P,J8,6,Pin_6*%
%TO.N,/B6*%
X49949723Y-57588589D03*
%TO.P,J8,7,Pin_7*%
%TO.N,/B7*%
X49949723Y-60128589D03*
%TO.P,J8,8,Pin_8*%
%TO.N,/B8*%
X49949723Y-62668589D03*
%TO.P,J8,9,Pin_9*%
%TO.N,/B9*%
X49949723Y-65208589D03*
%TO.P,J8,10,Pin_10*%
%TO.N,/B10*%
X49949723Y-67748589D03*
%TO.P,J8,11,Pin_11*%
%TO.N,/B11*%
X49949723Y-70288589D03*
%TO.P,J8,12,Pin_12*%
%TO.N,/B12*%
X49949723Y-72828589D03*
%TO.P,J8,13,Pin_13*%
%TO.N,/B13*%
X49949723Y-75368589D03*
%TO.P,J8,14,Pin_14*%
%TO.N,/B14*%
X49949723Y-77908589D03*
%TO.P,J8,15,Pin_15*%
%TO.N,/B15*%
X49949723Y-80448589D03*
%TO.P,J8,16,Pin_16*%
%TO.N,/B16*%
X49949723Y-82988589D03*
%TO.P,J8,17,Pin_17*%
%TO.N,/B17*%
X49949723Y-85528589D03*
%TO.P,J8,18,Pin_18*%
%TO.N,/B18*%
X49949723Y-88068589D03*
%TO.P,J8,19,Pin_19*%
%TO.N,/B19*%
X49949723Y-90608589D03*
%TO.P,J8,20,Pin_20*%
%TO.N,/B20*%
X49949723Y-93148589D03*
%TO.P,J8,21,Pin_21*%
%TO.N,/B21*%
X49949723Y-95688589D03*
%TO.P,J8,22,Pin_22*%
%TO.N,/B22*%
X49949723Y-98228589D03*
%TO.P,J8,23,Pin_23*%
%TO.N,/B23*%
X49949723Y-100768589D03*
%TO.P,J8,24,Pin_24*%
%TO.N,/B24*%
X49949723Y-103308589D03*
%TO.P,J8,25,Pin_25*%
%TO.N,/B25*%
X49949723Y-105848589D03*
%TO.P,J8,26,Pin_26*%
%TO.N,/B26*%
X49949723Y-108388589D03*
%TO.P,J8,27,Pin_27*%
%TO.N,/B27*%
X49949723Y-110928589D03*
%TO.P,J8,28,Pin_28*%
%TO.N,/B28*%
X49949723Y-113468589D03*
%TO.P,J8,29,Pin_29*%
%TO.N,/B29*%
X49949723Y-116008589D03*
%TO.P,J8,30,Pin_30*%
%TO.N,/B30*%
X49949723Y-118548589D03*
%TO.P,J8,31,Pin_31*%
%TO.N,/B31*%
X49949723Y-121088589D03*
%TO.P,J8,32,Pin_32*%
%TO.N,/B32*%
X49949723Y-123628589D03*
%TO.P,J8,33,Pin_33*%
%TO.N,/B33*%
X49949723Y-126168589D03*
%TO.P,J8,34,Pin_34*%
%TO.N,/B34*%
X49949723Y-128708589D03*
%TO.P,J8,35,Pin_35*%
%TO.N,/B35*%
X49949723Y-131248589D03*
%TO.P,J8,36,Pin_36*%
%TO.N,/B36*%
X49949723Y-133788589D03*
%TO.P,J8,37,Pin_37*%
%TO.N,/B37*%
X49949723Y-136328589D03*
%TO.P,J8,38,Pin_38*%
%TO.N,/B38*%
X49949723Y-138868589D03*
%TD*%
D10*
%TO.P,J7,1,Pin_1*%
%TO.N,/B1*%
X56489723Y-44888589D03*
D11*
%TO.P,J7,2,Pin_2*%
X53949723Y-44888589D03*
%TO.P,J7,3,Pin_3*%
%TO.N,/B2*%
X56489723Y-47428589D03*
%TO.P,J7,4,Pin_4*%
X53949723Y-47428589D03*
%TO.P,J7,5,Pin_5*%
%TO.N,/B3*%
X56489723Y-49968589D03*
%TO.P,J7,6,Pin_6*%
X53949723Y-49968589D03*
%TO.P,J7,7,Pin_7*%
%TO.N,/B4*%
X56489723Y-52508589D03*
%TO.P,J7,8,Pin_8*%
X53949723Y-52508589D03*
%TO.P,J7,9,Pin_9*%
%TO.N,/B5*%
X56489723Y-55048589D03*
%TO.P,J7,10,Pin_10*%
X53949723Y-55048589D03*
%TO.P,J7,11,Pin_11*%
%TO.N,/B6*%
X56489723Y-57588589D03*
%TO.P,J7,12,Pin_12*%
X53949723Y-57588589D03*
%TO.P,J7,13,Pin_13*%
%TO.N,/B7*%
X56489723Y-60128589D03*
%TO.P,J7,14,Pin_14*%
X53949723Y-60128589D03*
%TO.P,J7,15,Pin_15*%
%TO.N,/B8*%
X56489723Y-62668589D03*
%TO.P,J7,16,Pin_16*%
X53949723Y-62668589D03*
%TO.P,J7,17,Pin_17*%
%TO.N,/B9*%
X56489723Y-65208589D03*
%TO.P,J7,18,Pin_18*%
X53949723Y-65208589D03*
%TO.P,J7,19,Pin_19*%
%TO.N,/B10*%
X56489723Y-67748589D03*
%TO.P,J7,20,Pin_20*%
X53949723Y-67748589D03*
%TO.P,J7,21,Pin_21*%
%TO.N,/B11*%
X56489723Y-70288589D03*
%TO.P,J7,22,Pin_22*%
X53949723Y-70288589D03*
%TO.P,J7,23,Pin_23*%
%TO.N,/B12*%
X56489723Y-72828589D03*
%TO.P,J7,24,Pin_24*%
X53949723Y-72828589D03*
%TO.P,J7,25,Pin_25*%
%TO.N,/B13*%
X56489723Y-75368589D03*
%TO.P,J7,26,Pin_26*%
X53949723Y-75368589D03*
%TO.P,J7,27,Pin_27*%
%TO.N,/B14*%
X56489723Y-77908589D03*
%TO.P,J7,28,Pin_28*%
X53949723Y-77908589D03*
%TO.P,J7,29,Pin_29*%
%TO.N,/B15*%
X56489723Y-80448589D03*
%TO.P,J7,30,Pin_30*%
X53949723Y-80448589D03*
%TO.P,J7,31,Pin_31*%
%TO.N,/B16*%
X56489723Y-82988589D03*
%TO.P,J7,32,Pin_32*%
X53949723Y-82988589D03*
%TO.P,J7,33,Pin_33*%
%TO.N,/B17*%
X56489723Y-85528589D03*
%TO.P,J7,34,Pin_34*%
X53949723Y-85528589D03*
%TO.P,J7,35,Pin_35*%
%TO.N,/B18*%
X56489723Y-88068589D03*
%TO.P,J7,36,Pin_36*%
X53949723Y-88068589D03*
%TO.P,J7,37,Pin_37*%
%TO.N,/B19*%
X56489723Y-90608589D03*
%TO.P,J7,38,Pin_38*%
X53949723Y-90608589D03*
%TO.P,J7,39,Pin_39*%
%TO.N,/B20*%
X56489723Y-93148589D03*
%TO.P,J7,40,Pin_40*%
X53949723Y-93148589D03*
%TO.P,J7,41,Pin_41*%
%TO.N,/B21*%
X56489723Y-95688589D03*
%TO.P,J7,42,Pin_42*%
X53949723Y-95688589D03*
%TO.P,J7,43,Pin_43*%
%TO.N,/B22*%
X56489723Y-98228589D03*
%TO.P,J7,44,Pin_44*%
X53949723Y-98228589D03*
%TO.P,J7,45,Pin_45*%
%TO.N,/B23*%
X56489723Y-100768589D03*
%TO.P,J7,46,Pin_46*%
X53949723Y-100768589D03*
%TO.P,J7,47,Pin_47*%
%TO.N,/B24*%
X56489723Y-103308589D03*
%TO.P,J7,48,Pin_48*%
X53949723Y-103308589D03*
%TO.P,J7,49,Pin_49*%
%TO.N,/B25*%
X56489723Y-105848589D03*
%TO.P,J7,50,Pin_50*%
X53949723Y-105848589D03*
%TO.P,J7,51,Pin_51*%
%TO.N,/B26*%
X56489723Y-108388589D03*
%TO.P,J7,52,Pin_52*%
X53949723Y-108388589D03*
%TO.P,J7,53,Pin_53*%
%TO.N,/B27*%
X56489723Y-110928589D03*
%TO.P,J7,54,Pin_54*%
X53949723Y-110928589D03*
%TO.P,J7,55,Pin_55*%
%TO.N,/B28*%
X56489723Y-113468589D03*
%TO.P,J7,56,Pin_56*%
X53949723Y-113468589D03*
%TO.P,J7,57,Pin_57*%
%TO.N,/B29*%
X56489723Y-116008589D03*
%TO.P,J7,58,Pin_58*%
X53949723Y-116008589D03*
%TO.P,J7,59,Pin_59*%
%TO.N,/B30*%
X56489723Y-118548589D03*
%TO.P,J7,60,Pin_60*%
X53949723Y-118548589D03*
%TO.P,J7,61,Pin_61*%
%TO.N,/B31*%
X56489723Y-121088589D03*
%TO.P,J7,62,Pin_62*%
X53949723Y-121088589D03*
%TO.P,J7,63,Pin_63*%
%TO.N,/B32*%
X56489723Y-123628589D03*
%TO.P,J7,64,Pin_64*%
X53949723Y-123628589D03*
%TO.P,J7,65,Pin_65*%
%TO.N,/B33*%
X56489723Y-126168589D03*
%TO.P,J7,66,Pin_66*%
X53949723Y-126168589D03*
%TO.P,J7,67,Pin_67*%
%TO.N,/B34*%
X56489723Y-128708589D03*
%TO.P,J7,68,Pin_68*%
X53949723Y-128708589D03*
%TO.P,J7,69,Pin_69*%
%TO.N,/B35*%
X56489723Y-131248589D03*
%TO.P,J7,70,Pin_70*%
X53949723Y-131248589D03*
%TO.P,J7,71,Pin_71*%
%TO.N,/B36*%
X56489723Y-133788589D03*
%TO.P,J7,72,Pin_72*%
X53949723Y-133788589D03*
%TO.P,J7,73,Pin_73*%
%TO.N,/B37*%
X56489723Y-136328589D03*
%TO.P,J7,74,Pin_74*%
X53949723Y-136328589D03*
%TO.P,J7,75,Pin_75*%
%TO.N,/B38*%
X56489723Y-138868589D03*
%TO.P,J7,76,Pin_76*%
X53949723Y-138868589D03*
%TD*%
D10*
%TO.P,J6,1,Pin_1*%
%TO.N,P1*%
X62438723Y-56480001D03*
D11*
%TO.P,J6,2,Pin_2*%
%TO.N,P2*%
X62438723Y-59020001D03*
%TO.P,J6,3,Pin_3*%
%TO.N,P3*%
X62438723Y-61560000D03*
%TO.P,J6,4,Pin_4*%
%TO.N,P4*%
X62438723Y-64100001D03*
%TO.P,J6,5,Pin_5*%
%TO.N,P5*%
X62438723Y-66640001D03*
%TO.P,J6,6,Pin_6*%
%TO.N,P6*%
X62438723Y-69180001D03*
%TO.P,J6,7,Pin_7*%
%TO.N,P7*%
X62438723Y-71720001D03*
%TO.P,J6,8,Pin_8*%
%TO.N,P8*%
X62438723Y-74260002D03*
%TO.P,J6,9,Pin_9*%
%TO.N,P9*%
X62438723Y-76800001D03*
%TO.P,J6,10,Pin_10*%
%TO.N,P10*%
X62438723Y-79340001D03*
%TO.P,J6,11,Pin_11*%
%TO.N,P11*%
X62438723Y-81880001D03*
%TO.P,J6,12,Pin_12*%
%TO.N,P12*%
X62438723Y-84420000D03*
%TO.P,J6,13,Pin_13*%
%TO.N,P13*%
X62438723Y-86960001D03*
%TO.P,J6,14,Pin_14*%
%TO.N,P14*%
X62438723Y-89500001D03*
%TO.P,J6,15,Pin_15*%
%TO.N,P15*%
X62438723Y-92040001D03*
%TO.P,J6,16,Pin_16*%
%TO.N,P16*%
X62438723Y-94580000D03*
%TO.P,J6,17,Pin_17*%
%TO.N,P17*%
X62438723Y-97120002D03*
%TO.P,J6,18,Pin_18*%
%TO.N,P18*%
X62438723Y-99660001D03*
%TO.P,J6,19,Pin_19*%
%TO.N,P19*%
X62438723Y-102200001D03*
%TO.P,J6,20,Pin_20*%
%TO.N,P20*%
X62438723Y-104740001D03*
%TO.P,J6,21,Pin_21*%
%TO.N,P21*%
X62438723Y-107280000D03*
%TO.P,J6,22,Pin_22*%
%TO.N,P22*%
X62438723Y-109820001D03*
%TO.P,J6,23,Pin_23*%
%TO.N,P23*%
X62438723Y-112360001D03*
%TO.P,J6,24,Pin_24*%
%TO.N,P24*%
X62438723Y-114900001D03*
%TO.P,J6,25,Pin_25*%
%TO.N,P25*%
X62438723Y-117440000D03*
%TO.P,J6,26,Pin_26*%
%TO.N,P26*%
X62438723Y-119980002D03*
%TO.P,J6,27,Pin_27*%
%TO.N,P27*%
X62438723Y-122520001D03*
%TO.P,J6,28,Pin_28*%
%TO.N,P28*%
X62438723Y-125060001D03*
%TO.P,J6,29,Pin_29*%
%TO.N,P29*%
X62438723Y-127600001D03*
%TO.P,J6,30,Pin_30*%
%TO.N,P30*%
X62438723Y-130140002D03*
%TD*%
D10*
%TO.P,J9,1,Pin_1*%
%TO.N,P1*%
X67538723Y-56500000D03*
D11*
%TO.P,J9,2,Pin_2*%
X64998723Y-56500000D03*
%TO.P,J9,3,Pin_3*%
%TO.N,P2*%
X67538723Y-59040000D03*
%TO.P,J9,4,Pin_4*%
X64998723Y-59040000D03*
%TO.P,J9,5,Pin_5*%
%TO.N,P3*%
X67538723Y-61579999D03*
%TO.P,J9,6,Pin_6*%
X64998723Y-61580000D03*
%TO.P,J9,7,Pin_7*%
%TO.N,P4*%
X67538723Y-64120000D03*
%TO.P,J9,8,Pin_8*%
X64998723Y-64120000D03*
%TO.P,J9,9,Pin_9*%
%TO.N,P5*%
X67538723Y-66660000D03*
%TO.P,J9,10,Pin_10*%
X64998723Y-66660000D03*
%TO.P,J9,11,Pin_11*%
%TO.N,P6*%
X67538723Y-69200000D03*
%TO.P,J9,12,Pin_12*%
X64998723Y-69200000D03*
%TO.P,J9,13,Pin_13*%
%TO.N,P7*%
X67538723Y-71740000D03*
%TO.P,J9,14,Pin_14*%
X64998723Y-71740000D03*
%TO.P,J9,15,Pin_15*%
%TO.N,P8*%
X67538723Y-74280001D03*
%TO.P,J9,16,Pin_16*%
X64998723Y-74280000D03*
%TO.P,J9,17,Pin_17*%
%TO.N,P9*%
X67538723Y-76820000D03*
%TO.P,J9,18,Pin_18*%
X64998723Y-76820000D03*
%TO.P,J9,19,Pin_19*%
%TO.N,P10*%
X67538723Y-79360000D03*
%TO.P,J9,20,Pin_20*%
X64998723Y-79360000D03*
%TO.P,J9,21,Pin_21*%
%TO.N,P11*%
X67538723Y-81900000D03*
%TO.P,J9,22,Pin_22*%
X64998723Y-81900000D03*
%TO.P,J9,23,Pin_23*%
%TO.N,P12*%
X67538723Y-84439999D03*
%TO.P,J9,24,Pin_24*%
X64998723Y-84440000D03*
%TO.P,J9,25,Pin_25*%
%TO.N,P13*%
X67538723Y-86980000D03*
%TO.P,J9,26,Pin_26*%
X64998723Y-86980000D03*
%TO.P,J9,27,Pin_27*%
%TO.N,P14*%
X67538723Y-89520000D03*
%TO.P,J9,28,Pin_28*%
X64998723Y-89520000D03*
%TO.P,J9,29,Pin_29*%
%TO.N,P15*%
X67538723Y-92060000D03*
%TO.P,J9,30,Pin_30*%
X64998723Y-92060000D03*
%TO.P,J9,31,Pin_31*%
%TO.N,P16*%
X67538723Y-94599999D03*
%TO.P,J9,32,Pin_32*%
X64998723Y-94600000D03*
%TO.P,J9,33,Pin_33*%
%TO.N,P17*%
X67538723Y-97140001D03*
%TO.P,J9,34,Pin_34*%
X64998723Y-97140000D03*
%TO.P,J9,35,Pin_35*%
%TO.N,P18*%
X67538723Y-99680000D03*
%TO.P,J9,36,Pin_36*%
X64998723Y-99680000D03*
%TO.P,J9,37,Pin_37*%
%TO.N,P19*%
X67538723Y-102220000D03*
%TO.P,J9,38,Pin_38*%
X64998723Y-102220000D03*
%TO.P,J9,39,Pin_39*%
%TO.N,P20*%
X67538723Y-104760000D03*
%TO.P,J9,40,Pin_40*%
X64998723Y-104760000D03*
%TO.P,J9,41,Pin_41*%
%TO.N,P21*%
X67538723Y-107299999D03*
%TO.P,J9,42,Pin_42*%
X64998723Y-107300000D03*
%TO.P,J9,43,Pin_43*%
%TO.N,P22*%
X67538723Y-109840000D03*
%TO.P,J9,44,Pin_44*%
X64998723Y-109840000D03*
%TO.P,J9,45,Pin_45*%
%TO.N,P23*%
X67538723Y-112380000D03*
%TO.P,J9,46,Pin_46*%
X64998723Y-112380000D03*
%TO.P,J9,47,Pin_47*%
%TO.N,P24*%
X67538723Y-114920000D03*
%TO.P,J9,48,Pin_48*%
X64998723Y-114920000D03*
%TO.P,J9,49,Pin_49*%
%TO.N,P25*%
X67538723Y-117459999D03*
%TO.P,J9,50,Pin_50*%
X64998723Y-117460000D03*
%TO.P,J9,51,Pin_51*%
%TO.N,P26*%
X67538723Y-120000001D03*
%TO.P,J9,52,Pin_52*%
X64998723Y-120000000D03*
%TO.P,J9,53,Pin_53*%
%TO.N,P27*%
X67538723Y-122540000D03*
%TO.P,J9,54,Pin_54*%
X64998723Y-122540000D03*
%TO.P,J9,55,Pin_55*%
%TO.N,P28*%
X67538723Y-125080000D03*
%TO.P,J9,56,Pin_56*%
X64998723Y-125080000D03*
%TO.P,J9,57,Pin_57*%
%TO.N,P29*%
X67538723Y-127620000D03*
%TO.P,J9,58,Pin_58*%
X64998723Y-127620000D03*
%TO.P,J9,59,Pin_59*%
%TO.N,P30*%
X67538723Y-130160001D03*
%TO.P,J9,60,Pin_60*%
X64998723Y-130160000D03*
%TD*%
D10*
%TO.P,J5,1,Pin_1*%
%TO.N,P1*%
X133538723Y-56500000D03*
D11*
%TO.P,J5,2,Pin_2*%
X130998723Y-56500000D03*
%TO.P,J5,3,Pin_3*%
%TO.N,P2*%
X133538723Y-59040000D03*
%TO.P,J5,4,Pin_4*%
X130998723Y-59040000D03*
%TO.P,J5,5,Pin_5*%
%TO.N,P3*%
X133538723Y-61579999D03*
%TO.P,J5,6,Pin_6*%
X130998723Y-61580000D03*
%TO.P,J5,7,Pin_7*%
%TO.N,P4*%
X133538723Y-64120000D03*
%TO.P,J5,8,Pin_8*%
X130998723Y-64120000D03*
%TO.P,J5,9,Pin_9*%
%TO.N,P5*%
X133538723Y-66660000D03*
%TO.P,J5,10,Pin_10*%
X130998723Y-66660000D03*
%TO.P,J5,11,Pin_11*%
%TO.N,P6*%
X133538723Y-69200000D03*
%TO.P,J5,12,Pin_12*%
X130998723Y-69200000D03*
%TO.P,J5,13,Pin_13*%
%TO.N,P7*%
X133538723Y-71740000D03*
%TO.P,J5,14,Pin_14*%
X130998723Y-71740000D03*
%TO.P,J5,15,Pin_15*%
%TO.N,P8*%
X133538723Y-74280001D03*
%TO.P,J5,16,Pin_16*%
X130998723Y-74280000D03*
%TO.P,J5,17,Pin_17*%
%TO.N,P9*%
X133538723Y-76820000D03*
%TO.P,J5,18,Pin_18*%
X130998723Y-76820000D03*
%TO.P,J5,19,Pin_19*%
%TO.N,P10*%
X133538723Y-79360000D03*
%TO.P,J5,20,Pin_20*%
X130998723Y-79360000D03*
%TO.P,J5,21,Pin_21*%
%TO.N,P11*%
X133538723Y-81900000D03*
%TO.P,J5,22,Pin_22*%
X130998723Y-81900000D03*
%TO.P,J5,23,Pin_23*%
%TO.N,P12*%
X133538723Y-84439999D03*
%TO.P,J5,24,Pin_24*%
X130998723Y-84440000D03*
%TO.P,J5,25,Pin_25*%
%TO.N,P13*%
X133538723Y-86980000D03*
%TO.P,J5,26,Pin_26*%
X130998723Y-86980000D03*
%TO.P,J5,27,Pin_27*%
%TO.N,P14*%
X133538723Y-89520000D03*
%TO.P,J5,28,Pin_28*%
X130998723Y-89520000D03*
%TO.P,J5,29,Pin_29*%
%TO.N,P15*%
X133538723Y-92060000D03*
%TO.P,J5,30,Pin_30*%
X130998723Y-92060000D03*
%TO.P,J5,31,Pin_31*%
%TO.N,P16*%
X133538723Y-94599999D03*
%TO.P,J5,32,Pin_32*%
X130998723Y-94600000D03*
%TO.P,J5,33,Pin_33*%
%TO.N,P17*%
X133538723Y-97140001D03*
%TO.P,J5,34,Pin_34*%
X130998723Y-97140000D03*
%TO.P,J5,35,Pin_35*%
%TO.N,P18*%
X133538723Y-99680000D03*
%TO.P,J5,36,Pin_36*%
X130998723Y-99680000D03*
%TO.P,J5,37,Pin_37*%
%TO.N,P19*%
X133538723Y-102220000D03*
%TO.P,J5,38,Pin_38*%
X130998723Y-102220000D03*
%TO.P,J5,39,Pin_39*%
%TO.N,P20*%
X133538723Y-104760000D03*
%TO.P,J5,40,Pin_40*%
X130998723Y-104760000D03*
%TO.P,J5,41,Pin_41*%
%TO.N,P21*%
X133538723Y-107299999D03*
%TO.P,J5,42,Pin_42*%
X130998723Y-107300000D03*
%TO.P,J5,43,Pin_43*%
%TO.N,P22*%
X133538723Y-109840000D03*
%TO.P,J5,44,Pin_44*%
X130998723Y-109840000D03*
%TO.P,J5,45,Pin_45*%
%TO.N,P23*%
X133538723Y-112380000D03*
%TO.P,J5,46,Pin_46*%
X130998723Y-112380000D03*
%TO.P,J5,47,Pin_47*%
%TO.N,P24*%
X133538723Y-114920000D03*
%TO.P,J5,48,Pin_48*%
X130998723Y-114920000D03*
%TO.P,J5,49,Pin_49*%
%TO.N,P25*%
X133538723Y-117459999D03*
%TO.P,J5,50,Pin_50*%
X130998723Y-117460000D03*
%TO.P,J5,51,Pin_51*%
%TO.N,P26*%
X133538723Y-120000001D03*
%TO.P,J5,52,Pin_52*%
X130998723Y-120000000D03*
%TO.P,J5,53,Pin_53*%
%TO.N,P27*%
X133538723Y-122540000D03*
%TO.P,J5,54,Pin_54*%
X130998723Y-122540000D03*
%TO.P,J5,55,Pin_55*%
%TO.N,P28*%
X133538723Y-125080000D03*
%TO.P,J5,56,Pin_56*%
X130998723Y-125080000D03*
%TO.P,J5,57,Pin_57*%
%TO.N,P29*%
X133538723Y-127620000D03*
%TO.P,J5,58,Pin_58*%
X130998723Y-127620000D03*
%TO.P,J5,59,Pin_59*%
%TO.N,P30*%
X133538723Y-130160001D03*
%TO.P,J5,60,Pin_60*%
X130998723Y-130160000D03*
%TD*%
D10*
%TO.P,J4,1,Pin_1*%
%TO.N,/B1*%
X115949723Y-44888589D03*
D11*
%TO.P,J4,2,Pin_2*%
%TO.N,/B2*%
X115949723Y-47428589D03*
%TO.P,J4,3,Pin_3*%
%TO.N,/B3*%
X115949723Y-49968589D03*
%TO.P,J4,4,Pin_4*%
%TO.N,/B4*%
X115949723Y-52508589D03*
%TO.P,J4,5,Pin_5*%
%TO.N,/B5*%
X115949723Y-55048589D03*
%TO.P,J4,6,Pin_6*%
%TO.N,/B6*%
X115949723Y-57588589D03*
%TO.P,J4,7,Pin_7*%
%TO.N,/B7*%
X115949723Y-60128589D03*
%TO.P,J4,8,Pin_8*%
%TO.N,/B8*%
X115949723Y-62668589D03*
%TO.P,J4,9,Pin_9*%
%TO.N,/B9*%
X115949723Y-65208589D03*
%TO.P,J4,10,Pin_10*%
%TO.N,/B10*%
X115949723Y-67748589D03*
%TO.P,J4,11,Pin_11*%
%TO.N,/B11*%
X115949723Y-70288589D03*
%TO.P,J4,12,Pin_12*%
%TO.N,/B12*%
X115949723Y-72828589D03*
%TO.P,J4,13,Pin_13*%
%TO.N,/B13*%
X115949723Y-75368589D03*
%TO.P,J4,14,Pin_14*%
%TO.N,/B14*%
X115949723Y-77908589D03*
%TO.P,J4,15,Pin_15*%
%TO.N,/B15*%
X115949723Y-80448589D03*
%TO.P,J4,16,Pin_16*%
%TO.N,/B16*%
X115949723Y-82988589D03*
%TO.P,J4,17,Pin_17*%
%TO.N,/B17*%
X115949723Y-85528589D03*
%TO.P,J4,18,Pin_18*%
%TO.N,/B18*%
X115949723Y-88068589D03*
%TO.P,J4,19,Pin_19*%
%TO.N,/B19*%
X115949723Y-90608589D03*
%TO.P,J4,20,Pin_20*%
%TO.N,/B20*%
X115949723Y-93148589D03*
%TO.P,J4,21,Pin_21*%
%TO.N,/B21*%
X115949723Y-95688589D03*
%TO.P,J4,22,Pin_22*%
%TO.N,/B22*%
X115949723Y-98228589D03*
%TO.P,J4,23,Pin_23*%
%TO.N,/B23*%
X115949723Y-100768589D03*
%TO.P,J4,24,Pin_24*%
%TO.N,/B24*%
X115949723Y-103308589D03*
%TO.P,J4,25,Pin_25*%
%TO.N,/B25*%
X115949723Y-105848589D03*
%TO.P,J4,26,Pin_26*%
%TO.N,/B26*%
X115949723Y-108388589D03*
%TO.P,J4,27,Pin_27*%
%TO.N,/B27*%
X115949723Y-110928589D03*
%TO.P,J4,28,Pin_28*%
%TO.N,/B28*%
X115949723Y-113468589D03*
%TO.P,J4,29,Pin_29*%
%TO.N,/B29*%
X115949723Y-116008589D03*
%TO.P,J4,30,Pin_30*%
%TO.N,/B30*%
X115949723Y-118548589D03*
%TO.P,J4,31,Pin_31*%
%TO.N,/B31*%
X115949723Y-121088589D03*
%TO.P,J4,32,Pin_32*%
%TO.N,/B32*%
X115949723Y-123628589D03*
%TO.P,J4,33,Pin_33*%
%TO.N,/B33*%
X115949723Y-126168589D03*
%TO.P,J4,34,Pin_34*%
%TO.N,/B34*%
X115949723Y-128708589D03*
%TO.P,J4,35,Pin_35*%
%TO.N,/B35*%
X115949723Y-131248589D03*
%TO.P,J4,36,Pin_36*%
%TO.N,/B36*%
X115949723Y-133788589D03*
%TO.P,J4,37,Pin_37*%
%TO.N,/B37*%
X115949723Y-136328589D03*
%TO.P,J4,38,Pin_38*%
%TO.N,/B38*%
X115949723Y-138868589D03*
%TD*%
D10*
%TO.P,J3,1,Pin_1*%
%TO.N,/B1*%
X122489723Y-44888589D03*
D11*
%TO.P,J3,2,Pin_2*%
X119949723Y-44888589D03*
%TO.P,J3,3,Pin_3*%
%TO.N,/B2*%
X122489723Y-47428589D03*
%TO.P,J3,4,Pin_4*%
X119949723Y-47428589D03*
%TO.P,J3,5,Pin_5*%
%TO.N,/B3*%
X122489723Y-49968589D03*
%TO.P,J3,6,Pin_6*%
X119949723Y-49968589D03*
%TO.P,J3,7,Pin_7*%
%TO.N,/B4*%
X122489723Y-52508589D03*
%TO.P,J3,8,Pin_8*%
X119949723Y-52508589D03*
%TO.P,J3,9,Pin_9*%
%TO.N,/B5*%
X122489723Y-55048589D03*
%TO.P,J3,10,Pin_10*%
X119949723Y-55048589D03*
%TO.P,J3,11,Pin_11*%
%TO.N,/B6*%
X122489723Y-57588589D03*
%TO.P,J3,12,Pin_12*%
X119949723Y-57588589D03*
%TO.P,J3,13,Pin_13*%
%TO.N,/B7*%
X122489723Y-60128589D03*
%TO.P,J3,14,Pin_14*%
X119949723Y-60128589D03*
%TO.P,J3,15,Pin_15*%
%TO.N,/B8*%
X122489723Y-62668589D03*
%TO.P,J3,16,Pin_16*%
X119949723Y-62668589D03*
%TO.P,J3,17,Pin_17*%
%TO.N,/B9*%
X122489723Y-65208589D03*
%TO.P,J3,18,Pin_18*%
X119949723Y-65208589D03*
%TO.P,J3,19,Pin_19*%
%TO.N,/B10*%
X122489723Y-67748589D03*
%TO.P,J3,20,Pin_20*%
X119949723Y-67748589D03*
%TO.P,J3,21,Pin_21*%
%TO.N,/B11*%
X122489723Y-70288589D03*
%TO.P,J3,22,Pin_22*%
X119949723Y-70288589D03*
%TO.P,J3,23,Pin_23*%
%TO.N,/B12*%
X122489723Y-72828589D03*
%TO.P,J3,24,Pin_24*%
X119949723Y-72828589D03*
%TO.P,J3,25,Pin_25*%
%TO.N,/B13*%
X122489723Y-75368589D03*
%TO.P,J3,26,Pin_26*%
X119949723Y-75368589D03*
%TO.P,J3,27,Pin_27*%
%TO.N,/B14*%
X122489723Y-77908589D03*
%TO.P,J3,28,Pin_28*%
X119949723Y-77908589D03*
%TO.P,J3,29,Pin_29*%
%TO.N,/B15*%
X122489723Y-80448589D03*
%TO.P,J3,30,Pin_30*%
X119949723Y-80448589D03*
%TO.P,J3,31,Pin_31*%
%TO.N,/B16*%
X122489723Y-82988589D03*
%TO.P,J3,32,Pin_32*%
X119949723Y-82988589D03*
%TO.P,J3,33,Pin_33*%
%TO.N,/B17*%
X122489723Y-85528589D03*
%TO.P,J3,34,Pin_34*%
X119949723Y-85528589D03*
%TO.P,J3,35,Pin_35*%
%TO.N,/B18*%
X122489723Y-88068589D03*
%TO.P,J3,36,Pin_36*%
X119949723Y-88068589D03*
%TO.P,J3,37,Pin_37*%
%TO.N,/B19*%
X122489723Y-90608589D03*
%TO.P,J3,38,Pin_38*%
X119949723Y-90608589D03*
%TO.P,J3,39,Pin_39*%
%TO.N,/B20*%
X122489723Y-93148589D03*
%TO.P,J3,40,Pin_40*%
X119949723Y-93148589D03*
%TO.P,J3,41,Pin_41*%
%TO.N,/B21*%
X122489723Y-95688589D03*
%TO.P,J3,42,Pin_42*%
X119949723Y-95688589D03*
%TO.P,J3,43,Pin_43*%
%TO.N,/B22*%
X122489723Y-98228589D03*
%TO.P,J3,44,Pin_44*%
X119949723Y-98228589D03*
%TO.P,J3,45,Pin_45*%
%TO.N,/B23*%
X122489723Y-100768589D03*
%TO.P,J3,46,Pin_46*%
X119949723Y-100768589D03*
%TO.P,J3,47,Pin_47*%
%TO.N,/B24*%
X122489723Y-103308589D03*
%TO.P,J3,48,Pin_48*%
X119949723Y-103308589D03*
%TO.P,J3,49,Pin_49*%
%TO.N,/B25*%
X122489723Y-105848589D03*
%TO.P,J3,50,Pin_50*%
X119949723Y-105848589D03*
%TO.P,J3,51,Pin_51*%
%TO.N,/B26*%
X122489723Y-108388589D03*
%TO.P,J3,52,Pin_52*%
X119949723Y-108388589D03*
%TO.P,J3,53,Pin_53*%
%TO.N,/B27*%
X122489723Y-110928589D03*
%TO.P,J3,54,Pin_54*%
X119949723Y-110928589D03*
%TO.P,J3,55,Pin_55*%
%TO.N,/B28*%
X122489723Y-113468589D03*
%TO.P,J3,56,Pin_56*%
X119949723Y-113468589D03*
%TO.P,J3,57,Pin_57*%
%TO.N,/B29*%
X122489723Y-116008589D03*
%TO.P,J3,58,Pin_58*%
X119949723Y-116008589D03*
%TO.P,J3,59,Pin_59*%
%TO.N,/B30*%
X122489723Y-118548589D03*
%TO.P,J3,60,Pin_60*%
X119949723Y-118548589D03*
%TO.P,J3,61,Pin_61*%
%TO.N,/B31*%
X122489723Y-121088589D03*
%TO.P,J3,62,Pin_62*%
X119949723Y-121088589D03*
%TO.P,J3,63,Pin_63*%
%TO.N,/B32*%
X122489723Y-123628589D03*
%TO.P,J3,64,Pin_64*%
X119949723Y-123628589D03*
%TO.P,J3,65,Pin_65*%
%TO.N,/B33*%
X122489723Y-126168589D03*
%TO.P,J3,66,Pin_66*%
X119949723Y-126168589D03*
%TO.P,J3,67,Pin_67*%
%TO.N,/B34*%
X122489723Y-128708589D03*
%TO.P,J3,68,Pin_68*%
X119949723Y-128708589D03*
%TO.P,J3,69,Pin_69*%
%TO.N,/B35*%
X122489723Y-131248589D03*
%TO.P,J3,70,Pin_70*%
X119949723Y-131248589D03*
%TO.P,J3,71,Pin_71*%
%TO.N,/B36*%
X122489723Y-133788589D03*
%TO.P,J3,72,Pin_72*%
X119949723Y-133788589D03*
%TO.P,J3,73,Pin_73*%
%TO.N,/B37*%
X122489723Y-136328589D03*
%TO.P,J3,74,Pin_74*%
X119949723Y-136328589D03*
%TO.P,J3,75,Pin_75*%
%TO.N,/B38*%
X122489723Y-138868589D03*
%TO.P,J3,76,Pin_76*%
X119949723Y-138868589D03*
%TD*%
D10*
%TO.P,J2,1,Pin_1*%
%TO.N,P1*%
X128438723Y-56480001D03*
D11*
%TO.P,J2,2,Pin_2*%
%TO.N,P2*%
X128438723Y-59020001D03*
%TO.P,J2,3,Pin_3*%
%TO.N,P3*%
X128438723Y-61560000D03*
%TO.P,J2,4,Pin_4*%
%TO.N,P4*%
X128438723Y-64100001D03*
%TO.P,J2,5,Pin_5*%
%TO.N,P5*%
X128438723Y-66640001D03*
%TO.P,J2,6,Pin_6*%
%TO.N,P6*%
X128438723Y-69180001D03*
%TO.P,J2,7,Pin_7*%
%TO.N,P7*%
X128438723Y-71720001D03*
%TO.P,J2,8,Pin_8*%
%TO.N,P8*%
X128438723Y-74260002D03*
%TO.P,J2,9,Pin_9*%
%TO.N,P9*%
X128438723Y-76800001D03*
%TO.P,J2,10,Pin_10*%
%TO.N,P10*%
X128438723Y-79340001D03*
%TO.P,J2,11,Pin_11*%
%TO.N,P11*%
X128438723Y-81880001D03*
%TO.P,J2,12,Pin_12*%
%TO.N,P12*%
X128438723Y-84420000D03*
%TO.P,J2,13,Pin_13*%
%TO.N,P13*%
X128438723Y-86960001D03*
%TO.P,J2,14,Pin_14*%
%TO.N,P14*%
X128438723Y-89500001D03*
%TO.P,J2,15,Pin_15*%
%TO.N,P15*%
X128438723Y-92040001D03*
%TO.P,J2,16,Pin_16*%
%TO.N,P16*%
X128438723Y-94580000D03*
%TO.P,J2,17,Pin_17*%
%TO.N,P17*%
X128438723Y-97120002D03*
%TO.P,J2,18,Pin_18*%
%TO.N,P18*%
X128438723Y-99660001D03*
%TO.P,J2,19,Pin_19*%
%TO.N,P19*%
X128438723Y-102200001D03*
%TO.P,J2,20,Pin_20*%
%TO.N,P20*%
X128438723Y-104740001D03*
%TO.P,J2,21,Pin_21*%
%TO.N,P21*%
X128438723Y-107280000D03*
%TO.P,J2,22,Pin_22*%
%TO.N,P22*%
X128438723Y-109820001D03*
%TO.P,J2,23,Pin_23*%
%TO.N,P23*%
X128438723Y-112360001D03*
%TO.P,J2,24,Pin_24*%
%TO.N,P24*%
X128438723Y-114900001D03*
%TO.P,J2,25,Pin_25*%
%TO.N,P25*%
X128438723Y-117440000D03*
%TO.P,J2,26,Pin_26*%
%TO.N,P26*%
X128438723Y-119980002D03*
%TO.P,J2,27,Pin_27*%
%TO.N,P27*%
X128438723Y-122520001D03*
%TO.P,J2,28,Pin_28*%
%TO.N,P28*%
X128438723Y-125060001D03*
%TO.P,J2,29,Pin_29*%
%TO.N,P29*%
X128438723Y-127600001D03*
%TO.P,J2,30,Pin_30*%
%TO.N,P30*%
X128438723Y-130140002D03*
%TD*%
D12*
%TO.N,/JA1*%
X105337900Y-102400000D03*
X105337900Y-75000000D03*
X105337900Y-137700001D03*
X105337900Y-47100000D03*
X105337900Y-63100001D03*
X105337900Y-71000000D03*
%TO.N,/JA3*%
X109137900Y-137800000D03*
X109137900Y-106400000D03*
X109137900Y-75000000D03*
X109137900Y-102500000D03*
X109137900Y-98600000D03*
X98837900Y-51100000D03*
X98837900Y-47200000D03*
%TO.N,/JA4*%
X111137900Y-59100000D03*
%TO.N,/JA3*%
X109137900Y-90700000D03*
%TO.N,/JA2*%
X107137900Y-122000000D03*
%TO.N,/JA3*%
X109137900Y-47100000D03*
X109137900Y-59100000D03*
X109137900Y-118200000D03*
X109137900Y-114200001D03*
%TO.N,/JA4*%
X111137900Y-71000000D03*
X110537900Y-140899998D03*
X110137900Y-43500000D03*
X100737900Y-136900000D03*
%TO.N,/JA3*%
X109137900Y-86800000D03*
%TO.N,/JA4*%
X111137900Y-106400000D03*
%TO.N,/JA3*%
X109137900Y-55100000D03*
%TO.N,/JA4*%
X111137900Y-75000000D03*
X111137900Y-137700000D03*
X111137900Y-82800000D03*
X111137900Y-90700000D03*
X111137900Y-102500000D03*
X111137900Y-94700000D03*
%TO.N,/JA3*%
X109137900Y-110300000D03*
%TO.N,P25*%
X104337900Y-128800000D03*
%TO.N,P3*%
X93837901Y-45700000D03*
%TO.N,P4*%
X102937900Y-46300000D03*
%TO.N,P27*%
X103737900Y-135700000D03*
%TO.N,/JA3*%
X109137900Y-63100000D03*
%TO.N,P30*%
X94337900Y-140500000D03*
%TO.N,/JA1*%
X105337900Y-59200000D03*
%TO.N,/JA3*%
X109137900Y-129900000D03*
%TO.N,/JA2*%
X107137900Y-47100000D03*
%TO.N,/JA1*%
X105337900Y-67100000D03*
%TO.N,/JA3*%
X109137900Y-126000001D03*
%TO.N,/JA4*%
X111137900Y-98600000D03*
%TO.N,P6*%
X103437900Y-53700000D03*
%TO.N,/JA1*%
X94837899Y-133850001D03*
X105337900Y-51100000D03*
X94837900Y-51100000D03*
X105337900Y-118100001D03*
X105337900Y-94600000D03*
%TO.N,P10*%
X104137900Y-70600000D03*
%TO.N,/JA1*%
X94837899Y-137850001D03*
X103860900Y-44300000D03*
%TO.N,P12*%
X103437901Y-78400000D03*
%TO.N,/JA4*%
X111137900Y-78900000D03*
X111137900Y-63100000D03*
%TO.N,P8*%
X104137900Y-62000000D03*
%TO.N,/JA1*%
X105337900Y-125900001D03*
X105337900Y-129800000D03*
%TO.N,/JA3*%
X98837900Y-133849999D03*
%TO.N,/JA4*%
X111137900Y-118200000D03*
%TO.N,/JA3*%
X109137900Y-71000000D03*
%TO.N,/JA2*%
X106687899Y-44049999D03*
%TO.N,/JA4*%
X100837900Y-47100001D03*
%TO.N,/JA2*%
X107137900Y-86700001D03*
X107137900Y-118100001D03*
X107137901Y-59100000D03*
X107137901Y-114100000D03*
%TO.N,/JA4*%
X111137900Y-114200001D03*
X111137900Y-126000001D03*
%TO.N,/JA2*%
X107137901Y-125900000D03*
X107137900Y-67100000D03*
X107137900Y-90600000D03*
%TO.N,/JA4*%
X100837900Y-51100000D03*
%TO.N,/JA2*%
X96837900Y-43161001D03*
X107137900Y-129800000D03*
X96837900Y-47100001D03*
X96837900Y-133850000D03*
%TO.N,/JA1*%
X105337900Y-55200000D03*
%TO.N,/JA2*%
X107137900Y-133800000D03*
X107137900Y-51000001D03*
X107137900Y-63100001D03*
X107137900Y-98500000D03*
%TO.N,/JA1*%
X105337900Y-86700001D03*
X105337900Y-82700001D03*
%TO.N,/JA4*%
X111137900Y-110300000D03*
%TO.N,/JA2*%
X107137900Y-106300001D03*
%TO.N,/JA3*%
X109137900Y-94700000D03*
%TO.N,/JA2*%
X107137900Y-110200000D03*
%TO.N,/JA1*%
X105337900Y-110200000D03*
%TO.N,/JA2*%
X96837900Y-51100000D03*
X107137900Y-78800000D03*
%TO.N,/JA3*%
X109137900Y-67200000D03*
%TO.N,/JA2*%
X107137901Y-137700000D03*
%TO.N,/JA1*%
X105837900Y-122000000D03*
%TO.N,/JA3*%
X109137900Y-122100000D03*
%TO.N,/JA4*%
X111137900Y-67100000D03*
X111137900Y-47100001D03*
%TO.N,/JA2*%
X107137900Y-102400000D03*
%TO.N,/JA4*%
X111137900Y-51100000D03*
%TO.N,/JA3*%
X109137900Y-51100000D03*
%TO.N,P23*%
X104137900Y-121500001D03*
%TO.N,/JA2*%
X107137901Y-82700000D03*
X107137901Y-55100000D03*
%TO.N,/JA3*%
X98837900Y-137750000D03*
%TO.N,/JA4*%
X111137900Y-86800000D03*
X111137900Y-133900000D03*
%TO.N,/JA1*%
X105337900Y-90600000D03*
%TO.N,/JA3*%
X109137900Y-133900000D03*
%TO.N,/JA1*%
X105337900Y-114100001D03*
%TO.N,/JA2*%
X107137900Y-71000000D03*
%TO.N,/JA3*%
X108137900Y-43500000D03*
X109137900Y-78900000D03*
%TO.N,/JA1*%
X105337900Y-106300001D03*
%TO.N,/JA4*%
X100837899Y-133850001D03*
%TO.N,/JA1*%
X105337900Y-133800000D03*
%TO.N,/JA4*%
X111137900Y-55100000D03*
%TO.N,/JA2*%
X107137901Y-94600000D03*
%TO.N,/JA1*%
X105337900Y-78800000D03*
%TO.N,/JA3*%
X109137900Y-82800000D03*
%TO.N,/JA1*%
X105337900Y-98500000D03*
X94837900Y-47100000D03*
%TO.N,/JA3*%
X98837900Y-43161001D03*
%TO.N,/JA2*%
X107137901Y-75000000D03*
%TO.N,/JA4*%
X100837900Y-43161001D03*
%TO.N,/JA2*%
X96837900Y-137750000D03*
%TO.N,/JA1*%
X94837900Y-43161001D03*
%TO.N,/JA4*%
X111137900Y-122100000D03*
X111137900Y-129900000D03*
%TO.N,/JA2*%
X74137900Y-47100000D03*
X63837900Y-137750000D03*
%TO.N,/JA1*%
X72337900Y-129800000D03*
X72337900Y-75000000D03*
%TO.N,P23*%
X71137900Y-121500001D03*
%TO.N,/JA1*%
X72337900Y-47100000D03*
X72337900Y-63100001D03*
X72337900Y-71000000D03*
%TO.N,/JA3*%
X76137900Y-114200001D03*
X76137900Y-51100000D03*
X76137900Y-71000000D03*
X76137900Y-133900000D03*
X76137900Y-106400000D03*
X76137900Y-102500000D03*
X76137900Y-63100000D03*
X76137900Y-98600000D03*
X65837900Y-51100000D03*
%TO.N,/JA4*%
X78137900Y-59100000D03*
%TO.N,/JA3*%
X76137900Y-90700000D03*
X76137900Y-47100000D03*
%TO.N,/JA4*%
X67837899Y-133850001D03*
%TO.N,/JA3*%
X76137900Y-59100000D03*
X76137900Y-118200000D03*
%TO.N,/JA4*%
X78137900Y-55100000D03*
X78137900Y-71000000D03*
X77537900Y-140899998D03*
X77137900Y-43500000D03*
X67737900Y-136900000D03*
X67837900Y-47100001D03*
X67837900Y-43161001D03*
%TO.N,/JA2*%
X74137900Y-122000000D03*
%TO.N,/JA3*%
X76137900Y-86800000D03*
%TO.N,/JA4*%
X78137900Y-106400000D03*
%TO.N,/JA3*%
X76137900Y-55100000D03*
%TO.N,/JA1*%
X72337900Y-125900001D03*
%TO.N,/JA4*%
X78137900Y-67100000D03*
X78137900Y-137700000D03*
X78137900Y-82800000D03*
X78137900Y-133900000D03*
X78137900Y-102500000D03*
X78137900Y-94700000D03*
%TO.N,/JA2*%
X74137901Y-59100000D03*
%TO.N,P25*%
X71337900Y-128800000D03*
%TO.N,P3*%
X60837901Y-45700000D03*
%TO.N,P4*%
X69937900Y-46300000D03*
%TO.N,P27*%
X70737900Y-135700000D03*
%TO.N,P30*%
X61337900Y-140500000D03*
%TO.N,/JA1*%
X72337900Y-67100000D03*
%TO.N,/JA3*%
X76137900Y-126000001D03*
%TO.N,P6*%
X70437900Y-53700000D03*
%TO.N,/JA1*%
X72337900Y-133800000D03*
X61837899Y-133850001D03*
%TO.N,/JA3*%
X76137900Y-110300000D03*
%TO.N,/JA1*%
X72337900Y-51100000D03*
%TO.N,/JA3*%
X75137900Y-43500000D03*
%TO.N,/JA1*%
X72337900Y-90600000D03*
X72337900Y-82700001D03*
X61837900Y-51100000D03*
X72337900Y-118100001D03*
X72337900Y-78800000D03*
X72337900Y-106300001D03*
%TO.N,P10*%
X71137900Y-70600000D03*
%TO.N,/JA1*%
X61837899Y-137850001D03*
%TO.N,P12*%
X70437901Y-78400000D03*
%TO.N,/JA4*%
X78137900Y-98600000D03*
%TO.N,P8*%
X71137900Y-62000000D03*
%TO.N,/JA1*%
X72337900Y-86700001D03*
%TO.N,/JA4*%
X78137900Y-78900000D03*
X78137900Y-63100000D03*
%TO.N,/JA1*%
X72337900Y-137700001D03*
%TO.N,/JA3*%
X76137900Y-94700000D03*
X65837900Y-133849999D03*
%TO.N,/JA4*%
X78137900Y-118200000D03*
%TO.N,/JA2*%
X74137900Y-102400000D03*
X74137900Y-86700001D03*
X74137900Y-118100001D03*
X74137901Y-114100000D03*
%TO.N,/JA4*%
X78137900Y-126000001D03*
%TO.N,/JA2*%
X74137900Y-67100000D03*
X74137900Y-90600000D03*
%TO.N,/JA4*%
X67837900Y-51100000D03*
%TO.N,/JA2*%
X63837900Y-43161001D03*
X74137900Y-129800000D03*
X63837900Y-47100001D03*
X63837900Y-133850000D03*
X74137900Y-51000001D03*
X74137900Y-98500000D03*
%TO.N,/JA3*%
X76137900Y-129900000D03*
%TO.N,/JA2*%
X74137900Y-106300001D03*
X74137900Y-133800000D03*
%TO.N,/JA1*%
X72337900Y-102400000D03*
X72337900Y-110200000D03*
%TO.N,/JA2*%
X74137900Y-63100001D03*
X63837900Y-51100000D03*
X74137900Y-78800000D03*
%TO.N,/JA3*%
X76137900Y-67200000D03*
%TO.N,/JA2*%
X74137901Y-137700000D03*
%TO.N,/JA4*%
X78137900Y-75000000D03*
%TO.N,/JA3*%
X65837900Y-43161001D03*
X76137900Y-122100000D03*
%TO.N,/JA1*%
X70860900Y-44300000D03*
X72337900Y-55200000D03*
%TO.N,/JA4*%
X78137900Y-47100001D03*
X78137900Y-51100000D03*
%TO.N,/JA1*%
X72337900Y-94600000D03*
%TO.N,/JA2*%
X73687899Y-44049999D03*
%TO.N,/JA3*%
X76137900Y-137800000D03*
%TO.N,/JA2*%
X74137901Y-82700000D03*
%TO.N,/JA3*%
X65837900Y-137750000D03*
%TO.N,/JA4*%
X78137900Y-86800000D03*
%TO.N,/JA1*%
X72337900Y-114100001D03*
%TO.N,/JA2*%
X74137900Y-71000000D03*
X74137901Y-55100000D03*
X74137901Y-125900000D03*
%TO.N,/JA1*%
X72337900Y-59200000D03*
%TO.N,/JA3*%
X76137900Y-78900000D03*
%TO.N,/JA2*%
X74137900Y-110200000D03*
%TO.N,/JA4*%
X78137900Y-114200001D03*
%TO.N,/JA2*%
X74137901Y-94600000D03*
%TO.N,/JA1*%
X72337900Y-98500000D03*
%TO.N,/JA4*%
X78137900Y-110300000D03*
%TO.N,/JA1*%
X61837900Y-47100000D03*
%TO.N,/JA4*%
X78137900Y-90700000D03*
%TO.N,/JA1*%
X72837900Y-122000000D03*
%TO.N,/JA2*%
X74137901Y-75000000D03*
%TO.N,/JA3*%
X65837900Y-47200000D03*
%TO.N,/JA1*%
X61837900Y-43161001D03*
%TO.N,/JA4*%
X78137900Y-122100000D03*
X78137900Y-129900000D03*
%TO.N,/JA3*%
X76137900Y-82800000D03*
X76137900Y-75000000D03*
%TO.N,P25*%
X137337900Y-128800000D03*
%TO.N,P30*%
X127337900Y-140500000D03*
%TO.N,P3*%
X126837901Y-45700000D03*
%TO.N,P8*%
X137137900Y-62000000D03*
%TO.N,P4*%
X135937900Y-46300000D03*
%TO.N,P27*%
X136737900Y-135700000D03*
%TO.N,P10*%
X137137900Y-70600000D03*
%TO.N,P12*%
X136437901Y-78400000D03*
%TO.N,P6*%
X136437900Y-53700000D03*
%TO.N,/JA1*%
X138337900Y-90600000D03*
X138337900Y-94600000D03*
X138337900Y-110200000D03*
X127837900Y-51100000D03*
X138337900Y-78800000D03*
X138337900Y-133800000D03*
X138337900Y-82700001D03*
X138337900Y-51100000D03*
X127837899Y-133850001D03*
X127837899Y-137850001D03*
X138337900Y-47100000D03*
X138337900Y-106300001D03*
X138337900Y-137700001D03*
X138337900Y-98500000D03*
X138337900Y-86700001D03*
X138337900Y-118100001D03*
X136860900Y-44300000D03*
X138337900Y-67100000D03*
X138337900Y-71000000D03*
X138337900Y-59200000D03*
X138337900Y-114100001D03*
X138337900Y-63100001D03*
X127837900Y-43161001D03*
X138337900Y-55200000D03*
X138837900Y-122000000D03*
X127837900Y-47100000D03*
X138337900Y-129800000D03*
X138337900Y-75000000D03*
X138337900Y-102400000D03*
X138337900Y-125900001D03*
%TO.N,P23*%
X137137900Y-121500001D03*
%TO.N,/JA2*%
X129837900Y-137750000D03*
X140137901Y-59100000D03*
X140137900Y-122000000D03*
X129837900Y-51100000D03*
X140137900Y-47100000D03*
X140137900Y-110200000D03*
X140137900Y-133800000D03*
X140137900Y-98500000D03*
X129837900Y-133850000D03*
X140137901Y-137700000D03*
X140137901Y-55100000D03*
X140137900Y-129800000D03*
X140137900Y-71000000D03*
X140137900Y-51000001D03*
X129837900Y-47100001D03*
X129837900Y-43161001D03*
X140137900Y-106300001D03*
X140137901Y-75000000D03*
X140137901Y-125900000D03*
X140137901Y-94600000D03*
X140137901Y-82700000D03*
X140137900Y-63100001D03*
X140137900Y-118100001D03*
X140137900Y-90600000D03*
X140137900Y-78800000D03*
X140137901Y-114100000D03*
X140137900Y-102400000D03*
X140137900Y-67100000D03*
X140137900Y-86700001D03*
X139687899Y-44049999D03*
%TO.N,/JA4*%
X144137900Y-126000001D03*
X144137900Y-86800000D03*
X144137900Y-67100000D03*
X133837900Y-51100000D03*
X144137900Y-51100000D03*
X144137900Y-133900000D03*
X144137900Y-63100000D03*
X144137900Y-90700000D03*
X144137900Y-82800000D03*
X144137900Y-47100001D03*
X144137900Y-94700000D03*
X144137900Y-102500000D03*
X144137900Y-137700000D03*
X144137900Y-114200001D03*
X144137900Y-98600000D03*
X144137900Y-75000000D03*
X143537900Y-140899998D03*
X143137900Y-43500000D03*
X144137900Y-55100000D03*
X144137900Y-71000000D03*
X144137900Y-118200000D03*
X133837900Y-43161001D03*
X144137900Y-78900000D03*
X133837900Y-47100001D03*
X144137900Y-129900000D03*
X144137900Y-106400000D03*
X133737900Y-136900000D03*
X144137900Y-122100000D03*
X133837899Y-133850001D03*
X144137900Y-59100000D03*
X144137900Y-110300000D03*
%TO.N,/JA3*%
X142137900Y-47100000D03*
X141137900Y-43500000D03*
X142137900Y-90700000D03*
X142137900Y-86800000D03*
X131837900Y-47200000D03*
X142137900Y-67200000D03*
X131837900Y-137750000D03*
X142137900Y-59100000D03*
X142137900Y-118200000D03*
X142137900Y-102500000D03*
X142137900Y-114200001D03*
X142137900Y-122100000D03*
X142137900Y-129900000D03*
X142137900Y-51100000D03*
X142137900Y-133900000D03*
X142137900Y-71000000D03*
X142137900Y-98600000D03*
X142137900Y-126000001D03*
X142137900Y-110300000D03*
X142137900Y-82800000D03*
X142137900Y-55100000D03*
X131837900Y-51100000D03*
X131837900Y-133849999D03*
X142137900Y-75000000D03*
X142137900Y-106400000D03*
X142137900Y-78900000D03*
X142137900Y-94700000D03*
X142137900Y-63100000D03*
X142137900Y-137800000D03*
X131837900Y-43161001D03*
%TD*%
D13*
%TO.N,P30*%
X93837900Y-131740826D02*
X95438723Y-130140003D01*
%TO.N,P3*%
X93837902Y-60800001D02*
X94597900Y-61559999D01*
D14*
%TO.N,P25*%
X103137900Y-127000000D02*
X103137900Y-120059176D01*
D13*
%TO.N,P3*%
X93837901Y-45700000D02*
X93837902Y-60800001D01*
D14*
%TO.N,P10*%
X104137900Y-75760823D02*
X104137900Y-70600000D01*
D13*
%TO.N,P30*%
X93837900Y-140000000D02*
X93837900Y-131740826D01*
X94337900Y-140500000D02*
X93837900Y-140000000D01*
D14*
%TO.N,P8*%
X104137900Y-66804319D02*
X104137900Y-62000000D01*
X101989723Y-72829001D02*
X101989723Y-68952496D01*
%TO.N,P4*%
X102937900Y-46300000D02*
X102937901Y-52500000D01*
%TO.N,P8*%
X101989723Y-68952496D02*
X104137900Y-66804319D01*
%TO.N,P27*%
X103737901Y-131500000D02*
X103737900Y-135700000D01*
%TO.N,/JA1*%
X96137900Y-53900000D02*
X94837900Y-52600000D01*
%TO.N,P23*%
X104137900Y-115979177D02*
X100538723Y-112380000D01*
%TO.N,/JA1*%
X105337900Y-55200000D02*
X105337900Y-51100000D01*
X105337900Y-118100001D02*
X105837900Y-118600000D01*
X103660900Y-44500000D02*
X103860900Y-44300000D01*
X105337900Y-51100000D02*
X105337900Y-47100000D01*
X102687900Y-44950001D02*
X102436901Y-45201000D01*
X94837900Y-52600000D02*
X94837900Y-51100000D01*
%TO.N,P23*%
X104137900Y-121500001D02*
X104137900Y-115979177D01*
%TO.N,/JA1*%
X105837900Y-125400001D02*
X105337900Y-125900001D01*
D13*
X96587900Y-132100000D02*
X100149973Y-132100000D01*
D14*
X102436901Y-45201000D02*
X101937900Y-45700001D01*
X105337899Y-67200000D02*
X105337900Y-67100000D01*
X105337900Y-94600000D02*
X105337900Y-98500000D01*
X105337900Y-86700001D02*
X105337900Y-90600000D01*
D13*
X100149973Y-132100000D02*
X102886900Y-134836927D01*
D14*
%TO.N,P4*%
X102937901Y-52500000D02*
X101989723Y-53448178D01*
%TO.N,P25*%
X103137900Y-120059176D02*
X100538723Y-117459999D01*
%TO.N,/JA1*%
X105337899Y-46700000D02*
X105337900Y-47100000D01*
%TO.N,/JA3*%
X109137900Y-78900000D02*
X109137900Y-75000000D01*
D13*
%TO.N,/JA1*%
X102886900Y-134836927D02*
X102886900Y-136052496D01*
D14*
%TO.N,/JA3*%
X109137900Y-47100000D02*
X109137900Y-44500000D01*
X109137900Y-118200000D02*
X109137900Y-114200001D01*
X98837900Y-51100000D02*
X98837900Y-47200000D01*
X109137900Y-44500000D02*
X108137900Y-43500000D01*
D13*
X98837900Y-137750000D02*
X98837900Y-133849999D01*
X100047536Y-139252000D02*
X107685900Y-139252000D01*
D14*
X109137900Y-51100000D02*
X109137900Y-47100000D01*
D13*
X107685900Y-139252000D02*
X109137900Y-137800000D01*
D14*
%TO.N,/JA1*%
X105337900Y-102400000D02*
X105337900Y-106300001D01*
%TO.N,/JA4*%
X100837900Y-47100001D02*
X100837900Y-43161001D01*
D13*
X110537901Y-138300000D02*
X111137900Y-137700000D01*
D14*
X111137900Y-110300000D02*
X111137900Y-106400000D01*
%TO.N,/JA3*%
X109137900Y-102500000D02*
X109137900Y-98600000D01*
%TO.N,/JA4*%
X111137900Y-118200000D02*
X111137900Y-114200001D01*
D13*
X100737900Y-133950000D02*
X100837899Y-133850001D01*
D15*
X109238899Y-42600999D02*
X101397903Y-42600999D01*
D14*
%TO.N,/JA1*%
X105337900Y-82700001D02*
X105337900Y-86700001D01*
%TO.N,/JA4*%
X111137900Y-129900000D02*
X111137900Y-126000001D01*
X111137900Y-133900000D02*
X111137900Y-129900000D01*
X111137900Y-63100000D02*
X111137900Y-59100000D01*
%TO.N,/JA3*%
X109137900Y-106400000D02*
X109137900Y-102500000D01*
X109137900Y-71000000D02*
X109137900Y-67200000D01*
%TO.N,/JA1*%
X105337900Y-125900001D02*
X105337900Y-129800000D01*
%TO.N,/JA4*%
X111137900Y-78900000D02*
X111137900Y-75000000D01*
X111137900Y-59100000D02*
X111137900Y-55100000D01*
X111137900Y-102500000D02*
X111137900Y-98600000D01*
X111137900Y-137700000D02*
X111137900Y-133900000D01*
X111137900Y-86800000D02*
X111137900Y-82800000D01*
X111137900Y-71000000D02*
X111137900Y-67100000D01*
%TO.N,/JA3*%
X109137900Y-126000001D02*
X109137900Y-122100000D01*
D13*
%TO.N,/JA1*%
X94837899Y-133850001D02*
X96587900Y-132100000D01*
D14*
%TO.N,/JA3*%
X109137900Y-82800000D02*
X109137900Y-78900000D01*
%TO.N,/JA1*%
X105337900Y-59200000D02*
X105337900Y-55200000D01*
D13*
X94837899Y-137850001D02*
X94837899Y-133850001D01*
D14*
X105337900Y-67100000D02*
X105337900Y-71000000D01*
D13*
%TO.N,/JA3*%
X98837900Y-137750000D02*
X98837900Y-138042364D01*
D14*
X109137900Y-94700000D02*
X109137900Y-90700000D01*
%TO.N,P27*%
X100538723Y-122540000D02*
X101989723Y-123991000D01*
%TO.N,P25*%
X104337900Y-128800000D02*
X104337900Y-128200000D01*
%TO.N,/JA3*%
X109137900Y-90700000D02*
X109137900Y-86800000D01*
X109137900Y-55100000D02*
X109137900Y-51100000D01*
%TO.N,P6*%
X100538723Y-69200000D02*
X100538723Y-68712024D01*
%TO.N,/JA1*%
X105337900Y-114100001D02*
X105337900Y-118100001D01*
%TO.N,P6*%
X103136900Y-54001000D02*
X103437900Y-53700000D01*
X103136900Y-66113847D02*
X103136900Y-54001000D01*
D13*
%TO.N,/JA3*%
X98837900Y-138042364D02*
X100047536Y-139252000D01*
D14*
%TO.N,/JA1*%
X105837900Y-122000000D02*
X105837900Y-125400001D01*
%TO.N,/JA3*%
X109137900Y-129900000D02*
X109137900Y-126000001D01*
X109137900Y-110300000D02*
X109137900Y-106400000D01*
X98837900Y-47200000D02*
X98837900Y-43161001D01*
%TO.N,/JA1*%
X99453528Y-53900000D02*
X96137900Y-53900000D01*
D13*
X102886900Y-136052496D02*
X104534404Y-137700000D01*
D14*
X94837900Y-47100000D02*
X94837900Y-43161001D01*
%TO.N,/JA3*%
X109137900Y-67200000D02*
X109137900Y-63100000D01*
X109137900Y-63100000D02*
X109137900Y-59100000D01*
%TO.N,/JA4*%
X111137900Y-44500000D02*
X110137900Y-43500000D01*
X111137900Y-90700000D02*
X111137900Y-86800000D01*
%TO.N,P6*%
X100538723Y-68712024D02*
X103136900Y-66113847D01*
%TO.N,/JA3*%
X109137900Y-86800000D02*
X109137900Y-82800000D01*
%TO.N,P10*%
X100538723Y-79360000D02*
X104137900Y-75760823D01*
%TO.N,/JA4*%
X111137900Y-75000000D02*
X111137900Y-71000000D01*
X111137900Y-82800000D02*
X111137900Y-78900000D01*
D13*
X100737900Y-136900000D02*
X100737900Y-133950000D01*
D14*
%TO.N,/JA1*%
X105337900Y-75000000D02*
X105337900Y-78800000D01*
%TO.N,/JA4*%
X111137900Y-114200001D02*
X111137900Y-110300000D01*
X111137900Y-98600000D02*
X111137900Y-94700000D01*
%TO.N,/JA1*%
X105337900Y-98500000D02*
X105337900Y-102400000D01*
%TO.N,P8*%
X100538723Y-74280002D02*
X101989723Y-72829001D01*
%TO.N,/JA4*%
X111137900Y-106400000D02*
X111137900Y-102500000D01*
X111137900Y-51100000D02*
X111137900Y-47100001D01*
%TO.N,/JA1*%
X105337900Y-106300001D02*
X105337900Y-110200000D01*
X105337899Y-67200000D02*
X105337900Y-63100001D01*
D13*
%TO.N,/JA4*%
X110537900Y-140899998D02*
X110537901Y-138300000D01*
D14*
%TO.N,/JA1*%
X94837900Y-51100000D02*
X94837900Y-47100000D01*
X102436901Y-45201000D02*
X103137900Y-44500001D01*
D13*
%TO.N,/JA2*%
X97587900Y-133100000D02*
X96837900Y-133850000D01*
D14*
%TO.N,/JA4*%
X111137900Y-126000001D02*
X111137900Y-122100000D01*
%TO.N,/JA1*%
X103137900Y-44500001D02*
X105337899Y-46700000D01*
D13*
%TO.N,/JA2*%
X100337901Y-138551000D02*
X99588901Y-137802000D01*
D14*
X107137901Y-114100000D02*
X107137900Y-118100001D01*
X107137901Y-82700000D02*
X107137900Y-86700001D01*
%TO.N,/JA4*%
X100837900Y-51100000D02*
X100837900Y-47100001D01*
D13*
%TO.N,/JA2*%
X99588901Y-137802000D02*
X99588901Y-133538924D01*
D14*
X107137900Y-51000001D02*
X107137900Y-47100000D01*
X107137901Y-75000000D02*
X107137900Y-78800000D01*
D13*
X106286900Y-138551000D02*
X107137901Y-137700000D01*
D14*
X107137900Y-78800000D02*
X107137901Y-82700000D01*
D15*
%TO.N,/JA4*%
X101397903Y-42600999D02*
X100837900Y-43161001D01*
D14*
%TO.N,/JA2*%
X107137901Y-44500000D02*
X107137900Y-47100000D01*
%TO.N,P27*%
X101989723Y-123991000D02*
X101989723Y-129751823D01*
%TO.N,/JA2*%
X107137901Y-94600000D02*
X107137900Y-98500000D01*
%TO.N,P4*%
X101989723Y-62669000D02*
X100538723Y-64120000D01*
%TO.N,P27*%
X101989723Y-129751823D02*
X103737901Y-131500000D01*
%TO.N,/JA2*%
X107137901Y-55100000D02*
X107137901Y-59100000D01*
%TO.N,/JA1*%
X105337900Y-71000000D02*
X105337900Y-75000000D01*
%TO.N,/JA2*%
X107137900Y-106300001D02*
X107137900Y-110200000D01*
%TO.N,/JA1*%
X105837900Y-118600000D02*
X105837900Y-122000000D01*
%TO.N,/JA2*%
X107137900Y-118100001D02*
X107137900Y-122000000D01*
%TO.N,P12*%
X100538723Y-84439999D02*
X103437900Y-81540822D01*
%TO.N,/JA2*%
X107137900Y-86700001D02*
X107137900Y-90600000D01*
D13*
%TO.N,/JA1*%
X104534404Y-137700000D02*
X105337900Y-137700001D01*
D14*
X105337900Y-63100001D02*
X105337900Y-59200000D01*
%TO.N,/JA4*%
X111137900Y-47100001D02*
X111137900Y-44500000D01*
%TO.N,/JA2*%
X107137900Y-71000000D02*
X107137901Y-75000000D01*
X107137901Y-59100000D02*
X107137900Y-63100001D01*
%TO.N,/JA4*%
X111137900Y-55100000D02*
X111137900Y-51100000D01*
%TO.N,P25*%
X104337900Y-128200000D02*
X103137900Y-127000000D01*
D13*
%TO.N,/JA2*%
X99588901Y-133538924D02*
X99149976Y-133100000D01*
D14*
X107137900Y-122000000D02*
X107137901Y-125900000D01*
D13*
X96837900Y-137750000D02*
X96837900Y-133850000D01*
D14*
X106687899Y-44049999D02*
X107137901Y-44500000D01*
%TO.N,/JA1*%
X105337900Y-90600000D02*
X105337900Y-94600000D01*
%TO.N,/JA3*%
X109137900Y-59100000D02*
X109137900Y-55100000D01*
%TO.N,/JA2*%
X107137900Y-63100001D02*
X107137900Y-67100000D01*
%TO.N,/JA1*%
X105337900Y-110200000D02*
X105337900Y-114100001D01*
%TO.N,/JA3*%
X109137900Y-75000000D02*
X109137900Y-71000000D01*
D13*
%TO.N,/JA2*%
X100337901Y-138551000D02*
X106286900Y-138551000D01*
D14*
X107137901Y-125900000D02*
X107137900Y-129800000D01*
%TO.N,P4*%
X101989723Y-53448178D02*
X101989723Y-62669000D01*
%TO.N,/JA1*%
X105337900Y-129800000D02*
X105337900Y-133800000D01*
%TO.N,/JA2*%
X107137900Y-110200000D02*
X107137901Y-114100000D01*
%TO.N,/JA1*%
X101937900Y-51415628D02*
X99453528Y-53900000D01*
%TO.N,/JA2*%
X107137900Y-133800000D02*
X107137901Y-137700000D01*
D13*
X99149976Y-133100000D02*
X97587900Y-133100000D01*
D14*
%TO.N,/JA3*%
X109137900Y-133900000D02*
X109137900Y-129900000D01*
%TO.N,/JA4*%
X111137900Y-122100000D02*
X111137900Y-118200000D01*
%TO.N,/JA1*%
X105337900Y-78800000D02*
X105337900Y-82700001D01*
X103137900Y-44500001D02*
X103660900Y-44500000D01*
X105337900Y-133800000D02*
X105337900Y-137700001D01*
%TO.N,/JA4*%
X111137900Y-94700000D02*
X111137900Y-90700000D01*
X111137900Y-67100000D02*
X111137900Y-63100000D01*
D15*
X110137900Y-43500000D02*
X109238899Y-42600999D01*
D14*
%TO.N,/JA2*%
X107137900Y-90600000D02*
X107137901Y-94600000D01*
X107137900Y-67100000D02*
X107137900Y-71000000D01*
D13*
%TO.N,P3*%
X94597900Y-61559999D02*
X94597900Y-61560000D01*
D14*
%TO.N,/JA2*%
X107137900Y-98500000D02*
X107137900Y-102400000D01*
X107137900Y-129800000D02*
X107137900Y-133800000D01*
%TO.N,/JA3*%
X109137900Y-122100000D02*
X109137900Y-118200000D01*
X109137900Y-98600000D02*
X109137900Y-94700000D01*
%TO.N,/JA1*%
X101937900Y-45700001D02*
X101937900Y-51415628D01*
%TO.N,P12*%
X103437900Y-81540822D02*
X103437901Y-78400000D01*
D13*
%TO.N,P3*%
X94597900Y-61560000D02*
X95438723Y-61560000D01*
D14*
%TO.N,/JA2*%
X96837900Y-47100001D02*
X96837900Y-43161001D01*
X107137900Y-102400000D02*
X107137900Y-106300001D01*
X96837900Y-47100001D02*
X96837900Y-51100000D01*
%TO.N,/JA3*%
X109137900Y-114200001D02*
X109137900Y-110300000D01*
X109137900Y-137800000D02*
X109137900Y-133900000D01*
%TO.N,/JA2*%
X107137900Y-51000001D02*
X107137901Y-55100000D01*
D13*
%TO.N,P30*%
X60837900Y-131740826D02*
X62438723Y-130140003D01*
%TO.N,P3*%
X61597900Y-61560000D02*
X62438723Y-61560000D01*
D14*
%TO.N,P25*%
X70137900Y-127000000D02*
X70137900Y-120059176D01*
D13*
%TO.N,P30*%
X60837900Y-140000000D02*
X60837900Y-131740826D01*
X61337900Y-140500000D02*
X60837900Y-140000000D01*
D14*
%TO.N,P27*%
X68989723Y-129751823D02*
X70737901Y-131500000D01*
%TO.N,P8*%
X68989723Y-72829001D02*
X68989723Y-68952496D01*
%TO.N,P4*%
X69937900Y-46300000D02*
X69937901Y-52500000D01*
%TO.N,P8*%
X68989723Y-68952496D02*
X71137900Y-66804319D01*
%TO.N,P27*%
X70737901Y-131500000D02*
X70737900Y-135700000D01*
%TO.N,/JA1*%
X72337900Y-67100000D02*
X72337900Y-71000000D01*
%TO.N,P23*%
X71137900Y-115979177D02*
X67538723Y-112380000D01*
%TO.N,/JA1*%
X66453528Y-53900000D02*
X63137900Y-53900000D01*
X72337900Y-55200000D02*
X72337900Y-51100000D01*
X72337900Y-106300001D02*
X72337900Y-110200000D01*
X68937900Y-51415628D02*
X66453528Y-53900000D01*
D13*
X71534404Y-137700000D02*
X72337900Y-137700001D01*
D14*
%TO.N,P23*%
X71137900Y-121500001D02*
X71137900Y-115979177D01*
%TO.N,/JA1*%
X72837900Y-125400001D02*
X72337900Y-125900001D01*
D13*
X63587900Y-132100000D02*
X67149973Y-132100000D01*
D14*
X69436901Y-45201000D02*
X68937900Y-45700001D01*
X72837900Y-122000000D02*
X72837900Y-125400001D01*
X72337900Y-86700001D02*
X72337900Y-90600000D01*
D13*
X67149973Y-132100000D02*
X69886900Y-134836927D01*
D14*
%TO.N,P25*%
X71337900Y-128800000D02*
X71337900Y-128200000D01*
%TO.N,/JA1*%
X72337899Y-46700000D02*
X72337900Y-47100000D01*
%TO.N,/JA3*%
X76137900Y-78900000D02*
X76137900Y-75000000D01*
X76137900Y-47100000D02*
X76137900Y-44500000D01*
X76137900Y-63100000D02*
X76137900Y-59100000D01*
%TO.N,/JA1*%
X72337899Y-67200000D02*
X72337900Y-63100001D01*
%TO.N,/JA3*%
X65837900Y-51100000D02*
X65837900Y-47200000D01*
X76137900Y-44500000D02*
X75137900Y-43500000D01*
X65837900Y-47200000D02*
X65837900Y-43161001D01*
X76137900Y-114200001D02*
X76137900Y-110300000D01*
%TO.N,/JA4*%
X67837900Y-47100001D02*
X67837900Y-43161001D01*
D13*
X77537901Y-138300000D02*
X78137900Y-137700000D01*
D14*
X78137900Y-67100000D02*
X78137900Y-63100000D01*
X78137900Y-110300000D02*
X78137900Y-106400000D01*
D13*
%TO.N,P3*%
X60837902Y-60800001D02*
X61597900Y-61559999D01*
D14*
%TO.N,/JA4*%
X78137900Y-94700000D02*
X78137900Y-90700000D01*
X78137900Y-118200000D02*
X78137900Y-114200001D01*
D13*
X67737900Y-133950000D02*
X67837899Y-133850001D01*
D14*
X78137900Y-133900000D02*
X78137900Y-129900000D01*
X78137900Y-63100000D02*
X78137900Y-59100000D01*
%TO.N,/JA3*%
X76137900Y-106400000D02*
X76137900Y-102500000D01*
%TO.N,P8*%
X71137900Y-66804319D02*
X71137900Y-62000000D01*
%TO.N,/JA3*%
X76137900Y-71000000D02*
X76137900Y-67200000D01*
%TO.N,/JA1*%
X72337900Y-125900001D02*
X72337900Y-129800000D01*
%TO.N,/JA4*%
X78137900Y-102500000D02*
X78137900Y-98600000D01*
X78137900Y-137700000D02*
X78137900Y-133900000D01*
X78137900Y-122100000D02*
X78137900Y-118200000D01*
X78137900Y-71000000D02*
X78137900Y-67100000D01*
%TO.N,/JA1*%
X72337900Y-133800000D02*
X72337900Y-137700001D01*
D13*
%TO.N,/JA3*%
X65837900Y-137750000D02*
X65837900Y-138042364D01*
D14*
X76137900Y-51100000D02*
X76137900Y-47100000D01*
D13*
%TO.N,/JA1*%
X61837899Y-133850001D02*
X63587900Y-132100000D01*
D14*
%TO.N,P4*%
X68989723Y-62669000D02*
X67538723Y-64120000D01*
%TO.N,/JA1*%
X70660900Y-44500000D02*
X70860900Y-44300000D01*
%TO.N,P27*%
X67538723Y-122540000D02*
X68989723Y-123991000D01*
D13*
%TO.N,/JA1*%
X61837899Y-137850001D02*
X61837899Y-133850001D01*
%TO.N,/JA3*%
X65837900Y-137750000D02*
X65837900Y-133849999D01*
D14*
X76137900Y-90700000D02*
X76137900Y-86800000D01*
X76137900Y-137800000D02*
X76137900Y-133900000D01*
X76137900Y-55100000D02*
X76137900Y-51100000D01*
%TO.N,P6*%
X67538723Y-69200000D02*
X67538723Y-68712024D01*
D13*
%TO.N,P3*%
X60837901Y-45700000D02*
X60837902Y-60800001D01*
D14*
%TO.N,P6*%
X67538723Y-68712024D02*
X70136900Y-66113847D01*
%TO.N,/JA1*%
X72337900Y-114100001D02*
X72337900Y-118100001D01*
%TO.N,P6*%
X70136900Y-54001000D02*
X70437900Y-53700000D01*
X70136900Y-66113847D02*
X70136900Y-54001000D01*
%TO.N,/JA3*%
X76137900Y-67200000D02*
X76137900Y-63100000D01*
D13*
X65837900Y-138042364D02*
X67047536Y-139252000D01*
D14*
%TO.N,P27*%
X68989723Y-123991000D02*
X68989723Y-129751823D01*
%TO.N,/JA1*%
X69687900Y-44950001D02*
X69436901Y-45201000D01*
%TO.N,/JA4*%
X78137900Y-59100000D02*
X78137900Y-55100000D01*
%TO.N,P4*%
X68989723Y-53448178D02*
X68989723Y-62669000D01*
%TO.N,/JA3*%
X76137900Y-129900000D02*
X76137900Y-126000001D01*
X76137900Y-110300000D02*
X76137900Y-106400000D01*
%TO.N,/JA1*%
X72337900Y-94600000D02*
X72337900Y-98500000D01*
X72337899Y-67200000D02*
X72337900Y-67100000D01*
%TO.N,/JA4*%
X78137900Y-44500000D02*
X77137900Y-43500000D01*
X78137900Y-90700000D02*
X78137900Y-86800000D01*
%TO.N,P8*%
X67538723Y-74280002D02*
X68989723Y-72829001D01*
%TO.N,/JA3*%
X76137900Y-94700000D02*
X76137900Y-90700000D01*
%TO.N,/JA4*%
X78137900Y-82800000D02*
X78137900Y-78900000D01*
D13*
X67737900Y-136900000D02*
X67737900Y-133950000D01*
D14*
%TO.N,/JA1*%
X72337900Y-75000000D02*
X72337900Y-78800000D01*
%TO.N,/JA4*%
X78137900Y-47100001D02*
X78137900Y-44500000D01*
%TO.N,/JA1*%
X61837900Y-52600000D02*
X61837900Y-51100000D01*
%TO.N,/JA4*%
X78137900Y-114200001D02*
X78137900Y-110300000D01*
X78137900Y-98600000D02*
X78137900Y-94700000D01*
D13*
%TO.N,/JA1*%
X69886900Y-136052496D02*
X71534404Y-137700000D01*
D14*
%TO.N,/JA4*%
X78137900Y-86800000D02*
X78137900Y-82800000D01*
%TO.N,/JA1*%
X72337900Y-98500000D02*
X72337900Y-102400000D01*
%TO.N,/JA3*%
X76137900Y-122100000D02*
X76137900Y-118200000D01*
%TO.N,/JA4*%
X78137900Y-51100000D02*
X78137900Y-47100001D01*
%TO.N,/JA1*%
X72337900Y-82700001D02*
X72337900Y-86700001D01*
D13*
%TO.N,/JA4*%
X77537900Y-140899998D02*
X77537901Y-138300000D01*
D14*
X78137900Y-129900000D02*
X78137900Y-126000001D01*
%TO.N,/JA1*%
X61837900Y-51100000D02*
X61837900Y-47100000D01*
X69436901Y-45201000D02*
X70137900Y-44500001D01*
D13*
%TO.N,/JA2*%
X64587900Y-133100000D02*
X63837900Y-133850000D01*
%TO.N,/JA3*%
X74685900Y-139252000D02*
X76137900Y-137800000D01*
D14*
%TO.N,/JA4*%
X78137900Y-126000001D02*
X78137900Y-122100000D01*
%TO.N,/JA1*%
X72337900Y-59200000D02*
X72337900Y-55200000D01*
X70137900Y-44500001D02*
X72337899Y-46700000D01*
D13*
X69886900Y-134836927D02*
X69886900Y-136052496D01*
%TO.N,/JA2*%
X67337901Y-138551000D02*
X66588901Y-137802000D01*
D14*
%TO.N,/JA3*%
X76137900Y-102500000D02*
X76137900Y-98600000D01*
%TO.N,/JA2*%
X74137901Y-114100000D02*
X74137900Y-118100001D01*
X74137901Y-82700000D02*
X74137900Y-86700001D01*
D13*
X66588901Y-137802000D02*
X66588901Y-133538924D01*
D14*
%TO.N,P12*%
X70437900Y-81540822D02*
X70437901Y-78400000D01*
%TO.N,/JA2*%
X74137901Y-75000000D02*
X74137900Y-78800000D01*
D15*
%TO.N,/JA4*%
X76238899Y-42600999D02*
X68397903Y-42600999D01*
D13*
%TO.N,/JA2*%
X73286900Y-138551000D02*
X74137901Y-137700000D01*
D14*
X74137900Y-78800000D02*
X74137901Y-82700000D01*
D15*
%TO.N,/JA4*%
X68397903Y-42600999D02*
X67837900Y-43161001D01*
D14*
%TO.N,/JA2*%
X74137901Y-44500000D02*
X74137900Y-47100000D01*
X74137901Y-94600000D02*
X74137900Y-98500000D01*
D13*
%TO.N,/JA3*%
X67047536Y-139252000D02*
X74685900Y-139252000D01*
D14*
%TO.N,/JA2*%
X74137900Y-90600000D02*
X74137901Y-94600000D01*
X74137901Y-55100000D02*
X74137901Y-59100000D01*
%TO.N,/JA1*%
X72337900Y-71000000D02*
X72337900Y-75000000D01*
X72337900Y-102400000D02*
X72337900Y-106300001D01*
X72837900Y-118600000D02*
X72837900Y-122000000D01*
%TO.N,/JA2*%
X74137900Y-118100001D02*
X74137900Y-122000000D01*
%TO.N,/JA1*%
X72337900Y-118100001D02*
X72837900Y-118600000D01*
%TO.N,P12*%
X67538723Y-84439999D02*
X70437900Y-81540822D01*
%TO.N,/JA2*%
X74137900Y-86700001D02*
X74137900Y-90600000D01*
%TO.N,/JA4*%
X67837900Y-51100000D02*
X67837900Y-47100001D01*
%TO.N,/JA1*%
X72337900Y-63100001D02*
X72337900Y-59200000D01*
%TO.N,/JA2*%
X74137900Y-71000000D02*
X74137901Y-75000000D01*
X74137901Y-59100000D02*
X74137900Y-63100001D01*
%TO.N,/JA4*%
X78137900Y-55100000D02*
X78137900Y-51100000D01*
D13*
%TO.N,/JA2*%
X66588901Y-133538924D02*
X66149976Y-133100000D01*
D14*
X74137900Y-122000000D02*
X74137901Y-125900000D01*
D13*
X63837900Y-137750000D02*
X63837900Y-133850000D01*
D14*
X73687899Y-44049999D02*
X74137901Y-44500000D01*
%TO.N,/JA1*%
X72337900Y-90600000D02*
X72337900Y-94600000D01*
%TO.N,/JA3*%
X76137900Y-59100000D02*
X76137900Y-55100000D01*
%TO.N,/JA4*%
X78137900Y-78900000D02*
X78137900Y-75000000D01*
%TO.N,/JA2*%
X74137900Y-63100001D02*
X74137900Y-67100000D01*
%TO.N,/JA1*%
X72337900Y-110200000D02*
X72337900Y-114100001D01*
D13*
%TO.N,/JA2*%
X67337901Y-138551000D02*
X73286900Y-138551000D01*
%TO.N,P3*%
X61597900Y-61559999D02*
X61597900Y-61560000D01*
D14*
%TO.N,/JA2*%
X74137901Y-125900000D02*
X74137900Y-129800000D01*
X74137900Y-102400000D02*
X74137900Y-106300001D01*
%TO.N,P25*%
X71337900Y-128200000D02*
X70137900Y-127000000D01*
%TO.N,/JA2*%
X74137900Y-110200000D02*
X74137901Y-114100000D01*
%TO.N,P25*%
X70137900Y-120059176D02*
X67538723Y-117459999D01*
%TO.N,/JA2*%
X74137900Y-133800000D02*
X74137901Y-137700000D01*
D13*
X66149976Y-133100000D02*
X64587900Y-133100000D01*
D14*
%TO.N,/JA3*%
X76137900Y-118200000D02*
X76137900Y-114200001D01*
%TO.N,/JA4*%
X78137900Y-106400000D02*
X78137900Y-102500000D01*
%TO.N,/JA3*%
X76137900Y-133900000D02*
X76137900Y-129900000D01*
X76137900Y-126000001D02*
X76137900Y-122100000D01*
%TO.N,P4*%
X69937901Y-52500000D02*
X68989723Y-53448178D01*
%TO.N,/JA1*%
X72337900Y-78800000D02*
X72337900Y-82700001D01*
X70137900Y-44500001D02*
X70660900Y-44500000D01*
%TO.N,/JA3*%
X76137900Y-75000000D02*
X76137900Y-71000000D01*
%TO.N,P10*%
X71137900Y-75760823D02*
X71137900Y-70600000D01*
%TO.N,/JA2*%
X74137900Y-51000001D02*
X74137900Y-47100000D01*
D15*
%TO.N,/JA4*%
X77137900Y-43500000D02*
X76238899Y-42600999D01*
D14*
X78137900Y-75000000D02*
X78137900Y-71000000D01*
%TO.N,/JA1*%
X72337900Y-129800000D02*
X72337900Y-133800000D01*
%TO.N,/JA2*%
X74137900Y-67100000D02*
X74137900Y-71000000D01*
X74137900Y-98500000D02*
X74137900Y-102400000D01*
%TO.N,P10*%
X67538723Y-79360000D02*
X71137900Y-75760823D01*
%TO.N,/JA3*%
X76137900Y-82800000D02*
X76137900Y-78900000D01*
%TO.N,/JA2*%
X74137900Y-129800000D02*
X74137900Y-133800000D01*
%TO.N,/JA1*%
X61837900Y-47100000D02*
X61837900Y-43161001D01*
X72337900Y-51100000D02*
X72337900Y-47100000D01*
%TO.N,/JA3*%
X76137900Y-86800000D02*
X76137900Y-82800000D01*
X76137900Y-98600000D02*
X76137900Y-94700000D01*
%TO.N,/JA1*%
X68937900Y-45700001D02*
X68937900Y-51415628D01*
X63137900Y-53900000D02*
X61837900Y-52600000D01*
%TO.N,/JA2*%
X63837900Y-47100001D02*
X63837900Y-43161001D01*
X74137900Y-106300001D02*
X74137900Y-110200000D01*
X63837900Y-47100001D02*
X63837900Y-51100000D01*
X74137900Y-51000001D02*
X74137901Y-55100000D01*
%TO.N,P25*%
X137337900Y-128200000D02*
X136137900Y-127000000D01*
X136137900Y-120059176D02*
X133538723Y-117459999D01*
X137337900Y-128800000D02*
X137337900Y-128200000D01*
X136137900Y-127000000D02*
X136137900Y-120059176D01*
D13*
%TO.N,P30*%
X126837900Y-140000000D02*
X126837900Y-131740826D01*
X127337900Y-140500000D02*
X126837900Y-140000000D01*
X126837900Y-131740826D02*
X128438723Y-130140003D01*
%TO.N,P3*%
X127597900Y-61559999D02*
X127597900Y-61560000D01*
X126837901Y-45700000D02*
X126837902Y-60800001D01*
X126837902Y-60800001D02*
X127597900Y-61559999D01*
X127597900Y-61560000D02*
X128438723Y-61560000D01*
D14*
%TO.N,P8*%
X134989723Y-72829001D02*
X134989723Y-68952496D01*
X134989723Y-68952496D02*
X137137900Y-66804319D01*
X137137900Y-66804319D02*
X137137900Y-62000000D01*
X133538723Y-74280002D02*
X134989723Y-72829001D01*
%TO.N,P4*%
X135937900Y-46300000D02*
X135937901Y-52500000D01*
X134989723Y-53448178D02*
X134989723Y-62669000D01*
X134989723Y-62669000D02*
X133538723Y-64120000D01*
X135937901Y-52500000D02*
X134989723Y-53448178D01*
%TO.N,P27*%
X134989723Y-123991000D02*
X134989723Y-129751823D01*
X136737901Y-131500000D02*
X136737900Y-135700000D01*
X134989723Y-129751823D02*
X136737901Y-131500000D01*
X133538723Y-122540000D02*
X134989723Y-123991000D01*
%TO.N,P10*%
X137137900Y-75760823D02*
X137137900Y-70600000D01*
X133538723Y-79360000D02*
X137137900Y-75760823D01*
%TO.N,P12*%
X133538723Y-84439999D02*
X136437900Y-81540822D01*
X136437900Y-81540822D02*
X136437901Y-78400000D01*
%TO.N,P6*%
X136136900Y-54001000D02*
X136437900Y-53700000D01*
X133538723Y-68712024D02*
X136136900Y-66113847D01*
X133538723Y-69200000D02*
X133538723Y-68712024D01*
X136136900Y-66113847D02*
X136136900Y-54001000D01*
%TO.N,/JA1*%
X138337900Y-98500000D02*
X138337900Y-102400000D01*
X138337899Y-46700000D02*
X138337900Y-47100000D01*
X138337900Y-59200000D02*
X138337900Y-55200000D01*
X138337899Y-67200000D02*
X138337900Y-67100000D01*
X135436901Y-45201000D02*
X134937900Y-45700001D01*
X138337899Y-67200000D02*
X138337900Y-63100001D01*
X138837900Y-125400001D02*
X138337900Y-125900001D01*
X138337900Y-86700001D02*
X138337900Y-90600000D01*
D13*
X135886900Y-134836927D02*
X135886900Y-136052496D01*
D14*
X138337900Y-129800000D02*
X138337900Y-133800000D01*
X138337900Y-94600000D02*
X138337900Y-98500000D01*
X138337900Y-110200000D02*
X138337900Y-114100001D01*
D13*
X129587900Y-132100000D02*
X133149973Y-132100000D01*
D14*
X138337900Y-63100001D02*
X138337900Y-59200000D01*
X138337900Y-125900001D02*
X138337900Y-129800000D01*
D13*
X127837899Y-133850001D02*
X129587900Y-132100000D01*
D14*
X135436901Y-45201000D02*
X136137900Y-44500001D01*
X138837900Y-122000000D02*
X138837900Y-125400001D01*
X127837900Y-47100000D02*
X127837900Y-43161001D01*
D13*
X133149973Y-132100000D02*
X135886900Y-134836927D01*
D14*
X135687900Y-44950001D02*
X135436901Y-45201000D01*
X136660900Y-44500000D02*
X136860900Y-44300000D01*
X132453528Y-53900000D02*
X129137900Y-53900000D01*
X134937900Y-51415628D02*
X132453528Y-53900000D01*
X138337900Y-82700001D02*
X138337900Y-86700001D01*
D13*
X127837899Y-137850001D02*
X127837899Y-133850001D01*
D14*
X127837900Y-52600000D02*
X127837900Y-51100000D01*
X138837900Y-118600000D02*
X138837900Y-122000000D01*
X138337900Y-55200000D02*
X138337900Y-51100000D01*
X138337900Y-78800000D02*
X138337900Y-82700001D01*
X138337900Y-102400000D02*
X138337900Y-106300001D01*
X138337900Y-51100000D02*
X138337900Y-47100000D01*
X138337900Y-118100001D02*
X138837900Y-118600000D01*
X138337900Y-133800000D02*
X138337900Y-137700001D01*
X138337900Y-67100000D02*
X138337900Y-71000000D01*
X136137900Y-44500001D02*
X136660900Y-44500000D01*
X136137900Y-44500001D02*
X138337899Y-46700000D01*
X127837900Y-51100000D02*
X127837900Y-47100000D01*
X138337900Y-90600000D02*
X138337900Y-94600000D01*
X138337900Y-75000000D02*
X138337900Y-78800000D01*
X138337900Y-114100001D02*
X138337900Y-118100001D01*
X134937900Y-45700001D02*
X134937900Y-51415628D01*
X138337900Y-71000000D02*
X138337900Y-75000000D01*
D13*
X135886900Y-136052496D02*
X137534404Y-137700000D01*
X137534404Y-137700000D02*
X138337900Y-137700001D01*
D14*
X138337900Y-106300001D02*
X138337900Y-110200000D01*
X129137900Y-53900000D02*
X127837900Y-52600000D01*
%TO.N,P23*%
X137137900Y-121500001D02*
X137137900Y-115979177D01*
X137137900Y-115979177D02*
X133538723Y-112380000D01*
%TO.N,/JA2*%
X140137901Y-114100000D02*
X140137900Y-118100001D01*
X140137900Y-106300001D02*
X140137900Y-110200000D01*
X129837900Y-47100001D02*
X129837900Y-43161001D01*
X140137900Y-78800000D02*
X140137901Y-82700000D01*
D13*
X139286900Y-138551000D02*
X140137901Y-137700000D01*
X133337901Y-138551000D02*
X139286900Y-138551000D01*
X130587900Y-133100000D02*
X129837900Y-133850000D01*
D14*
X139687899Y-44049999D02*
X140137901Y-44500000D01*
X140137900Y-118100001D02*
X140137900Y-122000000D01*
X140137900Y-98500000D02*
X140137900Y-102400000D01*
X129837900Y-47100001D02*
X129837900Y-51100000D01*
X140137901Y-55100000D02*
X140137901Y-59100000D01*
X140137900Y-90600000D02*
X140137901Y-94600000D01*
D13*
X132149976Y-133100000D02*
X130587900Y-133100000D01*
D14*
X140137900Y-86700001D02*
X140137900Y-90600000D01*
D13*
X132588901Y-137802000D02*
X132588901Y-133538924D01*
D14*
X140137900Y-51000001D02*
X140137900Y-47100000D01*
X140137901Y-94600000D02*
X140137900Y-98500000D01*
X140137901Y-59100000D02*
X140137900Y-63100001D01*
D13*
X129837900Y-137750000D02*
X129837900Y-133850000D01*
D14*
X140137900Y-63100001D02*
X140137900Y-67100000D01*
X140137901Y-75000000D02*
X140137900Y-78800000D01*
X140137900Y-102400000D02*
X140137900Y-106300001D01*
X140137900Y-133800000D02*
X140137901Y-137700000D01*
X140137900Y-67100000D02*
X140137900Y-71000000D01*
X140137900Y-122000000D02*
X140137901Y-125900000D01*
X140137901Y-44500000D02*
X140137900Y-47100000D01*
X140137900Y-129800000D02*
X140137900Y-133800000D01*
X140137901Y-82700000D02*
X140137900Y-86700001D01*
D13*
X133337901Y-138551000D02*
X132588901Y-137802000D01*
D14*
X140137900Y-110200000D02*
X140137901Y-114100000D01*
D13*
X132588901Y-133538924D02*
X132149976Y-133100000D01*
D14*
X140137900Y-71000000D02*
X140137901Y-75000000D01*
X140137901Y-125900000D02*
X140137900Y-129800000D01*
X140137900Y-51000001D02*
X140137901Y-55100000D01*
%TO.N,/JA4*%
X144137900Y-98600000D02*
X144137900Y-94700000D01*
X144137900Y-47100001D02*
X144137900Y-44500000D01*
X144137900Y-90700000D02*
X144137900Y-86800000D01*
D13*
X133737900Y-136900000D02*
X133737900Y-133950000D01*
D14*
X144137900Y-51100000D02*
X144137900Y-47100001D01*
X144137900Y-106400000D02*
X144137900Y-102500000D01*
D15*
X134397903Y-42600999D02*
X133837900Y-43161001D01*
D14*
X144137900Y-114200001D02*
X144137900Y-110300000D01*
X133837900Y-51100000D02*
X133837900Y-47100001D01*
X144137900Y-82800000D02*
X144137900Y-78900000D01*
X144137900Y-75000000D02*
X144137900Y-71000000D01*
D13*
X133737900Y-133950000D02*
X133837899Y-133850001D01*
D14*
X144137900Y-86800000D02*
X144137900Y-82800000D01*
X144137900Y-59100000D02*
X144137900Y-55100000D01*
X144137900Y-110300000D02*
X144137900Y-106400000D01*
X144137900Y-122100000D02*
X144137900Y-118200000D01*
X144137900Y-44500000D02*
X143137900Y-43500000D01*
X144137900Y-67100000D02*
X144137900Y-63100000D01*
X144137900Y-137700000D02*
X144137900Y-133900000D01*
X144137900Y-133900000D02*
X144137900Y-129900000D01*
X144137900Y-63100000D02*
X144137900Y-59100000D01*
X144137900Y-78900000D02*
X144137900Y-75000000D01*
D15*
X142238899Y-42600999D02*
X134397903Y-42600999D01*
D14*
X144137900Y-71000000D02*
X144137900Y-67100000D01*
X144137900Y-55100000D02*
X144137900Y-51100000D01*
X144137900Y-118200000D02*
X144137900Y-114200001D01*
D13*
X143537900Y-140899998D02*
X143537901Y-138300000D01*
D14*
X144137900Y-94700000D02*
X144137900Y-90700000D01*
D13*
X143537901Y-138300000D02*
X144137900Y-137700000D01*
D14*
X144137900Y-126000001D02*
X144137900Y-122100000D01*
X144137900Y-129900000D02*
X144137900Y-126000001D01*
D15*
X143137900Y-43500000D02*
X142238899Y-42600999D01*
D14*
X144137900Y-102500000D02*
X144137900Y-98600000D01*
X133837900Y-47100001D02*
X133837900Y-43161001D01*
%TO.N,/JA3*%
X142137900Y-102500000D02*
X142137900Y-98600000D01*
D13*
X131837900Y-138042364D02*
X133047536Y-139252000D01*
D14*
X142137900Y-71000000D02*
X142137900Y-67200000D01*
X142137900Y-106400000D02*
X142137900Y-102500000D01*
X142137900Y-55100000D02*
X142137900Y-51100000D01*
D13*
X133047536Y-139252000D02*
X140685900Y-139252000D01*
D14*
X142137900Y-75000000D02*
X142137900Y-71000000D01*
X142137900Y-90700000D02*
X142137900Y-86800000D01*
X131837900Y-47200000D02*
X131837900Y-43161001D01*
D13*
X131837900Y-137750000D02*
X131837900Y-138042364D01*
D14*
X142137900Y-110300000D02*
X142137900Y-106400000D01*
X142137900Y-114200001D02*
X142137900Y-110300000D01*
D13*
X140685900Y-139252000D02*
X142137900Y-137800000D01*
D14*
X142137900Y-44500000D02*
X141137900Y-43500000D01*
X131837900Y-51100000D02*
X131837900Y-47200000D01*
X142137900Y-122100000D02*
X142137900Y-118200000D01*
X142137900Y-51100000D02*
X142137900Y-47100000D01*
X142137900Y-94700000D02*
X142137900Y-90700000D01*
D13*
X131837900Y-137750000D02*
X131837900Y-133849999D01*
D14*
X142137900Y-137800000D02*
X142137900Y-133900000D01*
X142137900Y-98600000D02*
X142137900Y-94700000D01*
X142137900Y-129900000D02*
X142137900Y-126000001D01*
X142137900Y-67200000D02*
X142137900Y-63100000D01*
X142137900Y-118200000D02*
X142137900Y-114200001D01*
X142137900Y-133900000D02*
X142137900Y-129900000D01*
X142137900Y-59100000D02*
X142137900Y-55100000D01*
X142137900Y-126000001D02*
X142137900Y-122100000D01*
X142137900Y-82800000D02*
X142137900Y-78900000D01*
X142137900Y-78900000D02*
X142137900Y-75000000D01*
X142137900Y-63100000D02*
X142137900Y-59100000D01*
X142137900Y-86800000D02*
X142137900Y-82800000D01*
X142137900Y-47100000D02*
X142137900Y-44500000D01*
%TD*%
M02*
