%TF.GenerationSoftware,KiCad,Pcbnew,9.0.3*%
%TF.CreationDate,2025-08-19T23:10:40-04:00*%
%TF.ProjectId,Mess-Sense,4d657373-2d53-4656-9e73-652e6b696361,rev?*%
%TF.SameCoordinates,Original*%
%TF.FileFunction,Profile,NP*%
%FSLAX46Y46*%
G04 Gerber Fmt 4.6, Leading zero omitted, Abs format (unit mm)*
G04 Created by KiCad (PCBNEW 9.0.3) date 2025-08-19 23:10:40*
%MOMM*%
%LPD*%
G01*
G04 APERTURE LIST*
%TA.AperFunction,Profile*%
%ADD10C,1.000000*%
%TD*%
%TA.AperFunction,Profile*%
%ADD11C,0.050000*%
%TD*%
G04 APERTURE END LIST*
D10*
X171014500Y-124736797D02*
X72530981Y-124736797D01*
X171030142Y-104739468D02*
X72546623Y-104739468D01*
X171023657Y-84743760D02*
X72540138Y-84743760D01*
X171018115Y-64740225D02*
X72534596Y-64740225D01*
X91794594Y-45514730D02*
X91794594Y-143998249D01*
X111788016Y-45520830D02*
X111788016Y-144004349D01*
X131789730Y-45510531D02*
X131789730Y-143994050D01*
X151794521Y-45516481D02*
X151794521Y-144000000D01*
D11*
X72050000Y-45000000D02*
X171530000Y-45000000D01*
X171530000Y-144480000D01*
X72050000Y-144480000D01*
X72050000Y-45000000D01*
X132050000Y-125000000D02*
X151530000Y-125000000D01*
X151530000Y-144480000D01*
X132050000Y-144480000D01*
X132050000Y-125000000D01*
X112050000Y-125000000D02*
X131530000Y-125000000D01*
X131530000Y-144480000D01*
X112050000Y-144480000D01*
X112050000Y-125000000D01*
X92050000Y-125000000D02*
X111530000Y-125000000D01*
X111530000Y-144480000D01*
X92050000Y-144480000D01*
X92050000Y-125000000D01*
X72050000Y-125000000D02*
X91530000Y-125000000D01*
X91530000Y-144480000D01*
X72050000Y-144480000D01*
X72050000Y-125000000D01*
X152050000Y-105000000D02*
X171530000Y-105000000D01*
X171530000Y-124480000D01*
X152050000Y-124480000D01*
X152050000Y-105000000D01*
X132050000Y-105000000D02*
X151530000Y-105000000D01*
X151530000Y-124480000D01*
X132050000Y-124480000D01*
X132050000Y-105000000D01*
X112050000Y-105000000D02*
X131530000Y-105000000D01*
X131530000Y-124480000D01*
X112050000Y-124480000D01*
X112050000Y-105000000D01*
X92050000Y-105000000D02*
X111530000Y-105000000D01*
X111530000Y-124480000D01*
X92050000Y-124480000D01*
X92050000Y-105000000D01*
X72050000Y-105000000D02*
X91530000Y-105000000D01*
X91530000Y-124480000D01*
X72050000Y-124480000D01*
X72050000Y-105000000D01*
X152050000Y-85000000D02*
X171530000Y-85000000D01*
X171530000Y-104480000D01*
X152050000Y-104480000D01*
X152050000Y-85000000D01*
X132050000Y-85000000D02*
X151530000Y-85000000D01*
X151530000Y-104480000D01*
X132050000Y-104480000D01*
X132050000Y-85000000D01*
X112050000Y-85000000D02*
X131530000Y-85000000D01*
X131530000Y-104480000D01*
X112050000Y-104480000D01*
X112050000Y-85000000D01*
X92050000Y-85000000D02*
X111530000Y-85000000D01*
X111530000Y-104480000D01*
X92050000Y-104480000D01*
X92050000Y-85000000D01*
X72050000Y-85000000D02*
X91530000Y-85000000D01*
X91530000Y-104480000D01*
X72050000Y-104480000D01*
X72050000Y-85000000D01*
X152050000Y-65000000D02*
X171530000Y-65000000D01*
X171530000Y-84480000D01*
X152050000Y-84480000D01*
X152050000Y-65000000D01*
X132050000Y-65000000D02*
X151530000Y-65000000D01*
X151530000Y-84480000D01*
X132050000Y-84480000D01*
X132050000Y-65000000D01*
X112050000Y-65000000D02*
X131530000Y-65000000D01*
X131530000Y-84480000D01*
X112050000Y-84480000D01*
X112050000Y-65000000D01*
X92050000Y-65000000D02*
X111530000Y-65000000D01*
X111530000Y-84480000D01*
X92050000Y-84480000D01*
X92050000Y-65000000D01*
X72050000Y-65000000D02*
X91530000Y-65000000D01*
X91530000Y-84480000D01*
X72050000Y-84480000D01*
X72050000Y-65000000D01*
X152050000Y-45000000D02*
X171530000Y-45000000D01*
X171530000Y-64480000D01*
X152050000Y-64480000D01*
X152050000Y-45000000D01*
X132050000Y-45000000D02*
X151530000Y-45000000D01*
X151530000Y-64480000D01*
X132050000Y-64480000D01*
X132050000Y-45000000D01*
X112050000Y-45000000D02*
X131530000Y-45000000D01*
X131530000Y-64480000D01*
X112050000Y-64480000D01*
X112050000Y-45000000D01*
X92050000Y-45000000D02*
X111530000Y-45000000D01*
X111530000Y-64480000D01*
X92050000Y-64480000D01*
X92050000Y-45000000D01*
X72050000Y-45000000D02*
X91530000Y-45000000D01*
X91530000Y-64480000D01*
X72050000Y-64480000D01*
X72050000Y-45000000D01*
X152050000Y-125000000D02*
X171530000Y-125000000D01*
X171530000Y-144480000D01*
X152050000Y-144480000D01*
X152050000Y-125000000D01*
M02*
