%TF.GenerationSoftware,KiCad,Pcbnew,9.0.3*%
%TF.CreationDate,2025-08-19T23:10:40-04:00*%
%TF.ProjectId,Mess-Sense,4d657373-2d53-4656-9e73-652e6b696361,rev?*%
%TF.SameCoordinates,Original*%
%TF.FileFunction,Soldermask,Bot*%
%TF.FilePolarity,Negative*%
%FSLAX46Y46*%
G04 Gerber Fmt 4.6, Leading zero omitted, Abs format (unit mm)*
G04 Created by KiCad (PCBNEW 9.0.3) date 2025-08-19 23:10:40*
%MOMM*%
%LPD*%
G01*
G04 APERTURE LIST*
G04 Aperture macros list*
%AMRoundRect*
0 Rectangle with rounded corners*
0 $1 Rounding radius*
0 $2 $3 $4 $5 $6 $7 $8 $9 X,Y pos of 4 corners*
0 Add a 4 corners polygon primitive as box body*
4,1,4,$2,$3,$4,$5,$6,$7,$8,$9,$2,$3,0*
0 Add four circle primitives for the rounded corners*
1,1,$1+$1,$2,$3*
1,1,$1+$1,$4,$5*
1,1,$1+$1,$6,$7*
1,1,$1+$1,$8,$9*
0 Add four rect primitives between the rounded corners*
20,1,$1+$1,$2,$3,$4,$5,0*
20,1,$1+$1,$4,$5,$6,$7,0*
20,1,$1+$1,$6,$7,$8,$9,0*
20,1,$1+$1,$8,$9,$2,$3,0*%
G04 Aperture macros list end*
%ADD10RoundRect,0.087500X0.250000X0.087500X-0.250000X0.087500X-0.250000X-0.087500X0.250000X-0.087500X0*%
%ADD11C,0.250000*%
%ADD12C,0.235000*%
%ADD13RoundRect,0.150000X-0.825000X-0.150000X0.825000X-0.150000X0.825000X0.150000X-0.825000X0.150000X0*%
%ADD14RoundRect,0.125000X-0.687500X-0.125000X0.687500X-0.125000X0.687500X0.125000X-0.687500X0.125000X0*%
%ADD15C,0.464000*%
%ADD16R,1.000000X1.000000*%
%ADD17C,1.000000*%
%ADD18R,1.700000X1.700000*%
%ADD19C,1.700000*%
G04 APERTURE END LIST*
D10*
%TO.C,U361*%
X149225000Y-137600000D03*
X149225000Y-138100000D03*
X149225000Y-138600000D03*
X147800000Y-138600000D03*
X147800000Y-138100000D03*
X147800000Y-137600000D03*
%TD*%
D11*
%TO.C,U370*%
X148300000Y-142500000D03*
X148300000Y-142100000D03*
X147900000Y-142500000D03*
X147900000Y-142100000D03*
%TD*%
D12*
%TO.C,U366*%
X138200000Y-142500000D03*
X138600000Y-142500000D03*
X138200000Y-142100000D03*
X138600000Y-142100000D03*
%TD*%
D13*
%TO.C,U373*%
X138425000Y-131805000D03*
X138425000Y-130535000D03*
X138425000Y-129265000D03*
X138425000Y-127995000D03*
X143375000Y-127995000D03*
X143375000Y-129265000D03*
X143375000Y-130535000D03*
X143375000Y-131805000D03*
%TD*%
D14*
%TO.C,U363*%
X138075000Y-137100000D03*
X138075000Y-136450000D03*
X138075000Y-135800000D03*
X138075000Y-135150000D03*
X142300000Y-135150000D03*
X142300000Y-135800000D03*
X142300000Y-136450000D03*
X142300000Y-137100000D03*
%TD*%
D15*
%TO.C,U369*%
X142600000Y-141500000D03*
X142600000Y-142500000D03*
X143100000Y-141500001D03*
X143100000Y-142499999D03*
X143600000Y-141500000D03*
X143600000Y-142500000D03*
%TD*%
D16*
%TO.C,J49*%
X145100000Y-136570001D03*
D17*
X145100000Y-135300001D03*
%TD*%
D18*
%TO.C,J50*%
X134100000Y-128620000D03*
D19*
X134100000Y-131160000D03*
X134100000Y-133700000D03*
X134100000Y-136240000D03*
X134100000Y-138780000D03*
X134100000Y-141320000D03*
%TD*%
D10*
%TO.C,U346*%
X129225000Y-137600000D03*
X129225000Y-138100000D03*
X129225000Y-138600000D03*
X127800000Y-138600000D03*
X127800000Y-138100000D03*
X127800000Y-137600000D03*
%TD*%
D12*
%TO.C,U351*%
X118200000Y-142500000D03*
X118600000Y-142500000D03*
X118200000Y-142100000D03*
X118600000Y-142100000D03*
%TD*%
D15*
%TO.C,U354*%
X122600000Y-141500000D03*
X122600000Y-142500000D03*
X123100000Y-141500001D03*
X123100000Y-142499999D03*
X123600000Y-141500000D03*
X123600000Y-142500000D03*
%TD*%
D11*
%TO.C,U355*%
X128300000Y-142500000D03*
X128300000Y-142100000D03*
X127900000Y-142500000D03*
X127900000Y-142100000D03*
%TD*%
D13*
%TO.C,U358*%
X118425000Y-131805000D03*
X118425000Y-130535000D03*
X118425000Y-129265000D03*
X118425000Y-127995000D03*
X123375000Y-127995000D03*
X123375000Y-129265000D03*
X123375000Y-130535000D03*
X123375000Y-131805000D03*
%TD*%
D14*
%TO.C,U348*%
X118075000Y-137100000D03*
X118075000Y-136450000D03*
X118075000Y-135800000D03*
X118075000Y-135150000D03*
X122300000Y-135150000D03*
X122300000Y-135800000D03*
X122300000Y-136450000D03*
X122300000Y-137100000D03*
%TD*%
D16*
%TO.C,J47*%
X125100000Y-136570001D03*
D17*
X125100000Y-135300001D03*
%TD*%
D18*
%TO.C,J48*%
X114100000Y-128620000D03*
D19*
X114100000Y-131160000D03*
X114100000Y-133700000D03*
X114100000Y-136240000D03*
X114100000Y-138780000D03*
X114100000Y-141320000D03*
%TD*%
D11*
%TO.C,U340*%
X108300000Y-142500000D03*
X108300000Y-142100000D03*
X107900000Y-142500000D03*
X107900000Y-142100000D03*
%TD*%
D12*
%TO.C,U336*%
X98200000Y-142500000D03*
X98600000Y-142500000D03*
X98200000Y-142100000D03*
X98600000Y-142100000D03*
%TD*%
D15*
%TO.C,U339*%
X102600000Y-141500000D03*
X102600000Y-142500000D03*
X103100000Y-141500001D03*
X103100000Y-142499999D03*
X103600000Y-141500000D03*
X103600000Y-142500000D03*
%TD*%
D10*
%TO.C,U331*%
X109225000Y-137600000D03*
X109225000Y-138100000D03*
X109225000Y-138600000D03*
X107800000Y-138600000D03*
X107800000Y-138100000D03*
X107800000Y-137600000D03*
%TD*%
D13*
%TO.C,U343*%
X98425000Y-131805000D03*
X98425000Y-130535000D03*
X98425000Y-129265000D03*
X98425000Y-127995000D03*
X103375000Y-127995000D03*
X103375000Y-129265000D03*
X103375000Y-130535000D03*
X103375000Y-131805000D03*
%TD*%
D14*
%TO.C,U333*%
X98075000Y-137100000D03*
X98075000Y-136450000D03*
X98075000Y-135800000D03*
X98075000Y-135150000D03*
X102300000Y-135150000D03*
X102300000Y-135800000D03*
X102300000Y-136450000D03*
X102300000Y-137100000D03*
%TD*%
D16*
%TO.C,J45*%
X105100000Y-136570001D03*
D17*
X105100000Y-135300001D03*
%TD*%
D18*
%TO.C,J46*%
X94100000Y-128620000D03*
D19*
X94100000Y-131160000D03*
X94100000Y-133700000D03*
X94100000Y-136240000D03*
X94100000Y-138780000D03*
X94100000Y-141320000D03*
%TD*%
D13*
%TO.C,U328*%
X78425000Y-131805000D03*
X78425000Y-130535000D03*
X78425000Y-129265000D03*
X78425000Y-127995000D03*
X83375000Y-127995000D03*
X83375000Y-129265000D03*
X83375000Y-130535000D03*
X83375000Y-131805000D03*
%TD*%
D11*
%TO.C,U325*%
X88300000Y-142500000D03*
X88300000Y-142100000D03*
X87900000Y-142500000D03*
X87900000Y-142100000D03*
%TD*%
D10*
%TO.C,U316*%
X89225000Y-137600000D03*
X89225000Y-138100000D03*
X89225000Y-138600000D03*
X87800000Y-138600000D03*
X87800000Y-138100000D03*
X87800000Y-137600000D03*
%TD*%
D12*
%TO.C,U321*%
X78200000Y-142500000D03*
X78600000Y-142500000D03*
X78200000Y-142100000D03*
X78600000Y-142100000D03*
%TD*%
D15*
%TO.C,U324*%
X82600000Y-141500000D03*
X82600000Y-142500000D03*
X83100000Y-141500001D03*
X83100000Y-142499999D03*
X83600000Y-141500000D03*
X83600000Y-142500000D03*
%TD*%
D14*
%TO.C,U318*%
X78075000Y-137100000D03*
X78075000Y-136450000D03*
X78075000Y-135800000D03*
X78075000Y-135150000D03*
X82300000Y-135150000D03*
X82300000Y-135800000D03*
X82300000Y-136450000D03*
X82300000Y-137100000D03*
%TD*%
D16*
%TO.C,J43*%
X85100000Y-136570001D03*
D17*
X85100000Y-135300001D03*
%TD*%
D18*
%TO.C,J44*%
X74100000Y-128620000D03*
D19*
X74100000Y-131160000D03*
X74100000Y-133700000D03*
X74100000Y-136240000D03*
X74100000Y-138780000D03*
X74100000Y-141320000D03*
%TD*%
D10*
%TO.C,U301*%
X169225000Y-117600000D03*
X169225000Y-118100000D03*
X169225000Y-118600000D03*
X167800000Y-118600000D03*
X167800000Y-118100000D03*
X167800000Y-117600000D03*
%TD*%
D15*
%TO.C,U309*%
X162600000Y-121500000D03*
X162600000Y-122500000D03*
X163100000Y-121500001D03*
X163100000Y-122499999D03*
X163600000Y-121500000D03*
X163600000Y-122500000D03*
%TD*%
D12*
%TO.C,U306*%
X158200000Y-122500000D03*
X158600000Y-122500000D03*
X158200000Y-122100000D03*
X158600000Y-122100000D03*
%TD*%
D11*
%TO.C,U310*%
X168300000Y-122500000D03*
X168300000Y-122100000D03*
X167900000Y-122500000D03*
X167900000Y-122100000D03*
%TD*%
D14*
%TO.C,U303*%
X158075000Y-117100000D03*
X158075000Y-116450000D03*
X158075000Y-115800000D03*
X158075000Y-115150000D03*
X162300000Y-115150000D03*
X162300000Y-115800000D03*
X162300000Y-116450000D03*
X162300000Y-117100000D03*
%TD*%
D13*
%TO.C,U313*%
X158425000Y-111805000D03*
X158425000Y-110535000D03*
X158425000Y-109265000D03*
X158425000Y-107995000D03*
X163375000Y-107995000D03*
X163375000Y-109265000D03*
X163375000Y-110535000D03*
X163375000Y-111805000D03*
%TD*%
D16*
%TO.C,J41*%
X165100000Y-116570001D03*
D17*
X165100000Y-115300001D03*
%TD*%
D18*
%TO.C,J42*%
X154100000Y-108620000D03*
D19*
X154100000Y-111160000D03*
X154100000Y-113700000D03*
X154100000Y-116240000D03*
X154100000Y-118780000D03*
X154100000Y-121320000D03*
%TD*%
D10*
%TO.C,U286*%
X149225000Y-117600000D03*
X149225000Y-118100000D03*
X149225000Y-118600000D03*
X147800000Y-118600000D03*
X147800000Y-118100000D03*
X147800000Y-117600000D03*
%TD*%
D15*
%TO.C,U294*%
X142600000Y-121500000D03*
X142600000Y-122500000D03*
X143100000Y-121500001D03*
X143100000Y-122499999D03*
X143600000Y-121500000D03*
X143600000Y-122500000D03*
%TD*%
D11*
%TO.C,U295*%
X148300000Y-122500000D03*
X148300000Y-122100000D03*
X147900000Y-122500000D03*
X147900000Y-122100000D03*
%TD*%
D14*
%TO.C,U288*%
X138075000Y-117100000D03*
X138075000Y-116450000D03*
X138075000Y-115800000D03*
X138075000Y-115150000D03*
X142300000Y-115150000D03*
X142300000Y-115800000D03*
X142300000Y-116450000D03*
X142300000Y-117100000D03*
%TD*%
D12*
%TO.C,U291*%
X138200000Y-122500000D03*
X138600000Y-122500000D03*
X138200000Y-122100000D03*
X138600000Y-122100000D03*
%TD*%
D16*
%TO.C,J39*%
X145100000Y-116570001D03*
D17*
X145100000Y-115300001D03*
%TD*%
D13*
%TO.C,U298*%
X138425000Y-111805000D03*
X138425000Y-110535000D03*
X138425000Y-109265000D03*
X138425000Y-107995000D03*
X143375000Y-107995000D03*
X143375000Y-109265000D03*
X143375000Y-110535000D03*
X143375000Y-111805000D03*
%TD*%
D18*
%TO.C,J40*%
X134100000Y-108620000D03*
D19*
X134100000Y-111160000D03*
X134100000Y-113700000D03*
X134100000Y-116240000D03*
X134100000Y-118780000D03*
X134100000Y-121320000D03*
%TD*%
D10*
%TO.C,U271*%
X129225000Y-117600000D03*
X129225000Y-118100000D03*
X129225000Y-118600000D03*
X127800000Y-118600000D03*
X127800000Y-118100000D03*
X127800000Y-117600000D03*
%TD*%
D11*
%TO.C,U280*%
X128300000Y-122500000D03*
X128300000Y-122100000D03*
X127900000Y-122500000D03*
X127900000Y-122100000D03*
%TD*%
D12*
%TO.C,U276*%
X118200000Y-122500000D03*
X118600000Y-122500000D03*
X118200000Y-122100000D03*
X118600000Y-122100000D03*
%TD*%
D15*
%TO.C,U279*%
X122600000Y-121500000D03*
X122600000Y-122500000D03*
X123100000Y-121500001D03*
X123100000Y-122499999D03*
X123600000Y-121500000D03*
X123600000Y-122500000D03*
%TD*%
D16*
%TO.C,J37*%
X125100000Y-116570001D03*
D17*
X125100000Y-115300001D03*
%TD*%
D18*
%TO.C,J38*%
X114100000Y-108620000D03*
D19*
X114100000Y-111160000D03*
X114100000Y-113700000D03*
X114100000Y-116240000D03*
X114100000Y-118780000D03*
X114100000Y-121320000D03*
%TD*%
D13*
%TO.C,U283*%
X118425000Y-111805000D03*
X118425000Y-110535000D03*
X118425000Y-109265000D03*
X118425000Y-107995000D03*
X123375000Y-107995000D03*
X123375000Y-109265000D03*
X123375000Y-110535000D03*
X123375000Y-111805000D03*
%TD*%
D14*
%TO.C,U273*%
X118075000Y-117100000D03*
X118075000Y-116450000D03*
X118075000Y-115800000D03*
X118075000Y-115150000D03*
X122300000Y-115150000D03*
X122300000Y-115800000D03*
X122300000Y-116450000D03*
X122300000Y-117100000D03*
%TD*%
D13*
%TO.C,U268*%
X98425000Y-111805000D03*
X98425000Y-110535000D03*
X98425000Y-109265000D03*
X98425000Y-107995000D03*
X103375000Y-107995000D03*
X103375000Y-109265000D03*
X103375000Y-110535000D03*
X103375000Y-111805000D03*
%TD*%
D11*
%TO.C,U265*%
X108300000Y-122500000D03*
X108300000Y-122100000D03*
X107900000Y-122500000D03*
X107900000Y-122100000D03*
%TD*%
D12*
%TO.C,U261*%
X98200000Y-122500000D03*
X98600000Y-122500000D03*
X98200000Y-122100000D03*
X98600000Y-122100000D03*
%TD*%
D15*
%TO.C,U264*%
X102600000Y-121500000D03*
X102600000Y-122500000D03*
X103100000Y-121500001D03*
X103100000Y-122499999D03*
X103600000Y-121500000D03*
X103600000Y-122500000D03*
%TD*%
D10*
%TO.C,U256*%
X109225000Y-117600000D03*
X109225000Y-118100000D03*
X109225000Y-118600000D03*
X107800000Y-118600000D03*
X107800000Y-118100000D03*
X107800000Y-117600000D03*
%TD*%
D14*
%TO.C,U258*%
X98075000Y-117100000D03*
X98075000Y-116450000D03*
X98075000Y-115800000D03*
X98075000Y-115150000D03*
X102300000Y-115150000D03*
X102300000Y-115800000D03*
X102300000Y-116450000D03*
X102300000Y-117100000D03*
%TD*%
D18*
%TO.C,J36*%
X94100000Y-108620000D03*
D19*
X94100000Y-111160000D03*
X94100000Y-113700000D03*
X94100000Y-116240000D03*
X94100000Y-118780000D03*
X94100000Y-121320000D03*
%TD*%
D16*
%TO.C,J35*%
X105100000Y-116570001D03*
D17*
X105100000Y-115300001D03*
%TD*%
D13*
%TO.C,U253*%
X78425000Y-111805000D03*
X78425000Y-110535000D03*
X78425000Y-109265000D03*
X78425000Y-107995000D03*
X83375000Y-107995000D03*
X83375000Y-109265000D03*
X83375000Y-110535000D03*
X83375000Y-111805000D03*
%TD*%
D11*
%TO.C,U250*%
X88300000Y-122500000D03*
X88300000Y-122100000D03*
X87900000Y-122500000D03*
X87900000Y-122100000D03*
%TD*%
D15*
%TO.C,U249*%
X82600000Y-121500000D03*
X82600000Y-122500000D03*
X83100000Y-121500001D03*
X83100000Y-122499999D03*
X83600000Y-121500000D03*
X83600000Y-122500000D03*
%TD*%
D12*
%TO.C,U246*%
X78200000Y-122500000D03*
X78600000Y-122500000D03*
X78200000Y-122100000D03*
X78600000Y-122100000D03*
%TD*%
D10*
%TO.C,U241*%
X89225000Y-117600000D03*
X89225000Y-118100000D03*
X89225000Y-118600000D03*
X87800000Y-118600000D03*
X87800000Y-118100000D03*
X87800000Y-117600000D03*
%TD*%
D14*
%TO.C,U243*%
X78075000Y-117100000D03*
X78075000Y-116450000D03*
X78075000Y-115800000D03*
X78075000Y-115150000D03*
X82300000Y-115150000D03*
X82300000Y-115800000D03*
X82300000Y-116450000D03*
X82300000Y-117100000D03*
%TD*%
D16*
%TO.C,J33*%
X85100000Y-116570001D03*
D17*
X85100000Y-115300001D03*
%TD*%
D18*
%TO.C,J34*%
X74100000Y-108620000D03*
D19*
X74100000Y-111160000D03*
X74100000Y-113700000D03*
X74100000Y-116240000D03*
X74100000Y-118780000D03*
X74100000Y-121320000D03*
%TD*%
D13*
%TO.C,U238*%
X158425000Y-91805000D03*
X158425000Y-90535000D03*
X158425000Y-89265000D03*
X158425000Y-87995000D03*
X163375000Y-87995000D03*
X163375000Y-89265000D03*
X163375000Y-90535000D03*
X163375000Y-91805000D03*
%TD*%
D10*
%TO.C,U226*%
X169225000Y-97600000D03*
X169225000Y-98100000D03*
X169225000Y-98600000D03*
X167800000Y-98600000D03*
X167800000Y-98100000D03*
X167800000Y-97600000D03*
%TD*%
D11*
%TO.C,U235*%
X168300000Y-102500000D03*
X168300000Y-102100000D03*
X167900000Y-102500000D03*
X167900000Y-102100000D03*
%TD*%
D12*
%TO.C,U231*%
X158200000Y-102500000D03*
X158600000Y-102500000D03*
X158200000Y-102100000D03*
X158600000Y-102100000D03*
%TD*%
D15*
%TO.C,U234*%
X162600000Y-101500000D03*
X162600000Y-102500000D03*
X163100000Y-101500001D03*
X163100000Y-102499999D03*
X163600000Y-101500000D03*
X163600000Y-102500000D03*
%TD*%
D14*
%TO.C,U228*%
X158075000Y-97100000D03*
X158075000Y-96450000D03*
X158075000Y-95800000D03*
X158075000Y-95150000D03*
X162300000Y-95150000D03*
X162300000Y-95800000D03*
X162300000Y-96450000D03*
X162300000Y-97100000D03*
%TD*%
D16*
%TO.C,J31*%
X165100000Y-96570001D03*
D17*
X165100000Y-95300001D03*
%TD*%
D18*
%TO.C,J32*%
X154100000Y-88620000D03*
D19*
X154100000Y-91160000D03*
X154100000Y-93700000D03*
X154100000Y-96240000D03*
X154100000Y-98780000D03*
X154100000Y-101320000D03*
%TD*%
D13*
%TO.C,U223*%
X138425000Y-91805000D03*
X138425000Y-90535000D03*
X138425000Y-89265000D03*
X138425000Y-87995000D03*
X143375000Y-87995000D03*
X143375000Y-89265000D03*
X143375000Y-90535000D03*
X143375000Y-91805000D03*
%TD*%
D10*
%TO.C,U211*%
X149225000Y-97600000D03*
X149225000Y-98100000D03*
X149225000Y-98600000D03*
X147800000Y-98600000D03*
X147800000Y-98100000D03*
X147800000Y-97600000D03*
%TD*%
D15*
%TO.C,U219*%
X142600000Y-101500000D03*
X142600000Y-102500000D03*
X143100000Y-101500001D03*
X143100000Y-102499999D03*
X143600000Y-101500000D03*
X143600000Y-102500000D03*
%TD*%
D12*
%TO.C,U216*%
X138200000Y-102500000D03*
X138600000Y-102500000D03*
X138200000Y-102100000D03*
X138600000Y-102100000D03*
%TD*%
D14*
%TO.C,U213*%
X138075000Y-97100000D03*
X138075000Y-96450000D03*
X138075000Y-95800000D03*
X138075000Y-95150000D03*
X142300000Y-95150000D03*
X142300000Y-95800000D03*
X142300000Y-96450000D03*
X142300000Y-97100000D03*
%TD*%
D11*
%TO.C,U220*%
X148300000Y-102500000D03*
X148300000Y-102100000D03*
X147900000Y-102500000D03*
X147900000Y-102100000D03*
%TD*%
D16*
%TO.C,J29*%
X145100000Y-96570001D03*
D17*
X145100000Y-95300001D03*
%TD*%
D18*
%TO.C,J30*%
X134100000Y-88620000D03*
D19*
X134100000Y-91160000D03*
X134100000Y-93700000D03*
X134100000Y-96240000D03*
X134100000Y-98780000D03*
X134100000Y-101320000D03*
%TD*%
D12*
%TO.C,U201*%
X118200000Y-102500000D03*
X118600000Y-102500000D03*
X118200000Y-102100000D03*
X118600000Y-102100000D03*
%TD*%
D10*
%TO.C,U196*%
X129225000Y-97600000D03*
X129225000Y-98100000D03*
X129225000Y-98600000D03*
X127800000Y-98600000D03*
X127800000Y-98100000D03*
X127800000Y-97600000D03*
%TD*%
D14*
%TO.C,U198*%
X118075000Y-97100000D03*
X118075000Y-96450000D03*
X118075000Y-95800000D03*
X118075000Y-95150000D03*
X122300000Y-95150000D03*
X122300000Y-95800000D03*
X122300000Y-96450000D03*
X122300000Y-97100000D03*
%TD*%
D13*
%TO.C,U208*%
X118425000Y-91805000D03*
X118425000Y-90535000D03*
X118425000Y-89265000D03*
X118425000Y-87995000D03*
X123375000Y-87995000D03*
X123375000Y-89265000D03*
X123375000Y-90535000D03*
X123375000Y-91805000D03*
%TD*%
D15*
%TO.C,U204*%
X122600000Y-101500000D03*
X122600000Y-102500000D03*
X123100000Y-101500001D03*
X123100000Y-102499999D03*
X123600000Y-101500000D03*
X123600000Y-102500000D03*
%TD*%
D16*
%TO.C,J27*%
X125100000Y-96570001D03*
D17*
X125100000Y-95300001D03*
%TD*%
D18*
%TO.C,J28*%
X114100000Y-88620000D03*
D19*
X114100000Y-91160000D03*
X114100000Y-93700000D03*
X114100000Y-96240000D03*
X114100000Y-98780000D03*
X114100000Y-101320000D03*
%TD*%
D11*
%TO.C,U205*%
X128300000Y-102500000D03*
X128300000Y-102100000D03*
X127900000Y-102500000D03*
X127900000Y-102100000D03*
%TD*%
D12*
%TO.C,U186*%
X98200000Y-102500000D03*
X98600000Y-102500000D03*
X98200000Y-102100000D03*
X98600000Y-102100000D03*
%TD*%
D15*
%TO.C,U189*%
X102600000Y-101500000D03*
X102600000Y-102500000D03*
X103100000Y-101500001D03*
X103100000Y-102499999D03*
X103600000Y-101500000D03*
X103600000Y-102500000D03*
%TD*%
D14*
%TO.C,U183*%
X98075000Y-97100000D03*
X98075000Y-96450000D03*
X98075000Y-95800000D03*
X98075000Y-95150000D03*
X102300000Y-95150000D03*
X102300000Y-95800000D03*
X102300000Y-96450000D03*
X102300000Y-97100000D03*
%TD*%
D13*
%TO.C,U193*%
X98425000Y-91805000D03*
X98425000Y-90535000D03*
X98425000Y-89265000D03*
X98425000Y-87995000D03*
X103375000Y-87995000D03*
X103375000Y-89265000D03*
X103375000Y-90535000D03*
X103375000Y-91805000D03*
%TD*%
D16*
%TO.C,J25*%
X105100000Y-96570001D03*
D17*
X105100000Y-95300001D03*
%TD*%
D18*
%TO.C,J26*%
X94100000Y-88620000D03*
D19*
X94100000Y-91160000D03*
X94100000Y-93700000D03*
X94100000Y-96240000D03*
X94100000Y-98780000D03*
X94100000Y-101320000D03*
%TD*%
D11*
%TO.C,U190*%
X108300000Y-102500000D03*
X108300000Y-102100000D03*
X107900000Y-102500000D03*
X107900000Y-102100000D03*
%TD*%
D10*
%TO.C,U181*%
X109225000Y-97600000D03*
X109225000Y-98100000D03*
X109225000Y-98600000D03*
X107800000Y-98600000D03*
X107800000Y-98100000D03*
X107800000Y-97600000D03*
%TD*%
D13*
%TO.C,U178*%
X78425000Y-91805000D03*
X78425000Y-90535000D03*
X78425000Y-89265000D03*
X78425000Y-87995000D03*
X83375000Y-87995000D03*
X83375000Y-89265000D03*
X83375000Y-90535000D03*
X83375000Y-91805000D03*
%TD*%
D11*
%TO.C,U175*%
X88300000Y-102500000D03*
X88300000Y-102100000D03*
X87900000Y-102500000D03*
X87900000Y-102100000D03*
%TD*%
D15*
%TO.C,U174*%
X82600000Y-101500000D03*
X82600000Y-102500000D03*
X83100000Y-101500001D03*
X83100000Y-102499999D03*
X83600000Y-101500000D03*
X83600000Y-102500000D03*
%TD*%
D10*
%TO.C,U166*%
X89225000Y-97600000D03*
X89225000Y-98100000D03*
X89225000Y-98600000D03*
X87800000Y-98600000D03*
X87800000Y-98100000D03*
X87800000Y-97600000D03*
%TD*%
D14*
%TO.C,U168*%
X78075000Y-97100000D03*
X78075000Y-96450000D03*
X78075000Y-95800000D03*
X78075000Y-95150000D03*
X82300000Y-95150000D03*
X82300000Y-95800000D03*
X82300000Y-96450000D03*
X82300000Y-97100000D03*
%TD*%
D16*
%TO.C,J23*%
X85100000Y-96570001D03*
D17*
X85100000Y-95300001D03*
%TD*%
D18*
%TO.C,J24*%
X74100000Y-88620000D03*
D19*
X74100000Y-91160000D03*
X74100000Y-93700000D03*
X74100000Y-96240000D03*
X74100000Y-98780000D03*
X74100000Y-101320000D03*
%TD*%
D12*
%TO.C,U171*%
X78200000Y-102500000D03*
X78600000Y-102500000D03*
X78200000Y-102100000D03*
X78600000Y-102100000D03*
%TD*%
D13*
%TO.C,U163*%
X158425000Y-71805000D03*
X158425000Y-70535000D03*
X158425000Y-69265000D03*
X158425000Y-67995000D03*
X163375000Y-67995000D03*
X163375000Y-69265000D03*
X163375000Y-70535000D03*
X163375000Y-71805000D03*
%TD*%
D11*
%TO.C,U160*%
X168300000Y-82500000D03*
X168300000Y-82100000D03*
X167900000Y-82500000D03*
X167900000Y-82100000D03*
%TD*%
D10*
%TO.C,U151*%
X169225000Y-77600000D03*
X169225000Y-78100000D03*
X169225000Y-78600000D03*
X167800000Y-78600000D03*
X167800000Y-78100000D03*
X167800000Y-77600000D03*
%TD*%
D12*
%TO.C,U156*%
X158200000Y-82500000D03*
X158600000Y-82500000D03*
X158200000Y-82100000D03*
X158600000Y-82100000D03*
%TD*%
D14*
%TO.C,U153*%
X158075000Y-77100000D03*
X158075000Y-76450000D03*
X158075000Y-75800000D03*
X158075000Y-75150000D03*
X162300000Y-75150000D03*
X162300000Y-75800000D03*
X162300000Y-76450000D03*
X162300000Y-77100000D03*
%TD*%
D18*
%TO.C,J22*%
X154100000Y-68620000D03*
D19*
X154100000Y-71160000D03*
X154100000Y-73700000D03*
X154100000Y-76240000D03*
X154100000Y-78780000D03*
X154100000Y-81320000D03*
%TD*%
D15*
%TO.C,U159*%
X162600000Y-81500000D03*
X162600000Y-82500000D03*
X163100000Y-81500001D03*
X163100000Y-82499999D03*
X163600000Y-81500000D03*
X163600000Y-82500000D03*
%TD*%
D16*
%TO.C,J21*%
X165100000Y-76570001D03*
D17*
X165100000Y-75300001D03*
%TD*%
D12*
%TO.C,U141*%
X138200000Y-82500000D03*
X138600000Y-82500000D03*
X138200000Y-82100000D03*
X138600000Y-82100000D03*
%TD*%
D11*
%TO.C,U145*%
X148300000Y-82500000D03*
X148300000Y-82100000D03*
X147900000Y-82500000D03*
X147900000Y-82100000D03*
%TD*%
D14*
%TO.C,U138*%
X138075000Y-77100000D03*
X138075000Y-76450000D03*
X138075000Y-75800000D03*
X138075000Y-75150000D03*
X142300000Y-75150000D03*
X142300000Y-75800000D03*
X142300000Y-76450000D03*
X142300000Y-77100000D03*
%TD*%
D16*
%TO.C,J19*%
X145100000Y-76570001D03*
D17*
X145100000Y-75300001D03*
%TD*%
D13*
%TO.C,U148*%
X138425000Y-71805000D03*
X138425000Y-70535000D03*
X138425000Y-69265000D03*
X138425000Y-67995000D03*
X143375000Y-67995000D03*
X143375000Y-69265000D03*
X143375000Y-70535000D03*
X143375000Y-71805000D03*
%TD*%
D18*
%TO.C,J20*%
X134100000Y-68620000D03*
D19*
X134100000Y-71160000D03*
X134100000Y-73700000D03*
X134100000Y-76240000D03*
X134100000Y-78780000D03*
X134100000Y-81320000D03*
%TD*%
D15*
%TO.C,U144*%
X142600000Y-81500000D03*
X142600000Y-82500000D03*
X143100000Y-81500001D03*
X143100000Y-82499999D03*
X143600000Y-81500000D03*
X143600000Y-82500000D03*
%TD*%
D10*
%TO.C,U136*%
X149225000Y-77600000D03*
X149225000Y-78100000D03*
X149225000Y-78600000D03*
X147800000Y-78600000D03*
X147800000Y-78100000D03*
X147800000Y-77600000D03*
%TD*%
D13*
%TO.C,U133*%
X118425000Y-71805000D03*
X118425000Y-70535000D03*
X118425000Y-69265000D03*
X118425000Y-67995000D03*
X123375000Y-67995000D03*
X123375000Y-69265000D03*
X123375000Y-70535000D03*
X123375000Y-71805000D03*
%TD*%
D10*
%TO.C,U121*%
X129225000Y-77600000D03*
X129225000Y-78100000D03*
X129225000Y-78600000D03*
X127800000Y-78600000D03*
X127800000Y-78100000D03*
X127800000Y-77600000D03*
%TD*%
D11*
%TO.C,U130*%
X128300000Y-82500000D03*
X128300000Y-82100000D03*
X127900000Y-82500000D03*
X127900000Y-82100000D03*
%TD*%
D15*
%TO.C,U129*%
X122600000Y-81500000D03*
X122600000Y-82500000D03*
X123100000Y-81500001D03*
X123100000Y-82499999D03*
X123600000Y-81500000D03*
X123600000Y-82500000D03*
%TD*%
D14*
%TO.C,U123*%
X118075000Y-77100000D03*
X118075000Y-76450000D03*
X118075000Y-75800000D03*
X118075000Y-75150000D03*
X122300000Y-75150000D03*
X122300000Y-75800000D03*
X122300000Y-76450000D03*
X122300000Y-77100000D03*
%TD*%
D12*
%TO.C,U126*%
X118200000Y-82500000D03*
X118600000Y-82500000D03*
X118200000Y-82100000D03*
X118600000Y-82100000D03*
%TD*%
D16*
%TO.C,J17*%
X125100000Y-76570001D03*
D17*
X125100000Y-75300001D03*
%TD*%
D18*
%TO.C,J18*%
X114100000Y-68620000D03*
D19*
X114100000Y-71160000D03*
X114100000Y-73700000D03*
X114100000Y-76240000D03*
X114100000Y-78780000D03*
X114100000Y-81320000D03*
%TD*%
D11*
%TO.C,U115*%
X108300000Y-82500000D03*
X108300000Y-82100000D03*
X107900000Y-82500000D03*
X107900000Y-82100000D03*
%TD*%
D15*
%TO.C,U114*%
X102600000Y-81500000D03*
X102600000Y-82500000D03*
X103100000Y-81500001D03*
X103100000Y-82499999D03*
X103600000Y-81500000D03*
X103600000Y-82500000D03*
%TD*%
D12*
%TO.C,U111*%
X98200000Y-82500000D03*
X98600000Y-82500000D03*
X98200000Y-82100000D03*
X98600000Y-82100000D03*
%TD*%
D13*
%TO.C,U118*%
X98425000Y-71805000D03*
X98425000Y-70535000D03*
X98425000Y-69265000D03*
X98425000Y-67995000D03*
X103375000Y-67995000D03*
X103375000Y-69265000D03*
X103375000Y-70535000D03*
X103375000Y-71805000D03*
%TD*%
D10*
%TO.C,U106*%
X109225000Y-77600000D03*
X109225000Y-78100000D03*
X109225000Y-78600000D03*
X107800000Y-78600000D03*
X107800000Y-78100000D03*
X107800000Y-77600000D03*
%TD*%
D14*
%TO.C,U108*%
X98075000Y-77100000D03*
X98075000Y-76450000D03*
X98075000Y-75800000D03*
X98075000Y-75150000D03*
X102300000Y-75150000D03*
X102300000Y-75800000D03*
X102300000Y-76450000D03*
X102300000Y-77100000D03*
%TD*%
D16*
%TO.C,J15*%
X105100000Y-76570001D03*
D17*
X105100000Y-75300001D03*
%TD*%
D18*
%TO.C,J16*%
X94100000Y-68620000D03*
D19*
X94100000Y-71160000D03*
X94100000Y-73700000D03*
X94100000Y-76240000D03*
X94100000Y-78780000D03*
X94100000Y-81320000D03*
%TD*%
D10*
%TO.C,U91*%
X89225000Y-77600000D03*
X89225000Y-78100000D03*
X89225000Y-78600000D03*
X87800000Y-78600000D03*
X87800000Y-78100000D03*
X87800000Y-77600000D03*
%TD*%
D11*
%TO.C,U100*%
X88300000Y-82500000D03*
X88300000Y-82100000D03*
X87900000Y-82500000D03*
X87900000Y-82100000D03*
%TD*%
D12*
%TO.C,U96*%
X78200000Y-82500000D03*
X78600000Y-82500000D03*
X78200000Y-82100000D03*
X78600000Y-82100000D03*
%TD*%
D13*
%TO.C,U103*%
X78425000Y-71805000D03*
X78425000Y-70535000D03*
X78425000Y-69265000D03*
X78425000Y-67995000D03*
X83375000Y-67995000D03*
X83375000Y-69265000D03*
X83375000Y-70535000D03*
X83375000Y-71805000D03*
%TD*%
D15*
%TO.C,U99*%
X82600000Y-81500000D03*
X82600000Y-82500000D03*
X83100000Y-81500001D03*
X83100000Y-82499999D03*
X83600000Y-81500000D03*
X83600000Y-82500000D03*
%TD*%
D14*
%TO.C,U93*%
X78075000Y-77100000D03*
X78075000Y-76450000D03*
X78075000Y-75800000D03*
X78075000Y-75150000D03*
X82300000Y-75150000D03*
X82300000Y-75800000D03*
X82300000Y-76450000D03*
X82300000Y-77100000D03*
%TD*%
D16*
%TO.C,J13*%
X85100000Y-76570001D03*
D17*
X85100000Y-75300001D03*
%TD*%
D18*
%TO.C,J14*%
X74100000Y-68620000D03*
D19*
X74100000Y-71160000D03*
X74100000Y-73700000D03*
X74100000Y-76240000D03*
X74100000Y-78780000D03*
X74100000Y-81320000D03*
%TD*%
D13*
%TO.C,U88*%
X158425000Y-51805000D03*
X158425000Y-50535000D03*
X158425000Y-49265000D03*
X158425000Y-47995000D03*
X163375000Y-47995000D03*
X163375000Y-49265000D03*
X163375000Y-50535000D03*
X163375000Y-51805000D03*
%TD*%
D11*
%TO.C,U85*%
X168300000Y-62500000D03*
X168300000Y-62100000D03*
X167900000Y-62500000D03*
X167900000Y-62100000D03*
%TD*%
D15*
%TO.C,U84*%
X162600000Y-61500000D03*
X162600000Y-62500000D03*
X163100000Y-61500001D03*
X163100000Y-62499999D03*
X163600000Y-61500000D03*
X163600000Y-62500000D03*
%TD*%
D14*
%TO.C,U78*%
X158075000Y-57100000D03*
X158075000Y-56450000D03*
X158075000Y-55800000D03*
X158075000Y-55150000D03*
X162300000Y-55150000D03*
X162300000Y-55800000D03*
X162300000Y-56450000D03*
X162300000Y-57100000D03*
%TD*%
D12*
%TO.C,U81*%
X158200000Y-62500000D03*
X158600000Y-62500000D03*
X158200000Y-62100000D03*
X158600000Y-62100000D03*
%TD*%
D10*
%TO.C,U76*%
X169225000Y-57600000D03*
X169225000Y-58100000D03*
X169225000Y-58600000D03*
X167800000Y-58600000D03*
X167800000Y-58100000D03*
X167800000Y-57600000D03*
%TD*%
D16*
%TO.C,J11*%
X165100000Y-56570001D03*
D17*
X165100000Y-55300001D03*
%TD*%
D18*
%TO.C,J12*%
X154100000Y-48620000D03*
D19*
X154100000Y-51160000D03*
X154100000Y-53700000D03*
X154100000Y-56240000D03*
X154100000Y-58780000D03*
X154100000Y-61320000D03*
%TD*%
D13*
%TO.C,U73*%
X138425000Y-51805000D03*
X138425000Y-50535000D03*
X138425000Y-49265000D03*
X138425000Y-47995000D03*
X143375000Y-47995000D03*
X143375000Y-49265000D03*
X143375000Y-50535000D03*
X143375000Y-51805000D03*
%TD*%
D10*
%TO.C,U61*%
X149225000Y-57600000D03*
X149225000Y-58100000D03*
X149225000Y-58600000D03*
X147800000Y-58600000D03*
X147800000Y-58100000D03*
X147800000Y-57600000D03*
%TD*%
D12*
%TO.C,U66*%
X138200000Y-62500000D03*
X138600000Y-62500000D03*
X138200000Y-62100000D03*
X138600000Y-62100000D03*
%TD*%
D11*
%TO.C,U70*%
X148300000Y-62500000D03*
X148300000Y-62100000D03*
X147900000Y-62500000D03*
X147900000Y-62100000D03*
%TD*%
D14*
%TO.C,U63*%
X138075000Y-57100000D03*
X138075000Y-56450000D03*
X138075000Y-55800000D03*
X138075000Y-55150000D03*
X142300000Y-55150000D03*
X142300000Y-55800000D03*
X142300000Y-56450000D03*
X142300000Y-57100000D03*
%TD*%
D18*
%TO.C,J10*%
X134100000Y-48620000D03*
D19*
X134100000Y-51160000D03*
X134100000Y-53700000D03*
X134100000Y-56240000D03*
X134100000Y-58780000D03*
X134100000Y-61320000D03*
%TD*%
D16*
%TO.C,J9*%
X145100000Y-56570001D03*
D17*
X145100000Y-55300001D03*
%TD*%
D15*
%TO.C,U69*%
X142600000Y-61500000D03*
X142600000Y-62500000D03*
X143100000Y-61500001D03*
X143100000Y-62499999D03*
X143600000Y-61500000D03*
X143600000Y-62500000D03*
%TD*%
D13*
%TO.C,U58*%
X118425000Y-51805000D03*
X118425000Y-50535000D03*
X118425000Y-49265000D03*
X118425000Y-47995000D03*
X123375000Y-47995000D03*
X123375000Y-49265000D03*
X123375000Y-50535000D03*
X123375000Y-51805000D03*
%TD*%
D10*
%TO.C,U46*%
X129225000Y-57600000D03*
X129225000Y-58100000D03*
X129225000Y-58600000D03*
X127800000Y-58600000D03*
X127800000Y-58100000D03*
X127800000Y-57600000D03*
%TD*%
D11*
%TO.C,U55*%
X128300000Y-62500000D03*
X128300000Y-62100000D03*
X127900000Y-62500000D03*
X127900000Y-62100000D03*
%TD*%
D12*
%TO.C,U51*%
X118200000Y-62500000D03*
X118600000Y-62500000D03*
X118200000Y-62100000D03*
X118600000Y-62100000D03*
%TD*%
D15*
%TO.C,U54*%
X122600000Y-61500000D03*
X122600000Y-62500000D03*
X123100000Y-61500001D03*
X123100000Y-62499999D03*
X123600000Y-61500000D03*
X123600000Y-62500000D03*
%TD*%
D14*
%TO.C,U48*%
X118075000Y-57100000D03*
X118075000Y-56450000D03*
X118075000Y-55800000D03*
X118075000Y-55150000D03*
X122300000Y-55150000D03*
X122300000Y-55800000D03*
X122300000Y-56450000D03*
X122300000Y-57100000D03*
%TD*%
D16*
%TO.C,J7*%
X125100000Y-56570001D03*
D17*
X125100000Y-55300001D03*
%TD*%
D18*
%TO.C,J8*%
X114100000Y-48620000D03*
D19*
X114100000Y-51160000D03*
X114100000Y-53700000D03*
X114100000Y-56240000D03*
X114100000Y-58780000D03*
X114100000Y-61320000D03*
%TD*%
D10*
%TO.C,U31*%
X109225000Y-57600000D03*
X109225000Y-58100000D03*
X109225000Y-58600000D03*
X107800000Y-58600000D03*
X107800000Y-58100000D03*
X107800000Y-57600000D03*
%TD*%
D11*
%TO.C,U40*%
X108300000Y-62500000D03*
X108300000Y-62100000D03*
X107900000Y-62500000D03*
X107900000Y-62100000D03*
%TD*%
D15*
%TO.C,U39*%
X102600000Y-61500000D03*
X102600000Y-62500000D03*
X103100000Y-61500001D03*
X103100000Y-62499999D03*
X103600000Y-61500000D03*
X103600000Y-62500000D03*
%TD*%
D13*
%TO.C,U43*%
X98425000Y-51805000D03*
X98425000Y-50535000D03*
X98425000Y-49265000D03*
X98425000Y-47995000D03*
X103375000Y-47995000D03*
X103375000Y-49265000D03*
X103375000Y-50535000D03*
X103375000Y-51805000D03*
%TD*%
D12*
%TO.C,U36*%
X98200000Y-62500000D03*
X98600000Y-62500000D03*
X98200000Y-62100000D03*
X98600000Y-62100000D03*
%TD*%
D14*
%TO.C,U33*%
X98075000Y-57100000D03*
X98075000Y-56450000D03*
X98075000Y-55800000D03*
X98075000Y-55150000D03*
X102300000Y-55150000D03*
X102300000Y-55800000D03*
X102300000Y-56450000D03*
X102300000Y-57100000D03*
%TD*%
D16*
%TO.C,J5*%
X105100000Y-56570001D03*
D17*
X105100000Y-55300001D03*
%TD*%
D18*
%TO.C,J6*%
X94100000Y-48620000D03*
D19*
X94100000Y-51160000D03*
X94100000Y-53700000D03*
X94100000Y-56240000D03*
X94100000Y-58780000D03*
X94100000Y-61320000D03*
%TD*%
D13*
%TO.C,U28*%
X78425000Y-51805000D03*
X78425000Y-50535000D03*
X78425000Y-49265000D03*
X78425000Y-47995000D03*
X83375000Y-47995000D03*
X83375000Y-49265000D03*
X83375000Y-50535000D03*
X83375000Y-51805000D03*
%TD*%
D10*
%TO.C,U2*%
X89225000Y-57600000D03*
X89225000Y-58100000D03*
X89225000Y-58600000D03*
X87800000Y-58600000D03*
X87800000Y-58100000D03*
X87800000Y-57600000D03*
%TD*%
D11*
%TO.C,U25*%
X88300000Y-62500000D03*
X88300000Y-62100000D03*
X87900000Y-62500000D03*
X87900000Y-62100000D03*
%TD*%
D12*
%TO.C,U21*%
X78200000Y-62500000D03*
X78600000Y-62500000D03*
X78200000Y-62100000D03*
X78600000Y-62100000D03*
%TD*%
D14*
%TO.C,U17*%
X78075000Y-57100000D03*
X78075000Y-56450000D03*
X78075000Y-55800000D03*
X78075000Y-55150000D03*
X82300000Y-55150000D03*
X82300000Y-55800000D03*
X82300000Y-56450000D03*
X82300000Y-57100000D03*
%TD*%
D16*
%TO.C,J3*%
X85100000Y-56570001D03*
D17*
X85100000Y-55300001D03*
%TD*%
D18*
%TO.C,J4*%
X74100000Y-48620000D03*
D19*
X74100000Y-51160000D03*
X74100000Y-53700000D03*
X74100000Y-56240000D03*
X74100000Y-58780000D03*
X74100000Y-61320000D03*
%TD*%
D15*
%TO.C,U24*%
X82600000Y-61500000D03*
X82600000Y-62500000D03*
X83100000Y-61500001D03*
X83100000Y-62499999D03*
X83600000Y-61500000D03*
X83600000Y-62500000D03*
%TD*%
D18*
%TO.C,J2*%
X154100000Y-128620000D03*
D19*
X154100000Y-131160000D03*
X154100000Y-133700000D03*
X154100000Y-136240000D03*
X154100000Y-138780000D03*
X154100000Y-141320000D03*
%TD*%
D16*
%TO.C,J1*%
X165100000Y-136570001D03*
D17*
X165100000Y-135300001D03*
%TD*%
D15*
%TO.C,U11*%
X162600000Y-141500000D03*
X162600000Y-142500000D03*
X163100000Y-141500001D03*
X163100000Y-142499999D03*
X163600000Y-141500000D03*
X163600000Y-142500000D03*
%TD*%
D13*
%TO.C,U15*%
X158425000Y-131805000D03*
X158425000Y-130535000D03*
X158425000Y-129265000D03*
X158425000Y-127995000D03*
X163375000Y-127995000D03*
X163375000Y-129265000D03*
X163375000Y-130535000D03*
X163375000Y-131805000D03*
%TD*%
D10*
%TO.C,U1*%
X169225000Y-137600000D03*
X169225000Y-138100000D03*
X169225000Y-138600000D03*
X167800000Y-138600000D03*
X167800000Y-138100000D03*
X167800000Y-137600000D03*
%TD*%
D11*
%TO.C,U12*%
X168300000Y-142500000D03*
X168300000Y-142100000D03*
X167900000Y-142500000D03*
X167900000Y-142100000D03*
%TD*%
D12*
%TO.C,U7*%
X158200000Y-142500000D03*
X158600000Y-142500000D03*
X158200000Y-142100000D03*
X158600000Y-142100000D03*
%TD*%
D14*
%TO.C,U4*%
X158075000Y-137100000D03*
X158075000Y-136450000D03*
X158075000Y-135800000D03*
X158075000Y-135150000D03*
X162300000Y-135150000D03*
X162300000Y-135800000D03*
X162300000Y-136450000D03*
X162300000Y-137100000D03*
%TD*%
M02*
