%TF.GenerationSoftware,KiCad,Pcbnew,9.0.3*%
%TF.CreationDate,2025-08-19T23:10:40-04:00*%
%TF.ProjectId,Mess-Sense,4d657373-2d53-4656-9e73-652e6b696361,rev?*%
%TF.SameCoordinates,Original*%
%TF.FileFunction,Paste,Top*%
%TF.FilePolarity,Positive*%
%FSLAX46Y46*%
G04 Gerber Fmt 4.6, Leading zero omitted, Abs format (unit mm)*
G04 Created by KiCad (PCBNEW 9.0.3) date 2025-08-19 23:10:40*
%MOMM*%
%LPD*%
G01*
G04 APERTURE LIST*
G04 Aperture macros list*
%AMRoundRect*
0 Rectangle with rounded corners*
0 $1 Rounding radius*
0 $2 $3 $4 $5 $6 $7 $8 $9 X,Y pos of 4 corners*
0 Add a 4 corners polygon primitive as box body*
4,1,4,$2,$3,$4,$5,$6,$7,$8,$9,$2,$3,0*
0 Add four circle primitives for the rounded corners*
1,1,$1+$1,$2,$3*
1,1,$1+$1,$4,$5*
1,1,$1+$1,$6,$7*
1,1,$1+$1,$8,$9*
0 Add four rect primitives between the rounded corners*
20,1,$1+$1,$2,$3,$4,$5,0*
20,1,$1+$1,$4,$5,$6,$7,0*
20,1,$1+$1,$6,$7,$8,$9,0*
20,1,$1+$1,$8,$9,$2,$3,0*%
%AMFreePoly0*
4,1,6,0.450000,-0.800000,-0.450000,-0.800000,-0.450000,0.530000,-0.180000,0.800000,0.450000,0.800000,0.450000,-0.800000,0.450000,-0.800000,$1*%
G04 Aperture macros list end*
%ADD10C,0.010000*%
%ADD11RoundRect,0.140000X-0.140000X-0.180000X0.140000X-0.180000X0.140000X0.180000X-0.140000X0.180000X0*%
%ADD12RoundRect,0.062500X-0.087500X-0.062500X0.087500X-0.062500X0.087500X0.062500X-0.087500X0.062500X0*%
%ADD13R,0.450000X0.700000*%
%ADD14R,1.100000X0.500000*%
%ADD15R,0.550000X0.250000*%
%ADD16RoundRect,0.200000X0.275000X-0.200000X0.275000X0.200000X-0.275000X0.200000X-0.275000X-0.200000X0*%
%ADD17RoundRect,0.225000X-0.225000X-0.250000X0.225000X-0.250000X0.225000X0.250000X-0.225000X0.250000X0*%
%ADD18RoundRect,0.200000X-0.275000X0.200000X-0.275000X-0.200000X0.275000X-0.200000X0.275000X0.200000X0*%
%ADD19R,0.700000X0.510000*%
%ADD20RoundRect,0.225000X0.225000X0.250000X-0.225000X0.250000X-0.225000X-0.250000X0.225000X-0.250000X0*%
%ADD21RoundRect,0.200000X-0.200000X-0.275000X0.200000X-0.275000X0.200000X0.275000X-0.200000X0.275000X0*%
%ADD22RoundRect,0.075000X-0.250000X-0.075000X0.250000X-0.075000X0.250000X0.075000X-0.250000X0.075000X0*%
%ADD23FreePoly0,180.000000*%
%ADD24RoundRect,0.033750X0.336250X0.101250X-0.336250X0.101250X-0.336250X-0.101250X0.336250X-0.101250X0*%
%ADD25RoundRect,0.081250X-0.106250X-0.081250X0.106250X-0.081250X0.106250X0.081250X-0.106250X0.081250X0*%
%ADD26RoundRect,0.087500X-0.100000X-0.087500X0.100000X-0.087500X0.100000X0.087500X-0.100000X0.087500X0*%
%ADD27RoundRect,0.125000X-0.125000X-0.325000X0.125000X-0.325000X0.125000X0.325000X-0.125000X0.325000X0*%
%ADD28RoundRect,0.075000X0.112500X0.075000X-0.112500X0.075000X-0.112500X-0.075000X0.112500X-0.075000X0*%
%ADD29RoundRect,0.081250X0.106250X0.081250X-0.106250X0.081250X-0.106250X-0.081250X0.106250X-0.081250X0*%
%ADD30R,0.720000X0.600000*%
%ADD31R,0.800000X0.350000*%
%ADD32R,0.300000X0.500000*%
G04 APERTURE END LIST*
D10*
%TO.C,U368*%
X148915000Y-139229999D02*
X148495000Y-139229999D01*
X148495000Y-138370001D01*
X148915000Y-138370001D01*
X148915000Y-139229999D01*
G36*
X148915000Y-139229999D02*
G01*
X148495000Y-139229999D01*
X148495000Y-138370001D01*
X148915000Y-138370001D01*
X148915000Y-139229999D01*
G37*
%TO.C,U353*%
X128915000Y-139229999D02*
X128495000Y-139229999D01*
X128495000Y-138370001D01*
X128915000Y-138370001D01*
X128915000Y-139229999D01*
G36*
X128915000Y-139229999D02*
G01*
X128495000Y-139229999D01*
X128495000Y-138370001D01*
X128915000Y-138370001D01*
X128915000Y-139229999D01*
G37*
%TO.C,U338*%
X108915000Y-139229999D02*
X108495000Y-139229999D01*
X108495000Y-138370001D01*
X108915000Y-138370001D01*
X108915000Y-139229999D01*
G36*
X108915000Y-139229999D02*
G01*
X108495000Y-139229999D01*
X108495000Y-138370001D01*
X108915000Y-138370001D01*
X108915000Y-139229999D01*
G37*
%TO.C,U323*%
X88915000Y-139229999D02*
X88495000Y-139229999D01*
X88495000Y-138370001D01*
X88915000Y-138370001D01*
X88915000Y-139229999D01*
G36*
X88915000Y-139229999D02*
G01*
X88495000Y-139229999D01*
X88495000Y-138370001D01*
X88915000Y-138370001D01*
X88915000Y-139229999D01*
G37*
%TO.C,U308*%
X168915000Y-119229999D02*
X168495000Y-119229999D01*
X168495000Y-118370001D01*
X168915000Y-118370001D01*
X168915000Y-119229999D01*
G36*
X168915000Y-119229999D02*
G01*
X168495000Y-119229999D01*
X168495000Y-118370001D01*
X168915000Y-118370001D01*
X168915000Y-119229999D01*
G37*
%TO.C,U293*%
X148915000Y-119229999D02*
X148495000Y-119229999D01*
X148495000Y-118370001D01*
X148915000Y-118370001D01*
X148915000Y-119229999D01*
G36*
X148915000Y-119229999D02*
G01*
X148495000Y-119229999D01*
X148495000Y-118370001D01*
X148915000Y-118370001D01*
X148915000Y-119229999D01*
G37*
%TO.C,U278*%
X128915000Y-119229999D02*
X128495000Y-119229999D01*
X128495000Y-118370001D01*
X128915000Y-118370001D01*
X128915000Y-119229999D01*
G36*
X128915000Y-119229999D02*
G01*
X128495000Y-119229999D01*
X128495000Y-118370001D01*
X128915000Y-118370001D01*
X128915000Y-119229999D01*
G37*
%TO.C,U263*%
X108915000Y-119229999D02*
X108495000Y-119229999D01*
X108495000Y-118370001D01*
X108915000Y-118370001D01*
X108915000Y-119229999D01*
G36*
X108915000Y-119229999D02*
G01*
X108495000Y-119229999D01*
X108495000Y-118370001D01*
X108915000Y-118370001D01*
X108915000Y-119229999D01*
G37*
%TO.C,U248*%
X88915000Y-119229999D02*
X88495000Y-119229999D01*
X88495000Y-118370001D01*
X88915000Y-118370001D01*
X88915000Y-119229999D01*
G36*
X88915000Y-119229999D02*
G01*
X88495000Y-119229999D01*
X88495000Y-118370001D01*
X88915000Y-118370001D01*
X88915000Y-119229999D01*
G37*
%TO.C,U233*%
X168915000Y-99229999D02*
X168495000Y-99229999D01*
X168495000Y-98370001D01*
X168915000Y-98370001D01*
X168915000Y-99229999D01*
G36*
X168915000Y-99229999D02*
G01*
X168495000Y-99229999D01*
X168495000Y-98370001D01*
X168915000Y-98370001D01*
X168915000Y-99229999D01*
G37*
%TO.C,U218*%
X148915000Y-99229999D02*
X148495000Y-99229999D01*
X148495000Y-98370001D01*
X148915000Y-98370001D01*
X148915000Y-99229999D01*
G36*
X148915000Y-99229999D02*
G01*
X148495000Y-99229999D01*
X148495000Y-98370001D01*
X148915000Y-98370001D01*
X148915000Y-99229999D01*
G37*
%TO.C,U203*%
X128915000Y-99229999D02*
X128495000Y-99229999D01*
X128495000Y-98370001D01*
X128915000Y-98370001D01*
X128915000Y-99229999D01*
G36*
X128915000Y-99229999D02*
G01*
X128495000Y-99229999D01*
X128495000Y-98370001D01*
X128915000Y-98370001D01*
X128915000Y-99229999D01*
G37*
%TO.C,U188*%
X108915000Y-99229999D02*
X108495000Y-99229999D01*
X108495000Y-98370001D01*
X108915000Y-98370001D01*
X108915000Y-99229999D01*
G36*
X108915000Y-99229999D02*
G01*
X108495000Y-99229999D01*
X108495000Y-98370001D01*
X108915000Y-98370001D01*
X108915000Y-99229999D01*
G37*
%TO.C,U173*%
X88915000Y-99229999D02*
X88495000Y-99229999D01*
X88495000Y-98370001D01*
X88915000Y-98370001D01*
X88915000Y-99229999D01*
G36*
X88915000Y-99229999D02*
G01*
X88495000Y-99229999D01*
X88495000Y-98370001D01*
X88915000Y-98370001D01*
X88915000Y-99229999D01*
G37*
%TO.C,U158*%
X168915000Y-79229999D02*
X168495000Y-79229999D01*
X168495000Y-78370001D01*
X168915000Y-78370001D01*
X168915000Y-79229999D01*
G36*
X168915000Y-79229999D02*
G01*
X168495000Y-79229999D01*
X168495000Y-78370001D01*
X168915000Y-78370001D01*
X168915000Y-79229999D01*
G37*
%TO.C,U143*%
X148915000Y-79229999D02*
X148495000Y-79229999D01*
X148495000Y-78370001D01*
X148915000Y-78370001D01*
X148915000Y-79229999D01*
G36*
X148915000Y-79229999D02*
G01*
X148495000Y-79229999D01*
X148495000Y-78370001D01*
X148915000Y-78370001D01*
X148915000Y-79229999D01*
G37*
%TO.C,U128*%
X128915000Y-79229999D02*
X128495000Y-79229999D01*
X128495000Y-78370001D01*
X128915000Y-78370001D01*
X128915000Y-79229999D01*
G36*
X128915000Y-79229999D02*
G01*
X128495000Y-79229999D01*
X128495000Y-78370001D01*
X128915000Y-78370001D01*
X128915000Y-79229999D01*
G37*
%TO.C,U113*%
X108915000Y-79229999D02*
X108495000Y-79229999D01*
X108495000Y-78370001D01*
X108915000Y-78370001D01*
X108915000Y-79229999D01*
G36*
X108915000Y-79229999D02*
G01*
X108495000Y-79229999D01*
X108495000Y-78370001D01*
X108915000Y-78370001D01*
X108915000Y-79229999D01*
G37*
%TO.C,U98*%
X88915000Y-79229999D02*
X88495000Y-79229999D01*
X88495000Y-78370001D01*
X88915000Y-78370001D01*
X88915000Y-79229999D01*
G36*
X88915000Y-79229999D02*
G01*
X88495000Y-79229999D01*
X88495000Y-78370001D01*
X88915000Y-78370001D01*
X88915000Y-79229999D01*
G37*
%TO.C,U83*%
X168915000Y-59229999D02*
X168495000Y-59229999D01*
X168495000Y-58370001D01*
X168915000Y-58370001D01*
X168915000Y-59229999D01*
G36*
X168915000Y-59229999D02*
G01*
X168495000Y-59229999D01*
X168495000Y-58370001D01*
X168915000Y-58370001D01*
X168915000Y-59229999D01*
G37*
%TO.C,U68*%
X148915000Y-59229999D02*
X148495000Y-59229999D01*
X148495000Y-58370001D01*
X148915000Y-58370001D01*
X148915000Y-59229999D01*
G36*
X148915000Y-59229999D02*
G01*
X148495000Y-59229999D01*
X148495000Y-58370001D01*
X148915000Y-58370001D01*
X148915000Y-59229999D01*
G37*
%TO.C,U53*%
X128915000Y-59229999D02*
X128495000Y-59229999D01*
X128495000Y-58370001D01*
X128915000Y-58370001D01*
X128915000Y-59229999D01*
G36*
X128915000Y-59229999D02*
G01*
X128495000Y-59229999D01*
X128495000Y-58370001D01*
X128915000Y-58370001D01*
X128915000Y-59229999D01*
G37*
%TO.C,U38*%
X108915000Y-59229999D02*
X108495000Y-59229999D01*
X108495000Y-58370001D01*
X108915000Y-58370001D01*
X108915000Y-59229999D01*
G36*
X108915000Y-59229999D02*
G01*
X108495000Y-59229999D01*
X108495000Y-58370001D01*
X108915000Y-58370001D01*
X108915000Y-59229999D01*
G37*
%TO.C,U23*%
X88915000Y-59229999D02*
X88495000Y-59229999D01*
X88495000Y-58370001D01*
X88915000Y-58370001D01*
X88915000Y-59229999D01*
G36*
X88915000Y-59229999D02*
G01*
X88495000Y-59229999D01*
X88495000Y-58370001D01*
X88915000Y-58370001D01*
X88915000Y-59229999D01*
G37*
%TO.C,U10*%
X168915000Y-139229999D02*
X168495000Y-139229999D01*
X168495000Y-138370001D01*
X168915000Y-138370001D01*
X168915000Y-139229999D01*
G36*
X168915000Y-139229999D02*
G01*
X168495000Y-139229999D01*
X168495000Y-138370001D01*
X168915000Y-138370001D01*
X168915000Y-139229999D01*
G37*
%TD*%
D11*
%TO.C,U372*%
X148700000Y-134700001D03*
X148700000Y-135500000D03*
D12*
X147850000Y-134450000D03*
X147850000Y-135100000D03*
X147850000Y-135750000D03*
X149550000Y-135750000D03*
X149550000Y-135100000D03*
X149550000Y-134450000D03*
%TD*%
D13*
%TO.C,IC25*%
X144700000Y-128600000D03*
X145500000Y-128600000D03*
X145500000Y-127000000D03*
X144700000Y-127000000D03*
D14*
X145100000Y-127800000D03*
%TD*%
D15*
%TO.C,U371*%
X149700000Y-142900000D03*
X149700000Y-142400000D03*
X149700000Y-141900000D03*
X146950000Y-141900000D03*
X146950000Y-142400000D03*
X146950000Y-142900000D03*
%TD*%
D16*
%TO.C,R100*%
X137700000Y-133274999D03*
X137700000Y-131624999D03*
%TD*%
D17*
%TO.C,C75*%
X143750000Y-139300000D03*
X145300000Y-139300000D03*
%TD*%
D18*
%TO.C,R97*%
X141200000Y-131275000D03*
X141200000Y-132925000D03*
%TD*%
D19*
%TO.C,U362*%
X139980000Y-135000000D03*
X139980000Y-135950000D03*
X139980000Y-136900000D03*
X142300000Y-136900000D03*
X142300000Y-135950000D03*
X142300000Y-135000000D03*
%TD*%
D20*
%TO.C,C76*%
X139150000Y-139300000D03*
X137600000Y-139300000D03*
%TD*%
D21*
%TO.C,R98*%
X140550000Y-139299998D03*
X142200000Y-139299998D03*
%TD*%
D22*
%TO.C,U367*%
X143599999Y-131450000D03*
X143600000Y-132100000D03*
X143599999Y-132750000D03*
X145400001Y-132750000D03*
X145400000Y-132100000D03*
X145400001Y-131450000D03*
%TD*%
D20*
%TO.C,C77*%
X139075000Y-142300000D03*
X137525000Y-142300000D03*
%TD*%
D23*
%TO.C,U364*%
X143100000Y-142549999D03*
D15*
X144275000Y-143300000D03*
X144275000Y-142799999D03*
X144275000Y-142299999D03*
X144275000Y-141799998D03*
X141925000Y-141799998D03*
X141925000Y-142299999D03*
X141925000Y-142799999D03*
X141925000Y-143300000D03*
%TD*%
D24*
%TO.C,U368*%
X149700000Y-139450000D03*
X149700000Y-138800000D03*
X149700000Y-138150000D03*
X147710000Y-138150000D03*
X147710000Y-138800000D03*
X147710000Y-139450000D03*
%TD*%
D16*
%TO.C,R99*%
X137700000Y-136325000D03*
X137700000Y-134675000D03*
%TD*%
D25*
%TO.C,U375*%
X148375000Y-131300000D03*
D26*
X148375000Y-131900000D03*
D27*
X149037500Y-131600001D03*
D28*
X149700000Y-131300000D03*
D29*
X149700000Y-131912500D03*
%TD*%
D30*
%TO.C,U365*%
X141634264Y-128458578D03*
X140664264Y-128458578D03*
X139694264Y-128458578D03*
X138724264Y-128458578D03*
X138724264Y-127058578D03*
X139694264Y-127058578D03*
X140664264Y-127058578D03*
X141634264Y-127058578D03*
%TD*%
D31*
%TO.C,U374*%
X149025000Y-127850000D03*
D32*
X149500000Y-126900000D03*
X148550000Y-126900000D03*
X148550000Y-128800000D03*
X149500000Y-128800000D03*
%TD*%
D11*
%TO.C,U357*%
X128700000Y-134700001D03*
X128700000Y-135500000D03*
D12*
X127850000Y-134450000D03*
X127850000Y-135100000D03*
X127850000Y-135750000D03*
X129550000Y-135750000D03*
X129550000Y-135100000D03*
X129550000Y-134450000D03*
%TD*%
D13*
%TO.C,IC24*%
X124700000Y-128600000D03*
X125500000Y-128600000D03*
X125500000Y-127000000D03*
X124700000Y-127000000D03*
D14*
X125100000Y-127800000D03*
%TD*%
D15*
%TO.C,U356*%
X129700000Y-142900000D03*
X129700000Y-142400000D03*
X129700000Y-141900000D03*
X126950000Y-141900000D03*
X126950000Y-142400000D03*
X126950000Y-142900000D03*
%TD*%
D16*
%TO.C,R96*%
X117700000Y-133274999D03*
X117700000Y-131624999D03*
%TD*%
D17*
%TO.C,C72*%
X123750000Y-139300000D03*
X125300000Y-139300000D03*
%TD*%
D18*
%TO.C,R93*%
X121200000Y-131275000D03*
X121200000Y-132925000D03*
%TD*%
D19*
%TO.C,U347*%
X119980000Y-135000000D03*
X119980000Y-135950000D03*
X119980000Y-136900000D03*
X122300000Y-136900000D03*
X122300000Y-135950000D03*
X122300000Y-135000000D03*
%TD*%
D20*
%TO.C,C73*%
X119150000Y-139300000D03*
X117600000Y-139300000D03*
%TD*%
D21*
%TO.C,R94*%
X120550000Y-139299998D03*
X122200000Y-139299998D03*
%TD*%
D22*
%TO.C,U352*%
X123599999Y-131450000D03*
X123600000Y-132100000D03*
X123599999Y-132750000D03*
X125400001Y-132750000D03*
X125400000Y-132100000D03*
X125400001Y-131450000D03*
%TD*%
D20*
%TO.C,C74*%
X119075000Y-142300000D03*
X117525000Y-142300000D03*
%TD*%
D23*
%TO.C,U349*%
X123100000Y-142549999D03*
D15*
X124275000Y-143300000D03*
X124275000Y-142799999D03*
X124275000Y-142299999D03*
X124275000Y-141799998D03*
X121925000Y-141799998D03*
X121925000Y-142299999D03*
X121925000Y-142799999D03*
X121925000Y-143300000D03*
%TD*%
D24*
%TO.C,U353*%
X129700000Y-139450000D03*
X129700000Y-138800000D03*
X129700000Y-138150000D03*
X127710000Y-138150000D03*
X127710000Y-138800000D03*
X127710000Y-139450000D03*
%TD*%
D16*
%TO.C,R95*%
X117700000Y-136325000D03*
X117700000Y-134675000D03*
%TD*%
D25*
%TO.C,U360*%
X128375000Y-131300000D03*
D26*
X128375000Y-131900000D03*
D27*
X129037500Y-131600001D03*
D28*
X129700000Y-131300000D03*
D29*
X129700000Y-131912500D03*
%TD*%
D31*
%TO.C,U359*%
X129025000Y-127850000D03*
D32*
X129500000Y-126900000D03*
X128550000Y-126900000D03*
X128550000Y-128800000D03*
X129500000Y-128800000D03*
%TD*%
D30*
%TO.C,U350*%
X121634264Y-128458578D03*
X120664264Y-128458578D03*
X119694264Y-128458578D03*
X118724264Y-128458578D03*
X118724264Y-127058578D03*
X119694264Y-127058578D03*
X120664264Y-127058578D03*
X121634264Y-127058578D03*
%TD*%
D11*
%TO.C,U342*%
X108700000Y-134700001D03*
X108700000Y-135500000D03*
D12*
X107850000Y-134450000D03*
X107850000Y-135100000D03*
X107850000Y-135750000D03*
X109550000Y-135750000D03*
X109550000Y-135100000D03*
X109550000Y-134450000D03*
%TD*%
D13*
%TO.C,IC23*%
X104700000Y-128600000D03*
X105500000Y-128600000D03*
X105500000Y-127000000D03*
X104700000Y-127000000D03*
D14*
X105100000Y-127800000D03*
%TD*%
D15*
%TO.C,U341*%
X109700000Y-142900000D03*
X109700000Y-142400000D03*
X109700000Y-141900000D03*
X106950000Y-141900000D03*
X106950000Y-142400000D03*
X106950000Y-142900000D03*
%TD*%
D16*
%TO.C,R92*%
X97700000Y-133274999D03*
X97700000Y-131624999D03*
%TD*%
D17*
%TO.C,C69*%
X103750000Y-139300000D03*
X105300000Y-139300000D03*
%TD*%
D18*
%TO.C,R89*%
X101200000Y-131275000D03*
X101200000Y-132925000D03*
%TD*%
D19*
%TO.C,U332*%
X99980000Y-135000000D03*
X99980000Y-135950000D03*
X99980000Y-136900000D03*
X102300000Y-136900000D03*
X102300000Y-135950000D03*
X102300000Y-135000000D03*
%TD*%
D20*
%TO.C,C70*%
X99150000Y-139300000D03*
X97600000Y-139300000D03*
%TD*%
D21*
%TO.C,R90*%
X100550000Y-139299998D03*
X102200000Y-139299998D03*
%TD*%
D22*
%TO.C,U337*%
X103599999Y-131450000D03*
X103600000Y-132100000D03*
X103599999Y-132750000D03*
X105400001Y-132750000D03*
X105400000Y-132100000D03*
X105400001Y-131450000D03*
%TD*%
D20*
%TO.C,C71*%
X99075000Y-142300000D03*
X97525000Y-142300000D03*
%TD*%
D23*
%TO.C,U334*%
X103100000Y-142549999D03*
D15*
X104275000Y-143300000D03*
X104275000Y-142799999D03*
X104275000Y-142299999D03*
X104275000Y-141799998D03*
X101925000Y-141799998D03*
X101925000Y-142299999D03*
X101925000Y-142799999D03*
X101925000Y-143300000D03*
%TD*%
D24*
%TO.C,U338*%
X109700000Y-139450000D03*
X109700000Y-138800000D03*
X109700000Y-138150000D03*
X107710000Y-138150000D03*
X107710000Y-138800000D03*
X107710000Y-139450000D03*
%TD*%
D16*
%TO.C,R91*%
X97700000Y-136325000D03*
X97700000Y-134675000D03*
%TD*%
D25*
%TO.C,U345*%
X108375000Y-131300000D03*
D26*
X108375000Y-131900000D03*
D27*
X109037500Y-131600001D03*
D28*
X109700000Y-131300000D03*
D29*
X109700000Y-131912500D03*
%TD*%
D31*
%TO.C,U344*%
X109025000Y-127850000D03*
D32*
X109500000Y-126900000D03*
X108550000Y-126900000D03*
X108550000Y-128800000D03*
X109500000Y-128800000D03*
%TD*%
D30*
%TO.C,U335*%
X101634264Y-128458578D03*
X100664264Y-128458578D03*
X99694264Y-128458578D03*
X98724264Y-128458578D03*
X98724264Y-127058578D03*
X99694264Y-127058578D03*
X100664264Y-127058578D03*
X101634264Y-127058578D03*
%TD*%
D11*
%TO.C,U327*%
X88700000Y-134700001D03*
X88700000Y-135500000D03*
D12*
X87850000Y-134450000D03*
X87850000Y-135100000D03*
X87850000Y-135750000D03*
X89550000Y-135750000D03*
X89550000Y-135100000D03*
X89550000Y-134450000D03*
%TD*%
D13*
%TO.C,IC22*%
X84700000Y-128600000D03*
X85500000Y-128600000D03*
X85500000Y-127000000D03*
X84700000Y-127000000D03*
D14*
X85100000Y-127800000D03*
%TD*%
D15*
%TO.C,U326*%
X89700000Y-142900000D03*
X89700000Y-142400000D03*
X89700000Y-141900000D03*
X86950000Y-141900000D03*
X86950000Y-142400000D03*
X86950000Y-142900000D03*
%TD*%
D16*
%TO.C,R88*%
X77700000Y-133274999D03*
X77700000Y-131624999D03*
%TD*%
D17*
%TO.C,C66*%
X83750000Y-139300000D03*
X85300000Y-139300000D03*
%TD*%
D18*
%TO.C,R85*%
X81200000Y-131275000D03*
X81200000Y-132925000D03*
%TD*%
D19*
%TO.C,U317*%
X79980000Y-135000000D03*
X79980000Y-135950000D03*
X79980000Y-136900000D03*
X82300000Y-136900000D03*
X82300000Y-135950000D03*
X82300000Y-135000000D03*
%TD*%
D20*
%TO.C,C67*%
X79150000Y-139300000D03*
X77600000Y-139300000D03*
%TD*%
D22*
%TO.C,U322*%
X83599999Y-131450000D03*
X83600000Y-132100000D03*
X83599999Y-132750000D03*
X85400001Y-132750000D03*
X85400000Y-132100000D03*
X85400001Y-131450000D03*
%TD*%
D21*
%TO.C,R86*%
X80550000Y-139299998D03*
X82200000Y-139299998D03*
%TD*%
D20*
%TO.C,C68*%
X79075000Y-142300000D03*
X77525000Y-142300000D03*
%TD*%
D23*
%TO.C,U319*%
X83100000Y-142549999D03*
D15*
X84275000Y-143300000D03*
X84275000Y-142799999D03*
X84275000Y-142299999D03*
X84275000Y-141799998D03*
X81925000Y-141799998D03*
X81925000Y-142299999D03*
X81925000Y-142799999D03*
X81925000Y-143300000D03*
%TD*%
D24*
%TO.C,U323*%
X89700000Y-139450000D03*
X89700000Y-138800000D03*
X89700000Y-138150000D03*
X87710000Y-138150000D03*
X87710000Y-138800000D03*
X87710000Y-139450000D03*
%TD*%
D16*
%TO.C,R87*%
X77700000Y-136325000D03*
X77700000Y-134675000D03*
%TD*%
D25*
%TO.C,U330*%
X88375000Y-131300000D03*
D26*
X88375000Y-131900000D03*
D27*
X89037500Y-131600001D03*
D28*
X89700000Y-131300000D03*
D29*
X89700000Y-131912500D03*
%TD*%
D31*
%TO.C,U329*%
X89025000Y-127850000D03*
D32*
X89500000Y-126900000D03*
X88550000Y-126900000D03*
X88550000Y-128800000D03*
X89500000Y-128800000D03*
%TD*%
D30*
%TO.C,U320*%
X81634264Y-128458578D03*
X80664264Y-128458578D03*
X79694264Y-128458578D03*
X78724264Y-128458578D03*
X78724264Y-127058578D03*
X79694264Y-127058578D03*
X80664264Y-127058578D03*
X81634264Y-127058578D03*
%TD*%
D11*
%TO.C,U312*%
X168700000Y-114700001D03*
X168700000Y-115500000D03*
D12*
X167850000Y-114450000D03*
X167850000Y-115100000D03*
X167850000Y-115750000D03*
X169550000Y-115750000D03*
X169550000Y-115100000D03*
X169550000Y-114450000D03*
%TD*%
D13*
%TO.C,IC21*%
X164700000Y-108600000D03*
X165500000Y-108600000D03*
X165500000Y-107000000D03*
X164700000Y-107000000D03*
D14*
X165100000Y-107800000D03*
%TD*%
D15*
%TO.C,U311*%
X169700000Y-122900000D03*
X169700000Y-122400000D03*
X169700000Y-121900000D03*
X166950000Y-121900000D03*
X166950000Y-122400000D03*
X166950000Y-122900000D03*
%TD*%
D16*
%TO.C,R84*%
X157700000Y-113274999D03*
X157700000Y-111624999D03*
%TD*%
D18*
%TO.C,R81*%
X161200000Y-111275000D03*
X161200000Y-112925000D03*
%TD*%
D17*
%TO.C,C63*%
X163750000Y-119300000D03*
X165300000Y-119300000D03*
%TD*%
D19*
%TO.C,U302*%
X159980000Y-115000000D03*
X159980000Y-115950000D03*
X159980000Y-116900000D03*
X162300000Y-116900000D03*
X162300000Y-115950000D03*
X162300000Y-115000000D03*
%TD*%
D20*
%TO.C,C64*%
X159150000Y-119300000D03*
X157600000Y-119300000D03*
%TD*%
D21*
%TO.C,R82*%
X160550000Y-119299998D03*
X162200000Y-119299998D03*
%TD*%
D22*
%TO.C,U307*%
X163599999Y-111450000D03*
X163600000Y-112100000D03*
X163599999Y-112750000D03*
X165400001Y-112750000D03*
X165400000Y-112100000D03*
X165400001Y-111450000D03*
%TD*%
D20*
%TO.C,C65*%
X159075000Y-122300000D03*
X157525000Y-122300000D03*
%TD*%
D23*
%TO.C,U304*%
X163100000Y-122549999D03*
D15*
X164275000Y-123300000D03*
X164275000Y-122799999D03*
X164275000Y-122299999D03*
X164275000Y-121799998D03*
X161925000Y-121799998D03*
X161925000Y-122299999D03*
X161925000Y-122799999D03*
X161925000Y-123300000D03*
%TD*%
D24*
%TO.C,U308*%
X169700000Y-119450000D03*
X169700000Y-118800000D03*
X169700000Y-118150000D03*
X167710000Y-118150000D03*
X167710000Y-118800000D03*
X167710000Y-119450000D03*
%TD*%
D16*
%TO.C,R83*%
X157700000Y-116325000D03*
X157700000Y-114675000D03*
%TD*%
D25*
%TO.C,U315*%
X168375000Y-111300000D03*
D26*
X168375000Y-111900000D03*
D27*
X169037500Y-111600001D03*
D28*
X169700000Y-111300000D03*
D29*
X169700000Y-111912500D03*
%TD*%
D31*
%TO.C,U314*%
X169025000Y-107850000D03*
D32*
X169500000Y-106900000D03*
X168550000Y-106900000D03*
X168550000Y-108800000D03*
X169500000Y-108800000D03*
%TD*%
D30*
%TO.C,U305*%
X161634264Y-108458578D03*
X160664264Y-108458578D03*
X159694264Y-108458578D03*
X158724264Y-108458578D03*
X158724264Y-107058578D03*
X159694264Y-107058578D03*
X160664264Y-107058578D03*
X161634264Y-107058578D03*
%TD*%
D11*
%TO.C,U297*%
X148700000Y-114700001D03*
X148700000Y-115500000D03*
D12*
X147850000Y-114450000D03*
X147850000Y-115100000D03*
X147850000Y-115750000D03*
X149550000Y-115750000D03*
X149550000Y-115100000D03*
X149550000Y-114450000D03*
%TD*%
D13*
%TO.C,IC20*%
X144700000Y-108600000D03*
X145500000Y-108600000D03*
X145500000Y-107000000D03*
X144700000Y-107000000D03*
D14*
X145100000Y-107800000D03*
%TD*%
D15*
%TO.C,U296*%
X149700000Y-122900000D03*
X149700000Y-122400000D03*
X149700000Y-121900000D03*
X146950000Y-121900000D03*
X146950000Y-122400000D03*
X146950000Y-122900000D03*
%TD*%
D16*
%TO.C,R80*%
X137700000Y-113274999D03*
X137700000Y-111624999D03*
%TD*%
D17*
%TO.C,C60*%
X143750000Y-119300000D03*
X145300000Y-119300000D03*
%TD*%
D18*
%TO.C,R77*%
X141200000Y-111275000D03*
X141200000Y-112925000D03*
%TD*%
D19*
%TO.C,U287*%
X139980000Y-115000000D03*
X139980000Y-115950000D03*
X139980000Y-116900000D03*
X142300000Y-116900000D03*
X142300000Y-115950000D03*
X142300000Y-115000000D03*
%TD*%
D20*
%TO.C,C61*%
X139150000Y-119300000D03*
X137600000Y-119300000D03*
%TD*%
D21*
%TO.C,R78*%
X140550000Y-119299998D03*
X142200000Y-119299998D03*
%TD*%
D22*
%TO.C,U292*%
X143599999Y-111450000D03*
X143600000Y-112100000D03*
X143599999Y-112750000D03*
X145400001Y-112750000D03*
X145400000Y-112100000D03*
X145400001Y-111450000D03*
%TD*%
D20*
%TO.C,C62*%
X139075000Y-122300000D03*
X137525000Y-122300000D03*
%TD*%
D23*
%TO.C,U289*%
X143100000Y-122549999D03*
D15*
X144275000Y-123300000D03*
X144275000Y-122799999D03*
X144275000Y-122299999D03*
X144275000Y-121799998D03*
X141925000Y-121799998D03*
X141925000Y-122299999D03*
X141925000Y-122799999D03*
X141925000Y-123300000D03*
%TD*%
D24*
%TO.C,U293*%
X149700000Y-119450000D03*
X149700000Y-118800000D03*
X149700000Y-118150000D03*
X147710000Y-118150000D03*
X147710000Y-118800000D03*
X147710000Y-119450000D03*
%TD*%
D16*
%TO.C,R79*%
X137700000Y-116325000D03*
X137700000Y-114675000D03*
%TD*%
D25*
%TO.C,U300*%
X148375000Y-111300000D03*
D26*
X148375000Y-111900000D03*
D27*
X149037500Y-111600001D03*
D28*
X149700000Y-111300000D03*
D29*
X149700000Y-111912500D03*
%TD*%
D31*
%TO.C,U299*%
X149025000Y-107850000D03*
D32*
X149500000Y-106900000D03*
X148550000Y-106900000D03*
X148550000Y-108800000D03*
X149500000Y-108800000D03*
%TD*%
D30*
%TO.C,U290*%
X141634264Y-108458578D03*
X140664264Y-108458578D03*
X139694264Y-108458578D03*
X138724264Y-108458578D03*
X138724264Y-107058578D03*
X139694264Y-107058578D03*
X140664264Y-107058578D03*
X141634264Y-107058578D03*
%TD*%
D11*
%TO.C,U282*%
X128700000Y-114700001D03*
X128700000Y-115500000D03*
D12*
X127850000Y-114450000D03*
X127850000Y-115100000D03*
X127850000Y-115750000D03*
X129550000Y-115750000D03*
X129550000Y-115100000D03*
X129550000Y-114450000D03*
%TD*%
D13*
%TO.C,IC19*%
X124700000Y-108600000D03*
X125500000Y-108600000D03*
X125500000Y-107000000D03*
X124700000Y-107000000D03*
D14*
X125100000Y-107800000D03*
%TD*%
D15*
%TO.C,U281*%
X129700000Y-122900000D03*
X129700000Y-122400000D03*
X129700000Y-121900000D03*
X126950000Y-121900000D03*
X126950000Y-122400000D03*
X126950000Y-122900000D03*
%TD*%
D16*
%TO.C,R76*%
X117700000Y-113274999D03*
X117700000Y-111624999D03*
%TD*%
D17*
%TO.C,C57*%
X123750000Y-119300000D03*
X125300000Y-119300000D03*
%TD*%
D18*
%TO.C,R73*%
X121200000Y-111275000D03*
X121200000Y-112925000D03*
%TD*%
D19*
%TO.C,U272*%
X119980000Y-115000000D03*
X119980000Y-115950000D03*
X119980000Y-116900000D03*
X122300000Y-116900000D03*
X122300000Y-115950000D03*
X122300000Y-115000000D03*
%TD*%
D20*
%TO.C,C58*%
X119150000Y-119300000D03*
X117600000Y-119300000D03*
%TD*%
D21*
%TO.C,R74*%
X120550000Y-119299998D03*
X122200000Y-119299998D03*
%TD*%
D22*
%TO.C,U277*%
X123599999Y-111450000D03*
X123600000Y-112100000D03*
X123599999Y-112750000D03*
X125400001Y-112750000D03*
X125400000Y-112100000D03*
X125400001Y-111450000D03*
%TD*%
D20*
%TO.C,C59*%
X119075000Y-122300000D03*
X117525000Y-122300000D03*
%TD*%
D23*
%TO.C,U274*%
X123100000Y-122549999D03*
D15*
X124275000Y-123300000D03*
X124275000Y-122799999D03*
X124275000Y-122299999D03*
X124275000Y-121799998D03*
X121925000Y-121799998D03*
X121925000Y-122299999D03*
X121925000Y-122799999D03*
X121925000Y-123300000D03*
%TD*%
D24*
%TO.C,U278*%
X129700000Y-119450000D03*
X129700000Y-118800000D03*
X129700000Y-118150000D03*
X127710000Y-118150000D03*
X127710000Y-118800000D03*
X127710000Y-119450000D03*
%TD*%
D16*
%TO.C,R75*%
X117700000Y-116325000D03*
X117700000Y-114675000D03*
%TD*%
D25*
%TO.C,U285*%
X128375000Y-111300000D03*
D26*
X128375000Y-111900000D03*
D27*
X129037500Y-111600001D03*
D28*
X129700000Y-111300000D03*
D29*
X129700000Y-111912500D03*
%TD*%
D31*
%TO.C,U284*%
X129025000Y-107850000D03*
D32*
X129500000Y-106900000D03*
X128550000Y-106900000D03*
X128550000Y-108800000D03*
X129500000Y-108800000D03*
%TD*%
D30*
%TO.C,U275*%
X121634264Y-108458578D03*
X120664264Y-108458578D03*
X119694264Y-108458578D03*
X118724264Y-108458578D03*
X118724264Y-107058578D03*
X119694264Y-107058578D03*
X120664264Y-107058578D03*
X121634264Y-107058578D03*
%TD*%
D11*
%TO.C,U267*%
X108700000Y-114700001D03*
X108700000Y-115500000D03*
D12*
X107850000Y-114450000D03*
X107850000Y-115100000D03*
X107850000Y-115750000D03*
X109550000Y-115750000D03*
X109550000Y-115100000D03*
X109550000Y-114450000D03*
%TD*%
D13*
%TO.C,IC18*%
X104700000Y-108600000D03*
X105500000Y-108600000D03*
X105500000Y-107000000D03*
X104700000Y-107000000D03*
D14*
X105100000Y-107800000D03*
%TD*%
D15*
%TO.C,U266*%
X109700000Y-122900000D03*
X109700000Y-122400000D03*
X109700000Y-121900000D03*
X106950000Y-121900000D03*
X106950000Y-122400000D03*
X106950000Y-122900000D03*
%TD*%
D16*
%TO.C,R72*%
X97700000Y-113274999D03*
X97700000Y-111624999D03*
%TD*%
D17*
%TO.C,C54*%
X103750000Y-119300000D03*
X105300000Y-119300000D03*
%TD*%
D18*
%TO.C,R69*%
X101200000Y-111275000D03*
X101200000Y-112925000D03*
%TD*%
D19*
%TO.C,U257*%
X99980000Y-115000000D03*
X99980000Y-115950000D03*
X99980000Y-116900000D03*
X102300000Y-116900000D03*
X102300000Y-115950000D03*
X102300000Y-115000000D03*
%TD*%
D20*
%TO.C,C55*%
X99150000Y-119300000D03*
X97600000Y-119300000D03*
%TD*%
D21*
%TO.C,R70*%
X100550000Y-119299998D03*
X102200000Y-119299998D03*
%TD*%
D22*
%TO.C,U262*%
X103599999Y-111450000D03*
X103600000Y-112100000D03*
X103599999Y-112750000D03*
X105400001Y-112750000D03*
X105400000Y-112100000D03*
X105400001Y-111450000D03*
%TD*%
D20*
%TO.C,C56*%
X99075000Y-122300000D03*
X97525000Y-122300000D03*
%TD*%
D23*
%TO.C,U259*%
X103100000Y-122549999D03*
D15*
X104275000Y-123300000D03*
X104275000Y-122799999D03*
X104275000Y-122299999D03*
X104275000Y-121799998D03*
X101925000Y-121799998D03*
X101925000Y-122299999D03*
X101925000Y-122799999D03*
X101925000Y-123300000D03*
%TD*%
D24*
%TO.C,U263*%
X109700000Y-119450000D03*
X109700000Y-118800000D03*
X109700000Y-118150000D03*
X107710000Y-118150000D03*
X107710000Y-118800000D03*
X107710000Y-119450000D03*
%TD*%
D16*
%TO.C,R71*%
X97700000Y-116325000D03*
X97700000Y-114675000D03*
%TD*%
D25*
%TO.C,U270*%
X108375000Y-111300000D03*
D26*
X108375000Y-111900000D03*
D27*
X109037500Y-111600001D03*
D28*
X109700000Y-111300000D03*
D29*
X109700000Y-111912500D03*
%TD*%
D31*
%TO.C,U269*%
X109025000Y-107850000D03*
D32*
X109500000Y-106900000D03*
X108550000Y-106900000D03*
X108550000Y-108800000D03*
X109500000Y-108800000D03*
%TD*%
D30*
%TO.C,U260*%
X101634264Y-108458578D03*
X100664264Y-108458578D03*
X99694264Y-108458578D03*
X98724264Y-108458578D03*
X98724264Y-107058578D03*
X99694264Y-107058578D03*
X100664264Y-107058578D03*
X101634264Y-107058578D03*
%TD*%
D11*
%TO.C,U252*%
X88700000Y-114700001D03*
X88700000Y-115500000D03*
D12*
X87850000Y-114450000D03*
X87850000Y-115100000D03*
X87850000Y-115750000D03*
X89550000Y-115750000D03*
X89550000Y-115100000D03*
X89550000Y-114450000D03*
%TD*%
D13*
%TO.C,IC17*%
X84700000Y-108600000D03*
X85500000Y-108600000D03*
X85500000Y-107000000D03*
X84700000Y-107000000D03*
D14*
X85100000Y-107800000D03*
%TD*%
D15*
%TO.C,U251*%
X89700000Y-122900000D03*
X89700000Y-122400000D03*
X89700000Y-121900000D03*
X86950000Y-121900000D03*
X86950000Y-122400000D03*
X86950000Y-122900000D03*
%TD*%
D16*
%TO.C,R68*%
X77700000Y-113274999D03*
X77700000Y-111624999D03*
%TD*%
D17*
%TO.C,C51*%
X83750000Y-119300000D03*
X85300000Y-119300000D03*
%TD*%
D18*
%TO.C,R65*%
X81200000Y-111275000D03*
X81200000Y-112925000D03*
%TD*%
D20*
%TO.C,C52*%
X79150000Y-119300000D03*
X77600000Y-119300000D03*
%TD*%
D21*
%TO.C,R66*%
X80550000Y-119299998D03*
X82200000Y-119299998D03*
%TD*%
D22*
%TO.C,U247*%
X83599999Y-111450000D03*
X83600000Y-112100000D03*
X83599999Y-112750000D03*
X85400001Y-112750000D03*
X85400000Y-112100000D03*
X85400001Y-111450000D03*
%TD*%
D20*
%TO.C,C53*%
X79075000Y-122300000D03*
X77525000Y-122300000D03*
%TD*%
D23*
%TO.C,U244*%
X83100000Y-122549999D03*
D15*
X84275000Y-123300000D03*
X84275000Y-122799999D03*
X84275000Y-122299999D03*
X84275000Y-121799998D03*
X81925000Y-121799998D03*
X81925000Y-122299999D03*
X81925000Y-122799999D03*
X81925000Y-123300000D03*
%TD*%
D24*
%TO.C,U248*%
X89700000Y-119450000D03*
X89700000Y-118800000D03*
X89700000Y-118150000D03*
X87710000Y-118150000D03*
X87710000Y-118800000D03*
X87710000Y-119450000D03*
%TD*%
D16*
%TO.C,R67*%
X77700000Y-116325000D03*
X77700000Y-114675000D03*
%TD*%
D19*
%TO.C,U242*%
X79980000Y-115000000D03*
X79980000Y-115950000D03*
X79980000Y-116900000D03*
X82300000Y-116900000D03*
X82300000Y-115950000D03*
X82300000Y-115000000D03*
%TD*%
D25*
%TO.C,U255*%
X88375000Y-111300000D03*
D26*
X88375000Y-111900000D03*
D27*
X89037500Y-111600001D03*
D28*
X89700000Y-111300000D03*
D29*
X89700000Y-111912500D03*
%TD*%
D31*
%TO.C,U254*%
X89025000Y-107850000D03*
D32*
X89500000Y-106900000D03*
X88550000Y-106900000D03*
X88550000Y-108800000D03*
X89500000Y-108800000D03*
%TD*%
D30*
%TO.C,U245*%
X81634264Y-108458578D03*
X80664264Y-108458578D03*
X79694264Y-108458578D03*
X78724264Y-108458578D03*
X78724264Y-107058578D03*
X79694264Y-107058578D03*
X80664264Y-107058578D03*
X81634264Y-107058578D03*
%TD*%
D11*
%TO.C,U237*%
X168700000Y-94700001D03*
X168700000Y-95500000D03*
D12*
X167850000Y-94450000D03*
X167850000Y-95100000D03*
X167850000Y-95750000D03*
X169550000Y-95750000D03*
X169550000Y-95100000D03*
X169550000Y-94450000D03*
%TD*%
D13*
%TO.C,IC16*%
X164700000Y-88600000D03*
X165500000Y-88600000D03*
X165500000Y-87000000D03*
X164700000Y-87000000D03*
D14*
X165100000Y-87800000D03*
%TD*%
D15*
%TO.C,U236*%
X169700000Y-102900000D03*
X169700000Y-102400000D03*
X169700000Y-101900000D03*
X166950000Y-101900000D03*
X166950000Y-102400000D03*
X166950000Y-102900000D03*
%TD*%
D16*
%TO.C,R64*%
X157700000Y-93274999D03*
X157700000Y-91624999D03*
%TD*%
D17*
%TO.C,C48*%
X163750000Y-99300000D03*
X165300000Y-99300000D03*
%TD*%
D18*
%TO.C,R61*%
X161200000Y-91275000D03*
X161200000Y-92925000D03*
%TD*%
D19*
%TO.C,U227*%
X159980000Y-95000000D03*
X159980000Y-95950000D03*
X159980000Y-96900000D03*
X162300000Y-96900000D03*
X162300000Y-95950000D03*
X162300000Y-95000000D03*
%TD*%
D20*
%TO.C,C49*%
X159150000Y-99300000D03*
X157600000Y-99300000D03*
%TD*%
D21*
%TO.C,R62*%
X160550000Y-99299998D03*
X162200000Y-99299998D03*
%TD*%
D22*
%TO.C,U232*%
X163599999Y-91450000D03*
X163600000Y-92100000D03*
X163599999Y-92750000D03*
X165400001Y-92750000D03*
X165400000Y-92100000D03*
X165400001Y-91450000D03*
%TD*%
D20*
%TO.C,C50*%
X159075000Y-102300000D03*
X157525000Y-102300000D03*
%TD*%
D23*
%TO.C,U229*%
X163100000Y-102549999D03*
D15*
X164275000Y-103300000D03*
X164275000Y-102799999D03*
X164275000Y-102299999D03*
X164275000Y-101799998D03*
X161925000Y-101799998D03*
X161925000Y-102299999D03*
X161925000Y-102799999D03*
X161925000Y-103300000D03*
%TD*%
D24*
%TO.C,U233*%
X169700000Y-99450000D03*
X169700000Y-98800000D03*
X169700000Y-98150000D03*
X167710000Y-98150000D03*
X167710000Y-98800000D03*
X167710000Y-99450000D03*
%TD*%
D16*
%TO.C,R63*%
X157700000Y-96325000D03*
X157700000Y-94675000D03*
%TD*%
D25*
%TO.C,U240*%
X168375000Y-91300000D03*
D26*
X168375000Y-91900000D03*
D27*
X169037500Y-91600001D03*
D28*
X169700000Y-91300000D03*
D29*
X169700000Y-91912500D03*
%TD*%
D31*
%TO.C,U239*%
X169025000Y-87850000D03*
D32*
X169500000Y-86900000D03*
X168550000Y-86900000D03*
X168550000Y-88800000D03*
X169500000Y-88800000D03*
%TD*%
D30*
%TO.C,U230*%
X161634264Y-88458578D03*
X160664264Y-88458578D03*
X159694264Y-88458578D03*
X158724264Y-88458578D03*
X158724264Y-87058578D03*
X159694264Y-87058578D03*
X160664264Y-87058578D03*
X161634264Y-87058578D03*
%TD*%
D11*
%TO.C,U222*%
X148700000Y-94700001D03*
X148700000Y-95500000D03*
D12*
X147850000Y-94450000D03*
X147850000Y-95100000D03*
X147850000Y-95750000D03*
X149550000Y-95750000D03*
X149550000Y-95100000D03*
X149550000Y-94450000D03*
%TD*%
D13*
%TO.C,IC15*%
X144700000Y-88600000D03*
X145500000Y-88600000D03*
X145500000Y-87000000D03*
X144700000Y-87000000D03*
D14*
X145100000Y-87800000D03*
%TD*%
D15*
%TO.C,U221*%
X149700000Y-102900000D03*
X149700000Y-102400000D03*
X149700000Y-101900000D03*
X146950000Y-101900000D03*
X146950000Y-102400000D03*
X146950000Y-102900000D03*
%TD*%
D16*
%TO.C,R60*%
X137700000Y-93274999D03*
X137700000Y-91624999D03*
%TD*%
D17*
%TO.C,C45*%
X143750000Y-99300000D03*
X145300000Y-99300000D03*
%TD*%
D18*
%TO.C,R57*%
X141200000Y-91275000D03*
X141200000Y-92925000D03*
%TD*%
D19*
%TO.C,U212*%
X139980000Y-95000000D03*
X139980000Y-95950000D03*
X139980000Y-96900000D03*
X142300000Y-96900000D03*
X142300000Y-95950000D03*
X142300000Y-95000000D03*
%TD*%
D20*
%TO.C,C46*%
X139150000Y-99300000D03*
X137600000Y-99300000D03*
%TD*%
D21*
%TO.C,R58*%
X140550000Y-99299998D03*
X142200000Y-99299998D03*
%TD*%
D22*
%TO.C,U217*%
X143599999Y-91450000D03*
X143600000Y-92100000D03*
X143599999Y-92750000D03*
X145400001Y-92750000D03*
X145400000Y-92100000D03*
X145400001Y-91450000D03*
%TD*%
D20*
%TO.C,C47*%
X139075000Y-102300000D03*
X137525000Y-102300000D03*
%TD*%
D23*
%TO.C,U214*%
X143100000Y-102549999D03*
D15*
X144275000Y-103300000D03*
X144275000Y-102799999D03*
X144275000Y-102299999D03*
X144275000Y-101799998D03*
X141925000Y-101799998D03*
X141925000Y-102299999D03*
X141925000Y-102799999D03*
X141925000Y-103300000D03*
%TD*%
D24*
%TO.C,U218*%
X149700000Y-99450000D03*
X149700000Y-98800000D03*
X149700000Y-98150000D03*
X147710000Y-98150000D03*
X147710000Y-98800000D03*
X147710000Y-99450000D03*
%TD*%
D16*
%TO.C,R59*%
X137700000Y-96325000D03*
X137700000Y-94675000D03*
%TD*%
D25*
%TO.C,U225*%
X148375000Y-91300000D03*
D26*
X148375000Y-91900000D03*
D27*
X149037500Y-91600001D03*
D28*
X149700000Y-91300000D03*
D29*
X149700000Y-91912500D03*
%TD*%
D31*
%TO.C,U224*%
X149025000Y-87850000D03*
D32*
X149500000Y-86900000D03*
X148550000Y-86900000D03*
X148550000Y-88800000D03*
X149500000Y-88800000D03*
%TD*%
D30*
%TO.C,U215*%
X141634264Y-88458578D03*
X140664264Y-88458578D03*
X139694264Y-88458578D03*
X138724264Y-88458578D03*
X138724264Y-87058578D03*
X139694264Y-87058578D03*
X140664264Y-87058578D03*
X141634264Y-87058578D03*
%TD*%
D11*
%TO.C,U207*%
X128700000Y-94700001D03*
X128700000Y-95500000D03*
D12*
X127850000Y-94450000D03*
X127850000Y-95100000D03*
X127850000Y-95750000D03*
X129550000Y-95750000D03*
X129550000Y-95100000D03*
X129550000Y-94450000D03*
%TD*%
D13*
%TO.C,IC14*%
X124700000Y-88600000D03*
X125500000Y-88600000D03*
X125500000Y-87000000D03*
X124700000Y-87000000D03*
D14*
X125100000Y-87800000D03*
%TD*%
D15*
%TO.C,U206*%
X129700000Y-102900000D03*
X129700000Y-102400000D03*
X129700000Y-101900000D03*
X126950000Y-101900000D03*
X126950000Y-102400000D03*
X126950000Y-102900000D03*
%TD*%
D16*
%TO.C,R56*%
X117700000Y-93274999D03*
X117700000Y-91624999D03*
%TD*%
D17*
%TO.C,C42*%
X123750000Y-99300000D03*
X125300000Y-99300000D03*
%TD*%
D18*
%TO.C,R53*%
X121200000Y-91275000D03*
X121200000Y-92925000D03*
%TD*%
D20*
%TO.C,C43*%
X119150000Y-99300000D03*
X117600000Y-99300000D03*
%TD*%
D21*
%TO.C,R54*%
X120550000Y-99299998D03*
X122200000Y-99299998D03*
%TD*%
D19*
%TO.C,U197*%
X119980000Y-95000000D03*
X119980000Y-95950000D03*
X119980000Y-96900000D03*
X122300000Y-96900000D03*
X122300000Y-95950000D03*
X122300000Y-95000000D03*
%TD*%
D22*
%TO.C,U202*%
X123599999Y-91450000D03*
X123600000Y-92100000D03*
X123599999Y-92750000D03*
X125400001Y-92750000D03*
X125400000Y-92100000D03*
X125400001Y-91450000D03*
%TD*%
D20*
%TO.C,C44*%
X119075000Y-102300000D03*
X117525000Y-102300000D03*
%TD*%
D23*
%TO.C,U199*%
X123100000Y-102549999D03*
D15*
X124275000Y-103300000D03*
X124275000Y-102799999D03*
X124275000Y-102299999D03*
X124275000Y-101799998D03*
X121925000Y-101799998D03*
X121925000Y-102299999D03*
X121925000Y-102799999D03*
X121925000Y-103300000D03*
%TD*%
D24*
%TO.C,U203*%
X129700000Y-99450000D03*
X129700000Y-98800000D03*
X129700000Y-98150000D03*
X127710000Y-98150000D03*
X127710000Y-98800000D03*
X127710000Y-99450000D03*
%TD*%
D16*
%TO.C,R55*%
X117700000Y-96325000D03*
X117700000Y-94675000D03*
%TD*%
D25*
%TO.C,U210*%
X128375000Y-91300000D03*
D26*
X128375000Y-91900000D03*
D27*
X129037500Y-91600001D03*
D28*
X129700000Y-91300000D03*
D29*
X129700000Y-91912500D03*
%TD*%
D31*
%TO.C,U209*%
X129025000Y-87850000D03*
D32*
X129500000Y-86900000D03*
X128550000Y-86900000D03*
X128550000Y-88800000D03*
X129500000Y-88800000D03*
%TD*%
D30*
%TO.C,U200*%
X121634264Y-88458578D03*
X120664264Y-88458578D03*
X119694264Y-88458578D03*
X118724264Y-88458578D03*
X118724264Y-87058578D03*
X119694264Y-87058578D03*
X120664264Y-87058578D03*
X121634264Y-87058578D03*
%TD*%
D11*
%TO.C,U192*%
X108700000Y-94700001D03*
X108700000Y-95500000D03*
D12*
X107850000Y-94450000D03*
X107850000Y-95100000D03*
X107850000Y-95750000D03*
X109550000Y-95750000D03*
X109550000Y-95100000D03*
X109550000Y-94450000D03*
%TD*%
D13*
%TO.C,IC13*%
X104700000Y-88600000D03*
X105500000Y-88600000D03*
X105500000Y-87000000D03*
X104700000Y-87000000D03*
D14*
X105100000Y-87800000D03*
%TD*%
D16*
%TO.C,R52*%
X97700000Y-93274999D03*
X97700000Y-91624999D03*
%TD*%
D17*
%TO.C,C39*%
X103750000Y-99300000D03*
X105300000Y-99300000D03*
%TD*%
D18*
%TO.C,R49*%
X101200000Y-91275000D03*
X101200000Y-92925000D03*
%TD*%
D19*
%TO.C,U182*%
X99980000Y-95000000D03*
X99980000Y-95950000D03*
X99980000Y-96900000D03*
X102300000Y-96900000D03*
X102300000Y-95950000D03*
X102300000Y-95000000D03*
%TD*%
D20*
%TO.C,C40*%
X99150000Y-99300000D03*
X97600000Y-99300000D03*
%TD*%
D15*
%TO.C,U191*%
X109700000Y-102900000D03*
X109700000Y-102400000D03*
X109700000Y-101900000D03*
X106950000Y-101900000D03*
X106950000Y-102400000D03*
X106950000Y-102900000D03*
%TD*%
D21*
%TO.C,R50*%
X100550000Y-99299998D03*
X102200000Y-99299998D03*
%TD*%
D22*
%TO.C,U187*%
X103599999Y-91450000D03*
X103600000Y-92100000D03*
X103599999Y-92750000D03*
X105400001Y-92750000D03*
X105400000Y-92100000D03*
X105400001Y-91450000D03*
%TD*%
D20*
%TO.C,C41*%
X99075000Y-102300000D03*
X97525000Y-102300000D03*
%TD*%
D23*
%TO.C,U184*%
X103100000Y-102549999D03*
D15*
X104275000Y-103300000D03*
X104275000Y-102799999D03*
X104275000Y-102299999D03*
X104275000Y-101799998D03*
X101925000Y-101799998D03*
X101925000Y-102299999D03*
X101925000Y-102799999D03*
X101925000Y-103300000D03*
%TD*%
D24*
%TO.C,U188*%
X109700000Y-99450000D03*
X109700000Y-98800000D03*
X109700000Y-98150000D03*
X107710000Y-98150000D03*
X107710000Y-98800000D03*
X107710000Y-99450000D03*
%TD*%
D16*
%TO.C,R51*%
X97700000Y-96325000D03*
X97700000Y-94675000D03*
%TD*%
D25*
%TO.C,U195*%
X108375000Y-91300000D03*
D26*
X108375000Y-91900000D03*
D27*
X109037500Y-91600001D03*
D28*
X109700000Y-91300000D03*
D29*
X109700000Y-91912500D03*
%TD*%
D31*
%TO.C,U194*%
X109025000Y-87850000D03*
D32*
X109500000Y-86900000D03*
X108550000Y-86900000D03*
X108550000Y-88800000D03*
X109500000Y-88800000D03*
%TD*%
D30*
%TO.C,U185*%
X101634264Y-88458578D03*
X100664264Y-88458578D03*
X99694264Y-88458578D03*
X98724264Y-88458578D03*
X98724264Y-87058578D03*
X99694264Y-87058578D03*
X100664264Y-87058578D03*
X101634264Y-87058578D03*
%TD*%
D11*
%TO.C,U177*%
X88700000Y-94700001D03*
X88700000Y-95500000D03*
D12*
X87850000Y-94450000D03*
X87850000Y-95100000D03*
X87850000Y-95750000D03*
X89550000Y-95750000D03*
X89550000Y-95100000D03*
X89550000Y-94450000D03*
%TD*%
D13*
%TO.C,IC12*%
X84700000Y-88600000D03*
X85500000Y-88600000D03*
X85500000Y-87000000D03*
X84700000Y-87000000D03*
D14*
X85100000Y-87800000D03*
%TD*%
D15*
%TO.C,U176*%
X89700000Y-102900000D03*
X89700000Y-102400000D03*
X89700000Y-101900000D03*
X86950000Y-101900000D03*
X86950000Y-102400000D03*
X86950000Y-102900000D03*
%TD*%
D16*
%TO.C,R48*%
X77700000Y-93274999D03*
X77700000Y-91624999D03*
%TD*%
D17*
%TO.C,C36*%
X83750000Y-99300000D03*
X85300000Y-99300000D03*
%TD*%
D18*
%TO.C,R45*%
X81200000Y-91275000D03*
X81200000Y-92925000D03*
%TD*%
D19*
%TO.C,U167*%
X79980000Y-95000000D03*
X79980000Y-95950000D03*
X79980000Y-96900000D03*
X82300000Y-96900000D03*
X82300000Y-95950000D03*
X82300000Y-95000000D03*
%TD*%
D20*
%TO.C,C37*%
X79150000Y-99300000D03*
X77600000Y-99300000D03*
%TD*%
D21*
%TO.C,R46*%
X80550000Y-99299998D03*
X82200000Y-99299998D03*
%TD*%
D22*
%TO.C,U172*%
X83599999Y-91450000D03*
X83600000Y-92100000D03*
X83599999Y-92750000D03*
X85400001Y-92750000D03*
X85400000Y-92100000D03*
X85400001Y-91450000D03*
%TD*%
D20*
%TO.C,C38*%
X79075000Y-102300000D03*
X77525000Y-102300000D03*
%TD*%
D23*
%TO.C,U169*%
X83100000Y-102549999D03*
D15*
X84275000Y-103300000D03*
X84275000Y-102799999D03*
X84275000Y-102299999D03*
X84275000Y-101799998D03*
X81925000Y-101799998D03*
X81925000Y-102299999D03*
X81925000Y-102799999D03*
X81925000Y-103300000D03*
%TD*%
D24*
%TO.C,U173*%
X89700000Y-99450000D03*
X89700000Y-98800000D03*
X89700000Y-98150000D03*
X87710000Y-98150000D03*
X87710000Y-98800000D03*
X87710000Y-99450000D03*
%TD*%
D16*
%TO.C,R47*%
X77700000Y-96325000D03*
X77700000Y-94675000D03*
%TD*%
D25*
%TO.C,U180*%
X88375000Y-91300000D03*
D26*
X88375000Y-91900000D03*
D27*
X89037500Y-91600001D03*
D28*
X89700000Y-91300000D03*
D29*
X89700000Y-91912500D03*
%TD*%
D31*
%TO.C,U179*%
X89025000Y-87850000D03*
D32*
X89500000Y-86900000D03*
X88550000Y-86900000D03*
X88550000Y-88800000D03*
X89500000Y-88800000D03*
%TD*%
D30*
%TO.C,U170*%
X81634264Y-88458578D03*
X80664264Y-88458578D03*
X79694264Y-88458578D03*
X78724264Y-88458578D03*
X78724264Y-87058578D03*
X79694264Y-87058578D03*
X80664264Y-87058578D03*
X81634264Y-87058578D03*
%TD*%
D11*
%TO.C,U162*%
X168700000Y-74700001D03*
X168700000Y-75500000D03*
D12*
X167850000Y-74450000D03*
X167850000Y-75100000D03*
X167850000Y-75750000D03*
X169550000Y-75750000D03*
X169550000Y-75100000D03*
X169550000Y-74450000D03*
%TD*%
D13*
%TO.C,IC11*%
X164700000Y-68600000D03*
X165500000Y-68600000D03*
X165500000Y-67000000D03*
X164700000Y-67000000D03*
D14*
X165100000Y-67800000D03*
%TD*%
D15*
%TO.C,U161*%
X169700000Y-82900000D03*
X169700000Y-82400000D03*
X169700000Y-81900000D03*
X166950000Y-81900000D03*
X166950000Y-82400000D03*
X166950000Y-82900000D03*
%TD*%
D16*
%TO.C,R44*%
X157700000Y-73274999D03*
X157700000Y-71624999D03*
%TD*%
D18*
%TO.C,R41*%
X161200000Y-71275000D03*
X161200000Y-72925000D03*
%TD*%
D19*
%TO.C,U152*%
X159980000Y-75000000D03*
X159980000Y-75950000D03*
X159980000Y-76900000D03*
X162300000Y-76900000D03*
X162300000Y-75950000D03*
X162300000Y-75000000D03*
%TD*%
D20*
%TO.C,C34*%
X159150000Y-79300000D03*
X157600000Y-79300000D03*
%TD*%
D21*
%TO.C,R42*%
X160550000Y-79299998D03*
X162200000Y-79299998D03*
%TD*%
D17*
%TO.C,C33*%
X163750000Y-79300000D03*
X165300000Y-79300000D03*
%TD*%
D22*
%TO.C,U157*%
X163599999Y-71450000D03*
X163600000Y-72100000D03*
X163599999Y-72750000D03*
X165400001Y-72750000D03*
X165400000Y-72100000D03*
X165400001Y-71450000D03*
%TD*%
D20*
%TO.C,C35*%
X159075000Y-82300000D03*
X157525000Y-82300000D03*
%TD*%
D23*
%TO.C,U154*%
X163100000Y-82549999D03*
D15*
X164275000Y-83300000D03*
X164275000Y-82799999D03*
X164275000Y-82299999D03*
X164275000Y-81799998D03*
X161925000Y-81799998D03*
X161925000Y-82299999D03*
X161925000Y-82799999D03*
X161925000Y-83300000D03*
%TD*%
D24*
%TO.C,U158*%
X169700000Y-79450000D03*
X169700000Y-78800000D03*
X169700000Y-78150000D03*
X167710000Y-78150000D03*
X167710000Y-78800000D03*
X167710000Y-79450000D03*
%TD*%
D16*
%TO.C,R43*%
X157700000Y-76325000D03*
X157700000Y-74675000D03*
%TD*%
D25*
%TO.C,U165*%
X168375000Y-71300000D03*
D26*
X168375000Y-71900000D03*
D27*
X169037500Y-71600001D03*
D28*
X169700000Y-71300000D03*
D29*
X169700000Y-71912500D03*
%TD*%
D31*
%TO.C,U164*%
X169025000Y-67850000D03*
D32*
X169500000Y-66900000D03*
X168550000Y-66900000D03*
X168550000Y-68800000D03*
X169500000Y-68800000D03*
%TD*%
D30*
%TO.C,U155*%
X161634264Y-68458578D03*
X160664264Y-68458578D03*
X159694264Y-68458578D03*
X158724264Y-68458578D03*
X158724264Y-67058578D03*
X159694264Y-67058578D03*
X160664264Y-67058578D03*
X161634264Y-67058578D03*
%TD*%
D11*
%TO.C,U147*%
X148700000Y-74700001D03*
X148700000Y-75500000D03*
D12*
X147850000Y-74450000D03*
X147850000Y-75100000D03*
X147850000Y-75750000D03*
X149550000Y-75750000D03*
X149550000Y-75100000D03*
X149550000Y-74450000D03*
%TD*%
D13*
%TO.C,IC10*%
X144700000Y-68600000D03*
X145500000Y-68600000D03*
X145500000Y-67000000D03*
X144700000Y-67000000D03*
D14*
X145100000Y-67800000D03*
%TD*%
D15*
%TO.C,U146*%
X149700000Y-82900000D03*
X149700000Y-82400000D03*
X149700000Y-81900000D03*
X146950000Y-81900000D03*
X146950000Y-82400000D03*
X146950000Y-82900000D03*
%TD*%
D16*
%TO.C,R40*%
X137700000Y-73274999D03*
X137700000Y-71624999D03*
%TD*%
D18*
%TO.C,R37*%
X141200000Y-71275000D03*
X141200000Y-72925000D03*
%TD*%
D19*
%TO.C,U137*%
X139980000Y-75000000D03*
X139980000Y-75950000D03*
X139980000Y-76900000D03*
X142300000Y-76900000D03*
X142300000Y-75950000D03*
X142300000Y-75000000D03*
%TD*%
D20*
%TO.C,C31*%
X139150000Y-79300000D03*
X137600000Y-79300000D03*
%TD*%
D21*
%TO.C,R38*%
X140550000Y-79299998D03*
X142200000Y-79299998D03*
%TD*%
D22*
%TO.C,U142*%
X143599999Y-71450000D03*
X143600000Y-72100000D03*
X143599999Y-72750000D03*
X145400001Y-72750000D03*
X145400000Y-72100000D03*
X145400001Y-71450000D03*
%TD*%
D20*
%TO.C,C32*%
X139075000Y-82300000D03*
X137525000Y-82300000D03*
%TD*%
D23*
%TO.C,U139*%
X143100000Y-82549999D03*
D15*
X144275000Y-83300000D03*
X144275000Y-82799999D03*
X144275000Y-82299999D03*
X144275000Y-81799998D03*
X141925000Y-81799998D03*
X141925000Y-82299999D03*
X141925000Y-82799999D03*
X141925000Y-83300000D03*
%TD*%
D24*
%TO.C,U143*%
X149700000Y-79450000D03*
X149700000Y-78800000D03*
X149700000Y-78150000D03*
X147710000Y-78150000D03*
X147710000Y-78800000D03*
X147710000Y-79450000D03*
%TD*%
D16*
%TO.C,R39*%
X137700000Y-76325000D03*
X137700000Y-74675000D03*
%TD*%
D25*
%TO.C,U150*%
X148375000Y-71300000D03*
D26*
X148375000Y-71900000D03*
D27*
X149037500Y-71600001D03*
D28*
X149700000Y-71300000D03*
D29*
X149700000Y-71912500D03*
%TD*%
D17*
%TO.C,C30*%
X143750000Y-79300000D03*
X145300000Y-79300000D03*
%TD*%
D31*
%TO.C,U149*%
X149025000Y-67850000D03*
D32*
X149500000Y-66900000D03*
X148550000Y-66900000D03*
X148550000Y-68800000D03*
X149500000Y-68800000D03*
%TD*%
D30*
%TO.C,U140*%
X141634264Y-68458578D03*
X140664264Y-68458578D03*
X139694264Y-68458578D03*
X138724264Y-68458578D03*
X138724264Y-67058578D03*
X139694264Y-67058578D03*
X140664264Y-67058578D03*
X141634264Y-67058578D03*
%TD*%
D13*
%TO.C,IC9*%
X124700000Y-68600000D03*
X125500000Y-68600000D03*
X125500000Y-67000000D03*
X124700000Y-67000000D03*
D14*
X125100000Y-67800000D03*
%TD*%
D15*
%TO.C,U131*%
X129700000Y-82900000D03*
X129700000Y-82400000D03*
X129700000Y-81900000D03*
X126950000Y-81900000D03*
X126950000Y-82400000D03*
X126950000Y-82900000D03*
%TD*%
D16*
%TO.C,R36*%
X117700000Y-73274999D03*
X117700000Y-71624999D03*
%TD*%
D17*
%TO.C,C27*%
X123750000Y-79300000D03*
X125300000Y-79300000D03*
%TD*%
D18*
%TO.C,R33*%
X121200000Y-71275000D03*
X121200000Y-72925000D03*
%TD*%
D19*
%TO.C,U122*%
X119980000Y-75000000D03*
X119980000Y-75950000D03*
X119980000Y-76900000D03*
X122300000Y-76900000D03*
X122300000Y-75950000D03*
X122300000Y-75000000D03*
%TD*%
D20*
%TO.C,C28*%
X119150000Y-79300000D03*
X117600000Y-79300000D03*
%TD*%
D11*
%TO.C,U132*%
X128700000Y-74700001D03*
X128700000Y-75500000D03*
D12*
X127850000Y-74450000D03*
X127850000Y-75100000D03*
X127850000Y-75750000D03*
X129550000Y-75750000D03*
X129550000Y-75100000D03*
X129550000Y-74450000D03*
%TD*%
D21*
%TO.C,R34*%
X120550000Y-79299998D03*
X122200000Y-79299998D03*
%TD*%
D22*
%TO.C,U127*%
X123599999Y-71450000D03*
X123600000Y-72100000D03*
X123599999Y-72750000D03*
X125400001Y-72750000D03*
X125400000Y-72100000D03*
X125400001Y-71450000D03*
%TD*%
D20*
%TO.C,C29*%
X119075000Y-82300000D03*
X117525000Y-82300000D03*
%TD*%
D23*
%TO.C,U124*%
X123100000Y-82549999D03*
D15*
X124275000Y-83300000D03*
X124275000Y-82799999D03*
X124275000Y-82299999D03*
X124275000Y-81799998D03*
X121925000Y-81799998D03*
X121925000Y-82299999D03*
X121925000Y-82799999D03*
X121925000Y-83300000D03*
%TD*%
D24*
%TO.C,U128*%
X129700000Y-79450000D03*
X129700000Y-78800000D03*
X129700000Y-78150000D03*
X127710000Y-78150000D03*
X127710000Y-78800000D03*
X127710000Y-79450000D03*
%TD*%
D16*
%TO.C,R35*%
X117700000Y-76325000D03*
X117700000Y-74675000D03*
%TD*%
D25*
%TO.C,U135*%
X128375000Y-71300000D03*
D26*
X128375000Y-71900000D03*
D27*
X129037500Y-71600001D03*
D28*
X129700000Y-71300000D03*
D29*
X129700000Y-71912500D03*
%TD*%
D31*
%TO.C,U134*%
X129025000Y-67850000D03*
D32*
X129500000Y-66900000D03*
X128550000Y-66900000D03*
X128550000Y-68800000D03*
X129500000Y-68800000D03*
%TD*%
D30*
%TO.C,U125*%
X121634264Y-68458578D03*
X120664264Y-68458578D03*
X119694264Y-68458578D03*
X118724264Y-68458578D03*
X118724264Y-67058578D03*
X119694264Y-67058578D03*
X120664264Y-67058578D03*
X121634264Y-67058578D03*
%TD*%
D11*
%TO.C,U117*%
X108700000Y-74700001D03*
X108700000Y-75500000D03*
D12*
X107850000Y-74450000D03*
X107850000Y-75100000D03*
X107850000Y-75750000D03*
X109550000Y-75750000D03*
X109550000Y-75100000D03*
X109550000Y-74450000D03*
%TD*%
D13*
%TO.C,IC8*%
X104700000Y-68600000D03*
X105500000Y-68600000D03*
X105500000Y-67000000D03*
X104700000Y-67000000D03*
D14*
X105100000Y-67800000D03*
%TD*%
D15*
%TO.C,U116*%
X109700000Y-82900000D03*
X109700000Y-82400000D03*
X109700000Y-81900000D03*
X106950000Y-81900000D03*
X106950000Y-82400000D03*
X106950000Y-82900000D03*
%TD*%
D16*
%TO.C,R32*%
X97700000Y-73274999D03*
X97700000Y-71624999D03*
%TD*%
D17*
%TO.C,C24*%
X103750000Y-79300000D03*
X105300000Y-79300000D03*
%TD*%
D18*
%TO.C,R8*%
X101200000Y-71275000D03*
X101200000Y-72925000D03*
%TD*%
D19*
%TO.C,U107*%
X99980000Y-75000000D03*
X99980000Y-75950000D03*
X99980000Y-76900000D03*
X102300000Y-76900000D03*
X102300000Y-75950000D03*
X102300000Y-75000000D03*
%TD*%
D20*
%TO.C,C25*%
X99150000Y-79300000D03*
X97600000Y-79300000D03*
%TD*%
D21*
%TO.C,R30*%
X100550000Y-79299998D03*
X102200000Y-79299998D03*
%TD*%
D22*
%TO.C,U112*%
X103599999Y-71450000D03*
X103600000Y-72100000D03*
X103599999Y-72750000D03*
X105400001Y-72750000D03*
X105400000Y-72100000D03*
X105400001Y-71450000D03*
%TD*%
D20*
%TO.C,C26*%
X99075000Y-82300000D03*
X97525000Y-82300000D03*
%TD*%
D23*
%TO.C,U109*%
X103100000Y-82549999D03*
D15*
X104275000Y-83300000D03*
X104275000Y-82799999D03*
X104275000Y-82299999D03*
X104275000Y-81799998D03*
X101925000Y-81799998D03*
X101925000Y-82299999D03*
X101925000Y-82799999D03*
X101925000Y-83300000D03*
%TD*%
D24*
%TO.C,U113*%
X109700000Y-79450000D03*
X109700000Y-78800000D03*
X109700000Y-78150000D03*
X107710000Y-78150000D03*
X107710000Y-78800000D03*
X107710000Y-79450000D03*
%TD*%
D16*
%TO.C,R31*%
X97700000Y-76325000D03*
X97700000Y-74675000D03*
%TD*%
D25*
%TO.C,U120*%
X108375000Y-71300000D03*
D26*
X108375000Y-71900000D03*
D27*
X109037500Y-71600001D03*
D28*
X109700000Y-71300000D03*
D29*
X109700000Y-71912500D03*
%TD*%
D31*
%TO.C,U119*%
X109025000Y-67850000D03*
D32*
X109500000Y-66900000D03*
X108550000Y-66900000D03*
X108550000Y-68800000D03*
X109500000Y-68800000D03*
%TD*%
D30*
%TO.C,U110*%
X101634264Y-68458578D03*
X100664264Y-68458578D03*
X99694264Y-68458578D03*
X98724264Y-68458578D03*
X98724264Y-67058578D03*
X99694264Y-67058578D03*
X100664264Y-67058578D03*
X101634264Y-67058578D03*
%TD*%
D11*
%TO.C,U102*%
X88700000Y-74700001D03*
X88700000Y-75500000D03*
D12*
X87850000Y-74450000D03*
X87850000Y-75100000D03*
X87850000Y-75750000D03*
X89550000Y-75750000D03*
X89550000Y-75100000D03*
X89550000Y-74450000D03*
%TD*%
D13*
%TO.C,IC7*%
X84700000Y-68600000D03*
X85500000Y-68600000D03*
X85500000Y-67000000D03*
X84700000Y-67000000D03*
D14*
X85100000Y-67800000D03*
%TD*%
D15*
%TO.C,U101*%
X89700000Y-82900000D03*
X89700000Y-82400000D03*
X89700000Y-81900000D03*
X86950000Y-81900000D03*
X86950000Y-82400000D03*
X86950000Y-82900000D03*
%TD*%
D16*
%TO.C,R29*%
X77700000Y-73274999D03*
X77700000Y-71624999D03*
%TD*%
D17*
%TO.C,C21*%
X83750000Y-79300000D03*
X85300000Y-79300000D03*
%TD*%
D18*
%TO.C,R7*%
X81200000Y-71275000D03*
X81200000Y-72925000D03*
%TD*%
D19*
%TO.C,U92*%
X79980000Y-75000000D03*
X79980000Y-75950000D03*
X79980000Y-76900000D03*
X82300000Y-76900000D03*
X82300000Y-75950000D03*
X82300000Y-75000000D03*
%TD*%
D20*
%TO.C,C22*%
X79150000Y-79300000D03*
X77600000Y-79300000D03*
%TD*%
D21*
%TO.C,R27*%
X80550000Y-79299998D03*
X82200000Y-79299998D03*
%TD*%
D22*
%TO.C,U97*%
X83599999Y-71450000D03*
X83600000Y-72100000D03*
X83599999Y-72750000D03*
X85400001Y-72750000D03*
X85400000Y-72100000D03*
X85400001Y-71450000D03*
%TD*%
D20*
%TO.C,C23*%
X79075000Y-82300000D03*
X77525000Y-82300000D03*
%TD*%
D23*
%TO.C,U94*%
X83100000Y-82549999D03*
D15*
X84275000Y-83300000D03*
X84275000Y-82799999D03*
X84275000Y-82299999D03*
X84275000Y-81799998D03*
X81925000Y-81799998D03*
X81925000Y-82299999D03*
X81925000Y-82799999D03*
X81925000Y-83300000D03*
%TD*%
D24*
%TO.C,U98*%
X89700000Y-79450000D03*
X89700000Y-78800000D03*
X89700000Y-78150000D03*
X87710000Y-78150000D03*
X87710000Y-78800000D03*
X87710000Y-79450000D03*
%TD*%
D16*
%TO.C,R28*%
X77700000Y-76325000D03*
X77700000Y-74675000D03*
%TD*%
D25*
%TO.C,U105*%
X88375000Y-71300000D03*
D26*
X88375000Y-71900000D03*
D27*
X89037500Y-71600001D03*
D28*
X89700000Y-71300000D03*
D29*
X89700000Y-71912500D03*
%TD*%
D31*
%TO.C,U104*%
X89025000Y-67850000D03*
D32*
X89500000Y-66900000D03*
X88550000Y-66900000D03*
X88550000Y-68800000D03*
X89500000Y-68800000D03*
%TD*%
D30*
%TO.C,U95*%
X81634264Y-68458578D03*
X80664264Y-68458578D03*
X79694264Y-68458578D03*
X78724264Y-68458578D03*
X78724264Y-67058578D03*
X79694264Y-67058578D03*
X80664264Y-67058578D03*
X81634264Y-67058578D03*
%TD*%
D11*
%TO.C,U87*%
X168700000Y-54700001D03*
X168700000Y-55500000D03*
D12*
X167850000Y-54450000D03*
X167850000Y-55100000D03*
X167850000Y-55750000D03*
X169550000Y-55750000D03*
X169550000Y-55100000D03*
X169550000Y-54450000D03*
%TD*%
D13*
%TO.C,IC6*%
X164700000Y-48600000D03*
X165500000Y-48600000D03*
X165500000Y-47000000D03*
X164700000Y-47000000D03*
D14*
X165100000Y-47800000D03*
%TD*%
D16*
%TO.C,R26*%
X157700000Y-53274999D03*
X157700000Y-51624999D03*
%TD*%
D17*
%TO.C,C18*%
X163750000Y-59300000D03*
X165300000Y-59300000D03*
%TD*%
D18*
%TO.C,R6*%
X161200000Y-51275000D03*
X161200000Y-52925000D03*
%TD*%
D19*
%TO.C,U77*%
X159980000Y-55000000D03*
X159980000Y-55950000D03*
X159980000Y-56900000D03*
X162300000Y-56900000D03*
X162300000Y-55950000D03*
X162300000Y-55000000D03*
%TD*%
D20*
%TO.C,C19*%
X159150000Y-59300000D03*
X157600000Y-59300000D03*
%TD*%
D21*
%TO.C,R24*%
X160550000Y-59299998D03*
X162200000Y-59299998D03*
%TD*%
D22*
%TO.C,U82*%
X163599999Y-51450000D03*
X163600000Y-52100000D03*
X163599999Y-52750000D03*
X165400001Y-52750000D03*
X165400000Y-52100000D03*
X165400001Y-51450000D03*
%TD*%
D20*
%TO.C,C20*%
X159075000Y-62300000D03*
X157525000Y-62300000D03*
%TD*%
D23*
%TO.C,U79*%
X163100000Y-62549999D03*
D15*
X164275000Y-63300000D03*
X164275000Y-62799999D03*
X164275000Y-62299999D03*
X164275000Y-61799998D03*
X161925000Y-61799998D03*
X161925000Y-62299999D03*
X161925000Y-62799999D03*
X161925000Y-63300000D03*
%TD*%
D24*
%TO.C,U83*%
X169700000Y-59450000D03*
X169700000Y-58800000D03*
X169700000Y-58150000D03*
X167710000Y-58150000D03*
X167710000Y-58800000D03*
X167710000Y-59450000D03*
%TD*%
D16*
%TO.C,R25*%
X157700000Y-56325000D03*
X157700000Y-54675000D03*
%TD*%
D25*
%TO.C,U90*%
X168375000Y-51300000D03*
D26*
X168375000Y-51900000D03*
D27*
X169037500Y-51600001D03*
D28*
X169700000Y-51300000D03*
D29*
X169700000Y-51912500D03*
%TD*%
D31*
%TO.C,U89*%
X169025000Y-47850000D03*
D32*
X169500000Y-46900000D03*
X168550000Y-46900000D03*
X168550000Y-48800000D03*
X169500000Y-48800000D03*
%TD*%
D30*
%TO.C,U80*%
X161634264Y-48458578D03*
X160664264Y-48458578D03*
X159694264Y-48458578D03*
X158724264Y-48458578D03*
X158724264Y-47058578D03*
X159694264Y-47058578D03*
X160664264Y-47058578D03*
X161634264Y-47058578D03*
%TD*%
D15*
%TO.C,U86*%
X169700000Y-62900000D03*
X169700000Y-62400000D03*
X169700000Y-61900000D03*
X166950000Y-61900000D03*
X166950000Y-62400000D03*
X166950000Y-62900000D03*
%TD*%
D11*
%TO.C,U72*%
X148700000Y-54700001D03*
X148700000Y-55500000D03*
D12*
X147850000Y-54450000D03*
X147850000Y-55100000D03*
X147850000Y-55750000D03*
X149550000Y-55750000D03*
X149550000Y-55100000D03*
X149550000Y-54450000D03*
%TD*%
D13*
%TO.C,IC5*%
X144700000Y-48600000D03*
X145500000Y-48600000D03*
X145500000Y-47000000D03*
X144700000Y-47000000D03*
D14*
X145100000Y-47800000D03*
%TD*%
D15*
%TO.C,U71*%
X149700000Y-62900000D03*
X149700000Y-62400000D03*
X149700000Y-61900000D03*
X146950000Y-61900000D03*
X146950000Y-62400000D03*
X146950000Y-62900000D03*
%TD*%
D16*
%TO.C,R23*%
X137700000Y-53274999D03*
X137700000Y-51624999D03*
%TD*%
D17*
%TO.C,C15*%
X143750000Y-59300000D03*
X145300000Y-59300000D03*
%TD*%
D18*
%TO.C,R5*%
X141200000Y-51275000D03*
X141200000Y-52925000D03*
%TD*%
D19*
%TO.C,U62*%
X139980000Y-55000000D03*
X139980000Y-55950000D03*
X139980000Y-56900000D03*
X142300000Y-56900000D03*
X142300000Y-55950000D03*
X142300000Y-55000000D03*
%TD*%
D20*
%TO.C,C16*%
X139150000Y-59300000D03*
X137600000Y-59300000D03*
%TD*%
D21*
%TO.C,R21*%
X140550000Y-59299998D03*
X142200000Y-59299998D03*
%TD*%
D22*
%TO.C,U67*%
X143599999Y-51450000D03*
X143600000Y-52100000D03*
X143599999Y-52750000D03*
X145400001Y-52750000D03*
X145400000Y-52100000D03*
X145400001Y-51450000D03*
%TD*%
D20*
%TO.C,C17*%
X139075000Y-62300000D03*
X137525000Y-62300000D03*
%TD*%
D23*
%TO.C,U64*%
X143100000Y-62549999D03*
D15*
X144275000Y-63300000D03*
X144275000Y-62799999D03*
X144275000Y-62299999D03*
X144275000Y-61799998D03*
X141925000Y-61799998D03*
X141925000Y-62299999D03*
X141925000Y-62799999D03*
X141925000Y-63300000D03*
%TD*%
D24*
%TO.C,U68*%
X149700000Y-59450000D03*
X149700000Y-58800000D03*
X149700000Y-58150000D03*
X147710000Y-58150000D03*
X147710000Y-58800000D03*
X147710000Y-59450000D03*
%TD*%
D16*
%TO.C,R22*%
X137700000Y-56325000D03*
X137700000Y-54675000D03*
%TD*%
D25*
%TO.C,U75*%
X148375000Y-51300000D03*
D26*
X148375000Y-51900000D03*
D27*
X149037500Y-51600001D03*
D28*
X149700000Y-51300000D03*
D29*
X149700000Y-51912500D03*
%TD*%
D31*
%TO.C,U74*%
X149025000Y-47850000D03*
D32*
X149500000Y-46900000D03*
X148550000Y-46900000D03*
X148550000Y-48800000D03*
X149500000Y-48800000D03*
%TD*%
D30*
%TO.C,U65*%
X141634264Y-48458578D03*
X140664264Y-48458578D03*
X139694264Y-48458578D03*
X138724264Y-48458578D03*
X138724264Y-47058578D03*
X139694264Y-47058578D03*
X140664264Y-47058578D03*
X141634264Y-47058578D03*
%TD*%
D11*
%TO.C,U57*%
X128700000Y-54700001D03*
X128700000Y-55500000D03*
D12*
X127850000Y-54450000D03*
X127850000Y-55100000D03*
X127850000Y-55750000D03*
X129550000Y-55750000D03*
X129550000Y-55100000D03*
X129550000Y-54450000D03*
%TD*%
D13*
%TO.C,IC4*%
X124700000Y-48600000D03*
X125500000Y-48600000D03*
X125500000Y-47000000D03*
X124700000Y-47000000D03*
D14*
X125100000Y-47800000D03*
%TD*%
D15*
%TO.C,U56*%
X129700000Y-62900000D03*
X129700000Y-62400000D03*
X129700000Y-61900000D03*
X126950000Y-61900000D03*
X126950000Y-62400000D03*
X126950000Y-62900000D03*
%TD*%
D16*
%TO.C,R20*%
X117700000Y-53274999D03*
X117700000Y-51624999D03*
%TD*%
D17*
%TO.C,C12*%
X123750000Y-59300000D03*
X125300000Y-59300000D03*
%TD*%
D18*
%TO.C,R4*%
X121200000Y-51275000D03*
X121200000Y-52925000D03*
%TD*%
D19*
%TO.C,U47*%
X119980000Y-55000000D03*
X119980000Y-55950000D03*
X119980000Y-56900000D03*
X122300000Y-56900000D03*
X122300000Y-55950000D03*
X122300000Y-55000000D03*
%TD*%
D20*
%TO.C,C13*%
X119150000Y-59300000D03*
X117600000Y-59300000D03*
%TD*%
D21*
%TO.C,R18*%
X120550000Y-59299998D03*
X122200000Y-59299998D03*
%TD*%
D22*
%TO.C,U52*%
X123599999Y-51450000D03*
X123600000Y-52100000D03*
X123599999Y-52750000D03*
X125400001Y-52750000D03*
X125400000Y-52100000D03*
X125400001Y-51450000D03*
%TD*%
D20*
%TO.C,C14*%
X119075000Y-62300000D03*
X117525000Y-62300000D03*
%TD*%
D23*
%TO.C,U49*%
X123100000Y-62549999D03*
D15*
X124275000Y-63300000D03*
X124275000Y-62799999D03*
X124275000Y-62299999D03*
X124275000Y-61799998D03*
X121925000Y-61799998D03*
X121925000Y-62299999D03*
X121925000Y-62799999D03*
X121925000Y-63300000D03*
%TD*%
D24*
%TO.C,U53*%
X129700000Y-59450000D03*
X129700000Y-58800000D03*
X129700000Y-58150000D03*
X127710000Y-58150000D03*
X127710000Y-58800000D03*
X127710000Y-59450000D03*
%TD*%
D16*
%TO.C,R19*%
X117700000Y-56325000D03*
X117700000Y-54675000D03*
%TD*%
D25*
%TO.C,U60*%
X128375000Y-51300000D03*
D26*
X128375000Y-51900000D03*
D27*
X129037500Y-51600001D03*
D28*
X129700000Y-51300000D03*
D29*
X129700000Y-51912500D03*
%TD*%
D31*
%TO.C,U59*%
X129025000Y-47850000D03*
D32*
X129500000Y-46900000D03*
X128550000Y-46900000D03*
X128550000Y-48800000D03*
X129500000Y-48800000D03*
%TD*%
D30*
%TO.C,U50*%
X121634264Y-48458578D03*
X120664264Y-48458578D03*
X119694264Y-48458578D03*
X118724264Y-48458578D03*
X118724264Y-47058578D03*
X119694264Y-47058578D03*
X120664264Y-47058578D03*
X121634264Y-47058578D03*
%TD*%
D11*
%TO.C,U42*%
X108700000Y-54700001D03*
X108700000Y-55500000D03*
D12*
X107850000Y-54450000D03*
X107850000Y-55100000D03*
X107850000Y-55750000D03*
X109550000Y-55750000D03*
X109550000Y-55100000D03*
X109550000Y-54450000D03*
%TD*%
D13*
%TO.C,IC3*%
X104700000Y-48600000D03*
X105500000Y-48600000D03*
X105500000Y-47000000D03*
X104700000Y-47000000D03*
D14*
X105100000Y-47800000D03*
%TD*%
D15*
%TO.C,U41*%
X109700000Y-62900000D03*
X109700000Y-62400000D03*
X109700000Y-61900000D03*
X106950000Y-61900000D03*
X106950000Y-62400000D03*
X106950000Y-62900000D03*
%TD*%
D16*
%TO.C,R17*%
X97700000Y-53274999D03*
X97700000Y-51624999D03*
%TD*%
D17*
%TO.C,C9*%
X103750000Y-59300000D03*
X105300000Y-59300000D03*
%TD*%
D18*
%TO.C,R3*%
X101200000Y-51275000D03*
X101200000Y-52925000D03*
%TD*%
D19*
%TO.C,U32*%
X99980000Y-55000000D03*
X99980000Y-55950000D03*
X99980000Y-56900000D03*
X102300000Y-56900000D03*
X102300000Y-55950000D03*
X102300000Y-55000000D03*
%TD*%
D20*
%TO.C,C10*%
X99150000Y-59300000D03*
X97600000Y-59300000D03*
%TD*%
D21*
%TO.C,R15*%
X100550000Y-59299998D03*
X102200000Y-59299998D03*
%TD*%
D22*
%TO.C,U37*%
X103599999Y-51450000D03*
X103600000Y-52100000D03*
X103599999Y-52750000D03*
X105400001Y-52750000D03*
X105400000Y-52100000D03*
X105400001Y-51450000D03*
%TD*%
D20*
%TO.C,C11*%
X99075000Y-62300000D03*
X97525000Y-62300000D03*
%TD*%
D23*
%TO.C,U34*%
X103100000Y-62549999D03*
D15*
X104275000Y-63300000D03*
X104275000Y-62799999D03*
X104275000Y-62299999D03*
X104275000Y-61799998D03*
X101925000Y-61799998D03*
X101925000Y-62299999D03*
X101925000Y-62799999D03*
X101925000Y-63300000D03*
%TD*%
D24*
%TO.C,U38*%
X109700000Y-59450000D03*
X109700000Y-58800000D03*
X109700000Y-58150000D03*
X107710000Y-58150000D03*
X107710000Y-58800000D03*
X107710000Y-59450000D03*
%TD*%
D16*
%TO.C,R16*%
X97700000Y-56325000D03*
X97700000Y-54675000D03*
%TD*%
D25*
%TO.C,U45*%
X108375000Y-51300000D03*
D26*
X108375000Y-51900000D03*
D27*
X109037500Y-51600001D03*
D28*
X109700000Y-51300000D03*
D29*
X109700000Y-51912500D03*
%TD*%
D31*
%TO.C,U44*%
X109025000Y-47850000D03*
D32*
X109500000Y-46900000D03*
X108550000Y-46900000D03*
X108550000Y-48800000D03*
X109500000Y-48800000D03*
%TD*%
D30*
%TO.C,U35*%
X101634264Y-48458578D03*
X100664264Y-48458578D03*
X99694264Y-48458578D03*
X98724264Y-48458578D03*
X98724264Y-47058578D03*
X99694264Y-47058578D03*
X100664264Y-47058578D03*
X101634264Y-47058578D03*
%TD*%
D13*
%TO.C,IC2*%
X84700000Y-48600000D03*
X85500000Y-48600000D03*
X85500000Y-47000000D03*
X84700000Y-47000000D03*
D14*
X85100000Y-47800000D03*
%TD*%
D15*
%TO.C,U26*%
X89700000Y-62900000D03*
X89700000Y-62400000D03*
X89700000Y-61900000D03*
X86950000Y-61900000D03*
X86950000Y-62400000D03*
X86950000Y-62900000D03*
%TD*%
D16*
%TO.C,R14*%
X77700000Y-53274999D03*
X77700000Y-51624999D03*
%TD*%
D17*
%TO.C,C6*%
X83750000Y-59300000D03*
X85300000Y-59300000D03*
%TD*%
D18*
%TO.C,R2*%
X81200000Y-51275000D03*
X81200000Y-52925000D03*
%TD*%
D19*
%TO.C,U8*%
X79980000Y-55000000D03*
X79980000Y-55950000D03*
X79980000Y-56900000D03*
X82300000Y-56900000D03*
X82300000Y-55950000D03*
X82300000Y-55000000D03*
%TD*%
D20*
%TO.C,C7*%
X79150000Y-59300000D03*
X77600000Y-59300000D03*
%TD*%
D11*
%TO.C,U27*%
X88700000Y-54700001D03*
X88700000Y-55500000D03*
D12*
X87850000Y-54450000D03*
X87850000Y-55100000D03*
X87850000Y-55750000D03*
X89550000Y-55750000D03*
X89550000Y-55100000D03*
X89550000Y-54450000D03*
%TD*%
D21*
%TO.C,R12*%
X80550000Y-59299998D03*
X82200000Y-59299998D03*
%TD*%
D22*
%TO.C,U22*%
X83599999Y-51450000D03*
X83600000Y-52100000D03*
X83599999Y-52750000D03*
X85400001Y-52750000D03*
X85400000Y-52100000D03*
X85400001Y-51450000D03*
%TD*%
D20*
%TO.C,C8*%
X79075000Y-62300000D03*
X77525000Y-62300000D03*
%TD*%
D23*
%TO.C,U18*%
X83100000Y-62549999D03*
D15*
X84275000Y-63300000D03*
X84275000Y-62799999D03*
X84275000Y-62299999D03*
X84275000Y-61799998D03*
X81925000Y-61799998D03*
X81925000Y-62299999D03*
X81925000Y-62799999D03*
X81925000Y-63300000D03*
%TD*%
D24*
%TO.C,U23*%
X89700000Y-59450000D03*
X89700000Y-58800000D03*
X89700000Y-58150000D03*
X87710000Y-58150000D03*
X87710000Y-58800000D03*
X87710000Y-59450000D03*
%TD*%
D16*
%TO.C,R13*%
X77700000Y-56325000D03*
X77700000Y-54675000D03*
%TD*%
D25*
%TO.C,U30*%
X88375000Y-51300000D03*
D26*
X88375000Y-51900000D03*
D27*
X89037500Y-51600001D03*
D28*
X89700000Y-51300000D03*
D29*
X89700000Y-51912500D03*
%TD*%
D31*
%TO.C,U29*%
X89025000Y-47850000D03*
D32*
X89500000Y-46900000D03*
X88550000Y-46900000D03*
X88550000Y-48800000D03*
X89500000Y-48800000D03*
%TD*%
D30*
%TO.C,U20*%
X81634264Y-48458578D03*
X80664264Y-48458578D03*
X79694264Y-48458578D03*
X78724264Y-48458578D03*
X78724264Y-47058578D03*
X79694264Y-47058578D03*
X80664264Y-47058578D03*
X81634264Y-47058578D03*
%TD*%
D22*
%TO.C,U9*%
X163599999Y-131450000D03*
X163600000Y-132100000D03*
X163599999Y-132750000D03*
X165400001Y-132750000D03*
X165400000Y-132100000D03*
X165400001Y-131450000D03*
%TD*%
D25*
%TO.C,U19*%
X168375000Y-131300000D03*
D26*
X168375000Y-131900000D03*
D27*
X169037500Y-131600001D03*
D28*
X169700000Y-131300000D03*
D29*
X169700000Y-131912500D03*
%TD*%
D21*
%TO.C,R9*%
X160550000Y-139299998D03*
X162200000Y-139299998D03*
%TD*%
D30*
%TO.C,U6*%
X161634264Y-128458578D03*
X160664264Y-128458578D03*
X159694264Y-128458578D03*
X158724264Y-128458578D03*
X158724264Y-127058578D03*
X159694264Y-127058578D03*
X160664264Y-127058578D03*
X161634264Y-127058578D03*
%TD*%
D23*
%TO.C,U5*%
X163100000Y-142549999D03*
D15*
X164275000Y-143300000D03*
X164275000Y-142799999D03*
X164275000Y-142299999D03*
X164275000Y-141799998D03*
X161925000Y-141799998D03*
X161925000Y-142299999D03*
X161925000Y-142799999D03*
X161925000Y-143300000D03*
%TD*%
D16*
%TO.C,R10*%
X157700000Y-136325000D03*
X157700000Y-134675000D03*
%TD*%
D20*
%TO.C,C4*%
X159150000Y-139300000D03*
X157600000Y-139300000D03*
%TD*%
D31*
%TO.C,U16*%
X169025000Y-127850000D03*
D32*
X169500000Y-126900000D03*
X168550000Y-126900000D03*
X168550000Y-128800000D03*
X169500000Y-128800000D03*
%TD*%
D19*
%TO.C,U3*%
X159980000Y-135000000D03*
X159980000Y-135950000D03*
X159980000Y-136900000D03*
X162300000Y-136900000D03*
X162300000Y-135950000D03*
X162300000Y-135000000D03*
%TD*%
D24*
%TO.C,U10*%
X169700000Y-139450000D03*
X169700000Y-138800000D03*
X169700000Y-138150000D03*
X167710000Y-138150000D03*
X167710000Y-138800000D03*
X167710000Y-139450000D03*
%TD*%
D18*
%TO.C,R1*%
X161200000Y-131275000D03*
X161200000Y-132925000D03*
%TD*%
D17*
%TO.C,C3*%
X163750000Y-139300000D03*
X165300000Y-139300000D03*
%TD*%
D16*
%TO.C,R11*%
X157700000Y-133274999D03*
X157700000Y-131624999D03*
%TD*%
D20*
%TO.C,C5*%
X159075000Y-142300000D03*
X157525000Y-142300000D03*
%TD*%
D15*
%TO.C,U13*%
X169700000Y-142900000D03*
X169700000Y-142400000D03*
X169700000Y-141900000D03*
X166950000Y-141900000D03*
X166950000Y-142400000D03*
X166950000Y-142900000D03*
%TD*%
D13*
%TO.C,IC1*%
X164700000Y-128600000D03*
X165500000Y-128600000D03*
X165500000Y-127000000D03*
X164700000Y-127000000D03*
D14*
X165100000Y-127800000D03*
%TD*%
D11*
%TO.C,U14*%
X168700000Y-134700001D03*
X168700000Y-135500000D03*
D12*
X167850000Y-134450000D03*
X167850000Y-135100000D03*
X167850000Y-135750000D03*
X169550000Y-135750000D03*
X169550000Y-135100000D03*
X169550000Y-134450000D03*
%TD*%
M02*
