%TF.GenerationSoftware,KiCad,Pcbnew,9.0.4*%
%TF.CreationDate,2025-12-23T10:24:14-05:00*%
%TF.ProjectId,LED-CharliePlexing1,4c45442d-4368-4617-926c-6965506c6578,rev?*%
%TF.SameCoordinates,Original*%
%TF.FileFunction,Paste,Top*%
%TF.FilePolarity,Positive*%
%FSLAX46Y46*%
G04 Gerber Fmt 4.6, Leading zero omitted, Abs format (unit mm)*
G04 Created by KiCad (PCBNEW 9.0.4) date 2025-12-23 10:24:14*
%MOMM*%
%LPD*%
G01*
G04 APERTURE LIST*
G04 Aperture macros list*
%AMRoundRect*
0 Rectangle with rounded corners*
0 $1 Rounding radius*
0 $2 $3 $4 $5 $6 $7 $8 $9 X,Y pos of 4 corners*
0 Add a 4 corners polygon primitive as box body*
4,1,4,$2,$3,$4,$5,$6,$7,$8,$9,$2,$3,0*
0 Add four circle primitives for the rounded corners*
1,1,$1+$1,$2,$3*
1,1,$1+$1,$4,$5*
1,1,$1+$1,$6,$7*
1,1,$1+$1,$8,$9*
0 Add four rect primitives between the rounded corners*
20,1,$1+$1,$2,$3,$4,$5,0*
20,1,$1+$1,$4,$5,$6,$7,0*
20,1,$1+$1,$6,$7,$8,$9,0*
20,1,$1+$1,$8,$9,$2,$3,0*%
G04 Aperture macros list end*
%ADD10RoundRect,0.237500X-0.237500X0.287500X-0.237500X-0.287500X0.237500X-0.287500X0.237500X0.287500X0*%
%ADD11RoundRect,0.237500X0.237500X-0.287500X0.237500X0.287500X-0.237500X0.287500X-0.237500X-0.287500X0*%
G04 APERTURE END LIST*
D10*
%TO.C,D96*%
X142000000Y-110725001D03*
X142000000Y-112474999D03*
%TD*%
%TO.C,D106*%
X142000000Y-115125001D03*
X142000000Y-116874999D03*
%TD*%
D11*
%TO.C,D105*%
X140000000Y-116874999D03*
X140000000Y-115125001D03*
%TD*%
%TO.C,D79*%
X150000000Y-86074999D03*
X150000000Y-84325001D03*
%TD*%
D10*
%TO.C,D92*%
X132000000Y-110725001D03*
X132000000Y-112474999D03*
%TD*%
D11*
%TO.C,D75*%
X150000000Y-77274999D03*
X150000000Y-75525001D03*
%TD*%
D10*
%TO.C,D30*%
X132021008Y-101838929D03*
X132021008Y-103588927D03*
%TD*%
D11*
%TO.C,D45*%
X140000000Y-90474999D03*
X140000000Y-88725001D03*
%TD*%
%TO.C,D77*%
X150000000Y-81674999D03*
X150000000Y-79925001D03*
%TD*%
D10*
%TO.C,D56*%
X147000000Y-71125001D03*
X147000000Y-72874999D03*
%TD*%
%TO.C,D90*%
X152000000Y-106325001D03*
X152000000Y-108074999D03*
%TD*%
%TO.C,D108*%
X147000000Y-115125001D03*
X147000000Y-116874999D03*
%TD*%
%TO.C,D80*%
X152000000Y-84325001D03*
X152000000Y-86074999D03*
%TD*%
D11*
%TO.C,D39*%
X140000000Y-77274999D03*
X140000000Y-75525001D03*
%TD*%
%TO.C,D41*%
X140000000Y-81674999D03*
X140000000Y-79925001D03*
%TD*%
%TO.C,D25*%
X130000000Y-99274999D03*
X130000000Y-97525001D03*
%TD*%
%TO.C,D63*%
X145000000Y-90474999D03*
X145000000Y-88725001D03*
%TD*%
%TO.C,D81*%
X150000000Y-90474999D03*
X150000000Y-88725001D03*
%TD*%
D10*
%TO.C,D6*%
X132000000Y-75525001D03*
X132000000Y-77274999D03*
%TD*%
D11*
%TO.C,D59*%
X145000000Y-81674999D03*
X145000000Y-79925001D03*
%TD*%
D10*
%TO.C,D52*%
X142000000Y-101925001D03*
X142000000Y-103674999D03*
%TD*%
D11*
%TO.C,D69*%
X145000000Y-103674999D03*
X145000000Y-101925001D03*
%TD*%
%TO.C,D57*%
X145000000Y-77274999D03*
X145000000Y-75525001D03*
%TD*%
%TO.C,D19*%
X135000000Y-90474999D03*
X135000000Y-88725001D03*
%TD*%
D10*
%TO.C,D14*%
X132000000Y-84325001D03*
X132000000Y-86074999D03*
%TD*%
D11*
%TO.C,D51*%
X140000000Y-103674999D03*
X140000000Y-101925001D03*
%TD*%
D10*
%TO.C,D62*%
X147000000Y-84325001D03*
X147000000Y-86074999D03*
%TD*%
D11*
%TO.C,D35*%
X135000000Y-108074999D03*
X135000000Y-106325001D03*
%TD*%
D10*
%TO.C,D72*%
X147000000Y-106325001D03*
X147000000Y-108074999D03*
%TD*%
%TO.C,D102*%
X132000000Y-115125001D03*
X132000000Y-116874999D03*
%TD*%
%TO.C,D28*%
X137000000Y-97525001D03*
X137000000Y-99274999D03*
%TD*%
%TO.C,D36*%
X137000000Y-106325001D03*
X137000000Y-108074999D03*
%TD*%
D11*
%TO.C,D5*%
X130000000Y-77274999D03*
X130000000Y-75525001D03*
%TD*%
%TO.C,D21*%
X130000000Y-94874999D03*
X130000000Y-93125001D03*
%TD*%
%TO.C,D101*%
X130000000Y-116874999D03*
X130000000Y-115125001D03*
%TD*%
D10*
%TO.C,D4*%
X137000000Y-71125001D03*
X137000000Y-72874999D03*
%TD*%
%TO.C,D46*%
X142000000Y-88725001D03*
X142000000Y-90474999D03*
%TD*%
D11*
%TO.C,D33*%
X130000000Y-108074999D03*
X130000000Y-106325001D03*
%TD*%
%TO.C,D87*%
X150000000Y-103674999D03*
X150000000Y-101925001D03*
%TD*%
%TO.C,D95*%
X140000000Y-112474999D03*
X140000000Y-110725001D03*
%TD*%
D10*
%TO.C,D10*%
X132000000Y-79925001D03*
X132000000Y-81674999D03*
%TD*%
D11*
%TO.C,D29*%
X130000000Y-103674999D03*
X130000000Y-101925001D03*
%TD*%
D10*
%TO.C,D38*%
X142000000Y-71125001D03*
X142000000Y-72874999D03*
%TD*%
%TO.C,D84*%
X152000000Y-93125001D03*
X152000000Y-94874999D03*
%TD*%
%TO.C,D68*%
X147000000Y-97525001D03*
X147000000Y-99274999D03*
%TD*%
%TO.C,D76*%
X152000000Y-75525001D03*
X152000000Y-77274999D03*
%TD*%
D11*
%TO.C,D1*%
X130000000Y-72874999D03*
X130000000Y-71125001D03*
%TD*%
%TO.C,D3*%
X135000000Y-72874999D03*
X135000000Y-71125001D03*
%TD*%
D10*
%TO.C,D86*%
X152000000Y-97525001D03*
X152000000Y-99274999D03*
%TD*%
D11*
%TO.C,D107*%
X145000000Y-116874999D03*
X145000000Y-115125001D03*
%TD*%
D10*
%TO.C,D54*%
X142000000Y-106325001D03*
X142000000Y-108074999D03*
%TD*%
%TO.C,D32*%
X137000000Y-101925001D03*
X137000000Y-103674999D03*
%TD*%
D11*
%TO.C,D103*%
X135000000Y-116874999D03*
X135000000Y-115125001D03*
%TD*%
D10*
%TO.C,D8*%
X137000000Y-75525001D03*
X137000000Y-77274999D03*
%TD*%
%TO.C,D104*%
X137000000Y-115125001D03*
X137000000Y-116874999D03*
%TD*%
%TO.C,D34*%
X132000000Y-106325001D03*
X132000000Y-108074999D03*
%TD*%
%TO.C,D100*%
X152000000Y-110725001D03*
X152000000Y-112474999D03*
%TD*%
%TO.C,D40*%
X142000000Y-75525001D03*
X142000000Y-77274999D03*
%TD*%
D11*
%TO.C,D17*%
X130000000Y-90474999D03*
X130000000Y-88725001D03*
%TD*%
D10*
%TO.C,D64*%
X147000000Y-88725001D03*
X147000000Y-90474999D03*
%TD*%
%TO.C,D88*%
X152000000Y-101925001D03*
X152000000Y-103674999D03*
%TD*%
D11*
%TO.C,D83*%
X150000000Y-94874999D03*
X150000000Y-93125001D03*
%TD*%
D10*
%TO.C,D26*%
X132000000Y-97525001D03*
X132000000Y-99274999D03*
%TD*%
%TO.C,D12*%
X137000000Y-79925001D03*
X137000000Y-81674999D03*
%TD*%
%TO.C,D24*%
X137000000Y-93125001D03*
X137000000Y-94874999D03*
%TD*%
D11*
%TO.C,D37*%
X140000000Y-72874999D03*
X140000000Y-71125001D03*
%TD*%
%TO.C,D67*%
X145000000Y-99274999D03*
X145000000Y-97525001D03*
%TD*%
%TO.C,D9*%
X130000000Y-81674999D03*
X130000000Y-79925001D03*
%TD*%
%TO.C,D43*%
X140000000Y-86074999D03*
X140000000Y-84325001D03*
%TD*%
D10*
%TO.C,D66*%
X147000000Y-93125001D03*
X147000000Y-94874999D03*
%TD*%
%TO.C,D82*%
X152000000Y-88725001D03*
X152000000Y-90474999D03*
%TD*%
D11*
%TO.C,D7*%
X135000000Y-77274999D03*
X135000000Y-75525001D03*
%TD*%
D10*
%TO.C,D18*%
X132000000Y-88725001D03*
X132000000Y-90474999D03*
%TD*%
D11*
%TO.C,D93*%
X135000000Y-112474999D03*
X135000000Y-110725001D03*
%TD*%
D10*
%TO.C,D60*%
X147000000Y-79925001D03*
X147000000Y-81674999D03*
%TD*%
D11*
%TO.C,D89*%
X150000000Y-108074999D03*
X150000000Y-106325001D03*
%TD*%
D10*
%TO.C,D70*%
X147000000Y-101925001D03*
X147000000Y-103674999D03*
%TD*%
D11*
%TO.C,D23*%
X135000000Y-94874999D03*
X135000000Y-93125001D03*
%TD*%
%TO.C,D73*%
X150000000Y-72874999D03*
X150000000Y-71125001D03*
%TD*%
%TO.C,D71*%
X145000000Y-108074999D03*
X145000000Y-106325001D03*
%TD*%
D10*
%TO.C,D22*%
X132000000Y-93125001D03*
X132000000Y-94874999D03*
%TD*%
%TO.C,D20*%
X137000000Y-88725001D03*
X137000000Y-90474999D03*
%TD*%
%TO.C,D110*%
X152000000Y-115125001D03*
X152000000Y-116874999D03*
%TD*%
%TO.C,D58*%
X147000000Y-75525001D03*
X147000000Y-77274999D03*
%TD*%
D11*
%TO.C,D47*%
X140000000Y-94874999D03*
X140000000Y-93125001D03*
%TD*%
%TO.C,D55*%
X145000000Y-72874999D03*
X145000000Y-71125001D03*
%TD*%
%TO.C,D27*%
X135000000Y-99274999D03*
X135000000Y-97525001D03*
%TD*%
%TO.C,D53*%
X140000000Y-108074999D03*
X140000000Y-106325001D03*
%TD*%
%TO.C,D85*%
X150000000Y-99274999D03*
X150000000Y-97525001D03*
%TD*%
%TO.C,D97*%
X145000000Y-112474999D03*
X145000000Y-110725001D03*
%TD*%
D10*
%TO.C,D44*%
X142000000Y-84325001D03*
X142000000Y-86074999D03*
%TD*%
D11*
%TO.C,D15*%
X135000000Y-86074999D03*
X135000000Y-84325001D03*
%TD*%
D10*
%TO.C,D2*%
X132000000Y-71125001D03*
X132000000Y-72874999D03*
%TD*%
%TO.C,D74*%
X152000000Y-71125001D03*
X152000000Y-72874999D03*
%TD*%
D11*
%TO.C,D13*%
X130000000Y-86074999D03*
X130000000Y-84325001D03*
%TD*%
D10*
%TO.C,D94*%
X137000000Y-110725001D03*
X137000000Y-112474999D03*
%TD*%
D11*
%TO.C,D65*%
X145000000Y-94874999D03*
X145000000Y-93125001D03*
%TD*%
D10*
%TO.C,D42*%
X142000000Y-79925001D03*
X142000000Y-81674999D03*
%TD*%
D11*
%TO.C,D11*%
X135000000Y-81674999D03*
X135000000Y-79925001D03*
%TD*%
D10*
%TO.C,D16*%
X137000000Y-84325001D03*
X137000000Y-86074999D03*
%TD*%
D11*
%TO.C,D31*%
X135000000Y-103674999D03*
X135000000Y-101925001D03*
%TD*%
%TO.C,D91*%
X130000000Y-112474999D03*
X130000000Y-110725001D03*
%TD*%
%TO.C,D99*%
X150000000Y-112474999D03*
X150000000Y-110725001D03*
%TD*%
%TO.C,D109*%
X150000000Y-116874999D03*
X150000000Y-115125001D03*
%TD*%
%TO.C,D61*%
X145000000Y-86074999D03*
X145000000Y-84325001D03*
%TD*%
D10*
%TO.C,D78*%
X152000000Y-79925001D03*
X152000000Y-81674999D03*
%TD*%
D11*
%TO.C,D49*%
X140000000Y-99274999D03*
X140000000Y-97525001D03*
%TD*%
D10*
%TO.C,D50*%
X142000000Y-97525001D03*
X142000000Y-99274999D03*
%TD*%
%TO.C,D48*%
X142000000Y-93125001D03*
X142000000Y-94874999D03*
%TD*%
%TO.C,D98*%
X147000000Y-110725001D03*
X147000000Y-112474999D03*
%TD*%
M02*
