%TF.GenerationSoftware,KiCad,Pcbnew,9.0.4*%
%TF.CreationDate,2025-12-23T10:24:14-05:00*%
%TF.ProjectId,LED-CharliePlexing1,4c45442d-4368-4617-926c-6965506c6578,rev?*%
%TF.SameCoordinates,Original*%
%TF.FileFunction,Legend,Bot*%
%TF.FilePolarity,Positive*%
%FSLAX46Y46*%
G04 Gerber Fmt 4.6, Leading zero omitted, Abs format (unit mm)*
G04 Created by KiCad (PCBNEW 9.0.4) date 2025-12-23 10:24:14*
%MOMM*%
%LPD*%
G01*
G04 APERTURE LIST*
%ADD10C,0.150000*%
%ADD11C,0.120000*%
%ADD12C,0.000000*%
G04 APERTURE END LIST*
D10*
X151740124Y-100809524D02*
X152740124Y-100809524D01*
X152740124Y-100142858D02*
X152740124Y-99952382D01*
X152740124Y-99952382D02*
X152692505Y-99857144D01*
X152692505Y-99857144D02*
X152597267Y-99761906D01*
X152597267Y-99761906D02*
X152406791Y-99714287D01*
X152406791Y-99714287D02*
X152073458Y-99714287D01*
X152073458Y-99714287D02*
X151882982Y-99761906D01*
X151882982Y-99761906D02*
X151787744Y-99857144D01*
X151787744Y-99857144D02*
X151740124Y-99952382D01*
X151740124Y-99952382D02*
X151740124Y-100142858D01*
X151740124Y-100142858D02*
X151787744Y-100238096D01*
X151787744Y-100238096D02*
X151882982Y-100333334D01*
X151882982Y-100333334D02*
X152073458Y-100380953D01*
X152073458Y-100380953D02*
X152406791Y-100380953D01*
X152406791Y-100380953D02*
X152597267Y-100333334D01*
X152597267Y-100333334D02*
X152692505Y-100238096D01*
X152692505Y-100238096D02*
X152740124Y-100142858D01*
X152740124Y-99428572D02*
X152740124Y-98857144D01*
X151740124Y-99142858D02*
X152740124Y-99142858D01*
X151644886Y-98761906D02*
X151644886Y-98000001D01*
X151740124Y-97761905D02*
X152740124Y-97761905D01*
X152740124Y-97761905D02*
X152025839Y-97428572D01*
X152025839Y-97428572D02*
X152740124Y-97095239D01*
X152740124Y-97095239D02*
X151740124Y-97095239D01*
X151787744Y-96238096D02*
X151740124Y-96333334D01*
X151740124Y-96333334D02*
X151740124Y-96523810D01*
X151740124Y-96523810D02*
X151787744Y-96619048D01*
X151787744Y-96619048D02*
X151882982Y-96666667D01*
X151882982Y-96666667D02*
X152263934Y-96666667D01*
X152263934Y-96666667D02*
X152359172Y-96619048D01*
X152359172Y-96619048D02*
X152406791Y-96523810D01*
X152406791Y-96523810D02*
X152406791Y-96333334D01*
X152406791Y-96333334D02*
X152359172Y-96238096D01*
X152359172Y-96238096D02*
X152263934Y-96190477D01*
X152263934Y-96190477D02*
X152168696Y-96190477D01*
X152168696Y-96190477D02*
X152073458Y-96666667D01*
X151787744Y-95809524D02*
X151740124Y-95714286D01*
X151740124Y-95714286D02*
X151740124Y-95523810D01*
X151740124Y-95523810D02*
X151787744Y-95428572D01*
X151787744Y-95428572D02*
X151882982Y-95380953D01*
X151882982Y-95380953D02*
X151930601Y-95380953D01*
X151930601Y-95380953D02*
X152025839Y-95428572D01*
X152025839Y-95428572D02*
X152073458Y-95523810D01*
X152073458Y-95523810D02*
X152073458Y-95666667D01*
X152073458Y-95666667D02*
X152121077Y-95761905D01*
X152121077Y-95761905D02*
X152216315Y-95809524D01*
X152216315Y-95809524D02*
X152263934Y-95809524D01*
X152263934Y-95809524D02*
X152359172Y-95761905D01*
X152359172Y-95761905D02*
X152406791Y-95666667D01*
X152406791Y-95666667D02*
X152406791Y-95523810D01*
X152406791Y-95523810D02*
X152359172Y-95428572D01*
X151787744Y-95000000D02*
X151740124Y-94904762D01*
X151740124Y-94904762D02*
X151740124Y-94714286D01*
X151740124Y-94714286D02*
X151787744Y-94619048D01*
X151787744Y-94619048D02*
X151882982Y-94571429D01*
X151882982Y-94571429D02*
X151930601Y-94571429D01*
X151930601Y-94571429D02*
X152025839Y-94619048D01*
X152025839Y-94619048D02*
X152073458Y-94714286D01*
X152073458Y-94714286D02*
X152073458Y-94857143D01*
X152073458Y-94857143D02*
X152121077Y-94952381D01*
X152121077Y-94952381D02*
X152216315Y-95000000D01*
X152216315Y-95000000D02*
X152263934Y-95000000D01*
X152263934Y-95000000D02*
X152359172Y-94952381D01*
X152359172Y-94952381D02*
X152406791Y-94857143D01*
X152406791Y-94857143D02*
X152406791Y-94714286D01*
X152406791Y-94714286D02*
X152359172Y-94619048D01*
X151835363Y-92809524D02*
X151787744Y-92857143D01*
X151787744Y-92857143D02*
X151740124Y-93000000D01*
X151740124Y-93000000D02*
X151740124Y-93095238D01*
X151740124Y-93095238D02*
X151787744Y-93238095D01*
X151787744Y-93238095D02*
X151882982Y-93333333D01*
X151882982Y-93333333D02*
X151978220Y-93380952D01*
X151978220Y-93380952D02*
X152168696Y-93428571D01*
X152168696Y-93428571D02*
X152311553Y-93428571D01*
X152311553Y-93428571D02*
X152502029Y-93380952D01*
X152502029Y-93380952D02*
X152597267Y-93333333D01*
X152597267Y-93333333D02*
X152692505Y-93238095D01*
X152692505Y-93238095D02*
X152740124Y-93095238D01*
X152740124Y-93095238D02*
X152740124Y-93000000D01*
X152740124Y-93000000D02*
X152692505Y-92857143D01*
X152692505Y-92857143D02*
X152644886Y-92809524D01*
X151740124Y-92380952D02*
X152740124Y-92380952D01*
X151740124Y-91952381D02*
X152263934Y-91952381D01*
X152263934Y-91952381D02*
X152359172Y-92000000D01*
X152359172Y-92000000D02*
X152406791Y-92095238D01*
X152406791Y-92095238D02*
X152406791Y-92238095D01*
X152406791Y-92238095D02*
X152359172Y-92333333D01*
X152359172Y-92333333D02*
X152311553Y-92380952D01*
X151740124Y-91047619D02*
X152263934Y-91047619D01*
X152263934Y-91047619D02*
X152359172Y-91095238D01*
X152359172Y-91095238D02*
X152406791Y-91190476D01*
X152406791Y-91190476D02*
X152406791Y-91380952D01*
X152406791Y-91380952D02*
X152359172Y-91476190D01*
X151787744Y-91047619D02*
X151740124Y-91142857D01*
X151740124Y-91142857D02*
X151740124Y-91380952D01*
X151740124Y-91380952D02*
X151787744Y-91476190D01*
X151787744Y-91476190D02*
X151882982Y-91523809D01*
X151882982Y-91523809D02*
X151978220Y-91523809D01*
X151978220Y-91523809D02*
X152073458Y-91476190D01*
X152073458Y-91476190D02*
X152121077Y-91380952D01*
X152121077Y-91380952D02*
X152121077Y-91142857D01*
X152121077Y-91142857D02*
X152168696Y-91047619D01*
X151740124Y-90571428D02*
X152406791Y-90571428D01*
X152216315Y-90571428D02*
X152311553Y-90523809D01*
X152311553Y-90523809D02*
X152359172Y-90476190D01*
X152359172Y-90476190D02*
X152406791Y-90380952D01*
X152406791Y-90380952D02*
X152406791Y-90285714D01*
X151740124Y-89809523D02*
X151787744Y-89904761D01*
X151787744Y-89904761D02*
X151882982Y-89952380D01*
X151882982Y-89952380D02*
X152740124Y-89952380D01*
X151740124Y-89428570D02*
X152406791Y-89428570D01*
X152740124Y-89428570D02*
X152692505Y-89476189D01*
X152692505Y-89476189D02*
X152644886Y-89428570D01*
X152644886Y-89428570D02*
X152692505Y-89380951D01*
X152692505Y-89380951D02*
X152740124Y-89428570D01*
X152740124Y-89428570D02*
X152644886Y-89428570D01*
X151787744Y-88571428D02*
X151740124Y-88666666D01*
X151740124Y-88666666D02*
X151740124Y-88857142D01*
X151740124Y-88857142D02*
X151787744Y-88952380D01*
X151787744Y-88952380D02*
X151882982Y-88999999D01*
X151882982Y-88999999D02*
X152263934Y-88999999D01*
X152263934Y-88999999D02*
X152359172Y-88952380D01*
X152359172Y-88952380D02*
X152406791Y-88857142D01*
X152406791Y-88857142D02*
X152406791Y-88666666D01*
X152406791Y-88666666D02*
X152359172Y-88571428D01*
X152359172Y-88571428D02*
X152263934Y-88523809D01*
X152263934Y-88523809D02*
X152168696Y-88523809D01*
X152168696Y-88523809D02*
X152073458Y-88999999D01*
X152406791Y-88095237D02*
X151406791Y-88095237D01*
X152359172Y-88095237D02*
X152406791Y-87999999D01*
X152406791Y-87999999D02*
X152406791Y-87809523D01*
X152406791Y-87809523D02*
X152359172Y-87714285D01*
X152359172Y-87714285D02*
X152311553Y-87666666D01*
X152311553Y-87666666D02*
X152216315Y-87619047D01*
X152216315Y-87619047D02*
X151930601Y-87619047D01*
X151930601Y-87619047D02*
X151835363Y-87666666D01*
X151835363Y-87666666D02*
X151787744Y-87714285D01*
X151787744Y-87714285D02*
X151740124Y-87809523D01*
X151740124Y-87809523D02*
X151740124Y-87999999D01*
X151740124Y-87999999D02*
X151787744Y-88095237D01*
X151740124Y-87047618D02*
X151787744Y-87142856D01*
X151787744Y-87142856D02*
X151882982Y-87190475D01*
X151882982Y-87190475D02*
X152740124Y-87190475D01*
X151787744Y-86285713D02*
X151740124Y-86380951D01*
X151740124Y-86380951D02*
X151740124Y-86571427D01*
X151740124Y-86571427D02*
X151787744Y-86666665D01*
X151787744Y-86666665D02*
X151882982Y-86714284D01*
X151882982Y-86714284D02*
X152263934Y-86714284D01*
X152263934Y-86714284D02*
X152359172Y-86666665D01*
X152359172Y-86666665D02*
X152406791Y-86571427D01*
X152406791Y-86571427D02*
X152406791Y-86380951D01*
X152406791Y-86380951D02*
X152359172Y-86285713D01*
X152359172Y-86285713D02*
X152263934Y-86238094D01*
X152263934Y-86238094D02*
X152168696Y-86238094D01*
X152168696Y-86238094D02*
X152073458Y-86714284D01*
X151740124Y-85904760D02*
X152406791Y-85380951D01*
X152406791Y-85904760D02*
X151740124Y-85380951D01*
X151740124Y-84999998D02*
X152406791Y-84999998D01*
X152740124Y-84999998D02*
X152692505Y-85047617D01*
X152692505Y-85047617D02*
X152644886Y-84999998D01*
X152644886Y-84999998D02*
X152692505Y-84952379D01*
X152692505Y-84952379D02*
X152740124Y-84999998D01*
X152740124Y-84999998D02*
X152644886Y-84999998D01*
X152406791Y-84523808D02*
X151740124Y-84523808D01*
X152311553Y-84523808D02*
X152359172Y-84476189D01*
X152359172Y-84476189D02*
X152406791Y-84380951D01*
X152406791Y-84380951D02*
X152406791Y-84238094D01*
X152406791Y-84238094D02*
X152359172Y-84142856D01*
X152359172Y-84142856D02*
X152263934Y-84095237D01*
X152263934Y-84095237D02*
X151740124Y-84095237D01*
X152406791Y-83190475D02*
X151597267Y-83190475D01*
X151597267Y-83190475D02*
X151502029Y-83238094D01*
X151502029Y-83238094D02*
X151454410Y-83285713D01*
X151454410Y-83285713D02*
X151406791Y-83380951D01*
X151406791Y-83380951D02*
X151406791Y-83523808D01*
X151406791Y-83523808D02*
X151454410Y-83619046D01*
X151787744Y-83190475D02*
X151740124Y-83285713D01*
X151740124Y-83285713D02*
X151740124Y-83476189D01*
X151740124Y-83476189D02*
X151787744Y-83571427D01*
X151787744Y-83571427D02*
X151835363Y-83619046D01*
X151835363Y-83619046D02*
X151930601Y-83666665D01*
X151930601Y-83666665D02*
X152216315Y-83666665D01*
X152216315Y-83666665D02*
X152311553Y-83619046D01*
X152311553Y-83619046D02*
X152359172Y-83571427D01*
X152359172Y-83571427D02*
X152406791Y-83476189D01*
X152406791Y-83476189D02*
X152406791Y-83285713D01*
X152406791Y-83285713D02*
X152359172Y-83190475D01*
X151130180Y-97333332D02*
X150130180Y-96999999D01*
X150130180Y-96999999D02*
X151130180Y-96666666D01*
X151034942Y-96380951D02*
X151082561Y-96333332D01*
X151082561Y-96333332D02*
X151130180Y-96238094D01*
X151130180Y-96238094D02*
X151130180Y-95999999D01*
X151130180Y-95999999D02*
X151082561Y-95904761D01*
X151082561Y-95904761D02*
X151034942Y-95857142D01*
X151034942Y-95857142D02*
X150939704Y-95809523D01*
X150939704Y-95809523D02*
X150844466Y-95809523D01*
X150844466Y-95809523D02*
X150701609Y-95857142D01*
X150701609Y-95857142D02*
X150130180Y-96428570D01*
X150130180Y-96428570D02*
X150130180Y-95809523D01*
X150225419Y-95380951D02*
X150177800Y-95333332D01*
X150177800Y-95333332D02*
X150130180Y-95380951D01*
X150130180Y-95380951D02*
X150177800Y-95428570D01*
X150177800Y-95428570D02*
X150225419Y-95380951D01*
X150225419Y-95380951D02*
X150130180Y-95380951D01*
X151130180Y-94714285D02*
X151130180Y-94619047D01*
X151130180Y-94619047D02*
X151082561Y-94523809D01*
X151082561Y-94523809D02*
X151034942Y-94476190D01*
X151034942Y-94476190D02*
X150939704Y-94428571D01*
X150939704Y-94428571D02*
X150749228Y-94380952D01*
X150749228Y-94380952D02*
X150511133Y-94380952D01*
X150511133Y-94380952D02*
X150320657Y-94428571D01*
X150320657Y-94428571D02*
X150225419Y-94476190D01*
X150225419Y-94476190D02*
X150177800Y-94523809D01*
X150177800Y-94523809D02*
X150130180Y-94619047D01*
X150130180Y-94619047D02*
X150130180Y-94714285D01*
X150130180Y-94714285D02*
X150177800Y-94809523D01*
X150177800Y-94809523D02*
X150225419Y-94857142D01*
X150225419Y-94857142D02*
X150320657Y-94904761D01*
X150320657Y-94904761D02*
X150511133Y-94952380D01*
X150511133Y-94952380D02*
X150749228Y-94952380D01*
X150749228Y-94952380D02*
X150939704Y-94904761D01*
X150939704Y-94904761D02*
X151034942Y-94857142D01*
X151034942Y-94857142D02*
X151082561Y-94809523D01*
X151082561Y-94809523D02*
X151130180Y-94714285D01*
X150701609Y-93047618D02*
X150749228Y-93142856D01*
X150749228Y-93142856D02*
X150796847Y-93190475D01*
X150796847Y-93190475D02*
X150892085Y-93238094D01*
X150892085Y-93238094D02*
X150939704Y-93238094D01*
X150939704Y-93238094D02*
X151034942Y-93190475D01*
X151034942Y-93190475D02*
X151082561Y-93142856D01*
X151082561Y-93142856D02*
X151130180Y-93047618D01*
X151130180Y-93047618D02*
X151130180Y-92857142D01*
X151130180Y-92857142D02*
X151082561Y-92761904D01*
X151082561Y-92761904D02*
X151034942Y-92714285D01*
X151034942Y-92714285D02*
X150939704Y-92666666D01*
X150939704Y-92666666D02*
X150892085Y-92666666D01*
X150892085Y-92666666D02*
X150796847Y-92714285D01*
X150796847Y-92714285D02*
X150749228Y-92761904D01*
X150749228Y-92761904D02*
X150701609Y-92857142D01*
X150701609Y-92857142D02*
X150701609Y-93047618D01*
X150701609Y-93047618D02*
X150653990Y-93142856D01*
X150653990Y-93142856D02*
X150606371Y-93190475D01*
X150606371Y-93190475D02*
X150511133Y-93238094D01*
X150511133Y-93238094D02*
X150320657Y-93238094D01*
X150320657Y-93238094D02*
X150225419Y-93190475D01*
X150225419Y-93190475D02*
X150177800Y-93142856D01*
X150177800Y-93142856D02*
X150130180Y-93047618D01*
X150130180Y-93047618D02*
X150130180Y-92857142D01*
X150130180Y-92857142D02*
X150177800Y-92761904D01*
X150177800Y-92761904D02*
X150225419Y-92714285D01*
X150225419Y-92714285D02*
X150320657Y-92666666D01*
X150320657Y-92666666D02*
X150511133Y-92666666D01*
X150511133Y-92666666D02*
X150606371Y-92714285D01*
X150606371Y-92714285D02*
X150653990Y-92761904D01*
X150653990Y-92761904D02*
X150701609Y-92857142D01*
X151177800Y-91523809D02*
X149892085Y-92380951D01*
X150130180Y-90666666D02*
X150130180Y-91238094D01*
X150130180Y-90952380D02*
X151130180Y-90952380D01*
X151130180Y-90952380D02*
X150987323Y-91047618D01*
X150987323Y-91047618D02*
X150892085Y-91142856D01*
X150892085Y-91142856D02*
X150844466Y-91238094D01*
X150130180Y-90190475D02*
X150130180Y-89999999D01*
X150130180Y-89999999D02*
X150177800Y-89904761D01*
X150177800Y-89904761D02*
X150225419Y-89857142D01*
X150225419Y-89857142D02*
X150368276Y-89761904D01*
X150368276Y-89761904D02*
X150558752Y-89714285D01*
X150558752Y-89714285D02*
X150939704Y-89714285D01*
X150939704Y-89714285D02*
X151034942Y-89761904D01*
X151034942Y-89761904D02*
X151082561Y-89809523D01*
X151082561Y-89809523D02*
X151130180Y-89904761D01*
X151130180Y-89904761D02*
X151130180Y-90095237D01*
X151130180Y-90095237D02*
X151082561Y-90190475D01*
X151082561Y-90190475D02*
X151034942Y-90238094D01*
X151034942Y-90238094D02*
X150939704Y-90285713D01*
X150939704Y-90285713D02*
X150701609Y-90285713D01*
X150701609Y-90285713D02*
X150606371Y-90238094D01*
X150606371Y-90238094D02*
X150558752Y-90190475D01*
X150558752Y-90190475D02*
X150511133Y-90095237D01*
X150511133Y-90095237D02*
X150511133Y-89904761D01*
X150511133Y-89904761D02*
X150558752Y-89809523D01*
X150558752Y-89809523D02*
X150606371Y-89761904D01*
X150606371Y-89761904D02*
X150701609Y-89714285D01*
X151177800Y-88571428D02*
X149892085Y-89428570D01*
X151034942Y-88285713D02*
X151082561Y-88238094D01*
X151082561Y-88238094D02*
X151130180Y-88142856D01*
X151130180Y-88142856D02*
X151130180Y-87904761D01*
X151130180Y-87904761D02*
X151082561Y-87809523D01*
X151082561Y-87809523D02*
X151034942Y-87761904D01*
X151034942Y-87761904D02*
X150939704Y-87714285D01*
X150939704Y-87714285D02*
X150844466Y-87714285D01*
X150844466Y-87714285D02*
X150701609Y-87761904D01*
X150701609Y-87761904D02*
X150130180Y-88333332D01*
X150130180Y-88333332D02*
X150130180Y-87714285D01*
X151130180Y-86809523D02*
X151130180Y-87285713D01*
X151130180Y-87285713D02*
X150653990Y-87333332D01*
X150653990Y-87333332D02*
X150701609Y-87285713D01*
X150701609Y-87285713D02*
X150749228Y-87190475D01*
X150749228Y-87190475D02*
X150749228Y-86952380D01*
X150749228Y-86952380D02*
X150701609Y-86857142D01*
X150701609Y-86857142D02*
X150653990Y-86809523D01*
X150653990Y-86809523D02*
X150558752Y-86761904D01*
X150558752Y-86761904D02*
X150320657Y-86761904D01*
X150320657Y-86761904D02*
X150225419Y-86809523D01*
X150225419Y-86809523D02*
X150177800Y-86857142D01*
X150177800Y-86857142D02*
X150130180Y-86952380D01*
X150130180Y-86952380D02*
X150130180Y-87190475D01*
X150130180Y-87190475D02*
X150177800Y-87285713D01*
X150177800Y-87285713D02*
X150225419Y-87333332D01*
X151254819Y-113690476D02*
X151969104Y-113690476D01*
X151969104Y-113690476D02*
X152111961Y-113642857D01*
X152111961Y-113642857D02*
X152207200Y-113547619D01*
X152207200Y-113547619D02*
X152254819Y-113404762D01*
X152254819Y-113404762D02*
X152254819Y-113309524D01*
X152254819Y-114166667D02*
X151254819Y-114166667D01*
X151254819Y-114166667D02*
X151254819Y-114547619D01*
X151254819Y-114547619D02*
X151302438Y-114642857D01*
X151302438Y-114642857D02*
X151350057Y-114690476D01*
X151350057Y-114690476D02*
X151445295Y-114738095D01*
X151445295Y-114738095D02*
X151588152Y-114738095D01*
X151588152Y-114738095D02*
X151683390Y-114690476D01*
X151683390Y-114690476D02*
X151731009Y-114642857D01*
X151731009Y-114642857D02*
X151778628Y-114547619D01*
X151778628Y-114547619D02*
X151778628Y-114166667D01*
X151350057Y-115119048D02*
X151302438Y-115166667D01*
X151302438Y-115166667D02*
X151254819Y-115261905D01*
X151254819Y-115261905D02*
X151254819Y-115500000D01*
X151254819Y-115500000D02*
X151302438Y-115595238D01*
X151302438Y-115595238D02*
X151350057Y-115642857D01*
X151350057Y-115642857D02*
X151445295Y-115690476D01*
X151445295Y-115690476D02*
X151540533Y-115690476D01*
X151540533Y-115690476D02*
X151683390Y-115642857D01*
X151683390Y-115642857D02*
X152254819Y-115071429D01*
X152254819Y-115071429D02*
X152254819Y-115690476D01*
X151254819Y-116309524D02*
X151254819Y-116404762D01*
X151254819Y-116404762D02*
X151302438Y-116500000D01*
X151302438Y-116500000D02*
X151350057Y-116547619D01*
X151350057Y-116547619D02*
X151445295Y-116595238D01*
X151445295Y-116595238D02*
X151635771Y-116642857D01*
X151635771Y-116642857D02*
X151873866Y-116642857D01*
X151873866Y-116642857D02*
X152064342Y-116595238D01*
X152064342Y-116595238D02*
X152159580Y-116547619D01*
X152159580Y-116547619D02*
X152207200Y-116500000D01*
X152207200Y-116500000D02*
X152254819Y-116404762D01*
X152254819Y-116404762D02*
X152254819Y-116309524D01*
X152254819Y-116309524D02*
X152207200Y-116214286D01*
X152207200Y-116214286D02*
X152159580Y-116166667D01*
X152159580Y-116166667D02*
X152064342Y-116119048D01*
X152064342Y-116119048D02*
X151873866Y-116071429D01*
X151873866Y-116071429D02*
X151635771Y-116071429D01*
X151635771Y-116071429D02*
X151445295Y-116119048D01*
X151445295Y-116119048D02*
X151350057Y-116166667D01*
X151350057Y-116166667D02*
X151302438Y-116214286D01*
X151302438Y-116214286D02*
X151254819Y-116309524D01*
X135709523Y-103854819D02*
X135709523Y-104569104D01*
X135709523Y-104569104D02*
X135757142Y-104711961D01*
X135757142Y-104711961D02*
X135852380Y-104807200D01*
X135852380Y-104807200D02*
X135995237Y-104854819D01*
X135995237Y-104854819D02*
X136090475Y-104854819D01*
X135233332Y-104854819D02*
X135233332Y-103854819D01*
X135233332Y-103854819D02*
X134852380Y-103854819D01*
X134852380Y-103854819D02*
X134757142Y-103902438D01*
X134757142Y-103902438D02*
X134709523Y-103950057D01*
X134709523Y-103950057D02*
X134661904Y-104045295D01*
X134661904Y-104045295D02*
X134661904Y-104188152D01*
X134661904Y-104188152D02*
X134709523Y-104283390D01*
X134709523Y-104283390D02*
X134757142Y-104331009D01*
X134757142Y-104331009D02*
X134852380Y-104378628D01*
X134852380Y-104378628D02*
X135233332Y-104378628D01*
X133709523Y-104854819D02*
X134280951Y-104854819D01*
X133995237Y-104854819D02*
X133995237Y-103854819D01*
X133995237Y-103854819D02*
X134090475Y-103997676D01*
X134090475Y-103997676D02*
X134185713Y-104092914D01*
X134185713Y-104092914D02*
X134280951Y-104140533D01*
X132852380Y-104188152D02*
X132852380Y-104854819D01*
X133090475Y-103807200D02*
X133328570Y-104521485D01*
X133328570Y-104521485D02*
X132709523Y-104521485D01*
X134833333Y-83054819D02*
X134833333Y-83769104D01*
X134833333Y-83769104D02*
X134880952Y-83911961D01*
X134880952Y-83911961D02*
X134976190Y-84007200D01*
X134976190Y-84007200D02*
X135119047Y-84054819D01*
X135119047Y-84054819D02*
X135214285Y-84054819D01*
X134357142Y-84054819D02*
X134357142Y-83054819D01*
X134357142Y-83054819D02*
X133976190Y-83054819D01*
X133976190Y-83054819D02*
X133880952Y-83102438D01*
X133880952Y-83102438D02*
X133833333Y-83150057D01*
X133833333Y-83150057D02*
X133785714Y-83245295D01*
X133785714Y-83245295D02*
X133785714Y-83388152D01*
X133785714Y-83388152D02*
X133833333Y-83483390D01*
X133833333Y-83483390D02*
X133880952Y-83531009D01*
X133880952Y-83531009D02*
X133976190Y-83578628D01*
X133976190Y-83578628D02*
X134357142Y-83578628D01*
X132928571Y-83054819D02*
X133119047Y-83054819D01*
X133119047Y-83054819D02*
X133214285Y-83102438D01*
X133214285Y-83102438D02*
X133261904Y-83150057D01*
X133261904Y-83150057D02*
X133357142Y-83292914D01*
X133357142Y-83292914D02*
X133404761Y-83483390D01*
X133404761Y-83483390D02*
X133404761Y-83864342D01*
X133404761Y-83864342D02*
X133357142Y-83959580D01*
X133357142Y-83959580D02*
X133309523Y-84007200D01*
X133309523Y-84007200D02*
X133214285Y-84054819D01*
X133214285Y-84054819D02*
X133023809Y-84054819D01*
X133023809Y-84054819D02*
X132928571Y-84007200D01*
X132928571Y-84007200D02*
X132880952Y-83959580D01*
X132880952Y-83959580D02*
X132833333Y-83864342D01*
X132833333Y-83864342D02*
X132833333Y-83626247D01*
X132833333Y-83626247D02*
X132880952Y-83531009D01*
X132880952Y-83531009D02*
X132928571Y-83483390D01*
X132928571Y-83483390D02*
X133023809Y-83435771D01*
X133023809Y-83435771D02*
X133214285Y-83435771D01*
X133214285Y-83435771D02*
X133309523Y-83483390D01*
X133309523Y-83483390D02*
X133357142Y-83531009D01*
X133357142Y-83531009D02*
X133404761Y-83626247D01*
X135709523Y-106454819D02*
X135709523Y-107169104D01*
X135709523Y-107169104D02*
X135757142Y-107311961D01*
X135757142Y-107311961D02*
X135852380Y-107407200D01*
X135852380Y-107407200D02*
X135995237Y-107454819D01*
X135995237Y-107454819D02*
X136090475Y-107454819D01*
X135233332Y-107454819D02*
X135233332Y-106454819D01*
X135233332Y-106454819D02*
X134852380Y-106454819D01*
X134852380Y-106454819D02*
X134757142Y-106502438D01*
X134757142Y-106502438D02*
X134709523Y-106550057D01*
X134709523Y-106550057D02*
X134661904Y-106645295D01*
X134661904Y-106645295D02*
X134661904Y-106788152D01*
X134661904Y-106788152D02*
X134709523Y-106883390D01*
X134709523Y-106883390D02*
X134757142Y-106931009D01*
X134757142Y-106931009D02*
X134852380Y-106978628D01*
X134852380Y-106978628D02*
X135233332Y-106978628D01*
X133709523Y-107454819D02*
X134280951Y-107454819D01*
X133995237Y-107454819D02*
X133995237Y-106454819D01*
X133995237Y-106454819D02*
X134090475Y-106597676D01*
X134090475Y-106597676D02*
X134185713Y-106692914D01*
X134185713Y-106692914D02*
X134280951Y-106740533D01*
X132804761Y-106454819D02*
X133280951Y-106454819D01*
X133280951Y-106454819D02*
X133328570Y-106931009D01*
X133328570Y-106931009D02*
X133280951Y-106883390D01*
X133280951Y-106883390D02*
X133185713Y-106835771D01*
X133185713Y-106835771D02*
X132947618Y-106835771D01*
X132947618Y-106835771D02*
X132852380Y-106883390D01*
X132852380Y-106883390D02*
X132804761Y-106931009D01*
X132804761Y-106931009D02*
X132757142Y-107026247D01*
X132757142Y-107026247D02*
X132757142Y-107264342D01*
X132757142Y-107264342D02*
X132804761Y-107359580D01*
X132804761Y-107359580D02*
X132852380Y-107407200D01*
X132852380Y-107407200D02*
X132947618Y-107454819D01*
X132947618Y-107454819D02*
X133185713Y-107454819D01*
X133185713Y-107454819D02*
X133280951Y-107407200D01*
X133280951Y-107407200D02*
X133328570Y-107359580D01*
X145454819Y-77266666D02*
X146169104Y-77266666D01*
X146169104Y-77266666D02*
X146311961Y-77219047D01*
X146311961Y-77219047D02*
X146407200Y-77123809D01*
X146407200Y-77123809D02*
X146454819Y-76980952D01*
X146454819Y-76980952D02*
X146454819Y-76885714D01*
X145550057Y-77695238D02*
X145502438Y-77742857D01*
X145502438Y-77742857D02*
X145454819Y-77838095D01*
X145454819Y-77838095D02*
X145454819Y-78076190D01*
X145454819Y-78076190D02*
X145502438Y-78171428D01*
X145502438Y-78171428D02*
X145550057Y-78219047D01*
X145550057Y-78219047D02*
X145645295Y-78266666D01*
X145645295Y-78266666D02*
X145740533Y-78266666D01*
X145740533Y-78266666D02*
X145883390Y-78219047D01*
X145883390Y-78219047D02*
X146454819Y-77647619D01*
X146454819Y-77647619D02*
X146454819Y-78266666D01*
X146454819Y-97066666D02*
X147169104Y-97066666D01*
X147169104Y-97066666D02*
X147311961Y-97019047D01*
X147311961Y-97019047D02*
X147407200Y-96923809D01*
X147407200Y-96923809D02*
X147454819Y-96780952D01*
X147454819Y-96780952D02*
X147454819Y-96685714D01*
X146454819Y-97447619D02*
X146454819Y-98114285D01*
X146454819Y-98114285D02*
X147454819Y-97685714D01*
X146454819Y-100466666D02*
X147169104Y-100466666D01*
X147169104Y-100466666D02*
X147311961Y-100419047D01*
X147311961Y-100419047D02*
X147407200Y-100323809D01*
X147407200Y-100323809D02*
X147454819Y-100180952D01*
X147454819Y-100180952D02*
X147454819Y-100085714D01*
X146883390Y-101085714D02*
X146835771Y-100990476D01*
X146835771Y-100990476D02*
X146788152Y-100942857D01*
X146788152Y-100942857D02*
X146692914Y-100895238D01*
X146692914Y-100895238D02*
X146645295Y-100895238D01*
X146645295Y-100895238D02*
X146550057Y-100942857D01*
X146550057Y-100942857D02*
X146502438Y-100990476D01*
X146502438Y-100990476D02*
X146454819Y-101085714D01*
X146454819Y-101085714D02*
X146454819Y-101276190D01*
X146454819Y-101276190D02*
X146502438Y-101371428D01*
X146502438Y-101371428D02*
X146550057Y-101419047D01*
X146550057Y-101419047D02*
X146645295Y-101466666D01*
X146645295Y-101466666D02*
X146692914Y-101466666D01*
X146692914Y-101466666D02*
X146788152Y-101419047D01*
X146788152Y-101419047D02*
X146835771Y-101371428D01*
X146835771Y-101371428D02*
X146883390Y-101276190D01*
X146883390Y-101276190D02*
X146883390Y-101085714D01*
X146883390Y-101085714D02*
X146931009Y-100990476D01*
X146931009Y-100990476D02*
X146978628Y-100942857D01*
X146978628Y-100942857D02*
X147073866Y-100895238D01*
X147073866Y-100895238D02*
X147264342Y-100895238D01*
X147264342Y-100895238D02*
X147359580Y-100942857D01*
X147359580Y-100942857D02*
X147407200Y-100990476D01*
X147407200Y-100990476D02*
X147454819Y-101085714D01*
X147454819Y-101085714D02*
X147454819Y-101276190D01*
X147454819Y-101276190D02*
X147407200Y-101371428D01*
X147407200Y-101371428D02*
X147359580Y-101419047D01*
X147359580Y-101419047D02*
X147264342Y-101466666D01*
X147264342Y-101466666D02*
X147073866Y-101466666D01*
X147073866Y-101466666D02*
X146978628Y-101419047D01*
X146978628Y-101419047D02*
X146931009Y-101371428D01*
X146931009Y-101371428D02*
X146883390Y-101276190D01*
X134833333Y-88254819D02*
X134833333Y-88969104D01*
X134833333Y-88969104D02*
X134880952Y-89111961D01*
X134880952Y-89111961D02*
X134976190Y-89207200D01*
X134976190Y-89207200D02*
X135119047Y-89254819D01*
X135119047Y-89254819D02*
X135214285Y-89254819D01*
X134357142Y-89254819D02*
X134357142Y-88254819D01*
X134357142Y-88254819D02*
X133976190Y-88254819D01*
X133976190Y-88254819D02*
X133880952Y-88302438D01*
X133880952Y-88302438D02*
X133833333Y-88350057D01*
X133833333Y-88350057D02*
X133785714Y-88445295D01*
X133785714Y-88445295D02*
X133785714Y-88588152D01*
X133785714Y-88588152D02*
X133833333Y-88683390D01*
X133833333Y-88683390D02*
X133880952Y-88731009D01*
X133880952Y-88731009D02*
X133976190Y-88778628D01*
X133976190Y-88778628D02*
X134357142Y-88778628D01*
X133214285Y-88683390D02*
X133309523Y-88635771D01*
X133309523Y-88635771D02*
X133357142Y-88588152D01*
X133357142Y-88588152D02*
X133404761Y-88492914D01*
X133404761Y-88492914D02*
X133404761Y-88445295D01*
X133404761Y-88445295D02*
X133357142Y-88350057D01*
X133357142Y-88350057D02*
X133309523Y-88302438D01*
X133309523Y-88302438D02*
X133214285Y-88254819D01*
X133214285Y-88254819D02*
X133023809Y-88254819D01*
X133023809Y-88254819D02*
X132928571Y-88302438D01*
X132928571Y-88302438D02*
X132880952Y-88350057D01*
X132880952Y-88350057D02*
X132833333Y-88445295D01*
X132833333Y-88445295D02*
X132833333Y-88492914D01*
X132833333Y-88492914D02*
X132880952Y-88588152D01*
X132880952Y-88588152D02*
X132928571Y-88635771D01*
X132928571Y-88635771D02*
X133023809Y-88683390D01*
X133023809Y-88683390D02*
X133214285Y-88683390D01*
X133214285Y-88683390D02*
X133309523Y-88731009D01*
X133309523Y-88731009D02*
X133357142Y-88778628D01*
X133357142Y-88778628D02*
X133404761Y-88873866D01*
X133404761Y-88873866D02*
X133404761Y-89064342D01*
X133404761Y-89064342D02*
X133357142Y-89159580D01*
X133357142Y-89159580D02*
X133309523Y-89207200D01*
X133309523Y-89207200D02*
X133214285Y-89254819D01*
X133214285Y-89254819D02*
X133023809Y-89254819D01*
X133023809Y-89254819D02*
X132928571Y-89207200D01*
X132928571Y-89207200D02*
X132880952Y-89159580D01*
X132880952Y-89159580D02*
X132833333Y-89064342D01*
X132833333Y-89064342D02*
X132833333Y-88873866D01*
X132833333Y-88873866D02*
X132880952Y-88778628D01*
X132880952Y-88778628D02*
X132928571Y-88731009D01*
X132928571Y-88731009D02*
X133023809Y-88683390D01*
X135709523Y-116854819D02*
X135709523Y-117569104D01*
X135709523Y-117569104D02*
X135757142Y-117711961D01*
X135757142Y-117711961D02*
X135852380Y-117807200D01*
X135852380Y-117807200D02*
X135995237Y-117854819D01*
X135995237Y-117854819D02*
X136090475Y-117854819D01*
X135233332Y-117854819D02*
X135233332Y-116854819D01*
X135233332Y-116854819D02*
X134852380Y-116854819D01*
X134852380Y-116854819D02*
X134757142Y-116902438D01*
X134757142Y-116902438D02*
X134709523Y-116950057D01*
X134709523Y-116950057D02*
X134661904Y-117045295D01*
X134661904Y-117045295D02*
X134661904Y-117188152D01*
X134661904Y-117188152D02*
X134709523Y-117283390D01*
X134709523Y-117283390D02*
X134757142Y-117331009D01*
X134757142Y-117331009D02*
X134852380Y-117378628D01*
X134852380Y-117378628D02*
X135233332Y-117378628D01*
X133709523Y-117854819D02*
X134280951Y-117854819D01*
X133995237Y-117854819D02*
X133995237Y-116854819D01*
X133995237Y-116854819D02*
X134090475Y-116997676D01*
X134090475Y-116997676D02*
X134185713Y-117092914D01*
X134185713Y-117092914D02*
X134280951Y-117140533D01*
X133233332Y-117854819D02*
X133042856Y-117854819D01*
X133042856Y-117854819D02*
X132947618Y-117807200D01*
X132947618Y-117807200D02*
X132899999Y-117759580D01*
X132899999Y-117759580D02*
X132804761Y-117616723D01*
X132804761Y-117616723D02*
X132757142Y-117426247D01*
X132757142Y-117426247D02*
X132757142Y-117045295D01*
X132757142Y-117045295D02*
X132804761Y-116950057D01*
X132804761Y-116950057D02*
X132852380Y-116902438D01*
X132852380Y-116902438D02*
X132947618Y-116854819D01*
X132947618Y-116854819D02*
X133138094Y-116854819D01*
X133138094Y-116854819D02*
X133233332Y-116902438D01*
X133233332Y-116902438D02*
X133280951Y-116950057D01*
X133280951Y-116950057D02*
X133328570Y-117045295D01*
X133328570Y-117045295D02*
X133328570Y-117283390D01*
X133328570Y-117283390D02*
X133280951Y-117378628D01*
X133280951Y-117378628D02*
X133233332Y-117426247D01*
X133233332Y-117426247D02*
X133138094Y-117473866D01*
X133138094Y-117473866D02*
X132947618Y-117473866D01*
X132947618Y-117473866D02*
X132852380Y-117426247D01*
X132852380Y-117426247D02*
X132804761Y-117378628D01*
X132804761Y-117378628D02*
X132757142Y-117283390D01*
X146454819Y-90066666D02*
X147169104Y-90066666D01*
X147169104Y-90066666D02*
X147311961Y-90019047D01*
X147311961Y-90019047D02*
X147407200Y-89923809D01*
X147407200Y-89923809D02*
X147454819Y-89780952D01*
X147454819Y-89780952D02*
X147454819Y-89685714D01*
X146454819Y-91019047D02*
X146454819Y-90542857D01*
X146454819Y-90542857D02*
X146931009Y-90495238D01*
X146931009Y-90495238D02*
X146883390Y-90542857D01*
X146883390Y-90542857D02*
X146835771Y-90638095D01*
X146835771Y-90638095D02*
X146835771Y-90876190D01*
X146835771Y-90876190D02*
X146883390Y-90971428D01*
X146883390Y-90971428D02*
X146931009Y-91019047D01*
X146931009Y-91019047D02*
X147026247Y-91066666D01*
X147026247Y-91066666D02*
X147264342Y-91066666D01*
X147264342Y-91066666D02*
X147359580Y-91019047D01*
X147359580Y-91019047D02*
X147407200Y-90971428D01*
X147407200Y-90971428D02*
X147454819Y-90876190D01*
X147454819Y-90876190D02*
X147454819Y-90638095D01*
X147454819Y-90638095D02*
X147407200Y-90542857D01*
X147407200Y-90542857D02*
X147359580Y-90495238D01*
X134833333Y-80454819D02*
X134833333Y-81169104D01*
X134833333Y-81169104D02*
X134880952Y-81311961D01*
X134880952Y-81311961D02*
X134976190Y-81407200D01*
X134976190Y-81407200D02*
X135119047Y-81454819D01*
X135119047Y-81454819D02*
X135214285Y-81454819D01*
X134357142Y-81454819D02*
X134357142Y-80454819D01*
X134357142Y-80454819D02*
X133976190Y-80454819D01*
X133976190Y-80454819D02*
X133880952Y-80502438D01*
X133880952Y-80502438D02*
X133833333Y-80550057D01*
X133833333Y-80550057D02*
X133785714Y-80645295D01*
X133785714Y-80645295D02*
X133785714Y-80788152D01*
X133785714Y-80788152D02*
X133833333Y-80883390D01*
X133833333Y-80883390D02*
X133880952Y-80931009D01*
X133880952Y-80931009D02*
X133976190Y-80978628D01*
X133976190Y-80978628D02*
X134357142Y-80978628D01*
X132880952Y-80454819D02*
X133357142Y-80454819D01*
X133357142Y-80454819D02*
X133404761Y-80931009D01*
X133404761Y-80931009D02*
X133357142Y-80883390D01*
X133357142Y-80883390D02*
X133261904Y-80835771D01*
X133261904Y-80835771D02*
X133023809Y-80835771D01*
X133023809Y-80835771D02*
X132928571Y-80883390D01*
X132928571Y-80883390D02*
X132880952Y-80931009D01*
X132880952Y-80931009D02*
X132833333Y-81026247D01*
X132833333Y-81026247D02*
X132833333Y-81264342D01*
X132833333Y-81264342D02*
X132880952Y-81359580D01*
X132880952Y-81359580D02*
X132928571Y-81407200D01*
X132928571Y-81407200D02*
X133023809Y-81454819D01*
X133023809Y-81454819D02*
X133261904Y-81454819D01*
X133261904Y-81454819D02*
X133357142Y-81407200D01*
X133357142Y-81407200D02*
X133404761Y-81359580D01*
X135709523Y-93454819D02*
X135709523Y-94169104D01*
X135709523Y-94169104D02*
X135757142Y-94311961D01*
X135757142Y-94311961D02*
X135852380Y-94407200D01*
X135852380Y-94407200D02*
X135995237Y-94454819D01*
X135995237Y-94454819D02*
X136090475Y-94454819D01*
X135233332Y-94454819D02*
X135233332Y-93454819D01*
X135233332Y-93454819D02*
X134852380Y-93454819D01*
X134852380Y-93454819D02*
X134757142Y-93502438D01*
X134757142Y-93502438D02*
X134709523Y-93550057D01*
X134709523Y-93550057D02*
X134661904Y-93645295D01*
X134661904Y-93645295D02*
X134661904Y-93788152D01*
X134661904Y-93788152D02*
X134709523Y-93883390D01*
X134709523Y-93883390D02*
X134757142Y-93931009D01*
X134757142Y-93931009D02*
X134852380Y-93978628D01*
X134852380Y-93978628D02*
X135233332Y-93978628D01*
X133709523Y-94454819D02*
X134280951Y-94454819D01*
X133995237Y-94454819D02*
X133995237Y-93454819D01*
X133995237Y-93454819D02*
X134090475Y-93597676D01*
X134090475Y-93597676D02*
X134185713Y-93692914D01*
X134185713Y-93692914D02*
X134280951Y-93740533D01*
X133090475Y-93454819D02*
X132995237Y-93454819D01*
X132995237Y-93454819D02*
X132899999Y-93502438D01*
X132899999Y-93502438D02*
X132852380Y-93550057D01*
X132852380Y-93550057D02*
X132804761Y-93645295D01*
X132804761Y-93645295D02*
X132757142Y-93835771D01*
X132757142Y-93835771D02*
X132757142Y-94073866D01*
X132757142Y-94073866D02*
X132804761Y-94264342D01*
X132804761Y-94264342D02*
X132852380Y-94359580D01*
X132852380Y-94359580D02*
X132899999Y-94407200D01*
X132899999Y-94407200D02*
X132995237Y-94454819D01*
X132995237Y-94454819D02*
X133090475Y-94454819D01*
X133090475Y-94454819D02*
X133185713Y-94407200D01*
X133185713Y-94407200D02*
X133233332Y-94359580D01*
X133233332Y-94359580D02*
X133280951Y-94264342D01*
X133280951Y-94264342D02*
X133328570Y-94073866D01*
X133328570Y-94073866D02*
X133328570Y-93835771D01*
X133328570Y-93835771D02*
X133280951Y-93645295D01*
X133280951Y-93645295D02*
X133233332Y-93550057D01*
X133233332Y-93550057D02*
X133185713Y-93502438D01*
X133185713Y-93502438D02*
X133090475Y-93454819D01*
X138654819Y-74090475D02*
X139369104Y-74090475D01*
X139369104Y-74090475D02*
X139511961Y-74042856D01*
X139511961Y-74042856D02*
X139607200Y-73947618D01*
X139607200Y-73947618D02*
X139654819Y-73804761D01*
X139654819Y-73804761D02*
X139654819Y-73709523D01*
X139654819Y-75090475D02*
X139654819Y-74519047D01*
X139654819Y-74804761D02*
X138654819Y-74804761D01*
X138654819Y-74804761D02*
X138797676Y-74709523D01*
X138797676Y-74709523D02*
X138892914Y-74614285D01*
X138892914Y-74614285D02*
X138940533Y-74519047D01*
X138750057Y-75471428D02*
X138702438Y-75519047D01*
X138702438Y-75519047D02*
X138654819Y-75614285D01*
X138654819Y-75614285D02*
X138654819Y-75852380D01*
X138654819Y-75852380D02*
X138702438Y-75947618D01*
X138702438Y-75947618D02*
X138750057Y-75995237D01*
X138750057Y-75995237D02*
X138845295Y-76042856D01*
X138845295Y-76042856D02*
X138940533Y-76042856D01*
X138940533Y-76042856D02*
X139083390Y-75995237D01*
X139083390Y-75995237D02*
X139654819Y-75423809D01*
X139654819Y-75423809D02*
X139654819Y-76042856D01*
X134833333Y-85654819D02*
X134833333Y-86369104D01*
X134833333Y-86369104D02*
X134880952Y-86511961D01*
X134880952Y-86511961D02*
X134976190Y-86607200D01*
X134976190Y-86607200D02*
X135119047Y-86654819D01*
X135119047Y-86654819D02*
X135214285Y-86654819D01*
X134357142Y-86654819D02*
X134357142Y-85654819D01*
X134357142Y-85654819D02*
X133976190Y-85654819D01*
X133976190Y-85654819D02*
X133880952Y-85702438D01*
X133880952Y-85702438D02*
X133833333Y-85750057D01*
X133833333Y-85750057D02*
X133785714Y-85845295D01*
X133785714Y-85845295D02*
X133785714Y-85988152D01*
X133785714Y-85988152D02*
X133833333Y-86083390D01*
X133833333Y-86083390D02*
X133880952Y-86131009D01*
X133880952Y-86131009D02*
X133976190Y-86178628D01*
X133976190Y-86178628D02*
X134357142Y-86178628D01*
X133452380Y-85654819D02*
X132785714Y-85654819D01*
X132785714Y-85654819D02*
X133214285Y-86654819D01*
X135709523Y-101254819D02*
X135709523Y-101969104D01*
X135709523Y-101969104D02*
X135757142Y-102111961D01*
X135757142Y-102111961D02*
X135852380Y-102207200D01*
X135852380Y-102207200D02*
X135995237Y-102254819D01*
X135995237Y-102254819D02*
X136090475Y-102254819D01*
X135233332Y-102254819D02*
X135233332Y-101254819D01*
X135233332Y-101254819D02*
X134852380Y-101254819D01*
X134852380Y-101254819D02*
X134757142Y-101302438D01*
X134757142Y-101302438D02*
X134709523Y-101350057D01*
X134709523Y-101350057D02*
X134661904Y-101445295D01*
X134661904Y-101445295D02*
X134661904Y-101588152D01*
X134661904Y-101588152D02*
X134709523Y-101683390D01*
X134709523Y-101683390D02*
X134757142Y-101731009D01*
X134757142Y-101731009D02*
X134852380Y-101778628D01*
X134852380Y-101778628D02*
X135233332Y-101778628D01*
X133709523Y-102254819D02*
X134280951Y-102254819D01*
X133995237Y-102254819D02*
X133995237Y-101254819D01*
X133995237Y-101254819D02*
X134090475Y-101397676D01*
X134090475Y-101397676D02*
X134185713Y-101492914D01*
X134185713Y-101492914D02*
X134280951Y-101540533D01*
X133376189Y-101254819D02*
X132757142Y-101254819D01*
X132757142Y-101254819D02*
X133090475Y-101635771D01*
X133090475Y-101635771D02*
X132947618Y-101635771D01*
X132947618Y-101635771D02*
X132852380Y-101683390D01*
X132852380Y-101683390D02*
X132804761Y-101731009D01*
X132804761Y-101731009D02*
X132757142Y-101826247D01*
X132757142Y-101826247D02*
X132757142Y-102064342D01*
X132757142Y-102064342D02*
X132804761Y-102159580D01*
X132804761Y-102159580D02*
X132852380Y-102207200D01*
X132852380Y-102207200D02*
X132947618Y-102254819D01*
X132947618Y-102254819D02*
X133233332Y-102254819D01*
X133233332Y-102254819D02*
X133328570Y-102207200D01*
X133328570Y-102207200D02*
X133376189Y-102159580D01*
X135709523Y-109054819D02*
X135709523Y-109769104D01*
X135709523Y-109769104D02*
X135757142Y-109911961D01*
X135757142Y-109911961D02*
X135852380Y-110007200D01*
X135852380Y-110007200D02*
X135995237Y-110054819D01*
X135995237Y-110054819D02*
X136090475Y-110054819D01*
X135233332Y-110054819D02*
X135233332Y-109054819D01*
X135233332Y-109054819D02*
X134852380Y-109054819D01*
X134852380Y-109054819D02*
X134757142Y-109102438D01*
X134757142Y-109102438D02*
X134709523Y-109150057D01*
X134709523Y-109150057D02*
X134661904Y-109245295D01*
X134661904Y-109245295D02*
X134661904Y-109388152D01*
X134661904Y-109388152D02*
X134709523Y-109483390D01*
X134709523Y-109483390D02*
X134757142Y-109531009D01*
X134757142Y-109531009D02*
X134852380Y-109578628D01*
X134852380Y-109578628D02*
X135233332Y-109578628D01*
X133709523Y-110054819D02*
X134280951Y-110054819D01*
X133995237Y-110054819D02*
X133995237Y-109054819D01*
X133995237Y-109054819D02*
X134090475Y-109197676D01*
X134090475Y-109197676D02*
X134185713Y-109292914D01*
X134185713Y-109292914D02*
X134280951Y-109340533D01*
X132852380Y-109054819D02*
X133042856Y-109054819D01*
X133042856Y-109054819D02*
X133138094Y-109102438D01*
X133138094Y-109102438D02*
X133185713Y-109150057D01*
X133185713Y-109150057D02*
X133280951Y-109292914D01*
X133280951Y-109292914D02*
X133328570Y-109483390D01*
X133328570Y-109483390D02*
X133328570Y-109864342D01*
X133328570Y-109864342D02*
X133280951Y-109959580D01*
X133280951Y-109959580D02*
X133233332Y-110007200D01*
X133233332Y-110007200D02*
X133138094Y-110054819D01*
X133138094Y-110054819D02*
X132947618Y-110054819D01*
X132947618Y-110054819D02*
X132852380Y-110007200D01*
X132852380Y-110007200D02*
X132804761Y-109959580D01*
X132804761Y-109959580D02*
X132757142Y-109864342D01*
X132757142Y-109864342D02*
X132757142Y-109626247D01*
X132757142Y-109626247D02*
X132804761Y-109531009D01*
X132804761Y-109531009D02*
X132852380Y-109483390D01*
X132852380Y-109483390D02*
X132947618Y-109435771D01*
X132947618Y-109435771D02*
X133138094Y-109435771D01*
X133138094Y-109435771D02*
X133233332Y-109483390D01*
X133233332Y-109483390D02*
X133280951Y-109531009D01*
X133280951Y-109531009D02*
X133328570Y-109626247D01*
X134633333Y-70054819D02*
X134633333Y-70769104D01*
X134633333Y-70769104D02*
X134680952Y-70911961D01*
X134680952Y-70911961D02*
X134776190Y-71007200D01*
X134776190Y-71007200D02*
X134919047Y-71054819D01*
X134919047Y-71054819D02*
X135014285Y-71054819D01*
X134157142Y-71054819D02*
X134157142Y-70054819D01*
X134157142Y-70054819D02*
X133776190Y-70054819D01*
X133776190Y-70054819D02*
X133680952Y-70102438D01*
X133680952Y-70102438D02*
X133633333Y-70150057D01*
X133633333Y-70150057D02*
X133585714Y-70245295D01*
X133585714Y-70245295D02*
X133585714Y-70388152D01*
X133585714Y-70388152D02*
X133633333Y-70483390D01*
X133633333Y-70483390D02*
X133680952Y-70531009D01*
X133680952Y-70531009D02*
X133776190Y-70578628D01*
X133776190Y-70578628D02*
X134157142Y-70578628D01*
X132633333Y-71054819D02*
X133204761Y-71054819D01*
X132919047Y-71054819D02*
X132919047Y-70054819D01*
X132919047Y-70054819D02*
X133014285Y-70197676D01*
X133014285Y-70197676D02*
X133109523Y-70292914D01*
X133109523Y-70292914D02*
X133204761Y-70340533D01*
X146454819Y-93566665D02*
X147169104Y-93566665D01*
X147169104Y-93566665D02*
X147311961Y-93519046D01*
X147311961Y-93519046D02*
X147407200Y-93423808D01*
X147407200Y-93423808D02*
X147454819Y-93280951D01*
X147454819Y-93280951D02*
X147454819Y-93185713D01*
X146454819Y-94471427D02*
X146454819Y-94280951D01*
X146454819Y-94280951D02*
X146502438Y-94185713D01*
X146502438Y-94185713D02*
X146550057Y-94138094D01*
X146550057Y-94138094D02*
X146692914Y-94042856D01*
X146692914Y-94042856D02*
X146883390Y-93995237D01*
X146883390Y-93995237D02*
X147264342Y-93995237D01*
X147264342Y-93995237D02*
X147359580Y-94042856D01*
X147359580Y-94042856D02*
X147407200Y-94090475D01*
X147407200Y-94090475D02*
X147454819Y-94185713D01*
X147454819Y-94185713D02*
X147454819Y-94376189D01*
X147454819Y-94376189D02*
X147407200Y-94471427D01*
X147407200Y-94471427D02*
X147359580Y-94519046D01*
X147359580Y-94519046D02*
X147264342Y-94566665D01*
X147264342Y-94566665D02*
X147026247Y-94566665D01*
X147026247Y-94566665D02*
X146931009Y-94519046D01*
X146931009Y-94519046D02*
X146883390Y-94471427D01*
X146883390Y-94471427D02*
X146835771Y-94376189D01*
X146835771Y-94376189D02*
X146835771Y-94185713D01*
X146835771Y-94185713D02*
X146883390Y-94090475D01*
X146883390Y-94090475D02*
X146931009Y-94042856D01*
X146931009Y-94042856D02*
X147026247Y-93995237D01*
X134833333Y-77854819D02*
X134833333Y-78569104D01*
X134833333Y-78569104D02*
X134880952Y-78711961D01*
X134880952Y-78711961D02*
X134976190Y-78807200D01*
X134976190Y-78807200D02*
X135119047Y-78854819D01*
X135119047Y-78854819D02*
X135214285Y-78854819D01*
X134357142Y-78854819D02*
X134357142Y-77854819D01*
X134357142Y-77854819D02*
X133976190Y-77854819D01*
X133976190Y-77854819D02*
X133880952Y-77902438D01*
X133880952Y-77902438D02*
X133833333Y-77950057D01*
X133833333Y-77950057D02*
X133785714Y-78045295D01*
X133785714Y-78045295D02*
X133785714Y-78188152D01*
X133785714Y-78188152D02*
X133833333Y-78283390D01*
X133833333Y-78283390D02*
X133880952Y-78331009D01*
X133880952Y-78331009D02*
X133976190Y-78378628D01*
X133976190Y-78378628D02*
X134357142Y-78378628D01*
X132928571Y-78188152D02*
X132928571Y-78854819D01*
X133166666Y-77807200D02*
X133404761Y-78521485D01*
X133404761Y-78521485D02*
X132785714Y-78521485D01*
X135709523Y-111654819D02*
X135709523Y-112369104D01*
X135709523Y-112369104D02*
X135757142Y-112511961D01*
X135757142Y-112511961D02*
X135852380Y-112607200D01*
X135852380Y-112607200D02*
X135995237Y-112654819D01*
X135995237Y-112654819D02*
X136090475Y-112654819D01*
X135233332Y-112654819D02*
X135233332Y-111654819D01*
X135233332Y-111654819D02*
X134852380Y-111654819D01*
X134852380Y-111654819D02*
X134757142Y-111702438D01*
X134757142Y-111702438D02*
X134709523Y-111750057D01*
X134709523Y-111750057D02*
X134661904Y-111845295D01*
X134661904Y-111845295D02*
X134661904Y-111988152D01*
X134661904Y-111988152D02*
X134709523Y-112083390D01*
X134709523Y-112083390D02*
X134757142Y-112131009D01*
X134757142Y-112131009D02*
X134852380Y-112178628D01*
X134852380Y-112178628D02*
X135233332Y-112178628D01*
X133709523Y-112654819D02*
X134280951Y-112654819D01*
X133995237Y-112654819D02*
X133995237Y-111654819D01*
X133995237Y-111654819D02*
X134090475Y-111797676D01*
X134090475Y-111797676D02*
X134185713Y-111892914D01*
X134185713Y-111892914D02*
X134280951Y-111940533D01*
X133376189Y-111654819D02*
X132709523Y-111654819D01*
X132709523Y-111654819D02*
X133138094Y-112654819D01*
X135709523Y-114254819D02*
X135709523Y-114969104D01*
X135709523Y-114969104D02*
X135757142Y-115111961D01*
X135757142Y-115111961D02*
X135852380Y-115207200D01*
X135852380Y-115207200D02*
X135995237Y-115254819D01*
X135995237Y-115254819D02*
X136090475Y-115254819D01*
X135233332Y-115254819D02*
X135233332Y-114254819D01*
X135233332Y-114254819D02*
X134852380Y-114254819D01*
X134852380Y-114254819D02*
X134757142Y-114302438D01*
X134757142Y-114302438D02*
X134709523Y-114350057D01*
X134709523Y-114350057D02*
X134661904Y-114445295D01*
X134661904Y-114445295D02*
X134661904Y-114588152D01*
X134661904Y-114588152D02*
X134709523Y-114683390D01*
X134709523Y-114683390D02*
X134757142Y-114731009D01*
X134757142Y-114731009D02*
X134852380Y-114778628D01*
X134852380Y-114778628D02*
X135233332Y-114778628D01*
X133709523Y-115254819D02*
X134280951Y-115254819D01*
X133995237Y-115254819D02*
X133995237Y-114254819D01*
X133995237Y-114254819D02*
X134090475Y-114397676D01*
X134090475Y-114397676D02*
X134185713Y-114492914D01*
X134185713Y-114492914D02*
X134280951Y-114540533D01*
X133138094Y-114683390D02*
X133233332Y-114635771D01*
X133233332Y-114635771D02*
X133280951Y-114588152D01*
X133280951Y-114588152D02*
X133328570Y-114492914D01*
X133328570Y-114492914D02*
X133328570Y-114445295D01*
X133328570Y-114445295D02*
X133280951Y-114350057D01*
X133280951Y-114350057D02*
X133233332Y-114302438D01*
X133233332Y-114302438D02*
X133138094Y-114254819D01*
X133138094Y-114254819D02*
X132947618Y-114254819D01*
X132947618Y-114254819D02*
X132852380Y-114302438D01*
X132852380Y-114302438D02*
X132804761Y-114350057D01*
X132804761Y-114350057D02*
X132757142Y-114445295D01*
X132757142Y-114445295D02*
X132757142Y-114492914D01*
X132757142Y-114492914D02*
X132804761Y-114588152D01*
X132804761Y-114588152D02*
X132852380Y-114635771D01*
X132852380Y-114635771D02*
X132947618Y-114683390D01*
X132947618Y-114683390D02*
X133138094Y-114683390D01*
X133138094Y-114683390D02*
X133233332Y-114731009D01*
X133233332Y-114731009D02*
X133280951Y-114778628D01*
X133280951Y-114778628D02*
X133328570Y-114873866D01*
X133328570Y-114873866D02*
X133328570Y-115064342D01*
X133328570Y-115064342D02*
X133280951Y-115159580D01*
X133280951Y-115159580D02*
X133233332Y-115207200D01*
X133233332Y-115207200D02*
X133138094Y-115254819D01*
X133138094Y-115254819D02*
X132947618Y-115254819D01*
X132947618Y-115254819D02*
X132852380Y-115207200D01*
X132852380Y-115207200D02*
X132804761Y-115159580D01*
X132804761Y-115159580D02*
X132757142Y-115064342D01*
X132757142Y-115064342D02*
X132757142Y-114873866D01*
X132757142Y-114873866D02*
X132804761Y-114778628D01*
X132804761Y-114778628D02*
X132852380Y-114731009D01*
X132852380Y-114731009D02*
X132947618Y-114683390D01*
X135709523Y-98654819D02*
X135709523Y-99369104D01*
X135709523Y-99369104D02*
X135757142Y-99511961D01*
X135757142Y-99511961D02*
X135852380Y-99607200D01*
X135852380Y-99607200D02*
X135995237Y-99654819D01*
X135995237Y-99654819D02*
X136090475Y-99654819D01*
X135233332Y-99654819D02*
X135233332Y-98654819D01*
X135233332Y-98654819D02*
X134852380Y-98654819D01*
X134852380Y-98654819D02*
X134757142Y-98702438D01*
X134757142Y-98702438D02*
X134709523Y-98750057D01*
X134709523Y-98750057D02*
X134661904Y-98845295D01*
X134661904Y-98845295D02*
X134661904Y-98988152D01*
X134661904Y-98988152D02*
X134709523Y-99083390D01*
X134709523Y-99083390D02*
X134757142Y-99131009D01*
X134757142Y-99131009D02*
X134852380Y-99178628D01*
X134852380Y-99178628D02*
X135233332Y-99178628D01*
X133709523Y-99654819D02*
X134280951Y-99654819D01*
X133995237Y-99654819D02*
X133995237Y-98654819D01*
X133995237Y-98654819D02*
X134090475Y-98797676D01*
X134090475Y-98797676D02*
X134185713Y-98892914D01*
X134185713Y-98892914D02*
X134280951Y-98940533D01*
X133328570Y-98750057D02*
X133280951Y-98702438D01*
X133280951Y-98702438D02*
X133185713Y-98654819D01*
X133185713Y-98654819D02*
X132947618Y-98654819D01*
X132947618Y-98654819D02*
X132852380Y-98702438D01*
X132852380Y-98702438D02*
X132804761Y-98750057D01*
X132804761Y-98750057D02*
X132757142Y-98845295D01*
X132757142Y-98845295D02*
X132757142Y-98940533D01*
X132757142Y-98940533D02*
X132804761Y-99083390D01*
X132804761Y-99083390D02*
X133376189Y-99654819D01*
X133376189Y-99654819D02*
X132757142Y-99654819D01*
X145454819Y-84066666D02*
X146169104Y-84066666D01*
X146169104Y-84066666D02*
X146311961Y-84019047D01*
X146311961Y-84019047D02*
X146407200Y-83923809D01*
X146407200Y-83923809D02*
X146454819Y-83780952D01*
X146454819Y-83780952D02*
X146454819Y-83685714D01*
X145788152Y-84971428D02*
X146454819Y-84971428D01*
X145407200Y-84733333D02*
X146121485Y-84495238D01*
X146121485Y-84495238D02*
X146121485Y-85114285D01*
X134833333Y-90854819D02*
X134833333Y-91569104D01*
X134833333Y-91569104D02*
X134880952Y-91711961D01*
X134880952Y-91711961D02*
X134976190Y-91807200D01*
X134976190Y-91807200D02*
X135119047Y-91854819D01*
X135119047Y-91854819D02*
X135214285Y-91854819D01*
X134357142Y-91854819D02*
X134357142Y-90854819D01*
X134357142Y-90854819D02*
X133976190Y-90854819D01*
X133976190Y-90854819D02*
X133880952Y-90902438D01*
X133880952Y-90902438D02*
X133833333Y-90950057D01*
X133833333Y-90950057D02*
X133785714Y-91045295D01*
X133785714Y-91045295D02*
X133785714Y-91188152D01*
X133785714Y-91188152D02*
X133833333Y-91283390D01*
X133833333Y-91283390D02*
X133880952Y-91331009D01*
X133880952Y-91331009D02*
X133976190Y-91378628D01*
X133976190Y-91378628D02*
X134357142Y-91378628D01*
X133309523Y-91854819D02*
X133119047Y-91854819D01*
X133119047Y-91854819D02*
X133023809Y-91807200D01*
X133023809Y-91807200D02*
X132976190Y-91759580D01*
X132976190Y-91759580D02*
X132880952Y-91616723D01*
X132880952Y-91616723D02*
X132833333Y-91426247D01*
X132833333Y-91426247D02*
X132833333Y-91045295D01*
X132833333Y-91045295D02*
X132880952Y-90950057D01*
X132880952Y-90950057D02*
X132928571Y-90902438D01*
X132928571Y-90902438D02*
X133023809Y-90854819D01*
X133023809Y-90854819D02*
X133214285Y-90854819D01*
X133214285Y-90854819D02*
X133309523Y-90902438D01*
X133309523Y-90902438D02*
X133357142Y-90950057D01*
X133357142Y-90950057D02*
X133404761Y-91045295D01*
X133404761Y-91045295D02*
X133404761Y-91283390D01*
X133404761Y-91283390D02*
X133357142Y-91378628D01*
X133357142Y-91378628D02*
X133309523Y-91426247D01*
X133309523Y-91426247D02*
X133214285Y-91473866D01*
X133214285Y-91473866D02*
X133023809Y-91473866D01*
X133023809Y-91473866D02*
X132928571Y-91426247D01*
X132928571Y-91426247D02*
X132880952Y-91378628D01*
X132880952Y-91378628D02*
X132833333Y-91283390D01*
X145454819Y-80666666D02*
X146169104Y-80666666D01*
X146169104Y-80666666D02*
X146311961Y-80619047D01*
X146311961Y-80619047D02*
X146407200Y-80523809D01*
X146407200Y-80523809D02*
X146454819Y-80380952D01*
X146454819Y-80380952D02*
X146454819Y-80285714D01*
X145454819Y-81047619D02*
X145454819Y-81666666D01*
X145454819Y-81666666D02*
X145835771Y-81333333D01*
X145835771Y-81333333D02*
X145835771Y-81476190D01*
X145835771Y-81476190D02*
X145883390Y-81571428D01*
X145883390Y-81571428D02*
X145931009Y-81619047D01*
X145931009Y-81619047D02*
X146026247Y-81666666D01*
X146026247Y-81666666D02*
X146264342Y-81666666D01*
X146264342Y-81666666D02*
X146359580Y-81619047D01*
X146359580Y-81619047D02*
X146407200Y-81571428D01*
X146407200Y-81571428D02*
X146454819Y-81476190D01*
X146454819Y-81476190D02*
X146454819Y-81190476D01*
X146454819Y-81190476D02*
X146407200Y-81095238D01*
X146407200Y-81095238D02*
X146359580Y-81047619D01*
X134833333Y-72654819D02*
X134833333Y-73369104D01*
X134833333Y-73369104D02*
X134880952Y-73511961D01*
X134880952Y-73511961D02*
X134976190Y-73607200D01*
X134976190Y-73607200D02*
X135119047Y-73654819D01*
X135119047Y-73654819D02*
X135214285Y-73654819D01*
X134357142Y-73654819D02*
X134357142Y-72654819D01*
X134357142Y-72654819D02*
X133976190Y-72654819D01*
X133976190Y-72654819D02*
X133880952Y-72702438D01*
X133880952Y-72702438D02*
X133833333Y-72750057D01*
X133833333Y-72750057D02*
X133785714Y-72845295D01*
X133785714Y-72845295D02*
X133785714Y-72988152D01*
X133785714Y-72988152D02*
X133833333Y-73083390D01*
X133833333Y-73083390D02*
X133880952Y-73131009D01*
X133880952Y-73131009D02*
X133976190Y-73178628D01*
X133976190Y-73178628D02*
X134357142Y-73178628D01*
X133404761Y-72750057D02*
X133357142Y-72702438D01*
X133357142Y-72702438D02*
X133261904Y-72654819D01*
X133261904Y-72654819D02*
X133023809Y-72654819D01*
X133023809Y-72654819D02*
X132928571Y-72702438D01*
X132928571Y-72702438D02*
X132880952Y-72750057D01*
X132880952Y-72750057D02*
X132833333Y-72845295D01*
X132833333Y-72845295D02*
X132833333Y-72940533D01*
X132833333Y-72940533D02*
X132880952Y-73083390D01*
X132880952Y-73083390D02*
X133452380Y-73654819D01*
X133452380Y-73654819D02*
X132833333Y-73654819D01*
X135709523Y-96054819D02*
X135709523Y-96769104D01*
X135709523Y-96769104D02*
X135757142Y-96911961D01*
X135757142Y-96911961D02*
X135852380Y-97007200D01*
X135852380Y-97007200D02*
X135995237Y-97054819D01*
X135995237Y-97054819D02*
X136090475Y-97054819D01*
X135233332Y-97054819D02*
X135233332Y-96054819D01*
X135233332Y-96054819D02*
X134852380Y-96054819D01*
X134852380Y-96054819D02*
X134757142Y-96102438D01*
X134757142Y-96102438D02*
X134709523Y-96150057D01*
X134709523Y-96150057D02*
X134661904Y-96245295D01*
X134661904Y-96245295D02*
X134661904Y-96388152D01*
X134661904Y-96388152D02*
X134709523Y-96483390D01*
X134709523Y-96483390D02*
X134757142Y-96531009D01*
X134757142Y-96531009D02*
X134852380Y-96578628D01*
X134852380Y-96578628D02*
X135233332Y-96578628D01*
X133709523Y-97054819D02*
X134280951Y-97054819D01*
X133995237Y-97054819D02*
X133995237Y-96054819D01*
X133995237Y-96054819D02*
X134090475Y-96197676D01*
X134090475Y-96197676D02*
X134185713Y-96292914D01*
X134185713Y-96292914D02*
X134280951Y-96340533D01*
X132757142Y-97054819D02*
X133328570Y-97054819D01*
X133042856Y-97054819D02*
X133042856Y-96054819D01*
X133042856Y-96054819D02*
X133138094Y-96197676D01*
X133138094Y-96197676D02*
X133233332Y-96292914D01*
X133233332Y-96292914D02*
X133328570Y-96340533D01*
X134833333Y-75254819D02*
X134833333Y-75969104D01*
X134833333Y-75969104D02*
X134880952Y-76111961D01*
X134880952Y-76111961D02*
X134976190Y-76207200D01*
X134976190Y-76207200D02*
X135119047Y-76254819D01*
X135119047Y-76254819D02*
X135214285Y-76254819D01*
X134357142Y-76254819D02*
X134357142Y-75254819D01*
X134357142Y-75254819D02*
X133976190Y-75254819D01*
X133976190Y-75254819D02*
X133880952Y-75302438D01*
X133880952Y-75302438D02*
X133833333Y-75350057D01*
X133833333Y-75350057D02*
X133785714Y-75445295D01*
X133785714Y-75445295D02*
X133785714Y-75588152D01*
X133785714Y-75588152D02*
X133833333Y-75683390D01*
X133833333Y-75683390D02*
X133880952Y-75731009D01*
X133880952Y-75731009D02*
X133976190Y-75778628D01*
X133976190Y-75778628D02*
X134357142Y-75778628D01*
X133452380Y-75254819D02*
X132833333Y-75254819D01*
X132833333Y-75254819D02*
X133166666Y-75635771D01*
X133166666Y-75635771D02*
X133023809Y-75635771D01*
X133023809Y-75635771D02*
X132928571Y-75683390D01*
X132928571Y-75683390D02*
X132880952Y-75731009D01*
X132880952Y-75731009D02*
X132833333Y-75826247D01*
X132833333Y-75826247D02*
X132833333Y-76064342D01*
X132833333Y-76064342D02*
X132880952Y-76159580D01*
X132880952Y-76159580D02*
X132928571Y-76207200D01*
X132928571Y-76207200D02*
X133023809Y-76254819D01*
X133023809Y-76254819D02*
X133309523Y-76254819D01*
X133309523Y-76254819D02*
X133404761Y-76207200D01*
X133404761Y-76207200D02*
X133452380Y-76159580D01*
D11*
%TO.C,JP20*%
X149000000Y-113600000D02*
X149000000Y-116400000D01*
X149000000Y-116400000D02*
X151000000Y-116400000D01*
X151000000Y-113600000D02*
X149000000Y-113600000D01*
X151000000Y-116400000D02*
X151000000Y-113600000D01*
%TO.C,JP14*%
X129600000Y-104070000D02*
X129600000Y-104670000D01*
X130300000Y-105370000D02*
X131700000Y-105370000D01*
X131700000Y-103370000D02*
X130300000Y-103370000D01*
X132400000Y-104670000D02*
X132400000Y-104070000D01*
X129600000Y-104070000D02*
G75*
G02*
X130300000Y-103370000I699999J1D01*
G01*
X130300000Y-105370000D02*
G75*
G02*
X129600000Y-104670000I-1J699999D01*
G01*
X131700000Y-103370000D02*
G75*
G02*
X132400000Y-104070000I0J-700000D01*
G01*
X132400000Y-104670000D02*
G75*
G02*
X131700000Y-105370000I-700000J0D01*
G01*
%TO.C,JP6*%
X129600000Y-83299999D02*
X129600000Y-83900001D01*
X130300000Y-84600000D02*
X131700000Y-84600000D01*
X131700000Y-82600000D02*
X130300000Y-82600000D01*
X132400000Y-83900001D02*
X132400000Y-83299999D01*
X129600000Y-83299999D02*
G75*
G02*
X130300000Y-82600000I699999J0D01*
G01*
X130300000Y-84600000D02*
G75*
G02*
X129600000Y-83900001I-1J699999D01*
G01*
X131700000Y-82600000D02*
G75*
G02*
X132400000Y-83299999I0J-700000D01*
G01*
X132400000Y-83900001D02*
G75*
G02*
X131700000Y-84600000I-700000J1D01*
G01*
%TO.C,JP15*%
X129600000Y-106670000D02*
X129600000Y-107270000D01*
X130300000Y-107970000D02*
X131700000Y-107970000D01*
X131700000Y-105970000D02*
X130300000Y-105970000D01*
X132400000Y-107270000D02*
X132400000Y-106670000D01*
X129600000Y-106670000D02*
G75*
G02*
X130300000Y-105970000I699999J1D01*
G01*
X130300000Y-107970000D02*
G75*
G02*
X129600000Y-107270000I-1J699999D01*
G01*
X131700000Y-105970000D02*
G75*
G02*
X132400000Y-106670000I0J-700000D01*
G01*
X132400000Y-107270000D02*
G75*
G02*
X131700000Y-107970000I-700000J0D01*
G01*
%TO.C,J2*%
X142599999Y-79000000D02*
X142599999Y-78400000D01*
X142899999Y-78700000D02*
X142599999Y-78400000D01*
X142899999Y-78700000D02*
X142599999Y-79000000D01*
%TO.C,J7*%
X143599999Y-98800000D02*
X143599999Y-98200000D01*
X143899999Y-98500000D02*
X143599999Y-98200000D01*
X143899999Y-98500000D02*
X143599999Y-98800000D01*
D12*
%TO.C,G\u002A\u002A\u002A*%
G36*
X143916460Y-107439406D02*
G01*
X143971962Y-107457517D01*
X144003561Y-107491711D01*
X144013578Y-107543547D01*
X144011707Y-107566942D01*
X143992688Y-107607990D01*
X143950420Y-107635396D01*
X143881529Y-107651926D01*
X143855357Y-107656227D01*
X143808253Y-107666611D01*
X143778301Y-107676802D01*
X143766054Y-107686164D01*
X143741128Y-107727275D01*
X143724475Y-107788828D01*
X143718410Y-107863606D01*
X143719597Y-107898644D01*
X143734180Y-107970200D01*
X143768177Y-108021631D01*
X143825119Y-108056962D01*
X143908538Y-108080214D01*
X143930255Y-108084574D01*
X143984581Y-108100115D01*
X144011670Y-108119573D01*
X144014477Y-108146467D01*
X143995956Y-108184315D01*
X143985258Y-108199383D01*
X143939704Y-108236565D01*
X143876924Y-108253005D01*
X143792926Y-108249992D01*
X143766778Y-108245449D01*
X143678681Y-108210733D01*
X143602875Y-108149282D01*
X143542868Y-108063710D01*
X143530075Y-108038805D01*
X143513020Y-107999058D01*
X143504341Y-107961015D01*
X143502111Y-107913786D01*
X143504402Y-107846484D01*
X143514401Y-107752830D01*
X143545321Y-107641510D01*
X143595352Y-107553238D01*
X143663754Y-107488889D01*
X143749788Y-107449336D01*
X143852712Y-107435452D01*
X143916460Y-107439406D01*
G37*
G36*
X143893490Y-109998368D02*
G01*
X143946793Y-110017732D01*
X143984035Y-110052424D01*
X143998043Y-110097973D01*
X143998028Y-110099563D01*
X143983250Y-110145930D01*
X143946421Y-110179415D01*
X143895905Y-110192294D01*
X143865174Y-110198528D01*
X143815320Y-110225617D01*
X143767512Y-110267375D01*
X143731640Y-110316333D01*
X143720088Y-110342371D01*
X143704540Y-110417473D01*
X143709011Y-110494546D01*
X143733405Y-110560646D01*
X143756043Y-110589860D01*
X143793327Y-110615094D01*
X143851415Y-110635992D01*
X143888653Y-110648550D01*
X143937395Y-110670322D01*
X143968527Y-110690973D01*
X143972890Y-110695659D01*
X143994839Y-110742402D01*
X143992436Y-110797251D01*
X143965844Y-110850443D01*
X143943669Y-110873519D01*
X143911623Y-110887766D01*
X143862004Y-110891376D01*
X143793778Y-110882609D01*
X143704822Y-110847451D01*
X143620732Y-110789435D01*
X143547483Y-110712894D01*
X143491048Y-110622166D01*
X143475104Y-110586173D01*
X143461801Y-110541746D01*
X143457039Y-110492446D01*
X143458688Y-110425321D01*
X143458835Y-110422551D01*
X143471464Y-110321260D01*
X143497028Y-110246667D01*
X143506965Y-110228844D01*
X143569910Y-110147358D01*
X143651633Y-110077541D01*
X143743626Y-110025613D01*
X143837382Y-109997794D01*
X143893490Y-109998368D01*
G37*
G36*
X142801111Y-105266162D02*
G01*
X142825187Y-105298811D01*
X142829865Y-105309031D01*
X142846930Y-105358435D01*
X142868661Y-105435178D01*
X142894481Y-105536841D01*
X142923810Y-105661004D01*
X142956072Y-105805247D01*
X142990688Y-105967150D01*
X143027082Y-106144293D01*
X143050312Y-106258071D01*
X143072287Y-106361366D01*
X143090227Y-106439457D01*
X143104896Y-106495207D01*
X143117053Y-106531482D01*
X143127463Y-106551146D01*
X143136887Y-106557064D01*
X143139303Y-106556656D01*
X143162845Y-106548690D01*
X143200378Y-106533760D01*
X143241857Y-106521269D01*
X143296444Y-106513027D01*
X143350261Y-106511098D01*
X143393489Y-106515773D01*
X143416309Y-106527344D01*
X143420257Y-106530526D01*
X143442643Y-106523565D01*
X143478528Y-106494039D01*
X143486455Y-106486282D01*
X143502481Y-106468946D01*
X143515265Y-106449951D01*
X143525393Y-106425624D01*
X143533446Y-106392293D01*
X143540008Y-106346286D01*
X143545661Y-106283931D01*
X143550990Y-106201555D01*
X143556577Y-106095485D01*
X143563006Y-105962050D01*
X143564228Y-105937227D01*
X143569844Y-105840261D01*
X143576143Y-105753776D01*
X143582667Y-105682914D01*
X143588957Y-105632816D01*
X143594554Y-105608625D01*
X143609555Y-105590814D01*
X143639149Y-105578349D01*
X143651324Y-105581109D01*
X143664001Y-105596691D01*
X143674448Y-105631331D01*
X143685092Y-105690979D01*
X143698209Y-105778713D01*
X143717719Y-105922320D01*
X143735184Y-106066319D01*
X143749381Y-106200399D01*
X143759086Y-106314250D01*
X143763294Y-106373898D01*
X143769542Y-106423722D01*
X143781980Y-106457192D01*
X143805523Y-106478445D01*
X143845088Y-106491619D01*
X143905589Y-106500851D01*
X143991941Y-106510279D01*
X143999608Y-106511141D01*
X144078427Y-106522362D01*
X144174485Y-106539155D01*
X144276340Y-106559397D01*
X144372552Y-106580961D01*
X144464047Y-106602111D01*
X144586904Y-106626973D01*
X144703131Y-106645194D01*
X144818048Y-106656981D01*
X144936981Y-106662539D01*
X145065253Y-106662071D01*
X145208185Y-106655782D01*
X145371103Y-106643876D01*
X145559327Y-106626558D01*
X145590238Y-106623654D01*
X145711585Y-106614472D01*
X145841058Y-106607653D01*
X145973074Y-106603245D01*
X146102051Y-106601292D01*
X146222405Y-106601841D01*
X146328553Y-106604939D01*
X146414913Y-106610632D01*
X146475902Y-106618966D01*
X146485593Y-106621041D01*
X146602281Y-106657809D01*
X146701107Y-106714790D01*
X146790819Y-106796927D01*
X146836212Y-106851674D01*
X146892629Y-106947761D01*
X146924252Y-107053016D01*
X146934005Y-107175170D01*
X146932419Y-107231062D01*
X146918155Y-107344307D01*
X146887229Y-107453392D01*
X146837403Y-107563748D01*
X146766434Y-107680808D01*
X146672081Y-107810006D01*
X146625647Y-107869949D01*
X146544946Y-107976505D01*
X146480888Y-108065115D01*
X146430946Y-108139461D01*
X146392597Y-108203221D01*
X146363315Y-108260078D01*
X146320551Y-108351376D01*
X146315774Y-109019388D01*
X146315419Y-109072226D01*
X146314645Y-109255836D01*
X146314935Y-109411878D01*
X146316456Y-109543122D01*
X146319379Y-109652335D01*
X146323874Y-109742287D01*
X146330109Y-109815746D01*
X146338255Y-109875481D01*
X146348481Y-109924258D01*
X146360956Y-109964848D01*
X146375851Y-110000020D01*
X146382741Y-110012296D01*
X146412392Y-110054636D01*
X146456950Y-110110893D01*
X146511659Y-110175199D01*
X146571761Y-110241685D01*
X146585061Y-110255976D01*
X146696624Y-110379461D01*
X146786763Y-110487283D01*
X146857796Y-110583137D01*
X146912034Y-110670717D01*
X146951792Y-110753717D01*
X146979384Y-110835832D01*
X146997124Y-110920755D01*
X147006369Y-111048927D01*
X146989916Y-111181044D01*
X146945522Y-111299904D01*
X146873641Y-111404662D01*
X146774727Y-111494471D01*
X146649235Y-111568485D01*
X146631466Y-111576845D01*
X146580901Y-111599307D01*
X146532068Y-111618034D01*
X146481684Y-111633367D01*
X146426470Y-111645648D01*
X146363147Y-111655219D01*
X146288435Y-111662426D01*
X146199053Y-111667605D01*
X146091723Y-111671103D01*
X145963163Y-111673261D01*
X145810094Y-111674420D01*
X145629236Y-111674924D01*
X144968991Y-111675902D01*
X144821408Y-111718116D01*
X144758950Y-111736942D01*
X144668479Y-111766129D01*
X144572128Y-111798797D01*
X144482441Y-111830779D01*
X144437064Y-111847331D01*
X144289910Y-111898297D01*
X144163777Y-111936934D01*
X144053435Y-111964599D01*
X143953655Y-111982646D01*
X143859208Y-111992434D01*
X143710642Y-112002141D01*
X143702208Y-112538267D01*
X143700398Y-112639994D01*
X143697710Y-112759251D01*
X143694682Y-112865998D01*
X143691447Y-112956523D01*
X143688144Y-113027114D01*
X143684907Y-113074060D01*
X143681872Y-113093649D01*
X143666596Y-113109786D01*
X143646229Y-113106603D01*
X143612856Y-113082150D01*
X143611339Y-113080865D01*
X143600258Y-113069400D01*
X143590696Y-113053686D01*
X143582227Y-113030754D01*
X143574423Y-112997633D01*
X143566861Y-112951350D01*
X143559114Y-112888939D01*
X143550756Y-112807426D01*
X143541362Y-112703840D01*
X143530506Y-112575212D01*
X143517762Y-112418571D01*
X143514886Y-112383074D01*
X143505685Y-112273969D01*
X143497760Y-112190484D01*
X143490458Y-112128411D01*
X143483129Y-112083544D01*
X143475118Y-112051674D01*
X143465775Y-112028594D01*
X143454446Y-112010098D01*
X143447989Y-112001140D01*
X143428878Y-111979212D01*
X143406938Y-111968116D01*
X143372772Y-111964876D01*
X143367139Y-111965041D01*
X143316989Y-111966512D01*
X143315324Y-111966586D01*
X143259747Y-111970208D01*
X143226621Y-111976957D01*
X143207532Y-111989973D01*
X143194065Y-112012400D01*
X143193149Y-112014493D01*
X143183253Y-112044261D01*
X143167230Y-112099257D01*
X143146238Y-112175216D01*
X143121441Y-112267874D01*
X143093999Y-112372964D01*
X143065072Y-112486222D01*
X143044817Y-112566094D01*
X143007100Y-112713572D01*
X142966887Y-112869509D01*
X142926679Y-113024255D01*
X142888980Y-113168155D01*
X142856291Y-113291560D01*
X142836869Y-113364362D01*
X142809455Y-113467297D01*
X142784732Y-113560330D01*
X142764034Y-113638431D01*
X142748694Y-113696574D01*
X142740047Y-113729729D01*
X142735945Y-113744200D01*
X142718474Y-113788971D01*
X142699996Y-113818396D01*
X142699411Y-113818975D01*
X142668345Y-113834146D01*
X142642039Y-113823795D01*
X142630948Y-113791928D01*
X142630982Y-113790993D01*
X142635408Y-113765358D01*
X142646580Y-113714250D01*
X142663499Y-113641874D01*
X142685162Y-113552435D01*
X142710569Y-113450138D01*
X142738718Y-113339187D01*
X142754046Y-113279010D01*
X142791338Y-113130190D01*
X142831119Y-112968675D01*
X142870788Y-112805147D01*
X142907743Y-112650294D01*
X142939383Y-112514801D01*
X142953293Y-112454339D01*
X142985847Y-112312627D01*
X143011994Y-112197439D01*
X143032072Y-112106026D01*
X143046415Y-112035640D01*
X143055361Y-111983533D01*
X143059247Y-111946957D01*
X143058406Y-111923162D01*
X143053178Y-111909401D01*
X143043897Y-111902925D01*
X143030901Y-111900985D01*
X143014527Y-111900834D01*
X143013244Y-111900798D01*
X142980573Y-111894951D01*
X142929940Y-111881099D01*
X142871743Y-111862064D01*
X142809214Y-111842696D01*
X142749763Y-111828857D01*
X142706290Y-111823554D01*
X142674711Y-111824820D01*
X142655015Y-111833786D01*
X142642721Y-111858010D01*
X142630837Y-111905046D01*
X142627564Y-111918888D01*
X142614068Y-111973170D01*
X142594488Y-112049677D01*
X142570306Y-112142813D01*
X142543002Y-112246981D01*
X142514057Y-112356586D01*
X142484953Y-112466031D01*
X142457171Y-112569720D01*
X142432190Y-112662055D01*
X142411493Y-112737444D01*
X142396560Y-112790287D01*
X142385250Y-112825621D01*
X142350919Y-112899258D01*
X142310287Y-112943065D01*
X142262942Y-112957554D01*
X142234372Y-112953032D01*
X142229690Y-112936119D01*
X142248773Y-112902360D01*
X142249515Y-112901278D01*
X142266166Y-112867739D01*
X142287514Y-112809354D01*
X142313890Y-112725009D01*
X142345622Y-112613590D01*
X142383045Y-112473983D01*
X142426490Y-112305076D01*
X142450345Y-112210475D01*
X142485573Y-112068835D01*
X142513090Y-111955205D01*
X142533182Y-111868332D01*
X142546135Y-111806969D01*
X142552232Y-111769864D01*
X142551760Y-111755765D01*
X142550384Y-111754734D01*
X142530467Y-111740942D01*
X142492947Y-111715465D01*
X142444526Y-111682861D01*
X142347596Y-111609601D01*
X142213213Y-111479518D01*
X142083601Y-111319799D01*
X141959310Y-111131144D01*
X141840892Y-110914255D01*
X141784795Y-110798161D01*
X141639842Y-110453561D01*
X141523617Y-110102674D01*
X141436890Y-109748048D01*
X141380433Y-109392232D01*
X141378688Y-109376590D01*
X141367763Y-109244429D01*
X141361347Y-109098339D01*
X141359438Y-108947255D01*
X141360364Y-108894706D01*
X141624193Y-108894706D01*
X141624214Y-109020807D01*
X141626614Y-109142635D01*
X141631379Y-109251287D01*
X141638492Y-109337859D01*
X141643091Y-109376447D01*
X141683680Y-109634629D01*
X141740252Y-109889850D01*
X141811352Y-110138635D01*
X141895521Y-110377507D01*
X141991304Y-110602991D01*
X142097244Y-110811610D01*
X142211884Y-110999890D01*
X142333768Y-111164354D01*
X142461439Y-111301527D01*
X142472444Y-111311737D01*
X142543658Y-111372156D01*
X142614540Y-111423906D01*
X142675083Y-111459581D01*
X142700124Y-111472159D01*
X142750074Y-111504028D01*
X142774540Y-111537082D01*
X142776838Y-111578110D01*
X142760287Y-111633901D01*
X142759362Y-111636352D01*
X142745542Y-111683126D01*
X142750470Y-111711099D01*
X142778230Y-111725838D01*
X142832904Y-111732913D01*
X142846116Y-111733807D01*
X142883513Y-111733619D01*
X142901112Y-111724703D01*
X142907709Y-111703619D01*
X142924210Y-111668779D01*
X142958215Y-111631723D01*
X142998791Y-111602389D01*
X143035043Y-111590458D01*
X143069179Y-111594597D01*
X143133844Y-111622666D01*
X143206533Y-111678458D01*
X143232056Y-111700533D01*
X143268830Y-111724706D01*
X143309297Y-111736996D01*
X143367139Y-111742890D01*
X143448864Y-111741988D01*
X143522793Y-111724106D01*
X143579011Y-111705179D01*
X143634836Y-111701692D01*
X143679625Y-111720624D01*
X143686042Y-111724669D01*
X143725386Y-111735565D01*
X143784870Y-111735747D01*
X143865884Y-111724929D01*
X143969817Y-111702828D01*
X144098059Y-111669154D01*
X144252001Y-111623626D01*
X144433028Y-111565957D01*
X144467830Y-111554556D01*
X144600178Y-111511211D01*
X144709467Y-111476062D01*
X144801032Y-111448210D01*
X144880212Y-111426758D01*
X144952345Y-111410808D01*
X145022765Y-111399461D01*
X145096813Y-111391819D01*
X145179826Y-111386985D01*
X145277140Y-111384060D01*
X145394094Y-111382143D01*
X145536025Y-111380340D01*
X145561877Y-111379997D01*
X145732691Y-111377473D01*
X145876571Y-111374748D01*
X145997151Y-111371638D01*
X146098067Y-111367957D01*
X146182952Y-111363522D01*
X146255443Y-111358144D01*
X146319173Y-111351639D01*
X146377778Y-111343825D01*
X146434893Y-111334510D01*
X146489455Y-111324415D01*
X146547693Y-111310774D01*
X146588546Y-111295345D01*
X146619973Y-111274850D01*
X146649932Y-111246016D01*
X146652484Y-111243248D01*
X146697631Y-111174983D01*
X146723792Y-111088526D01*
X146732233Y-110979800D01*
X146731175Y-110937338D01*
X146723900Y-110874558D01*
X146707616Y-110815791D01*
X146679882Y-110757012D01*
X146638257Y-110694193D01*
X146580299Y-110623312D01*
X146503566Y-110540340D01*
X146405617Y-110441253D01*
X146332664Y-110368069D01*
X146255962Y-110287494D01*
X146197461Y-110219390D01*
X146154343Y-110159110D01*
X146123787Y-110102004D01*
X146102976Y-110043425D01*
X146089089Y-109978725D01*
X146079308Y-109903256D01*
X146077074Y-109876829D01*
X146073401Y-109805756D01*
X146070425Y-109710816D01*
X146068147Y-109596716D01*
X146066566Y-109468157D01*
X146065685Y-109329842D01*
X146065503Y-109186471D01*
X146066021Y-109042748D01*
X146067240Y-108903373D01*
X146069160Y-108773053D01*
X146071781Y-108656487D01*
X146075104Y-108558376D01*
X146079132Y-108483426D01*
X146088543Y-108377895D01*
X146103702Y-108276699D01*
X146126308Y-108186943D01*
X146158928Y-108103214D01*
X146204129Y-108020094D01*
X146264479Y-107932168D01*
X146342544Y-107834019D01*
X146440892Y-107720232D01*
X146442509Y-107718408D01*
X146523679Y-107624793D01*
X146585465Y-107547783D01*
X146630564Y-107482265D01*
X146661673Y-107423126D01*
X146681492Y-107365251D01*
X146692718Y-107303529D01*
X146698048Y-107232844D01*
X146699837Y-107183040D01*
X146699393Y-107128914D01*
X146693715Y-107088492D01*
X146681045Y-107051480D01*
X146659629Y-107007584D01*
X146658114Y-107004680D01*
X146625063Y-106950273D01*
X146588740Y-106913670D01*
X146537805Y-106883303D01*
X146514683Y-106872100D01*
X146486751Y-106860972D01*
X146456405Y-106853382D01*
X146417915Y-106848702D01*
X146365551Y-106846303D01*
X146293578Y-106845558D01*
X146196269Y-106845836D01*
X146184326Y-106845920D01*
X146007767Y-106851275D01*
X145815665Y-106863885D01*
X145621468Y-106882884D01*
X145563727Y-106889199D01*
X145383598Y-106905252D01*
X145206752Y-106915923D01*
X145046667Y-106920333D01*
X144973952Y-106920731D01*
X144899693Y-106920361D01*
X144838235Y-106918192D01*
X144782404Y-106913340D01*
X144725027Y-106904918D01*
X144658927Y-106892041D01*
X144576932Y-106873824D01*
X144471866Y-106849380D01*
X144376210Y-106827291D01*
X144258207Y-106800697D01*
X144141916Y-106775100D01*
X144036837Y-106752589D01*
X143952468Y-106735250D01*
X143869404Y-106719065D01*
X143809021Y-106708521D01*
X143767094Y-106703592D01*
X143737591Y-106703896D01*
X143714479Y-106709049D01*
X143691727Y-106718667D01*
X143681622Y-106723141D01*
X143617615Y-106739964D01*
X143552516Y-106741625D01*
X143500057Y-106727491D01*
X143471969Y-106702672D01*
X143446305Y-106665350D01*
X143444402Y-106661738D01*
X143424984Y-106631581D01*
X143410391Y-106619205D01*
X143394163Y-106626877D01*
X143357402Y-106648558D01*
X143305779Y-106680865D01*
X143244839Y-106720408D01*
X143209350Y-106743642D01*
X143134047Y-106790570D01*
X143074676Y-106821650D01*
X143024664Y-106838656D01*
X142977441Y-106843365D01*
X142926433Y-106837550D01*
X142865070Y-106822986D01*
X142851520Y-106819394D01*
X142795457Y-106805810D01*
X142758448Y-106800829D01*
X142731554Y-106803990D01*
X142705834Y-106814837D01*
X142703230Y-106816224D01*
X142669322Y-106848813D01*
X142663736Y-106892049D01*
X142686906Y-106942991D01*
X142702539Y-106968742D01*
X142706325Y-106983108D01*
X142698611Y-106987598D01*
X142668076Y-107003972D01*
X142620176Y-107029087D01*
X142561040Y-107059712D01*
X142384987Y-107163522D01*
X142231503Y-107283647D01*
X142096479Y-107424264D01*
X141974629Y-107590153D01*
X141877897Y-107760575D01*
X141793062Y-107953738D01*
X141723008Y-108161646D01*
X141670222Y-108376917D01*
X141637188Y-108592171D01*
X141631354Y-108665293D01*
X141626568Y-108773234D01*
X141624193Y-108894706D01*
X141360364Y-108894706D01*
X141362031Y-108800110D01*
X141369125Y-108665841D01*
X141380715Y-108553380D01*
X141399350Y-108437252D01*
X141452269Y-108199338D01*
X141522678Y-107971151D01*
X141608863Y-107756700D01*
X141709107Y-107559991D01*
X141821695Y-107385032D01*
X141944909Y-107235830D01*
X141972362Y-107207750D01*
X142040954Y-107148377D01*
X142107327Y-107110966D01*
X142180337Y-107091409D01*
X142268839Y-107085601D01*
X142324122Y-107083571D01*
X142370218Y-107077203D01*
X142391584Y-107067409D01*
X142402045Y-107033113D01*
X142403787Y-106982941D01*
X142395291Y-106934973D01*
X142392548Y-106916837D01*
X142402786Y-106882539D01*
X142433708Y-106835560D01*
X142452147Y-106811152D01*
X142480834Y-106773042D01*
X142498707Y-106749116D01*
X142501781Y-106741035D01*
X142501769Y-106708469D01*
X142493144Y-106652863D01*
X142475574Y-106572615D01*
X142448728Y-106466129D01*
X142412275Y-106331804D01*
X142400722Y-106290027D01*
X142372011Y-106184536D01*
X142342922Y-106075564D01*
X142314515Y-105967295D01*
X142287855Y-105863913D01*
X142264001Y-105769602D01*
X142244020Y-105688545D01*
X142228972Y-105624926D01*
X142219921Y-105582929D01*
X142217930Y-105566739D01*
X142219904Y-105566008D01*
X142234552Y-105578480D01*
X142256751Y-105610239D01*
X142282237Y-105654084D01*
X142306746Y-105702816D01*
X142326014Y-105749235D01*
X142335284Y-105777178D01*
X142352878Y-105832967D01*
X142376497Y-105909504D01*
X142404660Y-106001959D01*
X142435889Y-106105499D01*
X142468704Y-106215291D01*
X142488356Y-106281017D01*
X142529217Y-106414212D01*
X142564295Y-106521340D01*
X142595116Y-106605177D01*
X142623206Y-106668500D01*
X142650092Y-106714082D01*
X142677299Y-106744705D01*
X142706353Y-106763139D01*
X142738781Y-106772165D01*
X142776107Y-106774557D01*
X142789804Y-106774220D01*
X142815048Y-106769106D01*
X142837450Y-106753571D01*
X142863321Y-106722229D01*
X142898972Y-106669694D01*
X142920646Y-106636758D01*
X142957194Y-106579801D01*
X142980308Y-106536944D01*
X142992028Y-106499745D01*
X142994394Y-106459763D01*
X142989442Y-106408560D01*
X142979220Y-106337694D01*
X142973235Y-106299958D01*
X142958061Y-106215463D01*
X142937779Y-106110968D01*
X142913754Y-105992900D01*
X142887350Y-105867688D01*
X142859932Y-105741759D01*
X142832864Y-105621542D01*
X142807512Y-105513464D01*
X142785239Y-105423956D01*
X142783073Y-105415543D01*
X142768964Y-105356755D01*
X142759003Y-105308405D01*
X142755230Y-105280255D01*
X142759438Y-105261040D01*
X142776810Y-105252939D01*
X142801111Y-105266162D01*
G37*
D11*
%TO.C,J8*%
X143599999Y-102200000D02*
X143599999Y-101600000D01*
X143899999Y-101900000D02*
X143599999Y-101600000D01*
X143899999Y-101900000D02*
X143599999Y-102200000D01*
%TO.C,JP8*%
X129600000Y-88495636D02*
X129600000Y-89095636D01*
X130300000Y-89795636D02*
X131700000Y-89795636D01*
X131700000Y-87795636D02*
X130300000Y-87795636D01*
X132400000Y-89095636D02*
X132400000Y-88495636D01*
X129600000Y-88495636D02*
G75*
G02*
X130300000Y-87795636I699999J1D01*
G01*
X130300000Y-89795636D02*
G75*
G02*
X129600000Y-89095636I-1J699999D01*
G01*
X131700000Y-87795636D02*
G75*
G02*
X132400000Y-88495636I0J-700000D01*
G01*
X132400000Y-89095636D02*
G75*
G02*
X131700000Y-89795636I-700000J0D01*
G01*
%TO.C,JP19*%
X129600000Y-117100000D02*
X129600000Y-117700000D01*
X130300000Y-118400000D02*
X131700000Y-118400000D01*
X131700000Y-116400000D02*
X130300000Y-116400000D01*
X132400000Y-117700000D02*
X132400000Y-117100000D01*
X129600000Y-117100000D02*
G75*
G02*
X130300000Y-116400000I699999J1D01*
G01*
X130300000Y-118400000D02*
G75*
G02*
X129600000Y-117700000I-1J699999D01*
G01*
X131700000Y-116400000D02*
G75*
G02*
X132400000Y-117100000I0J-700000D01*
G01*
X132400000Y-117700000D02*
G75*
G02*
X131700000Y-118400000I-700000J0D01*
G01*
%TO.C,J5*%
X143599999Y-91800000D02*
X143599999Y-91200000D01*
X143899999Y-91500000D02*
X143599999Y-91200000D01*
X143899999Y-91500000D02*
X143599999Y-91800000D01*
%TO.C,JP5*%
X129600000Y-80699999D02*
X129600000Y-81300001D01*
X130300000Y-82000000D02*
X131700000Y-82000000D01*
X131700000Y-80000000D02*
X130300000Y-80000000D01*
X132400000Y-81300001D02*
X132400000Y-80699999D01*
X129600000Y-80699999D02*
G75*
G02*
X130300000Y-80000000I699999J0D01*
G01*
X130300000Y-82000000D02*
G75*
G02*
X129600000Y-81300001I-1J699999D01*
G01*
X131700000Y-80000000D02*
G75*
G02*
X132400000Y-80699999I0J-700000D01*
G01*
X132400000Y-81300001D02*
G75*
G02*
X131700000Y-82000000I-700000J1D01*
G01*
%TO.C,JP10*%
X129600000Y-93670000D02*
X129600000Y-94270000D01*
X130300000Y-94970000D02*
X131700000Y-94970000D01*
X131700000Y-92970000D02*
X130300000Y-92970000D01*
X132400000Y-94270000D02*
X132400000Y-93670000D01*
X129600000Y-93670000D02*
G75*
G02*
X130300000Y-92970000I699999J1D01*
G01*
X130300000Y-94970000D02*
G75*
G02*
X129600000Y-94270000I-1J699999D01*
G01*
X131700000Y-92970000D02*
G75*
G02*
X132400000Y-93670000I0J-700000D01*
G01*
X132400000Y-94270000D02*
G75*
G02*
X131700000Y-94970000I-700000J0D01*
G01*
%TO.C,J12*%
X135799999Y-76299999D02*
X135799999Y-75699999D01*
X136099999Y-75999999D02*
X135799999Y-75699999D01*
X136099999Y-75999999D02*
X135799999Y-76299999D01*
%TO.C,JP7*%
X129600000Y-85899999D02*
X129600000Y-86500001D01*
X130300000Y-87200000D02*
X131700000Y-87200000D01*
X131700000Y-85200000D02*
X130300000Y-85200000D01*
X132400000Y-86500001D02*
X132400000Y-85899999D01*
X129600000Y-85899999D02*
G75*
G02*
X130300000Y-85200000I699999J0D01*
G01*
X130300000Y-87200000D02*
G75*
G02*
X129600000Y-86500001I-1J699999D01*
G01*
X131700000Y-85200000D02*
G75*
G02*
X132400000Y-85899999I0J-700000D01*
G01*
X132400000Y-86500001D02*
G75*
G02*
X131700000Y-87200000I-700000J1D01*
G01*
%TO.C,JP13*%
X129600000Y-101470000D02*
X129600000Y-102070000D01*
X130300000Y-102770000D02*
X131700000Y-102770000D01*
X131700000Y-100770000D02*
X130300000Y-100770000D01*
X132400000Y-102070000D02*
X132400000Y-101470000D01*
X129600000Y-101470000D02*
G75*
G02*
X130300000Y-100770000I699999J1D01*
G01*
X130300000Y-102770000D02*
G75*
G02*
X129600000Y-102070000I-1J699999D01*
G01*
X131700000Y-100770000D02*
G75*
G02*
X132400000Y-101470000I0J-700000D01*
G01*
X132400000Y-102070000D02*
G75*
G02*
X131700000Y-102770000I-700000J0D01*
G01*
%TO.C,JP16*%
X129600000Y-109270000D02*
X129600000Y-109870000D01*
X130300000Y-110570000D02*
X131700000Y-110570000D01*
X131700000Y-108570000D02*
X130300000Y-108570000D01*
X132400000Y-109870000D02*
X132400000Y-109270000D01*
X129600000Y-109270000D02*
G75*
G02*
X130300000Y-108570000I699999J1D01*
G01*
X130300000Y-110570000D02*
G75*
G02*
X129600000Y-109870000I-1J699999D01*
G01*
X131700000Y-108570000D02*
G75*
G02*
X132400000Y-109270000I0J-700000D01*
G01*
X132400000Y-109870000D02*
G75*
G02*
X131700000Y-110570000I-700000J0D01*
G01*
%TO.C,JP1*%
X129600000Y-70299999D02*
X129600000Y-70900001D01*
X130300000Y-71600000D02*
X131700000Y-71600000D01*
X131700000Y-69600000D02*
X130300000Y-69600000D01*
X132400000Y-70900001D02*
X132400000Y-70299999D01*
X129600000Y-70299999D02*
G75*
G02*
X130300000Y-69600000I699999J0D01*
G01*
X130300000Y-71600000D02*
G75*
G02*
X129600000Y-70900001I-1J699999D01*
G01*
X131700000Y-69600000D02*
G75*
G02*
X132400000Y-70299999I0J-700000D01*
G01*
X132400000Y-70900001D02*
G75*
G02*
X131700000Y-71600000I-700000J1D01*
G01*
%TO.C,J6*%
X143599999Y-95299999D02*
X143599999Y-94699999D01*
X143899999Y-94999999D02*
X143599999Y-94699999D01*
X143899999Y-94999999D02*
X143599999Y-95299999D01*
%TO.C,JP4*%
X129600000Y-78104993D02*
X129600000Y-78704995D01*
X130300000Y-79404994D02*
X131700000Y-79404994D01*
X131700000Y-77404994D02*
X130300000Y-77404994D01*
X132400000Y-78704995D02*
X132400000Y-78104993D01*
X129600000Y-78104993D02*
G75*
G02*
X130300000Y-77404994I699999J0D01*
G01*
X130300000Y-79404994D02*
G75*
G02*
X129600000Y-78704995I-1J699999D01*
G01*
X131700000Y-77404994D02*
G75*
G02*
X132400000Y-78104993I0J-700000D01*
G01*
X132400000Y-78704995D02*
G75*
G02*
X131700000Y-79404994I-700000J1D01*
G01*
%TO.C,JP17*%
X129600000Y-111870000D02*
X129600000Y-112470000D01*
X130300000Y-113170000D02*
X131700000Y-113170000D01*
X131700000Y-111170000D02*
X130300000Y-111170000D01*
X132400000Y-112470000D02*
X132400000Y-111870000D01*
X129600000Y-111870000D02*
G75*
G02*
X130300000Y-111170000I699999J1D01*
G01*
X130300000Y-113170000D02*
G75*
G02*
X129600000Y-112470000I-1J699999D01*
G01*
X131700000Y-111170000D02*
G75*
G02*
X132400000Y-111870000I0J-700000D01*
G01*
X132400000Y-112470000D02*
G75*
G02*
X131700000Y-113170000I-700000J0D01*
G01*
%TO.C,JP18*%
X129600000Y-114480000D02*
X129600000Y-115080000D01*
X130300000Y-115780000D02*
X131700000Y-115780000D01*
X131700000Y-113780000D02*
X130300000Y-113780000D01*
X132400000Y-115080000D02*
X132400000Y-114480000D01*
X129600000Y-114480000D02*
G75*
G02*
X130300000Y-113780000I699999J1D01*
G01*
X130300000Y-115780000D02*
G75*
G02*
X129600000Y-115080000I-1J699999D01*
G01*
X131700000Y-113780000D02*
G75*
G02*
X132400000Y-114480000I0J-700000D01*
G01*
X132400000Y-115080000D02*
G75*
G02*
X131700000Y-115780000I-700000J0D01*
G01*
%TO.C,JP12*%
X129600000Y-98870000D02*
X129600000Y-99470000D01*
X130300000Y-100170000D02*
X131700000Y-100170000D01*
X131700000Y-98170000D02*
X130300000Y-98170000D01*
X132400000Y-99470000D02*
X132400000Y-98870000D01*
X129600000Y-98870000D02*
G75*
G02*
X130300000Y-98170000I699999J1D01*
G01*
X130300000Y-100170000D02*
G75*
G02*
X129600000Y-99470000I-1J699999D01*
G01*
X131700000Y-98170000D02*
G75*
G02*
X132400000Y-98870000I0J-700000D01*
G01*
X132400000Y-99470000D02*
G75*
G02*
X131700000Y-100170000I-700000J0D01*
G01*
%TO.C,J4*%
X142599999Y-85800000D02*
X142599999Y-85200000D01*
X142899999Y-85500000D02*
X142599999Y-85200000D01*
X142899999Y-85500000D02*
X142599999Y-85800000D01*
%TO.C,JP9*%
X129600000Y-91082321D02*
X129600000Y-91682321D01*
X130300000Y-92382321D02*
X131700000Y-92382321D01*
X131700000Y-90382321D02*
X130300000Y-90382321D01*
X132400000Y-91682321D02*
X132400000Y-91082321D01*
X129600000Y-91082321D02*
G75*
G02*
X130300000Y-90382321I699999J1D01*
G01*
X130300000Y-92382321D02*
G75*
G02*
X129600000Y-91682321I-1J699999D01*
G01*
X131700000Y-90382321D02*
G75*
G02*
X132400000Y-91082321I0J-700000D01*
G01*
X132400000Y-91682321D02*
G75*
G02*
X131700000Y-92382321I-700000J0D01*
G01*
%TO.C,J3*%
X142599999Y-82400000D02*
X142599999Y-81800000D01*
X142899999Y-82100000D02*
X142599999Y-81800000D01*
X142899999Y-82100000D02*
X142599999Y-82400000D01*
%TO.C,JP2*%
X129600000Y-72899999D02*
X129600000Y-73500001D01*
X130300000Y-74200000D02*
X131700000Y-74200000D01*
X131700000Y-72200000D02*
X130300000Y-72200000D01*
X132400000Y-73500001D02*
X132400000Y-72899999D01*
X129600000Y-72899999D02*
G75*
G02*
X130300000Y-72200000I699999J0D01*
G01*
X130300000Y-74200000D02*
G75*
G02*
X129600000Y-73500001I-1J699999D01*
G01*
X131700000Y-72200000D02*
G75*
G02*
X132400000Y-72899999I0J-700000D01*
G01*
X132400000Y-73500001D02*
G75*
G02*
X131700000Y-74200000I-700000J1D01*
G01*
%TO.C,JP11*%
X129600000Y-96270000D02*
X129600000Y-96870000D01*
X130300000Y-97570000D02*
X131700000Y-97570000D01*
X131700000Y-95570000D02*
X130300000Y-95570000D01*
X132400000Y-96870000D02*
X132400000Y-96270000D01*
X129600000Y-96270000D02*
G75*
G02*
X130300000Y-95570000I699999J1D01*
G01*
X130300000Y-97570000D02*
G75*
G02*
X129600000Y-96870000I-1J699999D01*
G01*
X131700000Y-95570000D02*
G75*
G02*
X132400000Y-96270000I0J-700000D01*
G01*
X132400000Y-96870000D02*
G75*
G02*
X131700000Y-97570000I-700000J0D01*
G01*
%TO.C,JP3*%
X129600000Y-75508945D02*
X129600000Y-76108947D01*
X130300000Y-76808946D02*
X131700000Y-76808946D01*
X131700000Y-74808946D02*
X130300000Y-74808946D01*
X132400000Y-76108947D02*
X132400000Y-75508945D01*
X129600000Y-75508945D02*
G75*
G02*
X130300000Y-74808946I699999J0D01*
G01*
X130300000Y-76808946D02*
G75*
G02*
X129600000Y-76108947I-1J699999D01*
G01*
X131700000Y-74808946D02*
G75*
G02*
X132400000Y-75508945I0J-700000D01*
G01*
X132400000Y-76108947D02*
G75*
G02*
X131700000Y-76808946I-700000J1D01*
G01*
%TD*%
M02*
