%TF.GenerationSoftware,KiCad,Pcbnew,9.0.4*%
%TF.CreationDate,2025-12-23T10:24:13-05:00*%
%TF.ProjectId,LED-CharliePlexing1,4c45442d-4368-4617-926c-6965506c6578,rev?*%
%TF.SameCoordinates,Original*%
%TF.FileFunction,Copper,L1,Top*%
%TF.FilePolarity,Positive*%
%FSLAX46Y46*%
G04 Gerber Fmt 4.6, Leading zero omitted, Abs format (unit mm)*
G04 Created by KiCad (PCBNEW 9.0.4) date 2025-12-23 10:24:13*
%MOMM*%
%LPD*%
G01*
G04 APERTURE LIST*
G04 Aperture macros list*
%AMRoundRect*
0 Rectangle with rounded corners*
0 $1 Rounding radius*
0 $2 $3 $4 $5 $6 $7 $8 $9 X,Y pos of 4 corners*
0 Add a 4 corners polygon primitive as box body*
4,1,4,$2,$3,$4,$5,$6,$7,$8,$9,$2,$3,0*
0 Add four circle primitives for the rounded corners*
1,1,$1+$1,$2,$3*
1,1,$1+$1,$4,$5*
1,1,$1+$1,$6,$7*
1,1,$1+$1,$8,$9*
0 Add four rect primitives between the rounded corners*
20,1,$1+$1,$2,$3,$4,$5,0*
20,1,$1+$1,$4,$5,$6,$7,0*
20,1,$1+$1,$6,$7,$8,$9,0*
20,1,$1+$1,$8,$9,$2,$3,0*%
G04 Aperture macros list end*
%TA.AperFunction,SMDPad,CuDef*%
%ADD10RoundRect,0.237500X-0.237500X0.287500X-0.237500X-0.287500X0.237500X-0.287500X0.237500X0.287500X0*%
%TD*%
%TA.AperFunction,SMDPad,CuDef*%
%ADD11RoundRect,0.237500X0.237500X-0.287500X0.237500X0.287500X-0.237500X0.287500X-0.237500X-0.287500X0*%
%TD*%
%TA.AperFunction,ComponentPad*%
%ADD12R,1.700000X1.700000*%
%TD*%
%TA.AperFunction,ComponentPad*%
%ADD13C,1.700000*%
%TD*%
%TA.AperFunction,ViaPad*%
%ADD14C,0.600000*%
%TD*%
%TA.AperFunction,Conductor*%
%ADD15C,1.000000*%
%TD*%
%TA.AperFunction,Conductor*%
%ADD16C,0.500000*%
%TD*%
%TA.AperFunction,Conductor*%
%ADD17C,0.400000*%
%TD*%
G04 APERTURE END LIST*
D10*
%TO.P,D96,1,K*%
%TO.N,Net-(D31-K)*%
X142000000Y-110725001D03*
%TO.P,D96,2,A*%
%TO.N,Net-(D1-K)*%
X142000000Y-112474999D03*
%TD*%
%TO.P,D106,1,K*%
%TO.N,Net-(D103-K)*%
X142000000Y-115125001D03*
%TO.P,D106,2,A*%
%TO.N,Net-(D105-K)*%
X142000000Y-116874999D03*
%TD*%
D11*
%TO.P,D105,1,K*%
%TO.N,Net-(D105-K)*%
X140000000Y-116874999D03*
%TO.P,D105,2,A*%
%TO.N,Net-(D103-K)*%
X140000000Y-115125001D03*
%TD*%
%TO.P,D79,1,K*%
%TO.N,Net-(D23-K)*%
X150000000Y-86074999D03*
%TO.P,D79,2,A*%
%TO.N,Net-(D17-K)*%
X150000000Y-84325001D03*
%TD*%
D10*
%TO.P,D92,1,K*%
%TO.N,Net-(D19-K)*%
X132000000Y-110725001D03*
%TO.P,D92,2,A*%
%TO.N,Net-(D25-K)*%
X132000000Y-112474999D03*
%TD*%
D11*
%TO.P,D75,1,K*%
%TO.N,Net-(D11-K)*%
X150000000Y-77274999D03*
%TO.P,D75,2,A*%
%TO.N,Net-(D5-K)*%
X150000000Y-75525001D03*
%TD*%
D10*
%TO.P,D30,1,K*%
%TO.N,Net-(D103-K)*%
X132021008Y-101838929D03*
%TO.P,D30,2,A*%
%TO.N,Net-(D29-K)*%
X132021008Y-103588927D03*
%TD*%
D11*
%TO.P,D45,1,K*%
%TO.N,Net-(D19-K)*%
X140000000Y-90474999D03*
%TO.P,D45,2,A*%
%TO.N,Net-(D100-A)*%
X140000000Y-88725001D03*
%TD*%
%TO.P,D77,1,K*%
%TO.N,Net-(D17-K)*%
X150000000Y-81674999D03*
%TO.P,D77,2,A*%
%TO.N,Net-(D11-K)*%
X150000000Y-79925001D03*
%TD*%
D10*
%TO.P,D56,1,K*%
%TO.N,Net-(D1-K)*%
X147000000Y-71125001D03*
%TO.P,D56,2,A*%
%TO.N,Net-(D5-K)*%
X147000000Y-72874999D03*
%TD*%
%TO.P,D90,1,K*%
%TO.N,Net-(D13-K)*%
X152000000Y-106325001D03*
%TO.P,D90,2,A*%
%TO.N,Net-(D19-K)*%
X152000000Y-108074999D03*
%TD*%
%TO.P,D108,1,K*%
%TO.N,Net-(D105-K)*%
X147000000Y-115125001D03*
%TO.P,D108,2,A*%
%TO.N,Net-(D107-K)*%
X147000000Y-116874999D03*
%TD*%
%TO.P,D80,1,K*%
%TO.N,Net-(D17-K)*%
X152000000Y-84325001D03*
%TO.P,D80,2,A*%
%TO.N,Net-(D23-K)*%
X152000000Y-86074999D03*
%TD*%
D11*
%TO.P,D39,1,K*%
%TO.N,Net-(D10-K)*%
X140000000Y-77274999D03*
%TO.P,D39,2,A*%
%TO.N,Net-(D107-K)*%
X140000000Y-75525001D03*
%TD*%
%TO.P,D41,1,K*%
%TO.N,Net-(D11-K)*%
X140000000Y-81674999D03*
%TO.P,D41,2,A*%
%TO.N,Net-(D10-K)*%
X140000000Y-79925001D03*
%TD*%
%TO.P,D25,1,K*%
%TO.N,Net-(D25-K)*%
X130000000Y-99274999D03*
%TO.P,D25,2,A*%
%TO.N,/C1*%
X130000000Y-97525001D03*
%TD*%
%TO.P,D63,1,K*%
%TO.N,Net-(D101-K)*%
X145000000Y-90474999D03*
%TO.P,D63,2,A*%
%TO.N,Net-(D17-K)*%
X145000000Y-88725001D03*
%TD*%
%TO.P,D81,1,K*%
%TO.N,Net-(D29-K)*%
X150000000Y-90474999D03*
%TO.P,D81,2,A*%
%TO.N,Net-(D23-K)*%
X150000000Y-88725001D03*
%TD*%
D10*
%TO.P,D6,1,K*%
%TO.N,Net-(D107-K)*%
X132000000Y-75525001D03*
%TO.P,D6,2,A*%
%TO.N,Net-(D5-K)*%
X132000000Y-77274999D03*
%TD*%
D11*
%TO.P,D59,1,K*%
%TO.N,Net-(D13-K)*%
X145000000Y-81674999D03*
%TO.P,D59,2,A*%
%TO.N,Net-(D10-A)*%
X145000000Y-79925001D03*
%TD*%
D10*
%TO.P,D52,1,K*%
%TO.N,Net-(D103-K)*%
X142000000Y-101925001D03*
%TO.P,D52,2,A*%
%TO.N,Net-(D31-K)*%
X142000000Y-103674999D03*
%TD*%
D11*
%TO.P,D69,1,K*%
%TO.N,Net-(D105-K)*%
X145000000Y-103674999D03*
%TO.P,D69,2,A*%
%TO.N,Net-(D29-K)*%
X145000000Y-101925001D03*
%TD*%
%TO.P,D57,1,K*%
%TO.N,Net-(D10-A)*%
X145000000Y-77274999D03*
%TO.P,D57,2,A*%
%TO.N,Net-(D5-K)*%
X145000000Y-75525001D03*
%TD*%
%TO.P,D19,1,K*%
%TO.N,Net-(D19-K)*%
X135000000Y-90474999D03*
%TO.P,D19,2,A*%
%TO.N,/P20*%
X135000000Y-88725001D03*
%TD*%
D10*
%TO.P,D14,1,K*%
%TO.N,Net-(D11-K)*%
X132000000Y-84325001D03*
%TO.P,D14,2,A*%
%TO.N,Net-(D13-K)*%
X132000000Y-86074999D03*
%TD*%
D11*
%TO.P,D51,1,K*%
%TO.N,Net-(D31-K)*%
X140000000Y-103674999D03*
%TO.P,D51,2,A*%
%TO.N,Net-(D103-K)*%
X140000000Y-101925001D03*
%TD*%
D10*
%TO.P,D62,1,K*%
%TO.N,Net-(D13-K)*%
X147000000Y-84325001D03*
%TO.P,D62,2,A*%
%TO.N,Net-(D17-K)*%
X147000000Y-86074999D03*
%TD*%
D11*
%TO.P,D35,1,K*%
%TO.N,Net-(D110-K)*%
X135000000Y-108074999D03*
%TO.P,D35,2,A*%
%TO.N,/C6*%
X135000000Y-106325001D03*
%TD*%
D10*
%TO.P,D72,1,K*%
%TO.N,Net-(D105-K)*%
X147000000Y-106325001D03*
%TO.P,D72,2,A*%
%TO.N,Net-(D109-K)*%
X147000000Y-108074999D03*
%TD*%
%TO.P,D102,1,K*%
%TO.N,Net-(D100-A)*%
X132000000Y-115125001D03*
%TO.P,D102,2,A*%
%TO.N,Net-(D101-K)*%
X132000000Y-116874999D03*
%TD*%
%TO.P,D28,1,K*%
%TO.N,Net-(D25-K)*%
X137000000Y-97525001D03*
%TO.P,D28,2,A*%
%TO.N,Net-(D103-K)*%
X137000000Y-99274999D03*
%TD*%
%TO.P,D36,1,K*%
%TO.N,Net-(D105-K)*%
X137000000Y-106325001D03*
%TO.P,D36,2,A*%
%TO.N,Net-(D110-K)*%
X137000000Y-108074999D03*
%TD*%
D11*
%TO.P,D5,1,K*%
%TO.N,Net-(D5-K)*%
X130000000Y-77274999D03*
%TO.P,D5,2,A*%
%TO.N,/A_2*%
X130000000Y-75525001D03*
%TD*%
%TO.P,D21,1,K*%
%TO.N,Net-(D101-K)*%
X130000000Y-94874999D03*
%TO.P,D21,2,A*%
%TO.N,/P22*%
X130000000Y-93125001D03*
%TD*%
%TO.P,D101,1,K*%
%TO.N,Net-(D101-K)*%
X130000000Y-116874999D03*
%TO.P,D101,2,A*%
%TO.N,Net-(D100-A)*%
X130000000Y-115125001D03*
%TD*%
D10*
%TO.P,D4,1,K*%
%TO.N,Net-(D1-K)*%
X137000000Y-71125001D03*
%TO.P,D4,2,A*%
%TO.N,Net-(D107-K)*%
X137000000Y-72874999D03*
%TD*%
%TO.P,D46,1,K*%
%TO.N,Net-(D100-A)*%
X142000000Y-88725001D03*
%TO.P,D46,2,A*%
%TO.N,Net-(D19-K)*%
X142000000Y-90474999D03*
%TD*%
D11*
%TO.P,D33,1,K*%
%TO.N,Net-(D105-K)*%
X130000000Y-108074999D03*
%TO.P,D33,2,A*%
%TO.N,/C5*%
X130000000Y-106325001D03*
%TD*%
%TO.P,D87,1,K*%
%TO.N,Net-(D13-K)*%
X150000000Y-103674999D03*
%TO.P,D87,2,A*%
%TO.N,Net-(D10-K)*%
X150000000Y-101925001D03*
%TD*%
%TO.P,D95,1,K*%
%TO.N,Net-(D1-K)*%
X140000000Y-112474999D03*
%TO.P,D95,2,A*%
%TO.N,Net-(D31-K)*%
X140000000Y-110725001D03*
%TD*%
D10*
%TO.P,D10,1,K*%
%TO.N,Net-(D10-K)*%
X132000000Y-79925001D03*
%TO.P,D10,2,A*%
%TO.N,Net-(D10-A)*%
X132000000Y-81674999D03*
%TD*%
D11*
%TO.P,D29,1,K*%
%TO.N,Net-(D29-K)*%
X130000000Y-103674999D03*
%TO.P,D29,2,A*%
%TO.N,/C3*%
X130000000Y-101925001D03*
%TD*%
D10*
%TO.P,D38,1,K*%
%TO.N,Net-(D109-K)*%
X142000000Y-71125001D03*
%TO.P,D38,2,A*%
%TO.N,Net-(D107-K)*%
X142000000Y-72874999D03*
%TD*%
%TO.P,D84,1,K*%
%TO.N,Net-(D29-K)*%
X152000000Y-93125001D03*
%TO.P,D84,2,A*%
%TO.N,Net-(D110-K)*%
X152000000Y-94874999D03*
%TD*%
%TO.P,D68,1,K*%
%TO.N,Net-(D25-K)*%
X147000000Y-97525001D03*
%TO.P,D68,2,A*%
%TO.N,Net-(D29-K)*%
X147000000Y-99274999D03*
%TD*%
%TO.P,D76,1,K*%
%TO.N,Net-(D5-K)*%
X152000000Y-75525001D03*
%TO.P,D76,2,A*%
%TO.N,Net-(D11-K)*%
X152000000Y-77274999D03*
%TD*%
D11*
%TO.P,D1,1,K*%
%TO.N,Net-(D1-K)*%
X130000000Y-72874999D03*
%TO.P,D1,2,A*%
%TO.N,/A_0*%
X130000000Y-71125001D03*
%TD*%
%TO.P,D3,1,K*%
%TO.N,Net-(D107-K)*%
X135000000Y-72874999D03*
%TO.P,D3,2,A*%
%TO.N,/A_1*%
X135000000Y-71125001D03*
%TD*%
D10*
%TO.P,D86,1,K*%
%TO.N,Net-(D1-K)*%
X152000000Y-97525001D03*
%TO.P,D86,2,A*%
%TO.N,Net-(D10-K)*%
X152000000Y-99274999D03*
%TD*%
D11*
%TO.P,D107,1,K*%
%TO.N,Net-(D107-K)*%
X145000000Y-116874999D03*
%TO.P,D107,2,A*%
%TO.N,Net-(D105-K)*%
X145000000Y-115125001D03*
%TD*%
D10*
%TO.P,D54,1,K*%
%TO.N,Net-(D31-K)*%
X142000000Y-106325001D03*
%TO.P,D54,2,A*%
%TO.N,Net-(D110-K)*%
X142000000Y-108074999D03*
%TD*%
%TO.P,D32,1,K*%
%TO.N,Net-(D29-K)*%
X137000000Y-101925001D03*
%TO.P,D32,2,A*%
%TO.N,Net-(D31-K)*%
X137000000Y-103674999D03*
%TD*%
D11*
%TO.P,D103,1,K*%
%TO.N,Net-(D103-K)*%
X135000000Y-116874999D03*
%TO.P,D103,2,A*%
%TO.N,Net-(D101-K)*%
X135000000Y-115125001D03*
%TD*%
D10*
%TO.P,D8,1,K*%
%TO.N,Net-(D5-K)*%
X137000000Y-75525001D03*
%TO.P,D8,2,A*%
%TO.N,Net-(D10-K)*%
X137000000Y-77274999D03*
%TD*%
%TO.P,D104,1,K*%
%TO.N,Net-(D101-K)*%
X137000000Y-115125001D03*
%TO.P,D104,2,A*%
%TO.N,Net-(D103-K)*%
X137000000Y-116874999D03*
%TD*%
%TO.P,D34,1,K*%
%TO.N,Net-(D31-K)*%
X132000000Y-106325001D03*
%TO.P,D34,2,A*%
%TO.N,Net-(D105-K)*%
X132000000Y-108074999D03*
%TD*%
%TO.P,D100,1,K*%
%TO.N,Net-(D10-A)*%
X152000000Y-110725001D03*
%TO.P,D100,2,A*%
%TO.N,Net-(D100-A)*%
X152000000Y-112474999D03*
%TD*%
%TO.P,D40,1,K*%
%TO.N,Net-(D107-K)*%
X142000000Y-75525001D03*
%TO.P,D40,2,A*%
%TO.N,Net-(D10-K)*%
X142000000Y-77274999D03*
%TD*%
D11*
%TO.P,D17,1,K*%
%TO.N,Net-(D17-K)*%
X130000000Y-90474999D03*
%TO.P,D17,2,A*%
%TO.N,/P18*%
X130000000Y-88725001D03*
%TD*%
D10*
%TO.P,D64,1,K*%
%TO.N,Net-(D17-K)*%
X147000000Y-88725001D03*
%TO.P,D64,2,A*%
%TO.N,Net-(D101-K)*%
X147000000Y-90474999D03*
%TD*%
%TO.P,D88,1,K*%
%TO.N,Net-(D10-K)*%
X152000000Y-101925001D03*
%TO.P,D88,2,A*%
%TO.N,Net-(D13-K)*%
X152000000Y-103674999D03*
%TD*%
D11*
%TO.P,D83,1,K*%
%TO.N,Net-(D110-K)*%
X150000000Y-94874999D03*
%TO.P,D83,2,A*%
%TO.N,Net-(D29-K)*%
X150000000Y-93125001D03*
%TD*%
D10*
%TO.P,D26,1,K*%
%TO.N,Net-(D23-K)*%
X132000000Y-97525001D03*
%TO.P,D26,2,A*%
%TO.N,Net-(D25-K)*%
X132000000Y-99274999D03*
%TD*%
%TO.P,D12,1,K*%
%TO.N,Net-(D10-A)*%
X137000000Y-79925001D03*
%TO.P,D12,2,A*%
%TO.N,Net-(D11-K)*%
X137000000Y-81674999D03*
%TD*%
%TO.P,D24,1,K*%
%TO.N,Net-(D101-K)*%
X137000000Y-93125001D03*
%TO.P,D24,2,A*%
%TO.N,Net-(D23-K)*%
X137000000Y-94874999D03*
%TD*%
D11*
%TO.P,D37,1,K*%
%TO.N,Net-(D107-K)*%
X140000000Y-72874999D03*
%TO.P,D37,2,A*%
%TO.N,Net-(D109-K)*%
X140000000Y-71125001D03*
%TD*%
%TO.P,D67,1,K*%
%TO.N,Net-(D29-K)*%
X145000000Y-99274999D03*
%TO.P,D67,2,A*%
%TO.N,Net-(D25-K)*%
X145000000Y-97525001D03*
%TD*%
%TO.P,D9,1,K*%
%TO.N,Net-(D10-A)*%
X130000000Y-81674999D03*
%TO.P,D9,2,A*%
%TO.N,/A_4*%
X130000000Y-79925001D03*
%TD*%
%TO.P,D43,1,K*%
%TO.N,Net-(D100-A)*%
X140000000Y-86074999D03*
%TO.P,D43,2,A*%
%TO.N,Net-(D11-K)*%
X140000000Y-84325001D03*
%TD*%
D10*
%TO.P,D66,1,K*%
%TO.N,Net-(D101-K)*%
X147000000Y-93125001D03*
%TO.P,D66,2,A*%
%TO.N,Net-(D25-K)*%
X147000000Y-94874999D03*
%TD*%
%TO.P,D82,1,K*%
%TO.N,Net-(D23-K)*%
X152000000Y-88725001D03*
%TO.P,D82,2,A*%
%TO.N,Net-(D29-K)*%
X152000000Y-90474999D03*
%TD*%
D11*
%TO.P,D7,1,K*%
%TO.N,Net-(D10-K)*%
X135000000Y-77274999D03*
%TO.P,D7,2,A*%
%TO.N,/A_3*%
X135000000Y-75525001D03*
%TD*%
D10*
%TO.P,D18,1,K*%
%TO.N,Net-(D100-A)*%
X132000000Y-88725001D03*
%TO.P,D18,2,A*%
%TO.N,Net-(D17-K)*%
X132000000Y-90474999D03*
%TD*%
D11*
%TO.P,D93,1,K*%
%TO.N,Net-(D31-K)*%
X135000000Y-112474999D03*
%TO.P,D93,2,A*%
%TO.N,Net-(D25-K)*%
X135000000Y-110725001D03*
%TD*%
D12*
%TO.P,J9,1,Pin_1*%
%TO.N,/A_0*%
X120600000Y-71200000D03*
D13*
%TO.P,J9,2,Pin_2*%
%TO.N,/A_1*%
X120600000Y-73740000D03*
%TO.P,J9,3,Pin_3*%
%TO.N,/A_2*%
X120600000Y-76280000D03*
%TO.P,J9,4,Pin_4*%
%TO.N,/A_3*%
X120600000Y-78820000D03*
%TO.P,J9,5,Pin_5*%
%TO.N,/A_4*%
X120600000Y-81360000D03*
%TO.P,J9,6,Pin_6*%
%TO.N,/A_5*%
X120600000Y-83900000D03*
%TO.P,J9,7,Pin_7*%
%TO.N,/A_6*%
X120600000Y-86440000D03*
%TO.P,J9,8,Pin_8*%
%TO.N,/A_7*%
X120600000Y-88980000D03*
%TO.P,J9,9,Pin_9*%
%TO.N,/P18*%
X120600000Y-91520000D03*
%TO.P,J9,10,Pin_10*%
%TO.N,/P20*%
X120600000Y-94060000D03*
%TO.P,J9,11,Pin_11*%
%TO.N,/P22*%
X120600000Y-96600000D03*
%TO.P,J9,12,Pin_12*%
%TO.N,/C0*%
X120600000Y-99140000D03*
%TO.P,J9,13,Pin_13*%
%TO.N,/C1*%
X120600000Y-101680000D03*
%TO.P,J9,14,Pin_14*%
%TO.N,/C2*%
X120600000Y-104220000D03*
%TO.P,J9,15,Pin_15*%
%TO.N,/C3*%
X120600000Y-106760000D03*
%TO.P,J9,16,Pin_16*%
%TO.N,/C4*%
X120600000Y-109300000D03*
%TO.P,J9,17,Pin_17*%
%TO.N,/C5*%
X120600000Y-111840000D03*
%TO.P,J9,18,Pin_18*%
%TO.N,/C6*%
X120600000Y-114380000D03*
%TO.P,J9,19,Pin_19*%
%TO.N,/C7*%
X120600000Y-116920000D03*
%TD*%
D10*
%TO.P,D60,1,K*%
%TO.N,Net-(D10-A)*%
X147000000Y-79925001D03*
%TO.P,D60,2,A*%
%TO.N,Net-(D13-K)*%
X147000000Y-81674999D03*
%TD*%
D11*
%TO.P,D89,1,K*%
%TO.N,Net-(D19-K)*%
X150000000Y-108074999D03*
%TO.P,D89,2,A*%
%TO.N,Net-(D13-K)*%
X150000000Y-106325001D03*
%TD*%
D10*
%TO.P,D70,1,K*%
%TO.N,Net-(D29-K)*%
X147000000Y-101925001D03*
%TO.P,D70,2,A*%
%TO.N,Net-(D105-K)*%
X147000000Y-103674999D03*
%TD*%
D11*
%TO.P,D23,1,K*%
%TO.N,Net-(D23-K)*%
X135000000Y-94874999D03*
%TO.P,D23,2,A*%
%TO.N,/C0*%
X135000000Y-93125001D03*
%TD*%
%TO.P,D73,1,K*%
%TO.N,Net-(D5-K)*%
X150000000Y-72874999D03*
%TO.P,D73,2,A*%
%TO.N,Net-(D109-K)*%
X150000000Y-71125001D03*
%TD*%
D12*
%TO.P,J1,1,Pin_1*%
%TO.N,/A_0*%
X123460000Y-71200000D03*
D13*
%TO.P,J1,2,Pin_2*%
X126000000Y-71200000D03*
%TO.P,J1,3,Pin_3*%
%TO.N,/A_1*%
X123460000Y-73740000D03*
%TO.P,J1,4,Pin_4*%
X126000000Y-73740000D03*
%TO.P,J1,5,Pin_5*%
%TO.N,/A_2*%
X123460000Y-76280000D03*
%TO.P,J1,6,Pin_6*%
X126000000Y-76280000D03*
%TO.P,J1,7,Pin_7*%
%TO.N,/A_3*%
X123460000Y-78820000D03*
%TO.P,J1,8,Pin_8*%
X126000000Y-78820000D03*
%TO.P,J1,9,Pin_9*%
%TO.N,/A_4*%
X123460000Y-81360000D03*
%TO.P,J1,10,Pin_10*%
X126000000Y-81360000D03*
%TO.P,J1,11,Pin_11*%
%TO.N,/A_5*%
X123460000Y-83900000D03*
%TO.P,J1,12,Pin_12*%
X126000000Y-83900000D03*
%TO.P,J1,13,Pin_13*%
%TO.N,/A_6*%
X123460000Y-86440000D03*
%TO.P,J1,14,Pin_14*%
X126000000Y-86440000D03*
%TO.P,J1,15,Pin_15*%
%TO.N,/A_7*%
X123460000Y-88980000D03*
%TO.P,J1,16,Pin_16*%
X126000000Y-88980000D03*
%TO.P,J1,17,Pin_17*%
%TO.N,/P18*%
X123460000Y-91520000D03*
%TO.P,J1,18,Pin_18*%
X126000000Y-91520000D03*
%TO.P,J1,19,Pin_19*%
%TO.N,/P20*%
X123460000Y-94060000D03*
%TO.P,J1,20,Pin_20*%
X126000000Y-94060000D03*
%TO.P,J1,21,Pin_21*%
%TO.N,/P22*%
X123460000Y-96600000D03*
%TO.P,J1,22,Pin_22*%
X126000000Y-96600000D03*
%TO.P,J1,23,Pin_23*%
%TO.N,/C0*%
X123460000Y-99140000D03*
%TO.P,J1,24,Pin_24*%
X126000000Y-99140000D03*
%TO.P,J1,25,Pin_25*%
%TO.N,/C1*%
X123460000Y-101680000D03*
%TO.P,J1,26,Pin_26*%
X126000000Y-101680000D03*
%TO.P,J1,27,Pin_27*%
%TO.N,/C2*%
X123460000Y-104220000D03*
%TO.P,J1,28,Pin_28*%
X126000000Y-104220000D03*
%TO.P,J1,29,Pin_29*%
%TO.N,/C3*%
X123460000Y-106760000D03*
%TO.P,J1,30,Pin_30*%
X126000000Y-106760000D03*
%TO.P,J1,31,Pin_31*%
%TO.N,/C4*%
X123460000Y-109300000D03*
%TO.P,J1,32,Pin_32*%
X126000000Y-109300000D03*
%TO.P,J1,33,Pin_33*%
%TO.N,/C5*%
X123460000Y-111840000D03*
%TO.P,J1,34,Pin_34*%
X126000000Y-111840000D03*
%TO.P,J1,35,Pin_35*%
%TO.N,/C6*%
X123460000Y-114380000D03*
%TO.P,J1,36,Pin_36*%
X126000000Y-114380000D03*
%TO.P,J1,37,Pin_37*%
%TO.N,/C7*%
X123460000Y-116920000D03*
%TO.P,J1,38,Pin_38*%
X126000000Y-116920000D03*
%TD*%
D11*
%TO.P,D71,1,K*%
%TO.N,Net-(D109-K)*%
X145000000Y-108074999D03*
%TO.P,D71,2,A*%
%TO.N,Net-(D105-K)*%
X145000000Y-106325001D03*
%TD*%
D10*
%TO.P,D22,1,K*%
%TO.N,Net-(D19-K)*%
X132000000Y-93125001D03*
%TO.P,D22,2,A*%
%TO.N,Net-(D101-K)*%
X132000000Y-94874999D03*
%TD*%
%TO.P,D20,1,K*%
%TO.N,Net-(D17-K)*%
X137000000Y-88725001D03*
%TO.P,D20,2,A*%
%TO.N,Net-(D19-K)*%
X137000000Y-90474999D03*
%TD*%
%TO.P,D110,1,K*%
%TO.N,Net-(D110-K)*%
X152000000Y-115125001D03*
%TO.P,D110,2,A*%
%TO.N,Net-(D109-K)*%
X152000000Y-116874999D03*
%TD*%
%TO.P,D58,1,K*%
%TO.N,Net-(D5-K)*%
X147000000Y-75525001D03*
%TO.P,D58,2,A*%
%TO.N,Net-(D10-A)*%
X147000000Y-77274999D03*
%TD*%
D11*
%TO.P,D47,1,K*%
%TO.N,Net-(D23-K)*%
X140000000Y-94874999D03*
%TO.P,D47,2,A*%
%TO.N,Net-(D19-K)*%
X140000000Y-93125001D03*
%TD*%
%TO.P,D55,1,K*%
%TO.N,Net-(D5-K)*%
X145000000Y-72874999D03*
%TO.P,D55,2,A*%
%TO.N,Net-(D1-K)*%
X145000000Y-71125001D03*
%TD*%
%TO.P,D27,1,K*%
%TO.N,Net-(D103-K)*%
X135000000Y-99274999D03*
%TO.P,D27,2,A*%
%TO.N,/C2*%
X135000000Y-97525001D03*
%TD*%
%TO.P,D53,1,K*%
%TO.N,Net-(D110-K)*%
X140000000Y-108074999D03*
%TO.P,D53,2,A*%
%TO.N,Net-(D31-K)*%
X140000000Y-106325001D03*
%TD*%
%TO.P,D85,1,K*%
%TO.N,Net-(D10-K)*%
X150000000Y-99274999D03*
%TO.P,D85,2,A*%
%TO.N,Net-(D1-K)*%
X150000000Y-97525001D03*
%TD*%
%TO.P,D97,1,K*%
%TO.N,Net-(D10-A)*%
X145000000Y-112474999D03*
%TO.P,D97,2,A*%
%TO.N,Net-(D107-K)*%
X145000000Y-110725001D03*
%TD*%
D10*
%TO.P,D44,1,K*%
%TO.N,Net-(D11-K)*%
X142000000Y-84325001D03*
%TO.P,D44,2,A*%
%TO.N,Net-(D100-A)*%
X142000000Y-86074999D03*
%TD*%
D11*
%TO.P,D15,1,K*%
%TO.N,Net-(D100-A)*%
X135000000Y-86074999D03*
%TO.P,D15,2,A*%
%TO.N,/A_7*%
X135000000Y-84325001D03*
%TD*%
D10*
%TO.P,D2,1,K*%
%TO.N,Net-(D109-K)*%
X132000000Y-71125001D03*
%TO.P,D2,2,A*%
%TO.N,Net-(D1-K)*%
X132000000Y-72874999D03*
%TD*%
%TO.P,D74,1,K*%
%TO.N,Net-(D109-K)*%
X152000000Y-71125001D03*
%TO.P,D74,2,A*%
%TO.N,Net-(D5-K)*%
X152000000Y-72874999D03*
%TD*%
D11*
%TO.P,D13,1,K*%
%TO.N,Net-(D13-K)*%
X130000000Y-86074999D03*
%TO.P,D13,2,A*%
%TO.N,/A_6*%
X130000000Y-84325001D03*
%TD*%
D10*
%TO.P,D94,1,K*%
%TO.N,Net-(D25-K)*%
X137000000Y-110725001D03*
%TO.P,D94,2,A*%
%TO.N,Net-(D31-K)*%
X137000000Y-112474999D03*
%TD*%
D11*
%TO.P,D65,1,K*%
%TO.N,Net-(D25-K)*%
X145000000Y-94874999D03*
%TO.P,D65,2,A*%
%TO.N,Net-(D101-K)*%
X145000000Y-93125001D03*
%TD*%
D10*
%TO.P,D42,1,K*%
%TO.N,Net-(D10-K)*%
X142000000Y-79925001D03*
%TO.P,D42,2,A*%
%TO.N,Net-(D11-K)*%
X142000000Y-81674999D03*
%TD*%
D11*
%TO.P,D11,1,K*%
%TO.N,Net-(D11-K)*%
X135000000Y-81674999D03*
%TO.P,D11,2,A*%
%TO.N,/A_5*%
X135000000Y-79925001D03*
%TD*%
D10*
%TO.P,D16,1,K*%
%TO.N,Net-(D13-K)*%
X137000000Y-84325001D03*
%TO.P,D16,2,A*%
%TO.N,Net-(D100-A)*%
X137000000Y-86074999D03*
%TD*%
D11*
%TO.P,D31,1,K*%
%TO.N,Net-(D31-K)*%
X135000000Y-103674999D03*
%TO.P,D31,2,A*%
%TO.N,/C4*%
X135000000Y-101925001D03*
%TD*%
%TO.P,D91,1,K*%
%TO.N,Net-(D25-K)*%
X130000000Y-112474999D03*
%TO.P,D91,2,A*%
%TO.N,Net-(D19-K)*%
X130000000Y-110725001D03*
%TD*%
%TO.P,D99,1,K*%
%TO.N,Net-(D100-A)*%
X150000000Y-112474999D03*
%TO.P,D99,2,A*%
%TO.N,Net-(D10-A)*%
X150000000Y-110725001D03*
%TD*%
%TO.P,D109,1,K*%
%TO.N,Net-(D109-K)*%
X150000000Y-116874999D03*
%TO.P,D109,2,A*%
%TO.N,/C7*%
X150000000Y-115125001D03*
%TD*%
%TO.P,D61,1,K*%
%TO.N,Net-(D17-K)*%
X145000000Y-86074999D03*
%TO.P,D61,2,A*%
%TO.N,Net-(D13-K)*%
X145000000Y-84325001D03*
%TD*%
D10*
%TO.P,D78,1,K*%
%TO.N,Net-(D11-K)*%
X152000000Y-79925001D03*
%TO.P,D78,2,A*%
%TO.N,Net-(D17-K)*%
X152000000Y-81674999D03*
%TD*%
D11*
%TO.P,D49,1,K*%
%TO.N,Net-(D103-K)*%
X140000000Y-99274999D03*
%TO.P,D49,2,A*%
%TO.N,Net-(D23-K)*%
X140000000Y-97525001D03*
%TD*%
D10*
%TO.P,D50,1,K*%
%TO.N,Net-(D23-K)*%
X142000000Y-97525001D03*
%TO.P,D50,2,A*%
%TO.N,Net-(D103-K)*%
X142000000Y-99274999D03*
%TD*%
%TO.P,D48,1,K*%
%TO.N,Net-(D19-K)*%
X142000000Y-93125001D03*
%TO.P,D48,2,A*%
%TO.N,Net-(D23-K)*%
X142000000Y-94874999D03*
%TD*%
%TO.P,D98,1,K*%
%TO.N,Net-(D107-K)*%
X147000000Y-110725001D03*
%TO.P,D98,2,A*%
%TO.N,Net-(D10-A)*%
X147000000Y-112474999D03*
%TD*%
D14*
%TO.N,/A_0*%
X128600000Y-70200000D03*
%TO.N,/A_1*%
X128600000Y-73400000D03*
%TO.N,/A_2*%
X128800000Y-75525001D03*
%TO.N,/A_3*%
X128800000Y-78400000D03*
%TO.N,/A_4*%
X128600000Y-80600000D03*
%TO.N,/A_5*%
X129000000Y-83000000D03*
%TO.N,/A_6*%
X128400000Y-85200000D03*
%TO.N,/A_7*%
X128600000Y-87200000D03*
%TO.N,Net-(D109-K)*%
X151000000Y-116874999D03*
X133000000Y-71000000D03*
X152000000Y-105000000D03*
X151000000Y-71125001D03*
%TO.N,Net-(D1-K)*%
X149000000Y-97400000D03*
X138400000Y-71400000D03*
X143600000Y-71400000D03*
X148400000Y-71000000D03*
X133200000Y-72400000D03*
X148600000Y-113000000D03*
%TO.N,Net-(D107-K)*%
X133237500Y-74637500D03*
X141000000Y-72874999D03*
X147800000Y-74200000D03*
X147975000Y-114899001D03*
X141000000Y-75525001D03*
X147900000Y-109900000D03*
%TO.N,Net-(D5-K)*%
X143800000Y-74549001D03*
X135708180Y-74233181D03*
%TO.N,Net-(D10-K)*%
X133037500Y-79237500D03*
X141000000Y-77274999D03*
X141000000Y-79925001D03*
X141000000Y-100024999D03*
%TO.N,Net-(D10-A)*%
X146000000Y-77274999D03*
X146000000Y-79925001D03*
X134179858Y-79182126D03*
X146000000Y-112474999D03*
%TO.N,Net-(D11-K)*%
X138600000Y-78024999D03*
X138600000Y-81674999D03*
X142800000Y-80800000D03*
X138600000Y-84200000D03*
X133137499Y-83537499D03*
%TO.N,Net-(D13-K)*%
X151000000Y-103674999D03*
X142193991Y-83300001D03*
X133937500Y-84137500D03*
X151000000Y-83200000D03*
X151000000Y-106325001D03*
%TO.N,Net-(D100-A)*%
X138600000Y-88800000D03*
X142794000Y-85200000D03*
X136000000Y-86074999D03*
X138600000Y-86074999D03*
X140000000Y-114100001D03*
%TO.N,Net-(D17-K)*%
X144237500Y-86837500D03*
X135600000Y-87600000D03*
X146000000Y-88725001D03*
%TO.N,Net-(D19-K)*%
X138600000Y-93200000D03*
X133737500Y-91737500D03*
X137630331Y-109569669D03*
X143400000Y-90400000D03*
X138600000Y-90474999D03*
%TO.N,Net-(D101-K)*%
X136000000Y-115125001D03*
X136000000Y-92000000D03*
X146000000Y-93125001D03*
%TO.N,Net-(D23-K)*%
X138800000Y-94874999D03*
X145491475Y-87400000D03*
X133837500Y-96037500D03*
X138800000Y-97600000D03*
X143400000Y-94800000D03*
%TO.N,Net-(D25-K)*%
X146000000Y-94874999D03*
X138000000Y-111000000D03*
X136750000Y-96549001D03*
X135200000Y-96500001D03*
%TO.N,Net-(D103-K)*%
X142800000Y-101925001D03*
X142800000Y-99200000D03*
X143400000Y-115000000D03*
X134337500Y-99937500D03*
%TO.N,Net-(D29-K)*%
X150012258Y-96500001D03*
X150000000Y-100600000D03*
X135250000Y-100900001D03*
X146000000Y-99274999D03*
%TO.N,Net-(D31-K)*%
X138600000Y-103674999D03*
X133000000Y-113224999D03*
X143550000Y-103600000D03*
X139062501Y-111662501D03*
X138600000Y-106397630D03*
%TO.N,Net-(D105-K)*%
X145800000Y-103674999D03*
X141000000Y-116874999D03*
X146000000Y-115125001D03*
%TO.N,Net-(D110-K)*%
X151200000Y-113400000D03*
X141000000Y-108074999D03*
X149200000Y-117800000D03*
%TD*%
D15*
%TO.N,/A_0*%
X123460000Y-71200000D02*
X126000000Y-71200000D01*
X130000000Y-71125001D02*
X129525001Y-71125001D01*
X126000000Y-71200000D02*
X129400000Y-71200000D01*
X129525001Y-71125001D02*
X128600000Y-70200000D01*
X123460000Y-71200000D02*
X120600000Y-71200000D01*
%TO.N,/A_1*%
X126000000Y-73740000D02*
X128260000Y-73740000D01*
D16*
X132811076Y-73850999D02*
X129050999Y-73850999D01*
D15*
X128260000Y-73740000D02*
X128600000Y-73400000D01*
D16*
X133951000Y-72174001D02*
X133951000Y-72711075D01*
D15*
X123460000Y-73740000D02*
X126000000Y-73740000D01*
D16*
X133951000Y-72711075D02*
X132811076Y-73850999D01*
D15*
X123460000Y-73740000D02*
X120600000Y-73740000D01*
D16*
X129050999Y-73850999D02*
X128600000Y-73400000D01*
X135000000Y-71125001D02*
X133951000Y-72174001D01*
D15*
%TO.N,/A_2*%
X123460000Y-76280000D02*
X120600000Y-76280000D01*
X126754999Y-75525001D02*
X128800000Y-75525001D01*
X123460000Y-76280000D02*
X126000000Y-76280000D01*
X126000000Y-76280000D02*
X126754999Y-75525001D01*
X128800000Y-75525001D02*
X130000000Y-75525001D01*
%TO.N,/A_3*%
X123460000Y-78820000D02*
X126000000Y-78820000D01*
X126000000Y-78820000D02*
X128380000Y-78820000D01*
D16*
X132926000Y-77599001D02*
X132926000Y-77854265D01*
D15*
X128380000Y-78820000D02*
X128800000Y-78400000D01*
X123460000Y-78820000D02*
X120600000Y-78820000D01*
D16*
X132380265Y-78400000D02*
X128800000Y-78400000D01*
X132926000Y-77854265D02*
X132380265Y-78400000D01*
X135000000Y-75525001D02*
X132926000Y-77599001D01*
D15*
%TO.N,/A_4*%
X123460000Y-81360000D02*
X120600000Y-81360000D01*
X127840000Y-81360000D02*
X128600000Y-80600000D01*
X126000000Y-81360000D02*
X127840000Y-81360000D01*
X123460000Y-81360000D02*
X126000000Y-81360000D01*
X129274999Y-79925001D02*
X130000000Y-79925001D01*
X128600000Y-80600000D02*
X129274999Y-79925001D01*
%TO.N,/A_5*%
X123460000Y-83900000D02*
X120600000Y-83900000D01*
D16*
X133250002Y-81674999D02*
X135000000Y-79925001D01*
D15*
X128100000Y-83900000D02*
X129000000Y-83000000D01*
D16*
X133250002Y-81674999D02*
X133250002Y-81930263D01*
D15*
X123460000Y-83900000D02*
X126000000Y-83900000D01*
D16*
X133250002Y-81930263D02*
X132180265Y-83000000D01*
X132180265Y-83000000D02*
X129000000Y-83000000D01*
D15*
X126000000Y-83900000D02*
X128100000Y-83900000D01*
%TO.N,/A_6*%
X128600000Y-85200000D02*
X129474999Y-84325001D01*
X129474999Y-84325001D02*
X130000000Y-84325001D01*
X126000000Y-86440000D02*
X127160000Y-86440000D01*
X123460000Y-86440000D02*
X126000000Y-86440000D01*
X128400000Y-85200000D02*
X128600000Y-85200000D01*
X123460000Y-86440000D02*
X120600000Y-86440000D01*
X127160000Y-86440000D02*
X128400000Y-85200000D01*
%TO.N,/A_7*%
X123460000Y-88980000D02*
X126000000Y-88980000D01*
D16*
X132380265Y-87200000D02*
X128600000Y-87200000D01*
D15*
X126820000Y-88980000D02*
X128600000Y-87200000D01*
D16*
X132926000Y-86654265D02*
X132380265Y-87200000D01*
D15*
X126000000Y-88980000D02*
X126820000Y-88980000D01*
D16*
X132926000Y-86399001D02*
X132926000Y-86654265D01*
D15*
X123460000Y-88980000D02*
X120600000Y-88980000D01*
D16*
X135000000Y-84325001D02*
X132926000Y-86399001D01*
D15*
%TO.N,/P18*%
X123460000Y-91520000D02*
X126000000Y-91520000D01*
X128794999Y-88725001D02*
X130000000Y-88725001D01*
X126000000Y-91520000D02*
X128794999Y-88725001D01*
X123460000Y-91520000D02*
X120600000Y-91520000D01*
D16*
%TO.N,/P20*%
X135000000Y-88725001D02*
X132926000Y-90799001D01*
D15*
X123460000Y-94060000D02*
X120600000Y-94060000D01*
D16*
X132926000Y-90799001D02*
X132926000Y-91054265D01*
X127910999Y-92149001D02*
X126000000Y-94060000D01*
X132926000Y-91054265D02*
X131831264Y-92149001D01*
D15*
X123460000Y-94060000D02*
X126000000Y-94060000D01*
D16*
X131831264Y-92149001D02*
X127910999Y-92149001D01*
D15*
%TO.N,/P22*%
X123460000Y-96600000D02*
X120600000Y-96600000D01*
X123460000Y-96600000D02*
X126000000Y-96600000D01*
X129474999Y-93125001D02*
X130000000Y-93125001D01*
X126000000Y-96600000D02*
X129474999Y-93125001D01*
%TO.N,/C0*%
X123460000Y-99140000D02*
X126000000Y-99140000D01*
D16*
X132926000Y-95454265D02*
X131831264Y-96549001D01*
X135000000Y-93125001D02*
X132926000Y-95199001D01*
X132926000Y-95199001D02*
X132926000Y-95454265D01*
X131831264Y-96549001D02*
X128590999Y-96549001D01*
D15*
X123460000Y-99140000D02*
X120600000Y-99140000D01*
D16*
X128590999Y-96549001D02*
X126000000Y-99140000D01*
D15*
%TO.N,/C1*%
X123460000Y-101680000D02*
X126000000Y-101680000D01*
X126000000Y-101680000D02*
X126000000Y-101400000D01*
X126000000Y-101400000D02*
X129874999Y-97525001D01*
X129874999Y-97525001D02*
X130000000Y-97525001D01*
X123460000Y-101680000D02*
X120600000Y-101680000D01*
%TO.N,/C2*%
X123460000Y-104220000D02*
X126000000Y-104220000D01*
D16*
X135000000Y-97525001D02*
X134062501Y-98462501D01*
X129820000Y-100400000D02*
X126000000Y-104220000D01*
X134062501Y-98717764D02*
X132380265Y-100400000D01*
D15*
X123460000Y-104220000D02*
X120600000Y-104220000D01*
D16*
X132380265Y-100400000D02*
X129820000Y-100400000D01*
D15*
%TO.N,/C3*%
X126000000Y-106760000D02*
X127551000Y-105209000D01*
X123460000Y-106760000D02*
X120600000Y-106760000D01*
X127551000Y-105209000D02*
X127551000Y-104265179D01*
X129891178Y-101925001D02*
X130000000Y-101925001D01*
X123460000Y-106760000D02*
X126000000Y-106760000D01*
X127551000Y-104265179D02*
X129891178Y-101925001D01*
D16*
%TO.N,/C4*%
X129250891Y-105349001D02*
X126000000Y-108599892D01*
D15*
X123460000Y-109300000D02*
X126000000Y-109300000D01*
D16*
X131766200Y-105349001D02*
X129250891Y-105349001D01*
X135000000Y-102115201D02*
X131766200Y-105349001D01*
D15*
X123460000Y-109300000D02*
X120600000Y-109300000D01*
D16*
X126000000Y-108599892D02*
X126000000Y-109300000D01*
D15*
%TO.N,/C5*%
X123460000Y-111840000D02*
X126000000Y-111840000D01*
X129891178Y-106325001D02*
X130000000Y-106325001D01*
X127600000Y-108616179D02*
X129891178Y-106325001D01*
X126000000Y-111840000D02*
X127600000Y-110240000D01*
X123460000Y-111840000D02*
X120600000Y-111840000D01*
X127600000Y-110240000D02*
X127600000Y-108616179D01*
%TO.N,/C6*%
X123460000Y-114380000D02*
X126000000Y-114380000D01*
D16*
X129470734Y-109749001D02*
X127301000Y-111918735D01*
X132926000Y-108399001D02*
X132926000Y-108654265D01*
X131831264Y-109749001D02*
X129470734Y-109749001D01*
X127301000Y-113079000D02*
X126000000Y-114380000D01*
D15*
X123460000Y-114380000D02*
X120600000Y-114380000D01*
D16*
X135000000Y-106325001D02*
X132926000Y-108399001D01*
X132926000Y-108654265D02*
X131831264Y-109749001D01*
X127301000Y-111918735D02*
X127301000Y-113079000D01*
D15*
%TO.N,/C7*%
X123460000Y-116920000D02*
X120600000Y-116920000D01*
D16*
X150000000Y-115125001D02*
X148400000Y-116725001D01*
X148400000Y-117989000D02*
X127069000Y-117989000D01*
D15*
X123460000Y-116920000D02*
X126000000Y-116920000D01*
D16*
X127069000Y-117989000D02*
X126000000Y-116920000D01*
X148400000Y-116725001D02*
X148400000Y-117989000D01*
%TO.N,Net-(D109-K)*%
X140000000Y-71125001D02*
X139024000Y-70149001D01*
X147926000Y-107148999D02*
X147926000Y-106893735D01*
X139024000Y-70149001D02*
X133850999Y-70149001D01*
X151000000Y-71125001D02*
X150000000Y-71125001D01*
X151000000Y-71125001D02*
X152000000Y-71125001D01*
X133000000Y-71000000D02*
X132125001Y-71000000D01*
X142976000Y-70149001D02*
X149024000Y-70149001D01*
X150000000Y-116874999D02*
X151000000Y-116874999D01*
X142000000Y-71125001D02*
X142976000Y-70149001D01*
X133850999Y-70149001D02*
X133000000Y-71000000D01*
X147926000Y-107148999D02*
X147000000Y-108074999D01*
X131925001Y-71200000D02*
X132000000Y-71125001D01*
X145000000Y-108074999D02*
X147000000Y-108074999D01*
X140000000Y-71125001D02*
X142000000Y-71125001D01*
X149819735Y-105000000D02*
X152000000Y-105000000D01*
X147926000Y-106893735D02*
X149819735Y-105000000D01*
X151000000Y-116874999D02*
X152000000Y-116874999D01*
X149024000Y-70149001D02*
X150000000Y-71125001D01*
X132125001Y-71000000D02*
X132000000Y-71125001D01*
D17*
%TO.N,Net-(D1-K)*%
X148600000Y-113000000D02*
X148149001Y-113450999D01*
D16*
X144725001Y-71400000D02*
X145000000Y-71125001D01*
X140000000Y-112474999D02*
X142000000Y-112474999D01*
X138125001Y-71125001D02*
X137000000Y-71125001D01*
X147000000Y-71125001D02*
X148274999Y-71125001D01*
X150000000Y-97525001D02*
X152000000Y-97525001D01*
X138125001Y-71125001D02*
X138400000Y-71400000D01*
X149874999Y-97400000D02*
X150000000Y-97525001D01*
D17*
X148149001Y-113450999D02*
X142976000Y-113450999D01*
X142976000Y-113450999D02*
X142000000Y-112474999D01*
D16*
X130000000Y-72874999D02*
X132000000Y-72874999D01*
X132725001Y-72874999D02*
X133200000Y-72400000D01*
X132000000Y-72874999D02*
X132725001Y-72874999D01*
X145000000Y-71125001D02*
X147000000Y-71125001D01*
X143600000Y-71400000D02*
X144725001Y-71400000D01*
X148274999Y-71125001D02*
X148400000Y-71000000D01*
X149000000Y-97400000D02*
X149874999Y-97400000D01*
%TO.N,Net-(D107-K)*%
X147023001Y-116874999D02*
X147000000Y-116874999D01*
X143341362Y-72874999D02*
X142000000Y-72874999D01*
X147800000Y-74200000D02*
X144666363Y-74200000D01*
X144666363Y-74200000D02*
X143341362Y-72874999D01*
X135000000Y-72874999D02*
X141000000Y-72874999D01*
X141000000Y-75525001D02*
X142000000Y-75525001D01*
X133237500Y-74637500D02*
X135000000Y-72874999D01*
X147975000Y-114899001D02*
X147975000Y-115923000D01*
X145000000Y-116874999D02*
X147000000Y-116874999D01*
X147900000Y-109900000D02*
X147825001Y-109900000D01*
X147825001Y-109900000D02*
X147000000Y-110725001D01*
X142000000Y-72874999D02*
X141000000Y-72874999D01*
X140000000Y-75525001D02*
X141000000Y-75525001D01*
X147975000Y-115923000D02*
X147023001Y-116874999D01*
X132349998Y-75525001D02*
X133237500Y-74637500D01*
X145000000Y-110725001D02*
X147000000Y-110725001D01*
X132000000Y-75525001D02*
X132349998Y-75525001D01*
%TO.N,Net-(D5-K)*%
X132996712Y-75940363D02*
X132996712Y-76278287D01*
X137000000Y-75525001D02*
X135708180Y-74233181D01*
X132996712Y-76278287D02*
X132000000Y-77274999D01*
X143800000Y-74549001D02*
X144024000Y-74549001D01*
X145000000Y-72874999D02*
X152000000Y-72874999D01*
X145000000Y-75525001D02*
X152000000Y-75525001D01*
X130000000Y-77274999D02*
X132000000Y-77274999D01*
X137976000Y-74549001D02*
X143800000Y-74549001D01*
X137000000Y-75525001D02*
X137976000Y-74549001D01*
X152000000Y-72874999D02*
X152000000Y-75525001D01*
X135708180Y-74233181D02*
X134703894Y-74233181D01*
X144024000Y-74549001D02*
X145000000Y-75525001D01*
X134703894Y-74233181D02*
X132996712Y-75940363D01*
D17*
%TO.N,Net-(D10-K)*%
X149074999Y-100200000D02*
X150000000Y-99274999D01*
D16*
X141000000Y-79925001D02*
X142000000Y-79925001D01*
D17*
X141175001Y-100200000D02*
X149074999Y-100200000D01*
D16*
X152000000Y-101925001D02*
X152000000Y-99274999D01*
X152000000Y-101925001D02*
X150000000Y-101925001D01*
X140000000Y-77274999D02*
X141000000Y-77274999D01*
D17*
X141000000Y-100024999D02*
X141175001Y-100200000D01*
D16*
X132349999Y-79925001D02*
X133037500Y-79237500D01*
X133037500Y-79237500D02*
X135000000Y-77274999D01*
X141000000Y-77274999D02*
X142000000Y-77274999D01*
X150000000Y-99274999D02*
X152000000Y-99274999D01*
X135000000Y-77274999D02*
X140000000Y-77274999D01*
X140000000Y-79925001D02*
X141000000Y-79925001D01*
X132000000Y-79925001D02*
X132349999Y-79925001D01*
D17*
%TO.N,Net-(D10-A)*%
X134412983Y-78949001D02*
X134179858Y-79182126D01*
D16*
X146000000Y-112474999D02*
X145000000Y-112474999D01*
X130000000Y-81674999D02*
X132000000Y-81674999D01*
X146000000Y-77274999D02*
X147000000Y-77274999D01*
X148749998Y-110725001D02*
X147000000Y-112474999D01*
X134074000Y-79600999D02*
X134074000Y-79345735D01*
D17*
X136600000Y-79525001D02*
X137000000Y-79925001D01*
D16*
X150000000Y-110725001D02*
X148749998Y-110725001D01*
X147000000Y-112474999D02*
X146000000Y-112474999D01*
D17*
X145000000Y-79925001D02*
X144024000Y-78949001D01*
D16*
X145000000Y-77274999D02*
X146000000Y-77274999D01*
D17*
X136600000Y-78949001D02*
X134412983Y-78949001D01*
X144024000Y-78949001D02*
X136600000Y-78949001D01*
D16*
X150000000Y-110725001D02*
X152000000Y-110725001D01*
X146000000Y-79925001D02*
X147000000Y-79925001D01*
X132000000Y-81674999D02*
X134074000Y-79600999D01*
D17*
X136600000Y-78949001D02*
X136600000Y-79525001D01*
D16*
X145000000Y-79925001D02*
X146000000Y-79925001D01*
%TO.N,Net-(D11-K)*%
X132000000Y-84325001D02*
X132349998Y-84325001D01*
X138600000Y-78024999D02*
X138826000Y-78250999D01*
X138600000Y-84200000D02*
X139874999Y-84200000D01*
X135000000Y-81674999D02*
X138600000Y-81674999D01*
X142800000Y-80874999D02*
X142000000Y-81674999D01*
X149024000Y-78250999D02*
X150000000Y-77274999D01*
X150000000Y-77274999D02*
X152000000Y-77274999D01*
X139874999Y-84200000D02*
X140000000Y-84325001D01*
D17*
X140000000Y-84325001D02*
X142000000Y-84325001D01*
D16*
X142800000Y-80800000D02*
X142800000Y-80874999D01*
X152000000Y-79925001D02*
X152000000Y-77274999D01*
X138826000Y-78250999D02*
X149024000Y-78250999D01*
X138600000Y-81674999D02*
X142000000Y-81674999D01*
X133137499Y-83537499D02*
X135000000Y-81674999D01*
X132349998Y-84325001D02*
X133137499Y-83537499D01*
X152000000Y-79925001D02*
X150000000Y-79925001D01*
%TO.N,Net-(D13-K)*%
X147000000Y-81674999D02*
X147000000Y-84325001D01*
X137000000Y-84325001D02*
X137976000Y-83349001D01*
X144024000Y-83349001D02*
X145000000Y-84325001D01*
X151000000Y-83200000D02*
X148125001Y-83200000D01*
X150000000Y-103674999D02*
X151000000Y-103674999D01*
X151000000Y-103674999D02*
X152000000Y-103674999D01*
X151000000Y-106325001D02*
X150000000Y-106325001D01*
X152000000Y-106325001D02*
X151000000Y-106325001D01*
X134470734Y-83349001D02*
X136024000Y-83349001D01*
X136024000Y-83349001D02*
X137000000Y-84325001D01*
X134074000Y-83745735D02*
X134470734Y-83349001D01*
X130000000Y-86074999D02*
X132000000Y-86074999D01*
X132000000Y-86074999D02*
X133937500Y-84137500D01*
X137976000Y-83349001D02*
X144024000Y-83349001D01*
X133937500Y-84137500D02*
X134074000Y-84000999D01*
X134074000Y-84000999D02*
X134074000Y-83745735D01*
X148125001Y-83200000D02*
X147000000Y-84325001D01*
X145000000Y-84325001D02*
X147000000Y-84325001D01*
X145000000Y-81674999D02*
X147000000Y-81674999D01*
%TO.N,Net-(D100-A)*%
X135000000Y-86074999D02*
X136000000Y-86074999D01*
X139925001Y-88800000D02*
X140000000Y-88725001D01*
X132000000Y-115125001D02*
X132976000Y-114149001D01*
X138600000Y-86074999D02*
X142000000Y-86074999D01*
X148850998Y-114149001D02*
X150000000Y-112999999D01*
X132976000Y-114149001D02*
X148850998Y-114149001D01*
X138600000Y-88800000D02*
X139925001Y-88800000D01*
X142000000Y-85994000D02*
X142000000Y-86074999D01*
X152000000Y-112474999D02*
X150000000Y-112474999D01*
D17*
X140000000Y-88725001D02*
X142000000Y-88725001D01*
D16*
X150000000Y-112999999D02*
X150000000Y-112474999D01*
X130000000Y-115125001D02*
X132000000Y-115125001D01*
X136000000Y-86074999D02*
X138600000Y-86074999D01*
X132349998Y-88725001D02*
X135000000Y-86074999D01*
X142794000Y-85200000D02*
X142000000Y-85994000D01*
%TO.N,Net-(D17-K)*%
X146000000Y-88725001D02*
X147000000Y-88725001D01*
X148250002Y-86074999D02*
X150000000Y-84325001D01*
X145000000Y-86074999D02*
X147000000Y-86074999D01*
X144237500Y-86837500D02*
X144000000Y-87074999D01*
X150000000Y-84325001D02*
X152000000Y-84325001D01*
X134619735Y-87600000D02*
X135600000Y-87600000D01*
X144976000Y-88725001D02*
X144000000Y-87749001D01*
X144000000Y-87074999D02*
X144000000Y-87749001D01*
X145000000Y-88725001D02*
X144976000Y-88725001D01*
X137000000Y-88725001D02*
X137000000Y-88125001D01*
X152000000Y-81674999D02*
X150000000Y-81674999D01*
X135600000Y-87600000D02*
X137525001Y-87600000D01*
X145000000Y-88725001D02*
X146000000Y-88725001D01*
X130000000Y-90474999D02*
X132000000Y-90474999D01*
X143474999Y-87600000D02*
X144000000Y-87074999D01*
X133737500Y-88482235D02*
X134619735Y-87600000D01*
X152000000Y-84325001D02*
X152000000Y-81674999D01*
X145000000Y-86074999D02*
X144237500Y-86837500D01*
X147000000Y-86074999D02*
X148250002Y-86074999D01*
X137000000Y-88125001D02*
X137525001Y-87600000D01*
X137525001Y-87600000D02*
X143474999Y-87600000D01*
X132000000Y-90474999D02*
X133737500Y-88737500D01*
X133737500Y-88737500D02*
X133737500Y-88482235D01*
%TO.N,Net-(D19-K)*%
X133737500Y-91737500D02*
X135000001Y-90474999D01*
D17*
X147800000Y-109200000D02*
X148600000Y-108400000D01*
D16*
X150000000Y-108074999D02*
X152000000Y-108074999D01*
X135000000Y-90474999D02*
X133737500Y-91737500D01*
X138600000Y-90474999D02*
X142000000Y-90474999D01*
D17*
X139000000Y-109200000D02*
X147800000Y-109200000D01*
X148600000Y-108400000D02*
X149674999Y-108400000D01*
D16*
X137630331Y-109569669D02*
X137600000Y-109600000D01*
X130000000Y-110725001D02*
X132000000Y-110725001D01*
X140000000Y-93125001D02*
X138674999Y-93125001D01*
D17*
X138630331Y-109569669D02*
X139000000Y-109200000D01*
D16*
X138674999Y-93125001D02*
X138600000Y-93200000D01*
X132000000Y-93125001D02*
X132349998Y-93125001D01*
X134466363Y-109600000D02*
X133341362Y-110725001D01*
X142074999Y-90400000D02*
X142000000Y-90474999D01*
X132349998Y-93125001D02*
X135000000Y-90474999D01*
X143400000Y-90400000D02*
X142074999Y-90400000D01*
D17*
X149674999Y-108400000D02*
X150000000Y-108074999D01*
D16*
X137600000Y-109600000D02*
X134466363Y-109600000D01*
X140000000Y-93125001D02*
X142000000Y-93125001D01*
X133341362Y-110725001D02*
X132000000Y-110725001D01*
D17*
X137630331Y-109569669D02*
X138630331Y-109569669D01*
D16*
X135000001Y-90474999D02*
X138600000Y-90474999D01*
%TO.N,Net-(D101-K)*%
X143874999Y-92000000D02*
X145000000Y-93125001D01*
X134074000Y-92545735D02*
X134619735Y-92000000D01*
X134619735Y-92000000D02*
X136000000Y-92000000D01*
X147000000Y-90474999D02*
X147000000Y-93125001D01*
X137000000Y-93125001D02*
X138125001Y-92000000D01*
X136000000Y-92000000D02*
X138125001Y-92000000D01*
X146000000Y-93125001D02*
X147000000Y-93125001D01*
X135000000Y-115125001D02*
X136000000Y-115125001D01*
X133250002Y-116874999D02*
X135000000Y-115125001D01*
X130000000Y-116874999D02*
X132000000Y-116874999D01*
X130000000Y-94874999D02*
X132000000Y-94874999D01*
X132000000Y-94874999D02*
X134074000Y-92800999D01*
X134074000Y-92800999D02*
X134074000Y-92545735D01*
X138125001Y-92000000D02*
X143874999Y-92000000D01*
X145000000Y-93125001D02*
X146000000Y-93125001D01*
X145000000Y-90474999D02*
X147000000Y-90474999D01*
X132000000Y-116874999D02*
X133250002Y-116874999D01*
X136000000Y-115125001D02*
X137000000Y-115125001D01*
%TO.N,Net-(D23-K)*%
X152000000Y-86074999D02*
X152000000Y-88725001D01*
X150000000Y-88725001D02*
X152000000Y-88725001D01*
X132349998Y-97525001D02*
X133837500Y-96037500D01*
X140000000Y-97525001D02*
X142000000Y-97525001D01*
X138800000Y-97600000D02*
X139925001Y-97600000D01*
X150000000Y-86074999D02*
X152000000Y-86074999D01*
X148674999Y-87400000D02*
X150000000Y-86074999D01*
X133837500Y-96037500D02*
X135000000Y-94874999D01*
X142000000Y-94874999D02*
X143325001Y-94874999D01*
X139925001Y-97600000D02*
X140000000Y-97525001D01*
X132000000Y-97525001D02*
X132349998Y-97525001D01*
X145491475Y-87400000D02*
X148674999Y-87400000D01*
X135000000Y-94874999D02*
X142000000Y-94874999D01*
X143325001Y-94874999D02*
X143400000Y-94800000D01*
%TO.N,Net-(D25-K)*%
X130000000Y-112474999D02*
X132000000Y-112474999D01*
X132000000Y-99274999D02*
X134074000Y-97200999D01*
X144024000Y-96549001D02*
X145000000Y-97525001D01*
X134074000Y-96945735D02*
X134470734Y-96549001D01*
X137725001Y-110725001D02*
X138000000Y-111000000D01*
X147000000Y-94874999D02*
X147000000Y-97525001D01*
X147000000Y-94874999D02*
X146000000Y-94874999D01*
X132000000Y-112474999D02*
X133250002Y-112474999D01*
X137976000Y-96549001D02*
X144024000Y-96549001D01*
X146000000Y-94874999D02*
X145000000Y-94874999D01*
X130000000Y-99274999D02*
X132000000Y-99274999D01*
X135000000Y-110725002D02*
X135000000Y-110725001D01*
X135000000Y-110725001D02*
X137000000Y-110725001D01*
X137000000Y-97525001D02*
X137976000Y-96549001D01*
X137000000Y-110725001D02*
X137725001Y-110725001D01*
X134470734Y-96549001D02*
X137976000Y-96549001D01*
X133250002Y-112474999D02*
X135000000Y-110725002D01*
X145000000Y-97525001D02*
X147000000Y-97525001D01*
X134074000Y-97200999D02*
X134074000Y-96945735D01*
%TO.N,Net-(D103-K)*%
X135000000Y-116874999D02*
X137000000Y-116874999D01*
X142800000Y-101925001D02*
X140800000Y-101925001D01*
X134337500Y-99937500D02*
X135000000Y-99274999D01*
X142800000Y-99200000D02*
X142074999Y-99200000D01*
X143400000Y-115000000D02*
X142125001Y-115000000D01*
X142074999Y-99200000D02*
X142000000Y-99274999D01*
X137000000Y-116874999D02*
X138250002Y-116874999D01*
X135000000Y-99274999D02*
X142000000Y-99274999D01*
X132349998Y-101925001D02*
X132000000Y-101925001D01*
X140000000Y-115125001D02*
X142000000Y-115125001D01*
X140000000Y-101925001D02*
X140800000Y-101925001D01*
X142125001Y-115000000D02*
X142000000Y-115125001D01*
X138250002Y-116874999D02*
X140000000Y-115125001D01*
X140800000Y-101925001D02*
X142000000Y-101925001D01*
X134337500Y-99937500D02*
X132349998Y-101925001D01*
D17*
%TO.N,Net-(D29-K)*%
X144074999Y-101000000D02*
X145000000Y-101925001D01*
D16*
X134074000Y-101600999D02*
X132000000Y-103674999D01*
X149698001Y-100901999D02*
X148023002Y-100901999D01*
X137949001Y-100949001D02*
X138000000Y-101000000D01*
X148023002Y-100901999D02*
X147000000Y-101925001D01*
X147926000Y-96400000D02*
X149912257Y-96400000D01*
X145000000Y-101925001D02*
X147000000Y-101925001D01*
D17*
X137925001Y-101000000D02*
X138000000Y-101000000D01*
D16*
X135250000Y-100900001D02*
X134519734Y-100900001D01*
X149912257Y-96400000D02*
X150012258Y-96500001D01*
X132000000Y-103674999D02*
X130000000Y-103674999D01*
X146000000Y-99274999D02*
X147000000Y-99274999D01*
X147000000Y-99274999D02*
X147926000Y-98348999D01*
D17*
X137000000Y-101925001D02*
X137925001Y-101000000D01*
D16*
X134074000Y-101345735D02*
X134074000Y-101600999D01*
X147926000Y-96400000D02*
X147926000Y-95199001D01*
D17*
X138000000Y-101000000D02*
X144074999Y-101000000D01*
D16*
X134519734Y-100900001D02*
X134074000Y-101345735D01*
X135250000Y-100900001D02*
X135299000Y-100949001D01*
X150000000Y-90474999D02*
X152000000Y-90474999D01*
X152000000Y-93125001D02*
X150000000Y-93125001D01*
X147926000Y-98348999D02*
X147926000Y-96400000D01*
X135299000Y-100949001D02*
X137949001Y-100949001D01*
X152000000Y-90474999D02*
X152000000Y-93125001D01*
X145000000Y-99274999D02*
X146000000Y-99274999D01*
X147926000Y-95199001D02*
X150000000Y-93125001D01*
X150000000Y-100600000D02*
X149698001Y-100901999D01*
%TO.N,Net-(D31-K)*%
X135000000Y-112474999D02*
X134250000Y-113224999D01*
X140000001Y-110725001D02*
X142000000Y-110725001D01*
X138600000Y-103674999D02*
X142000000Y-103674999D01*
X140000000Y-106325001D02*
X138672629Y-106325001D01*
X139062501Y-111662501D02*
X140000001Y-110725001D01*
X140000000Y-103674999D02*
X138600000Y-103674999D01*
X138250002Y-112474999D02*
X140000000Y-110725001D01*
X135000000Y-103674999D02*
X140000000Y-103674999D01*
X134250000Y-113224999D02*
X133000000Y-113224999D01*
X132000000Y-106325001D02*
X132349998Y-106325001D01*
X135000000Y-112474999D02*
X137000000Y-112474999D01*
X140000000Y-110725001D02*
X139062501Y-111662501D01*
X143550000Y-103600000D02*
X142074999Y-103600000D01*
X142074999Y-103600000D02*
X142000000Y-103674999D01*
X137000000Y-112474999D02*
X138250002Y-112474999D01*
X138672629Y-106325001D02*
X142000000Y-106325001D01*
X138672629Y-106325001D02*
X138600000Y-106397630D01*
X132349998Y-106325001D02*
X135000000Y-103674999D01*
%TO.N,Net-(D105-K)*%
X140000000Y-116874999D02*
X141000000Y-116874999D01*
X134470734Y-105349001D02*
X137976000Y-105349001D01*
X141000000Y-116874999D02*
X142000000Y-116874999D01*
X137976000Y-105349001D02*
X139400000Y-105349001D01*
X142000000Y-116874999D02*
X143250002Y-116874999D01*
X130000000Y-108074999D02*
X132000000Y-108074999D01*
X132000000Y-108074999D02*
X134074000Y-106000999D01*
X146000000Y-115125001D02*
X147000000Y-115125001D01*
X145000000Y-103674999D02*
X145800000Y-103674999D01*
X143250002Y-116874999D02*
X145000000Y-115125001D01*
X145000000Y-115125001D02*
X146000000Y-115125001D01*
X145800000Y-103674999D02*
X147000000Y-103674999D01*
X144024000Y-105349001D02*
X144337500Y-105662500D01*
X145000000Y-106325001D02*
X147000000Y-106325001D01*
X134074000Y-106000999D02*
X134074000Y-105745735D01*
X144337500Y-105662500D02*
X145000000Y-106325001D01*
X137000000Y-106325001D02*
X137976000Y-105349001D01*
X139400000Y-105349001D02*
X144024000Y-105349001D01*
X134074000Y-105745735D02*
X134470734Y-105349001D01*
X147000000Y-106325001D02*
X147000000Y-103674999D01*
%TO.N,Net-(D110-K)*%
X152000000Y-115125001D02*
X152926000Y-114199001D01*
X150000000Y-94874999D02*
X152000000Y-94874999D01*
X152926000Y-117454265D02*
X152529266Y-117850999D01*
X135000000Y-108074999D02*
X142000000Y-108074999D01*
X152926000Y-95800999D02*
X152000000Y-94874999D01*
X152000000Y-115125001D02*
X152000000Y-114200000D01*
X152926000Y-114199001D02*
X152926000Y-95800999D01*
X152000000Y-114200000D02*
X151200000Y-113400000D01*
X152529266Y-117850999D02*
X149250999Y-117850999D01*
X149250999Y-117850999D02*
X149200000Y-117800000D01*
X152926000Y-114199001D02*
X152926000Y-117454265D01*
X141000000Y-108074999D02*
X142000000Y-108074999D01*
%TD*%
M02*
