%TF.GenerationSoftware,KiCad,Pcbnew,9.0.4*%
%TF.CreationDate,2025-12-23T10:24:20-05:00*%
%TF.ProjectId,LED-CharliePlexing1,4c45442d-4368-4617-926c-6965506c6578,rev?*%
%TF.SameCoordinates,Original*%
%TF.FileFunction,Plated,1,2,PTH,Drill*%
%TF.FilePolarity,Positive*%
%FSLAX46Y46*%
G04 Gerber Fmt 4.6, Leading zero omitted, Abs format (unit mm)*
G04 Created by KiCad (PCBNEW 9.0.4) date 2025-12-23 10:24:20*
%MOMM*%
%LPD*%
G01*
G04 APERTURE LIST*
%TA.AperFunction,ViaDrill*%
%ADD10C,0.300000*%
%TD*%
%TA.AperFunction,ComponentDrill*%
%ADD11C,1.000000*%
%TD*%
G04 APERTURE END LIST*
D10*
X128400000Y-85200000D03*
X128600000Y-70200000D03*
X128600000Y-73400000D03*
X128600000Y-80600000D03*
X128600000Y-87200000D03*
X128800000Y-75525001D03*
X128800000Y-78400000D03*
X129000000Y-83000000D03*
X133000000Y-71000000D03*
X133000000Y-113224999D03*
X133037500Y-79237500D03*
X133137499Y-83537499D03*
X133200000Y-72400000D03*
X133237500Y-74637500D03*
X133737500Y-91737500D03*
X133837500Y-96037500D03*
X133937500Y-84137500D03*
X134179858Y-79182126D03*
X134337500Y-99937500D03*
X135200000Y-96500001D03*
X135250000Y-100900001D03*
X135600000Y-87600000D03*
X135708180Y-74233181D03*
X136000000Y-86074999D03*
X136000000Y-92000000D03*
X136000000Y-115125001D03*
X136750000Y-96549001D03*
X137630331Y-109569669D03*
X138000000Y-111000000D03*
X138400000Y-71400000D03*
X138600000Y-78024999D03*
X138600000Y-81674999D03*
X138600000Y-84200000D03*
X138600000Y-86074999D03*
X138600000Y-88800000D03*
X138600000Y-90474999D03*
X138600000Y-93200000D03*
X138600000Y-103674999D03*
X138600000Y-106397630D03*
X138800000Y-94874999D03*
X138800000Y-97600000D03*
X139062501Y-111662501D03*
X140000000Y-114100001D03*
X141000000Y-72874999D03*
X141000000Y-75525001D03*
X141000000Y-77274999D03*
X141000000Y-79925001D03*
X141000000Y-100024999D03*
X141000000Y-108074999D03*
X141000000Y-116874999D03*
X142193991Y-83300001D03*
X142794000Y-85200000D03*
X142800000Y-80800000D03*
X142800000Y-99200000D03*
X142800000Y-101925001D03*
X143400000Y-90400000D03*
X143400000Y-94800000D03*
X143400000Y-115000000D03*
X143550000Y-103600000D03*
X143600000Y-71400000D03*
X143800000Y-74549001D03*
X144237500Y-86837500D03*
X145491475Y-87400000D03*
X145800000Y-103674999D03*
X146000000Y-77274999D03*
X146000000Y-79925001D03*
X146000000Y-88725001D03*
X146000000Y-93125001D03*
X146000000Y-94874999D03*
X146000000Y-99274999D03*
X146000000Y-112474999D03*
X146000000Y-115125001D03*
X147800000Y-74200000D03*
X147900000Y-109900000D03*
X147975000Y-114899001D03*
X148400000Y-71000000D03*
X148600000Y-113000000D03*
X149000000Y-97400000D03*
X149200000Y-117800000D03*
X150000000Y-100600000D03*
X150012258Y-96500001D03*
X151000000Y-71125001D03*
X151000000Y-83200000D03*
X151000000Y-103674999D03*
X151000000Y-106325001D03*
X151000000Y-116874999D03*
X151200000Y-113400000D03*
X152000000Y-105000000D03*
D11*
%TO.C,J9*%
X120600000Y-71200000D03*
X120600000Y-73740000D03*
X120600000Y-76280000D03*
X120600000Y-78820000D03*
X120600000Y-81360000D03*
X120600000Y-83900000D03*
X120600000Y-86440000D03*
X120600000Y-88980000D03*
X120600000Y-91520000D03*
X120600000Y-94060000D03*
X120600000Y-96600000D03*
X120600000Y-99140000D03*
X120600000Y-101680000D03*
X120600000Y-104220000D03*
X120600000Y-106760000D03*
X120600000Y-109300000D03*
X120600000Y-111840000D03*
X120600000Y-114380000D03*
X120600000Y-116920000D03*
%TO.C,J1*%
X123460000Y-71200000D03*
X123460000Y-73740000D03*
X123460000Y-76280000D03*
X123460000Y-78820000D03*
X123460000Y-81360000D03*
X123460000Y-83900000D03*
X123460000Y-86440000D03*
X123460000Y-88980000D03*
X123460000Y-91520000D03*
X123460000Y-94060000D03*
X123460000Y-96600000D03*
X123460000Y-99140000D03*
X123460000Y-101680000D03*
X123460000Y-104220000D03*
X123460000Y-106760000D03*
X123460000Y-109300000D03*
X123460000Y-111840000D03*
X123460000Y-114380000D03*
X123460000Y-116920000D03*
X126000000Y-71200000D03*
X126000000Y-73740000D03*
X126000000Y-76280000D03*
X126000000Y-78820000D03*
X126000000Y-81360000D03*
X126000000Y-83900000D03*
X126000000Y-86440000D03*
X126000000Y-88980000D03*
X126000000Y-91520000D03*
X126000000Y-94060000D03*
X126000000Y-96600000D03*
X126000000Y-99140000D03*
X126000000Y-101680000D03*
X126000000Y-104220000D03*
X126000000Y-106760000D03*
X126000000Y-109300000D03*
X126000000Y-111840000D03*
X126000000Y-114380000D03*
X126000000Y-116920000D03*
M02*
