%TF.GenerationSoftware,KiCad,Pcbnew,9.0.4*%
%TF.CreationDate,2025-12-21T12:41:10-05:00*%
%TF.ProjectId,Mess-Sense+USBC,4d657373-2d53-4656-9e73-652b55534243,rev?*%
%TF.SameCoordinates,Original*%
%TF.FileFunction,Paste,Bot*%
%TF.FilePolarity,Positive*%
%FSLAX46Y46*%
G04 Gerber Fmt 4.6, Leading zero omitted, Abs format (unit mm)*
G04 Created by KiCad (PCBNEW 9.0.4) date 2025-12-21 12:41:10*
%MOMM*%
%LPD*%
G01*
G04 APERTURE LIST*
G04 Aperture macros list*
%AMRoundRect*
0 Rectangle with rounded corners*
0 $1 Rounding radius*
0 $2 $3 $4 $5 $6 $7 $8 $9 X,Y pos of 4 corners*
0 Add a 4 corners polygon primitive as box body*
4,1,4,$2,$3,$4,$5,$6,$7,$8,$9,$2,$3,0*
0 Add four circle primitives for the rounded corners*
1,1,$1+$1,$2,$3*
1,1,$1+$1,$4,$5*
1,1,$1+$1,$6,$7*
1,1,$1+$1,$8,$9*
0 Add four rect primitives between the rounded corners*
20,1,$1+$1,$2,$3,$4,$5,0*
20,1,$1+$1,$4,$5,$6,$7,0*
20,1,$1+$1,$6,$7,$8,$9,0*
20,1,$1+$1,$8,$9,$2,$3,0*%
G04 Aperture macros list end*
%ADD10C,0.260000*%
%ADD11C,0.235000*%
%ADD12C,0.250000*%
%ADD13RoundRect,0.150000X-0.825000X-0.150000X0.825000X-0.150000X0.825000X0.150000X-0.825000X0.150000X0*%
G04 APERTURE END LIST*
D10*
%TO.C,U9*%
X145300000Y-144600000D03*
X145300000Y-145600000D03*
X145800000Y-144600001D03*
X145800000Y-145599999D03*
X146300000Y-144600000D03*
X146300000Y-145600000D03*
%TD*%
D11*
%TO.C,U13*%
X140900000Y-145600000D03*
X141300000Y-145600000D03*
X140900000Y-145200000D03*
X141300000Y-145200000D03*
%TD*%
D12*
%TO.C,U7*%
X151000000Y-145600000D03*
X151000000Y-145200000D03*
X150600000Y-145600000D03*
X150600000Y-145200000D03*
%TD*%
D13*
%TO.C,U16*%
X141125000Y-134905000D03*
X141125000Y-133635000D03*
X141125000Y-132365000D03*
X141125000Y-131095000D03*
X146075000Y-131095000D03*
X146075000Y-132365000D03*
X146075000Y-133635000D03*
X146075000Y-134905000D03*
%TD*%
D11*
%TO.C,U109*%
X140900000Y-105600000D03*
X141300000Y-105600000D03*
X140900000Y-105200000D03*
X141300000Y-105200000D03*
%TD*%
D12*
%TO.C,U103*%
X151000000Y-105600000D03*
X151000000Y-105200000D03*
X150600000Y-105600000D03*
X150600000Y-105200000D03*
%TD*%
D10*
%TO.C,U105*%
X145300000Y-104600000D03*
X145300000Y-105600000D03*
X145800000Y-104600001D03*
X145800000Y-105599999D03*
X146300000Y-104600000D03*
X146300000Y-105600000D03*
%TD*%
D13*
%TO.C,U112*%
X141125000Y-94905000D03*
X141125000Y-93635000D03*
X141125000Y-92365000D03*
X141125000Y-91095000D03*
X146075000Y-91095000D03*
X146075000Y-92365000D03*
X146075000Y-93635000D03*
X146075000Y-94905000D03*
%TD*%
D12*
%TO.C,U87*%
X101000000Y-105600000D03*
X101000000Y-105200000D03*
X100600000Y-105600000D03*
X100600000Y-105200000D03*
%TD*%
D10*
%TO.C,U89*%
X95300000Y-104600000D03*
X95300000Y-105600000D03*
X95800000Y-104600001D03*
X95800000Y-105599999D03*
X96300000Y-104600000D03*
X96300000Y-105600000D03*
%TD*%
D13*
%TO.C,U96*%
X91125000Y-94905000D03*
X91125000Y-93635000D03*
X91125000Y-92365000D03*
X91125000Y-91095000D03*
X96075000Y-91095000D03*
X96075000Y-92365000D03*
X96075000Y-93635000D03*
X96075000Y-94905000D03*
%TD*%
D11*
%TO.C,U93*%
X90900000Y-105600000D03*
X91300000Y-105600000D03*
X90900000Y-105200000D03*
X91300000Y-105200000D03*
%TD*%
%TO.C,U45*%
X140900000Y-65600000D03*
X141300000Y-65600000D03*
X140900000Y-65200000D03*
X141300000Y-65200000D03*
%TD*%
D10*
%TO.C,U41*%
X145300000Y-64600000D03*
X145300000Y-65600000D03*
X145800000Y-64600001D03*
X145800000Y-65599999D03*
X146300000Y-64600000D03*
X146300000Y-65600000D03*
%TD*%
D12*
%TO.C,U39*%
X151000000Y-65600000D03*
X151000000Y-65200000D03*
X150600000Y-65600000D03*
X150600000Y-65200000D03*
%TD*%
D13*
%TO.C,U48*%
X141125000Y-54905000D03*
X141125000Y-53635000D03*
X141125000Y-52365000D03*
X141125000Y-51095000D03*
X146075000Y-51095000D03*
X146075000Y-52365000D03*
X146075000Y-53635000D03*
X146075000Y-54905000D03*
%TD*%
D11*
%TO.C,U61*%
X90900000Y-85600000D03*
X91300000Y-85600000D03*
X90900000Y-85200000D03*
X91300000Y-85200000D03*
%TD*%
D12*
%TO.C,U55*%
X101000000Y-85600000D03*
X101000000Y-85200000D03*
X100600000Y-85600000D03*
X100600000Y-85200000D03*
%TD*%
D10*
%TO.C,U57*%
X95300000Y-84600000D03*
X95300000Y-85600000D03*
X95800000Y-84600001D03*
X95800000Y-85599999D03*
X96300000Y-84600000D03*
X96300000Y-85600000D03*
%TD*%
D13*
%TO.C,U64*%
X91125000Y-74905000D03*
X91125000Y-73635000D03*
X91125000Y-72365000D03*
X91125000Y-71095000D03*
X96075000Y-71095000D03*
X96075000Y-72365000D03*
X96075000Y-73635000D03*
X96075000Y-74905000D03*
%TD*%
D11*
%TO.C,U77*%
X140900000Y-85600000D03*
X141300000Y-85600000D03*
X140900000Y-85200000D03*
X141300000Y-85200000D03*
%TD*%
D10*
%TO.C,U73*%
X145300000Y-84600000D03*
X145300000Y-85600000D03*
X145800000Y-84600001D03*
X145800000Y-85599999D03*
X146300000Y-84600000D03*
X146300000Y-85600000D03*
%TD*%
D12*
%TO.C,U71*%
X151000000Y-85600000D03*
X151000000Y-85200000D03*
X150600000Y-85600000D03*
X150600000Y-85200000D03*
%TD*%
D13*
%TO.C,U80*%
X141125000Y-74905000D03*
X141125000Y-73635000D03*
X141125000Y-72365000D03*
X141125000Y-71095000D03*
X146075000Y-71095000D03*
X146075000Y-72365000D03*
X146075000Y-73635000D03*
X146075000Y-74905000D03*
%TD*%
D10*
%TO.C,U25*%
X95300000Y-64600000D03*
X95300000Y-65600000D03*
X95800000Y-64600001D03*
X95800000Y-65599999D03*
X96300000Y-64600000D03*
X96300000Y-65600000D03*
%TD*%
D11*
%TO.C,U29*%
X90900000Y-65600000D03*
X91300000Y-65600000D03*
X90900000Y-65200000D03*
X91300000Y-65200000D03*
%TD*%
D12*
%TO.C,U23*%
X101000000Y-65600000D03*
X101000000Y-65200000D03*
X100600000Y-65600000D03*
X100600000Y-65200000D03*
%TD*%
D13*
%TO.C,U32*%
X91125000Y-54905000D03*
X91125000Y-53635000D03*
X91125000Y-52365000D03*
X91125000Y-51095000D03*
X96075000Y-51095000D03*
X96075000Y-52365000D03*
X96075000Y-53635000D03*
X96075000Y-54905000D03*
%TD*%
D10*
%TO.C,U137*%
X145300000Y-124600000D03*
X145300000Y-125600000D03*
X145800000Y-124600001D03*
X145800000Y-125599999D03*
X146300000Y-124600000D03*
X146300000Y-125600000D03*
%TD*%
D11*
%TO.C,U141*%
X140900000Y-125600000D03*
X141300000Y-125600000D03*
X140900000Y-125200000D03*
X141300000Y-125200000D03*
%TD*%
D13*
%TO.C,U144*%
X141125000Y-114905000D03*
X141125000Y-113635000D03*
X141125000Y-112365000D03*
X141125000Y-111095000D03*
X146075000Y-111095000D03*
X146075000Y-112365000D03*
X146075000Y-113635000D03*
X146075000Y-114905000D03*
%TD*%
D12*
%TO.C,U135*%
X151000000Y-125600000D03*
X151000000Y-125200000D03*
X150600000Y-125600000D03*
X150600000Y-125200000D03*
%TD*%
D11*
%TO.C,U157*%
X90900000Y-145600000D03*
X91300000Y-145600000D03*
X90900000Y-145200000D03*
X91300000Y-145200000D03*
%TD*%
D12*
%TO.C,U151*%
X101000000Y-145600000D03*
X101000000Y-145200000D03*
X100600000Y-145600000D03*
X100600000Y-145200000D03*
%TD*%
D13*
%TO.C,U160*%
X91125000Y-134905000D03*
X91125000Y-133635000D03*
X91125000Y-132365000D03*
X91125000Y-131095000D03*
X96075000Y-131095000D03*
X96075000Y-132365000D03*
X96075000Y-133635000D03*
X96075000Y-134905000D03*
%TD*%
D10*
%TO.C,U153*%
X95300000Y-144600000D03*
X95300000Y-145600000D03*
X95800000Y-144600001D03*
X95800000Y-145599999D03*
X96300000Y-144600000D03*
X96300000Y-145600000D03*
%TD*%
D11*
%TO.C,U125*%
X90900000Y-125600000D03*
X91300000Y-125600000D03*
X90900000Y-125200000D03*
X91300000Y-125200000D03*
%TD*%
D10*
%TO.C,U121*%
X95300000Y-124600000D03*
X95300000Y-125600000D03*
X95800000Y-124600001D03*
X95800000Y-125599999D03*
X96300000Y-124600000D03*
X96300000Y-125600000D03*
%TD*%
D12*
%TO.C,U119*%
X101000000Y-125600000D03*
X101000000Y-125200000D03*
X100600000Y-125600000D03*
X100600000Y-125200000D03*
%TD*%
D13*
%TO.C,U128*%
X91125000Y-114905000D03*
X91125000Y-113635000D03*
X91125000Y-112365000D03*
X91125000Y-111095000D03*
X96075000Y-111095000D03*
X96075000Y-112365000D03*
X96075000Y-113635000D03*
X96075000Y-114905000D03*
%TD*%
M02*
