%TF.GenerationSoftware,KiCad,Pcbnew,9.0.4*%
%TF.CreationDate,2025-12-22T17:02:15-05:00*%
%TF.ProjectId,Mess-Sense+USBC,4d657373-2d53-4656-9e73-652b55534243,rev?*%
%TF.SameCoordinates,Original*%
%TF.FileFunction,Soldermask,Bot*%
%TF.FilePolarity,Negative*%
%FSLAX46Y46*%
G04 Gerber Fmt 4.6, Leading zero omitted, Abs format (unit mm)*
G04 Created by KiCad (PCBNEW 9.0.4) date 2025-12-22 17:02:15*
%MOMM*%
%LPD*%
G01*
G04 APERTURE LIST*
G04 Aperture macros list*
%AMRoundRect*
0 Rectangle with rounded corners*
0 $1 Rounding radius*
0 $2 $3 $4 $5 $6 $7 $8 $9 X,Y pos of 4 corners*
0 Add a 4 corners polygon primitive as box body*
4,1,4,$2,$3,$4,$5,$6,$7,$8,$9,$2,$3,0*
0 Add four circle primitives for the rounded corners*
1,1,$1+$1,$2,$3*
1,1,$1+$1,$4,$5*
1,1,$1+$1,$6,$7*
1,1,$1+$1,$8,$9*
0 Add four rect primitives between the rounded corners*
20,1,$1+$1,$2,$3,$4,$5,0*
20,1,$1+$1,$4,$5,$6,$7,0*
20,1,$1+$1,$6,$7,$8,$9,0*
20,1,$1+$1,$8,$9,$2,$3,0*%
G04 Aperture macros list end*
%ADD10C,1.700000*%
%ADD11R,1.700000X1.700000*%
%ADD12C,0.250000*%
%ADD13C,0.235000*%
%ADD14O,1.000000X1.600000*%
%ADD15O,1.000000X2.100000*%
%ADD16C,0.650000*%
%ADD17R,0.850000X0.850000*%
%ADD18C,1.000000*%
%ADD19R,1.000000X1.000000*%
%ADD20RoundRect,0.150000X-0.825000X-0.150000X0.825000X-0.150000X0.825000X0.150000X-0.825000X0.150000X0*%
%ADD21C,0.464000*%
G04 APERTURE END LIST*
D10*
%TO.C,J9*%
X145852000Y-144688000D03*
X145852000Y-142148000D03*
X145852000Y-139608000D03*
X145852000Y-137068000D03*
X145852000Y-134528000D03*
X145852000Y-131988000D03*
D11*
X145852000Y-129448000D03*
%TD*%
D12*
%TO.C,U7*%
X136147000Y-144643000D03*
X136147000Y-145043000D03*
X136547000Y-144643000D03*
X136547000Y-145043000D03*
%TD*%
D10*
%TO.C,J2*%
X149052000Y-144648000D03*
X149052000Y-142108000D03*
X149052000Y-139568000D03*
D11*
X149052000Y-137028000D03*
%TD*%
D13*
%TO.C,U13*%
X126847000Y-144643000D03*
X126447000Y-144643000D03*
X126847000Y-145043000D03*
X126447000Y-145043000D03*
%TD*%
D14*
%TO.C,U4*%
X162272000Y-144658000D03*
D15*
X162272000Y-140478000D03*
D14*
X153632000Y-144658000D03*
D15*
X153632000Y-140478000D03*
D16*
X160842000Y-141008000D03*
X155062000Y-141008000D03*
%TD*%
D17*
%TO.C,TP1*%
X128852000Y-135448000D03*
%TD*%
D10*
%TO.C,J1*%
X122347000Y-143863000D03*
X122347000Y-141323000D03*
X122347000Y-138783000D03*
X122347000Y-136243000D03*
X122347000Y-133703000D03*
D11*
X122347000Y-131163000D03*
%TD*%
D18*
%TO.C,J6*%
X133347000Y-137843001D03*
D19*
X133347000Y-139113001D03*
%TD*%
D20*
%TO.C,U16*%
X131622000Y-134348000D03*
X131622000Y-133078000D03*
X131622000Y-131808000D03*
X131622000Y-130538000D03*
X126672000Y-130538000D03*
X126672000Y-131808000D03*
X126672000Y-133078000D03*
X126672000Y-134348000D03*
%TD*%
D10*
%TO.C,J4*%
X166852000Y-144648000D03*
X166852000Y-142108000D03*
X166852000Y-139568000D03*
D11*
X166852000Y-137028000D03*
%TD*%
D10*
%TO.C,J8*%
X140312000Y-130548000D03*
D11*
X142852000Y-130548000D03*
%TD*%
D21*
%TO.C,U9*%
X131847000Y-145043000D03*
X131847000Y-144043000D03*
X131347000Y-145042999D03*
X131347000Y-144043001D03*
X130847000Y-145043000D03*
X130847000Y-144043000D03*
%TD*%
D10*
%TO.C,J80*%
X140312000Y-110548000D03*
D11*
X142852000Y-110548000D03*
%TD*%
D10*
%TO.C,J74*%
X149052000Y-124648000D03*
X149052000Y-122108000D03*
X149052000Y-119568000D03*
D11*
X149052000Y-117028000D03*
%TD*%
D10*
%TO.C,J73*%
X122347000Y-123863000D03*
X122347000Y-121323000D03*
X122347000Y-118783000D03*
X122347000Y-116243000D03*
X122347000Y-113703000D03*
D11*
X122347000Y-111163000D03*
%TD*%
D10*
%TO.C,J76*%
X166852000Y-124648000D03*
X166852000Y-122108000D03*
X166852000Y-119568000D03*
D11*
X166852000Y-117028000D03*
%TD*%
D17*
%TO.C,TP9*%
X128852000Y-115448000D03*
%TD*%
D18*
%TO.C,J78*%
X133347000Y-117843001D03*
D19*
X133347000Y-119113001D03*
%TD*%
D21*
%TO.C,U137*%
X131847000Y-125043000D03*
X131847000Y-124043000D03*
X131347000Y-125042999D03*
X131347000Y-124043001D03*
X130847000Y-125043000D03*
X130847000Y-124043000D03*
%TD*%
D13*
%TO.C,U141*%
X126847000Y-124643000D03*
X126447000Y-124643000D03*
X126847000Y-125043000D03*
X126447000Y-125043000D03*
%TD*%
D12*
%TO.C,U135*%
X136147000Y-124643000D03*
X136147000Y-125043000D03*
X136547000Y-124643000D03*
X136547000Y-125043000D03*
%TD*%
D20*
%TO.C,U144*%
X131622000Y-114348000D03*
X131622000Y-113078000D03*
X131622000Y-111808000D03*
X131622000Y-110538000D03*
X126672000Y-110538000D03*
X126672000Y-111808000D03*
X126672000Y-113078000D03*
X126672000Y-114348000D03*
%TD*%
D10*
%TO.C,J81*%
X145852000Y-124688000D03*
X145852000Y-122148000D03*
X145852000Y-119608000D03*
X145852000Y-117068000D03*
X145852000Y-114528000D03*
X145852000Y-111988000D03*
D11*
X145852000Y-109448000D03*
%TD*%
D17*
%TO.C,TP2*%
X78852000Y-55448000D03*
%TD*%
D11*
%TO.C,J38*%
X149052000Y-77028000D03*
D10*
X149052000Y-79568000D03*
X149052000Y-82108000D03*
X149052000Y-84648000D03*
%TD*%
D11*
%TO.C,J83*%
X99052000Y-137028000D03*
D10*
X99052000Y-139568000D03*
X99052000Y-142108000D03*
X99052000Y-144648000D03*
%TD*%
D11*
%TO.C,J58*%
X166852000Y-97028000D03*
D10*
X166852000Y-99568000D03*
X166852000Y-102108000D03*
X166852000Y-104648000D03*
%TD*%
D11*
%TO.C,J63*%
X145852000Y-89448000D03*
D10*
X145852000Y-91988000D03*
X145852000Y-94528000D03*
X145852000Y-97068000D03*
X145852000Y-99608000D03*
X145852000Y-102148000D03*
X145852000Y-104688000D03*
%TD*%
D19*
%TO.C,J87*%
X83347000Y-139113001D03*
D18*
X83347000Y-137843001D03*
%TD*%
D17*
%TO.C,TP8*%
X78852000Y-115448000D03*
%TD*%
D11*
%TO.C,J54*%
X95852000Y-89448000D03*
D10*
X95852000Y-91988000D03*
X95852000Y-94528000D03*
X95852000Y-97068000D03*
X95852000Y-99608000D03*
X95852000Y-102148000D03*
X95852000Y-104688000D03*
%TD*%
D11*
%TO.C,J72*%
X95852000Y-109448000D03*
D10*
X95852000Y-111988000D03*
X95852000Y-114528000D03*
X95852000Y-117068000D03*
X95852000Y-119608000D03*
X95852000Y-122148000D03*
X95852000Y-124688000D03*
%TD*%
D11*
%TO.C,J35*%
X92852000Y-70548000D03*
D10*
X90312000Y-70548000D03*
%TD*%
D11*
%TO.C,J71*%
X92852000Y-110548000D03*
D10*
X90312000Y-110548000D03*
%TD*%
D11*
%TO.C,J45*%
X145852000Y-69448000D03*
D10*
X145852000Y-71988000D03*
X145852000Y-74528000D03*
X145852000Y-77068000D03*
X145852000Y-79608000D03*
X145852000Y-82148000D03*
X145852000Y-84688000D03*
%TD*%
D11*
%TO.C,J26*%
X142852000Y-50548000D03*
D10*
X140312000Y-50548000D03*
%TD*%
D11*
%TO.C,J13*%
X116852000Y-57028000D03*
D10*
X116852000Y-59568000D03*
X116852000Y-62108000D03*
X116852000Y-64648000D03*
%TD*%
D11*
%TO.C,J31*%
X116852000Y-77028000D03*
D10*
X116852000Y-79568000D03*
X116852000Y-82108000D03*
X116852000Y-84648000D03*
%TD*%
D16*
%TO.C,U84*%
X105062000Y-101008000D03*
X110842000Y-101008000D03*
D15*
X103632000Y-100478000D03*
D14*
X103632000Y-104658000D03*
D15*
X112272000Y-100478000D03*
D14*
X112272000Y-104658000D03*
%TD*%
D19*
%TO.C,J69*%
X83347000Y-119113001D03*
D18*
X83347000Y-117843001D03*
%TD*%
D11*
%TO.C,J65*%
X99052000Y-117028000D03*
D10*
X99052000Y-119568000D03*
X99052000Y-122108000D03*
X99052000Y-124648000D03*
%TD*%
D11*
%TO.C,J28*%
X72347000Y-71163000D03*
D10*
X72347000Y-73703000D03*
X72347000Y-76243000D03*
X72347000Y-78783000D03*
X72347000Y-81323000D03*
X72347000Y-83863000D03*
%TD*%
D11*
%TO.C,J17*%
X92852000Y-50548000D03*
D10*
X90312000Y-50548000D03*
%TD*%
D19*
%TO.C,J42*%
X133347000Y-79113001D03*
D18*
X133347000Y-77843001D03*
%TD*%
D19*
%TO.C,J24*%
X133347000Y-59113001D03*
D18*
X133347000Y-57843001D03*
%TD*%
D11*
%TO.C,J82*%
X72347000Y-131163000D03*
D10*
X72347000Y-133703000D03*
X72347000Y-136243000D03*
X72347000Y-138783000D03*
X72347000Y-141323000D03*
X72347000Y-143863000D03*
%TD*%
D17*
%TO.C,TP4*%
X78852000Y-75448000D03*
%TD*%
D11*
%TO.C,J64*%
X72347000Y-111163000D03*
D10*
X72347000Y-113703000D03*
X72347000Y-116243000D03*
X72347000Y-118783000D03*
X72347000Y-121323000D03*
X72347000Y-123863000D03*
%TD*%
D11*
%TO.C,J46*%
X72347000Y-91163000D03*
D10*
X72347000Y-93703000D03*
X72347000Y-96243000D03*
X72347000Y-98783000D03*
X72347000Y-101323000D03*
X72347000Y-103863000D03*
%TD*%
D11*
%TO.C,J22*%
X166852000Y-57028000D03*
D10*
X166852000Y-59568000D03*
X166852000Y-62108000D03*
X166852000Y-64648000D03*
%TD*%
D19*
%TO.C,J33*%
X83347000Y-79113001D03*
D18*
X83347000Y-77843001D03*
%TD*%
D11*
%TO.C,J29*%
X99052000Y-77028000D03*
D10*
X99052000Y-79568000D03*
X99052000Y-82108000D03*
X99052000Y-84648000D03*
%TD*%
D11*
%TO.C,J53*%
X92852000Y-90548000D03*
D10*
X90312000Y-90548000D03*
%TD*%
D11*
%TO.C,J47*%
X99052000Y-97028000D03*
D10*
X99052000Y-99568000D03*
X99052000Y-102108000D03*
X99052000Y-104648000D03*
%TD*%
D16*
%TO.C,U68*%
X155062000Y-81008000D03*
X160842000Y-81008000D03*
D15*
X153632000Y-80478000D03*
D14*
X153632000Y-84658000D03*
D15*
X162272000Y-80478000D03*
D14*
X162272000Y-84658000D03*
%TD*%
D16*
%TO.C,U52*%
X105062000Y-81008000D03*
X110842000Y-81008000D03*
D15*
X103632000Y-80478000D03*
D14*
X103632000Y-84658000D03*
D15*
X112272000Y-80478000D03*
D14*
X112272000Y-84658000D03*
%TD*%
D16*
%TO.C,U20*%
X105062000Y-61008000D03*
X110842000Y-61008000D03*
D15*
X103632000Y-60478000D03*
D14*
X103632000Y-64658000D03*
D15*
X112272000Y-60478000D03*
D14*
X112272000Y-64658000D03*
%TD*%
D16*
%TO.C,U116*%
X105062000Y-121008000D03*
X110842000Y-121008000D03*
D15*
X103632000Y-120478000D03*
D14*
X103632000Y-124658000D03*
D15*
X112272000Y-120478000D03*
D14*
X112272000Y-124658000D03*
%TD*%
D17*
%TO.C,TP10*%
X78852000Y-135448000D03*
%TD*%
D16*
%TO.C,U36*%
X155062000Y-61008000D03*
X160842000Y-61008000D03*
D15*
X153632000Y-60478000D03*
D14*
X153632000Y-64658000D03*
D15*
X162272000Y-60478000D03*
D14*
X162272000Y-64658000D03*
%TD*%
D17*
%TO.C,TP7*%
X128852000Y-95448000D03*
%TD*%
D11*
%TO.C,J49*%
X116852000Y-97028000D03*
D10*
X116852000Y-99568000D03*
X116852000Y-102108000D03*
X116852000Y-104648000D03*
%TD*%
D11*
%TO.C,J10*%
X72347000Y-51163000D03*
D10*
X72347000Y-53703000D03*
X72347000Y-56243000D03*
X72347000Y-58783000D03*
X72347000Y-61323000D03*
X72347000Y-63863000D03*
%TD*%
D11*
%TO.C,J44*%
X142852000Y-70548000D03*
D10*
X140312000Y-70548000D03*
%TD*%
D11*
%TO.C,J36*%
X95852000Y-69448000D03*
D10*
X95852000Y-71988000D03*
X95852000Y-74528000D03*
X95852000Y-77068000D03*
X95852000Y-79608000D03*
X95852000Y-82148000D03*
X95852000Y-84688000D03*
%TD*%
D11*
%TO.C,J18*%
X95852000Y-49448000D03*
D10*
X95852000Y-51988000D03*
X95852000Y-54528000D03*
X95852000Y-57068000D03*
X95852000Y-59608000D03*
X95852000Y-62148000D03*
X95852000Y-64688000D03*
%TD*%
D11*
%TO.C,J27*%
X145852000Y-49448000D03*
D10*
X145852000Y-51988000D03*
X145852000Y-54528000D03*
X145852000Y-57068000D03*
X145852000Y-59608000D03*
X145852000Y-62148000D03*
X145852000Y-64688000D03*
%TD*%
D11*
%TO.C,J56*%
X149052000Y-97028000D03*
D10*
X149052000Y-99568000D03*
X149052000Y-102108000D03*
X149052000Y-104648000D03*
%TD*%
D11*
%TO.C,J37*%
X122347000Y-71163000D03*
D10*
X122347000Y-73703000D03*
X122347000Y-76243000D03*
X122347000Y-78783000D03*
X122347000Y-81323000D03*
X122347000Y-83863000D03*
%TD*%
D11*
%TO.C,J90*%
X95852000Y-129448000D03*
D10*
X95852000Y-131988000D03*
X95852000Y-134528000D03*
X95852000Y-137068000D03*
X95852000Y-139608000D03*
X95852000Y-142148000D03*
X95852000Y-144688000D03*
%TD*%
D17*
%TO.C,TP5*%
X128852000Y-75448000D03*
%TD*%
D19*
%TO.C,J60*%
X133347000Y-99113001D03*
D18*
X133347000Y-97843001D03*
%TD*%
D19*
%TO.C,J51*%
X83347000Y-99113001D03*
D18*
X83347000Y-97843001D03*
%TD*%
D17*
%TO.C,TP6*%
X78852000Y-95448000D03*
%TD*%
D11*
%TO.C,J20*%
X149052000Y-57028000D03*
D10*
X149052000Y-59568000D03*
X149052000Y-62108000D03*
X149052000Y-64648000D03*
%TD*%
D11*
%TO.C,J62*%
X142852000Y-90548000D03*
D10*
X140312000Y-90548000D03*
%TD*%
D19*
%TO.C,J15*%
X83347000Y-59113001D03*
D18*
X83347000Y-57843001D03*
%TD*%
D16*
%TO.C,U148*%
X105062000Y-141008000D03*
X110842000Y-141008000D03*
D15*
X103632000Y-140478000D03*
D14*
X103632000Y-144658000D03*
D15*
X112272000Y-140478000D03*
D14*
X112272000Y-144658000D03*
%TD*%
D16*
%TO.C,U100*%
X155062000Y-101008000D03*
X160842000Y-101008000D03*
D15*
X153632000Y-100478000D03*
D14*
X153632000Y-104658000D03*
D15*
X162272000Y-100478000D03*
D14*
X162272000Y-104658000D03*
%TD*%
D17*
%TO.C,TP3*%
X128852000Y-55448000D03*
%TD*%
D11*
%TO.C,J19*%
X122347000Y-51163000D03*
D10*
X122347000Y-53703000D03*
X122347000Y-56243000D03*
X122347000Y-58783000D03*
X122347000Y-61323000D03*
X122347000Y-63863000D03*
%TD*%
D11*
%TO.C,J40*%
X166852000Y-77028000D03*
D10*
X166852000Y-79568000D03*
X166852000Y-82108000D03*
X166852000Y-84648000D03*
%TD*%
D11*
%TO.C,J67*%
X116852000Y-117028000D03*
D10*
X116852000Y-119568000D03*
X116852000Y-122108000D03*
X116852000Y-124648000D03*
%TD*%
D11*
%TO.C,J89*%
X92852000Y-130548000D03*
D10*
X90312000Y-130548000D03*
%TD*%
D16*
%TO.C,U132*%
X155062000Y-121008000D03*
X160842000Y-121008000D03*
D15*
X153632000Y-120478000D03*
D14*
X153632000Y-124658000D03*
D15*
X162272000Y-120478000D03*
D14*
X162272000Y-124658000D03*
%TD*%
D11*
%TO.C,J85*%
X116852000Y-137028000D03*
D10*
X116852000Y-139568000D03*
X116852000Y-142108000D03*
X116852000Y-144648000D03*
%TD*%
D11*
%TO.C,J11*%
X99052000Y-57028000D03*
D10*
X99052000Y-59568000D03*
X99052000Y-62108000D03*
X99052000Y-64648000D03*
%TD*%
D11*
%TO.C,J55*%
X122347000Y-91163000D03*
D10*
X122347000Y-93703000D03*
X122347000Y-96243000D03*
X122347000Y-98783000D03*
X122347000Y-101323000D03*
X122347000Y-103863000D03*
%TD*%
D12*
%TO.C,U23*%
X86547000Y-65043000D03*
X86547000Y-64643000D03*
X86147000Y-65043000D03*
X86147000Y-64643000D03*
%TD*%
%TO.C,U71*%
X136547000Y-85043000D03*
X136547000Y-84643000D03*
X136147000Y-85043000D03*
X136147000Y-84643000D03*
%TD*%
D13*
%TO.C,U93*%
X76447000Y-105043000D03*
X76847000Y-105043000D03*
X76447000Y-104643000D03*
X76847000Y-104643000D03*
%TD*%
D12*
%TO.C,U151*%
X86547000Y-145043000D03*
X86547000Y-144643000D03*
X86147000Y-145043000D03*
X86147000Y-144643000D03*
%TD*%
D20*
%TO.C,U80*%
X126672000Y-74348000D03*
X126672000Y-73078000D03*
X126672000Y-71808000D03*
X126672000Y-70538000D03*
X131622000Y-70538000D03*
X131622000Y-71808000D03*
X131622000Y-73078000D03*
X131622000Y-74348000D03*
%TD*%
D13*
%TO.C,U61*%
X76447000Y-85043000D03*
X76847000Y-85043000D03*
X76447000Y-84643000D03*
X76847000Y-84643000D03*
%TD*%
D20*
%TO.C,U64*%
X76672000Y-74348000D03*
X76672000Y-73078000D03*
X76672000Y-71808000D03*
X76672000Y-70538000D03*
X81622000Y-70538000D03*
X81622000Y-71808000D03*
X81622000Y-73078000D03*
X81622000Y-74348000D03*
%TD*%
D13*
%TO.C,U29*%
X76447000Y-65043000D03*
X76847000Y-65043000D03*
X76447000Y-64643000D03*
X76847000Y-64643000D03*
%TD*%
%TO.C,U157*%
X76447000Y-145043000D03*
X76847000Y-145043000D03*
X76447000Y-144643000D03*
X76847000Y-144643000D03*
%TD*%
D20*
%TO.C,U128*%
X76672000Y-114348000D03*
X76672000Y-113078000D03*
X76672000Y-111808000D03*
X76672000Y-110538000D03*
X81622000Y-110538000D03*
X81622000Y-111808000D03*
X81622000Y-113078000D03*
X81622000Y-114348000D03*
%TD*%
D21*
%TO.C,U121*%
X80847000Y-124043000D03*
X80847000Y-125043000D03*
X81347000Y-124043001D03*
X81347000Y-125042999D03*
X81847000Y-124043000D03*
X81847000Y-125043000D03*
%TD*%
D20*
%TO.C,U112*%
X126672000Y-94348000D03*
X126672000Y-93078000D03*
X126672000Y-91808000D03*
X126672000Y-90538000D03*
X131622000Y-90538000D03*
X131622000Y-91808000D03*
X131622000Y-93078000D03*
X131622000Y-94348000D03*
%TD*%
D12*
%TO.C,U87*%
X86547000Y-105043000D03*
X86547000Y-104643000D03*
X86147000Y-105043000D03*
X86147000Y-104643000D03*
%TD*%
D13*
%TO.C,U109*%
X126447000Y-105043000D03*
X126847000Y-105043000D03*
X126447000Y-104643000D03*
X126847000Y-104643000D03*
%TD*%
D12*
%TO.C,U103*%
X136547000Y-105043000D03*
X136547000Y-104643000D03*
X136147000Y-105043000D03*
X136147000Y-104643000D03*
%TD*%
%TO.C,U55*%
X86547000Y-85043000D03*
X86547000Y-84643000D03*
X86147000Y-85043000D03*
X86147000Y-84643000D03*
%TD*%
D13*
%TO.C,U125*%
X76447000Y-125043000D03*
X76847000Y-125043000D03*
X76447000Y-124643000D03*
X76847000Y-124643000D03*
%TD*%
D21*
%TO.C,U57*%
X80847000Y-84043000D03*
X80847000Y-85043000D03*
X81347000Y-84043001D03*
X81347000Y-85042999D03*
X81847000Y-84043000D03*
X81847000Y-85043000D03*
%TD*%
D12*
%TO.C,U119*%
X86547000Y-125043000D03*
X86547000Y-124643000D03*
X86147000Y-125043000D03*
X86147000Y-124643000D03*
%TD*%
D21*
%TO.C,U105*%
X130847000Y-104043000D03*
X130847000Y-105043000D03*
X131347000Y-104043001D03*
X131347000Y-105042999D03*
X131847000Y-104043000D03*
X131847000Y-105043000D03*
%TD*%
D20*
%TO.C,U160*%
X76672000Y-134348000D03*
X76672000Y-133078000D03*
X76672000Y-131808000D03*
X76672000Y-130538000D03*
X81622000Y-130538000D03*
X81622000Y-131808000D03*
X81622000Y-133078000D03*
X81622000Y-134348000D03*
%TD*%
%TO.C,U48*%
X126672000Y-54348000D03*
X126672000Y-53078000D03*
X126672000Y-51808000D03*
X126672000Y-50538000D03*
X131622000Y-50538000D03*
X131622000Y-51808000D03*
X131622000Y-53078000D03*
X131622000Y-54348000D03*
%TD*%
D21*
%TO.C,U41*%
X130847000Y-64043000D03*
X130847000Y-65043000D03*
X131347000Y-64043001D03*
X131347000Y-65042999D03*
X131847000Y-64043000D03*
X131847000Y-65043000D03*
%TD*%
%TO.C,U89*%
X80847000Y-104043000D03*
X80847000Y-105043000D03*
X81347000Y-104043001D03*
X81347000Y-105042999D03*
X81847000Y-104043000D03*
X81847000Y-105043000D03*
%TD*%
D13*
%TO.C,U45*%
X126447000Y-65043000D03*
X126847000Y-65043000D03*
X126447000Y-64643000D03*
X126847000Y-64643000D03*
%TD*%
D20*
%TO.C,U32*%
X76672000Y-54348000D03*
X76672000Y-53078000D03*
X76672000Y-51808000D03*
X76672000Y-50538000D03*
X81622000Y-50538000D03*
X81622000Y-51808000D03*
X81622000Y-53078000D03*
X81622000Y-54348000D03*
%TD*%
D21*
%TO.C,U153*%
X80847000Y-144043000D03*
X80847000Y-145043000D03*
X81347000Y-144043001D03*
X81347000Y-145042999D03*
X81847000Y-144043000D03*
X81847000Y-145043000D03*
%TD*%
%TO.C,U25*%
X80847000Y-64043000D03*
X80847000Y-65043000D03*
X81347000Y-64043001D03*
X81347000Y-65042999D03*
X81847000Y-64043000D03*
X81847000Y-65043000D03*
%TD*%
%TO.C,U73*%
X130847000Y-84043000D03*
X130847000Y-85043000D03*
X131347000Y-84043001D03*
X131347000Y-85042999D03*
X131847000Y-84043000D03*
X131847000Y-85043000D03*
%TD*%
D13*
%TO.C,U77*%
X126447000Y-85043000D03*
X126847000Y-85043000D03*
X126447000Y-84643000D03*
X126847000Y-84643000D03*
%TD*%
D20*
%TO.C,U96*%
X76672000Y-94348000D03*
X76672000Y-93078000D03*
X76672000Y-91808000D03*
X76672000Y-90538000D03*
X81622000Y-90538000D03*
X81622000Y-91808000D03*
X81622000Y-93078000D03*
X81622000Y-94348000D03*
%TD*%
D12*
%TO.C,U39*%
X136547000Y-65043000D03*
X136547000Y-64643000D03*
X136147000Y-65043000D03*
X136147000Y-64643000D03*
%TD*%
M02*
