%TF.GenerationSoftware,KiCad,Pcbnew,9.0.4*%
%TF.CreationDate,2025-12-22T17:02:15-05:00*%
%TF.ProjectId,Mess-Sense+USBC,4d657373-2d53-4656-9e73-652b55534243,rev?*%
%TF.SameCoordinates,Original*%
%TF.FileFunction,Soldermask,Top*%
%TF.FilePolarity,Negative*%
%FSLAX46Y46*%
G04 Gerber Fmt 4.6, Leading zero omitted, Abs format (unit mm)*
G04 Created by KiCad (PCBNEW 9.0.4) date 2025-12-22 17:02:15*
%MOMM*%
%LPD*%
G01*
G04 APERTURE LIST*
G04 Aperture macros list*
%AMRoundRect*
0 Rectangle with rounded corners*
0 $1 Rounding radius*
0 $2 $3 $4 $5 $6 $7 $8 $9 X,Y pos of 4 corners*
0 Add a 4 corners polygon primitive as box body*
4,1,4,$2,$3,$4,$5,$6,$7,$8,$9,$2,$3,0*
0 Add four circle primitives for the rounded corners*
1,1,$1+$1,$2,$3*
1,1,$1+$1,$4,$5*
1,1,$1+$1,$6,$7*
1,1,$1+$1,$8,$9*
0 Add four rect primitives between the rounded corners*
20,1,$1+$1,$2,$3,$4,$5,0*
20,1,$1+$1,$4,$5,$6,$7,0*
20,1,$1+$1,$6,$7,$8,$9,0*
20,1,$1+$1,$8,$9,$2,$3,0*%
%AMFreePoly0*
4,1,6,0.500000,-0.850000,-0.500000,-0.850000,-0.500000,0.550000,-0.200000,0.850000,0.500000,0.850000,0.500000,-0.850000,0.500000,-0.850000,$1*%
%AMFreePoly1*
4,1,6,0.500000,-0.450000,-0.625000,-0.450000,-0.325000,0.000000,-0.625000,0.450000,0.500000,0.450000,0.500000,-0.450000,0.500000,-0.450000,$1*%
%AMFreePoly2*
4,1,6,0.825000,0.000000,0.525000,-0.450000,-0.500000,-0.450000,-0.500000,0.450000,0.525000,0.450000,0.825000,0.000000,0.825000,0.000000,$1*%
G04 Aperture macros list end*
%ADD10C,0.000000*%
%ADD11RoundRect,0.200000X0.275000X-0.200000X0.275000X0.200000X-0.275000X0.200000X-0.275000X-0.200000X0*%
%ADD12C,1.700000*%
%ADD13R,1.700000X1.700000*%
%ADD14RoundRect,0.225000X0.225000X0.250000X-0.225000X0.250000X-0.225000X-0.250000X0.225000X-0.250000X0*%
%ADD15RoundRect,0.250000X0.625000X-0.312500X0.625000X0.312500X-0.625000X0.312500X-0.625000X-0.312500X0*%
%ADD16RoundRect,0.250000X1.425000X-0.362500X1.425000X0.362500X-1.425000X0.362500X-1.425000X-0.362500X0*%
%ADD17RoundRect,0.112500X-0.112500X0.187500X-0.112500X-0.187500X0.112500X-0.187500X0.112500X0.187500X0*%
%ADD18FreePoly0,180.000000*%
%ADD19R,0.550000X0.250000*%
%ADD20RoundRect,0.225000X-0.225000X-0.250000X0.225000X-0.250000X0.225000X0.250000X-0.225000X0.250000X0*%
%ADD21RoundRect,0.087500X-0.250000X-0.087500X0.250000X-0.087500X0.250000X0.087500X-0.250000X0.087500X0*%
%ADD22RoundRect,0.075000X-0.250000X-0.075000X0.250000X-0.075000X0.250000X0.075000X-0.250000X0.075000X0*%
%ADD23O,1.000000X1.600000*%
%ADD24O,1.000000X2.100000*%
%ADD25R,0.600000X1.450000*%
%ADD26R,0.300000X1.450000*%
%ADD27C,0.650000*%
%ADD28R,0.720000X0.600000*%
%ADD29R,1.100000X0.500000*%
%ADD30R,0.450000X0.700000*%
%ADD31FreePoly1,0.000000*%
%ADD32FreePoly2,0.000000*%
%ADD33R,0.850000X0.850000*%
%ADD34RoundRect,0.200000X-0.200000X-0.275000X0.200000X-0.275000X0.200000X0.275000X-0.200000X0.275000X0*%
%ADD35RoundRect,0.218750X0.218750X0.256250X-0.218750X0.256250X-0.218750X-0.256250X0.218750X-0.256250X0*%
%ADD36RoundRect,0.150000X-0.512500X-0.150000X0.512500X-0.150000X0.512500X0.150000X-0.512500X0.150000X0*%
%ADD37R,0.900000X1.500000*%
%ADD38RoundRect,0.062500X-0.087500X-0.062500X0.087500X-0.062500X0.087500X0.062500X-0.087500X0.062500X0*%
%ADD39R,1.600000X0.700000*%
%ADD40R,0.400000X0.600000*%
%ADD41C,1.000000*%
%ADD42R,1.000000X1.000000*%
%ADD43RoundRect,0.150000X-0.150000X0.300000X-0.150000X-0.300000X0.150000X-0.300000X0.150000X0.300000X0*%
%ADD44RoundRect,0.125000X0.537500X0.125000X-0.537500X0.125000X-0.537500X-0.125000X0.537500X-0.125000X0*%
%ADD45RoundRect,0.225000X0.250000X-0.225000X0.250000X0.225000X-0.250000X0.225000X-0.250000X-0.225000X0*%
%ADD46RoundRect,0.200000X0.200000X0.275000X-0.200000X0.275000X-0.200000X-0.275000X0.200000X-0.275000X0*%
%ADD47RoundRect,0.102000X0.275000X0.125000X-0.275000X0.125000X-0.275000X-0.125000X0.275000X-0.125000X0*%
G04 APERTURE END LIST*
D10*
%TO.C,J5*%
G36*
X150102003Y-130498000D02*
G01*
X147652003Y-130498000D01*
X147652003Y-129598000D01*
X150102003Y-129598000D01*
X150102003Y-130498000D01*
G37*
%TO.C,J3*%
G36*
X163877000Y-130498000D02*
G01*
X161427000Y-130498000D01*
X161427000Y-129598000D01*
X163877000Y-129598000D01*
X163877000Y-130498000D01*
G37*
%TO.C,J7*%
G36*
X153552001Y-130498000D02*
G01*
X151102001Y-130498000D01*
X151102001Y-129598000D01*
X153552001Y-129598000D01*
X153552001Y-130498000D01*
G37*
%TO.C,J75*%
G36*
X163877000Y-110498000D02*
G01*
X161427000Y-110498000D01*
X161427000Y-109598000D01*
X163877000Y-109598000D01*
X163877000Y-110498000D01*
G37*
%TO.C,J79*%
G36*
X153552001Y-110498000D02*
G01*
X151102001Y-110498000D01*
X151102001Y-109598000D01*
X153552001Y-109598000D01*
X153552001Y-110498000D01*
G37*
%TO.C,J77*%
G36*
X150102003Y-110498000D02*
G01*
X147652003Y-110498000D01*
X147652003Y-109598000D01*
X150102003Y-109598000D01*
X150102003Y-110498000D01*
G37*
%TO.C,J52*%
G36*
X103552001Y-90498000D02*
G01*
X101102001Y-90498000D01*
X101102001Y-89598000D01*
X103552001Y-89598000D01*
X103552001Y-90498000D01*
G37*
%TO.C,J70*%
G36*
X103552001Y-110498000D02*
G01*
X101102001Y-110498000D01*
X101102001Y-109598000D01*
X103552001Y-109598000D01*
X103552001Y-110498000D01*
G37*
%TO.C,J23*%
G36*
X150102003Y-50498000D02*
G01*
X147652003Y-50498000D01*
X147652003Y-49598000D01*
X150102003Y-49598000D01*
X150102003Y-50498000D01*
G37*
%TO.C,J68*%
G36*
X100102003Y-110498000D02*
G01*
X97652003Y-110498000D01*
X97652003Y-109598000D01*
X100102003Y-109598000D01*
X100102003Y-110498000D01*
G37*
%TO.C,J16*%
G36*
X103552001Y-50498000D02*
G01*
X101102001Y-50498000D01*
X101102001Y-49598000D01*
X103552001Y-49598000D01*
X103552001Y-50498000D01*
G37*
%TO.C,J21*%
G36*
X163877000Y-50498000D02*
G01*
X161427000Y-50498000D01*
X161427000Y-49598000D01*
X163877000Y-49598000D01*
X163877000Y-50498000D01*
G37*
%TO.C,J59*%
G36*
X150102003Y-90498000D02*
G01*
X147652003Y-90498000D01*
X147652003Y-89598000D01*
X150102003Y-89598000D01*
X150102003Y-90498000D01*
G37*
%TO.C,J39*%
G36*
X163877000Y-70498000D02*
G01*
X161427000Y-70498000D01*
X161427000Y-69598000D01*
X163877000Y-69598000D01*
X163877000Y-70498000D01*
G37*
%TO.C,J25*%
G36*
X153552001Y-50498000D02*
G01*
X151102001Y-50498000D01*
X151102001Y-49598000D01*
X153552001Y-49598000D01*
X153552001Y-50498000D01*
G37*
%TO.C,J30*%
G36*
X113877000Y-70498000D02*
G01*
X111427000Y-70498000D01*
X111427000Y-69598000D01*
X113877000Y-69598000D01*
X113877000Y-70498000D01*
G37*
%TO.C,J57*%
G36*
X163877000Y-90498000D02*
G01*
X161427000Y-90498000D01*
X161427000Y-89598000D01*
X163877000Y-89598000D01*
X163877000Y-90498000D01*
G37*
%TO.C,J48*%
G36*
X113877000Y-90498000D02*
G01*
X111427000Y-90498000D01*
X111427000Y-89598000D01*
X113877000Y-89598000D01*
X113877000Y-90498000D01*
G37*
%TO.C,J84*%
G36*
X113877000Y-130498000D02*
G01*
X111427000Y-130498000D01*
X111427000Y-129598000D01*
X113877000Y-129598000D01*
X113877000Y-130498000D01*
G37*
%TO.C,J32*%
G36*
X100102003Y-70498000D02*
G01*
X97652003Y-70498000D01*
X97652003Y-69598000D01*
X100102003Y-69598000D01*
X100102003Y-70498000D01*
G37*
%TO.C,J61*%
G36*
X153552001Y-90498000D02*
G01*
X151102001Y-90498000D01*
X151102001Y-89598000D01*
X153552001Y-89598000D01*
X153552001Y-90498000D01*
G37*
%TO.C,J86*%
G36*
X100102003Y-130498000D02*
G01*
X97652003Y-130498000D01*
X97652003Y-129598000D01*
X100102003Y-129598000D01*
X100102003Y-130498000D01*
G37*
%TO.C,J66*%
G36*
X113877000Y-110498000D02*
G01*
X111427000Y-110498000D01*
X111427000Y-109598000D01*
X113877000Y-109598000D01*
X113877000Y-110498000D01*
G37*
%TO.C,J14*%
G36*
X100102003Y-50498000D02*
G01*
X97652003Y-50498000D01*
X97652003Y-49598000D01*
X100102003Y-49598000D01*
X100102003Y-50498000D01*
G37*
%TO.C,J43*%
G36*
X153552001Y-70498000D02*
G01*
X151102001Y-70498000D01*
X151102001Y-69598000D01*
X153552001Y-69598000D01*
X153552001Y-70498000D01*
G37*
%TO.C,J88*%
G36*
X103552001Y-130498000D02*
G01*
X101102001Y-130498000D01*
X101102001Y-129598000D01*
X103552001Y-129598000D01*
X103552001Y-130498000D01*
G37*
%TO.C,J34*%
G36*
X103552001Y-70498000D02*
G01*
X101102001Y-70498000D01*
X101102001Y-69598000D01*
X103552001Y-69598000D01*
X103552001Y-70498000D01*
G37*
%TO.C,J50*%
G36*
X100102003Y-90498000D02*
G01*
X97652003Y-90498000D01*
X97652003Y-89598000D01*
X100102003Y-89598000D01*
X100102003Y-90498000D01*
G37*
%TO.C,J41*%
G36*
X150102003Y-70498000D02*
G01*
X147652003Y-70498000D01*
X147652003Y-69598000D01*
X150102003Y-69598000D01*
X150102003Y-70498000D01*
G37*
%TO.C,J12*%
G36*
X113877000Y-50498000D02*
G01*
X111427000Y-50498000D01*
X111427000Y-49598000D01*
X113877000Y-49598000D01*
X113877000Y-50498000D01*
G37*
%TD*%
D11*
%TO.C,R3*%
X125947000Y-137218000D03*
X125947000Y-138868000D03*
%TD*%
D12*
%TO.C,J9*%
X145852000Y-144688000D03*
X145852000Y-142148000D03*
X145852000Y-139608000D03*
X145852000Y-137068000D03*
X145852000Y-134528000D03*
X145852000Y-131988000D03*
D13*
X145852000Y-129448000D03*
%TD*%
D14*
%TO.C,C5*%
X125772000Y-144843000D03*
X127322000Y-144843000D03*
%TD*%
D15*
%TO.C,R2*%
X141952000Y-140685500D03*
X141952000Y-143610500D03*
%TD*%
D16*
%TO.C,R1*%
X141952000Y-139185500D03*
X141952000Y-145110500D03*
%TD*%
D17*
%TO.C,D1*%
X162152000Y-134498000D03*
X162152000Y-132398000D03*
%TD*%
D18*
%TO.C,U14*%
X131347000Y-145092999D03*
D19*
X130172000Y-145843000D03*
X130172000Y-145342999D03*
X130172000Y-144842999D03*
X130172000Y-144342998D03*
X132522000Y-144342998D03*
X132522000Y-144842999D03*
X132522000Y-145342999D03*
X132522000Y-145843000D03*
%TD*%
D20*
%TO.C,C4*%
X152652000Y-133048000D03*
X151102000Y-133048000D03*
%TD*%
D21*
%TO.C,U15*%
X137852000Y-140348000D03*
X137852001Y-140848000D03*
X137852000Y-141348000D03*
X136427000Y-141348000D03*
X136426999Y-140848000D03*
X136427000Y-140348000D03*
%TD*%
D12*
%TO.C,J2*%
X149052000Y-144648000D03*
X149052000Y-142108000D03*
X149052000Y-139568000D03*
D13*
X149052000Y-137028000D03*
%TD*%
D11*
%TO.C,R4*%
X125947000Y-134167999D03*
X125947000Y-135817999D03*
%TD*%
D22*
%TO.C,U1*%
X133647001Y-133993000D03*
X133647000Y-134643000D03*
X133647001Y-135293000D03*
X131846999Y-135293000D03*
X131847000Y-134643000D03*
X131846999Y-133993000D03*
%TD*%
D23*
%TO.C,U4*%
X162272000Y-144658000D03*
D24*
X162272000Y-140478000D03*
D23*
X153632000Y-144658000D03*
D24*
X153632000Y-140478000D03*
D25*
X154702000Y-139563000D03*
X155501999Y-139563000D03*
D26*
X156202000Y-139563000D03*
X157202000Y-139563000D03*
X158702000Y-139563000D03*
X159702000Y-139563000D03*
D25*
X160402001Y-139563000D03*
X161202000Y-139563000D03*
X161202000Y-139563000D03*
X160402001Y-139563000D03*
D26*
X159202000Y-139563001D03*
X158202000Y-139563000D03*
X157702000Y-139563000D03*
X156702000Y-139563001D03*
D25*
X155501999Y-139563000D03*
X154702000Y-139563000D03*
D27*
X160842000Y-141008000D03*
X155062000Y-141008000D03*
%TD*%
D22*
%TO.C,U2*%
X130152000Y-137548000D03*
X130152000Y-138198000D03*
X130152000Y-138848000D03*
X130152000Y-139498000D03*
X128352000Y-139498000D03*
X128352000Y-138848000D03*
X128352000Y-138198000D03*
X128352000Y-137548000D03*
%TD*%
D28*
%TO.C,U6*%
X129881264Y-129601578D03*
X128911264Y-129601578D03*
X127941264Y-129601578D03*
X126971264Y-129601578D03*
X126971264Y-131001578D03*
X127941264Y-131001578D03*
X128911264Y-131001578D03*
X129881264Y-131001578D03*
%TD*%
D29*
%TO.C,IC1*%
X133347000Y-130343000D03*
D30*
X132947000Y-129543000D03*
X133747000Y-129543000D03*
X133747000Y-131143000D03*
X132947000Y-131143000D03*
%TD*%
D31*
%TO.C,J5*%
X149602002Y-130048000D03*
D32*
X148152004Y-130048000D03*
%TD*%
D33*
%TO.C,TP1*%
X128852000Y-135448000D03*
%TD*%
D12*
%TO.C,J1*%
X122347000Y-143863000D03*
X122347000Y-141323000D03*
X122347000Y-138783000D03*
X122347000Y-136243000D03*
X122347000Y-133703000D03*
D13*
X122347000Y-131163000D03*
%TD*%
D34*
%TO.C,R7*%
X167277000Y-133048000D03*
X165627000Y-133048000D03*
%TD*%
D31*
%TO.C,J3*%
X163376999Y-130048000D03*
D32*
X161927001Y-130048000D03*
%TD*%
D34*
%TO.C,R6*%
X130447000Y-141842998D03*
X128797000Y-141842998D03*
%TD*%
D14*
%TO.C,C3*%
X147967000Y-133048000D03*
X149517000Y-133048000D03*
%TD*%
D31*
%TO.C,J7*%
X153052000Y-130048000D03*
D32*
X151602002Y-130048000D03*
%TD*%
D35*
%TO.C,D2*%
X157926999Y-130048000D03*
X159502001Y-130048000D03*
%TD*%
D36*
%TO.C,U8*%
X158652000Y-132748000D03*
X158652000Y-134648000D03*
X156377000Y-134648000D03*
X156377000Y-133698000D03*
X156377000Y-132748000D03*
%TD*%
D14*
%TO.C,C2*%
X125847000Y-141843000D03*
X127397000Y-141843000D03*
%TD*%
D37*
%TO.C,U12*%
X136947000Y-137643000D03*
D38*
X137797000Y-136993000D03*
X137797000Y-137643000D03*
X137797000Y-138293000D03*
X136097000Y-138293000D03*
X136097000Y-137643000D03*
X136097000Y-136993000D03*
%TD*%
D39*
%TO.C,U10*%
X137272000Y-130393000D03*
D40*
X137747000Y-131343000D03*
X136797000Y-131343000D03*
X136797000Y-129443000D03*
X137747000Y-129443000D03*
%TD*%
D41*
%TO.C,J6*%
X133347000Y-137843001D03*
D42*
X133347000Y-139113001D03*
%TD*%
D20*
%TO.C,C1*%
X133547000Y-141843000D03*
X131997000Y-141843000D03*
%TD*%
D34*
%TO.C,R5*%
X167277000Y-130348000D03*
X165627000Y-130348000D03*
%TD*%
D43*
%TO.C,U11*%
X137284500Y-134143001D03*
D38*
X137934500Y-133843000D03*
X137934500Y-134443000D03*
X136634500Y-134443000D03*
X136634500Y-133843000D03*
%TD*%
D44*
%TO.C,U3*%
X140514500Y-136323000D03*
X140514500Y-135673000D03*
X140514500Y-135023000D03*
X140514500Y-134373000D03*
X142789500Y-134373000D03*
X142789500Y-135023000D03*
X142789500Y-135673000D03*
X142789500Y-136323000D03*
%TD*%
D20*
%TO.C,C6*%
X162827000Y-136848000D03*
X161277000Y-136848000D03*
%TD*%
D45*
%TO.C,C7*%
X153352000Y-135348000D03*
X153352000Y-136898000D03*
%TD*%
D46*
%TO.C,R8*%
X154802000Y-130048000D03*
X156452000Y-130048000D03*
%TD*%
D12*
%TO.C,J4*%
X166852000Y-144648000D03*
X166852000Y-142108000D03*
X166852000Y-139568000D03*
D13*
X166852000Y-137028000D03*
%TD*%
D12*
%TO.C,J8*%
X140312000Y-130548000D03*
D13*
X142852000Y-130548000D03*
%TD*%
D47*
%TO.C,U5*%
X135197000Y-145443000D03*
X135197000Y-144943000D03*
X135197000Y-144443000D03*
X137947000Y-144443000D03*
X137947000Y-144943000D03*
X137947000Y-145443000D03*
%TD*%
D14*
%TO.C,C61*%
X125772000Y-124843000D03*
X127322000Y-124843000D03*
%TD*%
D11*
%TO.C,R67*%
X125947000Y-117218000D03*
X125947000Y-118868000D03*
%TD*%
D12*
%TO.C,J80*%
X140312000Y-110548000D03*
D13*
X142852000Y-110548000D03*
%TD*%
D14*
%TO.C,C58*%
X125847000Y-121843000D03*
X127397000Y-121843000D03*
%TD*%
D44*
%TO.C,U131*%
X140514500Y-116323000D03*
X140514500Y-115673000D03*
X140514500Y-115023000D03*
X140514500Y-114373000D03*
X142789500Y-114373000D03*
X142789500Y-115023000D03*
X142789500Y-115673000D03*
X142789500Y-116323000D03*
%TD*%
D31*
%TO.C,J75*%
X163376999Y-110048000D03*
D32*
X161927001Y-110048000D03*
%TD*%
D37*
%TO.C,U140*%
X136947000Y-117643000D03*
D38*
X137797000Y-116993000D03*
X137797000Y-117643000D03*
X137797000Y-118293000D03*
X136097000Y-118293000D03*
X136097000Y-117643000D03*
X136097000Y-116993000D03*
%TD*%
D20*
%TO.C,C62*%
X162827000Y-116848000D03*
X161277000Y-116848000D03*
%TD*%
D46*
%TO.C,R72*%
X154802000Y-110048000D03*
X156452000Y-110048000D03*
%TD*%
D12*
%TO.C,J74*%
X149052000Y-124648000D03*
X149052000Y-122108000D03*
X149052000Y-119568000D03*
D13*
X149052000Y-117028000D03*
%TD*%
D14*
%TO.C,C59*%
X147967000Y-113048000D03*
X149517000Y-113048000D03*
%TD*%
D12*
%TO.C,J73*%
X122347000Y-123863000D03*
X122347000Y-121323000D03*
X122347000Y-118783000D03*
X122347000Y-116243000D03*
X122347000Y-113703000D03*
D13*
X122347000Y-111163000D03*
%TD*%
D12*
%TO.C,J76*%
X166852000Y-124648000D03*
X166852000Y-122108000D03*
X166852000Y-119568000D03*
D13*
X166852000Y-117028000D03*
%TD*%
D17*
%TO.C,D17*%
X162152000Y-114498000D03*
X162152000Y-112398000D03*
%TD*%
D28*
%TO.C,U134*%
X129881264Y-109601578D03*
X128911264Y-109601578D03*
X127941264Y-109601578D03*
X126971264Y-109601578D03*
X126971264Y-111001578D03*
X127941264Y-111001578D03*
X128911264Y-111001578D03*
X129881264Y-111001578D03*
%TD*%
D33*
%TO.C,TP9*%
X128852000Y-115448000D03*
%TD*%
D20*
%TO.C,C57*%
X133547000Y-121843000D03*
X131997000Y-121843000D03*
%TD*%
D43*
%TO.C,U139*%
X137284500Y-114143001D03*
D38*
X137934500Y-113843000D03*
X137934500Y-114443000D03*
X136634500Y-114443000D03*
X136634500Y-113843000D03*
%TD*%
D35*
%TO.C,D18*%
X157926999Y-110048000D03*
X159502001Y-110048000D03*
%TD*%
D41*
%TO.C,J78*%
X133347000Y-117843001D03*
D42*
X133347000Y-119113001D03*
%TD*%
D31*
%TO.C,J79*%
X153052000Y-110048000D03*
D32*
X151602002Y-110048000D03*
%TD*%
D34*
%TO.C,R71*%
X167277000Y-113048000D03*
X165627000Y-113048000D03*
%TD*%
D29*
%TO.C,IC9*%
X133347000Y-110343000D03*
D30*
X132947000Y-109543000D03*
X133747000Y-109543000D03*
X133747000Y-111143000D03*
X132947000Y-111143000D03*
%TD*%
D18*
%TO.C,U142*%
X131347000Y-125092999D03*
D19*
X130172000Y-125843000D03*
X130172000Y-125342999D03*
X130172000Y-124842999D03*
X130172000Y-124342998D03*
X132522000Y-124342998D03*
X132522000Y-124842999D03*
X132522000Y-125342999D03*
X132522000Y-125843000D03*
%TD*%
D34*
%TO.C,R70*%
X130447000Y-121842998D03*
X128797000Y-121842998D03*
%TD*%
D20*
%TO.C,C60*%
X152652000Y-113048000D03*
X151102000Y-113048000D03*
%TD*%
D47*
%TO.C,U133*%
X135197000Y-125443000D03*
X135197000Y-124943000D03*
X135197000Y-124443000D03*
X137947000Y-124443000D03*
X137947000Y-124943000D03*
X137947000Y-125443000D03*
%TD*%
D22*
%TO.C,U129*%
X133647001Y-113993000D03*
X133647000Y-114643000D03*
X133647001Y-115293000D03*
X131846999Y-115293000D03*
X131847000Y-114643000D03*
X131846999Y-113993000D03*
%TD*%
D31*
%TO.C,J77*%
X149602002Y-110048000D03*
D32*
X148152004Y-110048000D03*
%TD*%
D22*
%TO.C,U130*%
X130152000Y-117548000D03*
X130152000Y-118198000D03*
X130152000Y-118848000D03*
X130152000Y-119498000D03*
X128352000Y-119498000D03*
X128352000Y-118848000D03*
X128352000Y-118198000D03*
X128352000Y-117548000D03*
%TD*%
D45*
%TO.C,C63*%
X153352000Y-115348000D03*
X153352000Y-116898000D03*
%TD*%
D34*
%TO.C,R69*%
X167277000Y-110348000D03*
X165627000Y-110348000D03*
%TD*%
D21*
%TO.C,U143*%
X137852000Y-120348000D03*
X137852001Y-120848000D03*
X137852000Y-121348000D03*
X136427000Y-121348000D03*
X136426999Y-120848000D03*
X136427000Y-120348000D03*
%TD*%
D36*
%TO.C,U136*%
X158652000Y-112748000D03*
X158652000Y-114648000D03*
X156377000Y-114648000D03*
X156377000Y-113698000D03*
X156377000Y-112748000D03*
%TD*%
D11*
%TO.C,R68*%
X125947000Y-114167999D03*
X125947000Y-115817999D03*
%TD*%
D39*
%TO.C,U138*%
X137272000Y-110393000D03*
D40*
X137747000Y-111343000D03*
X136797000Y-111343000D03*
X136797000Y-109443000D03*
X137747000Y-109443000D03*
%TD*%
D12*
%TO.C,J81*%
X145852000Y-124688000D03*
X145852000Y-122148000D03*
X145852000Y-119608000D03*
X145852000Y-117068000D03*
X145852000Y-114528000D03*
X145852000Y-111988000D03*
D13*
X145852000Y-109448000D03*
%TD*%
D16*
%TO.C,R65*%
X141952000Y-119185500D03*
X141952000Y-125110500D03*
%TD*%
D15*
%TO.C,R66*%
X141952000Y-120685500D03*
X141952000Y-123610500D03*
%TD*%
D11*
%TO.C,R76*%
X75947000Y-135817999D03*
X75947000Y-134167999D03*
%TD*%
D32*
%TO.C,J52*%
X101602002Y-90048000D03*
D31*
X103052000Y-90048000D03*
%TD*%
D11*
%TO.C,R44*%
X75947000Y-95817999D03*
X75947000Y-94167999D03*
%TD*%
D20*
%TO.C,C67*%
X101102000Y-133048000D03*
X102652000Y-133048000D03*
%TD*%
D45*
%TO.C,C42*%
X103352000Y-96898000D03*
X103352000Y-95348000D03*
%TD*%
D33*
%TO.C,TP2*%
X78852000Y-55448000D03*
%TD*%
D34*
%TO.C,R61*%
X115627000Y-110348000D03*
X117277000Y-110348000D03*
%TD*%
D46*
%TO.C,R48*%
X106452000Y-90048000D03*
X104802000Y-90048000D03*
%TD*%
D22*
%TO.C,U145*%
X81846999Y-133993000D03*
X81847000Y-134643000D03*
X81846999Y-135293000D03*
X83647001Y-135293000D03*
X83647000Y-134643000D03*
X83647001Y-133993000D03*
%TD*%
D13*
%TO.C,J38*%
X149052000Y-77028000D03*
D12*
X149052000Y-79568000D03*
X149052000Y-82108000D03*
X149052000Y-84648000D03*
%TD*%
D19*
%TO.C,U126*%
X82522000Y-125843000D03*
X82522000Y-125342999D03*
X82522000Y-124842999D03*
X82522000Y-124342998D03*
X80172000Y-124342998D03*
X80172000Y-124842999D03*
X80172000Y-125342999D03*
X80172000Y-125843000D03*
D18*
X81347000Y-125092999D03*
%TD*%
D44*
%TO.C,U99*%
X142789500Y-96323000D03*
X142789500Y-95673000D03*
X142789500Y-95023000D03*
X142789500Y-94373000D03*
X140514500Y-94373000D03*
X140514500Y-95023000D03*
X140514500Y-95673000D03*
X140514500Y-96323000D03*
%TD*%
D13*
%TO.C,J83*%
X99052000Y-137028000D03*
D12*
X99052000Y-139568000D03*
X99052000Y-142108000D03*
X99052000Y-144648000D03*
%TD*%
D13*
%TO.C,J58*%
X166852000Y-97028000D03*
D12*
X166852000Y-99568000D03*
X166852000Y-102108000D03*
X166852000Y-104648000D03*
%TD*%
D13*
%TO.C,J63*%
X145852000Y-89448000D03*
D12*
X145852000Y-91988000D03*
X145852000Y-94528000D03*
X145852000Y-97068000D03*
X145852000Y-99608000D03*
X145852000Y-102148000D03*
X145852000Y-104688000D03*
%TD*%
D34*
%TO.C,R23*%
X165627000Y-53048000D03*
X167277000Y-53048000D03*
%TD*%
D28*
%TO.C,U118*%
X79881264Y-111001578D03*
X78911264Y-111001578D03*
X77941264Y-111001578D03*
X76971264Y-111001578D03*
X76971264Y-109601578D03*
X77941264Y-109601578D03*
X78911264Y-109601578D03*
X79881264Y-109601578D03*
%TD*%
D47*
%TO.C,U21*%
X87947000Y-65443000D03*
X87947000Y-64943000D03*
X87947000Y-64443000D03*
X85197000Y-64443000D03*
X85197000Y-64943000D03*
X85197000Y-65443000D03*
%TD*%
D14*
%TO.C,C37*%
X77397000Y-101843000D03*
X75847000Y-101843000D03*
%TD*%
D38*
%TO.C,U155*%
X86634500Y-133843000D03*
X86634500Y-134443000D03*
X87934500Y-134443000D03*
X87934500Y-133843000D03*
D43*
X87284500Y-134143001D03*
%TD*%
D44*
%TO.C,U83*%
X92789500Y-96323000D03*
X92789500Y-95673000D03*
X92789500Y-95023000D03*
X92789500Y-94373000D03*
X90514500Y-94373000D03*
X90514500Y-95023000D03*
X90514500Y-95673000D03*
X90514500Y-96323000D03*
%TD*%
D16*
%TO.C,R9*%
X91952000Y-65110500D03*
X91952000Y-59185500D03*
%TD*%
D46*
%TO.C,R16*%
X106452000Y-50048000D03*
X104802000Y-50048000D03*
%TD*%
D32*
%TO.C,J70*%
X101602002Y-110048000D03*
D31*
X103052000Y-110048000D03*
%TD*%
D34*
%TO.C,R22*%
X128797000Y-61842998D03*
X130447000Y-61842998D03*
%TD*%
D32*
%TO.C,J23*%
X148152004Y-50048000D03*
D31*
X149602002Y-50048000D03*
%TD*%
D42*
%TO.C,J87*%
X83347000Y-139113001D03*
D41*
X83347000Y-137843001D03*
%TD*%
D15*
%TO.C,R18*%
X141952000Y-63610500D03*
X141952000Y-60685500D03*
%TD*%
D34*
%TO.C,R39*%
X165627000Y-73048000D03*
X167277000Y-73048000D03*
%TD*%
D14*
%TO.C,C54*%
X77322000Y-124843000D03*
X75772000Y-124843000D03*
%TD*%
D33*
%TO.C,TP8*%
X78852000Y-115448000D03*
%TD*%
D34*
%TO.C,R37*%
X165627000Y-70348000D03*
X167277000Y-70348000D03*
%TD*%
D21*
%TO.C,U47*%
X136427000Y-60348000D03*
X136426999Y-60848000D03*
X136427000Y-61348000D03*
X137852000Y-61348000D03*
X137852001Y-60848000D03*
X137852000Y-60348000D03*
%TD*%
D16*
%TO.C,R33*%
X141952000Y-85110500D03*
X141952000Y-79185500D03*
%TD*%
D13*
%TO.C,J54*%
X95852000Y-89448000D03*
D12*
X95852000Y-91988000D03*
X95852000Y-94528000D03*
X95852000Y-97068000D03*
X95852000Y-99608000D03*
X95852000Y-102148000D03*
X95852000Y-104688000D03*
%TD*%
D44*
%TO.C,U35*%
X142789500Y-56323000D03*
X142789500Y-55673000D03*
X142789500Y-55023000D03*
X142789500Y-54373000D03*
X140514500Y-54373000D03*
X140514500Y-55023000D03*
X140514500Y-55673000D03*
X140514500Y-56323000D03*
%TD*%
D20*
%TO.C,C41*%
X111277000Y-96848000D03*
X112827000Y-96848000D03*
%TD*%
D38*
%TO.C,U124*%
X86097000Y-116993000D03*
X86097000Y-117643000D03*
X86097000Y-118293000D03*
X87797000Y-118293000D03*
X87797000Y-117643000D03*
X87797000Y-116993000D03*
D37*
X86947000Y-117643000D03*
%TD*%
D14*
%TO.C,C38*%
X99517000Y-93048000D03*
X97967000Y-93048000D03*
%TD*%
D13*
%TO.C,J72*%
X95852000Y-109448000D03*
D12*
X95852000Y-111988000D03*
X95852000Y-114528000D03*
X95852000Y-117068000D03*
X95852000Y-119608000D03*
X95852000Y-122148000D03*
X95852000Y-124688000D03*
%TD*%
D22*
%TO.C,U34*%
X128352000Y-57548000D03*
X128352000Y-58198000D03*
X128352000Y-58848000D03*
X128352000Y-59498000D03*
X130152000Y-59498000D03*
X130152000Y-58848000D03*
X130152000Y-58198000D03*
X130152000Y-57548000D03*
%TD*%
D46*
%TO.C,R32*%
X106452000Y-70048000D03*
X104802000Y-70048000D03*
%TD*%
D45*
%TO.C,C28*%
X103352000Y-76898000D03*
X103352000Y-75348000D03*
%TD*%
D13*
%TO.C,J35*%
X92852000Y-70548000D03*
D12*
X90312000Y-70548000D03*
%TD*%
D13*
%TO.C,J71*%
X92852000Y-110548000D03*
D12*
X90312000Y-110548000D03*
%TD*%
D13*
%TO.C,J45*%
X145852000Y-69448000D03*
D12*
X145852000Y-71988000D03*
X145852000Y-74528000D03*
X145852000Y-77068000D03*
X145852000Y-79608000D03*
X145852000Y-82148000D03*
X145852000Y-84688000D03*
%TD*%
D22*
%TO.C,U114*%
X78352000Y-117548000D03*
X78352000Y-118198000D03*
X78352000Y-118848000D03*
X78352000Y-119498000D03*
X80152000Y-119498000D03*
X80152000Y-118848000D03*
X80152000Y-118198000D03*
X80152000Y-117548000D03*
%TD*%
D13*
%TO.C,J26*%
X142852000Y-50548000D03*
D12*
X140312000Y-50548000D03*
%TD*%
D34*
%TO.C,R55*%
X165627000Y-93048000D03*
X167277000Y-93048000D03*
%TD*%
D20*
%TO.C,C13*%
X111277000Y-56848000D03*
X112827000Y-56848000D03*
%TD*%
%TO.C,C43*%
X131997000Y-101843000D03*
X133547000Y-101843000D03*
%TD*%
D28*
%TO.C,U70*%
X129881264Y-71001578D03*
X128911264Y-71001578D03*
X127941264Y-71001578D03*
X126971264Y-71001578D03*
X126971264Y-69601578D03*
X127941264Y-69601578D03*
X128911264Y-69601578D03*
X129881264Y-69601578D03*
%TD*%
D36*
%TO.C,U24*%
X106377000Y-52748000D03*
X106377000Y-53698000D03*
X106377000Y-54648000D03*
X108652000Y-54648000D03*
X108652000Y-52748000D03*
%TD*%
D34*
%TO.C,R77*%
X115627000Y-130348000D03*
X117277000Y-130348000D03*
%TD*%
D13*
%TO.C,J13*%
X116852000Y-57028000D03*
D12*
X116852000Y-59568000D03*
X116852000Y-62108000D03*
X116852000Y-64648000D03*
%TD*%
D20*
%TO.C,C15*%
X131997000Y-61843000D03*
X133547000Y-61843000D03*
%TD*%
D38*
%TO.C,U27*%
X86634500Y-53843000D03*
X86634500Y-54443000D03*
X87934500Y-54443000D03*
X87934500Y-53843000D03*
D43*
X87284500Y-54143001D03*
%TD*%
D14*
%TO.C,C10*%
X99517000Y-53048000D03*
X97967000Y-53048000D03*
%TD*%
D17*
%TO.C,D7*%
X112152000Y-72398000D03*
X112152000Y-74498000D03*
%TD*%
D14*
%TO.C,C68*%
X77322000Y-144843000D03*
X75772000Y-144843000D03*
%TD*%
D15*
%TO.C,R58*%
X91952000Y-123610500D03*
X91952000Y-120685500D03*
%TD*%
D32*
%TO.C,J68*%
X98152004Y-110048000D03*
D31*
X99602002Y-110048000D03*
%TD*%
D38*
%TO.C,U43*%
X136634500Y-53843000D03*
X136634500Y-54443000D03*
X137934500Y-54443000D03*
X137934500Y-53843000D03*
D43*
X137284500Y-54143001D03*
%TD*%
D14*
%TO.C,C47*%
X127322000Y-104843000D03*
X125772000Y-104843000D03*
%TD*%
D22*
%TO.C,U98*%
X128352000Y-97548000D03*
X128352000Y-98198000D03*
X128352000Y-98848000D03*
X128352000Y-99498000D03*
X130152000Y-99498000D03*
X130152000Y-98848000D03*
X130152000Y-98198000D03*
X130152000Y-97548000D03*
%TD*%
D13*
%TO.C,J31*%
X116852000Y-77028000D03*
D12*
X116852000Y-79568000D03*
X116852000Y-82108000D03*
X116852000Y-84648000D03*
%TD*%
D32*
%TO.C,J16*%
X101602002Y-50048000D03*
D31*
X103052000Y-50048000D03*
%TD*%
D27*
%TO.C,U84*%
X105062000Y-101008000D03*
X110842000Y-101008000D03*
D25*
X104702000Y-99563000D03*
X105501999Y-99563000D03*
D26*
X106702000Y-99563001D03*
X107702000Y-99563000D03*
X108202000Y-99563000D03*
X109202000Y-99563001D03*
D25*
X110402001Y-99563000D03*
X111202000Y-99563000D03*
X111202000Y-99563000D03*
X110402001Y-99563000D03*
D26*
X109702000Y-99563000D03*
X108702000Y-99563000D03*
X107202000Y-99563000D03*
X106202000Y-99563000D03*
D25*
X105501999Y-99563000D03*
X104702000Y-99563000D03*
D24*
X103632000Y-100478000D03*
D23*
X103632000Y-104658000D03*
D24*
X112272000Y-100478000D03*
D23*
X112272000Y-104658000D03*
%TD*%
D19*
%TO.C,U94*%
X82522000Y-105843000D03*
X82522000Y-105342999D03*
X82522000Y-104842999D03*
X82522000Y-104342998D03*
X80172000Y-104342998D03*
X80172000Y-104842999D03*
X80172000Y-105342999D03*
X80172000Y-105843000D03*
D18*
X81347000Y-105092999D03*
%TD*%
D40*
%TO.C,U42*%
X137747000Y-49443000D03*
X136797000Y-49443000D03*
X136797000Y-51343000D03*
X137747000Y-51343000D03*
D39*
X137272000Y-50393000D03*
%TD*%
D42*
%TO.C,J69*%
X83347000Y-119113001D03*
D41*
X83347000Y-117843001D03*
%TD*%
D14*
%TO.C,C26*%
X77322000Y-84843000D03*
X75772000Y-84843000D03*
%TD*%
%TO.C,C23*%
X77397000Y-81843000D03*
X75847000Y-81843000D03*
%TD*%
D32*
%TO.C,J21*%
X161927001Y-50048000D03*
D31*
X163376999Y-50048000D03*
%TD*%
D20*
%TO.C,C25*%
X101102000Y-73048000D03*
X102652000Y-73048000D03*
%TD*%
D34*
%TO.C,R15*%
X115627000Y-53048000D03*
X117277000Y-53048000D03*
%TD*%
D32*
%TO.C,J59*%
X148152004Y-90048000D03*
D31*
X149602002Y-90048000D03*
%TD*%
D32*
%TO.C,J39*%
X161927001Y-70048000D03*
D31*
X163376999Y-70048000D03*
%TD*%
D17*
%TO.C,D5*%
X162152000Y-52398000D03*
X162152000Y-54498000D03*
%TD*%
D32*
%TO.C,J25*%
X151602002Y-50048000D03*
D31*
X153052000Y-50048000D03*
%TD*%
D40*
%TO.C,U74*%
X137747000Y-69443000D03*
X136797000Y-69443000D03*
X136797000Y-71343000D03*
X137747000Y-71343000D03*
D39*
X137272000Y-70393000D03*
%TD*%
D13*
%TO.C,J65*%
X99052000Y-117028000D03*
D12*
X99052000Y-119568000D03*
X99052000Y-122108000D03*
X99052000Y-124648000D03*
%TD*%
D34*
%TO.C,R62*%
X78797000Y-121842998D03*
X80447000Y-121842998D03*
%TD*%
D13*
%TO.C,J28*%
X72347000Y-71163000D03*
D12*
X72347000Y-73703000D03*
X72347000Y-76243000D03*
X72347000Y-78783000D03*
X72347000Y-81323000D03*
X72347000Y-83863000D03*
%TD*%
D14*
%TO.C,C45*%
X149517000Y-93048000D03*
X147967000Y-93048000D03*
%TD*%
D32*
%TO.C,J30*%
X111927001Y-70048000D03*
D31*
X113376999Y-70048000D03*
%TD*%
D14*
%TO.C,C12*%
X77322000Y-64843000D03*
X75772000Y-64843000D03*
%TD*%
D13*
%TO.C,J17*%
X92852000Y-50548000D03*
D12*
X90312000Y-50548000D03*
%TD*%
D22*
%TO.C,U18*%
X78352000Y-57548000D03*
X78352000Y-58198000D03*
X78352000Y-58848000D03*
X78352000Y-59498000D03*
X80152000Y-59498000D03*
X80152000Y-58848000D03*
X80152000Y-58198000D03*
X80152000Y-57548000D03*
%TD*%
D42*
%TO.C,J42*%
X133347000Y-79113001D03*
D41*
X133347000Y-77843001D03*
%TD*%
D20*
%TO.C,C53*%
X101102000Y-113048000D03*
X102652000Y-113048000D03*
%TD*%
D17*
%TO.C,D9*%
X162152000Y-72398000D03*
X162152000Y-74498000D03*
%TD*%
D19*
%TO.C,U62*%
X82522000Y-85843000D03*
X82522000Y-85342999D03*
X82522000Y-84842999D03*
X82522000Y-84342998D03*
X80172000Y-84342998D03*
X80172000Y-84842999D03*
X80172000Y-85342999D03*
X80172000Y-85843000D03*
D18*
X81347000Y-85092999D03*
%TD*%
D42*
%TO.C,J24*%
X133347000Y-59113001D03*
D41*
X133347000Y-57843001D03*
%TD*%
D28*
%TO.C,U102*%
X129881264Y-91001578D03*
X128911264Y-91001578D03*
X127941264Y-91001578D03*
X126971264Y-91001578D03*
X126971264Y-89601578D03*
X127941264Y-89601578D03*
X128911264Y-89601578D03*
X129881264Y-89601578D03*
%TD*%
D32*
%TO.C,J57*%
X161927001Y-90048000D03*
D31*
X163376999Y-90048000D03*
%TD*%
D13*
%TO.C,J82*%
X72347000Y-131163000D03*
D12*
X72347000Y-133703000D03*
X72347000Y-136243000D03*
X72347000Y-138783000D03*
X72347000Y-141323000D03*
X72347000Y-143863000D03*
%TD*%
D34*
%TO.C,R63*%
X115627000Y-113048000D03*
X117277000Y-113048000D03*
%TD*%
D35*
%TO.C,D14*%
X159502001Y-90048000D03*
X157926999Y-90048000D03*
%TD*%
D33*
%TO.C,TP4*%
X78852000Y-75448000D03*
%TD*%
D32*
%TO.C,J48*%
X111927001Y-90048000D03*
D31*
X113376999Y-90048000D03*
%TD*%
D14*
%TO.C,C51*%
X77397000Y-121843000D03*
X75847000Y-121843000D03*
%TD*%
D20*
%TO.C,C50*%
X81997000Y-121843000D03*
X83547000Y-121843000D03*
%TD*%
D47*
%TO.C,U85*%
X87947000Y-105443000D03*
X87947000Y-104943000D03*
X87947000Y-104443000D03*
X85197000Y-104443000D03*
X85197000Y-104943000D03*
X85197000Y-105443000D03*
%TD*%
D22*
%TO.C,U17*%
X81846999Y-53993000D03*
X81847000Y-54643000D03*
X81846999Y-55293000D03*
X83647001Y-55293000D03*
X83647000Y-54643000D03*
X83647001Y-53993000D03*
%TD*%
D45*
%TO.C,C35*%
X153352000Y-76898000D03*
X153352000Y-75348000D03*
%TD*%
D38*
%TO.C,U156*%
X86097000Y-136993000D03*
X86097000Y-137643000D03*
X86097000Y-138293000D03*
X87797000Y-138293000D03*
X87797000Y-137643000D03*
X87797000Y-136993000D03*
D37*
X86947000Y-137643000D03*
%TD*%
D11*
%TO.C,R51*%
X125947000Y-98868000D03*
X125947000Y-97218000D03*
%TD*%
D20*
%TO.C,C48*%
X161277000Y-96848000D03*
X162827000Y-96848000D03*
%TD*%
D34*
%TO.C,R46*%
X78797000Y-101842998D03*
X80447000Y-101842998D03*
%TD*%
D13*
%TO.C,J64*%
X72347000Y-111163000D03*
D12*
X72347000Y-113703000D03*
X72347000Y-116243000D03*
X72347000Y-118783000D03*
X72347000Y-121323000D03*
X72347000Y-123863000D03*
%TD*%
D34*
%TO.C,R47*%
X115627000Y-93048000D03*
X117277000Y-93048000D03*
%TD*%
D13*
%TO.C,J46*%
X72347000Y-91163000D03*
D12*
X72347000Y-93703000D03*
X72347000Y-96243000D03*
X72347000Y-98783000D03*
X72347000Y-101323000D03*
X72347000Y-103863000D03*
%TD*%
D32*
%TO.C,J84*%
X111927001Y-130048000D03*
D31*
X113376999Y-130048000D03*
%TD*%
D15*
%TO.C,R26*%
X91952000Y-83610500D03*
X91952000Y-80685500D03*
%TD*%
D32*
%TO.C,J32*%
X98152004Y-70048000D03*
D31*
X99602002Y-70048000D03*
%TD*%
D13*
%TO.C,J22*%
X166852000Y-57028000D03*
D12*
X166852000Y-59568000D03*
X166852000Y-62108000D03*
X166852000Y-64648000D03*
%TD*%
D34*
%TO.C,R29*%
X115627000Y-70348000D03*
X117277000Y-70348000D03*
%TD*%
D42*
%TO.C,J33*%
X83347000Y-79113001D03*
D41*
X83347000Y-77843001D03*
%TD*%
D46*
%TO.C,R24*%
X156452000Y-50048000D03*
X154802000Y-50048000D03*
%TD*%
D20*
%TO.C,C32*%
X151102000Y-73048000D03*
X152652000Y-73048000D03*
%TD*%
D11*
%TO.C,R28*%
X75947000Y-75817999D03*
X75947000Y-74167999D03*
%TD*%
D38*
%TO.C,U59*%
X86634500Y-73843000D03*
X86634500Y-74443000D03*
X87934500Y-74443000D03*
X87934500Y-73843000D03*
D43*
X87284500Y-74143001D03*
%TD*%
D13*
%TO.C,J29*%
X99052000Y-77028000D03*
D12*
X99052000Y-79568000D03*
X99052000Y-82108000D03*
X99052000Y-84648000D03*
%TD*%
D13*
%TO.C,J53*%
X92852000Y-90548000D03*
D12*
X90312000Y-90548000D03*
%TD*%
D46*
%TO.C,R64*%
X106452000Y-110048000D03*
X104802000Y-110048000D03*
%TD*%
D30*
%TO.C,IC3*%
X132947000Y-51143000D03*
X133747000Y-51143000D03*
X133747000Y-49543000D03*
X132947000Y-49543000D03*
D29*
X133347000Y-50343000D03*
%TD*%
D45*
%TO.C,C21*%
X153352000Y-56898000D03*
X153352000Y-55348000D03*
%TD*%
D13*
%TO.C,J47*%
X99052000Y-97028000D03*
D12*
X99052000Y-99568000D03*
X99052000Y-102108000D03*
X99052000Y-104648000D03*
%TD*%
D36*
%TO.C,U88*%
X106377000Y-92748000D03*
X106377000Y-93698000D03*
X106377000Y-94648000D03*
X108652000Y-94648000D03*
X108652000Y-92748000D03*
%TD*%
D21*
%TO.C,U159*%
X86427000Y-140348000D03*
X86426999Y-140848000D03*
X86427000Y-141348000D03*
X87852000Y-141348000D03*
X87852001Y-140848000D03*
X87852000Y-140348000D03*
%TD*%
D16*
%TO.C,R17*%
X141952000Y-65110500D03*
X141952000Y-59185500D03*
%TD*%
D36*
%TO.C,U72*%
X156377000Y-72748000D03*
X156377000Y-73698000D03*
X156377000Y-74648000D03*
X158652000Y-74648000D03*
X158652000Y-72748000D03*
%TD*%
D34*
%TO.C,R13*%
X115627000Y-50348000D03*
X117277000Y-50348000D03*
%TD*%
D38*
%TO.C,U123*%
X86634500Y-113843000D03*
X86634500Y-114443000D03*
X87934500Y-114443000D03*
X87934500Y-113843000D03*
D43*
X87284500Y-114143001D03*
%TD*%
D16*
%TO.C,R41*%
X91952000Y-105110500D03*
X91952000Y-99185500D03*
%TD*%
D34*
%TO.C,R21*%
X165627000Y-50348000D03*
X167277000Y-50348000D03*
%TD*%
D20*
%TO.C,C22*%
X81997000Y-81843000D03*
X83547000Y-81843000D03*
%TD*%
D17*
%TO.C,D13*%
X162152000Y-92398000D03*
X162152000Y-94498000D03*
%TD*%
D28*
%TO.C,U54*%
X79881264Y-71001578D03*
X78911264Y-71001578D03*
X77941264Y-71001578D03*
X76971264Y-71001578D03*
X76971264Y-69601578D03*
X77941264Y-69601578D03*
X78911264Y-69601578D03*
X79881264Y-69601578D03*
%TD*%
D32*
%TO.C,J61*%
X151602002Y-90048000D03*
D31*
X153052000Y-90048000D03*
%TD*%
D15*
%TO.C,R42*%
X91952000Y-103610500D03*
X91952000Y-100685500D03*
%TD*%
D19*
%TO.C,U30*%
X82522000Y-65843000D03*
X82522000Y-65342999D03*
X82522000Y-64842999D03*
X82522000Y-64342998D03*
X80172000Y-64342998D03*
X80172000Y-64842999D03*
X80172000Y-65342999D03*
X80172000Y-65843000D03*
D18*
X81347000Y-65092999D03*
%TD*%
D22*
%TO.C,U113*%
X81846999Y-113993000D03*
X81847000Y-114643000D03*
X81846999Y-115293000D03*
X83647001Y-115293000D03*
X83647000Y-114643000D03*
X83647001Y-113993000D03*
%TD*%
%TO.C,U50*%
X78352000Y-77548000D03*
X78352000Y-78198000D03*
X78352000Y-78848000D03*
X78352000Y-79498000D03*
X80152000Y-79498000D03*
X80152000Y-78848000D03*
X80152000Y-78198000D03*
X80152000Y-77548000D03*
%TD*%
D44*
%TO.C,U19*%
X92789500Y-56323000D03*
X92789500Y-55673000D03*
X92789500Y-55023000D03*
X92789500Y-54373000D03*
X90514500Y-54373000D03*
X90514500Y-55023000D03*
X90514500Y-55673000D03*
X90514500Y-56323000D03*
%TD*%
D19*
%TO.C,U46*%
X132522000Y-65843000D03*
X132522000Y-65342999D03*
X132522000Y-64842999D03*
X132522000Y-64342998D03*
X130172000Y-64342998D03*
X130172000Y-64842999D03*
X130172000Y-65342999D03*
X130172000Y-65843000D03*
D18*
X131347000Y-65092999D03*
%TD*%
D17*
%TO.C,D11*%
X112152000Y-92398000D03*
X112152000Y-94498000D03*
%TD*%
D11*
%TO.C,R20*%
X125947000Y-55817999D03*
X125947000Y-54167999D03*
%TD*%
D27*
%TO.C,U68*%
X155062000Y-81008000D03*
X160842000Y-81008000D03*
D25*
X154702000Y-79563000D03*
X155501999Y-79563000D03*
D26*
X156702000Y-79563001D03*
X157702000Y-79563000D03*
X158202000Y-79563000D03*
X159202000Y-79563001D03*
D25*
X160402001Y-79563000D03*
X161202000Y-79563000D03*
X161202000Y-79563000D03*
X160402001Y-79563000D03*
D26*
X159702000Y-79563000D03*
X158702000Y-79563000D03*
X157202000Y-79563000D03*
X156202000Y-79563000D03*
D25*
X155501999Y-79563000D03*
X154702000Y-79563000D03*
D24*
X153632000Y-80478000D03*
D23*
X153632000Y-84658000D03*
D24*
X162272000Y-80478000D03*
D23*
X162272000Y-84658000D03*
%TD*%
D27*
%TO.C,U52*%
X105062000Y-81008000D03*
X110842000Y-81008000D03*
D25*
X104702000Y-79563000D03*
X105501999Y-79563000D03*
D26*
X106702000Y-79563001D03*
X107702000Y-79563000D03*
X108202000Y-79563000D03*
X109202000Y-79563001D03*
D25*
X110402001Y-79563000D03*
X111202000Y-79563000D03*
X111202000Y-79563000D03*
X110402001Y-79563000D03*
D26*
X109702000Y-79563000D03*
X108702000Y-79563000D03*
X107202000Y-79563000D03*
X106202000Y-79563000D03*
D25*
X105501999Y-79563000D03*
X104702000Y-79563000D03*
D24*
X103632000Y-80478000D03*
D23*
X103632000Y-84658000D03*
D24*
X112272000Y-80478000D03*
D23*
X112272000Y-84658000D03*
%TD*%
D46*
%TO.C,R80*%
X106452000Y-130048000D03*
X104802000Y-130048000D03*
%TD*%
D14*
%TO.C,C24*%
X99517000Y-73048000D03*
X97967000Y-73048000D03*
%TD*%
%TO.C,C66*%
X99517000Y-133048000D03*
X97967000Y-133048000D03*
%TD*%
D36*
%TO.C,U104*%
X156377000Y-92748000D03*
X156377000Y-93698000D03*
X156377000Y-94648000D03*
X158652000Y-94648000D03*
X158652000Y-92748000D03*
%TD*%
D27*
%TO.C,U20*%
X105062000Y-61008000D03*
X110842000Y-61008000D03*
D25*
X104702000Y-59563000D03*
X105501999Y-59563000D03*
D26*
X106702000Y-59563001D03*
X107702000Y-59563000D03*
X108202000Y-59563000D03*
X109202000Y-59563001D03*
D25*
X110402001Y-59563000D03*
X111202000Y-59563000D03*
X111202000Y-59563000D03*
X110402001Y-59563000D03*
D26*
X109702000Y-59563000D03*
X108702000Y-59563000D03*
X107202000Y-59563000D03*
X106202000Y-59563000D03*
D25*
X105501999Y-59563000D03*
X104702000Y-59563000D03*
D24*
X103632000Y-60478000D03*
D23*
X103632000Y-64658000D03*
D24*
X112272000Y-60478000D03*
D23*
X112272000Y-64658000D03*
%TD*%
D27*
%TO.C,U116*%
X105062000Y-121008000D03*
X110842000Y-121008000D03*
D25*
X104702000Y-119563000D03*
X105501999Y-119563000D03*
D26*
X106702000Y-119563001D03*
X107702000Y-119563000D03*
X108202000Y-119563000D03*
X109202000Y-119563001D03*
D25*
X110402001Y-119563000D03*
X111202000Y-119563000D03*
X111202000Y-119563000D03*
X110402001Y-119563000D03*
D26*
X109702000Y-119563000D03*
X108702000Y-119563000D03*
X107202000Y-119563000D03*
X106202000Y-119563000D03*
D25*
X105501999Y-119563000D03*
X104702000Y-119563000D03*
D24*
X103632000Y-120478000D03*
D23*
X103632000Y-124658000D03*
D24*
X112272000Y-120478000D03*
D23*
X112272000Y-124658000D03*
%TD*%
D34*
%TO.C,R45*%
X115627000Y-90348000D03*
X117277000Y-90348000D03*
%TD*%
D38*
%TO.C,U108*%
X136097000Y-96993000D03*
X136097000Y-97643000D03*
X136097000Y-98293000D03*
X137797000Y-98293000D03*
X137797000Y-97643000D03*
X137797000Y-96993000D03*
D37*
X136947000Y-97643000D03*
%TD*%
D47*
%TO.C,U69*%
X137947000Y-85443000D03*
X137947000Y-84943000D03*
X137947000Y-84443000D03*
X135197000Y-84443000D03*
X135197000Y-84943000D03*
X135197000Y-85443000D03*
%TD*%
D45*
%TO.C,C56*%
X103352000Y-116898000D03*
X103352000Y-115348000D03*
%TD*%
D22*
%TO.C,U82*%
X78352000Y-97548000D03*
X78352000Y-98198000D03*
X78352000Y-98848000D03*
X78352000Y-99498000D03*
X80152000Y-99498000D03*
X80152000Y-98848000D03*
X80152000Y-98198000D03*
X80152000Y-97548000D03*
%TD*%
D33*
%TO.C,TP10*%
X78852000Y-135448000D03*
%TD*%
D14*
%TO.C,C9*%
X77397000Y-61843000D03*
X75847000Y-61843000D03*
%TD*%
D38*
%TO.C,U28*%
X86097000Y-56993000D03*
X86097000Y-57643000D03*
X86097000Y-58293000D03*
X87797000Y-58293000D03*
X87797000Y-57643000D03*
X87797000Y-56993000D03*
D37*
X86947000Y-57643000D03*
%TD*%
D27*
%TO.C,U36*%
X155062000Y-61008000D03*
X160842000Y-61008000D03*
D25*
X154702000Y-59563000D03*
X155501999Y-59563000D03*
D26*
X156702000Y-59563001D03*
X157702000Y-59563000D03*
X158202000Y-59563000D03*
X159202000Y-59563001D03*
D25*
X160402001Y-59563000D03*
X161202000Y-59563000D03*
X161202000Y-59563000D03*
X160402001Y-59563000D03*
D26*
X159702000Y-59563000D03*
X158702000Y-59563000D03*
X157202000Y-59563000D03*
X156202000Y-59563000D03*
D25*
X155501999Y-59563000D03*
X154702000Y-59563000D03*
D24*
X153632000Y-60478000D03*
D23*
X153632000Y-64658000D03*
D24*
X162272000Y-60478000D03*
D23*
X162272000Y-64658000D03*
%TD*%
D22*
%TO.C,U81*%
X81846999Y-93993000D03*
X81847000Y-94643000D03*
X81846999Y-95293000D03*
X83647001Y-95293000D03*
X83647000Y-94643000D03*
X83647001Y-93993000D03*
%TD*%
D32*
%TO.C,J86*%
X98152004Y-130048000D03*
D31*
X99602002Y-130048000D03*
%TD*%
D14*
%TO.C,C52*%
X99517000Y-113048000D03*
X97967000Y-113048000D03*
%TD*%
D30*
%TO.C,IC10*%
X82947000Y-131143000D03*
X83747000Y-131143000D03*
X83747000Y-129543000D03*
X82947000Y-129543000D03*
D29*
X83347000Y-130343000D03*
%TD*%
D20*
%TO.C,C11*%
X101102000Y-53048000D03*
X102652000Y-53048000D03*
%TD*%
D11*
%TO.C,R19*%
X125947000Y-58868000D03*
X125947000Y-57218000D03*
%TD*%
D21*
%TO.C,U95*%
X86427000Y-100348000D03*
X86426999Y-100848000D03*
X86427000Y-101348000D03*
X87852000Y-101348000D03*
X87852001Y-100848000D03*
X87852000Y-100348000D03*
%TD*%
D11*
%TO.C,R59*%
X75947000Y-118868000D03*
X75947000Y-117218000D03*
%TD*%
D33*
%TO.C,TP7*%
X128852000Y-95448000D03*
%TD*%
D13*
%TO.C,J49*%
X116852000Y-97028000D03*
D12*
X116852000Y-99568000D03*
X116852000Y-102108000D03*
X116852000Y-104648000D03*
%TD*%
D11*
%TO.C,R60*%
X75947000Y-115817999D03*
X75947000Y-114167999D03*
%TD*%
D13*
%TO.C,J10*%
X72347000Y-51163000D03*
D12*
X72347000Y-53703000D03*
X72347000Y-56243000D03*
X72347000Y-58783000D03*
X72347000Y-61323000D03*
X72347000Y-63863000D03*
%TD*%
D20*
%TO.C,C46*%
X151102000Y-93048000D03*
X152652000Y-93048000D03*
%TD*%
D15*
%TO.C,R10*%
X91952000Y-63610500D03*
X91952000Y-60685500D03*
%TD*%
D47*
%TO.C,U37*%
X137947000Y-65443000D03*
X137947000Y-64943000D03*
X137947000Y-64443000D03*
X135197000Y-64443000D03*
X135197000Y-64943000D03*
X135197000Y-65443000D03*
%TD*%
D17*
%TO.C,D19*%
X112152000Y-132398000D03*
X112152000Y-134498000D03*
%TD*%
D34*
%TO.C,R14*%
X78797000Y-61842998D03*
X80447000Y-61842998D03*
%TD*%
%TO.C,R31*%
X115627000Y-73048000D03*
X117277000Y-73048000D03*
%TD*%
D21*
%TO.C,U111*%
X136427000Y-100348000D03*
X136426999Y-100848000D03*
X136427000Y-101348000D03*
X137852000Y-101348000D03*
X137852001Y-100848000D03*
X137852000Y-100348000D03*
%TD*%
D13*
%TO.C,J44*%
X142852000Y-70548000D03*
D12*
X140312000Y-70548000D03*
%TD*%
D14*
%TO.C,C19*%
X127322000Y-64843000D03*
X125772000Y-64843000D03*
%TD*%
D15*
%TO.C,R74*%
X91952000Y-143610500D03*
X91952000Y-140685500D03*
%TD*%
D30*
%TO.C,IC8*%
X82947000Y-111143000D03*
X83747000Y-111143000D03*
X83747000Y-109543000D03*
X82947000Y-109543000D03*
D29*
X83347000Y-110343000D03*
%TD*%
D34*
%TO.C,R79*%
X115627000Y-133048000D03*
X117277000Y-133048000D03*
%TD*%
D45*
%TO.C,C49*%
X153352000Y-96898000D03*
X153352000Y-95348000D03*
%TD*%
D19*
%TO.C,U158*%
X82522000Y-145843000D03*
X82522000Y-145342999D03*
X82522000Y-144842999D03*
X82522000Y-144342998D03*
X80172000Y-144342998D03*
X80172000Y-144842999D03*
X80172000Y-145342999D03*
X80172000Y-145843000D03*
D18*
X81347000Y-145092999D03*
%TD*%
D34*
%TO.C,R38*%
X128797000Y-81842998D03*
X130447000Y-81842998D03*
%TD*%
D32*
%TO.C,J66*%
X111927001Y-110048000D03*
D31*
X113376999Y-110048000D03*
%TD*%
D28*
%TO.C,U86*%
X79881264Y-91001578D03*
X78911264Y-91001578D03*
X77941264Y-91001578D03*
X76971264Y-91001578D03*
X76971264Y-89601578D03*
X77941264Y-89601578D03*
X78911264Y-89601578D03*
X79881264Y-89601578D03*
%TD*%
D35*
%TO.C,D20*%
X109502001Y-130048000D03*
X107926999Y-130048000D03*
%TD*%
D13*
%TO.C,J36*%
X95852000Y-69448000D03*
D12*
X95852000Y-71988000D03*
X95852000Y-74528000D03*
X95852000Y-77068000D03*
X95852000Y-79608000D03*
X95852000Y-82148000D03*
X95852000Y-84688000D03*
%TD*%
D47*
%TO.C,U117*%
X87947000Y-125443000D03*
X87947000Y-124943000D03*
X87947000Y-124443000D03*
X85197000Y-124443000D03*
X85197000Y-124943000D03*
X85197000Y-125443000D03*
%TD*%
D44*
%TO.C,U147*%
X92789500Y-136323000D03*
X92789500Y-135673000D03*
X92789500Y-135023000D03*
X92789500Y-134373000D03*
X90514500Y-134373000D03*
X90514500Y-135023000D03*
X90514500Y-135673000D03*
X90514500Y-136323000D03*
%TD*%
D30*
%TO.C,IC4*%
X82947000Y-71143000D03*
X83747000Y-71143000D03*
X83747000Y-69543000D03*
X82947000Y-69543000D03*
D29*
X83347000Y-70343000D03*
%TD*%
D32*
%TO.C,J14*%
X98152004Y-50048000D03*
D31*
X99602002Y-50048000D03*
%TD*%
D35*
%TO.C,D12*%
X109502001Y-90048000D03*
X107926999Y-90048000D03*
%TD*%
D36*
%TO.C,U152*%
X106377000Y-132748000D03*
X106377000Y-133698000D03*
X106377000Y-134648000D03*
X108652000Y-134648000D03*
X108652000Y-132748000D03*
%TD*%
D34*
%TO.C,R78*%
X78797000Y-141842998D03*
X80447000Y-141842998D03*
%TD*%
D20*
%TO.C,C20*%
X161277000Y-56848000D03*
X162827000Y-56848000D03*
%TD*%
D38*
%TO.C,U44*%
X136097000Y-56993000D03*
X136097000Y-57643000D03*
X136097000Y-58293000D03*
X137797000Y-58293000D03*
X137797000Y-57643000D03*
X137797000Y-56993000D03*
D37*
X136947000Y-57643000D03*
%TD*%
D13*
%TO.C,J18*%
X95852000Y-49448000D03*
D12*
X95852000Y-51988000D03*
X95852000Y-54528000D03*
X95852000Y-57068000D03*
X95852000Y-59608000D03*
X95852000Y-62148000D03*
X95852000Y-64688000D03*
%TD*%
D35*
%TO.C,D10*%
X159502001Y-70048000D03*
X157926999Y-70048000D03*
%TD*%
D47*
%TO.C,U101*%
X137947000Y-105443000D03*
X137947000Y-104943000D03*
X137947000Y-104443000D03*
X135197000Y-104443000D03*
X135197000Y-104943000D03*
X135197000Y-105443000D03*
%TD*%
D38*
%TO.C,U76*%
X136097000Y-76993000D03*
X136097000Y-77643000D03*
X136097000Y-78293000D03*
X137797000Y-78293000D03*
X137797000Y-77643000D03*
X137797000Y-76993000D03*
D37*
X136947000Y-77643000D03*
%TD*%
D21*
%TO.C,U79*%
X136427000Y-80348000D03*
X136426999Y-80848000D03*
X136427000Y-81348000D03*
X137852000Y-81348000D03*
X137852001Y-80848000D03*
X137852000Y-80348000D03*
%TD*%
D13*
%TO.C,J27*%
X145852000Y-49448000D03*
D12*
X145852000Y-51988000D03*
X145852000Y-54528000D03*
X145852000Y-57068000D03*
X145852000Y-59608000D03*
X145852000Y-62148000D03*
X145852000Y-64688000D03*
%TD*%
D34*
%TO.C,R54*%
X128797000Y-101842998D03*
X130447000Y-101842998D03*
%TD*%
D20*
%TO.C,C39*%
X101102000Y-93048000D03*
X102652000Y-93048000D03*
%TD*%
D32*
%TO.C,J43*%
X151602002Y-70048000D03*
D31*
X153052000Y-70048000D03*
%TD*%
D38*
%TO.C,U75*%
X136634500Y-73843000D03*
X136634500Y-74443000D03*
X137934500Y-74443000D03*
X137934500Y-73843000D03*
D43*
X137284500Y-74143001D03*
%TD*%
D40*
%TO.C,U58*%
X87747000Y-69443000D03*
X86797000Y-69443000D03*
X86797000Y-71343000D03*
X87747000Y-71343000D03*
D39*
X87272000Y-70393000D03*
%TD*%
D13*
%TO.C,J56*%
X149052000Y-97028000D03*
D12*
X149052000Y-99568000D03*
X149052000Y-102108000D03*
X149052000Y-104648000D03*
%TD*%
D14*
%TO.C,C30*%
X127397000Y-81843000D03*
X125847000Y-81843000D03*
%TD*%
D13*
%TO.C,J37*%
X122347000Y-71163000D03*
D12*
X122347000Y-73703000D03*
X122347000Y-76243000D03*
X122347000Y-78783000D03*
X122347000Y-81323000D03*
X122347000Y-83863000D03*
%TD*%
D20*
%TO.C,C64*%
X81997000Y-141843000D03*
X83547000Y-141843000D03*
%TD*%
D30*
%TO.C,IC2*%
X82947000Y-51143000D03*
X83747000Y-51143000D03*
X83747000Y-49543000D03*
X82947000Y-49543000D03*
D29*
X83347000Y-50343000D03*
%TD*%
D13*
%TO.C,J90*%
X95852000Y-129448000D03*
D12*
X95852000Y-131988000D03*
X95852000Y-134528000D03*
X95852000Y-137068000D03*
X95852000Y-139608000D03*
X95852000Y-142148000D03*
X95852000Y-144688000D03*
%TD*%
D32*
%TO.C,J88*%
X101602002Y-130048000D03*
D31*
X103052000Y-130048000D03*
%TD*%
D19*
%TO.C,U110*%
X132522000Y-105843000D03*
X132522000Y-105342999D03*
X132522000Y-104842999D03*
X132522000Y-104342998D03*
X130172000Y-104342998D03*
X130172000Y-104842999D03*
X130172000Y-105342999D03*
X130172000Y-105843000D03*
D18*
X131347000Y-105092999D03*
%TD*%
D14*
%TO.C,C44*%
X127397000Y-101843000D03*
X125847000Y-101843000D03*
%TD*%
D36*
%TO.C,U56*%
X106377000Y-72748000D03*
X106377000Y-73698000D03*
X106377000Y-74648000D03*
X108652000Y-74648000D03*
X108652000Y-72748000D03*
%TD*%
D11*
%TO.C,R43*%
X75947000Y-98868000D03*
X75947000Y-97218000D03*
%TD*%
D14*
%TO.C,C16*%
X127397000Y-61843000D03*
X125847000Y-61843000D03*
%TD*%
D11*
%TO.C,R36*%
X125947000Y-75817999D03*
X125947000Y-74167999D03*
%TD*%
D33*
%TO.C,TP5*%
X128852000Y-75448000D03*
%TD*%
D40*
%TO.C,U106*%
X137747000Y-89443000D03*
X136797000Y-89443000D03*
X136797000Y-91343000D03*
X137747000Y-91343000D03*
D39*
X137272000Y-90393000D03*
%TD*%
D20*
%TO.C,C18*%
X151102000Y-53048000D03*
X152652000Y-53048000D03*
%TD*%
D32*
%TO.C,J34*%
X101602002Y-70048000D03*
D31*
X103052000Y-70048000D03*
%TD*%
D35*
%TO.C,D6*%
X159502001Y-50048000D03*
X157926999Y-50048000D03*
%TD*%
D11*
%TO.C,R75*%
X75947000Y-138868000D03*
X75947000Y-137218000D03*
%TD*%
D35*
%TO.C,D4*%
X109502001Y-50048000D03*
X107926999Y-50048000D03*
%TD*%
D38*
%TO.C,U107*%
X136634500Y-93843000D03*
X136634500Y-94443000D03*
X137934500Y-94443000D03*
X137934500Y-93843000D03*
D43*
X137284500Y-94143001D03*
%TD*%
D17*
%TO.C,D15*%
X112152000Y-112398000D03*
X112152000Y-114498000D03*
%TD*%
D30*
%TO.C,IC6*%
X82947000Y-91143000D03*
X83747000Y-91143000D03*
X83747000Y-89543000D03*
X82947000Y-89543000D03*
D29*
X83347000Y-90343000D03*
%TD*%
D22*
%TO.C,U33*%
X131846999Y-53993000D03*
X131847000Y-54643000D03*
X131846999Y-55293000D03*
X133647001Y-55293000D03*
X133647000Y-54643000D03*
X133647001Y-53993000D03*
%TD*%
D21*
%TO.C,U31*%
X86427000Y-60348000D03*
X86426999Y-60848000D03*
X86427000Y-61348000D03*
X87852000Y-61348000D03*
X87852001Y-60848000D03*
X87852000Y-60348000D03*
%TD*%
D11*
%TO.C,R11*%
X75947000Y-58868000D03*
X75947000Y-57218000D03*
%TD*%
D15*
%TO.C,R50*%
X141952000Y-103610500D03*
X141952000Y-100685500D03*
%TD*%
D20*
%TO.C,C69*%
X111277000Y-136848000D03*
X112827000Y-136848000D03*
%TD*%
D44*
%TO.C,U67*%
X142789500Y-76323000D03*
X142789500Y-75673000D03*
X142789500Y-75023000D03*
X142789500Y-74373000D03*
X140514500Y-74373000D03*
X140514500Y-75023000D03*
X140514500Y-75673000D03*
X140514500Y-76323000D03*
%TD*%
D34*
%TO.C,R53*%
X165627000Y-90348000D03*
X167277000Y-90348000D03*
%TD*%
D20*
%TO.C,C8*%
X81997000Y-61843000D03*
X83547000Y-61843000D03*
%TD*%
D22*
%TO.C,U49*%
X81846999Y-73993000D03*
X81847000Y-74643000D03*
X81846999Y-75293000D03*
X83647001Y-75293000D03*
X83647000Y-74643000D03*
X83647001Y-73993000D03*
%TD*%
D11*
%TO.C,R12*%
X75947000Y-55817999D03*
X75947000Y-54167999D03*
%TD*%
D15*
%TO.C,R34*%
X141952000Y-83610500D03*
X141952000Y-80685500D03*
%TD*%
D42*
%TO.C,J60*%
X133347000Y-99113001D03*
D41*
X133347000Y-97843001D03*
%TD*%
D42*
%TO.C,J51*%
X83347000Y-99113001D03*
D41*
X83347000Y-97843001D03*
%TD*%
D40*
%TO.C,U154*%
X87747000Y-129443000D03*
X86797000Y-129443000D03*
X86797000Y-131343000D03*
X87747000Y-131343000D03*
D39*
X87272000Y-130393000D03*
%TD*%
D33*
%TO.C,TP6*%
X78852000Y-95448000D03*
%TD*%
D11*
%TO.C,R52*%
X125947000Y-95817999D03*
X125947000Y-94167999D03*
%TD*%
D13*
%TO.C,J20*%
X149052000Y-57028000D03*
D12*
X149052000Y-59568000D03*
X149052000Y-62108000D03*
X149052000Y-64648000D03*
%TD*%
D28*
%TO.C,U150*%
X79881264Y-131001578D03*
X78911264Y-131001578D03*
X77941264Y-131001578D03*
X76971264Y-131001578D03*
X76971264Y-129601578D03*
X77941264Y-129601578D03*
X78911264Y-129601578D03*
X79881264Y-129601578D03*
%TD*%
D13*
%TO.C,J62*%
X142852000Y-90548000D03*
D12*
X140312000Y-90548000D03*
%TD*%
D30*
%TO.C,IC7*%
X132947000Y-91143000D03*
X133747000Y-91143000D03*
X133747000Y-89543000D03*
X132947000Y-89543000D03*
D29*
X133347000Y-90343000D03*
%TD*%
D42*
%TO.C,J15*%
X83347000Y-59113001D03*
D41*
X83347000Y-57843001D03*
%TD*%
D14*
%TO.C,C40*%
X77322000Y-104843000D03*
X75772000Y-104843000D03*
%TD*%
D35*
%TO.C,D8*%
X109502001Y-70048000D03*
X107926999Y-70048000D03*
%TD*%
D20*
%TO.C,C55*%
X111277000Y-116848000D03*
X112827000Y-116848000D03*
%TD*%
D27*
%TO.C,U148*%
X105062000Y-141008000D03*
X110842000Y-141008000D03*
D25*
X104702000Y-139563000D03*
X105501999Y-139563000D03*
D26*
X106702000Y-139563001D03*
X107702000Y-139563000D03*
X108202000Y-139563000D03*
X109202000Y-139563001D03*
D25*
X110402001Y-139563000D03*
X111202000Y-139563000D03*
X111202000Y-139563000D03*
X110402001Y-139563000D03*
D26*
X109702000Y-139563000D03*
X108702000Y-139563000D03*
X107202000Y-139563000D03*
X106202000Y-139563000D03*
D25*
X105501999Y-139563000D03*
X104702000Y-139563000D03*
D24*
X103632000Y-140478000D03*
D23*
X103632000Y-144658000D03*
D24*
X112272000Y-140478000D03*
D23*
X112272000Y-144658000D03*
%TD*%
D16*
%TO.C,R25*%
X91952000Y-85110500D03*
X91952000Y-79185500D03*
%TD*%
D27*
%TO.C,U100*%
X155062000Y-101008000D03*
X160842000Y-101008000D03*
D25*
X154702000Y-99563000D03*
X155501999Y-99563000D03*
D26*
X156702000Y-99563001D03*
X157702000Y-99563000D03*
X158202000Y-99563000D03*
X159202000Y-99563001D03*
D25*
X160402001Y-99563000D03*
X161202000Y-99563000D03*
X161202000Y-99563000D03*
X160402001Y-99563000D03*
D26*
X159702000Y-99563000D03*
X158702000Y-99563000D03*
X157202000Y-99563000D03*
X156202000Y-99563000D03*
D25*
X155501999Y-99563000D03*
X154702000Y-99563000D03*
D24*
X153632000Y-100478000D03*
D23*
X153632000Y-104658000D03*
D24*
X162272000Y-100478000D03*
D23*
X162272000Y-104658000D03*
%TD*%
D33*
%TO.C,TP3*%
X128852000Y-55448000D03*
%TD*%
D45*
%TO.C,C70*%
X103352000Y-136898000D03*
X103352000Y-135348000D03*
%TD*%
D38*
%TO.C,U91*%
X86634500Y-93843000D03*
X86634500Y-94443000D03*
X87934500Y-94443000D03*
X87934500Y-93843000D03*
D43*
X87284500Y-94143001D03*
%TD*%
D46*
%TO.C,R56*%
X156452000Y-90048000D03*
X154802000Y-90048000D03*
%TD*%
D14*
%TO.C,C31*%
X149517000Y-73048000D03*
X147967000Y-73048000D03*
%TD*%
%TO.C,C33*%
X127322000Y-84843000D03*
X125772000Y-84843000D03*
%TD*%
D22*
%TO.C,U146*%
X78352000Y-137548000D03*
X78352000Y-138198000D03*
X78352000Y-138848000D03*
X78352000Y-139498000D03*
X80152000Y-139498000D03*
X80152000Y-138848000D03*
X80152000Y-138198000D03*
X80152000Y-137548000D03*
%TD*%
D14*
%TO.C,C17*%
X149517000Y-53048000D03*
X147967000Y-53048000D03*
%TD*%
D16*
%TO.C,R57*%
X91952000Y-125110500D03*
X91952000Y-119185500D03*
%TD*%
D21*
%TO.C,U127*%
X86427000Y-120348000D03*
X86426999Y-120848000D03*
X86427000Y-121348000D03*
X87852000Y-121348000D03*
X87852001Y-120848000D03*
X87852000Y-120348000D03*
%TD*%
D17*
%TO.C,D3*%
X112152000Y-52398000D03*
X112152000Y-54498000D03*
%TD*%
D32*
%TO.C,J50*%
X98152004Y-90048000D03*
D31*
X99602002Y-90048000D03*
%TD*%
D30*
%TO.C,IC5*%
X132947000Y-71143000D03*
X133747000Y-71143000D03*
X133747000Y-69543000D03*
X132947000Y-69543000D03*
D29*
X133347000Y-70343000D03*
%TD*%
D47*
%TO.C,U149*%
X87947000Y-145443000D03*
X87947000Y-144943000D03*
X87947000Y-144443000D03*
X85197000Y-144443000D03*
X85197000Y-144943000D03*
X85197000Y-145443000D03*
%TD*%
D32*
%TO.C,J41*%
X148152004Y-70048000D03*
D31*
X149602002Y-70048000D03*
%TD*%
D22*
%TO.C,U97*%
X131846999Y-93993000D03*
X131847000Y-94643000D03*
X131846999Y-95293000D03*
X133647001Y-95293000D03*
X133647000Y-94643000D03*
X133647001Y-93993000D03*
%TD*%
D44*
%TO.C,U115*%
X92789500Y-116323000D03*
X92789500Y-115673000D03*
X92789500Y-115023000D03*
X92789500Y-114373000D03*
X90514500Y-114373000D03*
X90514500Y-115023000D03*
X90514500Y-115673000D03*
X90514500Y-116323000D03*
%TD*%
D40*
%TO.C,U90*%
X87747000Y-89443000D03*
X86797000Y-89443000D03*
X86797000Y-91343000D03*
X87747000Y-91343000D03*
D39*
X87272000Y-90393000D03*
%TD*%
D22*
%TO.C,U65*%
X131846999Y-73993000D03*
X131847000Y-74643000D03*
X131846999Y-75293000D03*
X133647001Y-75293000D03*
X133647000Y-74643000D03*
X133647001Y-73993000D03*
%TD*%
D11*
%TO.C,R35*%
X125947000Y-78868000D03*
X125947000Y-77218000D03*
%TD*%
D40*
%TO.C,U26*%
X87747000Y-49443000D03*
X86797000Y-49443000D03*
X86797000Y-51343000D03*
X87747000Y-51343000D03*
D39*
X87272000Y-50393000D03*
%TD*%
D16*
%TO.C,R73*%
X91952000Y-145110500D03*
X91952000Y-139185500D03*
%TD*%
D44*
%TO.C,U51*%
X92789500Y-76323000D03*
X92789500Y-75673000D03*
X92789500Y-75023000D03*
X92789500Y-74373000D03*
X90514500Y-74373000D03*
X90514500Y-75023000D03*
X90514500Y-75673000D03*
X90514500Y-76323000D03*
%TD*%
D38*
%TO.C,U60*%
X86097000Y-76993000D03*
X86097000Y-77643000D03*
X86097000Y-78293000D03*
X87797000Y-78293000D03*
X87797000Y-77643000D03*
X87797000Y-76993000D03*
D37*
X86947000Y-77643000D03*
%TD*%
D14*
%TO.C,C65*%
X77397000Y-141843000D03*
X75847000Y-141843000D03*
%TD*%
D36*
%TO.C,U40*%
X156377000Y-52748000D03*
X156377000Y-53698000D03*
X156377000Y-54648000D03*
X158652000Y-54648000D03*
X158652000Y-52748000D03*
%TD*%
D28*
%TO.C,U22*%
X79881264Y-51001578D03*
X78911264Y-51001578D03*
X77941264Y-51001578D03*
X76971264Y-51001578D03*
X76971264Y-49601578D03*
X77941264Y-49601578D03*
X78911264Y-49601578D03*
X79881264Y-49601578D03*
%TD*%
D20*
%TO.C,C27*%
X111277000Y-76848000D03*
X112827000Y-76848000D03*
%TD*%
%TO.C,C34*%
X161277000Y-76848000D03*
X162827000Y-76848000D03*
%TD*%
%TO.C,C29*%
X131997000Y-81843000D03*
X133547000Y-81843000D03*
%TD*%
D13*
%TO.C,J19*%
X122347000Y-51163000D03*
D12*
X122347000Y-53703000D03*
X122347000Y-56243000D03*
X122347000Y-58783000D03*
X122347000Y-61323000D03*
X122347000Y-63863000D03*
%TD*%
D11*
%TO.C,R27*%
X75947000Y-78868000D03*
X75947000Y-77218000D03*
%TD*%
D19*
%TO.C,U78*%
X132522000Y-85843000D03*
X132522000Y-85342999D03*
X132522000Y-84842999D03*
X132522000Y-84342998D03*
X130172000Y-84342998D03*
X130172000Y-84842999D03*
X130172000Y-85342999D03*
X130172000Y-85843000D03*
D18*
X131347000Y-85092999D03*
%TD*%
D34*
%TO.C,R30*%
X78797000Y-81842998D03*
X80447000Y-81842998D03*
%TD*%
D47*
%TO.C,U53*%
X87947000Y-85443000D03*
X87947000Y-84943000D03*
X87947000Y-84443000D03*
X85197000Y-84443000D03*
X85197000Y-84943000D03*
X85197000Y-85443000D03*
%TD*%
D13*
%TO.C,J40*%
X166852000Y-77028000D03*
D12*
X166852000Y-79568000D03*
X166852000Y-82108000D03*
X166852000Y-84648000D03*
%TD*%
D40*
%TO.C,U122*%
X87747000Y-109443000D03*
X86797000Y-109443000D03*
X86797000Y-111343000D03*
X87747000Y-111343000D03*
D39*
X87272000Y-110393000D03*
%TD*%
D13*
%TO.C,J67*%
X116852000Y-117028000D03*
D12*
X116852000Y-119568000D03*
X116852000Y-122108000D03*
X116852000Y-124648000D03*
%TD*%
D45*
%TO.C,C14*%
X103352000Y-56898000D03*
X103352000Y-55348000D03*
%TD*%
D13*
%TO.C,J89*%
X92852000Y-130548000D03*
D12*
X90312000Y-130548000D03*
%TD*%
D27*
%TO.C,U132*%
X155062000Y-121008000D03*
X160842000Y-121008000D03*
D25*
X154702000Y-119563000D03*
X155501999Y-119563000D03*
D26*
X156702000Y-119563001D03*
X157702000Y-119563000D03*
X158202000Y-119563000D03*
X159202000Y-119563001D03*
D25*
X160402001Y-119563000D03*
X161202000Y-119563000D03*
X161202000Y-119563000D03*
X160402001Y-119563000D03*
D26*
X159702000Y-119563000D03*
X158702000Y-119563000D03*
X157202000Y-119563000D03*
X156202000Y-119563000D03*
D25*
X155501999Y-119563000D03*
X154702000Y-119563000D03*
D24*
X153632000Y-120478000D03*
D23*
X153632000Y-124658000D03*
D24*
X162272000Y-120478000D03*
D23*
X162272000Y-124658000D03*
%TD*%
D13*
%TO.C,J85*%
X116852000Y-137028000D03*
D12*
X116852000Y-139568000D03*
X116852000Y-142108000D03*
X116852000Y-144648000D03*
%TD*%
D13*
%TO.C,J11*%
X99052000Y-57028000D03*
D12*
X99052000Y-59568000D03*
X99052000Y-62108000D03*
X99052000Y-64648000D03*
%TD*%
D46*
%TO.C,R40*%
X156452000Y-70048000D03*
X154802000Y-70048000D03*
%TD*%
D13*
%TO.C,J55*%
X122347000Y-91163000D03*
D12*
X122347000Y-93703000D03*
X122347000Y-96243000D03*
X122347000Y-98783000D03*
X122347000Y-101323000D03*
X122347000Y-103863000D03*
%TD*%
D32*
%TO.C,J12*%
X111927001Y-50048000D03*
D31*
X113376999Y-50048000D03*
%TD*%
D28*
%TO.C,U38*%
X129881264Y-51001578D03*
X128911264Y-51001578D03*
X127941264Y-51001578D03*
X126971264Y-51001578D03*
X126971264Y-49601578D03*
X127941264Y-49601578D03*
X128911264Y-49601578D03*
X129881264Y-49601578D03*
%TD*%
D16*
%TO.C,R49*%
X141952000Y-105110500D03*
X141952000Y-99185500D03*
%TD*%
D21*
%TO.C,U63*%
X86427000Y-80348000D03*
X86426999Y-80848000D03*
X86427000Y-81348000D03*
X87852000Y-81348000D03*
X87852001Y-80848000D03*
X87852000Y-80348000D03*
%TD*%
D36*
%TO.C,U120*%
X106377000Y-112748000D03*
X106377000Y-113698000D03*
X106377000Y-114648000D03*
X108652000Y-114648000D03*
X108652000Y-112748000D03*
%TD*%
D20*
%TO.C,C36*%
X81997000Y-101843000D03*
X83547000Y-101843000D03*
%TD*%
D38*
%TO.C,U92*%
X86097000Y-96993000D03*
X86097000Y-97643000D03*
X86097000Y-98293000D03*
X87797000Y-98293000D03*
X87797000Y-97643000D03*
X87797000Y-96993000D03*
D37*
X86947000Y-97643000D03*
%TD*%
D35*
%TO.C,D16*%
X109502001Y-110048000D03*
X107926999Y-110048000D03*
%TD*%
D22*
%TO.C,U66*%
X128352000Y-77548000D03*
X128352000Y-78198000D03*
X128352000Y-78848000D03*
X128352000Y-79498000D03*
X130152000Y-79498000D03*
X130152000Y-78848000D03*
X130152000Y-78198000D03*
X130152000Y-77548000D03*
%TD*%
M02*
