%TF.GenerationSoftware,KiCad,Pcbnew,9.0.4*%
%TF.CreationDate,2025-12-22T17:02:14-05:00*%
%TF.ProjectId,Mess-Sense+USBC,4d657373-2d53-4656-9e73-652b55534243,rev?*%
%TF.SameCoordinates,Original*%
%TF.FileFunction,Paste,Top*%
%TF.FilePolarity,Positive*%
%FSLAX46Y46*%
G04 Gerber Fmt 4.6, Leading zero omitted, Abs format (unit mm)*
G04 Created by KiCad (PCBNEW 9.0.4) date 2025-12-22 17:02:14*
%MOMM*%
%LPD*%
G01*
G04 APERTURE LIST*
G04 Aperture macros list*
%AMRoundRect*
0 Rectangle with rounded corners*
0 $1 Rounding radius*
0 $2 $3 $4 $5 $6 $7 $8 $9 X,Y pos of 4 corners*
0 Add a 4 corners polygon primitive as box body*
4,1,4,$2,$3,$4,$5,$6,$7,$8,$9,$2,$3,0*
0 Add four circle primitives for the rounded corners*
1,1,$1+$1,$2,$3*
1,1,$1+$1,$4,$5*
1,1,$1+$1,$6,$7*
1,1,$1+$1,$8,$9*
0 Add four rect primitives between the rounded corners*
20,1,$1+$1,$2,$3,$4,$5,0*
20,1,$1+$1,$4,$5,$6,$7,0*
20,1,$1+$1,$6,$7,$8,$9,0*
20,1,$1+$1,$8,$9,$2,$3,0*%
%AMFreePoly0*
4,1,6,0.450000,-0.800000,-0.450000,-0.800000,-0.450000,0.530000,-0.180000,0.800000,0.450000,0.800000,0.450000,-0.800000,0.450000,-0.800000,$1*%
G04 Aperture macros list end*
%ADD10RoundRect,0.200000X0.275000X-0.200000X0.275000X0.200000X-0.275000X0.200000X-0.275000X-0.200000X0*%
%ADD11RoundRect,0.225000X0.225000X0.250000X-0.225000X0.250000X-0.225000X-0.250000X0.225000X-0.250000X0*%
%ADD12RoundRect,0.250000X0.625000X-0.312500X0.625000X0.312500X-0.625000X0.312500X-0.625000X-0.312500X0*%
%ADD13RoundRect,0.250000X1.425000X-0.362500X1.425000X0.362500X-1.425000X0.362500X-1.425000X-0.362500X0*%
%ADD14RoundRect,0.112500X-0.112500X0.187500X-0.112500X-0.187500X0.112500X-0.187500X0.112500X0.187500X0*%
%ADD15R,0.550000X0.250000*%
%ADD16FreePoly0,180.000000*%
%ADD17RoundRect,0.225000X-0.225000X-0.250000X0.225000X-0.250000X0.225000X0.250000X-0.225000X0.250000X0*%
%ADD18RoundRect,0.087500X-0.250000X-0.087500X0.250000X-0.087500X0.250000X0.087500X-0.250000X0.087500X0*%
%ADD19RoundRect,0.075000X-0.250000X-0.075000X0.250000X-0.075000X0.250000X0.075000X-0.250000X0.075000X0*%
%ADD20R,0.600000X1.450000*%
%ADD21R,0.300000X1.450000*%
%ADD22R,0.720000X0.600000*%
%ADD23R,1.100000X0.500000*%
%ADD24R,0.450000X0.700000*%
%ADD25RoundRect,0.200000X-0.200000X-0.275000X0.200000X-0.275000X0.200000X0.275000X-0.200000X0.275000X0*%
%ADD26RoundRect,0.218750X0.218750X0.256250X-0.218750X0.256250X-0.218750X-0.256250X0.218750X-0.256250X0*%
%ADD27RoundRect,0.150000X-0.512500X-0.150000X0.512500X-0.150000X0.512500X0.150000X-0.512500X0.150000X0*%
%ADD28RoundRect,0.062500X-0.087500X-0.062500X0.087500X-0.062500X0.087500X0.062500X-0.087500X0.062500X0*%
%ADD29RoundRect,0.140000X-0.140000X-0.180000X0.140000X-0.180000X0.140000X0.180000X-0.140000X0.180000X0*%
%ADD30R,0.300000X0.500000*%
%ADD31R,0.800000X0.350000*%
%ADD32RoundRect,0.081250X0.106250X0.081250X-0.106250X0.081250X-0.106250X-0.081250X0.106250X-0.081250X0*%
%ADD33RoundRect,0.075000X0.112500X0.075000X-0.112500X0.075000X-0.112500X-0.075000X0.112500X-0.075000X0*%
%ADD34RoundRect,0.125000X-0.125000X-0.325000X0.125000X-0.325000X0.125000X0.325000X-0.125000X0.325000X0*%
%ADD35RoundRect,0.087500X-0.100000X-0.087500X0.100000X-0.087500X0.100000X0.087500X-0.100000X0.087500X0*%
%ADD36RoundRect,0.081250X-0.106250X-0.081250X0.106250X-0.081250X0.106250X0.081250X-0.106250X0.081250X0*%
%ADD37RoundRect,0.125000X0.537500X0.125000X-0.537500X0.125000X-0.537500X-0.125000X0.537500X-0.125000X0*%
%ADD38RoundRect,0.225000X0.250000X-0.225000X0.250000X0.225000X-0.250000X0.225000X-0.250000X-0.225000X0*%
%ADD39RoundRect,0.200000X0.200000X0.275000X-0.200000X0.275000X-0.200000X-0.275000X0.200000X-0.275000X0*%
G04 APERTURE END LIST*
D10*
%TO.C,R3*%
X125947000Y-137218000D03*
X125947000Y-138868000D03*
%TD*%
D11*
%TO.C,C5*%
X125772000Y-144843000D03*
X127322000Y-144843000D03*
%TD*%
D12*
%TO.C,R2*%
X141952000Y-140685500D03*
X141952000Y-143610500D03*
%TD*%
D13*
%TO.C,R1*%
X141952000Y-139185500D03*
X141952000Y-145110500D03*
%TD*%
D14*
%TO.C,D1*%
X162152000Y-134498000D03*
X162152000Y-132398000D03*
%TD*%
D15*
%TO.C,U14*%
X130172000Y-145843000D03*
X130172000Y-145342999D03*
X130172000Y-144842999D03*
X130172000Y-144342998D03*
X132522000Y-144342998D03*
X132522000Y-144842999D03*
X132522000Y-145342999D03*
X132522000Y-145843000D03*
D16*
X131347000Y-145092999D03*
%TD*%
D17*
%TO.C,C4*%
X152652000Y-133048000D03*
X151102000Y-133048000D03*
%TD*%
D18*
%TO.C,U15*%
X137852000Y-140348000D03*
X137852001Y-140848000D03*
X137852000Y-141348000D03*
X136427000Y-141348000D03*
X136426999Y-140848000D03*
X136427000Y-140348000D03*
%TD*%
D10*
%TO.C,R4*%
X125947000Y-134167999D03*
X125947000Y-135817999D03*
%TD*%
D19*
%TO.C,U1*%
X133647001Y-133993000D03*
X133647000Y-134643000D03*
X133647001Y-135293000D03*
X131846999Y-135293000D03*
X131847000Y-134643000D03*
X131846999Y-133993000D03*
%TD*%
D20*
%TO.C,U4*%
X154702000Y-139563000D03*
X155501999Y-139563000D03*
D21*
X156202000Y-139563000D03*
X157202000Y-139563000D03*
X158702000Y-139563000D03*
X159702000Y-139563000D03*
D20*
X160402001Y-139563000D03*
X161202000Y-139563000D03*
X161202000Y-139563000D03*
X160402001Y-139563000D03*
D21*
X159202000Y-139563001D03*
X158202000Y-139563000D03*
X157702000Y-139563000D03*
X156702000Y-139563001D03*
D20*
X155501999Y-139563000D03*
X154702000Y-139563000D03*
%TD*%
D19*
%TO.C,U2*%
X130152000Y-137548000D03*
X130152000Y-138198000D03*
X130152000Y-138848000D03*
X130152000Y-139498000D03*
X128352000Y-139498000D03*
X128352000Y-138848000D03*
X128352000Y-138198000D03*
X128352000Y-137548000D03*
%TD*%
D22*
%TO.C,U6*%
X129881264Y-129601578D03*
X128911264Y-129601578D03*
X127941264Y-129601578D03*
X126971264Y-129601578D03*
X126971264Y-131001578D03*
X127941264Y-131001578D03*
X128911264Y-131001578D03*
X129881264Y-131001578D03*
%TD*%
D23*
%TO.C,IC1*%
X133347000Y-130343000D03*
D24*
X132947000Y-129543000D03*
X133747000Y-129543000D03*
X133747000Y-131143000D03*
X132947000Y-131143000D03*
%TD*%
D25*
%TO.C,R7*%
X167277000Y-133048000D03*
X165627000Y-133048000D03*
%TD*%
%TO.C,R6*%
X130447000Y-141842998D03*
X128797000Y-141842998D03*
%TD*%
D11*
%TO.C,C3*%
X147967000Y-133048000D03*
X149517000Y-133048000D03*
%TD*%
D26*
%TO.C,D2*%
X157926999Y-130048000D03*
X159502001Y-130048000D03*
%TD*%
D27*
%TO.C,U8*%
X158652000Y-132748000D03*
X158652000Y-134648000D03*
X156377000Y-134648000D03*
X156377000Y-133698000D03*
X156377000Y-132748000D03*
%TD*%
D11*
%TO.C,C2*%
X125847000Y-141843000D03*
X127397000Y-141843000D03*
%TD*%
D28*
%TO.C,U12*%
X137797000Y-136993000D03*
X137797000Y-137643000D03*
X137797000Y-138293000D03*
X136097000Y-138293000D03*
X136097000Y-137643000D03*
X136097000Y-136993000D03*
D29*
X136947000Y-138043000D03*
X136947000Y-137243001D03*
%TD*%
D30*
%TO.C,U10*%
X137747000Y-131343000D03*
X136797000Y-131343000D03*
X136797000Y-129443000D03*
X137747000Y-129443000D03*
D31*
X137272000Y-130393000D03*
%TD*%
D17*
%TO.C,C1*%
X133547000Y-141843000D03*
X131997000Y-141843000D03*
%TD*%
D25*
%TO.C,R5*%
X167277000Y-130348000D03*
X165627000Y-130348000D03*
%TD*%
D32*
%TO.C,U11*%
X137947000Y-134455500D03*
D33*
X137947000Y-133843000D03*
D34*
X137284500Y-134143001D03*
D35*
X136622000Y-134443000D03*
D36*
X136622000Y-133843000D03*
%TD*%
D37*
%TO.C,U3*%
X140514500Y-136323000D03*
X140514500Y-135673000D03*
X140514500Y-135023000D03*
X140514500Y-134373000D03*
X142789500Y-134373000D03*
X142789500Y-135023000D03*
X142789500Y-135673000D03*
X142789500Y-136323000D03*
%TD*%
D17*
%TO.C,C6*%
X162827000Y-136848000D03*
X161277000Y-136848000D03*
%TD*%
D38*
%TO.C,C7*%
X153352000Y-135348000D03*
X153352000Y-136898000D03*
%TD*%
D39*
%TO.C,R8*%
X154802000Y-130048000D03*
X156452000Y-130048000D03*
%TD*%
D15*
%TO.C,U5*%
X135197000Y-145443000D03*
X135197000Y-144943000D03*
X135197000Y-144443000D03*
X137947000Y-144443000D03*
X137947000Y-144943000D03*
X137947000Y-145443000D03*
%TD*%
D11*
%TO.C,C61*%
X125772000Y-124843000D03*
X127322000Y-124843000D03*
%TD*%
D10*
%TO.C,R67*%
X125947000Y-117218000D03*
X125947000Y-118868000D03*
%TD*%
D11*
%TO.C,C58*%
X125847000Y-121843000D03*
X127397000Y-121843000D03*
%TD*%
D37*
%TO.C,U131*%
X140514500Y-116323000D03*
X140514500Y-115673000D03*
X140514500Y-115023000D03*
X140514500Y-114373000D03*
X142789500Y-114373000D03*
X142789500Y-115023000D03*
X142789500Y-115673000D03*
X142789500Y-116323000D03*
%TD*%
D28*
%TO.C,U140*%
X137797000Y-116993000D03*
X137797000Y-117643000D03*
X137797000Y-118293000D03*
X136097000Y-118293000D03*
X136097000Y-117643000D03*
X136097000Y-116993000D03*
D29*
X136947000Y-118043000D03*
X136947000Y-117243001D03*
%TD*%
D17*
%TO.C,C62*%
X162827000Y-116848000D03*
X161277000Y-116848000D03*
%TD*%
D39*
%TO.C,R72*%
X154802000Y-110048000D03*
X156452000Y-110048000D03*
%TD*%
D11*
%TO.C,C59*%
X147967000Y-113048000D03*
X149517000Y-113048000D03*
%TD*%
D14*
%TO.C,D17*%
X162152000Y-114498000D03*
X162152000Y-112398000D03*
%TD*%
D22*
%TO.C,U134*%
X129881264Y-109601578D03*
X128911264Y-109601578D03*
X127941264Y-109601578D03*
X126971264Y-109601578D03*
X126971264Y-111001578D03*
X127941264Y-111001578D03*
X128911264Y-111001578D03*
X129881264Y-111001578D03*
%TD*%
D17*
%TO.C,C57*%
X133547000Y-121843000D03*
X131997000Y-121843000D03*
%TD*%
D32*
%TO.C,U139*%
X137947000Y-114455500D03*
D33*
X137947000Y-113843000D03*
D34*
X137284500Y-114143001D03*
D35*
X136622000Y-114443000D03*
D36*
X136622000Y-113843000D03*
%TD*%
D26*
%TO.C,D18*%
X157926999Y-110048000D03*
X159502001Y-110048000D03*
%TD*%
D25*
%TO.C,R71*%
X167277000Y-113048000D03*
X165627000Y-113048000D03*
%TD*%
D23*
%TO.C,IC9*%
X133347000Y-110343000D03*
D24*
X132947000Y-109543000D03*
X133747000Y-109543000D03*
X133747000Y-111143000D03*
X132947000Y-111143000D03*
%TD*%
D15*
%TO.C,U142*%
X130172000Y-125843000D03*
X130172000Y-125342999D03*
X130172000Y-124842999D03*
X130172000Y-124342998D03*
X132522000Y-124342998D03*
X132522000Y-124842999D03*
X132522000Y-125342999D03*
X132522000Y-125843000D03*
D16*
X131347000Y-125092999D03*
%TD*%
D25*
%TO.C,R70*%
X130447000Y-121842998D03*
X128797000Y-121842998D03*
%TD*%
D17*
%TO.C,C60*%
X152652000Y-113048000D03*
X151102000Y-113048000D03*
%TD*%
D15*
%TO.C,U133*%
X135197000Y-125443000D03*
X135197000Y-124943000D03*
X135197000Y-124443000D03*
X137947000Y-124443000D03*
X137947000Y-124943000D03*
X137947000Y-125443000D03*
%TD*%
D19*
%TO.C,U129*%
X133647001Y-113993000D03*
X133647000Y-114643000D03*
X133647001Y-115293000D03*
X131846999Y-115293000D03*
X131847000Y-114643000D03*
X131846999Y-113993000D03*
%TD*%
%TO.C,U130*%
X130152000Y-117548000D03*
X130152000Y-118198000D03*
X130152000Y-118848000D03*
X130152000Y-119498000D03*
X128352000Y-119498000D03*
X128352000Y-118848000D03*
X128352000Y-118198000D03*
X128352000Y-117548000D03*
%TD*%
D38*
%TO.C,C63*%
X153352000Y-115348000D03*
X153352000Y-116898000D03*
%TD*%
D25*
%TO.C,R69*%
X167277000Y-110348000D03*
X165627000Y-110348000D03*
%TD*%
D18*
%TO.C,U143*%
X137852000Y-120348000D03*
X137852001Y-120848000D03*
X137852000Y-121348000D03*
X136427000Y-121348000D03*
X136426999Y-120848000D03*
X136427000Y-120348000D03*
%TD*%
D27*
%TO.C,U136*%
X158652000Y-112748000D03*
X158652000Y-114648000D03*
X156377000Y-114648000D03*
X156377000Y-113698000D03*
X156377000Y-112748000D03*
%TD*%
D10*
%TO.C,R68*%
X125947000Y-114167999D03*
X125947000Y-115817999D03*
%TD*%
D30*
%TO.C,U138*%
X137747000Y-111343000D03*
X136797000Y-111343000D03*
X136797000Y-109443000D03*
X137747000Y-109443000D03*
D31*
X137272000Y-110393000D03*
%TD*%
D13*
%TO.C,R65*%
X141952000Y-119185500D03*
X141952000Y-125110500D03*
%TD*%
D12*
%TO.C,R66*%
X141952000Y-120685500D03*
X141952000Y-123610500D03*
%TD*%
D10*
%TO.C,R76*%
X75947000Y-135817999D03*
X75947000Y-134167999D03*
%TD*%
%TO.C,R44*%
X75947000Y-95817999D03*
X75947000Y-94167999D03*
%TD*%
D17*
%TO.C,C67*%
X101102000Y-133048000D03*
X102652000Y-133048000D03*
%TD*%
D38*
%TO.C,C42*%
X103352000Y-96898000D03*
X103352000Y-95348000D03*
%TD*%
D25*
%TO.C,R61*%
X115627000Y-110348000D03*
X117277000Y-110348000D03*
%TD*%
D39*
%TO.C,R48*%
X106452000Y-90048000D03*
X104802000Y-90048000D03*
%TD*%
D19*
%TO.C,U145*%
X81846999Y-133993000D03*
X81847000Y-134643000D03*
X81846999Y-135293000D03*
X83647001Y-135293000D03*
X83647000Y-134643000D03*
X83647001Y-133993000D03*
%TD*%
D16*
%TO.C,U126*%
X81347000Y-125092999D03*
D15*
X82522000Y-125843000D03*
X82522000Y-125342999D03*
X82522000Y-124842999D03*
X82522000Y-124342998D03*
X80172000Y-124342998D03*
X80172000Y-124842999D03*
X80172000Y-125342999D03*
X80172000Y-125843000D03*
%TD*%
D37*
%TO.C,U99*%
X142789500Y-96323000D03*
X142789500Y-95673000D03*
X142789500Y-95023000D03*
X142789500Y-94373000D03*
X140514500Y-94373000D03*
X140514500Y-95023000D03*
X140514500Y-95673000D03*
X140514500Y-96323000D03*
%TD*%
D25*
%TO.C,R23*%
X165627000Y-53048000D03*
X167277000Y-53048000D03*
%TD*%
D22*
%TO.C,U118*%
X79881264Y-111001578D03*
X78911264Y-111001578D03*
X77941264Y-111001578D03*
X76971264Y-111001578D03*
X76971264Y-109601578D03*
X77941264Y-109601578D03*
X78911264Y-109601578D03*
X79881264Y-109601578D03*
%TD*%
D15*
%TO.C,U21*%
X87947000Y-65443000D03*
X87947000Y-64943000D03*
X87947000Y-64443000D03*
X85197000Y-64443000D03*
X85197000Y-64943000D03*
X85197000Y-65443000D03*
%TD*%
D11*
%TO.C,C37*%
X77397000Y-101843000D03*
X75847000Y-101843000D03*
%TD*%
D36*
%TO.C,U155*%
X86622000Y-133843000D03*
D35*
X86622000Y-134443000D03*
D34*
X87284500Y-134143001D03*
D33*
X87947000Y-133843000D03*
D32*
X87947000Y-134455500D03*
%TD*%
D37*
%TO.C,U83*%
X92789500Y-96323000D03*
X92789500Y-95673000D03*
X92789500Y-95023000D03*
X92789500Y-94373000D03*
X90514500Y-94373000D03*
X90514500Y-95023000D03*
X90514500Y-95673000D03*
X90514500Y-96323000D03*
%TD*%
D13*
%TO.C,R9*%
X91952000Y-65110500D03*
X91952000Y-59185500D03*
%TD*%
D39*
%TO.C,R16*%
X106452000Y-50048000D03*
X104802000Y-50048000D03*
%TD*%
D25*
%TO.C,R22*%
X128797000Y-61842998D03*
X130447000Y-61842998D03*
%TD*%
D12*
%TO.C,R18*%
X141952000Y-63610500D03*
X141952000Y-60685500D03*
%TD*%
D25*
%TO.C,R39*%
X165627000Y-73048000D03*
X167277000Y-73048000D03*
%TD*%
D11*
%TO.C,C54*%
X77322000Y-124843000D03*
X75772000Y-124843000D03*
%TD*%
D25*
%TO.C,R37*%
X165627000Y-70348000D03*
X167277000Y-70348000D03*
%TD*%
D18*
%TO.C,U47*%
X136427000Y-60348000D03*
X136426999Y-60848000D03*
X136427000Y-61348000D03*
X137852000Y-61348000D03*
X137852001Y-60848000D03*
X137852000Y-60348000D03*
%TD*%
D13*
%TO.C,R33*%
X141952000Y-85110500D03*
X141952000Y-79185500D03*
%TD*%
D37*
%TO.C,U35*%
X142789500Y-56323000D03*
X142789500Y-55673000D03*
X142789500Y-55023000D03*
X142789500Y-54373000D03*
X140514500Y-54373000D03*
X140514500Y-55023000D03*
X140514500Y-55673000D03*
X140514500Y-56323000D03*
%TD*%
D17*
%TO.C,C41*%
X111277000Y-96848000D03*
X112827000Y-96848000D03*
%TD*%
D29*
%TO.C,U124*%
X86947000Y-117243001D03*
X86947000Y-118043000D03*
D28*
X86097000Y-116993000D03*
X86097000Y-117643000D03*
X86097000Y-118293000D03*
X87797000Y-118293000D03*
X87797000Y-117643000D03*
X87797000Y-116993000D03*
%TD*%
D11*
%TO.C,C38*%
X99517000Y-93048000D03*
X97967000Y-93048000D03*
%TD*%
D19*
%TO.C,U34*%
X128352000Y-57548000D03*
X128352000Y-58198000D03*
X128352000Y-58848000D03*
X128352000Y-59498000D03*
X130152000Y-59498000D03*
X130152000Y-58848000D03*
X130152000Y-58198000D03*
X130152000Y-57548000D03*
%TD*%
D39*
%TO.C,R32*%
X106452000Y-70048000D03*
X104802000Y-70048000D03*
%TD*%
D38*
%TO.C,C28*%
X103352000Y-76898000D03*
X103352000Y-75348000D03*
%TD*%
D19*
%TO.C,U114*%
X78352000Y-117548000D03*
X78352000Y-118198000D03*
X78352000Y-118848000D03*
X78352000Y-119498000D03*
X80152000Y-119498000D03*
X80152000Y-118848000D03*
X80152000Y-118198000D03*
X80152000Y-117548000D03*
%TD*%
D25*
%TO.C,R55*%
X165627000Y-93048000D03*
X167277000Y-93048000D03*
%TD*%
D17*
%TO.C,C13*%
X111277000Y-56848000D03*
X112827000Y-56848000D03*
%TD*%
%TO.C,C43*%
X131997000Y-101843000D03*
X133547000Y-101843000D03*
%TD*%
D22*
%TO.C,U70*%
X129881264Y-71001578D03*
X128911264Y-71001578D03*
X127941264Y-71001578D03*
X126971264Y-71001578D03*
X126971264Y-69601578D03*
X127941264Y-69601578D03*
X128911264Y-69601578D03*
X129881264Y-69601578D03*
%TD*%
D27*
%TO.C,U24*%
X106377000Y-52748000D03*
X106377000Y-53698000D03*
X106377000Y-54648000D03*
X108652000Y-54648000D03*
X108652000Y-52748000D03*
%TD*%
D25*
%TO.C,R77*%
X115627000Y-130348000D03*
X117277000Y-130348000D03*
%TD*%
D17*
%TO.C,C15*%
X131997000Y-61843000D03*
X133547000Y-61843000D03*
%TD*%
D36*
%TO.C,U27*%
X86622000Y-53843000D03*
D35*
X86622000Y-54443000D03*
D34*
X87284500Y-54143001D03*
D33*
X87947000Y-53843000D03*
D32*
X87947000Y-54455500D03*
%TD*%
D11*
%TO.C,C10*%
X99517000Y-53048000D03*
X97967000Y-53048000D03*
%TD*%
D14*
%TO.C,D7*%
X112152000Y-72398000D03*
X112152000Y-74498000D03*
%TD*%
D11*
%TO.C,C68*%
X77322000Y-144843000D03*
X75772000Y-144843000D03*
%TD*%
D12*
%TO.C,R58*%
X91952000Y-123610500D03*
X91952000Y-120685500D03*
%TD*%
D36*
%TO.C,U43*%
X136622000Y-53843000D03*
D35*
X136622000Y-54443000D03*
D34*
X137284500Y-54143001D03*
D33*
X137947000Y-53843000D03*
D32*
X137947000Y-54455500D03*
%TD*%
D11*
%TO.C,C47*%
X127322000Y-104843000D03*
X125772000Y-104843000D03*
%TD*%
D19*
%TO.C,U98*%
X128352000Y-97548000D03*
X128352000Y-98198000D03*
X128352000Y-98848000D03*
X128352000Y-99498000D03*
X130152000Y-99498000D03*
X130152000Y-98848000D03*
X130152000Y-98198000D03*
X130152000Y-97548000D03*
%TD*%
D20*
%TO.C,U84*%
X104702000Y-99563000D03*
X105501999Y-99563000D03*
D21*
X106702000Y-99563001D03*
X107702000Y-99563000D03*
X108202000Y-99563000D03*
X109202000Y-99563001D03*
D20*
X110402001Y-99563000D03*
X111202000Y-99563000D03*
X111202000Y-99563000D03*
X110402001Y-99563000D03*
D21*
X109702000Y-99563000D03*
X108702000Y-99563000D03*
X107202000Y-99563000D03*
X106202000Y-99563000D03*
D20*
X105501999Y-99563000D03*
X104702000Y-99563000D03*
%TD*%
D16*
%TO.C,U94*%
X81347000Y-105092999D03*
D15*
X82522000Y-105843000D03*
X82522000Y-105342999D03*
X82522000Y-104842999D03*
X82522000Y-104342998D03*
X80172000Y-104342998D03*
X80172000Y-104842999D03*
X80172000Y-105342999D03*
X80172000Y-105843000D03*
%TD*%
D31*
%TO.C,U42*%
X137272000Y-50393000D03*
D30*
X137747000Y-49443000D03*
X136797000Y-49443000D03*
X136797000Y-51343000D03*
X137747000Y-51343000D03*
%TD*%
D11*
%TO.C,C26*%
X77322000Y-84843000D03*
X75772000Y-84843000D03*
%TD*%
%TO.C,C23*%
X77397000Y-81843000D03*
X75847000Y-81843000D03*
%TD*%
D17*
%TO.C,C25*%
X101102000Y-73048000D03*
X102652000Y-73048000D03*
%TD*%
D25*
%TO.C,R15*%
X115627000Y-53048000D03*
X117277000Y-53048000D03*
%TD*%
D14*
%TO.C,D5*%
X162152000Y-52398000D03*
X162152000Y-54498000D03*
%TD*%
D31*
%TO.C,U74*%
X137272000Y-70393000D03*
D30*
X137747000Y-69443000D03*
X136797000Y-69443000D03*
X136797000Y-71343000D03*
X137747000Y-71343000D03*
%TD*%
D25*
%TO.C,R62*%
X78797000Y-121842998D03*
X80447000Y-121842998D03*
%TD*%
D11*
%TO.C,C45*%
X149517000Y-93048000D03*
X147967000Y-93048000D03*
%TD*%
%TO.C,C12*%
X77322000Y-64843000D03*
X75772000Y-64843000D03*
%TD*%
D19*
%TO.C,U18*%
X78352000Y-57548000D03*
X78352000Y-58198000D03*
X78352000Y-58848000D03*
X78352000Y-59498000D03*
X80152000Y-59498000D03*
X80152000Y-58848000D03*
X80152000Y-58198000D03*
X80152000Y-57548000D03*
%TD*%
D17*
%TO.C,C53*%
X101102000Y-113048000D03*
X102652000Y-113048000D03*
%TD*%
D14*
%TO.C,D9*%
X162152000Y-72398000D03*
X162152000Y-74498000D03*
%TD*%
D16*
%TO.C,U62*%
X81347000Y-85092999D03*
D15*
X82522000Y-85843000D03*
X82522000Y-85342999D03*
X82522000Y-84842999D03*
X82522000Y-84342998D03*
X80172000Y-84342998D03*
X80172000Y-84842999D03*
X80172000Y-85342999D03*
X80172000Y-85843000D03*
%TD*%
D22*
%TO.C,U102*%
X129881264Y-91001578D03*
X128911264Y-91001578D03*
X127941264Y-91001578D03*
X126971264Y-91001578D03*
X126971264Y-89601578D03*
X127941264Y-89601578D03*
X128911264Y-89601578D03*
X129881264Y-89601578D03*
%TD*%
D25*
%TO.C,R63*%
X115627000Y-113048000D03*
X117277000Y-113048000D03*
%TD*%
D26*
%TO.C,D14*%
X159502001Y-90048000D03*
X157926999Y-90048000D03*
%TD*%
D11*
%TO.C,C51*%
X77397000Y-121843000D03*
X75847000Y-121843000D03*
%TD*%
D17*
%TO.C,C50*%
X81997000Y-121843000D03*
X83547000Y-121843000D03*
%TD*%
D15*
%TO.C,U85*%
X87947000Y-105443000D03*
X87947000Y-104943000D03*
X87947000Y-104443000D03*
X85197000Y-104443000D03*
X85197000Y-104943000D03*
X85197000Y-105443000D03*
%TD*%
D19*
%TO.C,U17*%
X81846999Y-53993000D03*
X81847000Y-54643000D03*
X81846999Y-55293000D03*
X83647001Y-55293000D03*
X83647000Y-54643000D03*
X83647001Y-53993000D03*
%TD*%
D38*
%TO.C,C35*%
X153352000Y-76898000D03*
X153352000Y-75348000D03*
%TD*%
D29*
%TO.C,U156*%
X86947000Y-137243001D03*
X86947000Y-138043000D03*
D28*
X86097000Y-136993000D03*
X86097000Y-137643000D03*
X86097000Y-138293000D03*
X87797000Y-138293000D03*
X87797000Y-137643000D03*
X87797000Y-136993000D03*
%TD*%
D10*
%TO.C,R51*%
X125947000Y-98868000D03*
X125947000Y-97218000D03*
%TD*%
D17*
%TO.C,C48*%
X161277000Y-96848000D03*
X162827000Y-96848000D03*
%TD*%
D25*
%TO.C,R46*%
X78797000Y-101842998D03*
X80447000Y-101842998D03*
%TD*%
%TO.C,R47*%
X115627000Y-93048000D03*
X117277000Y-93048000D03*
%TD*%
D12*
%TO.C,R26*%
X91952000Y-83610500D03*
X91952000Y-80685500D03*
%TD*%
D25*
%TO.C,R29*%
X115627000Y-70348000D03*
X117277000Y-70348000D03*
%TD*%
D39*
%TO.C,R24*%
X156452000Y-50048000D03*
X154802000Y-50048000D03*
%TD*%
D17*
%TO.C,C32*%
X151102000Y-73048000D03*
X152652000Y-73048000D03*
%TD*%
D10*
%TO.C,R28*%
X75947000Y-75817999D03*
X75947000Y-74167999D03*
%TD*%
D36*
%TO.C,U59*%
X86622000Y-73843000D03*
D35*
X86622000Y-74443000D03*
D34*
X87284500Y-74143001D03*
D33*
X87947000Y-73843000D03*
D32*
X87947000Y-74455500D03*
%TD*%
D39*
%TO.C,R64*%
X106452000Y-110048000D03*
X104802000Y-110048000D03*
%TD*%
D24*
%TO.C,IC3*%
X132947000Y-51143000D03*
X133747000Y-51143000D03*
X133747000Y-49543000D03*
X132947000Y-49543000D03*
D23*
X133347000Y-50343000D03*
%TD*%
D38*
%TO.C,C21*%
X153352000Y-56898000D03*
X153352000Y-55348000D03*
%TD*%
D27*
%TO.C,U88*%
X106377000Y-92748000D03*
X106377000Y-93698000D03*
X106377000Y-94648000D03*
X108652000Y-94648000D03*
X108652000Y-92748000D03*
%TD*%
D18*
%TO.C,U159*%
X86427000Y-140348000D03*
X86426999Y-140848000D03*
X86427000Y-141348000D03*
X87852000Y-141348000D03*
X87852001Y-140848000D03*
X87852000Y-140348000D03*
%TD*%
D13*
%TO.C,R17*%
X141952000Y-65110500D03*
X141952000Y-59185500D03*
%TD*%
D27*
%TO.C,U72*%
X156377000Y-72748000D03*
X156377000Y-73698000D03*
X156377000Y-74648000D03*
X158652000Y-74648000D03*
X158652000Y-72748000D03*
%TD*%
D25*
%TO.C,R13*%
X115627000Y-50348000D03*
X117277000Y-50348000D03*
%TD*%
D36*
%TO.C,U123*%
X86622000Y-113843000D03*
D35*
X86622000Y-114443000D03*
D34*
X87284500Y-114143001D03*
D33*
X87947000Y-113843000D03*
D32*
X87947000Y-114455500D03*
%TD*%
D13*
%TO.C,R41*%
X91952000Y-105110500D03*
X91952000Y-99185500D03*
%TD*%
D25*
%TO.C,R21*%
X165627000Y-50348000D03*
X167277000Y-50348000D03*
%TD*%
D17*
%TO.C,C22*%
X81997000Y-81843000D03*
X83547000Y-81843000D03*
%TD*%
D14*
%TO.C,D13*%
X162152000Y-92398000D03*
X162152000Y-94498000D03*
%TD*%
D22*
%TO.C,U54*%
X79881264Y-71001578D03*
X78911264Y-71001578D03*
X77941264Y-71001578D03*
X76971264Y-71001578D03*
X76971264Y-69601578D03*
X77941264Y-69601578D03*
X78911264Y-69601578D03*
X79881264Y-69601578D03*
%TD*%
D12*
%TO.C,R42*%
X91952000Y-103610500D03*
X91952000Y-100685500D03*
%TD*%
D16*
%TO.C,U30*%
X81347000Y-65092999D03*
D15*
X82522000Y-65843000D03*
X82522000Y-65342999D03*
X82522000Y-64842999D03*
X82522000Y-64342998D03*
X80172000Y-64342998D03*
X80172000Y-64842999D03*
X80172000Y-65342999D03*
X80172000Y-65843000D03*
%TD*%
D19*
%TO.C,U113*%
X81846999Y-113993000D03*
X81847000Y-114643000D03*
X81846999Y-115293000D03*
X83647001Y-115293000D03*
X83647000Y-114643000D03*
X83647001Y-113993000D03*
%TD*%
%TO.C,U50*%
X78352000Y-77548000D03*
X78352000Y-78198000D03*
X78352000Y-78848000D03*
X78352000Y-79498000D03*
X80152000Y-79498000D03*
X80152000Y-78848000D03*
X80152000Y-78198000D03*
X80152000Y-77548000D03*
%TD*%
D37*
%TO.C,U19*%
X92789500Y-56323000D03*
X92789500Y-55673000D03*
X92789500Y-55023000D03*
X92789500Y-54373000D03*
X90514500Y-54373000D03*
X90514500Y-55023000D03*
X90514500Y-55673000D03*
X90514500Y-56323000D03*
%TD*%
D16*
%TO.C,U46*%
X131347000Y-65092999D03*
D15*
X132522000Y-65843000D03*
X132522000Y-65342999D03*
X132522000Y-64842999D03*
X132522000Y-64342998D03*
X130172000Y-64342998D03*
X130172000Y-64842999D03*
X130172000Y-65342999D03*
X130172000Y-65843000D03*
%TD*%
D14*
%TO.C,D11*%
X112152000Y-92398000D03*
X112152000Y-94498000D03*
%TD*%
D10*
%TO.C,R20*%
X125947000Y-55817999D03*
X125947000Y-54167999D03*
%TD*%
D20*
%TO.C,U68*%
X154702000Y-79563000D03*
X155501999Y-79563000D03*
D21*
X156702000Y-79563001D03*
X157702000Y-79563000D03*
X158202000Y-79563000D03*
X159202000Y-79563001D03*
D20*
X160402001Y-79563000D03*
X161202000Y-79563000D03*
X161202000Y-79563000D03*
X160402001Y-79563000D03*
D21*
X159702000Y-79563000D03*
X158702000Y-79563000D03*
X157202000Y-79563000D03*
X156202000Y-79563000D03*
D20*
X155501999Y-79563000D03*
X154702000Y-79563000D03*
%TD*%
%TO.C,U52*%
X104702000Y-79563000D03*
X105501999Y-79563000D03*
D21*
X106702000Y-79563001D03*
X107702000Y-79563000D03*
X108202000Y-79563000D03*
X109202000Y-79563001D03*
D20*
X110402001Y-79563000D03*
X111202000Y-79563000D03*
X111202000Y-79563000D03*
X110402001Y-79563000D03*
D21*
X109702000Y-79563000D03*
X108702000Y-79563000D03*
X107202000Y-79563000D03*
X106202000Y-79563000D03*
D20*
X105501999Y-79563000D03*
X104702000Y-79563000D03*
%TD*%
D39*
%TO.C,R80*%
X106452000Y-130048000D03*
X104802000Y-130048000D03*
%TD*%
D11*
%TO.C,C24*%
X99517000Y-73048000D03*
X97967000Y-73048000D03*
%TD*%
%TO.C,C66*%
X99517000Y-133048000D03*
X97967000Y-133048000D03*
%TD*%
D27*
%TO.C,U104*%
X156377000Y-92748000D03*
X156377000Y-93698000D03*
X156377000Y-94648000D03*
X158652000Y-94648000D03*
X158652000Y-92748000D03*
%TD*%
D20*
%TO.C,U20*%
X104702000Y-59563000D03*
X105501999Y-59563000D03*
D21*
X106702000Y-59563001D03*
X107702000Y-59563000D03*
X108202000Y-59563000D03*
X109202000Y-59563001D03*
D20*
X110402001Y-59563000D03*
X111202000Y-59563000D03*
X111202000Y-59563000D03*
X110402001Y-59563000D03*
D21*
X109702000Y-59563000D03*
X108702000Y-59563000D03*
X107202000Y-59563000D03*
X106202000Y-59563000D03*
D20*
X105501999Y-59563000D03*
X104702000Y-59563000D03*
%TD*%
%TO.C,U116*%
X104702000Y-119563000D03*
X105501999Y-119563000D03*
D21*
X106702000Y-119563001D03*
X107702000Y-119563000D03*
X108202000Y-119563000D03*
X109202000Y-119563001D03*
D20*
X110402001Y-119563000D03*
X111202000Y-119563000D03*
X111202000Y-119563000D03*
X110402001Y-119563000D03*
D21*
X109702000Y-119563000D03*
X108702000Y-119563000D03*
X107202000Y-119563000D03*
X106202000Y-119563000D03*
D20*
X105501999Y-119563000D03*
X104702000Y-119563000D03*
%TD*%
D25*
%TO.C,R45*%
X115627000Y-90348000D03*
X117277000Y-90348000D03*
%TD*%
D29*
%TO.C,U108*%
X136947000Y-97243001D03*
X136947000Y-98043000D03*
D28*
X136097000Y-96993000D03*
X136097000Y-97643000D03*
X136097000Y-98293000D03*
X137797000Y-98293000D03*
X137797000Y-97643000D03*
X137797000Y-96993000D03*
%TD*%
D15*
%TO.C,U69*%
X137947000Y-85443000D03*
X137947000Y-84943000D03*
X137947000Y-84443000D03*
X135197000Y-84443000D03*
X135197000Y-84943000D03*
X135197000Y-85443000D03*
%TD*%
D38*
%TO.C,C56*%
X103352000Y-116898000D03*
X103352000Y-115348000D03*
%TD*%
D19*
%TO.C,U82*%
X78352000Y-97548000D03*
X78352000Y-98198000D03*
X78352000Y-98848000D03*
X78352000Y-99498000D03*
X80152000Y-99498000D03*
X80152000Y-98848000D03*
X80152000Y-98198000D03*
X80152000Y-97548000D03*
%TD*%
D11*
%TO.C,C9*%
X77397000Y-61843000D03*
X75847000Y-61843000D03*
%TD*%
D29*
%TO.C,U28*%
X86947000Y-57243001D03*
X86947000Y-58043000D03*
D28*
X86097000Y-56993000D03*
X86097000Y-57643000D03*
X86097000Y-58293000D03*
X87797000Y-58293000D03*
X87797000Y-57643000D03*
X87797000Y-56993000D03*
%TD*%
D20*
%TO.C,U36*%
X154702000Y-59563000D03*
X155501999Y-59563000D03*
D21*
X156702000Y-59563001D03*
X157702000Y-59563000D03*
X158202000Y-59563000D03*
X159202000Y-59563001D03*
D20*
X160402001Y-59563000D03*
X161202000Y-59563000D03*
X161202000Y-59563000D03*
X160402001Y-59563000D03*
D21*
X159702000Y-59563000D03*
X158702000Y-59563000D03*
X157202000Y-59563000D03*
X156202000Y-59563000D03*
D20*
X155501999Y-59563000D03*
X154702000Y-59563000D03*
%TD*%
D19*
%TO.C,U81*%
X81846999Y-93993000D03*
X81847000Y-94643000D03*
X81846999Y-95293000D03*
X83647001Y-95293000D03*
X83647000Y-94643000D03*
X83647001Y-93993000D03*
%TD*%
D11*
%TO.C,C52*%
X99517000Y-113048000D03*
X97967000Y-113048000D03*
%TD*%
D24*
%TO.C,IC10*%
X82947000Y-131143000D03*
X83747000Y-131143000D03*
X83747000Y-129543000D03*
X82947000Y-129543000D03*
D23*
X83347000Y-130343000D03*
%TD*%
D17*
%TO.C,C11*%
X101102000Y-53048000D03*
X102652000Y-53048000D03*
%TD*%
D10*
%TO.C,R19*%
X125947000Y-58868000D03*
X125947000Y-57218000D03*
%TD*%
D18*
%TO.C,U95*%
X86427000Y-100348000D03*
X86426999Y-100848000D03*
X86427000Y-101348000D03*
X87852000Y-101348000D03*
X87852001Y-100848000D03*
X87852000Y-100348000D03*
%TD*%
D10*
%TO.C,R59*%
X75947000Y-118868000D03*
X75947000Y-117218000D03*
%TD*%
%TO.C,R60*%
X75947000Y-115817999D03*
X75947000Y-114167999D03*
%TD*%
D17*
%TO.C,C46*%
X151102000Y-93048000D03*
X152652000Y-93048000D03*
%TD*%
D12*
%TO.C,R10*%
X91952000Y-63610500D03*
X91952000Y-60685500D03*
%TD*%
D15*
%TO.C,U37*%
X137947000Y-65443000D03*
X137947000Y-64943000D03*
X137947000Y-64443000D03*
X135197000Y-64443000D03*
X135197000Y-64943000D03*
X135197000Y-65443000D03*
%TD*%
D14*
%TO.C,D19*%
X112152000Y-132398000D03*
X112152000Y-134498000D03*
%TD*%
D25*
%TO.C,R14*%
X78797000Y-61842998D03*
X80447000Y-61842998D03*
%TD*%
%TO.C,R31*%
X115627000Y-73048000D03*
X117277000Y-73048000D03*
%TD*%
D18*
%TO.C,U111*%
X136427000Y-100348000D03*
X136426999Y-100848000D03*
X136427000Y-101348000D03*
X137852000Y-101348000D03*
X137852001Y-100848000D03*
X137852000Y-100348000D03*
%TD*%
D11*
%TO.C,C19*%
X127322000Y-64843000D03*
X125772000Y-64843000D03*
%TD*%
D12*
%TO.C,R74*%
X91952000Y-143610500D03*
X91952000Y-140685500D03*
%TD*%
D24*
%TO.C,IC8*%
X82947000Y-111143000D03*
X83747000Y-111143000D03*
X83747000Y-109543000D03*
X82947000Y-109543000D03*
D23*
X83347000Y-110343000D03*
%TD*%
D25*
%TO.C,R79*%
X115627000Y-133048000D03*
X117277000Y-133048000D03*
%TD*%
D38*
%TO.C,C49*%
X153352000Y-96898000D03*
X153352000Y-95348000D03*
%TD*%
D16*
%TO.C,U158*%
X81347000Y-145092999D03*
D15*
X82522000Y-145843000D03*
X82522000Y-145342999D03*
X82522000Y-144842999D03*
X82522000Y-144342998D03*
X80172000Y-144342998D03*
X80172000Y-144842999D03*
X80172000Y-145342999D03*
X80172000Y-145843000D03*
%TD*%
D25*
%TO.C,R38*%
X128797000Y-81842998D03*
X130447000Y-81842998D03*
%TD*%
D22*
%TO.C,U86*%
X79881264Y-91001578D03*
X78911264Y-91001578D03*
X77941264Y-91001578D03*
X76971264Y-91001578D03*
X76971264Y-89601578D03*
X77941264Y-89601578D03*
X78911264Y-89601578D03*
X79881264Y-89601578D03*
%TD*%
D26*
%TO.C,D20*%
X109502001Y-130048000D03*
X107926999Y-130048000D03*
%TD*%
D15*
%TO.C,U117*%
X87947000Y-125443000D03*
X87947000Y-124943000D03*
X87947000Y-124443000D03*
X85197000Y-124443000D03*
X85197000Y-124943000D03*
X85197000Y-125443000D03*
%TD*%
D37*
%TO.C,U147*%
X92789500Y-136323000D03*
X92789500Y-135673000D03*
X92789500Y-135023000D03*
X92789500Y-134373000D03*
X90514500Y-134373000D03*
X90514500Y-135023000D03*
X90514500Y-135673000D03*
X90514500Y-136323000D03*
%TD*%
D24*
%TO.C,IC4*%
X82947000Y-71143000D03*
X83747000Y-71143000D03*
X83747000Y-69543000D03*
X82947000Y-69543000D03*
D23*
X83347000Y-70343000D03*
%TD*%
D26*
%TO.C,D12*%
X109502001Y-90048000D03*
X107926999Y-90048000D03*
%TD*%
D27*
%TO.C,U152*%
X106377000Y-132748000D03*
X106377000Y-133698000D03*
X106377000Y-134648000D03*
X108652000Y-134648000D03*
X108652000Y-132748000D03*
%TD*%
D25*
%TO.C,R78*%
X78797000Y-141842998D03*
X80447000Y-141842998D03*
%TD*%
D17*
%TO.C,C20*%
X161277000Y-56848000D03*
X162827000Y-56848000D03*
%TD*%
D29*
%TO.C,U44*%
X136947000Y-57243001D03*
X136947000Y-58043000D03*
D28*
X136097000Y-56993000D03*
X136097000Y-57643000D03*
X136097000Y-58293000D03*
X137797000Y-58293000D03*
X137797000Y-57643000D03*
X137797000Y-56993000D03*
%TD*%
D26*
%TO.C,D10*%
X159502001Y-70048000D03*
X157926999Y-70048000D03*
%TD*%
D15*
%TO.C,U101*%
X137947000Y-105443000D03*
X137947000Y-104943000D03*
X137947000Y-104443000D03*
X135197000Y-104443000D03*
X135197000Y-104943000D03*
X135197000Y-105443000D03*
%TD*%
D29*
%TO.C,U76*%
X136947000Y-77243001D03*
X136947000Y-78043000D03*
D28*
X136097000Y-76993000D03*
X136097000Y-77643000D03*
X136097000Y-78293000D03*
X137797000Y-78293000D03*
X137797000Y-77643000D03*
X137797000Y-76993000D03*
%TD*%
D18*
%TO.C,U79*%
X136427000Y-80348000D03*
X136426999Y-80848000D03*
X136427000Y-81348000D03*
X137852000Y-81348000D03*
X137852001Y-80848000D03*
X137852000Y-80348000D03*
%TD*%
D25*
%TO.C,R54*%
X128797000Y-101842998D03*
X130447000Y-101842998D03*
%TD*%
D17*
%TO.C,C39*%
X101102000Y-93048000D03*
X102652000Y-93048000D03*
%TD*%
D36*
%TO.C,U75*%
X136622000Y-73843000D03*
D35*
X136622000Y-74443000D03*
D34*
X137284500Y-74143001D03*
D33*
X137947000Y-73843000D03*
D32*
X137947000Y-74455500D03*
%TD*%
D31*
%TO.C,U58*%
X87272000Y-70393000D03*
D30*
X87747000Y-69443000D03*
X86797000Y-69443000D03*
X86797000Y-71343000D03*
X87747000Y-71343000D03*
%TD*%
D11*
%TO.C,C30*%
X127397000Y-81843000D03*
X125847000Y-81843000D03*
%TD*%
D17*
%TO.C,C64*%
X81997000Y-141843000D03*
X83547000Y-141843000D03*
%TD*%
D24*
%TO.C,IC2*%
X82947000Y-51143000D03*
X83747000Y-51143000D03*
X83747000Y-49543000D03*
X82947000Y-49543000D03*
D23*
X83347000Y-50343000D03*
%TD*%
D16*
%TO.C,U110*%
X131347000Y-105092999D03*
D15*
X132522000Y-105843000D03*
X132522000Y-105342999D03*
X132522000Y-104842999D03*
X132522000Y-104342998D03*
X130172000Y-104342998D03*
X130172000Y-104842999D03*
X130172000Y-105342999D03*
X130172000Y-105843000D03*
%TD*%
D11*
%TO.C,C44*%
X127397000Y-101843000D03*
X125847000Y-101843000D03*
%TD*%
D27*
%TO.C,U56*%
X106377000Y-72748000D03*
X106377000Y-73698000D03*
X106377000Y-74648000D03*
X108652000Y-74648000D03*
X108652000Y-72748000D03*
%TD*%
D10*
%TO.C,R43*%
X75947000Y-98868000D03*
X75947000Y-97218000D03*
%TD*%
D11*
%TO.C,C16*%
X127397000Y-61843000D03*
X125847000Y-61843000D03*
%TD*%
D10*
%TO.C,R36*%
X125947000Y-75817999D03*
X125947000Y-74167999D03*
%TD*%
D31*
%TO.C,U106*%
X137272000Y-90393000D03*
D30*
X137747000Y-89443000D03*
X136797000Y-89443000D03*
X136797000Y-91343000D03*
X137747000Y-91343000D03*
%TD*%
D17*
%TO.C,C18*%
X151102000Y-53048000D03*
X152652000Y-53048000D03*
%TD*%
D26*
%TO.C,D6*%
X159502001Y-50048000D03*
X157926999Y-50048000D03*
%TD*%
D10*
%TO.C,R75*%
X75947000Y-138868000D03*
X75947000Y-137218000D03*
%TD*%
D26*
%TO.C,D4*%
X109502001Y-50048000D03*
X107926999Y-50048000D03*
%TD*%
D36*
%TO.C,U107*%
X136622000Y-93843000D03*
D35*
X136622000Y-94443000D03*
D34*
X137284500Y-94143001D03*
D33*
X137947000Y-93843000D03*
D32*
X137947000Y-94455500D03*
%TD*%
D14*
%TO.C,D15*%
X112152000Y-112398000D03*
X112152000Y-114498000D03*
%TD*%
D24*
%TO.C,IC6*%
X82947000Y-91143000D03*
X83747000Y-91143000D03*
X83747000Y-89543000D03*
X82947000Y-89543000D03*
D23*
X83347000Y-90343000D03*
%TD*%
D19*
%TO.C,U33*%
X131846999Y-53993000D03*
X131847000Y-54643000D03*
X131846999Y-55293000D03*
X133647001Y-55293000D03*
X133647000Y-54643000D03*
X133647001Y-53993000D03*
%TD*%
D18*
%TO.C,U31*%
X86427000Y-60348000D03*
X86426999Y-60848000D03*
X86427000Y-61348000D03*
X87852000Y-61348000D03*
X87852001Y-60848000D03*
X87852000Y-60348000D03*
%TD*%
D10*
%TO.C,R11*%
X75947000Y-58868000D03*
X75947000Y-57218000D03*
%TD*%
D12*
%TO.C,R50*%
X141952000Y-103610500D03*
X141952000Y-100685500D03*
%TD*%
D17*
%TO.C,C69*%
X111277000Y-136848000D03*
X112827000Y-136848000D03*
%TD*%
D37*
%TO.C,U67*%
X142789500Y-76323000D03*
X142789500Y-75673000D03*
X142789500Y-75023000D03*
X142789500Y-74373000D03*
X140514500Y-74373000D03*
X140514500Y-75023000D03*
X140514500Y-75673000D03*
X140514500Y-76323000D03*
%TD*%
D25*
%TO.C,R53*%
X165627000Y-90348000D03*
X167277000Y-90348000D03*
%TD*%
D17*
%TO.C,C8*%
X81997000Y-61843000D03*
X83547000Y-61843000D03*
%TD*%
D19*
%TO.C,U49*%
X81846999Y-73993000D03*
X81847000Y-74643000D03*
X81846999Y-75293000D03*
X83647001Y-75293000D03*
X83647000Y-74643000D03*
X83647001Y-73993000D03*
%TD*%
D10*
%TO.C,R12*%
X75947000Y-55817999D03*
X75947000Y-54167999D03*
%TD*%
D12*
%TO.C,R34*%
X141952000Y-83610500D03*
X141952000Y-80685500D03*
%TD*%
D31*
%TO.C,U154*%
X87272000Y-130393000D03*
D30*
X87747000Y-129443000D03*
X86797000Y-129443000D03*
X86797000Y-131343000D03*
X87747000Y-131343000D03*
%TD*%
D10*
%TO.C,R52*%
X125947000Y-95817999D03*
X125947000Y-94167999D03*
%TD*%
D22*
%TO.C,U150*%
X79881264Y-131001578D03*
X78911264Y-131001578D03*
X77941264Y-131001578D03*
X76971264Y-131001578D03*
X76971264Y-129601578D03*
X77941264Y-129601578D03*
X78911264Y-129601578D03*
X79881264Y-129601578D03*
%TD*%
D24*
%TO.C,IC7*%
X132947000Y-91143000D03*
X133747000Y-91143000D03*
X133747000Y-89543000D03*
X132947000Y-89543000D03*
D23*
X133347000Y-90343000D03*
%TD*%
D11*
%TO.C,C40*%
X77322000Y-104843000D03*
X75772000Y-104843000D03*
%TD*%
D26*
%TO.C,D8*%
X109502001Y-70048000D03*
X107926999Y-70048000D03*
%TD*%
D17*
%TO.C,C55*%
X111277000Y-116848000D03*
X112827000Y-116848000D03*
%TD*%
D20*
%TO.C,U148*%
X104702000Y-139563000D03*
X105501999Y-139563000D03*
D21*
X106702000Y-139563001D03*
X107702000Y-139563000D03*
X108202000Y-139563000D03*
X109202000Y-139563001D03*
D20*
X110402001Y-139563000D03*
X111202000Y-139563000D03*
X111202000Y-139563000D03*
X110402001Y-139563000D03*
D21*
X109702000Y-139563000D03*
X108702000Y-139563000D03*
X107202000Y-139563000D03*
X106202000Y-139563000D03*
D20*
X105501999Y-139563000D03*
X104702000Y-139563000D03*
%TD*%
D13*
%TO.C,R25*%
X91952000Y-85110500D03*
X91952000Y-79185500D03*
%TD*%
D20*
%TO.C,U100*%
X154702000Y-99563000D03*
X155501999Y-99563000D03*
D21*
X156702000Y-99563001D03*
X157702000Y-99563000D03*
X158202000Y-99563000D03*
X159202000Y-99563001D03*
D20*
X160402001Y-99563000D03*
X161202000Y-99563000D03*
X161202000Y-99563000D03*
X160402001Y-99563000D03*
D21*
X159702000Y-99563000D03*
X158702000Y-99563000D03*
X157202000Y-99563000D03*
X156202000Y-99563000D03*
D20*
X155501999Y-99563000D03*
X154702000Y-99563000D03*
%TD*%
D38*
%TO.C,C70*%
X103352000Y-136898000D03*
X103352000Y-135348000D03*
%TD*%
D36*
%TO.C,U91*%
X86622000Y-93843000D03*
D35*
X86622000Y-94443000D03*
D34*
X87284500Y-94143001D03*
D33*
X87947000Y-93843000D03*
D32*
X87947000Y-94455500D03*
%TD*%
D39*
%TO.C,R56*%
X156452000Y-90048000D03*
X154802000Y-90048000D03*
%TD*%
D11*
%TO.C,C31*%
X149517000Y-73048000D03*
X147967000Y-73048000D03*
%TD*%
%TO.C,C33*%
X127322000Y-84843000D03*
X125772000Y-84843000D03*
%TD*%
D19*
%TO.C,U146*%
X78352000Y-137548000D03*
X78352000Y-138198000D03*
X78352000Y-138848000D03*
X78352000Y-139498000D03*
X80152000Y-139498000D03*
X80152000Y-138848000D03*
X80152000Y-138198000D03*
X80152000Y-137548000D03*
%TD*%
D11*
%TO.C,C17*%
X149517000Y-53048000D03*
X147967000Y-53048000D03*
%TD*%
D13*
%TO.C,R57*%
X91952000Y-125110500D03*
X91952000Y-119185500D03*
%TD*%
D18*
%TO.C,U127*%
X86427000Y-120348000D03*
X86426999Y-120848000D03*
X86427000Y-121348000D03*
X87852000Y-121348000D03*
X87852001Y-120848000D03*
X87852000Y-120348000D03*
%TD*%
D14*
%TO.C,D3*%
X112152000Y-52398000D03*
X112152000Y-54498000D03*
%TD*%
D24*
%TO.C,IC5*%
X132947000Y-71143000D03*
X133747000Y-71143000D03*
X133747000Y-69543000D03*
X132947000Y-69543000D03*
D23*
X133347000Y-70343000D03*
%TD*%
D15*
%TO.C,U149*%
X87947000Y-145443000D03*
X87947000Y-144943000D03*
X87947000Y-144443000D03*
X85197000Y-144443000D03*
X85197000Y-144943000D03*
X85197000Y-145443000D03*
%TD*%
D19*
%TO.C,U97*%
X131846999Y-93993000D03*
X131847000Y-94643000D03*
X131846999Y-95293000D03*
X133647001Y-95293000D03*
X133647000Y-94643000D03*
X133647001Y-93993000D03*
%TD*%
D37*
%TO.C,U115*%
X92789500Y-116323000D03*
X92789500Y-115673000D03*
X92789500Y-115023000D03*
X92789500Y-114373000D03*
X90514500Y-114373000D03*
X90514500Y-115023000D03*
X90514500Y-115673000D03*
X90514500Y-116323000D03*
%TD*%
D31*
%TO.C,U90*%
X87272000Y-90393000D03*
D30*
X87747000Y-89443000D03*
X86797000Y-89443000D03*
X86797000Y-91343000D03*
X87747000Y-91343000D03*
%TD*%
D19*
%TO.C,U65*%
X131846999Y-73993000D03*
X131847000Y-74643000D03*
X131846999Y-75293000D03*
X133647001Y-75293000D03*
X133647000Y-74643000D03*
X133647001Y-73993000D03*
%TD*%
D10*
%TO.C,R35*%
X125947000Y-78868000D03*
X125947000Y-77218000D03*
%TD*%
D31*
%TO.C,U26*%
X87272000Y-50393000D03*
D30*
X87747000Y-49443000D03*
X86797000Y-49443000D03*
X86797000Y-51343000D03*
X87747000Y-51343000D03*
%TD*%
D13*
%TO.C,R73*%
X91952000Y-145110500D03*
X91952000Y-139185500D03*
%TD*%
D37*
%TO.C,U51*%
X92789500Y-76323000D03*
X92789500Y-75673000D03*
X92789500Y-75023000D03*
X92789500Y-74373000D03*
X90514500Y-74373000D03*
X90514500Y-75023000D03*
X90514500Y-75673000D03*
X90514500Y-76323000D03*
%TD*%
D29*
%TO.C,U60*%
X86947000Y-77243001D03*
X86947000Y-78043000D03*
D28*
X86097000Y-76993000D03*
X86097000Y-77643000D03*
X86097000Y-78293000D03*
X87797000Y-78293000D03*
X87797000Y-77643000D03*
X87797000Y-76993000D03*
%TD*%
D11*
%TO.C,C65*%
X77397000Y-141843000D03*
X75847000Y-141843000D03*
%TD*%
D27*
%TO.C,U40*%
X156377000Y-52748000D03*
X156377000Y-53698000D03*
X156377000Y-54648000D03*
X158652000Y-54648000D03*
X158652000Y-52748000D03*
%TD*%
D22*
%TO.C,U22*%
X79881264Y-51001578D03*
X78911264Y-51001578D03*
X77941264Y-51001578D03*
X76971264Y-51001578D03*
X76971264Y-49601578D03*
X77941264Y-49601578D03*
X78911264Y-49601578D03*
X79881264Y-49601578D03*
%TD*%
D17*
%TO.C,C27*%
X111277000Y-76848000D03*
X112827000Y-76848000D03*
%TD*%
%TO.C,C34*%
X161277000Y-76848000D03*
X162827000Y-76848000D03*
%TD*%
%TO.C,C29*%
X131997000Y-81843000D03*
X133547000Y-81843000D03*
%TD*%
D10*
%TO.C,R27*%
X75947000Y-78868000D03*
X75947000Y-77218000D03*
%TD*%
D16*
%TO.C,U78*%
X131347000Y-85092999D03*
D15*
X132522000Y-85843000D03*
X132522000Y-85342999D03*
X132522000Y-84842999D03*
X132522000Y-84342998D03*
X130172000Y-84342998D03*
X130172000Y-84842999D03*
X130172000Y-85342999D03*
X130172000Y-85843000D03*
%TD*%
D25*
%TO.C,R30*%
X78797000Y-81842998D03*
X80447000Y-81842998D03*
%TD*%
D15*
%TO.C,U53*%
X87947000Y-85443000D03*
X87947000Y-84943000D03*
X87947000Y-84443000D03*
X85197000Y-84443000D03*
X85197000Y-84943000D03*
X85197000Y-85443000D03*
%TD*%
D31*
%TO.C,U122*%
X87272000Y-110393000D03*
D30*
X87747000Y-109443000D03*
X86797000Y-109443000D03*
X86797000Y-111343000D03*
X87747000Y-111343000D03*
%TD*%
D38*
%TO.C,C14*%
X103352000Y-56898000D03*
X103352000Y-55348000D03*
%TD*%
D20*
%TO.C,U132*%
X154702000Y-119563000D03*
X155501999Y-119563000D03*
D21*
X156702000Y-119563001D03*
X157702000Y-119563000D03*
X158202000Y-119563000D03*
X159202000Y-119563001D03*
D20*
X160402001Y-119563000D03*
X161202000Y-119563000D03*
X161202000Y-119563000D03*
X160402001Y-119563000D03*
D21*
X159702000Y-119563000D03*
X158702000Y-119563000D03*
X157202000Y-119563000D03*
X156202000Y-119563000D03*
D20*
X155501999Y-119563000D03*
X154702000Y-119563000D03*
%TD*%
D39*
%TO.C,R40*%
X156452000Y-70048000D03*
X154802000Y-70048000D03*
%TD*%
D22*
%TO.C,U38*%
X129881264Y-51001578D03*
X128911264Y-51001578D03*
X127941264Y-51001578D03*
X126971264Y-51001578D03*
X126971264Y-49601578D03*
X127941264Y-49601578D03*
X128911264Y-49601578D03*
X129881264Y-49601578D03*
%TD*%
D13*
%TO.C,R49*%
X141952000Y-105110500D03*
X141952000Y-99185500D03*
%TD*%
D18*
%TO.C,U63*%
X86427000Y-80348000D03*
X86426999Y-80848000D03*
X86427000Y-81348000D03*
X87852000Y-81348000D03*
X87852001Y-80848000D03*
X87852000Y-80348000D03*
%TD*%
D27*
%TO.C,U120*%
X106377000Y-112748000D03*
X106377000Y-113698000D03*
X106377000Y-114648000D03*
X108652000Y-114648000D03*
X108652000Y-112748000D03*
%TD*%
D17*
%TO.C,C36*%
X81997000Y-101843000D03*
X83547000Y-101843000D03*
%TD*%
D29*
%TO.C,U92*%
X86947000Y-97243001D03*
X86947000Y-98043000D03*
D28*
X86097000Y-96993000D03*
X86097000Y-97643000D03*
X86097000Y-98293000D03*
X87797000Y-98293000D03*
X87797000Y-97643000D03*
X87797000Y-96993000D03*
%TD*%
D26*
%TO.C,D16*%
X109502001Y-110048000D03*
X107926999Y-110048000D03*
%TD*%
D19*
%TO.C,U66*%
X128352000Y-77548000D03*
X128352000Y-78198000D03*
X128352000Y-78848000D03*
X128352000Y-79498000D03*
X130152000Y-79498000D03*
X130152000Y-78848000D03*
X130152000Y-78198000D03*
X130152000Y-77548000D03*
%TD*%
M02*
