%TF.GenerationSoftware,KiCad,Pcbnew,9.0.4*%
%TF.CreationDate,2025-12-21T12:41:10-05:00*%
%TF.ProjectId,Mess-Sense+USBC,4d657373-2d53-4656-9e73-652b55534243,rev?*%
%TF.SameCoordinates,Original*%
%TF.FileFunction,Soldermask,Top*%
%TF.FilePolarity,Negative*%
%FSLAX46Y46*%
G04 Gerber Fmt 4.6, Leading zero omitted, Abs format (unit mm)*
G04 Created by KiCad (PCBNEW 9.0.4) date 2025-12-21 12:41:10*
%MOMM*%
%LPD*%
G01*
G04 APERTURE LIST*
G04 Aperture macros list*
%AMRoundRect*
0 Rectangle with rounded corners*
0 $1 Rounding radius*
0 $2 $3 $4 $5 $6 $7 $8 $9 X,Y pos of 4 corners*
0 Add a 4 corners polygon primitive as box body*
4,1,4,$2,$3,$4,$5,$6,$7,$8,$9,$2,$3,0*
0 Add four circle primitives for the rounded corners*
1,1,$1+$1,$2,$3*
1,1,$1+$1,$4,$5*
1,1,$1+$1,$6,$7*
1,1,$1+$1,$8,$9*
0 Add four rect primitives between the rounded corners*
20,1,$1+$1,$2,$3,$4,$5,0*
20,1,$1+$1,$4,$5,$6,$7,0*
20,1,$1+$1,$6,$7,$8,$9,0*
20,1,$1+$1,$8,$9,$2,$3,0*%
%AMFreePoly0*
4,1,6,0.500000,-0.850000,-0.500000,-0.850000,-0.500000,0.550000,-0.200000,0.850000,0.500000,0.850000,0.500000,-0.850000,0.500000,-0.850000,$1*%
%AMFreePoly1*
4,1,6,0.825000,0.000000,0.525000,-0.450000,-0.500000,-0.450000,-0.500000,0.450000,0.525000,0.450000,0.825000,0.000000,0.825000,0.000000,$1*%
%AMFreePoly2*
4,1,6,0.500000,-0.450000,-0.625000,-0.450000,-0.325000,0.000000,-0.625000,0.450000,0.500000,0.450000,0.500000,-0.450000,0.500000,-0.450000,$1*%
G04 Aperture macros list end*
%ADD10C,0.000000*%
%ADD11R,0.550000X0.250000*%
%ADD12FreePoly0,180.000000*%
%ADD13R,0.400000X0.600000*%
%ADD14R,1.600000X0.700000*%
%ADD15RoundRect,0.075000X-0.250000X-0.075000X0.250000X-0.075000X0.250000X0.075000X-0.250000X0.075000X0*%
%ADD16RoundRect,0.200000X-0.200000X-0.275000X0.200000X-0.275000X0.200000X0.275000X-0.200000X0.275000X0*%
%ADD17RoundRect,0.218750X0.218750X0.256250X-0.218750X0.256250X-0.218750X-0.256250X0.218750X-0.256250X0*%
%ADD18RoundRect,0.125000X0.537500X0.125000X-0.537500X0.125000X-0.537500X-0.125000X0.537500X-0.125000X0*%
%ADD19RoundRect,0.225000X-0.225000X-0.250000X0.225000X-0.250000X0.225000X0.250000X-0.225000X0.250000X0*%
%ADD20FreePoly1,0.000000*%
%ADD21FreePoly2,0.000000*%
%ADD22R,1.700000X1.700000*%
%ADD23C,1.700000*%
%ADD24R,1.000000X1.000000*%
%ADD25C,1.000000*%
%ADD26RoundRect,0.200000X0.275000X-0.200000X0.275000X0.200000X-0.275000X0.200000X-0.275000X-0.200000X0*%
%ADD27RoundRect,0.062500X-0.087500X-0.062500X0.087500X-0.062500X0.087500X0.062500X-0.087500X0.062500X0*%
%ADD28R,0.900000X1.500000*%
%ADD29RoundRect,0.250000X0.625000X-0.312500X0.625000X0.312500X-0.625000X0.312500X-0.625000X-0.312500X0*%
%ADD30RoundRect,0.250000X1.425000X-0.362500X1.425000X0.362500X-1.425000X0.362500X-1.425000X-0.362500X0*%
%ADD31RoundRect,0.225000X0.250000X-0.225000X0.250000X0.225000X-0.250000X0.225000X-0.250000X-0.225000X0*%
%ADD32R,0.450000X0.700000*%
%ADD33R,1.100000X0.500000*%
%ADD34RoundRect,0.087500X-0.250000X-0.087500X0.250000X-0.087500X0.250000X0.087500X-0.250000X0.087500X0*%
%ADD35RoundRect,0.200000X0.200000X0.275000X-0.200000X0.275000X-0.200000X-0.275000X0.200000X-0.275000X0*%
%ADD36C,0.650000*%
%ADD37R,0.600000X1.450000*%
%ADD38R,0.300000X1.450000*%
%ADD39O,1.000000X2.100000*%
%ADD40O,1.000000X1.600000*%
%ADD41RoundRect,0.102000X0.275000X0.125000X-0.275000X0.125000X-0.275000X-0.125000X0.275000X-0.125000X0*%
%ADD42RoundRect,0.112500X-0.112500X0.187500X-0.112500X-0.187500X0.112500X-0.187500X0.112500X0.187500X0*%
%ADD43RoundRect,0.225000X0.225000X0.250000X-0.225000X0.250000X-0.225000X-0.250000X0.225000X-0.250000X0*%
%ADD44RoundRect,0.150000X-0.512500X-0.150000X0.512500X-0.150000X0.512500X0.150000X-0.512500X0.150000X0*%
%ADD45R,0.720000X0.600000*%
%ADD46R,0.850000X0.850000*%
%ADD47RoundRect,0.150000X-0.150000X0.300000X-0.150000X-0.300000X0.150000X-0.300000X0.150000X0.300000X0*%
G04 APERTURE END LIST*
D10*
%TO.C,J7*%
G36*
X168005001Y-131055000D02*
G01*
X165555001Y-131055000D01*
X165555001Y-130155000D01*
X168005001Y-130155000D01*
X168005001Y-131055000D01*
G37*
%TO.C,J3*%
G36*
X178330000Y-131055000D02*
G01*
X175880000Y-131055000D01*
X175880000Y-130155000D01*
X178330000Y-130155000D01*
X178330000Y-131055000D01*
G37*
%TO.C,J5*%
G36*
X164555003Y-131055000D02*
G01*
X162105003Y-131055000D01*
X162105003Y-130155000D01*
X164555003Y-130155000D01*
X164555003Y-131055000D01*
G37*
%TO.C,J51*%
G36*
X178330000Y-91055000D02*
G01*
X175880000Y-91055000D01*
X175880000Y-90155000D01*
X178330000Y-90155000D01*
X178330000Y-91055000D01*
G37*
%TO.C,J55*%
G36*
X168005001Y-91055000D02*
G01*
X165555001Y-91055000D01*
X165555001Y-90155000D01*
X168005001Y-90155000D01*
X168005001Y-91055000D01*
G37*
%TO.C,J53*%
G36*
X164555003Y-91055000D02*
G01*
X162105003Y-91055000D01*
X162105003Y-90155000D01*
X164555003Y-90155000D01*
X164555003Y-91055000D01*
G37*
%TO.C,J43*%
G36*
X128330000Y-91055000D02*
G01*
X125880000Y-91055000D01*
X125880000Y-90155000D01*
X128330000Y-90155000D01*
X128330000Y-91055000D01*
G37*
%TO.C,J45*%
G36*
X114555003Y-91055000D02*
G01*
X112105003Y-91055000D01*
X112105003Y-90155000D01*
X114555003Y-90155000D01*
X114555003Y-91055000D01*
G37*
%TO.C,J47*%
G36*
X118005001Y-91055000D02*
G01*
X115555001Y-91055000D01*
X115555001Y-90155000D01*
X118005001Y-90155000D01*
X118005001Y-91055000D01*
G37*
%TO.C,J23*%
G36*
X168005001Y-51055000D02*
G01*
X165555001Y-51055000D01*
X165555001Y-50155000D01*
X168005001Y-50155000D01*
X168005001Y-51055000D01*
G37*
%TO.C,J19*%
G36*
X178330000Y-51055000D02*
G01*
X175880000Y-51055000D01*
X175880000Y-50155000D01*
X178330000Y-50155000D01*
X178330000Y-51055000D01*
G37*
%TO.C,J21*%
G36*
X164555003Y-51055000D02*
G01*
X162105003Y-51055000D01*
X162105003Y-50155000D01*
X164555003Y-50155000D01*
X164555003Y-51055000D01*
G37*
%TO.C,J31*%
G36*
X118005001Y-71055000D02*
G01*
X115555001Y-71055000D01*
X115555001Y-70155000D01*
X118005001Y-70155000D01*
X118005001Y-71055000D01*
G37*
%TO.C,J27*%
G36*
X128330000Y-71055000D02*
G01*
X125880000Y-71055000D01*
X125880000Y-70155000D01*
X128330000Y-70155000D01*
X128330000Y-71055000D01*
G37*
%TO.C,J29*%
G36*
X114555003Y-71055000D02*
G01*
X112105003Y-71055000D01*
X112105003Y-70155000D01*
X114555003Y-70155000D01*
X114555003Y-71055000D01*
G37*
%TO.C,J39*%
G36*
X168005001Y-71055000D02*
G01*
X165555001Y-71055000D01*
X165555001Y-70155000D01*
X168005001Y-70155000D01*
X168005001Y-71055000D01*
G37*
%TO.C,J35*%
G36*
X178330000Y-71055000D02*
G01*
X175880000Y-71055000D01*
X175880000Y-70155000D01*
X178330000Y-70155000D01*
X178330000Y-71055000D01*
G37*
%TO.C,J37*%
G36*
X164555003Y-71055000D02*
G01*
X162105003Y-71055000D01*
X162105003Y-70155000D01*
X164555003Y-70155000D01*
X164555003Y-71055000D01*
G37*
%TO.C,J11*%
G36*
X128330000Y-51055000D02*
G01*
X125880000Y-51055000D01*
X125880000Y-50155000D01*
X128330000Y-50155000D01*
X128330000Y-51055000D01*
G37*
%TO.C,J13*%
G36*
X114555003Y-51055000D02*
G01*
X112105003Y-51055000D01*
X112105003Y-50155000D01*
X114555003Y-50155000D01*
X114555003Y-51055000D01*
G37*
%TO.C,J15*%
G36*
X118005001Y-51055000D02*
G01*
X115555001Y-51055000D01*
X115555001Y-50155000D01*
X118005001Y-50155000D01*
X118005001Y-51055000D01*
G37*
%TO.C,J71*%
G36*
X168005001Y-111055000D02*
G01*
X165555001Y-111055000D01*
X165555001Y-110155000D01*
X168005001Y-110155000D01*
X168005001Y-111055000D01*
G37*
%TO.C,J67*%
G36*
X178330000Y-111055000D02*
G01*
X175880000Y-111055000D01*
X175880000Y-110155000D01*
X178330000Y-110155000D01*
X178330000Y-111055000D01*
G37*
%TO.C,J69*%
G36*
X164555003Y-111055000D02*
G01*
X162105003Y-111055000D01*
X162105003Y-110155000D01*
X164555003Y-110155000D01*
X164555003Y-111055000D01*
G37*
%TO.C,J79*%
G36*
X118005001Y-131055000D02*
G01*
X115555001Y-131055000D01*
X115555001Y-130155000D01*
X118005001Y-130155000D01*
X118005001Y-131055000D01*
G37*
%TO.C,J75*%
G36*
X128330000Y-131055000D02*
G01*
X125880000Y-131055000D01*
X125880000Y-130155000D01*
X128330000Y-130155000D01*
X128330000Y-131055000D01*
G37*
%TO.C,J77*%
G36*
X114555003Y-131055000D02*
G01*
X112105003Y-131055000D01*
X112105003Y-130155000D01*
X114555003Y-130155000D01*
X114555003Y-131055000D01*
G37*
%TO.C,J59*%
G36*
X128330000Y-111055000D02*
G01*
X125880000Y-111055000D01*
X125880000Y-110155000D01*
X128330000Y-110155000D01*
X128330000Y-111055000D01*
G37*
%TO.C,J61*%
G36*
X114555003Y-111055000D02*
G01*
X112105003Y-111055000D01*
X112105003Y-110155000D01*
X114555003Y-110155000D01*
X114555003Y-111055000D01*
G37*
%TO.C,J63*%
G36*
X118005001Y-111055000D02*
G01*
X115555001Y-111055000D01*
X115555001Y-110155000D01*
X118005001Y-110155000D01*
X118005001Y-111055000D01*
G37*
%TD*%
D11*
%TO.C,U14*%
X146975000Y-146400000D03*
X146975000Y-145899999D03*
X146975000Y-145399999D03*
X146975000Y-144899998D03*
X144625000Y-144899998D03*
X144625000Y-145399999D03*
X144625000Y-145899999D03*
X144625000Y-146400000D03*
D12*
X145800000Y-145649999D03*
%TD*%
D13*
%TO.C,U10*%
X152200000Y-130000000D03*
X151250000Y-130000000D03*
X151250000Y-131900000D03*
X152200000Y-131900000D03*
D14*
X151725000Y-130950000D03*
%TD*%
D15*
%TO.C,U1*%
X146299999Y-134550000D03*
X146300000Y-135200000D03*
X146299999Y-135850000D03*
X148100001Y-135850000D03*
X148100000Y-135200000D03*
X148100001Y-134550000D03*
%TD*%
D16*
%TO.C,R6*%
X143250000Y-142399998D03*
X144900000Y-142399998D03*
%TD*%
D17*
%TO.C,D2*%
X173955001Y-130605000D03*
X172379999Y-130605000D03*
%TD*%
D18*
%TO.C,U3*%
X157242500Y-136880000D03*
X157242500Y-136230000D03*
X157242500Y-135580000D03*
X157242500Y-134930000D03*
X154967500Y-134930000D03*
X154967500Y-135580000D03*
X154967500Y-136230000D03*
X154967500Y-136880000D03*
%TD*%
D19*
%TO.C,C1*%
X146450000Y-142400000D03*
X148000000Y-142400000D03*
%TD*%
D20*
%TO.C,J7*%
X166055002Y-130605000D03*
D21*
X167505000Y-130605000D03*
%TD*%
D22*
%TO.C,J8*%
X157305000Y-131105000D03*
D23*
X154765000Y-131105000D03*
%TD*%
D24*
%TO.C,J6*%
X147800000Y-139670001D03*
D25*
X147800000Y-138400001D03*
%TD*%
D26*
%TO.C,R3*%
X140400000Y-139425000D03*
X140400000Y-137775000D03*
%TD*%
D22*
%TO.C,J2*%
X163505000Y-137585000D03*
D23*
X163505000Y-140125000D03*
X163505000Y-142665000D03*
X163505000Y-145205000D03*
%TD*%
D22*
%TO.C,J4*%
X181305000Y-137585000D03*
D23*
X181305000Y-140125000D03*
X181305000Y-142665000D03*
X181305000Y-145205000D03*
%TD*%
D27*
%TO.C,U12*%
X150550000Y-137550000D03*
X150550000Y-138200000D03*
X150550000Y-138850000D03*
X152250000Y-138850000D03*
X152250000Y-138200000D03*
X152250000Y-137550000D03*
D28*
X151400000Y-138200000D03*
%TD*%
D19*
%TO.C,C4*%
X165555000Y-133605000D03*
X167105000Y-133605000D03*
%TD*%
D29*
%TO.C,R2*%
X156405000Y-144167500D03*
X156405000Y-141242500D03*
%TD*%
D30*
%TO.C,R1*%
X156405000Y-145667500D03*
X156405000Y-139742500D03*
%TD*%
D31*
%TO.C,C7*%
X167805000Y-137455000D03*
X167805000Y-135905000D03*
%TD*%
D32*
%TO.C,IC1*%
X147400000Y-131700000D03*
X148200000Y-131700000D03*
X148200000Y-130100000D03*
X147400000Y-130100000D03*
D33*
X147800000Y-130900000D03*
%TD*%
D16*
%TO.C,R5*%
X180080000Y-130905000D03*
X181730000Y-130905000D03*
%TD*%
D34*
%TO.C,U15*%
X150880000Y-140905000D03*
X150879999Y-141405000D03*
X150880000Y-141905000D03*
X152305000Y-141905000D03*
X152305001Y-141405000D03*
X152305000Y-140905000D03*
%TD*%
D22*
%TO.C,J1*%
X136800000Y-131720000D03*
D23*
X136800000Y-134260000D03*
X136800000Y-136800000D03*
X136800000Y-139340000D03*
X136800000Y-141880000D03*
X136800000Y-144420000D03*
%TD*%
D20*
%TO.C,J3*%
X176380001Y-130605000D03*
D21*
X177829999Y-130605000D03*
%TD*%
D20*
%TO.C,J5*%
X162605004Y-130605000D03*
D21*
X164055002Y-130605000D03*
%TD*%
D35*
%TO.C,R8*%
X170905000Y-130605000D03*
X169255000Y-130605000D03*
%TD*%
D36*
%TO.C,U4*%
X169515000Y-141565000D03*
X175295000Y-141565000D03*
D37*
X169155000Y-140120000D03*
X169954999Y-140120000D03*
D38*
X171155000Y-140120001D03*
X172155000Y-140120000D03*
X172655000Y-140120000D03*
X173655000Y-140120001D03*
D37*
X174855001Y-140120000D03*
X175655000Y-140120000D03*
X175655000Y-140120000D03*
X174855001Y-140120000D03*
D38*
X174155000Y-140120000D03*
X173155000Y-140120000D03*
X171655000Y-140120000D03*
X170655000Y-140120000D03*
D37*
X169954999Y-140120000D03*
X169155000Y-140120000D03*
D39*
X168085000Y-141035000D03*
D40*
X168085000Y-145215000D03*
D39*
X176725000Y-141035000D03*
D40*
X176725000Y-145215000D03*
%TD*%
D41*
%TO.C,U5*%
X152400000Y-146000000D03*
X152400000Y-145500000D03*
X152400000Y-145000000D03*
X149650000Y-145000000D03*
X149650000Y-145500000D03*
X149650000Y-146000000D03*
%TD*%
D42*
%TO.C,D1*%
X176605000Y-132955000D03*
X176605000Y-135055000D03*
%TD*%
D43*
%TO.C,C3*%
X163970000Y-133605000D03*
X162420000Y-133605000D03*
%TD*%
D19*
%TO.C,C6*%
X175730000Y-137405000D03*
X177280000Y-137405000D03*
%TD*%
D16*
%TO.C,R7*%
X180080000Y-133605000D03*
X181730000Y-133605000D03*
%TD*%
D44*
%TO.C,U8*%
X170830000Y-133305000D03*
X170830000Y-134255000D03*
X170830000Y-135205000D03*
X173105000Y-135205000D03*
X173105000Y-133305000D03*
%TD*%
D45*
%TO.C,U6*%
X144334264Y-131558578D03*
X143364264Y-131558578D03*
X142394264Y-131558578D03*
X141424264Y-131558578D03*
X141424264Y-130158578D03*
X142394264Y-130158578D03*
X143364264Y-130158578D03*
X144334264Y-130158578D03*
%TD*%
D43*
%TO.C,C5*%
X141775000Y-145400000D03*
X140225000Y-145400000D03*
%TD*%
D46*
%TO.C,TP1*%
X143305000Y-136005000D03*
%TD*%
D26*
%TO.C,R4*%
X140400000Y-136374999D03*
X140400000Y-134724999D03*
%TD*%
D43*
%TO.C,C2*%
X141850000Y-142400000D03*
X140300000Y-142400000D03*
%TD*%
D27*
%TO.C,U11*%
X151087500Y-134400000D03*
X151087500Y-135000000D03*
X152387500Y-135000000D03*
X152387500Y-134400000D03*
D47*
X151737500Y-134700001D03*
%TD*%
D15*
%TO.C,U2*%
X142805000Y-138105000D03*
X142805000Y-138755000D03*
X142805000Y-139405000D03*
X142805000Y-140055000D03*
X144605000Y-140055000D03*
X144605000Y-139405000D03*
X144605000Y-138755000D03*
X144605000Y-138105000D03*
%TD*%
D22*
%TO.C,J52*%
X181305000Y-97585000D03*
D23*
X181305000Y-100125000D03*
X181305000Y-102665000D03*
X181305000Y-105205000D03*
%TD*%
D43*
%TO.C,C44*%
X141850000Y-102400000D03*
X140300000Y-102400000D03*
%TD*%
D24*
%TO.C,J54*%
X147800000Y-99670001D03*
D25*
X147800000Y-98400001D03*
%TD*%
D15*
%TO.C,U97*%
X146299999Y-94550000D03*
X146300000Y-95200000D03*
X146299999Y-95850000D03*
X148100001Y-95850000D03*
X148100000Y-95200000D03*
X148100001Y-94550000D03*
%TD*%
D19*
%TO.C,C46*%
X165555000Y-93605000D03*
X167105000Y-93605000D03*
%TD*%
D11*
%TO.C,U110*%
X146975000Y-106400000D03*
X146975000Y-105899999D03*
X146975000Y-105399999D03*
X146975000Y-104899998D03*
X144625000Y-104899998D03*
X144625000Y-105399999D03*
X144625000Y-105899999D03*
X144625000Y-106400000D03*
D12*
X145800000Y-105649999D03*
%TD*%
D30*
%TO.C,R49*%
X156405000Y-105667500D03*
X156405000Y-99742500D03*
%TD*%
D29*
%TO.C,R50*%
X156405000Y-104167500D03*
X156405000Y-101242500D03*
%TD*%
D44*
%TO.C,U104*%
X170830000Y-93305000D03*
X170830000Y-94255000D03*
X170830000Y-95205000D03*
X173105000Y-95205000D03*
X173105000Y-93305000D03*
%TD*%
D17*
%TO.C,D14*%
X173955001Y-90605000D03*
X172379999Y-90605000D03*
%TD*%
D41*
%TO.C,U101*%
X152400000Y-106000000D03*
X152400000Y-105500000D03*
X152400000Y-105000000D03*
X149650000Y-105000000D03*
X149650000Y-105500000D03*
X149650000Y-106000000D03*
%TD*%
D31*
%TO.C,C49*%
X167805000Y-97455000D03*
X167805000Y-95905000D03*
%TD*%
D42*
%TO.C,D13*%
X176605000Y-92955000D03*
X176605000Y-95055000D03*
%TD*%
D32*
%TO.C,IC7*%
X147400000Y-91700000D03*
X148200000Y-91700000D03*
X148200000Y-90100000D03*
X147400000Y-90100000D03*
D33*
X147800000Y-90900000D03*
%TD*%
D16*
%TO.C,R53*%
X180080000Y-90905000D03*
X181730000Y-90905000D03*
%TD*%
D34*
%TO.C,U111*%
X150880000Y-100905000D03*
X150879999Y-101405000D03*
X150880000Y-101905000D03*
X152305000Y-101905000D03*
X152305001Y-101405000D03*
X152305000Y-100905000D03*
%TD*%
D22*
%TO.C,J49*%
X136800000Y-91720000D03*
D23*
X136800000Y-94260000D03*
X136800000Y-96800000D03*
X136800000Y-99340000D03*
X136800000Y-101880000D03*
X136800000Y-104420000D03*
%TD*%
D20*
%TO.C,J51*%
X176380001Y-90605000D03*
D21*
X177829999Y-90605000D03*
%TD*%
D22*
%TO.C,J56*%
X157305000Y-91105000D03*
D23*
X154765000Y-91105000D03*
%TD*%
D20*
%TO.C,J55*%
X166055002Y-90605000D03*
D21*
X167505000Y-90605000D03*
%TD*%
D20*
%TO.C,J53*%
X162605004Y-90605000D03*
D21*
X164055002Y-90605000D03*
%TD*%
D43*
%TO.C,C45*%
X163970000Y-93605000D03*
X162420000Y-93605000D03*
%TD*%
D18*
%TO.C,U99*%
X157242500Y-96880000D03*
X157242500Y-96230000D03*
X157242500Y-95580000D03*
X157242500Y-94930000D03*
X154967500Y-94930000D03*
X154967500Y-95580000D03*
X154967500Y-96230000D03*
X154967500Y-96880000D03*
%TD*%
D35*
%TO.C,R56*%
X170905000Y-90605000D03*
X169255000Y-90605000D03*
%TD*%
D36*
%TO.C,U100*%
X169515000Y-101565000D03*
X175295000Y-101565000D03*
D37*
X169155000Y-100120000D03*
X169954999Y-100120000D03*
D38*
X171155000Y-100120001D03*
X172155000Y-100120000D03*
X172655000Y-100120000D03*
X173655000Y-100120001D03*
D37*
X174855001Y-100120000D03*
X175655000Y-100120000D03*
X175655000Y-100120000D03*
X174855001Y-100120000D03*
D38*
X174155000Y-100120000D03*
X173155000Y-100120000D03*
X171655000Y-100120000D03*
X170655000Y-100120000D03*
D37*
X169954999Y-100120000D03*
X169155000Y-100120000D03*
D39*
X168085000Y-101035000D03*
D40*
X168085000Y-105215000D03*
D39*
X176725000Y-101035000D03*
D40*
X176725000Y-105215000D03*
%TD*%
D16*
%TO.C,R54*%
X143250000Y-102399998D03*
X144900000Y-102399998D03*
%TD*%
D43*
%TO.C,C47*%
X141775000Y-105400000D03*
X140225000Y-105400000D03*
%TD*%
D19*
%TO.C,C48*%
X175730000Y-97405000D03*
X177280000Y-97405000D03*
%TD*%
D16*
%TO.C,R55*%
X180080000Y-93605000D03*
X181730000Y-93605000D03*
%TD*%
D45*
%TO.C,U102*%
X144334264Y-91558578D03*
X143364264Y-91558578D03*
X142394264Y-91558578D03*
X141424264Y-91558578D03*
X141424264Y-90158578D03*
X142394264Y-90158578D03*
X143364264Y-90158578D03*
X144334264Y-90158578D03*
%TD*%
D22*
%TO.C,J50*%
X163505000Y-97585000D03*
D23*
X163505000Y-100125000D03*
X163505000Y-102665000D03*
X163505000Y-105205000D03*
%TD*%
D26*
%TO.C,R51*%
X140400000Y-99425000D03*
X140400000Y-97775000D03*
%TD*%
D46*
%TO.C,TP7*%
X143305000Y-96005000D03*
%TD*%
D26*
%TO.C,R52*%
X140400000Y-96374999D03*
X140400000Y-94724999D03*
%TD*%
D13*
%TO.C,U106*%
X152200000Y-90000000D03*
X151250000Y-90000000D03*
X151250000Y-91900000D03*
X152200000Y-91900000D03*
D14*
X151725000Y-90950000D03*
%TD*%
D27*
%TO.C,U108*%
X150550000Y-97550000D03*
X150550000Y-98200000D03*
X150550000Y-98850000D03*
X152250000Y-98850000D03*
X152250000Y-98200000D03*
X152250000Y-97550000D03*
D28*
X151400000Y-98200000D03*
%TD*%
D27*
%TO.C,U107*%
X151087500Y-94400000D03*
X151087500Y-95000000D03*
X152387500Y-95000000D03*
X152387500Y-94400000D03*
D47*
X151737500Y-94700001D03*
%TD*%
D19*
%TO.C,C43*%
X146450000Y-102400000D03*
X148000000Y-102400000D03*
%TD*%
D15*
%TO.C,U98*%
X142805000Y-98105000D03*
X142805000Y-98755000D03*
X142805000Y-99405000D03*
X142805000Y-100055000D03*
X144605000Y-100055000D03*
X144605000Y-99405000D03*
X144605000Y-98755000D03*
X144605000Y-98105000D03*
%TD*%
D24*
%TO.C,J46*%
X97800000Y-99670001D03*
D25*
X97800000Y-98400001D03*
%TD*%
D15*
%TO.C,U81*%
X96299999Y-94550000D03*
X96300000Y-95200000D03*
X96299999Y-95850000D03*
X98100001Y-95850000D03*
X98100000Y-95200000D03*
X98100001Y-94550000D03*
%TD*%
D17*
%TO.C,D12*%
X123955001Y-90605000D03*
X122379999Y-90605000D03*
%TD*%
D19*
%TO.C,C36*%
X96450000Y-102400000D03*
X98000000Y-102400000D03*
%TD*%
D26*
%TO.C,R43*%
X90400000Y-99425000D03*
X90400000Y-97775000D03*
%TD*%
D19*
%TO.C,C39*%
X115555000Y-93605000D03*
X117105000Y-93605000D03*
%TD*%
D18*
%TO.C,U83*%
X107242500Y-96880000D03*
X107242500Y-96230000D03*
X107242500Y-95580000D03*
X107242500Y-94930000D03*
X104967500Y-94930000D03*
X104967500Y-95580000D03*
X104967500Y-96230000D03*
X104967500Y-96880000D03*
%TD*%
D22*
%TO.C,J48*%
X107305000Y-91105000D03*
D23*
X104765000Y-91105000D03*
%TD*%
D22*
%TO.C,J44*%
X131305000Y-97585000D03*
D23*
X131305000Y-100125000D03*
X131305000Y-102665000D03*
X131305000Y-105205000D03*
%TD*%
D27*
%TO.C,U92*%
X100550000Y-97550000D03*
X100550000Y-98200000D03*
X100550000Y-98850000D03*
X102250000Y-98850000D03*
X102250000Y-98200000D03*
X102250000Y-97550000D03*
D28*
X101400000Y-98200000D03*
%TD*%
D43*
%TO.C,C37*%
X91850000Y-102400000D03*
X90300000Y-102400000D03*
%TD*%
D22*
%TO.C,J42*%
X113505000Y-97585000D03*
D23*
X113505000Y-100125000D03*
X113505000Y-102665000D03*
X113505000Y-105205000D03*
%TD*%
D41*
%TO.C,U85*%
X102400000Y-106000000D03*
X102400000Y-105500000D03*
X102400000Y-105000000D03*
X99650000Y-105000000D03*
X99650000Y-105500000D03*
X99650000Y-106000000D03*
%TD*%
D31*
%TO.C,C42*%
X117805000Y-97455000D03*
X117805000Y-95905000D03*
%TD*%
D42*
%TO.C,D11*%
X126605000Y-92955000D03*
X126605000Y-95055000D03*
%TD*%
D32*
%TO.C,IC6*%
X97400000Y-91700000D03*
X98200000Y-91700000D03*
X98200000Y-90100000D03*
X97400000Y-90100000D03*
D33*
X97800000Y-90900000D03*
%TD*%
D13*
%TO.C,U90*%
X102200000Y-90000000D03*
X101250000Y-90000000D03*
X101250000Y-91900000D03*
X102200000Y-91900000D03*
D14*
X101725000Y-90950000D03*
%TD*%
D43*
%TO.C,C40*%
X91775000Y-105400000D03*
X90225000Y-105400000D03*
%TD*%
D16*
%TO.C,R45*%
X130080000Y-90905000D03*
X131730000Y-90905000D03*
%TD*%
D34*
%TO.C,U95*%
X100880000Y-100905000D03*
X100879999Y-101405000D03*
X100880000Y-101905000D03*
X102305000Y-101905000D03*
X102305001Y-101405000D03*
X102305000Y-100905000D03*
%TD*%
D22*
%TO.C,J41*%
X86800000Y-91720000D03*
D23*
X86800000Y-94260000D03*
X86800000Y-96800000D03*
X86800000Y-99340000D03*
X86800000Y-101880000D03*
X86800000Y-104420000D03*
%TD*%
D20*
%TO.C,J43*%
X126380001Y-90605000D03*
D21*
X127829999Y-90605000D03*
%TD*%
D43*
%TO.C,C38*%
X113970000Y-93605000D03*
X112420000Y-93605000D03*
%TD*%
D35*
%TO.C,R48*%
X120905000Y-90605000D03*
X119255000Y-90605000D03*
%TD*%
D36*
%TO.C,U84*%
X119515000Y-101565000D03*
X125295000Y-101565000D03*
D37*
X119155000Y-100120000D03*
X119954999Y-100120000D03*
D38*
X121155000Y-100120001D03*
X122155000Y-100120000D03*
X122655000Y-100120000D03*
X123655000Y-100120001D03*
D37*
X124855001Y-100120000D03*
X125655000Y-100120000D03*
X125655000Y-100120000D03*
X124855001Y-100120000D03*
D38*
X124155000Y-100120000D03*
X123155000Y-100120000D03*
X121655000Y-100120000D03*
X120655000Y-100120000D03*
D37*
X119954999Y-100120000D03*
X119155000Y-100120000D03*
D39*
X118085000Y-101035000D03*
D40*
X118085000Y-105215000D03*
D39*
X126725000Y-101035000D03*
D40*
X126725000Y-105215000D03*
%TD*%
D19*
%TO.C,C41*%
X125730000Y-97405000D03*
X127280000Y-97405000D03*
%TD*%
D16*
%TO.C,R47*%
X130080000Y-93605000D03*
X131730000Y-93605000D03*
%TD*%
D44*
%TO.C,U88*%
X120830000Y-93305000D03*
X120830000Y-94255000D03*
X120830000Y-95205000D03*
X123105000Y-95205000D03*
X123105000Y-93305000D03*
%TD*%
D45*
%TO.C,U86*%
X94334264Y-91558578D03*
X93364264Y-91558578D03*
X92394264Y-91558578D03*
X91424264Y-91558578D03*
X91424264Y-90158578D03*
X92394264Y-90158578D03*
X93364264Y-90158578D03*
X94334264Y-90158578D03*
%TD*%
D30*
%TO.C,R41*%
X106405000Y-105667500D03*
X106405000Y-99742500D03*
%TD*%
D29*
%TO.C,R42*%
X106405000Y-104167500D03*
X106405000Y-101242500D03*
%TD*%
D46*
%TO.C,TP6*%
X93305000Y-96005000D03*
%TD*%
D16*
%TO.C,R46*%
X93250000Y-102399998D03*
X94900000Y-102399998D03*
%TD*%
D20*
%TO.C,J45*%
X112605004Y-90605000D03*
D21*
X114055002Y-90605000D03*
%TD*%
D20*
%TO.C,J47*%
X116055002Y-90605000D03*
D21*
X117505000Y-90605000D03*
%TD*%
D27*
%TO.C,U91*%
X101087500Y-94400000D03*
X101087500Y-95000000D03*
X102387500Y-95000000D03*
X102387500Y-94400000D03*
D47*
X101737500Y-94700001D03*
%TD*%
D15*
%TO.C,U82*%
X92805000Y-98105000D03*
X92805000Y-98755000D03*
X92805000Y-99405000D03*
X92805000Y-100055000D03*
X94605000Y-100055000D03*
X94605000Y-99405000D03*
X94605000Y-98755000D03*
X94605000Y-98105000D03*
%TD*%
D11*
%TO.C,U94*%
X96975000Y-106400000D03*
X96975000Y-105899999D03*
X96975000Y-105399999D03*
X96975000Y-104899998D03*
X94625000Y-104899998D03*
X94625000Y-105399999D03*
X94625000Y-105899999D03*
X94625000Y-106400000D03*
D12*
X95800000Y-105649999D03*
%TD*%
D26*
%TO.C,R44*%
X90400000Y-96374999D03*
X90400000Y-94724999D03*
%TD*%
D24*
%TO.C,J22*%
X147800000Y-59670001D03*
D25*
X147800000Y-58400001D03*
%TD*%
D20*
%TO.C,J23*%
X166055002Y-50605000D03*
D21*
X167505000Y-50605000D03*
%TD*%
D19*
%TO.C,C15*%
X146450000Y-62400000D03*
X148000000Y-62400000D03*
%TD*%
%TO.C,C18*%
X165555000Y-53605000D03*
X167105000Y-53605000D03*
%TD*%
D13*
%TO.C,U42*%
X152200000Y-50000000D03*
X151250000Y-50000000D03*
X151250000Y-51900000D03*
X152200000Y-51900000D03*
D14*
X151725000Y-50950000D03*
%TD*%
D43*
%TO.C,C16*%
X141850000Y-62400000D03*
X140300000Y-62400000D03*
%TD*%
D29*
%TO.C,R18*%
X156405000Y-64167500D03*
X156405000Y-61242500D03*
%TD*%
D30*
%TO.C,R17*%
X156405000Y-65667500D03*
X156405000Y-59742500D03*
%TD*%
D15*
%TO.C,U33*%
X146299999Y-54550000D03*
X146300000Y-55200000D03*
X146299999Y-55850000D03*
X148100001Y-55850000D03*
X148100000Y-55200000D03*
X148100001Y-54550000D03*
%TD*%
D18*
%TO.C,U35*%
X157242500Y-56880000D03*
X157242500Y-56230000D03*
X157242500Y-55580000D03*
X157242500Y-54930000D03*
X154967500Y-54930000D03*
X154967500Y-55580000D03*
X154967500Y-56230000D03*
X154967500Y-56880000D03*
%TD*%
D22*
%TO.C,J18*%
X163505000Y-57585000D03*
D23*
X163505000Y-60125000D03*
X163505000Y-62665000D03*
X163505000Y-65205000D03*
%TD*%
D11*
%TO.C,U46*%
X146975000Y-66400000D03*
X146975000Y-65899999D03*
X146975000Y-65399999D03*
X146975000Y-64899998D03*
X144625000Y-64899998D03*
X144625000Y-65399999D03*
X144625000Y-65899999D03*
X144625000Y-66400000D03*
D12*
X145800000Y-65649999D03*
%TD*%
D22*
%TO.C,J20*%
X181305000Y-57585000D03*
D23*
X181305000Y-60125000D03*
X181305000Y-62665000D03*
X181305000Y-65205000D03*
%TD*%
D41*
%TO.C,U37*%
X152400000Y-66000000D03*
X152400000Y-65500000D03*
X152400000Y-65000000D03*
X149650000Y-65000000D03*
X149650000Y-65500000D03*
X149650000Y-66000000D03*
%TD*%
D42*
%TO.C,D5*%
X176605000Y-52955000D03*
X176605000Y-55055000D03*
%TD*%
D32*
%TO.C,IC3*%
X147400000Y-51700000D03*
X148200000Y-51700000D03*
X148200000Y-50100000D03*
X147400000Y-50100000D03*
D33*
X147800000Y-50900000D03*
%TD*%
D43*
%TO.C,C19*%
X141775000Y-65400000D03*
X140225000Y-65400000D03*
%TD*%
D22*
%TO.C,J24*%
X157305000Y-51105000D03*
D23*
X154765000Y-51105000D03*
%TD*%
D16*
%TO.C,R21*%
X180080000Y-50905000D03*
X181730000Y-50905000D03*
%TD*%
D34*
%TO.C,U47*%
X150880000Y-60905000D03*
X150879999Y-61405000D03*
X150880000Y-61905000D03*
X152305000Y-61905000D03*
X152305001Y-61405000D03*
X152305000Y-60905000D03*
%TD*%
D22*
%TO.C,J17*%
X136800000Y-51720000D03*
D23*
X136800000Y-54260000D03*
X136800000Y-56800000D03*
X136800000Y-59340000D03*
X136800000Y-61880000D03*
X136800000Y-64420000D03*
%TD*%
D20*
%TO.C,J19*%
X176380001Y-50605000D03*
D21*
X177829999Y-50605000D03*
%TD*%
D17*
%TO.C,D6*%
X173955001Y-50605000D03*
X172379999Y-50605000D03*
%TD*%
D20*
%TO.C,J21*%
X162605004Y-50605000D03*
D21*
X164055002Y-50605000D03*
%TD*%
D43*
%TO.C,C17*%
X163970000Y-53605000D03*
X162420000Y-53605000D03*
%TD*%
D35*
%TO.C,R24*%
X170905000Y-50605000D03*
X169255000Y-50605000D03*
%TD*%
D19*
%TO.C,C20*%
X175730000Y-57405000D03*
X177280000Y-57405000D03*
%TD*%
D16*
%TO.C,R23*%
X180080000Y-53605000D03*
X181730000Y-53605000D03*
%TD*%
D31*
%TO.C,C21*%
X167805000Y-57455000D03*
X167805000Y-55905000D03*
%TD*%
D45*
%TO.C,U38*%
X144334264Y-51558578D03*
X143364264Y-51558578D03*
X142394264Y-51558578D03*
X141424264Y-51558578D03*
X141424264Y-50158578D03*
X142394264Y-50158578D03*
X143364264Y-50158578D03*
X144334264Y-50158578D03*
%TD*%
D46*
%TO.C,TP3*%
X143305000Y-56005000D03*
%TD*%
D26*
%TO.C,R20*%
X140400000Y-56374999D03*
X140400000Y-54724999D03*
%TD*%
D36*
%TO.C,U36*%
X169515000Y-61565000D03*
X175295000Y-61565000D03*
D37*
X169155000Y-60120000D03*
X169954999Y-60120000D03*
D38*
X171155000Y-60120001D03*
X172155000Y-60120000D03*
X172655000Y-60120000D03*
X173655000Y-60120001D03*
D37*
X174855001Y-60120000D03*
X175655000Y-60120000D03*
X175655000Y-60120000D03*
X174855001Y-60120000D03*
D38*
X174155000Y-60120000D03*
X173155000Y-60120000D03*
X171655000Y-60120000D03*
X170655000Y-60120000D03*
D37*
X169954999Y-60120000D03*
X169155000Y-60120000D03*
D39*
X168085000Y-61035000D03*
D40*
X168085000Y-65215000D03*
D39*
X176725000Y-61035000D03*
D40*
X176725000Y-65215000D03*
%TD*%
D27*
%TO.C,U44*%
X150550000Y-57550000D03*
X150550000Y-58200000D03*
X150550000Y-58850000D03*
X152250000Y-58850000D03*
X152250000Y-58200000D03*
X152250000Y-57550000D03*
D28*
X151400000Y-58200000D03*
%TD*%
D44*
%TO.C,U40*%
X170830000Y-53305000D03*
X170830000Y-54255000D03*
X170830000Y-55205000D03*
X173105000Y-55205000D03*
X173105000Y-53305000D03*
%TD*%
D16*
%TO.C,R22*%
X143250000Y-62399998D03*
X144900000Y-62399998D03*
%TD*%
D26*
%TO.C,R19*%
X140400000Y-59425000D03*
X140400000Y-57775000D03*
%TD*%
D27*
%TO.C,U43*%
X151087500Y-54400000D03*
X151087500Y-55000000D03*
X152387500Y-55000000D03*
X152387500Y-54400000D03*
D47*
X151737500Y-54700001D03*
%TD*%
D15*
%TO.C,U34*%
X142805000Y-58105000D03*
X142805000Y-58755000D03*
X142805000Y-59405000D03*
X142805000Y-60055000D03*
X144605000Y-60055000D03*
X144605000Y-59405000D03*
X144605000Y-58755000D03*
X144605000Y-58105000D03*
%TD*%
D24*
%TO.C,J30*%
X97800000Y-79670001D03*
D25*
X97800000Y-78400001D03*
%TD*%
D20*
%TO.C,J31*%
X116055002Y-70605000D03*
D21*
X117505000Y-70605000D03*
%TD*%
D44*
%TO.C,U56*%
X120830000Y-73305000D03*
X120830000Y-74255000D03*
X120830000Y-75205000D03*
X123105000Y-75205000D03*
X123105000Y-73305000D03*
%TD*%
D19*
%TO.C,C25*%
X115555000Y-73605000D03*
X117105000Y-73605000D03*
%TD*%
D22*
%TO.C,J28*%
X131305000Y-77585000D03*
D23*
X131305000Y-80125000D03*
X131305000Y-82665000D03*
X131305000Y-85205000D03*
%TD*%
D19*
%TO.C,C22*%
X96450000Y-82400000D03*
X98000000Y-82400000D03*
%TD*%
D27*
%TO.C,U60*%
X100550000Y-77550000D03*
X100550000Y-78200000D03*
X100550000Y-78850000D03*
X102250000Y-78850000D03*
X102250000Y-78200000D03*
X102250000Y-77550000D03*
D28*
X101400000Y-78200000D03*
%TD*%
D18*
%TO.C,U51*%
X107242500Y-76880000D03*
X107242500Y-76230000D03*
X107242500Y-75580000D03*
X107242500Y-74930000D03*
X104967500Y-74930000D03*
X104967500Y-75580000D03*
X104967500Y-76230000D03*
X104967500Y-76880000D03*
%TD*%
D15*
%TO.C,U49*%
X96299999Y-74550000D03*
X96300000Y-75200000D03*
X96299999Y-75850000D03*
X98100001Y-75850000D03*
X98100000Y-75200000D03*
X98100001Y-74550000D03*
%TD*%
D22*
%TO.C,J32*%
X107305000Y-71105000D03*
D23*
X104765000Y-71105000D03*
%TD*%
D13*
%TO.C,U58*%
X102200000Y-70000000D03*
X101250000Y-70000000D03*
X101250000Y-71900000D03*
X102200000Y-71900000D03*
D14*
X101725000Y-70950000D03*
%TD*%
D22*
%TO.C,J26*%
X113505000Y-77585000D03*
D23*
X113505000Y-80125000D03*
X113505000Y-82665000D03*
X113505000Y-85205000D03*
%TD*%
D17*
%TO.C,D8*%
X123955001Y-70605000D03*
X122379999Y-70605000D03*
%TD*%
D41*
%TO.C,U53*%
X102400000Y-86000000D03*
X102400000Y-85500000D03*
X102400000Y-85000000D03*
X99650000Y-85000000D03*
X99650000Y-85500000D03*
X99650000Y-86000000D03*
%TD*%
D42*
%TO.C,D7*%
X126605000Y-72955000D03*
X126605000Y-75055000D03*
%TD*%
D32*
%TO.C,IC4*%
X97400000Y-71700000D03*
X98200000Y-71700000D03*
X98200000Y-70100000D03*
X97400000Y-70100000D03*
D33*
X97800000Y-70900000D03*
%TD*%
D43*
%TO.C,C26*%
X91775000Y-85400000D03*
X90225000Y-85400000D03*
%TD*%
D34*
%TO.C,U63*%
X100880000Y-80905000D03*
X100879999Y-81405000D03*
X100880000Y-81905000D03*
X102305000Y-81905000D03*
X102305001Y-81405000D03*
X102305000Y-80905000D03*
%TD*%
D22*
%TO.C,J25*%
X86800000Y-71720000D03*
D23*
X86800000Y-74260000D03*
X86800000Y-76800000D03*
X86800000Y-79340000D03*
X86800000Y-81880000D03*
X86800000Y-84420000D03*
%TD*%
D20*
%TO.C,J27*%
X126380001Y-70605000D03*
D21*
X127829999Y-70605000D03*
%TD*%
D43*
%TO.C,C23*%
X91850000Y-82400000D03*
X90300000Y-82400000D03*
%TD*%
D16*
%TO.C,R30*%
X93250000Y-82399998D03*
X94900000Y-82399998D03*
%TD*%
D20*
%TO.C,J29*%
X112605004Y-70605000D03*
D21*
X114055002Y-70605000D03*
%TD*%
D43*
%TO.C,C24*%
X113970000Y-73605000D03*
X112420000Y-73605000D03*
%TD*%
D35*
%TO.C,R32*%
X120905000Y-70605000D03*
X119255000Y-70605000D03*
%TD*%
D31*
%TO.C,C28*%
X117805000Y-77455000D03*
X117805000Y-75905000D03*
%TD*%
D16*
%TO.C,R31*%
X130080000Y-73605000D03*
X131730000Y-73605000D03*
%TD*%
D45*
%TO.C,U54*%
X94334264Y-71558578D03*
X93364264Y-71558578D03*
X92394264Y-71558578D03*
X91424264Y-71558578D03*
X91424264Y-70158578D03*
X92394264Y-70158578D03*
X93364264Y-70158578D03*
X94334264Y-70158578D03*
%TD*%
D36*
%TO.C,U52*%
X119515000Y-81565000D03*
X125295000Y-81565000D03*
D37*
X119155000Y-80120000D03*
X119954999Y-80120000D03*
D38*
X121155000Y-80120001D03*
X122155000Y-80120000D03*
X122655000Y-80120000D03*
X123655000Y-80120001D03*
D37*
X124855001Y-80120000D03*
X125655000Y-80120000D03*
X125655000Y-80120000D03*
X124855001Y-80120000D03*
D38*
X124155000Y-80120000D03*
X123155000Y-80120000D03*
X121655000Y-80120000D03*
X120655000Y-80120000D03*
D37*
X119954999Y-80120000D03*
X119155000Y-80120000D03*
D39*
X118085000Y-81035000D03*
D40*
X118085000Y-85215000D03*
D39*
X126725000Y-81035000D03*
D40*
X126725000Y-85215000D03*
%TD*%
D11*
%TO.C,U62*%
X96975000Y-86400000D03*
X96975000Y-85899999D03*
X96975000Y-85399999D03*
X96975000Y-84899998D03*
X94625000Y-84899998D03*
X94625000Y-85399999D03*
X94625000Y-85899999D03*
X94625000Y-86400000D03*
D12*
X95800000Y-85649999D03*
%TD*%
D26*
%TO.C,R27*%
X90400000Y-79425000D03*
X90400000Y-77775000D03*
%TD*%
D46*
%TO.C,TP4*%
X93305000Y-76005000D03*
%TD*%
D19*
%TO.C,C27*%
X125730000Y-77405000D03*
X127280000Y-77405000D03*
%TD*%
D26*
%TO.C,R28*%
X90400000Y-76374999D03*
X90400000Y-74724999D03*
%TD*%
D29*
%TO.C,R26*%
X106405000Y-84167500D03*
X106405000Y-81242500D03*
%TD*%
D30*
%TO.C,R25*%
X106405000Y-85667500D03*
X106405000Y-79742500D03*
%TD*%
D16*
%TO.C,R29*%
X130080000Y-70905000D03*
X131730000Y-70905000D03*
%TD*%
D27*
%TO.C,U59*%
X101087500Y-74400000D03*
X101087500Y-75000000D03*
X102387500Y-75000000D03*
X102387500Y-74400000D03*
D47*
X101737500Y-74700001D03*
%TD*%
D15*
%TO.C,U50*%
X92805000Y-78105000D03*
X92805000Y-78755000D03*
X92805000Y-79405000D03*
X92805000Y-80055000D03*
X94605000Y-80055000D03*
X94605000Y-79405000D03*
X94605000Y-78755000D03*
X94605000Y-78105000D03*
%TD*%
%TO.C,U65*%
X146299999Y-74550000D03*
X146300000Y-75200000D03*
X146299999Y-75850000D03*
X148100001Y-75850000D03*
X148100000Y-75200000D03*
X148100001Y-74550000D03*
%TD*%
D20*
%TO.C,J39*%
X166055002Y-70605000D03*
D21*
X167505000Y-70605000D03*
%TD*%
D22*
%TO.C,J36*%
X181305000Y-77585000D03*
D23*
X181305000Y-80125000D03*
X181305000Y-82665000D03*
X181305000Y-85205000D03*
%TD*%
D18*
%TO.C,U67*%
X157242500Y-76880000D03*
X157242500Y-76230000D03*
X157242500Y-75580000D03*
X157242500Y-74930000D03*
X154967500Y-74930000D03*
X154967500Y-75580000D03*
X154967500Y-76230000D03*
X154967500Y-76880000D03*
%TD*%
D29*
%TO.C,R34*%
X156405000Y-84167500D03*
X156405000Y-81242500D03*
%TD*%
D30*
%TO.C,R33*%
X156405000Y-85667500D03*
X156405000Y-79742500D03*
%TD*%
D44*
%TO.C,U72*%
X170830000Y-73305000D03*
X170830000Y-74255000D03*
X170830000Y-75205000D03*
X173105000Y-75205000D03*
X173105000Y-73305000D03*
%TD*%
D11*
%TO.C,U78*%
X146975000Y-86400000D03*
X146975000Y-85899999D03*
X146975000Y-85399999D03*
X146975000Y-84899998D03*
X144625000Y-84899998D03*
X144625000Y-85399999D03*
X144625000Y-85899999D03*
X144625000Y-86400000D03*
D12*
X145800000Y-85649999D03*
%TD*%
D16*
%TO.C,R38*%
X143250000Y-82399998D03*
X144900000Y-82399998D03*
%TD*%
D22*
%TO.C,J34*%
X163505000Y-77585000D03*
D23*
X163505000Y-80125000D03*
X163505000Y-82665000D03*
X163505000Y-85205000D03*
%TD*%
D13*
%TO.C,U74*%
X152200000Y-70000000D03*
X151250000Y-70000000D03*
X151250000Y-71900000D03*
X152200000Y-71900000D03*
D14*
X151725000Y-70950000D03*
%TD*%
D26*
%TO.C,R35*%
X140400000Y-79425000D03*
X140400000Y-77775000D03*
%TD*%
D27*
%TO.C,U76*%
X150550000Y-77550000D03*
X150550000Y-78200000D03*
X150550000Y-78850000D03*
X152250000Y-78850000D03*
X152250000Y-78200000D03*
X152250000Y-77550000D03*
D28*
X151400000Y-78200000D03*
%TD*%
D41*
%TO.C,U69*%
X152400000Y-86000000D03*
X152400000Y-85500000D03*
X152400000Y-85000000D03*
X149650000Y-85000000D03*
X149650000Y-85500000D03*
X149650000Y-86000000D03*
%TD*%
D24*
%TO.C,J38*%
X147800000Y-79670001D03*
D25*
X147800000Y-78400001D03*
%TD*%
D31*
%TO.C,C35*%
X167805000Y-77455000D03*
X167805000Y-75905000D03*
%TD*%
D32*
%TO.C,IC5*%
X147400000Y-71700000D03*
X148200000Y-71700000D03*
X148200000Y-70100000D03*
X147400000Y-70100000D03*
D33*
X147800000Y-70900000D03*
%TD*%
D43*
%TO.C,C33*%
X141775000Y-85400000D03*
X140225000Y-85400000D03*
%TD*%
D16*
%TO.C,R37*%
X180080000Y-70905000D03*
X181730000Y-70905000D03*
%TD*%
D22*
%TO.C,J33*%
X136800000Y-71720000D03*
D23*
X136800000Y-74260000D03*
X136800000Y-76800000D03*
X136800000Y-79340000D03*
X136800000Y-81880000D03*
X136800000Y-84420000D03*
%TD*%
D20*
%TO.C,J35*%
X176380001Y-70605000D03*
D21*
X177829999Y-70605000D03*
%TD*%
D19*
%TO.C,C32*%
X165555000Y-73605000D03*
X167105000Y-73605000D03*
%TD*%
D20*
%TO.C,J37*%
X162605004Y-70605000D03*
D21*
X164055002Y-70605000D03*
%TD*%
D43*
%TO.C,C31*%
X163970000Y-73605000D03*
X162420000Y-73605000D03*
%TD*%
D35*
%TO.C,R40*%
X170905000Y-70605000D03*
X169255000Y-70605000D03*
%TD*%
D34*
%TO.C,U79*%
X150880000Y-80905000D03*
X150879999Y-81405000D03*
X150880000Y-81905000D03*
X152305000Y-81905000D03*
X152305001Y-81405000D03*
X152305000Y-80905000D03*
%TD*%
D19*
%TO.C,C34*%
X175730000Y-77405000D03*
X177280000Y-77405000D03*
%TD*%
D43*
%TO.C,C30*%
X141850000Y-82400000D03*
X140300000Y-82400000D03*
%TD*%
D45*
%TO.C,U70*%
X144334264Y-71558578D03*
X143364264Y-71558578D03*
X142394264Y-71558578D03*
X141424264Y-71558578D03*
X141424264Y-70158578D03*
X142394264Y-70158578D03*
X143364264Y-70158578D03*
X144334264Y-70158578D03*
%TD*%
D42*
%TO.C,D9*%
X176605000Y-72955000D03*
X176605000Y-75055000D03*
%TD*%
D26*
%TO.C,R36*%
X140400000Y-76374999D03*
X140400000Y-74724999D03*
%TD*%
D17*
%TO.C,D10*%
X173955001Y-70605000D03*
X172379999Y-70605000D03*
%TD*%
D36*
%TO.C,U68*%
X169515000Y-81565000D03*
X175295000Y-81565000D03*
D37*
X169155000Y-80120000D03*
X169954999Y-80120000D03*
D38*
X171155000Y-80120001D03*
X172155000Y-80120000D03*
X172655000Y-80120000D03*
X173655000Y-80120001D03*
D37*
X174855001Y-80120000D03*
X175655000Y-80120000D03*
X175655000Y-80120000D03*
X174855001Y-80120000D03*
D38*
X174155000Y-80120000D03*
X173155000Y-80120000D03*
X171655000Y-80120000D03*
X170655000Y-80120000D03*
D37*
X169954999Y-80120000D03*
X169155000Y-80120000D03*
D39*
X168085000Y-81035000D03*
D40*
X168085000Y-85215000D03*
D39*
X176725000Y-81035000D03*
D40*
X176725000Y-85215000D03*
%TD*%
D16*
%TO.C,R39*%
X180080000Y-73605000D03*
X181730000Y-73605000D03*
%TD*%
D46*
%TO.C,TP5*%
X143305000Y-76005000D03*
%TD*%
D22*
%TO.C,J40*%
X157305000Y-71105000D03*
D23*
X154765000Y-71105000D03*
%TD*%
D27*
%TO.C,U75*%
X151087500Y-74400000D03*
X151087500Y-75000000D03*
X152387500Y-75000000D03*
X152387500Y-74400000D03*
D47*
X151737500Y-74700001D03*
%TD*%
D15*
%TO.C,U66*%
X142805000Y-78105000D03*
X142805000Y-78755000D03*
X142805000Y-79405000D03*
X142805000Y-80055000D03*
X144605000Y-80055000D03*
X144605000Y-79405000D03*
X144605000Y-78755000D03*
X144605000Y-78105000D03*
%TD*%
D19*
%TO.C,C29*%
X146450000Y-82400000D03*
X148000000Y-82400000D03*
%TD*%
D13*
%TO.C,U26*%
X102200000Y-50000000D03*
X101250000Y-50000000D03*
X101250000Y-51900000D03*
X102200000Y-51900000D03*
D14*
X101725000Y-50950000D03*
%TD*%
D27*
%TO.C,U28*%
X100550000Y-57550000D03*
X100550000Y-58200000D03*
X100550000Y-58850000D03*
X102250000Y-58850000D03*
X102250000Y-58200000D03*
X102250000Y-57550000D03*
D28*
X101400000Y-58200000D03*
%TD*%
D17*
%TO.C,D4*%
X123955001Y-50605000D03*
X122379999Y-50605000D03*
%TD*%
D22*
%TO.C,J10*%
X113505000Y-57585000D03*
D23*
X113505000Y-60125000D03*
X113505000Y-62665000D03*
X113505000Y-65205000D03*
%TD*%
D18*
%TO.C,U19*%
X107242500Y-56880000D03*
X107242500Y-56230000D03*
X107242500Y-55580000D03*
X107242500Y-54930000D03*
X104967500Y-54930000D03*
X104967500Y-55580000D03*
X104967500Y-56230000D03*
X104967500Y-56880000D03*
%TD*%
D22*
%TO.C,J12*%
X131305000Y-57585000D03*
D23*
X131305000Y-60125000D03*
X131305000Y-62665000D03*
X131305000Y-65205000D03*
%TD*%
D19*
%TO.C,C8*%
X96450000Y-62400000D03*
X98000000Y-62400000D03*
%TD*%
D26*
%TO.C,R11*%
X90400000Y-59425000D03*
X90400000Y-57775000D03*
%TD*%
D19*
%TO.C,C11*%
X115555000Y-53605000D03*
X117105000Y-53605000D03*
%TD*%
D11*
%TO.C,U30*%
X96975000Y-66400000D03*
X96975000Y-65899999D03*
X96975000Y-65399999D03*
X96975000Y-64899998D03*
X94625000Y-64899998D03*
X94625000Y-65399999D03*
X94625000Y-65899999D03*
X94625000Y-66400000D03*
D12*
X95800000Y-65649999D03*
%TD*%
D44*
%TO.C,U24*%
X120830000Y-53305000D03*
X120830000Y-54255000D03*
X120830000Y-55205000D03*
X123105000Y-55205000D03*
X123105000Y-53305000D03*
%TD*%
D41*
%TO.C,U21*%
X102400000Y-66000000D03*
X102400000Y-65500000D03*
X102400000Y-65000000D03*
X99650000Y-65000000D03*
X99650000Y-65500000D03*
X99650000Y-66000000D03*
%TD*%
D31*
%TO.C,C14*%
X117805000Y-57455000D03*
X117805000Y-55905000D03*
%TD*%
D42*
%TO.C,D3*%
X126605000Y-52955000D03*
X126605000Y-55055000D03*
%TD*%
D32*
%TO.C,IC2*%
X97400000Y-51700000D03*
X98200000Y-51700000D03*
X98200000Y-50100000D03*
X97400000Y-50100000D03*
D33*
X97800000Y-50900000D03*
%TD*%
D16*
%TO.C,R13*%
X130080000Y-50905000D03*
X131730000Y-50905000D03*
%TD*%
D43*
%TO.C,C12*%
X91775000Y-65400000D03*
X90225000Y-65400000D03*
%TD*%
D34*
%TO.C,U31*%
X100880000Y-60905000D03*
X100879999Y-61405000D03*
X100880000Y-61905000D03*
X102305000Y-61905000D03*
X102305001Y-61405000D03*
X102305000Y-60905000D03*
%TD*%
D20*
%TO.C,J11*%
X126380001Y-50605000D03*
D21*
X127829999Y-50605000D03*
%TD*%
D15*
%TO.C,U17*%
X96299999Y-54550000D03*
X96300000Y-55200000D03*
X96299999Y-55850000D03*
X98100001Y-55850000D03*
X98100000Y-55200000D03*
X98100001Y-54550000D03*
%TD*%
D20*
%TO.C,J13*%
X112605004Y-50605000D03*
D21*
X114055002Y-50605000D03*
%TD*%
D43*
%TO.C,C10*%
X113970000Y-53605000D03*
X112420000Y-53605000D03*
%TD*%
D22*
%TO.C,J9*%
X86800000Y-51720000D03*
D23*
X86800000Y-54260000D03*
X86800000Y-56800000D03*
X86800000Y-59340000D03*
X86800000Y-61880000D03*
X86800000Y-64420000D03*
%TD*%
D16*
%TO.C,R14*%
X93250000Y-62399998D03*
X94900000Y-62399998D03*
%TD*%
D19*
%TO.C,C13*%
X125730000Y-57405000D03*
X127280000Y-57405000D03*
%TD*%
D29*
%TO.C,R10*%
X106405000Y-64167500D03*
X106405000Y-61242500D03*
%TD*%
D30*
%TO.C,R9*%
X106405000Y-65667500D03*
X106405000Y-59742500D03*
%TD*%
D16*
%TO.C,R15*%
X130080000Y-53605000D03*
X131730000Y-53605000D03*
%TD*%
D45*
%TO.C,U22*%
X94334264Y-51558578D03*
X93364264Y-51558578D03*
X92394264Y-51558578D03*
X91424264Y-51558578D03*
X91424264Y-50158578D03*
X92394264Y-50158578D03*
X93364264Y-50158578D03*
X94334264Y-50158578D03*
%TD*%
D24*
%TO.C,J14*%
X97800000Y-59670001D03*
D25*
X97800000Y-58400001D03*
%TD*%
D46*
%TO.C,TP2*%
X93305000Y-56005000D03*
%TD*%
D35*
%TO.C,R16*%
X120905000Y-50605000D03*
X119255000Y-50605000D03*
%TD*%
D26*
%TO.C,R12*%
X90400000Y-56374999D03*
X90400000Y-54724999D03*
%TD*%
D43*
%TO.C,C9*%
X91850000Y-62400000D03*
X90300000Y-62400000D03*
%TD*%
D20*
%TO.C,J15*%
X116055002Y-50605000D03*
D21*
X117505000Y-50605000D03*
%TD*%
D36*
%TO.C,U20*%
X119515000Y-61565000D03*
X125295000Y-61565000D03*
D37*
X119155000Y-60120000D03*
X119954999Y-60120000D03*
D38*
X121155000Y-60120001D03*
X122155000Y-60120000D03*
X122655000Y-60120000D03*
X123655000Y-60120001D03*
D37*
X124855001Y-60120000D03*
X125655000Y-60120000D03*
X125655000Y-60120000D03*
X124855001Y-60120000D03*
D38*
X124155000Y-60120000D03*
X123155000Y-60120000D03*
X121655000Y-60120000D03*
X120655000Y-60120000D03*
D37*
X119954999Y-60120000D03*
X119155000Y-60120000D03*
D39*
X118085000Y-61035000D03*
D40*
X118085000Y-65215000D03*
D39*
X126725000Y-61035000D03*
D40*
X126725000Y-65215000D03*
%TD*%
D27*
%TO.C,U27*%
X101087500Y-54400000D03*
X101087500Y-55000000D03*
X102387500Y-55000000D03*
X102387500Y-54400000D03*
D47*
X101737500Y-54700001D03*
%TD*%
D22*
%TO.C,J16*%
X107305000Y-51105000D03*
D23*
X104765000Y-51105000D03*
%TD*%
D15*
%TO.C,U18*%
X92805000Y-58105000D03*
X92805000Y-58755000D03*
X92805000Y-59405000D03*
X92805000Y-60055000D03*
X94605000Y-60055000D03*
X94605000Y-59405000D03*
X94605000Y-58755000D03*
X94605000Y-58105000D03*
%TD*%
D27*
%TO.C,U140*%
X150550000Y-117550000D03*
X150550000Y-118200000D03*
X150550000Y-118850000D03*
X152250000Y-118850000D03*
X152250000Y-118200000D03*
X152250000Y-117550000D03*
D28*
X151400000Y-118200000D03*
%TD*%
D22*
%TO.C,J72*%
X157305000Y-111105000D03*
D23*
X154765000Y-111105000D03*
%TD*%
D17*
%TO.C,D18*%
X173955001Y-110605000D03*
X172379999Y-110605000D03*
%TD*%
D15*
%TO.C,U129*%
X146299999Y-114550000D03*
X146300000Y-115200000D03*
X146299999Y-115850000D03*
X148100001Y-115850000D03*
X148100000Y-115200000D03*
X148100001Y-114550000D03*
%TD*%
D19*
%TO.C,C57*%
X146450000Y-122400000D03*
X148000000Y-122400000D03*
%TD*%
D18*
%TO.C,U131*%
X157242500Y-116880000D03*
X157242500Y-116230000D03*
X157242500Y-115580000D03*
X157242500Y-114930000D03*
X154967500Y-114930000D03*
X154967500Y-115580000D03*
X154967500Y-116230000D03*
X154967500Y-116880000D03*
%TD*%
D16*
%TO.C,R70*%
X143250000Y-122399998D03*
X144900000Y-122399998D03*
%TD*%
D22*
%TO.C,J68*%
X181305000Y-117585000D03*
D23*
X181305000Y-120125000D03*
X181305000Y-122665000D03*
X181305000Y-125205000D03*
%TD*%
D20*
%TO.C,J71*%
X166055002Y-110605000D03*
D21*
X167505000Y-110605000D03*
%TD*%
D19*
%TO.C,C60*%
X165555000Y-113605000D03*
X167105000Y-113605000D03*
%TD*%
D24*
%TO.C,J70*%
X147800000Y-119670001D03*
D25*
X147800000Y-118400001D03*
%TD*%
D42*
%TO.C,D17*%
X176605000Y-112955000D03*
X176605000Y-115055000D03*
%TD*%
D43*
%TO.C,C61*%
X141775000Y-125400000D03*
X140225000Y-125400000D03*
%TD*%
D34*
%TO.C,U143*%
X150880000Y-120905000D03*
X150879999Y-121405000D03*
X150880000Y-121905000D03*
X152305000Y-121905000D03*
X152305001Y-121405000D03*
X152305000Y-120905000D03*
%TD*%
D31*
%TO.C,C63*%
X167805000Y-117455000D03*
X167805000Y-115905000D03*
%TD*%
D26*
%TO.C,R67*%
X140400000Y-119425000D03*
X140400000Y-117775000D03*
%TD*%
D20*
%TO.C,J67*%
X176380001Y-110605000D03*
D21*
X177829999Y-110605000D03*
%TD*%
D41*
%TO.C,U133*%
X152400000Y-126000000D03*
X152400000Y-125500000D03*
X152400000Y-125000000D03*
X149650000Y-125000000D03*
X149650000Y-125500000D03*
X149650000Y-126000000D03*
%TD*%
D20*
%TO.C,J69*%
X162605004Y-110605000D03*
D21*
X164055002Y-110605000D03*
%TD*%
D43*
%TO.C,C59*%
X163970000Y-113605000D03*
X162420000Y-113605000D03*
%TD*%
D36*
%TO.C,U132*%
X169515000Y-121565000D03*
X175295000Y-121565000D03*
D37*
X169155000Y-120120000D03*
X169954999Y-120120000D03*
D38*
X171155000Y-120120001D03*
X172155000Y-120120000D03*
X172655000Y-120120000D03*
X173655000Y-120120001D03*
D37*
X174855001Y-120120000D03*
X175655000Y-120120000D03*
X175655000Y-120120000D03*
X174855001Y-120120000D03*
D38*
X174155000Y-120120000D03*
X173155000Y-120120000D03*
X171655000Y-120120000D03*
X170655000Y-120120000D03*
D37*
X169954999Y-120120000D03*
X169155000Y-120120000D03*
D39*
X168085000Y-121035000D03*
D40*
X168085000Y-125215000D03*
D39*
X176725000Y-121035000D03*
D40*
X176725000Y-125215000D03*
%TD*%
D13*
%TO.C,U138*%
X152200000Y-110000000D03*
X151250000Y-110000000D03*
X151250000Y-111900000D03*
X152200000Y-111900000D03*
D14*
X151725000Y-110950000D03*
%TD*%
D32*
%TO.C,IC9*%
X147400000Y-111700000D03*
X148200000Y-111700000D03*
X148200000Y-110100000D03*
X147400000Y-110100000D03*
D33*
X147800000Y-110900000D03*
%TD*%
D44*
%TO.C,U136*%
X170830000Y-113305000D03*
X170830000Y-114255000D03*
X170830000Y-115205000D03*
X173105000Y-115205000D03*
X173105000Y-113305000D03*
%TD*%
D19*
%TO.C,C62*%
X175730000Y-117405000D03*
X177280000Y-117405000D03*
%TD*%
D35*
%TO.C,R72*%
X170905000Y-110605000D03*
X169255000Y-110605000D03*
%TD*%
D16*
%TO.C,R69*%
X180080000Y-110905000D03*
X181730000Y-110905000D03*
%TD*%
%TO.C,R71*%
X180080000Y-113605000D03*
X181730000Y-113605000D03*
%TD*%
D43*
%TO.C,C58*%
X141850000Y-122400000D03*
X140300000Y-122400000D03*
%TD*%
D11*
%TO.C,U142*%
X146975000Y-126400000D03*
X146975000Y-125899999D03*
X146975000Y-125399999D03*
X146975000Y-124899998D03*
X144625000Y-124899998D03*
X144625000Y-125399999D03*
X144625000Y-125899999D03*
X144625000Y-126400000D03*
D12*
X145800000Y-125649999D03*
%TD*%
D46*
%TO.C,TP9*%
X143305000Y-116005000D03*
%TD*%
D22*
%TO.C,J65*%
X136800000Y-111720000D03*
D23*
X136800000Y-114260000D03*
X136800000Y-116800000D03*
X136800000Y-119340000D03*
X136800000Y-121880000D03*
X136800000Y-124420000D03*
%TD*%
D26*
%TO.C,R68*%
X140400000Y-116374999D03*
X140400000Y-114724999D03*
%TD*%
D22*
%TO.C,J66*%
X163505000Y-117585000D03*
D23*
X163505000Y-120125000D03*
X163505000Y-122665000D03*
X163505000Y-125205000D03*
%TD*%
D45*
%TO.C,U134*%
X144334264Y-111558578D03*
X143364264Y-111558578D03*
X142394264Y-111558578D03*
X141424264Y-111558578D03*
X141424264Y-110158578D03*
X142394264Y-110158578D03*
X143364264Y-110158578D03*
X144334264Y-110158578D03*
%TD*%
D29*
%TO.C,R66*%
X156405000Y-124167500D03*
X156405000Y-121242500D03*
%TD*%
D30*
%TO.C,R65*%
X156405000Y-125667500D03*
X156405000Y-119742500D03*
%TD*%
D27*
%TO.C,U139*%
X151087500Y-114400000D03*
X151087500Y-115000000D03*
X152387500Y-115000000D03*
X152387500Y-114400000D03*
D47*
X151737500Y-114700001D03*
%TD*%
D15*
%TO.C,U130*%
X142805000Y-118105000D03*
X142805000Y-118755000D03*
X142805000Y-119405000D03*
X142805000Y-120055000D03*
X144605000Y-120055000D03*
X144605000Y-119405000D03*
X144605000Y-118755000D03*
X144605000Y-118105000D03*
%TD*%
D11*
%TO.C,U158*%
X96975000Y-146400000D03*
X96975000Y-145899999D03*
X96975000Y-145399999D03*
X96975000Y-144899998D03*
X94625000Y-144899998D03*
X94625000Y-145399999D03*
X94625000Y-145899999D03*
X94625000Y-146400000D03*
D12*
X95800000Y-145649999D03*
%TD*%
D13*
%TO.C,U154*%
X102200000Y-130000000D03*
X101250000Y-130000000D03*
X101250000Y-131900000D03*
X102200000Y-131900000D03*
D14*
X101725000Y-130950000D03*
%TD*%
D26*
%TO.C,R75*%
X90400000Y-139425000D03*
X90400000Y-137775000D03*
%TD*%
D43*
%TO.C,C65*%
X91850000Y-142400000D03*
X90300000Y-142400000D03*
%TD*%
D18*
%TO.C,U147*%
X107242500Y-136880000D03*
X107242500Y-136230000D03*
X107242500Y-135580000D03*
X107242500Y-134930000D03*
X104967500Y-134930000D03*
X104967500Y-135580000D03*
X104967500Y-136230000D03*
X104967500Y-136880000D03*
%TD*%
D17*
%TO.C,D20*%
X123955001Y-130605000D03*
X122379999Y-130605000D03*
%TD*%
D19*
%TO.C,C64*%
X96450000Y-142400000D03*
X98000000Y-142400000D03*
%TD*%
D20*
%TO.C,J79*%
X116055002Y-130605000D03*
D21*
X117505000Y-130605000D03*
%TD*%
D22*
%TO.C,J80*%
X107305000Y-131105000D03*
D23*
X104765000Y-131105000D03*
%TD*%
D16*
%TO.C,R78*%
X93250000Y-142399998D03*
X94900000Y-142399998D03*
%TD*%
D44*
%TO.C,U152*%
X120830000Y-133305000D03*
X120830000Y-134255000D03*
X120830000Y-135205000D03*
X123105000Y-135205000D03*
X123105000Y-133305000D03*
%TD*%
D19*
%TO.C,C67*%
X115555000Y-133605000D03*
X117105000Y-133605000D03*
%TD*%
D29*
%TO.C,R74*%
X106405000Y-144167500D03*
X106405000Y-141242500D03*
%TD*%
D30*
%TO.C,R73*%
X106405000Y-145667500D03*
X106405000Y-139742500D03*
%TD*%
D15*
%TO.C,U145*%
X96299999Y-134550000D03*
X96300000Y-135200000D03*
X96299999Y-135850000D03*
X98100001Y-135850000D03*
X98100000Y-135200000D03*
X98100001Y-134550000D03*
%TD*%
D41*
%TO.C,U149*%
X102400000Y-146000000D03*
X102400000Y-145500000D03*
X102400000Y-145000000D03*
X99650000Y-145000000D03*
X99650000Y-145500000D03*
X99650000Y-146000000D03*
%TD*%
D43*
%TO.C,C68*%
X91775000Y-145400000D03*
X90225000Y-145400000D03*
%TD*%
D16*
%TO.C,R77*%
X130080000Y-130905000D03*
X131730000Y-130905000D03*
%TD*%
D22*
%TO.C,J74*%
X113505000Y-137585000D03*
D23*
X113505000Y-140125000D03*
X113505000Y-142665000D03*
X113505000Y-145205000D03*
%TD*%
D34*
%TO.C,U159*%
X100880000Y-140905000D03*
X100879999Y-141405000D03*
X100880000Y-141905000D03*
X102305000Y-141905000D03*
X102305001Y-141405000D03*
X102305000Y-140905000D03*
%TD*%
D20*
%TO.C,J75*%
X126380001Y-130605000D03*
D21*
X127829999Y-130605000D03*
%TD*%
D20*
%TO.C,J77*%
X112605004Y-130605000D03*
D21*
X114055002Y-130605000D03*
%TD*%
D31*
%TO.C,C70*%
X117805000Y-137455000D03*
X117805000Y-135905000D03*
%TD*%
D24*
%TO.C,J78*%
X97800000Y-139670001D03*
D25*
X97800000Y-138400001D03*
%TD*%
D27*
%TO.C,U156*%
X100550000Y-137550000D03*
X100550000Y-138200000D03*
X100550000Y-138850000D03*
X102250000Y-138850000D03*
X102250000Y-138200000D03*
X102250000Y-137550000D03*
D28*
X101400000Y-138200000D03*
%TD*%
D43*
%TO.C,C66*%
X113970000Y-133605000D03*
X112420000Y-133605000D03*
%TD*%
D35*
%TO.C,R80*%
X120905000Y-130605000D03*
X119255000Y-130605000D03*
%TD*%
D22*
%TO.C,J73*%
X86800000Y-131720000D03*
D23*
X86800000Y-134260000D03*
X86800000Y-136800000D03*
X86800000Y-139340000D03*
X86800000Y-141880000D03*
X86800000Y-144420000D03*
%TD*%
D36*
%TO.C,U148*%
X119515000Y-141565000D03*
X125295000Y-141565000D03*
D37*
X119155000Y-140120000D03*
X119954999Y-140120000D03*
D38*
X121155000Y-140120001D03*
X122155000Y-140120000D03*
X122655000Y-140120000D03*
X123655000Y-140120001D03*
D37*
X124855001Y-140120000D03*
X125655000Y-140120000D03*
X125655000Y-140120000D03*
X124855001Y-140120000D03*
D38*
X124155000Y-140120000D03*
X123155000Y-140120000D03*
X121655000Y-140120000D03*
X120655000Y-140120000D03*
D37*
X119954999Y-140120000D03*
X119155000Y-140120000D03*
D39*
X118085000Y-141035000D03*
D40*
X118085000Y-145215000D03*
D39*
X126725000Y-141035000D03*
D40*
X126725000Y-145215000D03*
%TD*%
D32*
%TO.C,IC10*%
X97400000Y-131700000D03*
X98200000Y-131700000D03*
X98200000Y-130100000D03*
X97400000Y-130100000D03*
D33*
X97800000Y-130900000D03*
%TD*%
D19*
%TO.C,C69*%
X125730000Y-137405000D03*
X127280000Y-137405000D03*
%TD*%
D16*
%TO.C,R79*%
X130080000Y-133605000D03*
X131730000Y-133605000D03*
%TD*%
D45*
%TO.C,U150*%
X94334264Y-131558578D03*
X93364264Y-131558578D03*
X92394264Y-131558578D03*
X91424264Y-131558578D03*
X91424264Y-130158578D03*
X92394264Y-130158578D03*
X93364264Y-130158578D03*
X94334264Y-130158578D03*
%TD*%
D46*
%TO.C,TP10*%
X93305000Y-136005000D03*
%TD*%
D26*
%TO.C,R76*%
X90400000Y-136374999D03*
X90400000Y-134724999D03*
%TD*%
D22*
%TO.C,J76*%
X131305000Y-137585000D03*
D23*
X131305000Y-140125000D03*
X131305000Y-142665000D03*
X131305000Y-145205000D03*
%TD*%
D27*
%TO.C,U155*%
X101087500Y-134400000D03*
X101087500Y-135000000D03*
X102387500Y-135000000D03*
X102387500Y-134400000D03*
D47*
X101737500Y-134700001D03*
%TD*%
D42*
%TO.C,D19*%
X126605000Y-132955000D03*
X126605000Y-135055000D03*
%TD*%
D15*
%TO.C,U146*%
X92805000Y-138105000D03*
X92805000Y-138755000D03*
X92805000Y-139405000D03*
X92805000Y-140055000D03*
X94605000Y-140055000D03*
X94605000Y-139405000D03*
X94605000Y-138755000D03*
X94605000Y-138105000D03*
%TD*%
D22*
%TO.C,J58*%
X113505000Y-117585000D03*
D23*
X113505000Y-120125000D03*
X113505000Y-122665000D03*
X113505000Y-125205000D03*
%TD*%
D19*
%TO.C,C53*%
X115555000Y-113605000D03*
X117105000Y-113605000D03*
%TD*%
D24*
%TO.C,J62*%
X97800000Y-119670001D03*
D25*
X97800000Y-118400001D03*
%TD*%
D22*
%TO.C,J64*%
X107305000Y-111105000D03*
D23*
X104765000Y-111105000D03*
%TD*%
D11*
%TO.C,U126*%
X96975000Y-126400000D03*
X96975000Y-125899999D03*
X96975000Y-125399999D03*
X96975000Y-124899998D03*
X94625000Y-124899998D03*
X94625000Y-125399999D03*
X94625000Y-125899999D03*
X94625000Y-126400000D03*
D12*
X95800000Y-125649999D03*
%TD*%
D26*
%TO.C,R59*%
X90400000Y-119425000D03*
X90400000Y-117775000D03*
%TD*%
D15*
%TO.C,U113*%
X96299999Y-114550000D03*
X96300000Y-115200000D03*
X96299999Y-115850000D03*
X98100001Y-115850000D03*
X98100000Y-115200000D03*
X98100001Y-114550000D03*
%TD*%
D13*
%TO.C,U122*%
X102200000Y-110000000D03*
X101250000Y-110000000D03*
X101250000Y-111900000D03*
X102200000Y-111900000D03*
D14*
X101725000Y-110950000D03*
%TD*%
D29*
%TO.C,R58*%
X106405000Y-124167500D03*
X106405000Y-121242500D03*
%TD*%
D30*
%TO.C,R57*%
X106405000Y-125667500D03*
X106405000Y-119742500D03*
%TD*%
D19*
%TO.C,C50*%
X96450000Y-122400000D03*
X98000000Y-122400000D03*
%TD*%
D43*
%TO.C,C51*%
X91850000Y-122400000D03*
X90300000Y-122400000D03*
%TD*%
D41*
%TO.C,U117*%
X102400000Y-126000000D03*
X102400000Y-125500000D03*
X102400000Y-125000000D03*
X99650000Y-125000000D03*
X99650000Y-125500000D03*
X99650000Y-126000000D03*
%TD*%
D31*
%TO.C,C56*%
X117805000Y-117455000D03*
X117805000Y-115905000D03*
%TD*%
D32*
%TO.C,IC8*%
X97400000Y-111700000D03*
X98200000Y-111700000D03*
X98200000Y-110100000D03*
X97400000Y-110100000D03*
D33*
X97800000Y-110900000D03*
%TD*%
D44*
%TO.C,U120*%
X120830000Y-113305000D03*
X120830000Y-114255000D03*
X120830000Y-115205000D03*
X123105000Y-115205000D03*
X123105000Y-113305000D03*
%TD*%
D16*
%TO.C,R61*%
X130080000Y-110905000D03*
X131730000Y-110905000D03*
%TD*%
D34*
%TO.C,U127*%
X100880000Y-120905000D03*
X100879999Y-121405000D03*
X100880000Y-121905000D03*
X102305000Y-121905000D03*
X102305001Y-121405000D03*
X102305000Y-120905000D03*
%TD*%
D22*
%TO.C,J57*%
X86800000Y-111720000D03*
D23*
X86800000Y-114260000D03*
X86800000Y-116800000D03*
X86800000Y-119340000D03*
X86800000Y-121880000D03*
X86800000Y-124420000D03*
%TD*%
D20*
%TO.C,J59*%
X126380001Y-110605000D03*
D21*
X127829999Y-110605000D03*
%TD*%
D20*
%TO.C,J61*%
X112605004Y-110605000D03*
D21*
X114055002Y-110605000D03*
%TD*%
D35*
%TO.C,R64*%
X120905000Y-110605000D03*
X119255000Y-110605000D03*
%TD*%
D36*
%TO.C,U116*%
X119515000Y-121565000D03*
X125295000Y-121565000D03*
D37*
X119155000Y-120120000D03*
X119954999Y-120120000D03*
D38*
X121155000Y-120120001D03*
X122155000Y-120120000D03*
X122655000Y-120120000D03*
X123655000Y-120120001D03*
D37*
X124855001Y-120120000D03*
X125655000Y-120120000D03*
X125655000Y-120120000D03*
X124855001Y-120120000D03*
D38*
X124155000Y-120120000D03*
X123155000Y-120120000D03*
X121655000Y-120120000D03*
X120655000Y-120120000D03*
D37*
X119954999Y-120120000D03*
X119155000Y-120120000D03*
D39*
X118085000Y-121035000D03*
D40*
X118085000Y-125215000D03*
D39*
X126725000Y-121035000D03*
D40*
X126725000Y-125215000D03*
%TD*%
D43*
%TO.C,C54*%
X91775000Y-125400000D03*
X90225000Y-125400000D03*
%TD*%
D42*
%TO.C,D15*%
X126605000Y-112955000D03*
X126605000Y-115055000D03*
%TD*%
D17*
%TO.C,D16*%
X123955001Y-110605000D03*
X122379999Y-110605000D03*
%TD*%
D19*
%TO.C,C55*%
X125730000Y-117405000D03*
X127280000Y-117405000D03*
%TD*%
D16*
%TO.C,R63*%
X130080000Y-113605000D03*
X131730000Y-113605000D03*
%TD*%
D45*
%TO.C,U118*%
X94334264Y-111558578D03*
X93364264Y-111558578D03*
X92394264Y-111558578D03*
X91424264Y-111558578D03*
X91424264Y-110158578D03*
X92394264Y-110158578D03*
X93364264Y-110158578D03*
X94334264Y-110158578D03*
%TD*%
D22*
%TO.C,J60*%
X131305000Y-117585000D03*
D23*
X131305000Y-120125000D03*
X131305000Y-122665000D03*
X131305000Y-125205000D03*
%TD*%
D16*
%TO.C,R62*%
X93250000Y-122399998D03*
X94900000Y-122399998D03*
%TD*%
D46*
%TO.C,TP8*%
X93305000Y-116005000D03*
%TD*%
D18*
%TO.C,U115*%
X107242500Y-116880000D03*
X107242500Y-116230000D03*
X107242500Y-115580000D03*
X107242500Y-114930000D03*
X104967500Y-114930000D03*
X104967500Y-115580000D03*
X104967500Y-116230000D03*
X104967500Y-116880000D03*
%TD*%
D26*
%TO.C,R60*%
X90400000Y-116374999D03*
X90400000Y-114724999D03*
%TD*%
D43*
%TO.C,C52*%
X113970000Y-113605000D03*
X112420000Y-113605000D03*
%TD*%
D20*
%TO.C,J63*%
X116055002Y-110605000D03*
D21*
X117505000Y-110605000D03*
%TD*%
D27*
%TO.C,U123*%
X101087500Y-114400000D03*
X101087500Y-115000000D03*
X102387500Y-115000000D03*
X102387500Y-114400000D03*
D47*
X101737500Y-114700001D03*
%TD*%
D27*
%TO.C,U124*%
X100550000Y-117550000D03*
X100550000Y-118200000D03*
X100550000Y-118850000D03*
X102250000Y-118850000D03*
X102250000Y-118200000D03*
X102250000Y-117550000D03*
D28*
X101400000Y-118200000D03*
%TD*%
D15*
%TO.C,U114*%
X92805000Y-118105000D03*
X92805000Y-118755000D03*
X92805000Y-119405000D03*
X92805000Y-120055000D03*
X94605000Y-120055000D03*
X94605000Y-119405000D03*
X94605000Y-118755000D03*
X94605000Y-118105000D03*
%TD*%
M02*
