%TF.GenerationSoftware,KiCad,Pcbnew,9.0.4*%
%TF.CreationDate,2025-12-22T17:02:14-05:00*%
%TF.ProjectId,Mess-Sense+USBC,4d657373-2d53-4656-9e73-652b55534243,rev?*%
%TF.SameCoordinates,Original*%
%TF.FileFunction,Paste,Bot*%
%TF.FilePolarity,Positive*%
%FSLAX46Y46*%
G04 Gerber Fmt 4.6, Leading zero omitted, Abs format (unit mm)*
G04 Created by KiCad (PCBNEW 9.0.4) date 2025-12-22 17:02:14*
%MOMM*%
%LPD*%
G01*
G04 APERTURE LIST*
G04 Aperture macros list*
%AMRoundRect*
0 Rectangle with rounded corners*
0 $1 Rounding radius*
0 $2 $3 $4 $5 $6 $7 $8 $9 X,Y pos of 4 corners*
0 Add a 4 corners polygon primitive as box body*
4,1,4,$2,$3,$4,$5,$6,$7,$8,$9,$2,$3,0*
0 Add four circle primitives for the rounded corners*
1,1,$1+$1,$2,$3*
1,1,$1+$1,$4,$5*
1,1,$1+$1,$6,$7*
1,1,$1+$1,$8,$9*
0 Add four rect primitives between the rounded corners*
20,1,$1+$1,$2,$3,$4,$5,0*
20,1,$1+$1,$4,$5,$6,$7,0*
20,1,$1+$1,$6,$7,$8,$9,0*
20,1,$1+$1,$8,$9,$2,$3,0*%
G04 Aperture macros list end*
%ADD10C,0.250000*%
%ADD11C,0.235000*%
%ADD12RoundRect,0.150000X-0.825000X-0.150000X0.825000X-0.150000X0.825000X0.150000X-0.825000X0.150000X0*%
%ADD13C,0.260000*%
G04 APERTURE END LIST*
D10*
%TO.C,U7*%
X136147000Y-144643000D03*
X136147000Y-145043000D03*
X136547000Y-144643000D03*
X136547000Y-145043000D03*
%TD*%
D11*
%TO.C,U13*%
X126847000Y-144643000D03*
X126447000Y-144643000D03*
X126847000Y-145043000D03*
X126447000Y-145043000D03*
%TD*%
D12*
%TO.C,U16*%
X131622000Y-134348000D03*
X131622000Y-133078000D03*
X131622000Y-131808000D03*
X131622000Y-130538000D03*
X126672000Y-130538000D03*
X126672000Y-131808000D03*
X126672000Y-133078000D03*
X126672000Y-134348000D03*
%TD*%
D13*
%TO.C,U9*%
X131847000Y-145043000D03*
X131847000Y-144043000D03*
X131347000Y-145042999D03*
X131347000Y-144043001D03*
X130847000Y-145043000D03*
X130847000Y-144043000D03*
%TD*%
%TO.C,U137*%
X131847000Y-125043000D03*
X131847000Y-124043000D03*
X131347000Y-125042999D03*
X131347000Y-124043001D03*
X130847000Y-125043000D03*
X130847000Y-124043000D03*
%TD*%
D11*
%TO.C,U141*%
X126847000Y-124643000D03*
X126447000Y-124643000D03*
X126847000Y-125043000D03*
X126447000Y-125043000D03*
%TD*%
D10*
%TO.C,U135*%
X136147000Y-124643000D03*
X136147000Y-125043000D03*
X136547000Y-124643000D03*
X136547000Y-125043000D03*
%TD*%
D12*
%TO.C,U144*%
X131622000Y-114348000D03*
X131622000Y-113078000D03*
X131622000Y-111808000D03*
X131622000Y-110538000D03*
X126672000Y-110538000D03*
X126672000Y-111808000D03*
X126672000Y-113078000D03*
X126672000Y-114348000D03*
%TD*%
D10*
%TO.C,U23*%
X86547000Y-65043000D03*
X86547000Y-64643000D03*
X86147000Y-65043000D03*
X86147000Y-64643000D03*
%TD*%
%TO.C,U71*%
X136547000Y-85043000D03*
X136547000Y-84643000D03*
X136147000Y-85043000D03*
X136147000Y-84643000D03*
%TD*%
D11*
%TO.C,U93*%
X76447000Y-105043000D03*
X76847000Y-105043000D03*
X76447000Y-104643000D03*
X76847000Y-104643000D03*
%TD*%
D10*
%TO.C,U151*%
X86547000Y-145043000D03*
X86547000Y-144643000D03*
X86147000Y-145043000D03*
X86147000Y-144643000D03*
%TD*%
D12*
%TO.C,U80*%
X126672000Y-74348000D03*
X126672000Y-73078000D03*
X126672000Y-71808000D03*
X126672000Y-70538000D03*
X131622000Y-70538000D03*
X131622000Y-71808000D03*
X131622000Y-73078000D03*
X131622000Y-74348000D03*
%TD*%
D11*
%TO.C,U61*%
X76447000Y-85043000D03*
X76847000Y-85043000D03*
X76447000Y-84643000D03*
X76847000Y-84643000D03*
%TD*%
D12*
%TO.C,U64*%
X76672000Y-74348000D03*
X76672000Y-73078000D03*
X76672000Y-71808000D03*
X76672000Y-70538000D03*
X81622000Y-70538000D03*
X81622000Y-71808000D03*
X81622000Y-73078000D03*
X81622000Y-74348000D03*
%TD*%
D11*
%TO.C,U29*%
X76447000Y-65043000D03*
X76847000Y-65043000D03*
X76447000Y-64643000D03*
X76847000Y-64643000D03*
%TD*%
%TO.C,U157*%
X76447000Y-145043000D03*
X76847000Y-145043000D03*
X76447000Y-144643000D03*
X76847000Y-144643000D03*
%TD*%
D12*
%TO.C,U128*%
X76672000Y-114348000D03*
X76672000Y-113078000D03*
X76672000Y-111808000D03*
X76672000Y-110538000D03*
X81622000Y-110538000D03*
X81622000Y-111808000D03*
X81622000Y-113078000D03*
X81622000Y-114348000D03*
%TD*%
D13*
%TO.C,U121*%
X80847000Y-124043000D03*
X80847000Y-125043000D03*
X81347000Y-124043001D03*
X81347000Y-125042999D03*
X81847000Y-124043000D03*
X81847000Y-125043000D03*
%TD*%
D12*
%TO.C,U112*%
X126672000Y-94348000D03*
X126672000Y-93078000D03*
X126672000Y-91808000D03*
X126672000Y-90538000D03*
X131622000Y-90538000D03*
X131622000Y-91808000D03*
X131622000Y-93078000D03*
X131622000Y-94348000D03*
%TD*%
D10*
%TO.C,U87*%
X86547000Y-105043000D03*
X86547000Y-104643000D03*
X86147000Y-105043000D03*
X86147000Y-104643000D03*
%TD*%
D11*
%TO.C,U109*%
X126447000Y-105043000D03*
X126847000Y-105043000D03*
X126447000Y-104643000D03*
X126847000Y-104643000D03*
%TD*%
D10*
%TO.C,U103*%
X136547000Y-105043000D03*
X136547000Y-104643000D03*
X136147000Y-105043000D03*
X136147000Y-104643000D03*
%TD*%
%TO.C,U55*%
X86547000Y-85043000D03*
X86547000Y-84643000D03*
X86147000Y-85043000D03*
X86147000Y-84643000D03*
%TD*%
D11*
%TO.C,U125*%
X76447000Y-125043000D03*
X76847000Y-125043000D03*
X76447000Y-124643000D03*
X76847000Y-124643000D03*
%TD*%
D13*
%TO.C,U57*%
X80847000Y-84043000D03*
X80847000Y-85043000D03*
X81347000Y-84043001D03*
X81347000Y-85042999D03*
X81847000Y-84043000D03*
X81847000Y-85043000D03*
%TD*%
D10*
%TO.C,U119*%
X86547000Y-125043000D03*
X86547000Y-124643000D03*
X86147000Y-125043000D03*
X86147000Y-124643000D03*
%TD*%
D13*
%TO.C,U105*%
X130847000Y-104043000D03*
X130847000Y-105043000D03*
X131347000Y-104043001D03*
X131347000Y-105042999D03*
X131847000Y-104043000D03*
X131847000Y-105043000D03*
%TD*%
D12*
%TO.C,U160*%
X76672000Y-134348000D03*
X76672000Y-133078000D03*
X76672000Y-131808000D03*
X76672000Y-130538000D03*
X81622000Y-130538000D03*
X81622000Y-131808000D03*
X81622000Y-133078000D03*
X81622000Y-134348000D03*
%TD*%
%TO.C,U48*%
X126672000Y-54348000D03*
X126672000Y-53078000D03*
X126672000Y-51808000D03*
X126672000Y-50538000D03*
X131622000Y-50538000D03*
X131622000Y-51808000D03*
X131622000Y-53078000D03*
X131622000Y-54348000D03*
%TD*%
D13*
%TO.C,U41*%
X130847000Y-64043000D03*
X130847000Y-65043000D03*
X131347000Y-64043001D03*
X131347000Y-65042999D03*
X131847000Y-64043000D03*
X131847000Y-65043000D03*
%TD*%
%TO.C,U89*%
X80847000Y-104043000D03*
X80847000Y-105043000D03*
X81347000Y-104043001D03*
X81347000Y-105042999D03*
X81847000Y-104043000D03*
X81847000Y-105043000D03*
%TD*%
D11*
%TO.C,U45*%
X126447000Y-65043000D03*
X126847000Y-65043000D03*
X126447000Y-64643000D03*
X126847000Y-64643000D03*
%TD*%
D12*
%TO.C,U32*%
X76672000Y-54348000D03*
X76672000Y-53078000D03*
X76672000Y-51808000D03*
X76672000Y-50538000D03*
X81622000Y-50538000D03*
X81622000Y-51808000D03*
X81622000Y-53078000D03*
X81622000Y-54348000D03*
%TD*%
D13*
%TO.C,U153*%
X80847000Y-144043000D03*
X80847000Y-145043000D03*
X81347000Y-144043001D03*
X81347000Y-145042999D03*
X81847000Y-144043000D03*
X81847000Y-145043000D03*
%TD*%
%TO.C,U25*%
X80847000Y-64043000D03*
X80847000Y-65043000D03*
X81347000Y-64043001D03*
X81347000Y-65042999D03*
X81847000Y-64043000D03*
X81847000Y-65043000D03*
%TD*%
%TO.C,U73*%
X130847000Y-84043000D03*
X130847000Y-85043000D03*
X131347000Y-84043001D03*
X131347000Y-85042999D03*
X131847000Y-84043000D03*
X131847000Y-85043000D03*
%TD*%
D11*
%TO.C,U77*%
X126447000Y-85043000D03*
X126847000Y-85043000D03*
X126447000Y-84643000D03*
X126847000Y-84643000D03*
%TD*%
D12*
%TO.C,U96*%
X76672000Y-94348000D03*
X76672000Y-93078000D03*
X76672000Y-91808000D03*
X76672000Y-90538000D03*
X81622000Y-90538000D03*
X81622000Y-91808000D03*
X81622000Y-93078000D03*
X81622000Y-94348000D03*
%TD*%
D10*
%TO.C,U39*%
X136547000Y-65043000D03*
X136547000Y-64643000D03*
X136147000Y-65043000D03*
X136147000Y-64643000D03*
%TD*%
M02*
