%TF.GenerationSoftware,KiCad,Pcbnew,9.0.4*%
%TF.CreationDate,2025-12-18T23:06:58-05:00*%
%TF.ProjectId,untitled,756e7469-746c-4656-942e-6b696361645f,rev?*%
%TF.SameCoordinates,Original*%
%TF.FileFunction,Profile,NP*%
%FSLAX46Y46*%
G04 Gerber Fmt 4.6, Leading zero omitted, Abs format (unit mm)*
G04 Created by KiCad (PCBNEW 9.0.4) date 2025-12-18 23:06:58*
%MOMM*%
%LPD*%
G01*
G04 APERTURE LIST*
%TA.AperFunction,Profile*%
%ADD10C,1.000000*%
%TD*%
%TA.AperFunction,Profile*%
%ADD11C,0.050000*%
%TD*%
%TA.AperFunction,Profile*%
%ADD12C,0.100000*%
%TD*%
G04 APERTURE END LIST*
D10*
X120432619Y-34265227D02*
X120446597Y-140900000D01*
D11*
X70900000Y-36900000D02*
X170000000Y-36900000D01*
X170000000Y-136000000D01*
X70900000Y-136000000D01*
X70900000Y-36900000D01*
D12*
X95880000Y-118685000D02*
X95880000Y-134185000D01*
X96880000Y-134185000D02*
G75*
G02*
X95880000Y-134185000I-500000J0D01*
G01*
X95880000Y-118685000D02*
G75*
G02*
X96880000Y-118685000I500000J0D01*
G01*
X96880000Y-118685000D02*
X96880000Y-134185000D01*
X146880000Y-114185000D02*
G75*
G02*
X145880000Y-114185000I-500000J0D01*
G01*
X145880000Y-98685000D02*
G75*
G02*
X146880000Y-98685000I500000J0D01*
G01*
X146880000Y-98685000D02*
X146880000Y-114185000D01*
X145880000Y-98685000D02*
X145880000Y-114185000D01*
X95880000Y-98685000D02*
X95880000Y-114185000D01*
X96880000Y-114185000D02*
G75*
G02*
X95880000Y-114185000I-500000J0D01*
G01*
X95880000Y-98685000D02*
G75*
G02*
X96880000Y-98685000I500000J0D01*
G01*
X96880000Y-98685000D02*
X96880000Y-114185000D01*
X145880000Y-78685000D02*
X145880000Y-94185000D01*
X146880000Y-94185000D02*
G75*
G02*
X145880000Y-94185000I-500000J0D01*
G01*
X145880000Y-78685000D02*
G75*
G02*
X146880000Y-78685000I500000J0D01*
G01*
X146880000Y-78685000D02*
X146880000Y-94185000D01*
X96880000Y-94185000D02*
G75*
G02*
X95880000Y-94185000I-500000J0D01*
G01*
X95880000Y-78685000D02*
G75*
G02*
X96880000Y-78685000I500000J0D01*
G01*
X95880000Y-78685000D02*
X95880000Y-94185000D01*
X96880000Y-78685000D02*
X96880000Y-94185000D01*
X145880000Y-58685000D02*
X145880000Y-74185000D01*
X145880000Y-58685000D02*
G75*
G02*
X146880000Y-58685000I500000J0D01*
G01*
X146880000Y-74185000D02*
G75*
G02*
X145880000Y-74185000I-500000J0D01*
G01*
X146880000Y-58685000D02*
X146880000Y-74185000D01*
X95880000Y-58685000D02*
X95880000Y-74185000D01*
X96880000Y-74185000D02*
G75*
G02*
X95880000Y-74185000I-500000J0D01*
G01*
X95880000Y-58685000D02*
G75*
G02*
X96880000Y-58685000I500000J0D01*
G01*
X96880000Y-58685000D02*
X96880000Y-74185000D01*
X145880000Y-38685000D02*
X145880000Y-54185000D01*
X146880000Y-54185000D02*
G75*
G02*
X145880000Y-54185000I-500000J0D01*
G01*
X146880000Y-38685000D02*
X146880000Y-54185000D01*
X145880000Y-38685000D02*
G75*
G02*
X146880000Y-38685000I500000J0D01*
G01*
X95880000Y-38685000D02*
X95880000Y-54185000D01*
X96880000Y-54185000D02*
G75*
G02*
X95880000Y-54185000I-500000J0D01*
G01*
X95880000Y-38685000D02*
G75*
G02*
X96880000Y-38685000I500000J0D01*
G01*
X96880000Y-38685000D02*
X96880000Y-54185000D01*
D10*
X172400000Y-116465337D02*
X70200000Y-116479315D01*
X172200000Y-96365337D02*
X70000000Y-96379315D01*
X171900000Y-76465337D02*
X69700000Y-76479315D01*
X171900000Y-56400000D02*
X69700000Y-56413978D01*
D12*
X146880000Y-118685000D02*
X146880000Y-134185000D01*
X145880000Y-118685000D02*
G75*
G02*
X146880000Y-118685000I500000J0D01*
G01*
X145880000Y-118685000D02*
X145880000Y-134185000D01*
X146880000Y-134185000D02*
G75*
G02*
X145880000Y-134185000I-500000J0D01*
G01*
M02*
