%TF.GenerationSoftware,KiCad,Pcbnew,9.0.4*%
%TF.CreationDate,2025-12-18T23:06:58-05:00*%
%TF.ProjectId,untitled,756e7469-746c-4656-942e-6b696361645f,rev?*%
%TF.SameCoordinates,Original*%
%TF.FileFunction,Soldermask,Bot*%
%TF.FilePolarity,Negative*%
%FSLAX46Y46*%
G04 Gerber Fmt 4.6, Leading zero omitted, Abs format (unit mm)*
G04 Created by KiCad (PCBNEW 9.0.4) date 2025-12-18 23:06:58*
%MOMM*%
%LPD*%
G01*
G04 APERTURE LIST*
G04 Aperture macros list*
%AMRoundRect*
0 Rectangle with rounded corners*
0 $1 Rounding radius*
0 $2 $3 $4 $5 $6 $7 $8 $9 X,Y pos of 4 corners*
0 Add a 4 corners polygon primitive as box body*
4,1,4,$2,$3,$4,$5,$6,$7,$8,$9,$2,$3,0*
0 Add four circle primitives for the rounded corners*
1,1,$1+$1,$2,$3*
1,1,$1+$1,$4,$5*
1,1,$1+$1,$6,$7*
1,1,$1+$1,$8,$9*
0 Add four rect primitives between the rounded corners*
20,1,$1+$1,$2,$3,$4,$5,0*
20,1,$1+$1,$4,$5,$6,$7,0*
20,1,$1+$1,$6,$7,$8,$9,0*
20,1,$1+$1,$8,$9,$2,$3,0*%
G04 Aperture macros list end*
%ADD10R,1.700000X1.700000*%
%ADD11C,1.700000*%
%ADD12R,1.000000X1.000000*%
%ADD13C,1.000000*%
%ADD14C,0.235000*%
%ADD15C,0.464000*%
%ADD16C,0.250000*%
%ADD17C,0.650000*%
%ADD18O,1.000000X2.100000*%
%ADD19O,1.000000X1.600000*%
%ADD20RoundRect,0.150000X-0.825000X-0.150000X0.825000X-0.150000X0.825000X0.150000X-0.825000X0.150000X0*%
%ADD21R,0.850000X0.850000*%
G04 APERTURE END LIST*
D10*
%TO.C,J73*%
X73075000Y-120250000D03*
D11*
X73075000Y-122790000D03*
X73075000Y-125330000D03*
X73075000Y-127870000D03*
X73075000Y-130410000D03*
X73075000Y-132950000D03*
%TD*%
D12*
%TO.C,J78*%
X84075000Y-128200001D03*
D13*
X84075000Y-126930001D03*
%TD*%
D10*
%TO.C,J74*%
X99780000Y-126115000D03*
D11*
X99780000Y-128655000D03*
X99780000Y-131195000D03*
X99780000Y-133735000D03*
%TD*%
D14*
%TO.C,U157*%
X77175000Y-134130000D03*
X77575000Y-134130000D03*
X77175000Y-133730000D03*
X77575000Y-133730000D03*
%TD*%
D10*
%TO.C,J80*%
X93580000Y-119635000D03*
D11*
X91040000Y-119635000D03*
%TD*%
D15*
%TO.C,U153*%
X81575000Y-133130000D03*
X81575000Y-134130000D03*
X82075000Y-133130001D03*
X82075000Y-134129999D03*
X82575000Y-133130000D03*
X82575000Y-134130000D03*
%TD*%
D10*
%TO.C,J76*%
X117580000Y-126115000D03*
D11*
X117580000Y-128655000D03*
X117580000Y-131195000D03*
X117580000Y-133735000D03*
%TD*%
D16*
%TO.C,U151*%
X87275000Y-134130000D03*
X87275000Y-133730000D03*
X86875000Y-134130000D03*
X86875000Y-133730000D03*
%TD*%
D17*
%TO.C,U148*%
X105790000Y-130095000D03*
X111570000Y-130095000D03*
D18*
X104360000Y-129565000D03*
D19*
X104360000Y-133745000D03*
D18*
X113000000Y-129565000D03*
D19*
X113000000Y-133745000D03*
%TD*%
D20*
%TO.C,U160*%
X77400000Y-123435000D03*
X77400000Y-122165000D03*
X77400000Y-120895000D03*
X77400000Y-119625000D03*
X82350000Y-119625000D03*
X82350000Y-120895000D03*
X82350000Y-122165000D03*
X82350000Y-123435000D03*
%TD*%
D21*
%TO.C,TP10*%
X79580000Y-124535000D03*
%TD*%
D10*
%TO.C,J66*%
X149780000Y-106115000D03*
D11*
X149780000Y-108655000D03*
X149780000Y-111195000D03*
X149780000Y-113735000D03*
%TD*%
D21*
%TO.C,TP9*%
X129580000Y-104535000D03*
%TD*%
D12*
%TO.C,J70*%
X134075000Y-108200001D03*
D13*
X134075000Y-106930001D03*
%TD*%
D10*
%TO.C,J72*%
X143580000Y-99635000D03*
D11*
X141040000Y-99635000D03*
%TD*%
D10*
%TO.C,J68*%
X167580000Y-106115000D03*
D11*
X167580000Y-108655000D03*
X167580000Y-111195000D03*
X167580000Y-113735000D03*
%TD*%
D15*
%TO.C,U137*%
X131575000Y-113130000D03*
X131575000Y-114130000D03*
X132075000Y-113130001D03*
X132075000Y-114129999D03*
X132575000Y-113130000D03*
X132575000Y-114130000D03*
%TD*%
D16*
%TO.C,U135*%
X137275000Y-114130000D03*
X137275000Y-113730000D03*
X136875000Y-114130000D03*
X136875000Y-113730000D03*
%TD*%
D14*
%TO.C,U141*%
X127175000Y-114130000D03*
X127575000Y-114130000D03*
X127175000Y-113730000D03*
X127575000Y-113730000D03*
%TD*%
D17*
%TO.C,U132*%
X155790000Y-110095000D03*
X161570000Y-110095000D03*
D18*
X154360000Y-109565000D03*
D19*
X154360000Y-113745000D03*
D18*
X163000000Y-109565000D03*
D19*
X163000000Y-113745000D03*
%TD*%
D10*
%TO.C,J65*%
X123075000Y-100250000D03*
D11*
X123075000Y-102790000D03*
X123075000Y-105330000D03*
X123075000Y-107870000D03*
X123075000Y-110410000D03*
X123075000Y-112950000D03*
%TD*%
D20*
%TO.C,U144*%
X127400000Y-103435000D03*
X127400000Y-102165000D03*
X127400000Y-100895000D03*
X127400000Y-99625000D03*
X132350000Y-99625000D03*
X132350000Y-100895000D03*
X132350000Y-102165000D03*
X132350000Y-103435000D03*
%TD*%
D10*
%TO.C,J60*%
X117580000Y-106115000D03*
D11*
X117580000Y-108655000D03*
X117580000Y-111195000D03*
X117580000Y-113735000D03*
%TD*%
D21*
%TO.C,TP8*%
X79580000Y-104535000D03*
%TD*%
D12*
%TO.C,J62*%
X84075000Y-108200001D03*
D13*
X84075000Y-106930001D03*
%TD*%
D10*
%TO.C,J57*%
X73075000Y-100250000D03*
D11*
X73075000Y-102790000D03*
X73075000Y-105330000D03*
X73075000Y-107870000D03*
X73075000Y-110410000D03*
X73075000Y-112950000D03*
%TD*%
D10*
%TO.C,J64*%
X93580000Y-99635000D03*
D11*
X91040000Y-99635000D03*
%TD*%
D14*
%TO.C,U125*%
X77175000Y-114130000D03*
X77575000Y-114130000D03*
X77175000Y-113730000D03*
X77575000Y-113730000D03*
%TD*%
D15*
%TO.C,U121*%
X81575000Y-113130000D03*
X81575000Y-114130000D03*
X82075000Y-113130001D03*
X82075000Y-114129999D03*
X82575000Y-113130000D03*
X82575000Y-114130000D03*
%TD*%
D16*
%TO.C,U119*%
X87275000Y-114130000D03*
X87275000Y-113730000D03*
X86875000Y-114130000D03*
X86875000Y-113730000D03*
%TD*%
D17*
%TO.C,U116*%
X105790000Y-110095000D03*
X111570000Y-110095000D03*
D18*
X104360000Y-109565000D03*
D19*
X104360000Y-113745000D03*
D18*
X113000000Y-109565000D03*
D19*
X113000000Y-113745000D03*
%TD*%
D10*
%TO.C,J58*%
X99780000Y-106115000D03*
D11*
X99780000Y-108655000D03*
X99780000Y-111195000D03*
X99780000Y-113735000D03*
%TD*%
D20*
%TO.C,U128*%
X77400000Y-103435000D03*
X77400000Y-102165000D03*
X77400000Y-100895000D03*
X77400000Y-99625000D03*
X82350000Y-99625000D03*
X82350000Y-100895000D03*
X82350000Y-102165000D03*
X82350000Y-103435000D03*
%TD*%
D10*
%TO.C,J50*%
X149780000Y-86115000D03*
D11*
X149780000Y-88655000D03*
X149780000Y-91195000D03*
X149780000Y-93735000D03*
%TD*%
D10*
%TO.C,J52*%
X167580000Y-86115000D03*
D11*
X167580000Y-88655000D03*
X167580000Y-91195000D03*
X167580000Y-93735000D03*
%TD*%
D10*
%TO.C,J49*%
X123075000Y-80250000D03*
D11*
X123075000Y-82790000D03*
X123075000Y-85330000D03*
X123075000Y-87870000D03*
X123075000Y-90410000D03*
X123075000Y-92950000D03*
%TD*%
D12*
%TO.C,J54*%
X134075000Y-88200001D03*
D13*
X134075000Y-86930001D03*
%TD*%
D21*
%TO.C,TP7*%
X129580000Y-84535000D03*
%TD*%
D14*
%TO.C,U109*%
X127175000Y-94130000D03*
X127575000Y-94130000D03*
X127175000Y-93730000D03*
X127575000Y-93730000D03*
%TD*%
D15*
%TO.C,U105*%
X131575000Y-93130000D03*
X131575000Y-94130000D03*
X132075000Y-93130001D03*
X132075000Y-94129999D03*
X132575000Y-93130000D03*
X132575000Y-94130000D03*
%TD*%
D16*
%TO.C,U103*%
X137275000Y-94130000D03*
X137275000Y-93730000D03*
X136875000Y-94130000D03*
X136875000Y-93730000D03*
%TD*%
D17*
%TO.C,U100*%
X155790000Y-90095000D03*
X161570000Y-90095000D03*
D18*
X154360000Y-89565000D03*
D19*
X154360000Y-93745000D03*
D18*
X163000000Y-89565000D03*
D19*
X163000000Y-93745000D03*
%TD*%
D10*
%TO.C,J56*%
X143580000Y-79635000D03*
D11*
X141040000Y-79635000D03*
%TD*%
D20*
%TO.C,U112*%
X127400000Y-83435000D03*
X127400000Y-82165000D03*
X127400000Y-80895000D03*
X127400000Y-79625000D03*
X132350000Y-79625000D03*
X132350000Y-80895000D03*
X132350000Y-82165000D03*
X132350000Y-83435000D03*
%TD*%
D10*
%TO.C,J44*%
X117580000Y-86115000D03*
D11*
X117580000Y-88655000D03*
X117580000Y-91195000D03*
X117580000Y-93735000D03*
%TD*%
D10*
%TO.C,J41*%
X73075000Y-80250000D03*
D11*
X73075000Y-82790000D03*
X73075000Y-85330000D03*
X73075000Y-87870000D03*
X73075000Y-90410000D03*
X73075000Y-92950000D03*
%TD*%
D12*
%TO.C,J46*%
X84075000Y-88200001D03*
D13*
X84075000Y-86930001D03*
%TD*%
D10*
%TO.C,J48*%
X93580000Y-79635000D03*
D11*
X91040000Y-79635000D03*
%TD*%
D10*
%TO.C,J42*%
X99780000Y-86115000D03*
D11*
X99780000Y-88655000D03*
X99780000Y-91195000D03*
X99780000Y-93735000D03*
%TD*%
D14*
%TO.C,U93*%
X77175000Y-94130000D03*
X77575000Y-94130000D03*
X77175000Y-93730000D03*
X77575000Y-93730000D03*
%TD*%
D15*
%TO.C,U89*%
X81575000Y-93130000D03*
X81575000Y-94130000D03*
X82075000Y-93130001D03*
X82075000Y-94129999D03*
X82575000Y-93130000D03*
X82575000Y-94130000D03*
%TD*%
D16*
%TO.C,U87*%
X87275000Y-94130000D03*
X87275000Y-93730000D03*
X86875000Y-94130000D03*
X86875000Y-93730000D03*
%TD*%
D17*
%TO.C,U84*%
X105790000Y-90095000D03*
X111570000Y-90095000D03*
D18*
X104360000Y-89565000D03*
D19*
X104360000Y-93745000D03*
D18*
X113000000Y-89565000D03*
D19*
X113000000Y-93745000D03*
%TD*%
D20*
%TO.C,U96*%
X77400000Y-83435000D03*
X77400000Y-82165000D03*
X77400000Y-80895000D03*
X77400000Y-79625000D03*
X82350000Y-79625000D03*
X82350000Y-80895000D03*
X82350000Y-82165000D03*
X82350000Y-83435000D03*
%TD*%
D21*
%TO.C,TP6*%
X79580000Y-84535000D03*
%TD*%
D10*
%TO.C,J34*%
X149780000Y-66115000D03*
D11*
X149780000Y-68655000D03*
X149780000Y-71195000D03*
X149780000Y-73735000D03*
%TD*%
D21*
%TO.C,TP5*%
X129580000Y-64535000D03*
%TD*%
D10*
%TO.C,J33*%
X123075000Y-60250000D03*
D11*
X123075000Y-62790000D03*
X123075000Y-65330000D03*
X123075000Y-67870000D03*
X123075000Y-70410000D03*
X123075000Y-72950000D03*
%TD*%
D10*
%TO.C,J36*%
X167580000Y-66115000D03*
D11*
X167580000Y-68655000D03*
X167580000Y-71195000D03*
X167580000Y-73735000D03*
%TD*%
D10*
%TO.C,J40*%
X143580000Y-59635000D03*
D11*
X141040000Y-59635000D03*
%TD*%
D14*
%TO.C,U77*%
X127175000Y-74130000D03*
X127575000Y-74130000D03*
X127175000Y-73730000D03*
X127575000Y-73730000D03*
%TD*%
D15*
%TO.C,U73*%
X131575000Y-73130000D03*
X131575000Y-74130000D03*
X132075000Y-73130001D03*
X132075000Y-74129999D03*
X132575000Y-73130000D03*
X132575000Y-74130000D03*
%TD*%
D16*
%TO.C,U71*%
X137275000Y-74130000D03*
X137275000Y-73730000D03*
X136875000Y-74130000D03*
X136875000Y-73730000D03*
%TD*%
D20*
%TO.C,U80*%
X127400000Y-63435000D03*
X127400000Y-62165000D03*
X127400000Y-60895000D03*
X127400000Y-59625000D03*
X132350000Y-59625000D03*
X132350000Y-60895000D03*
X132350000Y-62165000D03*
X132350000Y-63435000D03*
%TD*%
D17*
%TO.C,U68*%
X155790000Y-70095000D03*
X161570000Y-70095000D03*
D18*
X154360000Y-69565000D03*
D19*
X154360000Y-73745000D03*
D18*
X163000000Y-69565000D03*
D19*
X163000000Y-73745000D03*
%TD*%
D12*
%TO.C,J38*%
X134075000Y-68200001D03*
D13*
X134075000Y-66930001D03*
%TD*%
D10*
%TO.C,J26*%
X99780000Y-66115000D03*
D11*
X99780000Y-68655000D03*
X99780000Y-71195000D03*
X99780000Y-73735000D03*
%TD*%
D12*
%TO.C,J30*%
X84075000Y-68200001D03*
D13*
X84075000Y-66930001D03*
%TD*%
D10*
%TO.C,J32*%
X93580000Y-59635000D03*
D11*
X91040000Y-59635000D03*
%TD*%
D14*
%TO.C,U61*%
X77175000Y-74130000D03*
X77575000Y-74130000D03*
X77175000Y-73730000D03*
X77575000Y-73730000D03*
%TD*%
D15*
%TO.C,U57*%
X81575000Y-73130000D03*
X81575000Y-74130000D03*
X82075000Y-73130001D03*
X82075000Y-74129999D03*
X82575000Y-73130000D03*
X82575000Y-74130000D03*
%TD*%
D16*
%TO.C,U55*%
X87275000Y-74130000D03*
X87275000Y-73730000D03*
X86875000Y-74130000D03*
X86875000Y-73730000D03*
%TD*%
D21*
%TO.C,TP4*%
X79580000Y-64535000D03*
%TD*%
D17*
%TO.C,U52*%
X105790000Y-70095000D03*
X111570000Y-70095000D03*
D18*
X104360000Y-69565000D03*
D19*
X104360000Y-73745000D03*
D18*
X113000000Y-69565000D03*
D19*
X113000000Y-73745000D03*
%TD*%
D10*
%TO.C,J28*%
X117580000Y-66115000D03*
D11*
X117580000Y-68655000D03*
X117580000Y-71195000D03*
X117580000Y-73735000D03*
%TD*%
D10*
%TO.C,J25*%
X73075000Y-60250000D03*
D11*
X73075000Y-62790000D03*
X73075000Y-65330000D03*
X73075000Y-67870000D03*
X73075000Y-70410000D03*
X73075000Y-72950000D03*
%TD*%
D20*
%TO.C,U64*%
X77400000Y-63435000D03*
X77400000Y-62165000D03*
X77400000Y-60895000D03*
X77400000Y-59625000D03*
X82350000Y-59625000D03*
X82350000Y-60895000D03*
X82350000Y-62165000D03*
X82350000Y-63435000D03*
%TD*%
D10*
%TO.C,J20*%
X167580000Y-46115000D03*
D11*
X167580000Y-48655000D03*
X167580000Y-51195000D03*
X167580000Y-53735000D03*
%TD*%
D10*
%TO.C,J18*%
X149780000Y-46115000D03*
D11*
X149780000Y-48655000D03*
X149780000Y-51195000D03*
X149780000Y-53735000D03*
%TD*%
D21*
%TO.C,TP3*%
X129580000Y-44535000D03*
%TD*%
D10*
%TO.C,J17*%
X123075000Y-40250000D03*
D11*
X123075000Y-42790000D03*
X123075000Y-45330000D03*
X123075000Y-47870000D03*
X123075000Y-50410000D03*
X123075000Y-52950000D03*
%TD*%
D12*
%TO.C,J22*%
X134075000Y-48200001D03*
D13*
X134075000Y-46930001D03*
%TD*%
D10*
%TO.C,J24*%
X143580000Y-39635000D03*
D11*
X141040000Y-39635000D03*
%TD*%
D14*
%TO.C,U45*%
X127175000Y-54130000D03*
X127575000Y-54130000D03*
X127175000Y-53730000D03*
X127575000Y-53730000D03*
%TD*%
D15*
%TO.C,U41*%
X131575000Y-53130000D03*
X131575000Y-54130000D03*
X132075000Y-53130001D03*
X132075000Y-54129999D03*
X132575000Y-53130000D03*
X132575000Y-54130000D03*
%TD*%
D16*
%TO.C,U39*%
X137275000Y-54130000D03*
X137275000Y-53730000D03*
X136875000Y-54130000D03*
X136875000Y-53730000D03*
%TD*%
D17*
%TO.C,U36*%
X155790000Y-50095000D03*
X161570000Y-50095000D03*
D18*
X154360000Y-49565000D03*
D19*
X154360000Y-53745000D03*
D18*
X163000000Y-49565000D03*
D19*
X163000000Y-53745000D03*
%TD*%
D20*
%TO.C,U48*%
X127400000Y-43435000D03*
X127400000Y-42165000D03*
X127400000Y-40895000D03*
X127400000Y-39625000D03*
X132350000Y-39625000D03*
X132350000Y-40895000D03*
X132350000Y-42165000D03*
X132350000Y-43435000D03*
%TD*%
D21*
%TO.C,TP2*%
X79580000Y-44535000D03*
%TD*%
D10*
%TO.C,J12*%
X117580000Y-46115000D03*
D11*
X117580000Y-48655000D03*
X117580000Y-51195000D03*
X117580000Y-53735000D03*
%TD*%
D10*
%TO.C,J10*%
X99780000Y-46115000D03*
D11*
X99780000Y-48655000D03*
X99780000Y-51195000D03*
X99780000Y-53735000D03*
%TD*%
D10*
%TO.C,J9*%
X73075000Y-40250000D03*
D11*
X73075000Y-42790000D03*
X73075000Y-45330000D03*
X73075000Y-47870000D03*
X73075000Y-50410000D03*
X73075000Y-52950000D03*
%TD*%
D12*
%TO.C,J14*%
X84075000Y-48200001D03*
D13*
X84075000Y-46930001D03*
%TD*%
D10*
%TO.C,J16*%
X93580000Y-39635000D03*
D11*
X91040000Y-39635000D03*
%TD*%
D14*
%TO.C,U29*%
X77175000Y-54130000D03*
X77575000Y-54130000D03*
X77175000Y-53730000D03*
X77575000Y-53730000D03*
%TD*%
D15*
%TO.C,U25*%
X81575000Y-53130000D03*
X81575000Y-54130000D03*
X82075000Y-53130001D03*
X82075000Y-54129999D03*
X82575000Y-53130000D03*
X82575000Y-54130000D03*
%TD*%
D16*
%TO.C,U23*%
X87275000Y-54130000D03*
X87275000Y-53730000D03*
X86875000Y-54130000D03*
X86875000Y-53730000D03*
%TD*%
D17*
%TO.C,U20*%
X105790000Y-50095000D03*
X111570000Y-50095000D03*
D18*
X104360000Y-49565000D03*
D19*
X104360000Y-53745000D03*
D18*
X113000000Y-49565000D03*
D19*
X113000000Y-53745000D03*
%TD*%
D20*
%TO.C,U32*%
X77400000Y-43435000D03*
X77400000Y-42165000D03*
X77400000Y-40895000D03*
X77400000Y-39625000D03*
X82350000Y-39625000D03*
X82350000Y-40895000D03*
X82350000Y-42165000D03*
X82350000Y-43435000D03*
%TD*%
D10*
%TO.C,J8*%
X143580000Y-119635000D03*
D11*
X141040000Y-119635000D03*
%TD*%
D21*
%TO.C,TP1*%
X129580000Y-124535000D03*
%TD*%
D17*
%TO.C,U4*%
X155790000Y-130095000D03*
X161570000Y-130095000D03*
D18*
X154360000Y-129565000D03*
D19*
X154360000Y-133745000D03*
D18*
X163000000Y-129565000D03*
D19*
X163000000Y-133745000D03*
%TD*%
D10*
%TO.C,J2*%
X149780000Y-126115000D03*
D11*
X149780000Y-128655000D03*
X149780000Y-131195000D03*
X149780000Y-133735000D03*
%TD*%
D10*
%TO.C,J1*%
X123075000Y-120250000D03*
D11*
X123075000Y-122790000D03*
X123075000Y-125330000D03*
X123075000Y-127870000D03*
X123075000Y-130410000D03*
X123075000Y-132950000D03*
%TD*%
D12*
%TO.C,J6*%
X134075000Y-128200001D03*
D13*
X134075000Y-126930001D03*
%TD*%
D10*
%TO.C,J4*%
X167580000Y-126115000D03*
D11*
X167580000Y-128655000D03*
X167580000Y-131195000D03*
X167580000Y-133735000D03*
%TD*%
D15*
%TO.C,U9*%
X131575000Y-133130000D03*
X131575000Y-134130000D03*
X132075000Y-133130001D03*
X132075000Y-134129999D03*
X132575000Y-133130000D03*
X132575000Y-134130000D03*
%TD*%
D20*
%TO.C,U16*%
X127400000Y-123435000D03*
X127400000Y-122165000D03*
X127400000Y-120895000D03*
X127400000Y-119625000D03*
X132350000Y-119625000D03*
X132350000Y-120895000D03*
X132350000Y-122165000D03*
X132350000Y-123435000D03*
%TD*%
D16*
%TO.C,U7*%
X137275000Y-134130000D03*
X137275000Y-133730000D03*
X136875000Y-134130000D03*
X136875000Y-133730000D03*
%TD*%
D14*
%TO.C,U13*%
X127175000Y-134130000D03*
X127575000Y-134130000D03*
X127175000Y-133730000D03*
X127575000Y-133730000D03*
%TD*%
M02*
