%TF.GenerationSoftware,KiCad,Pcbnew,9.0.3*%
%TF.CreationDate,2025-08-20T13:04:33-04:00*%
%TF.ProjectId,Mess-Perfboard,4d657373-2d50-4657-9266-626f6172642e,rev?*%
%TF.SameCoordinates,Original*%
%TF.FileFunction,Legend,Bot*%
%TF.FilePolarity,Positive*%
%FSLAX46Y46*%
G04 Gerber Fmt 4.6, Leading zero omitted, Abs format (unit mm)*
G04 Created by KiCad (PCBNEW 9.0.3) date 2025-08-20 13:04:33*
%MOMM*%
%LPD*%
G01*
G04 APERTURE LIST*
%ADD10C,0.150000*%
G04 APERTURE END LIST*
D10*
X111570180Y-112568572D02*
X112570180Y-112568572D01*
X112570180Y-111901906D02*
X112570180Y-111711430D01*
X112570180Y-111711430D02*
X112522561Y-111616192D01*
X112522561Y-111616192D02*
X112427323Y-111520954D01*
X112427323Y-111520954D02*
X112236847Y-111473335D01*
X112236847Y-111473335D02*
X111903514Y-111473335D01*
X111903514Y-111473335D02*
X111713038Y-111520954D01*
X111713038Y-111520954D02*
X111617800Y-111616192D01*
X111617800Y-111616192D02*
X111570180Y-111711430D01*
X111570180Y-111711430D02*
X111570180Y-111901906D01*
X111570180Y-111901906D02*
X111617800Y-111997144D01*
X111617800Y-111997144D02*
X111713038Y-112092382D01*
X111713038Y-112092382D02*
X111903514Y-112140001D01*
X111903514Y-112140001D02*
X112236847Y-112140001D01*
X112236847Y-112140001D02*
X112427323Y-112092382D01*
X112427323Y-112092382D02*
X112522561Y-111997144D01*
X112522561Y-111997144D02*
X112570180Y-111901906D01*
X112570180Y-111187620D02*
X112570180Y-110616192D01*
X111570180Y-110901906D02*
X112570180Y-110901906D01*
X111474942Y-110520954D02*
X111474942Y-109759049D01*
X111570180Y-109520953D02*
X112570180Y-109520953D01*
X112570180Y-109520953D02*
X111855895Y-109187620D01*
X111855895Y-109187620D02*
X112570180Y-108854287D01*
X112570180Y-108854287D02*
X111570180Y-108854287D01*
X111617800Y-107997144D02*
X111570180Y-108092382D01*
X111570180Y-108092382D02*
X111570180Y-108282858D01*
X111570180Y-108282858D02*
X111617800Y-108378096D01*
X111617800Y-108378096D02*
X111713038Y-108425715D01*
X111713038Y-108425715D02*
X112093990Y-108425715D01*
X112093990Y-108425715D02*
X112189228Y-108378096D01*
X112189228Y-108378096D02*
X112236847Y-108282858D01*
X112236847Y-108282858D02*
X112236847Y-108092382D01*
X112236847Y-108092382D02*
X112189228Y-107997144D01*
X112189228Y-107997144D02*
X112093990Y-107949525D01*
X112093990Y-107949525D02*
X111998752Y-107949525D01*
X111998752Y-107949525D02*
X111903514Y-108425715D01*
X111617800Y-107568572D02*
X111570180Y-107473334D01*
X111570180Y-107473334D02*
X111570180Y-107282858D01*
X111570180Y-107282858D02*
X111617800Y-107187620D01*
X111617800Y-107187620D02*
X111713038Y-107140001D01*
X111713038Y-107140001D02*
X111760657Y-107140001D01*
X111760657Y-107140001D02*
X111855895Y-107187620D01*
X111855895Y-107187620D02*
X111903514Y-107282858D01*
X111903514Y-107282858D02*
X111903514Y-107425715D01*
X111903514Y-107425715D02*
X111951133Y-107520953D01*
X111951133Y-107520953D02*
X112046371Y-107568572D01*
X112046371Y-107568572D02*
X112093990Y-107568572D01*
X112093990Y-107568572D02*
X112189228Y-107520953D01*
X112189228Y-107520953D02*
X112236847Y-107425715D01*
X112236847Y-107425715D02*
X112236847Y-107282858D01*
X112236847Y-107282858D02*
X112189228Y-107187620D01*
X111617800Y-106759048D02*
X111570180Y-106663810D01*
X111570180Y-106663810D02*
X111570180Y-106473334D01*
X111570180Y-106473334D02*
X111617800Y-106378096D01*
X111617800Y-106378096D02*
X111713038Y-106330477D01*
X111713038Y-106330477D02*
X111760657Y-106330477D01*
X111760657Y-106330477D02*
X111855895Y-106378096D01*
X111855895Y-106378096D02*
X111903514Y-106473334D01*
X111903514Y-106473334D02*
X111903514Y-106616191D01*
X111903514Y-106616191D02*
X111951133Y-106711429D01*
X111951133Y-106711429D02*
X112046371Y-106759048D01*
X112046371Y-106759048D02*
X112093990Y-106759048D01*
X112093990Y-106759048D02*
X112189228Y-106711429D01*
X112189228Y-106711429D02*
X112236847Y-106616191D01*
X112236847Y-106616191D02*
X112236847Y-106473334D01*
X112236847Y-106473334D02*
X112189228Y-106378096D01*
X111570180Y-105140000D02*
X112570180Y-105140000D01*
X112570180Y-105140000D02*
X112570180Y-104759048D01*
X112570180Y-104759048D02*
X112522561Y-104663810D01*
X112522561Y-104663810D02*
X112474942Y-104616191D01*
X112474942Y-104616191D02*
X112379704Y-104568572D01*
X112379704Y-104568572D02*
X112236847Y-104568572D01*
X112236847Y-104568572D02*
X112141609Y-104616191D01*
X112141609Y-104616191D02*
X112093990Y-104663810D01*
X112093990Y-104663810D02*
X112046371Y-104759048D01*
X112046371Y-104759048D02*
X112046371Y-105140000D01*
X111617800Y-103759048D02*
X111570180Y-103854286D01*
X111570180Y-103854286D02*
X111570180Y-104044762D01*
X111570180Y-104044762D02*
X111617800Y-104140000D01*
X111617800Y-104140000D02*
X111713038Y-104187619D01*
X111713038Y-104187619D02*
X112093990Y-104187619D01*
X112093990Y-104187619D02*
X112189228Y-104140000D01*
X112189228Y-104140000D02*
X112236847Y-104044762D01*
X112236847Y-104044762D02*
X112236847Y-103854286D01*
X112236847Y-103854286D02*
X112189228Y-103759048D01*
X112189228Y-103759048D02*
X112093990Y-103711429D01*
X112093990Y-103711429D02*
X111998752Y-103711429D01*
X111998752Y-103711429D02*
X111903514Y-104187619D01*
X111570180Y-103282857D02*
X112236847Y-103282857D01*
X112046371Y-103282857D02*
X112141609Y-103235238D01*
X112141609Y-103235238D02*
X112189228Y-103187619D01*
X112189228Y-103187619D02*
X112236847Y-103092381D01*
X112236847Y-103092381D02*
X112236847Y-102997143D01*
X112236847Y-102806666D02*
X112236847Y-102425714D01*
X111570180Y-102663809D02*
X112427323Y-102663809D01*
X112427323Y-102663809D02*
X112522561Y-102616190D01*
X112522561Y-102616190D02*
X112570180Y-102520952D01*
X112570180Y-102520952D02*
X112570180Y-102425714D01*
X111570180Y-102092380D02*
X112570180Y-102092380D01*
X112189228Y-102092380D02*
X112236847Y-101997142D01*
X112236847Y-101997142D02*
X112236847Y-101806666D01*
X112236847Y-101806666D02*
X112189228Y-101711428D01*
X112189228Y-101711428D02*
X112141609Y-101663809D01*
X112141609Y-101663809D02*
X112046371Y-101616190D01*
X112046371Y-101616190D02*
X111760657Y-101616190D01*
X111760657Y-101616190D02*
X111665419Y-101663809D01*
X111665419Y-101663809D02*
X111617800Y-101711428D01*
X111617800Y-101711428D02*
X111570180Y-101806666D01*
X111570180Y-101806666D02*
X111570180Y-101997142D01*
X111570180Y-101997142D02*
X111617800Y-102092380D01*
X111570180Y-101044761D02*
X111617800Y-101139999D01*
X111617800Y-101139999D02*
X111665419Y-101187618D01*
X111665419Y-101187618D02*
X111760657Y-101235237D01*
X111760657Y-101235237D02*
X112046371Y-101235237D01*
X112046371Y-101235237D02*
X112141609Y-101187618D01*
X112141609Y-101187618D02*
X112189228Y-101139999D01*
X112189228Y-101139999D02*
X112236847Y-101044761D01*
X112236847Y-101044761D02*
X112236847Y-100901904D01*
X112236847Y-100901904D02*
X112189228Y-100806666D01*
X112189228Y-100806666D02*
X112141609Y-100759047D01*
X112141609Y-100759047D02*
X112046371Y-100711428D01*
X112046371Y-100711428D02*
X111760657Y-100711428D01*
X111760657Y-100711428D02*
X111665419Y-100759047D01*
X111665419Y-100759047D02*
X111617800Y-100806666D01*
X111617800Y-100806666D02*
X111570180Y-100901904D01*
X111570180Y-100901904D02*
X111570180Y-101044761D01*
X111570180Y-99854285D02*
X112093990Y-99854285D01*
X112093990Y-99854285D02*
X112189228Y-99901904D01*
X112189228Y-99901904D02*
X112236847Y-99997142D01*
X112236847Y-99997142D02*
X112236847Y-100187618D01*
X112236847Y-100187618D02*
X112189228Y-100282856D01*
X111617800Y-99854285D02*
X111570180Y-99949523D01*
X111570180Y-99949523D02*
X111570180Y-100187618D01*
X111570180Y-100187618D02*
X111617800Y-100282856D01*
X111617800Y-100282856D02*
X111713038Y-100330475D01*
X111713038Y-100330475D02*
X111808276Y-100330475D01*
X111808276Y-100330475D02*
X111903514Y-100282856D01*
X111903514Y-100282856D02*
X111951133Y-100187618D01*
X111951133Y-100187618D02*
X111951133Y-99949523D01*
X111951133Y-99949523D02*
X111998752Y-99854285D01*
X111570180Y-99378094D02*
X112236847Y-99378094D01*
X112046371Y-99378094D02*
X112141609Y-99330475D01*
X112141609Y-99330475D02*
X112189228Y-99282856D01*
X112189228Y-99282856D02*
X112236847Y-99187618D01*
X112236847Y-99187618D02*
X112236847Y-99092380D01*
X111570180Y-98330475D02*
X112570180Y-98330475D01*
X111617800Y-98330475D02*
X111570180Y-98425713D01*
X111570180Y-98425713D02*
X111570180Y-98616189D01*
X111570180Y-98616189D02*
X111617800Y-98711427D01*
X111617800Y-98711427D02*
X111665419Y-98759046D01*
X111665419Y-98759046D02*
X111760657Y-98806665D01*
X111760657Y-98806665D02*
X112046371Y-98806665D01*
X112046371Y-98806665D02*
X112141609Y-98759046D01*
X112141609Y-98759046D02*
X112189228Y-98711427D01*
X112189228Y-98711427D02*
X112236847Y-98616189D01*
X112236847Y-98616189D02*
X112236847Y-98425713D01*
X112236847Y-98425713D02*
X112189228Y-98330475D01*
X112570180Y-97235236D02*
X111570180Y-96901903D01*
X111570180Y-96901903D02*
X112570180Y-96568570D01*
X112474942Y-96282855D02*
X112522561Y-96235236D01*
X112522561Y-96235236D02*
X112570180Y-96139998D01*
X112570180Y-96139998D02*
X112570180Y-95901903D01*
X112570180Y-95901903D02*
X112522561Y-95806665D01*
X112522561Y-95806665D02*
X112474942Y-95759046D01*
X112474942Y-95759046D02*
X112379704Y-95711427D01*
X112379704Y-95711427D02*
X112284466Y-95711427D01*
X112284466Y-95711427D02*
X112141609Y-95759046D01*
X112141609Y-95759046D02*
X111570180Y-96330474D01*
X111570180Y-96330474D02*
X111570180Y-95711427D01*
X111665419Y-95282855D02*
X111617800Y-95235236D01*
X111617800Y-95235236D02*
X111570180Y-95282855D01*
X111570180Y-95282855D02*
X111617800Y-95330474D01*
X111617800Y-95330474D02*
X111665419Y-95282855D01*
X111665419Y-95282855D02*
X111570180Y-95282855D01*
X112570180Y-94616189D02*
X112570180Y-94520951D01*
X112570180Y-94520951D02*
X112522561Y-94425713D01*
X112522561Y-94425713D02*
X112474942Y-94378094D01*
X112474942Y-94378094D02*
X112379704Y-94330475D01*
X112379704Y-94330475D02*
X112189228Y-94282856D01*
X112189228Y-94282856D02*
X111951133Y-94282856D01*
X111951133Y-94282856D02*
X111760657Y-94330475D01*
X111760657Y-94330475D02*
X111665419Y-94378094D01*
X111665419Y-94378094D02*
X111617800Y-94425713D01*
X111617800Y-94425713D02*
X111570180Y-94520951D01*
X111570180Y-94520951D02*
X111570180Y-94616189D01*
X111570180Y-94616189D02*
X111617800Y-94711427D01*
X111617800Y-94711427D02*
X111665419Y-94759046D01*
X111665419Y-94759046D02*
X111760657Y-94806665D01*
X111760657Y-94806665D02*
X111951133Y-94854284D01*
X111951133Y-94854284D02*
X112189228Y-94854284D01*
X112189228Y-94854284D02*
X112379704Y-94806665D01*
X112379704Y-94806665D02*
X112474942Y-94759046D01*
X112474942Y-94759046D02*
X112522561Y-94711427D01*
X112522561Y-94711427D02*
X112570180Y-94616189D01*
X112141609Y-92949522D02*
X112189228Y-93044760D01*
X112189228Y-93044760D02*
X112236847Y-93092379D01*
X112236847Y-93092379D02*
X112332085Y-93139998D01*
X112332085Y-93139998D02*
X112379704Y-93139998D01*
X112379704Y-93139998D02*
X112474942Y-93092379D01*
X112474942Y-93092379D02*
X112522561Y-93044760D01*
X112522561Y-93044760D02*
X112570180Y-92949522D01*
X112570180Y-92949522D02*
X112570180Y-92759046D01*
X112570180Y-92759046D02*
X112522561Y-92663808D01*
X112522561Y-92663808D02*
X112474942Y-92616189D01*
X112474942Y-92616189D02*
X112379704Y-92568570D01*
X112379704Y-92568570D02*
X112332085Y-92568570D01*
X112332085Y-92568570D02*
X112236847Y-92616189D01*
X112236847Y-92616189D02*
X112189228Y-92663808D01*
X112189228Y-92663808D02*
X112141609Y-92759046D01*
X112141609Y-92759046D02*
X112141609Y-92949522D01*
X112141609Y-92949522D02*
X112093990Y-93044760D01*
X112093990Y-93044760D02*
X112046371Y-93092379D01*
X112046371Y-93092379D02*
X111951133Y-93139998D01*
X111951133Y-93139998D02*
X111760657Y-93139998D01*
X111760657Y-93139998D02*
X111665419Y-93092379D01*
X111665419Y-93092379D02*
X111617800Y-93044760D01*
X111617800Y-93044760D02*
X111570180Y-92949522D01*
X111570180Y-92949522D02*
X111570180Y-92759046D01*
X111570180Y-92759046D02*
X111617800Y-92663808D01*
X111617800Y-92663808D02*
X111665419Y-92616189D01*
X111665419Y-92616189D02*
X111760657Y-92568570D01*
X111760657Y-92568570D02*
X111951133Y-92568570D01*
X111951133Y-92568570D02*
X112046371Y-92616189D01*
X112046371Y-92616189D02*
X112093990Y-92663808D01*
X112093990Y-92663808D02*
X112141609Y-92759046D01*
X112617800Y-91425713D02*
X111332085Y-92282855D01*
X111570180Y-90568570D02*
X111570180Y-91139998D01*
X111570180Y-90854284D02*
X112570180Y-90854284D01*
X112570180Y-90854284D02*
X112427323Y-90949522D01*
X112427323Y-90949522D02*
X112332085Y-91044760D01*
X112332085Y-91044760D02*
X112284466Y-91139998D01*
X111570180Y-90092379D02*
X111570180Y-89901903D01*
X111570180Y-89901903D02*
X111617800Y-89806665D01*
X111617800Y-89806665D02*
X111665419Y-89759046D01*
X111665419Y-89759046D02*
X111808276Y-89663808D01*
X111808276Y-89663808D02*
X111998752Y-89616189D01*
X111998752Y-89616189D02*
X112379704Y-89616189D01*
X112379704Y-89616189D02*
X112474942Y-89663808D01*
X112474942Y-89663808D02*
X112522561Y-89711427D01*
X112522561Y-89711427D02*
X112570180Y-89806665D01*
X112570180Y-89806665D02*
X112570180Y-89997141D01*
X112570180Y-89997141D02*
X112522561Y-90092379D01*
X112522561Y-90092379D02*
X112474942Y-90139998D01*
X112474942Y-90139998D02*
X112379704Y-90187617D01*
X112379704Y-90187617D02*
X112141609Y-90187617D01*
X112141609Y-90187617D02*
X112046371Y-90139998D01*
X112046371Y-90139998D02*
X111998752Y-90092379D01*
X111998752Y-90092379D02*
X111951133Y-89997141D01*
X111951133Y-89997141D02*
X111951133Y-89806665D01*
X111951133Y-89806665D02*
X111998752Y-89711427D01*
X111998752Y-89711427D02*
X112046371Y-89663808D01*
X112046371Y-89663808D02*
X112141609Y-89616189D01*
X112617800Y-88473332D02*
X111332085Y-89330474D01*
X112474942Y-88187617D02*
X112522561Y-88139998D01*
X112522561Y-88139998D02*
X112570180Y-88044760D01*
X112570180Y-88044760D02*
X112570180Y-87806665D01*
X112570180Y-87806665D02*
X112522561Y-87711427D01*
X112522561Y-87711427D02*
X112474942Y-87663808D01*
X112474942Y-87663808D02*
X112379704Y-87616189D01*
X112379704Y-87616189D02*
X112284466Y-87616189D01*
X112284466Y-87616189D02*
X112141609Y-87663808D01*
X112141609Y-87663808D02*
X111570180Y-88235236D01*
X111570180Y-88235236D02*
X111570180Y-87616189D01*
X112570180Y-86711427D02*
X112570180Y-87187617D01*
X112570180Y-87187617D02*
X112093990Y-87235236D01*
X112093990Y-87235236D02*
X112141609Y-87187617D01*
X112141609Y-87187617D02*
X112189228Y-87092379D01*
X112189228Y-87092379D02*
X112189228Y-86854284D01*
X112189228Y-86854284D02*
X112141609Y-86759046D01*
X112141609Y-86759046D02*
X112093990Y-86711427D01*
X112093990Y-86711427D02*
X111998752Y-86663808D01*
X111998752Y-86663808D02*
X111760657Y-86663808D01*
X111760657Y-86663808D02*
X111665419Y-86711427D01*
X111665419Y-86711427D02*
X111617800Y-86759046D01*
X111617800Y-86759046D02*
X111570180Y-86854284D01*
X111570180Y-86854284D02*
X111570180Y-87092379D01*
X111570180Y-87092379D02*
X111617800Y-87187617D01*
X111617800Y-87187617D02*
X111665419Y-87235236D01*
X161570180Y-112568572D02*
X162570180Y-112568572D01*
X162570180Y-111901906D02*
X162570180Y-111711430D01*
X162570180Y-111711430D02*
X162522561Y-111616192D01*
X162522561Y-111616192D02*
X162427323Y-111520954D01*
X162427323Y-111520954D02*
X162236847Y-111473335D01*
X162236847Y-111473335D02*
X161903514Y-111473335D01*
X161903514Y-111473335D02*
X161713038Y-111520954D01*
X161713038Y-111520954D02*
X161617800Y-111616192D01*
X161617800Y-111616192D02*
X161570180Y-111711430D01*
X161570180Y-111711430D02*
X161570180Y-111901906D01*
X161570180Y-111901906D02*
X161617800Y-111997144D01*
X161617800Y-111997144D02*
X161713038Y-112092382D01*
X161713038Y-112092382D02*
X161903514Y-112140001D01*
X161903514Y-112140001D02*
X162236847Y-112140001D01*
X162236847Y-112140001D02*
X162427323Y-112092382D01*
X162427323Y-112092382D02*
X162522561Y-111997144D01*
X162522561Y-111997144D02*
X162570180Y-111901906D01*
X162570180Y-111187620D02*
X162570180Y-110616192D01*
X161570180Y-110901906D02*
X162570180Y-110901906D01*
X161474942Y-110520954D02*
X161474942Y-109759049D01*
X161570180Y-109520953D02*
X162570180Y-109520953D01*
X162570180Y-109520953D02*
X161855895Y-109187620D01*
X161855895Y-109187620D02*
X162570180Y-108854287D01*
X162570180Y-108854287D02*
X161570180Y-108854287D01*
X161617800Y-107997144D02*
X161570180Y-108092382D01*
X161570180Y-108092382D02*
X161570180Y-108282858D01*
X161570180Y-108282858D02*
X161617800Y-108378096D01*
X161617800Y-108378096D02*
X161713038Y-108425715D01*
X161713038Y-108425715D02*
X162093990Y-108425715D01*
X162093990Y-108425715D02*
X162189228Y-108378096D01*
X162189228Y-108378096D02*
X162236847Y-108282858D01*
X162236847Y-108282858D02*
X162236847Y-108092382D01*
X162236847Y-108092382D02*
X162189228Y-107997144D01*
X162189228Y-107997144D02*
X162093990Y-107949525D01*
X162093990Y-107949525D02*
X161998752Y-107949525D01*
X161998752Y-107949525D02*
X161903514Y-108425715D01*
X161617800Y-107568572D02*
X161570180Y-107473334D01*
X161570180Y-107473334D02*
X161570180Y-107282858D01*
X161570180Y-107282858D02*
X161617800Y-107187620D01*
X161617800Y-107187620D02*
X161713038Y-107140001D01*
X161713038Y-107140001D02*
X161760657Y-107140001D01*
X161760657Y-107140001D02*
X161855895Y-107187620D01*
X161855895Y-107187620D02*
X161903514Y-107282858D01*
X161903514Y-107282858D02*
X161903514Y-107425715D01*
X161903514Y-107425715D02*
X161951133Y-107520953D01*
X161951133Y-107520953D02*
X162046371Y-107568572D01*
X162046371Y-107568572D02*
X162093990Y-107568572D01*
X162093990Y-107568572D02*
X162189228Y-107520953D01*
X162189228Y-107520953D02*
X162236847Y-107425715D01*
X162236847Y-107425715D02*
X162236847Y-107282858D01*
X162236847Y-107282858D02*
X162189228Y-107187620D01*
X161617800Y-106759048D02*
X161570180Y-106663810D01*
X161570180Y-106663810D02*
X161570180Y-106473334D01*
X161570180Y-106473334D02*
X161617800Y-106378096D01*
X161617800Y-106378096D02*
X161713038Y-106330477D01*
X161713038Y-106330477D02*
X161760657Y-106330477D01*
X161760657Y-106330477D02*
X161855895Y-106378096D01*
X161855895Y-106378096D02*
X161903514Y-106473334D01*
X161903514Y-106473334D02*
X161903514Y-106616191D01*
X161903514Y-106616191D02*
X161951133Y-106711429D01*
X161951133Y-106711429D02*
X162046371Y-106759048D01*
X162046371Y-106759048D02*
X162093990Y-106759048D01*
X162093990Y-106759048D02*
X162189228Y-106711429D01*
X162189228Y-106711429D02*
X162236847Y-106616191D01*
X162236847Y-106616191D02*
X162236847Y-106473334D01*
X162236847Y-106473334D02*
X162189228Y-106378096D01*
X161570180Y-105140000D02*
X162570180Y-105140000D01*
X162570180Y-105140000D02*
X162570180Y-104759048D01*
X162570180Y-104759048D02*
X162522561Y-104663810D01*
X162522561Y-104663810D02*
X162474942Y-104616191D01*
X162474942Y-104616191D02*
X162379704Y-104568572D01*
X162379704Y-104568572D02*
X162236847Y-104568572D01*
X162236847Y-104568572D02*
X162141609Y-104616191D01*
X162141609Y-104616191D02*
X162093990Y-104663810D01*
X162093990Y-104663810D02*
X162046371Y-104759048D01*
X162046371Y-104759048D02*
X162046371Y-105140000D01*
X161617800Y-103759048D02*
X161570180Y-103854286D01*
X161570180Y-103854286D02*
X161570180Y-104044762D01*
X161570180Y-104044762D02*
X161617800Y-104140000D01*
X161617800Y-104140000D02*
X161713038Y-104187619D01*
X161713038Y-104187619D02*
X162093990Y-104187619D01*
X162093990Y-104187619D02*
X162189228Y-104140000D01*
X162189228Y-104140000D02*
X162236847Y-104044762D01*
X162236847Y-104044762D02*
X162236847Y-103854286D01*
X162236847Y-103854286D02*
X162189228Y-103759048D01*
X162189228Y-103759048D02*
X162093990Y-103711429D01*
X162093990Y-103711429D02*
X161998752Y-103711429D01*
X161998752Y-103711429D02*
X161903514Y-104187619D01*
X161570180Y-103282857D02*
X162236847Y-103282857D01*
X162046371Y-103282857D02*
X162141609Y-103235238D01*
X162141609Y-103235238D02*
X162189228Y-103187619D01*
X162189228Y-103187619D02*
X162236847Y-103092381D01*
X162236847Y-103092381D02*
X162236847Y-102997143D01*
X162236847Y-102806666D02*
X162236847Y-102425714D01*
X161570180Y-102663809D02*
X162427323Y-102663809D01*
X162427323Y-102663809D02*
X162522561Y-102616190D01*
X162522561Y-102616190D02*
X162570180Y-102520952D01*
X162570180Y-102520952D02*
X162570180Y-102425714D01*
X161570180Y-102092380D02*
X162570180Y-102092380D01*
X162189228Y-102092380D02*
X162236847Y-101997142D01*
X162236847Y-101997142D02*
X162236847Y-101806666D01*
X162236847Y-101806666D02*
X162189228Y-101711428D01*
X162189228Y-101711428D02*
X162141609Y-101663809D01*
X162141609Y-101663809D02*
X162046371Y-101616190D01*
X162046371Y-101616190D02*
X161760657Y-101616190D01*
X161760657Y-101616190D02*
X161665419Y-101663809D01*
X161665419Y-101663809D02*
X161617800Y-101711428D01*
X161617800Y-101711428D02*
X161570180Y-101806666D01*
X161570180Y-101806666D02*
X161570180Y-101997142D01*
X161570180Y-101997142D02*
X161617800Y-102092380D01*
X161570180Y-101044761D02*
X161617800Y-101139999D01*
X161617800Y-101139999D02*
X161665419Y-101187618D01*
X161665419Y-101187618D02*
X161760657Y-101235237D01*
X161760657Y-101235237D02*
X162046371Y-101235237D01*
X162046371Y-101235237D02*
X162141609Y-101187618D01*
X162141609Y-101187618D02*
X162189228Y-101139999D01*
X162189228Y-101139999D02*
X162236847Y-101044761D01*
X162236847Y-101044761D02*
X162236847Y-100901904D01*
X162236847Y-100901904D02*
X162189228Y-100806666D01*
X162189228Y-100806666D02*
X162141609Y-100759047D01*
X162141609Y-100759047D02*
X162046371Y-100711428D01*
X162046371Y-100711428D02*
X161760657Y-100711428D01*
X161760657Y-100711428D02*
X161665419Y-100759047D01*
X161665419Y-100759047D02*
X161617800Y-100806666D01*
X161617800Y-100806666D02*
X161570180Y-100901904D01*
X161570180Y-100901904D02*
X161570180Y-101044761D01*
X161570180Y-99854285D02*
X162093990Y-99854285D01*
X162093990Y-99854285D02*
X162189228Y-99901904D01*
X162189228Y-99901904D02*
X162236847Y-99997142D01*
X162236847Y-99997142D02*
X162236847Y-100187618D01*
X162236847Y-100187618D02*
X162189228Y-100282856D01*
X161617800Y-99854285D02*
X161570180Y-99949523D01*
X161570180Y-99949523D02*
X161570180Y-100187618D01*
X161570180Y-100187618D02*
X161617800Y-100282856D01*
X161617800Y-100282856D02*
X161713038Y-100330475D01*
X161713038Y-100330475D02*
X161808276Y-100330475D01*
X161808276Y-100330475D02*
X161903514Y-100282856D01*
X161903514Y-100282856D02*
X161951133Y-100187618D01*
X161951133Y-100187618D02*
X161951133Y-99949523D01*
X161951133Y-99949523D02*
X161998752Y-99854285D01*
X161570180Y-99378094D02*
X162236847Y-99378094D01*
X162046371Y-99378094D02*
X162141609Y-99330475D01*
X162141609Y-99330475D02*
X162189228Y-99282856D01*
X162189228Y-99282856D02*
X162236847Y-99187618D01*
X162236847Y-99187618D02*
X162236847Y-99092380D01*
X161570180Y-98330475D02*
X162570180Y-98330475D01*
X161617800Y-98330475D02*
X161570180Y-98425713D01*
X161570180Y-98425713D02*
X161570180Y-98616189D01*
X161570180Y-98616189D02*
X161617800Y-98711427D01*
X161617800Y-98711427D02*
X161665419Y-98759046D01*
X161665419Y-98759046D02*
X161760657Y-98806665D01*
X161760657Y-98806665D02*
X162046371Y-98806665D01*
X162046371Y-98806665D02*
X162141609Y-98759046D01*
X162141609Y-98759046D02*
X162189228Y-98711427D01*
X162189228Y-98711427D02*
X162236847Y-98616189D01*
X162236847Y-98616189D02*
X162236847Y-98425713D01*
X162236847Y-98425713D02*
X162189228Y-98330475D01*
X162570180Y-97235236D02*
X161570180Y-96901903D01*
X161570180Y-96901903D02*
X162570180Y-96568570D01*
X162474942Y-96282855D02*
X162522561Y-96235236D01*
X162522561Y-96235236D02*
X162570180Y-96139998D01*
X162570180Y-96139998D02*
X162570180Y-95901903D01*
X162570180Y-95901903D02*
X162522561Y-95806665D01*
X162522561Y-95806665D02*
X162474942Y-95759046D01*
X162474942Y-95759046D02*
X162379704Y-95711427D01*
X162379704Y-95711427D02*
X162284466Y-95711427D01*
X162284466Y-95711427D02*
X162141609Y-95759046D01*
X162141609Y-95759046D02*
X161570180Y-96330474D01*
X161570180Y-96330474D02*
X161570180Y-95711427D01*
X161665419Y-95282855D02*
X161617800Y-95235236D01*
X161617800Y-95235236D02*
X161570180Y-95282855D01*
X161570180Y-95282855D02*
X161617800Y-95330474D01*
X161617800Y-95330474D02*
X161665419Y-95282855D01*
X161665419Y-95282855D02*
X161570180Y-95282855D01*
X162570180Y-94616189D02*
X162570180Y-94520951D01*
X162570180Y-94520951D02*
X162522561Y-94425713D01*
X162522561Y-94425713D02*
X162474942Y-94378094D01*
X162474942Y-94378094D02*
X162379704Y-94330475D01*
X162379704Y-94330475D02*
X162189228Y-94282856D01*
X162189228Y-94282856D02*
X161951133Y-94282856D01*
X161951133Y-94282856D02*
X161760657Y-94330475D01*
X161760657Y-94330475D02*
X161665419Y-94378094D01*
X161665419Y-94378094D02*
X161617800Y-94425713D01*
X161617800Y-94425713D02*
X161570180Y-94520951D01*
X161570180Y-94520951D02*
X161570180Y-94616189D01*
X161570180Y-94616189D02*
X161617800Y-94711427D01*
X161617800Y-94711427D02*
X161665419Y-94759046D01*
X161665419Y-94759046D02*
X161760657Y-94806665D01*
X161760657Y-94806665D02*
X161951133Y-94854284D01*
X161951133Y-94854284D02*
X162189228Y-94854284D01*
X162189228Y-94854284D02*
X162379704Y-94806665D01*
X162379704Y-94806665D02*
X162474942Y-94759046D01*
X162474942Y-94759046D02*
X162522561Y-94711427D01*
X162522561Y-94711427D02*
X162570180Y-94616189D01*
X162141609Y-92949522D02*
X162189228Y-93044760D01*
X162189228Y-93044760D02*
X162236847Y-93092379D01*
X162236847Y-93092379D02*
X162332085Y-93139998D01*
X162332085Y-93139998D02*
X162379704Y-93139998D01*
X162379704Y-93139998D02*
X162474942Y-93092379D01*
X162474942Y-93092379D02*
X162522561Y-93044760D01*
X162522561Y-93044760D02*
X162570180Y-92949522D01*
X162570180Y-92949522D02*
X162570180Y-92759046D01*
X162570180Y-92759046D02*
X162522561Y-92663808D01*
X162522561Y-92663808D02*
X162474942Y-92616189D01*
X162474942Y-92616189D02*
X162379704Y-92568570D01*
X162379704Y-92568570D02*
X162332085Y-92568570D01*
X162332085Y-92568570D02*
X162236847Y-92616189D01*
X162236847Y-92616189D02*
X162189228Y-92663808D01*
X162189228Y-92663808D02*
X162141609Y-92759046D01*
X162141609Y-92759046D02*
X162141609Y-92949522D01*
X162141609Y-92949522D02*
X162093990Y-93044760D01*
X162093990Y-93044760D02*
X162046371Y-93092379D01*
X162046371Y-93092379D02*
X161951133Y-93139998D01*
X161951133Y-93139998D02*
X161760657Y-93139998D01*
X161760657Y-93139998D02*
X161665419Y-93092379D01*
X161665419Y-93092379D02*
X161617800Y-93044760D01*
X161617800Y-93044760D02*
X161570180Y-92949522D01*
X161570180Y-92949522D02*
X161570180Y-92759046D01*
X161570180Y-92759046D02*
X161617800Y-92663808D01*
X161617800Y-92663808D02*
X161665419Y-92616189D01*
X161665419Y-92616189D02*
X161760657Y-92568570D01*
X161760657Y-92568570D02*
X161951133Y-92568570D01*
X161951133Y-92568570D02*
X162046371Y-92616189D01*
X162046371Y-92616189D02*
X162093990Y-92663808D01*
X162093990Y-92663808D02*
X162141609Y-92759046D01*
X162617800Y-91425713D02*
X161332085Y-92282855D01*
X161570180Y-90568570D02*
X161570180Y-91139998D01*
X161570180Y-90854284D02*
X162570180Y-90854284D01*
X162570180Y-90854284D02*
X162427323Y-90949522D01*
X162427323Y-90949522D02*
X162332085Y-91044760D01*
X162332085Y-91044760D02*
X162284466Y-91139998D01*
X161570180Y-90092379D02*
X161570180Y-89901903D01*
X161570180Y-89901903D02*
X161617800Y-89806665D01*
X161617800Y-89806665D02*
X161665419Y-89759046D01*
X161665419Y-89759046D02*
X161808276Y-89663808D01*
X161808276Y-89663808D02*
X161998752Y-89616189D01*
X161998752Y-89616189D02*
X162379704Y-89616189D01*
X162379704Y-89616189D02*
X162474942Y-89663808D01*
X162474942Y-89663808D02*
X162522561Y-89711427D01*
X162522561Y-89711427D02*
X162570180Y-89806665D01*
X162570180Y-89806665D02*
X162570180Y-89997141D01*
X162570180Y-89997141D02*
X162522561Y-90092379D01*
X162522561Y-90092379D02*
X162474942Y-90139998D01*
X162474942Y-90139998D02*
X162379704Y-90187617D01*
X162379704Y-90187617D02*
X162141609Y-90187617D01*
X162141609Y-90187617D02*
X162046371Y-90139998D01*
X162046371Y-90139998D02*
X161998752Y-90092379D01*
X161998752Y-90092379D02*
X161951133Y-89997141D01*
X161951133Y-89997141D02*
X161951133Y-89806665D01*
X161951133Y-89806665D02*
X161998752Y-89711427D01*
X161998752Y-89711427D02*
X162046371Y-89663808D01*
X162046371Y-89663808D02*
X162141609Y-89616189D01*
X162617800Y-88473332D02*
X161332085Y-89330474D01*
X162474942Y-88187617D02*
X162522561Y-88139998D01*
X162522561Y-88139998D02*
X162570180Y-88044760D01*
X162570180Y-88044760D02*
X162570180Y-87806665D01*
X162570180Y-87806665D02*
X162522561Y-87711427D01*
X162522561Y-87711427D02*
X162474942Y-87663808D01*
X162474942Y-87663808D02*
X162379704Y-87616189D01*
X162379704Y-87616189D02*
X162284466Y-87616189D01*
X162284466Y-87616189D02*
X162141609Y-87663808D01*
X162141609Y-87663808D02*
X161570180Y-88235236D01*
X161570180Y-88235236D02*
X161570180Y-87616189D01*
X162570180Y-86711427D02*
X162570180Y-87187617D01*
X162570180Y-87187617D02*
X162093990Y-87235236D01*
X162093990Y-87235236D02*
X162141609Y-87187617D01*
X162141609Y-87187617D02*
X162189228Y-87092379D01*
X162189228Y-87092379D02*
X162189228Y-86854284D01*
X162189228Y-86854284D02*
X162141609Y-86759046D01*
X162141609Y-86759046D02*
X162093990Y-86711427D01*
X162093990Y-86711427D02*
X161998752Y-86663808D01*
X161998752Y-86663808D02*
X161760657Y-86663808D01*
X161760657Y-86663808D02*
X161665419Y-86711427D01*
X161665419Y-86711427D02*
X161617800Y-86759046D01*
X161617800Y-86759046D02*
X161570180Y-86854284D01*
X161570180Y-86854284D02*
X161570180Y-87092379D01*
X161570180Y-87092379D02*
X161617800Y-87187617D01*
X161617800Y-87187617D02*
X161665419Y-87235236D01*
M02*
