%TF.GenerationSoftware,KiCad,Pcbnew,9.0.3*%
%TF.CreationDate,2025-08-20T23:17:36-04:00*%
%TF.ProjectId,Panelized-Mess-P48,50616e65-6c69-47a6-9564-2d4d6573732d,rev?*%
%TF.SameCoordinates,Original*%
%TF.FileFunction,Paste,Top*%
%TF.FilePolarity,Positive*%
%FSLAX46Y46*%
G04 Gerber Fmt 4.6, Leading zero omitted, Abs format (unit mm)*
G04 Created by KiCad (PCBNEW 9.0.3) date 2025-08-20 23:17:36*
%MOMM*%
%LPD*%
G01*
G04 APERTURE LIST*
G04 Aperture macros list*
%AMRoundRect*
0 Rectangle with rounded corners*
0 $1 Rounding radius*
0 $2 $3 $4 $5 $6 $7 $8 $9 X,Y pos of 4 corners*
0 Add a 4 corners polygon primitive as box body*
4,1,4,$2,$3,$4,$5,$6,$7,$8,$9,$2,$3,0*
0 Add four circle primitives for the rounded corners*
1,1,$1+$1,$2,$3*
1,1,$1+$1,$4,$5*
1,1,$1+$1,$6,$7*
1,1,$1+$1,$8,$9*
0 Add four rect primitives between the rounded corners*
20,1,$1+$1,$2,$3,$4,$5,0*
20,1,$1+$1,$4,$5,$6,$7,0*
20,1,$1+$1,$6,$7,$8,$9,0*
20,1,$1+$1,$8,$9,$2,$3,0*%
G04 Aperture macros list end*
%ADD10RoundRect,0.150000X0.512500X0.150000X-0.512500X0.150000X-0.512500X-0.150000X0.512500X-0.150000X0*%
%ADD11RoundRect,0.225000X0.225000X0.250000X-0.225000X0.250000X-0.225000X-0.250000X0.225000X-0.250000X0*%
%ADD12RoundRect,0.200000X-0.275000X0.200000X-0.275000X-0.200000X0.275000X-0.200000X0.275000X0.200000X0*%
%ADD13RoundRect,0.250000X0.450000X0.350000X-0.450000X0.350000X-0.450000X-0.350000X0.450000X-0.350000X0*%
%ADD14RoundRect,0.218750X0.256250X-0.218750X0.256250X0.218750X-0.256250X0.218750X-0.256250X-0.218750X0*%
%ADD15RoundRect,0.225000X0.250000X-0.225000X0.250000X0.225000X-0.250000X0.225000X-0.250000X-0.225000X0*%
%ADD16RoundRect,0.150000X0.150000X-0.512500X0.150000X0.512500X-0.150000X0.512500X-0.150000X-0.512500X0*%
%ADD17R,0.650000X1.050000*%
%ADD18RoundRect,0.242500X-0.242500X-0.242500X0.242500X-0.242500X0.242500X0.242500X-0.242500X0.242500X0*%
%ADD19RoundRect,0.075000X-0.662500X-0.075000X0.662500X-0.075000X0.662500X0.075000X-0.662500X0.075000X0*%
%ADD20RoundRect,0.075000X-0.075000X-0.662500X0.075000X-0.662500X0.075000X0.662500X-0.075000X0.662500X0*%
%ADD21RoundRect,0.225000X-0.250000X0.225000X-0.250000X-0.225000X0.250000X-0.225000X0.250000X0.225000X0*%
%ADD22RoundRect,0.225000X-0.225000X-0.250000X0.225000X-0.250000X0.225000X0.250000X-0.225000X0.250000X0*%
%ADD23R,0.600000X1.450000*%
%ADD24R,0.300000X1.450000*%
%ADD25RoundRect,0.200000X0.275000X-0.200000X0.275000X0.200000X-0.275000X0.200000X-0.275000X-0.200000X0*%
G04 APERTURE END LIST*
D10*
%TO.C,U18*%
X161597949Y-85386501D03*
X161597949Y-83486501D03*
X159322949Y-84436501D03*
%TD*%
D11*
%TO.C,C28*%
X168075000Y-63400000D03*
X166525000Y-63400000D03*
%TD*%
%TO.C,C6*%
X157575000Y-107025000D03*
X156025000Y-107025000D03*
%TD*%
%TO.C,C22*%
X127375000Y-57025000D03*
X125825000Y-57025000D03*
%TD*%
D12*
%TO.C,R12*%
X153200000Y-90750000D03*
X153200000Y-92400000D03*
%TD*%
D11*
%TO.C,C30*%
X157575000Y-57025000D03*
X156025000Y-57025000D03*
%TD*%
D13*
%TO.C,K3*%
X95600000Y-59787500D03*
X93400000Y-59787500D03*
X93400000Y-61487500D03*
X95600000Y-61487500D03*
%TD*%
D11*
%TO.C,C32*%
X164500000Y-57012500D03*
X162950000Y-57012500D03*
%TD*%
%TO.C,C12*%
X107675000Y-63400000D03*
X106125000Y-63400000D03*
%TD*%
D14*
%TO.C,D2*%
X92800000Y-95387501D03*
X92800000Y-93812499D03*
%TD*%
D12*
%TO.C,R2*%
X169600000Y-140850000D03*
X169600000Y-142500000D03*
%TD*%
D13*
%TO.C,K2*%
X162574999Y-109737500D03*
X160374999Y-109737500D03*
X160374999Y-111437500D03*
X162574999Y-111437500D03*
%TD*%
%TO.C,K11*%
X125800000Y-109787500D03*
X123600000Y-109787500D03*
X123600000Y-111487500D03*
X125800000Y-111487500D03*
%TD*%
D15*
%TO.C,C34*%
X109200000Y-135800000D03*
X109200000Y-134250000D03*
%TD*%
D16*
%TO.C,U14*%
X134500000Y-85800000D03*
X135450000Y-85800000D03*
X136400000Y-85800000D03*
X136400000Y-83525000D03*
X134500000Y-83525000D03*
%TD*%
D15*
%TO.C,C10*%
X109200000Y-85800000D03*
X109200000Y-84250000D03*
%TD*%
D13*
%TO.C,K9*%
X95600000Y-109787500D03*
X93400000Y-109787500D03*
X93400000Y-111487500D03*
X95600000Y-111487500D03*
%TD*%
D17*
%TO.C,SW3*%
X139475000Y-57125000D03*
X139475000Y-61275000D03*
X137325000Y-57125000D03*
X137325000Y-61275000D03*
%TD*%
D18*
%TO.C,U27*%
X129718999Y-118620576D03*
X129718999Y-119820576D03*
X129718999Y-121020576D03*
X130918999Y-118620576D03*
X130918999Y-119820576D03*
X130918999Y-121020576D03*
X132118999Y-118620576D03*
X132118999Y-119820576D03*
X132118999Y-121020576D03*
D19*
X126756499Y-117070576D03*
X126756499Y-117570576D03*
X126756499Y-118070576D03*
X126756499Y-118570576D03*
X126756499Y-119070576D03*
X126756499Y-119570576D03*
X126756499Y-120070576D03*
X126756499Y-120570576D03*
X126756499Y-121070576D03*
X126756499Y-121570576D03*
X126756499Y-122070576D03*
X126756499Y-122570576D03*
D20*
X128168999Y-123983076D03*
X128668999Y-123983076D03*
X129168999Y-123983076D03*
X129668999Y-123983076D03*
X130168999Y-123983076D03*
X130668999Y-123983076D03*
X131168999Y-123983076D03*
X131668999Y-123983076D03*
X132168999Y-123983076D03*
X132668999Y-123983076D03*
X133168999Y-123983076D03*
X133668999Y-123983076D03*
D19*
X135081499Y-122570576D03*
X135081499Y-122070576D03*
X135081499Y-121570576D03*
X135081499Y-121070576D03*
X135081499Y-120570576D03*
X135081499Y-120070576D03*
X135081499Y-119570576D03*
X135081499Y-119070576D03*
X135081499Y-118570576D03*
X135081499Y-118070576D03*
X135081499Y-117570576D03*
X135081499Y-117070576D03*
D20*
X133668999Y-115658076D03*
X133168999Y-115658076D03*
X132668999Y-115658076D03*
X132168999Y-115658076D03*
X131668999Y-115658076D03*
X131168999Y-115658076D03*
X130668999Y-115658076D03*
X130168999Y-115658076D03*
X129668999Y-115658076D03*
X129168999Y-115658076D03*
X128668999Y-115658076D03*
X128168999Y-115658076D03*
%TD*%
D21*
%TO.C,C9*%
X95997949Y-84962500D03*
X95997949Y-86512500D03*
%TD*%
D13*
%TO.C,K8*%
X162574999Y-59737500D03*
X160374999Y-59737500D03*
X160374999Y-61437500D03*
X162574999Y-61437500D03*
%TD*%
D12*
%TO.C,R17*%
X139400000Y-140850000D03*
X139400000Y-142500000D03*
%TD*%
D14*
%TO.C,D1*%
X153200000Y-145387501D03*
X153200000Y-143812499D03*
%TD*%
D22*
%TO.C,C45*%
X122839999Y-107025000D03*
X124389999Y-107025000D03*
%TD*%
D10*
%TO.C,U13*%
X131397949Y-85386501D03*
X131397949Y-83486501D03*
X129122949Y-84436501D03*
%TD*%
D18*
%TO.C,U17*%
X159918999Y-68620576D03*
X159918999Y-69820576D03*
X159918999Y-71020576D03*
X161118999Y-68620576D03*
X161118999Y-69820576D03*
X161118999Y-71020576D03*
X162318999Y-68620576D03*
X162318999Y-69820576D03*
X162318999Y-71020576D03*
D19*
X156956499Y-67070576D03*
X156956499Y-67570576D03*
X156956499Y-68070576D03*
X156956499Y-68570576D03*
X156956499Y-69070576D03*
X156956499Y-69570576D03*
X156956499Y-70070576D03*
X156956499Y-70570576D03*
X156956499Y-71070576D03*
X156956499Y-71570576D03*
X156956499Y-72070576D03*
X156956499Y-72570576D03*
D20*
X158368999Y-73983076D03*
X158868999Y-73983076D03*
X159368999Y-73983076D03*
X159868999Y-73983076D03*
X160368999Y-73983076D03*
X160868999Y-73983076D03*
X161368999Y-73983076D03*
X161868999Y-73983076D03*
X162368999Y-73983076D03*
X162868999Y-73983076D03*
X163368999Y-73983076D03*
X163868999Y-73983076D03*
D19*
X165281499Y-72570576D03*
X165281499Y-72070576D03*
X165281499Y-71570576D03*
X165281499Y-71070576D03*
X165281499Y-70570576D03*
X165281499Y-70070576D03*
X165281499Y-69570576D03*
X165281499Y-69070576D03*
X165281499Y-68570576D03*
X165281499Y-68070576D03*
X165281499Y-67570576D03*
X165281499Y-67070576D03*
D20*
X163868999Y-65658076D03*
X163368999Y-65658076D03*
X162868999Y-65658076D03*
X162368999Y-65658076D03*
X161868999Y-65658076D03*
X161368999Y-65658076D03*
X160868999Y-65658076D03*
X160368999Y-65658076D03*
X159868999Y-65658076D03*
X159368999Y-65658076D03*
X158868999Y-65658076D03*
X158368999Y-65658076D03*
%TD*%
D21*
%TO.C,C17*%
X126197949Y-84962500D03*
X126197949Y-86512500D03*
%TD*%
D16*
%TO.C,U4*%
X164700000Y-135800000D03*
X165650000Y-135800000D03*
X166600000Y-135800000D03*
X166600000Y-133525000D03*
X164700000Y-133525000D03*
%TD*%
D11*
%TO.C,C44*%
X137875000Y-113400000D03*
X136325000Y-113400000D03*
%TD*%
D15*
%TO.C,C11*%
X92800000Y-89275000D03*
X92800000Y-87725000D03*
%TD*%
D22*
%TO.C,C31*%
X159950000Y-57012500D03*
X161500000Y-57012500D03*
%TD*%
D13*
%TO.C,K4*%
X102174999Y-59737500D03*
X99974999Y-59737500D03*
X99974999Y-61437500D03*
X102174999Y-61437500D03*
%TD*%
D10*
%TO.C,U8*%
X101197949Y-85386501D03*
X101197949Y-83486501D03*
X98922949Y-84436501D03*
%TD*%
D13*
%TO.C,K1*%
X156000000Y-109787500D03*
X153800000Y-109787500D03*
X153800000Y-111487500D03*
X156000000Y-111487500D03*
%TD*%
D23*
%TO.C,U6*%
X97750000Y-90655000D03*
X98550000Y-90655000D03*
D24*
X99750000Y-90655000D03*
X100750000Y-90655000D03*
X101250000Y-90655000D03*
X102250000Y-90655000D03*
D23*
X103450000Y-90655000D03*
X104250000Y-90655000D03*
X104250000Y-90655000D03*
X103450000Y-90655000D03*
D24*
X102750000Y-90655000D03*
X101750000Y-90655000D03*
X100250000Y-90655000D03*
X99250000Y-90655000D03*
D23*
X98550000Y-90655000D03*
X97750000Y-90655000D03*
%TD*%
%TO.C,U1*%
X158150000Y-140655000D03*
X158950000Y-140655000D03*
D24*
X160150000Y-140655000D03*
X161150000Y-140655000D03*
X161650000Y-140655000D03*
X162650000Y-140655000D03*
D23*
X163850000Y-140655000D03*
X164650000Y-140655000D03*
X164650000Y-140655000D03*
X163850000Y-140655000D03*
D24*
X163150000Y-140655000D03*
X162150000Y-140655000D03*
X160650000Y-140655000D03*
X159650000Y-140655000D03*
D23*
X158950000Y-140655000D03*
X158150000Y-140655000D03*
%TD*%
D16*
%TO.C,U19*%
X164700000Y-85800000D03*
X165650000Y-85800000D03*
X166600000Y-85800000D03*
X166600000Y-83525000D03*
X164700000Y-83525000D03*
%TD*%
D12*
%TO.C,R5*%
X109200000Y-90850000D03*
X109200000Y-92500000D03*
%TD*%
%TO.C,R8*%
X139400000Y-90850000D03*
X139400000Y-92500000D03*
%TD*%
D22*
%TO.C,C15*%
X99550000Y-57012500D03*
X101100000Y-57012500D03*
%TD*%
D21*
%TO.C,C41*%
X126197949Y-134962500D03*
X126197949Y-136512500D03*
%TD*%
D17*
%TO.C,SW5*%
X109275000Y-107125000D03*
X109275000Y-111275000D03*
X107125000Y-107125000D03*
X107125000Y-111275000D03*
%TD*%
D21*
%TO.C,C25*%
X156397949Y-84962500D03*
X156397949Y-86512500D03*
%TD*%
D17*
%TO.C,SW1*%
X169675000Y-107125000D03*
X169675000Y-111275000D03*
X167525000Y-107125000D03*
X167525000Y-111275000D03*
%TD*%
%TO.C,SW2*%
X109275000Y-57125000D03*
X109275000Y-61275000D03*
X107125000Y-57125000D03*
X107125000Y-61275000D03*
%TD*%
D23*
%TO.C,U16*%
X158150000Y-90655000D03*
X158950000Y-90655000D03*
D24*
X160150000Y-90655000D03*
X161150000Y-90655000D03*
X161650000Y-90655000D03*
X162650000Y-90655000D03*
D23*
X163850000Y-90655000D03*
X164650000Y-90655000D03*
X164650000Y-90655000D03*
X163850000Y-90655000D03*
D24*
X163150000Y-90655000D03*
X162150000Y-90655000D03*
X160650000Y-90655000D03*
X159650000Y-90655000D03*
D23*
X158950000Y-90655000D03*
X158150000Y-90655000D03*
%TD*%
D15*
%TO.C,C43*%
X123000000Y-139275000D03*
X123000000Y-137725000D03*
%TD*%
D10*
%TO.C,U3*%
X161597949Y-135386501D03*
X161597949Y-133486501D03*
X159322949Y-134436501D03*
%TD*%
D11*
%TO.C,C24*%
X134300000Y-57012500D03*
X132750000Y-57012500D03*
%TD*%
%TO.C,C16*%
X104100000Y-57012500D03*
X102550000Y-57012500D03*
%TD*%
D13*
%TO.C,K5*%
X125800000Y-59787500D03*
X123600000Y-59787500D03*
X123600000Y-61487500D03*
X125800000Y-61487500D03*
%TD*%
D22*
%TO.C,C5*%
X153039999Y-107025000D03*
X154589999Y-107025000D03*
%TD*%
D15*
%TO.C,C27*%
X153200000Y-89275000D03*
X153200000Y-87725000D03*
%TD*%
%TO.C,C3*%
X153200000Y-139275000D03*
X153200000Y-137725000D03*
%TD*%
D14*
%TO.C,D3*%
X123000000Y-95387501D03*
X123000000Y-93812499D03*
%TD*%
D15*
%TO.C,C42*%
X139400000Y-135800000D03*
X139400000Y-134250000D03*
%TD*%
D22*
%TO.C,C37*%
X92639999Y-107025000D03*
X94189999Y-107025000D03*
%TD*%
D14*
%TO.C,D4*%
X153200000Y-95387501D03*
X153200000Y-93812499D03*
%TD*%
%TO.C,D6*%
X123000000Y-145387501D03*
X123000000Y-143812499D03*
%TD*%
D25*
%TO.C,R1*%
X169600000Y-145500000D03*
X169600000Y-143850000D03*
%TD*%
D23*
%TO.C,U26*%
X127950000Y-140655000D03*
X128750000Y-140655000D03*
D24*
X129950000Y-140655000D03*
X130950000Y-140655000D03*
X131450000Y-140655000D03*
X132450000Y-140655000D03*
D23*
X133650000Y-140655000D03*
X134450000Y-140655000D03*
X134450000Y-140655000D03*
X133650000Y-140655000D03*
D24*
X132950000Y-140655000D03*
X131950000Y-140655000D03*
X130450000Y-140655000D03*
X129450000Y-140655000D03*
D23*
X128750000Y-140655000D03*
X127950000Y-140655000D03*
%TD*%
D10*
%TO.C,U23*%
X101197949Y-135386501D03*
X101197949Y-133486501D03*
X98922949Y-134436501D03*
%TD*%
D11*
%TO.C,C20*%
X137875000Y-63400000D03*
X136325000Y-63400000D03*
%TD*%
D22*
%TO.C,C21*%
X122839999Y-57025000D03*
X124389999Y-57025000D03*
%TD*%
D15*
%TO.C,C26*%
X169600000Y-85800000D03*
X169600000Y-84250000D03*
%TD*%
D14*
%TO.C,D5*%
X92800000Y-145387501D03*
X92800000Y-143812499D03*
%TD*%
D18*
%TO.C,U2*%
X159918999Y-118620576D03*
X159918999Y-119820576D03*
X159918999Y-121020576D03*
X161118999Y-118620576D03*
X161118999Y-119820576D03*
X161118999Y-121020576D03*
X162318999Y-118620576D03*
X162318999Y-119820576D03*
X162318999Y-121020576D03*
D19*
X156956499Y-117070576D03*
X156956499Y-117570576D03*
X156956499Y-118070576D03*
X156956499Y-118570576D03*
X156956499Y-119070576D03*
X156956499Y-119570576D03*
X156956499Y-120070576D03*
X156956499Y-120570576D03*
X156956499Y-121070576D03*
X156956499Y-121570576D03*
X156956499Y-122070576D03*
X156956499Y-122570576D03*
D20*
X158368999Y-123983076D03*
X158868999Y-123983076D03*
X159368999Y-123983076D03*
X159868999Y-123983076D03*
X160368999Y-123983076D03*
X160868999Y-123983076D03*
X161368999Y-123983076D03*
X161868999Y-123983076D03*
X162368999Y-123983076D03*
X162868999Y-123983076D03*
X163368999Y-123983076D03*
X163868999Y-123983076D03*
D19*
X165281499Y-122570576D03*
X165281499Y-122070576D03*
X165281499Y-121570576D03*
X165281499Y-121070576D03*
X165281499Y-120570576D03*
X165281499Y-120070576D03*
X165281499Y-119570576D03*
X165281499Y-119070576D03*
X165281499Y-118570576D03*
X165281499Y-118070576D03*
X165281499Y-117570576D03*
X165281499Y-117070576D03*
D20*
X163868999Y-115658076D03*
X163368999Y-115658076D03*
X162868999Y-115658076D03*
X162368999Y-115658076D03*
X161868999Y-115658076D03*
X161368999Y-115658076D03*
X160868999Y-115658076D03*
X160368999Y-115658076D03*
X159868999Y-115658076D03*
X159368999Y-115658076D03*
X158868999Y-115658076D03*
X158368999Y-115658076D03*
%TD*%
D18*
%TO.C,U7*%
X99518999Y-68620576D03*
X99518999Y-69820576D03*
X99518999Y-71020576D03*
X100718999Y-68620576D03*
X100718999Y-69820576D03*
X100718999Y-71020576D03*
X101918999Y-68620576D03*
X101918999Y-69820576D03*
X101918999Y-71020576D03*
D19*
X96556499Y-67070576D03*
X96556499Y-67570576D03*
X96556499Y-68070576D03*
X96556499Y-68570576D03*
X96556499Y-69070576D03*
X96556499Y-69570576D03*
X96556499Y-70070576D03*
X96556499Y-70570576D03*
X96556499Y-71070576D03*
X96556499Y-71570576D03*
X96556499Y-72070576D03*
X96556499Y-72570576D03*
D20*
X97968999Y-73983076D03*
X98468999Y-73983076D03*
X98968999Y-73983076D03*
X99468999Y-73983076D03*
X99968999Y-73983076D03*
X100468999Y-73983076D03*
X100968999Y-73983076D03*
X101468999Y-73983076D03*
X101968999Y-73983076D03*
X102468999Y-73983076D03*
X102968999Y-73983076D03*
X103468999Y-73983076D03*
D19*
X104881499Y-72570576D03*
X104881499Y-72070576D03*
X104881499Y-71570576D03*
X104881499Y-71070576D03*
X104881499Y-70570576D03*
X104881499Y-70070576D03*
X104881499Y-69570576D03*
X104881499Y-69070576D03*
X104881499Y-68570576D03*
X104881499Y-68070576D03*
X104881499Y-67570576D03*
X104881499Y-67070576D03*
D20*
X103468999Y-65658076D03*
X102968999Y-65658076D03*
X102468999Y-65658076D03*
X101968999Y-65658076D03*
X101468999Y-65658076D03*
X100968999Y-65658076D03*
X100468999Y-65658076D03*
X99968999Y-65658076D03*
X99468999Y-65658076D03*
X98968999Y-65658076D03*
X98468999Y-65658076D03*
X97968999Y-65658076D03*
%TD*%
D22*
%TO.C,C29*%
X153039999Y-57025000D03*
X154589999Y-57025000D03*
%TD*%
D13*
%TO.C,K12*%
X132374999Y-109737500D03*
X130174999Y-109737500D03*
X130174999Y-111437500D03*
X132374999Y-111437500D03*
%TD*%
D17*
%TO.C,SW4*%
X169675000Y-57125000D03*
X169675000Y-61275000D03*
X167525000Y-57125000D03*
X167525000Y-61275000D03*
%TD*%
D25*
%TO.C,R10*%
X169600000Y-95500000D03*
X169600000Y-93850000D03*
%TD*%
D13*
%TO.C,K7*%
X156000000Y-59787500D03*
X153800000Y-59787500D03*
X153800000Y-61487500D03*
X156000000Y-61487500D03*
%TD*%
D25*
%TO.C,R7*%
X139400000Y-95500000D03*
X139400000Y-93850000D03*
%TD*%
D17*
%TO.C,SW6*%
X139475000Y-107125000D03*
X139475000Y-111275000D03*
X137325000Y-107125000D03*
X137325000Y-111275000D03*
%TD*%
D18*
%TO.C,U22*%
X99518999Y-118620576D03*
X99518999Y-119820576D03*
X99518999Y-121020576D03*
X100718999Y-118620576D03*
X100718999Y-119820576D03*
X100718999Y-121020576D03*
X101918999Y-118620576D03*
X101918999Y-119820576D03*
X101918999Y-121020576D03*
D19*
X96556499Y-117070576D03*
X96556499Y-117570576D03*
X96556499Y-118070576D03*
X96556499Y-118570576D03*
X96556499Y-119070576D03*
X96556499Y-119570576D03*
X96556499Y-120070576D03*
X96556499Y-120570576D03*
X96556499Y-121070576D03*
X96556499Y-121570576D03*
X96556499Y-122070576D03*
X96556499Y-122570576D03*
D20*
X97968999Y-123983076D03*
X98468999Y-123983076D03*
X98968999Y-123983076D03*
X99468999Y-123983076D03*
X99968999Y-123983076D03*
X100468999Y-123983076D03*
X100968999Y-123983076D03*
X101468999Y-123983076D03*
X101968999Y-123983076D03*
X102468999Y-123983076D03*
X102968999Y-123983076D03*
X103468999Y-123983076D03*
D19*
X104881499Y-122570576D03*
X104881499Y-122070576D03*
X104881499Y-121570576D03*
X104881499Y-121070576D03*
X104881499Y-120570576D03*
X104881499Y-120070576D03*
X104881499Y-119570576D03*
X104881499Y-119070576D03*
X104881499Y-118570576D03*
X104881499Y-118070576D03*
X104881499Y-117570576D03*
X104881499Y-117070576D03*
D20*
X103468999Y-115658076D03*
X102968999Y-115658076D03*
X102468999Y-115658076D03*
X101968999Y-115658076D03*
X101468999Y-115658076D03*
X100968999Y-115658076D03*
X100468999Y-115658076D03*
X99968999Y-115658076D03*
X99468999Y-115658076D03*
X98968999Y-115658076D03*
X98468999Y-115658076D03*
X97968999Y-115658076D03*
%TD*%
D11*
%TO.C,C40*%
X104100000Y-107012500D03*
X102550000Y-107012500D03*
%TD*%
D22*
%TO.C,C13*%
X92639999Y-57025000D03*
X94189999Y-57025000D03*
%TD*%
D12*
%TO.C,R15*%
X92800000Y-140750000D03*
X92800000Y-142400000D03*
%TD*%
D15*
%TO.C,C18*%
X139400000Y-85800000D03*
X139400000Y-84250000D03*
%TD*%
D12*
%TO.C,R18*%
X123000000Y-140750000D03*
X123000000Y-142400000D03*
%TD*%
D16*
%TO.C,U29*%
X134500000Y-135800000D03*
X135450000Y-135800000D03*
X136400000Y-135800000D03*
X136400000Y-133525000D03*
X134500000Y-133525000D03*
%TD*%
D15*
%TO.C,C35*%
X92800000Y-139275000D03*
X92800000Y-137725000D03*
%TD*%
D16*
%TO.C,U24*%
X104300000Y-135800000D03*
X105250000Y-135800000D03*
X106200000Y-135800000D03*
X106200000Y-133525000D03*
X104300000Y-133525000D03*
%TD*%
D11*
%TO.C,C8*%
X164500000Y-107012500D03*
X162950000Y-107012500D03*
%TD*%
D21*
%TO.C,C33*%
X95997949Y-134962500D03*
X95997949Y-136512500D03*
%TD*%
D12*
%TO.C,R14*%
X109200000Y-140850000D03*
X109200000Y-142500000D03*
%TD*%
D25*
%TO.C,R16*%
X139400000Y-145500000D03*
X139400000Y-143850000D03*
%TD*%
D10*
%TO.C,U28*%
X131397949Y-135386501D03*
X131397949Y-133486501D03*
X129122949Y-134436501D03*
%TD*%
D11*
%TO.C,C48*%
X134300000Y-107012500D03*
X132750000Y-107012500D03*
%TD*%
D25*
%TO.C,R4*%
X109200000Y-95500000D03*
X109200000Y-93850000D03*
%TD*%
D22*
%TO.C,C7*%
X159950000Y-107012500D03*
X161500000Y-107012500D03*
%TD*%
D15*
%TO.C,C2*%
X169600000Y-135800000D03*
X169600000Y-134250000D03*
%TD*%
D12*
%TO.C,R6*%
X92800000Y-90750000D03*
X92800000Y-92400000D03*
%TD*%
D23*
%TO.C,U21*%
X97750000Y-140655000D03*
X98550000Y-140655000D03*
D24*
X99750000Y-140655000D03*
X100750000Y-140655000D03*
X101250000Y-140655000D03*
X102250000Y-140655000D03*
D23*
X103450000Y-140655000D03*
X104250000Y-140655000D03*
X104250000Y-140655000D03*
X103450000Y-140655000D03*
D24*
X102750000Y-140655000D03*
X101750000Y-140655000D03*
X100250000Y-140655000D03*
X99250000Y-140655000D03*
D23*
X98550000Y-140655000D03*
X97750000Y-140655000D03*
%TD*%
D11*
%TO.C,C46*%
X127375000Y-107025000D03*
X125825000Y-107025000D03*
%TD*%
D23*
%TO.C,U11*%
X127950000Y-90655000D03*
X128750000Y-90655000D03*
D24*
X129950000Y-90655000D03*
X130950000Y-90655000D03*
X131450000Y-90655000D03*
X132450000Y-90655000D03*
D23*
X133650000Y-90655000D03*
X134450000Y-90655000D03*
X134450000Y-90655000D03*
X133650000Y-90655000D03*
D24*
X132950000Y-90655000D03*
X131950000Y-90655000D03*
X130450000Y-90655000D03*
X129450000Y-90655000D03*
D23*
X128750000Y-90655000D03*
X127950000Y-90655000D03*
%TD*%
D11*
%TO.C,C38*%
X97175000Y-107025000D03*
X95625000Y-107025000D03*
%TD*%
D15*
%TO.C,C19*%
X123000000Y-89275000D03*
X123000000Y-87725000D03*
%TD*%
D12*
%TO.C,R9*%
X123000000Y-90750000D03*
X123000000Y-92400000D03*
%TD*%
D22*
%TO.C,C23*%
X129750000Y-57012500D03*
X131300000Y-57012500D03*
%TD*%
D11*
%TO.C,C14*%
X97175000Y-57025000D03*
X95625000Y-57025000D03*
%TD*%
D22*
%TO.C,C47*%
X129750000Y-107012500D03*
X131300000Y-107012500D03*
%TD*%
D12*
%TO.C,R3*%
X153200000Y-140750000D03*
X153200000Y-142400000D03*
%TD*%
%TO.C,R11*%
X169600000Y-90850000D03*
X169600000Y-92500000D03*
%TD*%
D13*
%TO.C,K6*%
X132374999Y-59737500D03*
X130174999Y-59737500D03*
X130174999Y-61437500D03*
X132374999Y-61437500D03*
%TD*%
D21*
%TO.C,C1*%
X156397949Y-134962500D03*
X156397949Y-136512500D03*
%TD*%
D18*
%TO.C,U12*%
X129718999Y-68620576D03*
X129718999Y-69820576D03*
X129718999Y-71020576D03*
X130918999Y-68620576D03*
X130918999Y-69820576D03*
X130918999Y-71020576D03*
X132118999Y-68620576D03*
X132118999Y-69820576D03*
X132118999Y-71020576D03*
D19*
X126756499Y-67070576D03*
X126756499Y-67570576D03*
X126756499Y-68070576D03*
X126756499Y-68570576D03*
X126756499Y-69070576D03*
X126756499Y-69570576D03*
X126756499Y-70070576D03*
X126756499Y-70570576D03*
X126756499Y-71070576D03*
X126756499Y-71570576D03*
X126756499Y-72070576D03*
X126756499Y-72570576D03*
D20*
X128168999Y-73983076D03*
X128668999Y-73983076D03*
X129168999Y-73983076D03*
X129668999Y-73983076D03*
X130168999Y-73983076D03*
X130668999Y-73983076D03*
X131168999Y-73983076D03*
X131668999Y-73983076D03*
X132168999Y-73983076D03*
X132668999Y-73983076D03*
X133168999Y-73983076D03*
X133668999Y-73983076D03*
D19*
X135081499Y-72570576D03*
X135081499Y-72070576D03*
X135081499Y-71570576D03*
X135081499Y-71070576D03*
X135081499Y-70570576D03*
X135081499Y-70070576D03*
X135081499Y-69570576D03*
X135081499Y-69070576D03*
X135081499Y-68570576D03*
X135081499Y-68070576D03*
X135081499Y-67570576D03*
X135081499Y-67070576D03*
D20*
X133668999Y-65658076D03*
X133168999Y-65658076D03*
X132668999Y-65658076D03*
X132168999Y-65658076D03*
X131668999Y-65658076D03*
X131168999Y-65658076D03*
X130668999Y-65658076D03*
X130168999Y-65658076D03*
X129668999Y-65658076D03*
X129168999Y-65658076D03*
X128668999Y-65658076D03*
X128168999Y-65658076D03*
%TD*%
D16*
%TO.C,U9*%
X104300000Y-85800000D03*
X105250000Y-85800000D03*
X106200000Y-85800000D03*
X106200000Y-83525000D03*
X104300000Y-83525000D03*
%TD*%
D11*
%TO.C,C36*%
X107675000Y-113400000D03*
X106125000Y-113400000D03*
%TD*%
D25*
%TO.C,R13*%
X109200000Y-145500000D03*
X109200000Y-143850000D03*
%TD*%
D11*
%TO.C,C4*%
X168075000Y-113400000D03*
X166525000Y-113400000D03*
%TD*%
D13*
%TO.C,K10*%
X102174999Y-109737500D03*
X99974999Y-109737500D03*
X99974999Y-111437500D03*
X102174999Y-111437500D03*
%TD*%
D22*
%TO.C,C39*%
X99550000Y-107012500D03*
X101100000Y-107012500D03*
%TD*%
M02*
