%TF.GenerationSoftware,KiCad,Pcbnew,9.0.3*%
%TF.CreationDate,2025-08-20T23:17:36-04:00*%
%TF.ProjectId,Panelized-Mess-P48,50616e65-6c69-47a6-9564-2d4d6573732d,rev?*%
%TF.SameCoordinates,Original*%
%TF.FileFunction,Profile,NP*%
%FSLAX46Y46*%
G04 Gerber Fmt 4.6, Leading zero omitted, Abs format (unit mm)*
G04 Created by KiCad (PCBNEW 9.0.3) date 2025-08-20 23:17:36*
%MOMM*%
%LPD*%
G01*
G04 APERTURE LIST*
%TA.AperFunction,Profile*%
%ADD10C,0.050000*%
%TD*%
%TA.AperFunction,Profile*%
%ADD11C,1.000000*%
%TD*%
G04 APERTURE END LIST*
D10*
X86200000Y-47800000D02*
X176400000Y-47800000D01*
X176400000Y-147200000D01*
X86200000Y-147200000D01*
X86200000Y-47800000D01*
D11*
X116200000Y-48200000D02*
X116196223Y-146800000D01*
D10*
X116400000Y-97800000D02*
X146200000Y-97800000D01*
X146200000Y-147200000D01*
X116400000Y-147200000D01*
X116400000Y-97800000D01*
X86200000Y-97800000D02*
X116000000Y-97800000D01*
X116000000Y-147200000D01*
X86200000Y-147200000D01*
X86200000Y-97800000D01*
D11*
X146400000Y-48200000D02*
X146403248Y-146800000D01*
D10*
X86200000Y-47800000D02*
X116000000Y-47800000D01*
X116000000Y-97200000D01*
X86200000Y-97200000D01*
X86200000Y-47800000D01*
X116400000Y-47800000D02*
X146200000Y-47800000D01*
X146200000Y-97200000D01*
X116400000Y-97200000D01*
X116400000Y-47800000D01*
D11*
X86600000Y-97493936D02*
X176000000Y-97500000D01*
D10*
X146600000Y-47800000D02*
X176400000Y-47800000D01*
X176400000Y-97200000D01*
X146600000Y-97200000D01*
X146600000Y-47800000D01*
X146600000Y-97800000D02*
X176400000Y-97800000D01*
X176400000Y-147200000D01*
X146600000Y-147200000D01*
X146600000Y-97800000D01*
M02*
