%TF.GenerationSoftware,KiCad,Pcbnew,9.0.4*%
%TF.CreationDate,2025-12-18T23:06:58-05:00*%
%TF.ProjectId,untitled,756e7469-746c-4656-942e-6b696361645f,rev?*%
%TF.SameCoordinates,Original*%
%TF.FileFunction,Paste,Bot*%
%TF.FilePolarity,Positive*%
%FSLAX46Y46*%
G04 Gerber Fmt 4.6, Leading zero omitted, Abs format (unit mm)*
G04 Created by KiCad (PCBNEW 9.0.4) date 2025-12-18 23:06:58*
%MOMM*%
%LPD*%
G01*
G04 APERTURE LIST*
G04 Aperture macros list*
%AMRoundRect*
0 Rectangle with rounded corners*
0 $1 Rounding radius*
0 $2 $3 $4 $5 $6 $7 $8 $9 X,Y pos of 4 corners*
0 Add a 4 corners polygon primitive as box body*
4,1,4,$2,$3,$4,$5,$6,$7,$8,$9,$2,$3,0*
0 Add four circle primitives for the rounded corners*
1,1,$1+$1,$2,$3*
1,1,$1+$1,$4,$5*
1,1,$1+$1,$6,$7*
1,1,$1+$1,$8,$9*
0 Add four rect primitives between the rounded corners*
20,1,$1+$1,$2,$3,$4,$5,0*
20,1,$1+$1,$4,$5,$6,$7,0*
20,1,$1+$1,$6,$7,$8,$9,0*
20,1,$1+$1,$8,$9,$2,$3,0*%
G04 Aperture macros list end*
%ADD10C,0.235000*%
%ADD11C,0.260000*%
%ADD12C,0.250000*%
%ADD13RoundRect,0.150000X-0.825000X-0.150000X0.825000X-0.150000X0.825000X0.150000X-0.825000X0.150000X0*%
G04 APERTURE END LIST*
D10*
%TO.C,U157*%
X77175000Y-134130000D03*
X77575000Y-134130000D03*
X77175000Y-133730000D03*
X77575000Y-133730000D03*
%TD*%
D11*
%TO.C,U153*%
X81575000Y-133130000D03*
X81575000Y-134130000D03*
X82075000Y-133130001D03*
X82075000Y-134129999D03*
X82575000Y-133130000D03*
X82575000Y-134130000D03*
%TD*%
D12*
%TO.C,U151*%
X87275000Y-134130000D03*
X87275000Y-133730000D03*
X86875000Y-134130000D03*
X86875000Y-133730000D03*
%TD*%
D13*
%TO.C,U160*%
X77400000Y-123435000D03*
X77400000Y-122165000D03*
X77400000Y-120895000D03*
X77400000Y-119625000D03*
X82350000Y-119625000D03*
X82350000Y-120895000D03*
X82350000Y-122165000D03*
X82350000Y-123435000D03*
%TD*%
D11*
%TO.C,U137*%
X131575000Y-113130000D03*
X131575000Y-114130000D03*
X132075000Y-113130001D03*
X132075000Y-114129999D03*
X132575000Y-113130000D03*
X132575000Y-114130000D03*
%TD*%
D12*
%TO.C,U135*%
X137275000Y-114130000D03*
X137275000Y-113730000D03*
X136875000Y-114130000D03*
X136875000Y-113730000D03*
%TD*%
D10*
%TO.C,U141*%
X127175000Y-114130000D03*
X127575000Y-114130000D03*
X127175000Y-113730000D03*
X127575000Y-113730000D03*
%TD*%
D13*
%TO.C,U144*%
X127400000Y-103435000D03*
X127400000Y-102165000D03*
X127400000Y-100895000D03*
X127400000Y-99625000D03*
X132350000Y-99625000D03*
X132350000Y-100895000D03*
X132350000Y-102165000D03*
X132350000Y-103435000D03*
%TD*%
D10*
%TO.C,U125*%
X77175000Y-114130000D03*
X77575000Y-114130000D03*
X77175000Y-113730000D03*
X77575000Y-113730000D03*
%TD*%
D11*
%TO.C,U121*%
X81575000Y-113130000D03*
X81575000Y-114130000D03*
X82075000Y-113130001D03*
X82075000Y-114129999D03*
X82575000Y-113130000D03*
X82575000Y-114130000D03*
%TD*%
D12*
%TO.C,U119*%
X87275000Y-114130000D03*
X87275000Y-113730000D03*
X86875000Y-114130000D03*
X86875000Y-113730000D03*
%TD*%
D13*
%TO.C,U128*%
X77400000Y-103435000D03*
X77400000Y-102165000D03*
X77400000Y-100895000D03*
X77400000Y-99625000D03*
X82350000Y-99625000D03*
X82350000Y-100895000D03*
X82350000Y-102165000D03*
X82350000Y-103435000D03*
%TD*%
D10*
%TO.C,U109*%
X127175000Y-94130000D03*
X127575000Y-94130000D03*
X127175000Y-93730000D03*
X127575000Y-93730000D03*
%TD*%
D11*
%TO.C,U105*%
X131575000Y-93130000D03*
X131575000Y-94130000D03*
X132075000Y-93130001D03*
X132075000Y-94129999D03*
X132575000Y-93130000D03*
X132575000Y-94130000D03*
%TD*%
D12*
%TO.C,U103*%
X137275000Y-94130000D03*
X137275000Y-93730000D03*
X136875000Y-94130000D03*
X136875000Y-93730000D03*
%TD*%
D13*
%TO.C,U112*%
X127400000Y-83435000D03*
X127400000Y-82165000D03*
X127400000Y-80895000D03*
X127400000Y-79625000D03*
X132350000Y-79625000D03*
X132350000Y-80895000D03*
X132350000Y-82165000D03*
X132350000Y-83435000D03*
%TD*%
D10*
%TO.C,U93*%
X77175000Y-94130000D03*
X77575000Y-94130000D03*
X77175000Y-93730000D03*
X77575000Y-93730000D03*
%TD*%
D11*
%TO.C,U89*%
X81575000Y-93130000D03*
X81575000Y-94130000D03*
X82075000Y-93130001D03*
X82075000Y-94129999D03*
X82575000Y-93130000D03*
X82575000Y-94130000D03*
%TD*%
D12*
%TO.C,U87*%
X87275000Y-94130000D03*
X87275000Y-93730000D03*
X86875000Y-94130000D03*
X86875000Y-93730000D03*
%TD*%
D13*
%TO.C,U96*%
X77400000Y-83435000D03*
X77400000Y-82165000D03*
X77400000Y-80895000D03*
X77400000Y-79625000D03*
X82350000Y-79625000D03*
X82350000Y-80895000D03*
X82350000Y-82165000D03*
X82350000Y-83435000D03*
%TD*%
D10*
%TO.C,U77*%
X127175000Y-74130000D03*
X127575000Y-74130000D03*
X127175000Y-73730000D03*
X127575000Y-73730000D03*
%TD*%
D11*
%TO.C,U73*%
X131575000Y-73130000D03*
X131575000Y-74130000D03*
X132075000Y-73130001D03*
X132075000Y-74129999D03*
X132575000Y-73130000D03*
X132575000Y-74130000D03*
%TD*%
D12*
%TO.C,U71*%
X137275000Y-74130000D03*
X137275000Y-73730000D03*
X136875000Y-74130000D03*
X136875000Y-73730000D03*
%TD*%
D13*
%TO.C,U80*%
X127400000Y-63435000D03*
X127400000Y-62165000D03*
X127400000Y-60895000D03*
X127400000Y-59625000D03*
X132350000Y-59625000D03*
X132350000Y-60895000D03*
X132350000Y-62165000D03*
X132350000Y-63435000D03*
%TD*%
D10*
%TO.C,U61*%
X77175000Y-74130000D03*
X77575000Y-74130000D03*
X77175000Y-73730000D03*
X77575000Y-73730000D03*
%TD*%
D11*
%TO.C,U57*%
X81575000Y-73130000D03*
X81575000Y-74130000D03*
X82075000Y-73130001D03*
X82075000Y-74129999D03*
X82575000Y-73130000D03*
X82575000Y-74130000D03*
%TD*%
D12*
%TO.C,U55*%
X87275000Y-74130000D03*
X87275000Y-73730000D03*
X86875000Y-74130000D03*
X86875000Y-73730000D03*
%TD*%
D13*
%TO.C,U64*%
X77400000Y-63435000D03*
X77400000Y-62165000D03*
X77400000Y-60895000D03*
X77400000Y-59625000D03*
X82350000Y-59625000D03*
X82350000Y-60895000D03*
X82350000Y-62165000D03*
X82350000Y-63435000D03*
%TD*%
D10*
%TO.C,U45*%
X127175000Y-54130000D03*
X127575000Y-54130000D03*
X127175000Y-53730000D03*
X127575000Y-53730000D03*
%TD*%
D11*
%TO.C,U41*%
X131575000Y-53130000D03*
X131575000Y-54130000D03*
X132075000Y-53130001D03*
X132075000Y-54129999D03*
X132575000Y-53130000D03*
X132575000Y-54130000D03*
%TD*%
D12*
%TO.C,U39*%
X137275000Y-54130000D03*
X137275000Y-53730000D03*
X136875000Y-54130000D03*
X136875000Y-53730000D03*
%TD*%
D13*
%TO.C,U48*%
X127400000Y-43435000D03*
X127400000Y-42165000D03*
X127400000Y-40895000D03*
X127400000Y-39625000D03*
X132350000Y-39625000D03*
X132350000Y-40895000D03*
X132350000Y-42165000D03*
X132350000Y-43435000D03*
%TD*%
D10*
%TO.C,U29*%
X77175000Y-54130000D03*
X77575000Y-54130000D03*
X77175000Y-53730000D03*
X77575000Y-53730000D03*
%TD*%
D11*
%TO.C,U25*%
X81575000Y-53130000D03*
X81575000Y-54130000D03*
X82075000Y-53130001D03*
X82075000Y-54129999D03*
X82575000Y-53130000D03*
X82575000Y-54130000D03*
%TD*%
D12*
%TO.C,U23*%
X87275000Y-54130000D03*
X87275000Y-53730000D03*
X86875000Y-54130000D03*
X86875000Y-53730000D03*
%TD*%
D13*
%TO.C,U32*%
X77400000Y-43435000D03*
X77400000Y-42165000D03*
X77400000Y-40895000D03*
X77400000Y-39625000D03*
X82350000Y-39625000D03*
X82350000Y-40895000D03*
X82350000Y-42165000D03*
X82350000Y-43435000D03*
%TD*%
D11*
%TO.C,U9*%
X131575000Y-133130000D03*
X131575000Y-134130000D03*
X132075000Y-133130001D03*
X132075000Y-134129999D03*
X132575000Y-133130000D03*
X132575000Y-134130000D03*
%TD*%
D13*
%TO.C,U16*%
X127400000Y-123435000D03*
X127400000Y-122165000D03*
X127400000Y-120895000D03*
X127400000Y-119625000D03*
X132350000Y-119625000D03*
X132350000Y-120895000D03*
X132350000Y-122165000D03*
X132350000Y-123435000D03*
%TD*%
D12*
%TO.C,U7*%
X137275000Y-134130000D03*
X137275000Y-133730000D03*
X136875000Y-134130000D03*
X136875000Y-133730000D03*
%TD*%
D10*
%TO.C,U13*%
X127175000Y-134130000D03*
X127575000Y-134130000D03*
X127175000Y-133730000D03*
X127575000Y-133730000D03*
%TD*%
M02*
