%TF.GenerationSoftware,KiCad,Pcbnew,9.0.4*%
%TF.CreationDate,2025-12-18T23:06:58-05:00*%
%TF.ProjectId,untitled,756e7469-746c-4656-942e-6b696361645f,rev?*%
%TF.SameCoordinates,Original*%
%TF.FileFunction,Soldermask,Top*%
%TF.FilePolarity,Negative*%
%FSLAX46Y46*%
G04 Gerber Fmt 4.6, Leading zero omitted, Abs format (unit mm)*
G04 Created by KiCad (PCBNEW 9.0.4) date 2025-12-18 23:06:58*
%MOMM*%
%LPD*%
G01*
G04 APERTURE LIST*
G04 Aperture macros list*
%AMRoundRect*
0 Rectangle with rounded corners*
0 $1 Rounding radius*
0 $2 $3 $4 $5 $6 $7 $8 $9 X,Y pos of 4 corners*
0 Add a 4 corners polygon primitive as box body*
4,1,4,$2,$3,$4,$5,$6,$7,$8,$9,$2,$3,0*
0 Add four circle primitives for the rounded corners*
1,1,$1+$1,$2,$3*
1,1,$1+$1,$4,$5*
1,1,$1+$1,$6,$7*
1,1,$1+$1,$8,$9*
0 Add four rect primitives between the rounded corners*
20,1,$1+$1,$2,$3,$4,$5,0*
20,1,$1+$1,$4,$5,$6,$7,0*
20,1,$1+$1,$6,$7,$8,$9,0*
20,1,$1+$1,$8,$9,$2,$3,0*%
%AMFreePoly0*
4,1,6,0.500000,-0.850000,-0.500000,-0.850000,-0.500000,0.550000,-0.200000,0.850000,0.500000,0.850000,0.500000,-0.850000,0.500000,-0.850000,$1*%
%AMFreePoly1*
4,1,6,0.825000,0.000000,0.525000,-0.450000,-0.500000,-0.450000,-0.500000,0.450000,0.525000,0.450000,0.825000,0.000000,0.825000,0.000000,$1*%
%AMFreePoly2*
4,1,6,0.500000,-0.450000,-0.625000,-0.450000,-0.325000,0.000000,-0.625000,0.450000,0.500000,0.450000,0.500000,-0.450000,0.500000,-0.450000,$1*%
G04 Aperture macros list end*
%ADD10C,0.000000*%
%ADD11RoundRect,0.225000X0.225000X0.250000X-0.225000X0.250000X-0.225000X-0.250000X0.225000X-0.250000X0*%
%ADD12RoundRect,0.200000X0.275000X-0.200000X0.275000X0.200000X-0.275000X0.200000X-0.275000X-0.200000X0*%
%ADD13RoundRect,0.225000X0.250000X-0.225000X0.250000X0.225000X-0.250000X0.225000X-0.250000X-0.225000X0*%
%ADD14RoundRect,0.125000X0.537500X0.125000X-0.537500X0.125000X-0.537500X-0.125000X0.537500X-0.125000X0*%
%ADD15RoundRect,0.225000X-0.225000X-0.250000X0.225000X-0.250000X0.225000X0.250000X-0.225000X0.250000X0*%
%ADD16R,0.550000X0.250000*%
%ADD17FreePoly0,180.000000*%
%ADD18RoundRect,0.218750X0.218750X0.256250X-0.218750X0.256250X-0.218750X-0.256250X0.218750X-0.256250X0*%
%ADD19FreePoly1,0.000000*%
%ADD20FreePoly2,0.000000*%
%ADD21RoundRect,0.062500X-0.087500X-0.062500X0.087500X-0.062500X0.087500X0.062500X-0.087500X0.062500X0*%
%ADD22RoundRect,0.150000X-0.150000X0.300000X-0.150000X-0.300000X0.150000X-0.300000X0.150000X0.300000X0*%
%ADD23R,1.700000X1.700000*%
%ADD24C,1.700000*%
%ADD25R,1.000000X1.000000*%
%ADD26C,1.000000*%
%ADD27RoundRect,0.150000X-0.512500X-0.150000X0.512500X-0.150000X0.512500X0.150000X-0.512500X0.150000X0*%
%ADD28R,0.720000X0.600000*%
%ADD29R,0.450000X0.700000*%
%ADD30R,1.100000X0.500000*%
%ADD31RoundRect,0.112500X-0.112500X0.187500X-0.112500X-0.187500X0.112500X-0.187500X0.112500X0.187500X0*%
%ADD32RoundRect,0.250000X0.625000X-0.312500X0.625000X0.312500X-0.625000X0.312500X-0.625000X-0.312500X0*%
%ADD33RoundRect,0.250000X1.425000X-0.362500X1.425000X0.362500X-1.425000X0.362500X-1.425000X-0.362500X0*%
%ADD34RoundRect,0.200000X0.200000X0.275000X-0.200000X0.275000X-0.200000X-0.275000X0.200000X-0.275000X0*%
%ADD35RoundRect,0.087500X-0.250000X-0.087500X0.250000X-0.087500X0.250000X0.087500X-0.250000X0.087500X0*%
%ADD36RoundRect,0.200000X-0.200000X-0.275000X0.200000X-0.275000X0.200000X0.275000X-0.200000X0.275000X0*%
%ADD37RoundRect,0.075000X-0.250000X-0.075000X0.250000X-0.075000X0.250000X0.075000X-0.250000X0.075000X0*%
%ADD38C,0.650000*%
%ADD39R,0.600000X1.450000*%
%ADD40R,0.300000X1.450000*%
%ADD41O,1.000000X2.100000*%
%ADD42O,1.000000X1.600000*%
%ADD43R,0.400000X0.600000*%
%ADD44R,1.600000X0.700000*%
%ADD45R,0.900000X1.500000*%
%ADD46RoundRect,0.102000X0.275000X0.125000X-0.275000X0.125000X-0.275000X-0.125000X0.275000X-0.125000X0*%
%ADD47R,0.850000X0.850000*%
G04 APERTURE END LIST*
D10*
%TO.C,J79*%
G36*
X104280001Y-119585000D02*
G01*
X101830001Y-119585000D01*
X101830001Y-118685000D01*
X104280001Y-118685000D01*
X104280001Y-119585000D01*
G37*
%TO.C,J77*%
G36*
X100830003Y-119585000D02*
G01*
X98380003Y-119585000D01*
X98380003Y-118685000D01*
X100830003Y-118685000D01*
X100830003Y-119585000D01*
G37*
%TO.C,J75*%
G36*
X114605000Y-119585000D02*
G01*
X112155000Y-119585000D01*
X112155000Y-118685000D01*
X114605000Y-118685000D01*
X114605000Y-119585000D01*
G37*
%TO.C,J71*%
G36*
X154280001Y-99585000D02*
G01*
X151830001Y-99585000D01*
X151830001Y-98685000D01*
X154280001Y-98685000D01*
X154280001Y-99585000D01*
G37*
%TO.C,J67*%
G36*
X164605000Y-99585000D02*
G01*
X162155000Y-99585000D01*
X162155000Y-98685000D01*
X164605000Y-98685000D01*
X164605000Y-99585000D01*
G37*
%TO.C,J69*%
G36*
X150830003Y-99585000D02*
G01*
X148380003Y-99585000D01*
X148380003Y-98685000D01*
X150830003Y-98685000D01*
X150830003Y-99585000D01*
G37*
%TO.C,J63*%
G36*
X104280001Y-99585000D02*
G01*
X101830001Y-99585000D01*
X101830001Y-98685000D01*
X104280001Y-98685000D01*
X104280001Y-99585000D01*
G37*
%TO.C,J61*%
G36*
X100830003Y-99585000D02*
G01*
X98380003Y-99585000D01*
X98380003Y-98685000D01*
X100830003Y-98685000D01*
X100830003Y-99585000D01*
G37*
%TO.C,J59*%
G36*
X114605000Y-99585000D02*
G01*
X112155000Y-99585000D01*
X112155000Y-98685000D01*
X114605000Y-98685000D01*
X114605000Y-99585000D01*
G37*
%TO.C,J55*%
G36*
X154280001Y-79585000D02*
G01*
X151830001Y-79585000D01*
X151830001Y-78685000D01*
X154280001Y-78685000D01*
X154280001Y-79585000D01*
G37*
%TO.C,J53*%
G36*
X150830003Y-79585000D02*
G01*
X148380003Y-79585000D01*
X148380003Y-78685000D01*
X150830003Y-78685000D01*
X150830003Y-79585000D01*
G37*
%TO.C,J51*%
G36*
X164605000Y-79585000D02*
G01*
X162155000Y-79585000D01*
X162155000Y-78685000D01*
X164605000Y-78685000D01*
X164605000Y-79585000D01*
G37*
%TO.C,J43*%
G36*
X114605000Y-79585000D02*
G01*
X112155000Y-79585000D01*
X112155000Y-78685000D01*
X114605000Y-78685000D01*
X114605000Y-79585000D01*
G37*
%TO.C,J47*%
G36*
X104280001Y-79585000D02*
G01*
X101830001Y-79585000D01*
X101830001Y-78685000D01*
X104280001Y-78685000D01*
X104280001Y-79585000D01*
G37*
%TO.C,J45*%
G36*
X100830003Y-79585000D02*
G01*
X98380003Y-79585000D01*
X98380003Y-78685000D01*
X100830003Y-78685000D01*
X100830003Y-79585000D01*
G37*
%TO.C,J35*%
G36*
X164605000Y-59585000D02*
G01*
X162155000Y-59585000D01*
X162155000Y-58685000D01*
X164605000Y-58685000D01*
X164605000Y-59585000D01*
G37*
%TO.C,J39*%
G36*
X154280001Y-59585000D02*
G01*
X151830001Y-59585000D01*
X151830001Y-58685000D01*
X154280001Y-58685000D01*
X154280001Y-59585000D01*
G37*
%TO.C,J37*%
G36*
X150830003Y-59585000D02*
G01*
X148380003Y-59585000D01*
X148380003Y-58685000D01*
X150830003Y-58685000D01*
X150830003Y-59585000D01*
G37*
%TO.C,J27*%
G36*
X114605000Y-59585000D02*
G01*
X112155000Y-59585000D01*
X112155000Y-58685000D01*
X114605000Y-58685000D01*
X114605000Y-59585000D01*
G37*
%TO.C,J29*%
G36*
X100830003Y-59585000D02*
G01*
X98380003Y-59585000D01*
X98380003Y-58685000D01*
X100830003Y-58685000D01*
X100830003Y-59585000D01*
G37*
%TO.C,J31*%
G36*
X104280001Y-59585000D02*
G01*
X101830001Y-59585000D01*
X101830001Y-58685000D01*
X104280001Y-58685000D01*
X104280001Y-59585000D01*
G37*
%TO.C,J19*%
G36*
X164605000Y-39585000D02*
G01*
X162155000Y-39585000D01*
X162155000Y-38685000D01*
X164605000Y-38685000D01*
X164605000Y-39585000D01*
G37*
%TO.C,J21*%
G36*
X150830003Y-39585000D02*
G01*
X148380003Y-39585000D01*
X148380003Y-38685000D01*
X150830003Y-38685000D01*
X150830003Y-39585000D01*
G37*
%TO.C,J23*%
G36*
X154280001Y-39585000D02*
G01*
X151830001Y-39585000D01*
X151830001Y-38685000D01*
X154280001Y-38685000D01*
X154280001Y-39585000D01*
G37*
%TO.C,J11*%
G36*
X114605000Y-39585000D02*
G01*
X112155000Y-39585000D01*
X112155000Y-38685000D01*
X114605000Y-38685000D01*
X114605000Y-39585000D01*
G37*
%TO.C,J13*%
G36*
X100830003Y-39585000D02*
G01*
X98380003Y-39585000D01*
X98380003Y-38685000D01*
X100830003Y-38685000D01*
X100830003Y-39585000D01*
G37*
%TO.C,J15*%
G36*
X104280001Y-39585000D02*
G01*
X101830001Y-39585000D01*
X101830001Y-38685000D01*
X104280001Y-38685000D01*
X104280001Y-39585000D01*
G37*
%TO.C,J5*%
G36*
X150830003Y-119585000D02*
G01*
X148380003Y-119585000D01*
X148380003Y-118685000D01*
X150830003Y-118685000D01*
X150830003Y-119585000D01*
G37*
%TO.C,J7*%
G36*
X154280001Y-119585000D02*
G01*
X151830001Y-119585000D01*
X151830001Y-118685000D01*
X154280001Y-118685000D01*
X154280001Y-119585000D01*
G37*
%TO.C,J3*%
G36*
X164605000Y-119585000D02*
G01*
X162155000Y-119585000D01*
X162155000Y-118685000D01*
X164605000Y-118685000D01*
X164605000Y-119585000D01*
G37*
%TD*%
D11*
%TO.C,C65*%
X78125000Y-130930000D03*
X76575000Y-130930000D03*
%TD*%
D12*
%TO.C,R75*%
X76675000Y-127955000D03*
X76675000Y-126305000D03*
%TD*%
D13*
%TO.C,C70*%
X104080000Y-125985000D03*
X104080000Y-124435000D03*
%TD*%
D14*
%TO.C,U147*%
X93517500Y-125410000D03*
X93517500Y-124760000D03*
X93517500Y-124110000D03*
X93517500Y-123460000D03*
X91242500Y-123460000D03*
X91242500Y-124110000D03*
X91242500Y-124760000D03*
X91242500Y-125410000D03*
%TD*%
D15*
%TO.C,C67*%
X101830000Y-122135000D03*
X103380000Y-122135000D03*
%TD*%
D16*
%TO.C,U158*%
X83250000Y-134930000D03*
X83250000Y-134429999D03*
X83250000Y-133929999D03*
X83250000Y-133429998D03*
X80900000Y-133429998D03*
X80900000Y-133929999D03*
X80900000Y-134429999D03*
X80900000Y-134930000D03*
D17*
X82075000Y-134179999D03*
%TD*%
D18*
%TO.C,D20*%
X110230001Y-119135000D03*
X108654999Y-119135000D03*
%TD*%
D19*
%TO.C,J79*%
X102330002Y-119135000D03*
D20*
X103780000Y-119135000D03*
%TD*%
D11*
%TO.C,C66*%
X100245000Y-122135000D03*
X98695000Y-122135000D03*
%TD*%
D21*
%TO.C,U155*%
X87362500Y-122930000D03*
X87362500Y-123530000D03*
X88662500Y-123530000D03*
X88662500Y-122930000D03*
D22*
X88012500Y-123230001D03*
%TD*%
D23*
%TO.C,J73*%
X73075000Y-120250000D03*
D24*
X73075000Y-122790000D03*
X73075000Y-125330000D03*
X73075000Y-127870000D03*
X73075000Y-130410000D03*
X73075000Y-132950000D03*
%TD*%
D25*
%TO.C,J78*%
X84075000Y-128200001D03*
D26*
X84075000Y-126930001D03*
%TD*%
D27*
%TO.C,U152*%
X107105000Y-121835000D03*
X107105000Y-122785000D03*
X107105000Y-123735000D03*
X109380000Y-123735000D03*
X109380000Y-121835000D03*
%TD*%
D23*
%TO.C,J74*%
X99780000Y-126115000D03*
D24*
X99780000Y-128655000D03*
X99780000Y-131195000D03*
X99780000Y-133735000D03*
%TD*%
D28*
%TO.C,U150*%
X80609264Y-120088578D03*
X79639264Y-120088578D03*
X78669264Y-120088578D03*
X77699264Y-120088578D03*
X77699264Y-118688578D03*
X78669264Y-118688578D03*
X79639264Y-118688578D03*
X80609264Y-118688578D03*
%TD*%
D29*
%TO.C,IC10*%
X83675000Y-120230000D03*
X84475000Y-120230000D03*
X84475000Y-118630000D03*
X83675000Y-118630000D03*
D30*
X84075000Y-119430000D03*
%TD*%
D15*
%TO.C,C64*%
X82725000Y-130930000D03*
X84275000Y-130930000D03*
%TD*%
%TO.C,C69*%
X112005000Y-125935000D03*
X113555000Y-125935000D03*
%TD*%
D31*
%TO.C,D19*%
X112880000Y-121485000D03*
X112880000Y-123585000D03*
%TD*%
D32*
%TO.C,R74*%
X92680000Y-132697500D03*
X92680000Y-129772500D03*
%TD*%
D33*
%TO.C,R73*%
X92680000Y-134197500D03*
X92680000Y-128272500D03*
%TD*%
D34*
%TO.C,R80*%
X107180000Y-119135000D03*
X105530000Y-119135000D03*
%TD*%
D19*
%TO.C,J77*%
X98880004Y-119135000D03*
D20*
X100330002Y-119135000D03*
%TD*%
D35*
%TO.C,U159*%
X87155000Y-129435000D03*
X87154999Y-129935000D03*
X87155000Y-130435000D03*
X88580000Y-130435000D03*
X88580001Y-129935000D03*
X88580000Y-129435000D03*
%TD*%
D23*
%TO.C,J80*%
X93580000Y-119635000D03*
D24*
X91040000Y-119635000D03*
%TD*%
D19*
%TO.C,J75*%
X112655001Y-119135000D03*
D20*
X114104999Y-119135000D03*
%TD*%
D23*
%TO.C,J76*%
X117580000Y-126115000D03*
D24*
X117580000Y-128655000D03*
X117580000Y-131195000D03*
X117580000Y-133735000D03*
%TD*%
D36*
%TO.C,R79*%
X116355000Y-122135000D03*
X118005000Y-122135000D03*
%TD*%
%TO.C,R77*%
X116355000Y-119435000D03*
X118005000Y-119435000D03*
%TD*%
D37*
%TO.C,U146*%
X79080000Y-126635000D03*
X79080000Y-127285000D03*
X79080000Y-127935000D03*
X79080000Y-128585000D03*
X80880000Y-128585000D03*
X80880000Y-127935000D03*
X80880000Y-127285000D03*
X80880000Y-126635000D03*
%TD*%
D38*
%TO.C,U148*%
X105790000Y-130095000D03*
X111570000Y-130095000D03*
D39*
X105430000Y-128650000D03*
X106229999Y-128650000D03*
D40*
X107430000Y-128650001D03*
X108430000Y-128650000D03*
X108930000Y-128650000D03*
X109930000Y-128650001D03*
D39*
X111130001Y-128650000D03*
X111930000Y-128650000D03*
X111930000Y-128650000D03*
X111130001Y-128650000D03*
D40*
X110430000Y-128650000D03*
X109430000Y-128650000D03*
X107930000Y-128650000D03*
X106930000Y-128650000D03*
D39*
X106229999Y-128650000D03*
X105430000Y-128650000D03*
D41*
X104360000Y-129565000D03*
D42*
X104360000Y-133745000D03*
D41*
X113000000Y-129565000D03*
D42*
X113000000Y-133745000D03*
%TD*%
D43*
%TO.C,U154*%
X88475000Y-118530000D03*
X87525000Y-118530000D03*
X87525000Y-120430000D03*
X88475000Y-120430000D03*
D44*
X88000000Y-119480000D03*
%TD*%
D12*
%TO.C,R76*%
X76675000Y-124904999D03*
X76675000Y-123254999D03*
%TD*%
D21*
%TO.C,U156*%
X86825000Y-126080000D03*
X86825000Y-126730000D03*
X86825000Y-127380000D03*
X88525000Y-127380000D03*
X88525000Y-126730000D03*
X88525000Y-126080000D03*
D45*
X87675000Y-126730000D03*
%TD*%
D46*
%TO.C,U149*%
X88675000Y-134530000D03*
X88675000Y-134030000D03*
X88675000Y-133530000D03*
X85925000Y-133530000D03*
X85925000Y-134030000D03*
X85925000Y-134530000D03*
%TD*%
D36*
%TO.C,R78*%
X79525000Y-130929998D03*
X81175000Y-130929998D03*
%TD*%
D37*
%TO.C,U145*%
X82574999Y-123080000D03*
X82575000Y-123730000D03*
X82574999Y-124380000D03*
X84375001Y-124380000D03*
X84375000Y-123730000D03*
X84375001Y-123080000D03*
%TD*%
D11*
%TO.C,C68*%
X78050000Y-133930000D03*
X76500000Y-133930000D03*
%TD*%
D47*
%TO.C,TP10*%
X79580000Y-124535000D03*
%TD*%
D23*
%TO.C,J66*%
X149780000Y-106115000D03*
D24*
X149780000Y-108655000D03*
X149780000Y-111195000D03*
X149780000Y-113735000D03*
%TD*%
D12*
%TO.C,R67*%
X126675000Y-107955000D03*
X126675000Y-106305000D03*
%TD*%
D34*
%TO.C,R72*%
X157180000Y-99135000D03*
X155530000Y-99135000D03*
%TD*%
D19*
%TO.C,J71*%
X152330002Y-99135000D03*
D20*
X153780000Y-99135000D03*
%TD*%
D21*
%TO.C,U139*%
X137362500Y-102930000D03*
X137362500Y-103530000D03*
X138662500Y-103530000D03*
X138662500Y-102930000D03*
D22*
X138012500Y-103230001D03*
%TD*%
D11*
%TO.C,C59*%
X150245000Y-102135000D03*
X148695000Y-102135000D03*
%TD*%
D29*
%TO.C,IC9*%
X133675000Y-100230000D03*
X134475000Y-100230000D03*
X134475000Y-98630000D03*
X133675000Y-98630000D03*
D30*
X134075000Y-99430000D03*
%TD*%
D14*
%TO.C,U131*%
X143517500Y-105410000D03*
X143517500Y-104760000D03*
X143517500Y-104110000D03*
X143517500Y-103460000D03*
X141242500Y-103460000D03*
X141242500Y-104110000D03*
X141242500Y-104760000D03*
X141242500Y-105410000D03*
%TD*%
D47*
%TO.C,TP9*%
X129580000Y-104535000D03*
%TD*%
D35*
%TO.C,U143*%
X137155000Y-109435000D03*
X137154999Y-109935000D03*
X137155000Y-110435000D03*
X138580000Y-110435000D03*
X138580001Y-109935000D03*
X138580000Y-109435000D03*
%TD*%
D18*
%TO.C,D18*%
X160230001Y-99135000D03*
X158654999Y-99135000D03*
%TD*%
D19*
%TO.C,J67*%
X162655001Y-99135000D03*
D20*
X164104999Y-99135000D03*
%TD*%
D27*
%TO.C,U136*%
X157105000Y-101835000D03*
X157105000Y-102785000D03*
X157105000Y-103735000D03*
X159380000Y-103735000D03*
X159380000Y-101835000D03*
%TD*%
D36*
%TO.C,R69*%
X166355000Y-99435000D03*
X168005000Y-99435000D03*
%TD*%
D43*
%TO.C,U138*%
X138475000Y-98530000D03*
X137525000Y-98530000D03*
X137525000Y-100430000D03*
X138475000Y-100430000D03*
D44*
X138000000Y-99480000D03*
%TD*%
D16*
%TO.C,U142*%
X133250000Y-114930000D03*
X133250000Y-114429999D03*
X133250000Y-113929999D03*
X133250000Y-113429998D03*
X130900000Y-113429998D03*
X130900000Y-113929999D03*
X130900000Y-114429999D03*
X130900000Y-114930000D03*
D17*
X132075000Y-114179999D03*
%TD*%
D28*
%TO.C,U134*%
X130609264Y-100088578D03*
X129639264Y-100088578D03*
X128669264Y-100088578D03*
X127699264Y-100088578D03*
X127699264Y-98688578D03*
X128669264Y-98688578D03*
X129639264Y-98688578D03*
X130609264Y-98688578D03*
%TD*%
D46*
%TO.C,U133*%
X138675000Y-114530000D03*
X138675000Y-114030000D03*
X138675000Y-113530000D03*
X135925000Y-113530000D03*
X135925000Y-114030000D03*
X135925000Y-114530000D03*
%TD*%
D12*
%TO.C,R68*%
X126675000Y-104904999D03*
X126675000Y-103254999D03*
%TD*%
D21*
%TO.C,U140*%
X136825000Y-106080000D03*
X136825000Y-106730000D03*
X136825000Y-107380000D03*
X138525000Y-107380000D03*
X138525000Y-106730000D03*
X138525000Y-106080000D03*
D45*
X137675000Y-106730000D03*
%TD*%
D25*
%TO.C,J70*%
X134075000Y-108200001D03*
D26*
X134075000Y-106930001D03*
%TD*%
D15*
%TO.C,C57*%
X132725000Y-110930000D03*
X134275000Y-110930000D03*
%TD*%
D36*
%TO.C,R71*%
X166355000Y-102135000D03*
X168005000Y-102135000D03*
%TD*%
D33*
%TO.C,R65*%
X142680000Y-114197500D03*
X142680000Y-108272500D03*
%TD*%
D32*
%TO.C,R66*%
X142680000Y-112697500D03*
X142680000Y-109772500D03*
%TD*%
D11*
%TO.C,C58*%
X128125000Y-110930000D03*
X126575000Y-110930000D03*
%TD*%
D23*
%TO.C,J72*%
X143580000Y-99635000D03*
D24*
X141040000Y-99635000D03*
%TD*%
D23*
%TO.C,J68*%
X167580000Y-106115000D03*
D24*
X167580000Y-108655000D03*
X167580000Y-111195000D03*
X167580000Y-113735000D03*
%TD*%
D19*
%TO.C,J69*%
X148880004Y-99135000D03*
D20*
X150330002Y-99135000D03*
%TD*%
D15*
%TO.C,C62*%
X162005000Y-105935000D03*
X163555000Y-105935000D03*
%TD*%
D31*
%TO.C,D17*%
X162880000Y-101485000D03*
X162880000Y-103585000D03*
%TD*%
D13*
%TO.C,C63*%
X154080000Y-105985000D03*
X154080000Y-104435000D03*
%TD*%
D11*
%TO.C,C61*%
X128050000Y-113930000D03*
X126500000Y-113930000D03*
%TD*%
D37*
%TO.C,U130*%
X129080000Y-106635000D03*
X129080000Y-107285000D03*
X129080000Y-107935000D03*
X129080000Y-108585000D03*
X130880000Y-108585000D03*
X130880000Y-107935000D03*
X130880000Y-107285000D03*
X130880000Y-106635000D03*
%TD*%
D38*
%TO.C,U132*%
X155790000Y-110095000D03*
X161570000Y-110095000D03*
D39*
X155430000Y-108650000D03*
X156229999Y-108650000D03*
D40*
X157430000Y-108650001D03*
X158430000Y-108650000D03*
X158930000Y-108650000D03*
X159930000Y-108650001D03*
D39*
X161130001Y-108650000D03*
X161930000Y-108650000D03*
X161930000Y-108650000D03*
X161130001Y-108650000D03*
D40*
X160430000Y-108650000D03*
X159430000Y-108650000D03*
X157930000Y-108650000D03*
X156930000Y-108650000D03*
D39*
X156229999Y-108650000D03*
X155430000Y-108650000D03*
D41*
X154360000Y-109565000D03*
D42*
X154360000Y-113745000D03*
D41*
X163000000Y-109565000D03*
D42*
X163000000Y-113745000D03*
%TD*%
D15*
%TO.C,C60*%
X151830000Y-102135000D03*
X153380000Y-102135000D03*
%TD*%
D36*
%TO.C,R70*%
X129525000Y-110929998D03*
X131175000Y-110929998D03*
%TD*%
D23*
%TO.C,J65*%
X123075000Y-100250000D03*
D24*
X123075000Y-102790000D03*
X123075000Y-105330000D03*
X123075000Y-107870000D03*
X123075000Y-110410000D03*
X123075000Y-112950000D03*
%TD*%
D37*
%TO.C,U129*%
X132574999Y-103080000D03*
X132575000Y-103730000D03*
X132574999Y-104380000D03*
X134375001Y-104380000D03*
X134375000Y-103730000D03*
X134375001Y-103080000D03*
%TD*%
D11*
%TO.C,C51*%
X78125000Y-110930000D03*
X76575000Y-110930000D03*
%TD*%
D12*
%TO.C,R59*%
X76675000Y-107955000D03*
X76675000Y-106305000D03*
%TD*%
D34*
%TO.C,R64*%
X107180000Y-99135000D03*
X105530000Y-99135000D03*
%TD*%
D36*
%TO.C,R62*%
X79525000Y-110929998D03*
X81175000Y-110929998D03*
%TD*%
D21*
%TO.C,U123*%
X87362500Y-102930000D03*
X87362500Y-103530000D03*
X88662500Y-103530000D03*
X88662500Y-102930000D03*
D22*
X88012500Y-103230001D03*
%TD*%
D11*
%TO.C,C52*%
X100245000Y-102135000D03*
X98695000Y-102135000D03*
%TD*%
D31*
%TO.C,D15*%
X112880000Y-101485000D03*
X112880000Y-103585000D03*
%TD*%
D13*
%TO.C,C56*%
X104080000Y-105985000D03*
X104080000Y-104435000D03*
%TD*%
D14*
%TO.C,U115*%
X93517500Y-105410000D03*
X93517500Y-104760000D03*
X93517500Y-104110000D03*
X93517500Y-103460000D03*
X91242500Y-103460000D03*
X91242500Y-104110000D03*
X91242500Y-104760000D03*
X91242500Y-105410000D03*
%TD*%
D12*
%TO.C,R60*%
X76675000Y-104904999D03*
X76675000Y-103254999D03*
%TD*%
D11*
%TO.C,C54*%
X78050000Y-113930000D03*
X76500000Y-113930000D03*
%TD*%
D46*
%TO.C,U117*%
X88675000Y-114530000D03*
X88675000Y-114030000D03*
X88675000Y-113530000D03*
X85925000Y-113530000D03*
X85925000Y-114030000D03*
X85925000Y-114530000D03*
%TD*%
D23*
%TO.C,J60*%
X117580000Y-106115000D03*
D24*
X117580000Y-108655000D03*
X117580000Y-111195000D03*
X117580000Y-113735000D03*
%TD*%
D35*
%TO.C,U127*%
X87155000Y-109435000D03*
X87154999Y-109935000D03*
X87155000Y-110435000D03*
X88580000Y-110435000D03*
X88580001Y-109935000D03*
X88580000Y-109435000D03*
%TD*%
D19*
%TO.C,J63*%
X102330002Y-99135000D03*
D20*
X103780000Y-99135000D03*
%TD*%
D29*
%TO.C,IC8*%
X83675000Y-100230000D03*
X84475000Y-100230000D03*
X84475000Y-98630000D03*
X83675000Y-98630000D03*
D30*
X84075000Y-99430000D03*
%TD*%
D27*
%TO.C,U120*%
X107105000Y-101835000D03*
X107105000Y-102785000D03*
X107105000Y-103735000D03*
X109380000Y-103735000D03*
X109380000Y-101835000D03*
%TD*%
D36*
%TO.C,R61*%
X116355000Y-99435000D03*
X118005000Y-99435000D03*
%TD*%
D47*
%TO.C,TP8*%
X79580000Y-104535000D03*
%TD*%
D21*
%TO.C,U124*%
X86825000Y-106080000D03*
X86825000Y-106730000D03*
X86825000Y-107380000D03*
X88525000Y-107380000D03*
X88525000Y-106730000D03*
X88525000Y-106080000D03*
D45*
X87675000Y-106730000D03*
%TD*%
D25*
%TO.C,J62*%
X84075000Y-108200001D03*
D26*
X84075000Y-106930001D03*
%TD*%
D43*
%TO.C,U122*%
X88475000Y-98530000D03*
X87525000Y-98530000D03*
X87525000Y-100430000D03*
X88475000Y-100430000D03*
D44*
X88000000Y-99480000D03*
%TD*%
D23*
%TO.C,J57*%
X73075000Y-100250000D03*
D24*
X73075000Y-102790000D03*
X73075000Y-105330000D03*
X73075000Y-107870000D03*
X73075000Y-110410000D03*
X73075000Y-112950000D03*
%TD*%
D36*
%TO.C,R63*%
X116355000Y-102135000D03*
X118005000Y-102135000D03*
%TD*%
D15*
%TO.C,C53*%
X101830000Y-102135000D03*
X103380000Y-102135000D03*
%TD*%
D33*
%TO.C,R57*%
X92680000Y-114197500D03*
X92680000Y-108272500D03*
%TD*%
D32*
%TO.C,R58*%
X92680000Y-112697500D03*
X92680000Y-109772500D03*
%TD*%
D23*
%TO.C,J64*%
X93580000Y-99635000D03*
D24*
X91040000Y-99635000D03*
%TD*%
D15*
%TO.C,C55*%
X112005000Y-105935000D03*
X113555000Y-105935000D03*
%TD*%
D16*
%TO.C,U126*%
X83250000Y-114930000D03*
X83250000Y-114429999D03*
X83250000Y-113929999D03*
X83250000Y-113429998D03*
X80900000Y-113429998D03*
X80900000Y-113929999D03*
X80900000Y-114429999D03*
X80900000Y-114930000D03*
D17*
X82075000Y-114179999D03*
%TD*%
D19*
%TO.C,J61*%
X98880004Y-99135000D03*
D20*
X100330002Y-99135000D03*
%TD*%
D18*
%TO.C,D16*%
X110230001Y-99135000D03*
X108654999Y-99135000D03*
%TD*%
D28*
%TO.C,U118*%
X80609264Y-100088578D03*
X79639264Y-100088578D03*
X78669264Y-100088578D03*
X77699264Y-100088578D03*
X77699264Y-98688578D03*
X78669264Y-98688578D03*
X79639264Y-98688578D03*
X80609264Y-98688578D03*
%TD*%
D15*
%TO.C,C50*%
X82725000Y-110930000D03*
X84275000Y-110930000D03*
%TD*%
D19*
%TO.C,J59*%
X112655001Y-99135000D03*
D20*
X114104999Y-99135000D03*
%TD*%
D37*
%TO.C,U114*%
X79080000Y-106635000D03*
X79080000Y-107285000D03*
X79080000Y-107935000D03*
X79080000Y-108585000D03*
X80880000Y-108585000D03*
X80880000Y-107935000D03*
X80880000Y-107285000D03*
X80880000Y-106635000D03*
%TD*%
D38*
%TO.C,U116*%
X105790000Y-110095000D03*
X111570000Y-110095000D03*
D39*
X105430000Y-108650000D03*
X106229999Y-108650000D03*
D40*
X107430000Y-108650001D03*
X108430000Y-108650000D03*
X108930000Y-108650000D03*
X109930000Y-108650001D03*
D39*
X111130001Y-108650000D03*
X111930000Y-108650000D03*
X111930000Y-108650000D03*
X111130001Y-108650000D03*
D40*
X110430000Y-108650000D03*
X109430000Y-108650000D03*
X107930000Y-108650000D03*
X106930000Y-108650000D03*
D39*
X106229999Y-108650000D03*
X105430000Y-108650000D03*
D41*
X104360000Y-109565000D03*
D42*
X104360000Y-113745000D03*
D41*
X113000000Y-109565000D03*
D42*
X113000000Y-113745000D03*
%TD*%
D23*
%TO.C,J58*%
X99780000Y-106115000D03*
D24*
X99780000Y-108655000D03*
X99780000Y-111195000D03*
X99780000Y-113735000D03*
%TD*%
D37*
%TO.C,U113*%
X82574999Y-103080000D03*
X82575000Y-103730000D03*
X82574999Y-104380000D03*
X84375001Y-104380000D03*
X84375000Y-103730000D03*
X84375001Y-103080000D03*
%TD*%
D23*
%TO.C,J50*%
X149780000Y-86115000D03*
D24*
X149780000Y-88655000D03*
X149780000Y-91195000D03*
X149780000Y-93735000D03*
%TD*%
D12*
%TO.C,R51*%
X126675000Y-87955000D03*
X126675000Y-86305000D03*
%TD*%
D34*
%TO.C,R56*%
X157180000Y-79135000D03*
X155530000Y-79135000D03*
%TD*%
D36*
%TO.C,R54*%
X129525000Y-90929998D03*
X131175000Y-90929998D03*
%TD*%
D21*
%TO.C,U107*%
X137362500Y-82930000D03*
X137362500Y-83530000D03*
X138662500Y-83530000D03*
X138662500Y-82930000D03*
D22*
X138012500Y-83230001D03*
%TD*%
D21*
%TO.C,U108*%
X136825000Y-86080000D03*
X136825000Y-86730000D03*
X136825000Y-87380000D03*
X138525000Y-87380000D03*
X138525000Y-86730000D03*
X138525000Y-86080000D03*
D45*
X137675000Y-86730000D03*
%TD*%
D13*
%TO.C,C49*%
X154080000Y-85985000D03*
X154080000Y-84435000D03*
%TD*%
D15*
%TO.C,C46*%
X151830000Y-82135000D03*
X153380000Y-82135000D03*
%TD*%
D11*
%TO.C,C47*%
X128050000Y-93930000D03*
X126500000Y-93930000D03*
%TD*%
D46*
%TO.C,U101*%
X138675000Y-94530000D03*
X138675000Y-94030000D03*
X138675000Y-93530000D03*
X135925000Y-93530000D03*
X135925000Y-94030000D03*
X135925000Y-94530000D03*
%TD*%
D23*
%TO.C,J52*%
X167580000Y-86115000D03*
D24*
X167580000Y-88655000D03*
X167580000Y-91195000D03*
X167580000Y-93735000D03*
%TD*%
D18*
%TO.C,D14*%
X160230001Y-79135000D03*
X158654999Y-79135000D03*
%TD*%
D14*
%TO.C,U99*%
X143517500Y-85410000D03*
X143517500Y-84760000D03*
X143517500Y-84110000D03*
X143517500Y-83460000D03*
X141242500Y-83460000D03*
X141242500Y-84110000D03*
X141242500Y-84760000D03*
X141242500Y-85410000D03*
%TD*%
D27*
%TO.C,U104*%
X157105000Y-81835000D03*
X157105000Y-82785000D03*
X157105000Y-83735000D03*
X159380000Y-83735000D03*
X159380000Y-81835000D03*
%TD*%
D11*
%TO.C,C45*%
X150245000Y-82135000D03*
X148695000Y-82135000D03*
%TD*%
D36*
%TO.C,R53*%
X166355000Y-79435000D03*
X168005000Y-79435000D03*
%TD*%
D23*
%TO.C,J49*%
X123075000Y-80250000D03*
D24*
X123075000Y-82790000D03*
X123075000Y-85330000D03*
X123075000Y-87870000D03*
X123075000Y-90410000D03*
X123075000Y-92950000D03*
%TD*%
D25*
%TO.C,J54*%
X134075000Y-88200001D03*
D26*
X134075000Y-86930001D03*
%TD*%
D43*
%TO.C,U106*%
X138475000Y-78530000D03*
X137525000Y-78530000D03*
X137525000Y-80430000D03*
X138475000Y-80430000D03*
D44*
X138000000Y-79480000D03*
%TD*%
D28*
%TO.C,U102*%
X130609264Y-80088578D03*
X129639264Y-80088578D03*
X128669264Y-80088578D03*
X127699264Y-80088578D03*
X127699264Y-78688578D03*
X128669264Y-78688578D03*
X129639264Y-78688578D03*
X130609264Y-78688578D03*
%TD*%
D19*
%TO.C,J55*%
X152330002Y-79135000D03*
D20*
X153780000Y-79135000D03*
%TD*%
D15*
%TO.C,C43*%
X132725000Y-90930000D03*
X134275000Y-90930000D03*
%TD*%
D47*
%TO.C,TP7*%
X129580000Y-84535000D03*
%TD*%
D36*
%TO.C,R55*%
X166355000Y-82135000D03*
X168005000Y-82135000D03*
%TD*%
D33*
%TO.C,R49*%
X142680000Y-94197500D03*
X142680000Y-88272500D03*
%TD*%
D32*
%TO.C,R50*%
X142680000Y-92697500D03*
X142680000Y-89772500D03*
%TD*%
D31*
%TO.C,D13*%
X162880000Y-81485000D03*
X162880000Y-83585000D03*
%TD*%
D19*
%TO.C,J53*%
X148880004Y-79135000D03*
D20*
X150330002Y-79135000D03*
%TD*%
D11*
%TO.C,C44*%
X128125000Y-90930000D03*
X126575000Y-90930000D03*
%TD*%
D35*
%TO.C,U111*%
X137155000Y-89435000D03*
X137154999Y-89935000D03*
X137155000Y-90435000D03*
X138580000Y-90435000D03*
X138580001Y-89935000D03*
X138580000Y-89435000D03*
%TD*%
D37*
%TO.C,U98*%
X129080000Y-86635000D03*
X129080000Y-87285000D03*
X129080000Y-87935000D03*
X129080000Y-88585000D03*
X130880000Y-88585000D03*
X130880000Y-87935000D03*
X130880000Y-87285000D03*
X130880000Y-86635000D03*
%TD*%
D38*
%TO.C,U100*%
X155790000Y-90095000D03*
X161570000Y-90095000D03*
D39*
X155430000Y-88650000D03*
X156229999Y-88650000D03*
D40*
X157430000Y-88650001D03*
X158430000Y-88650000D03*
X158930000Y-88650000D03*
X159930000Y-88650001D03*
D39*
X161130001Y-88650000D03*
X161930000Y-88650000D03*
X161930000Y-88650000D03*
X161130001Y-88650000D03*
D40*
X160430000Y-88650000D03*
X159430000Y-88650000D03*
X157930000Y-88650000D03*
X156930000Y-88650000D03*
D39*
X156229999Y-88650000D03*
X155430000Y-88650000D03*
D41*
X154360000Y-89565000D03*
D42*
X154360000Y-93745000D03*
D41*
X163000000Y-89565000D03*
D42*
X163000000Y-93745000D03*
%TD*%
D19*
%TO.C,J51*%
X162655001Y-79135000D03*
D20*
X164104999Y-79135000D03*
%TD*%
D23*
%TO.C,J56*%
X143580000Y-79635000D03*
D24*
X141040000Y-79635000D03*
%TD*%
D16*
%TO.C,U110*%
X133250000Y-94930000D03*
X133250000Y-94429999D03*
X133250000Y-93929999D03*
X133250000Y-93429998D03*
X130900000Y-93429998D03*
X130900000Y-93929999D03*
X130900000Y-94429999D03*
X130900000Y-94930000D03*
D17*
X132075000Y-94179999D03*
%TD*%
D15*
%TO.C,C48*%
X162005000Y-85935000D03*
X163555000Y-85935000D03*
%TD*%
D12*
%TO.C,R52*%
X126675000Y-84904999D03*
X126675000Y-83254999D03*
%TD*%
D37*
%TO.C,U97*%
X132574999Y-83080000D03*
X132575000Y-83730000D03*
X132574999Y-84380000D03*
X134375001Y-84380000D03*
X134375000Y-83730000D03*
X134375001Y-83080000D03*
%TD*%
D29*
%TO.C,IC7*%
X133675000Y-80230000D03*
X134475000Y-80230000D03*
X134475000Y-78630000D03*
X133675000Y-78630000D03*
D30*
X134075000Y-79430000D03*
%TD*%
D36*
%TO.C,R46*%
X79525000Y-90929998D03*
X81175000Y-90929998D03*
%TD*%
D21*
%TO.C,U91*%
X87362500Y-82930000D03*
X87362500Y-83530000D03*
X88662500Y-83530000D03*
X88662500Y-82930000D03*
D22*
X88012500Y-83230001D03*
%TD*%
D31*
%TO.C,D11*%
X112880000Y-81485000D03*
X112880000Y-83585000D03*
%TD*%
D21*
%TO.C,U92*%
X86825000Y-86080000D03*
X86825000Y-86730000D03*
X86825000Y-87380000D03*
X88525000Y-87380000D03*
X88525000Y-86730000D03*
X88525000Y-86080000D03*
D45*
X87675000Y-86730000D03*
%TD*%
D14*
%TO.C,U83*%
X93517500Y-85410000D03*
X93517500Y-84760000D03*
X93517500Y-84110000D03*
X93517500Y-83460000D03*
X91242500Y-83460000D03*
X91242500Y-84110000D03*
X91242500Y-84760000D03*
X91242500Y-85410000D03*
%TD*%
D23*
%TO.C,J44*%
X117580000Y-86115000D03*
D24*
X117580000Y-88655000D03*
X117580000Y-91195000D03*
X117580000Y-93735000D03*
%TD*%
D15*
%TO.C,C41*%
X112005000Y-85935000D03*
X113555000Y-85935000D03*
%TD*%
D11*
%TO.C,C38*%
X100245000Y-82135000D03*
X98695000Y-82135000D03*
%TD*%
D35*
%TO.C,U95*%
X87155000Y-89435000D03*
X87154999Y-89935000D03*
X87155000Y-90435000D03*
X88580000Y-90435000D03*
X88580001Y-89935000D03*
X88580000Y-89435000D03*
%TD*%
D16*
%TO.C,U94*%
X83250000Y-94930000D03*
X83250000Y-94429999D03*
X83250000Y-93929999D03*
X83250000Y-93429998D03*
X80900000Y-93429998D03*
X80900000Y-93929999D03*
X80900000Y-94429999D03*
X80900000Y-94930000D03*
D17*
X82075000Y-94179999D03*
%TD*%
D12*
%TO.C,R43*%
X76675000Y-87955000D03*
X76675000Y-86305000D03*
%TD*%
D19*
%TO.C,J43*%
X112655001Y-79135000D03*
D20*
X114104999Y-79135000D03*
%TD*%
D11*
%TO.C,C40*%
X78050000Y-93930000D03*
X76500000Y-93930000D03*
%TD*%
D27*
%TO.C,U88*%
X107105000Y-81835000D03*
X107105000Y-82785000D03*
X107105000Y-83735000D03*
X109380000Y-83735000D03*
X109380000Y-81835000D03*
%TD*%
D36*
%TO.C,R45*%
X116355000Y-79435000D03*
X118005000Y-79435000D03*
%TD*%
D23*
%TO.C,J41*%
X73075000Y-80250000D03*
D24*
X73075000Y-82790000D03*
X73075000Y-85330000D03*
X73075000Y-87870000D03*
X73075000Y-90410000D03*
X73075000Y-92950000D03*
%TD*%
D25*
%TO.C,J46*%
X84075000Y-88200001D03*
D26*
X84075000Y-86930001D03*
%TD*%
D28*
%TO.C,U86*%
X80609264Y-80088578D03*
X79639264Y-80088578D03*
X78669264Y-80088578D03*
X77699264Y-80088578D03*
X77699264Y-78688578D03*
X78669264Y-78688578D03*
X79639264Y-78688578D03*
X80609264Y-78688578D03*
%TD*%
D13*
%TO.C,C42*%
X104080000Y-85985000D03*
X104080000Y-84435000D03*
%TD*%
D11*
%TO.C,C37*%
X78125000Y-90930000D03*
X76575000Y-90930000D03*
%TD*%
D15*
%TO.C,C36*%
X82725000Y-90930000D03*
X84275000Y-90930000D03*
%TD*%
D19*
%TO.C,J47*%
X102330002Y-79135000D03*
D20*
X103780000Y-79135000D03*
%TD*%
D36*
%TO.C,R47*%
X116355000Y-82135000D03*
X118005000Y-82135000D03*
%TD*%
D18*
%TO.C,D12*%
X110230001Y-79135000D03*
X108654999Y-79135000D03*
%TD*%
D33*
%TO.C,R41*%
X92680000Y-94197500D03*
X92680000Y-88272500D03*
%TD*%
D32*
%TO.C,R42*%
X92680000Y-92697500D03*
X92680000Y-89772500D03*
%TD*%
D12*
%TO.C,R44*%
X76675000Y-84904999D03*
X76675000Y-83254999D03*
%TD*%
D23*
%TO.C,J48*%
X93580000Y-79635000D03*
D24*
X91040000Y-79635000D03*
%TD*%
D23*
%TO.C,J42*%
X99780000Y-86115000D03*
D24*
X99780000Y-88655000D03*
X99780000Y-91195000D03*
X99780000Y-93735000D03*
%TD*%
D15*
%TO.C,C39*%
X101830000Y-82135000D03*
X103380000Y-82135000D03*
%TD*%
D34*
%TO.C,R48*%
X107180000Y-79135000D03*
X105530000Y-79135000D03*
%TD*%
D37*
%TO.C,U82*%
X79080000Y-86635000D03*
X79080000Y-87285000D03*
X79080000Y-87935000D03*
X79080000Y-88585000D03*
X80880000Y-88585000D03*
X80880000Y-87935000D03*
X80880000Y-87285000D03*
X80880000Y-86635000D03*
%TD*%
D38*
%TO.C,U84*%
X105790000Y-90095000D03*
X111570000Y-90095000D03*
D39*
X105430000Y-88650000D03*
X106229999Y-88650000D03*
D40*
X107430000Y-88650001D03*
X108430000Y-88650000D03*
X108930000Y-88650000D03*
X109930000Y-88650001D03*
D39*
X111130001Y-88650000D03*
X111930000Y-88650000D03*
X111930000Y-88650000D03*
X111130001Y-88650000D03*
D40*
X110430000Y-88650000D03*
X109430000Y-88650000D03*
X107930000Y-88650000D03*
X106930000Y-88650000D03*
D39*
X106229999Y-88650000D03*
X105430000Y-88650000D03*
D41*
X104360000Y-89565000D03*
D42*
X104360000Y-93745000D03*
D41*
X113000000Y-89565000D03*
D42*
X113000000Y-93745000D03*
%TD*%
D46*
%TO.C,U85*%
X88675000Y-94530000D03*
X88675000Y-94030000D03*
X88675000Y-93530000D03*
X85925000Y-93530000D03*
X85925000Y-94030000D03*
X85925000Y-94530000D03*
%TD*%
D37*
%TO.C,U81*%
X82574999Y-83080000D03*
X82575000Y-83730000D03*
X82574999Y-84380000D03*
X84375001Y-84380000D03*
X84375000Y-83730000D03*
X84375001Y-83080000D03*
%TD*%
D47*
%TO.C,TP6*%
X79580000Y-84535000D03*
%TD*%
D19*
%TO.C,J45*%
X98880004Y-79135000D03*
D20*
X100330002Y-79135000D03*
%TD*%
D29*
%TO.C,IC6*%
X83675000Y-80230000D03*
X84475000Y-80230000D03*
X84475000Y-78630000D03*
X83675000Y-78630000D03*
D30*
X84075000Y-79430000D03*
%TD*%
D43*
%TO.C,U90*%
X88475000Y-78530000D03*
X87525000Y-78530000D03*
X87525000Y-80430000D03*
X88475000Y-80430000D03*
D44*
X88000000Y-79480000D03*
%TD*%
D11*
%TO.C,C30*%
X128125000Y-70930000D03*
X126575000Y-70930000D03*
%TD*%
D23*
%TO.C,J34*%
X149780000Y-66115000D03*
D24*
X149780000Y-68655000D03*
X149780000Y-71195000D03*
X149780000Y-73735000D03*
%TD*%
D47*
%TO.C,TP5*%
X129580000Y-64535000D03*
%TD*%
D11*
%TO.C,C31*%
X150245000Y-62135000D03*
X148695000Y-62135000D03*
%TD*%
D29*
%TO.C,IC5*%
X133675000Y-60230000D03*
X134475000Y-60230000D03*
X134475000Y-58630000D03*
X133675000Y-58630000D03*
D30*
X134075000Y-59430000D03*
%TD*%
D13*
%TO.C,C35*%
X154080000Y-65985000D03*
X154080000Y-64435000D03*
%TD*%
D12*
%TO.C,R36*%
X126675000Y-64904999D03*
X126675000Y-63254999D03*
%TD*%
D15*
%TO.C,C32*%
X151830000Y-62135000D03*
X153380000Y-62135000D03*
%TD*%
D18*
%TO.C,D10*%
X160230001Y-59135000D03*
X158654999Y-59135000D03*
%TD*%
D35*
%TO.C,U79*%
X137155000Y-69435000D03*
X137154999Y-69935000D03*
X137155000Y-70435000D03*
X138580000Y-70435000D03*
X138580001Y-69935000D03*
X138580000Y-69435000D03*
%TD*%
D36*
%TO.C,R38*%
X129525000Y-70929998D03*
X131175000Y-70929998D03*
%TD*%
D11*
%TO.C,C33*%
X128050000Y-73930000D03*
X126500000Y-73930000D03*
%TD*%
D21*
%TO.C,U75*%
X137362500Y-62930000D03*
X137362500Y-63530000D03*
X138662500Y-63530000D03*
X138662500Y-62930000D03*
D22*
X138012500Y-63230001D03*
%TD*%
D15*
%TO.C,C34*%
X162005000Y-65935000D03*
X163555000Y-65935000D03*
%TD*%
D19*
%TO.C,J35*%
X162655001Y-59135000D03*
D20*
X164104999Y-59135000D03*
%TD*%
D12*
%TO.C,R35*%
X126675000Y-67955000D03*
X126675000Y-66305000D03*
%TD*%
D36*
%TO.C,R37*%
X166355000Y-59435000D03*
X168005000Y-59435000D03*
%TD*%
D23*
%TO.C,J33*%
X123075000Y-60250000D03*
D24*
X123075000Y-62790000D03*
X123075000Y-65330000D03*
X123075000Y-67870000D03*
X123075000Y-70410000D03*
X123075000Y-72950000D03*
%TD*%
D43*
%TO.C,U74*%
X138475000Y-58530000D03*
X137525000Y-58530000D03*
X137525000Y-60430000D03*
X138475000Y-60430000D03*
D44*
X138000000Y-59480000D03*
%TD*%
D23*
%TO.C,J36*%
X167580000Y-66115000D03*
D24*
X167580000Y-68655000D03*
X167580000Y-71195000D03*
X167580000Y-73735000D03*
%TD*%
D28*
%TO.C,U70*%
X130609264Y-60088578D03*
X129639264Y-60088578D03*
X128669264Y-60088578D03*
X127699264Y-60088578D03*
X127699264Y-58688578D03*
X128669264Y-58688578D03*
X129639264Y-58688578D03*
X130609264Y-58688578D03*
%TD*%
D19*
%TO.C,J39*%
X152330002Y-59135000D03*
D20*
X153780000Y-59135000D03*
%TD*%
D15*
%TO.C,C29*%
X132725000Y-70930000D03*
X134275000Y-70930000D03*
%TD*%
D36*
%TO.C,R39*%
X166355000Y-62135000D03*
X168005000Y-62135000D03*
%TD*%
D33*
%TO.C,R33*%
X142680000Y-74197500D03*
X142680000Y-68272500D03*
%TD*%
D32*
%TO.C,R34*%
X142680000Y-72697500D03*
X142680000Y-69772500D03*
%TD*%
D34*
%TO.C,R40*%
X157180000Y-59135000D03*
X155530000Y-59135000D03*
%TD*%
D23*
%TO.C,J40*%
X143580000Y-59635000D03*
D24*
X141040000Y-59635000D03*
%TD*%
D19*
%TO.C,J37*%
X148880004Y-59135000D03*
D20*
X150330002Y-59135000D03*
%TD*%
D46*
%TO.C,U69*%
X138675000Y-74530000D03*
X138675000Y-74030000D03*
X138675000Y-73530000D03*
X135925000Y-73530000D03*
X135925000Y-74030000D03*
X135925000Y-74530000D03*
%TD*%
D14*
%TO.C,U67*%
X143517500Y-65410000D03*
X143517500Y-64760000D03*
X143517500Y-64110000D03*
X143517500Y-63460000D03*
X141242500Y-63460000D03*
X141242500Y-64110000D03*
X141242500Y-64760000D03*
X141242500Y-65410000D03*
%TD*%
D21*
%TO.C,U76*%
X136825000Y-66080000D03*
X136825000Y-66730000D03*
X136825000Y-67380000D03*
X138525000Y-67380000D03*
X138525000Y-66730000D03*
X138525000Y-66080000D03*
D45*
X137675000Y-66730000D03*
%TD*%
D16*
%TO.C,U78*%
X133250000Y-74930000D03*
X133250000Y-74429999D03*
X133250000Y-73929999D03*
X133250000Y-73429998D03*
X130900000Y-73429998D03*
X130900000Y-73929999D03*
X130900000Y-74429999D03*
X130900000Y-74930000D03*
D17*
X132075000Y-74179999D03*
%TD*%
D37*
%TO.C,U66*%
X129080000Y-66635000D03*
X129080000Y-67285000D03*
X129080000Y-67935000D03*
X129080000Y-68585000D03*
X130880000Y-68585000D03*
X130880000Y-67935000D03*
X130880000Y-67285000D03*
X130880000Y-66635000D03*
%TD*%
D27*
%TO.C,U72*%
X157105000Y-61835000D03*
X157105000Y-62785000D03*
X157105000Y-63735000D03*
X159380000Y-63735000D03*
X159380000Y-61835000D03*
%TD*%
D37*
%TO.C,U65*%
X132574999Y-63080000D03*
X132575000Y-63730000D03*
X132574999Y-64380000D03*
X134375001Y-64380000D03*
X134375000Y-63730000D03*
X134375001Y-63080000D03*
%TD*%
D38*
%TO.C,U68*%
X155790000Y-70095000D03*
X161570000Y-70095000D03*
D39*
X155430000Y-68650000D03*
X156229999Y-68650000D03*
D40*
X157430000Y-68650001D03*
X158430000Y-68650000D03*
X158930000Y-68650000D03*
X159930000Y-68650001D03*
D39*
X161130001Y-68650000D03*
X161930000Y-68650000D03*
X161930000Y-68650000D03*
X161130001Y-68650000D03*
D40*
X160430000Y-68650000D03*
X159430000Y-68650000D03*
X157930000Y-68650000D03*
X156930000Y-68650000D03*
D39*
X156229999Y-68650000D03*
X155430000Y-68650000D03*
D41*
X154360000Y-69565000D03*
D42*
X154360000Y-73745000D03*
D41*
X163000000Y-69565000D03*
D42*
X163000000Y-73745000D03*
%TD*%
D31*
%TO.C,D9*%
X162880000Y-61485000D03*
X162880000Y-63585000D03*
%TD*%
D25*
%TO.C,J38*%
X134075000Y-68200001D03*
D26*
X134075000Y-66930001D03*
%TD*%
D23*
%TO.C,J26*%
X99780000Y-66115000D03*
D24*
X99780000Y-68655000D03*
X99780000Y-71195000D03*
X99780000Y-73735000D03*
%TD*%
D34*
%TO.C,R32*%
X107180000Y-59135000D03*
X105530000Y-59135000D03*
%TD*%
D11*
%TO.C,C24*%
X100245000Y-62135000D03*
X98695000Y-62135000D03*
%TD*%
D29*
%TO.C,IC4*%
X83675000Y-60230000D03*
X84475000Y-60230000D03*
X84475000Y-58630000D03*
X83675000Y-58630000D03*
D30*
X84075000Y-59430000D03*
%TD*%
D31*
%TO.C,D7*%
X112880000Y-61485000D03*
X112880000Y-63585000D03*
%TD*%
D14*
%TO.C,U51*%
X93517500Y-65410000D03*
X93517500Y-64760000D03*
X93517500Y-64110000D03*
X93517500Y-63460000D03*
X91242500Y-63460000D03*
X91242500Y-64110000D03*
X91242500Y-64760000D03*
X91242500Y-65410000D03*
%TD*%
D12*
%TO.C,R28*%
X76675000Y-64904999D03*
X76675000Y-63254999D03*
%TD*%
D15*
%TO.C,C27*%
X112005000Y-65935000D03*
X113555000Y-65935000D03*
%TD*%
D21*
%TO.C,U60*%
X86825000Y-66080000D03*
X86825000Y-66730000D03*
X86825000Y-67380000D03*
X88525000Y-67380000D03*
X88525000Y-66730000D03*
X88525000Y-66080000D03*
D45*
X87675000Y-66730000D03*
%TD*%
D11*
%TO.C,C23*%
X78125000Y-70930000D03*
X76575000Y-70930000D03*
%TD*%
D16*
%TO.C,U62*%
X83250000Y-74930000D03*
X83250000Y-74429999D03*
X83250000Y-73929999D03*
X83250000Y-73429998D03*
X80900000Y-73429998D03*
X80900000Y-73929999D03*
X80900000Y-74429999D03*
X80900000Y-74930000D03*
D17*
X82075000Y-74179999D03*
%TD*%
D27*
%TO.C,U56*%
X107105000Y-61835000D03*
X107105000Y-62785000D03*
X107105000Y-63735000D03*
X109380000Y-63735000D03*
X109380000Y-61835000D03*
%TD*%
D25*
%TO.C,J30*%
X84075000Y-68200001D03*
D26*
X84075000Y-66930001D03*
%TD*%
D43*
%TO.C,U58*%
X88475000Y-58530000D03*
X87525000Y-58530000D03*
X87525000Y-60430000D03*
X88475000Y-60430000D03*
D44*
X88000000Y-59480000D03*
%TD*%
D46*
%TO.C,U53*%
X88675000Y-74530000D03*
X88675000Y-74030000D03*
X88675000Y-73530000D03*
X85925000Y-73530000D03*
X85925000Y-74030000D03*
X85925000Y-74530000D03*
%TD*%
D21*
%TO.C,U59*%
X87362500Y-62930000D03*
X87362500Y-63530000D03*
X88662500Y-63530000D03*
X88662500Y-62930000D03*
D22*
X88012500Y-63230001D03*
%TD*%
D36*
%TO.C,R29*%
X116355000Y-59435000D03*
X118005000Y-59435000D03*
%TD*%
D15*
%TO.C,C22*%
X82725000Y-70930000D03*
X84275000Y-70930000D03*
%TD*%
D36*
%TO.C,R30*%
X79525000Y-70929998D03*
X81175000Y-70929998D03*
%TD*%
D23*
%TO.C,J32*%
X93580000Y-59635000D03*
D24*
X91040000Y-59635000D03*
%TD*%
D19*
%TO.C,J27*%
X112655001Y-59135000D03*
D20*
X114104999Y-59135000D03*
%TD*%
D19*
%TO.C,J29*%
X98880004Y-59135000D03*
D20*
X100330002Y-59135000D03*
%TD*%
D15*
%TO.C,C25*%
X101830000Y-62135000D03*
X103380000Y-62135000D03*
%TD*%
D33*
%TO.C,R25*%
X92680000Y-74197500D03*
X92680000Y-68272500D03*
%TD*%
D32*
%TO.C,R26*%
X92680000Y-72697500D03*
X92680000Y-69772500D03*
%TD*%
D35*
%TO.C,U63*%
X87155000Y-69435000D03*
X87154999Y-69935000D03*
X87155000Y-70435000D03*
X88580000Y-70435000D03*
X88580001Y-69935000D03*
X88580000Y-69435000D03*
%TD*%
D11*
%TO.C,C26*%
X78050000Y-73930000D03*
X76500000Y-73930000D03*
%TD*%
D36*
%TO.C,R31*%
X116355000Y-62135000D03*
X118005000Y-62135000D03*
%TD*%
D28*
%TO.C,U54*%
X80609264Y-60088578D03*
X79639264Y-60088578D03*
X78669264Y-60088578D03*
X77699264Y-60088578D03*
X77699264Y-58688578D03*
X78669264Y-58688578D03*
X79639264Y-58688578D03*
X80609264Y-58688578D03*
%TD*%
D13*
%TO.C,C28*%
X104080000Y-65985000D03*
X104080000Y-64435000D03*
%TD*%
D12*
%TO.C,R27*%
X76675000Y-67955000D03*
X76675000Y-66305000D03*
%TD*%
D47*
%TO.C,TP4*%
X79580000Y-64535000D03*
%TD*%
D37*
%TO.C,U50*%
X79080000Y-66635000D03*
X79080000Y-67285000D03*
X79080000Y-67935000D03*
X79080000Y-68585000D03*
X80880000Y-68585000D03*
X80880000Y-67935000D03*
X80880000Y-67285000D03*
X80880000Y-66635000D03*
%TD*%
D38*
%TO.C,U52*%
X105790000Y-70095000D03*
X111570000Y-70095000D03*
D39*
X105430000Y-68650000D03*
X106229999Y-68650000D03*
D40*
X107430000Y-68650001D03*
X108430000Y-68650000D03*
X108930000Y-68650000D03*
X109930000Y-68650001D03*
D39*
X111130001Y-68650000D03*
X111930000Y-68650000D03*
X111930000Y-68650000D03*
X111130001Y-68650000D03*
D40*
X110430000Y-68650000D03*
X109430000Y-68650000D03*
X107930000Y-68650000D03*
X106930000Y-68650000D03*
D39*
X106229999Y-68650000D03*
X105430000Y-68650000D03*
D41*
X104360000Y-69565000D03*
D42*
X104360000Y-73745000D03*
D41*
X113000000Y-69565000D03*
D42*
X113000000Y-73745000D03*
%TD*%
D23*
%TO.C,J28*%
X117580000Y-66115000D03*
D24*
X117580000Y-68655000D03*
X117580000Y-71195000D03*
X117580000Y-73735000D03*
%TD*%
D18*
%TO.C,D8*%
X110230001Y-59135000D03*
X108654999Y-59135000D03*
%TD*%
D19*
%TO.C,J31*%
X102330002Y-59135000D03*
D20*
X103780000Y-59135000D03*
%TD*%
D23*
%TO.C,J25*%
X73075000Y-60250000D03*
D24*
X73075000Y-62790000D03*
X73075000Y-65330000D03*
X73075000Y-67870000D03*
X73075000Y-70410000D03*
X73075000Y-72950000D03*
%TD*%
D37*
%TO.C,U49*%
X82574999Y-63080000D03*
X82575000Y-63730000D03*
X82574999Y-64380000D03*
X84375001Y-64380000D03*
X84375000Y-63730000D03*
X84375001Y-63080000D03*
%TD*%
D21*
%TO.C,U43*%
X137362500Y-42930000D03*
X137362500Y-43530000D03*
X138662500Y-43530000D03*
X138662500Y-42930000D03*
D22*
X138012500Y-43230001D03*
%TD*%
D11*
%TO.C,C17*%
X150245000Y-42135000D03*
X148695000Y-42135000D03*
%TD*%
D31*
%TO.C,D5*%
X162880000Y-41485000D03*
X162880000Y-43585000D03*
%TD*%
D13*
%TO.C,C21*%
X154080000Y-45985000D03*
X154080000Y-44435000D03*
%TD*%
D14*
%TO.C,U35*%
X143517500Y-45410000D03*
X143517500Y-44760000D03*
X143517500Y-44110000D03*
X143517500Y-43460000D03*
X141242500Y-43460000D03*
X141242500Y-44110000D03*
X141242500Y-44760000D03*
X141242500Y-45410000D03*
%TD*%
D15*
%TO.C,C20*%
X162005000Y-45935000D03*
X163555000Y-45935000D03*
%TD*%
D11*
%TO.C,C19*%
X128050000Y-53930000D03*
X126500000Y-53930000D03*
%TD*%
D46*
%TO.C,U37*%
X138675000Y-54530000D03*
X138675000Y-54030000D03*
X138675000Y-53530000D03*
X135925000Y-53530000D03*
X135925000Y-54030000D03*
X135925000Y-54530000D03*
%TD*%
D23*
%TO.C,J20*%
X167580000Y-46115000D03*
D24*
X167580000Y-48655000D03*
X167580000Y-51195000D03*
X167580000Y-53735000D03*
%TD*%
D18*
%TO.C,D6*%
X160230001Y-39135000D03*
X158654999Y-39135000D03*
%TD*%
D11*
%TO.C,C16*%
X128125000Y-50930000D03*
X126575000Y-50930000D03*
%TD*%
D34*
%TO.C,R24*%
X157180000Y-39135000D03*
X155530000Y-39135000D03*
%TD*%
D23*
%TO.C,J18*%
X149780000Y-46115000D03*
D24*
X149780000Y-48655000D03*
X149780000Y-51195000D03*
X149780000Y-53735000D03*
%TD*%
D12*
%TO.C,R19*%
X126675000Y-47955000D03*
X126675000Y-46305000D03*
%TD*%
D47*
%TO.C,TP3*%
X129580000Y-44535000D03*
%TD*%
D36*
%TO.C,R21*%
X166355000Y-39435000D03*
X168005000Y-39435000D03*
%TD*%
D23*
%TO.C,J17*%
X123075000Y-40250000D03*
D24*
X123075000Y-42790000D03*
X123075000Y-45330000D03*
X123075000Y-47870000D03*
X123075000Y-50410000D03*
X123075000Y-52950000D03*
%TD*%
D35*
%TO.C,U47*%
X137155000Y-49435000D03*
X137154999Y-49935000D03*
X137155000Y-50435000D03*
X138580000Y-50435000D03*
X138580001Y-49935000D03*
X138580000Y-49435000D03*
%TD*%
D43*
%TO.C,U42*%
X138475000Y-38530000D03*
X137525000Y-38530000D03*
X137525000Y-40430000D03*
X138475000Y-40430000D03*
D44*
X138000000Y-39480000D03*
%TD*%
D15*
%TO.C,C18*%
X151830000Y-42135000D03*
X153380000Y-42135000D03*
%TD*%
D28*
%TO.C,U38*%
X130609264Y-40088578D03*
X129639264Y-40088578D03*
X128669264Y-40088578D03*
X127699264Y-40088578D03*
X127699264Y-38688578D03*
X128669264Y-38688578D03*
X129639264Y-38688578D03*
X130609264Y-38688578D03*
%TD*%
D15*
%TO.C,C15*%
X132725000Y-50930000D03*
X134275000Y-50930000D03*
%TD*%
D25*
%TO.C,J22*%
X134075000Y-48200001D03*
D26*
X134075000Y-46930001D03*
%TD*%
D12*
%TO.C,R20*%
X126675000Y-44904999D03*
X126675000Y-43254999D03*
%TD*%
D33*
%TO.C,R17*%
X142680000Y-54197500D03*
X142680000Y-48272500D03*
%TD*%
D32*
%TO.C,R18*%
X142680000Y-52697500D03*
X142680000Y-49772500D03*
%TD*%
D29*
%TO.C,IC3*%
X133675000Y-40230000D03*
X134475000Y-40230000D03*
X134475000Y-38630000D03*
X133675000Y-38630000D03*
D30*
X134075000Y-39430000D03*
%TD*%
D19*
%TO.C,J19*%
X162655001Y-39135000D03*
D20*
X164104999Y-39135000D03*
%TD*%
D19*
%TO.C,J21*%
X148880004Y-39135000D03*
D20*
X150330002Y-39135000D03*
%TD*%
D36*
%TO.C,R23*%
X166355000Y-42135000D03*
X168005000Y-42135000D03*
%TD*%
D23*
%TO.C,J24*%
X143580000Y-39635000D03*
D24*
X141040000Y-39635000D03*
%TD*%
D36*
%TO.C,R22*%
X129525000Y-50929998D03*
X131175000Y-50929998D03*
%TD*%
D16*
%TO.C,U46*%
X133250000Y-54930000D03*
X133250000Y-54429999D03*
X133250000Y-53929999D03*
X133250000Y-53429998D03*
X130900000Y-53429998D03*
X130900000Y-53929999D03*
X130900000Y-54429999D03*
X130900000Y-54930000D03*
D17*
X132075000Y-54179999D03*
%TD*%
D19*
%TO.C,J23*%
X152330002Y-39135000D03*
D20*
X153780000Y-39135000D03*
%TD*%
D27*
%TO.C,U40*%
X157105000Y-41835000D03*
X157105000Y-42785000D03*
X157105000Y-43735000D03*
X159380000Y-43735000D03*
X159380000Y-41835000D03*
%TD*%
D37*
%TO.C,U34*%
X129080000Y-46635000D03*
X129080000Y-47285000D03*
X129080000Y-47935000D03*
X129080000Y-48585000D03*
X130880000Y-48585000D03*
X130880000Y-47935000D03*
X130880000Y-47285000D03*
X130880000Y-46635000D03*
%TD*%
D38*
%TO.C,U36*%
X155790000Y-50095000D03*
X161570000Y-50095000D03*
D39*
X155430000Y-48650000D03*
X156229999Y-48650000D03*
D40*
X157430000Y-48650001D03*
X158430000Y-48650000D03*
X158930000Y-48650000D03*
X159930000Y-48650001D03*
D39*
X161130001Y-48650000D03*
X161930000Y-48650000D03*
X161930000Y-48650000D03*
X161130001Y-48650000D03*
D40*
X160430000Y-48650000D03*
X159430000Y-48650000D03*
X157930000Y-48650000D03*
X156930000Y-48650000D03*
D39*
X156229999Y-48650000D03*
X155430000Y-48650000D03*
D41*
X154360000Y-49565000D03*
D42*
X154360000Y-53745000D03*
D41*
X163000000Y-49565000D03*
D42*
X163000000Y-53745000D03*
%TD*%
D21*
%TO.C,U44*%
X136825000Y-46080000D03*
X136825000Y-46730000D03*
X136825000Y-47380000D03*
X138525000Y-47380000D03*
X138525000Y-46730000D03*
X138525000Y-46080000D03*
D45*
X137675000Y-46730000D03*
%TD*%
D37*
%TO.C,U33*%
X132574999Y-43080000D03*
X132575000Y-43730000D03*
X132574999Y-44380000D03*
X134375001Y-44380000D03*
X134375000Y-43730000D03*
X134375001Y-43080000D03*
%TD*%
D47*
%TO.C,TP2*%
X79580000Y-44535000D03*
%TD*%
D36*
%TO.C,R14*%
X79525000Y-50929998D03*
X81175000Y-50929998D03*
%TD*%
D29*
%TO.C,IC2*%
X83675000Y-40230000D03*
X84475000Y-40230000D03*
X84475000Y-38630000D03*
X83675000Y-38630000D03*
D30*
X84075000Y-39430000D03*
%TD*%
D13*
%TO.C,C14*%
X104080000Y-45985000D03*
X104080000Y-44435000D03*
%TD*%
D15*
%TO.C,C13*%
X112005000Y-45935000D03*
X113555000Y-45935000D03*
%TD*%
%TO.C,C11*%
X101830000Y-42135000D03*
X103380000Y-42135000D03*
%TD*%
D11*
%TO.C,C12*%
X78050000Y-53930000D03*
X76500000Y-53930000D03*
%TD*%
D46*
%TO.C,U21*%
X88675000Y-54530000D03*
X88675000Y-54030000D03*
X88675000Y-53530000D03*
X85925000Y-53530000D03*
X85925000Y-54030000D03*
X85925000Y-54530000D03*
%TD*%
D23*
%TO.C,J12*%
X117580000Y-46115000D03*
D24*
X117580000Y-48655000D03*
X117580000Y-51195000D03*
X117580000Y-53735000D03*
%TD*%
D11*
%TO.C,C10*%
X100245000Y-42135000D03*
X98695000Y-42135000D03*
%TD*%
D21*
%TO.C,U27*%
X87362500Y-42930000D03*
X87362500Y-43530000D03*
X88662500Y-43530000D03*
X88662500Y-42930000D03*
D22*
X88012500Y-43230001D03*
%TD*%
D35*
%TO.C,U31*%
X87155000Y-49435000D03*
X87154999Y-49935000D03*
X87155000Y-50435000D03*
X88580000Y-50435000D03*
X88580001Y-49935000D03*
X88580000Y-49435000D03*
%TD*%
D23*
%TO.C,J10*%
X99780000Y-46115000D03*
D24*
X99780000Y-48655000D03*
X99780000Y-51195000D03*
X99780000Y-53735000D03*
%TD*%
D34*
%TO.C,R16*%
X107180000Y-39135000D03*
X105530000Y-39135000D03*
%TD*%
D16*
%TO.C,U30*%
X83250000Y-54930000D03*
X83250000Y-54429999D03*
X83250000Y-53929999D03*
X83250000Y-53429998D03*
X80900000Y-53429998D03*
X80900000Y-53929999D03*
X80900000Y-54429999D03*
X80900000Y-54930000D03*
D17*
X82075000Y-54179999D03*
%TD*%
D19*
%TO.C,J11*%
X112655001Y-39135000D03*
D20*
X114104999Y-39135000D03*
%TD*%
D27*
%TO.C,U24*%
X107105000Y-41835000D03*
X107105000Y-42785000D03*
X107105000Y-43735000D03*
X109380000Y-43735000D03*
X109380000Y-41835000D03*
%TD*%
D36*
%TO.C,R13*%
X116355000Y-39435000D03*
X118005000Y-39435000D03*
%TD*%
D23*
%TO.C,J9*%
X73075000Y-40250000D03*
D24*
X73075000Y-42790000D03*
X73075000Y-45330000D03*
X73075000Y-47870000D03*
X73075000Y-50410000D03*
X73075000Y-52950000D03*
%TD*%
D25*
%TO.C,J14*%
X84075000Y-48200001D03*
D26*
X84075000Y-46930001D03*
%TD*%
D43*
%TO.C,U26*%
X88475000Y-38530000D03*
X87525000Y-38530000D03*
X87525000Y-40430000D03*
X88475000Y-40430000D03*
D44*
X88000000Y-39480000D03*
%TD*%
D21*
%TO.C,U28*%
X86825000Y-46080000D03*
X86825000Y-46730000D03*
X86825000Y-47380000D03*
X88525000Y-47380000D03*
X88525000Y-46730000D03*
X88525000Y-46080000D03*
D45*
X87675000Y-46730000D03*
%TD*%
D11*
%TO.C,C9*%
X78125000Y-50930000D03*
X76575000Y-50930000D03*
%TD*%
D12*
%TO.C,R12*%
X76675000Y-44904999D03*
X76675000Y-43254999D03*
%TD*%
D15*
%TO.C,C8*%
X82725000Y-50930000D03*
X84275000Y-50930000D03*
%TD*%
D31*
%TO.C,D3*%
X112880000Y-41485000D03*
X112880000Y-43585000D03*
%TD*%
D14*
%TO.C,U19*%
X93517500Y-45410000D03*
X93517500Y-44760000D03*
X93517500Y-44110000D03*
X93517500Y-43460000D03*
X91242500Y-43460000D03*
X91242500Y-44110000D03*
X91242500Y-44760000D03*
X91242500Y-45410000D03*
%TD*%
D33*
%TO.C,R9*%
X92680000Y-54197500D03*
X92680000Y-48272500D03*
%TD*%
D32*
%TO.C,R10*%
X92680000Y-52697500D03*
X92680000Y-49772500D03*
%TD*%
D28*
%TO.C,U22*%
X80609264Y-40088578D03*
X79639264Y-40088578D03*
X78669264Y-40088578D03*
X77699264Y-40088578D03*
X77699264Y-38688578D03*
X78669264Y-38688578D03*
X79639264Y-38688578D03*
X80609264Y-38688578D03*
%TD*%
D23*
%TO.C,J16*%
X93580000Y-39635000D03*
D24*
X91040000Y-39635000D03*
%TD*%
D19*
%TO.C,J13*%
X98880004Y-39135000D03*
D20*
X100330002Y-39135000D03*
%TD*%
D19*
%TO.C,J15*%
X102330002Y-39135000D03*
D20*
X103780000Y-39135000D03*
%TD*%
D37*
%TO.C,U18*%
X79080000Y-46635000D03*
X79080000Y-47285000D03*
X79080000Y-47935000D03*
X79080000Y-48585000D03*
X80880000Y-48585000D03*
X80880000Y-47935000D03*
X80880000Y-47285000D03*
X80880000Y-46635000D03*
%TD*%
D38*
%TO.C,U20*%
X105790000Y-50095000D03*
X111570000Y-50095000D03*
D39*
X105430000Y-48650000D03*
X106229999Y-48650000D03*
D40*
X107430000Y-48650001D03*
X108430000Y-48650000D03*
X108930000Y-48650000D03*
X109930000Y-48650001D03*
D39*
X111130001Y-48650000D03*
X111930000Y-48650000D03*
X111930000Y-48650000D03*
X111130001Y-48650000D03*
D40*
X110430000Y-48650000D03*
X109430000Y-48650000D03*
X107930000Y-48650000D03*
X106930000Y-48650000D03*
D39*
X106229999Y-48650000D03*
X105430000Y-48650000D03*
D41*
X104360000Y-49565000D03*
D42*
X104360000Y-53745000D03*
D41*
X113000000Y-49565000D03*
D42*
X113000000Y-53745000D03*
%TD*%
D36*
%TO.C,R15*%
X116355000Y-42135000D03*
X118005000Y-42135000D03*
%TD*%
D18*
%TO.C,D4*%
X110230001Y-39135000D03*
X108654999Y-39135000D03*
%TD*%
D12*
%TO.C,R11*%
X76675000Y-47955000D03*
X76675000Y-46305000D03*
%TD*%
D37*
%TO.C,U17*%
X82574999Y-43080000D03*
X82575000Y-43730000D03*
X82574999Y-44380000D03*
X84375001Y-44380000D03*
X84375000Y-43730000D03*
X84375001Y-43080000D03*
%TD*%
%TO.C,U1*%
X132574999Y-123080000D03*
X132575000Y-123730000D03*
X132574999Y-124380000D03*
X134375001Y-124380000D03*
X134375000Y-123730000D03*
X134375001Y-123080000D03*
%TD*%
D21*
%TO.C,U11*%
X137362500Y-122930000D03*
X137362500Y-123530000D03*
X138662500Y-123530000D03*
X138662500Y-122930000D03*
D22*
X138012500Y-123230001D03*
%TD*%
D23*
%TO.C,J8*%
X143580000Y-119635000D03*
D24*
X141040000Y-119635000D03*
%TD*%
D34*
%TO.C,R8*%
X157180000Y-119135000D03*
X155530000Y-119135000D03*
%TD*%
D36*
%TO.C,R6*%
X129525000Y-130929998D03*
X131175000Y-130929998D03*
%TD*%
D32*
%TO.C,R2*%
X142680000Y-132697500D03*
X142680000Y-129772500D03*
%TD*%
D19*
%TO.C,J5*%
X148880004Y-119135000D03*
D20*
X150330002Y-119135000D03*
%TD*%
D28*
%TO.C,U6*%
X130609264Y-120088578D03*
X129639264Y-120088578D03*
X128669264Y-120088578D03*
X127699264Y-120088578D03*
X127699264Y-118688578D03*
X128669264Y-118688578D03*
X129639264Y-118688578D03*
X130609264Y-118688578D03*
%TD*%
D36*
%TO.C,R7*%
X166355000Y-122135000D03*
X168005000Y-122135000D03*
%TD*%
D16*
%TO.C,U14*%
X133250000Y-134930000D03*
X133250000Y-134429999D03*
X133250000Y-133929999D03*
X133250000Y-133429998D03*
X130900000Y-133429998D03*
X130900000Y-133929999D03*
X130900000Y-134429999D03*
X130900000Y-134930000D03*
D17*
X132075000Y-134179999D03*
%TD*%
D47*
%TO.C,TP1*%
X129580000Y-124535000D03*
%TD*%
D12*
%TO.C,R3*%
X126675000Y-127955000D03*
X126675000Y-126305000D03*
%TD*%
D18*
%TO.C,D2*%
X160230001Y-119135000D03*
X158654999Y-119135000D03*
%TD*%
D38*
%TO.C,U4*%
X155790000Y-130095000D03*
X161570000Y-130095000D03*
D39*
X155430000Y-128650000D03*
X156229999Y-128650000D03*
D40*
X157430000Y-128650001D03*
X158430000Y-128650000D03*
X158930000Y-128650000D03*
X159930000Y-128650001D03*
D39*
X161130001Y-128650000D03*
X161930000Y-128650000D03*
X161930000Y-128650000D03*
X161130001Y-128650000D03*
D40*
X160430000Y-128650000D03*
X159430000Y-128650000D03*
X157930000Y-128650000D03*
X156930000Y-128650000D03*
D39*
X156229999Y-128650000D03*
X155430000Y-128650000D03*
D41*
X154360000Y-129565000D03*
D42*
X154360000Y-133745000D03*
D41*
X163000000Y-129565000D03*
D42*
X163000000Y-133745000D03*
%TD*%
D19*
%TO.C,J7*%
X152330002Y-119135000D03*
D20*
X153780000Y-119135000D03*
%TD*%
D23*
%TO.C,J2*%
X149780000Y-126115000D03*
D24*
X149780000Y-128655000D03*
X149780000Y-131195000D03*
X149780000Y-133735000D03*
%TD*%
D11*
%TO.C,C2*%
X128125000Y-130930000D03*
X126575000Y-130930000D03*
%TD*%
D35*
%TO.C,U15*%
X137155000Y-129435000D03*
X137154999Y-129935000D03*
X137155000Y-130435000D03*
X138580000Y-130435000D03*
X138580001Y-129935000D03*
X138580000Y-129435000D03*
%TD*%
D36*
%TO.C,R5*%
X166355000Y-119435000D03*
X168005000Y-119435000D03*
%TD*%
D43*
%TO.C,U10*%
X138475000Y-118530000D03*
X137525000Y-118530000D03*
X137525000Y-120430000D03*
X138475000Y-120430000D03*
D44*
X138000000Y-119480000D03*
%TD*%
D23*
%TO.C,J1*%
X123075000Y-120250000D03*
D24*
X123075000Y-122790000D03*
X123075000Y-125330000D03*
X123075000Y-127870000D03*
X123075000Y-130410000D03*
X123075000Y-132950000D03*
%TD*%
D19*
%TO.C,J3*%
X162655001Y-119135000D03*
D20*
X164104999Y-119135000D03*
%TD*%
D15*
%TO.C,C6*%
X162005000Y-125935000D03*
X163555000Y-125935000D03*
%TD*%
%TO.C,C1*%
X132725000Y-130930000D03*
X134275000Y-130930000D03*
%TD*%
D12*
%TO.C,R4*%
X126675000Y-124904999D03*
X126675000Y-123254999D03*
%TD*%
D37*
%TO.C,U2*%
X129080000Y-126635000D03*
X129080000Y-127285000D03*
X129080000Y-127935000D03*
X129080000Y-128585000D03*
X130880000Y-128585000D03*
X130880000Y-127935000D03*
X130880000Y-127285000D03*
X130880000Y-126635000D03*
%TD*%
D11*
%TO.C,C5*%
X128050000Y-133930000D03*
X126500000Y-133930000D03*
%TD*%
D15*
%TO.C,C4*%
X151830000Y-122135000D03*
X153380000Y-122135000D03*
%TD*%
D25*
%TO.C,J6*%
X134075000Y-128200001D03*
D26*
X134075000Y-126930001D03*
%TD*%
D23*
%TO.C,J4*%
X167580000Y-126115000D03*
D24*
X167580000Y-128655000D03*
X167580000Y-131195000D03*
X167580000Y-133735000D03*
%TD*%
D14*
%TO.C,U3*%
X143517500Y-125410000D03*
X143517500Y-124760000D03*
X143517500Y-124110000D03*
X143517500Y-123460000D03*
X141242500Y-123460000D03*
X141242500Y-124110000D03*
X141242500Y-124760000D03*
X141242500Y-125410000D03*
%TD*%
D46*
%TO.C,U5*%
X138675000Y-134530000D03*
X138675000Y-134030000D03*
X138675000Y-133530000D03*
X135925000Y-133530000D03*
X135925000Y-134030000D03*
X135925000Y-134530000D03*
%TD*%
D29*
%TO.C,IC1*%
X133675000Y-120230000D03*
X134475000Y-120230000D03*
X134475000Y-118630000D03*
X133675000Y-118630000D03*
D30*
X134075000Y-119430000D03*
%TD*%
D11*
%TO.C,C3*%
X150245000Y-122135000D03*
X148695000Y-122135000D03*
%TD*%
D13*
%TO.C,C7*%
X154080000Y-125985000D03*
X154080000Y-124435000D03*
%TD*%
D33*
%TO.C,R1*%
X142680000Y-134197500D03*
X142680000Y-128272500D03*
%TD*%
D21*
%TO.C,U12*%
X136825000Y-126080000D03*
X136825000Y-126730000D03*
X136825000Y-127380000D03*
X138525000Y-127380000D03*
X138525000Y-126730000D03*
X138525000Y-126080000D03*
D45*
X137675000Y-126730000D03*
%TD*%
D27*
%TO.C,U8*%
X157105000Y-121835000D03*
X157105000Y-122785000D03*
X157105000Y-123735000D03*
X159380000Y-123735000D03*
X159380000Y-121835000D03*
%TD*%
D31*
%TO.C,D1*%
X162880000Y-121485000D03*
X162880000Y-123585000D03*
%TD*%
M02*
