%TF.GenerationSoftware,KiCad,Pcbnew,9.0.4*%
%TF.CreationDate,2025-12-20T12:00:32-05:00*%
%TF.ProjectId,LED-74HC595,4c45442d-3734-4484-9335-39352e6b6963,rev?*%
%TF.SameCoordinates,Original*%
%TF.FileFunction,Plated,1,2,PTH,Drill*%
%TF.FilePolarity,Positive*%
%FSLAX46Y46*%
G04 Gerber Fmt 4.6, Leading zero omitted, Abs format (unit mm)*
G04 Created by KiCad (PCBNEW 9.0.4) date 2025-12-20 12:00:32*
%MOMM*%
%LPD*%
G01*
G04 APERTURE LIST*
%TA.AperFunction,ViaDrill*%
%ADD10C,0.300000*%
%TD*%
%TA.AperFunction,ComponentDrill*%
%ADD11C,1.000000*%
%TD*%
G04 APERTURE END LIST*
D10*
X140389566Y-79109566D03*
X141089566Y-79610622D03*
X141889124Y-79637310D03*
X143300000Y-85300000D03*
X143300000Y-101000000D03*
X144000000Y-79100000D03*
X144295682Y-87995682D03*
X144898000Y-79611439D03*
X145380525Y-80380525D03*
X145500000Y-90400000D03*
X145500000Y-93300000D03*
X145700000Y-92100000D03*
X145705189Y-81111687D03*
X145800000Y-88100000D03*
X145900000Y-86700000D03*
X145900000Y-101700000D03*
X145900000Y-103000000D03*
X145900000Y-104300000D03*
X145900000Y-105500000D03*
X145900000Y-106800000D03*
X146000000Y-99100000D03*
X146100000Y-100500000D03*
X146300000Y-82400000D03*
X147700000Y-85300000D03*
X148186311Y-83063576D03*
X148800000Y-81000000D03*
X148800000Y-82313577D03*
X149400000Y-108200000D03*
X150200000Y-105800000D03*
X150400000Y-82000000D03*
X150950000Y-102800000D03*
X151000000Y-74000000D03*
X151100000Y-100300000D03*
X151100000Y-101600000D03*
X151231037Y-87168963D03*
X151600000Y-77200000D03*
X151800000Y-81200000D03*
X152600000Y-75400000D03*
X153400000Y-85800000D03*
X154200000Y-83100000D03*
X154200000Y-98200000D03*
X154201000Y-70800000D03*
X154400000Y-63200000D03*
X154400000Y-107000000D03*
X154404818Y-80995182D03*
X154500000Y-81900000D03*
X154501207Y-80098793D03*
X154600000Y-77800000D03*
X154700000Y-69600000D03*
X154981314Y-101818686D03*
X155200000Y-91300000D03*
X155200000Y-93710000D03*
X155200000Y-94510003D03*
X155800000Y-72200000D03*
X156600000Y-70800000D03*
X156600000Y-80995182D03*
X156600000Y-91800000D03*
X157300000Y-69600000D03*
X157300000Y-80000000D03*
X157300000Y-93710000D03*
D11*
%TO.C,J2*%
X136460000Y-62500000D03*
X136460000Y-65040000D03*
X136460000Y-67580000D03*
X136460000Y-70120000D03*
X136460000Y-72660000D03*
X136460000Y-75200000D03*
X136460000Y-77740000D03*
X136460000Y-80280000D03*
X136460000Y-82820000D03*
X136460000Y-85360000D03*
X136460000Y-87900000D03*
X136460000Y-90440000D03*
X136460000Y-92980000D03*
X136460000Y-95520000D03*
X136460000Y-98060000D03*
X136460000Y-100600000D03*
X136460000Y-103140000D03*
X136460000Y-105680000D03*
X136460000Y-108220000D03*
X139000000Y-62500000D03*
X139000000Y-65040000D03*
X139000000Y-67580000D03*
X139000000Y-70120000D03*
X139000000Y-72660000D03*
X139000000Y-75200000D03*
X139000000Y-77740000D03*
X139000000Y-80280000D03*
X139000000Y-82820000D03*
X139000000Y-85360000D03*
X139000000Y-87900000D03*
X139000000Y-90440000D03*
X139000000Y-92980000D03*
X139000000Y-95520000D03*
X139000000Y-98060000D03*
X139000000Y-100600000D03*
X139000000Y-103140000D03*
X139000000Y-105680000D03*
X139000000Y-108220000D03*
%TO.C,J1*%
X159300000Y-62500000D03*
X159300000Y-65040000D03*
X159300000Y-67580000D03*
X159300000Y-70120000D03*
X159300000Y-72660000D03*
X159300000Y-75200000D03*
X159300000Y-77740000D03*
X159300000Y-80280000D03*
X159300000Y-82820000D03*
X159300000Y-85360000D03*
%TO.C,J3*%
X161000000Y-90420000D03*
X161000000Y-92960000D03*
X161000000Y-95500000D03*
X161000000Y-98040000D03*
X161000000Y-100580000D03*
X161000000Y-103120000D03*
X161000000Y-105660000D03*
X161000000Y-108200000D03*
M02*
