%TF.GenerationSoftware,KiCad,Pcbnew,9.0.4*%
%TF.CreationDate,2025-12-20T12:00:30-05:00*%
%TF.ProjectId,LED-74HC595,4c45442d-3734-4484-9335-39352e6b6963,rev?*%
%TF.SameCoordinates,Original*%
%TF.FileFunction,Paste,Top*%
%TF.FilePolarity,Positive*%
%FSLAX46Y46*%
G04 Gerber Fmt 4.6, Leading zero omitted, Abs format (unit mm)*
G04 Created by KiCad (PCBNEW 9.0.4) date 2025-12-20 12:00:30*
%MOMM*%
%LPD*%
G01*
G04 APERTURE LIST*
G04 Aperture macros list*
%AMRoundRect*
0 Rectangle with rounded corners*
0 $1 Rounding radius*
0 $2 $3 $4 $5 $6 $7 $8 $9 X,Y pos of 4 corners*
0 Add a 4 corners polygon primitive as box body*
4,1,4,$2,$3,$4,$5,$6,$7,$8,$9,$2,$3,0*
0 Add four circle primitives for the rounded corners*
1,1,$1+$1,$2,$3*
1,1,$1+$1,$4,$5*
1,1,$1+$1,$6,$7*
1,1,$1+$1,$8,$9*
0 Add four rect primitives between the rounded corners*
20,1,$1+$1,$2,$3,$4,$5,0*
20,1,$1+$1,$4,$5,$6,$7,0*
20,1,$1+$1,$6,$7,$8,$9,0*
20,1,$1+$1,$8,$9,$2,$3,0*%
G04 Aperture macros list end*
%ADD10RoundRect,0.150000X-0.850000X-0.150000X0.850000X-0.150000X0.850000X0.150000X-0.850000X0.150000X0*%
%ADD11RoundRect,0.100000X-0.637500X-0.100000X0.637500X-0.100000X0.637500X0.100000X-0.637500X0.100000X0*%
%ADD12RoundRect,0.218750X0.256250X-0.218750X0.256250X0.218750X-0.256250X0.218750X-0.256250X-0.218750X0*%
%ADD13RoundRect,0.200000X-0.275000X0.200000X-0.275000X-0.200000X0.275000X-0.200000X0.275000X0.200000X0*%
%ADD14R,0.650000X1.050000*%
%ADD15RoundRect,0.225000X-0.250000X0.225000X-0.250000X-0.225000X0.250000X-0.225000X0.250000X0.225000X0*%
G04 APERTURE END LIST*
D10*
%TO.C,U3*%
X147600000Y-99179999D03*
X147600000Y-100450000D03*
X147600000Y-101720001D03*
X147600000Y-102990000D03*
X147600000Y-104260000D03*
X147600000Y-105529999D03*
X147600000Y-106800000D03*
X147600000Y-108070001D03*
X152600000Y-108070001D03*
X152600000Y-106800000D03*
X152600000Y-105529999D03*
X152600000Y-104260000D03*
X152600000Y-102990000D03*
X152600000Y-101720001D03*
X152600000Y-100450000D03*
X152600000Y-99179999D03*
%TD*%
D11*
%TO.C,U1*%
X147337500Y-76550000D03*
X147337500Y-77200000D03*
X147337500Y-77850000D03*
X147337500Y-78500000D03*
X147337500Y-79150000D03*
X147337500Y-79800000D03*
X147337500Y-80450000D03*
X147337500Y-81100000D03*
X147337500Y-81750000D03*
X147337500Y-82400000D03*
X153062500Y-82400000D03*
X153062500Y-81750000D03*
X153062500Y-81100000D03*
X153062500Y-80450000D03*
X153062500Y-79800000D03*
X153062500Y-79150000D03*
X153062500Y-78500000D03*
X153062500Y-77850000D03*
X153062500Y-77200000D03*
X153062500Y-76550000D03*
%TD*%
D10*
%TO.C,U4*%
X147700000Y-63110000D03*
X147700000Y-64380000D03*
X147700000Y-65650000D03*
X147700000Y-66920000D03*
X147700000Y-68190000D03*
X147700000Y-69460000D03*
X147700000Y-70730000D03*
X147700000Y-72000000D03*
X152700000Y-72000000D03*
X152700000Y-70730000D03*
X152700000Y-69460000D03*
X152700000Y-68190000D03*
X152700000Y-66920000D03*
X152700000Y-65650000D03*
X152700000Y-64380000D03*
X152700000Y-63110000D03*
%TD*%
%TO.C,U2*%
X147700000Y-86754999D03*
X147700000Y-88025000D03*
X147700000Y-89295001D03*
X147700000Y-90565000D03*
X147700000Y-91835000D03*
X147700000Y-93104999D03*
X147700000Y-94375000D03*
X147700000Y-95645001D03*
X152700000Y-95645001D03*
X152700000Y-94375000D03*
X152700000Y-93104999D03*
X152700000Y-91835000D03*
X152700000Y-90565000D03*
X152700000Y-89295001D03*
X152700000Y-88025000D03*
X152700000Y-86754999D03*
%TD*%
D12*
%TO.C,D1*%
X143300000Y-107675002D03*
X143300000Y-106100000D03*
%TD*%
D13*
%TO.C,R1*%
X143300000Y-103062501D03*
X143300000Y-104712501D03*
%TD*%
D14*
%TO.C,SW1*%
X142225000Y-98475000D03*
X142225000Y-94325000D03*
X144375000Y-98475000D03*
X144375000Y-94325000D03*
%TD*%
D15*
%TO.C,C1*%
X143000000Y-90525000D03*
X143000000Y-92075000D03*
%TD*%
M02*
