%TF.GenerationSoftware,KiCad,Pcbnew,9.0.4*%
%TF.CreationDate,2025-12-20T12:00:30-05:00*%
%TF.ProjectId,LED-74HC595,4c45442d-3734-4484-9335-39352e6b6963,rev?*%
%TF.SameCoordinates,Original*%
%TF.FileFunction,Legend,Bot*%
%TF.FilePolarity,Positive*%
%FSLAX46Y46*%
G04 Gerber Fmt 4.6, Leading zero omitted, Abs format (unit mm)*
G04 Created by KiCad (PCBNEW 9.0.4) date 2025-12-20 12:00:30*
%MOMM*%
%LPD*%
G01*
G04 APERTURE LIST*
%ADD10C,0.150000*%
%ADD11C,0.000000*%
G04 APERTURE END LIST*
D10*
X161348093Y-77232437D02*
X161443331Y-77184818D01*
X161443331Y-77184818D02*
X161586188Y-77184818D01*
X161586188Y-77184818D02*
X161729045Y-77232437D01*
X161729045Y-77232437D02*
X161824283Y-77327675D01*
X161824283Y-77327675D02*
X161871902Y-77422913D01*
X161871902Y-77422913D02*
X161919521Y-77613389D01*
X161919521Y-77613389D02*
X161919521Y-77756246D01*
X161919521Y-77756246D02*
X161871902Y-77946722D01*
X161871902Y-77946722D02*
X161824283Y-78041960D01*
X161824283Y-78041960D02*
X161729045Y-78137199D01*
X161729045Y-78137199D02*
X161586188Y-78184818D01*
X161586188Y-78184818D02*
X161490950Y-78184818D01*
X161490950Y-78184818D02*
X161348093Y-78137199D01*
X161348093Y-78137199D02*
X161300474Y-78089579D01*
X161300474Y-78089579D02*
X161300474Y-77756246D01*
X161300474Y-77756246D02*
X161490950Y-77756246D01*
X162290474Y-83287201D02*
X162147617Y-83334820D01*
X162147617Y-83334820D02*
X161909522Y-83334820D01*
X161909522Y-83334820D02*
X161814284Y-83287201D01*
X161814284Y-83287201D02*
X161766665Y-83239581D01*
X161766665Y-83239581D02*
X161719046Y-83144343D01*
X161719046Y-83144343D02*
X161719046Y-83049105D01*
X161719046Y-83049105D02*
X161766665Y-82953867D01*
X161766665Y-82953867D02*
X161814284Y-82906248D01*
X161814284Y-82906248D02*
X161909522Y-82858629D01*
X161909522Y-82858629D02*
X162099998Y-82811010D01*
X162099998Y-82811010D02*
X162195236Y-82763391D01*
X162195236Y-82763391D02*
X162242855Y-82715772D01*
X162242855Y-82715772D02*
X162290474Y-82620534D01*
X162290474Y-82620534D02*
X162290474Y-82525296D01*
X162290474Y-82525296D02*
X162242855Y-82430058D01*
X162242855Y-82430058D02*
X162195236Y-82382439D01*
X162195236Y-82382439D02*
X162099998Y-82334820D01*
X162099998Y-82334820D02*
X161861903Y-82334820D01*
X161861903Y-82334820D02*
X161719046Y-82382439D01*
X160814284Y-83334820D02*
X161290474Y-83334820D01*
X161290474Y-83334820D02*
X161290474Y-82334820D01*
X142014285Y-72819904D02*
X141538095Y-72819904D01*
X142109523Y-73105619D02*
X141776190Y-72105619D01*
X141776190Y-72105619D02*
X141442857Y-73105619D01*
X140680952Y-72438952D02*
X140680952Y-73105619D01*
X140919047Y-72058000D02*
X141157142Y-72772285D01*
X141157142Y-72772285D02*
X140538095Y-72772285D01*
X143128097Y-87433239D02*
X143223335Y-87385620D01*
X143223335Y-87385620D02*
X143366192Y-87385620D01*
X143366192Y-87385620D02*
X143509049Y-87433239D01*
X143509049Y-87433239D02*
X143604287Y-87528477D01*
X143604287Y-87528477D02*
X143651906Y-87623715D01*
X143651906Y-87623715D02*
X143699525Y-87814191D01*
X143699525Y-87814191D02*
X143699525Y-87957048D01*
X143699525Y-87957048D02*
X143651906Y-88147524D01*
X143651906Y-88147524D02*
X143604287Y-88242762D01*
X143604287Y-88242762D02*
X143509049Y-88338001D01*
X143509049Y-88338001D02*
X143366192Y-88385620D01*
X143366192Y-88385620D02*
X143270954Y-88385620D01*
X143270954Y-88385620D02*
X143128097Y-88338001D01*
X143128097Y-88338001D02*
X143080478Y-88290381D01*
X143080478Y-88290381D02*
X143080478Y-87957048D01*
X143080478Y-87957048D02*
X143270954Y-87957048D01*
X143593131Y-63054819D02*
X143926464Y-62578628D01*
X144164559Y-63054819D02*
X144164559Y-62054819D01*
X144164559Y-62054819D02*
X143783607Y-62054819D01*
X143783607Y-62054819D02*
X143688369Y-62102438D01*
X143688369Y-62102438D02*
X143640750Y-62150057D01*
X143640750Y-62150057D02*
X143593131Y-62245295D01*
X143593131Y-62245295D02*
X143593131Y-62388152D01*
X143593131Y-62388152D02*
X143640750Y-62483390D01*
X143640750Y-62483390D02*
X143688369Y-62531009D01*
X143688369Y-62531009D02*
X143783607Y-62578628D01*
X143783607Y-62578628D02*
X144164559Y-62578628D01*
X142974083Y-62054819D02*
X142878845Y-62054819D01*
X142878845Y-62054819D02*
X142783607Y-62102438D01*
X142783607Y-62102438D02*
X142735988Y-62150057D01*
X142735988Y-62150057D02*
X142688369Y-62245295D01*
X142688369Y-62245295D02*
X142640750Y-62435771D01*
X142640750Y-62435771D02*
X142640750Y-62673866D01*
X142640750Y-62673866D02*
X142688369Y-62864342D01*
X142688369Y-62864342D02*
X142735988Y-62959580D01*
X142735988Y-62959580D02*
X142783607Y-63007200D01*
X142783607Y-63007200D02*
X142878845Y-63054819D01*
X142878845Y-63054819D02*
X142974083Y-63054819D01*
X142974083Y-63054819D02*
X143069321Y-63007200D01*
X143069321Y-63007200D02*
X143116940Y-62959580D01*
X143116940Y-62959580D02*
X143164559Y-62864342D01*
X143164559Y-62864342D02*
X143212178Y-62673866D01*
X143212178Y-62673866D02*
X143212178Y-62435771D01*
X143212178Y-62435771D02*
X143164559Y-62245295D01*
X143164559Y-62245295D02*
X143116940Y-62150057D01*
X143116940Y-62150057D02*
X143069321Y-62102438D01*
X143069321Y-62102438D02*
X142974083Y-62054819D01*
X161374559Y-62141638D02*
X161469797Y-62094019D01*
X161469797Y-62094019D02*
X161612654Y-62094019D01*
X161612654Y-62094019D02*
X161755511Y-62141638D01*
X161755511Y-62141638D02*
X161850749Y-62236876D01*
X161850749Y-62236876D02*
X161898368Y-62332114D01*
X161898368Y-62332114D02*
X161945987Y-62522590D01*
X161945987Y-62522590D02*
X161945987Y-62665447D01*
X161945987Y-62665447D02*
X161898368Y-62855923D01*
X161898368Y-62855923D02*
X161850749Y-62951161D01*
X161850749Y-62951161D02*
X161755511Y-63046400D01*
X161755511Y-63046400D02*
X161612654Y-63094019D01*
X161612654Y-63094019D02*
X161517416Y-63094019D01*
X161517416Y-63094019D02*
X161374559Y-63046400D01*
X161374559Y-63046400D02*
X161326940Y-62998780D01*
X161326940Y-62998780D02*
X161326940Y-62665447D01*
X161326940Y-62665447D02*
X161517416Y-62665447D01*
X162314284Y-72621009D02*
X161980951Y-72621009D01*
X161838094Y-73144819D02*
X162314284Y-73144819D01*
X162314284Y-73144819D02*
X162314284Y-72144819D01*
X162314284Y-72144819D02*
X161838094Y-72144819D01*
X160838094Y-73049580D02*
X160885713Y-73097200D01*
X160885713Y-73097200D02*
X161028570Y-73144819D01*
X161028570Y-73144819D02*
X161123808Y-73144819D01*
X161123808Y-73144819D02*
X161266665Y-73097200D01*
X161266665Y-73097200D02*
X161361903Y-73001961D01*
X161361903Y-73001961D02*
X161409522Y-72906723D01*
X161409522Y-72906723D02*
X161457141Y-72716247D01*
X161457141Y-72716247D02*
X161457141Y-72573390D01*
X161457141Y-72573390D02*
X161409522Y-72382914D01*
X161409522Y-72382914D02*
X161361903Y-72287676D01*
X161361903Y-72287676D02*
X161266665Y-72192438D01*
X161266665Y-72192438D02*
X161123808Y-72144819D01*
X161123808Y-72144819D02*
X161028570Y-72144819D01*
X161028570Y-72144819D02*
X160885713Y-72192438D01*
X160885713Y-72192438D02*
X160838094Y-72240057D01*
X142014286Y-65229904D02*
X141538096Y-65229904D01*
X142109524Y-65515619D02*
X141776191Y-64515619D01*
X141776191Y-64515619D02*
X141442858Y-65515619D01*
X140585715Y-65515619D02*
X141157143Y-65515619D01*
X140871429Y-65515619D02*
X140871429Y-64515619D01*
X140871429Y-64515619D02*
X140966667Y-64658476D01*
X140966667Y-64658476D02*
X141061905Y-64753714D01*
X141061905Y-64753714D02*
X141157143Y-64801333D01*
X158866666Y-108754819D02*
X159199999Y-108278628D01*
X159438094Y-108754819D02*
X159438094Y-107754819D01*
X159438094Y-107754819D02*
X159057142Y-107754819D01*
X159057142Y-107754819D02*
X158961904Y-107802438D01*
X158961904Y-107802438D02*
X158914285Y-107850057D01*
X158914285Y-107850057D02*
X158866666Y-107945295D01*
X158866666Y-107945295D02*
X158866666Y-108088152D01*
X158866666Y-108088152D02*
X158914285Y-108183390D01*
X158914285Y-108183390D02*
X158961904Y-108231009D01*
X158961904Y-108231009D02*
X159057142Y-108278628D01*
X159057142Y-108278628D02*
X159438094Y-108278628D01*
X158533332Y-107754819D02*
X157866666Y-107754819D01*
X157866666Y-107754819D02*
X158295237Y-108754819D01*
X142014285Y-75369905D02*
X141538095Y-75369905D01*
X142109523Y-75655620D02*
X141776190Y-74655620D01*
X141776190Y-74655620D02*
X141442857Y-75655620D01*
X140633333Y-74655620D02*
X141109523Y-74655620D01*
X141109523Y-74655620D02*
X141157142Y-75131810D01*
X141157142Y-75131810D02*
X141109523Y-75084191D01*
X141109523Y-75084191D02*
X141014285Y-75036572D01*
X141014285Y-75036572D02*
X140776190Y-75036572D01*
X140776190Y-75036572D02*
X140680952Y-75084191D01*
X140680952Y-75084191D02*
X140633333Y-75131810D01*
X140633333Y-75131810D02*
X140585714Y-75227048D01*
X140585714Y-75227048D02*
X140585714Y-75465143D01*
X140585714Y-75465143D02*
X140633333Y-75560381D01*
X140633333Y-75560381D02*
X140680952Y-75608001D01*
X140680952Y-75608001D02*
X140776190Y-75655620D01*
X140776190Y-75655620D02*
X141014285Y-75655620D01*
X141014285Y-75655620D02*
X141109523Y-75608001D01*
X141109523Y-75608001D02*
X141157142Y-75560381D01*
X141476666Y-98400380D02*
X141524285Y-98448000D01*
X141524285Y-98448000D02*
X141667142Y-98495619D01*
X141667142Y-98495619D02*
X141762380Y-98495619D01*
X141762380Y-98495619D02*
X141905237Y-98448000D01*
X141905237Y-98448000D02*
X142000475Y-98352761D01*
X142000475Y-98352761D02*
X142048094Y-98257523D01*
X142048094Y-98257523D02*
X142095713Y-98067047D01*
X142095713Y-98067047D02*
X142095713Y-97924190D01*
X142095713Y-97924190D02*
X142048094Y-97733714D01*
X142048094Y-97733714D02*
X142000475Y-97638476D01*
X142000475Y-97638476D02*
X141905237Y-97543238D01*
X141905237Y-97543238D02*
X141762380Y-97495619D01*
X141762380Y-97495619D02*
X141667142Y-97495619D01*
X141667142Y-97495619D02*
X141524285Y-97543238D01*
X141524285Y-97543238D02*
X141476666Y-97590857D01*
X141143332Y-97495619D02*
X140524285Y-97495619D01*
X140524285Y-97495619D02*
X140857618Y-97876571D01*
X140857618Y-97876571D02*
X140714761Y-97876571D01*
X140714761Y-97876571D02*
X140619523Y-97924190D01*
X140619523Y-97924190D02*
X140571904Y-97971809D01*
X140571904Y-97971809D02*
X140524285Y-98067047D01*
X140524285Y-98067047D02*
X140524285Y-98305142D01*
X140524285Y-98305142D02*
X140571904Y-98400380D01*
X140571904Y-98400380D02*
X140619523Y-98448000D01*
X140619523Y-98448000D02*
X140714761Y-98495619D01*
X140714761Y-98495619D02*
X141000475Y-98495619D01*
X141000475Y-98495619D02*
X141095713Y-98448000D01*
X141095713Y-98448000D02*
X141143332Y-98400380D01*
X143566666Y-100950381D02*
X143614285Y-100998001D01*
X143614285Y-100998001D02*
X143757142Y-101045620D01*
X143757142Y-101045620D02*
X143852380Y-101045620D01*
X143852380Y-101045620D02*
X143995237Y-100998001D01*
X143995237Y-100998001D02*
X144090475Y-100902762D01*
X144090475Y-100902762D02*
X144138094Y-100807524D01*
X144138094Y-100807524D02*
X144185713Y-100617048D01*
X144185713Y-100617048D02*
X144185713Y-100474191D01*
X144185713Y-100474191D02*
X144138094Y-100283715D01*
X144138094Y-100283715D02*
X144090475Y-100188477D01*
X144090475Y-100188477D02*
X143995237Y-100093239D01*
X143995237Y-100093239D02*
X143852380Y-100045620D01*
X143852380Y-100045620D02*
X143757142Y-100045620D01*
X143757142Y-100045620D02*
X143614285Y-100093239D01*
X143614285Y-100093239D02*
X143566666Y-100140858D01*
X142709523Y-100378953D02*
X142709523Y-101045620D01*
X142947618Y-99998001D02*
X143185713Y-100712286D01*
X143185713Y-100712286D02*
X142566666Y-100712286D01*
X143566666Y-98400380D02*
X143614285Y-98448000D01*
X143614285Y-98448000D02*
X143757142Y-98495619D01*
X143757142Y-98495619D02*
X143852380Y-98495619D01*
X143852380Y-98495619D02*
X143995237Y-98448000D01*
X143995237Y-98448000D02*
X144090475Y-98352761D01*
X144090475Y-98352761D02*
X144138094Y-98257523D01*
X144138094Y-98257523D02*
X144185713Y-98067047D01*
X144185713Y-98067047D02*
X144185713Y-97924190D01*
X144185713Y-97924190D02*
X144138094Y-97733714D01*
X144138094Y-97733714D02*
X144090475Y-97638476D01*
X144090475Y-97638476D02*
X143995237Y-97543238D01*
X143995237Y-97543238D02*
X143852380Y-97495619D01*
X143852380Y-97495619D02*
X143757142Y-97495619D01*
X143757142Y-97495619D02*
X143614285Y-97543238D01*
X143614285Y-97543238D02*
X143566666Y-97590857D01*
X143233332Y-97495619D02*
X142614285Y-97495619D01*
X142614285Y-97495619D02*
X142947618Y-97876571D01*
X142947618Y-97876571D02*
X142804761Y-97876571D01*
X142804761Y-97876571D02*
X142709523Y-97924190D01*
X142709523Y-97924190D02*
X142661904Y-97971809D01*
X142661904Y-97971809D02*
X142614285Y-98067047D01*
X142614285Y-98067047D02*
X142614285Y-98305142D01*
X142614285Y-98305142D02*
X142661904Y-98400380D01*
X142661904Y-98400380D02*
X142709523Y-98448000D01*
X142709523Y-98448000D02*
X142804761Y-98495619D01*
X142804761Y-98495619D02*
X143090475Y-98495619D01*
X143090475Y-98495619D02*
X143185713Y-98448000D01*
X143185713Y-98448000D02*
X143233332Y-98400380D01*
X141038095Y-82343239D02*
X141133333Y-82295620D01*
X141133333Y-82295620D02*
X141276190Y-82295620D01*
X141276190Y-82295620D02*
X141419047Y-82343239D01*
X141419047Y-82343239D02*
X141514285Y-82438477D01*
X141514285Y-82438477D02*
X141561904Y-82533715D01*
X141561904Y-82533715D02*
X141609523Y-82724191D01*
X141609523Y-82724191D02*
X141609523Y-82867048D01*
X141609523Y-82867048D02*
X141561904Y-83057524D01*
X141561904Y-83057524D02*
X141514285Y-83152762D01*
X141514285Y-83152762D02*
X141419047Y-83248001D01*
X141419047Y-83248001D02*
X141276190Y-83295620D01*
X141276190Y-83295620D02*
X141180952Y-83295620D01*
X141180952Y-83295620D02*
X141038095Y-83248001D01*
X141038095Y-83248001D02*
X140990476Y-83200381D01*
X140990476Y-83200381D02*
X140990476Y-82867048D01*
X140990476Y-82867048D02*
X141180952Y-82867048D01*
X143566666Y-80695619D02*
X143899999Y-80219428D01*
X144138094Y-80695619D02*
X144138094Y-79695619D01*
X144138094Y-79695619D02*
X143757142Y-79695619D01*
X143757142Y-79695619D02*
X143661904Y-79743238D01*
X143661904Y-79743238D02*
X143614285Y-79790857D01*
X143614285Y-79790857D02*
X143566666Y-79886095D01*
X143566666Y-79886095D02*
X143566666Y-80028952D01*
X143566666Y-80028952D02*
X143614285Y-80124190D01*
X143614285Y-80124190D02*
X143661904Y-80171809D01*
X143661904Y-80171809D02*
X143757142Y-80219428D01*
X143757142Y-80219428D02*
X144138094Y-80219428D01*
X143233332Y-79695619D02*
X142566666Y-79695619D01*
X142566666Y-79695619D02*
X142995237Y-80695619D01*
X143556666Y-103580381D02*
X143604285Y-103628001D01*
X143604285Y-103628001D02*
X143747142Y-103675620D01*
X143747142Y-103675620D02*
X143842380Y-103675620D01*
X143842380Y-103675620D02*
X143985237Y-103628001D01*
X143985237Y-103628001D02*
X144080475Y-103532762D01*
X144080475Y-103532762D02*
X144128094Y-103437524D01*
X144128094Y-103437524D02*
X144175713Y-103247048D01*
X144175713Y-103247048D02*
X144175713Y-103104191D01*
X144175713Y-103104191D02*
X144128094Y-102913715D01*
X144128094Y-102913715D02*
X144080475Y-102818477D01*
X144080475Y-102818477D02*
X143985237Y-102723239D01*
X143985237Y-102723239D02*
X143842380Y-102675620D01*
X143842380Y-102675620D02*
X143747142Y-102675620D01*
X143747142Y-102675620D02*
X143604285Y-102723239D01*
X143604285Y-102723239D02*
X143556666Y-102770858D01*
X142651904Y-102675620D02*
X143128094Y-102675620D01*
X143128094Y-102675620D02*
X143175713Y-103151810D01*
X143175713Y-103151810D02*
X143128094Y-103104191D01*
X143128094Y-103104191D02*
X143032856Y-103056572D01*
X143032856Y-103056572D02*
X142794761Y-103056572D01*
X142794761Y-103056572D02*
X142699523Y-103104191D01*
X142699523Y-103104191D02*
X142651904Y-103151810D01*
X142651904Y-103151810D02*
X142604285Y-103247048D01*
X142604285Y-103247048D02*
X142604285Y-103485143D01*
X142604285Y-103485143D02*
X142651904Y-103580381D01*
X142651904Y-103580381D02*
X142699523Y-103628001D01*
X142699523Y-103628001D02*
X142794761Y-103675620D01*
X142794761Y-103675620D02*
X143032856Y-103675620D01*
X143032856Y-103675620D02*
X143128094Y-103628001D01*
X143128094Y-103628001D02*
X143175713Y-103580381D01*
X161933332Y-64554818D02*
X161599999Y-65554818D01*
X161599999Y-65554818D02*
X161266666Y-64554818D01*
X143556667Y-68015619D02*
X143890000Y-67539428D01*
X144128095Y-68015619D02*
X144128095Y-67015619D01*
X144128095Y-67015619D02*
X143747143Y-67015619D01*
X143747143Y-67015619D02*
X143651905Y-67063238D01*
X143651905Y-67063238D02*
X143604286Y-67110857D01*
X143604286Y-67110857D02*
X143556667Y-67206095D01*
X143556667Y-67206095D02*
X143556667Y-67348952D01*
X143556667Y-67348952D02*
X143604286Y-67444190D01*
X143604286Y-67444190D02*
X143651905Y-67491809D01*
X143651905Y-67491809D02*
X143747143Y-67539428D01*
X143747143Y-67539428D02*
X144128095Y-67539428D01*
X143175714Y-67110857D02*
X143128095Y-67063238D01*
X143128095Y-67063238D02*
X143032857Y-67015619D01*
X143032857Y-67015619D02*
X142794762Y-67015619D01*
X142794762Y-67015619D02*
X142699524Y-67063238D01*
X142699524Y-67063238D02*
X142651905Y-67110857D01*
X142651905Y-67110857D02*
X142604286Y-67206095D01*
X142604286Y-67206095D02*
X142604286Y-67301333D01*
X142604286Y-67301333D02*
X142651905Y-67444190D01*
X142651905Y-67444190D02*
X143223333Y-68015619D01*
X143223333Y-68015619D02*
X142604286Y-68015619D01*
X141476666Y-108620380D02*
X141524285Y-108668000D01*
X141524285Y-108668000D02*
X141667142Y-108715619D01*
X141667142Y-108715619D02*
X141762380Y-108715619D01*
X141762380Y-108715619D02*
X141905237Y-108668000D01*
X141905237Y-108668000D02*
X142000475Y-108572761D01*
X142000475Y-108572761D02*
X142048094Y-108477523D01*
X142048094Y-108477523D02*
X142095713Y-108287047D01*
X142095713Y-108287047D02*
X142095713Y-108144190D01*
X142095713Y-108144190D02*
X142048094Y-107953714D01*
X142048094Y-107953714D02*
X142000475Y-107858476D01*
X142000475Y-107858476D02*
X141905237Y-107763238D01*
X141905237Y-107763238D02*
X141762380Y-107715619D01*
X141762380Y-107715619D02*
X141667142Y-107715619D01*
X141667142Y-107715619D02*
X141524285Y-107763238D01*
X141524285Y-107763238D02*
X141476666Y-107810857D01*
X141143332Y-107715619D02*
X140476666Y-107715619D01*
X140476666Y-107715619D02*
X140905237Y-108715619D01*
X143566666Y-106070379D02*
X143614285Y-106117999D01*
X143614285Y-106117999D02*
X143757142Y-106165618D01*
X143757142Y-106165618D02*
X143852380Y-106165618D01*
X143852380Y-106165618D02*
X143995237Y-106117999D01*
X143995237Y-106117999D02*
X144090475Y-106022760D01*
X144090475Y-106022760D02*
X144138094Y-105927522D01*
X144138094Y-105927522D02*
X144185713Y-105737046D01*
X144185713Y-105737046D02*
X144185713Y-105594189D01*
X144185713Y-105594189D02*
X144138094Y-105403713D01*
X144138094Y-105403713D02*
X144090475Y-105308475D01*
X144090475Y-105308475D02*
X143995237Y-105213237D01*
X143995237Y-105213237D02*
X143852380Y-105165618D01*
X143852380Y-105165618D02*
X143757142Y-105165618D01*
X143757142Y-105165618D02*
X143614285Y-105213237D01*
X143614285Y-105213237D02*
X143566666Y-105260856D01*
X142709523Y-105165618D02*
X142899999Y-105165618D01*
X142899999Y-105165618D02*
X142995237Y-105213237D01*
X142995237Y-105213237D02*
X143042856Y-105260856D01*
X143042856Y-105260856D02*
X143138094Y-105403713D01*
X143138094Y-105403713D02*
X143185713Y-105594189D01*
X143185713Y-105594189D02*
X143185713Y-105975141D01*
X143185713Y-105975141D02*
X143138094Y-106070379D01*
X143138094Y-106070379D02*
X143090475Y-106117999D01*
X143090475Y-106117999D02*
X142995237Y-106165618D01*
X142995237Y-106165618D02*
X142804761Y-106165618D01*
X142804761Y-106165618D02*
X142709523Y-106117999D01*
X142709523Y-106117999D02*
X142661904Y-106070379D01*
X142661904Y-106070379D02*
X142614285Y-105975141D01*
X142614285Y-105975141D02*
X142614285Y-105737046D01*
X142614285Y-105737046D02*
X142661904Y-105641808D01*
X142661904Y-105641808D02*
X142709523Y-105594189D01*
X142709523Y-105594189D02*
X142804761Y-105546570D01*
X142804761Y-105546570D02*
X142995237Y-105546570D01*
X142995237Y-105546570D02*
X143090475Y-105594189D01*
X143090475Y-105594189D02*
X143138094Y-105641808D01*
X143138094Y-105641808D02*
X143185713Y-105737046D01*
X162314283Y-70111009D02*
X161980950Y-70111009D01*
X161838093Y-70634819D02*
X162314283Y-70634819D01*
X162314283Y-70634819D02*
X162314283Y-69634819D01*
X162314283Y-69634819D02*
X161838093Y-69634819D01*
X160838093Y-70634819D02*
X161171426Y-70158628D01*
X161409521Y-70634819D02*
X161409521Y-69634819D01*
X161409521Y-69634819D02*
X161028569Y-69634819D01*
X161028569Y-69634819D02*
X160933331Y-69682438D01*
X160933331Y-69682438D02*
X160885712Y-69730057D01*
X160885712Y-69730057D02*
X160838093Y-69825295D01*
X160838093Y-69825295D02*
X160838093Y-69968152D01*
X160838093Y-69968152D02*
X160885712Y-70063390D01*
X160885712Y-70063390D02*
X160933331Y-70111009D01*
X160933331Y-70111009D02*
X161028569Y-70158628D01*
X161028569Y-70158628D02*
X161409521Y-70158628D01*
X143566666Y-108620380D02*
X143614285Y-108668000D01*
X143614285Y-108668000D02*
X143757142Y-108715619D01*
X143757142Y-108715619D02*
X143852380Y-108715619D01*
X143852380Y-108715619D02*
X143995237Y-108668000D01*
X143995237Y-108668000D02*
X144090475Y-108572761D01*
X144090475Y-108572761D02*
X144138094Y-108477523D01*
X144138094Y-108477523D02*
X144185713Y-108287047D01*
X144185713Y-108287047D02*
X144185713Y-108144190D01*
X144185713Y-108144190D02*
X144138094Y-107953714D01*
X144138094Y-107953714D02*
X144090475Y-107858476D01*
X144090475Y-107858476D02*
X143995237Y-107763238D01*
X143995237Y-107763238D02*
X143852380Y-107715619D01*
X143852380Y-107715619D02*
X143757142Y-107715619D01*
X143757142Y-107715619D02*
X143614285Y-107763238D01*
X143614285Y-107763238D02*
X143566666Y-107810857D01*
X143233332Y-107715619D02*
X142566666Y-107715619D01*
X142566666Y-107715619D02*
X142995237Y-108715619D01*
X143556667Y-65515619D02*
X143890000Y-65039428D01*
X144128095Y-65515619D02*
X144128095Y-64515619D01*
X144128095Y-64515619D02*
X143747143Y-64515619D01*
X143747143Y-64515619D02*
X143651905Y-64563238D01*
X143651905Y-64563238D02*
X143604286Y-64610857D01*
X143604286Y-64610857D02*
X143556667Y-64706095D01*
X143556667Y-64706095D02*
X143556667Y-64848952D01*
X143556667Y-64848952D02*
X143604286Y-64944190D01*
X143604286Y-64944190D02*
X143651905Y-64991809D01*
X143651905Y-64991809D02*
X143747143Y-65039428D01*
X143747143Y-65039428D02*
X144128095Y-65039428D01*
X142604286Y-65515619D02*
X143175714Y-65515619D01*
X142890000Y-65515619D02*
X142890000Y-64515619D01*
X142890000Y-64515619D02*
X142985238Y-64658476D01*
X142985238Y-64658476D02*
X143080476Y-64753714D01*
X143080476Y-64753714D02*
X143175714Y-64801333D01*
X162314285Y-85857199D02*
X162171428Y-85904818D01*
X162171428Y-85904818D02*
X161933333Y-85904818D01*
X161933333Y-85904818D02*
X161838095Y-85857199D01*
X161838095Y-85857199D02*
X161790476Y-85809579D01*
X161790476Y-85809579D02*
X161742857Y-85714341D01*
X161742857Y-85714341D02*
X161742857Y-85619103D01*
X161742857Y-85619103D02*
X161790476Y-85523865D01*
X161790476Y-85523865D02*
X161838095Y-85476246D01*
X161838095Y-85476246D02*
X161933333Y-85428627D01*
X161933333Y-85428627D02*
X162123809Y-85381008D01*
X162123809Y-85381008D02*
X162219047Y-85333389D01*
X162219047Y-85333389D02*
X162266666Y-85285770D01*
X162266666Y-85285770D02*
X162314285Y-85190532D01*
X162314285Y-85190532D02*
X162314285Y-85095294D01*
X162314285Y-85095294D02*
X162266666Y-85000056D01*
X162266666Y-85000056D02*
X162219047Y-84952437D01*
X162219047Y-84952437D02*
X162123809Y-84904818D01*
X162123809Y-84904818D02*
X161885714Y-84904818D01*
X161885714Y-84904818D02*
X161742857Y-84952437D01*
X161361904Y-85619103D02*
X160885714Y-85619103D01*
X161457142Y-85904818D02*
X161123809Y-84904818D01*
X161123809Y-84904818D02*
X160790476Y-85904818D01*
X141476666Y-100950381D02*
X141524285Y-100998001D01*
X141524285Y-100998001D02*
X141667142Y-101045620D01*
X141667142Y-101045620D02*
X141762380Y-101045620D01*
X141762380Y-101045620D02*
X141905237Y-100998001D01*
X141905237Y-100998001D02*
X142000475Y-100902762D01*
X142000475Y-100902762D02*
X142048094Y-100807524D01*
X142048094Y-100807524D02*
X142095713Y-100617048D01*
X142095713Y-100617048D02*
X142095713Y-100474191D01*
X142095713Y-100474191D02*
X142048094Y-100283715D01*
X142048094Y-100283715D02*
X142000475Y-100188477D01*
X142000475Y-100188477D02*
X141905237Y-100093239D01*
X141905237Y-100093239D02*
X141762380Y-100045620D01*
X141762380Y-100045620D02*
X141667142Y-100045620D01*
X141667142Y-100045620D02*
X141524285Y-100093239D01*
X141524285Y-100093239D02*
X141476666Y-100140858D01*
X140619523Y-100378953D02*
X140619523Y-101045620D01*
X140857618Y-99998001D02*
X141095713Y-100712286D01*
X141095713Y-100712286D02*
X140476666Y-100712286D01*
X142050750Y-62769104D02*
X141574560Y-62769104D01*
X142145988Y-63054819D02*
X141812655Y-62054819D01*
X141812655Y-62054819D02*
X141479322Y-63054819D01*
X140955512Y-62054819D02*
X140860274Y-62054819D01*
X140860274Y-62054819D02*
X140765036Y-62102438D01*
X140765036Y-62102438D02*
X140717417Y-62150057D01*
X140717417Y-62150057D02*
X140669798Y-62245295D01*
X140669798Y-62245295D02*
X140622179Y-62435771D01*
X140622179Y-62435771D02*
X140622179Y-62673866D01*
X140622179Y-62673866D02*
X140669798Y-62864342D01*
X140669798Y-62864342D02*
X140717417Y-62959580D01*
X140717417Y-62959580D02*
X140765036Y-63007200D01*
X140765036Y-63007200D02*
X140860274Y-63054819D01*
X140860274Y-63054819D02*
X140955512Y-63054819D01*
X140955512Y-63054819D02*
X141050750Y-63007200D01*
X141050750Y-63007200D02*
X141098369Y-62959580D01*
X141098369Y-62959580D02*
X141145988Y-62864342D01*
X141145988Y-62864342D02*
X141193607Y-62673866D01*
X141193607Y-62673866D02*
X141193607Y-62435771D01*
X141193607Y-62435771D02*
X141145988Y-62245295D01*
X141145988Y-62245295D02*
X141098369Y-62150057D01*
X141098369Y-62150057D02*
X141050750Y-62102438D01*
X141050750Y-62102438D02*
X140955512Y-62054819D01*
X162467140Y-80687200D02*
X162324283Y-80734819D01*
X162324283Y-80734819D02*
X162086188Y-80734819D01*
X162086188Y-80734819D02*
X161990950Y-80687200D01*
X161990950Y-80687200D02*
X161943331Y-80639580D01*
X161943331Y-80639580D02*
X161895712Y-80544342D01*
X161895712Y-80544342D02*
X161895712Y-80449104D01*
X161895712Y-80449104D02*
X161943331Y-80353866D01*
X161943331Y-80353866D02*
X161990950Y-80306247D01*
X161990950Y-80306247D02*
X162086188Y-80258628D01*
X162086188Y-80258628D02*
X162276664Y-80211009D01*
X162276664Y-80211009D02*
X162371902Y-80163390D01*
X162371902Y-80163390D02*
X162419521Y-80115771D01*
X162419521Y-80115771D02*
X162467140Y-80020533D01*
X162467140Y-80020533D02*
X162467140Y-79925295D01*
X162467140Y-79925295D02*
X162419521Y-79830057D01*
X162419521Y-79830057D02*
X162371902Y-79782438D01*
X162371902Y-79782438D02*
X162276664Y-79734819D01*
X162276664Y-79734819D02*
X162038569Y-79734819D01*
X162038569Y-79734819D02*
X161895712Y-79782438D01*
X161562378Y-79734819D02*
X161324283Y-80734819D01*
X161324283Y-80734819D02*
X161133807Y-80020533D01*
X161133807Y-80020533D02*
X160943331Y-80734819D01*
X160943331Y-80734819D02*
X160705236Y-79734819D01*
X142024285Y-77859903D02*
X141548095Y-77859903D01*
X142119523Y-78145618D02*
X141786190Y-77145618D01*
X141786190Y-77145618D02*
X141452857Y-78145618D01*
X140690952Y-77145618D02*
X140881428Y-77145618D01*
X140881428Y-77145618D02*
X140976666Y-77193237D01*
X140976666Y-77193237D02*
X141024285Y-77240856D01*
X141024285Y-77240856D02*
X141119523Y-77383713D01*
X141119523Y-77383713D02*
X141167142Y-77574189D01*
X141167142Y-77574189D02*
X141167142Y-77955141D01*
X141167142Y-77955141D02*
X141119523Y-78050379D01*
X141119523Y-78050379D02*
X141071904Y-78097999D01*
X141071904Y-78097999D02*
X140976666Y-78145618D01*
X140976666Y-78145618D02*
X140786190Y-78145618D01*
X140786190Y-78145618D02*
X140690952Y-78097999D01*
X140690952Y-78097999D02*
X140643333Y-78050379D01*
X140643333Y-78050379D02*
X140595714Y-77955141D01*
X140595714Y-77955141D02*
X140595714Y-77717046D01*
X140595714Y-77717046D02*
X140643333Y-77621808D01*
X140643333Y-77621808D02*
X140690952Y-77574189D01*
X140690952Y-77574189D02*
X140786190Y-77526570D01*
X140786190Y-77526570D02*
X140976666Y-77526570D01*
X140976666Y-77526570D02*
X141071904Y-77574189D01*
X141071904Y-77574189D02*
X141119523Y-77621808D01*
X141119523Y-77621808D02*
X141167142Y-77717046D01*
X141476666Y-106070379D02*
X141524285Y-106117999D01*
X141524285Y-106117999D02*
X141667142Y-106165618D01*
X141667142Y-106165618D02*
X141762380Y-106165618D01*
X141762380Y-106165618D02*
X141905237Y-106117999D01*
X141905237Y-106117999D02*
X142000475Y-106022760D01*
X142000475Y-106022760D02*
X142048094Y-105927522D01*
X142048094Y-105927522D02*
X142095713Y-105737046D01*
X142095713Y-105737046D02*
X142095713Y-105594189D01*
X142095713Y-105594189D02*
X142048094Y-105403713D01*
X142048094Y-105403713D02*
X142000475Y-105308475D01*
X142000475Y-105308475D02*
X141905237Y-105213237D01*
X141905237Y-105213237D02*
X141762380Y-105165618D01*
X141762380Y-105165618D02*
X141667142Y-105165618D01*
X141667142Y-105165618D02*
X141524285Y-105213237D01*
X141524285Y-105213237D02*
X141476666Y-105260856D01*
X140619523Y-105165618D02*
X140809999Y-105165618D01*
X140809999Y-105165618D02*
X140905237Y-105213237D01*
X140905237Y-105213237D02*
X140952856Y-105260856D01*
X140952856Y-105260856D02*
X141048094Y-105403713D01*
X141048094Y-105403713D02*
X141095713Y-105594189D01*
X141095713Y-105594189D02*
X141095713Y-105975141D01*
X141095713Y-105975141D02*
X141048094Y-106070379D01*
X141048094Y-106070379D02*
X141000475Y-106117999D01*
X141000475Y-106117999D02*
X140905237Y-106165618D01*
X140905237Y-106165618D02*
X140714761Y-106165618D01*
X140714761Y-106165618D02*
X140619523Y-106117999D01*
X140619523Y-106117999D02*
X140571904Y-106070379D01*
X140571904Y-106070379D02*
X140524285Y-105975141D01*
X140524285Y-105975141D02*
X140524285Y-105737046D01*
X140524285Y-105737046D02*
X140571904Y-105641808D01*
X140571904Y-105641808D02*
X140619523Y-105594189D01*
X140619523Y-105594189D02*
X140714761Y-105546570D01*
X140714761Y-105546570D02*
X140905237Y-105546570D01*
X140905237Y-105546570D02*
X141000475Y-105594189D01*
X141000475Y-105594189D02*
X141048094Y-105641808D01*
X141048094Y-105641808D02*
X141095713Y-105737046D01*
X143556665Y-95910381D02*
X143604284Y-95958001D01*
X143604284Y-95958001D02*
X143747141Y-96005620D01*
X143747141Y-96005620D02*
X143842379Y-96005620D01*
X143842379Y-96005620D02*
X143985236Y-95958001D01*
X143985236Y-95958001D02*
X144080474Y-95862762D01*
X144080474Y-95862762D02*
X144128093Y-95767524D01*
X144128093Y-95767524D02*
X144175712Y-95577048D01*
X144175712Y-95577048D02*
X144175712Y-95434191D01*
X144175712Y-95434191D02*
X144128093Y-95243715D01*
X144128093Y-95243715D02*
X144080474Y-95148477D01*
X144080474Y-95148477D02*
X143985236Y-95053239D01*
X143985236Y-95053239D02*
X143842379Y-95005620D01*
X143842379Y-95005620D02*
X143747141Y-95005620D01*
X143747141Y-95005620D02*
X143604284Y-95053239D01*
X143604284Y-95053239D02*
X143556665Y-95100858D01*
X143175712Y-95100858D02*
X143128093Y-95053239D01*
X143128093Y-95053239D02*
X143032855Y-95005620D01*
X143032855Y-95005620D02*
X142794760Y-95005620D01*
X142794760Y-95005620D02*
X142699522Y-95053239D01*
X142699522Y-95053239D02*
X142651903Y-95100858D01*
X142651903Y-95100858D02*
X142604284Y-95196096D01*
X142604284Y-95196096D02*
X142604284Y-95291334D01*
X142604284Y-95291334D02*
X142651903Y-95434191D01*
X142651903Y-95434191D02*
X143223331Y-96005620D01*
X143223331Y-96005620D02*
X142604284Y-96005620D01*
X141466665Y-93360380D02*
X141514284Y-93408000D01*
X141514284Y-93408000D02*
X141657141Y-93455619D01*
X141657141Y-93455619D02*
X141752379Y-93455619D01*
X141752379Y-93455619D02*
X141895236Y-93408000D01*
X141895236Y-93408000D02*
X141990474Y-93312761D01*
X141990474Y-93312761D02*
X142038093Y-93217523D01*
X142038093Y-93217523D02*
X142085712Y-93027047D01*
X142085712Y-93027047D02*
X142085712Y-92884190D01*
X142085712Y-92884190D02*
X142038093Y-92693714D01*
X142038093Y-92693714D02*
X141990474Y-92598476D01*
X141990474Y-92598476D02*
X141895236Y-92503238D01*
X141895236Y-92503238D02*
X141752379Y-92455619D01*
X141752379Y-92455619D02*
X141657141Y-92455619D01*
X141657141Y-92455619D02*
X141514284Y-92503238D01*
X141514284Y-92503238D02*
X141466665Y-92550857D01*
X140514284Y-93455619D02*
X141085712Y-93455619D01*
X140799998Y-93455619D02*
X140799998Y-92455619D01*
X140799998Y-92455619D02*
X140895236Y-92598476D01*
X140895236Y-92598476D02*
X140990474Y-92693714D01*
X140990474Y-92693714D02*
X141085712Y-92741333D01*
X143556665Y-70595619D02*
X143889998Y-70119428D01*
X144128093Y-70595619D02*
X144128093Y-69595619D01*
X144128093Y-69595619D02*
X143747141Y-69595619D01*
X143747141Y-69595619D02*
X143651903Y-69643238D01*
X143651903Y-69643238D02*
X143604284Y-69690857D01*
X143604284Y-69690857D02*
X143556665Y-69786095D01*
X143556665Y-69786095D02*
X143556665Y-69928952D01*
X143556665Y-69928952D02*
X143604284Y-70024190D01*
X143604284Y-70024190D02*
X143651903Y-70071809D01*
X143651903Y-70071809D02*
X143747141Y-70119428D01*
X143747141Y-70119428D02*
X144128093Y-70119428D01*
X143223331Y-69595619D02*
X142604284Y-69595619D01*
X142604284Y-69595619D02*
X142937617Y-69976571D01*
X142937617Y-69976571D02*
X142794760Y-69976571D01*
X142794760Y-69976571D02*
X142699522Y-70024190D01*
X142699522Y-70024190D02*
X142651903Y-70071809D01*
X142651903Y-70071809D02*
X142604284Y-70167047D01*
X142604284Y-70167047D02*
X142604284Y-70405142D01*
X142604284Y-70405142D02*
X142651903Y-70500380D01*
X142651903Y-70500380D02*
X142699522Y-70548000D01*
X142699522Y-70548000D02*
X142794760Y-70595619D01*
X142794760Y-70595619D02*
X143080474Y-70595619D01*
X143080474Y-70595619D02*
X143175712Y-70548000D01*
X143175712Y-70548000D02*
X143223331Y-70500380D01*
X142024285Y-80409904D02*
X141548095Y-80409904D01*
X142119523Y-80695619D02*
X141786190Y-79695619D01*
X141786190Y-79695619D02*
X141452857Y-80695619D01*
X141214761Y-79695619D02*
X140548095Y-79695619D01*
X140548095Y-79695619D02*
X140976666Y-80695619D01*
X141466665Y-90850380D02*
X141514284Y-90898000D01*
X141514284Y-90898000D02*
X141657141Y-90945619D01*
X141657141Y-90945619D02*
X141752379Y-90945619D01*
X141752379Y-90945619D02*
X141895236Y-90898000D01*
X141895236Y-90898000D02*
X141990474Y-90802761D01*
X141990474Y-90802761D02*
X142038093Y-90707523D01*
X142038093Y-90707523D02*
X142085712Y-90517047D01*
X142085712Y-90517047D02*
X142085712Y-90374190D01*
X142085712Y-90374190D02*
X142038093Y-90183714D01*
X142038093Y-90183714D02*
X141990474Y-90088476D01*
X141990474Y-90088476D02*
X141895236Y-89993238D01*
X141895236Y-89993238D02*
X141752379Y-89945619D01*
X141752379Y-89945619D02*
X141657141Y-89945619D01*
X141657141Y-89945619D02*
X141514284Y-89993238D01*
X141514284Y-89993238D02*
X141466665Y-90040857D01*
X140847617Y-89945619D02*
X140752379Y-89945619D01*
X140752379Y-89945619D02*
X140657141Y-89993238D01*
X140657141Y-89993238D02*
X140609522Y-90040857D01*
X140609522Y-90040857D02*
X140561903Y-90136095D01*
X140561903Y-90136095D02*
X140514284Y-90326571D01*
X140514284Y-90326571D02*
X140514284Y-90564666D01*
X140514284Y-90564666D02*
X140561903Y-90755142D01*
X140561903Y-90755142D02*
X140609522Y-90850380D01*
X140609522Y-90850380D02*
X140657141Y-90898000D01*
X140657141Y-90898000D02*
X140752379Y-90945619D01*
X140752379Y-90945619D02*
X140847617Y-90945619D01*
X140847617Y-90945619D02*
X140942855Y-90898000D01*
X140942855Y-90898000D02*
X140990474Y-90850380D01*
X140990474Y-90850380D02*
X141038093Y-90755142D01*
X141038093Y-90755142D02*
X141085712Y-90564666D01*
X141085712Y-90564666D02*
X141085712Y-90326571D01*
X141085712Y-90326571D02*
X141038093Y-90136095D01*
X141038093Y-90136095D02*
X140990474Y-90040857D01*
X140990474Y-90040857D02*
X140942855Y-89993238D01*
X140942855Y-89993238D02*
X140847617Y-89945619D01*
X142014284Y-70309904D02*
X141538094Y-70309904D01*
X142109522Y-70595619D02*
X141776189Y-69595619D01*
X141776189Y-69595619D02*
X141442856Y-70595619D01*
X141204760Y-69595619D02*
X140585713Y-69595619D01*
X140585713Y-69595619D02*
X140919046Y-69976571D01*
X140919046Y-69976571D02*
X140776189Y-69976571D01*
X140776189Y-69976571D02*
X140680951Y-70024190D01*
X140680951Y-70024190D02*
X140633332Y-70071809D01*
X140633332Y-70071809D02*
X140585713Y-70167047D01*
X140585713Y-70167047D02*
X140585713Y-70405142D01*
X140585713Y-70405142D02*
X140633332Y-70500380D01*
X140633332Y-70500380D02*
X140680951Y-70548000D01*
X140680951Y-70548000D02*
X140776189Y-70595619D01*
X140776189Y-70595619D02*
X141061903Y-70595619D01*
X141061903Y-70595619D02*
X141157141Y-70548000D01*
X141157141Y-70548000D02*
X141204760Y-70500380D01*
X158866666Y-106204818D02*
X159199999Y-105728627D01*
X159438094Y-106204818D02*
X159438094Y-105204818D01*
X159438094Y-105204818D02*
X159057142Y-105204818D01*
X159057142Y-105204818D02*
X158961904Y-105252437D01*
X158961904Y-105252437D02*
X158914285Y-105300056D01*
X158914285Y-105300056D02*
X158866666Y-105395294D01*
X158866666Y-105395294D02*
X158866666Y-105538151D01*
X158866666Y-105538151D02*
X158914285Y-105633389D01*
X158914285Y-105633389D02*
X158961904Y-105681008D01*
X158961904Y-105681008D02*
X159057142Y-105728627D01*
X159057142Y-105728627D02*
X159438094Y-105728627D01*
X158009523Y-105204818D02*
X158199999Y-105204818D01*
X158199999Y-105204818D02*
X158295237Y-105252437D01*
X158295237Y-105252437D02*
X158342856Y-105300056D01*
X158342856Y-105300056D02*
X158438094Y-105442913D01*
X158438094Y-105442913D02*
X158485713Y-105633389D01*
X158485713Y-105633389D02*
X158485713Y-106014341D01*
X158485713Y-106014341D02*
X158438094Y-106109579D01*
X158438094Y-106109579D02*
X158390475Y-106157199D01*
X158390475Y-106157199D02*
X158295237Y-106204818D01*
X158295237Y-106204818D02*
X158104761Y-106204818D01*
X158104761Y-106204818D02*
X158009523Y-106157199D01*
X158009523Y-106157199D02*
X157961904Y-106109579D01*
X157961904Y-106109579D02*
X157914285Y-106014341D01*
X157914285Y-106014341D02*
X157914285Y-105776246D01*
X157914285Y-105776246D02*
X157961904Y-105681008D01*
X157961904Y-105681008D02*
X158009523Y-105633389D01*
X158009523Y-105633389D02*
X158104761Y-105585770D01*
X158104761Y-105585770D02*
X158295237Y-105585770D01*
X158295237Y-105585770D02*
X158390475Y-105633389D01*
X158390475Y-105633389D02*
X158438094Y-105681008D01*
X158438094Y-105681008D02*
X158485713Y-105776246D01*
X143556665Y-90850380D02*
X143604284Y-90898000D01*
X143604284Y-90898000D02*
X143747141Y-90945619D01*
X143747141Y-90945619D02*
X143842379Y-90945619D01*
X143842379Y-90945619D02*
X143985236Y-90898000D01*
X143985236Y-90898000D02*
X144080474Y-90802761D01*
X144080474Y-90802761D02*
X144128093Y-90707523D01*
X144128093Y-90707523D02*
X144175712Y-90517047D01*
X144175712Y-90517047D02*
X144175712Y-90374190D01*
X144175712Y-90374190D02*
X144128093Y-90183714D01*
X144128093Y-90183714D02*
X144080474Y-90088476D01*
X144080474Y-90088476D02*
X143985236Y-89993238D01*
X143985236Y-89993238D02*
X143842379Y-89945619D01*
X143842379Y-89945619D02*
X143747141Y-89945619D01*
X143747141Y-89945619D02*
X143604284Y-89993238D01*
X143604284Y-89993238D02*
X143556665Y-90040857D01*
X142937617Y-89945619D02*
X142842379Y-89945619D01*
X142842379Y-89945619D02*
X142747141Y-89993238D01*
X142747141Y-89993238D02*
X142699522Y-90040857D01*
X142699522Y-90040857D02*
X142651903Y-90136095D01*
X142651903Y-90136095D02*
X142604284Y-90326571D01*
X142604284Y-90326571D02*
X142604284Y-90564666D01*
X142604284Y-90564666D02*
X142651903Y-90755142D01*
X142651903Y-90755142D02*
X142699522Y-90850380D01*
X142699522Y-90850380D02*
X142747141Y-90898000D01*
X142747141Y-90898000D02*
X142842379Y-90945619D01*
X142842379Y-90945619D02*
X142937617Y-90945619D01*
X142937617Y-90945619D02*
X143032855Y-90898000D01*
X143032855Y-90898000D02*
X143080474Y-90850380D01*
X143080474Y-90850380D02*
X143128093Y-90755142D01*
X143128093Y-90755142D02*
X143175712Y-90564666D01*
X143175712Y-90564666D02*
X143175712Y-90326571D01*
X143175712Y-90326571D02*
X143128093Y-90136095D01*
X143128093Y-90136095D02*
X143080474Y-90040857D01*
X143080474Y-90040857D02*
X143032855Y-89993238D01*
X143032855Y-89993238D02*
X142937617Y-89945619D01*
X158856665Y-103714820D02*
X159189998Y-103238629D01*
X159428093Y-103714820D02*
X159428093Y-102714820D01*
X159428093Y-102714820D02*
X159047141Y-102714820D01*
X159047141Y-102714820D02*
X158951903Y-102762439D01*
X158951903Y-102762439D02*
X158904284Y-102810058D01*
X158904284Y-102810058D02*
X158856665Y-102905296D01*
X158856665Y-102905296D02*
X158856665Y-103048153D01*
X158856665Y-103048153D02*
X158904284Y-103143391D01*
X158904284Y-103143391D02*
X158951903Y-103191010D01*
X158951903Y-103191010D02*
X159047141Y-103238629D01*
X159047141Y-103238629D02*
X159428093Y-103238629D01*
X157951903Y-102714820D02*
X158428093Y-102714820D01*
X158428093Y-102714820D02*
X158475712Y-103191010D01*
X158475712Y-103191010D02*
X158428093Y-103143391D01*
X158428093Y-103143391D02*
X158332855Y-103095772D01*
X158332855Y-103095772D02*
X158094760Y-103095772D01*
X158094760Y-103095772D02*
X157999522Y-103143391D01*
X157999522Y-103143391D02*
X157951903Y-103191010D01*
X157951903Y-103191010D02*
X157904284Y-103286248D01*
X157904284Y-103286248D02*
X157904284Y-103524343D01*
X157904284Y-103524343D02*
X157951903Y-103619581D01*
X157951903Y-103619581D02*
X157999522Y-103667201D01*
X157999522Y-103667201D02*
X158094760Y-103714820D01*
X158094760Y-103714820D02*
X158332855Y-103714820D01*
X158332855Y-103714820D02*
X158428093Y-103667201D01*
X158428093Y-103667201D02*
X158475712Y-103619581D01*
X158856665Y-101164819D02*
X159189998Y-100688628D01*
X159428093Y-101164819D02*
X159428093Y-100164819D01*
X159428093Y-100164819D02*
X159047141Y-100164819D01*
X159047141Y-100164819D02*
X158951903Y-100212438D01*
X158951903Y-100212438D02*
X158904284Y-100260057D01*
X158904284Y-100260057D02*
X158856665Y-100355295D01*
X158856665Y-100355295D02*
X158856665Y-100498152D01*
X158856665Y-100498152D02*
X158904284Y-100593390D01*
X158904284Y-100593390D02*
X158951903Y-100641009D01*
X158951903Y-100641009D02*
X159047141Y-100688628D01*
X159047141Y-100688628D02*
X159428093Y-100688628D01*
X157999522Y-100498152D02*
X157999522Y-101164819D01*
X158237617Y-100117200D02*
X158475712Y-100831485D01*
X158475712Y-100831485D02*
X157856665Y-100831485D01*
X143556666Y-73105619D02*
X143889999Y-72629428D01*
X144128094Y-73105619D02*
X144128094Y-72105619D01*
X144128094Y-72105619D02*
X143747142Y-72105619D01*
X143747142Y-72105619D02*
X143651904Y-72153238D01*
X143651904Y-72153238D02*
X143604285Y-72200857D01*
X143604285Y-72200857D02*
X143556666Y-72296095D01*
X143556666Y-72296095D02*
X143556666Y-72438952D01*
X143556666Y-72438952D02*
X143604285Y-72534190D01*
X143604285Y-72534190D02*
X143651904Y-72581809D01*
X143651904Y-72581809D02*
X143747142Y-72629428D01*
X143747142Y-72629428D02*
X144128094Y-72629428D01*
X142699523Y-72438952D02*
X142699523Y-73105619D01*
X142937618Y-72058000D02*
X143175713Y-72772285D01*
X143175713Y-72772285D02*
X142556666Y-72772285D01*
X143128096Y-84913238D02*
X143223334Y-84865619D01*
X143223334Y-84865619D02*
X143366191Y-84865619D01*
X143366191Y-84865619D02*
X143509048Y-84913238D01*
X143509048Y-84913238D02*
X143604286Y-85008476D01*
X143604286Y-85008476D02*
X143651905Y-85103714D01*
X143651905Y-85103714D02*
X143699524Y-85294190D01*
X143699524Y-85294190D02*
X143699524Y-85437047D01*
X143699524Y-85437047D02*
X143651905Y-85627523D01*
X143651905Y-85627523D02*
X143604286Y-85722761D01*
X143604286Y-85722761D02*
X143509048Y-85818000D01*
X143509048Y-85818000D02*
X143366191Y-85865619D01*
X143366191Y-85865619D02*
X143270953Y-85865619D01*
X143270953Y-85865619D02*
X143128096Y-85818000D01*
X143128096Y-85818000D02*
X143080477Y-85770380D01*
X143080477Y-85770380D02*
X143080477Y-85437047D01*
X143080477Y-85437047D02*
X143270953Y-85437047D01*
X143556666Y-75655620D02*
X143889999Y-75179429D01*
X144128094Y-75655620D02*
X144128094Y-74655620D01*
X144128094Y-74655620D02*
X143747142Y-74655620D01*
X143747142Y-74655620D02*
X143651904Y-74703239D01*
X143651904Y-74703239D02*
X143604285Y-74750858D01*
X143604285Y-74750858D02*
X143556666Y-74846096D01*
X143556666Y-74846096D02*
X143556666Y-74988953D01*
X143556666Y-74988953D02*
X143604285Y-75084191D01*
X143604285Y-75084191D02*
X143651904Y-75131810D01*
X143651904Y-75131810D02*
X143747142Y-75179429D01*
X143747142Y-75179429D02*
X144128094Y-75179429D01*
X142651904Y-74655620D02*
X143128094Y-74655620D01*
X143128094Y-74655620D02*
X143175713Y-75131810D01*
X143175713Y-75131810D02*
X143128094Y-75084191D01*
X143128094Y-75084191D02*
X143032856Y-75036572D01*
X143032856Y-75036572D02*
X142794761Y-75036572D01*
X142794761Y-75036572D02*
X142699523Y-75084191D01*
X142699523Y-75084191D02*
X142651904Y-75131810D01*
X142651904Y-75131810D02*
X142604285Y-75227048D01*
X142604285Y-75227048D02*
X142604285Y-75465143D01*
X142604285Y-75465143D02*
X142651904Y-75560381D01*
X142651904Y-75560381D02*
X142699523Y-75608001D01*
X142699523Y-75608001D02*
X142794761Y-75655620D01*
X142794761Y-75655620D02*
X143032856Y-75655620D01*
X143032856Y-75655620D02*
X143128094Y-75608001D01*
X143128094Y-75608001D02*
X143175713Y-75560381D01*
X141038096Y-84913238D02*
X141133334Y-84865619D01*
X141133334Y-84865619D02*
X141276191Y-84865619D01*
X141276191Y-84865619D02*
X141419048Y-84913238D01*
X141419048Y-84913238D02*
X141514286Y-85008476D01*
X141514286Y-85008476D02*
X141561905Y-85103714D01*
X141561905Y-85103714D02*
X141609524Y-85294190D01*
X141609524Y-85294190D02*
X141609524Y-85437047D01*
X141609524Y-85437047D02*
X141561905Y-85627523D01*
X141561905Y-85627523D02*
X141514286Y-85722761D01*
X141514286Y-85722761D02*
X141419048Y-85818000D01*
X141419048Y-85818000D02*
X141276191Y-85865619D01*
X141276191Y-85865619D02*
X141180953Y-85865619D01*
X141180953Y-85865619D02*
X141038096Y-85818000D01*
X141038096Y-85818000D02*
X140990477Y-85770380D01*
X140990477Y-85770380D02*
X140990477Y-85437047D01*
X140990477Y-85437047D02*
X141180953Y-85437047D01*
X143556665Y-93360380D02*
X143604284Y-93408000D01*
X143604284Y-93408000D02*
X143747141Y-93455619D01*
X143747141Y-93455619D02*
X143842379Y-93455619D01*
X143842379Y-93455619D02*
X143985236Y-93408000D01*
X143985236Y-93408000D02*
X144080474Y-93312761D01*
X144080474Y-93312761D02*
X144128093Y-93217523D01*
X144128093Y-93217523D02*
X144175712Y-93027047D01*
X144175712Y-93027047D02*
X144175712Y-92884190D01*
X144175712Y-92884190D02*
X144128093Y-92693714D01*
X144128093Y-92693714D02*
X144080474Y-92598476D01*
X144080474Y-92598476D02*
X143985236Y-92503238D01*
X143985236Y-92503238D02*
X143842379Y-92455619D01*
X143842379Y-92455619D02*
X143747141Y-92455619D01*
X143747141Y-92455619D02*
X143604284Y-92503238D01*
X143604284Y-92503238D02*
X143556665Y-92550857D01*
X142604284Y-93455619D02*
X143175712Y-93455619D01*
X142889998Y-93455619D02*
X142889998Y-92455619D01*
X142889998Y-92455619D02*
X142985236Y-92598476D01*
X142985236Y-92598476D02*
X143080474Y-92693714D01*
X143080474Y-92693714D02*
X143175712Y-92741333D01*
X158856667Y-93574818D02*
X159190000Y-93098627D01*
X159428095Y-93574818D02*
X159428095Y-92574818D01*
X159428095Y-92574818D02*
X159047143Y-92574818D01*
X159047143Y-92574818D02*
X158951905Y-92622437D01*
X158951905Y-92622437D02*
X158904286Y-92670056D01*
X158904286Y-92670056D02*
X158856667Y-92765294D01*
X158856667Y-92765294D02*
X158856667Y-92908151D01*
X158856667Y-92908151D02*
X158904286Y-93003389D01*
X158904286Y-93003389D02*
X158951905Y-93051008D01*
X158951905Y-93051008D02*
X159047143Y-93098627D01*
X159047143Y-93098627D02*
X159428095Y-93098627D01*
X157904286Y-93574818D02*
X158475714Y-93574818D01*
X158190000Y-93574818D02*
X158190000Y-92574818D01*
X158190000Y-92574818D02*
X158285238Y-92717675D01*
X158285238Y-92717675D02*
X158380476Y-92812913D01*
X158380476Y-92812913D02*
X158475714Y-92860532D01*
X143566666Y-78145618D02*
X143899999Y-77669427D01*
X144138094Y-78145618D02*
X144138094Y-77145618D01*
X144138094Y-77145618D02*
X143757142Y-77145618D01*
X143757142Y-77145618D02*
X143661904Y-77193237D01*
X143661904Y-77193237D02*
X143614285Y-77240856D01*
X143614285Y-77240856D02*
X143566666Y-77336094D01*
X143566666Y-77336094D02*
X143566666Y-77478951D01*
X143566666Y-77478951D02*
X143614285Y-77574189D01*
X143614285Y-77574189D02*
X143661904Y-77621808D01*
X143661904Y-77621808D02*
X143757142Y-77669427D01*
X143757142Y-77669427D02*
X144138094Y-77669427D01*
X142709523Y-77145618D02*
X142899999Y-77145618D01*
X142899999Y-77145618D02*
X142995237Y-77193237D01*
X142995237Y-77193237D02*
X143042856Y-77240856D01*
X143042856Y-77240856D02*
X143138094Y-77383713D01*
X143138094Y-77383713D02*
X143185713Y-77574189D01*
X143185713Y-77574189D02*
X143185713Y-77955141D01*
X143185713Y-77955141D02*
X143138094Y-78050379D01*
X143138094Y-78050379D02*
X143090475Y-78097999D01*
X143090475Y-78097999D02*
X142995237Y-78145618D01*
X142995237Y-78145618D02*
X142804761Y-78145618D01*
X142804761Y-78145618D02*
X142709523Y-78097999D01*
X142709523Y-78097999D02*
X142661904Y-78050379D01*
X142661904Y-78050379D02*
X142614285Y-77955141D01*
X142614285Y-77955141D02*
X142614285Y-77717046D01*
X142614285Y-77717046D02*
X142661904Y-77621808D01*
X142661904Y-77621808D02*
X142709523Y-77574189D01*
X142709523Y-77574189D02*
X142804761Y-77526570D01*
X142804761Y-77526570D02*
X142995237Y-77526570D01*
X142995237Y-77526570D02*
X143090475Y-77574189D01*
X143090475Y-77574189D02*
X143138094Y-77621808D01*
X143138094Y-77621808D02*
X143185713Y-77717046D01*
X151440124Y-75261904D02*
X152440124Y-75261904D01*
X152440124Y-74595238D02*
X152440124Y-74404762D01*
X152440124Y-74404762D02*
X152392505Y-74309524D01*
X152392505Y-74309524D02*
X152297267Y-74214286D01*
X152297267Y-74214286D02*
X152106791Y-74166667D01*
X152106791Y-74166667D02*
X151773458Y-74166667D01*
X151773458Y-74166667D02*
X151582982Y-74214286D01*
X151582982Y-74214286D02*
X151487744Y-74309524D01*
X151487744Y-74309524D02*
X151440124Y-74404762D01*
X151440124Y-74404762D02*
X151440124Y-74595238D01*
X151440124Y-74595238D02*
X151487744Y-74690476D01*
X151487744Y-74690476D02*
X151582982Y-74785714D01*
X151582982Y-74785714D02*
X151773458Y-74833333D01*
X151773458Y-74833333D02*
X152106791Y-74833333D01*
X152106791Y-74833333D02*
X152297267Y-74785714D01*
X152297267Y-74785714D02*
X152392505Y-74690476D01*
X152392505Y-74690476D02*
X152440124Y-74595238D01*
X152440124Y-73880952D02*
X152440124Y-73309524D01*
X151440124Y-73595238D02*
X152440124Y-73595238D01*
X151344886Y-73214286D02*
X151344886Y-72452381D01*
X151440124Y-72214285D02*
X152440124Y-72214285D01*
X152440124Y-72214285D02*
X151725839Y-71880952D01*
X151725839Y-71880952D02*
X152440124Y-71547619D01*
X152440124Y-71547619D02*
X151440124Y-71547619D01*
X151487744Y-70690476D02*
X151440124Y-70785714D01*
X151440124Y-70785714D02*
X151440124Y-70976190D01*
X151440124Y-70976190D02*
X151487744Y-71071428D01*
X151487744Y-71071428D02*
X151582982Y-71119047D01*
X151582982Y-71119047D02*
X151963934Y-71119047D01*
X151963934Y-71119047D02*
X152059172Y-71071428D01*
X152059172Y-71071428D02*
X152106791Y-70976190D01*
X152106791Y-70976190D02*
X152106791Y-70785714D01*
X152106791Y-70785714D02*
X152059172Y-70690476D01*
X152059172Y-70690476D02*
X151963934Y-70642857D01*
X151963934Y-70642857D02*
X151868696Y-70642857D01*
X151868696Y-70642857D02*
X151773458Y-71119047D01*
X151487744Y-70261904D02*
X151440124Y-70166666D01*
X151440124Y-70166666D02*
X151440124Y-69976190D01*
X151440124Y-69976190D02*
X151487744Y-69880952D01*
X151487744Y-69880952D02*
X151582982Y-69833333D01*
X151582982Y-69833333D02*
X151630601Y-69833333D01*
X151630601Y-69833333D02*
X151725839Y-69880952D01*
X151725839Y-69880952D02*
X151773458Y-69976190D01*
X151773458Y-69976190D02*
X151773458Y-70119047D01*
X151773458Y-70119047D02*
X151821077Y-70214285D01*
X151821077Y-70214285D02*
X151916315Y-70261904D01*
X151916315Y-70261904D02*
X151963934Y-70261904D01*
X151963934Y-70261904D02*
X152059172Y-70214285D01*
X152059172Y-70214285D02*
X152106791Y-70119047D01*
X152106791Y-70119047D02*
X152106791Y-69976190D01*
X152106791Y-69976190D02*
X152059172Y-69880952D01*
X151487744Y-69452380D02*
X151440124Y-69357142D01*
X151440124Y-69357142D02*
X151440124Y-69166666D01*
X151440124Y-69166666D02*
X151487744Y-69071428D01*
X151487744Y-69071428D02*
X151582982Y-69023809D01*
X151582982Y-69023809D02*
X151630601Y-69023809D01*
X151630601Y-69023809D02*
X151725839Y-69071428D01*
X151725839Y-69071428D02*
X151773458Y-69166666D01*
X151773458Y-69166666D02*
X151773458Y-69309523D01*
X151773458Y-69309523D02*
X151821077Y-69404761D01*
X151821077Y-69404761D02*
X151916315Y-69452380D01*
X151916315Y-69452380D02*
X151963934Y-69452380D01*
X151963934Y-69452380D02*
X152059172Y-69404761D01*
X152059172Y-69404761D02*
X152106791Y-69309523D01*
X152106791Y-69309523D02*
X152106791Y-69166666D01*
X152106791Y-69166666D02*
X152059172Y-69071428D01*
X151440124Y-67357142D02*
X151440124Y-67833332D01*
X151440124Y-67833332D02*
X152440124Y-67833332D01*
X151963934Y-67023808D02*
X151963934Y-66690475D01*
X151440124Y-66547618D02*
X151440124Y-67023808D01*
X151440124Y-67023808D02*
X152440124Y-67023808D01*
X152440124Y-67023808D02*
X152440124Y-66547618D01*
X151440124Y-66119046D02*
X152440124Y-66119046D01*
X152440124Y-66119046D02*
X152440124Y-65880951D01*
X152440124Y-65880951D02*
X152392505Y-65738094D01*
X152392505Y-65738094D02*
X152297267Y-65642856D01*
X152297267Y-65642856D02*
X152202029Y-65595237D01*
X152202029Y-65595237D02*
X152011553Y-65547618D01*
X152011553Y-65547618D02*
X151868696Y-65547618D01*
X151868696Y-65547618D02*
X151678220Y-65595237D01*
X151678220Y-65595237D02*
X151582982Y-65642856D01*
X151582982Y-65642856D02*
X151487744Y-65738094D01*
X151487744Y-65738094D02*
X151440124Y-65880951D01*
X151440124Y-65880951D02*
X151440124Y-66119046D01*
X152440124Y-64642856D02*
X152440124Y-65119046D01*
X152440124Y-65119046D02*
X151963934Y-65166665D01*
X151963934Y-65166665D02*
X152011553Y-65119046D01*
X152011553Y-65119046D02*
X152059172Y-65023808D01*
X152059172Y-65023808D02*
X152059172Y-64785713D01*
X152059172Y-64785713D02*
X152011553Y-64690475D01*
X152011553Y-64690475D02*
X151963934Y-64642856D01*
X151963934Y-64642856D02*
X151868696Y-64595237D01*
X151868696Y-64595237D02*
X151630601Y-64595237D01*
X151630601Y-64595237D02*
X151535363Y-64642856D01*
X151535363Y-64642856D02*
X151487744Y-64690475D01*
X151487744Y-64690475D02*
X151440124Y-64785713D01*
X151440124Y-64785713D02*
X151440124Y-65023808D01*
X151440124Y-65023808D02*
X151487744Y-65119046D01*
X151487744Y-65119046D02*
X151535363Y-65166665D01*
X151440124Y-64119046D02*
X151440124Y-63928570D01*
X151440124Y-63928570D02*
X151487744Y-63833332D01*
X151487744Y-63833332D02*
X151535363Y-63785713D01*
X151535363Y-63785713D02*
X151678220Y-63690475D01*
X151678220Y-63690475D02*
X151868696Y-63642856D01*
X151868696Y-63642856D02*
X152249648Y-63642856D01*
X152249648Y-63642856D02*
X152344886Y-63690475D01*
X152344886Y-63690475D02*
X152392505Y-63738094D01*
X152392505Y-63738094D02*
X152440124Y-63833332D01*
X152440124Y-63833332D02*
X152440124Y-64023808D01*
X152440124Y-64023808D02*
X152392505Y-64119046D01*
X152392505Y-64119046D02*
X152344886Y-64166665D01*
X152344886Y-64166665D02*
X152249648Y-64214284D01*
X152249648Y-64214284D02*
X152011553Y-64214284D01*
X152011553Y-64214284D02*
X151916315Y-64166665D01*
X151916315Y-64166665D02*
X151868696Y-64119046D01*
X151868696Y-64119046D02*
X151821077Y-64023808D01*
X151821077Y-64023808D02*
X151821077Y-63833332D01*
X151821077Y-63833332D02*
X151868696Y-63738094D01*
X151868696Y-63738094D02*
X151916315Y-63690475D01*
X151916315Y-63690475D02*
X152011553Y-63642856D01*
X152440124Y-62738094D02*
X152440124Y-63214284D01*
X152440124Y-63214284D02*
X151963934Y-63261903D01*
X151963934Y-63261903D02*
X152011553Y-63214284D01*
X152011553Y-63214284D02*
X152059172Y-63119046D01*
X152059172Y-63119046D02*
X152059172Y-62880951D01*
X152059172Y-62880951D02*
X152011553Y-62785713D01*
X152011553Y-62785713D02*
X151963934Y-62738094D01*
X151963934Y-62738094D02*
X151868696Y-62690475D01*
X151868696Y-62690475D02*
X151630601Y-62690475D01*
X151630601Y-62690475D02*
X151535363Y-62738094D01*
X151535363Y-62738094D02*
X151487744Y-62785713D01*
X151487744Y-62785713D02*
X151440124Y-62880951D01*
X151440124Y-62880951D02*
X151440124Y-63119046D01*
X151440124Y-63119046D02*
X151487744Y-63214284D01*
X151487744Y-63214284D02*
X151535363Y-63261903D01*
X150830180Y-74333332D02*
X149830180Y-73999999D01*
X149830180Y-73999999D02*
X150830180Y-73666666D01*
X150734942Y-73380951D02*
X150782561Y-73333332D01*
X150782561Y-73333332D02*
X150830180Y-73238094D01*
X150830180Y-73238094D02*
X150830180Y-72999999D01*
X150830180Y-72999999D02*
X150782561Y-72904761D01*
X150782561Y-72904761D02*
X150734942Y-72857142D01*
X150734942Y-72857142D02*
X150639704Y-72809523D01*
X150639704Y-72809523D02*
X150544466Y-72809523D01*
X150544466Y-72809523D02*
X150401609Y-72857142D01*
X150401609Y-72857142D02*
X149830180Y-73428570D01*
X149830180Y-73428570D02*
X149830180Y-72809523D01*
X149925419Y-72380951D02*
X149877800Y-72333332D01*
X149877800Y-72333332D02*
X149830180Y-72380951D01*
X149830180Y-72380951D02*
X149877800Y-72428570D01*
X149877800Y-72428570D02*
X149925419Y-72380951D01*
X149925419Y-72380951D02*
X149830180Y-72380951D01*
X150830180Y-71714285D02*
X150830180Y-71619047D01*
X150830180Y-71619047D02*
X150782561Y-71523809D01*
X150782561Y-71523809D02*
X150734942Y-71476190D01*
X150734942Y-71476190D02*
X150639704Y-71428571D01*
X150639704Y-71428571D02*
X150449228Y-71380952D01*
X150449228Y-71380952D02*
X150211133Y-71380952D01*
X150211133Y-71380952D02*
X150020657Y-71428571D01*
X150020657Y-71428571D02*
X149925419Y-71476190D01*
X149925419Y-71476190D02*
X149877800Y-71523809D01*
X149877800Y-71523809D02*
X149830180Y-71619047D01*
X149830180Y-71619047D02*
X149830180Y-71714285D01*
X149830180Y-71714285D02*
X149877800Y-71809523D01*
X149877800Y-71809523D02*
X149925419Y-71857142D01*
X149925419Y-71857142D02*
X150020657Y-71904761D01*
X150020657Y-71904761D02*
X150211133Y-71952380D01*
X150211133Y-71952380D02*
X150449228Y-71952380D01*
X150449228Y-71952380D02*
X150639704Y-71904761D01*
X150639704Y-71904761D02*
X150734942Y-71857142D01*
X150734942Y-71857142D02*
X150782561Y-71809523D01*
X150782561Y-71809523D02*
X150830180Y-71714285D01*
X150401609Y-70047618D02*
X150449228Y-70142856D01*
X150449228Y-70142856D02*
X150496847Y-70190475D01*
X150496847Y-70190475D02*
X150592085Y-70238094D01*
X150592085Y-70238094D02*
X150639704Y-70238094D01*
X150639704Y-70238094D02*
X150734942Y-70190475D01*
X150734942Y-70190475D02*
X150782561Y-70142856D01*
X150782561Y-70142856D02*
X150830180Y-70047618D01*
X150830180Y-70047618D02*
X150830180Y-69857142D01*
X150830180Y-69857142D02*
X150782561Y-69761904D01*
X150782561Y-69761904D02*
X150734942Y-69714285D01*
X150734942Y-69714285D02*
X150639704Y-69666666D01*
X150639704Y-69666666D02*
X150592085Y-69666666D01*
X150592085Y-69666666D02*
X150496847Y-69714285D01*
X150496847Y-69714285D02*
X150449228Y-69761904D01*
X150449228Y-69761904D02*
X150401609Y-69857142D01*
X150401609Y-69857142D02*
X150401609Y-70047618D01*
X150401609Y-70047618D02*
X150353990Y-70142856D01*
X150353990Y-70142856D02*
X150306371Y-70190475D01*
X150306371Y-70190475D02*
X150211133Y-70238094D01*
X150211133Y-70238094D02*
X150020657Y-70238094D01*
X150020657Y-70238094D02*
X149925419Y-70190475D01*
X149925419Y-70190475D02*
X149877800Y-70142856D01*
X149877800Y-70142856D02*
X149830180Y-70047618D01*
X149830180Y-70047618D02*
X149830180Y-69857142D01*
X149830180Y-69857142D02*
X149877800Y-69761904D01*
X149877800Y-69761904D02*
X149925419Y-69714285D01*
X149925419Y-69714285D02*
X150020657Y-69666666D01*
X150020657Y-69666666D02*
X150211133Y-69666666D01*
X150211133Y-69666666D02*
X150306371Y-69714285D01*
X150306371Y-69714285D02*
X150353990Y-69761904D01*
X150353990Y-69761904D02*
X150401609Y-69857142D01*
X150877800Y-68523809D02*
X149592085Y-69380951D01*
X149830180Y-67666666D02*
X149830180Y-68238094D01*
X149830180Y-67952380D02*
X150830180Y-67952380D01*
X150830180Y-67952380D02*
X150687323Y-68047618D01*
X150687323Y-68047618D02*
X150592085Y-68142856D01*
X150592085Y-68142856D02*
X150544466Y-68238094D01*
X149830180Y-67190475D02*
X149830180Y-66999999D01*
X149830180Y-66999999D02*
X149877800Y-66904761D01*
X149877800Y-66904761D02*
X149925419Y-66857142D01*
X149925419Y-66857142D02*
X150068276Y-66761904D01*
X150068276Y-66761904D02*
X150258752Y-66714285D01*
X150258752Y-66714285D02*
X150639704Y-66714285D01*
X150639704Y-66714285D02*
X150734942Y-66761904D01*
X150734942Y-66761904D02*
X150782561Y-66809523D01*
X150782561Y-66809523D02*
X150830180Y-66904761D01*
X150830180Y-66904761D02*
X150830180Y-67095237D01*
X150830180Y-67095237D02*
X150782561Y-67190475D01*
X150782561Y-67190475D02*
X150734942Y-67238094D01*
X150734942Y-67238094D02*
X150639704Y-67285713D01*
X150639704Y-67285713D02*
X150401609Y-67285713D01*
X150401609Y-67285713D02*
X150306371Y-67238094D01*
X150306371Y-67238094D02*
X150258752Y-67190475D01*
X150258752Y-67190475D02*
X150211133Y-67095237D01*
X150211133Y-67095237D02*
X150211133Y-66904761D01*
X150211133Y-66904761D02*
X150258752Y-66809523D01*
X150258752Y-66809523D02*
X150306371Y-66761904D01*
X150306371Y-66761904D02*
X150401609Y-66714285D01*
X150877800Y-65571428D02*
X149592085Y-66428570D01*
X150734942Y-65285713D02*
X150782561Y-65238094D01*
X150782561Y-65238094D02*
X150830180Y-65142856D01*
X150830180Y-65142856D02*
X150830180Y-64904761D01*
X150830180Y-64904761D02*
X150782561Y-64809523D01*
X150782561Y-64809523D02*
X150734942Y-64761904D01*
X150734942Y-64761904D02*
X150639704Y-64714285D01*
X150639704Y-64714285D02*
X150544466Y-64714285D01*
X150544466Y-64714285D02*
X150401609Y-64761904D01*
X150401609Y-64761904D02*
X149830180Y-65333332D01*
X149830180Y-65333332D02*
X149830180Y-64714285D01*
X150830180Y-63809523D02*
X150830180Y-64285713D01*
X150830180Y-64285713D02*
X150353990Y-64333332D01*
X150353990Y-64333332D02*
X150401609Y-64285713D01*
X150401609Y-64285713D02*
X150449228Y-64190475D01*
X150449228Y-64190475D02*
X150449228Y-63952380D01*
X150449228Y-63952380D02*
X150401609Y-63857142D01*
X150401609Y-63857142D02*
X150353990Y-63809523D01*
X150353990Y-63809523D02*
X150258752Y-63761904D01*
X150258752Y-63761904D02*
X150020657Y-63761904D01*
X150020657Y-63761904D02*
X149925419Y-63809523D01*
X149925419Y-63809523D02*
X149877800Y-63857142D01*
X149877800Y-63857142D02*
X149830180Y-63952380D01*
X149830180Y-63952380D02*
X149830180Y-64190475D01*
X149830180Y-64190475D02*
X149877800Y-64285713D01*
X149877800Y-64285713D02*
X149925419Y-64333332D01*
X162242856Y-67531009D02*
X161909523Y-67531009D01*
X161766666Y-68054819D02*
X162242856Y-68054819D01*
X162242856Y-68054819D02*
X162242856Y-67054819D01*
X162242856Y-67054819D02*
X161766666Y-67054819D01*
X161385713Y-67769104D02*
X160909523Y-67769104D01*
X161480951Y-68054819D02*
X161147618Y-67054819D01*
X161147618Y-67054819D02*
X160814285Y-68054819D01*
X158856668Y-96074819D02*
X159190001Y-95598628D01*
X159428096Y-96074819D02*
X159428096Y-95074819D01*
X159428096Y-95074819D02*
X159047144Y-95074819D01*
X159047144Y-95074819D02*
X158951906Y-95122438D01*
X158951906Y-95122438D02*
X158904287Y-95170057D01*
X158904287Y-95170057D02*
X158856668Y-95265295D01*
X158856668Y-95265295D02*
X158856668Y-95408152D01*
X158856668Y-95408152D02*
X158904287Y-95503390D01*
X158904287Y-95503390D02*
X158951906Y-95551009D01*
X158951906Y-95551009D02*
X159047144Y-95598628D01*
X159047144Y-95598628D02*
X159428096Y-95598628D01*
X158475715Y-95170057D02*
X158428096Y-95122438D01*
X158428096Y-95122438D02*
X158332858Y-95074819D01*
X158332858Y-95074819D02*
X158094763Y-95074819D01*
X158094763Y-95074819D02*
X157999525Y-95122438D01*
X157999525Y-95122438D02*
X157951906Y-95170057D01*
X157951906Y-95170057D02*
X157904287Y-95265295D01*
X157904287Y-95265295D02*
X157904287Y-95360533D01*
X157904287Y-95360533D02*
X157951906Y-95503390D01*
X157951906Y-95503390D02*
X158523334Y-96074819D01*
X158523334Y-96074819D02*
X157904287Y-96074819D01*
X141038097Y-87433239D02*
X141133335Y-87385620D01*
X141133335Y-87385620D02*
X141276192Y-87385620D01*
X141276192Y-87385620D02*
X141419049Y-87433239D01*
X141419049Y-87433239D02*
X141514287Y-87528477D01*
X141514287Y-87528477D02*
X141561906Y-87623715D01*
X141561906Y-87623715D02*
X141609525Y-87814191D01*
X141609525Y-87814191D02*
X141609525Y-87957048D01*
X141609525Y-87957048D02*
X141561906Y-88147524D01*
X141561906Y-88147524D02*
X141514287Y-88242762D01*
X141514287Y-88242762D02*
X141419049Y-88338001D01*
X141419049Y-88338001D02*
X141276192Y-88385620D01*
X141276192Y-88385620D02*
X141180954Y-88385620D01*
X141180954Y-88385620D02*
X141038097Y-88338001D01*
X141038097Y-88338001D02*
X140990478Y-88290381D01*
X140990478Y-88290381D02*
X140990478Y-87957048D01*
X140990478Y-87957048D02*
X141180954Y-87957048D01*
X141466666Y-103580381D02*
X141514285Y-103628001D01*
X141514285Y-103628001D02*
X141657142Y-103675620D01*
X141657142Y-103675620D02*
X141752380Y-103675620D01*
X141752380Y-103675620D02*
X141895237Y-103628001D01*
X141895237Y-103628001D02*
X141990475Y-103532762D01*
X141990475Y-103532762D02*
X142038094Y-103437524D01*
X142038094Y-103437524D02*
X142085713Y-103247048D01*
X142085713Y-103247048D02*
X142085713Y-103104191D01*
X142085713Y-103104191D02*
X142038094Y-102913715D01*
X142038094Y-102913715D02*
X141990475Y-102818477D01*
X141990475Y-102818477D02*
X141895237Y-102723239D01*
X141895237Y-102723239D02*
X141752380Y-102675620D01*
X141752380Y-102675620D02*
X141657142Y-102675620D01*
X141657142Y-102675620D02*
X141514285Y-102723239D01*
X141514285Y-102723239D02*
X141466666Y-102770858D01*
X140561904Y-102675620D02*
X141038094Y-102675620D01*
X141038094Y-102675620D02*
X141085713Y-103151810D01*
X141085713Y-103151810D02*
X141038094Y-103104191D01*
X141038094Y-103104191D02*
X140942856Y-103056572D01*
X140942856Y-103056572D02*
X140704761Y-103056572D01*
X140704761Y-103056572D02*
X140609523Y-103104191D01*
X140609523Y-103104191D02*
X140561904Y-103151810D01*
X140561904Y-103151810D02*
X140514285Y-103247048D01*
X140514285Y-103247048D02*
X140514285Y-103485143D01*
X140514285Y-103485143D02*
X140561904Y-103580381D01*
X140561904Y-103580381D02*
X140609523Y-103628001D01*
X140609523Y-103628001D02*
X140704761Y-103675620D01*
X140704761Y-103675620D02*
X140942856Y-103675620D01*
X140942856Y-103675620D02*
X141038094Y-103628001D01*
X141038094Y-103628001D02*
X141085713Y-103580381D01*
X143128095Y-82343239D02*
X143223333Y-82295620D01*
X143223333Y-82295620D02*
X143366190Y-82295620D01*
X143366190Y-82295620D02*
X143509047Y-82343239D01*
X143509047Y-82343239D02*
X143604285Y-82438477D01*
X143604285Y-82438477D02*
X143651904Y-82533715D01*
X143651904Y-82533715D02*
X143699523Y-82724191D01*
X143699523Y-82724191D02*
X143699523Y-82867048D01*
X143699523Y-82867048D02*
X143651904Y-83057524D01*
X143651904Y-83057524D02*
X143604285Y-83152762D01*
X143604285Y-83152762D02*
X143509047Y-83248001D01*
X143509047Y-83248001D02*
X143366190Y-83295620D01*
X143366190Y-83295620D02*
X143270952Y-83295620D01*
X143270952Y-83295620D02*
X143128095Y-83248001D01*
X143128095Y-83248001D02*
X143080476Y-83200381D01*
X143080476Y-83200381D02*
X143080476Y-82867048D01*
X143080476Y-82867048D02*
X143270952Y-82867048D01*
X158893131Y-91114019D02*
X159226464Y-90637828D01*
X159464559Y-91114019D02*
X159464559Y-90114019D01*
X159464559Y-90114019D02*
X159083607Y-90114019D01*
X159083607Y-90114019D02*
X158988369Y-90161638D01*
X158988369Y-90161638D02*
X158940750Y-90209257D01*
X158940750Y-90209257D02*
X158893131Y-90304495D01*
X158893131Y-90304495D02*
X158893131Y-90447352D01*
X158893131Y-90447352D02*
X158940750Y-90542590D01*
X158940750Y-90542590D02*
X158988369Y-90590209D01*
X158988369Y-90590209D02*
X159083607Y-90637828D01*
X159083607Y-90637828D02*
X159464559Y-90637828D01*
X158274083Y-90114019D02*
X158178845Y-90114019D01*
X158178845Y-90114019D02*
X158083607Y-90161638D01*
X158083607Y-90161638D02*
X158035988Y-90209257D01*
X158035988Y-90209257D02*
X157988369Y-90304495D01*
X157988369Y-90304495D02*
X157940750Y-90494971D01*
X157940750Y-90494971D02*
X157940750Y-90733066D01*
X157940750Y-90733066D02*
X157988369Y-90923542D01*
X157988369Y-90923542D02*
X158035988Y-91018780D01*
X158035988Y-91018780D02*
X158083607Y-91066400D01*
X158083607Y-91066400D02*
X158178845Y-91114019D01*
X158178845Y-91114019D02*
X158274083Y-91114019D01*
X158274083Y-91114019D02*
X158369321Y-91066400D01*
X158369321Y-91066400D02*
X158416940Y-91018780D01*
X158416940Y-91018780D02*
X158464559Y-90923542D01*
X158464559Y-90923542D02*
X158512178Y-90733066D01*
X158512178Y-90733066D02*
X158512178Y-90494971D01*
X158512178Y-90494971D02*
X158464559Y-90304495D01*
X158464559Y-90304495D02*
X158416940Y-90209257D01*
X158416940Y-90209257D02*
X158369321Y-90161638D01*
X158369321Y-90161638D02*
X158274083Y-90114019D01*
X161933331Y-74694820D02*
X161599998Y-75694820D01*
X161599998Y-75694820D02*
X161266665Y-74694820D01*
X158856665Y-98654819D02*
X159189998Y-98178628D01*
X159428093Y-98654819D02*
X159428093Y-97654819D01*
X159428093Y-97654819D02*
X159047141Y-97654819D01*
X159047141Y-97654819D02*
X158951903Y-97702438D01*
X158951903Y-97702438D02*
X158904284Y-97750057D01*
X158904284Y-97750057D02*
X158856665Y-97845295D01*
X158856665Y-97845295D02*
X158856665Y-97988152D01*
X158856665Y-97988152D02*
X158904284Y-98083390D01*
X158904284Y-98083390D02*
X158951903Y-98131009D01*
X158951903Y-98131009D02*
X159047141Y-98178628D01*
X159047141Y-98178628D02*
X159428093Y-98178628D01*
X158523331Y-97654819D02*
X157904284Y-97654819D01*
X157904284Y-97654819D02*
X158237617Y-98035771D01*
X158237617Y-98035771D02*
X158094760Y-98035771D01*
X158094760Y-98035771D02*
X157999522Y-98083390D01*
X157999522Y-98083390D02*
X157951903Y-98131009D01*
X157951903Y-98131009D02*
X157904284Y-98226247D01*
X157904284Y-98226247D02*
X157904284Y-98464342D01*
X157904284Y-98464342D02*
X157951903Y-98559580D01*
X157951903Y-98559580D02*
X157999522Y-98607200D01*
X157999522Y-98607200D02*
X158094760Y-98654819D01*
X158094760Y-98654819D02*
X158380474Y-98654819D01*
X158380474Y-98654819D02*
X158475712Y-98607200D01*
X158475712Y-98607200D02*
X158523331Y-98559580D01*
X142014286Y-67729904D02*
X141538096Y-67729904D01*
X142109524Y-68015619D02*
X141776191Y-67015619D01*
X141776191Y-67015619D02*
X141442858Y-68015619D01*
X141157143Y-67110857D02*
X141109524Y-67063238D01*
X141109524Y-67063238D02*
X141014286Y-67015619D01*
X141014286Y-67015619D02*
X140776191Y-67015619D01*
X140776191Y-67015619D02*
X140680953Y-67063238D01*
X140680953Y-67063238D02*
X140633334Y-67110857D01*
X140633334Y-67110857D02*
X140585715Y-67206095D01*
X140585715Y-67206095D02*
X140585715Y-67301333D01*
X140585715Y-67301333D02*
X140633334Y-67444190D01*
X140633334Y-67444190D02*
X141204762Y-68015619D01*
X141204762Y-68015619D02*
X140585715Y-68015619D01*
X141466665Y-95910381D02*
X141514284Y-95958001D01*
X141514284Y-95958001D02*
X141657141Y-96005620D01*
X141657141Y-96005620D02*
X141752379Y-96005620D01*
X141752379Y-96005620D02*
X141895236Y-95958001D01*
X141895236Y-95958001D02*
X141990474Y-95862762D01*
X141990474Y-95862762D02*
X142038093Y-95767524D01*
X142038093Y-95767524D02*
X142085712Y-95577048D01*
X142085712Y-95577048D02*
X142085712Y-95434191D01*
X142085712Y-95434191D02*
X142038093Y-95243715D01*
X142038093Y-95243715D02*
X141990474Y-95148477D01*
X141990474Y-95148477D02*
X141895236Y-95053239D01*
X141895236Y-95053239D02*
X141752379Y-95005620D01*
X141752379Y-95005620D02*
X141657141Y-95005620D01*
X141657141Y-95005620D02*
X141514284Y-95053239D01*
X141514284Y-95053239D02*
X141466665Y-95100858D01*
X141085712Y-95100858D02*
X141038093Y-95053239D01*
X141038093Y-95053239D02*
X140942855Y-95005620D01*
X140942855Y-95005620D02*
X140704760Y-95005620D01*
X140704760Y-95005620D02*
X140609522Y-95053239D01*
X140609522Y-95053239D02*
X140561903Y-95100858D01*
X140561903Y-95100858D02*
X140514284Y-95196096D01*
X140514284Y-95196096D02*
X140514284Y-95291334D01*
X140514284Y-95291334D02*
X140561903Y-95434191D01*
X140561903Y-95434191D02*
X141133331Y-96005620D01*
X141133331Y-96005620D02*
X140514284Y-96005620D01*
D11*
%TO.C,G\u002A\u002A\u002A*%
G36*
X149840773Y-95686948D02*
G01*
X149855841Y-95697646D01*
X149893023Y-95743200D01*
X149909463Y-95805980D01*
X149906450Y-95889978D01*
X149901907Y-95916126D01*
X149867191Y-96004223D01*
X149805740Y-96080029D01*
X149720168Y-96140036D01*
X149695263Y-96152829D01*
X149655516Y-96169884D01*
X149617473Y-96178563D01*
X149570244Y-96180793D01*
X149502942Y-96178502D01*
X149409288Y-96168503D01*
X149297968Y-96137583D01*
X149209696Y-96087552D01*
X149145347Y-96019150D01*
X149105794Y-95933116D01*
X149091910Y-95830192D01*
X149095864Y-95766444D01*
X149113975Y-95710942D01*
X149148169Y-95679343D01*
X149200005Y-95669326D01*
X149223400Y-95671197D01*
X149264448Y-95690216D01*
X149291854Y-95732484D01*
X149308384Y-95801375D01*
X149312685Y-95827547D01*
X149323069Y-95874651D01*
X149333260Y-95904603D01*
X149342622Y-95916850D01*
X149383733Y-95941776D01*
X149445286Y-95958429D01*
X149520064Y-95964494D01*
X149555102Y-95963307D01*
X149626658Y-95948724D01*
X149678089Y-95914727D01*
X149713420Y-95857785D01*
X149736672Y-95774366D01*
X149741032Y-95752649D01*
X149756573Y-95698323D01*
X149776031Y-95671234D01*
X149802925Y-95668427D01*
X149840773Y-95686948D01*
G37*
G36*
X151756021Y-95684876D02*
G01*
X151802388Y-95699654D01*
X151835873Y-95736483D01*
X151848752Y-95786999D01*
X151854986Y-95817730D01*
X151882075Y-95867584D01*
X151923833Y-95915392D01*
X151972791Y-95951264D01*
X151998829Y-95962816D01*
X152073931Y-95978364D01*
X152151004Y-95973893D01*
X152217104Y-95949499D01*
X152246318Y-95926861D01*
X152271552Y-95889577D01*
X152292450Y-95831489D01*
X152305008Y-95794251D01*
X152326780Y-95745509D01*
X152347431Y-95714377D01*
X152352117Y-95710014D01*
X152398860Y-95688065D01*
X152453709Y-95690468D01*
X152506901Y-95717060D01*
X152529977Y-95739235D01*
X152544224Y-95771281D01*
X152547834Y-95820900D01*
X152539067Y-95889126D01*
X152503909Y-95978082D01*
X152445893Y-96062172D01*
X152369352Y-96135421D01*
X152278624Y-96191856D01*
X152242631Y-96207800D01*
X152198204Y-96221103D01*
X152148904Y-96225865D01*
X152081779Y-96224216D01*
X152079009Y-96224069D01*
X151977718Y-96211440D01*
X151903125Y-96185876D01*
X151885302Y-96175939D01*
X151803816Y-96112994D01*
X151733999Y-96031271D01*
X151682071Y-95939278D01*
X151654252Y-95845522D01*
X151654826Y-95789414D01*
X151674190Y-95736111D01*
X151708882Y-95698869D01*
X151754431Y-95684861D01*
X151756021Y-95684876D01*
G37*
G36*
X153622970Y-96365915D02*
G01*
X153623044Y-96367580D01*
X153626666Y-96423157D01*
X153633415Y-96456283D01*
X153646431Y-96475372D01*
X153668858Y-96488839D01*
X153670951Y-96489755D01*
X153700719Y-96499651D01*
X153755715Y-96515674D01*
X153831674Y-96536666D01*
X153924332Y-96561463D01*
X154029422Y-96588905D01*
X154142680Y-96617832D01*
X154222552Y-96638087D01*
X154370030Y-96675804D01*
X154525967Y-96716017D01*
X154680713Y-96756225D01*
X154824613Y-96793924D01*
X154948018Y-96826613D01*
X155020820Y-96846035D01*
X155123755Y-96873449D01*
X155216788Y-96898172D01*
X155294889Y-96918870D01*
X155353032Y-96934210D01*
X155386187Y-96942857D01*
X155400658Y-96946959D01*
X155445429Y-96964430D01*
X155474854Y-96982908D01*
X155475433Y-96983493D01*
X155490604Y-97014559D01*
X155480253Y-97040865D01*
X155448386Y-97051956D01*
X155447451Y-97051922D01*
X155421816Y-97047496D01*
X155370708Y-97036324D01*
X155298332Y-97019405D01*
X155208893Y-96997742D01*
X155106596Y-96972335D01*
X154995645Y-96944186D01*
X154935468Y-96928858D01*
X154786648Y-96891566D01*
X154625133Y-96851785D01*
X154461605Y-96812116D01*
X154306752Y-96775161D01*
X154171259Y-96743521D01*
X154110797Y-96729611D01*
X153969085Y-96697057D01*
X153853897Y-96670910D01*
X153762484Y-96650832D01*
X153692098Y-96636489D01*
X153639991Y-96627543D01*
X153603415Y-96623657D01*
X153579620Y-96624498D01*
X153565859Y-96629726D01*
X153559383Y-96639007D01*
X153557443Y-96652003D01*
X153557292Y-96668377D01*
X153557256Y-96669660D01*
X153551409Y-96702331D01*
X153537557Y-96752964D01*
X153518522Y-96811161D01*
X153499154Y-96873690D01*
X153485315Y-96933141D01*
X153480012Y-96976614D01*
X153481278Y-97008193D01*
X153490244Y-97027889D01*
X153514468Y-97040183D01*
X153561504Y-97052067D01*
X153575346Y-97055340D01*
X153629628Y-97068836D01*
X153706135Y-97088416D01*
X153799271Y-97112598D01*
X153903439Y-97139902D01*
X154013044Y-97168847D01*
X154122489Y-97197951D01*
X154226178Y-97225733D01*
X154318513Y-97250714D01*
X154393902Y-97271411D01*
X154446745Y-97286344D01*
X154482079Y-97297654D01*
X154555716Y-97331985D01*
X154599523Y-97372617D01*
X154614012Y-97419962D01*
X154609490Y-97448532D01*
X154592577Y-97453214D01*
X154558818Y-97434131D01*
X154557736Y-97433389D01*
X154524197Y-97416738D01*
X154465812Y-97395390D01*
X154381467Y-97369014D01*
X154270048Y-97337282D01*
X154130441Y-97299859D01*
X153961534Y-97256414D01*
X153866933Y-97232559D01*
X153725293Y-97197331D01*
X153611663Y-97169814D01*
X153524790Y-97149722D01*
X153463427Y-97136769D01*
X153426322Y-97130672D01*
X153412223Y-97131144D01*
X153411192Y-97132520D01*
X153397400Y-97152437D01*
X153371923Y-97189957D01*
X153339319Y-97238378D01*
X153266059Y-97335308D01*
X153135976Y-97469691D01*
X152976257Y-97599303D01*
X152787602Y-97723594D01*
X152570713Y-97842012D01*
X152454619Y-97898109D01*
X152110019Y-98043062D01*
X151759132Y-98159287D01*
X151404506Y-98246014D01*
X151048690Y-98302471D01*
X151033048Y-98304216D01*
X150900887Y-98315141D01*
X150754797Y-98321557D01*
X150603713Y-98323466D01*
X150456568Y-98320873D01*
X150322299Y-98313779D01*
X150209838Y-98302189D01*
X150093710Y-98283554D01*
X149855796Y-98230635D01*
X149627609Y-98160226D01*
X149413158Y-98074041D01*
X149216449Y-97973797D01*
X149041490Y-97861209D01*
X148892288Y-97737995D01*
X148864208Y-97710542D01*
X148804835Y-97641950D01*
X148767424Y-97575577D01*
X148747867Y-97502567D01*
X148742059Y-97414065D01*
X148740029Y-97358782D01*
X148733661Y-97312686D01*
X148723867Y-97291320D01*
X148689571Y-97280859D01*
X148639399Y-97279117D01*
X148591431Y-97287613D01*
X148573295Y-97290356D01*
X148538997Y-97280118D01*
X148492018Y-97249196D01*
X148467610Y-97230757D01*
X148429500Y-97202070D01*
X148405574Y-97184197D01*
X148397493Y-97181123D01*
X148364927Y-97181135D01*
X148309321Y-97189760D01*
X148229073Y-97207330D01*
X148122587Y-97234176D01*
X147988262Y-97270629D01*
X147946485Y-97282182D01*
X147840994Y-97310893D01*
X147732022Y-97339982D01*
X147623753Y-97368389D01*
X147520371Y-97395049D01*
X147426060Y-97418903D01*
X147345003Y-97438884D01*
X147281384Y-97453932D01*
X147239387Y-97462983D01*
X147223197Y-97464974D01*
X147222466Y-97463000D01*
X147234938Y-97448352D01*
X147266697Y-97426153D01*
X147310542Y-97400667D01*
X147359274Y-97376158D01*
X147405693Y-97356890D01*
X147433636Y-97347620D01*
X147489425Y-97330026D01*
X147565962Y-97306407D01*
X147658417Y-97278244D01*
X147761957Y-97247015D01*
X147871749Y-97214200D01*
X147937475Y-97194548D01*
X148070670Y-97153687D01*
X148177798Y-97118609D01*
X148261635Y-97087788D01*
X148324958Y-97059698D01*
X148370540Y-97032812D01*
X148401163Y-97005605D01*
X148419597Y-96976551D01*
X148428623Y-96944123D01*
X148431015Y-96906797D01*
X148430678Y-96893100D01*
X148425564Y-96867856D01*
X148410029Y-96845454D01*
X148378687Y-96819583D01*
X148326152Y-96783932D01*
X148293216Y-96762258D01*
X148236259Y-96725710D01*
X148193402Y-96702596D01*
X148156203Y-96690876D01*
X148116221Y-96688510D01*
X148065018Y-96693462D01*
X147994152Y-96703684D01*
X147956416Y-96709669D01*
X147871921Y-96724843D01*
X147767426Y-96745125D01*
X147649358Y-96769150D01*
X147524146Y-96795554D01*
X147398217Y-96822972D01*
X147278000Y-96850040D01*
X147169922Y-96875392D01*
X147080414Y-96897665D01*
X147072001Y-96899831D01*
X147013213Y-96913940D01*
X146964863Y-96923901D01*
X146936713Y-96927674D01*
X146917498Y-96923466D01*
X146909397Y-96906094D01*
X146922620Y-96881793D01*
X146955269Y-96857717D01*
X146965489Y-96853039D01*
X147014893Y-96835974D01*
X147091636Y-96814243D01*
X147193299Y-96788423D01*
X147317462Y-96759094D01*
X147461705Y-96726832D01*
X147623608Y-96692216D01*
X147800751Y-96655822D01*
X147914529Y-96632592D01*
X148017824Y-96610617D01*
X148095915Y-96592677D01*
X148151665Y-96578008D01*
X148187940Y-96565851D01*
X148207604Y-96555441D01*
X148213522Y-96546017D01*
X148213114Y-96543601D01*
X148205148Y-96520059D01*
X148190218Y-96482526D01*
X148177727Y-96441047D01*
X148169485Y-96386460D01*
X148167556Y-96332643D01*
X148172231Y-96289415D01*
X148180801Y-96272513D01*
X148275663Y-96272513D01*
X148283335Y-96288741D01*
X148305016Y-96325502D01*
X148337323Y-96377125D01*
X148376866Y-96438065D01*
X148400100Y-96473554D01*
X148447028Y-96548857D01*
X148478108Y-96608228D01*
X148495114Y-96658240D01*
X148499823Y-96705463D01*
X148494008Y-96756471D01*
X148479444Y-96817834D01*
X148475852Y-96831384D01*
X148462268Y-96887447D01*
X148457287Y-96924456D01*
X148460448Y-96951350D01*
X148471295Y-96977070D01*
X148472682Y-96979674D01*
X148505271Y-97013582D01*
X148548507Y-97019168D01*
X148599449Y-96995998D01*
X148625200Y-96980365D01*
X148639566Y-96976579D01*
X148644056Y-96984293D01*
X148660430Y-97014828D01*
X148685545Y-97062728D01*
X148716170Y-97121864D01*
X148819980Y-97297917D01*
X148940105Y-97451401D01*
X149080722Y-97586425D01*
X149246611Y-97708275D01*
X149417033Y-97805007D01*
X149610196Y-97889842D01*
X149818104Y-97959896D01*
X150033375Y-98012682D01*
X150248629Y-98045716D01*
X150321751Y-98051550D01*
X150429692Y-98056336D01*
X150551164Y-98058711D01*
X150677265Y-98058690D01*
X150799093Y-98056290D01*
X150907745Y-98051525D01*
X150994317Y-98044412D01*
X151032905Y-98039813D01*
X151291087Y-97999224D01*
X151546308Y-97942652D01*
X151795093Y-97871552D01*
X152033965Y-97787383D01*
X152259449Y-97691600D01*
X152468068Y-97585660D01*
X152656348Y-97471020D01*
X152820812Y-97349136D01*
X152957985Y-97221465D01*
X152968195Y-97210460D01*
X153028614Y-97139246D01*
X153080364Y-97068364D01*
X153116039Y-97007821D01*
X153128617Y-96982780D01*
X153160486Y-96932830D01*
X153193540Y-96908364D01*
X153234568Y-96906066D01*
X153290359Y-96922617D01*
X153292810Y-96923542D01*
X153339584Y-96937362D01*
X153367557Y-96932434D01*
X153382296Y-96904674D01*
X153389371Y-96850000D01*
X153390265Y-96836788D01*
X153390077Y-96799391D01*
X153381161Y-96781792D01*
X153360077Y-96775195D01*
X153325237Y-96758694D01*
X153288181Y-96724689D01*
X153258847Y-96684113D01*
X153246916Y-96647861D01*
X153251055Y-96613725D01*
X153279124Y-96549060D01*
X153334916Y-96476371D01*
X153356991Y-96450848D01*
X153381164Y-96414074D01*
X153393454Y-96373607D01*
X153399348Y-96315765D01*
X153398446Y-96234040D01*
X153380564Y-96160111D01*
X153361637Y-96103893D01*
X153358150Y-96048068D01*
X153377082Y-96003279D01*
X153381127Y-95996862D01*
X153392023Y-95957518D01*
X153392205Y-95898034D01*
X153381387Y-95817020D01*
X153359286Y-95713087D01*
X153325612Y-95584845D01*
X153280084Y-95430903D01*
X153222415Y-95249876D01*
X153211014Y-95215074D01*
X153167669Y-95082726D01*
X153132520Y-94973437D01*
X153104668Y-94881872D01*
X153083216Y-94802692D01*
X153067266Y-94730559D01*
X153055919Y-94660139D01*
X153048277Y-94586091D01*
X153043443Y-94503078D01*
X153040518Y-94405764D01*
X153038601Y-94288810D01*
X153036798Y-94146879D01*
X153036455Y-94121027D01*
X153033931Y-93950213D01*
X153031206Y-93806333D01*
X153028096Y-93685753D01*
X153024415Y-93584837D01*
X153019980Y-93499952D01*
X153014602Y-93427461D01*
X153008097Y-93363731D01*
X153000283Y-93305126D01*
X152990968Y-93248011D01*
X152980873Y-93193449D01*
X152967232Y-93135211D01*
X152951803Y-93094358D01*
X152931308Y-93062931D01*
X152902474Y-93032972D01*
X152899706Y-93030420D01*
X152831441Y-92985273D01*
X152744984Y-92959112D01*
X152636258Y-92950671D01*
X152593796Y-92951729D01*
X152531016Y-92959004D01*
X152472249Y-92975288D01*
X152413470Y-93003022D01*
X152350651Y-93044647D01*
X152279770Y-93102605D01*
X152196798Y-93179338D01*
X152097711Y-93277287D01*
X152024527Y-93350240D01*
X151943952Y-93426942D01*
X151875848Y-93485443D01*
X151815568Y-93528561D01*
X151758462Y-93559117D01*
X151699883Y-93579928D01*
X151635183Y-93593815D01*
X151559714Y-93603596D01*
X151533287Y-93605830D01*
X151462214Y-93609503D01*
X151367274Y-93612479D01*
X151253174Y-93614757D01*
X151124615Y-93616338D01*
X150986300Y-93617219D01*
X150842929Y-93617401D01*
X150699206Y-93616883D01*
X150559831Y-93615664D01*
X150429511Y-93613744D01*
X150312945Y-93611123D01*
X150214834Y-93607800D01*
X150139884Y-93603772D01*
X150034353Y-93594361D01*
X149933157Y-93579202D01*
X149843401Y-93556596D01*
X149759672Y-93523976D01*
X149676552Y-93478775D01*
X149588626Y-93418425D01*
X149490477Y-93340360D01*
X149376690Y-93242012D01*
X149374866Y-93240395D01*
X149281251Y-93159225D01*
X149204241Y-93097439D01*
X149138723Y-93052340D01*
X149079584Y-93021231D01*
X149021709Y-93001412D01*
X148959987Y-92990186D01*
X148889302Y-92984856D01*
X148839498Y-92983067D01*
X148785372Y-92983511D01*
X148744950Y-92989189D01*
X148707938Y-93001859D01*
X148664042Y-93023275D01*
X148661138Y-93024790D01*
X148606731Y-93057841D01*
X148570128Y-93094164D01*
X148539761Y-93145099D01*
X148528558Y-93168221D01*
X148517430Y-93196153D01*
X148509840Y-93226499D01*
X148505160Y-93264989D01*
X148502761Y-93317353D01*
X148502016Y-93389326D01*
X148502294Y-93486635D01*
X148502378Y-93498578D01*
X148507733Y-93675137D01*
X148520343Y-93867239D01*
X148539342Y-94061436D01*
X148545657Y-94119177D01*
X148561710Y-94299306D01*
X148572381Y-94476152D01*
X148576791Y-94636237D01*
X148577189Y-94708952D01*
X148576819Y-94783211D01*
X148574650Y-94844669D01*
X148569798Y-94900500D01*
X148561376Y-94957877D01*
X148548499Y-95023977D01*
X148530282Y-95105972D01*
X148505838Y-95211038D01*
X148483749Y-95306694D01*
X148457155Y-95424697D01*
X148431558Y-95540988D01*
X148409047Y-95646067D01*
X148391708Y-95730436D01*
X148375523Y-95813500D01*
X148364979Y-95873883D01*
X148360050Y-95915810D01*
X148360354Y-95945313D01*
X148365507Y-95968425D01*
X148375125Y-95991177D01*
X148379599Y-96001282D01*
X148396422Y-96065289D01*
X148398083Y-96130388D01*
X148383949Y-96182847D01*
X148359130Y-96210935D01*
X148321808Y-96236599D01*
X148318196Y-96238502D01*
X148288039Y-96257920D01*
X148275663Y-96272513D01*
X148180801Y-96272513D01*
X148183802Y-96266595D01*
X148186984Y-96262647D01*
X148180023Y-96240261D01*
X148150497Y-96204376D01*
X148142740Y-96196449D01*
X148125404Y-96180423D01*
X148106409Y-96167639D01*
X148082082Y-96157511D01*
X148048751Y-96149458D01*
X148002744Y-96142896D01*
X147940389Y-96137243D01*
X147858013Y-96131914D01*
X147751943Y-96126327D01*
X147618508Y-96119898D01*
X147593685Y-96118676D01*
X147496719Y-96113060D01*
X147410234Y-96106761D01*
X147339372Y-96100237D01*
X147289274Y-96093947D01*
X147265083Y-96088350D01*
X147247272Y-96073349D01*
X147234807Y-96043755D01*
X147237567Y-96031580D01*
X147253149Y-96018903D01*
X147287789Y-96008456D01*
X147347437Y-95997812D01*
X147435171Y-95984695D01*
X147578778Y-95965185D01*
X147722777Y-95947720D01*
X147856857Y-95933523D01*
X147970708Y-95923818D01*
X148030356Y-95919610D01*
X148080180Y-95913362D01*
X148113650Y-95900924D01*
X148134903Y-95877381D01*
X148148077Y-95837816D01*
X148157309Y-95777315D01*
X148166737Y-95690963D01*
X148167599Y-95683296D01*
X148178820Y-95604477D01*
X148195613Y-95508419D01*
X148215855Y-95406564D01*
X148237419Y-95310352D01*
X148258569Y-95218857D01*
X148283431Y-95096000D01*
X148301652Y-94979773D01*
X148313439Y-94864856D01*
X148318997Y-94745923D01*
X148318529Y-94617651D01*
X148312240Y-94474719D01*
X148300334Y-94311801D01*
X148283016Y-94123577D01*
X148280112Y-94092666D01*
X148270930Y-93971319D01*
X148264111Y-93841846D01*
X148259703Y-93709830D01*
X148257750Y-93580853D01*
X148258299Y-93460499D01*
X148261397Y-93354351D01*
X148267090Y-93267991D01*
X148275424Y-93207002D01*
X148277499Y-93197311D01*
X148314267Y-93080623D01*
X148371248Y-92981797D01*
X148453385Y-92892085D01*
X148508132Y-92846692D01*
X148604219Y-92790275D01*
X148709474Y-92758652D01*
X148831628Y-92748899D01*
X148887520Y-92750485D01*
X149000765Y-92764749D01*
X149109850Y-92795675D01*
X149220206Y-92845501D01*
X149337266Y-92916470D01*
X149466464Y-93010823D01*
X149526407Y-93057257D01*
X149632963Y-93137958D01*
X149721573Y-93202016D01*
X149795919Y-93251958D01*
X149859679Y-93290307D01*
X149916536Y-93319589D01*
X150007834Y-93362353D01*
X150675846Y-93367130D01*
X150728684Y-93367485D01*
X150912294Y-93368259D01*
X151068336Y-93367969D01*
X151199580Y-93366448D01*
X151308793Y-93363525D01*
X151398745Y-93359030D01*
X151472204Y-93352795D01*
X151531939Y-93344649D01*
X151580716Y-93334423D01*
X151621306Y-93321948D01*
X151656478Y-93307053D01*
X151668754Y-93300163D01*
X151711094Y-93270512D01*
X151767351Y-93225954D01*
X151831657Y-93171245D01*
X151898143Y-93111143D01*
X151912434Y-93097843D01*
X152035919Y-92986280D01*
X152143741Y-92896141D01*
X152239595Y-92825108D01*
X152327175Y-92770870D01*
X152410175Y-92731112D01*
X152492290Y-92703520D01*
X152577213Y-92685780D01*
X152705385Y-92676535D01*
X152837502Y-92692988D01*
X152956362Y-92737382D01*
X153061120Y-92809263D01*
X153150929Y-92908177D01*
X153224943Y-93033669D01*
X153233303Y-93051438D01*
X153255765Y-93102003D01*
X153274492Y-93150836D01*
X153289825Y-93201220D01*
X153302106Y-93256434D01*
X153311677Y-93319757D01*
X153318884Y-93394469D01*
X153324063Y-93483851D01*
X153327561Y-93591181D01*
X153329719Y-93719741D01*
X153330878Y-93872810D01*
X153331382Y-94053668D01*
X153332360Y-94713913D01*
X153374574Y-94861496D01*
X153393400Y-94923954D01*
X153422587Y-95014425D01*
X153455255Y-95110776D01*
X153487237Y-95200463D01*
X153503789Y-95245840D01*
X153554755Y-95392994D01*
X153593392Y-95519127D01*
X153621057Y-95629469D01*
X153639104Y-95729249D01*
X153648892Y-95823696D01*
X153658599Y-95972262D01*
X154194725Y-95980696D01*
X154296452Y-95982506D01*
X154415709Y-95985194D01*
X154522456Y-95988222D01*
X154612981Y-95991457D01*
X154683572Y-95994760D01*
X154730518Y-95997997D01*
X154750107Y-96001032D01*
X154766244Y-96016308D01*
X154763061Y-96036675D01*
X154738608Y-96070048D01*
X154737323Y-96071565D01*
X154725858Y-96082646D01*
X154710144Y-96092208D01*
X154687212Y-96100677D01*
X154654091Y-96108481D01*
X154607808Y-96116043D01*
X154545397Y-96123790D01*
X154463884Y-96132148D01*
X154360298Y-96141542D01*
X154231670Y-96152398D01*
X154075029Y-96165142D01*
X154039532Y-96168018D01*
X153930427Y-96177219D01*
X153846942Y-96185144D01*
X153784869Y-96192446D01*
X153740002Y-96199775D01*
X153708132Y-96207786D01*
X153685052Y-96217129D01*
X153666556Y-96228458D01*
X153657598Y-96234915D01*
X153635670Y-96254026D01*
X153624574Y-96275966D01*
X153621334Y-96310132D01*
X153621499Y-96315765D01*
X153622970Y-96365915D01*
G37*
%TD*%
M02*
