%TF.GenerationSoftware,KiCad,Pcbnew,9.0.4*%
%TF.CreationDate,2025-12-20T12:00:30-05:00*%
%TF.ProjectId,LED-74HC595,4c45442d-3734-4484-9335-39352e6b6963,rev?*%
%TF.SameCoordinates,Original*%
%TF.FileFunction,Soldermask,Bot*%
%TF.FilePolarity,Negative*%
%FSLAX46Y46*%
G04 Gerber Fmt 4.6, Leading zero omitted, Abs format (unit mm)*
G04 Created by KiCad (PCBNEW 9.0.4) date 2025-12-20 12:00:30*
%MOMM*%
%LPD*%
G01*
G04 APERTURE LIST*
%ADD10R,1.700000X1.700000*%
%ADD11C,1.700000*%
G04 APERTURE END LIST*
D10*
%TO.C,J3*%
X161000000Y-90420000D03*
D11*
X161000000Y-92960000D03*
X161000000Y-95500000D03*
X161000000Y-98040000D03*
X161000000Y-100580000D03*
X161000000Y-103120000D03*
X161000000Y-105660000D03*
X161000000Y-108200000D03*
%TD*%
D10*
%TO.C,J2*%
X136460000Y-62500000D03*
D11*
X139000000Y-62500000D03*
X136460000Y-65040000D03*
X139000000Y-65040000D03*
X136460000Y-67580000D03*
X139000000Y-67580000D03*
X136460000Y-70120000D03*
X139000000Y-70120000D03*
X136460000Y-72660000D03*
X139000000Y-72660000D03*
X136460000Y-75200000D03*
X139000000Y-75200000D03*
X136460000Y-77740000D03*
X139000000Y-77740000D03*
X136460000Y-80280000D03*
X139000000Y-80280000D03*
X136460000Y-82820000D03*
X139000000Y-82820000D03*
X136460000Y-85360000D03*
X139000000Y-85360000D03*
X136460000Y-87900000D03*
X139000000Y-87900000D03*
X136460000Y-90440000D03*
X139000000Y-90440000D03*
X136460000Y-92980000D03*
X139000000Y-92980000D03*
X136460000Y-95520000D03*
X139000000Y-95520000D03*
X136460000Y-98060000D03*
X139000000Y-98060000D03*
X136460000Y-100600000D03*
X139000000Y-100600000D03*
X136460000Y-103140000D03*
X139000000Y-103140000D03*
X136460000Y-105680000D03*
X139000000Y-105680000D03*
X136460000Y-108220000D03*
X139000000Y-108220000D03*
%TD*%
D10*
%TO.C,J1*%
X159300000Y-62500000D03*
D11*
X159300000Y-65040000D03*
X159300000Y-67580000D03*
X159300000Y-70120000D03*
X159300000Y-72660000D03*
X159300000Y-75200000D03*
X159300000Y-77740000D03*
X159300000Y-80280000D03*
X159300000Y-82820000D03*
X159300000Y-85360000D03*
%TD*%
M02*
