%TF.GenerationSoftware,KiCad,Pcbnew,9.0.4*%
%TF.CreationDate,2025-12-20T12:00:30-05:00*%
%TF.ProjectId,LED-74HC595,4c45442d-3734-4484-9335-39352e6b6963,rev?*%
%TF.SameCoordinates,Original*%
%TF.FileFunction,Copper,L1,Top*%
%TF.FilePolarity,Positive*%
%FSLAX46Y46*%
G04 Gerber Fmt 4.6, Leading zero omitted, Abs format (unit mm)*
G04 Created by KiCad (PCBNEW 9.0.4) date 2025-12-20 12:00:30*
%MOMM*%
%LPD*%
G01*
G04 APERTURE LIST*
G04 Aperture macros list*
%AMRoundRect*
0 Rectangle with rounded corners*
0 $1 Rounding radius*
0 $2 $3 $4 $5 $6 $7 $8 $9 X,Y pos of 4 corners*
0 Add a 4 corners polygon primitive as box body*
4,1,4,$2,$3,$4,$5,$6,$7,$8,$9,$2,$3,0*
0 Add four circle primitives for the rounded corners*
1,1,$1+$1,$2,$3*
1,1,$1+$1,$4,$5*
1,1,$1+$1,$6,$7*
1,1,$1+$1,$8,$9*
0 Add four rect primitives between the rounded corners*
20,1,$1+$1,$2,$3,$4,$5,0*
20,1,$1+$1,$4,$5,$6,$7,0*
20,1,$1+$1,$6,$7,$8,$9,0*
20,1,$1+$1,$8,$9,$2,$3,0*%
G04 Aperture macros list end*
%TA.AperFunction,SMDPad,CuDef*%
%ADD10RoundRect,0.150000X-0.850000X-0.150000X0.850000X-0.150000X0.850000X0.150000X-0.850000X0.150000X0*%
%TD*%
%TA.AperFunction,SMDPad,CuDef*%
%ADD11RoundRect,0.100000X-0.637500X-0.100000X0.637500X-0.100000X0.637500X0.100000X-0.637500X0.100000X0*%
%TD*%
%TA.AperFunction,ComponentPad*%
%ADD12R,1.700000X1.700000*%
%TD*%
%TA.AperFunction,ComponentPad*%
%ADD13C,1.700000*%
%TD*%
%TA.AperFunction,SMDPad,CuDef*%
%ADD14RoundRect,0.218750X0.256250X-0.218750X0.256250X0.218750X-0.256250X0.218750X-0.256250X-0.218750X0*%
%TD*%
%TA.AperFunction,SMDPad,CuDef*%
%ADD15RoundRect,0.200000X-0.275000X0.200000X-0.275000X-0.200000X0.275000X-0.200000X0.275000X0.200000X0*%
%TD*%
%TA.AperFunction,SMDPad,CuDef*%
%ADD16R,0.650000X1.050000*%
%TD*%
%TA.AperFunction,SMDPad,CuDef*%
%ADD17RoundRect,0.225000X-0.250000X0.225000X-0.250000X-0.225000X0.250000X-0.225000X0.250000X0.225000X0*%
%TD*%
%TA.AperFunction,ViaPad*%
%ADD18C,0.600000*%
%TD*%
%TA.AperFunction,Conductor*%
%ADD19C,0.400000*%
%TD*%
%TA.AperFunction,Conductor*%
%ADD20C,1.000000*%
%TD*%
%TA.AperFunction,Conductor*%
%ADD21C,0.500000*%
%TD*%
G04 APERTURE END LIST*
D10*
%TO.P,U3,1,QB*%
%TO.N,C1*%
X147600000Y-99179999D03*
%TO.P,U3,2,QC*%
%TO.N,C2*%
X147600000Y-100450000D03*
%TO.P,U3,3,QD*%
%TO.N,C3*%
X147600000Y-101720001D03*
%TO.P,U3,4,QE*%
%TO.N,C4*%
X147600000Y-102990000D03*
%TO.P,U3,5,QF*%
%TO.N,C5*%
X147600000Y-104260000D03*
%TO.P,U3,6,QG*%
%TO.N,C6*%
X147600000Y-105529999D03*
%TO.P,U3,7,QH*%
%TO.N,C7*%
X147600000Y-106800000D03*
%TO.P,U3,8,GND*%
%TO.N,GND*%
X147600000Y-108070001D03*
%TO.P,U3,9,QH'*%
%TO.N,Net-(U3-QH')*%
X152600000Y-108070001D03*
%TO.P,U3,10,~{SRCLR}*%
%TO.N,VCC*%
X152600000Y-106800000D03*
%TO.P,U3,11,SRCLK*%
%TO.N,CLCK*%
X152600000Y-105529999D03*
%TO.P,U3,12,RCLK*%
%TO.N,LATCH*%
X152600000Y-104260000D03*
%TO.P,U3,13,~{OE}*%
%TO.N,EN_C*%
X152600000Y-102990000D03*
%TO.P,U3,14,SER*%
%TO.N,Net-(U2-QH')*%
X152600000Y-101720001D03*
%TO.P,U3,15,QA*%
%TO.N,C0*%
X152600000Y-100450000D03*
%TO.P,U3,16,VCC*%
%TO.N,VCC*%
X152600000Y-99179999D03*
%TD*%
D11*
%TO.P,U1,1,PD4/A7*%
%TO.N,R6*%
X147337500Y-76550000D03*
%TO.P,U1,2,PD5/A5/OSCI\u002A*%
%TO.N,R5*%
X147337500Y-77200000D03*
%TO.P,U1,3,PD6/A6/OSCO\u002A*%
%TO.N,R4*%
X147337500Y-77850000D03*
%TO.P,U1,4,PD7/RST*%
%TO.N,Net-(U1-PD7{slash}RST)*%
X147337500Y-78500000D03*
%TO.P,U1,5,PA1/OSCI*%
%TO.N,R3*%
X147337500Y-79150000D03*
%TO.P,U1,6,PA2/OSCO*%
%TO.N,R2*%
X147337500Y-79800000D03*
%TO.P,U1,7,VSS*%
%TO.N,GND*%
X147337500Y-80450000D03*
%TO.P,U1,8,PD0*%
%TO.N,R1*%
X147337500Y-81100000D03*
%TO.P,U1,9,VDD*%
%TO.N,VCC*%
X147337500Y-81750000D03*
%TO.P,U1,10,PC0*%
%TO.N,R0*%
X147337500Y-82400000D03*
%TO.P,U1,11,PC1/SDA*%
%TO.N,SDA*%
X153062500Y-82400000D03*
%TO.P,U1,12,PC2/SCL*%
%TO.N,SCL*%
X153062500Y-81750000D03*
%TO.P,U1,13,PC3*%
%TO.N,R7*%
X153062500Y-81100000D03*
%TO.P,U1,14,PC4/A2*%
%TO.N,LATCH*%
X153062500Y-80450000D03*
%TO.P,U1,15,PC5/VSS\u002A*%
%TO.N,CLCK*%
X153062500Y-79800000D03*
%TO.P,U1,16,PC6/MOSI/VDD\u002A*%
%TO.N,DATA*%
X153062500Y-79150000D03*
%TO.P,U1,17,PC7/MISO/UDM\u002A*%
%TO.N,EN_C*%
X153062500Y-78500000D03*
%TO.P,U1,18,PD1/SWIO/UDP\u002A*%
%TO.N,SWIO*%
X153062500Y-77850000D03*
%TO.P,U1,19,PD2/A3/SWIO\u002A*%
%TO.N,EN_R*%
X153062500Y-77200000D03*
%TO.P,U1,20,PD3/A4/ANT\u002A*%
%TO.N,EN_A*%
X153062500Y-76550000D03*
%TD*%
D10*
%TO.P,U4,1,QB*%
%TO.N,A_1*%
X147700000Y-63110000D03*
%TO.P,U4,2,QC*%
%TO.N,A_2*%
X147700000Y-64380000D03*
%TO.P,U4,3,QD*%
%TO.N,A_3*%
X147700000Y-65650000D03*
%TO.P,U4,4,QE*%
%TO.N,A_4*%
X147700000Y-66920000D03*
%TO.P,U4,5,QF*%
%TO.N,A_5*%
X147700000Y-68190000D03*
%TO.P,U4,6,QG*%
%TO.N,A_6*%
X147700000Y-69460000D03*
%TO.P,U4,7,QH*%
%TO.N,A_7*%
X147700000Y-70730000D03*
%TO.P,U4,8,GND*%
%TO.N,GND*%
X147700000Y-72000000D03*
%TO.P,U4,9,QH'*%
%TO.N,Net-(J1-Pin_5)*%
X152700000Y-72000000D03*
%TO.P,U4,10,~{SRCLR}*%
%TO.N,VCC*%
X152700000Y-70730000D03*
%TO.P,U4,11,SRCLK*%
%TO.N,CLCK*%
X152700000Y-69460000D03*
%TO.P,U4,12,RCLK*%
%TO.N,LATCH*%
X152700000Y-68190000D03*
%TO.P,U4,13,~{OE}*%
%TO.N,EN_A*%
X152700000Y-66920000D03*
%TO.P,U4,14,SER*%
%TO.N,Net-(U3-QH')*%
X152700000Y-65650000D03*
%TO.P,U4,15,QA*%
%TO.N,A_0*%
X152700000Y-64380000D03*
%TO.P,U4,16,VCC*%
%TO.N,VCC*%
X152700000Y-63110000D03*
%TD*%
%TO.P,U2,1,QB*%
%TO.N,R1*%
X147700000Y-86754999D03*
%TO.P,U2,2,QC*%
%TO.N,R2*%
X147700000Y-88025000D03*
%TO.P,U2,3,QD*%
%TO.N,R3*%
X147700000Y-89295001D03*
%TO.P,U2,4,QE*%
%TO.N,R4*%
X147700000Y-90565000D03*
%TO.P,U2,5,QF*%
%TO.N,R5*%
X147700000Y-91835000D03*
%TO.P,U2,6,QG*%
%TO.N,R6*%
X147700000Y-93104999D03*
%TO.P,U2,7,QH*%
%TO.N,R7*%
X147700000Y-94375000D03*
%TO.P,U2,8,GND*%
%TO.N,GND*%
X147700000Y-95645001D03*
%TO.P,U2,9,QH'*%
%TO.N,Net-(U2-QH')*%
X152700000Y-95645001D03*
%TO.P,U2,10,~{SRCLR}*%
%TO.N,VCC*%
X152700000Y-94375000D03*
%TO.P,U2,11,SRCLK*%
%TO.N,CLCK*%
X152700000Y-93104999D03*
%TO.P,U2,12,RCLK*%
%TO.N,LATCH*%
X152700000Y-91835000D03*
%TO.P,U2,13,~{OE}*%
%TO.N,EN_R*%
X152700000Y-90565000D03*
%TO.P,U2,14,SER*%
%TO.N,DATA*%
X152700000Y-89295001D03*
%TO.P,U2,15,QA*%
%TO.N,R0*%
X152700000Y-88025000D03*
%TO.P,U2,16,VCC*%
%TO.N,VCC*%
X152700000Y-86754999D03*
%TD*%
D12*
%TO.P,J3,1,Pin_1*%
%TO.N,R0*%
X161000000Y-90420000D03*
D13*
%TO.P,J3,2,Pin_2*%
%TO.N,R1*%
X161000000Y-92960000D03*
%TO.P,J3,3,Pin_3*%
%TO.N,R2*%
X161000000Y-95500000D03*
%TO.P,J3,4,Pin_4*%
%TO.N,R3*%
X161000000Y-98040000D03*
%TO.P,J3,5,Pin_5*%
%TO.N,R4*%
X161000000Y-100580000D03*
%TO.P,J3,6,Pin_6*%
%TO.N,R5*%
X161000000Y-103120000D03*
%TO.P,J3,7,Pin_7*%
%TO.N,R6*%
X161000000Y-105660000D03*
%TO.P,J3,8,Pin_8*%
%TO.N,R7*%
X161000000Y-108200000D03*
%TD*%
D12*
%TO.P,J2,1,Pin_1*%
%TO.N,A_0*%
X136460000Y-62500000D03*
D13*
%TO.P,J2,2,Pin_2*%
%TO.N,R0*%
X139000000Y-62500000D03*
%TO.P,J2,3,Pin_3*%
%TO.N,A_1*%
X136460000Y-65040000D03*
%TO.P,J2,4,Pin_4*%
%TO.N,R1*%
X139000000Y-65040000D03*
%TO.P,J2,5,Pin_5*%
%TO.N,A_2*%
X136460000Y-67580000D03*
%TO.P,J2,6,Pin_6*%
%TO.N,R2*%
X139000000Y-67580000D03*
%TO.P,J2,7,Pin_7*%
%TO.N,A_3*%
X136460000Y-70120000D03*
%TO.P,J2,8,Pin_8*%
%TO.N,R3*%
X139000000Y-70120000D03*
%TO.P,J2,9,Pin_9*%
%TO.N,A_4*%
X136460000Y-72660000D03*
%TO.P,J2,10,Pin_10*%
%TO.N,R4*%
X139000000Y-72660000D03*
%TO.P,J2,11,Pin_11*%
%TO.N,A_5*%
X136460000Y-75200000D03*
%TO.P,J2,12,Pin_12*%
%TO.N,R5*%
X139000000Y-75200000D03*
%TO.P,J2,13,Pin_13*%
%TO.N,A_6*%
X136460000Y-77740000D03*
%TO.P,J2,14,Pin_14*%
%TO.N,R6*%
X139000000Y-77740000D03*
%TO.P,J2,15,Pin_15*%
%TO.N,A_7*%
X136460000Y-80280000D03*
%TO.P,J2,16,Pin_16*%
%TO.N,R7*%
X139000000Y-80280000D03*
%TO.P,J2,17,Pin_17*%
%TO.N,GND*%
X136460000Y-82820000D03*
%TO.P,J2,18,Pin_18*%
%TO.N,EN_A*%
X139000000Y-82820000D03*
%TO.P,J2,19,Pin_19*%
%TO.N,GND*%
X136460000Y-85360000D03*
%TO.P,J2,20,Pin_20*%
%TO.N,EN_R*%
X139000000Y-85360000D03*
%TO.P,J2,21,Pin_21*%
%TO.N,GND*%
X136460000Y-87900000D03*
%TO.P,J2,22,Pin_22*%
%TO.N,EN_C*%
X139000000Y-87900000D03*
%TO.P,J2,23,Pin_23*%
%TO.N,C0*%
X136460000Y-90440000D03*
%TO.P,J2,24,Pin_24*%
X139000000Y-90440000D03*
%TO.P,J2,25,Pin_25*%
%TO.N,C1*%
X136460000Y-92980000D03*
%TO.P,J2,26,Pin_26*%
X139000000Y-92980000D03*
%TO.P,J2,27,Pin_27*%
%TO.N,C2*%
X136460000Y-95520000D03*
%TO.P,J2,28,Pin_28*%
X139000000Y-95520000D03*
%TO.P,J2,29,Pin_29*%
%TO.N,C3*%
X136460000Y-98060000D03*
%TO.P,J2,30,Pin_30*%
X139000000Y-98060000D03*
%TO.P,J2,31,Pin_31*%
%TO.N,C4*%
X136460000Y-100600000D03*
%TO.P,J2,32,Pin_32*%
X139000000Y-100600000D03*
%TO.P,J2,33,Pin_33*%
%TO.N,C5*%
X136460000Y-103140000D03*
%TO.P,J2,34,Pin_34*%
X139000000Y-103140000D03*
%TO.P,J2,35,Pin_35*%
%TO.N,C6*%
X136460000Y-105680000D03*
%TO.P,J2,36,Pin_36*%
X139000000Y-105680000D03*
%TO.P,J2,37,Pin_37*%
%TO.N,C7*%
X136460000Y-108220000D03*
%TO.P,J2,38,Pin_38*%
X139000000Y-108220000D03*
%TD*%
D14*
%TO.P,D1,1,K*%
%TO.N,GND*%
X143300000Y-107675002D03*
%TO.P,D1,2,A*%
%TO.N,Net-(D1-A)*%
X143300000Y-106100000D03*
%TD*%
D15*
%TO.P,R1,1*%
%TO.N,VCC*%
X143300000Y-103062501D03*
%TO.P,R1,2*%
%TO.N,Net-(D1-A)*%
X143300000Y-104712501D03*
%TD*%
D12*
%TO.P,J1,1,Pin_1*%
%TO.N,GND*%
X159300000Y-62500000D03*
D13*
%TO.P,J1,2,Pin_2*%
%TO.N,VCC*%
X159300000Y-65040000D03*
%TO.P,J1,3,Pin_3*%
%TO.N,CLCK*%
X159300000Y-67580000D03*
%TO.P,J1,4,Pin_4*%
%TO.N,LATCH*%
X159300000Y-70120000D03*
%TO.P,J1,5,Pin_5*%
%TO.N,Net-(J1-Pin_5)*%
X159300000Y-72660000D03*
%TO.P,J1,6,Pin_6*%
%TO.N,VCC*%
X159300000Y-75200000D03*
%TO.P,J1,7,Pin_7*%
%TO.N,GND*%
X159300000Y-77740000D03*
%TO.P,J1,8,Pin_8*%
%TO.N,SWIO*%
X159300000Y-80280000D03*
%TO.P,J1,9,Pin_9*%
%TO.N,SCL*%
X159300000Y-82820000D03*
%TO.P,J1,10,Pin_10*%
%TO.N,SDA*%
X159300000Y-85360000D03*
%TD*%
D16*
%TO.P,SW1,1,1*%
%TO.N,GND*%
X142225000Y-98475000D03*
X142225000Y-94325000D03*
%TO.P,SW1,2,2*%
%TO.N,Net-(U1-PD7{slash}RST)*%
X144375000Y-98475000D03*
X144375000Y-94325000D03*
%TD*%
D17*
%TO.P,C1,1*%
%TO.N,Net-(U1-PD7{slash}RST)*%
X143000000Y-90525000D03*
%TO.P,C1,2*%
%TO.N,GND*%
X143000000Y-92075000D03*
%TD*%
D18*
%TO.N,R3*%
X144898000Y-79611439D03*
X145800000Y-88100000D03*
%TO.N,C5*%
X145900000Y-104300000D03*
%TO.N,R1*%
X147700000Y-85300000D03*
X145705189Y-81111687D03*
%TO.N,C7*%
X145900000Y-106800000D03*
%TO.N,C3*%
X145900000Y-101700000D03*
%TO.N,R0*%
X151231037Y-87168963D03*
X146300000Y-82400000D03*
%TO.N,C0*%
X151100000Y-101600000D03*
%TO.N,C6*%
X145900000Y-105500000D03*
%TO.N,R2*%
X145900000Y-86700000D03*
X145380525Y-80380525D03*
%TO.N,R5*%
X145500000Y-90400000D03*
X150950000Y-102800000D03*
X141089566Y-79610622D03*
%TO.N,R4*%
X141889124Y-79637310D03*
X144295682Y-87995682D03*
%TO.N,R7*%
X148186311Y-83063576D03*
X151800000Y-81200000D03*
X149400000Y-108200000D03*
X145500000Y-93300000D03*
%TO.N,C4*%
X145900000Y-103000000D03*
%TO.N,C2*%
X146100000Y-100500000D03*
%TO.N,C1*%
X146000000Y-99100000D03*
%TO.N,R6*%
X140389566Y-79109566D03*
X150200000Y-105800000D03*
X145700000Y-92100000D03*
%TO.N,CLCK*%
X157300000Y-69600000D03*
X154501207Y-80098793D03*
X155200000Y-93710000D03*
X157300000Y-80000000D03*
X157300000Y-93710000D03*
X154700000Y-69600000D03*
%TO.N,VCC*%
X155200000Y-94510003D03*
X154400000Y-63200000D03*
X143300000Y-101000000D03*
X153400000Y-85800000D03*
X154200000Y-98200000D03*
X154201000Y-70800000D03*
X154400000Y-107000000D03*
X148800000Y-81000000D03*
%TO.N,LATCH*%
X156600000Y-70800000D03*
X154404818Y-80995182D03*
X156600000Y-80995182D03*
X155200000Y-91300000D03*
X156600000Y-91800000D03*
%TO.N,SCL*%
X154500000Y-81900000D03*
%TO.N,EN_C*%
X154981314Y-101818686D03*
%TO.N,SWIO*%
X154600000Y-77800000D03*
%TO.N,SDA*%
X154200000Y-83100000D03*
%TO.N,Net-(U1-PD7{slash}RST)*%
X144000000Y-79100000D03*
X143300000Y-85300000D03*
%TO.N,EN_A*%
X148800000Y-82313577D03*
X151000000Y-74000000D03*
X152600000Y-75400000D03*
%TO.N,EN_R*%
X150400000Y-82000000D03*
X151600000Y-77200000D03*
X151100000Y-100300000D03*
%TO.N,Net-(J1-Pin_5)*%
X155800000Y-72200000D03*
%TD*%
D19*
%TO.N,R3*%
X144898000Y-79611439D02*
X145359439Y-79150000D01*
X145359439Y-79150000D02*
X147337500Y-79150000D01*
X146995001Y-89295001D02*
X147700000Y-89295001D01*
X145800000Y-88100000D02*
X146995001Y-89295001D01*
%TO.N,C5*%
X147600000Y-104260000D02*
X145940000Y-104260000D01*
D20*
X136460000Y-103120000D02*
X139000000Y-103120000D01*
D19*
X145940000Y-104260000D02*
X145900000Y-104300000D01*
%TO.N,R1*%
X147700000Y-85300000D02*
X147700000Y-86754999D01*
X145705189Y-81111687D02*
X145716876Y-81100000D01*
X145716876Y-81100000D02*
X147337500Y-81100000D01*
D20*
%TO.N,C7*%
X136460000Y-108200000D02*
X139000000Y-108200000D01*
D21*
X145900000Y-106800000D02*
X147600000Y-106800000D01*
D19*
%TO.N,C3*%
X145920001Y-101720001D02*
X145900000Y-101700000D01*
D20*
X136460000Y-98040000D02*
X139000000Y-98040000D01*
D19*
X147600000Y-101720001D02*
X145920001Y-101720001D01*
%TO.N,R0*%
X152087075Y-88025000D02*
X152700000Y-88025000D01*
X151231037Y-87168963D02*
X152087075Y-88025000D01*
X147337500Y-82400000D02*
X146300000Y-82400000D01*
D21*
%TO.N,C0*%
X151100000Y-101600000D02*
X151100000Y-101365901D01*
D20*
X136460000Y-90420000D02*
X139000000Y-90420000D01*
D21*
X153250000Y-100450000D02*
X152600000Y-100450000D01*
X151100000Y-101365901D02*
X152015901Y-100450000D01*
X152015901Y-100450000D02*
X152600000Y-100450000D01*
D19*
%TO.N,C6*%
X145929999Y-105529999D02*
X145900000Y-105500000D01*
D20*
X136460000Y-105660000D02*
X139000000Y-105660000D01*
D19*
X147600000Y-105529999D02*
X145929999Y-105529999D01*
%TO.N,R2*%
X145961050Y-79800000D02*
X147337500Y-79800000D01*
X145900000Y-86809099D02*
X147115901Y-88025000D01*
X145900000Y-86700000D02*
X145900000Y-86809099D01*
X147115901Y-88025000D02*
X147700000Y-88025000D01*
X145380525Y-80380525D02*
X145961050Y-79800000D01*
%TO.N,R5*%
X141089566Y-79410434D02*
X143899000Y-76601000D01*
X146935000Y-91835000D02*
X147700000Y-91835000D01*
X150400000Y-102250000D02*
X150400000Y-93535001D01*
X146299000Y-77200000D02*
X147337500Y-77200000D01*
X150400000Y-93535001D02*
X148699999Y-91835000D01*
X145500000Y-90400000D02*
X146935000Y-91835000D01*
X145700000Y-76601000D02*
X146299000Y-77200000D01*
X148699999Y-91835000D02*
X147700000Y-91835000D01*
X143899000Y-76601000D02*
X145700000Y-76601000D01*
X141089566Y-79610622D02*
X141089566Y-79410434D01*
X150950000Y-102800000D02*
X150400000Y-102250000D01*
%TO.N,R4*%
X146050058Y-77801000D02*
X147288500Y-77801000D01*
X141962690Y-79637310D02*
X144398000Y-77202000D01*
X145451058Y-77202000D02*
X146050058Y-77801000D01*
X147288500Y-77801000D02*
X147337500Y-77850000D01*
X147700000Y-90565000D02*
X148565000Y-90565000D01*
X146865000Y-90565000D02*
X147700000Y-90565000D01*
X144398000Y-77202000D02*
X145451058Y-77202000D01*
X144295682Y-87995682D02*
X146865000Y-90565000D01*
X141889124Y-79637310D02*
X141962690Y-79637310D01*
%TO.N,R7*%
X148098887Y-83151000D02*
X148186311Y-83063576D01*
X148699999Y-94375000D02*
X147700000Y-94375000D01*
X149200000Y-108000000D02*
X149200000Y-94875001D01*
X146750000Y-94400000D02*
X146775000Y-94375000D01*
X146775000Y-94375000D02*
X147700000Y-94375000D01*
X145500000Y-93300000D02*
X146600000Y-94400000D01*
D21*
X152100000Y-81100000D02*
X152000000Y-81200000D01*
X152000000Y-81200000D02*
X151800000Y-81200000D01*
D19*
X141891000Y-83151000D02*
X148098887Y-83151000D01*
X146600000Y-94400000D02*
X146750000Y-94400000D01*
D21*
X153062500Y-81100000D02*
X152100000Y-81100000D01*
D19*
X139000000Y-80260000D02*
X141891000Y-83151000D01*
X149200000Y-94875001D02*
X148699999Y-94375000D01*
%TO.N,C4*%
X147600000Y-102990000D02*
X145910000Y-102990000D01*
X145910000Y-102990000D02*
X145900000Y-103000000D01*
D20*
X136460000Y-100580000D02*
X139000000Y-100580000D01*
D19*
%TO.N,C2*%
X146150000Y-100450000D02*
X146100000Y-100500000D01*
D20*
X136460000Y-95520000D02*
X139000000Y-95520000D01*
D19*
X147600000Y-100450000D02*
X146150000Y-100450000D01*
%TO.N,C1*%
X147600000Y-99179999D02*
X146079999Y-99179999D01*
X146079999Y-99179999D02*
X146000000Y-99100000D01*
D20*
X136460000Y-92980000D02*
X139000000Y-92980000D01*
D19*
%TO.N,R6*%
X150200000Y-105800000D02*
X149800000Y-105400000D01*
X148699999Y-93104999D02*
X147700000Y-93104999D01*
X149800000Y-105400000D02*
X149800000Y-94205000D01*
X146787500Y-76000000D02*
X147337500Y-76550000D01*
X149800000Y-94205000D02*
X148699999Y-93104999D01*
X143499132Y-76000000D02*
X146787500Y-76000000D01*
X146704999Y-93104999D02*
X147700000Y-93104999D01*
X140389566Y-79109566D02*
X143499132Y-76000000D01*
X145700000Y-92100000D02*
X146704999Y-93104999D01*
%TO.N,Net-(U2-QH')*%
X154951000Y-100369000D02*
X153599999Y-101720001D01*
X153599999Y-101720001D02*
X152600000Y-101720001D01*
X154951000Y-97896001D02*
X154951000Y-100369000D01*
X152700000Y-95645001D02*
X154951000Y-97896001D01*
%TO.N,DATA*%
X155202207Y-80389157D02*
X155200000Y-80391364D01*
X155200000Y-80391364D02*
X155200000Y-87795000D01*
X153699999Y-89295001D02*
X152700000Y-89295001D01*
X154791571Y-79397793D02*
X155202207Y-79808429D01*
X153062500Y-79150000D02*
X154542364Y-79150000D01*
X155200000Y-87795000D02*
X153699999Y-89295001D01*
X154542364Y-79150000D02*
X154790157Y-79397793D01*
X154790157Y-79397793D02*
X154791571Y-79397793D01*
X155202207Y-79808429D02*
X155202207Y-80389157D01*
%TO.N,CLCK*%
X154110000Y-93710000D02*
X153504999Y-93104999D01*
X154202414Y-79800000D02*
X153062500Y-79800000D01*
X157300000Y-69600000D02*
X157300000Y-80000000D01*
X153504999Y-93104999D02*
X152700000Y-93104999D01*
X157300000Y-93710000D02*
X157300000Y-103300000D01*
X155200000Y-93710000D02*
X154110000Y-93710000D01*
X154700000Y-69600000D02*
X154200000Y-69600000D01*
X157300000Y-80000000D02*
X157300000Y-93710000D01*
X154501207Y-80098793D02*
X154202414Y-79800000D01*
X157300000Y-103300000D02*
X155070001Y-105529999D01*
X154060000Y-69460000D02*
X152700000Y-69460000D01*
X155070001Y-105529999D02*
X152600000Y-105529999D01*
X154200000Y-69600000D02*
X154060000Y-69460000D01*
D21*
%TO.N,VCC*%
X152600000Y-106800000D02*
X154200000Y-106800000D01*
D19*
X148136292Y-81750000D02*
X147337500Y-81750000D01*
X148800000Y-81086292D02*
X148136292Y-81750000D01*
X148800000Y-81000000D02*
X148800000Y-81086292D01*
X143300000Y-103062501D02*
X143300000Y-101000000D01*
X152700000Y-86500000D02*
X152700000Y-86754999D01*
X152835003Y-94510003D02*
X152700000Y-94375000D01*
D21*
X154200000Y-98200000D02*
X153579999Y-98200000D01*
D19*
X153400000Y-85800000D02*
X152700000Y-86500000D01*
D21*
X154200000Y-106800000D02*
X154400000Y-107000000D01*
X154201000Y-70800000D02*
X152770000Y-70800000D01*
D19*
X154310000Y-63110000D02*
X154400000Y-63200000D01*
D21*
X153579999Y-98200000D02*
X152600000Y-99179999D01*
D19*
X155200000Y-94510003D02*
X152835003Y-94510003D01*
X152700000Y-63110000D02*
X154310000Y-63110000D01*
D21*
X152770000Y-70800000D02*
X152700000Y-70730000D01*
D19*
%TO.N,LATCH*%
X154665000Y-91835000D02*
X155200000Y-91300000D01*
X152700000Y-91835000D02*
X154665000Y-91835000D01*
X154404818Y-80995182D02*
X153859636Y-80450000D01*
X156600000Y-80995182D02*
X156600000Y-91800000D01*
X152710000Y-68200000D02*
X152700000Y-68190000D01*
X153859636Y-80450000D02*
X153062500Y-80450000D01*
X154440000Y-104260000D02*
X152600000Y-104260000D01*
X155500000Y-68200000D02*
X152710000Y-68200000D01*
X156600000Y-69300000D02*
X155500000Y-68200000D01*
X156600000Y-102100000D02*
X154440000Y-104260000D01*
X156600000Y-91800000D02*
X156600000Y-102100000D01*
X156600000Y-70800000D02*
X156600000Y-69300000D01*
X156600000Y-80995182D02*
X156600000Y-70800000D01*
%TO.N,SCL*%
X154350000Y-81750000D02*
X153062500Y-81750000D01*
X154500000Y-81900000D02*
X154350000Y-81750000D01*
%TO.N,EN_C*%
X153810000Y-102990000D02*
X152600000Y-102990000D01*
X155900000Y-100900000D02*
X155900000Y-79657694D01*
X154742306Y-78500000D02*
X155900000Y-79657694D01*
X154981314Y-101818686D02*
X153810000Y-102990000D01*
X154981314Y-101818686D02*
X155900000Y-100900000D01*
X153062500Y-78500000D02*
X154742306Y-78500000D01*
%TO.N,SWIO*%
X154600000Y-77800000D02*
X154550000Y-77850000D01*
X154550000Y-77850000D02*
X153062500Y-77850000D01*
%TO.N,A_2*%
X137769000Y-66291000D02*
X137749000Y-66271000D01*
X141800000Y-64380000D02*
X139889000Y-66291000D01*
X137749000Y-66271000D02*
X136460000Y-67560000D01*
X147700000Y-64380000D02*
X141800000Y-64380000D01*
X139889000Y-66291000D02*
X137769000Y-66291000D01*
%TO.N,A_0*%
X151780000Y-64380000D02*
X148629000Y-61229000D01*
X152700000Y-64380000D02*
X151780000Y-64380000D01*
X137711000Y-61229000D02*
X136460000Y-62480000D01*
X148629000Y-61229000D02*
X137711000Y-61229000D01*
%TO.N,A_3*%
X147700000Y-65650000D02*
X143000000Y-65650000D01*
X143000000Y-65650000D02*
X139819000Y-68831000D01*
X139819000Y-68831000D02*
X137729000Y-68831000D01*
X137729000Y-68831000D02*
X136460000Y-70100000D01*
%TO.N,A_4*%
X137711000Y-71389000D02*
X136460000Y-72640000D01*
X139500182Y-71389000D02*
X137711000Y-71389000D01*
X147700000Y-66920000D02*
X143949182Y-66920000D01*
X143534591Y-67354591D02*
X139500182Y-71389000D01*
X143949182Y-66920000D02*
X143534591Y-67334591D01*
X143534591Y-67334591D02*
X143534591Y-67354591D01*
%TO.N,A_5*%
X147700000Y-68190000D02*
X145219182Y-68190000D01*
X145219182Y-68190000D02*
X144104591Y-69304591D01*
X137729000Y-73911000D02*
X136460000Y-75180000D01*
X139518182Y-73911000D02*
X137729000Y-73911000D01*
X144104591Y-69304591D02*
X144104591Y-69324591D01*
X144104591Y-69324591D02*
X139518182Y-73911000D01*
%TO.N,A_6*%
X142074591Y-73894591D02*
X139518182Y-76451000D01*
X142074591Y-73874591D02*
X142074591Y-73894591D01*
X147700000Y-69460000D02*
X146489182Y-69460000D01*
X137729000Y-76451000D02*
X136460000Y-77720000D01*
X139518182Y-76451000D02*
X137729000Y-76451000D01*
X146489182Y-69460000D02*
X142074591Y-73874591D01*
%TO.N,A_7*%
X139518182Y-78991000D02*
X137729000Y-78991000D01*
X143294591Y-75194591D02*
X143294591Y-75214591D01*
X137729000Y-78991000D02*
X136460000Y-80260000D01*
X146069124Y-72420058D02*
X143294591Y-75194591D01*
X143294591Y-75214591D02*
X139518182Y-78991000D01*
X146069124Y-71360877D02*
X146069124Y-72420058D01*
X147700000Y-70730000D02*
X146700001Y-70730000D01*
X146700001Y-70730000D02*
X146069124Y-71360877D01*
%TO.N,A_1*%
X139641000Y-63769000D02*
X140300000Y-63110000D01*
X136460000Y-65020000D02*
X137711000Y-63769000D01*
X140300000Y-63110000D02*
X147700000Y-63110000D01*
X137711000Y-63769000D02*
X139641000Y-63769000D01*
%TO.N,SDA*%
X154200000Y-83100000D02*
X153762500Y-83100000D01*
X153762500Y-83100000D02*
X153062500Y-82400000D01*
%TO.N,Net-(D1-A)*%
X143300000Y-104712501D02*
X143300000Y-106100000D01*
%TO.N,Net-(U1-PD7{slash}RST)*%
X143000000Y-90525000D02*
X143000000Y-85600000D01*
X144375000Y-94325000D02*
X144375000Y-98475000D01*
X144600000Y-78500000D02*
X144000000Y-79100000D01*
X147337500Y-78500000D02*
X144600000Y-78500000D01*
X144375000Y-91900000D02*
X144375000Y-94325000D01*
X143000000Y-90525000D02*
X144375000Y-91900000D01*
X143000000Y-85600000D02*
X143300000Y-85300000D01*
%TO.N,Net-(U3-QH')*%
X154321363Y-108070001D02*
X152600000Y-108070001D01*
X155600000Y-65650000D02*
X158049000Y-68099000D01*
X158049000Y-104342364D02*
X154321363Y-108070001D01*
X158049000Y-68099000D02*
X158049000Y-104342364D01*
X152700000Y-65650000D02*
X155600000Y-65650000D01*
%TO.N,EN_A*%
X148887311Y-83514689D02*
X148600000Y-83802000D01*
X148600000Y-83802000D02*
X140002000Y-83802000D01*
D21*
X152512500Y-75487500D02*
X152512500Y-76000000D01*
X151000000Y-74000000D02*
X151000000Y-67620001D01*
X151000000Y-67620001D02*
X151700001Y-66920000D01*
X152512500Y-76000000D02*
X153062500Y-76550000D01*
D19*
X148800000Y-82313577D02*
X148887311Y-82400888D01*
X148887311Y-82400888D02*
X148887311Y-83514689D01*
D21*
X152600000Y-75400000D02*
X152512500Y-75487500D01*
D19*
X140002000Y-83802000D02*
X139000000Y-82800000D01*
%TO.N,EN_R*%
X150400000Y-89264999D02*
X150400000Y-84600000D01*
X151600000Y-77200000D02*
X153062500Y-77200000D01*
X151700001Y-90565000D02*
X150400000Y-89264999D01*
X152700000Y-90565000D02*
X151700001Y-90565000D01*
X151100000Y-100300000D02*
X151100000Y-89964999D01*
X150400000Y-82000000D02*
X150400000Y-84600000D01*
X151100000Y-89964999D02*
X150517501Y-89382499D01*
%TO.N,Net-(J1-Pin_5)*%
X152700000Y-72000000D02*
X155600000Y-72000000D01*
X155600000Y-72000000D02*
X155800000Y-72200000D01*
%TD*%
%TA.AperFunction,Conductor*%
%TO.N,GND*%
G36*
X137070074Y-61020185D02*
G01*
X137115829Y-61072989D01*
X137125773Y-61142147D01*
X137096748Y-61205703D01*
X137090716Y-61212181D01*
X136939716Y-61363181D01*
X136878393Y-61396666D01*
X136852035Y-61399500D01*
X135585323Y-61399500D01*
X135512264Y-61414032D01*
X135512260Y-61414033D01*
X135429399Y-61469399D01*
X135374033Y-61552260D01*
X135374032Y-61552264D01*
X135359500Y-61625321D01*
X135359500Y-63374678D01*
X135374032Y-63447735D01*
X135374033Y-63447739D01*
X135374034Y-63447740D01*
X135429399Y-63530601D01*
X135503608Y-63580185D01*
X135512260Y-63585966D01*
X135512264Y-63585967D01*
X135585321Y-63600499D01*
X135585324Y-63600500D01*
X135585326Y-63600500D01*
X136943034Y-63600500D01*
X137010073Y-63620185D01*
X137055828Y-63672989D01*
X137065772Y-63742147D01*
X137036747Y-63805703D01*
X137030722Y-63812174D01*
X136940947Y-63901949D01*
X136891135Y-63951761D01*
X136829812Y-63985245D01*
X136765136Y-63982010D01*
X136717704Y-63966598D01*
X136589383Y-63946274D01*
X136546611Y-63939500D01*
X136373389Y-63939500D01*
X136333728Y-63945781D01*
X136202302Y-63966597D01*
X136037552Y-64020128D01*
X135883211Y-64098768D01*
X135813187Y-64149644D01*
X135743072Y-64200586D01*
X135743070Y-64200588D01*
X135743069Y-64200588D01*
X135620588Y-64323069D01*
X135620588Y-64323070D01*
X135620586Y-64323072D01*
X135615613Y-64329917D01*
X135518768Y-64463211D01*
X135440128Y-64617552D01*
X135386597Y-64782302D01*
X135359500Y-64953389D01*
X135359500Y-65126610D01*
X135385300Y-65289511D01*
X135386598Y-65297701D01*
X135440127Y-65462445D01*
X135518768Y-65616788D01*
X135620586Y-65756928D01*
X135743072Y-65879414D01*
X135883212Y-65981232D01*
X136037555Y-66059873D01*
X136202299Y-66113402D01*
X136373389Y-66140500D01*
X136373390Y-66140500D01*
X136546610Y-66140500D01*
X136546611Y-66140500D01*
X136717701Y-66113402D01*
X136882445Y-66059873D01*
X137036788Y-65981232D01*
X137096438Y-65937893D01*
X137162240Y-65914414D01*
X137230294Y-65930238D01*
X137278990Y-65980343D01*
X137292866Y-66048821D01*
X137267518Y-66113930D01*
X137257002Y-66125893D01*
X136891135Y-66491760D01*
X136829812Y-66525245D01*
X136765136Y-66522010D01*
X136717704Y-66506598D01*
X136589383Y-66486274D01*
X136546611Y-66479500D01*
X136373389Y-66479500D01*
X136333728Y-66485781D01*
X136202302Y-66506597D01*
X136037552Y-66560128D01*
X135883211Y-66638768D01*
X135803256Y-66696859D01*
X135743072Y-66740586D01*
X135743070Y-66740588D01*
X135743069Y-66740588D01*
X135620588Y-66863069D01*
X135620588Y-66863070D01*
X135620586Y-66863072D01*
X135615825Y-66869625D01*
X135518768Y-67003211D01*
X135440128Y-67157552D01*
X135386597Y-67322302D01*
X135359500Y-67493389D01*
X135359500Y-67666610D01*
X135385300Y-67829511D01*
X135386598Y-67837701D01*
X135440127Y-68002445D01*
X135518768Y-68156788D01*
X135620586Y-68296928D01*
X135743072Y-68419414D01*
X135883212Y-68521232D01*
X136037555Y-68599873D01*
X136202299Y-68653402D01*
X136373389Y-68680500D01*
X136373390Y-68680500D01*
X136546610Y-68680500D01*
X136546611Y-68680500D01*
X136717701Y-68653402D01*
X136882445Y-68599873D01*
X137036788Y-68521232D01*
X137096438Y-68477893D01*
X137162240Y-68454414D01*
X137230294Y-68470238D01*
X137278990Y-68520343D01*
X137292866Y-68588821D01*
X137267518Y-68653930D01*
X137257002Y-68665893D01*
X136891135Y-69031760D01*
X136829812Y-69065245D01*
X136765136Y-69062010D01*
X136717704Y-69046598D01*
X136571127Y-69023383D01*
X136546611Y-69019500D01*
X136373389Y-69019500D01*
X136348873Y-69023383D01*
X136202302Y-69046597D01*
X136037552Y-69100128D01*
X135883211Y-69178768D01*
X135824069Y-69221738D01*
X135743072Y-69280586D01*
X135743070Y-69280588D01*
X135743069Y-69280588D01*
X135620588Y-69403069D01*
X135620588Y-69403070D01*
X135620586Y-69403072D01*
X135606001Y-69423147D01*
X135518768Y-69543211D01*
X135440128Y-69697552D01*
X135386597Y-69862302D01*
X135359500Y-70033389D01*
X135359500Y-70206610D01*
X135385300Y-70369510D01*
X135386598Y-70377701D01*
X135440127Y-70542445D01*
X135518768Y-70696788D01*
X135620586Y-70836928D01*
X135743072Y-70959414D01*
X135883212Y-71061232D01*
X136037555Y-71139873D01*
X136202299Y-71193402D01*
X136373389Y-71220500D01*
X136373390Y-71220500D01*
X136546610Y-71220500D01*
X136546611Y-71220500D01*
X136717701Y-71193402D01*
X136882445Y-71139873D01*
X137036788Y-71061232D01*
X137096438Y-71017893D01*
X137162240Y-70994414D01*
X137230294Y-71010238D01*
X137278990Y-71060343D01*
X137292866Y-71128821D01*
X137267518Y-71193930D01*
X137257002Y-71205893D01*
X136891135Y-71571760D01*
X136829812Y-71605245D01*
X136765136Y-71602010D01*
X136717704Y-71586598D01*
X136589383Y-71566274D01*
X136546611Y-71559500D01*
X136373389Y-71559500D01*
X136333728Y-71565781D01*
X136202302Y-71586597D01*
X136037552Y-71640128D01*
X135883211Y-71718768D01*
X135824801Y-71761206D01*
X135743072Y-71820586D01*
X135743070Y-71820588D01*
X135743069Y-71820588D01*
X135620588Y-71943069D01*
X135620588Y-71943070D01*
X135620586Y-71943072D01*
X135592923Y-71981147D01*
X135518768Y-72083211D01*
X135440128Y-72237552D01*
X135386597Y-72402302D01*
X135365478Y-72535645D01*
X135359500Y-72573389D01*
X135359500Y-72746611D01*
X135386598Y-72917701D01*
X135440127Y-73082445D01*
X135518768Y-73236788D01*
X135620586Y-73376928D01*
X135743072Y-73499414D01*
X135883212Y-73601232D01*
X136037555Y-73679873D01*
X136202299Y-73733402D01*
X136373389Y-73760500D01*
X136373390Y-73760500D01*
X136546610Y-73760500D01*
X136546611Y-73760500D01*
X136717701Y-73733402D01*
X136882445Y-73679873D01*
X137036788Y-73601232D01*
X137096438Y-73557893D01*
X137162240Y-73534414D01*
X137230294Y-73550238D01*
X137278990Y-73600343D01*
X137292866Y-73668821D01*
X137267518Y-73733930D01*
X137257002Y-73745893D01*
X136891135Y-74111760D01*
X136829812Y-74145245D01*
X136765136Y-74142010D01*
X136717704Y-74126598D01*
X136589383Y-74106274D01*
X136546611Y-74099500D01*
X136373389Y-74099500D01*
X136333728Y-74105781D01*
X136202302Y-74126597D01*
X136037552Y-74180128D01*
X135883211Y-74258768D01*
X135824069Y-74301738D01*
X135743072Y-74360586D01*
X135743070Y-74360588D01*
X135743069Y-74360588D01*
X135620588Y-74483069D01*
X135620588Y-74483070D01*
X135620586Y-74483072D01*
X135606001Y-74503147D01*
X135518768Y-74623211D01*
X135440128Y-74777552D01*
X135386597Y-74942302D01*
X135367641Y-75061988D01*
X135359500Y-75113389D01*
X135359500Y-75286611D01*
X135386598Y-75457701D01*
X135410029Y-75529815D01*
X135440128Y-75622447D01*
X135483573Y-75707713D01*
X135518768Y-75776788D01*
X135620586Y-75916928D01*
X135743072Y-76039414D01*
X135883212Y-76141232D01*
X136037555Y-76219873D01*
X136202299Y-76273402D01*
X136373389Y-76300500D01*
X136373390Y-76300500D01*
X136546610Y-76300500D01*
X136546611Y-76300500D01*
X136717701Y-76273402D01*
X136882445Y-76219873D01*
X137036788Y-76141232D01*
X137096438Y-76097893D01*
X137162240Y-76074414D01*
X137230294Y-76090238D01*
X137278990Y-76140343D01*
X137292866Y-76208821D01*
X137267518Y-76273930D01*
X137257002Y-76285893D01*
X136891135Y-76651760D01*
X136829812Y-76685245D01*
X136765136Y-76682010D01*
X136717704Y-76666598D01*
X136589383Y-76646274D01*
X136546611Y-76639500D01*
X136373389Y-76639500D01*
X136333728Y-76645781D01*
X136202302Y-76666597D01*
X136037552Y-76720128D01*
X135883211Y-76798768D01*
X135810444Y-76851637D01*
X135743072Y-76900586D01*
X135743070Y-76900588D01*
X135743069Y-76900588D01*
X135620588Y-77023069D01*
X135620588Y-77023070D01*
X135620586Y-77023072D01*
X135606001Y-77043147D01*
X135518768Y-77163211D01*
X135440128Y-77317552D01*
X135386597Y-77482302D01*
X135359500Y-77653389D01*
X135359500Y-77826610D01*
X135384310Y-77983260D01*
X135386598Y-77997701D01*
X135440127Y-78162445D01*
X135518768Y-78316788D01*
X135620586Y-78456928D01*
X135743072Y-78579414D01*
X135883212Y-78681232D01*
X136037555Y-78759873D01*
X136202299Y-78813402D01*
X136373389Y-78840500D01*
X136373390Y-78840500D01*
X136546610Y-78840500D01*
X136546611Y-78840500D01*
X136717701Y-78813402D01*
X136882445Y-78759873D01*
X137036788Y-78681232D01*
X137096438Y-78637893D01*
X137162240Y-78614414D01*
X137230294Y-78630238D01*
X137278990Y-78680343D01*
X137292866Y-78748821D01*
X137267518Y-78813930D01*
X137257002Y-78825893D01*
X136891135Y-79191760D01*
X136829812Y-79225245D01*
X136765136Y-79222010D01*
X136717704Y-79206598D01*
X136589383Y-79186274D01*
X136546611Y-79179500D01*
X136373389Y-79179500D01*
X136333728Y-79185781D01*
X136202302Y-79206597D01*
X136202299Y-79206598D01*
X136042923Y-79258383D01*
X136037552Y-79260128D01*
X135883211Y-79338768D01*
X135803256Y-79396859D01*
X135743072Y-79440586D01*
X135743070Y-79440588D01*
X135743069Y-79440588D01*
X135620588Y-79563069D01*
X135620588Y-79563070D01*
X135620586Y-79563072D01*
X135606001Y-79583147D01*
X135518768Y-79703211D01*
X135440128Y-79857552D01*
X135386597Y-80022302D01*
X135364481Y-80161939D01*
X135359500Y-80193389D01*
X135359500Y-80366611D01*
X135367677Y-80418239D01*
X135386597Y-80537697D01*
X135386597Y-80537699D01*
X135386598Y-80537701D01*
X135440127Y-80702445D01*
X135518768Y-80856788D01*
X135620586Y-80996928D01*
X135743072Y-81119414D01*
X135883212Y-81221232D01*
X136037555Y-81299873D01*
X136040708Y-81300897D01*
X136041752Y-81301611D01*
X136042048Y-81301734D01*
X136042022Y-81301795D01*
X136098383Y-81340330D01*
X136125585Y-81404688D01*
X136113674Y-81473535D01*
X136066433Y-81525013D01*
X136040712Y-81536760D01*
X135941783Y-81568904D01*
X135752439Y-81665380D01*
X135698282Y-81704727D01*
X135698282Y-81704728D01*
X136330591Y-82337037D01*
X136267007Y-82354075D01*
X136152993Y-82419901D01*
X136059901Y-82512993D01*
X135994075Y-82627007D01*
X135977037Y-82690591D01*
X135344728Y-82058282D01*
X135344727Y-82058282D01*
X135305380Y-82112439D01*
X135208904Y-82301782D01*
X135143242Y-82503869D01*
X135143242Y-82503872D01*
X135110000Y-82713753D01*
X135110000Y-82926246D01*
X135143242Y-83136127D01*
X135143242Y-83136130D01*
X135208904Y-83338217D01*
X135305375Y-83527550D01*
X135344728Y-83581716D01*
X135977037Y-82949408D01*
X135994075Y-83012993D01*
X136059901Y-83127007D01*
X136152993Y-83220099D01*
X136267007Y-83285925D01*
X136330591Y-83302962D01*
X135729971Y-83903581D01*
X135808711Y-84020895D01*
X135809920Y-84024729D01*
X135812844Y-84027491D01*
X135820343Y-84057778D01*
X135829727Y-84087529D01*
X135828671Y-84091408D01*
X135829638Y-84095312D01*
X135819573Y-84124844D01*
X135811383Y-84154947D01*
X135808397Y-84157640D01*
X135807100Y-84161447D01*
X135762051Y-84200483D01*
X135752440Y-84205380D01*
X135698282Y-84244727D01*
X135698282Y-84244728D01*
X136330591Y-84877037D01*
X136267007Y-84894075D01*
X136152993Y-84959901D01*
X136059901Y-85052993D01*
X135994075Y-85167007D01*
X135977037Y-85230591D01*
X135344728Y-84598282D01*
X135344727Y-84598282D01*
X135305380Y-84652439D01*
X135208904Y-84841782D01*
X135143242Y-85043869D01*
X135143242Y-85043872D01*
X135110000Y-85253753D01*
X135110000Y-85466246D01*
X135143242Y-85676127D01*
X135143242Y-85676130D01*
X135208904Y-85878217D01*
X135305375Y-86067550D01*
X135344728Y-86121716D01*
X135977037Y-85489408D01*
X135994075Y-85552993D01*
X136059901Y-85667007D01*
X136152993Y-85760099D01*
X136267007Y-85825925D01*
X136330591Y-85842962D01*
X135729971Y-86443581D01*
X135808711Y-86560895D01*
X135809920Y-86564729D01*
X135812844Y-86567491D01*
X135820343Y-86597778D01*
X135829727Y-86627529D01*
X135828671Y-86631408D01*
X135829638Y-86635312D01*
X135819573Y-86664844D01*
X135811383Y-86694947D01*
X135808397Y-86697640D01*
X135807100Y-86701447D01*
X135762051Y-86740483D01*
X135752440Y-86745380D01*
X135698282Y-86784727D01*
X135698282Y-86784728D01*
X136330591Y-87417037D01*
X136267007Y-87434075D01*
X136152993Y-87499901D01*
X136059901Y-87592993D01*
X135994075Y-87707007D01*
X135977037Y-87770591D01*
X135344728Y-87138282D01*
X135344727Y-87138282D01*
X135305380Y-87192439D01*
X135208904Y-87381782D01*
X135143242Y-87583869D01*
X135143242Y-87583872D01*
X135110000Y-87793753D01*
X135110000Y-88006246D01*
X135143242Y-88216127D01*
X135143242Y-88216130D01*
X135208904Y-88418217D01*
X135305375Y-88607550D01*
X135344728Y-88661716D01*
X135977037Y-88029408D01*
X135994075Y-88092993D01*
X136059901Y-88207007D01*
X136152993Y-88300099D01*
X136267007Y-88365925D01*
X136330590Y-88382962D01*
X135698282Y-89015269D01*
X135698282Y-89015270D01*
X135752449Y-89054624D01*
X135941784Y-89151096D01*
X136040711Y-89183239D01*
X136098387Y-89222676D01*
X136125586Y-89287034D01*
X136113672Y-89355881D01*
X136066428Y-89407357D01*
X136040722Y-89419097D01*
X136039522Y-89419487D01*
X136037550Y-89420128D01*
X135883211Y-89498768D01*
X135803256Y-89556859D01*
X135743072Y-89600586D01*
X135743070Y-89600588D01*
X135743069Y-89600588D01*
X135620588Y-89723069D01*
X135620588Y-89723070D01*
X135620586Y-89723072D01*
X135619339Y-89724789D01*
X135518768Y-89863211D01*
X135440128Y-90017552D01*
X135386597Y-90182302D01*
X135359500Y-90353389D01*
X135359500Y-90526610D01*
X135378997Y-90649714D01*
X135386598Y-90697701D01*
X135440127Y-90862445D01*
X135518768Y-91016788D01*
X135620586Y-91156928D01*
X135743072Y-91279414D01*
X135883212Y-91381232D01*
X136037555Y-91459873D01*
X136202299Y-91513402D01*
X136373389Y-91540500D01*
X136373390Y-91540500D01*
X136546610Y-91540500D01*
X136546611Y-91540500D01*
X136717701Y-91513402D01*
X136882445Y-91459873D01*
X137036788Y-91381232D01*
X137176928Y-91279414D01*
X137249523Y-91206819D01*
X137310846Y-91173334D01*
X137337204Y-91170500D01*
X138122796Y-91170500D01*
X138189835Y-91190185D01*
X138210477Y-91206819D01*
X138283072Y-91279414D01*
X138423212Y-91381232D01*
X138577555Y-91459873D01*
X138742299Y-91513402D01*
X138913389Y-91540500D01*
X138913390Y-91540500D01*
X139086610Y-91540500D01*
X139086611Y-91540500D01*
X139257701Y-91513402D01*
X139422445Y-91459873D01*
X139576788Y-91381232D01*
X139716928Y-91279414D01*
X139839414Y-91156928D01*
X139941232Y-91016788D01*
X140019873Y-90862445D01*
X140073402Y-90697701D01*
X140100500Y-90526611D01*
X140100500Y-90353389D01*
X140073402Y-90182299D01*
X140019873Y-90017555D01*
X139941232Y-89863212D01*
X139839414Y-89723072D01*
X139716928Y-89600586D01*
X139576788Y-89498768D01*
X139533123Y-89476520D01*
X139422447Y-89420128D01*
X139422446Y-89420127D01*
X139422445Y-89420127D01*
X139257701Y-89366598D01*
X139257699Y-89366597D01*
X139257698Y-89366597D01*
X139126271Y-89345781D01*
X139086611Y-89339500D01*
X138913389Y-89339500D01*
X138873728Y-89345781D01*
X138742302Y-89366597D01*
X138742299Y-89366598D01*
X138582923Y-89418383D01*
X138577552Y-89420128D01*
X138423211Y-89498768D01*
X138343256Y-89556859D01*
X138283072Y-89600586D01*
X138283070Y-89600588D01*
X138283069Y-89600588D01*
X138250477Y-89633181D01*
X138189154Y-89666666D01*
X138162796Y-89669500D01*
X137297204Y-89669500D01*
X137230165Y-89649815D01*
X137209523Y-89633181D01*
X137176930Y-89600588D01*
X137176928Y-89600586D01*
X137036788Y-89498768D01*
X137021205Y-89490828D01*
X136882446Y-89420127D01*
X136879284Y-89419100D01*
X136878236Y-89418383D01*
X136877952Y-89418266D01*
X136877976Y-89418206D01*
X136821609Y-89379661D01*
X136794413Y-89315302D01*
X136806329Y-89246456D01*
X136853574Y-89194981D01*
X136879288Y-89183239D01*
X136978215Y-89151096D01*
X137167554Y-89054622D01*
X137221716Y-89015270D01*
X137221717Y-89015270D01*
X136589408Y-88382962D01*
X136652993Y-88365925D01*
X136767007Y-88300099D01*
X136860099Y-88207007D01*
X136925925Y-88092993D01*
X136942962Y-88029409D01*
X137575270Y-88661717D01*
X137575270Y-88661716D01*
X137614622Y-88607554D01*
X137711096Y-88418215D01*
X137743239Y-88319288D01*
X137782676Y-88261612D01*
X137847034Y-88234413D01*
X137915880Y-88246327D01*
X137967357Y-88293571D01*
X137979100Y-88319284D01*
X137980127Y-88322446D01*
X138002281Y-88365925D01*
X138058768Y-88476788D01*
X138160586Y-88616928D01*
X138283072Y-88739414D01*
X138423212Y-88841232D01*
X138577555Y-88919873D01*
X138742299Y-88973402D01*
X138913389Y-89000500D01*
X138913390Y-89000500D01*
X139086610Y-89000500D01*
X139086611Y-89000500D01*
X139257701Y-88973402D01*
X139422445Y-88919873D01*
X139576788Y-88841232D01*
X139716928Y-88739414D01*
X139839414Y-88616928D01*
X139941232Y-88476788D01*
X140019873Y-88322445D01*
X140073402Y-88157701D01*
X140100500Y-87986611D01*
X140100500Y-87813389D01*
X140073402Y-87642299D01*
X140019873Y-87477555D01*
X139941232Y-87323212D01*
X139839414Y-87183072D01*
X139716928Y-87060586D01*
X139576788Y-86958768D01*
X139422445Y-86880127D01*
X139257701Y-86826598D01*
X139257699Y-86826597D01*
X139257698Y-86826597D01*
X139126271Y-86805781D01*
X139086611Y-86799500D01*
X138913389Y-86799500D01*
X138873728Y-86805781D01*
X138742302Y-86826597D01*
X138577552Y-86880128D01*
X138423211Y-86958768D01*
X138343256Y-87016859D01*
X138283072Y-87060586D01*
X138283070Y-87060588D01*
X138283069Y-87060588D01*
X138160588Y-87183069D01*
X138160588Y-87183070D01*
X138160586Y-87183072D01*
X138116859Y-87243256D01*
X138058768Y-87323211D01*
X137980128Y-87477550D01*
X137979099Y-87480720D01*
X137978381Y-87481769D01*
X137978266Y-87482048D01*
X137978207Y-87482023D01*
X137939657Y-87538393D01*
X137875297Y-87565587D01*
X137806451Y-87553668D01*
X137754979Y-87506420D01*
X137743239Y-87480711D01*
X137711096Y-87381784D01*
X137614624Y-87192449D01*
X137575270Y-87138282D01*
X137575269Y-87138282D01*
X136942962Y-87770590D01*
X136925925Y-87707007D01*
X136860099Y-87592993D01*
X136767007Y-87499901D01*
X136652993Y-87434075D01*
X136589409Y-87417037D01*
X137221716Y-86784728D01*
X137167550Y-86745375D01*
X137157954Y-86740486D01*
X137107157Y-86692512D01*
X137090361Y-86624692D01*
X137112897Y-86558556D01*
X137157954Y-86519514D01*
X137167554Y-86514622D01*
X137221716Y-86475270D01*
X137221717Y-86475270D01*
X136589408Y-85842962D01*
X136652993Y-85825925D01*
X136767007Y-85760099D01*
X136860099Y-85667007D01*
X136925925Y-85552993D01*
X136942962Y-85489409D01*
X137575270Y-86121717D01*
X137575270Y-86121716D01*
X137614622Y-86067554D01*
X137711096Y-85878215D01*
X137743239Y-85779288D01*
X137782676Y-85721612D01*
X137847034Y-85694413D01*
X137915880Y-85706327D01*
X137967357Y-85753571D01*
X137979100Y-85779284D01*
X137980127Y-85782446D01*
X138025999Y-85872475D01*
X138058768Y-85936788D01*
X138160586Y-86076928D01*
X138283072Y-86199414D01*
X138423212Y-86301232D01*
X138577555Y-86379873D01*
X138742299Y-86433402D01*
X138913389Y-86460500D01*
X138913390Y-86460500D01*
X139086610Y-86460500D01*
X139086611Y-86460500D01*
X139257701Y-86433402D01*
X139422445Y-86379873D01*
X139576788Y-86301232D01*
X139716928Y-86199414D01*
X139839414Y-86076928D01*
X139941232Y-85936788D01*
X140019873Y-85782445D01*
X140073402Y-85617701D01*
X140100500Y-85446611D01*
X140100500Y-85273389D01*
X140073402Y-85102299D01*
X140019873Y-84937555D01*
X139941232Y-84783212D01*
X139839414Y-84643072D01*
X139716928Y-84520586D01*
X139576788Y-84418768D01*
X139422445Y-84340127D01*
X139257701Y-84286598D01*
X139257699Y-84286597D01*
X139257698Y-84286597D01*
X139126271Y-84265781D01*
X139086611Y-84259500D01*
X138913389Y-84259500D01*
X138873728Y-84265781D01*
X138742302Y-84286597D01*
X138577552Y-84340128D01*
X138423211Y-84418768D01*
X138364069Y-84461738D01*
X138283072Y-84520586D01*
X138283070Y-84520588D01*
X138283069Y-84520588D01*
X138160588Y-84643069D01*
X138160588Y-84643070D01*
X138160586Y-84643072D01*
X138116859Y-84703256D01*
X138058768Y-84783211D01*
X137980128Y-84937550D01*
X137979099Y-84940720D01*
X137978381Y-84941769D01*
X137978266Y-84942048D01*
X137978207Y-84942023D01*
X137939657Y-84998393D01*
X137875297Y-85025587D01*
X137806451Y-85013668D01*
X137754979Y-84966420D01*
X137743239Y-84940711D01*
X137711096Y-84841784D01*
X137614624Y-84652449D01*
X137575270Y-84598282D01*
X137575269Y-84598282D01*
X136942962Y-85230590D01*
X136925925Y-85167007D01*
X136860099Y-85052993D01*
X136767007Y-84959901D01*
X136652993Y-84894075D01*
X136589409Y-84877037D01*
X137221716Y-84244728D01*
X137167550Y-84205375D01*
X137157954Y-84200486D01*
X137107157Y-84152512D01*
X137090361Y-84084692D01*
X137112897Y-84018556D01*
X137157954Y-83979514D01*
X137167554Y-83974622D01*
X137221716Y-83935270D01*
X137221717Y-83935270D01*
X136589408Y-83302962D01*
X136652993Y-83285925D01*
X136767007Y-83220099D01*
X136860099Y-83127007D01*
X136925925Y-83012993D01*
X136942962Y-82949409D01*
X137575270Y-83581717D01*
X137575270Y-83581716D01*
X137614622Y-83527554D01*
X137711096Y-83338215D01*
X137743239Y-83239288D01*
X137782676Y-83181612D01*
X137847034Y-83154413D01*
X137915880Y-83166327D01*
X137967357Y-83213571D01*
X137979100Y-83239284D01*
X137980127Y-83242446D01*
X138019643Y-83320000D01*
X138058768Y-83396788D01*
X138160586Y-83536928D01*
X138283072Y-83659414D01*
X138423212Y-83761232D01*
X138577555Y-83839873D01*
X138742299Y-83893402D01*
X138913389Y-83920500D01*
X138913390Y-83920500D01*
X139086610Y-83920500D01*
X139086611Y-83920500D01*
X139257701Y-83893402D01*
X139335328Y-83868178D01*
X139405168Y-83866184D01*
X139461326Y-83898429D01*
X139725386Y-84162489D01*
X139828113Y-84221799D01*
X139852321Y-84228284D01*
X139852324Y-84228286D01*
X139852325Y-84228286D01*
X139882447Y-84236357D01*
X139942691Y-84252500D01*
X139942693Y-84252500D01*
X148659308Y-84252500D01*
X148659309Y-84252500D01*
X148749673Y-84228286D01*
X148773887Y-84221799D01*
X148876614Y-84162489D01*
X149247800Y-83791303D01*
X149307110Y-83688576D01*
X149317312Y-83650500D01*
X149337811Y-83573998D01*
X149337811Y-82449732D01*
X149342036Y-82417638D01*
X149343283Y-82412984D01*
X149350500Y-82386052D01*
X149350500Y-82241102D01*
X149312984Y-82101092D01*
X149290407Y-82061988D01*
X149240511Y-81975565D01*
X149240506Y-81975559D01*
X149138017Y-81873070D01*
X149138011Y-81873065D01*
X149012488Y-81800594D01*
X149012483Y-81800592D01*
X148991472Y-81794962D01*
X148986288Y-81791802D01*
X148980232Y-81791369D01*
X148956800Y-81773828D01*
X148931812Y-81758597D01*
X148929159Y-81753136D01*
X148924299Y-81749498D01*
X148914069Y-81722071D01*
X148901284Y-81695749D01*
X148902004Y-81689721D01*
X148899883Y-81684033D01*
X148906104Y-81655434D01*
X148909579Y-81626374D01*
X148913774Y-81620175D01*
X148914735Y-81615760D01*
X148935879Y-81587515D01*
X148996036Y-81527357D01*
X149021713Y-81507656D01*
X149138015Y-81440509D01*
X149240509Y-81338015D01*
X149312984Y-81212485D01*
X149350500Y-81072475D01*
X149350500Y-80927525D01*
X149312984Y-80787515D01*
X149296805Y-80759493D01*
X149240511Y-80661988D01*
X149240506Y-80661982D01*
X149138017Y-80559493D01*
X149138011Y-80559488D01*
X149012488Y-80487017D01*
X149012489Y-80487017D01*
X149001006Y-80483940D01*
X148872475Y-80449500D01*
X148727525Y-80449500D01*
X148727523Y-80449500D01*
X148684642Y-80460990D01*
X148684599Y-80461001D01*
X148587515Y-80487016D01*
X148582832Y-80489719D01*
X148582827Y-80489721D01*
X148461988Y-80559488D01*
X148461982Y-80559493D01*
X148407795Y-80613681D01*
X148346472Y-80647166D01*
X148320114Y-80650000D01*
X148019642Y-80650000D01*
X148010674Y-80649675D01*
X148008261Y-80649500D01*
X148008260Y-80649500D01*
X147461500Y-80649500D01*
X147452814Y-80646949D01*
X147443853Y-80648238D01*
X147419812Y-80637259D01*
X147394461Y-80629815D01*
X147388533Y-80622974D01*
X147380297Y-80619213D01*
X147366007Y-80596978D01*
X147348706Y-80577011D01*
X147346418Y-80566496D01*
X147342523Y-80560435D01*
X147337500Y-80525500D01*
X147337500Y-80374500D01*
X147357185Y-80307461D01*
X147409989Y-80261706D01*
X147461500Y-80250500D01*
X148008261Y-80250500D01*
X148010674Y-80250325D01*
X148019642Y-80250000D01*
X148519172Y-80250000D01*
X148565298Y-80236983D01*
X148559557Y-80193372D01*
X148559555Y-80193366D01*
X148499100Y-80047414D01*
X148402921Y-79922071D01*
X148374013Y-79899889D01*
X148332811Y-79843461D01*
X148325500Y-79801514D01*
X148325500Y-79666739D01*
X148320536Y-79632673D01*
X148315573Y-79598607D01*
X148281768Y-79529458D01*
X148270010Y-79460587D01*
X148281769Y-79420540D01*
X148286531Y-79410799D01*
X148315573Y-79351393D01*
X148325500Y-79283260D01*
X148325500Y-79016740D01*
X148315573Y-78948607D01*
X148281768Y-78879458D01*
X148270010Y-78810587D01*
X148281769Y-78770540D01*
X148315573Y-78701393D01*
X148325500Y-78633260D01*
X148325500Y-78366740D01*
X148315573Y-78298607D01*
X148281768Y-78229458D01*
X148270010Y-78160587D01*
X148281769Y-78120540D01*
X148315573Y-78051393D01*
X148325500Y-77983260D01*
X148325500Y-77716740D01*
X148324952Y-77712982D01*
X148316140Y-77652500D01*
X148315573Y-77648607D01*
X148281768Y-77579458D01*
X148270010Y-77510587D01*
X148281769Y-77470540D01*
X148285950Y-77461988D01*
X148315573Y-77401393D01*
X148325500Y-77333260D01*
X148325500Y-77066740D01*
X148322062Y-77043147D01*
X148315573Y-76998608D01*
X148310148Y-76987511D01*
X148281768Y-76929458D01*
X148270010Y-76860587D01*
X148281769Y-76820540D01*
X148286194Y-76811489D01*
X148315573Y-76751393D01*
X148325500Y-76683260D01*
X148325500Y-76416740D01*
X148315573Y-76348607D01*
X148264198Y-76243517D01*
X148264196Y-76243515D01*
X148264196Y-76243514D01*
X148181485Y-76160803D01*
X148076391Y-76109426D01*
X148008261Y-76099500D01*
X148008260Y-76099500D01*
X147575465Y-76099500D01*
X147508426Y-76079815D01*
X147487784Y-76063181D01*
X147064116Y-75639513D01*
X147064114Y-75639511D01*
X147012750Y-75609856D01*
X146961388Y-75580201D01*
X146949280Y-75576957D01*
X146937173Y-75573713D01*
X146937170Y-75573712D01*
X146898978Y-75563478D01*
X146846809Y-75549500D01*
X146846808Y-75549500D01*
X143876146Y-75549500D01*
X143809107Y-75529815D01*
X143763352Y-75477011D01*
X143753408Y-75407853D01*
X143782433Y-75344297D01*
X143788465Y-75337819D01*
X145053812Y-74072472D01*
X146386816Y-72739468D01*
X146448137Y-72705985D01*
X146517829Y-72710969D01*
X146537616Y-72720419D01*
X146589803Y-72751282D01*
X146589806Y-72751283D01*
X146747504Y-72797099D01*
X146747510Y-72797100D01*
X146784350Y-72799999D01*
X146784366Y-72800000D01*
X147450000Y-72800000D01*
X147950000Y-72800000D01*
X148615634Y-72800000D01*
X148615649Y-72799999D01*
X148652489Y-72797100D01*
X148652495Y-72797099D01*
X148810193Y-72751283D01*
X148810196Y-72751282D01*
X148951552Y-72667685D01*
X148951561Y-72667678D01*
X149067678Y-72551561D01*
X149067685Y-72551552D01*
X149151281Y-72410198D01*
X149197100Y-72252486D01*
X149197295Y-72250001D01*
X149197295Y-72250000D01*
X147950000Y-72250000D01*
X147950000Y-72800000D01*
X147450000Y-72800000D01*
X147450000Y-72124000D01*
X147469685Y-72056961D01*
X147522489Y-72011206D01*
X147574000Y-72000000D01*
X147700000Y-72000000D01*
X147700000Y-71874000D01*
X147719685Y-71806961D01*
X147772489Y-71761206D01*
X147824000Y-71750000D01*
X149197295Y-71750000D01*
X149197295Y-71749998D01*
X149197100Y-71747513D01*
X149151281Y-71589801D01*
X149067685Y-71448447D01*
X149067678Y-71448438D01*
X148951561Y-71332321D01*
X148951553Y-71332315D01*
X148908507Y-71306858D01*
X148860824Y-71255789D01*
X148848320Y-71187048D01*
X148873152Y-71126852D01*
X148872311Y-71126241D01*
X148874841Y-71122758D01*
X148874965Y-71122458D01*
X148875460Y-71121906D01*
X148878042Y-71118349D01*
X148878050Y-71118342D01*
X148935646Y-71005304D01*
X148935646Y-71005302D01*
X148935647Y-71005301D01*
X148950499Y-70911524D01*
X148950500Y-70911519D01*
X148950499Y-70548482D01*
X148935646Y-70454696D01*
X148878050Y-70341658D01*
X148878046Y-70341654D01*
X148878045Y-70341652D01*
X148788347Y-70251954D01*
X148788343Y-70251951D01*
X148788342Y-70251950D01*
X148783534Y-70249500D01*
X148697147Y-70205483D01*
X148646352Y-70157509D01*
X148629557Y-70089687D01*
X148652095Y-70023553D01*
X148697145Y-69984517D01*
X148788342Y-69938050D01*
X148878050Y-69848342D01*
X148935646Y-69735304D01*
X148935646Y-69735302D01*
X148935647Y-69735301D01*
X148950499Y-69641524D01*
X148950500Y-69641519D01*
X148950499Y-69278482D01*
X148935646Y-69184696D01*
X148878050Y-69071658D01*
X148878046Y-69071654D01*
X148878045Y-69071652D01*
X148788347Y-68981954D01*
X148788343Y-68981951D01*
X148788342Y-68981950D01*
X148785599Y-68980552D01*
X148697147Y-68935483D01*
X148646352Y-68887509D01*
X148629557Y-68819687D01*
X148652095Y-68753553D01*
X148697145Y-68714517D01*
X148788342Y-68668050D01*
X148878050Y-68578342D01*
X148935646Y-68465304D01*
X148935646Y-68465302D01*
X148935647Y-68465301D01*
X148946768Y-68395082D01*
X148950500Y-68371519D01*
X148950499Y-68008482D01*
X148935646Y-67914696D01*
X148878050Y-67801658D01*
X148878046Y-67801654D01*
X148878045Y-67801652D01*
X148788347Y-67711954D01*
X148788343Y-67711951D01*
X148788342Y-67711950D01*
X148785599Y-67710552D01*
X148697147Y-67665483D01*
X148646352Y-67617509D01*
X148629557Y-67549687D01*
X148652095Y-67483553D01*
X148697145Y-67444517D01*
X148788342Y-67398050D01*
X148878050Y-67308342D01*
X148935646Y-67195304D01*
X148935646Y-67195302D01*
X148935647Y-67195301D01*
X148950499Y-67101524D01*
X148950500Y-67101519D01*
X148950499Y-66738482D01*
X148935646Y-66644696D01*
X148878050Y-66531658D01*
X148878046Y-66531654D01*
X148878045Y-66531652D01*
X148788347Y-66441954D01*
X148788343Y-66441951D01*
X148788342Y-66441950D01*
X148744282Y-66419500D01*
X148697147Y-66395483D01*
X148646352Y-66347509D01*
X148629557Y-66279687D01*
X148652095Y-66213553D01*
X148697145Y-66174517D01*
X148788342Y-66128050D01*
X148878050Y-66038342D01*
X148935646Y-65925304D01*
X148935646Y-65925302D01*
X148935647Y-65925301D01*
X148949074Y-65840520D01*
X148950500Y-65831519D01*
X148950499Y-65468482D01*
X148935646Y-65374696D01*
X148878050Y-65261658D01*
X148878046Y-65261654D01*
X148878045Y-65261652D01*
X148788347Y-65171954D01*
X148788343Y-65171951D01*
X148788342Y-65171950D01*
X148751414Y-65153134D01*
X148697147Y-65125483D01*
X148646352Y-65077509D01*
X148629557Y-65009687D01*
X148652095Y-64943553D01*
X148697145Y-64904517D01*
X148788342Y-64858050D01*
X148878050Y-64768342D01*
X148935646Y-64655304D01*
X148935646Y-64655302D01*
X148935647Y-64655301D01*
X148950499Y-64561524D01*
X148950500Y-64561519D01*
X148950499Y-64198482D01*
X148935646Y-64104696D01*
X148878050Y-63991658D01*
X148878046Y-63991654D01*
X148878045Y-63991652D01*
X148788347Y-63901954D01*
X148788343Y-63901951D01*
X148788342Y-63901950D01*
X148725019Y-63869685D01*
X148697147Y-63855483D01*
X148646352Y-63807509D01*
X148629557Y-63739687D01*
X148652095Y-63673553D01*
X148697145Y-63634517D01*
X148788342Y-63588050D01*
X148878050Y-63498342D01*
X148935646Y-63385304D01*
X148935646Y-63385302D01*
X148935647Y-63385301D01*
X148950499Y-63291524D01*
X148950500Y-63291519D01*
X148950499Y-62928482D01*
X148935646Y-62834696D01*
X148878050Y-62721658D01*
X148878046Y-62721654D01*
X148878045Y-62721652D01*
X148788347Y-62631954D01*
X148788344Y-62631952D01*
X148788342Y-62631950D01*
X148699358Y-62586610D01*
X148675301Y-62574352D01*
X148581524Y-62559500D01*
X146818482Y-62559500D01*
X146737519Y-62572323D01*
X146724696Y-62574354D01*
X146611658Y-62631950D01*
X146611657Y-62631950D01*
X146611653Y-62631953D01*
X146606329Y-62635821D01*
X146540522Y-62659298D01*
X146533448Y-62659500D01*
X140240684Y-62659500D01*
X140240676Y-62659501D01*
X140240670Y-62659500D01*
X140232564Y-62659500D01*
X140232564Y-62658235D01*
X140171641Y-62648730D01*
X140119389Y-62602346D01*
X140100500Y-62536561D01*
X140100500Y-62413389D01*
X140073402Y-62242299D01*
X140019873Y-62077555D01*
X139941232Y-61923212D01*
X139938072Y-61918863D01*
X139907211Y-61876385D01*
X139883731Y-61810579D01*
X139899557Y-61742525D01*
X139949662Y-61693830D01*
X140007529Y-61679500D01*
X148391035Y-61679500D01*
X148458074Y-61699185D01*
X148478716Y-61715819D01*
X151498411Y-64735514D01*
X151521213Y-64766896D01*
X151521950Y-64768343D01*
X151611652Y-64858045D01*
X151611654Y-64858046D01*
X151611658Y-64858050D01*
X151702851Y-64904515D01*
X151753647Y-64952490D01*
X151770442Y-65020311D01*
X151747904Y-65086446D01*
X151702852Y-65125484D01*
X151611658Y-65171950D01*
X151611657Y-65171951D01*
X151611652Y-65171954D01*
X151521954Y-65261652D01*
X151521951Y-65261657D01*
X151464352Y-65374698D01*
X151449500Y-65468475D01*
X151449500Y-65831517D01*
X151452618Y-65851201D01*
X151464354Y-65925304D01*
X151521950Y-66038342D01*
X151521952Y-66038344D01*
X151521954Y-66038347D01*
X151611652Y-66128045D01*
X151611654Y-66128046D01*
X151611658Y-66128050D01*
X151702851Y-66174515D01*
X151712003Y-66183158D01*
X151723668Y-66187893D01*
X151736922Y-66206694D01*
X151753646Y-66222489D01*
X151756671Y-66234708D01*
X151763926Y-66244998D01*
X151764911Y-66267982D01*
X151770441Y-66290310D01*
X151766380Y-66302225D01*
X151766920Y-66314804D01*
X151755323Y-66334671D01*
X151747904Y-66356444D01*
X151737202Y-66365717D01*
X151731699Y-66375146D01*
X151702852Y-66395483D01*
X151682232Y-66405990D01*
X151642124Y-66418445D01*
X151634108Y-66419500D01*
X151506813Y-66453608D01*
X151392687Y-66519500D01*
X151392684Y-66519502D01*
X150599502Y-67312684D01*
X150599500Y-67312687D01*
X150533608Y-67426813D01*
X150499500Y-67554109D01*
X150499500Y-73732710D01*
X150490063Y-73780159D01*
X150487016Y-73787513D01*
X150468258Y-73857520D01*
X150449500Y-73927525D01*
X150449500Y-74072475D01*
X150477760Y-74177940D01*
X150487017Y-74212488D01*
X150559488Y-74338011D01*
X150559490Y-74338013D01*
X150559491Y-74338015D01*
X150661985Y-74440509D01*
X150661986Y-74440510D01*
X150661988Y-74440511D01*
X150787511Y-74512982D01*
X150787512Y-74512982D01*
X150787515Y-74512984D01*
X150927525Y-74550500D01*
X150927528Y-74550500D01*
X151072472Y-74550500D01*
X151072475Y-74550500D01*
X151212485Y-74512984D01*
X151338015Y-74440509D01*
X151440509Y-74338015D01*
X151512984Y-74212485D01*
X151550500Y-74072475D01*
X151550500Y-73927525D01*
X151512984Y-73787515D01*
X151512983Y-73787513D01*
X151509937Y-73780159D01*
X151500500Y-73732710D01*
X151500500Y-72623761D01*
X151520185Y-72556722D01*
X151572989Y-72510967D01*
X151642147Y-72501023D01*
X151680792Y-72513275D01*
X151724696Y-72535646D01*
X151724697Y-72535646D01*
X151724698Y-72535647D01*
X151818475Y-72550499D01*
X151818481Y-72550500D01*
X153581518Y-72550499D01*
X153675304Y-72535646D01*
X153788342Y-72478050D01*
X153788346Y-72478046D01*
X153793671Y-72474179D01*
X153859478Y-72450702D01*
X153866552Y-72450500D01*
X155237373Y-72450500D01*
X155304412Y-72470185D01*
X155344759Y-72512499D01*
X155359491Y-72538015D01*
X155461985Y-72640509D01*
X155461986Y-72640510D01*
X155461988Y-72640511D01*
X155587511Y-72712982D01*
X155587512Y-72712982D01*
X155587515Y-72712984D01*
X155727525Y-72750500D01*
X155727528Y-72750500D01*
X155872472Y-72750500D01*
X155872475Y-72750500D01*
X155993410Y-72718095D01*
X156063255Y-72719758D01*
X156121118Y-72758920D01*
X156148623Y-72823148D01*
X156149500Y-72837870D01*
X156149500Y-78970729D01*
X156129815Y-79037768D01*
X156077011Y-79083523D01*
X156007853Y-79093467D01*
X155944297Y-79064442D01*
X155937819Y-79058410D01*
X155099339Y-78219930D01*
X155065854Y-78158607D01*
X155070838Y-78088915D01*
X155079629Y-78070256D01*
X155112984Y-78012485D01*
X155150500Y-77872475D01*
X155150500Y-77727525D01*
X155112984Y-77587515D01*
X155108333Y-77579460D01*
X155040511Y-77461988D01*
X155040506Y-77461982D01*
X154938017Y-77359493D01*
X154938011Y-77359488D01*
X154812488Y-77287017D01*
X154812489Y-77287017D01*
X154781345Y-77278672D01*
X154672475Y-77249500D01*
X154527525Y-77249500D01*
X154418655Y-77278672D01*
X154387511Y-77287017D01*
X154261988Y-77359488D01*
X154255539Y-77364438D01*
X154254719Y-77363369D01*
X154200858Y-77392780D01*
X154131166Y-77387796D01*
X154075233Y-77345924D01*
X154050816Y-77280460D01*
X154050500Y-77271614D01*
X154050500Y-77066739D01*
X154040573Y-76998608D01*
X154035148Y-76987511D01*
X154006768Y-76929458D01*
X153995010Y-76860587D01*
X154006769Y-76820540D01*
X154011194Y-76811489D01*
X154040573Y-76751393D01*
X154050500Y-76683260D01*
X154050500Y-76416740D01*
X154040573Y-76348607D01*
X153989198Y-76243517D01*
X153989196Y-76243515D01*
X153989196Y-76243514D01*
X153906485Y-76160803D01*
X153801391Y-76109426D01*
X153733261Y-76099500D01*
X153733260Y-76099500D01*
X153371176Y-76099500D01*
X153304137Y-76079815D01*
X153283495Y-76063181D01*
X153077709Y-75857395D01*
X153044224Y-75796072D01*
X153049208Y-75726380D01*
X153057998Y-75707721D01*
X153112984Y-75612485D01*
X153150500Y-75472475D01*
X153150500Y-75327525D01*
X153112984Y-75187515D01*
X153046196Y-75071836D01*
X153040511Y-75061988D01*
X153040506Y-75061982D01*
X152938017Y-74959493D01*
X152938011Y-74959488D01*
X152812488Y-74887017D01*
X152812489Y-74887017D01*
X152801006Y-74883940D01*
X152672475Y-74849500D01*
X152527525Y-74849500D01*
X152398993Y-74883940D01*
X152387511Y-74887017D01*
X152261988Y-74959488D01*
X152261982Y-74959493D01*
X152159493Y-75061982D01*
X152159488Y-75061988D01*
X152087017Y-75187511D01*
X152087015Y-75187516D01*
X152073267Y-75238822D01*
X152060882Y-75268722D01*
X152046108Y-75294314D01*
X152012000Y-75421608D01*
X152012000Y-75934108D01*
X152012000Y-76065892D01*
X152018524Y-76090238D01*
X152046108Y-76193185D01*
X152046109Y-76193188D01*
X152075282Y-76243717D01*
X152091755Y-76311617D01*
X152086368Y-76342323D01*
X152084426Y-76348605D01*
X152074500Y-76416739D01*
X152074500Y-76623516D01*
X152054815Y-76690555D01*
X152002011Y-76736310D01*
X151932853Y-76746254D01*
X151888500Y-76730903D01*
X151812488Y-76687017D01*
X151812489Y-76687017D01*
X151798468Y-76683260D01*
X151672475Y-76649500D01*
X151527525Y-76649500D01*
X151401532Y-76683260D01*
X151387511Y-76687017D01*
X151261988Y-76759488D01*
X151261982Y-76759493D01*
X151159493Y-76861982D01*
X151159488Y-76861988D01*
X151087017Y-76987511D01*
X151087016Y-76987515D01*
X151049500Y-77127525D01*
X151049500Y-77272475D01*
X151087016Y-77412485D01*
X151087017Y-77412488D01*
X151159488Y-77538011D01*
X151159490Y-77538013D01*
X151159491Y-77538015D01*
X151261985Y-77640509D01*
X151261986Y-77640510D01*
X151261988Y-77640511D01*
X151387511Y-77712982D01*
X151387512Y-77712982D01*
X151387515Y-77712984D01*
X151527525Y-77750500D01*
X151527528Y-77750500D01*
X151672472Y-77750500D01*
X151672475Y-77750500D01*
X151812485Y-77712984D01*
X151812487Y-77712982D01*
X151812489Y-77712982D01*
X151812490Y-77712981D01*
X151854342Y-77688818D01*
X151888499Y-77669096D01*
X151956399Y-77652623D01*
X152022426Y-77675475D01*
X152065617Y-77730395D01*
X152074500Y-77776483D01*
X152074500Y-77983260D01*
X152084426Y-78051392D01*
X152084426Y-78051393D01*
X152118230Y-78120541D01*
X152129988Y-78189414D01*
X152118230Y-78229459D01*
X152084426Y-78298606D01*
X152084426Y-78298607D01*
X152074500Y-78366739D01*
X152074500Y-78633260D01*
X152084426Y-78701392D01*
X152084426Y-78701393D01*
X152118230Y-78770541D01*
X152129988Y-78839414D01*
X152118230Y-78879459D01*
X152084426Y-78948606D01*
X152084426Y-78948607D01*
X152074500Y-79016739D01*
X152074500Y-79283260D01*
X152084426Y-79351392D01*
X152084426Y-79351393D01*
X152118230Y-79420541D01*
X152129988Y-79489414D01*
X152118230Y-79529459D01*
X152084426Y-79598606D01*
X152084426Y-79598607D01*
X152074500Y-79666739D01*
X152074500Y-79933260D01*
X152084426Y-80001392D01*
X152084426Y-80001393D01*
X152118230Y-80070541D01*
X152129988Y-80139414D01*
X152118230Y-80179459D01*
X152084426Y-80248606D01*
X152084426Y-80248607D01*
X152074500Y-80316739D01*
X152074500Y-80493528D01*
X152066653Y-80520248D01*
X152062036Y-80547709D01*
X152056946Y-80553307D01*
X152054815Y-80560567D01*
X152033771Y-80578801D01*
X152015038Y-80599409D01*
X152005055Y-80603683D01*
X152002011Y-80606322D01*
X151982593Y-80613303D01*
X151933572Y-80626438D01*
X151906818Y-80633606D01*
X151899309Y-80636717D01*
X151898755Y-80635380D01*
X151846063Y-80649500D01*
X151727525Y-80649500D01*
X151598993Y-80683940D01*
X151587511Y-80687017D01*
X151461988Y-80759488D01*
X151461982Y-80759493D01*
X151359493Y-80861982D01*
X151359488Y-80861988D01*
X151287017Y-80987511D01*
X151287016Y-80987515D01*
X151249500Y-81127525D01*
X151249500Y-81272475D01*
X151267682Y-81340330D01*
X151287017Y-81412488D01*
X151359488Y-81538011D01*
X151359490Y-81538013D01*
X151359491Y-81538015D01*
X151461985Y-81640509D01*
X151461986Y-81640510D01*
X151461988Y-81640511D01*
X151587511Y-81712982D01*
X151587512Y-81712982D01*
X151587515Y-81712984D01*
X151727525Y-81750500D01*
X151727528Y-81750500D01*
X151872472Y-81750500D01*
X151872475Y-81750500D01*
X151918408Y-81738192D01*
X151988256Y-81739855D01*
X152046119Y-81779017D01*
X152070523Y-81826816D01*
X152074500Y-81842139D01*
X152074500Y-81883260D01*
X152084427Y-81951393D01*
X152123712Y-82031754D01*
X152126852Y-82043849D01*
X152126125Y-82066790D01*
X152129988Y-82089414D01*
X152124856Y-82106892D01*
X152124641Y-82113684D01*
X152121538Y-82118191D01*
X152118230Y-82129459D01*
X152084426Y-82198606D01*
X152084426Y-82198607D01*
X152074500Y-82266739D01*
X152074500Y-82533260D01*
X152084426Y-82601391D01*
X152135803Y-82706485D01*
X152218514Y-82789196D01*
X152218515Y-82789196D01*
X152218517Y-82789198D01*
X152323607Y-82840573D01*
X152357673Y-82845536D01*
X152391739Y-82850500D01*
X152391740Y-82850500D01*
X152824535Y-82850500D01*
X152891574Y-82870185D01*
X152912216Y-82886819D01*
X153485886Y-83460489D01*
X153528486Y-83485084D01*
X153588614Y-83519799D01*
X153703191Y-83550500D01*
X153846064Y-83550500D01*
X153908063Y-83567112D01*
X153987515Y-83612984D01*
X154127525Y-83650500D01*
X154127528Y-83650500D01*
X154272472Y-83650500D01*
X154272475Y-83650500D01*
X154412485Y-83612984D01*
X154538015Y-83540509D01*
X154538019Y-83540504D01*
X154544461Y-83535562D01*
X154545280Y-83536630D01*
X154599142Y-83507220D01*
X154668834Y-83512204D01*
X154724767Y-83554076D01*
X154749184Y-83619540D01*
X154749500Y-83628386D01*
X154749500Y-87557034D01*
X154729815Y-87624073D01*
X154713181Y-87644715D01*
X154162180Y-88195715D01*
X154100857Y-88229200D01*
X154031165Y-88224216D01*
X153975232Y-88182344D01*
X153950815Y-88116880D01*
X153950499Y-88108054D01*
X153950499Y-87843482D01*
X153935646Y-87749696D01*
X153878050Y-87636658D01*
X153878046Y-87636654D01*
X153878045Y-87636652D01*
X153788347Y-87546954D01*
X153788344Y-87546952D01*
X153788342Y-87546950D01*
X153697146Y-87500483D01*
X153646351Y-87452509D01*
X153629556Y-87384688D01*
X153652094Y-87318553D01*
X153697145Y-87279516D01*
X153788342Y-87233049D01*
X153878050Y-87143341D01*
X153935646Y-87030303D01*
X153935646Y-87030301D01*
X153935647Y-87030300D01*
X153950499Y-86936523D01*
X153950500Y-86936518D01*
X153950499Y-86573481D01*
X153935646Y-86479695D01*
X153878050Y-86366657D01*
X153878046Y-86366653D01*
X153878045Y-86366651D01*
X153832640Y-86321246D01*
X153799155Y-86259923D01*
X153804139Y-86190231D01*
X153832640Y-86145884D01*
X153840509Y-86138015D01*
X153912984Y-86012485D01*
X153950500Y-85872475D01*
X153950500Y-85727525D01*
X153912984Y-85587515D01*
X153869665Y-85512485D01*
X153840511Y-85461988D01*
X153840506Y-85461982D01*
X153738017Y-85359493D01*
X153738011Y-85359488D01*
X153612488Y-85287017D01*
X153612489Y-85287017D01*
X153601006Y-85283940D01*
X153472475Y-85249500D01*
X153327525Y-85249500D01*
X153198993Y-85283940D01*
X153187511Y-85287017D01*
X153061988Y-85359488D01*
X153061982Y-85359493D01*
X152959493Y-85461982D01*
X152959488Y-85461988D01*
X152887017Y-85587511D01*
X152887014Y-85587518D01*
X152863269Y-85676133D01*
X152831176Y-85731719D01*
X152394715Y-86168180D01*
X152333392Y-86201665D01*
X152307034Y-86204499D01*
X151818482Y-86204499D01*
X151737519Y-86217322D01*
X151724696Y-86219353D01*
X151611658Y-86276949D01*
X151611657Y-86276950D01*
X151611652Y-86276953D01*
X151521954Y-86366651D01*
X151521951Y-86366656D01*
X151521950Y-86366657D01*
X151487942Y-86433402D01*
X151464353Y-86479697D01*
X151458264Y-86518138D01*
X151428333Y-86581272D01*
X151369021Y-86618202D01*
X151311706Y-86618475D01*
X151311568Y-86619524D01*
X151303890Y-86618513D01*
X151303702Y-86618513D01*
X151303512Y-86618463D01*
X151158562Y-86618463D01*
X151018552Y-86655979D01*
X151018550Y-86655980D01*
X151010702Y-86658083D01*
X151010102Y-86655846D01*
X150952468Y-86662036D01*
X150889993Y-86630754D01*
X150854348Y-86570660D01*
X150850500Y-86540009D01*
X150850500Y-82353935D01*
X150867112Y-82291936D01*
X150912984Y-82212485D01*
X150950500Y-82072475D01*
X150950500Y-81927525D01*
X150912984Y-81787515D01*
X150893135Y-81753136D01*
X150840511Y-81661988D01*
X150840506Y-81661982D01*
X150738017Y-81559493D01*
X150738011Y-81559488D01*
X150612488Y-81487017D01*
X150612489Y-81487017D01*
X150601006Y-81483940D01*
X150472475Y-81449500D01*
X150327525Y-81449500D01*
X150198993Y-81483940D01*
X150187511Y-81487017D01*
X150061988Y-81559488D01*
X150061982Y-81559493D01*
X149959493Y-81661982D01*
X149959488Y-81661988D01*
X149887017Y-81787511D01*
X149887016Y-81787515D01*
X149849500Y-81927525D01*
X149849500Y-82072475D01*
X149887016Y-82212485D01*
X149932887Y-82291936D01*
X149949500Y-82353935D01*
X149949500Y-89324310D01*
X149960831Y-89366595D01*
X149960831Y-89366598D01*
X149960832Y-89366598D01*
X149980201Y-89438886D01*
X150039511Y-89541613D01*
X150039513Y-89541615D01*
X150613181Y-90115283D01*
X150646666Y-90176606D01*
X150649500Y-90202964D01*
X150649500Y-92848036D01*
X150629815Y-92915075D01*
X150577011Y-92960830D01*
X150507853Y-92970774D01*
X150444297Y-92941749D01*
X150437819Y-92935717D01*
X148976615Y-91474513D01*
X148976613Y-91474511D01*
X148873886Y-91415201D01*
X148868688Y-91413808D01*
X148834081Y-91398562D01*
X148822674Y-91391282D01*
X148788342Y-91356950D01*
X148691800Y-91307759D01*
X148686734Y-91304526D01*
X148667560Y-91282539D01*
X148646352Y-91262509D01*
X148644868Y-91256518D01*
X148640812Y-91251867D01*
X148636568Y-91223001D01*
X148629557Y-91194687D01*
X148631547Y-91188846D01*
X148630650Y-91182741D01*
X148642684Y-91156165D01*
X148652095Y-91128553D01*
X148657187Y-91124140D01*
X148659473Y-91119094D01*
X148673451Y-91110047D01*
X148697145Y-91089517D01*
X148788342Y-91043050D01*
X148878050Y-90953342D01*
X148935646Y-90840304D01*
X148935646Y-90840302D01*
X148935648Y-90840299D01*
X148938663Y-90831020D01*
X148938952Y-90831114D01*
X148950689Y-90797962D01*
X148984799Y-90738886D01*
X149015500Y-90624309D01*
X149015500Y-90505691D01*
X148984799Y-90391114D01*
X148950691Y-90332038D01*
X148938952Y-90298884D01*
X148938663Y-90298979D01*
X148935647Y-90289697D01*
X148907397Y-90234255D01*
X148878050Y-90176658D01*
X148878047Y-90176655D01*
X148878045Y-90176652D01*
X148788347Y-90086954D01*
X148788344Y-90086952D01*
X148788342Y-90086950D01*
X148697148Y-90040484D01*
X148646353Y-89992510D01*
X148629558Y-89924689D01*
X148652096Y-89858554D01*
X148697147Y-89819517D01*
X148788342Y-89773051D01*
X148878050Y-89683343D01*
X148935646Y-89570305D01*
X148935646Y-89570303D01*
X148935647Y-89570302D01*
X148950499Y-89476525D01*
X148950500Y-89476520D01*
X148950499Y-89113483D01*
X148935646Y-89019697D01*
X148878050Y-88906659D01*
X148878046Y-88906655D01*
X148878045Y-88906653D01*
X148788347Y-88816955D01*
X148788344Y-88816953D01*
X148788342Y-88816951D01*
X148697146Y-88770484D01*
X148646351Y-88722510D01*
X148629556Y-88654689D01*
X148652094Y-88588554D01*
X148697145Y-88549517D01*
X148788342Y-88503050D01*
X148878050Y-88413342D01*
X148935646Y-88300304D01*
X148935646Y-88300302D01*
X148935647Y-88300301D01*
X148948978Y-88216127D01*
X148950500Y-88206519D01*
X148950499Y-87843482D01*
X148935646Y-87749696D01*
X148878050Y-87636658D01*
X148878046Y-87636654D01*
X148878045Y-87636652D01*
X148788347Y-87546954D01*
X148788344Y-87546952D01*
X148788342Y-87546950D01*
X148697146Y-87500483D01*
X148646351Y-87452509D01*
X148629556Y-87384688D01*
X148652094Y-87318553D01*
X148697145Y-87279516D01*
X148788342Y-87233049D01*
X148878050Y-87143341D01*
X148935646Y-87030303D01*
X148935646Y-87030301D01*
X148935647Y-87030300D01*
X148950499Y-86936523D01*
X148950500Y-86936518D01*
X148950499Y-86573481D01*
X148935646Y-86479695D01*
X148878050Y-86366657D01*
X148878046Y-86366653D01*
X148878045Y-86366651D01*
X148788347Y-86276953D01*
X148788344Y-86276951D01*
X148788342Y-86276949D01*
X148711517Y-86237804D01*
X148675301Y-86219351D01*
X148581524Y-86204499D01*
X148581519Y-86204499D01*
X148274500Y-86204499D01*
X148207461Y-86184814D01*
X148161706Y-86132010D01*
X148150500Y-86080499D01*
X148150500Y-85653935D01*
X148167112Y-85591936D01*
X148212984Y-85512485D01*
X148250500Y-85372475D01*
X148250500Y-85227525D01*
X148212984Y-85087515D01*
X148170348Y-85013668D01*
X148140511Y-84961988D01*
X148140506Y-84961982D01*
X148038017Y-84859493D01*
X148038011Y-84859488D01*
X147912488Y-84787017D01*
X147912489Y-84787017D01*
X147898285Y-84783211D01*
X147772475Y-84749500D01*
X147627525Y-84749500D01*
X147501715Y-84783211D01*
X147487511Y-84787017D01*
X147361988Y-84859488D01*
X147361982Y-84859493D01*
X147259493Y-84961982D01*
X147259488Y-84961988D01*
X147187017Y-85087511D01*
X147187016Y-85087515D01*
X147149500Y-85227525D01*
X147149500Y-85372475D01*
X147187016Y-85512485D01*
X147232887Y-85591936D01*
X147249500Y-85653935D01*
X147249500Y-86080499D01*
X147229815Y-86147538D01*
X147177011Y-86193293D01*
X147125500Y-86204499D01*
X146818482Y-86204499D01*
X146737519Y-86217322D01*
X146724696Y-86219353D01*
X146611658Y-86276949D01*
X146611657Y-86276950D01*
X146611652Y-86276953D01*
X146521246Y-86367360D01*
X146459923Y-86400845D01*
X146390231Y-86395861D01*
X146345884Y-86367360D01*
X146238017Y-86259493D01*
X146238011Y-86259488D01*
X146112488Y-86187017D01*
X146112489Y-86187017D01*
X146101006Y-86183940D01*
X145972475Y-86149500D01*
X145827525Y-86149500D01*
X145698993Y-86183940D01*
X145687511Y-86187017D01*
X145561988Y-86259488D01*
X145561982Y-86259493D01*
X145459493Y-86361982D01*
X145459488Y-86361988D01*
X145387017Y-86487511D01*
X145387016Y-86487515D01*
X145349500Y-86627525D01*
X145349500Y-86772475D01*
X145378346Y-86880127D01*
X145387017Y-86912488D01*
X145459488Y-87038011D01*
X145459490Y-87038013D01*
X145459491Y-87038015D01*
X145561985Y-87140509D01*
X145624323Y-87176499D01*
X145650003Y-87196205D01*
X145793416Y-87339618D01*
X145826901Y-87400941D01*
X145821917Y-87470633D01*
X145780045Y-87526566D01*
X145734738Y-87545018D01*
X145735376Y-87547397D01*
X145727527Y-87549500D01*
X145727525Y-87549500D01*
X145601386Y-87583299D01*
X145587511Y-87587017D01*
X145461988Y-87659488D01*
X145461982Y-87659493D01*
X145359493Y-87761982D01*
X145359488Y-87761988D01*
X145287017Y-87887511D01*
X145249498Y-88027532D01*
X145249178Y-88029967D01*
X145248337Y-88031867D01*
X145247397Y-88035376D01*
X145246849Y-88035229D01*
X145243434Y-88042947D01*
X145242422Y-88057109D01*
X145229578Y-88074265D01*
X145220908Y-88093862D01*
X145209057Y-88101678D01*
X145200550Y-88113042D01*
X145180472Y-88120530D01*
X145162582Y-88132330D01*
X145148386Y-88132498D01*
X145135086Y-88137459D01*
X145114147Y-88132904D01*
X145092717Y-88133158D01*
X145079352Y-88125334D01*
X145066813Y-88122607D01*
X145038559Y-88101456D01*
X144864504Y-87927401D01*
X144832410Y-87871813D01*
X144824819Y-87843482D01*
X144808666Y-87783197D01*
X144796419Y-87761985D01*
X144736193Y-87657670D01*
X144736188Y-87657664D01*
X144633699Y-87555175D01*
X144633693Y-87555170D01*
X144508170Y-87482699D01*
X144508171Y-87482699D01*
X144488962Y-87477552D01*
X144368157Y-87445182D01*
X144223207Y-87445182D01*
X144102402Y-87477552D01*
X144083193Y-87482699D01*
X143957670Y-87555170D01*
X143957664Y-87555175D01*
X143855175Y-87657664D01*
X143855170Y-87657670D01*
X143782699Y-87783193D01*
X143782698Y-87783197D01*
X143745182Y-87923207D01*
X143745182Y-88068157D01*
X143782258Y-88206524D01*
X143782699Y-88208170D01*
X143855170Y-88333693D01*
X143855172Y-88333695D01*
X143855173Y-88333697D01*
X143957667Y-88436191D01*
X144083197Y-88508666D01*
X144171814Y-88532410D01*
X144227401Y-88564504D01*
X145342593Y-89679696D01*
X145376078Y-89741019D01*
X145371094Y-89810711D01*
X145329222Y-89866644D01*
X145294796Y-89883370D01*
X145295019Y-89883908D01*
X145287511Y-89887017D01*
X145161988Y-89959488D01*
X145161982Y-89959493D01*
X145059493Y-90061982D01*
X145059488Y-90061988D01*
X144987017Y-90187511D01*
X144987016Y-90187515D01*
X144949500Y-90327525D01*
X144949500Y-90472475D01*
X144980560Y-90588391D01*
X144987017Y-90612488D01*
X145059488Y-90738011D01*
X145059490Y-90738013D01*
X145059491Y-90738015D01*
X145161985Y-90840509D01*
X145161986Y-90840510D01*
X145161988Y-90840511D01*
X145224750Y-90876746D01*
X145287515Y-90912984D01*
X145376132Y-90936728D01*
X145431719Y-90968822D01*
X145800716Y-91337819D01*
X145834201Y-91399142D01*
X145829217Y-91468834D01*
X145787345Y-91524767D01*
X145721881Y-91549184D01*
X145713035Y-91549500D01*
X145627525Y-91549500D01*
X145498993Y-91583940D01*
X145487511Y-91587017D01*
X145361988Y-91659488D01*
X145361982Y-91659493D01*
X145259493Y-91761982D01*
X145259488Y-91761988D01*
X145187017Y-91887511D01*
X145187016Y-91887515D01*
X145149500Y-92027525D01*
X145149500Y-92172475D01*
X145182249Y-92294694D01*
X145187017Y-92312488D01*
X145259488Y-92438011D01*
X145259490Y-92438013D01*
X145259491Y-92438015D01*
X145361985Y-92540509D01*
X145370744Y-92545566D01*
X145418960Y-92596133D01*
X145432183Y-92664740D01*
X145406215Y-92729605D01*
X145349300Y-92770133D01*
X145340839Y-92772727D01*
X145287516Y-92787015D01*
X145287511Y-92787017D01*
X145161988Y-92859488D01*
X145161982Y-92859493D01*
X145059493Y-92961982D01*
X145059486Y-92961991D01*
X145056886Y-92966496D01*
X145006319Y-93014711D01*
X144937712Y-93027933D01*
X144872847Y-93001965D01*
X144832319Y-92945050D01*
X144825500Y-92904495D01*
X144825500Y-91840693D01*
X144825500Y-91840691D01*
X144794799Y-91726114D01*
X144794799Y-91726113D01*
X144794799Y-91726112D01*
X144735492Y-91623389D01*
X144735488Y-91623384D01*
X143761818Y-90649714D01*
X143728333Y-90588391D01*
X143725499Y-90562033D01*
X143725499Y-90254518D01*
X143725498Y-90254509D01*
X143719412Y-90197885D01*
X143688602Y-90115283D01*
X143671628Y-90069774D01*
X143589687Y-89960313D01*
X143500189Y-89893316D01*
X143458318Y-89837382D01*
X143450500Y-89794049D01*
X143450500Y-85920362D01*
X143470185Y-85853323D01*
X143512499Y-85812975D01*
X143638015Y-85740509D01*
X143740509Y-85638015D01*
X143812984Y-85512485D01*
X143850500Y-85372475D01*
X143850500Y-85227525D01*
X143812984Y-85087515D01*
X143770348Y-85013668D01*
X143740511Y-84961988D01*
X143740506Y-84961982D01*
X143638017Y-84859493D01*
X143638011Y-84859488D01*
X143512488Y-84787017D01*
X143512489Y-84787017D01*
X143498285Y-84783211D01*
X143372475Y-84749500D01*
X143227525Y-84749500D01*
X143101715Y-84783211D01*
X143087511Y-84787017D01*
X142961988Y-84859488D01*
X142961982Y-84859493D01*
X142859493Y-84961982D01*
X142859488Y-84961988D01*
X142787017Y-85087511D01*
X142787015Y-85087516D01*
X142763269Y-85176133D01*
X142731178Y-85231717D01*
X142639511Y-85323386D01*
X142639509Y-85323389D01*
X142580201Y-85426112D01*
X142580200Y-85426117D01*
X142549500Y-85540691D01*
X142549500Y-89794049D01*
X142529815Y-89861088D01*
X142499811Y-89893316D01*
X142410313Y-89960313D01*
X142328373Y-90069771D01*
X142280587Y-90197889D01*
X142274500Y-90254498D01*
X142274500Y-90795481D01*
X142274501Y-90795490D01*
X142280587Y-90852114D01*
X142318693Y-90954276D01*
X142324118Y-90968822D01*
X142328373Y-90980228D01*
X142389438Y-91061802D01*
X142413855Y-91127266D01*
X142399003Y-91195539D01*
X142355270Y-91241649D01*
X142297270Y-91277424D01*
X142177427Y-91397267D01*
X142177424Y-91397271D01*
X142088457Y-91541507D01*
X142088452Y-91541518D01*
X142035144Y-91702393D01*
X142025000Y-91801677D01*
X142025000Y-91825000D01*
X142876000Y-91825000D01*
X142943039Y-91844685D01*
X142988794Y-91897489D01*
X143000000Y-91949000D01*
X143000000Y-92075000D01*
X143126000Y-92075000D01*
X143193039Y-92094685D01*
X143238794Y-92147489D01*
X143250000Y-92199000D01*
X143250000Y-93024999D01*
X143298308Y-93024999D01*
X143298322Y-93024998D01*
X143397607Y-93014855D01*
X143558481Y-92961547D01*
X143558492Y-92961542D01*
X143702728Y-92872575D01*
X143702732Y-92872572D01*
X143712819Y-92862486D01*
X143774142Y-92829001D01*
X143843834Y-92833985D01*
X143899767Y-92875857D01*
X143924184Y-92941321D01*
X143924500Y-92950167D01*
X143924500Y-93516302D01*
X143904815Y-93583341D01*
X143877954Y-93610687D01*
X143878033Y-93610766D01*
X143869397Y-93619401D01*
X143814034Y-93702260D01*
X143814032Y-93702264D01*
X143799500Y-93775321D01*
X143799500Y-94874678D01*
X143814032Y-94947735D01*
X143814033Y-94947739D01*
X143814034Y-94947740D01*
X143869399Y-95030601D01*
X143869400Y-95030601D01*
X143869401Y-95030603D01*
X143878036Y-95039238D01*
X143877260Y-95040013D01*
X143914194Y-95084202D01*
X143924500Y-95133697D01*
X143924500Y-97666302D01*
X143904815Y-97733341D01*
X143877954Y-97760687D01*
X143878033Y-97760766D01*
X143869397Y-97769401D01*
X143814034Y-97852260D01*
X143814032Y-97852264D01*
X143799500Y-97925321D01*
X143799500Y-99024678D01*
X143814032Y-99097735D01*
X143814033Y-99097739D01*
X143814034Y-99097740D01*
X143869399Y-99180601D01*
X143952260Y-99235966D01*
X143952264Y-99235967D01*
X144025321Y-99250499D01*
X144025324Y-99250500D01*
X144025326Y-99250500D01*
X144724676Y-99250500D01*
X144724677Y-99250499D01*
X144797740Y-99235966D01*
X144880601Y-99180601D01*
X144935966Y-99097740D01*
X144950500Y-99024674D01*
X144950500Y-97925326D01*
X144950500Y-97925323D01*
X144950499Y-97925321D01*
X144935967Y-97852264D01*
X144935966Y-97852263D01*
X144935966Y-97852260D01*
X144880601Y-97769399D01*
X144880597Y-97769396D01*
X144871967Y-97760766D01*
X144872741Y-97759991D01*
X144835802Y-97715787D01*
X144825500Y-97666302D01*
X144825500Y-95895002D01*
X146202704Y-95895002D01*
X146202899Y-95897487D01*
X146248718Y-96055199D01*
X146332314Y-96196553D01*
X146332321Y-96196562D01*
X146448438Y-96312679D01*
X146448447Y-96312686D01*
X146589803Y-96396283D01*
X146589806Y-96396284D01*
X146747504Y-96442100D01*
X146747510Y-96442101D01*
X146784350Y-96445000D01*
X146784366Y-96445001D01*
X147450000Y-96445001D01*
X147450000Y-95895001D01*
X146202705Y-95895001D01*
X146202704Y-95895002D01*
X144825500Y-95895002D01*
X144825500Y-95133697D01*
X144845185Y-95066658D01*
X144872043Y-95039317D01*
X144871964Y-95039238D01*
X144880598Y-95030603D01*
X144880597Y-95030603D01*
X144880601Y-95030601D01*
X144935966Y-94947740D01*
X144950500Y-94874674D01*
X144950500Y-93828386D01*
X144970185Y-93761347D01*
X145022989Y-93715592D01*
X145092147Y-93705648D01*
X145155703Y-93734673D01*
X145161898Y-93740442D01*
X145161983Y-93740507D01*
X145161985Y-93740509D01*
X145287515Y-93812984D01*
X145376132Y-93836728D01*
X145431719Y-93868822D01*
X146323386Y-94760489D01*
X146400183Y-94804828D01*
X146448399Y-94855395D01*
X146461621Y-94924002D01*
X146435653Y-94988867D01*
X146425865Y-94999896D01*
X146332318Y-95093443D01*
X146332314Y-95093448D01*
X146248718Y-95234802D01*
X146202899Y-95392514D01*
X146202704Y-95394999D01*
X146202705Y-95395001D01*
X147576000Y-95395001D01*
X147643039Y-95414686D01*
X147688794Y-95467490D01*
X147700000Y-95519001D01*
X147700000Y-95645001D01*
X147826000Y-95645001D01*
X147893039Y-95664686D01*
X147938794Y-95717490D01*
X147950000Y-95769001D01*
X147950000Y-96445001D01*
X148615633Y-96445001D01*
X148615735Y-96444993D01*
X148615751Y-96444996D01*
X148618080Y-96444905D01*
X148618102Y-96445489D01*
X148684116Y-96459337D01*
X148733887Y-96508374D01*
X148749500Y-96568608D01*
X148749500Y-98530760D01*
X148729815Y-98597799D01*
X148677011Y-98643554D01*
X148607853Y-98653498D01*
X148584949Y-98646239D01*
X148584583Y-98647368D01*
X148575301Y-98644351D01*
X148481524Y-98629499D01*
X146718482Y-98629499D01*
X146637519Y-98642322D01*
X146624696Y-98644353D01*
X146511658Y-98701949D01*
X146511657Y-98701949D01*
X146505025Y-98705329D01*
X146436355Y-98718225D01*
X146371615Y-98691948D01*
X146361049Y-98682525D01*
X146338017Y-98659493D01*
X146338011Y-98659488D01*
X146212488Y-98587017D01*
X146212489Y-98587017D01*
X146201006Y-98583940D01*
X146072475Y-98549500D01*
X145927525Y-98549500D01*
X145798993Y-98583940D01*
X145787511Y-98587017D01*
X145661988Y-98659488D01*
X145661982Y-98659493D01*
X145559493Y-98761982D01*
X145559488Y-98761988D01*
X145487017Y-98887511D01*
X145487016Y-98887515D01*
X145449500Y-99027525D01*
X145449500Y-99172475D01*
X145470407Y-99250499D01*
X145487017Y-99312488D01*
X145559488Y-99438011D01*
X145559490Y-99438013D01*
X145559491Y-99438015D01*
X145661985Y-99540509D01*
X145661986Y-99540510D01*
X145661988Y-99540511D01*
X145787511Y-99612982D01*
X145787512Y-99612982D01*
X145787515Y-99612984D01*
X145927525Y-99650500D01*
X145927528Y-99650500D01*
X146072473Y-99650500D01*
X146072475Y-99650500D01*
X146123235Y-99636898D01*
X146131352Y-99634724D01*
X146136586Y-99634848D01*
X146163445Y-99630499D01*
X146433448Y-99630499D01*
X146500487Y-99650184D01*
X146506329Y-99654178D01*
X146511653Y-99658045D01*
X146511655Y-99658046D01*
X146511658Y-99658049D01*
X146602854Y-99704515D01*
X146653648Y-99752489D01*
X146670443Y-99820310D01*
X146647906Y-99886444D01*
X146602853Y-99925483D01*
X146511655Y-99971951D01*
X146506329Y-99975821D01*
X146440522Y-99999298D01*
X146433448Y-99999500D01*
X146367289Y-99999500D01*
X146346181Y-99995301D01*
X146336599Y-99995642D01*
X146326177Y-99991322D01*
X146319838Y-99990062D01*
X146312486Y-99987016D01*
X146270705Y-99975821D01*
X146172475Y-99949500D01*
X146027525Y-99949500D01*
X145898993Y-99983940D01*
X145887511Y-99987017D01*
X145761988Y-100059488D01*
X145761982Y-100059493D01*
X145659493Y-100161982D01*
X145659488Y-100161988D01*
X145587017Y-100287511D01*
X145587016Y-100287515D01*
X145549500Y-100427525D01*
X145549500Y-100572475D01*
X145574724Y-100666610D01*
X145587017Y-100712488D01*
X145659488Y-100838011D01*
X145659490Y-100838013D01*
X145659491Y-100838015D01*
X145761985Y-100940509D01*
X145770744Y-100945566D01*
X145818960Y-100996133D01*
X145832183Y-101064740D01*
X145806215Y-101129605D01*
X145749300Y-101170133D01*
X145740839Y-101172727D01*
X145687516Y-101187015D01*
X145687511Y-101187017D01*
X145561988Y-101259488D01*
X145561982Y-101259493D01*
X145459493Y-101361982D01*
X145459488Y-101361988D01*
X145387017Y-101487511D01*
X145387016Y-101487515D01*
X145349500Y-101627525D01*
X145349500Y-101772475D01*
X145387016Y-101912485D01*
X145387017Y-101912488D01*
X145459488Y-102038011D01*
X145459490Y-102038013D01*
X145459491Y-102038015D01*
X145561985Y-102140509D01*
X145561986Y-102140510D01*
X145561988Y-102140511D01*
X145687511Y-102212982D01*
X145687512Y-102212982D01*
X145687515Y-102212984D01*
X145751861Y-102230225D01*
X145811520Y-102266591D01*
X145842049Y-102329438D01*
X145833754Y-102398813D01*
X145789268Y-102452691D01*
X145751862Y-102469774D01*
X145697516Y-102484336D01*
X145687511Y-102487017D01*
X145561988Y-102559488D01*
X145561982Y-102559493D01*
X145459493Y-102661982D01*
X145459488Y-102661988D01*
X145387017Y-102787511D01*
X145387016Y-102787515D01*
X145349500Y-102927525D01*
X145349500Y-103072475D01*
X145370197Y-103149715D01*
X145387017Y-103212488D01*
X145459488Y-103338011D01*
X145459490Y-103338013D01*
X145459491Y-103338015D01*
X145561985Y-103440509D01*
X145561986Y-103440510D01*
X145561988Y-103440511D01*
X145687511Y-103512982D01*
X145687512Y-103512982D01*
X145687515Y-103512984D01*
X145751861Y-103530225D01*
X145811520Y-103566591D01*
X145842049Y-103629438D01*
X145833754Y-103698813D01*
X145789268Y-103752691D01*
X145751862Y-103769774D01*
X145697516Y-103784336D01*
X145687511Y-103787017D01*
X145561988Y-103859488D01*
X145561982Y-103859493D01*
X145459493Y-103961982D01*
X145459488Y-103961988D01*
X145387017Y-104087511D01*
X145387016Y-104087515D01*
X145349500Y-104227525D01*
X145349500Y-104372475D01*
X145372479Y-104458231D01*
X145387017Y-104512488D01*
X145459488Y-104638011D01*
X145459490Y-104638013D01*
X145459491Y-104638015D01*
X145561985Y-104740509D01*
X145632000Y-104780932D01*
X145652231Y-104792613D01*
X145700446Y-104843181D01*
X145713668Y-104911788D01*
X145687700Y-104976653D01*
X145652231Y-105007387D01*
X145561985Y-105059491D01*
X145561982Y-105059493D01*
X145459493Y-105161982D01*
X145459488Y-105161988D01*
X145387017Y-105287511D01*
X145387016Y-105287515D01*
X145349500Y-105427525D01*
X145349500Y-105572475D01*
X145386757Y-105711517D01*
X145387017Y-105712488D01*
X145459488Y-105838011D01*
X145459490Y-105838013D01*
X145459491Y-105838015D01*
X145561985Y-105940509D01*
X145561986Y-105940510D01*
X145561988Y-105940511D01*
X145687511Y-106012982D01*
X145687512Y-106012982D01*
X145687515Y-106012984D01*
X145751861Y-106030225D01*
X145811520Y-106066591D01*
X145842049Y-106129438D01*
X145833754Y-106198813D01*
X145789268Y-106252691D01*
X145751862Y-106269774D01*
X145697516Y-106284336D01*
X145687511Y-106287017D01*
X145561988Y-106359488D01*
X145561982Y-106359493D01*
X145459493Y-106461982D01*
X145459488Y-106461988D01*
X145387017Y-106587511D01*
X145387016Y-106587515D01*
X145349500Y-106727525D01*
X145349500Y-106872475D01*
X145385659Y-107007421D01*
X145387017Y-107012488D01*
X145459488Y-107138011D01*
X145459490Y-107138013D01*
X145459491Y-107138015D01*
X145561985Y-107240509D01*
X145561986Y-107240510D01*
X145561988Y-107240511D01*
X145687511Y-107312982D01*
X145687512Y-107312982D01*
X145687515Y-107312984D01*
X145827525Y-107350500D01*
X145827528Y-107350500D01*
X145972471Y-107350500D01*
X145972475Y-107350500D01*
X146109842Y-107313692D01*
X146179686Y-107315355D01*
X146237549Y-107354517D01*
X146265054Y-107418745D01*
X146253468Y-107487647D01*
X146236347Y-107511695D01*
X146237100Y-107512279D01*
X146232314Y-107518448D01*
X146148718Y-107659802D01*
X146102899Y-107817514D01*
X146102704Y-107819999D01*
X146102705Y-107820001D01*
X147476000Y-107820001D01*
X147543039Y-107839686D01*
X147588794Y-107892490D01*
X147600000Y-107944001D01*
X147600000Y-108070001D01*
X147726000Y-108070001D01*
X147793039Y-108089686D01*
X147838794Y-108142490D01*
X147850000Y-108194001D01*
X147850000Y-108870001D01*
X148515634Y-108870001D01*
X148515649Y-108870000D01*
X148552489Y-108867101D01*
X148552495Y-108867100D01*
X148710193Y-108821284D01*
X148710196Y-108821283D01*
X148851552Y-108737686D01*
X148851561Y-108737679D01*
X148922903Y-108666336D01*
X148984225Y-108632850D01*
X149053917Y-108637834D01*
X149072585Y-108646629D01*
X149187511Y-108712982D01*
X149187512Y-108712982D01*
X149187515Y-108712984D01*
X149327525Y-108750500D01*
X149327528Y-108750500D01*
X149472472Y-108750500D01*
X149472475Y-108750500D01*
X149612485Y-108712984D01*
X149738015Y-108640509D01*
X149840509Y-108538015D01*
X149912984Y-108412485D01*
X149950500Y-108272475D01*
X149950500Y-108127525D01*
X149912984Y-107987515D01*
X149898427Y-107962302D01*
X149840511Y-107861988D01*
X149840506Y-107861982D01*
X149738017Y-107759493D01*
X149738011Y-107759488D01*
X149712498Y-107744758D01*
X149664283Y-107694190D01*
X149650500Y-107637372D01*
X149650500Y-106328386D01*
X149670185Y-106261347D01*
X149722989Y-106215592D01*
X149792147Y-106205648D01*
X149855703Y-106234673D01*
X149861898Y-106240442D01*
X149861988Y-106240511D01*
X149987511Y-106312982D01*
X149987512Y-106312982D01*
X149987515Y-106312984D01*
X150127525Y-106350500D01*
X150127528Y-106350500D01*
X150272472Y-106350500D01*
X150272475Y-106350500D01*
X150412485Y-106312984D01*
X150538015Y-106240509D01*
X150640509Y-106138015D01*
X150712984Y-106012485D01*
X150750500Y-105872475D01*
X150750500Y-105727525D01*
X150712984Y-105587515D01*
X150704828Y-105573389D01*
X150640511Y-105461988D01*
X150640506Y-105461982D01*
X150538017Y-105359493D01*
X150538011Y-105359488D01*
X150412488Y-105287017D01*
X150412483Y-105287015D01*
X150342405Y-105268237D01*
X150282745Y-105231872D01*
X150252217Y-105169024D01*
X150250500Y-105148463D01*
X150250500Y-103152204D01*
X150270185Y-103085165D01*
X150322989Y-103039410D01*
X150392147Y-103029466D01*
X150455703Y-103058491D01*
X150481887Y-103090204D01*
X150509488Y-103138011D01*
X150509490Y-103138013D01*
X150509491Y-103138015D01*
X150611985Y-103240509D01*
X150611986Y-103240510D01*
X150611988Y-103240511D01*
X150737511Y-103312982D01*
X150737512Y-103312982D01*
X150737515Y-103312984D01*
X150877525Y-103350500D01*
X150877528Y-103350500D01*
X151022472Y-103350500D01*
X151022475Y-103350500D01*
X151162485Y-103312984D01*
X151224077Y-103277423D01*
X151291975Y-103260950D01*
X151358002Y-103283801D01*
X151396561Y-103328514D01*
X151421949Y-103378340D01*
X151421954Y-103378347D01*
X151511652Y-103468045D01*
X151511654Y-103468046D01*
X151511658Y-103468050D01*
X151602851Y-103514515D01*
X151653647Y-103562490D01*
X151670442Y-103630311D01*
X151647904Y-103696446D01*
X151602852Y-103735484D01*
X151511658Y-103781950D01*
X151511657Y-103781951D01*
X151511652Y-103781954D01*
X151421954Y-103871652D01*
X151421951Y-103871657D01*
X151421950Y-103871658D01*
X151402751Y-103909337D01*
X151364352Y-103984698D01*
X151349500Y-104078475D01*
X151349500Y-104441517D01*
X151352148Y-104458235D01*
X151364354Y-104535304D01*
X151421950Y-104648342D01*
X151421952Y-104648344D01*
X151421954Y-104648347D01*
X151511652Y-104738045D01*
X151511654Y-104738046D01*
X151511658Y-104738050D01*
X151602851Y-104784515D01*
X151653646Y-104832489D01*
X151670441Y-104900310D01*
X151647904Y-104966444D01*
X151602851Y-105005483D01*
X151511659Y-105051948D01*
X151511652Y-105051953D01*
X151421954Y-105141651D01*
X151421951Y-105141656D01*
X151421950Y-105141657D01*
X151411591Y-105161988D01*
X151364352Y-105254697D01*
X151349500Y-105348474D01*
X151349500Y-105711516D01*
X151358226Y-105766610D01*
X151364354Y-105805303D01*
X151421950Y-105918341D01*
X151421952Y-105918343D01*
X151421954Y-105918346D01*
X151511652Y-106008044D01*
X151511656Y-106008047D01*
X151511658Y-106008049D01*
X151602854Y-106054515D01*
X151653648Y-106102489D01*
X151670443Y-106170310D01*
X151647906Y-106236444D01*
X151602853Y-106275483D01*
X151511659Y-106321949D01*
X151511652Y-106321954D01*
X151421954Y-106411652D01*
X151421951Y-106411657D01*
X151421950Y-106411658D01*
X151402751Y-106449337D01*
X151364352Y-106524698D01*
X151349500Y-106618475D01*
X151349500Y-106981517D01*
X151360292Y-107049657D01*
X151364354Y-107075304D01*
X151421950Y-107188342D01*
X151421952Y-107188344D01*
X151421954Y-107188347D01*
X151511652Y-107278045D01*
X151511656Y-107278048D01*
X151511658Y-107278050D01*
X151602854Y-107324516D01*
X151653648Y-107372490D01*
X151670443Y-107440311D01*
X151647906Y-107506445D01*
X151602853Y-107545484D01*
X151511659Y-107591950D01*
X151511652Y-107591955D01*
X151421954Y-107681653D01*
X151421951Y-107681658D01*
X151364352Y-107794699D01*
X151349500Y-107888476D01*
X151349500Y-108251518D01*
X151355876Y-108291772D01*
X151364354Y-108345305D01*
X151421950Y-108458343D01*
X151421952Y-108458345D01*
X151421954Y-108458348D01*
X151511652Y-108548046D01*
X151511654Y-108548047D01*
X151511658Y-108548051D01*
X151618410Y-108602444D01*
X151624698Y-108605648D01*
X151718475Y-108620500D01*
X151718481Y-108620501D01*
X153481518Y-108620500D01*
X153575304Y-108605647D01*
X153688342Y-108548051D01*
X153688347Y-108548046D01*
X153693671Y-108544180D01*
X153759478Y-108520703D01*
X153766552Y-108520501D01*
X154380671Y-108520501D01*
X154380672Y-108520501D01*
X154471036Y-108496287D01*
X154495250Y-108489800D01*
X154597977Y-108430490D01*
X157455079Y-105573389D01*
X159899500Y-105573389D01*
X159899500Y-105746610D01*
X159922491Y-105891774D01*
X159926598Y-105917701D01*
X159980127Y-106082445D01*
X160058768Y-106236788D01*
X160160586Y-106376928D01*
X160283072Y-106499414D01*
X160423212Y-106601232D01*
X160577555Y-106679873D01*
X160742299Y-106733402D01*
X160913389Y-106760500D01*
X160913390Y-106760500D01*
X161086610Y-106760500D01*
X161086611Y-106760500D01*
X161257701Y-106733402D01*
X161422445Y-106679873D01*
X161576788Y-106601232D01*
X161716928Y-106499414D01*
X161839414Y-106376928D01*
X161941232Y-106236788D01*
X162019873Y-106082445D01*
X162073402Y-105917701D01*
X162100500Y-105746611D01*
X162100500Y-105573389D01*
X162073402Y-105402299D01*
X162019873Y-105237555D01*
X161941232Y-105083212D01*
X161839414Y-104943072D01*
X161716928Y-104820586D01*
X161576788Y-104718768D01*
X161422445Y-104640127D01*
X161257701Y-104586598D01*
X161257699Y-104586597D01*
X161257698Y-104586597D01*
X161126271Y-104565781D01*
X161086611Y-104559500D01*
X160913389Y-104559500D01*
X160873728Y-104565781D01*
X160742302Y-104586597D01*
X160577552Y-104640128D01*
X160423211Y-104718768D01*
X160343256Y-104776859D01*
X160283072Y-104820586D01*
X160283070Y-104820588D01*
X160283069Y-104820588D01*
X160160588Y-104943069D01*
X160160588Y-104943070D01*
X160160586Y-104943072D01*
X160128659Y-104987016D01*
X160058768Y-105083211D01*
X159980128Y-105237552D01*
X159926597Y-105402302D01*
X159899500Y-105573389D01*
X157455079Y-105573389D01*
X158409490Y-104618978D01*
X158416638Y-104606597D01*
X158468796Y-104516257D01*
X158468797Y-104516254D01*
X158468796Y-104516254D01*
X158468799Y-104516251D01*
X158484344Y-104458235D01*
X158499500Y-104401673D01*
X158499500Y-103033389D01*
X159899500Y-103033389D01*
X159899500Y-103206610D01*
X159922287Y-103350486D01*
X159926598Y-103377701D01*
X159980127Y-103542445D01*
X160058768Y-103696788D01*
X160160586Y-103836928D01*
X160283072Y-103959414D01*
X160423212Y-104061232D01*
X160577555Y-104139873D01*
X160742299Y-104193402D01*
X160913389Y-104220500D01*
X160913390Y-104220500D01*
X161086610Y-104220500D01*
X161086611Y-104220500D01*
X161257701Y-104193402D01*
X161422445Y-104139873D01*
X161576788Y-104061232D01*
X161716928Y-103959414D01*
X161839414Y-103836928D01*
X161941232Y-103696788D01*
X162019873Y-103542445D01*
X162073402Y-103377701D01*
X162100500Y-103206611D01*
X162100500Y-103033389D01*
X162073402Y-102862299D01*
X162019873Y-102697555D01*
X161941232Y-102543212D01*
X161839414Y-102403072D01*
X161716928Y-102280586D01*
X161576788Y-102178768D01*
X161422445Y-102100127D01*
X161257701Y-102046598D01*
X161257699Y-102046597D01*
X161257698Y-102046597D01*
X161126271Y-102025781D01*
X161086611Y-102019500D01*
X160913389Y-102019500D01*
X160873728Y-102025781D01*
X160742302Y-102046597D01*
X160577552Y-102100128D01*
X160423211Y-102178768D01*
X160352388Y-102230225D01*
X160283072Y-102280586D01*
X160283070Y-102280588D01*
X160283069Y-102280588D01*
X160160588Y-102403069D01*
X160160588Y-102403070D01*
X160160586Y-102403072D01*
X160134119Y-102439501D01*
X160058768Y-102543211D01*
X159980128Y-102697552D01*
X159926597Y-102862302D01*
X159899500Y-103033389D01*
X158499500Y-103033389D01*
X158499500Y-100493389D01*
X159899500Y-100493389D01*
X159899500Y-100666610D01*
X159924610Y-100825153D01*
X159926598Y-100837701D01*
X159980127Y-101002445D01*
X160058768Y-101156788D01*
X160160586Y-101296928D01*
X160283072Y-101419414D01*
X160423212Y-101521232D01*
X160577555Y-101599873D01*
X160742299Y-101653402D01*
X160913389Y-101680500D01*
X160913390Y-101680500D01*
X161086610Y-101680500D01*
X161086611Y-101680500D01*
X161257701Y-101653402D01*
X161422445Y-101599873D01*
X161576788Y-101521232D01*
X161716928Y-101419414D01*
X161839414Y-101296928D01*
X161941232Y-101156788D01*
X162019873Y-101002445D01*
X162073402Y-100837701D01*
X162100500Y-100666611D01*
X162100500Y-100493389D01*
X162073402Y-100322299D01*
X162019873Y-100157555D01*
X161941232Y-100003212D01*
X161839414Y-99863072D01*
X161716928Y-99740586D01*
X161576788Y-99638768D01*
X161422447Y-99560128D01*
X161422446Y-99560127D01*
X161422445Y-99560127D01*
X161257701Y-99506598D01*
X161257699Y-99506597D01*
X161257698Y-99506597D01*
X161126271Y-99485781D01*
X161086611Y-99479500D01*
X160913389Y-99479500D01*
X160873728Y-99485781D01*
X160742302Y-99506597D01*
X160577552Y-99560128D01*
X160423211Y-99638768D01*
X160395684Y-99658768D01*
X160283072Y-99740586D01*
X160283070Y-99740588D01*
X160283069Y-99740588D01*
X160160588Y-99863069D01*
X160160588Y-99863070D01*
X160160586Y-99863072D01*
X160134119Y-99899501D01*
X160058768Y-100003211D01*
X159980128Y-100157552D01*
X159926597Y-100322302D01*
X159899500Y-100493389D01*
X158499500Y-100493389D01*
X158499500Y-97953389D01*
X159899500Y-97953389D01*
X159899500Y-98126611D01*
X159926598Y-98297701D01*
X159980127Y-98462445D01*
X160058768Y-98616788D01*
X160160586Y-98756928D01*
X160283072Y-98879414D01*
X160423212Y-98981232D01*
X160577555Y-99059873D01*
X160742299Y-99113402D01*
X160913389Y-99140500D01*
X160913390Y-99140500D01*
X161086610Y-99140500D01*
X161086611Y-99140500D01*
X161257701Y-99113402D01*
X161422445Y-99059873D01*
X161576788Y-98981232D01*
X161716928Y-98879414D01*
X161839414Y-98756928D01*
X161941232Y-98616788D01*
X162019873Y-98462445D01*
X162073402Y-98297701D01*
X162100500Y-98126611D01*
X162100500Y-97953389D01*
X162073402Y-97782299D01*
X162019873Y-97617555D01*
X161941232Y-97463212D01*
X161839414Y-97323072D01*
X161716928Y-97200586D01*
X161576788Y-97098768D01*
X161422445Y-97020127D01*
X161257701Y-96966598D01*
X161257699Y-96966597D01*
X161257698Y-96966597D01*
X161126271Y-96945781D01*
X161086611Y-96939500D01*
X160913389Y-96939500D01*
X160873728Y-96945781D01*
X160742302Y-96966597D01*
X160577552Y-97020128D01*
X160423211Y-97098768D01*
X160395684Y-97118768D01*
X160283072Y-97200586D01*
X160283070Y-97200588D01*
X160283069Y-97200588D01*
X160160588Y-97323069D01*
X160160588Y-97323070D01*
X160160586Y-97323072D01*
X160146057Y-97343070D01*
X160058768Y-97463211D01*
X159980128Y-97617552D01*
X159926597Y-97782302D01*
X159903945Y-97925323D01*
X159899500Y-97953389D01*
X158499500Y-97953389D01*
X158499500Y-95413389D01*
X159899500Y-95413389D01*
X159899500Y-95586611D01*
X159926598Y-95757701D01*
X159980127Y-95922445D01*
X160058768Y-96076788D01*
X160160586Y-96216928D01*
X160283072Y-96339414D01*
X160423212Y-96441232D01*
X160577555Y-96519873D01*
X160742299Y-96573402D01*
X160913389Y-96600500D01*
X160913390Y-96600500D01*
X161086610Y-96600500D01*
X161086611Y-96600500D01*
X161257701Y-96573402D01*
X161422445Y-96519873D01*
X161576788Y-96441232D01*
X161716928Y-96339414D01*
X161839414Y-96216928D01*
X161941232Y-96076788D01*
X162019873Y-95922445D01*
X162073402Y-95757701D01*
X162100500Y-95586611D01*
X162100500Y-95413389D01*
X162073402Y-95242299D01*
X162019873Y-95077555D01*
X161941232Y-94923212D01*
X161839414Y-94783072D01*
X161716928Y-94660586D01*
X161576788Y-94558768D01*
X161422445Y-94480127D01*
X161257701Y-94426598D01*
X161257699Y-94426597D01*
X161257698Y-94426597D01*
X161126271Y-94405781D01*
X161086611Y-94399500D01*
X160913389Y-94399500D01*
X160873728Y-94405781D01*
X160742302Y-94426597D01*
X160577552Y-94480128D01*
X160423211Y-94558768D01*
X160395684Y-94578768D01*
X160283072Y-94660586D01*
X160283070Y-94660588D01*
X160283069Y-94660588D01*
X160160588Y-94783069D01*
X160160588Y-94783070D01*
X160160586Y-94783072D01*
X160133902Y-94819799D01*
X160058768Y-94923211D01*
X159980128Y-95077552D01*
X159926597Y-95242302D01*
X159910554Y-95343596D01*
X159899500Y-95413389D01*
X158499500Y-95413389D01*
X158499500Y-92873389D01*
X159899500Y-92873389D01*
X159899500Y-93046610D01*
X159918737Y-93168072D01*
X159926598Y-93217701D01*
X159980127Y-93382445D01*
X160058768Y-93536788D01*
X160160586Y-93676928D01*
X160283072Y-93799414D01*
X160423212Y-93901232D01*
X160577555Y-93979873D01*
X160742299Y-94033402D01*
X160913389Y-94060500D01*
X160913390Y-94060500D01*
X161086610Y-94060500D01*
X161086611Y-94060500D01*
X161257701Y-94033402D01*
X161422445Y-93979873D01*
X161576788Y-93901232D01*
X161716928Y-93799414D01*
X161839414Y-93676928D01*
X161941232Y-93536788D01*
X162019873Y-93382445D01*
X162073402Y-93217701D01*
X162100500Y-93046611D01*
X162100500Y-92873389D01*
X162073402Y-92702299D01*
X162019873Y-92537555D01*
X161941232Y-92383212D01*
X161839414Y-92243072D01*
X161716928Y-92120586D01*
X161576788Y-92018768D01*
X161422445Y-91940127D01*
X161257701Y-91886598D01*
X161257699Y-91886597D01*
X161257698Y-91886597D01*
X161126271Y-91865781D01*
X161086611Y-91859500D01*
X160913389Y-91859500D01*
X160873728Y-91865781D01*
X160742302Y-91886597D01*
X160577552Y-91940128D01*
X160423211Y-92018768D01*
X160395684Y-92038768D01*
X160283072Y-92120586D01*
X160283070Y-92120588D01*
X160283069Y-92120588D01*
X160160588Y-92243069D01*
X160160588Y-92243070D01*
X160160586Y-92243072D01*
X160123080Y-92294694D01*
X160058768Y-92383211D01*
X159980128Y-92537552D01*
X159926597Y-92702302D01*
X159899500Y-92873389D01*
X158499500Y-92873389D01*
X158499500Y-89545321D01*
X159899500Y-89545321D01*
X159899500Y-91294678D01*
X159914032Y-91367735D01*
X159914033Y-91367739D01*
X159914034Y-91367740D01*
X159969399Y-91450601D01*
X160052260Y-91505966D01*
X160052264Y-91505967D01*
X160125321Y-91520499D01*
X160125324Y-91520500D01*
X160125326Y-91520500D01*
X161874676Y-91520500D01*
X161874677Y-91520499D01*
X161947740Y-91505966D01*
X162030601Y-91450601D01*
X162085966Y-91367740D01*
X162100500Y-91294674D01*
X162100500Y-89545326D01*
X162100500Y-89545323D01*
X162100499Y-89545321D01*
X162085967Y-89472264D01*
X162085966Y-89472260D01*
X162081593Y-89465715D01*
X162030601Y-89389399D01*
X161947740Y-89334034D01*
X161947739Y-89334033D01*
X161947735Y-89334032D01*
X161874677Y-89319500D01*
X161874674Y-89319500D01*
X160125326Y-89319500D01*
X160125323Y-89319500D01*
X160052264Y-89334032D01*
X160052260Y-89334033D01*
X159969399Y-89389399D01*
X159914033Y-89472260D01*
X159914032Y-89472264D01*
X159899500Y-89545321D01*
X158499500Y-89545321D01*
X158499500Y-86382059D01*
X158519185Y-86315020D01*
X158571989Y-86269265D01*
X158641147Y-86259321D01*
X158696385Y-86281741D01*
X158709502Y-86291271D01*
X158723210Y-86301231D01*
X158723212Y-86301232D01*
X158877555Y-86379873D01*
X159042299Y-86433402D01*
X159213389Y-86460500D01*
X159213390Y-86460500D01*
X159386610Y-86460500D01*
X159386611Y-86460500D01*
X159557701Y-86433402D01*
X159722445Y-86379873D01*
X159876788Y-86301232D01*
X160016928Y-86199414D01*
X160139414Y-86076928D01*
X160241232Y-85936788D01*
X160319873Y-85782445D01*
X160373402Y-85617701D01*
X160400500Y-85446611D01*
X160400500Y-85273389D01*
X160373402Y-85102299D01*
X160319873Y-84937555D01*
X160241232Y-84783212D01*
X160139414Y-84643072D01*
X160016928Y-84520586D01*
X159876788Y-84418768D01*
X159722445Y-84340127D01*
X159557701Y-84286598D01*
X159557699Y-84286597D01*
X159557698Y-84286597D01*
X159426271Y-84265781D01*
X159386611Y-84259500D01*
X159213389Y-84259500D01*
X159173728Y-84265781D01*
X159042302Y-84286597D01*
X158877552Y-84340128D01*
X158723212Y-84418767D01*
X158696385Y-84438259D01*
X158630578Y-84461738D01*
X158562525Y-84445912D01*
X158513830Y-84395806D01*
X158499500Y-84337940D01*
X158499500Y-83842059D01*
X158519185Y-83775020D01*
X158571989Y-83729265D01*
X158641147Y-83719321D01*
X158696385Y-83741741D01*
X158709502Y-83751271D01*
X158723210Y-83761231D01*
X158723212Y-83761232D01*
X158877555Y-83839873D01*
X159042299Y-83893402D01*
X159213389Y-83920500D01*
X159213390Y-83920500D01*
X159386610Y-83920500D01*
X159386611Y-83920500D01*
X159557701Y-83893402D01*
X159722445Y-83839873D01*
X159876788Y-83761232D01*
X160016928Y-83659414D01*
X160139414Y-83536928D01*
X160241232Y-83396788D01*
X160319873Y-83242445D01*
X160373402Y-83077701D01*
X160400500Y-82906611D01*
X160400500Y-82733389D01*
X160373402Y-82562299D01*
X160319873Y-82397555D01*
X160241232Y-82243212D01*
X160139414Y-82103072D01*
X160016928Y-81980586D01*
X159876788Y-81878768D01*
X159722445Y-81800127D01*
X159557701Y-81746598D01*
X159557699Y-81746597D01*
X159557698Y-81746597D01*
X159426271Y-81725781D01*
X159386611Y-81719500D01*
X159213389Y-81719500D01*
X159173728Y-81725781D01*
X159042302Y-81746597D01*
X158877552Y-81800128D01*
X158723212Y-81878767D01*
X158696385Y-81898259D01*
X158630578Y-81921738D01*
X158562525Y-81905912D01*
X158513830Y-81855806D01*
X158499500Y-81797940D01*
X158499500Y-81302059D01*
X158519185Y-81235020D01*
X158571989Y-81189265D01*
X158641147Y-81179321D01*
X158696385Y-81201741D01*
X158709502Y-81211271D01*
X158723210Y-81221231D01*
X158723212Y-81221232D01*
X158877555Y-81299873D01*
X159042299Y-81353402D01*
X159213389Y-81380500D01*
X159213390Y-81380500D01*
X159386610Y-81380500D01*
X159386611Y-81380500D01*
X159557701Y-81353402D01*
X159722445Y-81299873D01*
X159876788Y-81221232D01*
X160016928Y-81119414D01*
X160139414Y-80996928D01*
X160241232Y-80856788D01*
X160319873Y-80702445D01*
X160373402Y-80537701D01*
X160400500Y-80366611D01*
X160400500Y-80193389D01*
X160373402Y-80022299D01*
X160319873Y-79857555D01*
X160241232Y-79703212D01*
X160139414Y-79563072D01*
X160016928Y-79440586D01*
X159876788Y-79338768D01*
X159825210Y-79312488D01*
X159722446Y-79260127D01*
X159719284Y-79259100D01*
X159718236Y-79258383D01*
X159717952Y-79258266D01*
X159717976Y-79258206D01*
X159661609Y-79219661D01*
X159634413Y-79155302D01*
X159646329Y-79086456D01*
X159693574Y-79034981D01*
X159719288Y-79023239D01*
X159818215Y-78991096D01*
X160007554Y-78894622D01*
X160061716Y-78855270D01*
X160061717Y-78855270D01*
X159429409Y-78222962D01*
X159492993Y-78205925D01*
X159607007Y-78140099D01*
X159700099Y-78047007D01*
X159765925Y-77932993D01*
X159782962Y-77869408D01*
X160415270Y-78501717D01*
X160415270Y-78501716D01*
X160454622Y-78447554D01*
X160551095Y-78258217D01*
X160616757Y-78056130D01*
X160616757Y-78056127D01*
X160650000Y-77846246D01*
X160650000Y-77633753D01*
X160616757Y-77423872D01*
X160616757Y-77423869D01*
X160551095Y-77221782D01*
X160454624Y-77032449D01*
X160415270Y-76978282D01*
X160415269Y-76978282D01*
X159782962Y-77610590D01*
X159765925Y-77547007D01*
X159700099Y-77432993D01*
X159607007Y-77339901D01*
X159492993Y-77274075D01*
X159429407Y-77257036D01*
X160061716Y-76624728D01*
X160007550Y-76585375D01*
X159818217Y-76488904D01*
X159719287Y-76456760D01*
X159661611Y-76417323D01*
X159634413Y-76352964D01*
X159646328Y-76284118D01*
X159693572Y-76232642D01*
X159719290Y-76220897D01*
X159722445Y-76219873D01*
X159876788Y-76141232D01*
X160016928Y-76039414D01*
X160139414Y-75916928D01*
X160241232Y-75776788D01*
X160319873Y-75622445D01*
X160373402Y-75457701D01*
X160400500Y-75286611D01*
X160400500Y-75113389D01*
X160373402Y-74942299D01*
X160319873Y-74777555D01*
X160241232Y-74623212D01*
X160139414Y-74483072D01*
X160016928Y-74360586D01*
X159876788Y-74258768D01*
X159722445Y-74180127D01*
X159557701Y-74126598D01*
X159557699Y-74126597D01*
X159557698Y-74126597D01*
X159426271Y-74105781D01*
X159386611Y-74099500D01*
X159213389Y-74099500D01*
X159173728Y-74105781D01*
X159042302Y-74126597D01*
X158877552Y-74180128D01*
X158723212Y-74258767D01*
X158696385Y-74278259D01*
X158630578Y-74301738D01*
X158562525Y-74285912D01*
X158513830Y-74235806D01*
X158499500Y-74177940D01*
X158499500Y-73682059D01*
X158519185Y-73615020D01*
X158571989Y-73569265D01*
X158641147Y-73559321D01*
X158696385Y-73581741D01*
X158709502Y-73591271D01*
X158723210Y-73601231D01*
X158723212Y-73601232D01*
X158877555Y-73679873D01*
X159042299Y-73733402D01*
X159213389Y-73760500D01*
X159213390Y-73760500D01*
X159386610Y-73760500D01*
X159386611Y-73760500D01*
X159557701Y-73733402D01*
X159722445Y-73679873D01*
X159876788Y-73601232D01*
X160016928Y-73499414D01*
X160139414Y-73376928D01*
X160241232Y-73236788D01*
X160319873Y-73082445D01*
X160373402Y-72917701D01*
X160400500Y-72746611D01*
X160400500Y-72573389D01*
X160373402Y-72402299D01*
X160319873Y-72237555D01*
X160241232Y-72083212D01*
X160139414Y-71943072D01*
X160016928Y-71820586D01*
X159876788Y-71718768D01*
X159722445Y-71640127D01*
X159557701Y-71586598D01*
X159557699Y-71586597D01*
X159557698Y-71586597D01*
X159426271Y-71565781D01*
X159386611Y-71559500D01*
X159213389Y-71559500D01*
X159173728Y-71565781D01*
X159042302Y-71586597D01*
X158877552Y-71640128D01*
X158723212Y-71718767D01*
X158696385Y-71738259D01*
X158630578Y-71761738D01*
X158562525Y-71745912D01*
X158513830Y-71695806D01*
X158499500Y-71637940D01*
X158499500Y-71142059D01*
X158519185Y-71075020D01*
X158571989Y-71029265D01*
X158641147Y-71019321D01*
X158696385Y-71041741D01*
X158709502Y-71051271D01*
X158723210Y-71061231D01*
X158723212Y-71061232D01*
X158877555Y-71139873D01*
X159042299Y-71193402D01*
X159213389Y-71220500D01*
X159213390Y-71220500D01*
X159386610Y-71220500D01*
X159386611Y-71220500D01*
X159557701Y-71193402D01*
X159722445Y-71139873D01*
X159876788Y-71061232D01*
X160016928Y-70959414D01*
X160139414Y-70836928D01*
X160241232Y-70696788D01*
X160319873Y-70542445D01*
X160373402Y-70377701D01*
X160400500Y-70206611D01*
X160400500Y-70033389D01*
X160373402Y-69862299D01*
X160319873Y-69697555D01*
X160241232Y-69543212D01*
X160139414Y-69403072D01*
X160016928Y-69280586D01*
X159876788Y-69178768D01*
X159756544Y-69117501D01*
X159722447Y-69100128D01*
X159722446Y-69100127D01*
X159722445Y-69100127D01*
X159557701Y-69046598D01*
X159557699Y-69046597D01*
X159557698Y-69046597D01*
X159411127Y-69023383D01*
X159386611Y-69019500D01*
X159213389Y-69019500D01*
X159188873Y-69023383D01*
X159042302Y-69046597D01*
X158877552Y-69100128D01*
X158723212Y-69178767D01*
X158696385Y-69198259D01*
X158630578Y-69221738D01*
X158562525Y-69205912D01*
X158513830Y-69155806D01*
X158499500Y-69097940D01*
X158499500Y-68602059D01*
X158519185Y-68535020D01*
X158571989Y-68489265D01*
X158641147Y-68479321D01*
X158696385Y-68501741D01*
X158709502Y-68511271D01*
X158723210Y-68521231D01*
X158723212Y-68521232D01*
X158877555Y-68599873D01*
X159042299Y-68653402D01*
X159213389Y-68680500D01*
X159213390Y-68680500D01*
X159386610Y-68680500D01*
X159386611Y-68680500D01*
X159557701Y-68653402D01*
X159722445Y-68599873D01*
X159876788Y-68521232D01*
X160016928Y-68419414D01*
X160139414Y-68296928D01*
X160241232Y-68156788D01*
X160319873Y-68002445D01*
X160373402Y-67837701D01*
X160400500Y-67666611D01*
X160400500Y-67493389D01*
X160373402Y-67322299D01*
X160319873Y-67157555D01*
X160241232Y-67003212D01*
X160139414Y-66863072D01*
X160016928Y-66740586D01*
X159876788Y-66638768D01*
X159722445Y-66560127D01*
X159557701Y-66506598D01*
X159557699Y-66506597D01*
X159557698Y-66506597D01*
X159426271Y-66485781D01*
X159386611Y-66479500D01*
X159213389Y-66479500D01*
X159173728Y-66485781D01*
X159042302Y-66506597D01*
X158877552Y-66560128D01*
X158723211Y-66638768D01*
X158643256Y-66696859D01*
X158583072Y-66740586D01*
X158583070Y-66740588D01*
X158583069Y-66740588D01*
X158460588Y-66863069D01*
X158460588Y-66863070D01*
X158460586Y-66863072D01*
X158455825Y-66869625D01*
X158358768Y-67003211D01*
X158280128Y-67157552D01*
X158226597Y-67322301D01*
X158221298Y-67355759D01*
X158191368Y-67418894D01*
X158132056Y-67455824D01*
X158062193Y-67454826D01*
X158011144Y-67424041D01*
X155876616Y-65289513D01*
X155876614Y-65289511D01*
X155817302Y-65255267D01*
X155773888Y-65230201D01*
X155761780Y-65226957D01*
X155749673Y-65223713D01*
X155749670Y-65223712D01*
X155711478Y-65213478D01*
X155659309Y-65199500D01*
X155659308Y-65199500D01*
X153866552Y-65199500D01*
X153852523Y-65195983D01*
X153841240Y-65196889D01*
X153821821Y-65188288D01*
X153808066Y-65184841D01*
X153793374Y-65176982D01*
X153788342Y-65171950D01*
X153696051Y-65124925D01*
X153694957Y-65124340D01*
X153670882Y-65100677D01*
X153646352Y-65077509D01*
X153646043Y-65076262D01*
X153645128Y-65075363D01*
X153637666Y-65042435D01*
X153629557Y-65009687D01*
X153629970Y-65008473D01*
X153629687Y-65007221D01*
X153641212Y-64975486D01*
X153652095Y-64943553D01*
X153653138Y-64942649D01*
X153653538Y-64941548D01*
X153660769Y-64936036D01*
X153697145Y-64904517D01*
X153788342Y-64858050D01*
X153878050Y-64768342D01*
X153935646Y-64655304D01*
X153935646Y-64655302D01*
X153935647Y-64655301D01*
X153950499Y-64561524D01*
X153950500Y-64561519D01*
X153950499Y-64198482D01*
X153935646Y-64104696D01*
X153878050Y-63991658D01*
X153878046Y-63991654D01*
X153878045Y-63991652D01*
X153788347Y-63901954D01*
X153788343Y-63901951D01*
X153788342Y-63901950D01*
X153725019Y-63869685D01*
X153697147Y-63855483D01*
X153688887Y-63847682D01*
X153678277Y-63843620D01*
X153663943Y-63824123D01*
X153646352Y-63807509D01*
X153643621Y-63796481D01*
X153636891Y-63787327D01*
X153635373Y-63763174D01*
X153629557Y-63739687D01*
X153633221Y-63728933D01*
X153632509Y-63717595D01*
X153644289Y-63696457D01*
X153652095Y-63673553D01*
X153661871Y-63664909D01*
X153666523Y-63656563D01*
X153692317Y-63637992D01*
X153694959Y-63635657D01*
X153695975Y-63635113D01*
X153788342Y-63588050D01*
X153793375Y-63583016D01*
X153808068Y-63575158D01*
X153834270Y-63569694D01*
X153859478Y-63560702D01*
X153866552Y-63560500D01*
X153930614Y-63560500D01*
X153997653Y-63580185D01*
X154018295Y-63596819D01*
X154061985Y-63640509D01*
X154061986Y-63640510D01*
X154061988Y-63640511D01*
X154187511Y-63712982D01*
X154187512Y-63712982D01*
X154187515Y-63712984D01*
X154327525Y-63750500D01*
X154327528Y-63750500D01*
X154472472Y-63750500D01*
X154472475Y-63750500D01*
X154612485Y-63712984D01*
X154738015Y-63640509D01*
X154840509Y-63538015D01*
X154912984Y-63412485D01*
X154950500Y-63272475D01*
X154950500Y-63127525D01*
X154912984Y-62987515D01*
X154840509Y-62861985D01*
X154738015Y-62759491D01*
X154738013Y-62759490D01*
X154738011Y-62759488D01*
X154612488Y-62687017D01*
X154612489Y-62687017D01*
X154600158Y-62683713D01*
X154472475Y-62649500D01*
X154327525Y-62649500D01*
X154305973Y-62655275D01*
X154273880Y-62659500D01*
X153866552Y-62659500D01*
X153799513Y-62639815D01*
X153793671Y-62635821D01*
X153788346Y-62631953D01*
X153788343Y-62631951D01*
X153788342Y-62631950D01*
X153699358Y-62586610D01*
X153675301Y-62574352D01*
X153581524Y-62559500D01*
X151818482Y-62559500D01*
X151737519Y-62572323D01*
X151724696Y-62574354D01*
X151611658Y-62631950D01*
X151611657Y-62631951D01*
X151611652Y-62631954D01*
X151521954Y-62721652D01*
X151521951Y-62721657D01*
X151464352Y-62834698D01*
X151449500Y-62928475D01*
X151449500Y-63113035D01*
X151429815Y-63180074D01*
X151377011Y-63225829D01*
X151307853Y-63235773D01*
X151244297Y-63206748D01*
X151237819Y-63200716D01*
X149249284Y-61212181D01*
X149215799Y-61150858D01*
X149220783Y-61081166D01*
X149262655Y-61025233D01*
X149328119Y-61000816D01*
X149336965Y-61000500D01*
X158110731Y-61000500D01*
X158177770Y-61020185D01*
X158223525Y-61072989D01*
X158233469Y-61142147D01*
X158204444Y-61205703D01*
X158185042Y-61223766D01*
X158092812Y-61292809D01*
X158092809Y-61292812D01*
X158006649Y-61407906D01*
X158006645Y-61407913D01*
X157956403Y-61542620D01*
X157956401Y-61542627D01*
X157950000Y-61602155D01*
X157950000Y-62250000D01*
X158866988Y-62250000D01*
X158834075Y-62307007D01*
X158800000Y-62434174D01*
X158800000Y-62565826D01*
X158834075Y-62692993D01*
X158866988Y-62750000D01*
X157950000Y-62750000D01*
X157950000Y-63397844D01*
X157956401Y-63457372D01*
X157956403Y-63457379D01*
X158006645Y-63592086D01*
X158006649Y-63592093D01*
X158092809Y-63707187D01*
X158092812Y-63707190D01*
X158207906Y-63793350D01*
X158207913Y-63793354D01*
X158342620Y-63843596D01*
X158342627Y-63843598D01*
X158402155Y-63849999D01*
X158402172Y-63850000D01*
X158694949Y-63850000D01*
X158761988Y-63869685D01*
X158807743Y-63922489D01*
X158817687Y-63991647D01*
X158788662Y-64055203D01*
X158751244Y-64084485D01*
X158723211Y-64098768D01*
X158653187Y-64149644D01*
X158583072Y-64200586D01*
X158583070Y-64200588D01*
X158583069Y-64200588D01*
X158460588Y-64323069D01*
X158460588Y-64323070D01*
X158460586Y-64323072D01*
X158455613Y-64329917D01*
X158358768Y-64463211D01*
X158280128Y-64617552D01*
X158226597Y-64782302D01*
X158199500Y-64953389D01*
X158199500Y-65126610D01*
X158225300Y-65289511D01*
X158226598Y-65297701D01*
X158280127Y-65462445D01*
X158358768Y-65616788D01*
X158460586Y-65756928D01*
X158583072Y-65879414D01*
X158723212Y-65981232D01*
X158877555Y-66059873D01*
X159042299Y-66113402D01*
X159213389Y-66140500D01*
X159213390Y-66140500D01*
X159386610Y-66140500D01*
X159386611Y-66140500D01*
X159557701Y-66113402D01*
X159722445Y-66059873D01*
X159876788Y-65981232D01*
X160016928Y-65879414D01*
X160139414Y-65756928D01*
X160241232Y-65616788D01*
X160319873Y-65462445D01*
X160373402Y-65297701D01*
X160400500Y-65126611D01*
X160400500Y-64953389D01*
X160373402Y-64782299D01*
X160319873Y-64617555D01*
X160241232Y-64463212D01*
X160139414Y-64323072D01*
X160016928Y-64200586D01*
X159876788Y-64098768D01*
X159848756Y-64084485D01*
X159797960Y-64036510D01*
X159781165Y-63968689D01*
X159803703Y-63902554D01*
X159858418Y-63859103D01*
X159905051Y-63850000D01*
X160197828Y-63850000D01*
X160197844Y-63849999D01*
X160257372Y-63843598D01*
X160257379Y-63843596D01*
X160392086Y-63793354D01*
X160392093Y-63793350D01*
X160507187Y-63707190D01*
X160507190Y-63707187D01*
X160593350Y-63592093D01*
X160593354Y-63592086D01*
X160643596Y-63457379D01*
X160643598Y-63457372D01*
X160649999Y-63397844D01*
X160650000Y-63397827D01*
X160650000Y-62750000D01*
X159733012Y-62750000D01*
X159765925Y-62692993D01*
X159800000Y-62565826D01*
X159800000Y-62434174D01*
X159765925Y-62307007D01*
X159733012Y-62250000D01*
X160650000Y-62250000D01*
X160650000Y-61602172D01*
X160649999Y-61602155D01*
X160643598Y-61542627D01*
X160643596Y-61542620D01*
X160593354Y-61407913D01*
X160593350Y-61407906D01*
X160507190Y-61292812D01*
X160507187Y-61292809D01*
X160414958Y-61223766D01*
X160373087Y-61167832D01*
X160368103Y-61098141D01*
X160401589Y-61036818D01*
X160462912Y-61003334D01*
X160489269Y-61000500D01*
X162875500Y-61000500D01*
X162942539Y-61020185D01*
X162988294Y-61072989D01*
X162999500Y-61124500D01*
X162999500Y-109375500D01*
X162979815Y-109442539D01*
X162927011Y-109488294D01*
X162875500Y-109499500D01*
X161344747Y-109499500D01*
X161277708Y-109479815D01*
X161231953Y-109427011D01*
X161222009Y-109357853D01*
X161251034Y-109294297D01*
X161306428Y-109257569D01*
X161422445Y-109219873D01*
X161576788Y-109141232D01*
X161716928Y-109039414D01*
X161839414Y-108916928D01*
X161941232Y-108776788D01*
X162019873Y-108622445D01*
X162073402Y-108457701D01*
X162100500Y-108286611D01*
X162100500Y-108113389D01*
X162073402Y-107942299D01*
X162019873Y-107777555D01*
X161941232Y-107623212D01*
X161839414Y-107483072D01*
X161716928Y-107360586D01*
X161576788Y-107258768D01*
X161540952Y-107240509D01*
X161422447Y-107180128D01*
X161422446Y-107180127D01*
X161422445Y-107180127D01*
X161257701Y-107126598D01*
X161257699Y-107126597D01*
X161257698Y-107126597D01*
X161126271Y-107105781D01*
X161086611Y-107099500D01*
X160913389Y-107099500D01*
X160873728Y-107105781D01*
X160742302Y-107126597D01*
X160577552Y-107180128D01*
X160423211Y-107258768D01*
X160361071Y-107303916D01*
X160283072Y-107360586D01*
X160283070Y-107360588D01*
X160283069Y-107360588D01*
X160160588Y-107483069D01*
X160160588Y-107483070D01*
X160160586Y-107483072D01*
X160139790Y-107511695D01*
X160058768Y-107623211D01*
X159980128Y-107777552D01*
X159926597Y-107942302D01*
X159919437Y-107987511D01*
X159899500Y-108113389D01*
X159899500Y-108286611D01*
X159904789Y-108320002D01*
X159922287Y-108430487D01*
X159926598Y-108457701D01*
X159979837Y-108621553D01*
X159980128Y-108622447D01*
X160026259Y-108712984D01*
X160058768Y-108776788D01*
X160160586Y-108916928D01*
X160283072Y-109039414D01*
X160423212Y-109141232D01*
X160577555Y-109219873D01*
X160693571Y-109257569D01*
X160751247Y-109297007D01*
X160778445Y-109361365D01*
X160766530Y-109430212D01*
X160719286Y-109481687D01*
X160655253Y-109499500D01*
X139406300Y-109499500D01*
X139339261Y-109479815D01*
X139293506Y-109427011D01*
X139283562Y-109357853D01*
X139312587Y-109294297D01*
X139367979Y-109257570D01*
X139422445Y-109239873D01*
X139576788Y-109161232D01*
X139716928Y-109059414D01*
X139839414Y-108936928D01*
X139941232Y-108796788D01*
X140019873Y-108642445D01*
X140073402Y-108477701D01*
X140100500Y-108306611D01*
X140100500Y-108133389D01*
X140073402Y-107962299D01*
X140066694Y-107941654D01*
X142325001Y-107941654D01*
X142335056Y-108040085D01*
X142387906Y-108199574D01*
X142387908Y-108199579D01*
X142476114Y-108342582D01*
X142594919Y-108461387D01*
X142737922Y-108549593D01*
X142737927Y-108549595D01*
X142897416Y-108602444D01*
X142995855Y-108612501D01*
X143550000Y-108612501D01*
X143604136Y-108612501D01*
X143604152Y-108612500D01*
X143702583Y-108602445D01*
X143862072Y-108549595D01*
X143862077Y-108549593D01*
X144005080Y-108461387D01*
X144123885Y-108342582D01*
X144137813Y-108320002D01*
X146102704Y-108320002D01*
X146102899Y-108322487D01*
X146148718Y-108480199D01*
X146232314Y-108621553D01*
X146232321Y-108621562D01*
X146348438Y-108737679D01*
X146348447Y-108737686D01*
X146489803Y-108821283D01*
X146489806Y-108821284D01*
X146647504Y-108867100D01*
X146647510Y-108867101D01*
X146684350Y-108870000D01*
X146684366Y-108870001D01*
X147350000Y-108870001D01*
X147350000Y-108320001D01*
X146102705Y-108320001D01*
X146102704Y-108320002D01*
X144137813Y-108320002D01*
X144205318Y-108210560D01*
X144205320Y-108210557D01*
X144212088Y-108199585D01*
X144212093Y-108199574D01*
X144264942Y-108040085D01*
X144274999Y-107941652D01*
X144275000Y-107941639D01*
X144275000Y-107925002D01*
X143550000Y-107925002D01*
X143550000Y-108612501D01*
X142995855Y-108612501D01*
X143049999Y-108612500D01*
X143050000Y-108612500D01*
X143050000Y-107925002D01*
X142325001Y-107925002D01*
X142325001Y-107941654D01*
X140066694Y-107941654D01*
X140019873Y-107797555D01*
X139941232Y-107643212D01*
X139839414Y-107503072D01*
X139744693Y-107408351D01*
X142325000Y-107408351D01*
X142325000Y-107425002D01*
X144274999Y-107425002D01*
X144274999Y-107408366D01*
X144274998Y-107408349D01*
X144264943Y-107309918D01*
X144212093Y-107150429D01*
X144212091Y-107150424D01*
X144123885Y-107007421D01*
X144005078Y-106888614D01*
X143922672Y-106837785D01*
X143875948Y-106785837D01*
X143864727Y-106716874D01*
X143888503Y-106657936D01*
X143891468Y-106653974D01*
X143891472Y-106653972D01*
X143972336Y-106545950D01*
X144019491Y-106419522D01*
X144024070Y-106376929D01*
X144025499Y-106363644D01*
X144025500Y-106363629D01*
X144025500Y-105836370D01*
X144025499Y-105836355D01*
X144022160Y-105805301D01*
X144019491Y-105780478D01*
X144006859Y-105746610D01*
X143972337Y-105654052D01*
X143972335Y-105654049D01*
X143891472Y-105546028D01*
X143818385Y-105491316D01*
X143776515Y-105435383D01*
X143771531Y-105365692D01*
X143805016Y-105304369D01*
X143819049Y-105292291D01*
X143897150Y-105234651D01*
X143977793Y-105125383D01*
X144000219Y-105061291D01*
X144022646Y-104997202D01*
X144022646Y-104997200D01*
X144025500Y-104966770D01*
X144025500Y-104458231D01*
X144022646Y-104427801D01*
X144022646Y-104427799D01*
X143977793Y-104299620D01*
X143977792Y-104299618D01*
X143934161Y-104240500D01*
X143897150Y-104190351D01*
X143787882Y-104109708D01*
X143787880Y-104109707D01*
X143659700Y-104064854D01*
X143629270Y-104062001D01*
X143629266Y-104062001D01*
X142970734Y-104062001D01*
X142970730Y-104062001D01*
X142940300Y-104064854D01*
X142940298Y-104064854D01*
X142812119Y-104109707D01*
X142812117Y-104109708D01*
X142702850Y-104190351D01*
X142622207Y-104299618D01*
X142622206Y-104299620D01*
X142577353Y-104427799D01*
X142577353Y-104427801D01*
X142574500Y-104458231D01*
X142574500Y-104966770D01*
X142577353Y-104997200D01*
X142577353Y-104997202D01*
X142622206Y-105125381D01*
X142622207Y-105125383D01*
X142702851Y-105234652D01*
X142780935Y-105292280D01*
X142823186Y-105347927D01*
X142828645Y-105417583D01*
X142795578Y-105479133D01*
X142781613Y-105491317D01*
X142708528Y-105546028D01*
X142627664Y-105654049D01*
X142627662Y-105654052D01*
X142580509Y-105780475D01*
X142574500Y-105836355D01*
X142574500Y-106363644D01*
X142580509Y-106419524D01*
X142627662Y-106545947D01*
X142627664Y-106545950D01*
X142708528Y-106653972D01*
X142708529Y-106653972D01*
X142711496Y-106657936D01*
X142735913Y-106723401D01*
X142721061Y-106791674D01*
X142677327Y-106837785D01*
X142594921Y-106888614D01*
X142476114Y-107007421D01*
X142387908Y-107150424D01*
X142387906Y-107150429D01*
X142335057Y-107309918D01*
X142325000Y-107408351D01*
X139744693Y-107408351D01*
X139716928Y-107380586D01*
X139576788Y-107278768D01*
X139422445Y-107200127D01*
X139257701Y-107146598D01*
X139257699Y-107146597D01*
X139257698Y-107146597D01*
X139126271Y-107125781D01*
X139086611Y-107119500D01*
X138913389Y-107119500D01*
X138873728Y-107125781D01*
X138742302Y-107146597D01*
X138577552Y-107200128D01*
X138423211Y-107278768D01*
X138360247Y-107324515D01*
X138283072Y-107380586D01*
X138283070Y-107380588D01*
X138283069Y-107380588D01*
X138250477Y-107413181D01*
X138189154Y-107446666D01*
X138162796Y-107449500D01*
X137297204Y-107449500D01*
X137230165Y-107429815D01*
X137209523Y-107413181D01*
X137176930Y-107380588D01*
X137176928Y-107380586D01*
X137036788Y-107278768D01*
X136882445Y-107200127D01*
X136717701Y-107146598D01*
X136717699Y-107146597D01*
X136717698Y-107146597D01*
X136586271Y-107125781D01*
X136546611Y-107119500D01*
X136373389Y-107119500D01*
X136333728Y-107125781D01*
X136202302Y-107146597D01*
X136037552Y-107200128D01*
X135883211Y-107278768D01*
X135820247Y-107324515D01*
X135743072Y-107380586D01*
X135743070Y-107380588D01*
X135743069Y-107380588D01*
X135620588Y-107503069D01*
X135620588Y-107503070D01*
X135620586Y-107503072D01*
X135594603Y-107538835D01*
X135518768Y-107643211D01*
X135440128Y-107797552D01*
X135386597Y-107962302D01*
X135359500Y-108133389D01*
X135359500Y-108306610D01*
X135383532Y-108458348D01*
X135386598Y-108477701D01*
X135440127Y-108642445D01*
X135518768Y-108796788D01*
X135620586Y-108936928D01*
X135743072Y-109059414D01*
X135883212Y-109161232D01*
X136037555Y-109239873D01*
X136092020Y-109257570D01*
X136149694Y-109297007D01*
X136176892Y-109361365D01*
X136164977Y-109430212D01*
X136117733Y-109481687D01*
X136053700Y-109499500D01*
X134624500Y-109499500D01*
X134557461Y-109479815D01*
X134511706Y-109427011D01*
X134500500Y-109375500D01*
X134500500Y-105593389D01*
X135359500Y-105593389D01*
X135359500Y-105766610D01*
X135383531Y-105918341D01*
X135386598Y-105937701D01*
X135439718Y-106101187D01*
X135440128Y-106102447D01*
X135497778Y-106215592D01*
X135518768Y-106256788D01*
X135620586Y-106396928D01*
X135743072Y-106519414D01*
X135883212Y-106621232D01*
X136037555Y-106699873D01*
X136202299Y-106753402D01*
X136373389Y-106780500D01*
X136373390Y-106780500D01*
X136546610Y-106780500D01*
X136546611Y-106780500D01*
X136717701Y-106753402D01*
X136882445Y-106699873D01*
X137036788Y-106621232D01*
X137176928Y-106519414D01*
X137249523Y-106446819D01*
X137310846Y-106413334D01*
X137337204Y-106410500D01*
X138122796Y-106410500D01*
X138189835Y-106430185D01*
X138210477Y-106446819D01*
X138283072Y-106519414D01*
X138423212Y-106621232D01*
X138577555Y-106699873D01*
X138742299Y-106753402D01*
X138913389Y-106780500D01*
X138913390Y-106780500D01*
X139086610Y-106780500D01*
X139086611Y-106780500D01*
X139257701Y-106753402D01*
X139422445Y-106699873D01*
X139576788Y-106621232D01*
X139716928Y-106519414D01*
X139839414Y-106396928D01*
X139941232Y-106256788D01*
X140019873Y-106102445D01*
X140073402Y-105937701D01*
X140100500Y-105766611D01*
X140100500Y-105593389D01*
X140073402Y-105422299D01*
X140019873Y-105257555D01*
X139941232Y-105103212D01*
X139839414Y-104963072D01*
X139716928Y-104840586D01*
X139576788Y-104738768D01*
X139422445Y-104660127D01*
X139257701Y-104606598D01*
X139257699Y-104606597D01*
X139257698Y-104606597D01*
X139126271Y-104585781D01*
X139086611Y-104579500D01*
X138913389Y-104579500D01*
X138873728Y-104585781D01*
X138742302Y-104606597D01*
X138577552Y-104660128D01*
X138423211Y-104738768D01*
X138349101Y-104792613D01*
X138283072Y-104840586D01*
X138283070Y-104840588D01*
X138283069Y-104840588D01*
X138250477Y-104873181D01*
X138189154Y-104906666D01*
X138162796Y-104909500D01*
X137297204Y-104909500D01*
X137230165Y-104889815D01*
X137209523Y-104873181D01*
X137176930Y-104840588D01*
X137176928Y-104840586D01*
X137036788Y-104738768D01*
X136882445Y-104660127D01*
X136717701Y-104606598D01*
X136717699Y-104606597D01*
X136717698Y-104606597D01*
X136586271Y-104585781D01*
X136546611Y-104579500D01*
X136373389Y-104579500D01*
X136333728Y-104585781D01*
X136202302Y-104606597D01*
X136037552Y-104660128D01*
X135883211Y-104738768D01*
X135809101Y-104792613D01*
X135743072Y-104840586D01*
X135743070Y-104840588D01*
X135743069Y-104840588D01*
X135620588Y-104963069D01*
X135620588Y-104963070D01*
X135620586Y-104963072D01*
X135595789Y-104997202D01*
X135518768Y-105103211D01*
X135440128Y-105257552D01*
X135386597Y-105422302D01*
X135359500Y-105593389D01*
X134500500Y-105593389D01*
X134500500Y-103053389D01*
X135359500Y-103053389D01*
X135359500Y-103226610D01*
X135383532Y-103378347D01*
X135386598Y-103397701D01*
X135440127Y-103562445D01*
X135518768Y-103716788D01*
X135620586Y-103856928D01*
X135743072Y-103979414D01*
X135883212Y-104081232D01*
X136037555Y-104159873D01*
X136202299Y-104213402D01*
X136373389Y-104240500D01*
X136373390Y-104240500D01*
X136546610Y-104240500D01*
X136546611Y-104240500D01*
X136717701Y-104213402D01*
X136882445Y-104159873D01*
X137036788Y-104081232D01*
X137176928Y-103979414D01*
X137249523Y-103906819D01*
X137310846Y-103873334D01*
X137337204Y-103870500D01*
X138122796Y-103870500D01*
X138189835Y-103890185D01*
X138210477Y-103906819D01*
X138283072Y-103979414D01*
X138423212Y-104081232D01*
X138577555Y-104159873D01*
X138742299Y-104213402D01*
X138913389Y-104240500D01*
X138913390Y-104240500D01*
X139086610Y-104240500D01*
X139086611Y-104240500D01*
X139257701Y-104213402D01*
X139422445Y-104159873D01*
X139576788Y-104081232D01*
X139716928Y-103979414D01*
X139839414Y-103856928D01*
X139941232Y-103716788D01*
X140019873Y-103562445D01*
X140073402Y-103397701D01*
X140100500Y-103226611D01*
X140100500Y-103053389D01*
X140073402Y-102882299D01*
X140049336Y-102808231D01*
X142574500Y-102808231D01*
X142574500Y-103316770D01*
X142577353Y-103347200D01*
X142577353Y-103347202D01*
X142619640Y-103468048D01*
X142622207Y-103475383D01*
X142702850Y-103584651D01*
X142812118Y-103665294D01*
X142835687Y-103673541D01*
X142940299Y-103710147D01*
X142970730Y-103713001D01*
X142970734Y-103713001D01*
X143629270Y-103713001D01*
X143659699Y-103710147D01*
X143659701Y-103710147D01*
X143724395Y-103687509D01*
X143787882Y-103665294D01*
X143897150Y-103584651D01*
X143977793Y-103475383D01*
X144004975Y-103397701D01*
X144022646Y-103347202D01*
X144022646Y-103347200D01*
X144025500Y-103316770D01*
X144025500Y-102808231D01*
X144022646Y-102777801D01*
X144022646Y-102777799D01*
X143989006Y-102681664D01*
X143977793Y-102649619D01*
X143897150Y-102540351D01*
X143824885Y-102487017D01*
X143800866Y-102469290D01*
X143758615Y-102413642D01*
X143750500Y-102369520D01*
X143750500Y-101353935D01*
X143767112Y-101291936D01*
X143812984Y-101212485D01*
X143850500Y-101072475D01*
X143850500Y-100927525D01*
X143812984Y-100787515D01*
X143777066Y-100725304D01*
X143740511Y-100661988D01*
X143740506Y-100661982D01*
X143638017Y-100559493D01*
X143638011Y-100559488D01*
X143512488Y-100487017D01*
X143512489Y-100487017D01*
X143501006Y-100483940D01*
X143372475Y-100449500D01*
X143227525Y-100449500D01*
X143098993Y-100483940D01*
X143087511Y-100487017D01*
X142961988Y-100559488D01*
X142961982Y-100559493D01*
X142859493Y-100661982D01*
X142859488Y-100661988D01*
X142787017Y-100787511D01*
X142787016Y-100787515D01*
X142749500Y-100927525D01*
X142749500Y-101072475D01*
X142787016Y-101212485D01*
X142832887Y-101291936D01*
X142849500Y-101353935D01*
X142849500Y-102369520D01*
X142829815Y-102436559D01*
X142799134Y-102469290D01*
X142702850Y-102540351D01*
X142622207Y-102649618D01*
X142622206Y-102649620D01*
X142577353Y-102777799D01*
X142577353Y-102777801D01*
X142574500Y-102808231D01*
X140049336Y-102808231D01*
X140019873Y-102717555D01*
X139941232Y-102563212D01*
X139839414Y-102423072D01*
X139716928Y-102300586D01*
X139576788Y-102198768D01*
X139422445Y-102120127D01*
X139257701Y-102066598D01*
X139257699Y-102066597D01*
X139257698Y-102066597D01*
X139126271Y-102045781D01*
X139086611Y-102039500D01*
X138913389Y-102039500D01*
X138873728Y-102045781D01*
X138742302Y-102066597D01*
X138577552Y-102120128D01*
X138423211Y-102198768D01*
X138403645Y-102212984D01*
X138283072Y-102300586D01*
X138283070Y-102300588D01*
X138283069Y-102300588D01*
X138250477Y-102333181D01*
X138189154Y-102366666D01*
X138162796Y-102369500D01*
X137297204Y-102369500D01*
X137230165Y-102349815D01*
X137209523Y-102333181D01*
X137176930Y-102300588D01*
X137176928Y-102300586D01*
X137036788Y-102198768D01*
X136882445Y-102120127D01*
X136717701Y-102066598D01*
X136717699Y-102066597D01*
X136717698Y-102066597D01*
X136586271Y-102045781D01*
X136546611Y-102039500D01*
X136373389Y-102039500D01*
X136333728Y-102045781D01*
X136202302Y-102066597D01*
X136037552Y-102120128D01*
X135883211Y-102198768D01*
X135863645Y-102212984D01*
X135743072Y-102300586D01*
X135743070Y-102300588D01*
X135743069Y-102300588D01*
X135620588Y-102423069D01*
X135620588Y-102423070D01*
X135620586Y-102423072D01*
X135592314Y-102461985D01*
X135518768Y-102563211D01*
X135440128Y-102717552D01*
X135386597Y-102882302D01*
X135359500Y-103053389D01*
X134500500Y-103053389D01*
X134500500Y-100513389D01*
X135359500Y-100513389D01*
X135359500Y-100686611D01*
X135365628Y-100725304D01*
X135383429Y-100837697D01*
X135386598Y-100857701D01*
X135440127Y-101022445D01*
X135518768Y-101176788D01*
X135620586Y-101316928D01*
X135743072Y-101439414D01*
X135883212Y-101541232D01*
X136037555Y-101619873D01*
X136202299Y-101673402D01*
X136373389Y-101700500D01*
X136373390Y-101700500D01*
X136546610Y-101700500D01*
X136546611Y-101700500D01*
X136717701Y-101673402D01*
X136882445Y-101619873D01*
X137036788Y-101541232D01*
X137176928Y-101439414D01*
X137249523Y-101366819D01*
X137310846Y-101333334D01*
X137337204Y-101330500D01*
X138122796Y-101330500D01*
X138189835Y-101350185D01*
X138210477Y-101366819D01*
X138283072Y-101439414D01*
X138423212Y-101541232D01*
X138577555Y-101619873D01*
X138742299Y-101673402D01*
X138913389Y-101700500D01*
X138913390Y-101700500D01*
X139086610Y-101700500D01*
X139086611Y-101700500D01*
X139257701Y-101673402D01*
X139422445Y-101619873D01*
X139576788Y-101541232D01*
X139716928Y-101439414D01*
X139839414Y-101316928D01*
X139941232Y-101176788D01*
X140019873Y-101022445D01*
X140073402Y-100857701D01*
X140100500Y-100686611D01*
X140100500Y-100513389D01*
X140073402Y-100342299D01*
X140019873Y-100177555D01*
X139941232Y-100023212D01*
X139839414Y-99883072D01*
X139716928Y-99760586D01*
X139576788Y-99658768D01*
X139486927Y-99612982D01*
X139422447Y-99580128D01*
X139422446Y-99580127D01*
X139422445Y-99580127D01*
X139257701Y-99526598D01*
X139257699Y-99526597D01*
X139257698Y-99526597D01*
X139126271Y-99505781D01*
X139086611Y-99499500D01*
X138913389Y-99499500D01*
X138873728Y-99505781D01*
X138742302Y-99526597D01*
X138577552Y-99580128D01*
X138423211Y-99658768D01*
X138360248Y-99704514D01*
X138283072Y-99760586D01*
X138283070Y-99760588D01*
X138283069Y-99760588D01*
X138250477Y-99793181D01*
X138189154Y-99826666D01*
X138162796Y-99829500D01*
X137297204Y-99829500D01*
X137230165Y-99809815D01*
X137209523Y-99793181D01*
X137176930Y-99760588D01*
X137176928Y-99760586D01*
X137036788Y-99658768D01*
X136946927Y-99612982D01*
X136882447Y-99580128D01*
X136882446Y-99580127D01*
X136882445Y-99580127D01*
X136717701Y-99526598D01*
X136717699Y-99526597D01*
X136717698Y-99526597D01*
X136586271Y-99505781D01*
X136546611Y-99499500D01*
X136373389Y-99499500D01*
X136333728Y-99505781D01*
X136202302Y-99526597D01*
X136037552Y-99580128D01*
X135883211Y-99658768D01*
X135820248Y-99704514D01*
X135743072Y-99760586D01*
X135743070Y-99760588D01*
X135743069Y-99760588D01*
X135620588Y-99883069D01*
X135620588Y-99883070D01*
X135620586Y-99883072D01*
X135608650Y-99899501D01*
X135518768Y-100023211D01*
X135440128Y-100177552D01*
X135386597Y-100342302D01*
X135373099Y-100427527D01*
X135359500Y-100513389D01*
X134500500Y-100513389D01*
X134500500Y-97973389D01*
X135359500Y-97973389D01*
X135359500Y-98146610D01*
X135383429Y-98297697D01*
X135386598Y-98317701D01*
X135433629Y-98462447D01*
X135440128Y-98482447D01*
X135474293Y-98549500D01*
X135518768Y-98636788D01*
X135620586Y-98776928D01*
X135743072Y-98899414D01*
X135883212Y-99001232D01*
X136037555Y-99079873D01*
X136202299Y-99133402D01*
X136373389Y-99160500D01*
X136373390Y-99160500D01*
X136546610Y-99160500D01*
X136546611Y-99160500D01*
X136717701Y-99133402D01*
X136882445Y-99079873D01*
X137036788Y-99001232D01*
X137176928Y-98899414D01*
X137249523Y-98826819D01*
X137310846Y-98793334D01*
X137337204Y-98790500D01*
X138122796Y-98790500D01*
X138189835Y-98810185D01*
X138210477Y-98826819D01*
X138283072Y-98899414D01*
X138423212Y-99001232D01*
X138577555Y-99079873D01*
X138742299Y-99133402D01*
X138913389Y-99160500D01*
X138913390Y-99160500D01*
X139086610Y-99160500D01*
X139086611Y-99160500D01*
X139257701Y-99133402D01*
X139422445Y-99079873D01*
X139485306Y-99047844D01*
X141400000Y-99047844D01*
X141406401Y-99107372D01*
X141406403Y-99107379D01*
X141456645Y-99242086D01*
X141456649Y-99242093D01*
X141542809Y-99357187D01*
X141542812Y-99357190D01*
X141657906Y-99443350D01*
X141657913Y-99443354D01*
X141792620Y-99493596D01*
X141792627Y-99493598D01*
X141852155Y-99499999D01*
X141852172Y-99500000D01*
X141975000Y-99500000D01*
X142475000Y-99500000D01*
X142597828Y-99500000D01*
X142597844Y-99499999D01*
X142657372Y-99493598D01*
X142657379Y-99493596D01*
X142792086Y-99443354D01*
X142792093Y-99443350D01*
X142907187Y-99357190D01*
X142907190Y-99357187D01*
X142993350Y-99242093D01*
X142993354Y-99242086D01*
X143043596Y-99107379D01*
X143043598Y-99107372D01*
X143049999Y-99047844D01*
X143050000Y-99047827D01*
X143050000Y-98725000D01*
X142475000Y-98725000D01*
X142475000Y-99500000D01*
X141975000Y-99500000D01*
X141975000Y-98725000D01*
X141400000Y-98725000D01*
X141400000Y-99047844D01*
X139485306Y-99047844D01*
X139576788Y-99001232D01*
X139716928Y-98899414D01*
X139839414Y-98776928D01*
X139941232Y-98636788D01*
X139947526Y-98624436D01*
X139951141Y-98617342D01*
X139951141Y-98617341D01*
X140019870Y-98482450D01*
X140019873Y-98482445D01*
X140073402Y-98317701D01*
X140100500Y-98146611D01*
X140100500Y-97973389D01*
X140089218Y-97902155D01*
X141400000Y-97902155D01*
X141400000Y-98225000D01*
X141975000Y-98225000D01*
X142475000Y-98225000D01*
X143050000Y-98225000D01*
X143050000Y-97902172D01*
X143049999Y-97902155D01*
X143043598Y-97842627D01*
X143043596Y-97842620D01*
X142993354Y-97707913D01*
X142993350Y-97707906D01*
X142907190Y-97592812D01*
X142907187Y-97592809D01*
X142792093Y-97506649D01*
X142792086Y-97506645D01*
X142657379Y-97456403D01*
X142657372Y-97456401D01*
X142597844Y-97450000D01*
X142475000Y-97450000D01*
X142475000Y-98225000D01*
X141975000Y-98225000D01*
X141975000Y-97450000D01*
X141852155Y-97450000D01*
X141792627Y-97456401D01*
X141792620Y-97456403D01*
X141657913Y-97506645D01*
X141657906Y-97506649D01*
X141542812Y-97592809D01*
X141542809Y-97592812D01*
X141456649Y-97707906D01*
X141456645Y-97707913D01*
X141406403Y-97842620D01*
X141406401Y-97842627D01*
X141400000Y-97902155D01*
X140089218Y-97902155D01*
X140073402Y-97802299D01*
X140019873Y-97637555D01*
X139941232Y-97483212D01*
X139839414Y-97343072D01*
X139716928Y-97220586D01*
X139576788Y-97118768D01*
X139422445Y-97040127D01*
X139257701Y-96986598D01*
X139257699Y-96986597D01*
X139257698Y-96986597D01*
X139126271Y-96965781D01*
X139086611Y-96959500D01*
X138913389Y-96959500D01*
X138873728Y-96965781D01*
X138742302Y-96986597D01*
X138577552Y-97040128D01*
X138423211Y-97118768D01*
X138343256Y-97176859D01*
X138283072Y-97220586D01*
X138283070Y-97220588D01*
X138283069Y-97220588D01*
X138250477Y-97253181D01*
X138189154Y-97286666D01*
X138162796Y-97289500D01*
X137297204Y-97289500D01*
X137230165Y-97269815D01*
X137209523Y-97253181D01*
X137176930Y-97220588D01*
X137176928Y-97220586D01*
X137036788Y-97118768D01*
X136882445Y-97040127D01*
X136717701Y-96986598D01*
X136717699Y-96986597D01*
X136717698Y-96986597D01*
X136586271Y-96965781D01*
X136546611Y-96959500D01*
X136373389Y-96959500D01*
X136333728Y-96965781D01*
X136202302Y-96986597D01*
X136037552Y-97040128D01*
X135883211Y-97118768D01*
X135803256Y-97176859D01*
X135743072Y-97220586D01*
X135743070Y-97220588D01*
X135743069Y-97220588D01*
X135620588Y-97343069D01*
X135620588Y-97343070D01*
X135620586Y-97343072D01*
X135576859Y-97403256D01*
X135518768Y-97483211D01*
X135440128Y-97637552D01*
X135386597Y-97802302D01*
X135359500Y-97973389D01*
X134500500Y-97973389D01*
X134500500Y-95433389D01*
X135359500Y-95433389D01*
X135359500Y-95606610D01*
X135383429Y-95757697D01*
X135386598Y-95777701D01*
X135440127Y-95942445D01*
X135518768Y-96096788D01*
X135620586Y-96236928D01*
X135743072Y-96359414D01*
X135883212Y-96461232D01*
X136037555Y-96539873D01*
X136202299Y-96593402D01*
X136373389Y-96620500D01*
X136373390Y-96620500D01*
X136546610Y-96620500D01*
X136546611Y-96620500D01*
X136717701Y-96593402D01*
X136882445Y-96539873D01*
X137036788Y-96461232D01*
X137176928Y-96359414D01*
X137229523Y-96306819D01*
X137290846Y-96273334D01*
X137317204Y-96270500D01*
X138142796Y-96270500D01*
X138209835Y-96290185D01*
X138230477Y-96306819D01*
X138283072Y-96359414D01*
X138423212Y-96461232D01*
X138577555Y-96539873D01*
X138742299Y-96593402D01*
X138913389Y-96620500D01*
X138913390Y-96620500D01*
X139086610Y-96620500D01*
X139086611Y-96620500D01*
X139257701Y-96593402D01*
X139422445Y-96539873D01*
X139576788Y-96461232D01*
X139716928Y-96359414D01*
X139839414Y-96236928D01*
X139941232Y-96096788D01*
X140019873Y-95942445D01*
X140073402Y-95777701D01*
X140100500Y-95606611D01*
X140100500Y-95433389D01*
X140073402Y-95262299D01*
X140019873Y-95097555D01*
X139941232Y-94943212D01*
X139908270Y-94897844D01*
X141400000Y-94897844D01*
X141406401Y-94957372D01*
X141406403Y-94957379D01*
X141456645Y-95092086D01*
X141456649Y-95092093D01*
X141542809Y-95207187D01*
X141542812Y-95207190D01*
X141657906Y-95293350D01*
X141657913Y-95293354D01*
X141792620Y-95343596D01*
X141792627Y-95343598D01*
X141852155Y-95349999D01*
X141852172Y-95350000D01*
X141975000Y-95350000D01*
X142475000Y-95350000D01*
X142597828Y-95350000D01*
X142597844Y-95349999D01*
X142657372Y-95343598D01*
X142657379Y-95343596D01*
X142792086Y-95293354D01*
X142792093Y-95293350D01*
X142907187Y-95207190D01*
X142907190Y-95207187D01*
X142993350Y-95092093D01*
X142993354Y-95092086D01*
X143043596Y-94957379D01*
X143043598Y-94957372D01*
X143049999Y-94897844D01*
X143050000Y-94897827D01*
X143050000Y-94575000D01*
X142475000Y-94575000D01*
X142475000Y-95350000D01*
X141975000Y-95350000D01*
X141975000Y-94575000D01*
X141400000Y-94575000D01*
X141400000Y-94897844D01*
X139908270Y-94897844D01*
X139839414Y-94803072D01*
X139716928Y-94680586D01*
X139576788Y-94578768D01*
X139422445Y-94500127D01*
X139257701Y-94446598D01*
X139257699Y-94446597D01*
X139257698Y-94446597D01*
X139126271Y-94425781D01*
X139086611Y-94419500D01*
X138913389Y-94419500D01*
X138873728Y-94425781D01*
X138742302Y-94446597D01*
X138577552Y-94500128D01*
X138423211Y-94578768D01*
X138361016Y-94623956D01*
X138283072Y-94680586D01*
X138283070Y-94680588D01*
X138283069Y-94680588D01*
X138230477Y-94733181D01*
X138169154Y-94766666D01*
X138142796Y-94769500D01*
X137317204Y-94769500D01*
X137250165Y-94749815D01*
X137229523Y-94733181D01*
X137176930Y-94680588D01*
X137176928Y-94680586D01*
X137036788Y-94578768D01*
X136882445Y-94500127D01*
X136717701Y-94446598D01*
X136717699Y-94446597D01*
X136717698Y-94446597D01*
X136586271Y-94425781D01*
X136546611Y-94419500D01*
X136373389Y-94419500D01*
X136333728Y-94425781D01*
X136202302Y-94446597D01*
X136037552Y-94500128D01*
X135883211Y-94578768D01*
X135821016Y-94623956D01*
X135743072Y-94680586D01*
X135743070Y-94680588D01*
X135743069Y-94680588D01*
X135620588Y-94803069D01*
X135620588Y-94803070D01*
X135620586Y-94803072D01*
X135584275Y-94853050D01*
X135518768Y-94943211D01*
X135440128Y-95097552D01*
X135386597Y-95262302D01*
X135359500Y-95433389D01*
X134500500Y-95433389D01*
X134500500Y-92893389D01*
X135359500Y-92893389D01*
X135359500Y-93066610D01*
X135383538Y-93218386D01*
X135386598Y-93237701D01*
X135440127Y-93402445D01*
X135518768Y-93556788D01*
X135620586Y-93696928D01*
X135743072Y-93819414D01*
X135883212Y-93921232D01*
X136037555Y-93999873D01*
X136202299Y-94053402D01*
X136373389Y-94080500D01*
X136373390Y-94080500D01*
X136546610Y-94080500D01*
X136546611Y-94080500D01*
X136717701Y-94053402D01*
X136882445Y-93999873D01*
X137036788Y-93921232D01*
X137176928Y-93819414D01*
X137229523Y-93766819D01*
X137290846Y-93733334D01*
X137317204Y-93730500D01*
X138142796Y-93730500D01*
X138209835Y-93750185D01*
X138230477Y-93766819D01*
X138283072Y-93819414D01*
X138423212Y-93921232D01*
X138577555Y-93999873D01*
X138742299Y-94053402D01*
X138913389Y-94080500D01*
X138913390Y-94080500D01*
X139086610Y-94080500D01*
X139086611Y-94080500D01*
X139257701Y-94053402D01*
X139422445Y-93999873D01*
X139576788Y-93921232D01*
X139716928Y-93819414D01*
X139784187Y-93752155D01*
X141400000Y-93752155D01*
X141400000Y-94075000D01*
X141975000Y-94075000D01*
X142475000Y-94075000D01*
X143050000Y-94075000D01*
X143050000Y-93752172D01*
X143049999Y-93752155D01*
X143043598Y-93692627D01*
X143043596Y-93692620D01*
X142993354Y-93557913D01*
X142993350Y-93557906D01*
X142907190Y-93442812D01*
X142907187Y-93442809D01*
X142792093Y-93356649D01*
X142792086Y-93356645D01*
X142657379Y-93306403D01*
X142657372Y-93306401D01*
X142597844Y-93300000D01*
X142475000Y-93300000D01*
X142475000Y-94075000D01*
X141975000Y-94075000D01*
X141975000Y-93300000D01*
X141852155Y-93300000D01*
X141792627Y-93306401D01*
X141792620Y-93306403D01*
X141657913Y-93356645D01*
X141657906Y-93356649D01*
X141542812Y-93442809D01*
X141542809Y-93442812D01*
X141456649Y-93557906D01*
X141456645Y-93557913D01*
X141406403Y-93692620D01*
X141406401Y-93692627D01*
X141400000Y-93752155D01*
X139784187Y-93752155D01*
X139839414Y-93696928D01*
X139941232Y-93556788D01*
X140019873Y-93402445D01*
X140073402Y-93237701D01*
X140100500Y-93066611D01*
X140100500Y-92893389D01*
X140073402Y-92722299D01*
X140019873Y-92557555D01*
X139941232Y-92403212D01*
X139901352Y-92348322D01*
X142025001Y-92348322D01*
X142035144Y-92447607D01*
X142088452Y-92608481D01*
X142088457Y-92608492D01*
X142177424Y-92752728D01*
X142177427Y-92752732D01*
X142297267Y-92872572D01*
X142297271Y-92872575D01*
X142441507Y-92961542D01*
X142441518Y-92961547D01*
X142602393Y-93014855D01*
X142701683Y-93024999D01*
X142749999Y-93024998D01*
X142750000Y-93024998D01*
X142750000Y-92325000D01*
X142025001Y-92325000D01*
X142025001Y-92348322D01*
X139901352Y-92348322D01*
X139839414Y-92263072D01*
X139716928Y-92140586D01*
X139576788Y-92038768D01*
X139422445Y-91960127D01*
X139257701Y-91906598D01*
X139257699Y-91906597D01*
X139257698Y-91906597D01*
X139126271Y-91885781D01*
X139086611Y-91879500D01*
X138913389Y-91879500D01*
X138873728Y-91885781D01*
X138742302Y-91906597D01*
X138577552Y-91960128D01*
X138423211Y-92038768D01*
X138373343Y-92075000D01*
X138283072Y-92140586D01*
X138283070Y-92140588D01*
X138283069Y-92140588D01*
X138230477Y-92193181D01*
X138169154Y-92226666D01*
X138142796Y-92229500D01*
X137317204Y-92229500D01*
X137250165Y-92209815D01*
X137229523Y-92193181D01*
X137176930Y-92140588D01*
X137176928Y-92140586D01*
X137036788Y-92038768D01*
X136882445Y-91960127D01*
X136717701Y-91906598D01*
X136717699Y-91906597D01*
X136717698Y-91906597D01*
X136586271Y-91885781D01*
X136546611Y-91879500D01*
X136373389Y-91879500D01*
X136333728Y-91885781D01*
X136202302Y-91906597D01*
X136037552Y-91960128D01*
X135883211Y-92038768D01*
X135833343Y-92075000D01*
X135743072Y-92140586D01*
X135743070Y-92140588D01*
X135743069Y-92140588D01*
X135620588Y-92263069D01*
X135620588Y-92263070D01*
X135620586Y-92263072D01*
X135584685Y-92312485D01*
X135518768Y-92403211D01*
X135440128Y-92557552D01*
X135386597Y-92722302D01*
X135359500Y-92893389D01*
X134500500Y-92893389D01*
X134500500Y-61124500D01*
X134520185Y-61057461D01*
X134572989Y-61011706D01*
X134624500Y-61000500D01*
X137003035Y-61000500D01*
X137070074Y-61020185D01*
G37*
%TD.AperFunction*%
%TA.AperFunction,Conductor*%
G36*
X138072588Y-79461185D02*
G01*
X138118343Y-79513989D01*
X138128287Y-79583147D01*
X138105867Y-79638385D01*
X138058770Y-79703208D01*
X137980128Y-79857552D01*
X137926597Y-80022302D01*
X137904481Y-80161939D01*
X137899500Y-80193389D01*
X137899500Y-80366611D01*
X137907677Y-80418239D01*
X137926597Y-80537697D01*
X137926597Y-80537699D01*
X137926598Y-80537701D01*
X137980127Y-80702445D01*
X138058768Y-80856788D01*
X138160586Y-80996928D01*
X138283072Y-81119414D01*
X138423212Y-81221232D01*
X138577555Y-81299873D01*
X138742299Y-81353402D01*
X138913389Y-81380500D01*
X138913390Y-81380500D01*
X139086610Y-81380500D01*
X139086611Y-81380500D01*
X139257701Y-81353402D01*
X139335328Y-81328178D01*
X139405168Y-81326184D01*
X139461326Y-81358429D01*
X141242716Y-83139819D01*
X141276201Y-83201142D01*
X141271217Y-83270834D01*
X141229345Y-83326767D01*
X141163881Y-83351184D01*
X141155035Y-83351500D01*
X140239965Y-83351500D01*
X140210524Y-83342855D01*
X140180538Y-83336332D01*
X140175522Y-83332577D01*
X140172926Y-83331815D01*
X140152284Y-83315181D01*
X140088238Y-83251135D01*
X140054753Y-83189812D01*
X140057988Y-83125136D01*
X140073402Y-83077701D01*
X140100500Y-82906611D01*
X140100500Y-82733389D01*
X140073402Y-82562299D01*
X140019873Y-82397555D01*
X139941232Y-82243212D01*
X139839414Y-82103072D01*
X139716928Y-81980586D01*
X139576788Y-81878768D01*
X139422445Y-81800127D01*
X139257701Y-81746598D01*
X139257699Y-81746597D01*
X139257698Y-81746597D01*
X139126271Y-81725781D01*
X139086611Y-81719500D01*
X138913389Y-81719500D01*
X138873728Y-81725781D01*
X138742302Y-81746597D01*
X138577552Y-81800128D01*
X138423211Y-81878768D01*
X138364069Y-81921738D01*
X138283072Y-81980586D01*
X138283070Y-81980588D01*
X138283069Y-81980588D01*
X138160588Y-82103069D01*
X138160588Y-82103070D01*
X138160586Y-82103072D01*
X138141415Y-82129459D01*
X138058768Y-82243211D01*
X137980128Y-82397550D01*
X137979099Y-82400720D01*
X137978381Y-82401769D01*
X137978266Y-82402048D01*
X137978207Y-82402023D01*
X137939657Y-82458393D01*
X137875297Y-82485587D01*
X137806451Y-82473668D01*
X137754979Y-82426420D01*
X137743239Y-82400711D01*
X137711096Y-82301784D01*
X137614624Y-82112449D01*
X137575270Y-82058282D01*
X137575269Y-82058282D01*
X136942962Y-82690590D01*
X136925925Y-82627007D01*
X136860099Y-82512993D01*
X136767007Y-82419901D01*
X136652993Y-82354075D01*
X136589409Y-82337037D01*
X137221716Y-81704728D01*
X137167550Y-81665375D01*
X136978217Y-81568904D01*
X136879287Y-81536760D01*
X136821611Y-81497323D01*
X136794413Y-81432964D01*
X136806328Y-81364118D01*
X136853572Y-81312642D01*
X136879290Y-81300897D01*
X136882445Y-81299873D01*
X137036788Y-81221232D01*
X137176928Y-81119414D01*
X137299414Y-80996928D01*
X137401232Y-80856788D01*
X137479873Y-80702445D01*
X137533402Y-80537701D01*
X137560500Y-80366611D01*
X137560500Y-80193389D01*
X137549577Y-80124421D01*
X137533402Y-80022298D01*
X137518138Y-79975321D01*
X137508178Y-79944670D01*
X137506184Y-79874831D01*
X137538427Y-79818674D01*
X137879284Y-79477819D01*
X137906211Y-79463115D01*
X137932030Y-79446523D01*
X137938230Y-79445631D01*
X137940607Y-79444334D01*
X137966965Y-79441500D01*
X138005549Y-79441500D01*
X138072588Y-79461185D01*
G37*
%TD.AperFunction*%
%TD*%
M02*
