%TF.GenerationSoftware,KiCad,Pcbnew,9.0.4*%
%TF.CreationDate,2025-12-20T12:00:30-05:00*%
%TF.ProjectId,LED-74HC595,4c45442d-3734-4484-9335-39352e6b6963,rev?*%
%TF.SameCoordinates,Original*%
%TF.FileFunction,Copper,L2,Bot*%
%TF.FilePolarity,Positive*%
%FSLAX46Y46*%
G04 Gerber Fmt 4.6, Leading zero omitted, Abs format (unit mm)*
G04 Created by KiCad (PCBNEW 9.0.4) date 2025-12-20 12:00:30*
%MOMM*%
%LPD*%
G01*
G04 APERTURE LIST*
%TA.AperFunction,ComponentPad*%
%ADD10R,1.700000X1.700000*%
%TD*%
%TA.AperFunction,ComponentPad*%
%ADD11C,1.700000*%
%TD*%
%TA.AperFunction,ViaPad*%
%ADD12C,0.600000*%
%TD*%
%TA.AperFunction,Conductor*%
%ADD13C,0.400000*%
%TD*%
%TA.AperFunction,Conductor*%
%ADD14C,0.500000*%
%TD*%
G04 APERTURE END LIST*
D10*
%TO.P,J3,1,Pin_1*%
%TO.N,R0*%
X161000000Y-90420000D03*
D11*
%TO.P,J3,2,Pin_2*%
%TO.N,R1*%
X161000000Y-92960000D03*
%TO.P,J3,3,Pin_3*%
%TO.N,R2*%
X161000000Y-95500000D03*
%TO.P,J3,4,Pin_4*%
%TO.N,R3*%
X161000000Y-98040000D03*
%TO.P,J3,5,Pin_5*%
%TO.N,R4*%
X161000000Y-100580000D03*
%TO.P,J3,6,Pin_6*%
%TO.N,R5*%
X161000000Y-103120000D03*
%TO.P,J3,7,Pin_7*%
%TO.N,R6*%
X161000000Y-105660000D03*
%TO.P,J3,8,Pin_8*%
%TO.N,R7*%
X161000000Y-108200000D03*
%TD*%
D10*
%TO.P,J2,1,Pin_1*%
%TO.N,A_0*%
X136460000Y-62500000D03*
D11*
%TO.P,J2,2,Pin_2*%
%TO.N,R0*%
X139000000Y-62500000D03*
%TO.P,J2,3,Pin_3*%
%TO.N,A_1*%
X136460000Y-65040000D03*
%TO.P,J2,4,Pin_4*%
%TO.N,R1*%
X139000000Y-65040000D03*
%TO.P,J2,5,Pin_5*%
%TO.N,A_2*%
X136460000Y-67580000D03*
%TO.P,J2,6,Pin_6*%
%TO.N,R2*%
X139000000Y-67580000D03*
%TO.P,J2,7,Pin_7*%
%TO.N,A_3*%
X136460000Y-70120000D03*
%TO.P,J2,8,Pin_8*%
%TO.N,R3*%
X139000000Y-70120000D03*
%TO.P,J2,9,Pin_9*%
%TO.N,A_4*%
X136460000Y-72660000D03*
%TO.P,J2,10,Pin_10*%
%TO.N,R4*%
X139000000Y-72660000D03*
%TO.P,J2,11,Pin_11*%
%TO.N,A_5*%
X136460000Y-75200000D03*
%TO.P,J2,12,Pin_12*%
%TO.N,R5*%
X139000000Y-75200000D03*
%TO.P,J2,13,Pin_13*%
%TO.N,A_6*%
X136460000Y-77740000D03*
%TO.P,J2,14,Pin_14*%
%TO.N,R6*%
X139000000Y-77740000D03*
%TO.P,J2,15,Pin_15*%
%TO.N,A_7*%
X136460000Y-80280000D03*
%TO.P,J2,16,Pin_16*%
%TO.N,R7*%
X139000000Y-80280000D03*
%TO.P,J2,17,Pin_17*%
%TO.N,GND*%
X136460000Y-82820000D03*
%TO.P,J2,18,Pin_18*%
%TO.N,EN_A*%
X139000000Y-82820000D03*
%TO.P,J2,19,Pin_19*%
%TO.N,GND*%
X136460000Y-85360000D03*
%TO.P,J2,20,Pin_20*%
%TO.N,EN_R*%
X139000000Y-85360000D03*
%TO.P,J2,21,Pin_21*%
%TO.N,GND*%
X136460000Y-87900000D03*
%TO.P,J2,22,Pin_22*%
%TO.N,EN_C*%
X139000000Y-87900000D03*
%TO.P,J2,23,Pin_23*%
%TO.N,C0*%
X136460000Y-90440000D03*
%TO.P,J2,24,Pin_24*%
X139000000Y-90440000D03*
%TO.P,J2,25,Pin_25*%
%TO.N,C1*%
X136460000Y-92980000D03*
%TO.P,J2,26,Pin_26*%
X139000000Y-92980000D03*
%TO.P,J2,27,Pin_27*%
%TO.N,C2*%
X136460000Y-95520000D03*
%TO.P,J2,28,Pin_28*%
X139000000Y-95520000D03*
%TO.P,J2,29,Pin_29*%
%TO.N,C3*%
X136460000Y-98060000D03*
%TO.P,J2,30,Pin_30*%
X139000000Y-98060000D03*
%TO.P,J2,31,Pin_31*%
%TO.N,C4*%
X136460000Y-100600000D03*
%TO.P,J2,32,Pin_32*%
X139000000Y-100600000D03*
%TO.P,J2,33,Pin_33*%
%TO.N,C5*%
X136460000Y-103140000D03*
%TO.P,J2,34,Pin_34*%
X139000000Y-103140000D03*
%TO.P,J2,35,Pin_35*%
%TO.N,C6*%
X136460000Y-105680000D03*
%TO.P,J2,36,Pin_36*%
X139000000Y-105680000D03*
%TO.P,J2,37,Pin_37*%
%TO.N,C7*%
X136460000Y-108220000D03*
%TO.P,J2,38,Pin_38*%
X139000000Y-108220000D03*
%TD*%
D10*
%TO.P,J1,1,Pin_1*%
%TO.N,GND*%
X159300000Y-62500000D03*
D11*
%TO.P,J1,2,Pin_2*%
%TO.N,VCC*%
X159300000Y-65040000D03*
%TO.P,J1,3,Pin_3*%
%TO.N,CLCK*%
X159300000Y-67580000D03*
%TO.P,J1,4,Pin_4*%
%TO.N,LATCH*%
X159300000Y-70120000D03*
%TO.P,J1,5,Pin_5*%
%TO.N,Net-(J1-Pin_5)*%
X159300000Y-72660000D03*
%TO.P,J1,6,Pin_6*%
%TO.N,VCC*%
X159300000Y-75200000D03*
%TO.P,J1,7,Pin_7*%
%TO.N,GND*%
X159300000Y-77740000D03*
%TO.P,J1,8,Pin_8*%
%TO.N,SWIO*%
X159300000Y-80280000D03*
%TO.P,J1,9,Pin_9*%
%TO.N,SCL*%
X159300000Y-82820000D03*
%TO.P,J1,10,Pin_10*%
%TO.N,SDA*%
X159300000Y-85360000D03*
%TD*%
D12*
%TO.N,R3*%
X144898000Y-79611439D03*
X145800000Y-88100000D03*
%TO.N,C5*%
X145900000Y-104300000D03*
%TO.N,R1*%
X147700000Y-85300000D03*
X145705189Y-81111687D03*
%TO.N,C7*%
X145900000Y-106800000D03*
%TO.N,C3*%
X145900000Y-101700000D03*
%TO.N,R0*%
X151231037Y-87168963D03*
X146300000Y-82400000D03*
%TO.N,C0*%
X151100000Y-101600000D03*
%TO.N,C6*%
X145900000Y-105500000D03*
%TO.N,R2*%
X145900000Y-86700000D03*
X145380525Y-80380525D03*
%TO.N,R5*%
X145500000Y-90400000D03*
X150950000Y-102800000D03*
X141089566Y-79610622D03*
%TO.N,R4*%
X141889124Y-79637310D03*
X144295682Y-87995682D03*
%TO.N,R7*%
X148186311Y-83063576D03*
X151800000Y-81200000D03*
X149400000Y-108200000D03*
X145500000Y-93300000D03*
%TO.N,C4*%
X145900000Y-103000000D03*
%TO.N,C2*%
X146100000Y-100500000D03*
%TO.N,C1*%
X146000000Y-99100000D03*
%TO.N,R6*%
X140389566Y-79109566D03*
X150200000Y-105800000D03*
X145700000Y-92100000D03*
%TO.N,CLCK*%
X157300000Y-69600000D03*
X154501207Y-80098793D03*
X155200000Y-93710000D03*
X157300000Y-80000000D03*
X157300000Y-93710000D03*
X154700000Y-69600000D03*
%TO.N,VCC*%
X155200000Y-94510003D03*
X154400000Y-63200000D03*
X143300000Y-101000000D03*
X153400000Y-85800000D03*
X154200000Y-98200000D03*
X154201000Y-70800000D03*
X154400000Y-107000000D03*
X148800000Y-81000000D03*
%TO.N,LATCH*%
X156600000Y-70800000D03*
X154404818Y-80995182D03*
X156600000Y-80995182D03*
X155200000Y-91300000D03*
X156600000Y-91800000D03*
%TO.N,SCL*%
X154500000Y-81900000D03*
%TO.N,EN_C*%
X154981314Y-101818686D03*
%TO.N,SWIO*%
X154600000Y-77800000D03*
%TO.N,SDA*%
X154200000Y-83100000D03*
%TO.N,Net-(U1-PD7{slash}RST)*%
X144000000Y-79100000D03*
X143300000Y-85300000D03*
%TO.N,EN_A*%
X148800000Y-82313577D03*
X151000000Y-74000000D03*
X152600000Y-75400000D03*
%TO.N,EN_R*%
X150400000Y-82000000D03*
X151600000Y-77200000D03*
X151100000Y-100300000D03*
%TO.N,Net-(J1-Pin_5)*%
X155800000Y-72200000D03*
%TD*%
D13*
%TO.N,R3*%
X145150000Y-87450000D02*
X145800000Y-88100000D01*
X144100000Y-80409439D02*
X144100000Y-84900000D01*
X145150000Y-85950000D02*
X145150000Y-87450000D01*
X161000000Y-98040000D02*
X155740000Y-98040000D01*
X155740000Y-98040000D02*
X153700000Y-96000000D01*
X144898000Y-75998000D02*
X139000000Y-70100000D01*
X153700000Y-94406305D02*
X147393695Y-88100000D01*
X144898000Y-79611439D02*
X144100000Y-80409439D01*
X147393695Y-88100000D02*
X145800000Y-88100000D01*
X144100000Y-84900000D02*
X145150000Y-85950000D01*
X144898000Y-79611439D02*
X144898000Y-75998000D01*
X153700000Y-96000000D02*
X153700000Y-94406305D01*
%TO.N,C5*%
X145800000Y-104200000D02*
X140060000Y-104200000D01*
X145900000Y-104300000D02*
X145800000Y-104200000D01*
X140060000Y-104200000D02*
X139000000Y-103140000D01*
%TO.N,R1*%
X146199000Y-72219000D02*
X146199000Y-80617876D01*
X139000000Y-65020000D02*
X146199000Y-72219000D01*
X155200000Y-92800000D02*
X160840000Y-92800000D01*
X145705189Y-81111687D02*
X145705189Y-81143811D01*
X145600000Y-83200000D02*
X147700000Y-85300000D01*
X145600000Y-81249000D02*
X145600000Y-83200000D01*
X146199000Y-80617876D02*
X145705189Y-81111687D01*
X145705189Y-81143811D02*
X145600000Y-81249000D01*
X147700000Y-85300000D02*
X155200000Y-92800000D01*
X160840000Y-92800000D02*
X161000000Y-92960000D01*
D14*
%TO.N,C7*%
X145200000Y-106800000D02*
X143800000Y-108200000D01*
X145900000Y-106800000D02*
X145200000Y-106800000D01*
X143800000Y-108200000D02*
X139000000Y-108200000D01*
D13*
%TO.N,C3*%
X145900000Y-101700000D02*
X142640000Y-101700000D01*
X142640000Y-101700000D02*
X139000000Y-98060000D01*
%TO.N,R0*%
X146800000Y-81600000D02*
X146800000Y-70280000D01*
X146462074Y-82400000D02*
X151231037Y-87168963D01*
X151231037Y-87231037D02*
X154420000Y-90420000D01*
X146300000Y-82400000D02*
X146462074Y-82400000D01*
X154420000Y-90420000D02*
X161000000Y-90420000D01*
X146800000Y-70280000D02*
X139000000Y-62480000D01*
X151231037Y-87168963D02*
X151231037Y-87231037D01*
X146300000Y-82400000D02*
X146300000Y-82100000D01*
X146300000Y-82100000D02*
X146800000Y-81600000D01*
%TO.N,C0*%
X151000000Y-101600000D02*
X150000000Y-101600000D01*
X150000000Y-101600000D02*
X139000000Y-90600000D01*
X139000000Y-90600000D02*
X139000000Y-90420000D01*
%TO.N,C6*%
X145720000Y-105680000D02*
X139000000Y-105680000D01*
X145900000Y-105500000D02*
X145720000Y-105680000D01*
%TO.N,R2*%
X144800000Y-84500000D02*
X145900000Y-85600000D01*
X144800000Y-80961050D02*
X144800000Y-84500000D01*
X145598000Y-74158000D02*
X139000000Y-67560000D01*
X145380525Y-80380525D02*
X145598000Y-80163050D01*
X146975029Y-86824971D02*
X146024971Y-86824971D01*
X154350000Y-95250000D02*
X154350000Y-94206363D01*
X154600000Y-95500000D02*
X154350000Y-95250000D01*
X154350000Y-94206363D02*
X146975029Y-86831392D01*
X145380525Y-80380525D02*
X144800000Y-80961050D01*
X161000000Y-95500000D02*
X154600000Y-95500000D01*
X145900000Y-85600000D02*
X145900000Y-86700000D01*
X146975029Y-86831392D02*
X146975029Y-86824971D01*
X145598000Y-80163050D02*
X145598000Y-74158000D01*
X146024971Y-86824971D02*
X145900000Y-86700000D01*
%TO.N,R5*%
X141849000Y-80949000D02*
X141849000Y-86749000D01*
X141089566Y-79610622D02*
X141089566Y-80189566D01*
X141089566Y-80189566D02*
X141849000Y-80949000D01*
X150950000Y-102800000D02*
X151270000Y-103120000D01*
X151270000Y-103120000D02*
X161000000Y-103120000D01*
X141200000Y-77380000D02*
X141200000Y-79500188D01*
X141200000Y-79500188D02*
X141089566Y-79610622D01*
X141849000Y-86749000D02*
X145500000Y-90400000D01*
X145500000Y-90400000D02*
X145400000Y-90400000D01*
X139000000Y-75180000D02*
X141200000Y-77380000D01*
%TO.N,R4*%
X147443753Y-89000000D02*
X153000000Y-94556247D01*
X142600000Y-86300000D02*
X144295682Y-87995682D01*
X144295682Y-87995682D02*
X144395682Y-87995682D01*
X141889124Y-79637310D02*
X141900000Y-79626434D01*
X141900000Y-75540000D02*
X139000000Y-72640000D01*
X142600000Y-80348186D02*
X142600000Y-86300000D01*
X145400000Y-89000000D02*
X147443753Y-89000000D01*
X153000000Y-98100000D02*
X155480000Y-100580000D01*
X141900000Y-79626434D02*
X141900000Y-75540000D01*
X141889124Y-79637310D02*
X142600000Y-80348186D01*
X144395682Y-87995682D02*
X145400000Y-89000000D01*
X153000000Y-94556247D02*
X153000000Y-98100000D01*
X155480000Y-100580000D02*
X161000000Y-100580000D01*
D14*
%TO.N,R7*%
X151800000Y-82600000D02*
X151800000Y-81200000D01*
D13*
X140300000Y-81560000D02*
X140300000Y-87700000D01*
X142050000Y-89450000D02*
X142050000Y-89850000D01*
X140300000Y-87700000D02*
X142050000Y-89450000D01*
X139000000Y-80260000D02*
X140300000Y-81560000D01*
D14*
X151336423Y-83063577D02*
X151800000Y-82600000D01*
D13*
X142050000Y-89850000D02*
X145500000Y-93300000D01*
D14*
X148186312Y-83063577D02*
X151336423Y-83063577D01*
D13*
X149400000Y-108200000D02*
X161000000Y-108200000D01*
D14*
X148186311Y-83063576D02*
X148186312Y-83063577D01*
D13*
%TO.N,C4*%
X141400000Y-103000000D02*
X139000000Y-100600000D01*
X145900000Y-103000000D02*
X141400000Y-103000000D01*
%TO.N,C2*%
X143980000Y-100500000D02*
X139000000Y-95520000D01*
X146100000Y-100500000D02*
X143980000Y-100500000D01*
%TO.N,C1*%
X146000000Y-99100000D02*
X145900000Y-99100000D01*
X139780000Y-92980000D02*
X139000000Y-92980000D01*
X145900000Y-99100000D02*
X139780000Y-92980000D01*
%TO.N,R6*%
X150340000Y-105660000D02*
X161000000Y-105660000D01*
X141000000Y-81300000D02*
X141000000Y-87400000D01*
X140389566Y-80689566D02*
X141000000Y-81300000D01*
X150200000Y-105800000D02*
X150340000Y-105660000D01*
X141000000Y-87400000D02*
X145700000Y-92100000D01*
X140389566Y-79109566D02*
X140389566Y-80689566D01*
X140389566Y-79109566D02*
X139000000Y-77720000D01*
%TO.N,CLCK*%
X157300000Y-69580000D02*
X159300000Y-67580000D01*
X157300000Y-93710000D02*
X155200000Y-93710000D01*
X157300000Y-69600000D02*
X154700000Y-69600000D01*
X157300000Y-69600000D02*
X157300000Y-69580000D01*
X157300000Y-80000000D02*
X154600000Y-80000000D01*
X154600000Y-80000000D02*
X154501207Y-80098793D01*
%TO.N,LATCH*%
X158620000Y-70800000D02*
X159300000Y-70120000D01*
X156600000Y-70800000D02*
X158620000Y-70800000D01*
X156600000Y-80995182D02*
X154404818Y-80995182D01*
X156600000Y-91800000D02*
X155700000Y-91800000D01*
X155700000Y-91800000D02*
X155200000Y-91300000D01*
%TO.N,SCL*%
X159300000Y-82820000D02*
X158380000Y-81900000D01*
X158380000Y-81900000D02*
X154500000Y-81900000D01*
%TO.N,EN_C*%
X146100000Y-95200000D02*
X141300000Y-90400000D01*
X154981314Y-101818686D02*
X154600000Y-101818686D01*
X154600000Y-101818686D02*
X147981314Y-95200000D01*
X139500000Y-87900000D02*
X139000000Y-87900000D01*
X141300000Y-89700000D02*
X139500000Y-87900000D01*
X141300000Y-90400000D02*
X141300000Y-89700000D01*
X147981314Y-95200000D02*
X146100000Y-95200000D01*
%TO.N,SWIO*%
X156820000Y-77800000D02*
X154600000Y-77800000D01*
X159300000Y-80280000D02*
X156820000Y-77800000D01*
%TO.N,SDA*%
X159300000Y-85360000D02*
X157040000Y-83100000D01*
X157040000Y-83100000D02*
X154200000Y-83100000D01*
%TO.N,Net-(U1-PD7{slash}RST)*%
X143300000Y-79800000D02*
X143300000Y-85300000D01*
X144000000Y-79100000D02*
X143300000Y-79800000D01*
%TO.N,EN_A*%
X149699000Y-75301000D02*
X151000000Y-74000000D01*
D14*
X152400000Y-75400000D02*
X152600000Y-75400000D01*
D13*
X148800000Y-82313577D02*
X149699000Y-81414577D01*
X149699000Y-81414577D02*
X149699000Y-75301000D01*
D14*
X151000000Y-74000000D02*
X152400000Y-75400000D01*
D13*
%TO.N,EN_R*%
X150400000Y-82000000D02*
X150400000Y-78400000D01*
X150400000Y-78400000D02*
X151600000Y-77200000D01*
X149218688Y-99310052D02*
X140475029Y-90566393D01*
X151100000Y-100300000D02*
X150110052Y-99310052D01*
X140475029Y-90566393D02*
X140475029Y-90145847D01*
X150110052Y-99310052D02*
X149218688Y-99310052D01*
X137749000Y-88418182D02*
X137749000Y-86611000D01*
X138519818Y-89189000D02*
X137749000Y-88418182D01*
X140475029Y-90145847D02*
X139518182Y-89189000D01*
X137749000Y-86611000D02*
X139000000Y-85360000D01*
X139518182Y-89189000D02*
X138519818Y-89189000D01*
%TO.N,Net-(J1-Pin_5)*%
X158840000Y-72200000D02*
X159300000Y-72660000D01*
X155800000Y-72200000D02*
X158840000Y-72200000D01*
%TD*%
%TA.AperFunction,Conductor*%
%TO.N,VCC*%
G36*
X162942539Y-61020185D02*
G01*
X162988294Y-61072989D01*
X162999500Y-61124500D01*
X162999500Y-109375500D01*
X162979815Y-109442539D01*
X162927011Y-109488294D01*
X162875500Y-109499500D01*
X161344747Y-109499500D01*
X161277708Y-109479815D01*
X161231953Y-109427011D01*
X161222009Y-109357853D01*
X161251034Y-109294297D01*
X161306428Y-109257569D01*
X161422445Y-109219873D01*
X161576788Y-109141232D01*
X161716928Y-109039414D01*
X161839414Y-108916928D01*
X161941232Y-108776788D01*
X162019873Y-108622445D01*
X162073402Y-108457701D01*
X162100500Y-108286611D01*
X162100500Y-108113389D01*
X162073402Y-107942299D01*
X162019873Y-107777555D01*
X161941232Y-107623212D01*
X161839414Y-107483072D01*
X161716928Y-107360586D01*
X161576788Y-107258768D01*
X161540952Y-107240509D01*
X161422447Y-107180128D01*
X161422446Y-107180127D01*
X161422445Y-107180127D01*
X161257701Y-107126598D01*
X161257699Y-107126597D01*
X161257698Y-107126597D01*
X161126271Y-107105781D01*
X161086611Y-107099500D01*
X160913389Y-107099500D01*
X160873728Y-107105781D01*
X160742302Y-107126597D01*
X160577552Y-107180128D01*
X160423211Y-107258768D01*
X160395684Y-107278768D01*
X160283072Y-107360586D01*
X160283070Y-107360588D01*
X160283069Y-107360588D01*
X160160588Y-107483069D01*
X160160588Y-107483070D01*
X160160586Y-107483072D01*
X160146057Y-107503070D01*
X160058770Y-107623207D01*
X160058766Y-107623214D01*
X160047016Y-107646277D01*
X160028918Y-107681795D01*
X159980947Y-107732590D01*
X159918435Y-107749500D01*
X149753936Y-107749500D01*
X149691936Y-107732887D01*
X149612485Y-107687016D01*
X149472475Y-107649500D01*
X149327525Y-107649500D01*
X149207004Y-107681794D01*
X149187511Y-107687017D01*
X149061988Y-107759488D01*
X149061982Y-107759493D01*
X148959493Y-107861982D01*
X148959488Y-107861988D01*
X148887017Y-107987511D01*
X148887016Y-107987515D01*
X148849500Y-108127525D01*
X148849500Y-108272475D01*
X148858647Y-108306610D01*
X148887017Y-108412488D01*
X148959488Y-108538011D01*
X148959490Y-108538013D01*
X148959491Y-108538015D01*
X149061985Y-108640509D01*
X149061986Y-108640510D01*
X149061988Y-108640511D01*
X149187511Y-108712982D01*
X149187512Y-108712982D01*
X149187515Y-108712984D01*
X149327525Y-108750500D01*
X149327528Y-108750500D01*
X149472472Y-108750500D01*
X149472475Y-108750500D01*
X149612485Y-108712984D01*
X149691936Y-108667112D01*
X149753936Y-108650500D01*
X159918435Y-108650500D01*
X159985474Y-108670185D01*
X160028918Y-108718204D01*
X160045373Y-108750499D01*
X160058766Y-108776785D01*
X160058770Y-108776792D01*
X160101100Y-108835053D01*
X160160586Y-108916928D01*
X160283072Y-109039414D01*
X160423212Y-109141232D01*
X160577555Y-109219873D01*
X160693571Y-109257569D01*
X160751247Y-109297007D01*
X160778445Y-109361365D01*
X160766530Y-109430212D01*
X160719286Y-109481687D01*
X160655253Y-109499500D01*
X139406300Y-109499500D01*
X139339261Y-109479815D01*
X139293506Y-109427011D01*
X139283562Y-109357853D01*
X139312587Y-109294297D01*
X139367979Y-109257570D01*
X139422445Y-109239873D01*
X139576788Y-109161232D01*
X139716928Y-109059414D01*
X139839414Y-108936928D01*
X139941232Y-108796788D01*
X139947116Y-108785239D01*
X139955797Y-108768204D01*
X140003772Y-108717409D01*
X140066281Y-108700500D01*
X143865890Y-108700500D01*
X143865892Y-108700500D01*
X143993186Y-108666392D01*
X144107314Y-108600500D01*
X145370995Y-107336819D01*
X145397922Y-107322115D01*
X145423741Y-107305523D01*
X145429941Y-107304631D01*
X145432318Y-107303334D01*
X145458676Y-107300500D01*
X145632711Y-107300500D01*
X145680162Y-107309938D01*
X145687513Y-107312983D01*
X145687515Y-107312984D01*
X145827525Y-107350500D01*
X145827528Y-107350500D01*
X145972472Y-107350500D01*
X145972475Y-107350500D01*
X146112485Y-107312984D01*
X146238015Y-107240509D01*
X146340509Y-107138015D01*
X146412984Y-107012485D01*
X146450500Y-106872475D01*
X146450500Y-106727525D01*
X146412984Y-106587515D01*
X146340509Y-106461985D01*
X146238015Y-106359491D01*
X146238013Y-106359490D01*
X146238011Y-106359488D01*
X146112488Y-106287017D01*
X146112489Y-106287017D01*
X146106157Y-106285320D01*
X146048137Y-106269773D01*
X145988479Y-106233410D01*
X145957950Y-106170563D01*
X145966245Y-106101187D01*
X146010730Y-106047309D01*
X146048136Y-106030226D01*
X146112485Y-106012984D01*
X146238015Y-105940509D01*
X146340509Y-105838015D01*
X146404301Y-105727525D01*
X149649500Y-105727525D01*
X149649500Y-105872475D01*
X149687016Y-106012485D01*
X149687017Y-106012488D01*
X149759488Y-106138011D01*
X149759490Y-106138013D01*
X149759491Y-106138015D01*
X149861985Y-106240509D01*
X149861986Y-106240510D01*
X149861988Y-106240511D01*
X149987511Y-106312982D01*
X149987512Y-106312982D01*
X149987515Y-106312984D01*
X150127525Y-106350500D01*
X150127528Y-106350500D01*
X150272472Y-106350500D01*
X150272475Y-106350500D01*
X150412485Y-106312984D01*
X150538015Y-106240509D01*
X150631705Y-106146819D01*
X150693028Y-106113334D01*
X150719386Y-106110500D01*
X159918435Y-106110500D01*
X159985474Y-106130185D01*
X160028918Y-106178204D01*
X160039110Y-106198206D01*
X160058766Y-106236785D01*
X160058770Y-106236792D01*
X160101100Y-106295053D01*
X160160586Y-106376928D01*
X160283072Y-106499414D01*
X160423212Y-106601232D01*
X160577555Y-106679873D01*
X160742299Y-106733402D01*
X160913389Y-106760500D01*
X160913390Y-106760500D01*
X161086610Y-106760500D01*
X161086611Y-106760500D01*
X161257701Y-106733402D01*
X161422445Y-106679873D01*
X161576788Y-106601232D01*
X161716928Y-106499414D01*
X161839414Y-106376928D01*
X161941232Y-106236788D01*
X162019873Y-106082445D01*
X162073402Y-105917701D01*
X162100500Y-105746611D01*
X162100500Y-105573389D01*
X162073402Y-105402299D01*
X162019873Y-105237555D01*
X161941232Y-105083212D01*
X161839414Y-104943072D01*
X161716928Y-104820586D01*
X161576788Y-104718768D01*
X161422445Y-104640127D01*
X161257701Y-104586598D01*
X161257699Y-104586597D01*
X161257698Y-104586597D01*
X161126271Y-104565781D01*
X161086611Y-104559500D01*
X160913389Y-104559500D01*
X160873728Y-104565781D01*
X160742302Y-104586597D01*
X160577552Y-104640128D01*
X160423211Y-104718768D01*
X160343256Y-104776859D01*
X160283072Y-104820586D01*
X160283070Y-104820588D01*
X160283069Y-104820588D01*
X160160588Y-104943069D01*
X160160588Y-104943070D01*
X160160586Y-104943072D01*
X160146057Y-104963070D01*
X160058770Y-105083207D01*
X160058766Y-105083214D01*
X160040000Y-105120046D01*
X160028918Y-105141795D01*
X159980947Y-105192590D01*
X159918435Y-105209500D01*
X150280691Y-105209500D01*
X150190325Y-105233713D01*
X150190324Y-105233712D01*
X150158263Y-105242304D01*
X150158257Y-105242283D01*
X150135001Y-105248516D01*
X150127526Y-105249500D01*
X150127525Y-105249500D01*
X150097464Y-105257555D01*
X149987511Y-105287017D01*
X149861988Y-105359488D01*
X149861982Y-105359493D01*
X149759493Y-105461982D01*
X149759488Y-105461988D01*
X149687017Y-105587511D01*
X149687016Y-105587515D01*
X149649500Y-105727525D01*
X146404301Y-105727525D01*
X146412984Y-105712485D01*
X146450500Y-105572475D01*
X146450500Y-105427525D01*
X146412984Y-105287515D01*
X146412696Y-105287017D01*
X146340511Y-105161988D01*
X146340506Y-105161982D01*
X146238017Y-105059493D01*
X146238015Y-105059491D01*
X146191346Y-105032546D01*
X146147769Y-105007387D01*
X146099553Y-104956820D01*
X146086331Y-104888213D01*
X146112299Y-104823348D01*
X146147769Y-104792613D01*
X146164082Y-104783194D01*
X146238015Y-104740509D01*
X146340509Y-104638015D01*
X146412984Y-104512485D01*
X146450500Y-104372475D01*
X146450500Y-104227525D01*
X146412984Y-104087515D01*
X146409356Y-104081232D01*
X146340511Y-103961988D01*
X146340506Y-103961982D01*
X146238017Y-103859493D01*
X146238011Y-103859488D01*
X146112488Y-103787017D01*
X146112489Y-103787017D01*
X146106157Y-103785320D01*
X146048137Y-103769773D01*
X145988479Y-103733410D01*
X145957950Y-103670563D01*
X145966245Y-103601187D01*
X146010730Y-103547309D01*
X146048135Y-103530226D01*
X146112485Y-103512984D01*
X146238015Y-103440509D01*
X146340509Y-103338015D01*
X146412984Y-103212485D01*
X146450500Y-103072475D01*
X146450500Y-102927525D01*
X146412984Y-102787515D01*
X146372592Y-102717555D01*
X146340511Y-102661988D01*
X146340506Y-102661982D01*
X146238017Y-102559493D01*
X146238011Y-102559488D01*
X146112488Y-102487017D01*
X146112489Y-102487017D01*
X146106157Y-102485320D01*
X146048137Y-102469773D01*
X145988479Y-102433410D01*
X145957950Y-102370563D01*
X145966245Y-102301187D01*
X146010730Y-102247309D01*
X146048135Y-102230226D01*
X146112485Y-102212984D01*
X146238015Y-102140509D01*
X146340509Y-102038015D01*
X146412984Y-101912485D01*
X146450500Y-101772475D01*
X146450500Y-101627525D01*
X146412984Y-101487515D01*
X146409034Y-101480674D01*
X146340511Y-101361988D01*
X146340506Y-101361982D01*
X146238017Y-101259493D01*
X146238011Y-101259488D01*
X146229253Y-101254432D01*
X146181038Y-101203864D01*
X146167817Y-101135256D01*
X146193786Y-101070392D01*
X146250701Y-101029865D01*
X146259135Y-101027279D01*
X146312485Y-101012984D01*
X146438015Y-100940509D01*
X146540509Y-100838015D01*
X146612984Y-100712485D01*
X146650500Y-100572475D01*
X146650500Y-100427525D01*
X146612984Y-100287515D01*
X146549498Y-100177555D01*
X146540511Y-100161988D01*
X146540506Y-100161982D01*
X146438017Y-100059493D01*
X146438011Y-100059488D01*
X146312488Y-99987017D01*
X146312489Y-99987017D01*
X146301006Y-99983940D01*
X146172475Y-99949500D01*
X146027525Y-99949500D01*
X145887515Y-99987016D01*
X145808063Y-100032887D01*
X145746064Y-100049500D01*
X144217965Y-100049500D01*
X144150926Y-100029815D01*
X144130284Y-100013181D01*
X140083333Y-95966230D01*
X140049848Y-95904907D01*
X140053083Y-95840231D01*
X140073402Y-95777701D01*
X140100500Y-95606611D01*
X140100500Y-95433389D01*
X140073402Y-95262299D01*
X140019873Y-95097555D01*
X139941232Y-94943212D01*
X139839414Y-94803072D01*
X139716928Y-94680586D01*
X139576788Y-94578768D01*
X139422445Y-94500127D01*
X139257701Y-94446598D01*
X139257699Y-94446597D01*
X139257698Y-94446597D01*
X139126271Y-94425781D01*
X139086611Y-94419500D01*
X138913389Y-94419500D01*
X138873728Y-94425781D01*
X138742302Y-94446597D01*
X138577552Y-94500128D01*
X138423211Y-94578768D01*
X138343256Y-94636859D01*
X138283072Y-94680586D01*
X138283070Y-94680588D01*
X138283069Y-94680588D01*
X138160588Y-94803069D01*
X138160588Y-94803070D01*
X138160586Y-94803072D01*
X138134110Y-94839513D01*
X138058768Y-94943211D01*
X137980128Y-95097552D01*
X137926597Y-95262302D01*
X137899500Y-95433389D01*
X137899500Y-95606610D01*
X137926597Y-95777697D01*
X137926597Y-95777699D01*
X137926598Y-95777701D01*
X137980127Y-95942445D01*
X138058768Y-96096788D01*
X138160586Y-96236928D01*
X138283072Y-96359414D01*
X138423212Y-96461232D01*
X138577555Y-96539873D01*
X138742299Y-96593402D01*
X138913389Y-96620500D01*
X138913390Y-96620500D01*
X139086610Y-96620500D01*
X139086611Y-96620500D01*
X139257701Y-96593402D01*
X139320231Y-96573083D01*
X139390070Y-96571087D01*
X139446230Y-96603333D01*
X143703387Y-100860490D01*
X143772687Y-100900500D01*
X143806114Y-100919799D01*
X143920691Y-100950500D01*
X145635124Y-100950500D01*
X145638271Y-100951424D01*
X145641462Y-100950662D01*
X145671574Y-100961203D01*
X145702163Y-100970185D01*
X145704309Y-100972662D01*
X145707408Y-100973747D01*
X145727045Y-100998901D01*
X145747918Y-101022989D01*
X145748384Y-101026234D01*
X145750404Y-101028821D01*
X145753323Y-101060580D01*
X145757862Y-101092147D01*
X145756498Y-101095131D01*
X145756799Y-101098397D01*
X145742090Y-101126682D01*
X145728837Y-101155703D01*
X145725625Y-101158345D01*
X145724564Y-101160386D01*
X145716208Y-101166092D01*
X145696744Y-101182106D01*
X145688745Y-101186686D01*
X145687515Y-101187016D01*
X145607821Y-101233027D01*
X145607684Y-101233106D01*
X145603665Y-101234065D01*
X145546064Y-101249500D01*
X142877965Y-101249500D01*
X142810926Y-101229815D01*
X142790284Y-101213181D01*
X140083333Y-98506230D01*
X140049848Y-98444907D01*
X140053083Y-98380231D01*
X140073402Y-98317701D01*
X140100500Y-98146611D01*
X140100500Y-97973389D01*
X140073402Y-97802299D01*
X140019873Y-97637555D01*
X139941232Y-97483212D01*
X139839414Y-97343072D01*
X139716928Y-97220586D01*
X139576788Y-97118768D01*
X139422445Y-97040127D01*
X139257701Y-96986598D01*
X139257699Y-96986597D01*
X139257698Y-96986597D01*
X139126271Y-96965781D01*
X139086611Y-96959500D01*
X138913389Y-96959500D01*
X138873728Y-96965781D01*
X138742302Y-96986597D01*
X138577552Y-97040128D01*
X138423211Y-97118768D01*
X138343256Y-97176859D01*
X138283072Y-97220586D01*
X138283070Y-97220588D01*
X138283069Y-97220588D01*
X138160588Y-97343069D01*
X138160588Y-97343070D01*
X138160586Y-97343072D01*
X138149512Y-97358314D01*
X138058768Y-97483211D01*
X137980128Y-97637552D01*
X137926597Y-97802302D01*
X137899500Y-97973389D01*
X137899500Y-98146610D01*
X137926597Y-98317697D01*
X137926597Y-98317699D01*
X137926598Y-98317701D01*
X137980127Y-98482445D01*
X138058768Y-98636788D01*
X138160586Y-98776928D01*
X138283072Y-98899414D01*
X138423212Y-99001232D01*
X138577555Y-99079873D01*
X138742299Y-99133402D01*
X138913389Y-99160500D01*
X138913390Y-99160500D01*
X139086610Y-99160500D01*
X139086611Y-99160500D01*
X139257701Y-99133402D01*
X139320231Y-99113083D01*
X139390070Y-99111087D01*
X139446230Y-99143333D01*
X142363386Y-102060489D01*
X142363387Y-102060490D01*
X142363389Y-102060491D01*
X142422693Y-102094729D01*
X142422696Y-102094732D01*
X142454307Y-102112982D01*
X142466114Y-102119799D01*
X142580691Y-102150500D01*
X145546064Y-102150500D01*
X145554749Y-102153050D01*
X145563711Y-102151762D01*
X145608063Y-102167112D01*
X145687515Y-102212984D01*
X145751861Y-102230225D01*
X145811520Y-102266591D01*
X145842049Y-102329438D01*
X145833754Y-102398813D01*
X145789268Y-102452691D01*
X145751862Y-102469774D01*
X145687515Y-102487016D01*
X145608063Y-102532887D01*
X145601912Y-102534535D01*
X145597575Y-102538294D01*
X145576664Y-102541300D01*
X145546064Y-102549500D01*
X141637965Y-102549500D01*
X141570926Y-102529815D01*
X141550284Y-102513181D01*
X140083333Y-101046230D01*
X140049848Y-100984907D01*
X140053083Y-100920231D01*
X140073402Y-100857701D01*
X140100500Y-100686611D01*
X140100500Y-100513389D01*
X140073402Y-100342299D01*
X140019873Y-100177555D01*
X139941232Y-100023212D01*
X139839414Y-99883072D01*
X139716928Y-99760586D01*
X139576788Y-99658768D01*
X139422445Y-99580127D01*
X139257701Y-99526598D01*
X139257699Y-99526597D01*
X139257698Y-99526597D01*
X139126271Y-99505781D01*
X139086611Y-99499500D01*
X138913389Y-99499500D01*
X138873728Y-99505781D01*
X138742302Y-99526597D01*
X138577552Y-99580128D01*
X138423211Y-99658768D01*
X138343256Y-99716859D01*
X138283072Y-99760586D01*
X138283070Y-99760588D01*
X138283069Y-99760588D01*
X138160588Y-99883069D01*
X138160588Y-99883070D01*
X138160586Y-99883072D01*
X138149512Y-99898314D01*
X138058768Y-100023211D01*
X137980128Y-100177552D01*
X137926597Y-100342302D01*
X137899500Y-100513389D01*
X137899500Y-100686610D01*
X137926597Y-100857697D01*
X137926597Y-100857699D01*
X137926598Y-100857701D01*
X137980127Y-101022445D01*
X138058768Y-101176788D01*
X138160586Y-101316928D01*
X138283072Y-101439414D01*
X138423212Y-101541232D01*
X138577555Y-101619873D01*
X138742299Y-101673402D01*
X138913389Y-101700500D01*
X138913390Y-101700500D01*
X139086610Y-101700500D01*
X139086611Y-101700500D01*
X139257701Y-101673402D01*
X139320231Y-101653083D01*
X139390070Y-101651087D01*
X139446230Y-101683333D01*
X141123387Y-103360490D01*
X141187839Y-103397701D01*
X141226114Y-103419799D01*
X141340691Y-103450500D01*
X145546064Y-103450500D01*
X145561407Y-103454582D01*
X145574872Y-103453893D01*
X145607175Y-103466758D01*
X145607684Y-103466894D01*
X145607821Y-103466972D01*
X145687515Y-103512984D01*
X145688745Y-103513313D01*
X145696744Y-103517894D01*
X145715686Y-103537620D01*
X145736982Y-103554782D01*
X145739536Y-103562457D01*
X145745138Y-103568291D01*
X145750407Y-103595123D01*
X145759045Y-103621076D01*
X145757044Y-103628914D01*
X145758603Y-103636851D01*
X145748529Y-103662275D01*
X145741765Y-103688775D01*
X145735844Y-103694286D01*
X145732865Y-103701807D01*
X145710641Y-103717750D01*
X145690626Y-103736385D01*
X145681741Y-103738484D01*
X145676094Y-103742536D01*
X145661416Y-103743287D01*
X145635124Y-103749500D01*
X140297965Y-103749500D01*
X140230926Y-103729815D01*
X140210284Y-103713181D01*
X140083333Y-103586230D01*
X140049848Y-103524907D01*
X140053083Y-103460231D01*
X140073402Y-103397701D01*
X140100500Y-103226611D01*
X140100500Y-103053389D01*
X140073402Y-102882299D01*
X140019873Y-102717555D01*
X139941232Y-102563212D01*
X139839414Y-102423072D01*
X139716928Y-102300586D01*
X139576788Y-102198768D01*
X139422445Y-102120127D01*
X139257701Y-102066598D01*
X139257699Y-102066597D01*
X139257698Y-102066597D01*
X139126271Y-102045781D01*
X139086611Y-102039500D01*
X138913389Y-102039500D01*
X138873728Y-102045781D01*
X138742302Y-102066597D01*
X138742299Y-102066598D01*
X138578565Y-102119799D01*
X138577552Y-102120128D01*
X138423211Y-102198768D01*
X138352009Y-102250500D01*
X138283072Y-102300586D01*
X138283070Y-102300588D01*
X138283069Y-102300588D01*
X138160588Y-102423069D01*
X138160588Y-102423070D01*
X138160586Y-102423072D01*
X138132316Y-102461982D01*
X138058768Y-102563211D01*
X137980128Y-102717552D01*
X137926597Y-102882302D01*
X137899500Y-103053389D01*
X137899500Y-103226610D01*
X137926597Y-103397697D01*
X137926597Y-103397699D01*
X137926598Y-103397701D01*
X137980127Y-103562445D01*
X138058768Y-103716788D01*
X138160586Y-103856928D01*
X138283072Y-103979414D01*
X138423212Y-104081232D01*
X138577555Y-104159873D01*
X138742299Y-104213402D01*
X138913389Y-104240500D01*
X138913390Y-104240500D01*
X139086610Y-104240500D01*
X139086611Y-104240500D01*
X139257701Y-104213402D01*
X139320231Y-104193083D01*
X139390070Y-104191087D01*
X139446230Y-104223333D01*
X139783386Y-104560489D01*
X139783387Y-104560490D01*
X139783389Y-104560491D01*
X139842693Y-104594729D01*
X139842696Y-104594732D01*
X139876937Y-104614500D01*
X139886114Y-104619799D01*
X140000691Y-104650500D01*
X145420614Y-104650500D01*
X145487653Y-104670185D01*
X145494369Y-104674819D01*
X145501774Y-104680298D01*
X145561985Y-104740509D01*
X145658324Y-104796130D01*
X145663985Y-104800319D01*
X145681000Y-104822786D01*
X145700446Y-104843181D01*
X145701811Y-104850265D01*
X145706168Y-104856018D01*
X145708335Y-104884120D01*
X145713668Y-104911788D01*
X145710986Y-104918485D01*
X145711542Y-104925681D01*
X145698172Y-104950493D01*
X145687700Y-104976653D01*
X145680905Y-104982540D01*
X145678400Y-104987190D01*
X145670486Y-104991568D01*
X145652231Y-105007387D01*
X145561985Y-105059491D01*
X145561982Y-105059493D01*
X145459493Y-105161982D01*
X145459489Y-105161988D01*
X145456307Y-105167500D01*
X145405740Y-105215715D01*
X145348920Y-105229500D01*
X140081565Y-105229500D01*
X140014526Y-105209815D01*
X139971081Y-105161795D01*
X139941232Y-105103212D01*
X139941231Y-105103211D01*
X139941229Y-105103207D01*
X139909465Y-105059489D01*
X139839414Y-104963072D01*
X139716928Y-104840586D01*
X139576788Y-104738768D01*
X139422445Y-104660127D01*
X139257701Y-104606598D01*
X139257699Y-104606597D01*
X139257698Y-104606597D01*
X139126271Y-104585781D01*
X139086611Y-104579500D01*
X138913389Y-104579500D01*
X138873728Y-104585781D01*
X138742302Y-104606597D01*
X138577552Y-104660128D01*
X138423211Y-104738768D01*
X138349101Y-104792613D01*
X138283072Y-104840586D01*
X138283070Y-104840588D01*
X138283069Y-104840588D01*
X138160588Y-104963069D01*
X138160588Y-104963070D01*
X138160586Y-104963072D01*
X138128389Y-105007387D01*
X138058768Y-105103211D01*
X137980128Y-105257552D01*
X137926597Y-105422302D01*
X137899500Y-105593389D01*
X137899500Y-105766610D01*
X137923429Y-105917697D01*
X137926598Y-105937701D01*
X137980127Y-106102445D01*
X138058768Y-106256788D01*
X138160586Y-106396928D01*
X138283072Y-106519414D01*
X138423212Y-106621232D01*
X138577555Y-106699873D01*
X138742299Y-106753402D01*
X138913389Y-106780500D01*
X138913390Y-106780500D01*
X139086610Y-106780500D01*
X139086611Y-106780500D01*
X139257701Y-106753402D01*
X139422445Y-106699873D01*
X139576788Y-106621232D01*
X139716928Y-106519414D01*
X139839414Y-106396928D01*
X139941232Y-106256788D01*
X139971081Y-106198204D01*
X140019053Y-106147410D01*
X140081565Y-106130500D01*
X144895833Y-106130500D01*
X144962872Y-106150185D01*
X145008627Y-106202989D01*
X145018571Y-106272147D01*
X144989546Y-106335703D01*
X144957833Y-106361887D01*
X144892689Y-106399497D01*
X144892683Y-106399502D01*
X143629005Y-107663181D01*
X143567682Y-107696666D01*
X143541324Y-107699500D01*
X140045169Y-107699500D01*
X139978130Y-107679815D01*
X139945302Y-107646277D01*
X139944096Y-107647154D01*
X139941231Y-107643211D01*
X139839414Y-107503072D01*
X139716928Y-107380586D01*
X139576788Y-107278768D01*
X139422445Y-107200127D01*
X139257701Y-107146598D01*
X139257699Y-107146597D01*
X139257698Y-107146597D01*
X139126271Y-107125781D01*
X139086611Y-107119500D01*
X138913389Y-107119500D01*
X138873728Y-107125781D01*
X138742302Y-107146597D01*
X138577552Y-107200128D01*
X138423211Y-107278768D01*
X138363550Y-107322115D01*
X138283072Y-107380586D01*
X138283070Y-107380588D01*
X138283069Y-107380588D01*
X138160588Y-107503069D01*
X138160588Y-107503070D01*
X138160586Y-107503072D01*
X138116859Y-107563256D01*
X138058768Y-107643211D01*
X137980128Y-107797552D01*
X137926597Y-107962302D01*
X137899500Y-108133389D01*
X137899500Y-108306610D01*
X137923429Y-108457697D01*
X137926598Y-108477701D01*
X137980127Y-108642445D01*
X138058768Y-108796788D01*
X138160586Y-108936928D01*
X138283072Y-109059414D01*
X138423212Y-109161232D01*
X138577555Y-109239873D01*
X138632020Y-109257570D01*
X138689694Y-109297007D01*
X138716892Y-109361365D01*
X138704977Y-109430212D01*
X138657733Y-109481687D01*
X138593700Y-109499500D01*
X136866300Y-109499500D01*
X136799261Y-109479815D01*
X136753506Y-109427011D01*
X136743562Y-109357853D01*
X136772587Y-109294297D01*
X136827979Y-109257570D01*
X136882445Y-109239873D01*
X137036788Y-109161232D01*
X137176928Y-109059414D01*
X137299414Y-108936928D01*
X137401232Y-108796788D01*
X137479873Y-108642445D01*
X137533402Y-108477701D01*
X137560500Y-108306611D01*
X137560500Y-108133389D01*
X137533402Y-107962299D01*
X137479873Y-107797555D01*
X137401232Y-107643212D01*
X137299414Y-107503072D01*
X137176928Y-107380586D01*
X137036788Y-107278768D01*
X136882445Y-107200127D01*
X136717701Y-107146598D01*
X136717699Y-107146597D01*
X136717698Y-107146597D01*
X136586271Y-107125781D01*
X136546611Y-107119500D01*
X136373389Y-107119500D01*
X136333728Y-107125781D01*
X136202302Y-107146597D01*
X136037552Y-107200128D01*
X135883211Y-107278768D01*
X135823550Y-107322115D01*
X135743072Y-107380586D01*
X135743070Y-107380588D01*
X135743069Y-107380588D01*
X135620588Y-107503069D01*
X135620588Y-107503070D01*
X135620586Y-107503072D01*
X135576859Y-107563256D01*
X135518768Y-107643211D01*
X135440128Y-107797552D01*
X135386597Y-107962302D01*
X135359500Y-108133389D01*
X135359500Y-108306610D01*
X135383429Y-108457697D01*
X135386598Y-108477701D01*
X135440127Y-108642445D01*
X135518768Y-108796788D01*
X135620586Y-108936928D01*
X135743072Y-109059414D01*
X135883212Y-109161232D01*
X136037555Y-109239873D01*
X136092020Y-109257570D01*
X136149694Y-109297007D01*
X136176892Y-109361365D01*
X136164977Y-109430212D01*
X136117733Y-109481687D01*
X136053700Y-109499500D01*
X134624500Y-109499500D01*
X134557461Y-109479815D01*
X134511706Y-109427011D01*
X134500500Y-109375500D01*
X134500500Y-105593389D01*
X135359500Y-105593389D01*
X135359500Y-105766610D01*
X135383429Y-105917697D01*
X135386598Y-105937701D01*
X135440127Y-106102445D01*
X135518768Y-106256788D01*
X135620586Y-106396928D01*
X135743072Y-106519414D01*
X135883212Y-106621232D01*
X136037555Y-106699873D01*
X136202299Y-106753402D01*
X136373389Y-106780500D01*
X136373390Y-106780500D01*
X136546610Y-106780500D01*
X136546611Y-106780500D01*
X136717701Y-106753402D01*
X136882445Y-106699873D01*
X137036788Y-106621232D01*
X137176928Y-106519414D01*
X137299414Y-106396928D01*
X137401232Y-106256788D01*
X137479873Y-106102445D01*
X137533402Y-105937701D01*
X137560500Y-105766611D01*
X137560500Y-105593389D01*
X137533402Y-105422299D01*
X137479873Y-105257555D01*
X137401232Y-105103212D01*
X137299414Y-104963072D01*
X137176928Y-104840586D01*
X137036788Y-104738768D01*
X136882445Y-104660127D01*
X136717701Y-104606598D01*
X136717699Y-104606597D01*
X136717698Y-104606597D01*
X136586271Y-104585781D01*
X136546611Y-104579500D01*
X136373389Y-104579500D01*
X136333728Y-104585781D01*
X136202302Y-104606597D01*
X136037552Y-104660128D01*
X135883211Y-104738768D01*
X135809101Y-104792613D01*
X135743072Y-104840586D01*
X135743070Y-104840588D01*
X135743069Y-104840588D01*
X135620588Y-104963069D01*
X135620588Y-104963070D01*
X135620586Y-104963072D01*
X135588389Y-105007387D01*
X135518768Y-105103211D01*
X135440128Y-105257552D01*
X135386597Y-105422302D01*
X135359500Y-105593389D01*
X134500500Y-105593389D01*
X134500500Y-103053389D01*
X135359500Y-103053389D01*
X135359500Y-103226610D01*
X135386597Y-103397697D01*
X135386597Y-103397699D01*
X135386598Y-103397701D01*
X135440127Y-103562445D01*
X135518768Y-103716788D01*
X135620586Y-103856928D01*
X135743072Y-103979414D01*
X135883212Y-104081232D01*
X136037555Y-104159873D01*
X136202299Y-104213402D01*
X136373389Y-104240500D01*
X136373390Y-104240500D01*
X136546610Y-104240500D01*
X136546611Y-104240500D01*
X136717701Y-104213402D01*
X136882445Y-104159873D01*
X137036788Y-104081232D01*
X137176928Y-103979414D01*
X137299414Y-103856928D01*
X137401232Y-103716788D01*
X137479873Y-103562445D01*
X137533402Y-103397701D01*
X137560500Y-103226611D01*
X137560500Y-103053389D01*
X137533402Y-102882299D01*
X137479873Y-102717555D01*
X137401232Y-102563212D01*
X137299414Y-102423072D01*
X137176928Y-102300586D01*
X137036788Y-102198768D01*
X136882445Y-102120127D01*
X136717701Y-102066598D01*
X136717699Y-102066597D01*
X136717698Y-102066597D01*
X136586271Y-102045781D01*
X136546611Y-102039500D01*
X136373389Y-102039500D01*
X136333728Y-102045781D01*
X136202302Y-102066597D01*
X136202299Y-102066598D01*
X136038565Y-102119799D01*
X136037552Y-102120128D01*
X135883211Y-102198768D01*
X135812009Y-102250500D01*
X135743072Y-102300586D01*
X135743070Y-102300588D01*
X135743069Y-102300588D01*
X135620588Y-102423069D01*
X135620588Y-102423070D01*
X135620586Y-102423072D01*
X135592316Y-102461982D01*
X135518768Y-102563211D01*
X135440128Y-102717552D01*
X135386597Y-102882302D01*
X135359500Y-103053389D01*
X134500500Y-103053389D01*
X134500500Y-100513389D01*
X135359500Y-100513389D01*
X135359500Y-100686610D01*
X135386597Y-100857697D01*
X135386597Y-100857699D01*
X135386598Y-100857701D01*
X135440127Y-101022445D01*
X135518768Y-101176788D01*
X135620586Y-101316928D01*
X135743072Y-101439414D01*
X135883212Y-101541232D01*
X136037555Y-101619873D01*
X136202299Y-101673402D01*
X136373389Y-101700500D01*
X136373390Y-101700500D01*
X136546610Y-101700500D01*
X136546611Y-101700500D01*
X136717701Y-101673402D01*
X136882445Y-101619873D01*
X137036788Y-101541232D01*
X137176928Y-101439414D01*
X137299414Y-101316928D01*
X137401232Y-101176788D01*
X137479873Y-101022445D01*
X137533402Y-100857701D01*
X137560500Y-100686611D01*
X137560500Y-100513389D01*
X137533402Y-100342299D01*
X137479873Y-100177555D01*
X137401232Y-100023212D01*
X137299414Y-99883072D01*
X137176928Y-99760586D01*
X137036788Y-99658768D01*
X136882445Y-99580127D01*
X136717701Y-99526598D01*
X136717699Y-99526597D01*
X136717698Y-99526597D01*
X136586271Y-99505781D01*
X136546611Y-99499500D01*
X136373389Y-99499500D01*
X136333728Y-99505781D01*
X136202302Y-99526597D01*
X136037552Y-99580128D01*
X135883211Y-99658768D01*
X135803256Y-99716859D01*
X135743072Y-99760586D01*
X135743070Y-99760588D01*
X135743069Y-99760588D01*
X135620588Y-99883069D01*
X135620588Y-99883070D01*
X135620586Y-99883072D01*
X135609512Y-99898314D01*
X135518768Y-100023211D01*
X135440128Y-100177552D01*
X135386597Y-100342302D01*
X135359500Y-100513389D01*
X134500500Y-100513389D01*
X134500500Y-97973389D01*
X135359500Y-97973389D01*
X135359500Y-98146610D01*
X135386597Y-98317697D01*
X135386597Y-98317699D01*
X135386598Y-98317701D01*
X135440127Y-98482445D01*
X135518768Y-98636788D01*
X135620586Y-98776928D01*
X135743072Y-98899414D01*
X135883212Y-99001232D01*
X136037555Y-99079873D01*
X136202299Y-99133402D01*
X136373389Y-99160500D01*
X136373390Y-99160500D01*
X136546610Y-99160500D01*
X136546611Y-99160500D01*
X136717701Y-99133402D01*
X136882445Y-99079873D01*
X137036788Y-99001232D01*
X137176928Y-98899414D01*
X137299414Y-98776928D01*
X137401232Y-98636788D01*
X137479873Y-98482445D01*
X137533402Y-98317701D01*
X137560500Y-98146611D01*
X137560500Y-97973389D01*
X137533402Y-97802299D01*
X137479873Y-97637555D01*
X137401232Y-97483212D01*
X137299414Y-97343072D01*
X137176928Y-97220586D01*
X137036788Y-97118768D01*
X136882445Y-97040127D01*
X136717701Y-96986598D01*
X136717699Y-96986597D01*
X136717698Y-96986597D01*
X136586271Y-96965781D01*
X136546611Y-96959500D01*
X136373389Y-96959500D01*
X136333728Y-96965781D01*
X136202302Y-96986597D01*
X136037552Y-97040128D01*
X135883211Y-97118768D01*
X135803256Y-97176859D01*
X135743072Y-97220586D01*
X135743070Y-97220588D01*
X135743069Y-97220588D01*
X135620588Y-97343069D01*
X135620588Y-97343070D01*
X135620586Y-97343072D01*
X135609512Y-97358314D01*
X135518768Y-97483211D01*
X135440128Y-97637552D01*
X135386597Y-97802302D01*
X135359500Y-97973389D01*
X134500500Y-97973389D01*
X134500500Y-95433389D01*
X135359500Y-95433389D01*
X135359500Y-95606610D01*
X135386597Y-95777697D01*
X135386597Y-95777699D01*
X135386598Y-95777701D01*
X135440127Y-95942445D01*
X135518768Y-96096788D01*
X135620586Y-96236928D01*
X135743072Y-96359414D01*
X135883212Y-96461232D01*
X136037555Y-96539873D01*
X136202299Y-96593402D01*
X136373389Y-96620500D01*
X136373390Y-96620500D01*
X136546610Y-96620500D01*
X136546611Y-96620500D01*
X136717701Y-96593402D01*
X136882445Y-96539873D01*
X137036788Y-96461232D01*
X137176928Y-96359414D01*
X137299414Y-96236928D01*
X137401232Y-96096788D01*
X137479873Y-95942445D01*
X137533402Y-95777701D01*
X137560500Y-95606611D01*
X137560500Y-95433389D01*
X137533402Y-95262299D01*
X137479873Y-95097555D01*
X137401232Y-94943212D01*
X137299414Y-94803072D01*
X137176928Y-94680586D01*
X137036788Y-94578768D01*
X136882445Y-94500127D01*
X136717701Y-94446598D01*
X136717699Y-94446597D01*
X136717698Y-94446597D01*
X136586271Y-94425781D01*
X136546611Y-94419500D01*
X136373389Y-94419500D01*
X136333728Y-94425781D01*
X136202302Y-94446597D01*
X136037552Y-94500128D01*
X135883211Y-94578768D01*
X135803256Y-94636859D01*
X135743072Y-94680586D01*
X135743070Y-94680588D01*
X135743069Y-94680588D01*
X135620588Y-94803069D01*
X135620588Y-94803070D01*
X135620586Y-94803072D01*
X135594110Y-94839513D01*
X135518768Y-94943211D01*
X135440128Y-95097552D01*
X135386597Y-95262302D01*
X135359500Y-95433389D01*
X134500500Y-95433389D01*
X134500500Y-92893389D01*
X135359500Y-92893389D01*
X135359500Y-93066610D01*
X135385001Y-93227623D01*
X135386598Y-93237701D01*
X135440127Y-93402445D01*
X135518768Y-93556788D01*
X135620586Y-93696928D01*
X135743072Y-93819414D01*
X135883212Y-93921232D01*
X136037555Y-93999873D01*
X136202299Y-94053402D01*
X136373389Y-94080500D01*
X136373390Y-94080500D01*
X136546610Y-94080500D01*
X136546611Y-94080500D01*
X136717701Y-94053402D01*
X136882445Y-93999873D01*
X137036788Y-93921232D01*
X137176928Y-93819414D01*
X137299414Y-93696928D01*
X137401232Y-93556788D01*
X137479873Y-93402445D01*
X137533402Y-93237701D01*
X137560500Y-93066611D01*
X137560500Y-92893389D01*
X137533402Y-92722299D01*
X137479873Y-92557555D01*
X137401232Y-92403212D01*
X137299414Y-92263072D01*
X137176928Y-92140586D01*
X137036788Y-92038768D01*
X136882445Y-91960127D01*
X136717701Y-91906598D01*
X136717699Y-91906597D01*
X136717698Y-91906597D01*
X136586271Y-91885781D01*
X136546611Y-91879500D01*
X136373389Y-91879500D01*
X136333728Y-91885781D01*
X136202302Y-91906597D01*
X136037552Y-91960128D01*
X135883211Y-92038768D01*
X135803256Y-92096859D01*
X135743072Y-92140586D01*
X135743070Y-92140588D01*
X135743069Y-92140588D01*
X135620588Y-92263069D01*
X135620588Y-92263070D01*
X135620586Y-92263072D01*
X135610459Y-92277011D01*
X135518768Y-92403211D01*
X135440128Y-92557552D01*
X135386597Y-92722302D01*
X135359500Y-92893389D01*
X134500500Y-92893389D01*
X134500500Y-90353389D01*
X135359500Y-90353389D01*
X135359500Y-90526610D01*
X135373101Y-90612488D01*
X135386598Y-90697701D01*
X135440127Y-90862445D01*
X135518768Y-91016788D01*
X135620586Y-91156928D01*
X135743072Y-91279414D01*
X135883212Y-91381232D01*
X136037555Y-91459873D01*
X136202299Y-91513402D01*
X136373389Y-91540500D01*
X136373390Y-91540500D01*
X136546610Y-91540500D01*
X136546611Y-91540500D01*
X136717701Y-91513402D01*
X136882445Y-91459873D01*
X137036788Y-91381232D01*
X137176928Y-91279414D01*
X137299414Y-91156928D01*
X137401232Y-91016788D01*
X137479873Y-90862445D01*
X137533402Y-90697701D01*
X137560500Y-90526611D01*
X137560500Y-90353389D01*
X137533402Y-90182299D01*
X137479873Y-90017555D01*
X137401232Y-89863212D01*
X137299414Y-89723072D01*
X137176928Y-89600586D01*
X137036788Y-89498768D01*
X136882445Y-89420127D01*
X136717701Y-89366598D01*
X136717699Y-89366597D01*
X136717698Y-89366597D01*
X136586271Y-89345781D01*
X136546611Y-89339500D01*
X136373389Y-89339500D01*
X136333728Y-89345781D01*
X136202302Y-89366597D01*
X136202299Y-89366598D01*
X136038565Y-89419799D01*
X136037552Y-89420128D01*
X135883211Y-89498768D01*
X135813401Y-89549489D01*
X135743072Y-89600586D01*
X135743070Y-89600588D01*
X135743069Y-89600588D01*
X135620588Y-89723069D01*
X135620588Y-89723070D01*
X135620586Y-89723072D01*
X135576859Y-89783256D01*
X135518768Y-89863211D01*
X135440128Y-90017552D01*
X135386597Y-90182302D01*
X135359500Y-90353389D01*
X134500500Y-90353389D01*
X134500500Y-87813389D01*
X135359500Y-87813389D01*
X135359500Y-87986611D01*
X135386598Y-88157701D01*
X135440127Y-88322445D01*
X135518768Y-88476788D01*
X135620586Y-88616928D01*
X135743072Y-88739414D01*
X135883212Y-88841232D01*
X136037555Y-88919873D01*
X136202299Y-88973402D01*
X136373389Y-89000500D01*
X136373390Y-89000500D01*
X136546610Y-89000500D01*
X136546611Y-89000500D01*
X136717701Y-88973402D01*
X136882445Y-88919873D01*
X137036788Y-88841232D01*
X137176928Y-88739414D01*
X137217348Y-88698993D01*
X137278669Y-88665509D01*
X137348360Y-88670493D01*
X137392709Y-88698994D01*
X138201005Y-89507290D01*
X138234490Y-89568613D01*
X138229506Y-89638305D01*
X138201006Y-89682651D01*
X138160589Y-89723068D01*
X138160588Y-89723070D01*
X138160586Y-89723072D01*
X138116859Y-89783256D01*
X138058768Y-89863211D01*
X137980128Y-90017552D01*
X137926597Y-90182302D01*
X137899500Y-90353389D01*
X137899500Y-90526610D01*
X137913101Y-90612488D01*
X137926598Y-90697701D01*
X137980127Y-90862445D01*
X138058768Y-91016788D01*
X138160586Y-91156928D01*
X138283072Y-91279414D01*
X138423212Y-91381232D01*
X138577555Y-91459873D01*
X138742299Y-91513402D01*
X138913389Y-91540500D01*
X138913390Y-91540500D01*
X139086609Y-91540500D01*
X139086611Y-91540500D01*
X139211354Y-91520742D01*
X139280645Y-91529696D01*
X139318431Y-91555534D01*
X139502476Y-91739579D01*
X139535961Y-91800902D01*
X139530977Y-91870594D01*
X139489105Y-91926527D01*
X139423641Y-91950944D01*
X139376477Y-91945191D01*
X139257698Y-91906597D01*
X139126271Y-91885781D01*
X139086611Y-91879500D01*
X138913389Y-91879500D01*
X138873728Y-91885781D01*
X138742302Y-91906597D01*
X138577552Y-91960128D01*
X138423211Y-92038768D01*
X138343256Y-92096859D01*
X138283072Y-92140586D01*
X138283070Y-92140588D01*
X138283069Y-92140588D01*
X138160588Y-92263069D01*
X138160588Y-92263070D01*
X138160586Y-92263072D01*
X138150459Y-92277011D01*
X138058768Y-92403211D01*
X137980128Y-92557552D01*
X137926597Y-92722302D01*
X137899500Y-92893389D01*
X137899500Y-93066610D01*
X137925001Y-93227623D01*
X137926598Y-93237701D01*
X137980127Y-93402445D01*
X138058768Y-93556788D01*
X138160586Y-93696928D01*
X138283072Y-93819414D01*
X138423212Y-93921232D01*
X138577555Y-93999873D01*
X138742299Y-94053402D01*
X138913389Y-94080500D01*
X138913390Y-94080500D01*
X139086610Y-94080500D01*
X139086611Y-94080500D01*
X139257701Y-94053402D01*
X139422445Y-93999873D01*
X139576788Y-93921232D01*
X139716928Y-93819414D01*
X139761939Y-93774402D01*
X139823260Y-93740918D01*
X139892951Y-93745902D01*
X139937300Y-93774403D01*
X145491364Y-99328467D01*
X145511070Y-99354148D01*
X145559491Y-99438015D01*
X145661985Y-99540509D01*
X145661986Y-99540510D01*
X145661988Y-99540511D01*
X145787511Y-99612982D01*
X145787512Y-99612982D01*
X145787515Y-99612984D01*
X145927525Y-99650500D01*
X145927528Y-99650500D01*
X146072472Y-99650500D01*
X146072475Y-99650500D01*
X146212485Y-99612984D01*
X146338015Y-99540509D01*
X146440509Y-99438015D01*
X146512984Y-99312485D01*
X146550500Y-99172475D01*
X146550500Y-99086965D01*
X146570185Y-99019926D01*
X146622989Y-98974171D01*
X146692147Y-98964227D01*
X146755703Y-98993252D01*
X146762181Y-98999284D01*
X149723386Y-101960489D01*
X149826113Y-102019799D01*
X149850321Y-102026284D01*
X149850324Y-102026286D01*
X149850325Y-102026286D01*
X149880447Y-102034357D01*
X149940691Y-102050500D01*
X150685124Y-102050500D01*
X150752163Y-102070185D01*
X150797918Y-102122989D01*
X150807862Y-102192147D01*
X150778837Y-102255703D01*
X150743523Y-102281168D01*
X150744553Y-102282952D01*
X150611988Y-102359488D01*
X150611982Y-102359493D01*
X150509493Y-102461982D01*
X150509488Y-102461988D01*
X150437017Y-102587511D01*
X150433190Y-102601794D01*
X150399500Y-102727525D01*
X150399500Y-102872475D01*
X150437016Y-103012485D01*
X150437017Y-103012488D01*
X150509488Y-103138011D01*
X150509490Y-103138013D01*
X150509491Y-103138015D01*
X150611985Y-103240509D01*
X150737515Y-103312984D01*
X150826132Y-103336728D01*
X150881719Y-103368822D01*
X150993386Y-103480489D01*
X151049669Y-103512984D01*
X151096114Y-103539799D01*
X151210691Y-103570500D01*
X159918435Y-103570500D01*
X159985474Y-103590185D01*
X160028918Y-103638204D01*
X160041183Y-103662275D01*
X160058766Y-103696785D01*
X160058770Y-103696792D01*
X160097066Y-103749500D01*
X160160586Y-103836928D01*
X160283072Y-103959414D01*
X160423212Y-104061232D01*
X160577555Y-104139873D01*
X160742299Y-104193402D01*
X160913389Y-104220500D01*
X160913390Y-104220500D01*
X161086610Y-104220500D01*
X161086611Y-104220500D01*
X161257701Y-104193402D01*
X161422445Y-104139873D01*
X161576788Y-104061232D01*
X161716928Y-103959414D01*
X161839414Y-103836928D01*
X161941232Y-103696788D01*
X162019873Y-103542445D01*
X162073402Y-103377701D01*
X162100500Y-103206611D01*
X162100500Y-103033389D01*
X162073402Y-102862299D01*
X162019873Y-102697555D01*
X161941232Y-102543212D01*
X161839414Y-102403072D01*
X161716928Y-102280586D01*
X161576788Y-102178768D01*
X161422445Y-102100127D01*
X161257701Y-102046598D01*
X161257699Y-102046597D01*
X161257698Y-102046597D01*
X161126271Y-102025781D01*
X161086611Y-102019500D01*
X160913389Y-102019500D01*
X160873728Y-102025781D01*
X160742302Y-102046597D01*
X160577552Y-102100128D01*
X160423211Y-102178768D01*
X160376116Y-102212985D01*
X160283072Y-102280586D01*
X160283070Y-102280588D01*
X160283069Y-102280588D01*
X160160588Y-102403069D01*
X160160588Y-102403070D01*
X160160586Y-102403072D01*
X160146057Y-102423070D01*
X160058770Y-102543207D01*
X160058766Y-102543214D01*
X160040000Y-102580046D01*
X160028918Y-102601795D01*
X159980947Y-102652590D01*
X159918435Y-102669500D01*
X151579797Y-102669500D01*
X151512758Y-102649815D01*
X151467003Y-102597011D01*
X151465233Y-102592947D01*
X151462985Y-102587519D01*
X151462984Y-102587515D01*
X151462981Y-102587510D01*
X151462980Y-102587507D01*
X151390511Y-102461988D01*
X151390506Y-102461982D01*
X151288017Y-102359493D01*
X151288015Y-102359491D01*
X151263403Y-102345281D01*
X151215189Y-102294712D01*
X151201968Y-102226105D01*
X151227937Y-102161241D01*
X151284852Y-102120714D01*
X151293280Y-102118129D01*
X151312485Y-102112984D01*
X151312488Y-102112982D01*
X151312489Y-102112982D01*
X151403405Y-102060491D01*
X151438015Y-102040509D01*
X151540509Y-101938015D01*
X151612984Y-101812485D01*
X151650500Y-101672475D01*
X151650500Y-101527525D01*
X151612984Y-101387515D01*
X151598244Y-101361985D01*
X151540511Y-101261988D01*
X151540506Y-101261982D01*
X151438017Y-101159493D01*
X151438011Y-101159488D01*
X151312488Y-101087017D01*
X151312489Y-101087017D01*
X151306157Y-101085320D01*
X151248137Y-101069773D01*
X151188479Y-101033410D01*
X151157950Y-100970563D01*
X151166245Y-100901187D01*
X151210730Y-100847309D01*
X151248135Y-100830226D01*
X151312485Y-100812984D01*
X151438015Y-100740509D01*
X151540509Y-100638015D01*
X151612984Y-100512485D01*
X151650500Y-100372475D01*
X151650500Y-100227525D01*
X151612984Y-100087515D01*
X151596805Y-100059493D01*
X151540511Y-99961988D01*
X151540506Y-99961982D01*
X151438017Y-99859493D01*
X151438011Y-99859488D01*
X151312488Y-99787017D01*
X151312483Y-99787015D01*
X151223865Y-99763269D01*
X151168279Y-99731176D01*
X150386668Y-98949565D01*
X150386666Y-98949563D01*
X150335302Y-98919908D01*
X150283940Y-98890253D01*
X150271832Y-98887009D01*
X150259725Y-98883765D01*
X150259722Y-98883764D01*
X150221530Y-98873530D01*
X150169361Y-98859552D01*
X150169360Y-98859552D01*
X149456653Y-98859552D01*
X149389614Y-98839867D01*
X149368972Y-98823233D01*
X146407920Y-95862181D01*
X146374435Y-95800858D01*
X146379419Y-95731166D01*
X146421291Y-95675233D01*
X146486755Y-95650816D01*
X146495601Y-95650500D01*
X147743349Y-95650500D01*
X147810388Y-95670185D01*
X147831030Y-95686819D01*
X154323387Y-102179176D01*
X154323389Y-102179177D01*
X154323393Y-102179180D01*
X154381940Y-102212982D01*
X154381944Y-102212983D01*
X154381945Y-102212984D01*
X154426114Y-102238485D01*
X154540691Y-102269186D01*
X154627378Y-102269186D01*
X154689377Y-102285798D01*
X154768829Y-102331670D01*
X154908839Y-102369186D01*
X154908842Y-102369186D01*
X155053786Y-102369186D01*
X155053789Y-102369186D01*
X155193799Y-102331670D01*
X155319329Y-102259195D01*
X155421823Y-102156701D01*
X155494298Y-102031171D01*
X155531814Y-101891161D01*
X155531814Y-101746211D01*
X155494298Y-101606201D01*
X155490643Y-101599871D01*
X155421825Y-101480674D01*
X155421820Y-101480668D01*
X155319331Y-101378179D01*
X155319325Y-101378174D01*
X155193802Y-101305703D01*
X155193803Y-101305703D01*
X155182320Y-101302626D01*
X155053789Y-101268186D01*
X154908839Y-101268186D01*
X154802718Y-101296621D01*
X154732868Y-101294958D01*
X154682944Y-101264527D01*
X148257930Y-94839513D01*
X148257928Y-94839511D01*
X148206564Y-94809856D01*
X148155202Y-94780201D01*
X148143094Y-94776957D01*
X148130987Y-94773713D01*
X148130984Y-94773712D01*
X148092792Y-94763478D01*
X148040623Y-94749500D01*
X148040622Y-94749500D01*
X146337965Y-94749500D01*
X146270926Y-94729815D01*
X146250284Y-94713181D01*
X145578538Y-94041435D01*
X145545053Y-93980112D01*
X145550037Y-93910420D01*
X145591909Y-93854487D01*
X145634121Y-93833981D01*
X145712485Y-93812984D01*
X145838015Y-93740509D01*
X145940509Y-93638015D01*
X146012984Y-93512485D01*
X146050500Y-93372475D01*
X146050500Y-93227525D01*
X146012984Y-93087515D01*
X146000914Y-93066610D01*
X145940511Y-92961988D01*
X145940506Y-92961982D01*
X145838017Y-92859493D01*
X145838011Y-92859488D01*
X145829253Y-92854432D01*
X145781038Y-92803864D01*
X145767817Y-92735256D01*
X145793786Y-92670392D01*
X145850701Y-92629865D01*
X145859135Y-92627279D01*
X145912485Y-92612984D01*
X146038015Y-92540509D01*
X146140509Y-92438015D01*
X146212984Y-92312485D01*
X146250500Y-92172475D01*
X146250500Y-92027525D01*
X146212984Y-91887515D01*
X146196809Y-91859500D01*
X146140511Y-91761988D01*
X146140506Y-91761982D01*
X146038017Y-91659493D01*
X146038011Y-91659488D01*
X145912488Y-91587017D01*
X145912481Y-91587014D01*
X145823866Y-91563269D01*
X145768280Y-91531176D01*
X145399285Y-91162181D01*
X145365800Y-91100858D01*
X145370784Y-91031166D01*
X145412656Y-90975233D01*
X145478120Y-90950816D01*
X145486966Y-90950500D01*
X145572472Y-90950500D01*
X145572475Y-90950500D01*
X145712485Y-90912984D01*
X145838015Y-90840509D01*
X145940509Y-90738015D01*
X146012984Y-90612485D01*
X146050500Y-90472475D01*
X146050500Y-90327525D01*
X146012984Y-90187515D01*
X146009974Y-90182302D01*
X145940511Y-90061988D01*
X145940506Y-90061982D01*
X145838017Y-89959493D01*
X145838011Y-89959488D01*
X145712488Y-89887017D01*
X145712481Y-89887014D01*
X145623866Y-89863269D01*
X145609980Y-89855252D01*
X145596534Y-89852327D01*
X145568280Y-89831176D01*
X145399285Y-89662181D01*
X145365800Y-89600858D01*
X145370784Y-89531166D01*
X145412656Y-89475233D01*
X145478120Y-89450816D01*
X145486966Y-89450500D01*
X147205788Y-89450500D01*
X147272827Y-89470185D01*
X147293469Y-89486819D01*
X152513181Y-94706531D01*
X152546666Y-94767854D01*
X152549500Y-94794212D01*
X152549500Y-98159310D01*
X152569482Y-98233886D01*
X152580200Y-98273885D01*
X152580200Y-98273886D01*
X152580201Y-98273887D01*
X152639511Y-98376614D01*
X155203386Y-100940490D01*
X155306114Y-100999799D01*
X155420691Y-101030500D01*
X159918435Y-101030500D01*
X159985474Y-101050185D01*
X160028918Y-101098204D01*
X160045025Y-101129815D01*
X160058766Y-101156785D01*
X160058770Y-101156792D01*
X160080730Y-101187016D01*
X160160586Y-101296928D01*
X160283072Y-101419414D01*
X160423212Y-101521232D01*
X160577555Y-101599873D01*
X160742299Y-101653402D01*
X160913389Y-101680500D01*
X160913390Y-101680500D01*
X161086610Y-101680500D01*
X161086611Y-101680500D01*
X161257701Y-101653402D01*
X161422445Y-101599873D01*
X161576788Y-101521232D01*
X161716928Y-101419414D01*
X161839414Y-101296928D01*
X161941232Y-101156788D01*
X162019873Y-101002445D01*
X162073402Y-100837701D01*
X162100500Y-100666611D01*
X162100500Y-100493389D01*
X162073402Y-100322299D01*
X162019873Y-100157555D01*
X161941232Y-100003212D01*
X161839414Y-99863072D01*
X161716928Y-99740586D01*
X161576788Y-99638768D01*
X161422445Y-99560127D01*
X161257701Y-99506598D01*
X161257699Y-99506597D01*
X161257698Y-99506597D01*
X161126271Y-99485781D01*
X161086611Y-99479500D01*
X160913389Y-99479500D01*
X160873728Y-99485781D01*
X160742302Y-99506597D01*
X160577552Y-99560128D01*
X160423211Y-99638768D01*
X160407064Y-99650500D01*
X160283072Y-99740586D01*
X160283070Y-99740588D01*
X160283069Y-99740588D01*
X160160588Y-99863069D01*
X160160588Y-99863070D01*
X160160586Y-99863072D01*
X160146057Y-99883070D01*
X160058770Y-100003207D01*
X160058766Y-100003214D01*
X160045213Y-100029815D01*
X160028918Y-100061795D01*
X159980947Y-100112590D01*
X159918435Y-100129500D01*
X155717966Y-100129500D01*
X155650927Y-100109815D01*
X155630285Y-100093181D01*
X153486819Y-97949715D01*
X153453334Y-97888392D01*
X153450500Y-97862034D01*
X153450500Y-96686965D01*
X153470185Y-96619926D01*
X153522989Y-96574171D01*
X153592147Y-96564227D01*
X153655703Y-96593252D01*
X153662179Y-96599282D01*
X155463386Y-98400490D01*
X155566113Y-98459799D01*
X155590321Y-98466284D01*
X155590324Y-98466286D01*
X155590325Y-98466286D01*
X155620447Y-98474357D01*
X155680691Y-98490500D01*
X159918435Y-98490500D01*
X159985474Y-98510185D01*
X160028918Y-98558204D01*
X160043599Y-98587016D01*
X160058766Y-98616785D01*
X160058770Y-98616792D01*
X160101100Y-98675053D01*
X160160586Y-98756928D01*
X160283072Y-98879414D01*
X160423212Y-98981232D01*
X160577555Y-99059873D01*
X160742299Y-99113402D01*
X160913389Y-99140500D01*
X160913390Y-99140500D01*
X161086610Y-99140500D01*
X161086611Y-99140500D01*
X161257701Y-99113402D01*
X161422445Y-99059873D01*
X161576788Y-98981232D01*
X161716928Y-98879414D01*
X161839414Y-98756928D01*
X161941232Y-98616788D01*
X162019873Y-98462445D01*
X162073402Y-98297701D01*
X162100500Y-98126611D01*
X162100500Y-97953389D01*
X162073402Y-97782299D01*
X162019873Y-97617555D01*
X161941232Y-97463212D01*
X161839414Y-97323072D01*
X161716928Y-97200586D01*
X161576788Y-97098768D01*
X161422445Y-97020127D01*
X161257701Y-96966598D01*
X161257699Y-96966597D01*
X161257698Y-96966597D01*
X161126271Y-96945781D01*
X161086611Y-96939500D01*
X160913389Y-96939500D01*
X160873728Y-96945781D01*
X160742302Y-96966597D01*
X160577552Y-97020128D01*
X160423211Y-97098768D01*
X160395684Y-97118768D01*
X160283072Y-97200586D01*
X160283070Y-97200588D01*
X160283069Y-97200588D01*
X160160588Y-97323069D01*
X160160588Y-97323070D01*
X160160586Y-97323072D01*
X160146057Y-97343070D01*
X160058770Y-97463207D01*
X160058766Y-97463214D01*
X160040000Y-97500046D01*
X160028918Y-97521795D01*
X159980947Y-97572590D01*
X159918435Y-97589500D01*
X155977966Y-97589500D01*
X155910927Y-97569815D01*
X155890285Y-97553181D01*
X154499285Y-96162181D01*
X154465800Y-96100858D01*
X154470784Y-96031166D01*
X154512656Y-95975233D01*
X154578120Y-95950816D01*
X154586966Y-95950500D01*
X159918435Y-95950500D01*
X159985474Y-95970185D01*
X160028918Y-96018204D01*
X160035523Y-96031166D01*
X160058766Y-96076785D01*
X160058770Y-96076792D01*
X160101100Y-96135053D01*
X160160586Y-96216928D01*
X160283072Y-96339414D01*
X160423212Y-96441232D01*
X160577555Y-96519873D01*
X160742299Y-96573402D01*
X160913389Y-96600500D01*
X160913390Y-96600500D01*
X161086610Y-96600500D01*
X161086611Y-96600500D01*
X161257701Y-96573402D01*
X161422445Y-96519873D01*
X161576788Y-96441232D01*
X161716928Y-96339414D01*
X161839414Y-96216928D01*
X161941232Y-96076788D01*
X162019873Y-95922445D01*
X162073402Y-95757701D01*
X162100500Y-95586611D01*
X162100500Y-95413389D01*
X162073402Y-95242299D01*
X162019873Y-95077555D01*
X161941232Y-94923212D01*
X161839414Y-94783072D01*
X161716928Y-94660586D01*
X161576788Y-94558768D01*
X161422445Y-94480127D01*
X161257701Y-94426598D01*
X161257699Y-94426597D01*
X161257698Y-94426597D01*
X161126271Y-94405781D01*
X161086611Y-94399500D01*
X160913389Y-94399500D01*
X160873728Y-94405781D01*
X160742302Y-94426597D01*
X160577552Y-94480128D01*
X160423211Y-94558768D01*
X160395684Y-94578768D01*
X160283072Y-94660586D01*
X160283070Y-94660588D01*
X160283069Y-94660588D01*
X160160588Y-94783069D01*
X160160588Y-94783070D01*
X160160586Y-94783072D01*
X160146057Y-94803070D01*
X160058770Y-94923207D01*
X160058766Y-94923214D01*
X160040000Y-94960046D01*
X160028918Y-94981795D01*
X159980947Y-95032590D01*
X159918435Y-95049500D01*
X154924500Y-95049500D01*
X154857461Y-95029815D01*
X154811706Y-94977011D01*
X154800500Y-94925500D01*
X154800500Y-94329785D01*
X154820185Y-94262746D01*
X154872989Y-94216991D01*
X154942147Y-94207047D01*
X154979900Y-94220114D01*
X154980001Y-94219872D01*
X154984078Y-94221560D01*
X154986504Y-94222400D01*
X154987515Y-94222984D01*
X155127525Y-94260500D01*
X155127528Y-94260500D01*
X155272472Y-94260500D01*
X155272475Y-94260500D01*
X155412485Y-94222984D01*
X155491936Y-94177112D01*
X155553936Y-94160500D01*
X156946064Y-94160500D01*
X157008063Y-94177112D01*
X157087515Y-94222984D01*
X157227525Y-94260500D01*
X157227528Y-94260500D01*
X157372472Y-94260500D01*
X157372475Y-94260500D01*
X157512485Y-94222984D01*
X157638015Y-94150509D01*
X157740509Y-94048015D01*
X157812984Y-93922485D01*
X157850500Y-93782475D01*
X157850500Y-93637525D01*
X157812984Y-93497515D01*
X157777756Y-93436499D01*
X157761284Y-93368601D01*
X157784136Y-93302574D01*
X157839057Y-93259383D01*
X157885144Y-93250500D01*
X159847164Y-93250500D01*
X159914203Y-93270185D01*
X159959958Y-93322989D01*
X159965095Y-93336181D01*
X159980128Y-93382449D01*
X160058768Y-93536788D01*
X160160586Y-93676928D01*
X160283072Y-93799414D01*
X160423212Y-93901232D01*
X160577555Y-93979873D01*
X160742299Y-94033402D01*
X160913389Y-94060500D01*
X160913390Y-94060500D01*
X161086610Y-94060500D01*
X161086611Y-94060500D01*
X161257701Y-94033402D01*
X161422445Y-93979873D01*
X161576788Y-93901232D01*
X161716928Y-93799414D01*
X161839414Y-93676928D01*
X161941232Y-93536788D01*
X162019873Y-93382445D01*
X162073402Y-93217701D01*
X162100500Y-93046611D01*
X162100500Y-92873389D01*
X162073402Y-92702299D01*
X162019873Y-92537555D01*
X161941232Y-92383212D01*
X161839414Y-92243072D01*
X161716928Y-92120586D01*
X161576788Y-92018768D01*
X161422445Y-91940127D01*
X161257701Y-91886598D01*
X161257699Y-91886597D01*
X161257698Y-91886597D01*
X161126271Y-91865781D01*
X161086611Y-91859500D01*
X160913389Y-91859500D01*
X160873728Y-91865781D01*
X160742302Y-91886597D01*
X160577552Y-91940128D01*
X160423211Y-92018768D01*
X160395684Y-92038768D01*
X160283072Y-92120586D01*
X160283070Y-92120588D01*
X160283069Y-92120588D01*
X160160587Y-92243070D01*
X160120398Y-92298386D01*
X160065067Y-92341051D01*
X160020080Y-92349500D01*
X157128386Y-92349500D01*
X157061347Y-92329815D01*
X157015592Y-92277011D01*
X157005648Y-92207853D01*
X157034673Y-92144297D01*
X157040442Y-92138101D01*
X157040504Y-92138019D01*
X157040509Y-92138015D01*
X157112984Y-92012485D01*
X157150500Y-91872475D01*
X157150500Y-91727525D01*
X157112984Y-91587515D01*
X157112696Y-91587017D01*
X157040511Y-91461988D01*
X157040506Y-91461982D01*
X156938017Y-91359493D01*
X156938011Y-91359488D01*
X156812488Y-91287017D01*
X156812489Y-91287017D01*
X156784103Y-91279411D01*
X156672475Y-91249500D01*
X156527525Y-91249500D01*
X156387515Y-91287016D01*
X156387513Y-91287016D01*
X156387513Y-91287017D01*
X156374244Y-91294678D01*
X156308063Y-91332887D01*
X156246064Y-91349500D01*
X155937967Y-91349500D01*
X155908526Y-91340855D01*
X155878540Y-91334332D01*
X155873524Y-91330577D01*
X155870928Y-91329815D01*
X155850286Y-91313181D01*
X155768822Y-91231717D01*
X155736728Y-91176130D01*
X155712984Y-91087515D01*
X155712982Y-91087511D01*
X155695078Y-91056500D01*
X155678605Y-90988600D01*
X155701457Y-90922573D01*
X155756379Y-90879382D01*
X155802465Y-90870500D01*
X159775500Y-90870500D01*
X159842539Y-90890185D01*
X159888294Y-90942989D01*
X159899500Y-90994500D01*
X159899500Y-91294678D01*
X159914032Y-91367735D01*
X159914033Y-91367739D01*
X159923048Y-91381231D01*
X159969399Y-91450601D01*
X160052260Y-91505966D01*
X160052264Y-91505967D01*
X160125321Y-91520499D01*
X160125324Y-91520500D01*
X160125326Y-91520500D01*
X161874676Y-91520500D01*
X161874677Y-91520499D01*
X161947740Y-91505966D01*
X162030601Y-91450601D01*
X162085966Y-91367740D01*
X162100500Y-91294674D01*
X162100500Y-89545326D01*
X162100500Y-89545323D01*
X162100499Y-89545321D01*
X162085967Y-89472264D01*
X162085966Y-89472260D01*
X162071638Y-89450816D01*
X162030601Y-89389399D01*
X161947740Y-89334034D01*
X161947739Y-89334033D01*
X161947735Y-89334032D01*
X161874677Y-89319500D01*
X161874674Y-89319500D01*
X160125326Y-89319500D01*
X160125323Y-89319500D01*
X160052264Y-89334032D01*
X160052260Y-89334033D01*
X159969399Y-89389399D01*
X159914033Y-89472260D01*
X159914032Y-89472264D01*
X159899500Y-89545321D01*
X159899500Y-89845500D01*
X159879815Y-89912539D01*
X159827011Y-89958294D01*
X159775500Y-89969500D01*
X154657966Y-89969500D01*
X154590927Y-89949815D01*
X154570285Y-89933181D01*
X151817856Y-87180752D01*
X151784371Y-87119429D01*
X151782768Y-87104525D01*
X151782598Y-87104548D01*
X151781537Y-87096491D01*
X151781537Y-87096488D01*
X151744021Y-86956478D01*
X151719231Y-86913541D01*
X151671548Y-86830951D01*
X151671543Y-86830945D01*
X151569054Y-86728456D01*
X151569048Y-86728451D01*
X151443525Y-86655980D01*
X151443520Y-86655978D01*
X151354902Y-86632232D01*
X151299316Y-86600139D01*
X148474935Y-83775758D01*
X148441450Y-83714435D01*
X148446434Y-83644743D01*
X148488306Y-83588810D01*
X148553770Y-83564393D01*
X148562616Y-83564077D01*
X151402313Y-83564077D01*
X151402315Y-83564077D01*
X151529609Y-83529969D01*
X151643737Y-83464077D01*
X152080289Y-83027525D01*
X153649500Y-83027525D01*
X153649500Y-83172475D01*
X153687016Y-83312485D01*
X153687017Y-83312488D01*
X153759488Y-83438011D01*
X153759490Y-83438013D01*
X153759491Y-83438015D01*
X153861985Y-83540509D01*
X153861986Y-83540510D01*
X153861988Y-83540511D01*
X153987511Y-83612982D01*
X153987512Y-83612982D01*
X153987515Y-83612984D01*
X154127525Y-83650500D01*
X154127528Y-83650500D01*
X154272472Y-83650500D01*
X154272475Y-83650500D01*
X154412485Y-83612984D01*
X154491936Y-83567112D01*
X154553936Y-83550500D01*
X156802035Y-83550500D01*
X156869074Y-83570185D01*
X156889716Y-83586819D01*
X158216665Y-84913769D01*
X158250150Y-84975092D01*
X158246915Y-85039768D01*
X158226598Y-85102297D01*
X158199500Y-85273389D01*
X158199500Y-85446610D01*
X158226597Y-85617697D01*
X158226597Y-85617699D01*
X158226598Y-85617701D01*
X158280127Y-85782445D01*
X158358768Y-85936788D01*
X158460586Y-86076928D01*
X158583072Y-86199414D01*
X158723212Y-86301232D01*
X158877555Y-86379873D01*
X159042299Y-86433402D01*
X159213389Y-86460500D01*
X159213390Y-86460500D01*
X159386610Y-86460500D01*
X159386611Y-86460500D01*
X159557701Y-86433402D01*
X159722445Y-86379873D01*
X159876788Y-86301232D01*
X160016928Y-86199414D01*
X160139414Y-86076928D01*
X160241232Y-85936788D01*
X160319873Y-85782445D01*
X160373402Y-85617701D01*
X160400500Y-85446611D01*
X160400500Y-85273389D01*
X160373402Y-85102299D01*
X160319873Y-84937555D01*
X160241232Y-84783212D01*
X160139414Y-84643072D01*
X160016928Y-84520586D01*
X159876788Y-84418768D01*
X159722445Y-84340127D01*
X159557701Y-84286598D01*
X159557699Y-84286597D01*
X159557698Y-84286597D01*
X159402616Y-84262035D01*
X159386611Y-84259500D01*
X159213389Y-84259500D01*
X159197384Y-84262035D01*
X159042297Y-84286598D01*
X158979768Y-84306915D01*
X158909927Y-84308910D01*
X158853769Y-84276665D01*
X158429862Y-83852758D01*
X158429861Y-83852757D01*
X157316614Y-82739511D01*
X157265250Y-82709856D01*
X157213888Y-82680201D01*
X157201780Y-82676957D01*
X157189673Y-82673713D01*
X157189670Y-82673712D01*
X157136596Y-82659491D01*
X157099309Y-82649500D01*
X157099308Y-82649500D01*
X154764876Y-82649500D01*
X154761728Y-82648575D01*
X154758538Y-82649338D01*
X154728425Y-82638796D01*
X154697837Y-82629815D01*
X154695690Y-82627337D01*
X154692592Y-82626253D01*
X154672954Y-82601098D01*
X154652082Y-82577011D01*
X154651615Y-82573765D01*
X154649596Y-82571179D01*
X154646676Y-82539419D01*
X154642138Y-82507853D01*
X154643501Y-82504868D01*
X154643201Y-82501603D01*
X154657909Y-82473317D01*
X154671163Y-82444297D01*
X154674374Y-82441654D01*
X154675436Y-82439614D01*
X154683791Y-82433907D01*
X154703256Y-82417894D01*
X154711254Y-82413313D01*
X154712485Y-82412984D01*
X154792178Y-82366972D01*
X154792316Y-82366894D01*
X154796334Y-82365934D01*
X154853936Y-82350500D01*
X158124744Y-82350500D01*
X158191783Y-82370185D01*
X158237538Y-82422989D01*
X158247482Y-82492147D01*
X158242675Y-82512819D01*
X158226598Y-82562298D01*
X158214482Y-82638796D01*
X158199500Y-82733389D01*
X158199500Y-82906611D01*
X158203476Y-82931717D01*
X158219227Y-83031166D01*
X158226598Y-83077701D01*
X158280127Y-83242445D01*
X158358768Y-83396788D01*
X158460586Y-83536928D01*
X158583072Y-83659414D01*
X158723212Y-83761232D01*
X158877555Y-83839873D01*
X159042299Y-83893402D01*
X159213389Y-83920500D01*
X159213390Y-83920500D01*
X159386610Y-83920500D01*
X159386611Y-83920500D01*
X159557701Y-83893402D01*
X159722445Y-83839873D01*
X159876788Y-83761232D01*
X160016928Y-83659414D01*
X160139414Y-83536928D01*
X160241232Y-83396788D01*
X160319873Y-83242445D01*
X160373402Y-83077701D01*
X160400500Y-82906611D01*
X160400500Y-82733389D01*
X160373402Y-82562299D01*
X160319873Y-82397555D01*
X160241232Y-82243212D01*
X160139414Y-82103072D01*
X160016928Y-81980586D01*
X159876788Y-81878768D01*
X159722445Y-81800127D01*
X159557701Y-81746598D01*
X159557699Y-81746597D01*
X159557698Y-81746597D01*
X159426271Y-81725781D01*
X159386611Y-81719500D01*
X159213389Y-81719500D01*
X159156359Y-81728532D01*
X159042297Y-81746598D01*
X159042294Y-81746598D01*
X158979767Y-81766915D01*
X158909926Y-81768910D01*
X158853768Y-81736665D01*
X158656616Y-81539513D01*
X158656614Y-81539511D01*
X158553887Y-81480201D01*
X158553884Y-81480199D01*
X158523938Y-81472176D01*
X158523937Y-81472175D01*
X158523937Y-81472176D01*
X158481622Y-81460838D01*
X158439309Y-81449500D01*
X158439308Y-81449500D01*
X157188136Y-81449500D01*
X157121097Y-81429815D01*
X157075342Y-81377011D01*
X157065398Y-81307853D01*
X157080749Y-81263499D01*
X157112984Y-81207667D01*
X157150500Y-81067657D01*
X157150500Y-80922707D01*
X157112984Y-80782697D01*
X157083108Y-80730951D01*
X157066636Y-80663053D01*
X157089488Y-80597026D01*
X157144409Y-80553835D01*
X157213962Y-80547193D01*
X157222572Y-80549173D01*
X157227525Y-80550500D01*
X157227528Y-80550500D01*
X157372472Y-80550500D01*
X157372475Y-80550500D01*
X157512485Y-80512984D01*
X157638015Y-80440509D01*
X157740509Y-80338015D01*
X157812984Y-80212485D01*
X157850500Y-80072475D01*
X157850500Y-79927525D01*
X157812984Y-79787515D01*
X157795665Y-79757519D01*
X157779193Y-79689620D01*
X157802045Y-79623593D01*
X157856966Y-79580402D01*
X157926519Y-79573760D01*
X157988622Y-79605775D01*
X157990734Y-79607838D01*
X158216665Y-79833769D01*
X158250150Y-79895092D01*
X158246915Y-79959768D01*
X158226598Y-80022297D01*
X158199500Y-80193389D01*
X158199500Y-80366610D01*
X158226136Y-80534789D01*
X158226598Y-80537701D01*
X158280127Y-80702445D01*
X158358768Y-80856788D01*
X158460586Y-80996928D01*
X158583072Y-81119414D01*
X158723212Y-81221232D01*
X158877555Y-81299873D01*
X159042299Y-81353402D01*
X159213389Y-81380500D01*
X159213390Y-81380500D01*
X159386610Y-81380500D01*
X159386611Y-81380500D01*
X159557701Y-81353402D01*
X159722445Y-81299873D01*
X159876788Y-81221232D01*
X160016928Y-81119414D01*
X160139414Y-80996928D01*
X160241232Y-80856788D01*
X160319873Y-80702445D01*
X160373402Y-80537701D01*
X160400500Y-80366611D01*
X160400500Y-80193389D01*
X160373402Y-80022299D01*
X160319873Y-79857555D01*
X160241232Y-79703212D01*
X160139414Y-79563072D01*
X160016928Y-79440586D01*
X159876788Y-79338768D01*
X159722445Y-79260127D01*
X159557701Y-79206598D01*
X159557699Y-79206597D01*
X159557698Y-79206597D01*
X159426271Y-79185781D01*
X159386611Y-79179500D01*
X159213389Y-79179500D01*
X159156359Y-79188532D01*
X159042297Y-79206598D01*
X158979768Y-79226915D01*
X158909927Y-79228910D01*
X158853769Y-79196665D01*
X158267244Y-78610140D01*
X157096616Y-77439513D01*
X157096614Y-77439511D01*
X157045250Y-77409856D01*
X156993888Y-77380201D01*
X156981780Y-77376957D01*
X156969673Y-77373713D01*
X156969670Y-77373712D01*
X156916596Y-77359491D01*
X156879309Y-77349500D01*
X156879308Y-77349500D01*
X154953936Y-77349500D01*
X154891936Y-77332887D01*
X154812485Y-77287016D01*
X154672475Y-77249500D01*
X154527525Y-77249500D01*
X154398993Y-77283940D01*
X154387511Y-77287017D01*
X154261988Y-77359488D01*
X154261982Y-77359493D01*
X154159493Y-77461982D01*
X154159488Y-77461988D01*
X154087017Y-77587511D01*
X154082583Y-77604055D01*
X154049500Y-77727525D01*
X154049500Y-77872475D01*
X154083054Y-77997697D01*
X154087017Y-78012488D01*
X154159488Y-78138011D01*
X154159490Y-78138013D01*
X154159491Y-78138015D01*
X154261985Y-78240509D01*
X154261986Y-78240510D01*
X154261988Y-78240511D01*
X154387511Y-78312982D01*
X154387512Y-78312982D01*
X154387515Y-78312984D01*
X154527525Y-78350500D01*
X154527528Y-78350500D01*
X154672472Y-78350500D01*
X154672475Y-78350500D01*
X154812485Y-78312984D01*
X154891936Y-78267112D01*
X154953936Y-78250500D01*
X156582035Y-78250500D01*
X156649074Y-78270185D01*
X156669716Y-78286819D01*
X157692162Y-79309266D01*
X157725647Y-79370589D01*
X157720663Y-79440281D01*
X157678791Y-79496214D01*
X157613327Y-79520631D01*
X157545054Y-79505779D01*
X157542500Y-79504345D01*
X157512485Y-79487016D01*
X157372475Y-79449500D01*
X157227525Y-79449500D01*
X157087515Y-79487016D01*
X157008063Y-79532887D01*
X156946064Y-79549500D01*
X154590979Y-79549500D01*
X154574797Y-79548440D01*
X154573683Y-79548293D01*
X154573682Y-79548293D01*
X154428732Y-79548293D01*
X154308901Y-79580402D01*
X154288718Y-79585810D01*
X154163195Y-79658281D01*
X154163189Y-79658286D01*
X154060700Y-79760775D01*
X154060695Y-79760781D01*
X153988224Y-79886304D01*
X153988223Y-79886308D01*
X153950707Y-80026318D01*
X153950707Y-80171268D01*
X153988223Y-80311278D01*
X153988224Y-80311281D01*
X154058499Y-80433000D01*
X154074972Y-80500900D01*
X154052120Y-80566927D01*
X154038794Y-80582680D01*
X153964312Y-80657163D01*
X153964306Y-80657170D01*
X153891835Y-80782693D01*
X153891834Y-80782697D01*
X153854318Y-80922707D01*
X153854318Y-81067657D01*
X153890707Y-81203461D01*
X153891835Y-81207670D01*
X153964306Y-81333193D01*
X153964311Y-81333199D01*
X154041114Y-81410002D01*
X154074599Y-81471325D01*
X154069615Y-81541017D01*
X154060820Y-81559683D01*
X153987017Y-81687511D01*
X153987016Y-81687515D01*
X153949500Y-81827525D01*
X153949500Y-81972475D01*
X153984493Y-82103069D01*
X153987017Y-82112488D01*
X154059488Y-82238011D01*
X154059493Y-82238017D01*
X154167660Y-82346184D01*
X154201145Y-82407507D01*
X154196161Y-82477199D01*
X154154289Y-82533132D01*
X154112074Y-82553639D01*
X153987515Y-82587015D01*
X153987511Y-82587017D01*
X153861988Y-82659488D01*
X153861982Y-82659493D01*
X153759493Y-82761982D01*
X153759488Y-82761988D01*
X153687017Y-82887511D01*
X153687016Y-82887515D01*
X153649500Y-83027525D01*
X152080289Y-83027525D01*
X152200500Y-82907314D01*
X152266392Y-82793186D01*
X152300500Y-82665892D01*
X152300500Y-82534107D01*
X152300500Y-81467288D01*
X152309941Y-81419831D01*
X152312982Y-81412488D01*
X152312981Y-81412488D01*
X152312984Y-81412485D01*
X152350500Y-81272475D01*
X152350500Y-81127525D01*
X152312984Y-80987515D01*
X152240509Y-80861985D01*
X152138015Y-80759491D01*
X152138013Y-80759490D01*
X152138011Y-80759488D01*
X152012488Y-80687017D01*
X152012489Y-80687017D01*
X152001006Y-80683940D01*
X151872475Y-80649500D01*
X151727525Y-80649500D01*
X151598993Y-80683940D01*
X151587511Y-80687017D01*
X151461988Y-80759488D01*
X151461982Y-80759493D01*
X151359493Y-80861982D01*
X151359488Y-80861988D01*
X151287017Y-80987511D01*
X151287016Y-80987515D01*
X151249500Y-81127525D01*
X151249500Y-81272475D01*
X151271185Y-81353402D01*
X151287017Y-81412488D01*
X151290059Y-81419831D01*
X151299500Y-81467288D01*
X151299500Y-82341324D01*
X151290855Y-82370764D01*
X151284332Y-82400751D01*
X151280577Y-82405766D01*
X151279815Y-82408363D01*
X151263181Y-82429005D01*
X151165428Y-82526758D01*
X151104105Y-82560243D01*
X151077747Y-82563077D01*
X150914809Y-82563077D01*
X150847770Y-82543392D01*
X150802015Y-82490588D01*
X150792071Y-82421430D01*
X150821096Y-82357874D01*
X150827128Y-82351396D01*
X150832340Y-82346184D01*
X150840509Y-82338015D01*
X150912984Y-82212485D01*
X150950500Y-82072475D01*
X150950500Y-81927525D01*
X150912984Y-81787515D01*
X150906824Y-81776846D01*
X150867113Y-81708062D01*
X150850500Y-81646063D01*
X150850500Y-78637964D01*
X150870185Y-78570925D01*
X150886815Y-78550287D01*
X151668281Y-77768820D01*
X151723864Y-77736729D01*
X151812485Y-77712984D01*
X151938015Y-77640509D01*
X152040509Y-77538015D01*
X152112984Y-77412485D01*
X152150500Y-77272475D01*
X152150500Y-77127525D01*
X152112984Y-76987515D01*
X152062795Y-76900586D01*
X152040511Y-76861988D01*
X152040506Y-76861982D01*
X151938017Y-76759493D01*
X151938011Y-76759488D01*
X151812488Y-76687017D01*
X151812489Y-76687017D01*
X151785036Y-76679661D01*
X151672475Y-76649500D01*
X151527525Y-76649500D01*
X151414964Y-76679661D01*
X151387511Y-76687017D01*
X151261988Y-76759488D01*
X151261982Y-76759493D01*
X151159493Y-76861982D01*
X151159488Y-76861988D01*
X151087017Y-76987511D01*
X151087014Y-76987518D01*
X151063269Y-77076133D01*
X151031176Y-77131719D01*
X150361181Y-77801715D01*
X150299858Y-77835200D01*
X150230167Y-77830216D01*
X150174233Y-77788345D01*
X150149816Y-77722880D01*
X150149500Y-77714034D01*
X150149500Y-75538964D01*
X150169185Y-75471925D01*
X150185815Y-75451287D01*
X150876963Y-74760138D01*
X150938286Y-74726654D01*
X151007978Y-74731638D01*
X151052325Y-74760139D01*
X152092686Y-75800500D01*
X152206814Y-75866392D01*
X152334108Y-75900500D01*
X152334116Y-75900500D01*
X152342168Y-75901561D01*
X152342062Y-75902360D01*
X152380162Y-75909938D01*
X152387513Y-75912983D01*
X152387515Y-75912984D01*
X152527525Y-75950500D01*
X152527528Y-75950500D01*
X152672472Y-75950500D01*
X152672475Y-75950500D01*
X152812485Y-75912984D01*
X152938015Y-75840509D01*
X153040509Y-75738015D01*
X153112984Y-75612485D01*
X153150500Y-75472475D01*
X153150500Y-75327525D01*
X153112984Y-75187515D01*
X153112982Y-75187511D01*
X153091835Y-75150883D01*
X153091834Y-75150882D01*
X153058850Y-75093753D01*
X153040509Y-75061985D01*
X152938015Y-74959491D01*
X152938013Y-74959490D01*
X152938011Y-74959488D01*
X152812488Y-74887017D01*
X152812489Y-74887017D01*
X152800740Y-74883869D01*
X152672475Y-74849500D01*
X152672472Y-74849500D01*
X152608676Y-74849500D01*
X152541637Y-74829815D01*
X152520995Y-74813181D01*
X151542908Y-73835094D01*
X151516026Y-73794860D01*
X151512984Y-73787516D01*
X151512984Y-73787515D01*
X151440509Y-73661985D01*
X151338015Y-73559491D01*
X151338013Y-73559490D01*
X151338011Y-73559488D01*
X151212488Y-73487017D01*
X151212489Y-73487017D01*
X151201006Y-73483940D01*
X151072475Y-73449500D01*
X150927525Y-73449500D01*
X150798993Y-73483940D01*
X150787511Y-73487017D01*
X150661988Y-73559488D01*
X150661982Y-73559493D01*
X150559493Y-73661982D01*
X150559488Y-73661988D01*
X150487017Y-73787511D01*
X150487015Y-73787516D01*
X150463269Y-73876133D01*
X150431176Y-73931718D01*
X149338513Y-75024383D01*
X149338509Y-75024389D01*
X149279201Y-75127112D01*
X149279200Y-75127117D01*
X149248500Y-75241691D01*
X149248500Y-81176611D01*
X149228815Y-81243650D01*
X149212181Y-81264292D01*
X148731719Y-81744753D01*
X148676133Y-81776846D01*
X148587518Y-81800591D01*
X148587511Y-81800594D01*
X148461988Y-81873065D01*
X148461982Y-81873070D01*
X148359493Y-81975559D01*
X148359488Y-81975565D01*
X148287017Y-82101088D01*
X148283989Y-82112388D01*
X148249500Y-82241102D01*
X148249500Y-82241104D01*
X148249500Y-82389076D01*
X148229815Y-82456115D01*
X148177011Y-82501870D01*
X148125500Y-82513076D01*
X148113836Y-82513076D01*
X147985304Y-82547516D01*
X147973822Y-82550593D01*
X147848299Y-82623064D01*
X147848293Y-82623069D01*
X147745804Y-82725558D01*
X147745800Y-82725564D01*
X147709082Y-82789159D01*
X147658514Y-82837374D01*
X147589907Y-82850595D01*
X147525042Y-82824626D01*
X147514015Y-82814838D01*
X146955821Y-82256644D01*
X146922336Y-82195321D01*
X146927320Y-82125629D01*
X146955821Y-82081282D01*
X146983300Y-82053803D01*
X147160490Y-81876614D01*
X147219799Y-81773887D01*
X147227111Y-81746598D01*
X147230518Y-81733886D01*
X147245146Y-81679289D01*
X147250500Y-81659309D01*
X147250500Y-72127525D01*
X155249500Y-72127525D01*
X155249500Y-72272475D01*
X155285172Y-72405603D01*
X155287017Y-72412488D01*
X155359488Y-72538011D01*
X155359490Y-72538013D01*
X155359491Y-72538015D01*
X155461985Y-72640509D01*
X155461986Y-72640510D01*
X155461988Y-72640511D01*
X155587511Y-72712982D01*
X155587512Y-72712982D01*
X155587515Y-72712984D01*
X155727525Y-72750500D01*
X155727528Y-72750500D01*
X155872472Y-72750500D01*
X155872475Y-72750500D01*
X156012485Y-72712984D01*
X156091936Y-72667112D01*
X156153936Y-72650500D01*
X158078372Y-72650500D01*
X158145411Y-72670185D01*
X158191166Y-72722989D01*
X158200845Y-72755102D01*
X158226597Y-72917697D01*
X158226597Y-72917699D01*
X158226598Y-72917701D01*
X158280127Y-73082445D01*
X158358768Y-73236788D01*
X158460586Y-73376928D01*
X158583072Y-73499414D01*
X158723212Y-73601232D01*
X158877555Y-73679873D01*
X158880708Y-73680897D01*
X158881752Y-73681611D01*
X158882048Y-73681734D01*
X158882022Y-73681795D01*
X158938383Y-73720330D01*
X158965585Y-73784688D01*
X158953674Y-73853535D01*
X158906433Y-73905013D01*
X158880712Y-73916760D01*
X158781783Y-73948904D01*
X158592439Y-74045380D01*
X158538282Y-74084727D01*
X158538282Y-74084728D01*
X159170591Y-74717037D01*
X159107007Y-74734075D01*
X158992993Y-74799901D01*
X158899901Y-74892993D01*
X158834075Y-75007007D01*
X158817037Y-75070591D01*
X158184728Y-74438282D01*
X158184727Y-74438282D01*
X158145380Y-74492439D01*
X158048904Y-74681782D01*
X157983242Y-74883869D01*
X157983242Y-74883872D01*
X157950000Y-75093753D01*
X157950000Y-75306246D01*
X157983242Y-75516127D01*
X157983242Y-75516130D01*
X158048904Y-75718217D01*
X158145375Y-75907550D01*
X158184728Y-75961716D01*
X158817037Y-75329408D01*
X158834075Y-75392993D01*
X158899901Y-75507007D01*
X158992993Y-75600099D01*
X159107007Y-75665925D01*
X159170590Y-75682962D01*
X158538282Y-76315269D01*
X158538282Y-76315270D01*
X158592449Y-76354624D01*
X158781784Y-76451096D01*
X158880711Y-76483239D01*
X158938387Y-76522676D01*
X158965586Y-76587034D01*
X158953672Y-76655881D01*
X158906428Y-76707357D01*
X158880722Y-76719097D01*
X158879522Y-76719487D01*
X158877550Y-76720128D01*
X158723211Y-76798768D01*
X158643256Y-76856859D01*
X158583072Y-76900586D01*
X158583070Y-76900588D01*
X158583069Y-76900588D01*
X158460588Y-77023069D01*
X158460588Y-77023070D01*
X158460586Y-77023072D01*
X158422035Y-77076133D01*
X158358768Y-77163211D01*
X158280128Y-77317552D01*
X158226597Y-77482302D01*
X158199500Y-77653389D01*
X158199500Y-77826610D01*
X158226597Y-77997697D01*
X158226597Y-77997699D01*
X158226598Y-77997701D01*
X158280127Y-78162445D01*
X158358768Y-78316788D01*
X158460586Y-78456928D01*
X158583072Y-78579414D01*
X158723212Y-78681232D01*
X158877555Y-78759873D01*
X159042299Y-78813402D01*
X159213389Y-78840500D01*
X159213390Y-78840500D01*
X159386610Y-78840500D01*
X159386611Y-78840500D01*
X159557701Y-78813402D01*
X159722445Y-78759873D01*
X159876788Y-78681232D01*
X160016928Y-78579414D01*
X160139414Y-78456928D01*
X160241232Y-78316788D01*
X160319873Y-78162445D01*
X160373402Y-77997701D01*
X160400500Y-77826611D01*
X160400500Y-77653389D01*
X160373402Y-77482299D01*
X160319873Y-77317555D01*
X160241232Y-77163212D01*
X160139414Y-77023072D01*
X160016928Y-76900586D01*
X159876788Y-76798768D01*
X159841357Y-76780715D01*
X159722446Y-76720127D01*
X159719284Y-76719100D01*
X159718236Y-76718383D01*
X159717952Y-76718266D01*
X159717976Y-76718206D01*
X159661609Y-76679661D01*
X159634413Y-76615302D01*
X159646329Y-76546456D01*
X159693574Y-76494981D01*
X159719288Y-76483239D01*
X159818215Y-76451096D01*
X160007554Y-76354622D01*
X160061716Y-76315270D01*
X160061717Y-76315270D01*
X159429408Y-75682962D01*
X159492993Y-75665925D01*
X159607007Y-75600099D01*
X159700099Y-75507007D01*
X159765925Y-75392993D01*
X159782962Y-75329408D01*
X160415270Y-75961717D01*
X160415270Y-75961716D01*
X160454622Y-75907554D01*
X160551095Y-75718217D01*
X160616757Y-75516130D01*
X160616757Y-75516127D01*
X160650000Y-75306246D01*
X160650000Y-75093753D01*
X160616757Y-74883872D01*
X160616757Y-74883869D01*
X160551095Y-74681782D01*
X160454624Y-74492449D01*
X160415270Y-74438282D01*
X160415269Y-74438282D01*
X159782962Y-75070590D01*
X159765925Y-75007007D01*
X159700099Y-74892993D01*
X159607007Y-74799901D01*
X159492993Y-74734075D01*
X159429409Y-74717037D01*
X160061716Y-74084728D01*
X160007550Y-74045375D01*
X159818217Y-73948904D01*
X159719287Y-73916760D01*
X159661611Y-73877323D01*
X159634413Y-73812964D01*
X159646328Y-73744118D01*
X159693572Y-73692642D01*
X159719290Y-73680897D01*
X159722445Y-73679873D01*
X159876788Y-73601232D01*
X160016928Y-73499414D01*
X160139414Y-73376928D01*
X160241232Y-73236788D01*
X160319873Y-73082445D01*
X160373402Y-72917701D01*
X160400500Y-72746611D01*
X160400500Y-72573389D01*
X160373402Y-72402299D01*
X160319873Y-72237555D01*
X160241232Y-72083212D01*
X160139414Y-71943072D01*
X160016928Y-71820586D01*
X159876788Y-71718768D01*
X159722445Y-71640127D01*
X159557701Y-71586598D01*
X159557699Y-71586597D01*
X159557698Y-71586597D01*
X159426271Y-71565781D01*
X159386611Y-71559500D01*
X159213389Y-71559500D01*
X159173728Y-71565781D01*
X159042302Y-71586597D01*
X158877552Y-71640128D01*
X158723210Y-71718769D01*
X158723206Y-71718772D01*
X158713510Y-71725817D01*
X158647704Y-71749298D01*
X158640623Y-71749500D01*
X156153936Y-71749500D01*
X156091936Y-71732887D01*
X156012485Y-71687016D01*
X155872475Y-71649500D01*
X155727525Y-71649500D01*
X155598993Y-71683940D01*
X155587511Y-71687017D01*
X155461988Y-71759488D01*
X155461982Y-71759493D01*
X155359493Y-71861982D01*
X155359488Y-71861988D01*
X155287017Y-71987511D01*
X155287016Y-71987515D01*
X155249500Y-72127525D01*
X147250500Y-72127525D01*
X147250500Y-70220691D01*
X147219799Y-70106114D01*
X147219799Y-70106113D01*
X147219799Y-70106112D01*
X147160492Y-70003389D01*
X147160488Y-70003384D01*
X146764183Y-69607079D01*
X146684629Y-69527525D01*
X154149500Y-69527525D01*
X154149500Y-69672475D01*
X154187016Y-69812485D01*
X154187017Y-69812488D01*
X154259488Y-69938011D01*
X154259490Y-69938013D01*
X154259491Y-69938015D01*
X154361985Y-70040509D01*
X154361986Y-70040510D01*
X154361988Y-70040511D01*
X154487511Y-70112982D01*
X154487512Y-70112982D01*
X154487515Y-70112984D01*
X154627525Y-70150500D01*
X154627528Y-70150500D01*
X154772472Y-70150500D01*
X154772475Y-70150500D01*
X154912485Y-70112984D01*
X154991936Y-70067112D01*
X155053936Y-70050500D01*
X156335124Y-70050500D01*
X156402163Y-70070185D01*
X156447918Y-70122989D01*
X156457862Y-70192147D01*
X156428837Y-70255703D01*
X156393523Y-70281168D01*
X156394553Y-70282952D01*
X156261988Y-70359488D01*
X156261982Y-70359493D01*
X156159493Y-70461982D01*
X156159488Y-70461988D01*
X156087017Y-70587511D01*
X156087016Y-70587515D01*
X156049500Y-70727525D01*
X156049500Y-70872475D01*
X156072795Y-70959411D01*
X156087017Y-71012488D01*
X156159488Y-71138011D01*
X156159490Y-71138013D01*
X156159491Y-71138015D01*
X156261985Y-71240509D01*
X156261986Y-71240510D01*
X156261988Y-71240511D01*
X156387511Y-71312982D01*
X156387512Y-71312982D01*
X156387515Y-71312984D01*
X156527525Y-71350500D01*
X156527528Y-71350500D01*
X156672472Y-71350500D01*
X156672475Y-71350500D01*
X156812485Y-71312984D01*
X156891936Y-71267112D01*
X156953936Y-71250500D01*
X158679308Y-71250500D01*
X158679309Y-71250500D01*
X158769673Y-71226286D01*
X158793887Y-71219799D01*
X158868945Y-71176463D01*
X158873276Y-71174392D01*
X158903212Y-71169542D01*
X158932688Y-71162391D01*
X158939575Y-71163650D01*
X158942247Y-71163218D01*
X158945896Y-71164806D01*
X158965106Y-71168320D01*
X158968867Y-71169542D01*
X159042299Y-71193402D01*
X159213389Y-71220500D01*
X159213390Y-71220500D01*
X159386610Y-71220500D01*
X159386611Y-71220500D01*
X159557701Y-71193402D01*
X159722445Y-71139873D01*
X159876788Y-71061232D01*
X160016928Y-70959414D01*
X160139414Y-70836928D01*
X160241232Y-70696788D01*
X160319873Y-70542445D01*
X160373402Y-70377701D01*
X160400500Y-70206611D01*
X160400500Y-70033389D01*
X160373402Y-69862299D01*
X160319873Y-69697555D01*
X160241232Y-69543212D01*
X160139414Y-69403072D01*
X160016928Y-69280586D01*
X159876788Y-69178768D01*
X159722445Y-69100127D01*
X159557701Y-69046598D01*
X159557699Y-69046597D01*
X159557698Y-69046597D01*
X159426271Y-69025781D01*
X159386611Y-69019500D01*
X159213389Y-69019500D01*
X159173728Y-69025781D01*
X159042302Y-69046597D01*
X158877552Y-69100128D01*
X158723208Y-69178770D01*
X158598318Y-69269507D01*
X158598310Y-69269514D01*
X158583072Y-69280586D01*
X158460586Y-69403072D01*
X158449512Y-69418313D01*
X158449509Y-69418317D01*
X158358768Y-69543211D01*
X158280128Y-69697552D01*
X158226597Y-69862302D01*
X158199500Y-70033389D01*
X158199500Y-70206618D01*
X158199882Y-70211475D01*
X158198709Y-70211567D01*
X158190470Y-70275383D01*
X158145479Y-70328840D01*
X158078730Y-70349487D01*
X158076946Y-70349500D01*
X157564876Y-70349500D01*
X157497837Y-70329815D01*
X157452082Y-70277011D01*
X157442138Y-70207853D01*
X157471163Y-70144297D01*
X157506476Y-70118831D01*
X157505447Y-70117048D01*
X157620710Y-70050500D01*
X157638015Y-70040509D01*
X157740509Y-69938015D01*
X157812984Y-69812485D01*
X157844050Y-69696544D01*
X157876141Y-69640961D01*
X158853770Y-68663331D01*
X158915091Y-68629848D01*
X158979764Y-68633082D01*
X159042299Y-68653402D01*
X159213389Y-68680500D01*
X159213390Y-68680500D01*
X159386610Y-68680500D01*
X159386611Y-68680500D01*
X159557701Y-68653402D01*
X159722445Y-68599873D01*
X159876788Y-68521232D01*
X160016928Y-68419414D01*
X160139414Y-68296928D01*
X160241232Y-68156788D01*
X160319873Y-68002445D01*
X160373402Y-67837701D01*
X160400500Y-67666611D01*
X160400500Y-67493389D01*
X160373402Y-67322299D01*
X160319873Y-67157555D01*
X160241232Y-67003212D01*
X160139414Y-66863072D01*
X160016928Y-66740586D01*
X159876788Y-66638768D01*
X159722446Y-66560127D01*
X159719284Y-66559100D01*
X159718236Y-66558383D01*
X159717952Y-66558266D01*
X159717976Y-66558206D01*
X159661609Y-66519661D01*
X159634413Y-66455302D01*
X159646329Y-66386456D01*
X159693574Y-66334981D01*
X159719288Y-66323239D01*
X159818215Y-66291096D01*
X160007554Y-66194622D01*
X160061716Y-66155270D01*
X160061717Y-66155270D01*
X159429408Y-65522962D01*
X159492993Y-65505925D01*
X159607007Y-65440099D01*
X159700099Y-65347007D01*
X159765925Y-65232993D01*
X159782962Y-65169408D01*
X160415270Y-65801717D01*
X160415270Y-65801716D01*
X160454622Y-65747554D01*
X160551095Y-65558217D01*
X160616757Y-65356130D01*
X160616757Y-65356127D01*
X160650000Y-65146246D01*
X160650000Y-64933753D01*
X160616757Y-64723872D01*
X160616757Y-64723869D01*
X160551095Y-64521782D01*
X160454624Y-64332449D01*
X160415270Y-64278282D01*
X160415269Y-64278282D01*
X159782962Y-64910590D01*
X159765925Y-64847007D01*
X159700099Y-64732993D01*
X159607007Y-64639901D01*
X159492993Y-64574075D01*
X159429409Y-64557037D01*
X160061716Y-63924728D01*
X160007550Y-63885375D01*
X159908655Y-63834985D01*
X159857859Y-63787010D01*
X159841064Y-63719189D01*
X159863602Y-63653054D01*
X159918317Y-63609603D01*
X159964950Y-63600500D01*
X160174676Y-63600500D01*
X160174677Y-63600499D01*
X160247740Y-63585966D01*
X160330601Y-63530601D01*
X160385966Y-63447740D01*
X160400500Y-63374674D01*
X160400500Y-61625326D01*
X160400500Y-61625323D01*
X160400499Y-61625321D01*
X160385967Y-61552264D01*
X160385966Y-61552260D01*
X160330601Y-61469399D01*
X160247740Y-61414034D01*
X160247739Y-61414033D01*
X160247735Y-61414032D01*
X160174677Y-61399500D01*
X160174674Y-61399500D01*
X158425326Y-61399500D01*
X158425323Y-61399500D01*
X158352264Y-61414032D01*
X158352260Y-61414033D01*
X158269399Y-61469399D01*
X158214033Y-61552260D01*
X158214032Y-61552264D01*
X158199500Y-61625321D01*
X158199500Y-63374678D01*
X158214032Y-63447735D01*
X158214033Y-63447739D01*
X158214034Y-63447740D01*
X158269399Y-63530601D01*
X158340980Y-63578429D01*
X158352260Y-63585966D01*
X158352264Y-63585967D01*
X158425321Y-63600499D01*
X158425324Y-63600500D01*
X158635051Y-63600500D01*
X158702090Y-63620185D01*
X158747845Y-63672989D01*
X158757789Y-63742147D01*
X158728764Y-63805703D01*
X158691346Y-63834985D01*
X158592439Y-63885380D01*
X158538282Y-63924727D01*
X158538282Y-63924728D01*
X159170591Y-64557037D01*
X159107007Y-64574075D01*
X158992993Y-64639901D01*
X158899901Y-64732993D01*
X158834075Y-64847007D01*
X158817037Y-64910591D01*
X158184728Y-64278282D01*
X158184727Y-64278282D01*
X158145380Y-64332439D01*
X158048904Y-64521782D01*
X157983242Y-64723869D01*
X157983242Y-64723872D01*
X157950000Y-64933753D01*
X157950000Y-65146246D01*
X157983242Y-65356127D01*
X157983242Y-65356130D01*
X158048904Y-65558217D01*
X158145375Y-65747550D01*
X158184728Y-65801716D01*
X158817037Y-65169408D01*
X158834075Y-65232993D01*
X158899901Y-65347007D01*
X158992993Y-65440099D01*
X159107007Y-65505925D01*
X159170590Y-65522962D01*
X158538282Y-66155269D01*
X158538282Y-66155270D01*
X158592449Y-66194624D01*
X158781784Y-66291096D01*
X158880711Y-66323239D01*
X158938387Y-66362676D01*
X158965586Y-66427034D01*
X158953672Y-66495881D01*
X158906428Y-66547357D01*
X158880722Y-66559097D01*
X158879522Y-66559487D01*
X158877550Y-66560128D01*
X158723211Y-66638768D01*
X158643256Y-66696859D01*
X158583072Y-66740586D01*
X158583070Y-66740588D01*
X158583069Y-66740588D01*
X158460588Y-66863069D01*
X158460588Y-66863070D01*
X158460586Y-66863072D01*
X158416859Y-66923256D01*
X158358768Y-67003211D01*
X158280128Y-67157552D01*
X158226597Y-67322302D01*
X158199500Y-67493389D01*
X158199500Y-67666610D01*
X158226597Y-67837698D01*
X158226598Y-67837702D01*
X158246915Y-67900232D01*
X158248910Y-67970073D01*
X158216665Y-68026230D01*
X157204398Y-69038497D01*
X157166432Y-69064414D01*
X157157855Y-69068167D01*
X157087515Y-69087016D01*
X157002092Y-69136335D01*
X156995779Y-69139098D01*
X156974979Y-69141752D01*
X156946064Y-69149500D01*
X155053936Y-69149500D01*
X154991936Y-69132887D01*
X154912485Y-69087016D01*
X154772475Y-69049500D01*
X154627525Y-69049500D01*
X154498993Y-69083940D01*
X154487511Y-69087017D01*
X154361988Y-69159488D01*
X154361982Y-69159493D01*
X154259493Y-69261982D01*
X154259488Y-69261988D01*
X154187017Y-69387511D01*
X154187016Y-69387515D01*
X154149500Y-69527525D01*
X146684629Y-69527525D01*
X144479403Y-67322299D01*
X140088237Y-62931134D01*
X140054753Y-62869812D01*
X140057988Y-62805136D01*
X140073402Y-62757701D01*
X140100500Y-62586611D01*
X140100500Y-62413389D01*
X140073402Y-62242299D01*
X140019873Y-62077555D01*
X139941232Y-61923212D01*
X139839414Y-61783072D01*
X139716928Y-61660586D01*
X139576788Y-61558768D01*
X139422445Y-61480127D01*
X139257701Y-61426598D01*
X139257699Y-61426597D01*
X139257698Y-61426597D01*
X139126271Y-61405781D01*
X139086611Y-61399500D01*
X138913389Y-61399500D01*
X138873728Y-61405781D01*
X138742302Y-61426597D01*
X138577552Y-61480128D01*
X138423211Y-61558768D01*
X138343256Y-61616859D01*
X138283072Y-61660586D01*
X138283070Y-61660588D01*
X138283069Y-61660588D01*
X138160588Y-61783069D01*
X138160588Y-61783070D01*
X138160586Y-61783072D01*
X138116859Y-61843256D01*
X138058768Y-61923211D01*
X137980128Y-62077552D01*
X137926597Y-62242302D01*
X137899500Y-62413389D01*
X137899500Y-62586610D01*
X137926597Y-62757697D01*
X137926597Y-62757699D01*
X137926598Y-62757701D01*
X137980127Y-62922445D01*
X138058768Y-63076788D01*
X138160586Y-63216928D01*
X138283072Y-63339414D01*
X138423212Y-63441232D01*
X138577555Y-63519873D01*
X138742299Y-63573402D01*
X138913389Y-63600500D01*
X138913390Y-63600500D01*
X139086610Y-63600500D01*
X139086611Y-63600500D01*
X139257701Y-63573402D01*
X139335328Y-63548178D01*
X139405166Y-63546184D01*
X139461325Y-63578429D01*
X146313181Y-70430284D01*
X146346666Y-70491607D01*
X146349500Y-70517965D01*
X146349500Y-71433035D01*
X146329815Y-71500074D01*
X146277011Y-71545829D01*
X146207853Y-71555773D01*
X146144297Y-71526748D01*
X146137819Y-71520716D01*
X140088238Y-65471135D01*
X140054753Y-65409812D01*
X140057988Y-65345136D01*
X140073402Y-65297701D01*
X140100500Y-65126611D01*
X140100500Y-64953389D01*
X140073402Y-64782299D01*
X140019873Y-64617555D01*
X139941232Y-64463212D01*
X139839414Y-64323072D01*
X139716928Y-64200586D01*
X139576788Y-64098768D01*
X139422445Y-64020127D01*
X139257701Y-63966598D01*
X139257699Y-63966597D01*
X139257698Y-63966597D01*
X139126271Y-63945781D01*
X139086611Y-63939500D01*
X138913389Y-63939500D01*
X138873728Y-63945781D01*
X138742302Y-63966597D01*
X138577552Y-64020128D01*
X138423211Y-64098768D01*
X138343256Y-64156859D01*
X138283072Y-64200586D01*
X138283070Y-64200588D01*
X138283069Y-64200588D01*
X138160588Y-64323069D01*
X138160588Y-64323070D01*
X138160586Y-64323072D01*
X138116859Y-64383256D01*
X138058768Y-64463211D01*
X137980128Y-64617552D01*
X137926597Y-64782302D01*
X137899500Y-64953389D01*
X137899500Y-65126610D01*
X137926597Y-65297697D01*
X137926597Y-65297699D01*
X137926598Y-65297701D01*
X137980127Y-65462445D01*
X138058768Y-65616788D01*
X138160586Y-65756928D01*
X138283072Y-65879414D01*
X138423212Y-65981232D01*
X138577555Y-66059873D01*
X138742299Y-66113402D01*
X138913389Y-66140500D01*
X138913390Y-66140500D01*
X139086610Y-66140500D01*
X139086611Y-66140500D01*
X139257701Y-66113402D01*
X139335328Y-66088178D01*
X139405168Y-66086184D01*
X139461326Y-66118429D01*
X145712181Y-72369284D01*
X145745666Y-72430607D01*
X145748500Y-72456965D01*
X145748500Y-73372035D01*
X145728815Y-73439074D01*
X145676011Y-73484829D01*
X145606853Y-73494773D01*
X145543297Y-73465748D01*
X145536819Y-73459716D01*
X140088238Y-68011135D01*
X140054753Y-67949812D01*
X140057988Y-67885136D01*
X140073402Y-67837701D01*
X140100500Y-67666611D01*
X140100500Y-67493389D01*
X140073402Y-67322299D01*
X140019873Y-67157555D01*
X139941232Y-67003212D01*
X139839414Y-66863072D01*
X139716928Y-66740586D01*
X139576788Y-66638768D01*
X139422445Y-66560127D01*
X139257701Y-66506598D01*
X139257699Y-66506597D01*
X139257698Y-66506597D01*
X139126271Y-66485781D01*
X139086611Y-66479500D01*
X138913389Y-66479500D01*
X138873728Y-66485781D01*
X138742302Y-66506597D01*
X138742299Y-66506598D01*
X138582923Y-66558383D01*
X138577552Y-66560128D01*
X138423211Y-66638768D01*
X138343256Y-66696859D01*
X138283072Y-66740586D01*
X138283070Y-66740588D01*
X138283069Y-66740588D01*
X138160588Y-66863069D01*
X138160588Y-66863070D01*
X138160586Y-66863072D01*
X138116859Y-66923256D01*
X138058768Y-67003211D01*
X137980128Y-67157552D01*
X137926597Y-67322302D01*
X137899500Y-67493389D01*
X137899500Y-67666610D01*
X137926597Y-67837697D01*
X137926597Y-67837699D01*
X137926598Y-67837701D01*
X137980127Y-68002445D01*
X138058768Y-68156788D01*
X138160586Y-68296928D01*
X138283072Y-68419414D01*
X138423212Y-68521232D01*
X138577555Y-68599873D01*
X138742299Y-68653402D01*
X138913389Y-68680500D01*
X138913390Y-68680500D01*
X139086610Y-68680500D01*
X139086611Y-68680500D01*
X139257701Y-68653402D01*
X139335328Y-68628178D01*
X139405168Y-68626184D01*
X139461326Y-68658429D01*
X145111181Y-74308284D01*
X145144666Y-74369607D01*
X145147500Y-74395965D01*
X145147500Y-75311034D01*
X145127815Y-75378073D01*
X145075011Y-75423828D01*
X145005853Y-75433772D01*
X144942297Y-75404747D01*
X144935819Y-75398715D01*
X140088238Y-70551135D01*
X140054753Y-70489812D01*
X140057988Y-70425136D01*
X140073402Y-70377701D01*
X140100500Y-70206611D01*
X140100500Y-70033389D01*
X140073402Y-69862299D01*
X140019873Y-69697555D01*
X139941232Y-69543212D01*
X139839414Y-69403072D01*
X139716928Y-69280586D01*
X139576788Y-69178768D01*
X139422445Y-69100127D01*
X139257701Y-69046598D01*
X139257699Y-69046597D01*
X139257698Y-69046597D01*
X139126271Y-69025781D01*
X139086611Y-69019500D01*
X138913389Y-69019500D01*
X138873728Y-69025781D01*
X138742302Y-69046597D01*
X138577552Y-69100128D01*
X138423211Y-69178768D01*
X138343256Y-69236859D01*
X138283072Y-69280586D01*
X138283070Y-69280588D01*
X138283069Y-69280588D01*
X138160588Y-69403069D01*
X138160588Y-69403070D01*
X138160586Y-69403072D01*
X138149510Y-69418317D01*
X138058768Y-69543211D01*
X137980128Y-69697552D01*
X137926597Y-69862302D01*
X137899500Y-70033389D01*
X137899500Y-70206611D01*
X137900285Y-70211567D01*
X137926597Y-70377697D01*
X137926597Y-70377699D01*
X137926598Y-70377701D01*
X137980127Y-70542445D01*
X138058768Y-70696788D01*
X138160586Y-70836928D01*
X138283072Y-70959414D01*
X138423212Y-71061232D01*
X138577555Y-71139873D01*
X138742299Y-71193402D01*
X138913389Y-71220500D01*
X138913390Y-71220500D01*
X139086610Y-71220500D01*
X139086611Y-71220500D01*
X139257701Y-71193402D01*
X139335328Y-71168178D01*
X139405166Y-71166184D01*
X139461325Y-71198429D01*
X144411181Y-76148284D01*
X144444666Y-76209607D01*
X144447500Y-76235965D01*
X144447500Y-78507927D01*
X144427815Y-78574966D01*
X144375011Y-78620721D01*
X144305853Y-78630665D01*
X144261500Y-78615314D01*
X144212488Y-78587017D01*
X144212489Y-78587017D01*
X144167514Y-78574966D01*
X144072475Y-78549500D01*
X143927525Y-78549500D01*
X143832486Y-78574966D01*
X143787511Y-78587017D01*
X143661988Y-78659488D01*
X143661982Y-78659493D01*
X143559493Y-78761982D01*
X143559488Y-78761988D01*
X143487017Y-78887511D01*
X143487014Y-78887518D01*
X143463269Y-78976133D01*
X143431176Y-79031719D01*
X142939513Y-79523383D01*
X142939509Y-79523389D01*
X142880201Y-79626112D01*
X142880200Y-79626113D01*
X142880201Y-79626114D01*
X142871581Y-79658286D01*
X142858619Y-79706659D01*
X142822254Y-79766319D01*
X142759407Y-79796848D01*
X142690031Y-79788553D01*
X142651163Y-79762246D01*
X142457946Y-79569029D01*
X142452802Y-79561206D01*
X142447939Y-79557723D01*
X142439860Y-79541526D01*
X142430379Y-79527108D01*
X142427720Y-79520412D01*
X142402108Y-79424825D01*
X142362589Y-79356376D01*
X142359252Y-79347971D01*
X142357397Y-79327953D01*
X142350500Y-79302211D01*
X142350500Y-75480693D01*
X142350500Y-75480691D01*
X142319799Y-75366114D01*
X142273898Y-75286611D01*
X142260489Y-75263386D01*
X140088238Y-73091135D01*
X140054753Y-73029812D01*
X140057988Y-72965136D01*
X140073402Y-72917701D01*
X140100500Y-72746611D01*
X140100500Y-72573389D01*
X140073402Y-72402299D01*
X140019873Y-72237555D01*
X139941232Y-72083212D01*
X139839414Y-71943072D01*
X139716928Y-71820586D01*
X139576788Y-71718768D01*
X139422445Y-71640127D01*
X139257701Y-71586598D01*
X139257699Y-71586597D01*
X139257698Y-71586597D01*
X139126271Y-71565781D01*
X139086611Y-71559500D01*
X138913389Y-71559500D01*
X138873728Y-71565781D01*
X138742302Y-71586597D01*
X138577552Y-71640128D01*
X138423211Y-71718768D01*
X138367159Y-71759493D01*
X138283072Y-71820586D01*
X138283070Y-71820588D01*
X138283069Y-71820588D01*
X138160588Y-71943069D01*
X138160588Y-71943070D01*
X138160586Y-71943072D01*
X138128299Y-71987511D01*
X138058768Y-72083211D01*
X137980128Y-72237552D01*
X137926597Y-72402302D01*
X137899500Y-72573389D01*
X137899500Y-72746610D01*
X137926597Y-72917697D01*
X137926597Y-72917699D01*
X137926598Y-72917701D01*
X137980127Y-73082445D01*
X138058768Y-73236788D01*
X138160586Y-73376928D01*
X138283072Y-73499414D01*
X138423212Y-73601232D01*
X138577555Y-73679873D01*
X138742299Y-73733402D01*
X138913389Y-73760500D01*
X138913390Y-73760500D01*
X139086610Y-73760500D01*
X139086611Y-73760500D01*
X139257701Y-73733402D01*
X139335328Y-73708178D01*
X139405168Y-73706184D01*
X139461326Y-73738429D01*
X141413181Y-75690284D01*
X141446666Y-75751607D01*
X141449500Y-75777965D01*
X141449500Y-76693034D01*
X141429815Y-76760073D01*
X141377011Y-76805828D01*
X141307853Y-76815772D01*
X141244297Y-76786747D01*
X141237819Y-76780715D01*
X140088238Y-75631135D01*
X140054753Y-75569812D01*
X140057988Y-75505136D01*
X140073402Y-75457701D01*
X140100500Y-75286611D01*
X140100500Y-75113389D01*
X140073402Y-74942299D01*
X140019873Y-74777555D01*
X139941232Y-74623212D01*
X139839414Y-74483072D01*
X139716928Y-74360586D01*
X139576788Y-74258768D01*
X139422445Y-74180127D01*
X139257701Y-74126598D01*
X139257699Y-74126597D01*
X139257698Y-74126597D01*
X139126271Y-74105781D01*
X139086611Y-74099500D01*
X138913389Y-74099500D01*
X138873728Y-74105781D01*
X138742302Y-74126597D01*
X138577552Y-74180128D01*
X138423211Y-74258768D01*
X138355059Y-74308284D01*
X138283072Y-74360586D01*
X138283070Y-74360588D01*
X138283069Y-74360588D01*
X138160588Y-74483069D01*
X138160588Y-74483070D01*
X138160586Y-74483072D01*
X138116859Y-74543256D01*
X138058768Y-74623211D01*
X137980128Y-74777552D01*
X137926597Y-74942302D01*
X137899500Y-75113389D01*
X137899500Y-75286610D01*
X137926597Y-75457697D01*
X137926597Y-75457699D01*
X137926598Y-75457701D01*
X137980127Y-75622445D01*
X138058768Y-75776788D01*
X138160586Y-75916928D01*
X138283072Y-76039414D01*
X138423212Y-76141232D01*
X138577555Y-76219873D01*
X138742299Y-76273402D01*
X138913389Y-76300500D01*
X138913390Y-76300500D01*
X139086610Y-76300500D01*
X139086611Y-76300500D01*
X139257701Y-76273402D01*
X139335328Y-76248178D01*
X139405166Y-76246184D01*
X139461325Y-76278429D01*
X140713181Y-77530284D01*
X140746666Y-77591607D01*
X140749500Y-77617965D01*
X140749500Y-78474491D01*
X140742456Y-78498478D01*
X140739488Y-78523305D01*
X140732781Y-78531427D01*
X140729815Y-78541530D01*
X140710923Y-78557899D01*
X140695002Y-78577182D01*
X140684969Y-78580388D01*
X140677011Y-78587285D01*
X140652264Y-78590843D01*
X140628449Y-78598456D01*
X140612546Y-78596554D01*
X140607853Y-78597229D01*
X140593405Y-78594265D01*
X140513431Y-78572835D01*
X140457845Y-78540742D01*
X140088238Y-78171135D01*
X140054753Y-78109812D01*
X140057988Y-78045136D01*
X140073402Y-77997701D01*
X140100500Y-77826611D01*
X140100500Y-77653389D01*
X140073402Y-77482299D01*
X140019873Y-77317555D01*
X139941232Y-77163212D01*
X139839414Y-77023072D01*
X139716928Y-76900586D01*
X139576788Y-76798768D01*
X139422445Y-76720127D01*
X139257701Y-76666598D01*
X139257699Y-76666597D01*
X139257698Y-76666597D01*
X139126271Y-76645781D01*
X139086611Y-76639500D01*
X138913389Y-76639500D01*
X138873728Y-76645781D01*
X138742302Y-76666597D01*
X138742299Y-76666598D01*
X138582923Y-76718383D01*
X138577552Y-76720128D01*
X138423211Y-76798768D01*
X138343256Y-76856859D01*
X138283072Y-76900586D01*
X138283070Y-76900588D01*
X138283069Y-76900588D01*
X138160588Y-77023069D01*
X138160588Y-77023070D01*
X138160586Y-77023072D01*
X138122035Y-77076133D01*
X138058768Y-77163211D01*
X137980128Y-77317552D01*
X137926597Y-77482302D01*
X137899500Y-77653389D01*
X137899500Y-77826610D01*
X137926597Y-77997697D01*
X137926597Y-77997699D01*
X137926598Y-77997701D01*
X137980127Y-78162445D01*
X138058768Y-78316788D01*
X138160586Y-78456928D01*
X138283072Y-78579414D01*
X138423212Y-78681232D01*
X138577555Y-78759873D01*
X138742299Y-78813402D01*
X138913389Y-78840500D01*
X138913390Y-78840500D01*
X139086610Y-78840500D01*
X139086611Y-78840500D01*
X139257701Y-78813402D01*
X139335328Y-78788178D01*
X139405168Y-78786184D01*
X139461326Y-78818429D01*
X139820742Y-79177845D01*
X139828758Y-79191729D01*
X139838941Y-79200986D01*
X139852835Y-79233430D01*
X139863985Y-79275039D01*
X139862324Y-79344889D01*
X139823163Y-79402752D01*
X139758935Y-79430258D01*
X139690032Y-79418673D01*
X139671326Y-79407453D01*
X139576791Y-79338770D01*
X139576790Y-79338769D01*
X139576788Y-79338768D01*
X139422445Y-79260127D01*
X139257701Y-79206598D01*
X139257699Y-79206597D01*
X139257698Y-79206597D01*
X139126271Y-79185781D01*
X139086611Y-79179500D01*
X138913389Y-79179500D01*
X138873728Y-79185781D01*
X138742302Y-79206597D01*
X138577552Y-79260128D01*
X138423211Y-79338768D01*
X138379414Y-79370589D01*
X138283072Y-79440586D01*
X138283070Y-79440588D01*
X138283069Y-79440588D01*
X138160588Y-79563069D01*
X138160588Y-79563070D01*
X138160586Y-79563072D01*
X138124323Y-79612984D01*
X138058768Y-79703211D01*
X137980128Y-79857552D01*
X137926597Y-80022302D01*
X137899500Y-80193389D01*
X137899500Y-80366610D01*
X137926136Y-80534789D01*
X137926598Y-80537701D01*
X137980127Y-80702445D01*
X138058768Y-80856788D01*
X138160586Y-80996928D01*
X138283072Y-81119414D01*
X138423212Y-81221232D01*
X138577555Y-81299873D01*
X138742299Y-81353402D01*
X138913389Y-81380500D01*
X138913390Y-81380500D01*
X139086610Y-81380500D01*
X139086611Y-81380500D01*
X139257701Y-81353402D01*
X139335328Y-81328178D01*
X139405166Y-81326184D01*
X139461325Y-81358429D01*
X139813181Y-81710284D01*
X139827884Y-81737211D01*
X139844477Y-81763030D01*
X139845368Y-81769230D01*
X139846666Y-81771607D01*
X139849500Y-81797965D01*
X139849500Y-81833541D01*
X139829815Y-81900580D01*
X139777011Y-81946335D01*
X139707853Y-81956279D01*
X139652615Y-81933859D01*
X139576791Y-81878770D01*
X139576790Y-81878769D01*
X139576788Y-81878768D01*
X139422445Y-81800127D01*
X139257701Y-81746598D01*
X139257699Y-81746597D01*
X139257698Y-81746597D01*
X139126271Y-81725781D01*
X139086611Y-81719500D01*
X138913389Y-81719500D01*
X138873728Y-81725781D01*
X138742302Y-81746597D01*
X138577552Y-81800128D01*
X138423211Y-81878768D01*
X138405638Y-81891536D01*
X138283072Y-81980586D01*
X138283070Y-81980588D01*
X138283069Y-81980588D01*
X138160588Y-82103069D01*
X138160588Y-82103070D01*
X138160586Y-82103072D01*
X138116859Y-82163256D01*
X138058768Y-82243211D01*
X137980128Y-82397552D01*
X137926597Y-82562302D01*
X137910190Y-82665892D01*
X137899500Y-82733389D01*
X137899500Y-82906611D01*
X137903476Y-82931717D01*
X137919227Y-83031166D01*
X137926598Y-83077701D01*
X137980127Y-83242445D01*
X138058768Y-83396788D01*
X138160586Y-83536928D01*
X138283072Y-83659414D01*
X138423212Y-83761232D01*
X138577555Y-83839873D01*
X138742299Y-83893402D01*
X138913389Y-83920500D01*
X138913390Y-83920500D01*
X139086610Y-83920500D01*
X139086611Y-83920500D01*
X139257701Y-83893402D01*
X139422445Y-83839873D01*
X139576788Y-83761232D01*
X139652614Y-83706140D01*
X139718420Y-83682660D01*
X139786474Y-83698485D01*
X139835169Y-83748590D01*
X139849500Y-83806458D01*
X139849500Y-84373541D01*
X139829815Y-84440580D01*
X139777011Y-84486335D01*
X139707853Y-84496279D01*
X139652615Y-84473859D01*
X139576791Y-84418770D01*
X139576790Y-84418769D01*
X139576788Y-84418768D01*
X139422445Y-84340127D01*
X139257701Y-84286598D01*
X139257699Y-84286597D01*
X139257698Y-84286597D01*
X139102616Y-84262035D01*
X139086611Y-84259500D01*
X138913389Y-84259500D01*
X138897384Y-84262035D01*
X138742302Y-84286597D01*
X138577552Y-84340128D01*
X138423211Y-84418768D01*
X138393190Y-84440580D01*
X138283072Y-84520586D01*
X138283070Y-84520588D01*
X138283069Y-84520588D01*
X138160588Y-84643069D01*
X138160588Y-84643070D01*
X138160586Y-84643072D01*
X138142184Y-84668400D01*
X138058768Y-84783211D01*
X137980128Y-84937552D01*
X137926597Y-85102302D01*
X137899500Y-85273389D01*
X137899500Y-85446610D01*
X137926597Y-85617698D01*
X137926598Y-85617702D01*
X137946915Y-85680232D01*
X137948910Y-85750073D01*
X137916665Y-85806230D01*
X137493521Y-86229374D01*
X137493467Y-86229428D01*
X137388511Y-86334386D01*
X137383348Y-86343327D01*
X137383346Y-86343330D01*
X137329201Y-86437112D01*
X137329200Y-86437117D01*
X137298500Y-86551691D01*
X137298500Y-86905549D01*
X137278815Y-86972588D01*
X137226011Y-87018343D01*
X137156853Y-87028287D01*
X137101615Y-87005867D01*
X137036791Y-86958770D01*
X137036790Y-86958769D01*
X137036788Y-86958768D01*
X136882445Y-86880127D01*
X136717701Y-86826598D01*
X136717699Y-86826597D01*
X136717698Y-86826597D01*
X136586271Y-86805781D01*
X136546611Y-86799500D01*
X136373389Y-86799500D01*
X136333728Y-86805781D01*
X136202302Y-86826597D01*
X136037552Y-86880128D01*
X135883211Y-86958768D01*
X135827994Y-86998886D01*
X135743072Y-87060586D01*
X135743070Y-87060588D01*
X135743069Y-87060588D01*
X135620588Y-87183069D01*
X135620588Y-87183070D01*
X135620586Y-87183072D01*
X135581229Y-87237242D01*
X135518768Y-87323211D01*
X135440128Y-87477552D01*
X135386597Y-87642302D01*
X135380318Y-87681947D01*
X135359500Y-87813389D01*
X134500500Y-87813389D01*
X134500500Y-85273389D01*
X135359500Y-85273389D01*
X135359500Y-85446610D01*
X135386597Y-85617697D01*
X135386597Y-85617699D01*
X135386598Y-85617701D01*
X135440127Y-85782445D01*
X135518768Y-85936788D01*
X135620586Y-86076928D01*
X135743072Y-86199414D01*
X135883212Y-86301232D01*
X136037555Y-86379873D01*
X136202299Y-86433402D01*
X136373389Y-86460500D01*
X136373390Y-86460500D01*
X136546610Y-86460500D01*
X136546611Y-86460500D01*
X136717701Y-86433402D01*
X136882445Y-86379873D01*
X137036788Y-86301232D01*
X137176928Y-86199414D01*
X137299414Y-86076928D01*
X137401232Y-85936788D01*
X137479873Y-85782445D01*
X137533402Y-85617701D01*
X137560500Y-85446611D01*
X137560500Y-85273389D01*
X137533402Y-85102299D01*
X137479873Y-84937555D01*
X137401232Y-84783212D01*
X137299414Y-84643072D01*
X137176928Y-84520586D01*
X137036788Y-84418768D01*
X136882445Y-84340127D01*
X136717701Y-84286598D01*
X136717699Y-84286597D01*
X136717698Y-84286597D01*
X136562616Y-84262035D01*
X136546611Y-84259500D01*
X136373389Y-84259500D01*
X136357384Y-84262035D01*
X136202302Y-84286597D01*
X136037552Y-84340128D01*
X135883211Y-84418768D01*
X135853190Y-84440580D01*
X135743072Y-84520586D01*
X135743070Y-84520588D01*
X135743069Y-84520588D01*
X135620588Y-84643069D01*
X135620588Y-84643070D01*
X135620586Y-84643072D01*
X135602184Y-84668400D01*
X135518768Y-84783211D01*
X135440128Y-84937552D01*
X135386597Y-85102302D01*
X135359500Y-85273389D01*
X134500500Y-85273389D01*
X134500500Y-82733389D01*
X135359500Y-82733389D01*
X135359500Y-82906611D01*
X135363476Y-82931717D01*
X135379227Y-83031166D01*
X135386598Y-83077701D01*
X135440127Y-83242445D01*
X135518768Y-83396788D01*
X135620586Y-83536928D01*
X135743072Y-83659414D01*
X135883212Y-83761232D01*
X136037555Y-83839873D01*
X136202299Y-83893402D01*
X136373389Y-83920500D01*
X136373390Y-83920500D01*
X136546610Y-83920500D01*
X136546611Y-83920500D01*
X136717701Y-83893402D01*
X136882445Y-83839873D01*
X137036788Y-83761232D01*
X137176928Y-83659414D01*
X137299414Y-83536928D01*
X137401232Y-83396788D01*
X137479873Y-83242445D01*
X137533402Y-83077701D01*
X137560500Y-82906611D01*
X137560500Y-82733389D01*
X137533402Y-82562299D01*
X137479873Y-82397555D01*
X137401232Y-82243212D01*
X137299414Y-82103072D01*
X137176928Y-81980586D01*
X137036788Y-81878768D01*
X136882445Y-81800127D01*
X136717701Y-81746598D01*
X136717699Y-81746597D01*
X136717698Y-81746597D01*
X136586271Y-81725781D01*
X136546611Y-81719500D01*
X136373389Y-81719500D01*
X136333728Y-81725781D01*
X136202302Y-81746597D01*
X136037552Y-81800128D01*
X135883211Y-81878768D01*
X135865638Y-81891536D01*
X135743072Y-81980586D01*
X135743070Y-81980588D01*
X135743069Y-81980588D01*
X135620588Y-82103069D01*
X135620588Y-82103070D01*
X135620586Y-82103072D01*
X135576859Y-82163256D01*
X135518768Y-82243211D01*
X135440128Y-82397552D01*
X135386597Y-82562302D01*
X135370190Y-82665892D01*
X135359500Y-82733389D01*
X134500500Y-82733389D01*
X134500500Y-80193389D01*
X135359500Y-80193389D01*
X135359500Y-80366610D01*
X135386136Y-80534789D01*
X135386598Y-80537701D01*
X135440127Y-80702445D01*
X135518768Y-80856788D01*
X135620586Y-80996928D01*
X135743072Y-81119414D01*
X135883212Y-81221232D01*
X136037555Y-81299873D01*
X136202299Y-81353402D01*
X136373389Y-81380500D01*
X136373390Y-81380500D01*
X136546610Y-81380500D01*
X136546611Y-81380500D01*
X136717701Y-81353402D01*
X136882445Y-81299873D01*
X137036788Y-81221232D01*
X137176928Y-81119414D01*
X137299414Y-80996928D01*
X137401232Y-80856788D01*
X137479873Y-80702445D01*
X137533402Y-80537701D01*
X137560500Y-80366611D01*
X137560500Y-80193389D01*
X137533402Y-80022299D01*
X137479873Y-79857555D01*
X137401232Y-79703212D01*
X137299414Y-79563072D01*
X137176928Y-79440586D01*
X137036788Y-79338768D01*
X136882445Y-79260127D01*
X136717701Y-79206598D01*
X136717699Y-79206597D01*
X136717698Y-79206597D01*
X136586271Y-79185781D01*
X136546611Y-79179500D01*
X136373389Y-79179500D01*
X136333728Y-79185781D01*
X136202302Y-79206597D01*
X136037552Y-79260128D01*
X135883211Y-79338768D01*
X135839414Y-79370589D01*
X135743072Y-79440586D01*
X135743070Y-79440588D01*
X135743069Y-79440588D01*
X135620588Y-79563069D01*
X135620588Y-79563070D01*
X135620586Y-79563072D01*
X135584323Y-79612984D01*
X135518768Y-79703211D01*
X135440128Y-79857552D01*
X135386597Y-80022302D01*
X135359500Y-80193389D01*
X134500500Y-80193389D01*
X134500500Y-77653389D01*
X135359500Y-77653389D01*
X135359500Y-77826610D01*
X135386597Y-77997697D01*
X135386597Y-77997699D01*
X135386598Y-77997701D01*
X135440127Y-78162445D01*
X135518768Y-78316788D01*
X135620586Y-78456928D01*
X135743072Y-78579414D01*
X135883212Y-78681232D01*
X136037555Y-78759873D01*
X136202299Y-78813402D01*
X136373389Y-78840500D01*
X136373390Y-78840500D01*
X136546610Y-78840500D01*
X136546611Y-78840500D01*
X136717701Y-78813402D01*
X136882445Y-78759873D01*
X137036788Y-78681232D01*
X137176928Y-78579414D01*
X137299414Y-78456928D01*
X137401232Y-78316788D01*
X137479873Y-78162445D01*
X137533402Y-77997701D01*
X137560500Y-77826611D01*
X137560500Y-77653389D01*
X137533402Y-77482299D01*
X137479873Y-77317555D01*
X137401232Y-77163212D01*
X137299414Y-77023072D01*
X137176928Y-76900586D01*
X137036788Y-76798768D01*
X136882445Y-76720127D01*
X136717701Y-76666598D01*
X136717699Y-76666597D01*
X136717698Y-76666597D01*
X136586271Y-76645781D01*
X136546611Y-76639500D01*
X136373389Y-76639500D01*
X136333728Y-76645781D01*
X136202302Y-76666597D01*
X136202299Y-76666598D01*
X136042923Y-76718383D01*
X136037552Y-76720128D01*
X135883211Y-76798768D01*
X135803256Y-76856859D01*
X135743072Y-76900586D01*
X135743070Y-76900588D01*
X135743069Y-76900588D01*
X135620588Y-77023069D01*
X135620588Y-77023070D01*
X135620586Y-77023072D01*
X135582035Y-77076133D01*
X135518768Y-77163211D01*
X135440128Y-77317552D01*
X135386597Y-77482302D01*
X135359500Y-77653389D01*
X134500500Y-77653389D01*
X134500500Y-75113389D01*
X135359500Y-75113389D01*
X135359500Y-75286610D01*
X135386597Y-75457697D01*
X135386597Y-75457699D01*
X135386598Y-75457701D01*
X135440127Y-75622445D01*
X135518768Y-75776788D01*
X135620586Y-75916928D01*
X135743072Y-76039414D01*
X135883212Y-76141232D01*
X136037555Y-76219873D01*
X136202299Y-76273402D01*
X136373389Y-76300500D01*
X136373390Y-76300500D01*
X136546610Y-76300500D01*
X136546611Y-76300500D01*
X136717701Y-76273402D01*
X136882445Y-76219873D01*
X137036788Y-76141232D01*
X137176928Y-76039414D01*
X137299414Y-75916928D01*
X137401232Y-75776788D01*
X137479873Y-75622445D01*
X137533402Y-75457701D01*
X137560500Y-75286611D01*
X137560500Y-75113389D01*
X137533402Y-74942299D01*
X137479873Y-74777555D01*
X137401232Y-74623212D01*
X137299414Y-74483072D01*
X137176928Y-74360586D01*
X137036788Y-74258768D01*
X136882445Y-74180127D01*
X136717701Y-74126598D01*
X136717699Y-74126597D01*
X136717698Y-74126597D01*
X136586271Y-74105781D01*
X136546611Y-74099500D01*
X136373389Y-74099500D01*
X136333728Y-74105781D01*
X136202302Y-74126597D01*
X136037552Y-74180128D01*
X135883211Y-74258768D01*
X135815059Y-74308284D01*
X135743072Y-74360586D01*
X135743070Y-74360588D01*
X135743069Y-74360588D01*
X135620588Y-74483069D01*
X135620588Y-74483070D01*
X135620586Y-74483072D01*
X135576859Y-74543256D01*
X135518768Y-74623211D01*
X135440128Y-74777552D01*
X135386597Y-74942302D01*
X135359500Y-75113389D01*
X134500500Y-75113389D01*
X134500500Y-72573389D01*
X135359500Y-72573389D01*
X135359500Y-72746610D01*
X135386597Y-72917697D01*
X135386597Y-72917699D01*
X135386598Y-72917701D01*
X135440127Y-73082445D01*
X135518768Y-73236788D01*
X135620586Y-73376928D01*
X135743072Y-73499414D01*
X135883212Y-73601232D01*
X136037555Y-73679873D01*
X136202299Y-73733402D01*
X136373389Y-73760500D01*
X136373390Y-73760500D01*
X136546610Y-73760500D01*
X136546611Y-73760500D01*
X136717701Y-73733402D01*
X136882445Y-73679873D01*
X137036788Y-73601232D01*
X137176928Y-73499414D01*
X137299414Y-73376928D01*
X137401232Y-73236788D01*
X137479873Y-73082445D01*
X137533402Y-72917701D01*
X137560500Y-72746611D01*
X137560500Y-72573389D01*
X137533402Y-72402299D01*
X137479873Y-72237555D01*
X137401232Y-72083212D01*
X137299414Y-71943072D01*
X137176928Y-71820586D01*
X137036788Y-71718768D01*
X136882445Y-71640127D01*
X136717701Y-71586598D01*
X136717699Y-71586597D01*
X136717698Y-71586597D01*
X136586271Y-71565781D01*
X136546611Y-71559500D01*
X136373389Y-71559500D01*
X136333728Y-71565781D01*
X136202302Y-71586597D01*
X136037552Y-71640128D01*
X135883211Y-71718768D01*
X135827159Y-71759493D01*
X135743072Y-71820586D01*
X135743070Y-71820588D01*
X135743069Y-71820588D01*
X135620588Y-71943069D01*
X135620588Y-71943070D01*
X135620586Y-71943072D01*
X135588299Y-71987511D01*
X135518768Y-72083211D01*
X135440128Y-72237552D01*
X135386597Y-72402302D01*
X135359500Y-72573389D01*
X134500500Y-72573389D01*
X134500500Y-70033389D01*
X135359500Y-70033389D01*
X135359500Y-70206611D01*
X135360285Y-70211567D01*
X135386597Y-70377697D01*
X135386597Y-70377699D01*
X135386598Y-70377701D01*
X135440127Y-70542445D01*
X135518768Y-70696788D01*
X135620586Y-70836928D01*
X135743072Y-70959414D01*
X135883212Y-71061232D01*
X136037555Y-71139873D01*
X136202299Y-71193402D01*
X136373389Y-71220500D01*
X136373390Y-71220500D01*
X136546610Y-71220500D01*
X136546611Y-71220500D01*
X136717701Y-71193402D01*
X136882445Y-71139873D01*
X137036788Y-71061232D01*
X137176928Y-70959414D01*
X137299414Y-70836928D01*
X137401232Y-70696788D01*
X137479873Y-70542445D01*
X137533402Y-70377701D01*
X137560500Y-70206611D01*
X137560500Y-70033389D01*
X137533402Y-69862299D01*
X137479873Y-69697555D01*
X137401232Y-69543212D01*
X137299414Y-69403072D01*
X137176928Y-69280586D01*
X137036788Y-69178768D01*
X136882445Y-69100127D01*
X136717701Y-69046598D01*
X136717699Y-69046597D01*
X136717698Y-69046597D01*
X136586271Y-69025781D01*
X136546611Y-69019500D01*
X136373389Y-69019500D01*
X136333728Y-69025781D01*
X136202302Y-69046597D01*
X136037552Y-69100128D01*
X135883211Y-69178768D01*
X135803256Y-69236859D01*
X135743072Y-69280586D01*
X135743070Y-69280588D01*
X135743069Y-69280588D01*
X135620588Y-69403069D01*
X135620588Y-69403070D01*
X135620586Y-69403072D01*
X135609510Y-69418317D01*
X135518768Y-69543211D01*
X135440128Y-69697552D01*
X135386597Y-69862302D01*
X135359500Y-70033389D01*
X134500500Y-70033389D01*
X134500500Y-67493389D01*
X135359500Y-67493389D01*
X135359500Y-67666610D01*
X135386597Y-67837697D01*
X135386597Y-67837699D01*
X135386598Y-67837701D01*
X135440127Y-68002445D01*
X135518768Y-68156788D01*
X135620586Y-68296928D01*
X135743072Y-68419414D01*
X135883212Y-68521232D01*
X136037555Y-68599873D01*
X136202299Y-68653402D01*
X136373389Y-68680500D01*
X136373390Y-68680500D01*
X136546610Y-68680500D01*
X136546611Y-68680500D01*
X136717701Y-68653402D01*
X136882445Y-68599873D01*
X137036788Y-68521232D01*
X137176928Y-68419414D01*
X137299414Y-68296928D01*
X137401232Y-68156788D01*
X137479873Y-68002445D01*
X137533402Y-67837701D01*
X137560500Y-67666611D01*
X137560500Y-67493389D01*
X137533402Y-67322299D01*
X137479873Y-67157555D01*
X137401232Y-67003212D01*
X137299414Y-66863072D01*
X137176928Y-66740586D01*
X137036788Y-66638768D01*
X136882445Y-66560127D01*
X136717701Y-66506598D01*
X136717699Y-66506597D01*
X136717698Y-66506597D01*
X136586271Y-66485781D01*
X136546611Y-66479500D01*
X136373389Y-66479500D01*
X136333728Y-66485781D01*
X136202302Y-66506597D01*
X136202299Y-66506598D01*
X136042923Y-66558383D01*
X136037552Y-66560128D01*
X135883211Y-66638768D01*
X135803256Y-66696859D01*
X135743072Y-66740586D01*
X135743070Y-66740588D01*
X135743069Y-66740588D01*
X135620588Y-66863069D01*
X135620588Y-66863070D01*
X135620586Y-66863072D01*
X135576859Y-66923256D01*
X135518768Y-67003211D01*
X135440128Y-67157552D01*
X135386597Y-67322302D01*
X135359500Y-67493389D01*
X134500500Y-67493389D01*
X134500500Y-64953389D01*
X135359500Y-64953389D01*
X135359500Y-65126610D01*
X135386597Y-65297697D01*
X135386597Y-65297699D01*
X135386598Y-65297701D01*
X135440127Y-65462445D01*
X135518768Y-65616788D01*
X135620586Y-65756928D01*
X135743072Y-65879414D01*
X135883212Y-65981232D01*
X136037555Y-66059873D01*
X136202299Y-66113402D01*
X136373389Y-66140500D01*
X136373390Y-66140500D01*
X136546610Y-66140500D01*
X136546611Y-66140500D01*
X136717701Y-66113402D01*
X136882445Y-66059873D01*
X137036788Y-65981232D01*
X137176928Y-65879414D01*
X137299414Y-65756928D01*
X137401232Y-65616788D01*
X137479873Y-65462445D01*
X137533402Y-65297701D01*
X137560500Y-65126611D01*
X137560500Y-64953389D01*
X137533402Y-64782299D01*
X137479873Y-64617555D01*
X137401232Y-64463212D01*
X137299414Y-64323072D01*
X137176928Y-64200586D01*
X137036788Y-64098768D01*
X136882445Y-64020127D01*
X136717701Y-63966598D01*
X136717699Y-63966597D01*
X136717698Y-63966597D01*
X136586271Y-63945781D01*
X136546611Y-63939500D01*
X136373389Y-63939500D01*
X136333728Y-63945781D01*
X136202302Y-63966597D01*
X136037552Y-64020128D01*
X135883211Y-64098768D01*
X135803256Y-64156859D01*
X135743072Y-64200586D01*
X135743070Y-64200588D01*
X135743069Y-64200588D01*
X135620588Y-64323069D01*
X135620588Y-64323070D01*
X135620586Y-64323072D01*
X135576859Y-64383256D01*
X135518768Y-64463211D01*
X135440128Y-64617552D01*
X135386597Y-64782302D01*
X135359500Y-64953389D01*
X134500500Y-64953389D01*
X134500500Y-61625321D01*
X135359500Y-61625321D01*
X135359500Y-63374678D01*
X135374032Y-63447735D01*
X135374033Y-63447739D01*
X135374034Y-63447740D01*
X135429399Y-63530601D01*
X135500980Y-63578429D01*
X135512260Y-63585966D01*
X135512264Y-63585967D01*
X135585321Y-63600499D01*
X135585324Y-63600500D01*
X135585326Y-63600500D01*
X137334676Y-63600500D01*
X137334677Y-63600499D01*
X137407740Y-63585966D01*
X137490601Y-63530601D01*
X137545966Y-63447740D01*
X137560500Y-63374674D01*
X137560500Y-61625326D01*
X137560500Y-61625323D01*
X137560499Y-61625321D01*
X137545967Y-61552264D01*
X137545966Y-61552260D01*
X137490601Y-61469399D01*
X137407740Y-61414034D01*
X137407739Y-61414033D01*
X137407735Y-61414032D01*
X137334677Y-61399500D01*
X137334674Y-61399500D01*
X135585326Y-61399500D01*
X135585323Y-61399500D01*
X135512264Y-61414032D01*
X135512260Y-61414033D01*
X135429399Y-61469399D01*
X135374033Y-61552260D01*
X135374032Y-61552264D01*
X135359500Y-61625321D01*
X134500500Y-61625321D01*
X134500500Y-61124500D01*
X134520185Y-61057461D01*
X134572989Y-61011706D01*
X134624500Y-61000500D01*
X162875500Y-61000500D01*
X162942539Y-61020185D01*
G37*
%TD.AperFunction*%
%TD*%
M02*
