%TF.GenerationSoftware,KiCad,Pcbnew,9.0.4*%
%TF.CreationDate,2025-12-22T16:43:37-05:00*%
%TF.ProjectId,Mess-Breakout,4d657373-2d42-4726-9561-6b6f75742e6b,rev?*%
%TF.SameCoordinates,Original*%
%TF.FileFunction,Plated,1,2,PTH,Drill*%
%TF.FilePolarity,Positive*%
%FSLAX46Y46*%
G04 Gerber Fmt 4.6, Leading zero omitted, Abs format (unit mm)*
G04 Created by KiCad (PCBNEW 9.0.4) date 2025-12-22 16:43:37*
%MOMM*%
%LPD*%
G01*
G04 APERTURE LIST*
%TA.AperFunction,ViaDrill*%
%ADD10C,0.300000*%
%TD*%
%TA.AperFunction,ComponentDrill*%
%ADD11C,1.000000*%
%TD*%
G04 APERTURE END LIST*
D10*
X88400001Y-53150000D03*
X88900000Y-147950000D03*
X89399999Y-141300001D03*
X89399999Y-145300001D03*
X89400000Y-50611001D03*
X89400000Y-54550000D03*
X89400000Y-58550000D03*
X91400000Y-50611001D03*
X91400000Y-54550001D03*
X91400000Y-58550000D03*
X91400000Y-141300000D03*
X91400000Y-145200000D03*
X93400000Y-50611001D03*
X93400000Y-54650000D03*
X93400000Y-58550000D03*
X93400000Y-141299999D03*
X93400000Y-145200000D03*
X95300000Y-144350000D03*
X95399999Y-141300001D03*
X95400000Y-50611001D03*
X95400000Y-54550001D03*
X95400000Y-58550000D03*
X97500000Y-53750000D03*
X98000000Y-61150000D03*
X98000001Y-85850000D03*
X98300000Y-143150000D03*
X98423000Y-51750000D03*
X98700000Y-69450000D03*
X98700000Y-78050000D03*
X98700000Y-128950001D03*
X98900000Y-136250000D03*
X99900000Y-54550000D03*
X99900000Y-58550000D03*
X99900000Y-62650000D03*
X99900000Y-66650000D03*
X99900000Y-70550001D03*
X99900000Y-74550000D03*
X99900000Y-78450000D03*
X99900000Y-82450000D03*
X99900000Y-86250000D03*
X99900000Y-90150001D03*
X99900000Y-94150001D03*
X99900000Y-98050000D03*
X99900000Y-102050000D03*
X99900000Y-105950000D03*
X99900000Y-109850000D03*
X99900000Y-113750001D03*
X99900000Y-117650000D03*
X99900000Y-121550001D03*
X99900000Y-125550001D03*
X99900000Y-133350001D03*
X99900000Y-137250000D03*
X99900000Y-141250000D03*
X99900000Y-145150001D03*
X100400000Y-129450000D03*
X101249999Y-51499999D03*
X101700000Y-54550000D03*
X101700000Y-58450001D03*
X101700000Y-70550001D03*
X101700000Y-74550000D03*
X101700000Y-78450000D03*
X101700000Y-86250000D03*
X101700000Y-94150001D03*
X101700000Y-98050000D03*
X101700000Y-105950000D03*
X101700000Y-109850000D03*
X101700000Y-113750001D03*
X101700000Y-117650000D03*
X101700000Y-125550001D03*
X101700000Y-129450000D03*
X101700000Y-137250000D03*
X101700000Y-141250000D03*
X101700001Y-62550000D03*
X101700001Y-66550000D03*
X101700001Y-82450000D03*
X101700001Y-90150000D03*
X101700001Y-102050000D03*
X101700001Y-121550000D03*
X101700001Y-133350000D03*
X101700001Y-145150000D03*
X102700000Y-50950000D03*
X103700000Y-54550000D03*
X103700000Y-58550000D03*
X103700000Y-62550000D03*
X103700000Y-66550000D03*
X103700000Y-70550000D03*
X103700000Y-74650000D03*
X103700000Y-78450000D03*
X103700000Y-82450000D03*
X103700000Y-86350000D03*
X103700000Y-90250000D03*
X103700000Y-94250000D03*
X103700000Y-98150000D03*
X103700000Y-102150000D03*
X103700000Y-106050000D03*
X103700000Y-109950000D03*
X103700000Y-113850000D03*
X103700000Y-117750000D03*
X103700000Y-121650001D03*
X103700000Y-125650000D03*
X103700000Y-129550000D03*
X103700000Y-133450001D03*
X103700000Y-137350000D03*
X103700000Y-141350000D03*
X103700000Y-145250000D03*
X104700000Y-50950000D03*
X105100000Y-148349998D03*
X105700000Y-54550001D03*
X105700000Y-58550000D03*
X105700000Y-62550000D03*
X105700000Y-66550000D03*
X105700000Y-70550000D03*
X105700000Y-74550000D03*
X105700000Y-78450000D03*
X105700000Y-82450000D03*
X105700000Y-86350000D03*
X105700000Y-90250000D03*
X105700000Y-94250000D03*
X105700000Y-98150000D03*
X105700000Y-102150000D03*
X105700000Y-106050000D03*
X105700000Y-109950000D03*
X105700000Y-113850000D03*
X105700000Y-117750000D03*
X105700000Y-121650001D03*
X105700000Y-125650000D03*
X105700000Y-129550000D03*
X105700000Y-133450001D03*
X105700000Y-137350000D03*
X105700000Y-141350000D03*
X105700000Y-145150000D03*
X121400001Y-53150000D03*
X121900000Y-147950000D03*
X122399999Y-141300001D03*
X122399999Y-145300001D03*
X122400000Y-50611001D03*
X122400000Y-54550000D03*
X122400000Y-58550000D03*
X124400000Y-50611001D03*
X124400000Y-54550001D03*
X124400000Y-58550000D03*
X124400000Y-141300000D03*
X124400000Y-145200000D03*
X126400000Y-50611001D03*
X126400000Y-54650000D03*
X126400000Y-58550000D03*
X126400000Y-141299999D03*
X126400000Y-145200000D03*
X128300000Y-144350000D03*
X128399999Y-141300001D03*
X128400000Y-50611001D03*
X128400000Y-54550001D03*
X128400000Y-58550000D03*
X130500000Y-53750000D03*
X131000000Y-61150000D03*
X131000001Y-85850000D03*
X131300000Y-143150000D03*
X131423000Y-51750000D03*
X131700000Y-69450000D03*
X131700000Y-78050000D03*
X131700000Y-128950001D03*
X131900000Y-136250000D03*
X132900000Y-54550000D03*
X132900000Y-58550000D03*
X132900000Y-62650000D03*
X132900000Y-66650000D03*
X132900000Y-70550001D03*
X132900000Y-74550000D03*
X132900000Y-78450000D03*
X132900000Y-82450000D03*
X132900000Y-86250000D03*
X132900000Y-90150001D03*
X132900000Y-94150001D03*
X132900000Y-98050000D03*
X132900000Y-102050000D03*
X132900000Y-105950000D03*
X132900000Y-109850000D03*
X132900000Y-113750001D03*
X132900000Y-117650000D03*
X132900000Y-121550001D03*
X132900000Y-125550001D03*
X132900000Y-133350001D03*
X132900000Y-137250000D03*
X132900000Y-141250000D03*
X132900000Y-145150001D03*
X133400000Y-129450000D03*
X134249999Y-51499999D03*
X134700000Y-54550000D03*
X134700000Y-58450001D03*
X134700000Y-70550001D03*
X134700000Y-74550000D03*
X134700000Y-78450000D03*
X134700000Y-86250000D03*
X134700000Y-94150001D03*
X134700000Y-98050000D03*
X134700000Y-105950000D03*
X134700000Y-109850000D03*
X134700000Y-113750001D03*
X134700000Y-117650000D03*
X134700000Y-125550001D03*
X134700000Y-129450000D03*
X134700000Y-137250000D03*
X134700000Y-141250000D03*
X134700001Y-62550000D03*
X134700001Y-66550000D03*
X134700001Y-82450000D03*
X134700001Y-90150000D03*
X134700001Y-102050000D03*
X134700001Y-121550000D03*
X134700001Y-133350000D03*
X134700001Y-145150000D03*
X135700000Y-50950000D03*
X136700000Y-54550000D03*
X136700000Y-58550000D03*
X136700000Y-62550000D03*
X136700000Y-66550000D03*
X136700000Y-70550000D03*
X136700000Y-74650000D03*
X136700000Y-78450000D03*
X136700000Y-82450000D03*
X136700000Y-86350000D03*
X136700000Y-90250000D03*
X136700000Y-94250000D03*
X136700000Y-98150000D03*
X136700000Y-102150000D03*
X136700000Y-106050000D03*
X136700000Y-109950000D03*
X136700000Y-113850000D03*
X136700000Y-117750000D03*
X136700000Y-121650001D03*
X136700000Y-125650000D03*
X136700000Y-129550000D03*
X136700000Y-133450001D03*
X136700000Y-137350000D03*
X136700000Y-141350000D03*
X136700000Y-145250000D03*
X137700000Y-50950000D03*
X138100000Y-148349998D03*
X138700000Y-54550001D03*
X138700000Y-58550000D03*
X138700000Y-62550000D03*
X138700000Y-66550000D03*
X138700000Y-70550000D03*
X138700000Y-74550000D03*
X138700000Y-78450000D03*
X138700000Y-82450000D03*
X138700000Y-86350000D03*
X138700000Y-90250000D03*
X138700000Y-94250000D03*
X138700000Y-98150000D03*
X138700000Y-102150000D03*
X138700000Y-106050000D03*
X138700000Y-109950000D03*
X138700000Y-113850000D03*
X138700000Y-117750000D03*
X138700000Y-121650001D03*
X138700000Y-125650000D03*
X138700000Y-129550000D03*
X138700000Y-133450001D03*
X138700000Y-137350000D03*
X138700000Y-141350000D03*
X138700000Y-145150000D03*
X154400001Y-53150000D03*
X154900000Y-147950000D03*
X155399999Y-141300001D03*
X155399999Y-145300001D03*
X155400000Y-50611001D03*
X155400000Y-54550000D03*
X155400000Y-58550000D03*
X157400000Y-50611001D03*
X157400000Y-54550001D03*
X157400000Y-58550000D03*
X157400000Y-141300000D03*
X157400000Y-145200000D03*
X159400000Y-50611001D03*
X159400000Y-54650000D03*
X159400000Y-58550000D03*
X159400000Y-141299999D03*
X159400000Y-145200000D03*
X161300000Y-144350000D03*
X161399999Y-141300001D03*
X161400000Y-50611001D03*
X161400000Y-54550001D03*
X161400000Y-58550000D03*
X163500000Y-53750000D03*
X164000000Y-61150000D03*
X164000001Y-85850000D03*
X164300000Y-143150000D03*
X164423000Y-51750000D03*
X164700000Y-69450000D03*
X164700000Y-78050000D03*
X164700000Y-128950001D03*
X164900000Y-136250000D03*
X165900000Y-54550000D03*
X165900000Y-58550000D03*
X165900000Y-62650000D03*
X165900000Y-66650000D03*
X165900000Y-70550001D03*
X165900000Y-74550000D03*
X165900000Y-78450000D03*
X165900000Y-82450000D03*
X165900000Y-86250000D03*
X165900000Y-90150001D03*
X165900000Y-94150001D03*
X165900000Y-98050000D03*
X165900000Y-102050000D03*
X165900000Y-105950000D03*
X165900000Y-109850000D03*
X165900000Y-113750001D03*
X165900000Y-117650000D03*
X165900000Y-121550001D03*
X165900000Y-125550001D03*
X165900000Y-133350001D03*
X165900000Y-137250000D03*
X165900000Y-141250000D03*
X165900000Y-145150001D03*
X166400000Y-129450000D03*
X167249999Y-51499999D03*
X167700000Y-54550000D03*
X167700000Y-58450001D03*
X167700000Y-70550001D03*
X167700000Y-74550000D03*
X167700000Y-78450000D03*
X167700000Y-86250000D03*
X167700000Y-94150001D03*
X167700000Y-98050000D03*
X167700000Y-105950000D03*
X167700000Y-109850000D03*
X167700000Y-113750001D03*
X167700000Y-117650000D03*
X167700000Y-125550001D03*
X167700000Y-129450000D03*
X167700000Y-137250000D03*
X167700000Y-141250000D03*
X167700001Y-62550000D03*
X167700001Y-66550000D03*
X167700001Y-82450000D03*
X167700001Y-90150000D03*
X167700001Y-102050000D03*
X167700001Y-121550000D03*
X167700001Y-133350000D03*
X167700001Y-145150000D03*
X168700000Y-50950000D03*
X169700000Y-54550000D03*
X169700000Y-58550000D03*
X169700000Y-62550000D03*
X169700000Y-66550000D03*
X169700000Y-70550000D03*
X169700000Y-74650000D03*
X169700000Y-78450000D03*
X169700000Y-82450000D03*
X169700000Y-86350000D03*
X169700000Y-90250000D03*
X169700000Y-94250000D03*
X169700000Y-98150000D03*
X169700000Y-102150000D03*
X169700000Y-106050000D03*
X169700000Y-109950000D03*
X169700000Y-113850000D03*
X169700000Y-117750000D03*
X169700000Y-121650001D03*
X169700000Y-125650000D03*
X169700000Y-129550000D03*
X169700000Y-133450001D03*
X169700000Y-137350000D03*
X169700000Y-141350000D03*
X169700000Y-145250000D03*
X170700000Y-50950000D03*
X171100000Y-148349998D03*
X171700000Y-54550001D03*
X171700000Y-58550000D03*
X171700000Y-62550000D03*
X171700000Y-66550000D03*
X171700000Y-70550000D03*
X171700000Y-74550000D03*
X171700000Y-78450000D03*
X171700000Y-82450000D03*
X171700000Y-86350000D03*
X171700000Y-90250000D03*
X171700000Y-94250000D03*
X171700000Y-98150000D03*
X171700000Y-102150000D03*
X171700000Y-106050000D03*
X171700000Y-109950000D03*
X171700000Y-113850000D03*
X171700000Y-117750000D03*
X171700000Y-121650001D03*
X171700000Y-125650000D03*
X171700000Y-129550000D03*
X171700000Y-133450001D03*
X171700000Y-137350000D03*
X171700000Y-141350000D03*
X171700000Y-145150000D03*
D11*
%TO.C,J9*%
X77011823Y-52338589D03*
X77011823Y-54878589D03*
X77011823Y-57418589D03*
X77011823Y-59958589D03*
X77011823Y-62498589D03*
X77011823Y-65038589D03*
X77011823Y-67578589D03*
X77011823Y-70118589D03*
X77011823Y-72658589D03*
X77011823Y-75198589D03*
X77011823Y-77738589D03*
X77011823Y-80278589D03*
X77011823Y-82818589D03*
X77011823Y-85358589D03*
X77011823Y-87898589D03*
X77011823Y-90438589D03*
X77011823Y-92978589D03*
X77011823Y-95518589D03*
X77011823Y-98058589D03*
X77011823Y-100598589D03*
X77011823Y-103138589D03*
X77011823Y-105678589D03*
X77011823Y-108218589D03*
X77011823Y-110758589D03*
X77011823Y-113298589D03*
X77011823Y-115838589D03*
X77011823Y-118378589D03*
X77011823Y-120918589D03*
X77011823Y-123458589D03*
X77011823Y-125998589D03*
X77011823Y-128538589D03*
X77011823Y-131078589D03*
X77011823Y-133618589D03*
X77011823Y-136158589D03*
X77011823Y-138698589D03*
X77011823Y-141238589D03*
X77011823Y-143778589D03*
X77011823Y-146318589D03*
%TO.C,J8*%
X81011823Y-52338589D03*
X81011823Y-54878589D03*
X81011823Y-57418589D03*
X81011823Y-59958589D03*
X81011823Y-62498589D03*
X81011823Y-65038589D03*
X81011823Y-67578589D03*
X81011823Y-70118589D03*
X81011823Y-72658589D03*
X81011823Y-75198589D03*
X81011823Y-77738589D03*
X81011823Y-80278589D03*
X81011823Y-82818589D03*
X81011823Y-85358589D03*
X81011823Y-87898589D03*
X81011823Y-90438589D03*
X81011823Y-92978589D03*
X81011823Y-95518589D03*
X81011823Y-98058589D03*
X81011823Y-100598589D03*
X81011823Y-103138589D03*
X81011823Y-105678589D03*
X81011823Y-108218589D03*
X81011823Y-110758589D03*
X81011823Y-113298589D03*
X81011823Y-115838589D03*
X81011823Y-118378589D03*
X81011823Y-120918589D03*
X81011823Y-123458589D03*
X81011823Y-125998589D03*
X81011823Y-128538589D03*
X81011823Y-131078589D03*
X81011823Y-133618589D03*
X81011823Y-136158589D03*
X81011823Y-138698589D03*
X81011823Y-141238589D03*
X81011823Y-143778589D03*
X81011823Y-146318589D03*
X83551823Y-52338589D03*
X83551823Y-54878589D03*
X83551823Y-57418589D03*
X83551823Y-59958589D03*
X83551823Y-62498589D03*
X83551823Y-65038589D03*
X83551823Y-67578589D03*
X83551823Y-70118589D03*
X83551823Y-72658589D03*
X83551823Y-75198589D03*
X83551823Y-77738589D03*
X83551823Y-80278589D03*
X83551823Y-82818589D03*
X83551823Y-85358589D03*
X83551823Y-87898589D03*
X83551823Y-90438589D03*
X83551823Y-92978589D03*
X83551823Y-95518589D03*
X83551823Y-98058589D03*
X83551823Y-100598589D03*
X83551823Y-103138589D03*
X83551823Y-105678589D03*
X83551823Y-108218589D03*
X83551823Y-110758589D03*
X83551823Y-113298589D03*
X83551823Y-115838589D03*
X83551823Y-118378589D03*
X83551823Y-120918589D03*
X83551823Y-123458589D03*
X83551823Y-125998589D03*
X83551823Y-128538589D03*
X83551823Y-131078589D03*
X83551823Y-133618589D03*
X83551823Y-136158589D03*
X83551823Y-138698589D03*
X83551823Y-141238589D03*
X83551823Y-143778589D03*
X83551823Y-146318589D03*
%TO.C,J6*%
X86651823Y-52318589D03*
X86651823Y-54858589D03*
X86651823Y-57398589D03*
X86651823Y-59938589D03*
X86651823Y-62478589D03*
X86651823Y-65018589D03*
X86651823Y-67558589D03*
X86651823Y-70098589D03*
X86651823Y-72638589D03*
X86651823Y-75178589D03*
X86651823Y-77718589D03*
X86651823Y-80258589D03*
X86651823Y-82798589D03*
X86651823Y-85338589D03*
X86651823Y-87878589D03*
X86651823Y-90418589D03*
X86651823Y-92958589D03*
X86651823Y-95498589D03*
X86651823Y-98038589D03*
X86651823Y-100578589D03*
X86651823Y-103118589D03*
X86651823Y-105658589D03*
X86651823Y-108198589D03*
X86651823Y-110738589D03*
X86651823Y-113278589D03*
X86651823Y-115818589D03*
X86651823Y-118358589D03*
X86651823Y-120898589D03*
X86651823Y-123438589D03*
X86651823Y-125978589D03*
X86651823Y-128518589D03*
X86651823Y-131058589D03*
X86651823Y-133598589D03*
X86651823Y-136138589D03*
X86651823Y-138678589D03*
X86651823Y-141218589D03*
X86651823Y-143758589D03*
X86651823Y-146298589D03*
%TO.C,J7*%
X90000823Y-63930001D03*
X90000823Y-66470001D03*
X90000823Y-69010000D03*
X90000823Y-71550001D03*
X90000823Y-74090001D03*
X90000823Y-76630001D03*
X90000823Y-79170001D03*
X90000823Y-81710002D03*
X90000823Y-84250001D03*
X90000823Y-86790001D03*
X90000823Y-89330001D03*
X90000823Y-91870000D03*
X90000823Y-94410001D03*
X90000823Y-96950001D03*
X90000823Y-99490001D03*
X90000823Y-102030000D03*
X90000823Y-104570002D03*
X90000823Y-107110001D03*
X90000823Y-109650001D03*
X90000823Y-112190001D03*
X90000823Y-114730000D03*
X90000823Y-117270001D03*
X90000823Y-119810001D03*
X90000823Y-122350001D03*
X90000823Y-124890000D03*
X90000823Y-127430002D03*
X90000823Y-129970001D03*
X90000823Y-132510001D03*
X90000823Y-135050001D03*
X90000823Y-137590002D03*
%TO.C,J10*%
X92560823Y-63950000D03*
X92560823Y-66490000D03*
X92560823Y-69030000D03*
X92560823Y-71570000D03*
X92560823Y-74110000D03*
X92560823Y-76650000D03*
X92560823Y-79190000D03*
X92560823Y-81730000D03*
X92560823Y-84270000D03*
X92560823Y-86810000D03*
X92560823Y-89350000D03*
X92560823Y-91890000D03*
X92560823Y-94430000D03*
X92560823Y-96970000D03*
X92560823Y-99510000D03*
X92560823Y-102050000D03*
X92560823Y-104590000D03*
X92560823Y-107130000D03*
X92560823Y-109670000D03*
X92560823Y-112210000D03*
X92560823Y-114750000D03*
X92560823Y-117290000D03*
X92560823Y-119830000D03*
X92560823Y-122370000D03*
X92560823Y-124910000D03*
X92560823Y-127450000D03*
X92560823Y-129990000D03*
X92560823Y-132530000D03*
X92560823Y-135070000D03*
X92560823Y-137610000D03*
X95100823Y-63950000D03*
X95100823Y-66490000D03*
X95100823Y-69029999D03*
X95100823Y-71570000D03*
X95100823Y-74110000D03*
X95100823Y-76650000D03*
X95100823Y-79190000D03*
X95100823Y-81730001D03*
X95100823Y-84270000D03*
X95100823Y-86810000D03*
X95100823Y-89350000D03*
X95100823Y-91889999D03*
X95100823Y-94430000D03*
X95100823Y-96970000D03*
X95100823Y-99510000D03*
X95100823Y-102049999D03*
X95100823Y-104590001D03*
X95100823Y-107130000D03*
X95100823Y-109670000D03*
X95100823Y-112210000D03*
X95100823Y-114749999D03*
X95100823Y-117290000D03*
X95100823Y-119830000D03*
X95100823Y-122370000D03*
X95100823Y-124909999D03*
X95100823Y-127450001D03*
X95100823Y-129990000D03*
X95100823Y-132530000D03*
X95100823Y-135070000D03*
X95100823Y-137610001D03*
%TO.C,J14*%
X110011823Y-52338589D03*
X110011823Y-54878589D03*
X110011823Y-57418589D03*
X110011823Y-59958589D03*
X110011823Y-62498589D03*
X110011823Y-65038589D03*
X110011823Y-67578589D03*
X110011823Y-70118589D03*
X110011823Y-72658589D03*
X110011823Y-75198589D03*
X110011823Y-77738589D03*
X110011823Y-80278589D03*
X110011823Y-82818589D03*
X110011823Y-85358589D03*
X110011823Y-87898589D03*
X110011823Y-90438589D03*
X110011823Y-92978589D03*
X110011823Y-95518589D03*
X110011823Y-98058589D03*
X110011823Y-100598589D03*
X110011823Y-103138589D03*
X110011823Y-105678589D03*
X110011823Y-108218589D03*
X110011823Y-110758589D03*
X110011823Y-113298589D03*
X110011823Y-115838589D03*
X110011823Y-118378589D03*
X110011823Y-120918589D03*
X110011823Y-123458589D03*
X110011823Y-125998589D03*
X110011823Y-128538589D03*
X110011823Y-131078589D03*
X110011823Y-133618589D03*
X110011823Y-136158589D03*
X110011823Y-138698589D03*
X110011823Y-141238589D03*
X110011823Y-143778589D03*
X110011823Y-146318589D03*
%TO.C,J13*%
X114011823Y-52338589D03*
X114011823Y-54878589D03*
X114011823Y-57418589D03*
X114011823Y-59958589D03*
X114011823Y-62498589D03*
X114011823Y-65038589D03*
X114011823Y-67578589D03*
X114011823Y-70118589D03*
X114011823Y-72658589D03*
X114011823Y-75198589D03*
X114011823Y-77738589D03*
X114011823Y-80278589D03*
X114011823Y-82818589D03*
X114011823Y-85358589D03*
X114011823Y-87898589D03*
X114011823Y-90438589D03*
X114011823Y-92978589D03*
X114011823Y-95518589D03*
X114011823Y-98058589D03*
X114011823Y-100598589D03*
X114011823Y-103138589D03*
X114011823Y-105678589D03*
X114011823Y-108218589D03*
X114011823Y-110758589D03*
X114011823Y-113298589D03*
X114011823Y-115838589D03*
X114011823Y-118378589D03*
X114011823Y-120918589D03*
X114011823Y-123458589D03*
X114011823Y-125998589D03*
X114011823Y-128538589D03*
X114011823Y-131078589D03*
X114011823Y-133618589D03*
X114011823Y-136158589D03*
X114011823Y-138698589D03*
X114011823Y-141238589D03*
X114011823Y-143778589D03*
X114011823Y-146318589D03*
X116551823Y-52338589D03*
X116551823Y-54878589D03*
X116551823Y-57418589D03*
X116551823Y-59958589D03*
X116551823Y-62498589D03*
X116551823Y-65038589D03*
X116551823Y-67578589D03*
X116551823Y-70118589D03*
X116551823Y-72658589D03*
X116551823Y-75198589D03*
X116551823Y-77738589D03*
X116551823Y-80278589D03*
X116551823Y-82818589D03*
X116551823Y-85358589D03*
X116551823Y-87898589D03*
X116551823Y-90438589D03*
X116551823Y-92978589D03*
X116551823Y-95518589D03*
X116551823Y-98058589D03*
X116551823Y-100598589D03*
X116551823Y-103138589D03*
X116551823Y-105678589D03*
X116551823Y-108218589D03*
X116551823Y-110758589D03*
X116551823Y-113298589D03*
X116551823Y-115838589D03*
X116551823Y-118378589D03*
X116551823Y-120918589D03*
X116551823Y-123458589D03*
X116551823Y-125998589D03*
X116551823Y-128538589D03*
X116551823Y-131078589D03*
X116551823Y-133618589D03*
X116551823Y-136158589D03*
X116551823Y-138698589D03*
X116551823Y-141238589D03*
X116551823Y-143778589D03*
X116551823Y-146318589D03*
%TO.C,J11*%
X119651823Y-52318589D03*
X119651823Y-54858589D03*
X119651823Y-57398589D03*
X119651823Y-59938589D03*
X119651823Y-62478589D03*
X119651823Y-65018589D03*
X119651823Y-67558589D03*
X119651823Y-70098589D03*
X119651823Y-72638589D03*
X119651823Y-75178589D03*
X119651823Y-77718589D03*
X119651823Y-80258589D03*
X119651823Y-82798589D03*
X119651823Y-85338589D03*
X119651823Y-87878589D03*
X119651823Y-90418589D03*
X119651823Y-92958589D03*
X119651823Y-95498589D03*
X119651823Y-98038589D03*
X119651823Y-100578589D03*
X119651823Y-103118589D03*
X119651823Y-105658589D03*
X119651823Y-108198589D03*
X119651823Y-110738589D03*
X119651823Y-113278589D03*
X119651823Y-115818589D03*
X119651823Y-118358589D03*
X119651823Y-120898589D03*
X119651823Y-123438589D03*
X119651823Y-125978589D03*
X119651823Y-128518589D03*
X119651823Y-131058589D03*
X119651823Y-133598589D03*
X119651823Y-136138589D03*
X119651823Y-138678589D03*
X119651823Y-141218589D03*
X119651823Y-143758589D03*
X119651823Y-146298589D03*
%TO.C,J12*%
X123000823Y-63930001D03*
X123000823Y-66470001D03*
X123000823Y-69010000D03*
X123000823Y-71550001D03*
X123000823Y-74090001D03*
X123000823Y-76630001D03*
X123000823Y-79170001D03*
X123000823Y-81710002D03*
X123000823Y-84250001D03*
X123000823Y-86790001D03*
X123000823Y-89330001D03*
X123000823Y-91870000D03*
X123000823Y-94410001D03*
X123000823Y-96950001D03*
X123000823Y-99490001D03*
X123000823Y-102030000D03*
X123000823Y-104570002D03*
X123000823Y-107110001D03*
X123000823Y-109650001D03*
X123000823Y-112190001D03*
X123000823Y-114730000D03*
X123000823Y-117270001D03*
X123000823Y-119810001D03*
X123000823Y-122350001D03*
X123000823Y-124890000D03*
X123000823Y-127430002D03*
X123000823Y-129970001D03*
X123000823Y-132510001D03*
X123000823Y-135050001D03*
X123000823Y-137590002D03*
%TO.C,J15*%
X125560823Y-63950000D03*
X125560823Y-66490000D03*
X125560823Y-69030000D03*
X125560823Y-71570000D03*
X125560823Y-74110000D03*
X125560823Y-76650000D03*
X125560823Y-79190000D03*
X125560823Y-81730000D03*
X125560823Y-84270000D03*
X125560823Y-86810000D03*
X125560823Y-89350000D03*
X125560823Y-91890000D03*
X125560823Y-94430000D03*
X125560823Y-96970000D03*
X125560823Y-99510000D03*
X125560823Y-102050000D03*
X125560823Y-104590000D03*
X125560823Y-107130000D03*
X125560823Y-109670000D03*
X125560823Y-112210000D03*
X125560823Y-114750000D03*
X125560823Y-117290000D03*
X125560823Y-119830000D03*
X125560823Y-122370000D03*
X125560823Y-124910000D03*
X125560823Y-127450000D03*
X125560823Y-129990000D03*
X125560823Y-132530000D03*
X125560823Y-135070000D03*
X125560823Y-137610000D03*
X128100823Y-63950000D03*
X128100823Y-66490000D03*
X128100823Y-69029999D03*
X128100823Y-71570000D03*
X128100823Y-74110000D03*
X128100823Y-76650000D03*
X128100823Y-79190000D03*
X128100823Y-81730001D03*
X128100823Y-84270000D03*
X128100823Y-86810000D03*
X128100823Y-89350000D03*
X128100823Y-91889999D03*
X128100823Y-94430000D03*
X128100823Y-96970000D03*
X128100823Y-99510000D03*
X128100823Y-102049999D03*
X128100823Y-104590001D03*
X128100823Y-107130000D03*
X128100823Y-109670000D03*
X128100823Y-112210000D03*
X128100823Y-114749999D03*
X128100823Y-117290000D03*
X128100823Y-119830000D03*
X128100823Y-122370000D03*
X128100823Y-124909999D03*
X128100823Y-127450001D03*
X128100823Y-129990000D03*
X128100823Y-132530000D03*
X128100823Y-135070000D03*
X128100823Y-137610001D03*
%TO.C,J4*%
X143011823Y-52338589D03*
X143011823Y-54878589D03*
X143011823Y-57418589D03*
X143011823Y-59958589D03*
X143011823Y-62498589D03*
X143011823Y-65038589D03*
X143011823Y-67578589D03*
X143011823Y-70118589D03*
X143011823Y-72658589D03*
X143011823Y-75198589D03*
X143011823Y-77738589D03*
X143011823Y-80278589D03*
X143011823Y-82818589D03*
X143011823Y-85358589D03*
X143011823Y-87898589D03*
X143011823Y-90438589D03*
X143011823Y-92978589D03*
X143011823Y-95518589D03*
X143011823Y-98058589D03*
X143011823Y-100598589D03*
X143011823Y-103138589D03*
X143011823Y-105678589D03*
X143011823Y-108218589D03*
X143011823Y-110758589D03*
X143011823Y-113298589D03*
X143011823Y-115838589D03*
X143011823Y-118378589D03*
X143011823Y-120918589D03*
X143011823Y-123458589D03*
X143011823Y-125998589D03*
X143011823Y-128538589D03*
X143011823Y-131078589D03*
X143011823Y-133618589D03*
X143011823Y-136158589D03*
X143011823Y-138698589D03*
X143011823Y-141238589D03*
X143011823Y-143778589D03*
X143011823Y-146318589D03*
%TO.C,J3*%
X147011823Y-52338589D03*
X147011823Y-54878589D03*
X147011823Y-57418589D03*
X147011823Y-59958589D03*
X147011823Y-62498589D03*
X147011823Y-65038589D03*
X147011823Y-67578589D03*
X147011823Y-70118589D03*
X147011823Y-72658589D03*
X147011823Y-75198589D03*
X147011823Y-77738589D03*
X147011823Y-80278589D03*
X147011823Y-82818589D03*
X147011823Y-85358589D03*
X147011823Y-87898589D03*
X147011823Y-90438589D03*
X147011823Y-92978589D03*
X147011823Y-95518589D03*
X147011823Y-98058589D03*
X147011823Y-100598589D03*
X147011823Y-103138589D03*
X147011823Y-105678589D03*
X147011823Y-108218589D03*
X147011823Y-110758589D03*
X147011823Y-113298589D03*
X147011823Y-115838589D03*
X147011823Y-118378589D03*
X147011823Y-120918589D03*
X147011823Y-123458589D03*
X147011823Y-125998589D03*
X147011823Y-128538589D03*
X147011823Y-131078589D03*
X147011823Y-133618589D03*
X147011823Y-136158589D03*
X147011823Y-138698589D03*
X147011823Y-141238589D03*
X147011823Y-143778589D03*
X147011823Y-146318589D03*
X149551823Y-52338589D03*
X149551823Y-54878589D03*
X149551823Y-57418589D03*
X149551823Y-59958589D03*
X149551823Y-62498589D03*
X149551823Y-65038589D03*
X149551823Y-67578589D03*
X149551823Y-70118589D03*
X149551823Y-72658589D03*
X149551823Y-75198589D03*
X149551823Y-77738589D03*
X149551823Y-80278589D03*
X149551823Y-82818589D03*
X149551823Y-85358589D03*
X149551823Y-87898589D03*
X149551823Y-90438589D03*
X149551823Y-92978589D03*
X149551823Y-95518589D03*
X149551823Y-98058589D03*
X149551823Y-100598589D03*
X149551823Y-103138589D03*
X149551823Y-105678589D03*
X149551823Y-108218589D03*
X149551823Y-110758589D03*
X149551823Y-113298589D03*
X149551823Y-115838589D03*
X149551823Y-118378589D03*
X149551823Y-120918589D03*
X149551823Y-123458589D03*
X149551823Y-125998589D03*
X149551823Y-128538589D03*
X149551823Y-131078589D03*
X149551823Y-133618589D03*
X149551823Y-136158589D03*
X149551823Y-138698589D03*
X149551823Y-141238589D03*
X149551823Y-143778589D03*
X149551823Y-146318589D03*
%TO.C,J1*%
X152651823Y-52318589D03*
X152651823Y-54858589D03*
X152651823Y-57398589D03*
X152651823Y-59938589D03*
X152651823Y-62478589D03*
X152651823Y-65018589D03*
X152651823Y-67558589D03*
X152651823Y-70098589D03*
X152651823Y-72638589D03*
X152651823Y-75178589D03*
X152651823Y-77718589D03*
X152651823Y-80258589D03*
X152651823Y-82798589D03*
X152651823Y-85338589D03*
X152651823Y-87878589D03*
X152651823Y-90418589D03*
X152651823Y-92958589D03*
X152651823Y-95498589D03*
X152651823Y-98038589D03*
X152651823Y-100578589D03*
X152651823Y-103118589D03*
X152651823Y-105658589D03*
X152651823Y-108198589D03*
X152651823Y-110738589D03*
X152651823Y-113278589D03*
X152651823Y-115818589D03*
X152651823Y-118358589D03*
X152651823Y-120898589D03*
X152651823Y-123438589D03*
X152651823Y-125978589D03*
X152651823Y-128518589D03*
X152651823Y-131058589D03*
X152651823Y-133598589D03*
X152651823Y-136138589D03*
X152651823Y-138678589D03*
X152651823Y-141218589D03*
X152651823Y-143758589D03*
X152651823Y-146298589D03*
%TO.C,J2*%
X156000823Y-63930001D03*
X156000823Y-66470001D03*
X156000823Y-69010000D03*
X156000823Y-71550001D03*
X156000823Y-74090001D03*
X156000823Y-76630001D03*
X156000823Y-79170001D03*
X156000823Y-81710002D03*
X156000823Y-84250001D03*
X156000823Y-86790001D03*
X156000823Y-89330001D03*
X156000823Y-91870000D03*
X156000823Y-94410001D03*
X156000823Y-96950001D03*
X156000823Y-99490001D03*
X156000823Y-102030000D03*
X156000823Y-104570002D03*
X156000823Y-107110001D03*
X156000823Y-109650001D03*
X156000823Y-112190001D03*
X156000823Y-114730000D03*
X156000823Y-117270001D03*
X156000823Y-119810001D03*
X156000823Y-122350001D03*
X156000823Y-124890000D03*
X156000823Y-127430002D03*
X156000823Y-129970001D03*
X156000823Y-132510001D03*
X156000823Y-135050001D03*
X156000823Y-137590002D03*
%TO.C,J5*%
X158560823Y-63950000D03*
X158560823Y-66490000D03*
X158560823Y-69030000D03*
X158560823Y-71570000D03*
X158560823Y-74110000D03*
X158560823Y-76650000D03*
X158560823Y-79190000D03*
X158560823Y-81730000D03*
X158560823Y-84270000D03*
X158560823Y-86810000D03*
X158560823Y-89350000D03*
X158560823Y-91890000D03*
X158560823Y-94430000D03*
X158560823Y-96970000D03*
X158560823Y-99510000D03*
X158560823Y-102050000D03*
X158560823Y-104590000D03*
X158560823Y-107130000D03*
X158560823Y-109670000D03*
X158560823Y-112210000D03*
X158560823Y-114750000D03*
X158560823Y-117290000D03*
X158560823Y-119830000D03*
X158560823Y-122370000D03*
X158560823Y-124910000D03*
X158560823Y-127450000D03*
X158560823Y-129990000D03*
X158560823Y-132530000D03*
X158560823Y-135070000D03*
X158560823Y-137610000D03*
X161100823Y-63950000D03*
X161100823Y-66490000D03*
X161100823Y-69029999D03*
X161100823Y-71570000D03*
X161100823Y-74110000D03*
X161100823Y-76650000D03*
X161100823Y-79190000D03*
X161100823Y-81730001D03*
X161100823Y-84270000D03*
X161100823Y-86810000D03*
X161100823Y-89350000D03*
X161100823Y-91889999D03*
X161100823Y-94430000D03*
X161100823Y-96970000D03*
X161100823Y-99510000D03*
X161100823Y-102049999D03*
X161100823Y-104590001D03*
X161100823Y-107130000D03*
X161100823Y-109670000D03*
X161100823Y-112210000D03*
X161100823Y-114749999D03*
X161100823Y-117290000D03*
X161100823Y-119830000D03*
X161100823Y-122370000D03*
X161100823Y-124909999D03*
X161100823Y-127450001D03*
X161100823Y-129990000D03*
X161100823Y-132530000D03*
X161100823Y-135070000D03*
X161100823Y-137610001D03*
M02*
