%TF.GenerationSoftware,KiCad,Pcbnew,9.0.4*%
%TF.CreationDate,2025-12-22T16:43:35-05:00*%
%TF.ProjectId,Mess-Breakout,4d657373-2d42-4726-9561-6b6f75742e6b,rev?*%
%TF.SameCoordinates,Original*%
%TF.FileFunction,Copper,L1,Top*%
%TF.FilePolarity,Positive*%
%FSLAX46Y46*%
G04 Gerber Fmt 4.6, Leading zero omitted, Abs format (unit mm)*
G04 Created by KiCad (PCBNEW 9.0.4) date 2025-12-22 16:43:35*
%MOMM*%
%LPD*%
G01*
G04 APERTURE LIST*
G04 Aperture macros list*
%AMFreePoly0*
4,1,23,0.450000,-0.550000,-0.100000,-0.550000,-0.100000,-0.547433,-0.139158,-0.547433,-0.214805,-0.527164,-0.282628,-0.488006,-0.338006,-0.432628,-0.377164,-0.364805,-0.397433,-0.289158,-0.397433,-0.250000,-0.400000,-0.250000,-0.400000,0.250000,-0.397433,0.250000,-0.397433,0.289158,-0.377164,0.364805,-0.338006,0.432628,-0.282628,0.488006,-0.214805,0.527164,-0.139158,0.547433,-0.100000,0.547433,
-0.100000,0.550000,0.450000,0.550000,0.450000,-0.550000,0.450000,-0.550000,$1*%
%AMFreePoly1*
4,1,23,0.100000,0.547433,0.139158,0.547433,0.214805,0.527164,0.282628,0.488006,0.338006,0.432628,0.377164,0.364805,0.397433,0.289158,0.397433,0.250000,0.400000,0.250000,0.400000,-0.250000,0.397433,-0.250000,0.397433,-0.289158,0.377164,-0.364805,0.338006,-0.432628,0.282628,-0.488006,0.214805,-0.527164,0.139158,-0.547433,0.100000,-0.547433,0.100000,-0.550000,-0.450000,-0.550000,
-0.450000,0.550000,0.100000,0.550000,0.100000,0.547433,0.100000,0.547433,$1*%
G04 Aperture macros list end*
%TA.AperFunction,ComponentPad*%
%ADD10R,1.700000X1.700000*%
%TD*%
%TA.AperFunction,ComponentPad*%
%ADD11C,1.700000*%
%TD*%
%TA.AperFunction,SMDPad,CuDef*%
%ADD12R,7.100000X0.900000*%
%TD*%
%TA.AperFunction,SMDPad,CuDef*%
%ADD13R,1.100000X0.750000*%
%TD*%
%TA.AperFunction,SMDPad,CuDef*%
%ADD14FreePoly0,270.000000*%
%TD*%
%TA.AperFunction,SMDPad,CuDef*%
%ADD15FreePoly1,90.000000*%
%TD*%
%TA.AperFunction,ViaPad*%
%ADD16C,0.600000*%
%TD*%
%TA.AperFunction,Conductor*%
%ADD17C,0.500000*%
%TD*%
%TA.AperFunction,Conductor*%
%ADD18C,1.000000*%
%TD*%
%TA.AperFunction,Conductor*%
%ADD19C,0.800000*%
%TD*%
%TA.AperFunction,Conductor*%
%ADD20C,0.400000*%
%TD*%
G04 APERTURE END LIST*
D10*
%TO.P,J9,1,Pin_1*%
%TO.N,/B1*%
X77011823Y-52338589D03*
D11*
%TO.P,J9,2,Pin_2*%
%TO.N,/B2*%
X77011823Y-54878589D03*
%TO.P,J9,3,Pin_3*%
%TO.N,/B3*%
X77011823Y-57418589D03*
%TO.P,J9,4,Pin_4*%
%TO.N,/B4*%
X77011823Y-59958589D03*
%TO.P,J9,5,Pin_5*%
%TO.N,/B5*%
X77011823Y-62498589D03*
%TO.P,J9,6,Pin_6*%
%TO.N,P2*%
X77011823Y-65038589D03*
%TO.P,J9,7,Pin_7*%
%TO.N,P3*%
X77011823Y-67578589D03*
%TO.P,J9,8,Pin_8*%
%TO.N,P4*%
X77011823Y-70118589D03*
%TO.P,J9,9,Pin_9*%
%TO.N,P5*%
X77011823Y-72658589D03*
%TO.P,J9,10,Pin_10*%
%TO.N,P6*%
X77011823Y-75198589D03*
%TO.P,J9,11,Pin_11*%
%TO.N,P7*%
X77011823Y-77738589D03*
%TO.P,J9,12,Pin_12*%
%TO.N,P8*%
X77011823Y-80278589D03*
%TO.P,J9,13,Pin_13*%
%TO.N,P9*%
X77011823Y-82818589D03*
%TO.P,J9,14,Pin_14*%
%TO.N,P10*%
X77011823Y-85358589D03*
%TO.P,J9,15,Pin_15*%
%TO.N,P11*%
X77011823Y-87898589D03*
%TO.P,J9,16,Pin_16*%
%TO.N,P12*%
X77011823Y-90438589D03*
%TO.P,J9,17,Pin_17*%
%TO.N,P13*%
X77011823Y-92978589D03*
%TO.P,J9,18,Pin_18*%
%TO.N,P14*%
X77011823Y-95518589D03*
%TO.P,J9,19,Pin_19*%
%TO.N,P15*%
X77011823Y-98058589D03*
%TO.P,J9,20,Pin_20*%
%TO.N,P16*%
X77011823Y-100598589D03*
%TO.P,J9,21,Pin_21*%
%TO.N,P17*%
X77011823Y-103138589D03*
%TO.P,J9,22,Pin_22*%
%TO.N,P18*%
X77011823Y-105678589D03*
%TO.P,J9,23,Pin_23*%
%TO.N,P19*%
X77011823Y-108218589D03*
%TO.P,J9,24,Pin_24*%
%TO.N,P20*%
X77011823Y-110758589D03*
%TO.P,J9,25,Pin_25*%
%TO.N,P21*%
X77011823Y-113298589D03*
%TO.P,J9,26,Pin_26*%
%TO.N,P22*%
X77011823Y-115838589D03*
%TO.P,J9,27,Pin_27*%
%TO.N,P23*%
X77011823Y-118378589D03*
%TO.P,J9,28,Pin_28*%
%TO.N,P24*%
X77011823Y-120918589D03*
%TO.P,J9,29,Pin_29*%
%TO.N,P25*%
X77011823Y-123458589D03*
%TO.P,J9,30,Pin_30*%
%TO.N,P26*%
X77011823Y-125998589D03*
%TO.P,J9,31,Pin_31*%
%TO.N,P27*%
X77011823Y-128538589D03*
%TO.P,J9,32,Pin_32*%
%TO.N,P28*%
X77011823Y-131078589D03*
%TO.P,J9,33,Pin_33*%
%TO.N,P29*%
X77011823Y-133618589D03*
%TO.P,J9,34,Pin_34*%
%TO.N,P30*%
X77011823Y-136158589D03*
%TO.P,J9,35,Pin_35*%
%TO.N,/B35*%
X77011823Y-138698589D03*
%TO.P,J9,36,Pin_36*%
%TO.N,/B36*%
X77011823Y-141238589D03*
%TO.P,J9,37,Pin_37*%
%TO.N,/B37*%
X77011823Y-143778589D03*
%TO.P,J9,38,Pin_38*%
%TO.N,/B38*%
X77011823Y-146318589D03*
%TD*%
D12*
%TO.P,P43,0,C*%
%TO.N,P13*%
X102700000Y-88500000D03*
D13*
X99700000Y-88250000D03*
X101700000Y-88250000D03*
X103700000Y-88250000D03*
X105700000Y-88250000D03*
D14*
%TO.P,P43,1,B*%
%TO.N,/JA1*%
X99700000Y-87250001D03*
D15*
%TO.P,P43,2,B*%
%TO.N,/JA2*%
X101700000Y-87250000D03*
D14*
%TO.P,P43,3,B*%
%TO.N,/JA3*%
X103700001Y-87250000D03*
D15*
%TO.P,P43,4,B*%
%TO.N,/JA4*%
X105700000Y-87250000D03*
%TD*%
D12*
%TO.P,P35,0,C*%
%TO.N,P5*%
X102700000Y-56750001D03*
D13*
X99700000Y-56500001D03*
X101700000Y-56500001D03*
X103700000Y-56500001D03*
X105700000Y-56500001D03*
D14*
%TO.P,P35,1,B*%
%TO.N,/JA1*%
X99700000Y-55500002D03*
D15*
%TO.P,P35,2,B*%
%TO.N,/JA2*%
X101700000Y-55500001D03*
D14*
%TO.P,P35,3,B*%
%TO.N,/JA3*%
X103700001Y-55500001D03*
D15*
%TO.P,P35,4,B*%
%TO.N,/JA4*%
X105700000Y-55500001D03*
%TD*%
D10*
%TO.P,J10,1,Pin_1*%
%TO.N,P1*%
X95100823Y-63950000D03*
D11*
%TO.P,J10,2,Pin_2*%
X92560823Y-63950000D03*
%TO.P,J10,3,Pin_3*%
%TO.N,P2*%
X95100823Y-66490000D03*
%TO.P,J10,4,Pin_4*%
X92560823Y-66490000D03*
%TO.P,J10,5,Pin_5*%
%TO.N,P3*%
X95100823Y-69029999D03*
%TO.P,J10,6,Pin_6*%
X92560823Y-69030000D03*
%TO.P,J10,7,Pin_7*%
%TO.N,P4*%
X95100823Y-71570000D03*
%TO.P,J10,8,Pin_8*%
X92560823Y-71570000D03*
%TO.P,J10,9,Pin_9*%
%TO.N,P5*%
X95100823Y-74110000D03*
%TO.P,J10,10,Pin_10*%
X92560823Y-74110000D03*
%TO.P,J10,11,Pin_11*%
%TO.N,P6*%
X95100823Y-76650000D03*
%TO.P,J10,12,Pin_12*%
X92560823Y-76650000D03*
%TO.P,J10,13,Pin_13*%
%TO.N,P7*%
X95100823Y-79190000D03*
%TO.P,J10,14,Pin_14*%
X92560823Y-79190000D03*
%TO.P,J10,15,Pin_15*%
%TO.N,P8*%
X95100823Y-81730001D03*
%TO.P,J10,16,Pin_16*%
X92560823Y-81730000D03*
%TO.P,J10,17,Pin_17*%
%TO.N,P9*%
X95100823Y-84270000D03*
%TO.P,J10,18,Pin_18*%
X92560823Y-84270000D03*
%TO.P,J10,19,Pin_19*%
%TO.N,P10*%
X95100823Y-86810000D03*
%TO.P,J10,20,Pin_20*%
X92560823Y-86810000D03*
%TO.P,J10,21,Pin_21*%
%TO.N,P11*%
X95100823Y-89350000D03*
%TO.P,J10,22,Pin_22*%
X92560823Y-89350000D03*
%TO.P,J10,23,Pin_23*%
%TO.N,P12*%
X95100823Y-91889999D03*
%TO.P,J10,24,Pin_24*%
X92560823Y-91890000D03*
%TO.P,J10,25,Pin_25*%
%TO.N,P13*%
X95100823Y-94430000D03*
%TO.P,J10,26,Pin_26*%
X92560823Y-94430000D03*
%TO.P,J10,27,Pin_27*%
%TO.N,P14*%
X95100823Y-96970000D03*
%TO.P,J10,28,Pin_28*%
X92560823Y-96970000D03*
%TO.P,J10,29,Pin_29*%
%TO.N,P15*%
X95100823Y-99510000D03*
%TO.P,J10,30,Pin_30*%
X92560823Y-99510000D03*
%TO.P,J10,31,Pin_31*%
%TO.N,P16*%
X95100823Y-102049999D03*
%TO.P,J10,32,Pin_32*%
X92560823Y-102050000D03*
%TO.P,J10,33,Pin_33*%
%TO.N,P17*%
X95100823Y-104590001D03*
%TO.P,J10,34,Pin_34*%
X92560823Y-104590000D03*
%TO.P,J10,35,Pin_35*%
%TO.N,P18*%
X95100823Y-107130000D03*
%TO.P,J10,36,Pin_36*%
X92560823Y-107130000D03*
%TO.P,J10,37,Pin_37*%
%TO.N,P19*%
X95100823Y-109670000D03*
%TO.P,J10,38,Pin_38*%
X92560823Y-109670000D03*
%TO.P,J10,39,Pin_39*%
%TO.N,P20*%
X95100823Y-112210000D03*
%TO.P,J10,40,Pin_40*%
X92560823Y-112210000D03*
%TO.P,J10,41,Pin_41*%
%TO.N,P21*%
X95100823Y-114749999D03*
%TO.P,J10,42,Pin_42*%
X92560823Y-114750000D03*
%TO.P,J10,43,Pin_43*%
%TO.N,P22*%
X95100823Y-117290000D03*
%TO.P,J10,44,Pin_44*%
X92560823Y-117290000D03*
%TO.P,J10,45,Pin_45*%
%TO.N,P23*%
X95100823Y-119830000D03*
%TO.P,J10,46,Pin_46*%
X92560823Y-119830000D03*
%TO.P,J10,47,Pin_47*%
%TO.N,P24*%
X95100823Y-122370000D03*
%TO.P,J10,48,Pin_48*%
X92560823Y-122370000D03*
%TO.P,J10,49,Pin_49*%
%TO.N,P25*%
X95100823Y-124909999D03*
%TO.P,J10,50,Pin_50*%
X92560823Y-124910000D03*
%TO.P,J10,51,Pin_51*%
%TO.N,P26*%
X95100823Y-127450001D03*
%TO.P,J10,52,Pin_52*%
X92560823Y-127450000D03*
%TO.P,J10,53,Pin_53*%
%TO.N,P27*%
X95100823Y-129990000D03*
%TO.P,J10,54,Pin_54*%
X92560823Y-129990000D03*
%TO.P,J10,55,Pin_55*%
%TO.N,P28*%
X95100823Y-132530000D03*
%TO.P,J10,56,Pin_56*%
X92560823Y-132530000D03*
%TO.P,J10,57,Pin_57*%
%TO.N,P29*%
X95100823Y-135070000D03*
%TO.P,J10,58,Pin_58*%
X92560823Y-135070000D03*
%TO.P,J10,59,Pin_59*%
%TO.N,P30*%
X95100823Y-137610001D03*
%TO.P,J10,60,Pin_60*%
X92560823Y-137610000D03*
%TD*%
D12*
%TO.P,P51,0,C*%
%TO.N,P21*%
X102700000Y-119900000D03*
D13*
X99700000Y-119650000D03*
X101700000Y-119650000D03*
X103700000Y-119650000D03*
X105700000Y-119650000D03*
D14*
%TO.P,P51,1,B*%
%TO.N,/JA1*%
X99700000Y-118650001D03*
D15*
%TO.P,P51,2,B*%
%TO.N,/JA2*%
X101700000Y-118650000D03*
D14*
%TO.P,P51,3,B*%
%TO.N,/JA3*%
X103700001Y-118650000D03*
D15*
%TO.P,P51,4,B*%
%TO.N,/JA4*%
X105700000Y-118650000D03*
%TD*%
D12*
%TO.P,P32,0,C*%
%TO.N,P2*%
X92400000Y-56585000D03*
D14*
%TO.P,P32,1,B*%
%TO.N,/JA1*%
X89400000Y-55535000D03*
D15*
%TO.P,P32,2,B*%
%TO.N,/JA2*%
X91400000Y-55534999D03*
D14*
%TO.P,P32,3,B*%
%TO.N,/JA3*%
X93400000Y-55535000D03*
D15*
%TO.P,P32,4,B*%
%TO.N,/JA4*%
X95400000Y-55535000D03*
%TD*%
D12*
%TO.P,P36,0,C*%
%TO.N,P6*%
X102700000Y-60750000D03*
D13*
X99700000Y-60500000D03*
X101700000Y-60500000D03*
X103700000Y-60500000D03*
X105700000Y-60500000D03*
D14*
%TO.P,P36,1,B*%
%TO.N,/JA1*%
X99700000Y-59500001D03*
D15*
%TO.P,P36,2,B*%
%TO.N,/JA2*%
X101700000Y-59500000D03*
D14*
%TO.P,P36,3,B*%
%TO.N,/JA3*%
X103700001Y-59500000D03*
D15*
%TO.P,P36,4,B*%
%TO.N,/JA4*%
X105700000Y-59500000D03*
%TD*%
D12*
%TO.P,P42,0,C*%
%TO.N,P12*%
X102700000Y-84650000D03*
D13*
X99700000Y-84400000D03*
X101700000Y-84400000D03*
X103700000Y-84400000D03*
X105700000Y-84400000D03*
D14*
%TO.P,P42,1,B*%
%TO.N,/JA1*%
X99700000Y-83400001D03*
D15*
%TO.P,P42,2,B*%
%TO.N,/JA2*%
X101700000Y-83400000D03*
D14*
%TO.P,P42,3,B*%
%TO.N,/JA3*%
X103700001Y-83400000D03*
D15*
%TO.P,P42,4,B*%
%TO.N,/JA4*%
X105700000Y-83400000D03*
%TD*%
D12*
%TO.P,P47,0,C*%
%TO.N,P17*%
X102700000Y-104300000D03*
D13*
X99700000Y-104050000D03*
X101700000Y-104050000D03*
X103700000Y-104050000D03*
X105700000Y-104050000D03*
D14*
%TO.P,P47,1,B*%
%TO.N,/JA1*%
X99700000Y-103050001D03*
D15*
%TO.P,P47,2,B*%
%TO.N,/JA2*%
X101700000Y-103050000D03*
D14*
%TO.P,P47,3,B*%
%TO.N,/JA3*%
X103700001Y-103050000D03*
D15*
%TO.P,P47,4,B*%
%TO.N,/JA4*%
X105700000Y-103050000D03*
%TD*%
D12*
%TO.P,P52,0,C*%
%TO.N,P22*%
X102700000Y-123800000D03*
D13*
X99700000Y-123550000D03*
X101700000Y-123550000D03*
X103700000Y-123550000D03*
X105700000Y-123550000D03*
D14*
%TO.P,P52,1,B*%
%TO.N,/JA1*%
X99700000Y-122550001D03*
D15*
%TO.P,P52,2,B*%
%TO.N,/JA2*%
X101700000Y-122550000D03*
D14*
%TO.P,P52,3,B*%
%TO.N,/JA3*%
X103700001Y-122550000D03*
D15*
%TO.P,P52,4,B*%
%TO.N,/JA4*%
X105700000Y-122550000D03*
%TD*%
D12*
%TO.P,P59,0,C*%
%TO.N,P29*%
X92400000Y-143200000D03*
D14*
%TO.P,P59,1,B*%
%TO.N,/JA1*%
X89400000Y-142150000D03*
D15*
%TO.P,P59,2,B*%
%TO.N,/JA2*%
X91400000Y-142149999D03*
D14*
%TO.P,P59,3,B*%
%TO.N,/JA3*%
X93400000Y-142150000D03*
D15*
%TO.P,P59,4,B*%
%TO.N,/JA4*%
X95400000Y-142150000D03*
%TD*%
D12*
%TO.P,P58,0,C*%
%TO.N,P28*%
X102700000Y-147400000D03*
D13*
X99700000Y-147150000D03*
X101700000Y-147150000D03*
X103700000Y-147150000D03*
X105700000Y-147150000D03*
D14*
%TO.P,P58,1,B*%
%TO.N,/JA1*%
X99700000Y-146150001D03*
D15*
%TO.P,P58,2,B*%
%TO.N,/JA2*%
X101700000Y-146150000D03*
D14*
%TO.P,P58,3,B*%
%TO.N,/JA3*%
X103700001Y-146150000D03*
D15*
%TO.P,P58,4,B*%
%TO.N,/JA4*%
X105700000Y-146150000D03*
%TD*%
D12*
%TO.P,P57,0,C*%
%TO.N,P27*%
X102700000Y-143500000D03*
D13*
X99700000Y-143250000D03*
X101700000Y-143250000D03*
X103700000Y-143250000D03*
X105700000Y-143250000D03*
D14*
%TO.P,P57,1,B*%
%TO.N,/JA1*%
X99700000Y-142250001D03*
D15*
%TO.P,P57,2,B*%
%TO.N,/JA2*%
X101700000Y-142250000D03*
D14*
%TO.P,P57,3,B*%
%TO.N,/JA3*%
X103700001Y-142250000D03*
D15*
%TO.P,P57,4,B*%
%TO.N,/JA4*%
X105700000Y-142250000D03*
%TD*%
D10*
%TO.P,J8,1,Pin_1*%
%TO.N,/B1*%
X83551823Y-52338589D03*
D11*
%TO.P,J8,2,Pin_2*%
X81011823Y-52338589D03*
%TO.P,J8,3,Pin_3*%
%TO.N,/B2*%
X83551823Y-54878589D03*
%TO.P,J8,4,Pin_4*%
X81011823Y-54878589D03*
%TO.P,J8,5,Pin_5*%
%TO.N,/B3*%
X83551823Y-57418589D03*
%TO.P,J8,6,Pin_6*%
X81011823Y-57418589D03*
%TO.P,J8,7,Pin_7*%
%TO.N,/B4*%
X83551823Y-59958589D03*
%TO.P,J8,8,Pin_8*%
X81011823Y-59958589D03*
%TO.P,J8,9,Pin_9*%
%TO.N,/B5*%
X83551823Y-62498589D03*
%TO.P,J8,10,Pin_10*%
X81011823Y-62498589D03*
%TO.P,J8,11,Pin_11*%
%TO.N,P2*%
X83551823Y-65038589D03*
%TO.P,J8,12,Pin_12*%
X81011823Y-65038589D03*
%TO.P,J8,13,Pin_13*%
%TO.N,P3*%
X83551823Y-67578589D03*
%TO.P,J8,14,Pin_14*%
X81011823Y-67578589D03*
%TO.P,J8,15,Pin_15*%
%TO.N,P4*%
X83551823Y-70118589D03*
%TO.P,J8,16,Pin_16*%
X81011823Y-70118589D03*
%TO.P,J8,17,Pin_17*%
%TO.N,P5*%
X83551823Y-72658589D03*
%TO.P,J8,18,Pin_18*%
X81011823Y-72658589D03*
%TO.P,J8,19,Pin_19*%
%TO.N,P6*%
X83551823Y-75198589D03*
%TO.P,J8,20,Pin_20*%
X81011823Y-75198589D03*
%TO.P,J8,21,Pin_21*%
%TO.N,P7*%
X83551823Y-77738589D03*
%TO.P,J8,22,Pin_22*%
X81011823Y-77738589D03*
%TO.P,J8,23,Pin_23*%
%TO.N,P8*%
X83551823Y-80278589D03*
%TO.P,J8,24,Pin_24*%
X81011823Y-80278589D03*
%TO.P,J8,25,Pin_25*%
%TO.N,P9*%
X83551823Y-82818589D03*
%TO.P,J8,26,Pin_26*%
X81011823Y-82818589D03*
%TO.P,J8,27,Pin_27*%
%TO.N,P10*%
X83551823Y-85358589D03*
%TO.P,J8,28,Pin_28*%
X81011823Y-85358589D03*
%TO.P,J8,29,Pin_29*%
%TO.N,P11*%
X83551823Y-87898589D03*
%TO.P,J8,30,Pin_30*%
X81011823Y-87898589D03*
%TO.P,J8,31,Pin_31*%
%TO.N,P12*%
X83551823Y-90438589D03*
%TO.P,J8,32,Pin_32*%
X81011823Y-90438589D03*
%TO.P,J8,33,Pin_33*%
%TO.N,P13*%
X83551823Y-92978589D03*
%TO.P,J8,34,Pin_34*%
X81011823Y-92978589D03*
%TO.P,J8,35,Pin_35*%
%TO.N,P14*%
X83551823Y-95518589D03*
%TO.P,J8,36,Pin_36*%
X81011823Y-95518589D03*
%TO.P,J8,37,Pin_37*%
%TO.N,P15*%
X83551823Y-98058589D03*
%TO.P,J8,38,Pin_38*%
X81011823Y-98058589D03*
%TO.P,J8,39,Pin_39*%
%TO.N,P16*%
X83551823Y-100598589D03*
%TO.P,J8,40,Pin_40*%
X81011823Y-100598589D03*
%TO.P,J8,41,Pin_41*%
%TO.N,P17*%
X83551823Y-103138589D03*
%TO.P,J8,42,Pin_42*%
X81011823Y-103138589D03*
%TO.P,J8,43,Pin_43*%
%TO.N,P18*%
X83551823Y-105678589D03*
%TO.P,J8,44,Pin_44*%
X81011823Y-105678589D03*
%TO.P,J8,45,Pin_45*%
%TO.N,P19*%
X83551823Y-108218589D03*
%TO.P,J8,46,Pin_46*%
X81011823Y-108218589D03*
%TO.P,J8,47,Pin_47*%
%TO.N,P20*%
X83551823Y-110758589D03*
%TO.P,J8,48,Pin_48*%
X81011823Y-110758589D03*
%TO.P,J8,49,Pin_49*%
%TO.N,P21*%
X83551823Y-113298589D03*
%TO.P,J8,50,Pin_50*%
X81011823Y-113298589D03*
%TO.P,J8,51,Pin_51*%
%TO.N,P22*%
X83551823Y-115838589D03*
%TO.P,J8,52,Pin_52*%
X81011823Y-115838589D03*
%TO.P,J8,53,Pin_53*%
%TO.N,P23*%
X83551823Y-118378589D03*
%TO.P,J8,54,Pin_54*%
X81011823Y-118378589D03*
%TO.P,J8,55,Pin_55*%
%TO.N,P24*%
X83551823Y-120918589D03*
%TO.P,J8,56,Pin_56*%
X81011823Y-120918589D03*
%TO.P,J8,57,Pin_57*%
%TO.N,P25*%
X83551823Y-123458589D03*
%TO.P,J8,58,Pin_58*%
X81011823Y-123458589D03*
%TO.P,J8,59,Pin_59*%
%TO.N,P26*%
X83551823Y-125998589D03*
%TO.P,J8,60,Pin_60*%
X81011823Y-125998589D03*
%TO.P,J8,61,Pin_61*%
%TO.N,P27*%
X83551823Y-128538589D03*
%TO.P,J8,62,Pin_62*%
X81011823Y-128538589D03*
%TO.P,J8,63,Pin_63*%
%TO.N,P28*%
X83551823Y-131078589D03*
%TO.P,J8,64,Pin_64*%
X81011823Y-131078589D03*
%TO.P,J8,65,Pin_65*%
%TO.N,P29*%
X83551823Y-133618589D03*
%TO.P,J8,66,Pin_66*%
X81011823Y-133618589D03*
%TO.P,J8,67,Pin_67*%
%TO.N,P30*%
X83551823Y-136158589D03*
%TO.P,J8,68,Pin_68*%
X81011823Y-136158589D03*
%TO.P,J8,69,Pin_69*%
%TO.N,/B35*%
X83551823Y-138698589D03*
%TO.P,J8,70,Pin_70*%
X81011823Y-138698589D03*
%TO.P,J8,71,Pin_71*%
%TO.N,/B36*%
X83551823Y-141238589D03*
%TO.P,J8,72,Pin_72*%
X81011823Y-141238589D03*
%TO.P,J8,73,Pin_73*%
%TO.N,/B37*%
X83551823Y-143778589D03*
%TO.P,J8,74,Pin_74*%
X81011823Y-143778589D03*
%TO.P,J8,75,Pin_75*%
%TO.N,/B38*%
X83551823Y-146318589D03*
%TO.P,J8,76,Pin_76*%
X81011823Y-146318589D03*
%TD*%
D12*
%TO.P,P49,0,C*%
%TO.N,P19*%
X102700000Y-112100000D03*
D13*
X99700000Y-111850000D03*
X101700000Y-111850000D03*
X103700000Y-111850000D03*
X105700000Y-111850000D03*
D14*
%TO.P,P49,1,B*%
%TO.N,/JA1*%
X99700000Y-110850001D03*
D15*
%TO.P,P49,2,B*%
%TO.N,/JA2*%
X101700000Y-110850000D03*
D14*
%TO.P,P49,3,B*%
%TO.N,/JA3*%
X103700001Y-110850000D03*
D15*
%TO.P,P49,4,B*%
%TO.N,/JA4*%
X105700000Y-110850000D03*
%TD*%
D12*
%TO.P,P50,0,C*%
%TO.N,P20*%
X102700001Y-116000000D03*
D13*
X99700001Y-115750000D03*
X101700001Y-115750000D03*
X103700001Y-115750000D03*
X105700001Y-115750000D03*
D14*
%TO.P,P50,1,B*%
%TO.N,/JA1*%
X99700001Y-114750001D03*
D15*
%TO.P,P50,2,B*%
%TO.N,/JA2*%
X101700001Y-114750000D03*
D14*
%TO.P,P50,3,B*%
%TO.N,/JA3*%
X103700002Y-114750000D03*
D15*
%TO.P,P50,4,B*%
%TO.N,/JA4*%
X105700001Y-114750000D03*
%TD*%
D12*
%TO.P,P40,0,C*%
%TO.N,P10*%
X102700000Y-76750000D03*
D13*
X99700000Y-76500000D03*
X101700000Y-76500000D03*
X103700000Y-76500000D03*
X105700000Y-76500000D03*
D14*
%TO.P,P40,1,B*%
%TO.N,/JA1*%
X99700000Y-75500001D03*
D15*
%TO.P,P40,2,B*%
%TO.N,/JA2*%
X101700000Y-75500000D03*
D14*
%TO.P,P40,3,B*%
%TO.N,/JA3*%
X103700001Y-75500000D03*
D15*
%TO.P,P40,4,B*%
%TO.N,/JA4*%
X105700000Y-75500000D03*
%TD*%
D12*
%TO.P,P39,0,C*%
%TO.N,P9*%
X102700000Y-72750000D03*
D13*
X99700000Y-72500000D03*
X101700000Y-72500000D03*
X103700000Y-72500000D03*
X105700000Y-72500000D03*
D14*
%TO.P,P39,1,B*%
%TO.N,/JA1*%
X99700000Y-71500001D03*
D15*
%TO.P,P39,2,B*%
%TO.N,/JA2*%
X101700000Y-71500000D03*
D14*
%TO.P,P39,3,B*%
%TO.N,/JA3*%
X103700001Y-71500000D03*
D15*
%TO.P,P39,4,B*%
%TO.N,/JA4*%
X105700000Y-71500000D03*
%TD*%
D12*
%TO.P,P38,0,C*%
%TO.N,P8*%
X102700000Y-68750000D03*
D13*
X99700000Y-68500000D03*
X101700000Y-68500000D03*
X103700000Y-68500000D03*
X105700000Y-68500000D03*
D14*
%TO.P,P38,1,B*%
%TO.N,/JA1*%
X99700000Y-67500001D03*
D15*
%TO.P,P38,2,B*%
%TO.N,/JA2*%
X101700000Y-67500000D03*
D14*
%TO.P,P38,3,B*%
%TO.N,/JA3*%
X103700001Y-67500000D03*
D15*
%TO.P,P38,4,B*%
%TO.N,/JA4*%
X105700000Y-67500000D03*
%TD*%
D12*
%TO.P,P46,0,C*%
%TO.N,P16*%
X102700000Y-100300000D03*
D13*
X99700000Y-100050000D03*
X101700000Y-100050000D03*
X103700000Y-100050000D03*
X105700000Y-100050000D03*
D14*
%TO.P,P46,1,B*%
%TO.N,/JA1*%
X99700000Y-99050001D03*
D15*
%TO.P,P46,2,B*%
%TO.N,/JA2*%
X101700000Y-99050000D03*
D14*
%TO.P,P46,3,B*%
%TO.N,/JA3*%
X103700001Y-99050000D03*
D15*
%TO.P,P46,4,B*%
%TO.N,/JA4*%
X105700000Y-99050000D03*
%TD*%
D12*
%TO.P,P54,0,C*%
%TO.N,P24*%
X102700000Y-131700000D03*
D13*
X99700000Y-131450000D03*
X101700000Y-131450000D03*
X103700000Y-131450000D03*
X105700000Y-131450000D03*
D14*
%TO.P,P54,1,B*%
%TO.N,/JA1*%
X99700000Y-130450001D03*
D15*
%TO.P,P54,2,B*%
%TO.N,/JA2*%
X101700000Y-130450000D03*
D14*
%TO.P,P54,3,B*%
%TO.N,/JA3*%
X103700001Y-130450000D03*
D15*
%TO.P,P54,4,B*%
%TO.N,/JA4*%
X105700000Y-130450000D03*
%TD*%
D12*
%TO.P,P60,0,C*%
%TO.N,P30*%
X92424999Y-147100001D03*
D14*
%TO.P,P60,1,B*%
%TO.N,/JA1*%
X89424999Y-146050001D03*
D15*
%TO.P,P60,2,B*%
%TO.N,/JA2*%
X91424999Y-146050000D03*
D14*
%TO.P,P60,3,B*%
%TO.N,/JA3*%
X93424999Y-146050001D03*
D15*
%TO.P,P60,4,B*%
%TO.N,/JA4*%
X95424999Y-146050001D03*
%TD*%
D12*
%TO.P,P48,0,C*%
%TO.N,P18*%
X102700001Y-108200000D03*
D13*
X99700001Y-107950000D03*
X101700001Y-107950000D03*
X103700001Y-107950000D03*
X105700001Y-107950000D03*
D14*
%TO.P,P48,1,B*%
%TO.N,/JA1*%
X99700001Y-106950001D03*
D15*
%TO.P,P48,2,B*%
%TO.N,/JA2*%
X101700001Y-106950000D03*
D14*
%TO.P,P48,3,B*%
%TO.N,/JA3*%
X103700002Y-106950000D03*
D15*
%TO.P,P48,4,B*%
%TO.N,/JA4*%
X105700001Y-106950000D03*
%TD*%
D10*
%TO.P,J7,1,Pin_1*%
%TO.N,P1*%
X90000823Y-63930001D03*
D11*
%TO.P,J7,2,Pin_2*%
%TO.N,P2*%
X90000823Y-66470001D03*
%TO.P,J7,3,Pin_3*%
%TO.N,P3*%
X90000823Y-69010000D03*
%TO.P,J7,4,Pin_4*%
%TO.N,P4*%
X90000823Y-71550001D03*
%TO.P,J7,5,Pin_5*%
%TO.N,P5*%
X90000823Y-74090001D03*
%TO.P,J7,6,Pin_6*%
%TO.N,P6*%
X90000823Y-76630001D03*
%TO.P,J7,7,Pin_7*%
%TO.N,P7*%
X90000823Y-79170001D03*
%TO.P,J7,8,Pin_8*%
%TO.N,P8*%
X90000823Y-81710002D03*
%TO.P,J7,9,Pin_9*%
%TO.N,P9*%
X90000823Y-84250001D03*
%TO.P,J7,10,Pin_10*%
%TO.N,P10*%
X90000823Y-86790001D03*
%TO.P,J7,11,Pin_11*%
%TO.N,P11*%
X90000823Y-89330001D03*
%TO.P,J7,12,Pin_12*%
%TO.N,P12*%
X90000823Y-91870000D03*
%TO.P,J7,13,Pin_13*%
%TO.N,P13*%
X90000823Y-94410001D03*
%TO.P,J7,14,Pin_14*%
%TO.N,P14*%
X90000823Y-96950001D03*
%TO.P,J7,15,Pin_15*%
%TO.N,P15*%
X90000823Y-99490001D03*
%TO.P,J7,16,Pin_16*%
%TO.N,P16*%
X90000823Y-102030000D03*
%TO.P,J7,17,Pin_17*%
%TO.N,P17*%
X90000823Y-104570002D03*
%TO.P,J7,18,Pin_18*%
%TO.N,P18*%
X90000823Y-107110001D03*
%TO.P,J7,19,Pin_19*%
%TO.N,P19*%
X90000823Y-109650001D03*
%TO.P,J7,20,Pin_20*%
%TO.N,P20*%
X90000823Y-112190001D03*
%TO.P,J7,21,Pin_21*%
%TO.N,P21*%
X90000823Y-114730000D03*
%TO.P,J7,22,Pin_22*%
%TO.N,P22*%
X90000823Y-117270001D03*
%TO.P,J7,23,Pin_23*%
%TO.N,P23*%
X90000823Y-119810001D03*
%TO.P,J7,24,Pin_24*%
%TO.N,P24*%
X90000823Y-122350001D03*
%TO.P,J7,25,Pin_25*%
%TO.N,P25*%
X90000823Y-124890000D03*
%TO.P,J7,26,Pin_26*%
%TO.N,P26*%
X90000823Y-127430002D03*
%TO.P,J7,27,Pin_27*%
%TO.N,P27*%
X90000823Y-129970001D03*
%TO.P,J7,28,Pin_28*%
%TO.N,P28*%
X90000823Y-132510001D03*
%TO.P,J7,29,Pin_29*%
%TO.N,P29*%
X90000823Y-135050001D03*
%TO.P,J7,30,Pin_30*%
%TO.N,P30*%
X90000823Y-137590002D03*
%TD*%
D10*
%TO.P,J6,1,Pin_1*%
%TO.N,/B1*%
X86651823Y-52318589D03*
D11*
%TO.P,J6,2,Pin_2*%
%TO.N,/B2*%
X86651823Y-54858589D03*
%TO.P,J6,3,Pin_3*%
%TO.N,/B3*%
X86651823Y-57398589D03*
%TO.P,J6,4,Pin_4*%
%TO.N,/B4*%
X86651823Y-59938589D03*
%TO.P,J6,5,Pin_5*%
%TO.N,/B5*%
X86651823Y-62478589D03*
%TO.P,J6,6,Pin_6*%
%TO.N,P2*%
X86651823Y-65018589D03*
%TO.P,J6,7,Pin_7*%
%TO.N,P3*%
X86651823Y-67558589D03*
%TO.P,J6,8,Pin_8*%
%TO.N,P4*%
X86651823Y-70098589D03*
%TO.P,J6,9,Pin_9*%
%TO.N,P5*%
X86651823Y-72638589D03*
%TO.P,J6,10,Pin_10*%
%TO.N,P6*%
X86651823Y-75178589D03*
%TO.P,J6,11,Pin_11*%
%TO.N,P7*%
X86651823Y-77718589D03*
%TO.P,J6,12,Pin_12*%
%TO.N,P8*%
X86651823Y-80258589D03*
%TO.P,J6,13,Pin_13*%
%TO.N,P9*%
X86651823Y-82798589D03*
%TO.P,J6,14,Pin_14*%
%TO.N,P10*%
X86651823Y-85338589D03*
%TO.P,J6,15,Pin_15*%
%TO.N,P11*%
X86651823Y-87878589D03*
%TO.P,J6,16,Pin_16*%
%TO.N,P12*%
X86651823Y-90418589D03*
%TO.P,J6,17,Pin_17*%
%TO.N,P13*%
X86651823Y-92958589D03*
%TO.P,J6,18,Pin_18*%
%TO.N,P14*%
X86651823Y-95498589D03*
%TO.P,J6,19,Pin_19*%
%TO.N,P15*%
X86651823Y-98038589D03*
%TO.P,J6,20,Pin_20*%
%TO.N,P16*%
X86651823Y-100578589D03*
%TO.P,J6,21,Pin_21*%
%TO.N,P17*%
X86651823Y-103118589D03*
%TO.P,J6,22,Pin_22*%
%TO.N,P18*%
X86651823Y-105658589D03*
%TO.P,J6,23,Pin_23*%
%TO.N,P19*%
X86651823Y-108198589D03*
%TO.P,J6,24,Pin_24*%
%TO.N,P20*%
X86651823Y-110738589D03*
%TO.P,J6,25,Pin_25*%
%TO.N,P21*%
X86651823Y-113278589D03*
%TO.P,J6,26,Pin_26*%
%TO.N,P22*%
X86651823Y-115818589D03*
%TO.P,J6,27,Pin_27*%
%TO.N,P23*%
X86651823Y-118358589D03*
%TO.P,J6,28,Pin_28*%
%TO.N,P24*%
X86651823Y-120898589D03*
%TO.P,J6,29,Pin_29*%
%TO.N,P25*%
X86651823Y-123438589D03*
%TO.P,J6,30,Pin_30*%
%TO.N,P26*%
X86651823Y-125978589D03*
%TO.P,J6,31,Pin_31*%
%TO.N,P27*%
X86651823Y-128518589D03*
%TO.P,J6,32,Pin_32*%
%TO.N,P28*%
X86651823Y-131058589D03*
%TO.P,J6,33,Pin_33*%
%TO.N,P29*%
X86651823Y-133598589D03*
%TO.P,J6,34,Pin_34*%
%TO.N,P30*%
X86651823Y-136138589D03*
%TO.P,J6,35,Pin_35*%
%TO.N,/B35*%
X86651823Y-138678589D03*
%TO.P,J6,36,Pin_36*%
%TO.N,/B36*%
X86651823Y-141218589D03*
%TO.P,J6,37,Pin_37*%
%TO.N,/B37*%
X86651823Y-143758589D03*
%TO.P,J6,38,Pin_38*%
%TO.N,/B38*%
X86651823Y-146298589D03*
%TD*%
D12*
%TO.P,P44,0,C*%
%TO.N,P14*%
X102700001Y-92400000D03*
D13*
X99700001Y-92150000D03*
X101700001Y-92150000D03*
X103700001Y-92150000D03*
X105700001Y-92150000D03*
D14*
%TO.P,P44,1,B*%
%TO.N,/JA1*%
X99700001Y-91150001D03*
D15*
%TO.P,P44,2,B*%
%TO.N,/JA2*%
X101700001Y-91150000D03*
D14*
%TO.P,P44,3,B*%
%TO.N,/JA3*%
X103700002Y-91150000D03*
D15*
%TO.P,P44,4,B*%
%TO.N,/JA4*%
X105700001Y-91150000D03*
%TD*%
D12*
%TO.P,P55,0,C*%
%TO.N,P25*%
X102700000Y-135600000D03*
D13*
X99700000Y-135350000D03*
X101700000Y-135350000D03*
X103700000Y-135350000D03*
X105700000Y-135350000D03*
D14*
%TO.P,P55,1,B*%
%TO.N,/JA1*%
X99700000Y-134350001D03*
D15*
%TO.P,P55,2,B*%
%TO.N,/JA2*%
X101700000Y-134350000D03*
D14*
%TO.P,P55,3,B*%
%TO.N,/JA3*%
X103700001Y-134350000D03*
D15*
%TO.P,P55,4,B*%
%TO.N,/JA4*%
X105700000Y-134350000D03*
%TD*%
D12*
%TO.P,P56,0,C*%
%TO.N,P26*%
X102700000Y-139500000D03*
D13*
X99700000Y-139250000D03*
X101700000Y-139250000D03*
X103700000Y-139250000D03*
X105700000Y-139250000D03*
D14*
%TO.P,P56,1,B*%
%TO.N,/JA1*%
X99700000Y-138250001D03*
D15*
%TO.P,P56,2,B*%
%TO.N,/JA2*%
X101700000Y-138250000D03*
D14*
%TO.P,P56,3,B*%
%TO.N,/JA3*%
X103700001Y-138250000D03*
D15*
%TO.P,P56,4,B*%
%TO.N,/JA4*%
X105700000Y-138250000D03*
%TD*%
D12*
%TO.P,P31,0,C*%
%TO.N,P1*%
X92400000Y-60550000D03*
D14*
%TO.P,P31,1,B*%
%TO.N,/JA1*%
X89400000Y-59500000D03*
D15*
%TO.P,P31,2,B*%
%TO.N,/JA2*%
X91400000Y-59499999D03*
D14*
%TO.P,P31,3,B*%
%TO.N,/JA3*%
X93400000Y-59500000D03*
D15*
%TO.P,P31,4,B*%
%TO.N,/JA4*%
X95400000Y-59500000D03*
%TD*%
D12*
%TO.P,P41,0,C*%
%TO.N,P11*%
X102700000Y-80650001D03*
D13*
X99700000Y-80400001D03*
X101700000Y-80400001D03*
X103700000Y-80400001D03*
X105700000Y-80400001D03*
D14*
%TO.P,P41,1,B*%
%TO.N,/JA1*%
X99700000Y-79400002D03*
D15*
%TO.P,P41,2,B*%
%TO.N,/JA2*%
X101700000Y-79400001D03*
D14*
%TO.P,P41,3,B*%
%TO.N,/JA3*%
X103700001Y-79400001D03*
D15*
%TO.P,P41,4,B*%
%TO.N,/JA4*%
X105700000Y-79400001D03*
%TD*%
D12*
%TO.P,P34,0,C*%
%TO.N,P4*%
X102700001Y-52750000D03*
D13*
X99700001Y-52500000D03*
X101700001Y-52500000D03*
X103700001Y-52500000D03*
X105700001Y-52500000D03*
D14*
%TO.P,P34,1,B*%
%TO.N,/JA1*%
X99700001Y-51500001D03*
D15*
%TO.P,P34,2,B*%
%TO.N,/JA2*%
X101700001Y-51500000D03*
D14*
%TO.P,P34,3,B*%
%TO.N,/JA3*%
X103700002Y-51500000D03*
D15*
%TO.P,P34,4,B*%
%TO.N,/JA4*%
X105700001Y-51500000D03*
%TD*%
D12*
%TO.P,P53,0,C*%
%TO.N,P23*%
X102700001Y-127800000D03*
D13*
X99700001Y-127550000D03*
X101700001Y-127550000D03*
X103700001Y-127550000D03*
X105700001Y-127550000D03*
D14*
%TO.P,P53,1,B*%
%TO.N,/JA1*%
X99700001Y-126550001D03*
D15*
%TO.P,P53,2,B*%
%TO.N,/JA2*%
X101700001Y-126550000D03*
D14*
%TO.P,P53,3,B*%
%TO.N,/JA3*%
X103700002Y-126550000D03*
D15*
%TO.P,P53,4,B*%
%TO.N,/JA4*%
X105700001Y-126550000D03*
%TD*%
D12*
%TO.P,P33,0,C*%
%TO.N,P3*%
X92400000Y-52500000D03*
D14*
%TO.P,P33,1,B*%
%TO.N,/JA1*%
X89400000Y-51450000D03*
D15*
%TO.P,P33,2,B*%
%TO.N,/JA2*%
X91400000Y-51449999D03*
D14*
%TO.P,P33,3,B*%
%TO.N,/JA3*%
X93400000Y-51450000D03*
D15*
%TO.P,P33,4,B*%
%TO.N,/JA4*%
X95400000Y-51450000D03*
%TD*%
D12*
%TO.P,P45,0,C*%
%TO.N,P15*%
X102700000Y-96400001D03*
D13*
X99700000Y-96150001D03*
X101700000Y-96150001D03*
X103700000Y-96150001D03*
X105700000Y-96150001D03*
D14*
%TO.P,P45,1,B*%
%TO.N,/JA1*%
X99700000Y-95150002D03*
D15*
%TO.P,P45,2,B*%
%TO.N,/JA2*%
X101700000Y-95150001D03*
D14*
%TO.P,P45,3,B*%
%TO.N,/JA3*%
X103700001Y-95150001D03*
D15*
%TO.P,P45,4,B*%
%TO.N,/JA4*%
X105700000Y-95150001D03*
%TD*%
D12*
%TO.P,P37,0,C*%
%TO.N,P7*%
X102700000Y-64750000D03*
D13*
X99700000Y-64500000D03*
X101700000Y-64500000D03*
X103700000Y-64500000D03*
X105700000Y-64500000D03*
D14*
%TO.P,P37,1,B*%
%TO.N,/JA1*%
X99700000Y-63500001D03*
D15*
%TO.P,P37,2,B*%
%TO.N,/JA2*%
X101700000Y-63500000D03*
D14*
%TO.P,P37,3,B*%
%TO.N,/JA3*%
X103700001Y-63500000D03*
D15*
%TO.P,P37,4,B*%
%TO.N,/JA4*%
X105700000Y-63500000D03*
%TD*%
D10*
%TO.P,J3,1,Pin_1*%
%TO.N,/B1*%
X149551823Y-52338589D03*
D11*
%TO.P,J3,2,Pin_2*%
X147011823Y-52338589D03*
%TO.P,J3,3,Pin_3*%
%TO.N,/B2*%
X149551823Y-54878589D03*
%TO.P,J3,4,Pin_4*%
X147011823Y-54878589D03*
%TO.P,J3,5,Pin_5*%
%TO.N,/B3*%
X149551823Y-57418589D03*
%TO.P,J3,6,Pin_6*%
X147011823Y-57418589D03*
%TO.P,J3,7,Pin_7*%
%TO.N,/B4*%
X149551823Y-59958589D03*
%TO.P,J3,8,Pin_8*%
X147011823Y-59958589D03*
%TO.P,J3,9,Pin_9*%
%TO.N,/B5*%
X149551823Y-62498589D03*
%TO.P,J3,10,Pin_10*%
X147011823Y-62498589D03*
%TO.P,J3,11,Pin_11*%
%TO.N,P2*%
X149551823Y-65038589D03*
%TO.P,J3,12,Pin_12*%
X147011823Y-65038589D03*
%TO.P,J3,13,Pin_13*%
%TO.N,P3*%
X149551823Y-67578589D03*
%TO.P,J3,14,Pin_14*%
X147011823Y-67578589D03*
%TO.P,J3,15,Pin_15*%
%TO.N,P4*%
X149551823Y-70118589D03*
%TO.P,J3,16,Pin_16*%
X147011823Y-70118589D03*
%TO.P,J3,17,Pin_17*%
%TO.N,P5*%
X149551823Y-72658589D03*
%TO.P,J3,18,Pin_18*%
X147011823Y-72658589D03*
%TO.P,J3,19,Pin_19*%
%TO.N,P6*%
X149551823Y-75198589D03*
%TO.P,J3,20,Pin_20*%
X147011823Y-75198589D03*
%TO.P,J3,21,Pin_21*%
%TO.N,P7*%
X149551823Y-77738589D03*
%TO.P,J3,22,Pin_22*%
X147011823Y-77738589D03*
%TO.P,J3,23,Pin_23*%
%TO.N,P8*%
X149551823Y-80278589D03*
%TO.P,J3,24,Pin_24*%
X147011823Y-80278589D03*
%TO.P,J3,25,Pin_25*%
%TO.N,P9*%
X149551823Y-82818589D03*
%TO.P,J3,26,Pin_26*%
X147011823Y-82818589D03*
%TO.P,J3,27,Pin_27*%
%TO.N,P10*%
X149551823Y-85358589D03*
%TO.P,J3,28,Pin_28*%
X147011823Y-85358589D03*
%TO.P,J3,29,Pin_29*%
%TO.N,P11*%
X149551823Y-87898589D03*
%TO.P,J3,30,Pin_30*%
X147011823Y-87898589D03*
%TO.P,J3,31,Pin_31*%
%TO.N,P12*%
X149551823Y-90438589D03*
%TO.P,J3,32,Pin_32*%
X147011823Y-90438589D03*
%TO.P,J3,33,Pin_33*%
%TO.N,P13*%
X149551823Y-92978589D03*
%TO.P,J3,34,Pin_34*%
X147011823Y-92978589D03*
%TO.P,J3,35,Pin_35*%
%TO.N,P14*%
X149551823Y-95518589D03*
%TO.P,J3,36,Pin_36*%
X147011823Y-95518589D03*
%TO.P,J3,37,Pin_37*%
%TO.N,P15*%
X149551823Y-98058589D03*
%TO.P,J3,38,Pin_38*%
X147011823Y-98058589D03*
%TO.P,J3,39,Pin_39*%
%TO.N,P16*%
X149551823Y-100598589D03*
%TO.P,J3,40,Pin_40*%
X147011823Y-100598589D03*
%TO.P,J3,41,Pin_41*%
%TO.N,P17*%
X149551823Y-103138589D03*
%TO.P,J3,42,Pin_42*%
X147011823Y-103138589D03*
%TO.P,J3,43,Pin_43*%
%TO.N,P18*%
X149551823Y-105678589D03*
%TO.P,J3,44,Pin_44*%
X147011823Y-105678589D03*
%TO.P,J3,45,Pin_45*%
%TO.N,P19*%
X149551823Y-108218589D03*
%TO.P,J3,46,Pin_46*%
X147011823Y-108218589D03*
%TO.P,J3,47,Pin_47*%
%TO.N,P20*%
X149551823Y-110758589D03*
%TO.P,J3,48,Pin_48*%
X147011823Y-110758589D03*
%TO.P,J3,49,Pin_49*%
%TO.N,P21*%
X149551823Y-113298589D03*
%TO.P,J3,50,Pin_50*%
X147011823Y-113298589D03*
%TO.P,J3,51,Pin_51*%
%TO.N,P22*%
X149551823Y-115838589D03*
%TO.P,J3,52,Pin_52*%
X147011823Y-115838589D03*
%TO.P,J3,53,Pin_53*%
%TO.N,P23*%
X149551823Y-118378589D03*
%TO.P,J3,54,Pin_54*%
X147011823Y-118378589D03*
%TO.P,J3,55,Pin_55*%
%TO.N,P24*%
X149551823Y-120918589D03*
%TO.P,J3,56,Pin_56*%
X147011823Y-120918589D03*
%TO.P,J3,57,Pin_57*%
%TO.N,P25*%
X149551823Y-123458589D03*
%TO.P,J3,58,Pin_58*%
X147011823Y-123458589D03*
%TO.P,J3,59,Pin_59*%
%TO.N,P26*%
X149551823Y-125998589D03*
%TO.P,J3,60,Pin_60*%
X147011823Y-125998589D03*
%TO.P,J3,61,Pin_61*%
%TO.N,P27*%
X149551823Y-128538589D03*
%TO.P,J3,62,Pin_62*%
X147011823Y-128538589D03*
%TO.P,J3,63,Pin_63*%
%TO.N,P28*%
X149551823Y-131078589D03*
%TO.P,J3,64,Pin_64*%
X147011823Y-131078589D03*
%TO.P,J3,65,Pin_65*%
%TO.N,P29*%
X149551823Y-133618589D03*
%TO.P,J3,66,Pin_66*%
X147011823Y-133618589D03*
%TO.P,J3,67,Pin_67*%
%TO.N,P30*%
X149551823Y-136158589D03*
%TO.P,J3,68,Pin_68*%
X147011823Y-136158589D03*
%TO.P,J3,69,Pin_69*%
%TO.N,/B35*%
X149551823Y-138698589D03*
%TO.P,J3,70,Pin_70*%
X147011823Y-138698589D03*
%TO.P,J3,71,Pin_71*%
%TO.N,/B36*%
X149551823Y-141238589D03*
%TO.P,J3,72,Pin_72*%
X147011823Y-141238589D03*
%TO.P,J3,73,Pin_73*%
%TO.N,/B37*%
X149551823Y-143778589D03*
%TO.P,J3,74,Pin_74*%
X147011823Y-143778589D03*
%TO.P,J3,75,Pin_75*%
%TO.N,/B38*%
X149551823Y-146318589D03*
%TO.P,J3,76,Pin_76*%
X147011823Y-146318589D03*
%TD*%
D12*
%TO.P,P17,0,C*%
%TO.N,P17*%
X168700000Y-104300000D03*
D13*
X165700000Y-104050000D03*
X167700000Y-104050000D03*
X169700000Y-104050000D03*
X171700000Y-104050000D03*
D14*
%TO.P,P17,1,B*%
%TO.N,/JA1*%
X165700000Y-103050001D03*
D15*
%TO.P,P17,2,B*%
%TO.N,/JA2*%
X167700000Y-103050000D03*
D14*
%TO.P,P17,3,B*%
%TO.N,/JA3*%
X169700001Y-103050000D03*
D15*
%TO.P,P17,4,B*%
%TO.N,/JA4*%
X171700000Y-103050000D03*
%TD*%
D12*
%TO.P,P5,0,C*%
%TO.N,P5*%
X168700000Y-56750001D03*
D13*
X165700000Y-56500001D03*
X167700000Y-56500001D03*
X169700000Y-56500001D03*
X171700000Y-56500001D03*
D14*
%TO.P,P5,1,B*%
%TO.N,/JA1*%
X165700000Y-55500002D03*
D15*
%TO.P,P5,2,B*%
%TO.N,/JA2*%
X167700000Y-55500001D03*
D14*
%TO.P,P5,3,B*%
%TO.N,/JA3*%
X169700001Y-55500001D03*
D15*
%TO.P,P5,4,B*%
%TO.N,/JA4*%
X171700000Y-55500001D03*
%TD*%
D12*
%TO.P,P23,0,C*%
%TO.N,P23*%
X168700001Y-127800000D03*
D13*
X165700001Y-127550000D03*
X167700001Y-127550000D03*
X169700001Y-127550000D03*
X171700001Y-127550000D03*
D14*
%TO.P,P23,1,B*%
%TO.N,/JA1*%
X165700001Y-126550001D03*
D15*
%TO.P,P23,2,B*%
%TO.N,/JA2*%
X167700001Y-126550000D03*
D14*
%TO.P,P23,3,B*%
%TO.N,/JA3*%
X169700002Y-126550000D03*
D15*
%TO.P,P23,4,B*%
%TO.N,/JA4*%
X171700001Y-126550000D03*
%TD*%
D12*
%TO.P,P1,0,C*%
%TO.N,P1*%
X158400000Y-60550000D03*
D14*
%TO.P,P1,1,B*%
%TO.N,/JA1*%
X155400000Y-59500000D03*
D15*
%TO.P,P1,2,B*%
%TO.N,/JA2*%
X157400000Y-59499999D03*
D14*
%TO.P,P1,3,B*%
%TO.N,/JA3*%
X159400000Y-59500000D03*
D15*
%TO.P,P1,4,B*%
%TO.N,/JA4*%
X161400000Y-59500000D03*
%TD*%
D12*
%TO.P,P6,0,C*%
%TO.N,P6*%
X168700000Y-60750000D03*
D13*
X165700000Y-60500000D03*
X167700000Y-60500000D03*
X169700000Y-60500000D03*
X171700000Y-60500000D03*
D14*
%TO.P,P6,1,B*%
%TO.N,/JA1*%
X165700000Y-59500001D03*
D15*
%TO.P,P6,2,B*%
%TO.N,/JA2*%
X167700000Y-59500000D03*
D14*
%TO.P,P6,3,B*%
%TO.N,/JA3*%
X169700001Y-59500000D03*
D15*
%TO.P,P6,4,B*%
%TO.N,/JA4*%
X171700000Y-59500000D03*
%TD*%
D12*
%TO.P,P16,0,C*%
%TO.N,P16*%
X168700000Y-100300000D03*
D13*
X165700000Y-100050000D03*
X167700000Y-100050000D03*
X169700000Y-100050000D03*
X171700000Y-100050000D03*
D14*
%TO.P,P16,1,B*%
%TO.N,/JA1*%
X165700000Y-99050001D03*
D15*
%TO.P,P16,2,B*%
%TO.N,/JA2*%
X167700000Y-99050000D03*
D14*
%TO.P,P16,3,B*%
%TO.N,/JA3*%
X169700001Y-99050000D03*
D15*
%TO.P,P16,4,B*%
%TO.N,/JA4*%
X171700000Y-99050000D03*
%TD*%
D12*
%TO.P,P10,0,C*%
%TO.N,P10*%
X168700000Y-76750000D03*
D13*
X165700000Y-76500000D03*
X167700000Y-76500000D03*
X169700000Y-76500000D03*
X171700000Y-76500000D03*
D14*
%TO.P,P10,1,B*%
%TO.N,/JA1*%
X165700000Y-75500001D03*
D15*
%TO.P,P10,2,B*%
%TO.N,/JA2*%
X167700000Y-75500000D03*
D14*
%TO.P,P10,3,B*%
%TO.N,/JA3*%
X169700001Y-75500000D03*
D15*
%TO.P,P10,4,B*%
%TO.N,/JA4*%
X171700000Y-75500000D03*
%TD*%
D10*
%TO.P,J2,1,Pin_1*%
%TO.N,P1*%
X156000823Y-63930001D03*
D11*
%TO.P,J2,2,Pin_2*%
%TO.N,P2*%
X156000823Y-66470001D03*
%TO.P,J2,3,Pin_3*%
%TO.N,P3*%
X156000823Y-69010000D03*
%TO.P,J2,4,Pin_4*%
%TO.N,P4*%
X156000823Y-71550001D03*
%TO.P,J2,5,Pin_5*%
%TO.N,P5*%
X156000823Y-74090001D03*
%TO.P,J2,6,Pin_6*%
%TO.N,P6*%
X156000823Y-76630001D03*
%TO.P,J2,7,Pin_7*%
%TO.N,P7*%
X156000823Y-79170001D03*
%TO.P,J2,8,Pin_8*%
%TO.N,P8*%
X156000823Y-81710002D03*
%TO.P,J2,9,Pin_9*%
%TO.N,P9*%
X156000823Y-84250001D03*
%TO.P,J2,10,Pin_10*%
%TO.N,P10*%
X156000823Y-86790001D03*
%TO.P,J2,11,Pin_11*%
%TO.N,P11*%
X156000823Y-89330001D03*
%TO.P,J2,12,Pin_12*%
%TO.N,P12*%
X156000823Y-91870000D03*
%TO.P,J2,13,Pin_13*%
%TO.N,P13*%
X156000823Y-94410001D03*
%TO.P,J2,14,Pin_14*%
%TO.N,P14*%
X156000823Y-96950001D03*
%TO.P,J2,15,Pin_15*%
%TO.N,P15*%
X156000823Y-99490001D03*
%TO.P,J2,16,Pin_16*%
%TO.N,P16*%
X156000823Y-102030000D03*
%TO.P,J2,17,Pin_17*%
%TO.N,P17*%
X156000823Y-104570002D03*
%TO.P,J2,18,Pin_18*%
%TO.N,P18*%
X156000823Y-107110001D03*
%TO.P,J2,19,Pin_19*%
%TO.N,P19*%
X156000823Y-109650001D03*
%TO.P,J2,20,Pin_20*%
%TO.N,P20*%
X156000823Y-112190001D03*
%TO.P,J2,21,Pin_21*%
%TO.N,P21*%
X156000823Y-114730000D03*
%TO.P,J2,22,Pin_22*%
%TO.N,P22*%
X156000823Y-117270001D03*
%TO.P,J2,23,Pin_23*%
%TO.N,P23*%
X156000823Y-119810001D03*
%TO.P,J2,24,Pin_24*%
%TO.N,P24*%
X156000823Y-122350001D03*
%TO.P,J2,25,Pin_25*%
%TO.N,P25*%
X156000823Y-124890000D03*
%TO.P,J2,26,Pin_26*%
%TO.N,P26*%
X156000823Y-127430002D03*
%TO.P,J2,27,Pin_27*%
%TO.N,P27*%
X156000823Y-129970001D03*
%TO.P,J2,28,Pin_28*%
%TO.N,P28*%
X156000823Y-132510001D03*
%TO.P,J2,29,Pin_29*%
%TO.N,P29*%
X156000823Y-135050001D03*
%TO.P,J2,30,Pin_30*%
%TO.N,P30*%
X156000823Y-137590002D03*
%TD*%
D10*
%TO.P,J5,1,Pin_1*%
%TO.N,P1*%
X161100823Y-63950000D03*
D11*
%TO.P,J5,2,Pin_2*%
X158560823Y-63950000D03*
%TO.P,J5,3,Pin_3*%
%TO.N,P2*%
X161100823Y-66490000D03*
%TO.P,J5,4,Pin_4*%
X158560823Y-66490000D03*
%TO.P,J5,5,Pin_5*%
%TO.N,P3*%
X161100823Y-69029999D03*
%TO.P,J5,6,Pin_6*%
X158560823Y-69030000D03*
%TO.P,J5,7,Pin_7*%
%TO.N,P4*%
X161100823Y-71570000D03*
%TO.P,J5,8,Pin_8*%
X158560823Y-71570000D03*
%TO.P,J5,9,Pin_9*%
%TO.N,P5*%
X161100823Y-74110000D03*
%TO.P,J5,10,Pin_10*%
X158560823Y-74110000D03*
%TO.P,J5,11,Pin_11*%
%TO.N,P6*%
X161100823Y-76650000D03*
%TO.P,J5,12,Pin_12*%
X158560823Y-76650000D03*
%TO.P,J5,13,Pin_13*%
%TO.N,P7*%
X161100823Y-79190000D03*
%TO.P,J5,14,Pin_14*%
X158560823Y-79190000D03*
%TO.P,J5,15,Pin_15*%
%TO.N,P8*%
X161100823Y-81730001D03*
%TO.P,J5,16,Pin_16*%
X158560823Y-81730000D03*
%TO.P,J5,17,Pin_17*%
%TO.N,P9*%
X161100823Y-84270000D03*
%TO.P,J5,18,Pin_18*%
X158560823Y-84270000D03*
%TO.P,J5,19,Pin_19*%
%TO.N,P10*%
X161100823Y-86810000D03*
%TO.P,J5,20,Pin_20*%
X158560823Y-86810000D03*
%TO.P,J5,21,Pin_21*%
%TO.N,P11*%
X161100823Y-89350000D03*
%TO.P,J5,22,Pin_22*%
X158560823Y-89350000D03*
%TO.P,J5,23,Pin_23*%
%TO.N,P12*%
X161100823Y-91889999D03*
%TO.P,J5,24,Pin_24*%
X158560823Y-91890000D03*
%TO.P,J5,25,Pin_25*%
%TO.N,P13*%
X161100823Y-94430000D03*
%TO.P,J5,26,Pin_26*%
X158560823Y-94430000D03*
%TO.P,J5,27,Pin_27*%
%TO.N,P14*%
X161100823Y-96970000D03*
%TO.P,J5,28,Pin_28*%
X158560823Y-96970000D03*
%TO.P,J5,29,Pin_29*%
%TO.N,P15*%
X161100823Y-99510000D03*
%TO.P,J5,30,Pin_30*%
X158560823Y-99510000D03*
%TO.P,J5,31,Pin_31*%
%TO.N,P16*%
X161100823Y-102049999D03*
%TO.P,J5,32,Pin_32*%
X158560823Y-102050000D03*
%TO.P,J5,33,Pin_33*%
%TO.N,P17*%
X161100823Y-104590001D03*
%TO.P,J5,34,Pin_34*%
X158560823Y-104590000D03*
%TO.P,J5,35,Pin_35*%
%TO.N,P18*%
X161100823Y-107130000D03*
%TO.P,J5,36,Pin_36*%
X158560823Y-107130000D03*
%TO.P,J5,37,Pin_37*%
%TO.N,P19*%
X161100823Y-109670000D03*
%TO.P,J5,38,Pin_38*%
X158560823Y-109670000D03*
%TO.P,J5,39,Pin_39*%
%TO.N,P20*%
X161100823Y-112210000D03*
%TO.P,J5,40,Pin_40*%
X158560823Y-112210000D03*
%TO.P,J5,41,Pin_41*%
%TO.N,P21*%
X161100823Y-114749999D03*
%TO.P,J5,42,Pin_42*%
X158560823Y-114750000D03*
%TO.P,J5,43,Pin_43*%
%TO.N,P22*%
X161100823Y-117290000D03*
%TO.P,J5,44,Pin_44*%
X158560823Y-117290000D03*
%TO.P,J5,45,Pin_45*%
%TO.N,P23*%
X161100823Y-119830000D03*
%TO.P,J5,46,Pin_46*%
X158560823Y-119830000D03*
%TO.P,J5,47,Pin_47*%
%TO.N,P24*%
X161100823Y-122370000D03*
%TO.P,J5,48,Pin_48*%
X158560823Y-122370000D03*
%TO.P,J5,49,Pin_49*%
%TO.N,P25*%
X161100823Y-124909999D03*
%TO.P,J5,50,Pin_50*%
X158560823Y-124910000D03*
%TO.P,J5,51,Pin_51*%
%TO.N,P26*%
X161100823Y-127450001D03*
%TO.P,J5,52,Pin_52*%
X158560823Y-127450000D03*
%TO.P,J5,53,Pin_53*%
%TO.N,P27*%
X161100823Y-129990000D03*
%TO.P,J5,54,Pin_54*%
X158560823Y-129990000D03*
%TO.P,J5,55,Pin_55*%
%TO.N,P28*%
X161100823Y-132530000D03*
%TO.P,J5,56,Pin_56*%
X158560823Y-132530000D03*
%TO.P,J5,57,Pin_57*%
%TO.N,P29*%
X161100823Y-135070000D03*
%TO.P,J5,58,Pin_58*%
X158560823Y-135070000D03*
%TO.P,J5,59,Pin_59*%
%TO.N,P30*%
X161100823Y-137610001D03*
%TO.P,J5,60,Pin_60*%
X158560823Y-137610000D03*
%TD*%
D12*
%TO.P,P30,0,C*%
%TO.N,P30*%
X158424999Y-147100001D03*
D14*
%TO.P,P30,1,B*%
%TO.N,/JA1*%
X155424999Y-146050001D03*
D15*
%TO.P,P30,2,B*%
%TO.N,/JA2*%
X157424999Y-146050000D03*
D14*
%TO.P,P30,3,B*%
%TO.N,/JA3*%
X159424999Y-146050001D03*
D15*
%TO.P,P30,4,B*%
%TO.N,/JA4*%
X161424999Y-146050001D03*
%TD*%
D12*
%TO.P,P3,0,C*%
%TO.N,P3*%
X158400000Y-52500000D03*
D14*
%TO.P,P3,1,B*%
%TO.N,/JA1*%
X155400000Y-51450000D03*
D15*
%TO.P,P3,2,B*%
%TO.N,/JA2*%
X157400000Y-51449999D03*
D14*
%TO.P,P3,3,B*%
%TO.N,/JA3*%
X159400000Y-51450000D03*
D15*
%TO.P,P3,4,B*%
%TO.N,/JA4*%
X161400000Y-51450000D03*
%TD*%
D12*
%TO.P,P24,0,C*%
%TO.N,P24*%
X168700000Y-131700000D03*
D13*
X165700000Y-131450000D03*
X167700000Y-131450000D03*
X169700000Y-131450000D03*
X171700000Y-131450000D03*
D14*
%TO.P,P24,1,B*%
%TO.N,/JA1*%
X165700000Y-130450001D03*
D15*
%TO.P,P24,2,B*%
%TO.N,/JA2*%
X167700000Y-130450000D03*
D14*
%TO.P,P24,3,B*%
%TO.N,/JA3*%
X169700001Y-130450000D03*
D15*
%TO.P,P24,4,B*%
%TO.N,/JA4*%
X171700000Y-130450000D03*
%TD*%
D12*
%TO.P,P27,0,C*%
%TO.N,P27*%
X168700000Y-143500000D03*
D13*
X165700000Y-143250000D03*
X167700000Y-143250000D03*
X169700000Y-143250000D03*
X171700000Y-143250000D03*
D14*
%TO.P,P27,1,B*%
%TO.N,/JA1*%
X165700000Y-142250001D03*
D15*
%TO.P,P27,2,B*%
%TO.N,/JA2*%
X167700000Y-142250000D03*
D14*
%TO.P,P27,3,B*%
%TO.N,/JA3*%
X169700001Y-142250000D03*
D15*
%TO.P,P27,4,B*%
%TO.N,/JA4*%
X171700000Y-142250000D03*
%TD*%
D12*
%TO.P,P21,0,C*%
%TO.N,P21*%
X168700000Y-119900000D03*
D13*
X165700000Y-119650000D03*
X167700000Y-119650000D03*
X169700000Y-119650000D03*
X171700000Y-119650000D03*
D14*
%TO.P,P21,1,B*%
%TO.N,/JA1*%
X165700000Y-118650001D03*
D15*
%TO.P,P21,2,B*%
%TO.N,/JA2*%
X167700000Y-118650000D03*
D14*
%TO.P,P21,3,B*%
%TO.N,/JA3*%
X169700001Y-118650000D03*
D15*
%TO.P,P21,4,B*%
%TO.N,/JA4*%
X171700000Y-118650000D03*
%TD*%
D12*
%TO.P,P19,0,C*%
%TO.N,P19*%
X168700000Y-112100000D03*
D13*
X165700000Y-111850000D03*
X167700000Y-111850000D03*
X169700000Y-111850000D03*
X171700000Y-111850000D03*
D14*
%TO.P,P19,1,B*%
%TO.N,/JA1*%
X165700000Y-110850001D03*
D15*
%TO.P,P19,2,B*%
%TO.N,/JA2*%
X167700000Y-110850000D03*
D14*
%TO.P,P19,3,B*%
%TO.N,/JA3*%
X169700001Y-110850000D03*
D15*
%TO.P,P19,4,B*%
%TO.N,/JA4*%
X171700000Y-110850000D03*
%TD*%
D12*
%TO.P,P20,0,C*%
%TO.N,P20*%
X168700001Y-116000000D03*
D13*
X165700001Y-115750000D03*
X167700001Y-115750000D03*
X169700001Y-115750000D03*
X171700001Y-115750000D03*
D14*
%TO.P,P20,1,B*%
%TO.N,/JA1*%
X165700001Y-114750001D03*
D15*
%TO.P,P20,2,B*%
%TO.N,/JA2*%
X167700001Y-114750000D03*
D14*
%TO.P,P20,3,B*%
%TO.N,/JA3*%
X169700002Y-114750000D03*
D15*
%TO.P,P20,4,B*%
%TO.N,/JA4*%
X171700001Y-114750000D03*
%TD*%
D12*
%TO.P,P8,0,C*%
%TO.N,P8*%
X168700000Y-68750000D03*
D13*
X165700000Y-68500000D03*
X167700000Y-68500000D03*
X169700000Y-68500000D03*
X171700000Y-68500000D03*
D14*
%TO.P,P8,1,B*%
%TO.N,/JA1*%
X165700000Y-67500001D03*
D15*
%TO.P,P8,2,B*%
%TO.N,/JA2*%
X167700000Y-67500000D03*
D14*
%TO.P,P8,3,B*%
%TO.N,/JA3*%
X169700001Y-67500000D03*
D15*
%TO.P,P8,4,B*%
%TO.N,/JA4*%
X171700000Y-67500000D03*
%TD*%
D10*
%TO.P,J1,1,Pin_1*%
%TO.N,/B1*%
X152651823Y-52318589D03*
D11*
%TO.P,J1,2,Pin_2*%
%TO.N,/B2*%
X152651823Y-54858589D03*
%TO.P,J1,3,Pin_3*%
%TO.N,/B3*%
X152651823Y-57398589D03*
%TO.P,J1,4,Pin_4*%
%TO.N,/B4*%
X152651823Y-59938589D03*
%TO.P,J1,5,Pin_5*%
%TO.N,/B5*%
X152651823Y-62478589D03*
%TO.P,J1,6,Pin_6*%
%TO.N,P2*%
X152651823Y-65018589D03*
%TO.P,J1,7,Pin_7*%
%TO.N,P3*%
X152651823Y-67558589D03*
%TO.P,J1,8,Pin_8*%
%TO.N,P4*%
X152651823Y-70098589D03*
%TO.P,J1,9,Pin_9*%
%TO.N,P5*%
X152651823Y-72638589D03*
%TO.P,J1,10,Pin_10*%
%TO.N,P6*%
X152651823Y-75178589D03*
%TO.P,J1,11,Pin_11*%
%TO.N,P7*%
X152651823Y-77718589D03*
%TO.P,J1,12,Pin_12*%
%TO.N,P8*%
X152651823Y-80258589D03*
%TO.P,J1,13,Pin_13*%
%TO.N,P9*%
X152651823Y-82798589D03*
%TO.P,J1,14,Pin_14*%
%TO.N,P10*%
X152651823Y-85338589D03*
%TO.P,J1,15,Pin_15*%
%TO.N,P11*%
X152651823Y-87878589D03*
%TO.P,J1,16,Pin_16*%
%TO.N,P12*%
X152651823Y-90418589D03*
%TO.P,J1,17,Pin_17*%
%TO.N,P13*%
X152651823Y-92958589D03*
%TO.P,J1,18,Pin_18*%
%TO.N,P14*%
X152651823Y-95498589D03*
%TO.P,J1,19,Pin_19*%
%TO.N,P15*%
X152651823Y-98038589D03*
%TO.P,J1,20,Pin_20*%
%TO.N,P16*%
X152651823Y-100578589D03*
%TO.P,J1,21,Pin_21*%
%TO.N,P17*%
X152651823Y-103118589D03*
%TO.P,J1,22,Pin_22*%
%TO.N,P18*%
X152651823Y-105658589D03*
%TO.P,J1,23,Pin_23*%
%TO.N,P19*%
X152651823Y-108198589D03*
%TO.P,J1,24,Pin_24*%
%TO.N,P20*%
X152651823Y-110738589D03*
%TO.P,J1,25,Pin_25*%
%TO.N,P21*%
X152651823Y-113278589D03*
%TO.P,J1,26,Pin_26*%
%TO.N,P22*%
X152651823Y-115818589D03*
%TO.P,J1,27,Pin_27*%
%TO.N,P23*%
X152651823Y-118358589D03*
%TO.P,J1,28,Pin_28*%
%TO.N,P24*%
X152651823Y-120898589D03*
%TO.P,J1,29,Pin_29*%
%TO.N,P25*%
X152651823Y-123438589D03*
%TO.P,J1,30,Pin_30*%
%TO.N,P26*%
X152651823Y-125978589D03*
%TO.P,J1,31,Pin_31*%
%TO.N,P27*%
X152651823Y-128518589D03*
%TO.P,J1,32,Pin_32*%
%TO.N,P28*%
X152651823Y-131058589D03*
%TO.P,J1,33,Pin_33*%
%TO.N,P29*%
X152651823Y-133598589D03*
%TO.P,J1,34,Pin_34*%
%TO.N,P30*%
X152651823Y-136138589D03*
%TO.P,J1,35,Pin_35*%
%TO.N,/B35*%
X152651823Y-138678589D03*
%TO.P,J1,36,Pin_36*%
%TO.N,/B36*%
X152651823Y-141218589D03*
%TO.P,J1,37,Pin_37*%
%TO.N,/B37*%
X152651823Y-143758589D03*
%TO.P,J1,38,Pin_38*%
%TO.N,/B38*%
X152651823Y-146298589D03*
%TD*%
D12*
%TO.P,P11,0,C*%
%TO.N,P11*%
X168700000Y-80650001D03*
D13*
X165700000Y-80400001D03*
X167700000Y-80400001D03*
X169700000Y-80400001D03*
X171700000Y-80400001D03*
D14*
%TO.P,P11,1,B*%
%TO.N,/JA1*%
X165700000Y-79400002D03*
D15*
%TO.P,P11,2,B*%
%TO.N,/JA2*%
X167700000Y-79400001D03*
D14*
%TO.P,P11,3,B*%
%TO.N,/JA3*%
X169700001Y-79400001D03*
D15*
%TO.P,P11,4,B*%
%TO.N,/JA4*%
X171700000Y-79400001D03*
%TD*%
D12*
%TO.P,P4,0,C*%
%TO.N,P4*%
X168700001Y-52750000D03*
D13*
X165700001Y-52500000D03*
X167700001Y-52500000D03*
X169700001Y-52500000D03*
X171700001Y-52500000D03*
D14*
%TO.P,P4,1,B*%
%TO.N,/JA1*%
X165700001Y-51500001D03*
D15*
%TO.P,P4,2,B*%
%TO.N,/JA2*%
X167700001Y-51500000D03*
D14*
%TO.P,P4,3,B*%
%TO.N,/JA3*%
X169700002Y-51500000D03*
D15*
%TO.P,P4,4,B*%
%TO.N,/JA4*%
X171700001Y-51500000D03*
%TD*%
D12*
%TO.P,P13,0,C*%
%TO.N,P13*%
X168700000Y-88500000D03*
D13*
X165700000Y-88250000D03*
X167700000Y-88250000D03*
X169700000Y-88250000D03*
X171700000Y-88250000D03*
D14*
%TO.P,P13,1,B*%
%TO.N,/JA1*%
X165700000Y-87250001D03*
D15*
%TO.P,P13,2,B*%
%TO.N,/JA2*%
X167700000Y-87250000D03*
D14*
%TO.P,P13,3,B*%
%TO.N,/JA3*%
X169700001Y-87250000D03*
D15*
%TO.P,P13,4,B*%
%TO.N,/JA4*%
X171700000Y-87250000D03*
%TD*%
D10*
%TO.P,J4,1,Pin_1*%
%TO.N,/B1*%
X143011823Y-52338589D03*
D11*
%TO.P,J4,2,Pin_2*%
%TO.N,/B2*%
X143011823Y-54878589D03*
%TO.P,J4,3,Pin_3*%
%TO.N,/B3*%
X143011823Y-57418589D03*
%TO.P,J4,4,Pin_4*%
%TO.N,/B4*%
X143011823Y-59958589D03*
%TO.P,J4,5,Pin_5*%
%TO.N,/B5*%
X143011823Y-62498589D03*
%TO.P,J4,6,Pin_6*%
%TO.N,P2*%
X143011823Y-65038589D03*
%TO.P,J4,7,Pin_7*%
%TO.N,P3*%
X143011823Y-67578589D03*
%TO.P,J4,8,Pin_8*%
%TO.N,P4*%
X143011823Y-70118589D03*
%TO.P,J4,9,Pin_9*%
%TO.N,P5*%
X143011823Y-72658589D03*
%TO.P,J4,10,Pin_10*%
%TO.N,P6*%
X143011823Y-75198589D03*
%TO.P,J4,11,Pin_11*%
%TO.N,P7*%
X143011823Y-77738589D03*
%TO.P,J4,12,Pin_12*%
%TO.N,P8*%
X143011823Y-80278589D03*
%TO.P,J4,13,Pin_13*%
%TO.N,P9*%
X143011823Y-82818589D03*
%TO.P,J4,14,Pin_14*%
%TO.N,P10*%
X143011823Y-85358589D03*
%TO.P,J4,15,Pin_15*%
%TO.N,P11*%
X143011823Y-87898589D03*
%TO.P,J4,16,Pin_16*%
%TO.N,P12*%
X143011823Y-90438589D03*
%TO.P,J4,17,Pin_17*%
%TO.N,P13*%
X143011823Y-92978589D03*
%TO.P,J4,18,Pin_18*%
%TO.N,P14*%
X143011823Y-95518589D03*
%TO.P,J4,19,Pin_19*%
%TO.N,P15*%
X143011823Y-98058589D03*
%TO.P,J4,20,Pin_20*%
%TO.N,P16*%
X143011823Y-100598589D03*
%TO.P,J4,21,Pin_21*%
%TO.N,P17*%
X143011823Y-103138589D03*
%TO.P,J4,22,Pin_22*%
%TO.N,P18*%
X143011823Y-105678589D03*
%TO.P,J4,23,Pin_23*%
%TO.N,P19*%
X143011823Y-108218589D03*
%TO.P,J4,24,Pin_24*%
%TO.N,P20*%
X143011823Y-110758589D03*
%TO.P,J4,25,Pin_25*%
%TO.N,P21*%
X143011823Y-113298589D03*
%TO.P,J4,26,Pin_26*%
%TO.N,P22*%
X143011823Y-115838589D03*
%TO.P,J4,27,Pin_27*%
%TO.N,P23*%
X143011823Y-118378589D03*
%TO.P,J4,28,Pin_28*%
%TO.N,P24*%
X143011823Y-120918589D03*
%TO.P,J4,29,Pin_29*%
%TO.N,P25*%
X143011823Y-123458589D03*
%TO.P,J4,30,Pin_30*%
%TO.N,P26*%
X143011823Y-125998589D03*
%TO.P,J4,31,Pin_31*%
%TO.N,P27*%
X143011823Y-128538589D03*
%TO.P,J4,32,Pin_32*%
%TO.N,P28*%
X143011823Y-131078589D03*
%TO.P,J4,33,Pin_33*%
%TO.N,P29*%
X143011823Y-133618589D03*
%TO.P,J4,34,Pin_34*%
%TO.N,P30*%
X143011823Y-136158589D03*
%TO.P,J4,35,Pin_35*%
%TO.N,/B35*%
X143011823Y-138698589D03*
%TO.P,J4,36,Pin_36*%
%TO.N,/B36*%
X143011823Y-141238589D03*
%TO.P,J4,37,Pin_37*%
%TO.N,/B37*%
X143011823Y-143778589D03*
%TO.P,J4,38,Pin_38*%
%TO.N,/B38*%
X143011823Y-146318589D03*
%TD*%
D12*
%TO.P,P9,0,C*%
%TO.N,P9*%
X168700000Y-72750000D03*
D13*
X165700000Y-72500000D03*
X167700000Y-72500000D03*
X169700000Y-72500000D03*
X171700000Y-72500000D03*
D14*
%TO.P,P9,1,B*%
%TO.N,/JA1*%
X165700000Y-71500001D03*
D15*
%TO.P,P9,2,B*%
%TO.N,/JA2*%
X167700000Y-71500000D03*
D14*
%TO.P,P9,3,B*%
%TO.N,/JA3*%
X169700001Y-71500000D03*
D15*
%TO.P,P9,4,B*%
%TO.N,/JA4*%
X171700000Y-71500000D03*
%TD*%
D12*
%TO.P,P2,0,C*%
%TO.N,P2*%
X158400000Y-56585000D03*
D14*
%TO.P,P2,1,B*%
%TO.N,/JA1*%
X155400000Y-55535000D03*
D15*
%TO.P,P2,2,B*%
%TO.N,/JA2*%
X157400000Y-55534999D03*
D14*
%TO.P,P2,3,B*%
%TO.N,/JA3*%
X159400000Y-55535000D03*
D15*
%TO.P,P2,4,B*%
%TO.N,/JA4*%
X161400000Y-55535000D03*
%TD*%
D12*
%TO.P,P28,0,C*%
%TO.N,P28*%
X168700000Y-147400000D03*
D13*
X165700000Y-147150000D03*
X167700000Y-147150000D03*
X169700000Y-147150000D03*
X171700000Y-147150000D03*
D14*
%TO.P,P28,1,B*%
%TO.N,/JA1*%
X165700000Y-146150001D03*
D15*
%TO.P,P28,2,B*%
%TO.N,/JA2*%
X167700000Y-146150000D03*
D14*
%TO.P,P28,3,B*%
%TO.N,/JA3*%
X169700001Y-146150000D03*
D15*
%TO.P,P28,4,B*%
%TO.N,/JA4*%
X171700000Y-146150000D03*
%TD*%
D12*
%TO.P,P7,0,C*%
%TO.N,P7*%
X168700000Y-64750000D03*
D13*
X165700000Y-64500000D03*
X167700000Y-64500000D03*
X169700000Y-64500000D03*
X171700000Y-64500000D03*
D14*
%TO.P,P7,1,B*%
%TO.N,/JA1*%
X165700000Y-63500001D03*
D15*
%TO.P,P7,2,B*%
%TO.N,/JA2*%
X167700000Y-63500000D03*
D14*
%TO.P,P7,3,B*%
%TO.N,/JA3*%
X169700001Y-63500000D03*
D15*
%TO.P,P7,4,B*%
%TO.N,/JA4*%
X171700000Y-63500000D03*
%TD*%
D12*
%TO.P,P26,0,C*%
%TO.N,P26*%
X168700000Y-139500000D03*
D13*
X165700000Y-139250000D03*
X167700000Y-139250000D03*
X169700000Y-139250000D03*
X171700000Y-139250000D03*
D14*
%TO.P,P26,1,B*%
%TO.N,/JA1*%
X165700000Y-138250001D03*
D15*
%TO.P,P26,2,B*%
%TO.N,/JA2*%
X167700000Y-138250000D03*
D14*
%TO.P,P26,3,B*%
%TO.N,/JA3*%
X169700001Y-138250000D03*
D15*
%TO.P,P26,4,B*%
%TO.N,/JA4*%
X171700000Y-138250000D03*
%TD*%
D12*
%TO.P,P25,0,C*%
%TO.N,P25*%
X168700000Y-135600000D03*
D13*
X165700000Y-135350000D03*
X167700000Y-135350000D03*
X169700000Y-135350000D03*
X171700000Y-135350000D03*
D14*
%TO.P,P25,1,B*%
%TO.N,/JA1*%
X165700000Y-134350001D03*
D15*
%TO.P,P25,2,B*%
%TO.N,/JA2*%
X167700000Y-134350000D03*
D14*
%TO.P,P25,3,B*%
%TO.N,/JA3*%
X169700001Y-134350000D03*
D15*
%TO.P,P25,4,B*%
%TO.N,/JA4*%
X171700000Y-134350000D03*
%TD*%
D12*
%TO.P,P29,0,C*%
%TO.N,P29*%
X158400000Y-143200000D03*
D14*
%TO.P,P29,1,B*%
%TO.N,/JA1*%
X155400000Y-142150000D03*
D15*
%TO.P,P29,2,B*%
%TO.N,/JA2*%
X157400000Y-142149999D03*
D14*
%TO.P,P29,3,B*%
%TO.N,/JA3*%
X159400000Y-142150000D03*
D15*
%TO.P,P29,4,B*%
%TO.N,/JA4*%
X161400000Y-142150000D03*
%TD*%
D12*
%TO.P,P18,0,C*%
%TO.N,P18*%
X168700001Y-108200000D03*
D13*
X165700001Y-107950000D03*
X167700001Y-107950000D03*
X169700001Y-107950000D03*
X171700001Y-107950000D03*
D14*
%TO.P,P18,1,B*%
%TO.N,/JA1*%
X165700001Y-106950001D03*
D15*
%TO.P,P18,2,B*%
%TO.N,/JA2*%
X167700001Y-106950000D03*
D14*
%TO.P,P18,3,B*%
%TO.N,/JA3*%
X169700002Y-106950000D03*
D15*
%TO.P,P18,4,B*%
%TO.N,/JA4*%
X171700001Y-106950000D03*
%TD*%
D12*
%TO.P,P15,0,C*%
%TO.N,P15*%
X168700000Y-96400001D03*
D13*
X165700000Y-96150001D03*
X167700000Y-96150001D03*
X169700000Y-96150001D03*
X171700000Y-96150001D03*
D14*
%TO.P,P15,1,B*%
%TO.N,/JA1*%
X165700000Y-95150002D03*
D15*
%TO.P,P15,2,B*%
%TO.N,/JA2*%
X167700000Y-95150001D03*
D14*
%TO.P,P15,3,B*%
%TO.N,/JA3*%
X169700001Y-95150001D03*
D15*
%TO.P,P15,4,B*%
%TO.N,/JA4*%
X171700000Y-95150001D03*
%TD*%
D12*
%TO.P,P14,0,C*%
%TO.N,P14*%
X168700001Y-92400000D03*
D13*
X165700001Y-92150000D03*
X167700001Y-92150000D03*
X169700001Y-92150000D03*
X171700001Y-92150000D03*
D14*
%TO.P,P14,1,B*%
%TO.N,/JA1*%
X165700001Y-91150001D03*
D15*
%TO.P,P14,2,B*%
%TO.N,/JA2*%
X167700001Y-91150000D03*
D14*
%TO.P,P14,3,B*%
%TO.N,/JA3*%
X169700002Y-91150000D03*
D15*
%TO.P,P14,4,B*%
%TO.N,/JA4*%
X171700001Y-91150000D03*
%TD*%
D12*
%TO.P,P12,0,C*%
%TO.N,P12*%
X168700000Y-84650000D03*
D13*
X165700000Y-84400000D03*
X167700000Y-84400000D03*
X169700000Y-84400000D03*
X171700000Y-84400000D03*
D14*
%TO.P,P12,1,B*%
%TO.N,/JA1*%
X165700000Y-83400001D03*
D15*
%TO.P,P12,2,B*%
%TO.N,/JA2*%
X167700000Y-83400000D03*
D14*
%TO.P,P12,3,B*%
%TO.N,/JA3*%
X169700001Y-83400000D03*
D15*
%TO.P,P12,4,B*%
%TO.N,/JA4*%
X171700000Y-83400000D03*
%TD*%
D12*
%TO.P,P22,0,C*%
%TO.N,P22*%
X168700000Y-123800000D03*
D13*
X165700000Y-123550000D03*
X167700000Y-123550000D03*
X169700000Y-123550000D03*
X171700000Y-123550000D03*
D14*
%TO.P,P22,1,B*%
%TO.N,/JA1*%
X165700000Y-122550001D03*
D15*
%TO.P,P22,2,B*%
%TO.N,/JA2*%
X167700000Y-122550000D03*
D14*
%TO.P,P22,3,B*%
%TO.N,/JA3*%
X169700001Y-122550000D03*
D15*
%TO.P,P22,4,B*%
%TO.N,/JA4*%
X171700000Y-122550000D03*
%TD*%
D12*
%TO.P,P67,0,C*%
%TO.N,P7*%
X135700000Y-64750000D03*
D13*
X132700000Y-64500000D03*
X134700000Y-64500000D03*
X136700000Y-64500000D03*
X138700000Y-64500000D03*
D14*
%TO.P,P67,1,B*%
%TO.N,/JA1*%
X132700000Y-63500001D03*
D15*
%TO.P,P67,2,B*%
%TO.N,/JA2*%
X134700000Y-63500000D03*
D14*
%TO.P,P67,3,B*%
%TO.N,/JA3*%
X136700001Y-63500000D03*
D15*
%TO.P,P67,4,B*%
%TO.N,/JA4*%
X138700000Y-63500000D03*
%TD*%
D12*
%TO.P,P82,0,C*%
%TO.N,P22*%
X135700000Y-123800000D03*
D13*
X132700000Y-123550000D03*
X134700000Y-123550000D03*
X136700000Y-123550000D03*
X138700000Y-123550000D03*
D14*
%TO.P,P82,1,B*%
%TO.N,/JA1*%
X132700000Y-122550001D03*
D15*
%TO.P,P82,2,B*%
%TO.N,/JA2*%
X134700000Y-122550000D03*
D14*
%TO.P,P82,3,B*%
%TO.N,/JA3*%
X136700001Y-122550000D03*
D15*
%TO.P,P82,4,B*%
%TO.N,/JA4*%
X138700000Y-122550000D03*
%TD*%
D12*
%TO.P,P78,0,C*%
%TO.N,P18*%
X135700001Y-108200000D03*
D13*
X132700001Y-107950000D03*
X134700001Y-107950000D03*
X136700001Y-107950000D03*
X138700001Y-107950000D03*
D14*
%TO.P,P78,1,B*%
%TO.N,/JA1*%
X132700001Y-106950001D03*
D15*
%TO.P,P78,2,B*%
%TO.N,/JA2*%
X134700001Y-106950000D03*
D14*
%TO.P,P78,3,B*%
%TO.N,/JA3*%
X136700002Y-106950000D03*
D15*
%TO.P,P78,4,B*%
%TO.N,/JA4*%
X138700001Y-106950000D03*
%TD*%
D12*
%TO.P,P66,0,C*%
%TO.N,P6*%
X135700000Y-60750000D03*
D13*
X132700000Y-60500000D03*
X134700000Y-60500000D03*
X136700000Y-60500000D03*
X138700000Y-60500000D03*
D14*
%TO.P,P66,1,B*%
%TO.N,/JA1*%
X132700000Y-59500001D03*
D15*
%TO.P,P66,2,B*%
%TO.N,/JA2*%
X134700000Y-59500000D03*
D14*
%TO.P,P66,3,B*%
%TO.N,/JA3*%
X136700001Y-59500000D03*
D15*
%TO.P,P66,4,B*%
%TO.N,/JA4*%
X138700000Y-59500000D03*
%TD*%
D12*
%TO.P,P76,0,C*%
%TO.N,P16*%
X135700000Y-100300000D03*
D13*
X132700000Y-100050000D03*
X134700000Y-100050000D03*
X136700000Y-100050000D03*
X138700000Y-100050000D03*
D14*
%TO.P,P76,1,B*%
%TO.N,/JA1*%
X132700000Y-99050001D03*
D15*
%TO.P,P76,2,B*%
%TO.N,/JA2*%
X134700000Y-99050000D03*
D14*
%TO.P,P76,3,B*%
%TO.N,/JA3*%
X136700001Y-99050000D03*
D15*
%TO.P,P76,4,B*%
%TO.N,/JA4*%
X138700000Y-99050000D03*
%TD*%
D12*
%TO.P,P83,0,C*%
%TO.N,P23*%
X135700001Y-127800000D03*
D13*
X132700001Y-127550000D03*
X134700001Y-127550000D03*
X136700001Y-127550000D03*
X138700001Y-127550000D03*
D14*
%TO.P,P83,1,B*%
%TO.N,/JA1*%
X132700001Y-126550001D03*
D15*
%TO.P,P83,2,B*%
%TO.N,/JA2*%
X134700001Y-126550000D03*
D14*
%TO.P,P83,3,B*%
%TO.N,/JA3*%
X136700002Y-126550000D03*
D15*
%TO.P,P83,4,B*%
%TO.N,/JA4*%
X138700001Y-126550000D03*
%TD*%
D12*
%TO.P,P77,0,C*%
%TO.N,P17*%
X135700000Y-104300000D03*
D13*
X132700000Y-104050000D03*
X134700000Y-104050000D03*
X136700000Y-104050000D03*
X138700000Y-104050000D03*
D14*
%TO.P,P77,1,B*%
%TO.N,/JA1*%
X132700000Y-103050001D03*
D15*
%TO.P,P77,2,B*%
%TO.N,/JA2*%
X134700000Y-103050000D03*
D14*
%TO.P,P77,3,B*%
%TO.N,/JA3*%
X136700001Y-103050000D03*
D15*
%TO.P,P77,4,B*%
%TO.N,/JA4*%
X138700000Y-103050000D03*
%TD*%
D12*
%TO.P,P80,0,C*%
%TO.N,P20*%
X135700001Y-116000000D03*
D13*
X132700001Y-115750000D03*
X134700001Y-115750000D03*
X136700001Y-115750000D03*
X138700001Y-115750000D03*
D14*
%TO.P,P80,1,B*%
%TO.N,/JA1*%
X132700001Y-114750001D03*
D15*
%TO.P,P80,2,B*%
%TO.N,/JA2*%
X134700001Y-114750000D03*
D14*
%TO.P,P80,3,B*%
%TO.N,/JA3*%
X136700002Y-114750000D03*
D15*
%TO.P,P80,4,B*%
%TO.N,/JA4*%
X138700001Y-114750000D03*
%TD*%
D12*
%TO.P,P75,0,C*%
%TO.N,P15*%
X135700000Y-96400001D03*
D13*
X132700000Y-96150001D03*
X134700000Y-96150001D03*
X136700000Y-96150001D03*
X138700000Y-96150001D03*
D14*
%TO.P,P75,1,B*%
%TO.N,/JA1*%
X132700000Y-95150002D03*
D15*
%TO.P,P75,2,B*%
%TO.N,/JA2*%
X134700000Y-95150001D03*
D14*
%TO.P,P75,3,B*%
%TO.N,/JA3*%
X136700001Y-95150001D03*
D15*
%TO.P,P75,4,B*%
%TO.N,/JA4*%
X138700000Y-95150001D03*
%TD*%
D12*
%TO.P,P88,0,C*%
%TO.N,P28*%
X135700000Y-147400000D03*
D13*
X132700000Y-147150000D03*
X134700000Y-147150000D03*
X136700000Y-147150000D03*
X138700000Y-147150000D03*
D14*
%TO.P,P88,1,B*%
%TO.N,/JA1*%
X132700000Y-146150001D03*
D15*
%TO.P,P88,2,B*%
%TO.N,/JA2*%
X134700000Y-146150000D03*
D14*
%TO.P,P88,3,B*%
%TO.N,/JA3*%
X136700001Y-146150000D03*
D15*
%TO.P,P88,4,B*%
%TO.N,/JA4*%
X138700000Y-146150000D03*
%TD*%
D12*
%TO.P,P61,0,C*%
%TO.N,P1*%
X125400000Y-60550000D03*
D14*
%TO.P,P61,1,B*%
%TO.N,/JA1*%
X122400000Y-59500000D03*
D15*
%TO.P,P61,2,B*%
%TO.N,/JA2*%
X124400000Y-59499999D03*
D14*
%TO.P,P61,3,B*%
%TO.N,/JA3*%
X126400000Y-59500000D03*
D15*
%TO.P,P61,4,B*%
%TO.N,/JA4*%
X128400000Y-59500000D03*
%TD*%
D12*
%TO.P,P84,0,C*%
%TO.N,P24*%
X135700000Y-131700000D03*
D13*
X132700000Y-131450000D03*
X134700000Y-131450000D03*
X136700000Y-131450000D03*
X138700000Y-131450000D03*
D14*
%TO.P,P84,1,B*%
%TO.N,/JA1*%
X132700000Y-130450001D03*
D15*
%TO.P,P84,2,B*%
%TO.N,/JA2*%
X134700000Y-130450000D03*
D14*
%TO.P,P84,3,B*%
%TO.N,/JA3*%
X136700001Y-130450000D03*
D15*
%TO.P,P84,4,B*%
%TO.N,/JA4*%
X138700000Y-130450000D03*
%TD*%
D12*
%TO.P,P72,0,C*%
%TO.N,P12*%
X135700000Y-84650000D03*
D13*
X132700000Y-84400000D03*
X134700000Y-84400000D03*
X136700000Y-84400000D03*
X138700000Y-84400000D03*
D14*
%TO.P,P72,1,B*%
%TO.N,/JA1*%
X132700000Y-83400001D03*
D15*
%TO.P,P72,2,B*%
%TO.N,/JA2*%
X134700000Y-83400000D03*
D14*
%TO.P,P72,3,B*%
%TO.N,/JA3*%
X136700001Y-83400000D03*
D15*
%TO.P,P72,4,B*%
%TO.N,/JA4*%
X138700000Y-83400000D03*
%TD*%
D12*
%TO.P,P86,0,C*%
%TO.N,P26*%
X135700000Y-139500000D03*
D13*
X132700000Y-139250000D03*
X134700000Y-139250000D03*
X136700000Y-139250000D03*
X138700000Y-139250000D03*
D14*
%TO.P,P86,1,B*%
%TO.N,/JA1*%
X132700000Y-138250001D03*
D15*
%TO.P,P86,2,B*%
%TO.N,/JA2*%
X134700000Y-138250000D03*
D14*
%TO.P,P86,3,B*%
%TO.N,/JA3*%
X136700001Y-138250000D03*
D15*
%TO.P,P86,4,B*%
%TO.N,/JA4*%
X138700000Y-138250000D03*
%TD*%
D12*
%TO.P,P71,0,C*%
%TO.N,P11*%
X135700000Y-80650001D03*
D13*
X132700000Y-80400001D03*
X134700000Y-80400001D03*
X136700000Y-80400001D03*
X138700000Y-80400001D03*
D14*
%TO.P,P71,1,B*%
%TO.N,/JA1*%
X132700000Y-79400002D03*
D15*
%TO.P,P71,2,B*%
%TO.N,/JA2*%
X134700000Y-79400001D03*
D14*
%TO.P,P71,3,B*%
%TO.N,/JA3*%
X136700001Y-79400001D03*
D15*
%TO.P,P71,4,B*%
%TO.N,/JA4*%
X138700000Y-79400001D03*
%TD*%
D10*
%TO.P,J13,1,Pin_1*%
%TO.N,/B1*%
X116551823Y-52338589D03*
D11*
%TO.P,J13,2,Pin_2*%
X114011823Y-52338589D03*
%TO.P,J13,3,Pin_3*%
%TO.N,/B2*%
X116551823Y-54878589D03*
%TO.P,J13,4,Pin_4*%
X114011823Y-54878589D03*
%TO.P,J13,5,Pin_5*%
%TO.N,/B3*%
X116551823Y-57418589D03*
%TO.P,J13,6,Pin_6*%
X114011823Y-57418589D03*
%TO.P,J13,7,Pin_7*%
%TO.N,/B4*%
X116551823Y-59958589D03*
%TO.P,J13,8,Pin_8*%
X114011823Y-59958589D03*
%TO.P,J13,9,Pin_9*%
%TO.N,/B5*%
X116551823Y-62498589D03*
%TO.P,J13,10,Pin_10*%
X114011823Y-62498589D03*
%TO.P,J13,11,Pin_11*%
%TO.N,P2*%
X116551823Y-65038589D03*
%TO.P,J13,12,Pin_12*%
X114011823Y-65038589D03*
%TO.P,J13,13,Pin_13*%
%TO.N,P3*%
X116551823Y-67578589D03*
%TO.P,J13,14,Pin_14*%
X114011823Y-67578589D03*
%TO.P,J13,15,Pin_15*%
%TO.N,P4*%
X116551823Y-70118589D03*
%TO.P,J13,16,Pin_16*%
X114011823Y-70118589D03*
%TO.P,J13,17,Pin_17*%
%TO.N,P5*%
X116551823Y-72658589D03*
%TO.P,J13,18,Pin_18*%
X114011823Y-72658589D03*
%TO.P,J13,19,Pin_19*%
%TO.N,P6*%
X116551823Y-75198589D03*
%TO.P,J13,20,Pin_20*%
X114011823Y-75198589D03*
%TO.P,J13,21,Pin_21*%
%TO.N,P7*%
X116551823Y-77738589D03*
%TO.P,J13,22,Pin_22*%
X114011823Y-77738589D03*
%TO.P,J13,23,Pin_23*%
%TO.N,P8*%
X116551823Y-80278589D03*
%TO.P,J13,24,Pin_24*%
X114011823Y-80278589D03*
%TO.P,J13,25,Pin_25*%
%TO.N,P9*%
X116551823Y-82818589D03*
%TO.P,J13,26,Pin_26*%
X114011823Y-82818589D03*
%TO.P,J13,27,Pin_27*%
%TO.N,P10*%
X116551823Y-85358589D03*
%TO.P,J13,28,Pin_28*%
X114011823Y-85358589D03*
%TO.P,J13,29,Pin_29*%
%TO.N,P11*%
X116551823Y-87898589D03*
%TO.P,J13,30,Pin_30*%
X114011823Y-87898589D03*
%TO.P,J13,31,Pin_31*%
%TO.N,P12*%
X116551823Y-90438589D03*
%TO.P,J13,32,Pin_32*%
X114011823Y-90438589D03*
%TO.P,J13,33,Pin_33*%
%TO.N,P13*%
X116551823Y-92978589D03*
%TO.P,J13,34,Pin_34*%
X114011823Y-92978589D03*
%TO.P,J13,35,Pin_35*%
%TO.N,P14*%
X116551823Y-95518589D03*
%TO.P,J13,36,Pin_36*%
X114011823Y-95518589D03*
%TO.P,J13,37,Pin_37*%
%TO.N,P15*%
X116551823Y-98058589D03*
%TO.P,J13,38,Pin_38*%
X114011823Y-98058589D03*
%TO.P,J13,39,Pin_39*%
%TO.N,P16*%
X116551823Y-100598589D03*
%TO.P,J13,40,Pin_40*%
X114011823Y-100598589D03*
%TO.P,J13,41,Pin_41*%
%TO.N,P17*%
X116551823Y-103138589D03*
%TO.P,J13,42,Pin_42*%
X114011823Y-103138589D03*
%TO.P,J13,43,Pin_43*%
%TO.N,P18*%
X116551823Y-105678589D03*
%TO.P,J13,44,Pin_44*%
X114011823Y-105678589D03*
%TO.P,J13,45,Pin_45*%
%TO.N,P19*%
X116551823Y-108218589D03*
%TO.P,J13,46,Pin_46*%
X114011823Y-108218589D03*
%TO.P,J13,47,Pin_47*%
%TO.N,P20*%
X116551823Y-110758589D03*
%TO.P,J13,48,Pin_48*%
X114011823Y-110758589D03*
%TO.P,J13,49,Pin_49*%
%TO.N,P21*%
X116551823Y-113298589D03*
%TO.P,J13,50,Pin_50*%
X114011823Y-113298589D03*
%TO.P,J13,51,Pin_51*%
%TO.N,P22*%
X116551823Y-115838589D03*
%TO.P,J13,52,Pin_52*%
X114011823Y-115838589D03*
%TO.P,J13,53,Pin_53*%
%TO.N,P23*%
X116551823Y-118378589D03*
%TO.P,J13,54,Pin_54*%
X114011823Y-118378589D03*
%TO.P,J13,55,Pin_55*%
%TO.N,P24*%
X116551823Y-120918589D03*
%TO.P,J13,56,Pin_56*%
X114011823Y-120918589D03*
%TO.P,J13,57,Pin_57*%
%TO.N,P25*%
X116551823Y-123458589D03*
%TO.P,J13,58,Pin_58*%
X114011823Y-123458589D03*
%TO.P,J13,59,Pin_59*%
%TO.N,P26*%
X116551823Y-125998589D03*
%TO.P,J13,60,Pin_60*%
X114011823Y-125998589D03*
%TO.P,J13,61,Pin_61*%
%TO.N,P27*%
X116551823Y-128538589D03*
%TO.P,J13,62,Pin_62*%
X114011823Y-128538589D03*
%TO.P,J13,63,Pin_63*%
%TO.N,P28*%
X116551823Y-131078589D03*
%TO.P,J13,64,Pin_64*%
X114011823Y-131078589D03*
%TO.P,J13,65,Pin_65*%
%TO.N,P29*%
X116551823Y-133618589D03*
%TO.P,J13,66,Pin_66*%
X114011823Y-133618589D03*
%TO.P,J13,67,Pin_67*%
%TO.N,P30*%
X116551823Y-136158589D03*
%TO.P,J13,68,Pin_68*%
X114011823Y-136158589D03*
%TO.P,J13,69,Pin_69*%
%TO.N,/B35*%
X116551823Y-138698589D03*
%TO.P,J13,70,Pin_70*%
X114011823Y-138698589D03*
%TO.P,J13,71,Pin_71*%
%TO.N,/B36*%
X116551823Y-141238589D03*
%TO.P,J13,72,Pin_72*%
X114011823Y-141238589D03*
%TO.P,J13,73,Pin_73*%
%TO.N,/B37*%
X116551823Y-143778589D03*
%TO.P,J13,74,Pin_74*%
X114011823Y-143778589D03*
%TO.P,J13,75,Pin_75*%
%TO.N,/B38*%
X116551823Y-146318589D03*
%TO.P,J13,76,Pin_76*%
X114011823Y-146318589D03*
%TD*%
D10*
%TO.P,J15,1,Pin_1*%
%TO.N,P1*%
X128100823Y-63950000D03*
D11*
%TO.P,J15,2,Pin_2*%
X125560823Y-63950000D03*
%TO.P,J15,3,Pin_3*%
%TO.N,P2*%
X128100823Y-66490000D03*
%TO.P,J15,4,Pin_4*%
X125560823Y-66490000D03*
%TO.P,J15,5,Pin_5*%
%TO.N,P3*%
X128100823Y-69029999D03*
%TO.P,J15,6,Pin_6*%
X125560823Y-69030000D03*
%TO.P,J15,7,Pin_7*%
%TO.N,P4*%
X128100823Y-71570000D03*
%TO.P,J15,8,Pin_8*%
X125560823Y-71570000D03*
%TO.P,J15,9,Pin_9*%
%TO.N,P5*%
X128100823Y-74110000D03*
%TO.P,J15,10,Pin_10*%
X125560823Y-74110000D03*
%TO.P,J15,11,Pin_11*%
%TO.N,P6*%
X128100823Y-76650000D03*
%TO.P,J15,12,Pin_12*%
X125560823Y-76650000D03*
%TO.P,J15,13,Pin_13*%
%TO.N,P7*%
X128100823Y-79190000D03*
%TO.P,J15,14,Pin_14*%
X125560823Y-79190000D03*
%TO.P,J15,15,Pin_15*%
%TO.N,P8*%
X128100823Y-81730001D03*
%TO.P,J15,16,Pin_16*%
X125560823Y-81730000D03*
%TO.P,J15,17,Pin_17*%
%TO.N,P9*%
X128100823Y-84270000D03*
%TO.P,J15,18,Pin_18*%
X125560823Y-84270000D03*
%TO.P,J15,19,Pin_19*%
%TO.N,P10*%
X128100823Y-86810000D03*
%TO.P,J15,20,Pin_20*%
X125560823Y-86810000D03*
%TO.P,J15,21,Pin_21*%
%TO.N,P11*%
X128100823Y-89350000D03*
%TO.P,J15,22,Pin_22*%
X125560823Y-89350000D03*
%TO.P,J15,23,Pin_23*%
%TO.N,P12*%
X128100823Y-91889999D03*
%TO.P,J15,24,Pin_24*%
X125560823Y-91890000D03*
%TO.P,J15,25,Pin_25*%
%TO.N,P13*%
X128100823Y-94430000D03*
%TO.P,J15,26,Pin_26*%
X125560823Y-94430000D03*
%TO.P,J15,27,Pin_27*%
%TO.N,P14*%
X128100823Y-96970000D03*
%TO.P,J15,28,Pin_28*%
X125560823Y-96970000D03*
%TO.P,J15,29,Pin_29*%
%TO.N,P15*%
X128100823Y-99510000D03*
%TO.P,J15,30,Pin_30*%
X125560823Y-99510000D03*
%TO.P,J15,31,Pin_31*%
%TO.N,P16*%
X128100823Y-102049999D03*
%TO.P,J15,32,Pin_32*%
X125560823Y-102050000D03*
%TO.P,J15,33,Pin_33*%
%TO.N,P17*%
X128100823Y-104590001D03*
%TO.P,J15,34,Pin_34*%
X125560823Y-104590000D03*
%TO.P,J15,35,Pin_35*%
%TO.N,P18*%
X128100823Y-107130000D03*
%TO.P,J15,36,Pin_36*%
X125560823Y-107130000D03*
%TO.P,J15,37,Pin_37*%
%TO.N,P19*%
X128100823Y-109670000D03*
%TO.P,J15,38,Pin_38*%
X125560823Y-109670000D03*
%TO.P,J15,39,Pin_39*%
%TO.N,P20*%
X128100823Y-112210000D03*
%TO.P,J15,40,Pin_40*%
X125560823Y-112210000D03*
%TO.P,J15,41,Pin_41*%
%TO.N,P21*%
X128100823Y-114749999D03*
%TO.P,J15,42,Pin_42*%
X125560823Y-114750000D03*
%TO.P,J15,43,Pin_43*%
%TO.N,P22*%
X128100823Y-117290000D03*
%TO.P,J15,44,Pin_44*%
X125560823Y-117290000D03*
%TO.P,J15,45,Pin_45*%
%TO.N,P23*%
X128100823Y-119830000D03*
%TO.P,J15,46,Pin_46*%
X125560823Y-119830000D03*
%TO.P,J15,47,Pin_47*%
%TO.N,P24*%
X128100823Y-122370000D03*
%TO.P,J15,48,Pin_48*%
X125560823Y-122370000D03*
%TO.P,J15,49,Pin_49*%
%TO.N,P25*%
X128100823Y-124909999D03*
%TO.P,J15,50,Pin_50*%
X125560823Y-124910000D03*
%TO.P,J15,51,Pin_51*%
%TO.N,P26*%
X128100823Y-127450001D03*
%TO.P,J15,52,Pin_52*%
X125560823Y-127450000D03*
%TO.P,J15,53,Pin_53*%
%TO.N,P27*%
X128100823Y-129990000D03*
%TO.P,J15,54,Pin_54*%
X125560823Y-129990000D03*
%TO.P,J15,55,Pin_55*%
%TO.N,P28*%
X128100823Y-132530000D03*
%TO.P,J15,56,Pin_56*%
X125560823Y-132530000D03*
%TO.P,J15,57,Pin_57*%
%TO.N,P29*%
X128100823Y-135070000D03*
%TO.P,J15,58,Pin_58*%
X125560823Y-135070000D03*
%TO.P,J15,59,Pin_59*%
%TO.N,P30*%
X128100823Y-137610001D03*
%TO.P,J15,60,Pin_60*%
X125560823Y-137610000D03*
%TD*%
D10*
%TO.P,J12,1,Pin_1*%
%TO.N,P1*%
X123000823Y-63930001D03*
D11*
%TO.P,J12,2,Pin_2*%
%TO.N,P2*%
X123000823Y-66470001D03*
%TO.P,J12,3,Pin_3*%
%TO.N,P3*%
X123000823Y-69010000D03*
%TO.P,J12,4,Pin_4*%
%TO.N,P4*%
X123000823Y-71550001D03*
%TO.P,J12,5,Pin_5*%
%TO.N,P5*%
X123000823Y-74090001D03*
%TO.P,J12,6,Pin_6*%
%TO.N,P6*%
X123000823Y-76630001D03*
%TO.P,J12,7,Pin_7*%
%TO.N,P7*%
X123000823Y-79170001D03*
%TO.P,J12,8,Pin_8*%
%TO.N,P8*%
X123000823Y-81710002D03*
%TO.P,J12,9,Pin_9*%
%TO.N,P9*%
X123000823Y-84250001D03*
%TO.P,J12,10,Pin_10*%
%TO.N,P10*%
X123000823Y-86790001D03*
%TO.P,J12,11,Pin_11*%
%TO.N,P11*%
X123000823Y-89330001D03*
%TO.P,J12,12,Pin_12*%
%TO.N,P12*%
X123000823Y-91870000D03*
%TO.P,J12,13,Pin_13*%
%TO.N,P13*%
X123000823Y-94410001D03*
%TO.P,J12,14,Pin_14*%
%TO.N,P14*%
X123000823Y-96950001D03*
%TO.P,J12,15,Pin_15*%
%TO.N,P15*%
X123000823Y-99490001D03*
%TO.P,J12,16,Pin_16*%
%TO.N,P16*%
X123000823Y-102030000D03*
%TO.P,J12,17,Pin_17*%
%TO.N,P17*%
X123000823Y-104570002D03*
%TO.P,J12,18,Pin_18*%
%TO.N,P18*%
X123000823Y-107110001D03*
%TO.P,J12,19,Pin_19*%
%TO.N,P19*%
X123000823Y-109650001D03*
%TO.P,J12,20,Pin_20*%
%TO.N,P20*%
X123000823Y-112190001D03*
%TO.P,J12,21,Pin_21*%
%TO.N,P21*%
X123000823Y-114730000D03*
%TO.P,J12,22,Pin_22*%
%TO.N,P22*%
X123000823Y-117270001D03*
%TO.P,J12,23,Pin_23*%
%TO.N,P23*%
X123000823Y-119810001D03*
%TO.P,J12,24,Pin_24*%
%TO.N,P24*%
X123000823Y-122350001D03*
%TO.P,J12,25,Pin_25*%
%TO.N,P25*%
X123000823Y-124890000D03*
%TO.P,J12,26,Pin_26*%
%TO.N,P26*%
X123000823Y-127430002D03*
%TO.P,J12,27,Pin_27*%
%TO.N,P27*%
X123000823Y-129970001D03*
%TO.P,J12,28,Pin_28*%
%TO.N,P28*%
X123000823Y-132510001D03*
%TO.P,J12,29,Pin_29*%
%TO.N,P29*%
X123000823Y-135050001D03*
%TO.P,J12,30,Pin_30*%
%TO.N,P30*%
X123000823Y-137590002D03*
%TD*%
D12*
%TO.P,P70,0,C*%
%TO.N,P10*%
X135700000Y-76750000D03*
D13*
X132700000Y-76500000D03*
X134700000Y-76500000D03*
X136700000Y-76500000D03*
X138700000Y-76500000D03*
D14*
%TO.P,P70,1,B*%
%TO.N,/JA1*%
X132700000Y-75500001D03*
D15*
%TO.P,P70,2,B*%
%TO.N,/JA2*%
X134700000Y-75500000D03*
D14*
%TO.P,P70,3,B*%
%TO.N,/JA3*%
X136700001Y-75500000D03*
D15*
%TO.P,P70,4,B*%
%TO.N,/JA4*%
X138700000Y-75500000D03*
%TD*%
D12*
%TO.P,P64,0,C*%
%TO.N,P4*%
X135700001Y-52750000D03*
D13*
X132700001Y-52500000D03*
X134700001Y-52500000D03*
X136700001Y-52500000D03*
X138700001Y-52500000D03*
D14*
%TO.P,P64,1,B*%
%TO.N,/JA1*%
X132700001Y-51500001D03*
D15*
%TO.P,P64,2,B*%
%TO.N,/JA2*%
X134700001Y-51500000D03*
D14*
%TO.P,P64,3,B*%
%TO.N,/JA3*%
X136700002Y-51500000D03*
D15*
%TO.P,P64,4,B*%
%TO.N,/JA4*%
X138700001Y-51500000D03*
%TD*%
D12*
%TO.P,P63,0,C*%
%TO.N,P3*%
X125400000Y-52500000D03*
D14*
%TO.P,P63,1,B*%
%TO.N,/JA1*%
X122400000Y-51450000D03*
D15*
%TO.P,P63,2,B*%
%TO.N,/JA2*%
X124400000Y-51449999D03*
D14*
%TO.P,P63,3,B*%
%TO.N,/JA3*%
X126400000Y-51450000D03*
D15*
%TO.P,P63,4,B*%
%TO.N,/JA4*%
X128400000Y-51450000D03*
%TD*%
D12*
%TO.P,P68,0,C*%
%TO.N,P8*%
X135700000Y-68750000D03*
D13*
X132700000Y-68500000D03*
X134700000Y-68500000D03*
X136700000Y-68500000D03*
X138700000Y-68500000D03*
D14*
%TO.P,P68,1,B*%
%TO.N,/JA1*%
X132700000Y-67500001D03*
D15*
%TO.P,P68,2,B*%
%TO.N,/JA2*%
X134700000Y-67500000D03*
D14*
%TO.P,P68,3,B*%
%TO.N,/JA3*%
X136700001Y-67500000D03*
D15*
%TO.P,P68,4,B*%
%TO.N,/JA4*%
X138700000Y-67500000D03*
%TD*%
D10*
%TO.P,J11,1,Pin_1*%
%TO.N,/B1*%
X119651823Y-52318589D03*
D11*
%TO.P,J11,2,Pin_2*%
%TO.N,/B2*%
X119651823Y-54858589D03*
%TO.P,J11,3,Pin_3*%
%TO.N,/B3*%
X119651823Y-57398589D03*
%TO.P,J11,4,Pin_4*%
%TO.N,/B4*%
X119651823Y-59938589D03*
%TO.P,J11,5,Pin_5*%
%TO.N,/B5*%
X119651823Y-62478589D03*
%TO.P,J11,6,Pin_6*%
%TO.N,P2*%
X119651823Y-65018589D03*
%TO.P,J11,7,Pin_7*%
%TO.N,P3*%
X119651823Y-67558589D03*
%TO.P,J11,8,Pin_8*%
%TO.N,P4*%
X119651823Y-70098589D03*
%TO.P,J11,9,Pin_9*%
%TO.N,P5*%
X119651823Y-72638589D03*
%TO.P,J11,10,Pin_10*%
%TO.N,P6*%
X119651823Y-75178589D03*
%TO.P,J11,11,Pin_11*%
%TO.N,P7*%
X119651823Y-77718589D03*
%TO.P,J11,12,Pin_12*%
%TO.N,P8*%
X119651823Y-80258589D03*
%TO.P,J11,13,Pin_13*%
%TO.N,P9*%
X119651823Y-82798589D03*
%TO.P,J11,14,Pin_14*%
%TO.N,P10*%
X119651823Y-85338589D03*
%TO.P,J11,15,Pin_15*%
%TO.N,P11*%
X119651823Y-87878589D03*
%TO.P,J11,16,Pin_16*%
%TO.N,P12*%
X119651823Y-90418589D03*
%TO.P,J11,17,Pin_17*%
%TO.N,P13*%
X119651823Y-92958589D03*
%TO.P,J11,18,Pin_18*%
%TO.N,P14*%
X119651823Y-95498589D03*
%TO.P,J11,19,Pin_19*%
%TO.N,P15*%
X119651823Y-98038589D03*
%TO.P,J11,20,Pin_20*%
%TO.N,P16*%
X119651823Y-100578589D03*
%TO.P,J11,21,Pin_21*%
%TO.N,P17*%
X119651823Y-103118589D03*
%TO.P,J11,22,Pin_22*%
%TO.N,P18*%
X119651823Y-105658589D03*
%TO.P,J11,23,Pin_23*%
%TO.N,P19*%
X119651823Y-108198589D03*
%TO.P,J11,24,Pin_24*%
%TO.N,P20*%
X119651823Y-110738589D03*
%TO.P,J11,25,Pin_25*%
%TO.N,P21*%
X119651823Y-113278589D03*
%TO.P,J11,26,Pin_26*%
%TO.N,P22*%
X119651823Y-115818589D03*
%TO.P,J11,27,Pin_27*%
%TO.N,P23*%
X119651823Y-118358589D03*
%TO.P,J11,28,Pin_28*%
%TO.N,P24*%
X119651823Y-120898589D03*
%TO.P,J11,29,Pin_29*%
%TO.N,P25*%
X119651823Y-123438589D03*
%TO.P,J11,30,Pin_30*%
%TO.N,P26*%
X119651823Y-125978589D03*
%TO.P,J11,31,Pin_31*%
%TO.N,P27*%
X119651823Y-128518589D03*
%TO.P,J11,32,Pin_32*%
%TO.N,P28*%
X119651823Y-131058589D03*
%TO.P,J11,33,Pin_33*%
%TO.N,P29*%
X119651823Y-133598589D03*
%TO.P,J11,34,Pin_34*%
%TO.N,P30*%
X119651823Y-136138589D03*
%TO.P,J11,35,Pin_35*%
%TO.N,/B35*%
X119651823Y-138678589D03*
%TO.P,J11,36,Pin_36*%
%TO.N,/B36*%
X119651823Y-141218589D03*
%TO.P,J11,37,Pin_37*%
%TO.N,/B37*%
X119651823Y-143758589D03*
%TO.P,J11,38,Pin_38*%
%TO.N,/B38*%
X119651823Y-146298589D03*
%TD*%
D12*
%TO.P,P74,0,C*%
%TO.N,P14*%
X135700001Y-92400000D03*
D13*
X132700001Y-92150000D03*
X134700001Y-92150000D03*
X136700001Y-92150000D03*
X138700001Y-92150000D03*
D14*
%TO.P,P74,1,B*%
%TO.N,/JA1*%
X132700001Y-91150001D03*
D15*
%TO.P,P74,2,B*%
%TO.N,/JA2*%
X134700001Y-91150000D03*
D14*
%TO.P,P74,3,B*%
%TO.N,/JA3*%
X136700002Y-91150000D03*
D15*
%TO.P,P74,4,B*%
%TO.N,/JA4*%
X138700001Y-91150000D03*
%TD*%
D12*
%TO.P,P85,0,C*%
%TO.N,P25*%
X135700000Y-135600000D03*
D13*
X132700000Y-135350000D03*
X134700000Y-135350000D03*
X136700000Y-135350000D03*
X138700000Y-135350000D03*
D14*
%TO.P,P85,1,B*%
%TO.N,/JA1*%
X132700000Y-134350001D03*
D15*
%TO.P,P85,2,B*%
%TO.N,/JA2*%
X134700000Y-134350000D03*
D14*
%TO.P,P85,3,B*%
%TO.N,/JA3*%
X136700001Y-134350000D03*
D15*
%TO.P,P85,4,B*%
%TO.N,/JA4*%
X138700000Y-134350000D03*
%TD*%
D12*
%TO.P,P65,0,C*%
%TO.N,P5*%
X135700000Y-56750001D03*
D13*
X132700000Y-56500001D03*
X134700000Y-56500001D03*
X136700000Y-56500001D03*
X138700000Y-56500001D03*
D14*
%TO.P,P65,1,B*%
%TO.N,/JA1*%
X132700000Y-55500002D03*
D15*
%TO.P,P65,2,B*%
%TO.N,/JA2*%
X134700000Y-55500001D03*
D14*
%TO.P,P65,3,B*%
%TO.N,/JA3*%
X136700001Y-55500001D03*
D15*
%TO.P,P65,4,B*%
%TO.N,/JA4*%
X138700000Y-55500001D03*
%TD*%
D12*
%TO.P,P73,0,C*%
%TO.N,P13*%
X135700000Y-88500000D03*
D13*
X132700000Y-88250000D03*
X134700000Y-88250000D03*
X136700000Y-88250000D03*
X138700000Y-88250000D03*
D14*
%TO.P,P73,1,B*%
%TO.N,/JA1*%
X132700000Y-87250001D03*
D15*
%TO.P,P73,2,B*%
%TO.N,/JA2*%
X134700000Y-87250000D03*
D14*
%TO.P,P73,3,B*%
%TO.N,/JA3*%
X136700001Y-87250000D03*
D15*
%TO.P,P73,4,B*%
%TO.N,/JA4*%
X138700000Y-87250000D03*
%TD*%
D12*
%TO.P,P90,0,C*%
%TO.N,P30*%
X125424999Y-147100001D03*
D14*
%TO.P,P90,1,B*%
%TO.N,/JA1*%
X122424999Y-146050001D03*
D15*
%TO.P,P90,2,B*%
%TO.N,/JA2*%
X124424999Y-146050000D03*
D14*
%TO.P,P90,3,B*%
%TO.N,/JA3*%
X126424999Y-146050001D03*
D15*
%TO.P,P90,4,B*%
%TO.N,/JA4*%
X128424999Y-146050001D03*
%TD*%
D12*
%TO.P,P89,0,C*%
%TO.N,P29*%
X125400000Y-143200000D03*
D14*
%TO.P,P89,1,B*%
%TO.N,/JA1*%
X122400000Y-142150000D03*
D15*
%TO.P,P89,2,B*%
%TO.N,/JA2*%
X124400000Y-142149999D03*
D14*
%TO.P,P89,3,B*%
%TO.N,/JA3*%
X126400000Y-142150000D03*
D15*
%TO.P,P89,4,B*%
%TO.N,/JA4*%
X128400000Y-142150000D03*
%TD*%
D12*
%TO.P,P62,0,C*%
%TO.N,P2*%
X125400000Y-56585000D03*
D14*
%TO.P,P62,1,B*%
%TO.N,/JA1*%
X122400000Y-55535000D03*
D15*
%TO.P,P62,2,B*%
%TO.N,/JA2*%
X124400000Y-55534999D03*
D14*
%TO.P,P62,3,B*%
%TO.N,/JA3*%
X126400000Y-55535000D03*
D15*
%TO.P,P62,4,B*%
%TO.N,/JA4*%
X128400000Y-55535000D03*
%TD*%
D12*
%TO.P,P87,0,C*%
%TO.N,P27*%
X135700000Y-143500000D03*
D13*
X132700000Y-143250000D03*
X134700000Y-143250000D03*
X136700000Y-143250000D03*
X138700000Y-143250000D03*
D14*
%TO.P,P87,1,B*%
%TO.N,/JA1*%
X132700000Y-142250001D03*
D15*
%TO.P,P87,2,B*%
%TO.N,/JA2*%
X134700000Y-142250000D03*
D14*
%TO.P,P87,3,B*%
%TO.N,/JA3*%
X136700001Y-142250000D03*
D15*
%TO.P,P87,4,B*%
%TO.N,/JA4*%
X138700000Y-142250000D03*
%TD*%
D10*
%TO.P,J14,1,Pin_1*%
%TO.N,/B1*%
X110011823Y-52338589D03*
D11*
%TO.P,J14,2,Pin_2*%
%TO.N,/B2*%
X110011823Y-54878589D03*
%TO.P,J14,3,Pin_3*%
%TO.N,/B3*%
X110011823Y-57418589D03*
%TO.P,J14,4,Pin_4*%
%TO.N,/B4*%
X110011823Y-59958589D03*
%TO.P,J14,5,Pin_5*%
%TO.N,/B5*%
X110011823Y-62498589D03*
%TO.P,J14,6,Pin_6*%
%TO.N,P2*%
X110011823Y-65038589D03*
%TO.P,J14,7,Pin_7*%
%TO.N,P3*%
X110011823Y-67578589D03*
%TO.P,J14,8,Pin_8*%
%TO.N,P4*%
X110011823Y-70118589D03*
%TO.P,J14,9,Pin_9*%
%TO.N,P5*%
X110011823Y-72658589D03*
%TO.P,J14,10,Pin_10*%
%TO.N,P6*%
X110011823Y-75198589D03*
%TO.P,J14,11,Pin_11*%
%TO.N,P7*%
X110011823Y-77738589D03*
%TO.P,J14,12,Pin_12*%
%TO.N,P8*%
X110011823Y-80278589D03*
%TO.P,J14,13,Pin_13*%
%TO.N,P9*%
X110011823Y-82818589D03*
%TO.P,J14,14,Pin_14*%
%TO.N,P10*%
X110011823Y-85358589D03*
%TO.P,J14,15,Pin_15*%
%TO.N,P11*%
X110011823Y-87898589D03*
%TO.P,J14,16,Pin_16*%
%TO.N,P12*%
X110011823Y-90438589D03*
%TO.P,J14,17,Pin_17*%
%TO.N,P13*%
X110011823Y-92978589D03*
%TO.P,J14,18,Pin_18*%
%TO.N,P14*%
X110011823Y-95518589D03*
%TO.P,J14,19,Pin_19*%
%TO.N,P15*%
X110011823Y-98058589D03*
%TO.P,J14,20,Pin_20*%
%TO.N,P16*%
X110011823Y-100598589D03*
%TO.P,J14,21,Pin_21*%
%TO.N,P17*%
X110011823Y-103138589D03*
%TO.P,J14,22,Pin_22*%
%TO.N,P18*%
X110011823Y-105678589D03*
%TO.P,J14,23,Pin_23*%
%TO.N,P19*%
X110011823Y-108218589D03*
%TO.P,J14,24,Pin_24*%
%TO.N,P20*%
X110011823Y-110758589D03*
%TO.P,J14,25,Pin_25*%
%TO.N,P21*%
X110011823Y-113298589D03*
%TO.P,J14,26,Pin_26*%
%TO.N,P22*%
X110011823Y-115838589D03*
%TO.P,J14,27,Pin_27*%
%TO.N,P23*%
X110011823Y-118378589D03*
%TO.P,J14,28,Pin_28*%
%TO.N,P24*%
X110011823Y-120918589D03*
%TO.P,J14,29,Pin_29*%
%TO.N,P25*%
X110011823Y-123458589D03*
%TO.P,J14,30,Pin_30*%
%TO.N,P26*%
X110011823Y-125998589D03*
%TO.P,J14,31,Pin_31*%
%TO.N,P27*%
X110011823Y-128538589D03*
%TO.P,J14,32,Pin_32*%
%TO.N,P28*%
X110011823Y-131078589D03*
%TO.P,J14,33,Pin_33*%
%TO.N,P29*%
X110011823Y-133618589D03*
%TO.P,J14,34,Pin_34*%
%TO.N,P30*%
X110011823Y-136158589D03*
%TO.P,J14,35,Pin_35*%
%TO.N,/B35*%
X110011823Y-138698589D03*
%TO.P,J14,36,Pin_36*%
%TO.N,/B36*%
X110011823Y-141238589D03*
%TO.P,J14,37,Pin_37*%
%TO.N,/B37*%
X110011823Y-143778589D03*
%TO.P,J14,38,Pin_38*%
%TO.N,/B38*%
X110011823Y-146318589D03*
%TD*%
D12*
%TO.P,P79,0,C*%
%TO.N,P19*%
X135700000Y-112100000D03*
D13*
X132700000Y-111850000D03*
X134700000Y-111850000D03*
X136700000Y-111850000D03*
X138700000Y-111850000D03*
D14*
%TO.P,P79,1,B*%
%TO.N,/JA1*%
X132700000Y-110850001D03*
D15*
%TO.P,P79,2,B*%
%TO.N,/JA2*%
X134700000Y-110850000D03*
D14*
%TO.P,P79,3,B*%
%TO.N,/JA3*%
X136700001Y-110850000D03*
D15*
%TO.P,P79,4,B*%
%TO.N,/JA4*%
X138700000Y-110850000D03*
%TD*%
D12*
%TO.P,P69,0,C*%
%TO.N,P9*%
X135700000Y-72750000D03*
D13*
X132700000Y-72500000D03*
X134700000Y-72500000D03*
X136700000Y-72500000D03*
X138700000Y-72500000D03*
D14*
%TO.P,P69,1,B*%
%TO.N,/JA1*%
X132700000Y-71500001D03*
D15*
%TO.P,P69,2,B*%
%TO.N,/JA2*%
X134700000Y-71500000D03*
D14*
%TO.P,P69,3,B*%
%TO.N,/JA3*%
X136700001Y-71500000D03*
D15*
%TO.P,P69,4,B*%
%TO.N,/JA4*%
X138700000Y-71500000D03*
%TD*%
D12*
%TO.P,P81,0,C*%
%TO.N,P21*%
X135700000Y-119900000D03*
D13*
X132700000Y-119650000D03*
X134700000Y-119650000D03*
X136700000Y-119650000D03*
X138700000Y-119650000D03*
D14*
%TO.P,P81,1,B*%
%TO.N,/JA1*%
X132700000Y-118650001D03*
D15*
%TO.P,P81,2,B*%
%TO.N,/JA2*%
X134700000Y-118650000D03*
D14*
%TO.P,P81,3,B*%
%TO.N,/JA3*%
X136700001Y-118650000D03*
D15*
%TO.P,P81,4,B*%
%TO.N,/JA4*%
X138700000Y-118650000D03*
%TD*%
D16*
%TO.N,P25*%
X98900000Y-136250000D03*
%TO.N,P30*%
X88900000Y-147950000D03*
%TO.N,P3*%
X88400001Y-53150000D03*
%TO.N,P8*%
X98700000Y-69450000D03*
%TO.N,P4*%
X97500000Y-53750000D03*
%TO.N,P27*%
X98300000Y-143150000D03*
%TO.N,P10*%
X98700000Y-78050000D03*
%TO.N,P12*%
X98000001Y-85850000D03*
%TO.N,P6*%
X98000000Y-61150000D03*
%TO.N,/JA1*%
X99900000Y-105950000D03*
X99900000Y-141250000D03*
X99900000Y-98050000D03*
X99900000Y-125550001D03*
X99900000Y-70550001D03*
X99900000Y-133350001D03*
X99900000Y-109850000D03*
X99900000Y-137250000D03*
X99900000Y-145150001D03*
X99900000Y-78450000D03*
X99900000Y-121550001D03*
X99900000Y-74550000D03*
X99900000Y-62650000D03*
X99900000Y-66650000D03*
X99900000Y-58550000D03*
X99900000Y-102050000D03*
X89399999Y-145300001D03*
X99900000Y-94150001D03*
X89400000Y-54550000D03*
X99900000Y-86250000D03*
X98423000Y-51750000D03*
X89400000Y-50611001D03*
X100400000Y-129450000D03*
X99900000Y-82450000D03*
X99900000Y-113750001D03*
X99900000Y-117650000D03*
X99900000Y-54550000D03*
X89400000Y-58550000D03*
X99900000Y-90150001D03*
X89399999Y-141300001D03*
%TO.N,P23*%
X98700000Y-128950001D03*
%TO.N,/JA2*%
X91400000Y-50611001D03*
X101700001Y-82450000D03*
X101700000Y-70550001D03*
X101700000Y-54550000D03*
X101700000Y-94150001D03*
X101700001Y-133350000D03*
X101700001Y-145150000D03*
X101700000Y-109850000D03*
X101249999Y-51499999D03*
X101700001Y-90150000D03*
X91400000Y-141300000D03*
X91400000Y-145200000D03*
X101700001Y-62550000D03*
X101700000Y-129450000D03*
X101700001Y-102050000D03*
X101700000Y-74550000D03*
X101700000Y-113750001D03*
X101700000Y-105950000D03*
X101700000Y-86250000D03*
X91400000Y-54550001D03*
X91400000Y-58550000D03*
X101700001Y-121550000D03*
X101700000Y-125550001D03*
X101700000Y-141250000D03*
X101700000Y-58450001D03*
X101700000Y-137250000D03*
X101700001Y-66550000D03*
X101700000Y-117650000D03*
X101700000Y-78450000D03*
X101700000Y-98050000D03*
%TO.N,/JA4*%
X105100000Y-148349998D03*
X105700000Y-137350000D03*
X105700000Y-82450000D03*
X105700000Y-102150000D03*
X105700000Y-98150000D03*
X105700000Y-109950000D03*
X105700000Y-78450000D03*
X105700000Y-90250000D03*
X95399999Y-141300001D03*
X105700000Y-62550000D03*
X105700000Y-74550000D03*
X105700000Y-121650001D03*
X105700000Y-129550000D03*
X105700000Y-117750000D03*
X105700000Y-54550001D03*
X105700000Y-70550000D03*
X95300000Y-144350000D03*
X105700000Y-133450001D03*
X105700000Y-106050000D03*
X95400000Y-54550001D03*
X105700000Y-58550000D03*
X105700000Y-86350000D03*
X104700000Y-50950000D03*
X105700000Y-94250000D03*
X105700000Y-66550000D03*
X95400000Y-50611001D03*
X105700000Y-113850000D03*
X95400000Y-58550000D03*
X105700000Y-141350000D03*
X105700000Y-145150000D03*
X105700000Y-125650000D03*
%TO.N,/JA3*%
X103700000Y-106050000D03*
X103700000Y-145250000D03*
X93400000Y-58550000D03*
X103700000Y-62550000D03*
X93400000Y-141299999D03*
X103700000Y-70550000D03*
X102700000Y-50950000D03*
X103700000Y-137350000D03*
X103700000Y-74650000D03*
X103700000Y-66550000D03*
X103700000Y-78450000D03*
X103700000Y-109950000D03*
X103700000Y-141350000D03*
X103700000Y-129550000D03*
X103700000Y-58550000D03*
X93400000Y-50611001D03*
X103700000Y-125650000D03*
X103700000Y-133450001D03*
X103700000Y-117750000D03*
X103700000Y-121650001D03*
X93400000Y-145200000D03*
X103700000Y-102150000D03*
X103700000Y-113850000D03*
X103700000Y-82450000D03*
X103700000Y-54550000D03*
X103700000Y-86350000D03*
X103700000Y-98150000D03*
X103700000Y-90250000D03*
X93400000Y-54650000D03*
X103700000Y-94250000D03*
X169700000Y-102150000D03*
%TO.N,/JA2*%
X167700001Y-102050000D03*
%TO.N,/JA3*%
X169700000Y-54550000D03*
X169700000Y-94250000D03*
%TO.N,/JA4*%
X171700000Y-137350000D03*
X171700000Y-94250000D03*
%TO.N,/JA3*%
X159400000Y-50611001D03*
%TO.N,/JA2*%
X167700001Y-62550000D03*
%TO.N,/JA4*%
X171700000Y-90250000D03*
%TO.N,/JA3*%
X169700000Y-117750000D03*
%TO.N,/JA4*%
X171700000Y-117750000D03*
%TO.N,/JA1*%
X165900000Y-105950000D03*
%TO.N,P12*%
X164000001Y-85850000D03*
%TO.N,/JA3*%
X169700000Y-141350000D03*
%TO.N,/JA1*%
X165900000Y-70550001D03*
%TO.N,P25*%
X164900000Y-136250000D03*
%TO.N,/JA2*%
X167700000Y-74550000D03*
%TO.N,/JA3*%
X169700000Y-145250000D03*
%TO.N,/JA2*%
X157400000Y-145200000D03*
%TO.N,/JA1*%
X165900000Y-145150001D03*
%TO.N,P3*%
X154400001Y-53150000D03*
%TO.N,/JA4*%
X171700000Y-106050000D03*
X171700000Y-141350000D03*
%TO.N,/JA2*%
X167700001Y-82450000D03*
%TO.N,/JA4*%
X171700000Y-62550000D03*
%TO.N,/JA1*%
X165900000Y-137250000D03*
%TO.N,/JA2*%
X167700000Y-58450001D03*
%TO.N,/JA1*%
X165900000Y-82450000D03*
X165900000Y-54550000D03*
X165900000Y-66650000D03*
X165900000Y-58550000D03*
%TO.N,/JA4*%
X171700000Y-78450000D03*
%TO.N,/JA3*%
X169700000Y-58550000D03*
%TO.N,/JA4*%
X161400000Y-58550000D03*
X161300000Y-144350000D03*
%TO.N,/JA2*%
X167700001Y-66550000D03*
%TO.N,P10*%
X164700000Y-78050000D03*
%TO.N,/JA4*%
X171700000Y-109950000D03*
%TO.N,/JA3*%
X169700000Y-106050000D03*
%TO.N,/JA2*%
X167700000Y-94150001D03*
X167700000Y-137250000D03*
%TO.N,/JA4*%
X161399999Y-141300001D03*
%TO.N,/JA3*%
X169700000Y-62550000D03*
X169700000Y-86350000D03*
%TO.N,/JA2*%
X167700000Y-117650000D03*
%TO.N,/JA3*%
X169700000Y-121650001D03*
%TO.N,/JA1*%
X155400000Y-54550000D03*
%TO.N,/JA2*%
X157400000Y-58550000D03*
%TO.N,/JA4*%
X171700000Y-145150000D03*
%TO.N,/JA2*%
X167700001Y-121550000D03*
X167700000Y-54550000D03*
%TO.N,P8*%
X164700000Y-69450000D03*
%TO.N,/JA1*%
X165900000Y-98050000D03*
X165900000Y-109850000D03*
X165900000Y-121550001D03*
%TO.N,/JA4*%
X171700000Y-82450000D03*
%TO.N,/JA3*%
X159400000Y-145200000D03*
%TO.N,/JA2*%
X167700001Y-133350000D03*
X157400000Y-54550001D03*
%TO.N,/JA3*%
X169700000Y-113850000D03*
%TO.N,/JA1*%
X165900000Y-141250000D03*
%TO.N,/JA4*%
X171700000Y-86350000D03*
%TO.N,/JA2*%
X167700001Y-90150000D03*
%TO.N,/JA1*%
X155400000Y-58550000D03*
X165900000Y-62650000D03*
X165900000Y-78450000D03*
X166400000Y-129450000D03*
%TO.N,/JA2*%
X167700000Y-125550001D03*
%TO.N,P6*%
X164000000Y-61150000D03*
%TO.N,/JA3*%
X159400000Y-54650000D03*
%TO.N,/JA2*%
X157400000Y-50611001D03*
%TO.N,/JA1*%
X164423000Y-51750000D03*
%TO.N,/JA4*%
X171700000Y-102150000D03*
%TO.N,/JA2*%
X167700000Y-86250000D03*
%TO.N,/JA1*%
X155399999Y-145300001D03*
X165900000Y-117650000D03*
%TO.N,/JA3*%
X169700000Y-109950000D03*
%TO.N,/JA2*%
X167700000Y-98050000D03*
%TO.N,/JA4*%
X171700000Y-54550001D03*
X170700000Y-50950000D03*
%TO.N,/JA2*%
X167700000Y-129450000D03*
%TO.N,/JA3*%
X159400000Y-141299999D03*
%TO.N,/JA2*%
X167700000Y-113750001D03*
%TO.N,/JA4*%
X171700000Y-121650001D03*
%TO.N,/JA3*%
X169700000Y-78450000D03*
%TO.N,/JA2*%
X167700000Y-78450000D03*
%TO.N,/JA1*%
X155400000Y-50611001D03*
X165900000Y-94150001D03*
%TO.N,/JA3*%
X169700000Y-82450000D03*
X169700000Y-70550000D03*
%TO.N,/JA2*%
X157400000Y-141300000D03*
%TO.N,/JA1*%
X155399999Y-141300001D03*
%TO.N,/JA4*%
X171700000Y-133450001D03*
X171700000Y-113850000D03*
%TO.N,/JA2*%
X167700001Y-145150000D03*
%TO.N,/JA4*%
X171700000Y-70550000D03*
%TO.N,P4*%
X163500000Y-53750000D03*
%TO.N,/JA1*%
X165900000Y-102050000D03*
%TO.N,/JA3*%
X169700000Y-129550000D03*
X169700000Y-133450001D03*
X168700000Y-50950000D03*
%TO.N,/JA2*%
X167700000Y-109850000D03*
%TO.N,/JA3*%
X169700000Y-137350000D03*
X169700000Y-125650000D03*
%TO.N,/JA1*%
X165900000Y-133350001D03*
%TO.N,/JA3*%
X169700000Y-90250000D03*
%TO.N,/JA4*%
X171700000Y-74550000D03*
%TO.N,/JA2*%
X167700000Y-105950000D03*
%TO.N,/JA4*%
X171700000Y-125650000D03*
X171700000Y-129550000D03*
X161400000Y-50611001D03*
%TO.N,/JA2*%
X167700000Y-141250000D03*
X167249999Y-51499999D03*
%TO.N,/JA4*%
X171700000Y-98150000D03*
%TO.N,/JA1*%
X165900000Y-86250000D03*
%TO.N,/JA3*%
X169700000Y-74650000D03*
%TO.N,/JA4*%
X171100000Y-148349998D03*
%TO.N,/JA3*%
X159400000Y-58550000D03*
%TO.N,/JA1*%
X165900000Y-74550000D03*
X165900000Y-90150001D03*
X165900000Y-125550001D03*
%TO.N,/JA3*%
X169700000Y-98150000D03*
%TO.N,/JA2*%
X167700000Y-70550001D03*
%TO.N,P30*%
X154900000Y-147950000D03*
%TO.N,/JA4*%
X171700000Y-58550000D03*
%TO.N,/JA3*%
X169700000Y-66550000D03*
%TO.N,P23*%
X164700000Y-128950001D03*
%TO.N,/JA4*%
X161400000Y-54550001D03*
X171700000Y-66550000D03*
%TO.N,P27*%
X164300000Y-143150000D03*
%TO.N,/JA1*%
X165900000Y-113750001D03*
%TO.N,/JA3*%
X126400000Y-54650000D03*
%TO.N,/JA4*%
X138700000Y-86350000D03*
%TO.N,/JA2*%
X134249999Y-51499999D03*
X134700001Y-145150000D03*
%TO.N,/JA3*%
X136700000Y-74650000D03*
%TO.N,/JA2*%
X134700001Y-133350000D03*
%TO.N,P12*%
X131000001Y-85850000D03*
%TO.N,/JA3*%
X135700000Y-50950000D03*
%TO.N,/JA4*%
X138700000Y-121650001D03*
%TO.N,/JA3*%
X136700000Y-137350000D03*
%TO.N,/JA2*%
X134700000Y-137250000D03*
%TO.N,/JA4*%
X138700000Y-98150000D03*
X138700000Y-58550000D03*
%TO.N,/JA2*%
X134700000Y-117650000D03*
X134700000Y-86250000D03*
%TO.N,/JA3*%
X136700000Y-121650001D03*
%TO.N,/JA2*%
X134700000Y-74550000D03*
%TO.N,/JA1*%
X132900000Y-62650000D03*
%TO.N,/JA2*%
X134700000Y-70550001D03*
%TO.N,/JA4*%
X138700000Y-129550000D03*
%TO.N,/JA2*%
X134700001Y-102050000D03*
%TO.N,/JA4*%
X138700000Y-78450000D03*
%TO.N,/JA3*%
X136700000Y-113850000D03*
%TO.N,/JA2*%
X124400000Y-141300000D03*
%TO.N,/JA3*%
X136700000Y-62550000D03*
%TO.N,/JA4*%
X138700000Y-117750000D03*
X138700000Y-133450001D03*
%TO.N,/JA3*%
X136700000Y-145250000D03*
%TO.N,P3*%
X121400001Y-53150000D03*
%TO.N,/JA2*%
X134700001Y-121550000D03*
%TO.N,/JA1*%
X132900000Y-58550000D03*
%TO.N,/JA3*%
X136700000Y-102150000D03*
%TO.N,/JA4*%
X138700000Y-74550000D03*
%TO.N,/JA2*%
X134700000Y-94150001D03*
X134700000Y-129450000D03*
%TO.N,P10*%
X131700000Y-78050000D03*
%TO.N,/JA4*%
X138700000Y-82450000D03*
X137700000Y-50950000D03*
%TO.N,/JA2*%
X134700000Y-125550001D03*
%TO.N,/JA4*%
X138700000Y-90250000D03*
%TO.N,P25*%
X131900000Y-136250000D03*
%TO.N,/JA4*%
X138700000Y-70550000D03*
%TO.N,/JA3*%
X126400000Y-141299999D03*
%TO.N,/JA1*%
X132900000Y-113750001D03*
%TO.N,/JA3*%
X136700000Y-58550000D03*
%TO.N,/JA1*%
X133400000Y-129450000D03*
X132900000Y-66650000D03*
%TO.N,P4*%
X130500000Y-53750000D03*
%TO.N,/JA1*%
X132900000Y-74550000D03*
%TO.N,/JA4*%
X138700000Y-109950000D03*
X138700000Y-62550000D03*
%TO.N,/JA2*%
X134700000Y-109850000D03*
%TO.N,/JA3*%
X136700000Y-106050000D03*
%TO.N,/JA1*%
X132900000Y-141250000D03*
%TO.N,/JA4*%
X138700000Y-102150000D03*
%TO.N,/JA3*%
X136700000Y-78450000D03*
%TO.N,P30*%
X121900000Y-147950000D03*
%TO.N,/JA1*%
X132900000Y-82450000D03*
%TO.N,/JA2*%
X134700000Y-58450001D03*
%TO.N,/JA3*%
X136700000Y-129550000D03*
%TO.N,/JA1*%
X132900000Y-102050000D03*
%TO.N,/JA4*%
X128400000Y-50611001D03*
%TO.N,/JA1*%
X132900000Y-78450000D03*
%TO.N,/JA4*%
X138700000Y-141350000D03*
%TO.N,/JA3*%
X136700000Y-82450000D03*
%TO.N,/JA4*%
X138700000Y-113850000D03*
%TO.N,/JA2*%
X124400000Y-58550000D03*
X134700000Y-98050000D03*
X134700000Y-105950000D03*
%TO.N,/JA1*%
X132900000Y-94150001D03*
X122400000Y-58550000D03*
%TO.N,/JA4*%
X138700000Y-125650000D03*
X128300000Y-144350000D03*
%TO.N,/JA1*%
X132900000Y-137250000D03*
X132900000Y-125550001D03*
%TO.N,/JA2*%
X124400000Y-50611001D03*
%TO.N,/JA3*%
X136700000Y-98150000D03*
%TO.N,/JA1*%
X122399999Y-141300001D03*
%TO.N,/JA3*%
X136700000Y-66550000D03*
%TO.N,/JA4*%
X138700000Y-94250000D03*
%TO.N,/JA1*%
X132900000Y-98050000D03*
%TO.N,/JA2*%
X134700001Y-90150000D03*
%TO.N,P6*%
X131000000Y-61150000D03*
%TO.N,/JA3*%
X126400000Y-58550000D03*
%TO.N,/JA4*%
X128400000Y-54550001D03*
%TO.N,P23*%
X131700000Y-128950001D03*
%TO.N,P8*%
X131700000Y-69450000D03*
%TO.N,/JA1*%
X131423000Y-51750000D03*
%TO.N,/JA3*%
X136700000Y-86350000D03*
X136700000Y-70550000D03*
%TO.N,/JA1*%
X132900000Y-54550000D03*
%TO.N,/JA3*%
X136700000Y-133450001D03*
X136700000Y-141350000D03*
%TO.N,/JA4*%
X138700000Y-66550000D03*
%TO.N,/JA3*%
X136700000Y-90250000D03*
%TO.N,/JA2*%
X134700000Y-54550000D03*
%TO.N,/JA3*%
X136700000Y-94250000D03*
%TO.N,/JA4*%
X128400000Y-58550000D03*
%TO.N,/JA2*%
X134700000Y-78450000D03*
%TO.N,/JA1*%
X132900000Y-105950000D03*
%TO.N,/JA4*%
X138700000Y-145150000D03*
%TO.N,/JA3*%
X126400000Y-145200000D03*
%TO.N,/JA4*%
X138700000Y-137350000D03*
%TO.N,/JA2*%
X124400000Y-145200000D03*
%TO.N,/JA1*%
X132900000Y-86250000D03*
X132900000Y-117650000D03*
%TO.N,/JA2*%
X134700001Y-66550000D03*
%TO.N,/JA1*%
X122399999Y-145300001D03*
%TO.N,/JA4*%
X138100000Y-148349998D03*
X138700000Y-106050000D03*
%TO.N,P27*%
X131300000Y-143150000D03*
%TO.N,/JA4*%
X138700000Y-54550001D03*
%TO.N,/JA2*%
X134700001Y-62550000D03*
%TO.N,/JA1*%
X122400000Y-54550000D03*
%TO.N,/JA3*%
X126400000Y-50611001D03*
X136700000Y-125650000D03*
%TO.N,/JA2*%
X134700000Y-141250000D03*
%TO.N,/JA1*%
X122400000Y-50611001D03*
X132900000Y-145150001D03*
X132900000Y-109850000D03*
%TO.N,/JA3*%
X136700000Y-109950000D03*
%TO.N,/JA2*%
X134700000Y-113750001D03*
X124400000Y-54550001D03*
%TO.N,/JA1*%
X132900000Y-133350001D03*
%TO.N,/JA3*%
X136700000Y-117750000D03*
%TO.N,/JA2*%
X134700001Y-82450000D03*
%TO.N,/JA1*%
X132900000Y-121550001D03*
X132900000Y-70550001D03*
X132900000Y-90150001D03*
%TO.N,/JA3*%
X136700000Y-54550000D03*
%TO.N,/JA4*%
X128399999Y-141300001D03*
%TD*%
D17*
%TO.N,P2*%
X89165000Y-56585000D02*
X88351000Y-57399000D01*
D18*
X77011823Y-65038589D02*
X83551823Y-65038589D01*
X88103235Y-66470001D02*
X90000823Y-66470001D01*
D17*
X92400001Y-56585000D02*
X89165000Y-56585000D01*
D18*
X83551823Y-65038589D02*
X86631823Y-65038589D01*
D17*
X88351000Y-57399000D02*
X88351000Y-64820178D01*
X88351000Y-64820178D02*
X90000823Y-66470002D01*
D18*
X86631823Y-65038589D02*
X86651823Y-65018589D01*
X89917627Y-66450824D02*
X95000000Y-66450824D01*
X86651823Y-65018589D02*
X88103235Y-66470001D01*
%TO.N,P25*%
X77011823Y-123458589D02*
X83551823Y-123458589D01*
X86631823Y-123458589D02*
X86651823Y-123438589D01*
D19*
X98900000Y-136250000D02*
X99550000Y-135600000D01*
D18*
X89917627Y-124870823D02*
X95000000Y-124870823D01*
X83551823Y-123458589D02*
X86631823Y-123458589D01*
X88103234Y-124890000D02*
X90000823Y-124890000D01*
X86651823Y-123438589D02*
X88103234Y-124890000D01*
D19*
X99550000Y-135600000D02*
X102500000Y-135600000D01*
D18*
%TO.N,P30*%
X89917627Y-137570825D02*
X94999999Y-137570826D01*
X83551823Y-136158589D02*
X86631823Y-136158589D01*
X77011823Y-136158589D02*
X83551823Y-136158589D01*
D17*
X89749999Y-147100001D02*
X92425000Y-147100001D01*
X88900000Y-147950000D02*
X89749999Y-147100001D01*
D18*
X86631823Y-136158589D02*
X86651823Y-136138589D01*
%TO.N,P3*%
X83551823Y-67578589D02*
X86631823Y-67578589D01*
X88103234Y-69010000D02*
X90000823Y-69010000D01*
X77011823Y-67578589D02*
X83551823Y-67578589D01*
X89917627Y-68990823D02*
X95000001Y-68990824D01*
X86651823Y-67558589D02*
X88103234Y-69010000D01*
D17*
X89050001Y-52500000D02*
X88400001Y-53150000D01*
X92400000Y-52500000D02*
X89050001Y-52500000D01*
D18*
X86631823Y-67578589D02*
X86651823Y-67558589D01*
%TO.N,P16*%
X89917627Y-102010823D02*
X95000000Y-102010823D01*
X83551823Y-100598589D02*
X86631823Y-100598589D01*
X77011823Y-100598589D02*
X83551823Y-100598589D01*
D19*
X96850822Y-100300000D02*
X102699999Y-100300000D01*
D18*
X86631823Y-100598589D02*
X86651823Y-100578589D01*
X88103234Y-102030000D02*
X90000823Y-102030000D01*
D19*
X95100823Y-102049999D02*
X96850822Y-100300000D01*
D18*
X86651823Y-100578589D02*
X88103234Y-102030000D01*
%TO.N,P13*%
X86651823Y-92958589D02*
X88103235Y-94410001D01*
X89917627Y-94390824D02*
X95000000Y-94390824D01*
D19*
X95100823Y-94430000D02*
X96551823Y-92979000D01*
D18*
X86631823Y-92978589D02*
X86651823Y-92958589D01*
X88103235Y-94410001D02*
X90000823Y-94410001D01*
X83551823Y-92978589D02*
X86631823Y-92978589D01*
D19*
X96551823Y-92979000D02*
X96551823Y-90498177D01*
D18*
X77011823Y-92978589D02*
X83551823Y-92978589D01*
D19*
X96551823Y-90498177D02*
X98550000Y-88500000D01*
X98550000Y-88500000D02*
X102699999Y-88500000D01*
D18*
%TO.N,P18*%
X88103235Y-107110001D02*
X90000823Y-107110001D01*
D19*
X95100823Y-107130000D02*
X96170824Y-108200000D01*
D18*
X86631823Y-105678589D02*
X86651823Y-105658589D01*
X83551823Y-105678589D02*
X86631823Y-105678589D01*
X89917627Y-107090824D02*
X95000000Y-107090824D01*
X77011823Y-105678589D02*
X83551823Y-105678589D01*
X86651823Y-105658589D02*
X88103235Y-107110001D01*
D19*
X96170824Y-108200000D02*
X102700000Y-108200000D01*
%TO.N,P1*%
X92400000Y-63789177D02*
X92560823Y-63950000D01*
X92400000Y-60550000D02*
X92400000Y-63789177D01*
D18*
X89917627Y-63910824D02*
X95000000Y-63910824D01*
%TO.N,P29*%
X77011823Y-133618589D02*
X83551823Y-133618589D01*
X88103235Y-135050001D02*
X90000823Y-135050001D01*
X86651823Y-133598589D02*
X88103235Y-135050001D01*
X89917627Y-135030824D02*
X95000000Y-135030824D01*
X86631823Y-133618589D02*
X86651823Y-133598589D01*
X83551823Y-133618589D02*
X86631823Y-133618589D01*
D17*
X92400000Y-143200000D02*
X88805116Y-143200000D01*
X88394000Y-136656825D02*
X90000823Y-135050001D01*
X88394000Y-142788884D02*
X88394000Y-136656825D01*
X88805116Y-143200000D02*
X88394000Y-142788884D01*
D19*
%TO.N,P8*%
X99400000Y-68750000D02*
X101506000Y-68750000D01*
D18*
X88103236Y-81710002D02*
X90000823Y-81710002D01*
X77011823Y-80278589D02*
X83551823Y-80278589D01*
X83551823Y-80278589D02*
X86631823Y-80278589D01*
D19*
X101506000Y-68750000D02*
X101700000Y-68556000D01*
X98700000Y-69450000D02*
X99400000Y-68750000D01*
D18*
X86631823Y-80278589D02*
X86651823Y-80258589D01*
X86651823Y-80258589D02*
X88103236Y-81710002D01*
X89917627Y-81690825D02*
X94999999Y-81690826D01*
%TO.N,P15*%
X86631823Y-98058589D02*
X86651823Y-98038589D01*
X88103235Y-99490001D02*
X90000823Y-99490001D01*
D19*
X98210822Y-96400001D02*
X102700000Y-96400002D01*
X95100823Y-99510000D02*
X98210822Y-96400001D01*
D18*
X86651823Y-98038589D02*
X88103235Y-99490001D01*
X83551823Y-98058589D02*
X86631823Y-98058589D01*
X77011823Y-98058589D02*
X83551823Y-98058589D01*
X89917627Y-99470824D02*
X95000000Y-99470824D01*
D19*
%TO.N,P4*%
X97700000Y-53750000D02*
X98700000Y-52750000D01*
D18*
X86631823Y-70118589D02*
X86651823Y-70098589D01*
D19*
X98700000Y-52750000D02*
X102700000Y-52750000D01*
D18*
X88103235Y-71550001D02*
X90000823Y-71550001D01*
X77011823Y-70118589D02*
X83551823Y-70118589D01*
X86651823Y-70098589D02*
X88103235Y-71550001D01*
X83551823Y-70118589D02*
X86631823Y-70118589D01*
X89917627Y-71530824D02*
X95000000Y-71530824D01*
D19*
X97500000Y-53750000D02*
X97700000Y-53750000D01*
D18*
%TO.N,P27*%
X83551823Y-128538589D02*
X86631823Y-128538589D01*
D19*
X98300000Y-143150000D02*
X98650000Y-143500000D01*
D18*
X86631823Y-128538589D02*
X86651823Y-128518589D01*
X86651823Y-128518589D02*
X88103235Y-129970001D01*
X88103235Y-129970001D02*
X90000823Y-129970001D01*
D19*
X98650000Y-143500000D02*
X102500000Y-143500000D01*
D18*
X77011823Y-128538589D02*
X83551823Y-128538589D01*
X89917627Y-129950825D02*
X95000000Y-129950824D01*
%TO.N,P7*%
X83551823Y-77738589D02*
X86631823Y-77738589D01*
X86651823Y-77718589D02*
X88103235Y-79170001D01*
X88103235Y-79170001D02*
X90000823Y-79170001D01*
D19*
X96551823Y-74798177D02*
X97699000Y-73651000D01*
X97699000Y-65451000D02*
X98400000Y-64750000D01*
D18*
X89917627Y-79150824D02*
X95000000Y-79150824D01*
D19*
X98400000Y-64750000D02*
X102700000Y-64750000D01*
X95100823Y-79190000D02*
X96551823Y-77739000D01*
X97699000Y-73651000D02*
X97699000Y-65451000D01*
X96551823Y-77739000D02*
X96551823Y-74798177D01*
D18*
X77011823Y-77738589D02*
X83551823Y-77738589D01*
X86631823Y-77738589D02*
X86651823Y-77718589D01*
%TO.N,P26*%
X86631823Y-125998589D02*
X86651823Y-125978589D01*
D19*
X99092984Y-139500000D02*
X102700000Y-139500000D01*
D18*
X83551823Y-125998589D02*
X86631823Y-125998589D01*
D19*
X97581999Y-137989015D02*
X99092984Y-139500000D01*
D18*
X86651823Y-125978589D02*
X88103236Y-127430002D01*
X89917627Y-127410825D02*
X94999999Y-127410826D01*
D19*
X96600000Y-128949178D02*
X96600000Y-132613550D01*
D18*
X77011823Y-125998589D02*
X83551823Y-125998589D01*
D19*
X95100823Y-127450001D02*
X96600000Y-128949178D01*
D18*
X88103236Y-127430002D02*
X90000823Y-127430002D01*
D19*
X96600000Y-132613550D02*
X97581999Y-133595549D01*
X97581999Y-133595549D02*
X97581999Y-137989015D01*
D18*
%TO.N,P28*%
X88103235Y-132510001D02*
X90000823Y-132510001D01*
X83551823Y-131078589D02*
X86631823Y-131078589D01*
X86631823Y-131078589D02*
X86651823Y-131058589D01*
D19*
X95100823Y-132530000D02*
X96580999Y-134010176D01*
D18*
X77011823Y-131078589D02*
X83551823Y-131078589D01*
D19*
X99150000Y-147400000D02*
X102700000Y-147400000D01*
X96580999Y-144830999D02*
X99150000Y-147400000D01*
X96580999Y-134010176D02*
X96580999Y-144830999D01*
D18*
X86651823Y-131058589D02*
X88103235Y-132510001D01*
X89917627Y-132490824D02*
X95000000Y-132490824D01*
%TO.N,P10*%
X86631823Y-85358589D02*
X86651823Y-85338589D01*
X86651823Y-85338589D02*
X88103235Y-86790001D01*
X88103235Y-86790001D02*
X90000823Y-86790001D01*
D19*
X98700000Y-78050000D02*
X100000000Y-76750000D01*
D18*
X89917627Y-86770824D02*
X95000000Y-86770824D01*
X77011823Y-85358589D02*
X83551823Y-85358589D01*
X83551823Y-85358589D02*
X86631823Y-85358589D01*
D19*
X100000000Y-76750000D02*
X102700000Y-76750000D01*
D18*
%TO.N,P24*%
X83551823Y-120918589D02*
X86631823Y-120918589D01*
X86651823Y-120898589D02*
X88103235Y-122350001D01*
X88103235Y-122350001D02*
X90000823Y-122350001D01*
D19*
X95100823Y-122370000D02*
X97699000Y-124968178D01*
D18*
X86631823Y-120918589D02*
X86651823Y-120898589D01*
D19*
X97699000Y-124968178D02*
X97699000Y-131049000D01*
X97699000Y-131049000D02*
X98350000Y-131700000D01*
D18*
X89917627Y-122330824D02*
X95000000Y-122330824D01*
D19*
X98350000Y-131700000D02*
X102700000Y-131700000D01*
D18*
X77011823Y-120918589D02*
X83551823Y-120918589D01*
%TO.N,P14*%
X86651823Y-95498589D02*
X88103235Y-96950001D01*
D19*
X95100823Y-96970000D02*
X99670823Y-92400000D01*
D18*
X86631823Y-95518589D02*
X86651823Y-95498589D01*
X83551823Y-95518589D02*
X86631823Y-95518589D01*
D19*
X99670823Y-92400000D02*
X102700000Y-92400000D01*
D18*
X77011823Y-95518589D02*
X83551823Y-95518589D01*
X88103235Y-96950001D02*
X90000823Y-96950001D01*
X89917627Y-96930824D02*
X95000000Y-96930824D01*
D19*
%TO.N,P5*%
X95100823Y-74110000D02*
X96556000Y-72654823D01*
X96556000Y-58898984D02*
X98704984Y-56750000D01*
D18*
X86651823Y-72638589D02*
X88103235Y-74090001D01*
X86631823Y-72658589D02*
X86651823Y-72638589D01*
X77011823Y-72658589D02*
X83551823Y-72658589D01*
D19*
X98704984Y-56750000D02*
X102700000Y-56750000D01*
D18*
X88103235Y-74090001D02*
X90000823Y-74090001D01*
D19*
X96556000Y-72654823D02*
X96556000Y-58898984D01*
D18*
X89917627Y-74070825D02*
X95000000Y-74070825D01*
X83551823Y-72658589D02*
X86631823Y-72658589D01*
%TO.N,P12*%
X86651823Y-90418589D02*
X88103234Y-91870000D01*
D19*
X99200001Y-84650000D02*
X102700000Y-84650000D01*
D18*
X88103234Y-91870000D02*
X90000823Y-91870000D01*
X83551823Y-90438589D02*
X86631823Y-90438589D01*
D19*
X98000001Y-85850000D02*
X99200001Y-84650000D01*
D18*
X77011823Y-90438589D02*
X83551823Y-90438589D01*
X89917627Y-91850823D02*
X95000001Y-91850824D01*
X86631823Y-90438589D02*
X86651823Y-90418589D01*
%TO.N,P17*%
X86631823Y-103138589D02*
X86651823Y-103118589D01*
X77011823Y-103138589D02*
X83551823Y-103138589D01*
X88103236Y-104570002D02*
X90000823Y-104570002D01*
D19*
X95450000Y-104300000D02*
X101506000Y-104300000D01*
X101506000Y-104300000D02*
X101700000Y-104106000D01*
D18*
X86651823Y-103118589D02*
X88103236Y-104570002D01*
D19*
X95159999Y-104590001D02*
X95450000Y-104300000D01*
X95100823Y-104590002D02*
X95159999Y-104590001D01*
D18*
X89917627Y-104550825D02*
X94999999Y-104550826D01*
X83551823Y-103138589D02*
X86631823Y-103138589D01*
%TO.N,P9*%
X83551823Y-82818589D02*
X86631823Y-82818589D01*
X89917627Y-84230824D02*
X95000000Y-84230824D01*
X86651823Y-82798589D02*
X88103235Y-84250001D01*
X77011823Y-82818589D02*
X83551823Y-82818589D01*
D19*
X100200000Y-72750001D02*
X102700000Y-72750001D01*
X95100823Y-83782025D02*
X97600000Y-81282848D01*
X95100823Y-84270000D02*
X95100823Y-83782025D01*
X97600000Y-75350000D02*
X100200000Y-72750001D01*
D18*
X88103235Y-84250001D02*
X90000823Y-84250001D01*
X86631823Y-82818589D02*
X86651823Y-82798589D01*
D19*
X97600000Y-81282848D02*
X97600000Y-75350000D01*
D18*
%TO.N,P11*%
X86651823Y-87878589D02*
X88103235Y-89330001D01*
D19*
X96551823Y-84022495D02*
X99924318Y-80650001D01*
X95100823Y-89350001D02*
X96551823Y-87899000D01*
D18*
X89917627Y-89310824D02*
X95000000Y-89310824D01*
X83551823Y-87898589D02*
X86631823Y-87898589D01*
X88103235Y-89330001D02*
X90000823Y-89330001D01*
D19*
X99924318Y-80650001D02*
X102700000Y-80650000D01*
X96551823Y-87899000D02*
X96551823Y-84022495D01*
D18*
X77011823Y-87898589D02*
X83551823Y-87898589D01*
X86631823Y-87898589D02*
X86651823Y-87878589D01*
%TO.N,P6*%
X86651823Y-75178589D02*
X88103235Y-76630001D01*
X89917627Y-76610824D02*
X95000000Y-76610824D01*
X83551823Y-75198589D02*
X86631823Y-75198589D01*
D19*
X98000000Y-61150000D02*
X98400000Y-60750000D01*
D18*
X77011823Y-75198589D02*
X83551823Y-75198589D01*
X86631823Y-75198589D02*
X86651823Y-75178589D01*
D19*
X98400000Y-60750000D02*
X102700000Y-60750000D01*
D18*
X88103235Y-76630001D02*
X90000823Y-76630001D01*
D19*
%TO.N,/JA1*%
X98672999Y-51500000D02*
X99700000Y-51500000D01*
X99900000Y-54550000D02*
X99900000Y-55300000D01*
X99900000Y-90950000D02*
X99700000Y-91150000D01*
X99900000Y-94150001D02*
X99900000Y-94950000D01*
X99900000Y-78450000D02*
X99900000Y-79200000D01*
X99900000Y-102050000D02*
X99900000Y-102850001D01*
X99900000Y-126350000D02*
X99700000Y-126550000D01*
X99900000Y-142050001D02*
X99700001Y-142250000D01*
X99900000Y-98850001D02*
X99700001Y-99050000D01*
X89400000Y-50611001D02*
X89400000Y-51450000D01*
X99900000Y-102850001D02*
X99700000Y-103050001D01*
X99900000Y-82450000D02*
X99899999Y-83200000D01*
X100400000Y-129750001D02*
X99700001Y-130450000D01*
X99900000Y-74550000D02*
X99900000Y-75300000D01*
D17*
X89400000Y-146150000D02*
X89399999Y-145300001D01*
D19*
X99900000Y-106750000D02*
X99700000Y-106950000D01*
X99900000Y-94950000D02*
X99700000Y-95150000D01*
X99900000Y-110650001D02*
X99700001Y-110850000D01*
X99899999Y-83200000D02*
X99700000Y-83400000D01*
X99900000Y-98050000D02*
X99900000Y-98850001D01*
X99900000Y-105950000D02*
X99900000Y-106750000D01*
X99900000Y-118450001D02*
X99700001Y-118650000D01*
X99900000Y-58550000D02*
X99900000Y-59300000D01*
X99900000Y-86250000D02*
X99900000Y-87050001D01*
X99900000Y-75300000D02*
X99700000Y-75500000D01*
X99900000Y-134150000D02*
X99700000Y-134350000D01*
X98423000Y-51750000D02*
X98672999Y-51500000D01*
X99900000Y-55300000D02*
X99700000Y-55500000D01*
X99900000Y-113750001D02*
X99900000Y-114550000D01*
X99900000Y-121550001D02*
X99900000Y-122350000D01*
X99900000Y-63300001D02*
X99700001Y-63500000D01*
X99900000Y-125550001D02*
X99900000Y-126350000D01*
X99900000Y-122350000D02*
X99700000Y-122550000D01*
X99900000Y-133350001D02*
X99900000Y-134150000D01*
X99900000Y-117650000D02*
X99900000Y-118450001D01*
X99900000Y-90150001D02*
X99900000Y-90950000D01*
X99900000Y-145950000D02*
X99700000Y-146150000D01*
D17*
X89399999Y-141300001D02*
X89400000Y-142250000D01*
D19*
X100400000Y-129450000D02*
X100400000Y-129750001D01*
X99900000Y-66650000D02*
X99900000Y-67300001D01*
X89400000Y-59500000D02*
X89400000Y-58550000D01*
X99900000Y-71300000D02*
X99700000Y-71500001D01*
X89400000Y-54550000D02*
X89400000Y-55535000D01*
X99900000Y-114550000D02*
X99700000Y-114750000D01*
X99900000Y-137250000D02*
X99900000Y-138050000D01*
X99900000Y-67300001D02*
X99700001Y-67500000D01*
X99900000Y-138050000D02*
X99700000Y-138250000D01*
X99900000Y-59300000D02*
X99700000Y-59500000D01*
X99900000Y-79200000D02*
X99700000Y-79400000D01*
X99900000Y-109850000D02*
X99900000Y-110650001D01*
X99900000Y-145150001D02*
X99900000Y-145950000D01*
X99900000Y-62650000D02*
X99900000Y-63300001D01*
X99900000Y-141250000D02*
X99900000Y-142050001D01*
X99900000Y-87050001D02*
X99700001Y-87250000D01*
X99900000Y-70550001D02*
X99900000Y-71300000D01*
D18*
%TO.N,P21*%
X89917627Y-114710823D02*
X95000001Y-114710824D01*
D19*
X98544000Y-119351016D02*
X99092984Y-119900000D01*
X98544001Y-118193176D02*
X98544000Y-119351016D01*
D18*
X86651823Y-113278589D02*
X88103234Y-114730000D01*
X83551823Y-113298589D02*
X86631823Y-113298589D01*
X88103234Y-114730000D02*
X90000823Y-114730000D01*
X86631823Y-113298589D02*
X86651823Y-113278589D01*
D19*
X99092984Y-119900000D02*
X102700000Y-119900000D01*
D18*
X77011823Y-113298589D02*
X83551823Y-113298589D01*
D19*
X95100823Y-114749999D02*
X98544001Y-118193176D01*
D18*
%TO.N,P19*%
X88103235Y-109650001D02*
X90000823Y-109650001D01*
X89917627Y-109630824D02*
X95000000Y-109630824D01*
D19*
X97530823Y-112100000D02*
X102699999Y-112100000D01*
D18*
X83551823Y-108218589D02*
X86631823Y-108218589D01*
X86631823Y-108218589D02*
X86651823Y-108198589D01*
X86651823Y-108198589D02*
X88103235Y-109650001D01*
X77011823Y-108218589D02*
X83551823Y-108218589D01*
D19*
X95100823Y-109670000D02*
X97530823Y-112100000D01*
D18*
%TO.N,P23*%
X89917627Y-119790824D02*
X95000000Y-119790824D01*
X83551823Y-118378589D02*
X86631823Y-118378589D01*
D19*
X99100000Y-128950000D02*
X100250000Y-127800000D01*
D18*
X86631823Y-118378589D02*
X86651823Y-118358589D01*
X77011823Y-118378589D02*
X83551823Y-118378589D01*
D19*
X98700000Y-128950001D02*
X99100000Y-128950000D01*
D18*
X88103235Y-119810001D02*
X90000823Y-119810001D01*
D19*
X100250000Y-127800000D02*
X102700000Y-127800000D01*
D18*
X86651823Y-118358589D02*
X88103235Y-119810001D01*
%TO.N,P20*%
X86631823Y-110758589D02*
X86651823Y-110738589D01*
D19*
X95100823Y-112210001D02*
X98890823Y-116000000D01*
D18*
X89917627Y-112170824D02*
X95000000Y-112170824D01*
X83551823Y-110758589D02*
X86631823Y-110758589D01*
X88103235Y-112190001D02*
X90000823Y-112190001D01*
X77011823Y-110758589D02*
X83551823Y-110758589D01*
X86651823Y-110738589D02*
X88103235Y-112190001D01*
D19*
X98890823Y-116000000D02*
X102700000Y-116000000D01*
%TO.N,P22*%
X95100823Y-117290000D02*
X96551823Y-118741000D01*
D18*
X77011823Y-115838589D02*
X83551823Y-115838589D01*
X83551823Y-115838589D02*
X86631823Y-115838589D01*
D19*
X96551823Y-121258839D02*
X99092984Y-123800000D01*
D18*
X86631823Y-115838589D02*
X86651823Y-115818589D01*
D19*
X99092984Y-123800000D02*
X102700000Y-123800000D01*
D18*
X88103235Y-117270001D02*
X90000823Y-117270001D01*
X86651823Y-115818589D02*
X88103235Y-117270001D01*
X89917627Y-117250824D02*
X95000000Y-117250824D01*
D19*
X96551823Y-118741000D02*
X96551823Y-121258839D01*
%TO.N,/JA2*%
X91400000Y-58550000D02*
X91400000Y-59500000D01*
X101700000Y-105950000D02*
X101700000Y-106949999D01*
X101700000Y-117650000D02*
X101700000Y-118649999D01*
X101700000Y-54550000D02*
X101700000Y-55500001D01*
D20*
X100899000Y-53749000D02*
X99568215Y-53749000D01*
X100899000Y-53749000D02*
X101700000Y-54550000D01*
D19*
X101700000Y-141250000D02*
X101700000Y-142249999D01*
D20*
X95901000Y-57749000D02*
X92201000Y-57749000D01*
D19*
X101700001Y-82450000D02*
X101700000Y-83399999D01*
X101700001Y-145150000D02*
X101700000Y-146150000D01*
X101249999Y-51499999D02*
X101700000Y-51499999D01*
X91400000Y-54550001D02*
X91400000Y-55535000D01*
D17*
X91400001Y-146150000D02*
X91400000Y-145200000D01*
D20*
X96301001Y-57349000D02*
X95901000Y-57749000D01*
X92201000Y-57749000D02*
X91400000Y-58550000D01*
D19*
X101700000Y-78450000D02*
X101700000Y-79399999D01*
X101700001Y-66550000D02*
X101700001Y-67499999D01*
X101700001Y-102050000D02*
X101700001Y-103049999D01*
X101700000Y-109850000D02*
X101700000Y-110849999D01*
X91400000Y-50611001D02*
X91400000Y-51450001D01*
X101700000Y-137250000D02*
X101700000Y-138249999D01*
X101700000Y-113750001D02*
X101700000Y-114750000D01*
X101700001Y-62550000D02*
X101700000Y-63499999D01*
X101700000Y-86250000D02*
X101700000Y-87249999D01*
X101700001Y-133350000D02*
X101700001Y-134349999D01*
X101700000Y-58450001D02*
X101700000Y-59499999D01*
D17*
X91400000Y-141300000D02*
X91400000Y-142250000D01*
D19*
X101700001Y-121550000D02*
X101700001Y-122549999D01*
X101700000Y-125550001D02*
X101700000Y-126550000D01*
X101700000Y-129450000D02*
X101700000Y-130449999D01*
D20*
X96301000Y-57016215D02*
X96301001Y-57349000D01*
X99568215Y-53749000D02*
X96301000Y-57016215D01*
D19*
X101700000Y-74550000D02*
X101700001Y-75499999D01*
X101700000Y-94150001D02*
X101700000Y-95149999D01*
X101700000Y-98050000D02*
X101700000Y-99049999D01*
X101700001Y-90150000D02*
X101700000Y-91150000D01*
X101700000Y-70550001D02*
X101700001Y-71499999D01*
%TO.N,/JA4*%
X105700000Y-117750000D02*
X105700000Y-118650000D01*
X105700000Y-70550000D02*
X105700000Y-71500000D01*
D17*
X95399999Y-145249999D02*
X95399999Y-146150001D01*
D19*
X105700000Y-133450001D02*
X105700000Y-134350000D01*
X105700000Y-121650001D02*
X105700000Y-122550000D01*
X105700000Y-54550001D02*
X105700000Y-55500000D01*
D17*
X98549998Y-148349998D02*
X105100000Y-148349998D01*
D19*
X105700000Y-98150000D02*
X105700000Y-99050000D01*
X105700000Y-94250000D02*
X105700000Y-95150000D01*
X105700000Y-58550000D02*
X105700000Y-59500000D01*
X105250000Y-51500000D02*
X104700000Y-50950000D01*
X105700000Y-113850000D02*
X105700000Y-114750000D01*
X105700000Y-125650000D02*
X105700000Y-126550000D01*
X105700000Y-129550000D02*
X105700000Y-130450000D01*
D17*
X95300000Y-145100001D02*
X98549998Y-148349998D01*
D19*
X105700000Y-106050000D02*
X105700000Y-106950000D01*
X95400000Y-50611001D02*
X95400000Y-51450001D01*
X105700000Y-86350000D02*
X105700000Y-87250000D01*
X95400000Y-54550001D02*
X95400000Y-55535000D01*
D17*
X95399999Y-141300001D02*
X95399999Y-142250000D01*
D19*
X105700000Y-102150000D02*
X105700000Y-103050000D01*
X105700000Y-90250000D02*
X105700000Y-91150000D01*
X105700000Y-137350000D02*
X105700000Y-138250000D01*
X105700000Y-141350000D02*
X105700000Y-142250000D01*
X105700000Y-62550000D02*
X105700000Y-63500000D01*
X105700000Y-78450000D02*
X105700000Y-79400000D01*
X105700000Y-74550000D02*
X105700000Y-75500000D01*
X105700000Y-51500000D02*
X105250000Y-51500000D01*
X105700000Y-66550000D02*
X105700000Y-67500000D01*
D17*
X95300000Y-144350000D02*
X95300000Y-145150000D01*
D19*
X105700000Y-146150000D02*
X105700000Y-145150000D01*
X105700000Y-82450000D02*
X105700000Y-83400000D01*
D17*
X95300000Y-144350000D02*
X95300000Y-145100001D01*
D19*
X105700000Y-109950000D02*
X105700000Y-110850000D01*
X95400000Y-59500000D02*
X95400000Y-58550000D01*
D17*
X95300000Y-145150000D02*
X95399999Y-145249999D01*
D19*
%TO.N,/JA3*%
X103700000Y-117750000D02*
X103700000Y-118650000D01*
X103700000Y-51500000D02*
X103250000Y-51500000D01*
X103700000Y-141350000D02*
X103700000Y-142250000D01*
D17*
X93400000Y-146150000D02*
X93400000Y-145200000D01*
D20*
X97654462Y-50699000D02*
X96301000Y-52052463D01*
D19*
X103700000Y-66550000D02*
X103700000Y-67500000D01*
X103700000Y-54550000D02*
X103700000Y-55500000D01*
X93400000Y-50611001D02*
X93400000Y-51450000D01*
D20*
X96301001Y-53301000D02*
X94749000Y-53301000D01*
D17*
X93400000Y-141299999D02*
X93400000Y-142250000D01*
D19*
X103700000Y-94250000D02*
X103700000Y-95150000D01*
X103700000Y-78450000D02*
X103700000Y-79400000D01*
X103700000Y-137350000D02*
X103700000Y-138250000D01*
D20*
X96301000Y-52052463D02*
X96301001Y-53301000D01*
X94749000Y-53301000D02*
X93400000Y-54650000D01*
D19*
X103700000Y-86350000D02*
X103700000Y-87250000D01*
X103700000Y-133450001D02*
X103700000Y-134350000D01*
X103700000Y-82450000D02*
X103700000Y-83400000D01*
X103700000Y-129550000D02*
X103700000Y-130450000D01*
X103700000Y-146150000D02*
X103700000Y-145250000D01*
X93400000Y-59500000D02*
X93400000Y-58550000D01*
X103700000Y-62550000D02*
X103700000Y-63500000D01*
X103700000Y-121650001D02*
X103700000Y-122550000D01*
X103700000Y-90250000D02*
X103700000Y-91150000D01*
X103700000Y-106050000D02*
X103700000Y-106950000D01*
D20*
X102449000Y-50699000D02*
X97654462Y-50699000D01*
D19*
X103700000Y-102150000D02*
X103700000Y-103050000D01*
X103700000Y-74650000D02*
X103700000Y-75500000D01*
X103700000Y-58550000D02*
X103700000Y-59500000D01*
X103700000Y-113850000D02*
X103700000Y-114750000D01*
D20*
X102700000Y-50950000D02*
X102449000Y-50699000D01*
D19*
X103700000Y-125650000D02*
X103700000Y-126550000D01*
X103700000Y-109950000D02*
X103700000Y-110850000D01*
X103250000Y-51500000D02*
X102700000Y-50950000D01*
X93400000Y-54650000D02*
X93400000Y-55535000D01*
X103700000Y-98150000D02*
X103700000Y-99050000D01*
X103700000Y-70550000D02*
X103700000Y-71500000D01*
D18*
%TO.N,/B1*%
X83551823Y-52338589D02*
X86631823Y-52338589D01*
X86631823Y-52338589D02*
X86651823Y-52318589D01*
X77011823Y-52338589D02*
X83551823Y-52338589D01*
%TO.N,/B4*%
X83551823Y-59958589D02*
X86631823Y-59958589D01*
X86631823Y-59958589D02*
X86651823Y-59938589D01*
X77011823Y-59958589D02*
X83551823Y-59958589D01*
%TO.N,/B2*%
X77011823Y-54878589D02*
X83551823Y-54878589D01*
X83551823Y-54878589D02*
X86631823Y-54878589D01*
X86631823Y-54878589D02*
X86651823Y-54858589D01*
%TO.N,/B3*%
X83551823Y-57418589D02*
X86631823Y-57418589D01*
X77011823Y-57418589D02*
X83551823Y-57418589D01*
X86631823Y-57418589D02*
X86651823Y-57398589D01*
%TO.N,/B5*%
X77011823Y-62498589D02*
X83551823Y-62498589D01*
X86631823Y-62498589D02*
X86651823Y-62478589D01*
X83551823Y-62498589D02*
X86631823Y-62498589D01*
%TO.N,/B37*%
X77011823Y-143778589D02*
X83551823Y-143778589D01*
X86631823Y-143778589D02*
X86651823Y-143758589D01*
X83551823Y-143778589D02*
X86631823Y-143778589D01*
%TO.N,/B35*%
X77011823Y-138698589D02*
X83551823Y-138698589D01*
X83551823Y-138698589D02*
X86631823Y-138698589D01*
X86631823Y-138698589D02*
X86651823Y-138678589D01*
%TO.N,/B38*%
X86631823Y-146318589D02*
X86651823Y-146298589D01*
X77011823Y-146318589D02*
X83551823Y-146318589D01*
X83551823Y-146318589D02*
X86631823Y-146318589D01*
%TO.N,/B36*%
X83551823Y-141238589D02*
X86631823Y-141238589D01*
X86631823Y-141238589D02*
X86651823Y-141218589D01*
X77011823Y-141238589D02*
X83551823Y-141238589D01*
%TO.N,P20*%
X152651823Y-110738589D02*
X154103235Y-112190001D01*
%TO.N,P13*%
X152631823Y-92978589D02*
X152651823Y-92958589D01*
D19*
%TO.N,/JA1*%
X165900000Y-82450000D02*
X165899999Y-83200000D01*
D18*
%TO.N,P14*%
X152631823Y-95518589D02*
X152651823Y-95498589D01*
D19*
%TO.N,/JA1*%
X165900000Y-110650001D02*
X165700001Y-110850000D01*
D17*
%TO.N,/JA4*%
X161300000Y-145150000D02*
X161399999Y-145249999D01*
D19*
%TO.N,/JA2*%
X167700000Y-54550000D02*
X167700000Y-55500001D01*
%TO.N,P4*%
X164700000Y-52750000D02*
X168700000Y-52750000D01*
D17*
%TO.N,P2*%
X154351000Y-64820178D02*
X156000823Y-66470002D01*
D18*
%TO.N,P28*%
X154103235Y-132510001D02*
X156000823Y-132510001D01*
D19*
%TO.N,/JA4*%
X161400000Y-54550001D02*
X161400000Y-55535000D01*
%TO.N,/JA3*%
X169700000Y-90250000D02*
X169700000Y-91150000D01*
D17*
%TO.N,/JA4*%
X164549998Y-148349998D02*
X171100000Y-148349998D01*
D18*
%TO.N,/B37*%
X152631823Y-143778589D02*
X152651823Y-143758589D01*
%TO.N,P30*%
X143011823Y-136158589D02*
X149551823Y-136158589D01*
D19*
%TO.N,P26*%
X162600000Y-132613550D02*
X163581999Y-133595549D01*
D18*
%TO.N,P27*%
X152631823Y-128538589D02*
X152651823Y-128518589D01*
D19*
%TO.N,/JA1*%
X165900000Y-98050000D02*
X165900000Y-98850001D01*
%TO.N,/JA4*%
X171700000Y-58550000D02*
X171700000Y-59500000D01*
D18*
%TO.N,P23*%
X154103235Y-119810001D02*
X156000823Y-119810001D01*
D17*
%TO.N,P30*%
X154900000Y-147950000D02*
X155749999Y-147100001D01*
D19*
%TO.N,P5*%
X164704984Y-56750000D02*
X168700000Y-56750000D01*
D18*
%TO.N,P15*%
X149551823Y-98058589D02*
X152631823Y-98058589D01*
%TO.N,P20*%
X143011823Y-110758589D02*
X149551823Y-110758589D01*
D19*
%TO.N,P16*%
X162850822Y-100300000D02*
X168699999Y-100300000D01*
%TO.N,P17*%
X161450000Y-104300000D02*
X167506000Y-104300000D01*
X161100823Y-104590002D02*
X161159999Y-104590001D01*
D18*
%TO.N,P22*%
X152631823Y-115838589D02*
X152651823Y-115818589D01*
%TO.N,/B38*%
X149551823Y-146318589D02*
X152631823Y-146318589D01*
%TO.N,/B36*%
X143011823Y-141238589D02*
X149551823Y-141238589D01*
%TO.N,P5*%
X154103235Y-74090001D02*
X156000823Y-74090001D01*
D19*
%TO.N,/JA1*%
X165900000Y-62650000D02*
X165900000Y-63300001D01*
%TO.N,P26*%
X162600000Y-128949178D02*
X162600000Y-132613550D01*
%TO.N,P28*%
X165150000Y-147400000D02*
X168700000Y-147400000D01*
%TO.N,/JA2*%
X167700000Y-141250000D02*
X167700000Y-142249999D01*
%TO.N,/JA1*%
X165900000Y-75300000D02*
X165700000Y-75500000D01*
%TO.N,P17*%
X167506000Y-104300000D02*
X167700000Y-104106000D01*
%TO.N,/JA2*%
X167700000Y-70550001D02*
X167700001Y-71499999D01*
%TO.N,P23*%
X166250000Y-127800000D02*
X168700000Y-127800000D01*
%TO.N,/JA2*%
X167700000Y-58450001D02*
X167700000Y-59499999D01*
D20*
X158201000Y-57749000D02*
X157400000Y-58550000D01*
D18*
%TO.N,/B37*%
X149551823Y-143778589D02*
X152631823Y-143778589D01*
%TO.N,P3*%
X149551823Y-67578589D02*
X152631823Y-67578589D01*
D19*
%TO.N,P14*%
X165670823Y-92400000D02*
X168700000Y-92400000D01*
D18*
%TO.N,P19*%
X152651823Y-108198589D02*
X154103235Y-109650001D01*
D19*
%TO.N,/JA4*%
X171700000Y-137350000D02*
X171700000Y-138250000D01*
%TO.N,/JA3*%
X169700000Y-117750000D02*
X169700000Y-118650000D01*
%TO.N,/JA2*%
X167700000Y-94150001D02*
X167700000Y-95149999D01*
%TO.N,P6*%
X164000000Y-61150000D02*
X164400000Y-60750000D01*
D18*
%TO.N,P21*%
X152651823Y-113278589D02*
X154103234Y-114730000D01*
D17*
%TO.N,P29*%
X158400000Y-143200000D02*
X154805116Y-143200000D01*
D18*
%TO.N,/B3*%
X152631823Y-57418589D02*
X152651823Y-57398589D01*
D19*
%TO.N,/JA4*%
X171700000Y-86350000D02*
X171700000Y-87250000D01*
D18*
%TO.N,P29*%
X149551823Y-133618589D02*
X152631823Y-133618589D01*
%TO.N,P7*%
X152631823Y-77738589D02*
X152651823Y-77718589D01*
D19*
%TO.N,P24*%
X164350000Y-131700000D02*
X168700000Y-131700000D01*
%TO.N,P13*%
X162551823Y-90498177D02*
X164550000Y-88500000D01*
%TO.N,/JA3*%
X169700000Y-82450000D02*
X169700000Y-83400000D01*
D18*
%TO.N,P11*%
X149551823Y-87898589D02*
X152631823Y-87898589D01*
D19*
%TO.N,/JA1*%
X165900000Y-55300000D02*
X165700000Y-55500000D01*
%TO.N,/JA2*%
X167700001Y-145150000D02*
X167700000Y-146150000D01*
%TO.N,/JA3*%
X169700000Y-106050000D02*
X169700000Y-106950000D01*
%TO.N,P4*%
X163700000Y-53750000D02*
X164700000Y-52750000D01*
%TO.N,/JA4*%
X171700000Y-94250000D02*
X171700000Y-95150000D01*
X171700000Y-102150000D02*
X171700000Y-103050000D01*
D18*
%TO.N,P15*%
X154103235Y-99490001D02*
X156000823Y-99490001D01*
%TO.N,P21*%
X143011823Y-113298589D02*
X149551823Y-113298589D01*
D19*
%TO.N,P8*%
X165400000Y-68750000D02*
X167506000Y-68750000D01*
%TO.N,P13*%
X162551823Y-92979000D02*
X162551823Y-90498177D01*
D18*
%TO.N,P18*%
X149551823Y-105678589D02*
X152631823Y-105678589D01*
D19*
%TO.N,/JA2*%
X167700000Y-86250000D02*
X167700000Y-87249999D01*
%TO.N,/JA1*%
X165900000Y-58550000D02*
X165900000Y-59300000D01*
%TO.N,P24*%
X161100823Y-122370000D02*
X163699000Y-124968178D01*
%TO.N,/JA4*%
X171700000Y-98150000D02*
X171700000Y-99050000D01*
X171700000Y-54550001D02*
X171700000Y-55500000D01*
%TO.N,P5*%
X161100823Y-74110000D02*
X162556000Y-72654823D01*
D17*
%TO.N,P3*%
X158400000Y-52500000D02*
X155050001Y-52500000D01*
D19*
%TO.N,/JA2*%
X167700001Y-121550000D02*
X167700001Y-122549999D01*
%TO.N,/JA3*%
X169700000Y-129550000D02*
X169700000Y-130450000D01*
%TO.N,/JA1*%
X165900000Y-94950000D02*
X165700000Y-95150000D01*
D18*
%TO.N,/B4*%
X143011823Y-59958589D02*
X149551823Y-59958589D01*
D19*
%TO.N,P21*%
X161100823Y-114749999D02*
X164544001Y-118193176D01*
%TO.N,/JA1*%
X155400000Y-54550000D02*
X155400000Y-55535000D01*
%TO.N,/JA4*%
X171700000Y-82450000D02*
X171700000Y-83400000D01*
D18*
%TO.N,P18*%
X152631823Y-105678589D02*
X152651823Y-105658589D01*
%TO.N,P30*%
X149551823Y-136158589D02*
X152631823Y-136158589D01*
D19*
%TO.N,P5*%
X162556000Y-72654823D02*
X162556000Y-58898984D01*
D18*
%TO.N,P16*%
X154103234Y-102030000D02*
X156000823Y-102030000D01*
D17*
%TO.N,P2*%
X158400001Y-56585000D02*
X155165000Y-56585000D01*
D18*
%TO.N,P16*%
X152651823Y-100578589D02*
X154103234Y-102030000D01*
%TO.N,P10*%
X152651823Y-85338589D02*
X154103235Y-86790001D01*
%TO.N,P17*%
X143011823Y-103138589D02*
X149551823Y-103138589D01*
D19*
%TO.N,/JA4*%
X171700000Y-78450000D02*
X171700000Y-79400000D01*
D18*
%TO.N,P5*%
X149551823Y-72658589D02*
X152631823Y-72658589D01*
%TO.N,P28*%
X143011823Y-131078589D02*
X149551823Y-131078589D01*
D19*
%TO.N,P4*%
X163500000Y-53750000D02*
X163700000Y-53750000D01*
D18*
%TO.N,P21*%
X152631823Y-113298589D02*
X152651823Y-113278589D01*
D19*
%TO.N,/JA3*%
X169700000Y-125650000D02*
X169700000Y-126550000D01*
D18*
%TO.N,P22*%
X149551823Y-115838589D02*
X152631823Y-115838589D01*
%TO.N,P19*%
X143011823Y-108218589D02*
X149551823Y-108218589D01*
%TO.N,P27*%
X149551823Y-128538589D02*
X152631823Y-128538589D01*
%TO.N,P28*%
X152631823Y-131078589D02*
X152651823Y-131058589D01*
D19*
%TO.N,P7*%
X164400000Y-64750000D02*
X168700000Y-64750000D01*
D18*
%TO.N,P13*%
X155917627Y-94390824D02*
X161000000Y-94390824D01*
%TO.N,P10*%
X155917627Y-86770824D02*
X161000000Y-86770824D01*
%TO.N,P14*%
X155917627Y-96930824D02*
X161000000Y-96930824D01*
%TO.N,P23*%
X155917627Y-119790824D02*
X161000000Y-119790824D01*
%TO.N,P26*%
X155917627Y-127410825D02*
X160999999Y-127410826D01*
%TO.N,P9*%
X155917627Y-84230824D02*
X161000000Y-84230824D01*
%TO.N,P29*%
X155917627Y-135030824D02*
X161000000Y-135030824D01*
%TO.N,P20*%
X155917627Y-112170824D02*
X161000000Y-112170824D01*
%TO.N,P15*%
X155917627Y-99470824D02*
X161000000Y-99470824D01*
%TO.N,P19*%
X155917627Y-109630824D02*
X161000000Y-109630824D01*
%TO.N,P30*%
X155917627Y-137570825D02*
X160999999Y-137570826D01*
%TO.N,P2*%
X155917627Y-66450824D02*
X161000000Y-66450824D01*
%TO.N,P3*%
X155917627Y-68990823D02*
X161000001Y-68990824D01*
%TO.N,P24*%
X155917627Y-122330824D02*
X161000000Y-122330824D01*
%TO.N,P11*%
X155917627Y-89310824D02*
X161000000Y-89310824D01*
%TO.N,P1*%
X155917627Y-63910824D02*
X161000000Y-63910824D01*
%TO.N,P28*%
X155917627Y-132490824D02*
X161000000Y-132490824D01*
%TO.N,P21*%
X155917627Y-114710823D02*
X161000001Y-114710824D01*
%TO.N,P27*%
X155917627Y-129950825D02*
X161000000Y-129950824D01*
%TO.N,P18*%
X155917627Y-107090824D02*
X161000000Y-107090824D01*
%TO.N,P25*%
X155917627Y-124870823D02*
X161000000Y-124870823D01*
%TO.N,P17*%
X155917627Y-104550825D02*
X160999999Y-104550826D01*
%TO.N,P6*%
X155917627Y-76610824D02*
X161000000Y-76610824D01*
%TO.N,P22*%
X155917627Y-117250824D02*
X161000000Y-117250824D01*
%TO.N,P8*%
X155917627Y-81690825D02*
X160999999Y-81690826D01*
%TO.N,P12*%
X155917627Y-91850823D02*
X161000001Y-91850824D01*
%TO.N,P7*%
X155917627Y-79150824D02*
X161000000Y-79150824D01*
%TO.N,P5*%
X155917627Y-74070825D02*
X161000000Y-74070825D01*
%TO.N,P4*%
X155917627Y-71530824D02*
X161000000Y-71530824D01*
%TO.N,P16*%
X155917627Y-102010823D02*
X161000000Y-102010823D01*
D19*
%TO.N,P21*%
X165092984Y-119900000D02*
X168700000Y-119900000D01*
%TO.N,/JA1*%
X164423000Y-51750000D02*
X164672999Y-51500000D01*
%TO.N,/JA4*%
X171700000Y-146150000D02*
X171700000Y-145150000D01*
X161400000Y-50611001D02*
X161400000Y-51450001D01*
D18*
%TO.N,P24*%
X152631823Y-120918589D02*
X152651823Y-120898589D01*
D19*
%TO.N,/JA1*%
X165900000Y-86250000D02*
X165900000Y-87050001D01*
%TO.N,/JA3*%
X169700000Y-133450001D02*
X169700000Y-134350000D01*
D18*
%TO.N,P12*%
X152651823Y-90418589D02*
X154103234Y-91870000D01*
%TO.N,/B35*%
X149551823Y-138698589D02*
X152631823Y-138698589D01*
D19*
%TO.N,/JA1*%
X165900000Y-63300001D02*
X165700001Y-63500000D01*
%TO.N,P12*%
X164000001Y-85850000D02*
X165200001Y-84650000D01*
%TO.N,P15*%
X161100823Y-99510000D02*
X164210822Y-96400001D01*
%TO.N,/JA2*%
X167700000Y-125550001D02*
X167700000Y-126550000D01*
D20*
X166899000Y-53749000D02*
X167700000Y-54550000D01*
D19*
%TO.N,P9*%
X163600000Y-81282848D02*
X163600000Y-75350000D01*
%TO.N,P10*%
X164700000Y-78050000D02*
X166000000Y-76750000D01*
D20*
%TO.N,/JA3*%
X168700000Y-50950000D02*
X168449000Y-50699000D01*
D18*
%TO.N,P23*%
X152631823Y-118378589D02*
X152651823Y-118358589D01*
%TO.N,P11*%
X152631823Y-87898589D02*
X152651823Y-87878589D01*
D17*
%TO.N,/JA1*%
X155399999Y-141300001D02*
X155400000Y-142250000D01*
D19*
%TO.N,/JA2*%
X167700000Y-74550000D02*
X167700001Y-75499999D01*
D18*
%TO.N,P29*%
X152651823Y-133598589D02*
X154103235Y-135050001D01*
D19*
%TO.N,P9*%
X166200000Y-72750001D02*
X168700000Y-72750001D01*
D18*
%TO.N,P19*%
X149551823Y-108218589D02*
X152631823Y-108218589D01*
D19*
%TO.N,P11*%
X161100823Y-89350001D02*
X162551823Y-87899000D01*
D18*
%TO.N,P13*%
X149551823Y-92978589D02*
X152631823Y-92978589D01*
D19*
%TO.N,/JA3*%
X169700000Y-102150000D02*
X169700000Y-103050000D01*
D18*
%TO.N,P10*%
X152631823Y-85358589D02*
X152651823Y-85338589D01*
%TO.N,P22*%
X154103235Y-117270001D02*
X156000823Y-117270001D01*
%TO.N,P6*%
X152631823Y-75198589D02*
X152651823Y-75178589D01*
%TO.N,P14*%
X152651823Y-95498589D02*
X154103235Y-96950001D01*
D19*
%TO.N,P16*%
X161100823Y-102049999D02*
X162850822Y-100300000D01*
%TO.N,/JA4*%
X171700000Y-62550000D02*
X171700000Y-63500000D01*
%TO.N,/JA3*%
X169700000Y-141350000D02*
X169700000Y-142250000D01*
%TO.N,/JA2*%
X167700001Y-62550000D02*
X167700000Y-63499999D01*
X167700001Y-102050000D02*
X167700001Y-103049999D01*
D18*
%TO.N,P4*%
X149551823Y-70118589D02*
X152631823Y-70118589D01*
%TO.N,P2*%
X152651823Y-65018589D02*
X154103235Y-66470001D01*
D19*
%TO.N,P7*%
X162551823Y-77739000D02*
X162551823Y-74798177D01*
D18*
%TO.N,P2*%
X152631823Y-65038589D02*
X152651823Y-65018589D01*
D19*
%TO.N,P18*%
X161100823Y-107130000D02*
X162170824Y-108200000D01*
D18*
%TO.N,P12*%
X149551823Y-90438589D02*
X152631823Y-90438589D01*
D19*
%TO.N,/JA1*%
X165900000Y-67300001D02*
X165700001Y-67500000D01*
D18*
%TO.N,P25*%
X152651823Y-123438589D02*
X154103234Y-124890000D01*
D19*
%TO.N,/JA1*%
X165900000Y-145150001D02*
X165900000Y-145950000D01*
D17*
%TO.N,/JA2*%
X157400001Y-146150000D02*
X157400000Y-145200000D01*
D19*
%TO.N,/JA3*%
X159400000Y-50611001D02*
X159400000Y-51450000D01*
D18*
%TO.N,P17*%
X152651823Y-103118589D02*
X154103236Y-104570002D01*
D19*
%TO.N,/JA2*%
X167700000Y-129450000D02*
X167700000Y-130449999D01*
D18*
%TO.N,P5*%
X152631823Y-72658589D02*
X152651823Y-72638589D01*
D20*
%TO.N,/JA2*%
X162301000Y-57016215D02*
X162301001Y-57349000D01*
D19*
%TO.N,/JA4*%
X171700000Y-66550000D02*
X171700000Y-67500000D01*
%TO.N,/JA1*%
X165900000Y-74550000D02*
X165900000Y-75300000D01*
%TO.N,/JA4*%
X171700000Y-90250000D02*
X171700000Y-91150000D01*
%TO.N,P20*%
X164890823Y-116000000D02*
X168700000Y-116000000D01*
%TO.N,P19*%
X161100823Y-109670000D02*
X163530823Y-112100000D01*
D18*
%TO.N,P28*%
X152651823Y-131058589D02*
X154103235Y-132510001D01*
D20*
%TO.N,/JA3*%
X168449000Y-50699000D02*
X163654462Y-50699000D01*
D19*
%TO.N,/JA1*%
X165900000Y-87050001D02*
X165700001Y-87250000D01*
%TO.N,P26*%
X163581999Y-137989015D02*
X165092984Y-139500000D01*
D17*
%TO.N,/JA4*%
X161399999Y-145249999D02*
X161399999Y-146150001D01*
D19*
%TO.N,P7*%
X163699000Y-73651000D02*
X163699000Y-65451000D01*
%TO.N,/JA3*%
X169700000Y-54550000D02*
X169700000Y-55500000D01*
D18*
%TO.N,P25*%
X143011823Y-123458589D02*
X149551823Y-123458589D01*
D20*
%TO.N,/JA2*%
X161901000Y-57749000D02*
X158201000Y-57749000D01*
D19*
%TO.N,/JA3*%
X169250000Y-51500000D02*
X168700000Y-50950000D01*
%TO.N,/JA2*%
X167249999Y-51499999D02*
X167700000Y-51499999D01*
%TO.N,/JA1*%
X165900000Y-102850001D02*
X165700000Y-103050001D01*
%TO.N,/JA3*%
X169700000Y-113850000D02*
X169700000Y-114750000D01*
D18*
%TO.N,P29*%
X154103235Y-135050001D02*
X156000823Y-135050001D01*
D19*
%TO.N,/JA1*%
X166400000Y-129750001D02*
X165700001Y-130450000D01*
D18*
%TO.N,P17*%
X152631823Y-103138589D02*
X152651823Y-103118589D01*
%TO.N,P23*%
X152651823Y-118358589D02*
X154103235Y-119810001D01*
D19*
%TO.N,/JA1*%
X165900000Y-90150001D02*
X165900000Y-90950000D01*
D17*
%TO.N,/JA4*%
X161399999Y-141300001D02*
X161399999Y-142250000D01*
D18*
%TO.N,P13*%
X152651823Y-92958589D02*
X154103235Y-94410001D01*
D17*
%TO.N,P3*%
X155050001Y-52500000D02*
X154400001Y-53150000D01*
D19*
%TO.N,/JA2*%
X167700001Y-90150000D02*
X167700000Y-91150000D01*
D18*
%TO.N,/B2*%
X143011823Y-54878589D02*
X149551823Y-54878589D01*
D19*
%TO.N,/JA1*%
X164672999Y-51500000D02*
X165700000Y-51500000D01*
%TO.N,P27*%
X164300000Y-143150000D02*
X164650000Y-143500000D01*
D18*
%TO.N,P24*%
X154103235Y-122350001D02*
X156000823Y-122350001D01*
%TO.N,P22*%
X143011823Y-115838589D02*
X149551823Y-115838589D01*
%TO.N,P30*%
X152631823Y-136158589D02*
X152651823Y-136138589D01*
D19*
%TO.N,P27*%
X164650000Y-143500000D02*
X168500000Y-143500000D01*
%TO.N,P13*%
X161100823Y-94430000D02*
X162551823Y-92979000D01*
%TO.N,P11*%
X162551823Y-87899000D02*
X162551823Y-84022495D01*
%TO.N,/JA2*%
X167700000Y-113750001D02*
X167700000Y-114750000D01*
D18*
%TO.N,P22*%
X152651823Y-115818589D02*
X154103235Y-117270001D01*
%TO.N,P9*%
X152651823Y-82798589D02*
X154103235Y-84250001D01*
%TO.N,P19*%
X152631823Y-108218589D02*
X152651823Y-108198589D01*
%TO.N,P25*%
X152631823Y-123458589D02*
X152651823Y-123438589D01*
%TO.N,P29*%
X143011823Y-133618589D02*
X149551823Y-133618589D01*
D19*
%TO.N,/JA1*%
X165900000Y-94150001D02*
X165900000Y-94950000D01*
D17*
%TO.N,P2*%
X154351000Y-57399000D02*
X154351000Y-64820178D01*
D19*
%TO.N,/JA3*%
X169700000Y-86350000D02*
X169700000Y-87250000D01*
D18*
%TO.N,/B4*%
X149551823Y-59958589D02*
X152631823Y-59958589D01*
%TO.N,P5*%
X143011823Y-72658589D02*
X149551823Y-72658589D01*
%TO.N,/B5*%
X143011823Y-62498589D02*
X149551823Y-62498589D01*
%TO.N,P9*%
X149551823Y-82818589D02*
X152631823Y-82818589D01*
%TO.N,P25*%
X149551823Y-123458589D02*
X152631823Y-123458589D01*
D19*
%TO.N,P28*%
X162580999Y-144830999D02*
X165150000Y-147400000D01*
%TO.N,/JA3*%
X169700000Y-62550000D02*
X169700000Y-63500000D01*
D18*
%TO.N,P27*%
X152651823Y-128518589D02*
X154103235Y-129970001D01*
%TO.N,P4*%
X154103235Y-71550001D02*
X156000823Y-71550001D01*
D19*
%TO.N,/JA3*%
X159400000Y-59500000D02*
X159400000Y-58550000D01*
%TO.N,P6*%
X164400000Y-60750000D02*
X168700000Y-60750000D01*
D17*
%TO.N,P29*%
X154394000Y-142788884D02*
X154394000Y-136656825D01*
D19*
%TO.N,/JA3*%
X169700000Y-58550000D02*
X169700000Y-59500000D01*
%TO.N,P11*%
X162551823Y-84022495D02*
X165924318Y-80650001D01*
D18*
%TO.N,P2*%
X154103235Y-66470001D02*
X156000823Y-66470001D01*
%TO.N,P10*%
X149551823Y-85358589D02*
X152631823Y-85358589D01*
D17*
%TO.N,/JA1*%
X155400000Y-146150000D02*
X155399999Y-145300001D01*
D20*
%TO.N,/JA3*%
X160749000Y-53301000D02*
X159400000Y-54650000D01*
D19*
%TO.N,/JA4*%
X171700000Y-74550000D02*
X171700000Y-75500000D01*
X171700000Y-70550000D02*
X171700000Y-71500000D01*
D18*
%TO.N,P24*%
X149551823Y-120918589D02*
X152631823Y-120918589D01*
D20*
%TO.N,/JA3*%
X163654462Y-50699000D02*
X162301000Y-52052463D01*
D19*
%TO.N,P20*%
X161100823Y-112210001D02*
X164890823Y-116000000D01*
D18*
%TO.N,P10*%
X154103235Y-86790001D02*
X156000823Y-86790001D01*
D19*
%TO.N,/JA3*%
X169700000Y-98150000D02*
X169700000Y-99050000D01*
X169700000Y-94250000D02*
X169700000Y-95150000D01*
D20*
%TO.N,/JA2*%
X162301001Y-57349000D02*
X161901000Y-57749000D01*
D18*
%TO.N,P6*%
X149551823Y-75198589D02*
X152631823Y-75198589D01*
D19*
%TO.N,/JA2*%
X167700000Y-137250000D02*
X167700000Y-138249999D01*
D20*
X165568215Y-53749000D02*
X162301000Y-57016215D01*
D19*
%TO.N,P25*%
X165550000Y-135600000D02*
X168500000Y-135600000D01*
D18*
%TO.N,/B4*%
X152631823Y-59958589D02*
X152651823Y-59938589D01*
%TO.N,P27*%
X143011823Y-128538589D02*
X149551823Y-128538589D01*
D19*
%TO.N,/JA2*%
X157400000Y-54550001D02*
X157400000Y-55535000D01*
D18*
%TO.N,P3*%
X143011823Y-67578589D02*
X149551823Y-67578589D01*
D19*
%TO.N,/JA4*%
X171700000Y-113850000D02*
X171700000Y-114750000D01*
%TO.N,/JA1*%
X165900000Y-105950000D02*
X165900000Y-106750000D01*
D18*
%TO.N,P7*%
X149551823Y-77738589D02*
X152631823Y-77738589D01*
%TO.N,P24*%
X152651823Y-120898589D02*
X154103235Y-122350001D01*
%TO.N,P12*%
X152631823Y-90438589D02*
X152651823Y-90418589D01*
%TO.N,P26*%
X152631823Y-125998589D02*
X152651823Y-125978589D01*
D17*
%TO.N,P29*%
X154394000Y-136656825D02*
X156000823Y-135050001D01*
D18*
%TO.N,P21*%
X149551823Y-113298589D02*
X152631823Y-113298589D01*
D19*
%TO.N,/JA1*%
X165900000Y-59300000D02*
X165700000Y-59500000D01*
D18*
%TO.N,P4*%
X152651823Y-70098589D02*
X154103235Y-71550001D01*
D19*
%TO.N,/JA3*%
X169700000Y-66550000D02*
X169700000Y-67500000D01*
%TO.N,/JA1*%
X165900000Y-70550001D02*
X165900000Y-71300000D01*
D18*
%TO.N,P17*%
X149551823Y-103138589D02*
X152631823Y-103138589D01*
%TO.N,P20*%
X149551823Y-110758589D02*
X152631823Y-110758589D01*
%TO.N,/B5*%
X152631823Y-62498589D02*
X152651823Y-62478589D01*
%TO.N,P4*%
X152631823Y-70118589D02*
X152651823Y-70098589D01*
D19*
%TO.N,/JA3*%
X169700000Y-121650001D02*
X169700000Y-122550000D01*
D18*
%TO.N,P16*%
X149551823Y-100598589D02*
X152631823Y-100598589D01*
%TO.N,/B1*%
X152631823Y-52338589D02*
X152651823Y-52318589D01*
D19*
%TO.N,P24*%
X163699000Y-131049000D02*
X164350000Y-131700000D01*
%TO.N,/JA2*%
X167700001Y-133350000D02*
X167700001Y-134349999D01*
%TO.N,P23*%
X165100000Y-128950000D02*
X166250000Y-127800000D01*
D18*
%TO.N,P18*%
X152651823Y-105658589D02*
X154103235Y-107110001D01*
D19*
%TO.N,P26*%
X165092984Y-139500000D02*
X168700000Y-139500000D01*
%TO.N,/JA1*%
X165900000Y-145950000D02*
X165700000Y-146150000D01*
D18*
%TO.N,P9*%
X143011823Y-82818589D02*
X149551823Y-82818589D01*
%TO.N,/B35*%
X143011823Y-138698589D02*
X149551823Y-138698589D01*
%TO.N,/B36*%
X149551823Y-141238589D02*
X152631823Y-141238589D01*
%TO.N,P8*%
X152631823Y-80278589D02*
X152651823Y-80258589D01*
D19*
%TO.N,P11*%
X165924318Y-80650001D02*
X168700000Y-80650000D01*
D18*
%TO.N,P13*%
X154103235Y-94410001D02*
X156000823Y-94410001D01*
D19*
%TO.N,/JA1*%
X165900000Y-102050000D02*
X165900000Y-102850001D01*
D18*
%TO.N,P11*%
X154103235Y-89330001D02*
X156000823Y-89330001D01*
%TO.N,P25*%
X154103234Y-124890000D02*
X156000823Y-124890000D01*
D19*
%TO.N,/JA4*%
X171700000Y-141350000D02*
X171700000Y-142250000D01*
X171700000Y-125650000D02*
X171700000Y-126550000D01*
D18*
%TO.N,/B36*%
X152631823Y-141238589D02*
X152651823Y-141218589D01*
D19*
%TO.N,/JA1*%
X166400000Y-129450000D02*
X166400000Y-129750001D01*
D18*
%TO.N,P4*%
X143011823Y-70118589D02*
X149551823Y-70118589D01*
%TO.N,P16*%
X152631823Y-100598589D02*
X152651823Y-100578589D01*
D19*
%TO.N,/JA4*%
X171700000Y-129550000D02*
X171700000Y-130450000D01*
D20*
%TO.N,/JA2*%
X166899000Y-53749000D02*
X165568215Y-53749000D01*
D18*
%TO.N,P7*%
X152651823Y-77718589D02*
X154103235Y-79170001D01*
D19*
%TO.N,/JA2*%
X167700000Y-109850000D02*
X167700000Y-110849999D01*
%TO.N,/JA1*%
X165900000Y-117650000D02*
X165900000Y-118450001D01*
D18*
%TO.N,P9*%
X152631823Y-82818589D02*
X152651823Y-82798589D01*
D17*
%TO.N,/JA4*%
X161300000Y-145100001D02*
X164549998Y-148349998D01*
D18*
%TO.N,P29*%
X152631823Y-133618589D02*
X152651823Y-133598589D01*
D19*
%TO.N,/JA3*%
X169700000Y-137350000D02*
X169700000Y-138250000D01*
X169700000Y-70550000D02*
X169700000Y-71500000D01*
%TO.N,/JA2*%
X157400000Y-58550000D02*
X157400000Y-59500000D01*
%TO.N,/JA1*%
X165900000Y-126350000D02*
X165700000Y-126550000D01*
D18*
%TO.N,P26*%
X149551823Y-125998589D02*
X152631823Y-125998589D01*
D17*
%TO.N,/JA3*%
X159400000Y-141299999D02*
X159400000Y-142250000D01*
D18*
%TO.N,P24*%
X143011823Y-120918589D02*
X149551823Y-120918589D01*
D19*
%TO.N,P9*%
X161100823Y-83782025D02*
X163600000Y-81282848D01*
D18*
%TO.N,/B2*%
X149551823Y-54878589D02*
X152631823Y-54878589D01*
D19*
%TO.N,/JA4*%
X171700000Y-121650001D02*
X171700000Y-122550000D01*
%TO.N,P22*%
X162551823Y-121258839D02*
X165092984Y-123800000D01*
%TO.N,P28*%
X161100823Y-132530000D02*
X162580999Y-134010176D01*
%TO.N,/JA1*%
X165900000Y-54550000D02*
X165900000Y-55300000D01*
X165900000Y-118450001D02*
X165700001Y-118650000D01*
D18*
%TO.N,/B2*%
X152631823Y-54878589D02*
X152651823Y-54858589D01*
%TO.N,P6*%
X152651823Y-75178589D02*
X154103235Y-76630001D01*
D19*
%TO.N,/JA1*%
X165900000Y-121550001D02*
X165900000Y-122350000D01*
%TO.N,/JA3*%
X169700000Y-146150000D02*
X169700000Y-145250000D01*
D17*
%TO.N,/JA2*%
X157400000Y-141300000D02*
X157400000Y-142250000D01*
D18*
%TO.N,P8*%
X149551823Y-80278589D02*
X152631823Y-80278589D01*
D19*
%TO.N,P7*%
X162551823Y-74798177D02*
X163699000Y-73651000D01*
D18*
%TO.N,P5*%
X152651823Y-72638589D02*
X154103235Y-74090001D01*
D19*
%TO.N,/JA2*%
X157400000Y-50611001D02*
X157400000Y-51450001D01*
D18*
%TO.N,P26*%
X154103236Y-127430002D02*
X156000823Y-127430002D01*
D19*
%TO.N,/JA4*%
X171700000Y-117750000D02*
X171700000Y-118650000D01*
D18*
%TO.N,P16*%
X143011823Y-100598589D02*
X149551823Y-100598589D01*
D19*
%TO.N,P19*%
X163530823Y-112100000D02*
X168699999Y-112100000D01*
%TO.N,/JA1*%
X165900000Y-122350000D02*
X165700000Y-122550000D01*
%TO.N,P22*%
X165092984Y-123800000D02*
X168700000Y-123800000D01*
%TO.N,/JA4*%
X171700000Y-133450001D02*
X171700000Y-134350000D01*
D18*
%TO.N,P3*%
X152651823Y-67558589D02*
X154103234Y-69010000D01*
D19*
%TO.N,P14*%
X161100823Y-96970000D02*
X165670823Y-92400000D01*
D18*
%TO.N,P15*%
X152631823Y-98058589D02*
X152651823Y-98038589D01*
%TO.N,P23*%
X149551823Y-118378589D02*
X152631823Y-118378589D01*
D19*
%TO.N,/JA1*%
X165900000Y-125550001D02*
X165900000Y-126350000D01*
%TO.N,P21*%
X164544000Y-119351016D02*
X165092984Y-119900000D01*
D18*
%TO.N,P15*%
X152651823Y-98038589D02*
X154103235Y-99490001D01*
D19*
%TO.N,/JA3*%
X169700000Y-51500000D02*
X169250000Y-51500000D01*
%TO.N,/JA1*%
X155400000Y-50611001D02*
X155400000Y-51450000D01*
%TO.N,/JA3*%
X159400000Y-54650000D02*
X159400000Y-55535000D01*
%TO.N,P5*%
X162556000Y-58898984D02*
X164704984Y-56750000D01*
%TO.N,/JA1*%
X165900000Y-114550000D02*
X165700000Y-114750000D01*
D18*
%TO.N,/B38*%
X152631823Y-146318589D02*
X152651823Y-146298589D01*
%TO.N,P21*%
X154103234Y-114730000D02*
X156000823Y-114730000D01*
D19*
%TO.N,/JA1*%
X165900000Y-71300000D02*
X165700000Y-71500001D01*
D18*
%TO.N,P8*%
X152651823Y-80258589D02*
X154103236Y-81710002D01*
%TO.N,/B3*%
X143011823Y-57418589D02*
X149551823Y-57418589D01*
D19*
%TO.N,/JA2*%
X167700000Y-98050000D02*
X167700000Y-99049999D01*
D17*
%TO.N,/JA3*%
X159400000Y-146150000D02*
X159400000Y-145200000D01*
D19*
%TO.N,/JA4*%
X171700000Y-51500000D02*
X171250000Y-51500000D01*
%TO.N,/JA2*%
X167700000Y-117650000D02*
X167700000Y-118649999D01*
D18*
%TO.N,/B37*%
X143011823Y-143778589D02*
X149551823Y-143778589D01*
D19*
%TO.N,/JA1*%
X165900000Y-137250000D02*
X165900000Y-138050000D01*
X155400000Y-59500000D02*
X155400000Y-58550000D01*
D18*
%TO.N,P10*%
X143011823Y-85358589D02*
X149551823Y-85358589D01*
D19*
%TO.N,/JA3*%
X169700000Y-109950000D02*
X169700000Y-110850000D01*
D18*
%TO.N,P6*%
X154103235Y-76630001D02*
X156000823Y-76630001D01*
%TO.N,P14*%
X143011823Y-95518589D02*
X149551823Y-95518589D01*
D19*
%TO.N,P21*%
X164544001Y-118193176D02*
X164544000Y-119351016D01*
%TO.N,/JA1*%
X165900000Y-106750000D02*
X165700000Y-106950000D01*
%TO.N,P17*%
X161159999Y-104590001D02*
X161450000Y-104300000D01*
%TO.N,/JA2*%
X167700000Y-78450000D02*
X167700000Y-79399999D01*
D18*
%TO.N,P12*%
X154103234Y-91870000D02*
X156000823Y-91870000D01*
D19*
%TO.N,P10*%
X166000000Y-76750000D02*
X168700000Y-76750000D01*
D18*
%TO.N,P11*%
X143011823Y-87898589D02*
X149551823Y-87898589D01*
D19*
%TO.N,/JA3*%
X169700000Y-74650000D02*
X169700000Y-75500000D01*
%TO.N,/JA1*%
X165900000Y-138050000D02*
X165700000Y-138250000D01*
D17*
%TO.N,P30*%
X155749999Y-147100001D02*
X158425000Y-147100001D01*
D19*
%TO.N,P8*%
X164700000Y-69450000D02*
X165400000Y-68750000D01*
%TO.N,P13*%
X164550000Y-88500000D02*
X168699999Y-88500000D01*
%TO.N,/JA1*%
X165900000Y-134150000D02*
X165700000Y-134350000D01*
D17*
%TO.N,/JA4*%
X161300000Y-144350000D02*
X161300000Y-145100001D01*
D19*
%TO.N,P8*%
X167506000Y-68750000D02*
X167700000Y-68556000D01*
D18*
%TO.N,P12*%
X143011823Y-90438589D02*
X149551823Y-90438589D01*
%TO.N,P8*%
X143011823Y-80278589D02*
X149551823Y-80278589D01*
%TO.N,/B38*%
X143011823Y-146318589D02*
X149551823Y-146318589D01*
D19*
%TO.N,/JA4*%
X171700000Y-109950000D02*
X171700000Y-110850000D01*
D18*
%TO.N,P17*%
X154103236Y-104570002D02*
X156000823Y-104570002D01*
D19*
%TO.N,/JA4*%
X171700000Y-106050000D02*
X171700000Y-106950000D01*
D18*
%TO.N,/B3*%
X149551823Y-57418589D02*
X152631823Y-57418589D01*
D19*
%TO.N,P9*%
X163600000Y-75350000D02*
X166200000Y-72750001D01*
%TO.N,/JA1*%
X165900000Y-109850000D02*
X165900000Y-110650001D01*
%TO.N,P22*%
X161100823Y-117290000D02*
X162551823Y-118741000D01*
D18*
%TO.N,P18*%
X154103235Y-107110001D02*
X156000823Y-107110001D01*
D19*
%TO.N,/JA2*%
X167700001Y-82450000D02*
X167700000Y-83399999D01*
%TO.N,/JA3*%
X169700000Y-78450000D02*
X169700000Y-79400000D01*
%TO.N,/JA1*%
X165900000Y-133350001D02*
X165900000Y-134150000D01*
D18*
%TO.N,P14*%
X149551823Y-95518589D02*
X152631823Y-95518589D01*
D19*
%TO.N,/JA1*%
X165900000Y-79200000D02*
X165700000Y-79400000D01*
%TO.N,/JA2*%
X167700001Y-66550000D02*
X167700001Y-67499999D01*
D18*
%TO.N,P8*%
X154103236Y-81710002D02*
X156000823Y-81710002D01*
D19*
%TO.N,P1*%
X158400000Y-60550000D02*
X158400000Y-63789177D01*
%TO.N,P23*%
X164700000Y-128950001D02*
X165100000Y-128950000D01*
%TO.N,P25*%
X164900000Y-136250000D02*
X165550000Y-135600000D01*
%TO.N,P18*%
X162170824Y-108200000D02*
X168700000Y-108200000D01*
D18*
%TO.N,P7*%
X143011823Y-77738589D02*
X149551823Y-77738589D01*
%TO.N,/B35*%
X152631823Y-138698589D02*
X152651823Y-138678589D01*
%TO.N,P28*%
X149551823Y-131078589D02*
X152631823Y-131078589D01*
D20*
%TO.N,/JA3*%
X162301001Y-53301000D02*
X160749000Y-53301000D01*
D18*
%TO.N,P26*%
X143011823Y-125998589D02*
X149551823Y-125998589D01*
D19*
%TO.N,/JA4*%
X171250000Y-51500000D02*
X170700000Y-50950000D01*
%TO.N,/JA2*%
X167700000Y-105950000D02*
X167700000Y-106949999D01*
D18*
%TO.N,/B1*%
X149551823Y-52338589D02*
X152631823Y-52338589D01*
%TO.N,P14*%
X154103235Y-96950001D02*
X156000823Y-96950001D01*
%TO.N,P2*%
X149551823Y-65038589D02*
X152631823Y-65038589D01*
%TO.N,P11*%
X152651823Y-87878589D02*
X154103235Y-89330001D01*
D19*
%TO.N,P26*%
X163581999Y-133595549D02*
X163581999Y-137989015D01*
D17*
%TO.N,P29*%
X154805116Y-143200000D02*
X154394000Y-142788884D01*
D18*
%TO.N,P13*%
X143011823Y-92978589D02*
X149551823Y-92978589D01*
%TO.N,P20*%
X152631823Y-110758589D02*
X152651823Y-110738589D01*
D19*
%TO.N,/JA1*%
X165900000Y-78450000D02*
X165900000Y-79200000D01*
%TO.N,P15*%
X164210822Y-96400001D02*
X168700000Y-96400002D01*
D18*
%TO.N,P3*%
X152631823Y-67578589D02*
X152651823Y-67558589D01*
%TO.N,/B5*%
X149551823Y-62498589D02*
X152631823Y-62498589D01*
D17*
%TO.N,/JA4*%
X161300000Y-144350000D02*
X161300000Y-145150000D01*
D19*
%TO.N,P9*%
X161100823Y-84270000D02*
X161100823Y-83782025D01*
%TO.N,/JA1*%
X165900000Y-142050001D02*
X165700001Y-142250000D01*
D18*
%TO.N,P15*%
X143011823Y-98058589D02*
X149551823Y-98058589D01*
D19*
%TO.N,/JA4*%
X161400000Y-59500000D02*
X161400000Y-58550000D01*
%TO.N,/JA1*%
X165900000Y-98850001D02*
X165700001Y-99050000D01*
D18*
%TO.N,P27*%
X154103235Y-129970001D02*
X156000823Y-129970001D01*
%TO.N,P26*%
X152651823Y-125978589D02*
X154103236Y-127430002D01*
D19*
X161100823Y-127450001D02*
X162600000Y-128949178D01*
D18*
%TO.N,P19*%
X154103235Y-109650001D02*
X156000823Y-109650001D01*
%TO.N,P9*%
X154103235Y-84250001D02*
X156000823Y-84250001D01*
%TO.N,P23*%
X143011823Y-118378589D02*
X149551823Y-118378589D01*
%TO.N,P2*%
X143011823Y-65038589D02*
X149551823Y-65038589D01*
%TO.N,P18*%
X143011823Y-105678589D02*
X149551823Y-105678589D01*
D19*
%TO.N,/JA1*%
X165899999Y-83200000D02*
X165700000Y-83400000D01*
D18*
%TO.N,P6*%
X143011823Y-75198589D02*
X149551823Y-75198589D01*
D19*
%TO.N,P7*%
X161100823Y-79190000D02*
X162551823Y-77739000D01*
D20*
%TO.N,/JA3*%
X162301000Y-52052463D02*
X162301001Y-53301000D01*
D19*
%TO.N,/JA1*%
X165900000Y-90950000D02*
X165700000Y-91150000D01*
D18*
%TO.N,P3*%
X154103234Y-69010000D02*
X156000823Y-69010000D01*
D19*
%TO.N,/JA1*%
X165900000Y-141250000D02*
X165900000Y-142050001D01*
%TO.N,P12*%
X165200001Y-84650000D02*
X168700000Y-84650000D01*
D18*
%TO.N,/B1*%
X143011823Y-52338589D02*
X149551823Y-52338589D01*
D19*
%TO.N,P28*%
X162580999Y-134010176D02*
X162580999Y-144830999D01*
%TO.N,P1*%
X158400000Y-63789177D02*
X158560823Y-63950000D01*
%TO.N,/JA1*%
X165900000Y-113750001D02*
X165900000Y-114550000D01*
%TO.N,P24*%
X163699000Y-124968178D02*
X163699000Y-131049000D01*
%TO.N,P22*%
X162551823Y-118741000D02*
X162551823Y-121258839D01*
D18*
%TO.N,P7*%
X154103235Y-79170001D02*
X156000823Y-79170001D01*
D17*
%TO.N,P2*%
X155165000Y-56585000D02*
X154351000Y-57399000D01*
D19*
%TO.N,/JA1*%
X165900000Y-66650000D02*
X165900000Y-67300001D01*
D18*
%TO.N,P20*%
X154103235Y-112190001D02*
X156000823Y-112190001D01*
D19*
%TO.N,P7*%
X163699000Y-65451000D02*
X164400000Y-64750000D01*
D18*
%TO.N,P19*%
X119631823Y-108218589D02*
X119651823Y-108198589D01*
D19*
%TO.N,/JA2*%
X134700001Y-102050000D02*
X134700001Y-103049999D01*
D18*
%TO.N,P27*%
X119631823Y-128538589D02*
X119651823Y-128518589D01*
%TO.N,P5*%
X119631823Y-72658589D02*
X119651823Y-72638589D01*
D19*
%TO.N,/JA4*%
X138700000Y-133450001D02*
X138700000Y-134350000D01*
%TO.N,/JA1*%
X132900000Y-125550001D02*
X132900000Y-126350000D01*
D18*
%TO.N,/B2*%
X110011823Y-54878589D02*
X116551823Y-54878589D01*
%TO.N,P23*%
X119651823Y-118358589D02*
X121103235Y-119810001D01*
D19*
%TO.N,P9*%
X128100823Y-83782025D02*
X130600000Y-81282848D01*
%TO.N,/JA2*%
X134700000Y-58450001D02*
X134700000Y-59499999D01*
D17*
%TO.N,/JA4*%
X128399999Y-145249999D02*
X128399999Y-146150001D01*
D19*
%TO.N,P7*%
X130699000Y-73651000D02*
X130699000Y-65451000D01*
D20*
%TO.N,/JA2*%
X133899000Y-53749000D02*
X132568215Y-53749000D01*
D19*
%TO.N,P28*%
X128100823Y-132530000D02*
X129580999Y-134010176D01*
D17*
%TO.N,/JA4*%
X128300000Y-144350000D02*
X128300000Y-145150000D01*
D18*
%TO.N,P12*%
X116551823Y-90438589D02*
X119631823Y-90438589D01*
%TO.N,P24*%
X119651823Y-120898589D02*
X121103235Y-122350001D01*
D19*
%TO.N,/JA1*%
X131672999Y-51500000D02*
X132700000Y-51500000D01*
X132900000Y-110650001D02*
X132700001Y-110850000D01*
D17*
X122399999Y-141300001D02*
X122400000Y-142250000D01*
D19*
%TO.N,P28*%
X129580999Y-144830999D02*
X132150000Y-147400000D01*
%TO.N,P10*%
X133000000Y-76750000D02*
X135700000Y-76750000D01*
D18*
%TO.N,/B37*%
X116551823Y-143778589D02*
X119631823Y-143778589D01*
D19*
%TO.N,P24*%
X130699000Y-131049000D02*
X131350000Y-131700000D01*
%TO.N,/JA2*%
X134700000Y-113750001D02*
X134700000Y-114750000D01*
D18*
%TO.N,P12*%
X119651823Y-90418589D02*
X121103234Y-91870000D01*
%TO.N,/B36*%
X110011823Y-141238589D02*
X116551823Y-141238589D01*
%TO.N,P21*%
X119651823Y-113278589D02*
X121103234Y-114730000D01*
D19*
%TO.N,P17*%
X134506000Y-104300000D02*
X134700000Y-104106000D01*
D18*
%TO.N,P7*%
X119651823Y-77718589D02*
X121103235Y-79170001D01*
D19*
%TO.N,P15*%
X131210822Y-96400001D02*
X135700000Y-96400002D01*
D18*
%TO.N,P10*%
X116551823Y-85358589D02*
X119631823Y-85358589D01*
%TO.N,P11*%
X110011823Y-87898589D02*
X116551823Y-87898589D01*
%TO.N,P3*%
X119631823Y-67578589D02*
X119651823Y-67558589D01*
D19*
%TO.N,/JA1*%
X132900000Y-75300000D02*
X132700000Y-75500000D01*
D18*
%TO.N,P15*%
X121103235Y-99490001D02*
X123000823Y-99490001D01*
%TO.N,P10*%
X110011823Y-85358589D02*
X116551823Y-85358589D01*
D19*
%TO.N,/JA2*%
X134700001Y-133350000D02*
X134700001Y-134349999D01*
D18*
%TO.N,P9*%
X116551823Y-82818589D02*
X119631823Y-82818589D01*
%TO.N,P28*%
X119651823Y-131058589D02*
X121103235Y-132510001D01*
%TO.N,P23*%
X119631823Y-118378589D02*
X119651823Y-118358589D01*
D17*
%TO.N,P29*%
X121394000Y-136656825D02*
X123000823Y-135050001D01*
D19*
%TO.N,/JA2*%
X134700000Y-117650000D02*
X134700000Y-118649999D01*
%TO.N,/JA1*%
X132900000Y-94150001D02*
X132900000Y-94950000D01*
D17*
%TO.N,P29*%
X121394000Y-142788884D02*
X121394000Y-136656825D01*
D19*
%TO.N,P19*%
X128100823Y-109670000D02*
X130530823Y-112100000D01*
%TO.N,/JA2*%
X124400000Y-58550000D02*
X124400000Y-59500000D01*
D18*
%TO.N,P28*%
X121103235Y-132510001D02*
X123000823Y-132510001D01*
%TO.N,P23*%
X110011823Y-118378589D02*
X116551823Y-118378589D01*
D19*
%TO.N,/JA4*%
X138700000Y-125650000D02*
X138700000Y-126550000D01*
%TO.N,/JA1*%
X132900000Y-78450000D02*
X132900000Y-79200000D01*
D17*
%TO.N,P30*%
X121900000Y-147950000D02*
X122749999Y-147100001D01*
D19*
%TO.N,P18*%
X128100823Y-107130000D02*
X129170824Y-108200000D01*
D17*
%TO.N,P2*%
X121351000Y-57399000D02*
X121351000Y-64820178D01*
D18*
%TO.N,P9*%
X121103235Y-84250001D02*
X123000823Y-84250001D01*
%TO.N,P20*%
X116551823Y-110758589D02*
X119631823Y-110758589D01*
D19*
%TO.N,P4*%
X130500000Y-53750000D02*
X130700000Y-53750000D01*
%TO.N,P20*%
X128100823Y-112210001D02*
X131890823Y-116000000D01*
D17*
%TO.N,/JA4*%
X128399999Y-141300001D02*
X128399999Y-142250000D01*
D18*
%TO.N,P19*%
X119651823Y-108198589D02*
X121103235Y-109650001D01*
D19*
%TO.N,P24*%
X128100823Y-122370000D02*
X130699000Y-124968178D01*
%TO.N,/JA3*%
X136700000Y-70550000D02*
X136700000Y-71500000D01*
D17*
%TO.N,/JA4*%
X128300000Y-145150000D02*
X128399999Y-145249999D01*
D19*
%TO.N,/JA1*%
X132900000Y-145950000D02*
X132700000Y-146150000D01*
D18*
%TO.N,P5*%
X116551823Y-72658589D02*
X119631823Y-72658589D01*
%TO.N,P30*%
X116551823Y-136158589D02*
X119631823Y-136158589D01*
D20*
%TO.N,/JA3*%
X129301001Y-53301000D02*
X127749000Y-53301000D01*
D18*
%TO.N,P18*%
X110011823Y-105678589D02*
X116551823Y-105678589D01*
%TO.N,P21*%
X119631823Y-113298589D02*
X119651823Y-113278589D01*
%TO.N,P6*%
X121103235Y-76630001D02*
X123000823Y-76630001D01*
D19*
%TO.N,/JA3*%
X136700000Y-86350000D02*
X136700000Y-87250000D01*
D18*
%TO.N,P28*%
X119631823Y-131078589D02*
X119651823Y-131058589D01*
D19*
%TO.N,P5*%
X129556000Y-72654823D02*
X129556000Y-58898984D01*
%TO.N,P11*%
X129551823Y-87899000D02*
X129551823Y-84022495D01*
%TO.N,P12*%
X132200001Y-84650000D02*
X135700000Y-84650000D01*
%TO.N,P4*%
X131700000Y-52750000D02*
X135700000Y-52750000D01*
D18*
%TO.N,P5*%
X110011823Y-72658589D02*
X116551823Y-72658589D01*
D19*
%TO.N,/JA1*%
X132900000Y-67300001D02*
X132700001Y-67500000D01*
D18*
%TO.N,P19*%
X116551823Y-108218589D02*
X119631823Y-108218589D01*
D19*
%TO.N,P1*%
X125400000Y-63789177D02*
X125560823Y-63950000D01*
D18*
%TO.N,P5*%
X119651823Y-72638589D02*
X121103235Y-74090001D01*
D19*
%TO.N,P11*%
X128100823Y-89350001D02*
X129551823Y-87899000D01*
D18*
%TO.N,P15*%
X119631823Y-98058589D02*
X119651823Y-98038589D01*
D19*
%TO.N,/JA4*%
X138700000Y-102150000D02*
X138700000Y-103050000D01*
X138700000Y-113850000D02*
X138700000Y-114750000D01*
X128400000Y-50611001D02*
X128400000Y-51450001D01*
D18*
%TO.N,P27*%
X121103235Y-129970001D02*
X123000823Y-129970001D01*
%TO.N,/B3*%
X116551823Y-57418589D02*
X119631823Y-57418589D01*
%TO.N,P18*%
X121103235Y-107110001D02*
X123000823Y-107110001D01*
D19*
%TO.N,/JA3*%
X136700000Y-102150000D02*
X136700000Y-103050000D01*
D18*
%TO.N,/B2*%
X119631823Y-54878589D02*
X119651823Y-54858589D01*
%TO.N,P20*%
X110011823Y-110758589D02*
X116551823Y-110758589D01*
%TO.N,/B37*%
X119631823Y-143778589D02*
X119651823Y-143758589D01*
D19*
%TO.N,/JA2*%
X134700000Y-129450000D02*
X134700000Y-130449999D01*
D18*
%TO.N,P28*%
X110011823Y-131078589D02*
X116551823Y-131078589D01*
D19*
%TO.N,/JA1*%
X122400000Y-54550000D02*
X122400000Y-55535000D01*
D18*
%TO.N,P14*%
X110011823Y-95518589D02*
X116551823Y-95518589D01*
D19*
%TO.N,/JA4*%
X138700000Y-90250000D02*
X138700000Y-91150000D01*
D18*
%TO.N,P8*%
X119631823Y-80278589D02*
X119651823Y-80258589D01*
%TO.N,/B38*%
X110011823Y-146318589D02*
X116551823Y-146318589D01*
D20*
%TO.N,/JA2*%
X133899000Y-53749000D02*
X134700000Y-54550000D01*
D19*
%TO.N,P9*%
X130600000Y-81282848D02*
X130600000Y-75350000D01*
%TO.N,P23*%
X132100000Y-128950000D02*
X133250000Y-127800000D01*
%TO.N,/JA3*%
X136700000Y-133450001D02*
X136700000Y-134350000D01*
%TO.N,/JA4*%
X138700000Y-54550001D02*
X138700000Y-55500000D01*
D18*
%TO.N,P6*%
X110011823Y-75198589D02*
X116551823Y-75198589D01*
%TO.N,P24*%
X116551823Y-120918589D02*
X119631823Y-120918589D01*
D19*
%TO.N,/JA1*%
X132900000Y-71300000D02*
X132700000Y-71500001D01*
X132900000Y-87050001D02*
X132700001Y-87250000D01*
%TO.N,/JA3*%
X136700000Y-90250000D02*
X136700000Y-91150000D01*
%TO.N,/JA4*%
X138700000Y-98150000D02*
X138700000Y-99050000D01*
D17*
%TO.N,P29*%
X125400000Y-143200000D02*
X121805116Y-143200000D01*
D18*
%TO.N,P13*%
X119631823Y-92978589D02*
X119651823Y-92958589D01*
%TO.N,P24*%
X119631823Y-120918589D02*
X119651823Y-120898589D01*
D19*
%TO.N,P23*%
X133250000Y-127800000D02*
X135700000Y-127800000D01*
D18*
%TO.N,P30*%
X119631823Y-136158589D02*
X119651823Y-136138589D01*
D19*
%TO.N,/JA1*%
X132900000Y-138050000D02*
X132700000Y-138250000D01*
%TO.N,P12*%
X131000001Y-85850000D02*
X132200001Y-84650000D01*
D18*
%TO.N,/B4*%
X110011823Y-59958589D02*
X116551823Y-59958589D01*
%TO.N,/B38*%
X116551823Y-146318589D02*
X119631823Y-146318589D01*
D19*
%TO.N,/JA3*%
X136700000Y-58550000D02*
X136700000Y-59500000D01*
D18*
%TO.N,P22*%
X110011823Y-115838589D02*
X116551823Y-115838589D01*
%TO.N,P2*%
X119631823Y-65038589D02*
X119651823Y-65018589D01*
%TO.N,P6*%
X119631823Y-75198589D02*
X119651823Y-75178589D01*
D20*
%TO.N,/JA2*%
X132568215Y-53749000D02*
X129301000Y-57016215D01*
D18*
%TO.N,P29*%
X110011823Y-133618589D02*
X116551823Y-133618589D01*
%TO.N,P12*%
X110011823Y-90438589D02*
X116551823Y-90438589D01*
D19*
%TO.N,/JA3*%
X136250000Y-51500000D02*
X135700000Y-50950000D01*
%TO.N,/JA1*%
X132900000Y-54550000D02*
X132900000Y-55300000D01*
%TO.N,/JA4*%
X138700000Y-74550000D02*
X138700000Y-75500000D01*
%TO.N,/JA2*%
X124400000Y-50611001D02*
X124400000Y-51450001D01*
D18*
%TO.N,P28*%
X116551823Y-131078589D02*
X119631823Y-131078589D01*
D19*
%TO.N,P7*%
X129551823Y-74798177D02*
X130699000Y-73651000D01*
%TO.N,/JA4*%
X138250000Y-51500000D02*
X137700000Y-50950000D01*
D20*
%TO.N,/JA3*%
X127749000Y-53301000D02*
X126400000Y-54650000D01*
D19*
%TO.N,P26*%
X130581999Y-137989015D02*
X132092984Y-139500000D01*
%TO.N,P11*%
X132924318Y-80650001D02*
X135700000Y-80650000D01*
D18*
%TO.N,P3*%
X119651823Y-67558589D02*
X121103234Y-69010000D01*
%TO.N,P2*%
X119651823Y-65018589D02*
X121103235Y-66470001D01*
%TO.N,P24*%
X110011823Y-120918589D02*
X116551823Y-120918589D01*
D19*
%TO.N,P21*%
X131544001Y-118193176D02*
X131544000Y-119351016D01*
%TO.N,/JA1*%
X132900000Y-74550000D02*
X132900000Y-75300000D01*
%TO.N,/JA2*%
X134700001Y-82450000D02*
X134700000Y-83399999D01*
%TO.N,/JA4*%
X138700000Y-70550000D02*
X138700000Y-71500000D01*
%TO.N,P5*%
X129556000Y-58898984D02*
X131704984Y-56750000D01*
D17*
%TO.N,P3*%
X122050001Y-52500000D02*
X121400001Y-53150000D01*
D19*
%TO.N,P7*%
X131400000Y-64750000D02*
X135700000Y-64750000D01*
D18*
%TO.N,P15*%
X119651823Y-98038589D02*
X121103235Y-99490001D01*
D17*
%TO.N,P2*%
X125400001Y-56585000D02*
X122165000Y-56585000D01*
D19*
%TO.N,/JA3*%
X136700000Y-74650000D02*
X136700000Y-75500000D01*
%TO.N,/JA1*%
X132900000Y-121550001D02*
X132900000Y-122350000D01*
X132900000Y-145150001D02*
X132900000Y-145950000D01*
D18*
%TO.N,/B1*%
X116551823Y-52338589D02*
X119631823Y-52338589D01*
D19*
%TO.N,/JA2*%
X134700000Y-141250000D02*
X134700000Y-142249999D01*
D18*
%TO.N,P27*%
X119651823Y-128518589D02*
X121103235Y-129970001D01*
%TO.N,P18*%
X119651823Y-105658589D02*
X121103235Y-107110001D01*
D19*
%TO.N,P24*%
X131350000Y-131700000D02*
X135700000Y-131700000D01*
%TO.N,/JA4*%
X138700000Y-86350000D02*
X138700000Y-87250000D01*
D18*
%TO.N,P6*%
X116551823Y-75198589D02*
X119631823Y-75198589D01*
%TO.N,P11*%
X116551823Y-87898589D02*
X119631823Y-87898589D01*
D19*
%TO.N,P19*%
X130530823Y-112100000D02*
X135699999Y-112100000D01*
%TO.N,P17*%
X128100823Y-104590002D02*
X128159999Y-104590001D01*
D18*
%TO.N,P18*%
X116551823Y-105678589D02*
X119631823Y-105678589D01*
%TO.N,P12*%
X121103234Y-91870000D02*
X123000823Y-91870000D01*
D19*
%TO.N,P8*%
X131700000Y-69450000D02*
X132400000Y-68750000D01*
%TO.N,/JA2*%
X134700000Y-137250000D02*
X134700000Y-138249999D01*
%TO.N,/JA1*%
X132900000Y-90950000D02*
X132700000Y-91150000D01*
D20*
%TO.N,/JA3*%
X129301000Y-52052463D02*
X129301001Y-53301000D01*
D19*
X136700000Y-146150000D02*
X136700000Y-145250000D01*
D18*
%TO.N,P10*%
X119631823Y-85358589D02*
X119651823Y-85338589D01*
D19*
%TO.N,P13*%
X129551823Y-92979000D02*
X129551823Y-90498177D01*
%TO.N,P23*%
X131700000Y-128950001D02*
X132100000Y-128950000D01*
%TO.N,P10*%
X131700000Y-78050000D02*
X133000000Y-76750000D01*
D18*
%TO.N,P15*%
X116551823Y-98058589D02*
X119631823Y-98058589D01*
%TO.N,P4*%
X119651823Y-70098589D02*
X121103235Y-71550001D01*
%TO.N,P22*%
X121103235Y-117270001D02*
X123000823Y-117270001D01*
%TO.N,P18*%
X119631823Y-105678589D02*
X119651823Y-105658589D01*
D19*
%TO.N,P27*%
X131650000Y-143500000D02*
X135500000Y-143500000D01*
D18*
%TO.N,P26*%
X116551823Y-125998589D02*
X119631823Y-125998589D01*
%TO.N,P13*%
X121103235Y-94410001D02*
X123000823Y-94410001D01*
%TO.N,P25*%
X110011823Y-123458589D02*
X116551823Y-123458589D01*
X122917627Y-124870823D02*
X128000000Y-124870823D01*
%TO.N,P11*%
X122917627Y-89310824D02*
X128000000Y-89310824D01*
%TO.N,P14*%
X122917627Y-96930824D02*
X128000000Y-96930824D01*
%TO.N,P7*%
X122917627Y-79150824D02*
X128000000Y-79150824D01*
%TO.N,P4*%
X122917627Y-71530824D02*
X128000000Y-71530824D01*
%TO.N,P22*%
X122917627Y-117250824D02*
X128000000Y-117250824D01*
%TO.N,P26*%
X122917627Y-127410825D02*
X127999999Y-127410826D01*
%TO.N,P28*%
X122917627Y-132490824D02*
X128000000Y-132490824D01*
%TO.N,P8*%
X122917627Y-81690825D02*
X127999999Y-81690826D01*
%TO.N,P30*%
X122917627Y-137570825D02*
X127999999Y-137570826D01*
%TO.N,P2*%
X122917627Y-66450824D02*
X128000000Y-66450824D01*
%TO.N,P5*%
X122917627Y-74070825D02*
X128000000Y-74070825D01*
%TO.N,P10*%
X122917627Y-86770824D02*
X128000000Y-86770824D01*
%TO.N,P21*%
X122917627Y-114710823D02*
X128000001Y-114710824D01*
%TO.N,P13*%
X122917627Y-94390824D02*
X128000000Y-94390824D01*
%TO.N,P6*%
X122917627Y-76610824D02*
X128000000Y-76610824D01*
%TO.N,P16*%
X122917627Y-102010823D02*
X128000000Y-102010823D01*
%TO.N,P24*%
X122917627Y-122330824D02*
X128000000Y-122330824D01*
%TO.N,P29*%
X122917627Y-135030824D02*
X128000000Y-135030824D01*
%TO.N,P17*%
X122917627Y-104550825D02*
X127999999Y-104550826D01*
%TO.N,P1*%
X122917627Y-63910824D02*
X128000000Y-63910824D01*
%TO.N,P27*%
X122917627Y-129950825D02*
X128000000Y-129950824D01*
%TO.N,P12*%
X122917627Y-91850823D02*
X128000001Y-91850824D01*
%TO.N,P18*%
X122917627Y-107090824D02*
X128000000Y-107090824D01*
%TO.N,P19*%
X122917627Y-109630824D02*
X128000000Y-109630824D01*
%TO.N,P15*%
X122917627Y-99470824D02*
X128000000Y-99470824D01*
%TO.N,P23*%
X122917627Y-119790824D02*
X128000000Y-119790824D01*
%TO.N,P20*%
X122917627Y-112170824D02*
X128000000Y-112170824D01*
%TO.N,P9*%
X122917627Y-84230824D02*
X128000000Y-84230824D01*
%TO.N,P3*%
X122917627Y-68990823D02*
X128000001Y-68990824D01*
D19*
%TO.N,/JA4*%
X138700000Y-137350000D02*
X138700000Y-138250000D01*
D17*
%TO.N,P29*%
X121805116Y-143200000D02*
X121394000Y-142788884D01*
D19*
%TO.N,P26*%
X132092984Y-139500000D02*
X135700000Y-139500000D01*
D18*
%TO.N,P9*%
X110011823Y-82818589D02*
X116551823Y-82818589D01*
D19*
%TO.N,P7*%
X129551823Y-77739000D02*
X129551823Y-74798177D01*
D20*
%TO.N,/JA2*%
X129301001Y-57349000D02*
X128901000Y-57749000D01*
D19*
%TO.N,P28*%
X129580999Y-134010176D02*
X129580999Y-144830999D01*
D18*
%TO.N,P29*%
X119631823Y-133618589D02*
X119651823Y-133598589D01*
%TO.N,P15*%
X110011823Y-98058589D02*
X116551823Y-98058589D01*
%TO.N,P16*%
X121103234Y-102030000D02*
X123000823Y-102030000D01*
D19*
%TO.N,/JA4*%
X138700000Y-106050000D02*
X138700000Y-106950000D01*
%TO.N,/JA2*%
X134700000Y-98050000D02*
X134700000Y-99049999D01*
%TO.N,/JA3*%
X126400000Y-54650000D02*
X126400000Y-55535000D01*
%TO.N,/JA1*%
X132900000Y-90150001D02*
X132900000Y-90950000D01*
D18*
%TO.N,P10*%
X119651823Y-85338589D02*
X121103235Y-86790001D01*
%TO.N,/B35*%
X116551823Y-138698589D02*
X119631823Y-138698589D01*
D19*
%TO.N,/JA1*%
X132900000Y-106750000D02*
X132700000Y-106950000D01*
%TO.N,P22*%
X132092984Y-123800000D02*
X135700000Y-123800000D01*
%TO.N,/JA1*%
X132900000Y-117650000D02*
X132900000Y-118450001D01*
%TO.N,P22*%
X129551823Y-118741000D02*
X129551823Y-121258839D01*
D18*
X119651823Y-115818589D02*
X121103235Y-117270001D01*
%TO.N,P17*%
X119651823Y-103118589D02*
X121103236Y-104570002D01*
D19*
%TO.N,/JA1*%
X132900000Y-70550001D02*
X132900000Y-71300000D01*
%TO.N,/JA2*%
X134700000Y-78450000D02*
X134700000Y-79399999D01*
D18*
%TO.N,P8*%
X110011823Y-80278589D02*
X116551823Y-80278589D01*
D19*
%TO.N,/JA1*%
X132900000Y-142050001D02*
X132700001Y-142250000D01*
%TO.N,/JA4*%
X128400000Y-59500000D02*
X128400000Y-58550000D01*
%TO.N,/JA1*%
X133400000Y-129750001D02*
X132700001Y-130450000D01*
D18*
%TO.N,P29*%
X121103235Y-135050001D02*
X123000823Y-135050001D01*
D19*
%TO.N,P9*%
X128100823Y-84270000D02*
X128100823Y-83782025D01*
D18*
%TO.N,P3*%
X116551823Y-67578589D02*
X119631823Y-67578589D01*
D19*
%TO.N,/JA3*%
X136700000Y-66550000D02*
X136700000Y-67500000D01*
%TO.N,/JA4*%
X138700000Y-66550000D02*
X138700000Y-67500000D01*
%TO.N,/JA1*%
X132900000Y-86250000D02*
X132900000Y-87050001D01*
%TO.N,/JA3*%
X126400000Y-50611001D02*
X126400000Y-51450000D01*
%TO.N,/JA1*%
X132900000Y-102850001D02*
X132700000Y-103050001D01*
D18*
%TO.N,P26*%
X119631823Y-125998589D02*
X119651823Y-125978589D01*
%TO.N,P19*%
X110011823Y-108218589D02*
X116551823Y-108218589D01*
D19*
%TO.N,/JA4*%
X138700000Y-141350000D02*
X138700000Y-142250000D01*
D18*
%TO.N,P26*%
X121103236Y-127430002D02*
X123000823Y-127430002D01*
%TO.N,P4*%
X121103235Y-71550001D02*
X123000823Y-71550001D01*
D20*
%TO.N,/JA2*%
X129301000Y-57016215D02*
X129301001Y-57349000D01*
D19*
X134700000Y-105950000D02*
X134700000Y-106949999D01*
%TO.N,P13*%
X131550000Y-88500000D02*
X135699999Y-88500000D01*
D17*
%TO.N,P2*%
X122165000Y-56585000D02*
X121351000Y-57399000D01*
D19*
%TO.N,/JA1*%
X132900000Y-82450000D02*
X132899999Y-83200000D01*
D18*
%TO.N,P25*%
X119631823Y-123458589D02*
X119651823Y-123438589D01*
D19*
%TO.N,/JA1*%
X132900000Y-62650000D02*
X132900000Y-63300001D01*
%TO.N,/JA3*%
X136700000Y-54550000D02*
X136700000Y-55500000D01*
D18*
%TO.N,P7*%
X116551823Y-77738589D02*
X119631823Y-77738589D01*
%TO.N,P20*%
X119651823Y-110738589D02*
X121103235Y-112190001D01*
D19*
%TO.N,/JA3*%
X136700000Y-117750000D02*
X136700000Y-118650000D01*
D17*
%TO.N,/JA4*%
X131549998Y-148349998D02*
X138100000Y-148349998D01*
D19*
%TO.N,P16*%
X128100823Y-102049999D02*
X129850822Y-100300000D01*
D20*
%TO.N,/JA3*%
X135449000Y-50699000D02*
X130654462Y-50699000D01*
D18*
%TO.N,P9*%
X119651823Y-82798589D02*
X121103235Y-84250001D01*
%TO.N,P11*%
X119631823Y-87898589D02*
X119651823Y-87878589D01*
%TO.N,P16*%
X116551823Y-100598589D02*
X119631823Y-100598589D01*
D19*
%TO.N,P7*%
X128100823Y-79190000D02*
X129551823Y-77739000D01*
D18*
%TO.N,P21*%
X121103234Y-114730000D02*
X123000823Y-114730000D01*
%TO.N,P14*%
X119651823Y-95498589D02*
X121103235Y-96950001D01*
%TO.N,/B35*%
X110011823Y-138698589D02*
X116551823Y-138698589D01*
D19*
%TO.N,P6*%
X131400000Y-60750000D02*
X135700000Y-60750000D01*
D18*
%TO.N,P24*%
X121103235Y-122350001D02*
X123000823Y-122350001D01*
%TO.N,P17*%
X110011823Y-103138589D02*
X116551823Y-103138589D01*
D19*
X128450000Y-104300000D02*
X134506000Y-104300000D01*
D18*
%TO.N,P13*%
X116551823Y-92978589D02*
X119631823Y-92978589D01*
D19*
%TO.N,/JA1*%
X132900000Y-126350000D02*
X132700000Y-126550000D01*
%TO.N,/JA3*%
X136700000Y-62550000D02*
X136700000Y-63500000D01*
%TO.N,P26*%
X129600000Y-128949178D02*
X129600000Y-132613550D01*
%TO.N,/JA4*%
X138700000Y-82450000D02*
X138700000Y-83400000D01*
%TO.N,/JA1*%
X132900000Y-137250000D02*
X132900000Y-138050000D01*
%TO.N,/JA4*%
X138700000Y-94250000D02*
X138700000Y-95150000D01*
D18*
%TO.N,/B36*%
X119631823Y-141238589D02*
X119651823Y-141218589D01*
D19*
%TO.N,/JA1*%
X132900000Y-105950000D02*
X132900000Y-106750000D01*
D18*
%TO.N,P21*%
X116551823Y-113298589D02*
X119631823Y-113298589D01*
D19*
%TO.N,P20*%
X131890823Y-116000000D02*
X135700000Y-116000000D01*
%TO.N,P16*%
X129850822Y-100300000D02*
X135699999Y-100300000D01*
%TO.N,/JA2*%
X134249999Y-51499999D02*
X134700000Y-51499999D01*
%TO.N,/JA1*%
X132900000Y-134150000D02*
X132700000Y-134350000D01*
D18*
%TO.N,/B4*%
X116551823Y-59958589D02*
X119631823Y-59958589D01*
D19*
%TO.N,/JA3*%
X136700000Y-141350000D02*
X136700000Y-142250000D01*
%TO.N,/JA1*%
X132900000Y-141250000D02*
X132900000Y-142050001D01*
%TO.N,/JA2*%
X134700000Y-54550000D02*
X134700000Y-55500001D01*
X134700000Y-125550001D02*
X134700000Y-126550000D01*
%TO.N,/JA3*%
X136700000Y-106050000D02*
X136700000Y-106950000D01*
%TO.N,P15*%
X128100823Y-99510000D02*
X131210822Y-96400001D01*
D18*
%TO.N,P10*%
X121103235Y-86790001D02*
X123000823Y-86790001D01*
D19*
%TO.N,/JA1*%
X132900000Y-109850000D02*
X132900000Y-110650001D01*
%TO.N,P13*%
X128100823Y-94430000D02*
X129551823Y-92979000D01*
D18*
%TO.N,P17*%
X119631823Y-103138589D02*
X119651823Y-103118589D01*
D19*
%TO.N,P22*%
X129551823Y-121258839D02*
X132092984Y-123800000D01*
D18*
%TO.N,P2*%
X116551823Y-65038589D02*
X119631823Y-65038589D01*
D19*
%TO.N,P26*%
X130581999Y-133595549D02*
X130581999Y-137989015D01*
%TO.N,/JA4*%
X138700000Y-51500000D02*
X138250000Y-51500000D01*
D18*
%TO.N,P4*%
X110011823Y-70118589D02*
X116551823Y-70118589D01*
%TO.N,/B5*%
X110011823Y-62498589D02*
X116551823Y-62498589D01*
%TO.N,P25*%
X121103234Y-124890000D02*
X123000823Y-124890000D01*
D20*
%TO.N,/JA3*%
X130654462Y-50699000D02*
X129301000Y-52052463D01*
D19*
%TO.N,/JA2*%
X134700001Y-62550000D02*
X134700000Y-63499999D01*
%TO.N,P13*%
X129551823Y-90498177D02*
X131550000Y-88500000D01*
%TO.N,/JA3*%
X136700000Y-78450000D02*
X136700000Y-79400000D01*
D18*
%TO.N,P7*%
X121103235Y-79170001D02*
X123000823Y-79170001D01*
D19*
%TO.N,P9*%
X130600000Y-75350000D02*
X133200000Y-72750001D01*
%TO.N,/JA3*%
X136700000Y-129550000D02*
X136700000Y-130450000D01*
%TO.N,P22*%
X128100823Y-117290000D02*
X129551823Y-118741000D01*
D18*
%TO.N,/B1*%
X110011823Y-52338589D02*
X116551823Y-52338589D01*
D19*
%TO.N,P28*%
X132150000Y-147400000D02*
X135700000Y-147400000D01*
D18*
%TO.N,P22*%
X116551823Y-115838589D02*
X119631823Y-115838589D01*
D19*
%TO.N,P18*%
X129170824Y-108200000D02*
X135700000Y-108200000D01*
%TO.N,/JA1*%
X132900000Y-118450001D02*
X132700001Y-118650000D01*
%TO.N,/JA2*%
X124400000Y-54550001D02*
X124400000Y-55535000D01*
D18*
%TO.N,/B3*%
X110011823Y-57418589D02*
X116551823Y-57418589D01*
D20*
%TO.N,/JA2*%
X128901000Y-57749000D02*
X125201000Y-57749000D01*
D18*
%TO.N,P29*%
X116551823Y-133618589D02*
X119631823Y-133618589D01*
D17*
%TO.N,P2*%
X121351000Y-64820178D02*
X123000823Y-66470002D01*
D19*
%TO.N,P14*%
X132670823Y-92400000D02*
X135700000Y-92400000D01*
D18*
%TO.N,/B38*%
X119631823Y-146318589D02*
X119651823Y-146298589D01*
D19*
%TO.N,/JA1*%
X132900000Y-122350000D02*
X132700000Y-122550000D01*
D18*
%TO.N,P23*%
X116551823Y-118378589D02*
X119631823Y-118378589D01*
D19*
%TO.N,/JA2*%
X134700001Y-66550000D02*
X134700001Y-67499999D01*
D18*
%TO.N,/B4*%
X119631823Y-59958589D02*
X119651823Y-59938589D01*
%TO.N,P7*%
X110011823Y-77738589D02*
X116551823Y-77738589D01*
%TO.N,P16*%
X110011823Y-100598589D02*
X116551823Y-100598589D01*
%TO.N,P23*%
X121103235Y-119810001D02*
X123000823Y-119810001D01*
%TO.N,/B37*%
X110011823Y-143778589D02*
X116551823Y-143778589D01*
D19*
%TO.N,/JA3*%
X136700000Y-137350000D02*
X136700000Y-138250000D01*
D18*
%TO.N,P3*%
X110011823Y-67578589D02*
X116551823Y-67578589D01*
D19*
%TO.N,/JA2*%
X134700000Y-70550001D02*
X134700001Y-71499999D01*
D18*
%TO.N,P20*%
X119631823Y-110758589D02*
X119651823Y-110738589D01*
%TO.N,P11*%
X121103235Y-89330001D02*
X123000823Y-89330001D01*
D20*
%TO.N,/JA3*%
X135700000Y-50950000D02*
X135449000Y-50699000D01*
D19*
%TO.N,/JA1*%
X132900000Y-63300001D02*
X132700001Y-63500000D01*
%TO.N,/JA4*%
X138700000Y-121650001D02*
X138700000Y-122550000D01*
D18*
%TO.N,/B36*%
X116551823Y-141238589D02*
X119631823Y-141238589D01*
D19*
%TO.N,/JA2*%
X134700001Y-90150000D02*
X134700000Y-91150000D01*
%TO.N,/JA4*%
X138700000Y-58550000D02*
X138700000Y-59500000D01*
X138700000Y-129550000D02*
X138700000Y-130450000D01*
D18*
%TO.N,P30*%
X110011823Y-136158589D02*
X116551823Y-136158589D01*
D19*
%TO.N,/JA3*%
X136700000Y-51500000D02*
X136250000Y-51500000D01*
%TO.N,/JA2*%
X134700000Y-109850000D02*
X134700000Y-110849999D01*
%TO.N,/JA1*%
X132900000Y-55300000D02*
X132700000Y-55500000D01*
D18*
%TO.N,P20*%
X121103235Y-112190001D02*
X123000823Y-112190001D01*
%TO.N,/B5*%
X119631823Y-62498589D02*
X119651823Y-62478589D01*
%TO.N,P13*%
X110011823Y-92978589D02*
X116551823Y-92978589D01*
D19*
%TO.N,/JA2*%
X134700000Y-94150001D02*
X134700000Y-95149999D01*
D17*
%TO.N,/JA3*%
X126400000Y-146150000D02*
X126400000Y-145200000D01*
D19*
%TO.N,P8*%
X132400000Y-68750000D02*
X134506000Y-68750000D01*
D18*
%TO.N,P5*%
X121103235Y-74090001D02*
X123000823Y-74090001D01*
D19*
%TO.N,/JA1*%
X132900000Y-58550000D02*
X132900000Y-59300000D01*
%TO.N,P26*%
X128100823Y-127450001D02*
X129600000Y-128949178D01*
D18*
%TO.N,/B35*%
X119631823Y-138698589D02*
X119651823Y-138678589D01*
%TO.N,P11*%
X119651823Y-87878589D02*
X121103235Y-89330001D01*
D17*
%TO.N,P30*%
X122749999Y-147100001D02*
X125425000Y-147100001D01*
D18*
%TO.N,P14*%
X119631823Y-95518589D02*
X119651823Y-95498589D01*
D19*
%TO.N,/JA4*%
X138700000Y-109950000D02*
X138700000Y-110850000D01*
%TO.N,P27*%
X131300000Y-143150000D02*
X131650000Y-143500000D01*
D18*
%TO.N,P14*%
X116551823Y-95518589D02*
X119631823Y-95518589D01*
D17*
%TO.N,P3*%
X125400000Y-52500000D02*
X122050001Y-52500000D01*
D19*
%TO.N,/JA3*%
X136700000Y-113850000D02*
X136700000Y-114750000D01*
%TO.N,/JA2*%
X134700001Y-121550000D02*
X134700001Y-122549999D01*
D18*
%TO.N,P26*%
X119651823Y-125978589D02*
X121103236Y-127430002D01*
D19*
%TO.N,P17*%
X128159999Y-104590001D02*
X128450000Y-104300000D01*
%TO.N,/JA2*%
X134700000Y-86250000D02*
X134700000Y-87249999D01*
D18*
%TO.N,P25*%
X119651823Y-123438589D02*
X121103234Y-124890000D01*
D19*
%TO.N,P11*%
X129551823Y-84022495D02*
X132924318Y-80650001D01*
%TO.N,P8*%
X134506000Y-68750000D02*
X134700000Y-68556000D01*
D18*
%TO.N,P4*%
X116551823Y-70118589D02*
X119631823Y-70118589D01*
D19*
%TO.N,/JA3*%
X136700000Y-125650000D02*
X136700000Y-126550000D01*
D18*
%TO.N,P26*%
X110011823Y-125998589D02*
X116551823Y-125998589D01*
%TO.N,/B2*%
X116551823Y-54878589D02*
X119631823Y-54878589D01*
%TO.N,P13*%
X119651823Y-92958589D02*
X121103235Y-94410001D01*
D19*
%TO.N,P25*%
X131900000Y-136250000D02*
X132550000Y-135600000D01*
%TO.N,P4*%
X130700000Y-53750000D02*
X131700000Y-52750000D01*
D18*
%TO.N,/B3*%
X119631823Y-57418589D02*
X119651823Y-57398589D01*
D19*
%TO.N,P1*%
X125400000Y-60550000D02*
X125400000Y-63789177D01*
D18*
%TO.N,P6*%
X119651823Y-75178589D02*
X121103235Y-76630001D01*
D19*
%TO.N,/JA3*%
X136700000Y-121650001D02*
X136700000Y-122550000D01*
D18*
%TO.N,P19*%
X121103235Y-109650001D02*
X123000823Y-109650001D01*
D19*
%TO.N,/JA2*%
X134700001Y-145150000D02*
X134700000Y-146150000D01*
%TO.N,/JA1*%
X132900000Y-133350001D02*
X132900000Y-134150000D01*
%TO.N,P9*%
X133200000Y-72750001D02*
X135700000Y-72750001D01*
%TO.N,/JA1*%
X132899999Y-83200000D02*
X132700000Y-83400000D01*
%TO.N,/JA4*%
X138700000Y-62550000D02*
X138700000Y-63500000D01*
%TO.N,/JA1*%
X132900000Y-59300000D02*
X132700000Y-59500000D01*
%TO.N,P6*%
X131000000Y-61150000D02*
X131400000Y-60750000D01*
%TO.N,P24*%
X130699000Y-124968178D02*
X130699000Y-131049000D01*
%TO.N,P7*%
X130699000Y-65451000D02*
X131400000Y-64750000D01*
D18*
%TO.N,P25*%
X116551823Y-123458589D02*
X119631823Y-123458589D01*
D19*
%TO.N,/JA4*%
X138700000Y-146150000D02*
X138700000Y-145150000D01*
%TO.N,/JA3*%
X126400000Y-59500000D02*
X126400000Y-58550000D01*
D18*
%TO.N,P16*%
X119631823Y-100598589D02*
X119651823Y-100578589D01*
%TO.N,P7*%
X119631823Y-77738589D02*
X119651823Y-77718589D01*
D19*
%TO.N,/JA3*%
X136700000Y-98150000D02*
X136700000Y-99050000D01*
%TO.N,/JA1*%
X132900000Y-98850001D02*
X132700001Y-99050000D01*
%TO.N,/JA2*%
X134700000Y-74550000D02*
X134700001Y-75499999D01*
D18*
%TO.N,P29*%
X119651823Y-133598589D02*
X121103235Y-135050001D01*
D19*
%TO.N,P26*%
X129600000Y-132613550D02*
X130581999Y-133595549D01*
%TO.N,/JA3*%
X136700000Y-82450000D02*
X136700000Y-83400000D01*
%TO.N,/JA1*%
X132900000Y-113750001D02*
X132900000Y-114550000D01*
D18*
%TO.N,P22*%
X119631823Y-115838589D02*
X119651823Y-115818589D01*
D17*
%TO.N,/JA4*%
X128300000Y-144350000D02*
X128300000Y-145100001D01*
D18*
%TO.N,P8*%
X116551823Y-80278589D02*
X119631823Y-80278589D01*
X119651823Y-80258589D02*
X121103236Y-81710002D01*
D19*
%TO.N,/JA1*%
X132900000Y-66650000D02*
X132900000Y-67300001D01*
%TO.N,/JA4*%
X128400000Y-54550001D02*
X128400000Y-55535000D01*
X138700000Y-78450000D02*
X138700000Y-79400000D01*
D18*
%TO.N,P14*%
X121103235Y-96950001D02*
X123000823Y-96950001D01*
D19*
%TO.N,P5*%
X131704984Y-56750000D02*
X135700000Y-56750000D01*
D18*
%TO.N,P27*%
X116551823Y-128538589D02*
X119631823Y-128538589D01*
%TO.N,P8*%
X121103236Y-81710002D02*
X123000823Y-81710002D01*
D19*
%TO.N,P25*%
X132550000Y-135600000D02*
X135500000Y-135600000D01*
D18*
%TO.N,P17*%
X116551823Y-103138589D02*
X119631823Y-103138589D01*
D19*
%TO.N,/JA1*%
X132900000Y-102050000D02*
X132900000Y-102850001D01*
D18*
%TO.N,P27*%
X110011823Y-128538589D02*
X116551823Y-128538589D01*
%TO.N,/B5*%
X116551823Y-62498589D02*
X119631823Y-62498589D01*
%TO.N,P3*%
X121103234Y-69010000D02*
X123000823Y-69010000D01*
D19*
%TO.N,/JA1*%
X132900000Y-98050000D02*
X132900000Y-98850001D01*
D17*
%TO.N,/JA4*%
X128300000Y-145100001D02*
X131549998Y-148349998D01*
D18*
%TO.N,P4*%
X119631823Y-70118589D02*
X119651823Y-70098589D01*
D19*
%TO.N,/JA1*%
X122400000Y-50611001D02*
X122400000Y-51450000D01*
D18*
%TO.N,P2*%
X121103235Y-66470001D02*
X123000823Y-66470001D01*
%TO.N,P12*%
X119631823Y-90438589D02*
X119651823Y-90418589D01*
D17*
%TO.N,/JA1*%
X122400000Y-146150000D02*
X122399999Y-145300001D01*
D19*
%TO.N,P21*%
X131544000Y-119351016D02*
X132092984Y-119900000D01*
X132092984Y-119900000D02*
X135700000Y-119900000D01*
%TO.N,/JA1*%
X132900000Y-114550000D02*
X132700000Y-114750000D01*
X133400000Y-129450000D02*
X133400000Y-129750001D01*
D17*
%TO.N,/JA2*%
X124400001Y-146150000D02*
X124400000Y-145200000D01*
D19*
%TO.N,P21*%
X128100823Y-114749999D02*
X131544001Y-118193176D01*
%TO.N,P5*%
X128100823Y-74110000D02*
X129556000Y-72654823D01*
%TO.N,/JA3*%
X136700000Y-94250000D02*
X136700000Y-95150000D01*
D17*
%TO.N,/JA2*%
X124400000Y-141300000D02*
X124400000Y-142250000D01*
D19*
%TO.N,/JA4*%
X138700000Y-117750000D02*
X138700000Y-118650000D01*
D18*
%TO.N,P21*%
X110011823Y-113298589D02*
X116551823Y-113298589D01*
D19*
%TO.N,/JA1*%
X122400000Y-59500000D02*
X122400000Y-58550000D01*
D18*
%TO.N,P2*%
X110011823Y-65038589D02*
X116551823Y-65038589D01*
D19*
%TO.N,P14*%
X128100823Y-96970000D02*
X132670823Y-92400000D01*
D18*
%TO.N,/B1*%
X119631823Y-52338589D02*
X119651823Y-52318589D01*
D19*
%TO.N,/JA3*%
X136700000Y-109950000D02*
X136700000Y-110850000D01*
%TO.N,/JA1*%
X131423000Y-51750000D02*
X131672999Y-51500000D01*
D18*
%TO.N,P9*%
X119631823Y-82818589D02*
X119651823Y-82798589D01*
D17*
%TO.N,/JA3*%
X126400000Y-141299999D02*
X126400000Y-142250000D01*
D18*
%TO.N,P16*%
X119651823Y-100578589D02*
X121103234Y-102030000D01*
D19*
%TO.N,/JA1*%
X132900000Y-94950000D02*
X132700000Y-95150000D01*
D20*
%TO.N,/JA2*%
X125201000Y-57749000D02*
X124400000Y-58550000D01*
D19*
%TO.N,/JA1*%
X132900000Y-79200000D02*
X132700000Y-79400000D01*
D18*
%TO.N,P17*%
X121103236Y-104570002D02*
X123000823Y-104570002D01*
%TD*%
M02*
