%TF.GenerationSoftware,KiCad,Pcbnew,9.0.3*%
%TF.CreationDate,2025-08-19T22:59:22-04:00*%
%TF.ProjectId,Mess-Breakout,4d657373-2d42-4726-9561-6b6f75742e6b,rev?*%
%TF.SameCoordinates,Original*%
%TF.FileFunction,Legend,Bot*%
%TF.FilePolarity,Positive*%
%FSLAX46Y46*%
G04 Gerber Fmt 4.6, Leading zero omitted, Abs format (unit mm)*
G04 Created by KiCad (PCBNEW 9.0.3) date 2025-08-19 22:59:22*
%MOMM*%
%LPD*%
G01*
G04 APERTURE LIST*
%ADD10C,0.150000*%
%ADD11C,0.000000*%
G04 APERTURE END LIST*
D10*
X119738093Y-124559874D02*
X119738093Y-123559874D01*
X119071427Y-123559874D02*
X118880951Y-123559874D01*
X118880951Y-123559874D02*
X118785713Y-123607493D01*
X118785713Y-123607493D02*
X118690475Y-123702731D01*
X118690475Y-123702731D02*
X118642856Y-123893207D01*
X118642856Y-123893207D02*
X118642856Y-124226540D01*
X118642856Y-124226540D02*
X118690475Y-124417016D01*
X118690475Y-124417016D02*
X118785713Y-124512255D01*
X118785713Y-124512255D02*
X118880951Y-124559874D01*
X118880951Y-124559874D02*
X119071427Y-124559874D01*
X119071427Y-124559874D02*
X119166665Y-124512255D01*
X119166665Y-124512255D02*
X119261903Y-124417016D01*
X119261903Y-124417016D02*
X119309522Y-124226540D01*
X119309522Y-124226540D02*
X119309522Y-123893207D01*
X119309522Y-123893207D02*
X119261903Y-123702731D01*
X119261903Y-123702731D02*
X119166665Y-123607493D01*
X119166665Y-123607493D02*
X119071427Y-123559874D01*
X118357141Y-123559874D02*
X117785713Y-123559874D01*
X118071427Y-124559874D02*
X118071427Y-123559874D01*
X117690475Y-124655112D02*
X116928570Y-124655112D01*
X116690474Y-124559874D02*
X116690474Y-123559874D01*
X116690474Y-123559874D02*
X116357141Y-124274159D01*
X116357141Y-124274159D02*
X116023808Y-123559874D01*
X116023808Y-123559874D02*
X116023808Y-124559874D01*
X115166665Y-124512255D02*
X115261903Y-124559874D01*
X115261903Y-124559874D02*
X115452379Y-124559874D01*
X115452379Y-124559874D02*
X115547617Y-124512255D01*
X115547617Y-124512255D02*
X115595236Y-124417016D01*
X115595236Y-124417016D02*
X115595236Y-124036064D01*
X115595236Y-124036064D02*
X115547617Y-123940826D01*
X115547617Y-123940826D02*
X115452379Y-123893207D01*
X115452379Y-123893207D02*
X115261903Y-123893207D01*
X115261903Y-123893207D02*
X115166665Y-123940826D01*
X115166665Y-123940826D02*
X115119046Y-124036064D01*
X115119046Y-124036064D02*
X115119046Y-124131302D01*
X115119046Y-124131302D02*
X115595236Y-124226540D01*
X114738093Y-124512255D02*
X114642855Y-124559874D01*
X114642855Y-124559874D02*
X114452379Y-124559874D01*
X114452379Y-124559874D02*
X114357141Y-124512255D01*
X114357141Y-124512255D02*
X114309522Y-124417016D01*
X114309522Y-124417016D02*
X114309522Y-124369397D01*
X114309522Y-124369397D02*
X114357141Y-124274159D01*
X114357141Y-124274159D02*
X114452379Y-124226540D01*
X114452379Y-124226540D02*
X114595236Y-124226540D01*
X114595236Y-124226540D02*
X114690474Y-124178921D01*
X114690474Y-124178921D02*
X114738093Y-124083683D01*
X114738093Y-124083683D02*
X114738093Y-124036064D01*
X114738093Y-124036064D02*
X114690474Y-123940826D01*
X114690474Y-123940826D02*
X114595236Y-123893207D01*
X114595236Y-123893207D02*
X114452379Y-123893207D01*
X114452379Y-123893207D02*
X114357141Y-123940826D01*
X113928569Y-124512255D02*
X113833331Y-124559874D01*
X113833331Y-124559874D02*
X113642855Y-124559874D01*
X113642855Y-124559874D02*
X113547617Y-124512255D01*
X113547617Y-124512255D02*
X113499998Y-124417016D01*
X113499998Y-124417016D02*
X113499998Y-124369397D01*
X113499998Y-124369397D02*
X113547617Y-124274159D01*
X113547617Y-124274159D02*
X113642855Y-124226540D01*
X113642855Y-124226540D02*
X113785712Y-124226540D01*
X113785712Y-124226540D02*
X113880950Y-124178921D01*
X113880950Y-124178921D02*
X113928569Y-124083683D01*
X113928569Y-124083683D02*
X113928569Y-124036064D01*
X113928569Y-124036064D02*
X113880950Y-123940826D01*
X113880950Y-123940826D02*
X113785712Y-123893207D01*
X113785712Y-123893207D02*
X113642855Y-123893207D01*
X113642855Y-123893207D02*
X113547617Y-123940826D01*
X111976188Y-124036064D02*
X111833331Y-124083683D01*
X111833331Y-124083683D02*
X111785712Y-124131302D01*
X111785712Y-124131302D02*
X111738093Y-124226540D01*
X111738093Y-124226540D02*
X111738093Y-124369397D01*
X111738093Y-124369397D02*
X111785712Y-124464635D01*
X111785712Y-124464635D02*
X111833331Y-124512255D01*
X111833331Y-124512255D02*
X111928569Y-124559874D01*
X111928569Y-124559874D02*
X112309521Y-124559874D01*
X112309521Y-124559874D02*
X112309521Y-123559874D01*
X112309521Y-123559874D02*
X111976188Y-123559874D01*
X111976188Y-123559874D02*
X111880950Y-123607493D01*
X111880950Y-123607493D02*
X111833331Y-123655112D01*
X111833331Y-123655112D02*
X111785712Y-123750350D01*
X111785712Y-123750350D02*
X111785712Y-123845588D01*
X111785712Y-123845588D02*
X111833331Y-123940826D01*
X111833331Y-123940826D02*
X111880950Y-123988445D01*
X111880950Y-123988445D02*
X111976188Y-124036064D01*
X111976188Y-124036064D02*
X112309521Y-124036064D01*
X110880950Y-123893207D02*
X110880950Y-124559874D01*
X111309521Y-123893207D02*
X111309521Y-124417016D01*
X111309521Y-124417016D02*
X111261902Y-124512255D01*
X111261902Y-124512255D02*
X111166664Y-124559874D01*
X111166664Y-124559874D02*
X111023807Y-124559874D01*
X111023807Y-124559874D02*
X110928569Y-124512255D01*
X110928569Y-124512255D02*
X110880950Y-124464635D01*
X110452378Y-124512255D02*
X110357140Y-124559874D01*
X110357140Y-124559874D02*
X110166664Y-124559874D01*
X110166664Y-124559874D02*
X110071426Y-124512255D01*
X110071426Y-124512255D02*
X110023807Y-124417016D01*
X110023807Y-124417016D02*
X110023807Y-124369397D01*
X110023807Y-124369397D02*
X110071426Y-124274159D01*
X110071426Y-124274159D02*
X110166664Y-124226540D01*
X110166664Y-124226540D02*
X110309521Y-124226540D01*
X110309521Y-124226540D02*
X110404759Y-124178921D01*
X110404759Y-124178921D02*
X110452378Y-124083683D01*
X110452378Y-124083683D02*
X110452378Y-124036064D01*
X110452378Y-124036064D02*
X110404759Y-123940826D01*
X110404759Y-123940826D02*
X110309521Y-123893207D01*
X110309521Y-123893207D02*
X110166664Y-123893207D01*
X110166664Y-123893207D02*
X110071426Y-123940826D01*
X109595235Y-124178921D02*
X108833331Y-124178921D01*
X108023807Y-124036064D02*
X107880950Y-124083683D01*
X107880950Y-124083683D02*
X107833331Y-124131302D01*
X107833331Y-124131302D02*
X107785712Y-124226540D01*
X107785712Y-124226540D02*
X107785712Y-124369397D01*
X107785712Y-124369397D02*
X107833331Y-124464635D01*
X107833331Y-124464635D02*
X107880950Y-124512255D01*
X107880950Y-124512255D02*
X107976188Y-124559874D01*
X107976188Y-124559874D02*
X108357140Y-124559874D01*
X108357140Y-124559874D02*
X108357140Y-123559874D01*
X108357140Y-123559874D02*
X108023807Y-123559874D01*
X108023807Y-123559874D02*
X107928569Y-123607493D01*
X107928569Y-123607493D02*
X107880950Y-123655112D01*
X107880950Y-123655112D02*
X107833331Y-123750350D01*
X107833331Y-123750350D02*
X107833331Y-123845588D01*
X107833331Y-123845588D02*
X107880950Y-123940826D01*
X107880950Y-123940826D02*
X107928569Y-123988445D01*
X107928569Y-123988445D02*
X108023807Y-124036064D01*
X108023807Y-124036064D02*
X108357140Y-124036064D01*
X107357140Y-124559874D02*
X107357140Y-123893207D01*
X107357140Y-124083683D02*
X107309521Y-123988445D01*
X107309521Y-123988445D02*
X107261902Y-123940826D01*
X107261902Y-123940826D02*
X107166664Y-123893207D01*
X107166664Y-123893207D02*
X107071426Y-123893207D01*
X106357140Y-124512255D02*
X106452378Y-124559874D01*
X106452378Y-124559874D02*
X106642854Y-124559874D01*
X106642854Y-124559874D02*
X106738092Y-124512255D01*
X106738092Y-124512255D02*
X106785711Y-124417016D01*
X106785711Y-124417016D02*
X106785711Y-124036064D01*
X106785711Y-124036064D02*
X106738092Y-123940826D01*
X106738092Y-123940826D02*
X106642854Y-123893207D01*
X106642854Y-123893207D02*
X106452378Y-123893207D01*
X106452378Y-123893207D02*
X106357140Y-123940826D01*
X106357140Y-123940826D02*
X106309521Y-124036064D01*
X106309521Y-124036064D02*
X106309521Y-124131302D01*
X106309521Y-124131302D02*
X106785711Y-124226540D01*
X105452378Y-124559874D02*
X105452378Y-124036064D01*
X105452378Y-124036064D02*
X105499997Y-123940826D01*
X105499997Y-123940826D02*
X105595235Y-123893207D01*
X105595235Y-123893207D02*
X105785711Y-123893207D01*
X105785711Y-123893207D02*
X105880949Y-123940826D01*
X105452378Y-124512255D02*
X105547616Y-124559874D01*
X105547616Y-124559874D02*
X105785711Y-124559874D01*
X105785711Y-124559874D02*
X105880949Y-124512255D01*
X105880949Y-124512255D02*
X105928568Y-124417016D01*
X105928568Y-124417016D02*
X105928568Y-124321778D01*
X105928568Y-124321778D02*
X105880949Y-124226540D01*
X105880949Y-124226540D02*
X105785711Y-124178921D01*
X105785711Y-124178921D02*
X105547616Y-124178921D01*
X105547616Y-124178921D02*
X105452378Y-124131302D01*
X104976187Y-124559874D02*
X104976187Y-123559874D01*
X104880949Y-124178921D02*
X104595235Y-124559874D01*
X104595235Y-123893207D02*
X104976187Y-124274159D01*
X104023806Y-124559874D02*
X104119044Y-124512255D01*
X104119044Y-124512255D02*
X104166663Y-124464635D01*
X104166663Y-124464635D02*
X104214282Y-124369397D01*
X104214282Y-124369397D02*
X104214282Y-124083683D01*
X104214282Y-124083683D02*
X104166663Y-123988445D01*
X104166663Y-123988445D02*
X104119044Y-123940826D01*
X104119044Y-123940826D02*
X104023806Y-123893207D01*
X104023806Y-123893207D02*
X103880949Y-123893207D01*
X103880949Y-123893207D02*
X103785711Y-123940826D01*
X103785711Y-123940826D02*
X103738092Y-123988445D01*
X103738092Y-123988445D02*
X103690473Y-124083683D01*
X103690473Y-124083683D02*
X103690473Y-124369397D01*
X103690473Y-124369397D02*
X103738092Y-124464635D01*
X103738092Y-124464635D02*
X103785711Y-124512255D01*
X103785711Y-124512255D02*
X103880949Y-124559874D01*
X103880949Y-124559874D02*
X104023806Y-124559874D01*
X102833330Y-123893207D02*
X102833330Y-124559874D01*
X103261901Y-123893207D02*
X103261901Y-124417016D01*
X103261901Y-124417016D02*
X103214282Y-124512255D01*
X103214282Y-124512255D02*
X103119044Y-124559874D01*
X103119044Y-124559874D02*
X102976187Y-124559874D01*
X102976187Y-124559874D02*
X102880949Y-124512255D01*
X102880949Y-124512255D02*
X102833330Y-124464635D01*
X102499996Y-123893207D02*
X102119044Y-123893207D01*
X102357139Y-123559874D02*
X102357139Y-124417016D01*
X102357139Y-124417016D02*
X102309520Y-124512255D01*
X102309520Y-124512255D02*
X102214282Y-124559874D01*
X102214282Y-124559874D02*
X102119044Y-124559874D01*
X116333330Y-125169818D02*
X115999997Y-126169818D01*
X115999997Y-126169818D02*
X115666664Y-125169818D01*
X115380949Y-125265056D02*
X115333330Y-125217437D01*
X115333330Y-125217437D02*
X115238092Y-125169818D01*
X115238092Y-125169818D02*
X114999997Y-125169818D01*
X114999997Y-125169818D02*
X114904759Y-125217437D01*
X114904759Y-125217437D02*
X114857140Y-125265056D01*
X114857140Y-125265056D02*
X114809521Y-125360294D01*
X114809521Y-125360294D02*
X114809521Y-125455532D01*
X114809521Y-125455532D02*
X114857140Y-125598389D01*
X114857140Y-125598389D02*
X115428568Y-126169818D01*
X115428568Y-126169818D02*
X114809521Y-126169818D01*
X114380949Y-126074579D02*
X114333330Y-126122199D01*
X114333330Y-126122199D02*
X114380949Y-126169818D01*
X114380949Y-126169818D02*
X114428568Y-126122199D01*
X114428568Y-126122199D02*
X114380949Y-126074579D01*
X114380949Y-126074579D02*
X114380949Y-126169818D01*
X113714283Y-125169818D02*
X113619045Y-125169818D01*
X113619045Y-125169818D02*
X113523807Y-125217437D01*
X113523807Y-125217437D02*
X113476188Y-125265056D01*
X113476188Y-125265056D02*
X113428569Y-125360294D01*
X113428569Y-125360294D02*
X113380950Y-125550770D01*
X113380950Y-125550770D02*
X113380950Y-125788865D01*
X113380950Y-125788865D02*
X113428569Y-125979341D01*
X113428569Y-125979341D02*
X113476188Y-126074579D01*
X113476188Y-126074579D02*
X113523807Y-126122199D01*
X113523807Y-126122199D02*
X113619045Y-126169818D01*
X113619045Y-126169818D02*
X113714283Y-126169818D01*
X113714283Y-126169818D02*
X113809521Y-126122199D01*
X113809521Y-126122199D02*
X113857140Y-126074579D01*
X113857140Y-126074579D02*
X113904759Y-125979341D01*
X113904759Y-125979341D02*
X113952378Y-125788865D01*
X113952378Y-125788865D02*
X113952378Y-125550770D01*
X113952378Y-125550770D02*
X113904759Y-125360294D01*
X113904759Y-125360294D02*
X113857140Y-125265056D01*
X113857140Y-125265056D02*
X113809521Y-125217437D01*
X113809521Y-125217437D02*
X113714283Y-125169818D01*
X112047616Y-125598389D02*
X112142854Y-125550770D01*
X112142854Y-125550770D02*
X112190473Y-125503151D01*
X112190473Y-125503151D02*
X112238092Y-125407913D01*
X112238092Y-125407913D02*
X112238092Y-125360294D01*
X112238092Y-125360294D02*
X112190473Y-125265056D01*
X112190473Y-125265056D02*
X112142854Y-125217437D01*
X112142854Y-125217437D02*
X112047616Y-125169818D01*
X112047616Y-125169818D02*
X111857140Y-125169818D01*
X111857140Y-125169818D02*
X111761902Y-125217437D01*
X111761902Y-125217437D02*
X111714283Y-125265056D01*
X111714283Y-125265056D02*
X111666664Y-125360294D01*
X111666664Y-125360294D02*
X111666664Y-125407913D01*
X111666664Y-125407913D02*
X111714283Y-125503151D01*
X111714283Y-125503151D02*
X111761902Y-125550770D01*
X111761902Y-125550770D02*
X111857140Y-125598389D01*
X111857140Y-125598389D02*
X112047616Y-125598389D01*
X112047616Y-125598389D02*
X112142854Y-125646008D01*
X112142854Y-125646008D02*
X112190473Y-125693627D01*
X112190473Y-125693627D02*
X112238092Y-125788865D01*
X112238092Y-125788865D02*
X112238092Y-125979341D01*
X112238092Y-125979341D02*
X112190473Y-126074579D01*
X112190473Y-126074579D02*
X112142854Y-126122199D01*
X112142854Y-126122199D02*
X112047616Y-126169818D01*
X112047616Y-126169818D02*
X111857140Y-126169818D01*
X111857140Y-126169818D02*
X111761902Y-126122199D01*
X111761902Y-126122199D02*
X111714283Y-126074579D01*
X111714283Y-126074579D02*
X111666664Y-125979341D01*
X111666664Y-125979341D02*
X111666664Y-125788865D01*
X111666664Y-125788865D02*
X111714283Y-125693627D01*
X111714283Y-125693627D02*
X111761902Y-125646008D01*
X111761902Y-125646008D02*
X111857140Y-125598389D01*
X110523807Y-125122199D02*
X111380949Y-126407913D01*
X109666664Y-126169818D02*
X110238092Y-126169818D01*
X109952378Y-126169818D02*
X109952378Y-125169818D01*
X109952378Y-125169818D02*
X110047616Y-125312675D01*
X110047616Y-125312675D02*
X110142854Y-125407913D01*
X110142854Y-125407913D02*
X110238092Y-125455532D01*
X109190473Y-126169818D02*
X108999997Y-126169818D01*
X108999997Y-126169818D02*
X108904759Y-126122199D01*
X108904759Y-126122199D02*
X108857140Y-126074579D01*
X108857140Y-126074579D02*
X108761902Y-125931722D01*
X108761902Y-125931722D02*
X108714283Y-125741246D01*
X108714283Y-125741246D02*
X108714283Y-125360294D01*
X108714283Y-125360294D02*
X108761902Y-125265056D01*
X108761902Y-125265056D02*
X108809521Y-125217437D01*
X108809521Y-125217437D02*
X108904759Y-125169818D01*
X108904759Y-125169818D02*
X109095235Y-125169818D01*
X109095235Y-125169818D02*
X109190473Y-125217437D01*
X109190473Y-125217437D02*
X109238092Y-125265056D01*
X109238092Y-125265056D02*
X109285711Y-125360294D01*
X109285711Y-125360294D02*
X109285711Y-125598389D01*
X109285711Y-125598389D02*
X109238092Y-125693627D01*
X109238092Y-125693627D02*
X109190473Y-125741246D01*
X109190473Y-125741246D02*
X109095235Y-125788865D01*
X109095235Y-125788865D02*
X108904759Y-125788865D01*
X108904759Y-125788865D02*
X108809521Y-125741246D01*
X108809521Y-125741246D02*
X108761902Y-125693627D01*
X108761902Y-125693627D02*
X108714283Y-125598389D01*
X107571426Y-125122199D02*
X108428568Y-126407913D01*
X107285711Y-125265056D02*
X107238092Y-125217437D01*
X107238092Y-125217437D02*
X107142854Y-125169818D01*
X107142854Y-125169818D02*
X106904759Y-125169818D01*
X106904759Y-125169818D02*
X106809521Y-125217437D01*
X106809521Y-125217437D02*
X106761902Y-125265056D01*
X106761902Y-125265056D02*
X106714283Y-125360294D01*
X106714283Y-125360294D02*
X106714283Y-125455532D01*
X106714283Y-125455532D02*
X106761902Y-125598389D01*
X106761902Y-125598389D02*
X107333330Y-126169818D01*
X107333330Y-126169818D02*
X106714283Y-126169818D01*
X105809521Y-125169818D02*
X106285711Y-125169818D01*
X106285711Y-125169818D02*
X106333330Y-125646008D01*
X106333330Y-125646008D02*
X106285711Y-125598389D01*
X106285711Y-125598389D02*
X106190473Y-125550770D01*
X106190473Y-125550770D02*
X105952378Y-125550770D01*
X105952378Y-125550770D02*
X105857140Y-125598389D01*
X105857140Y-125598389D02*
X105809521Y-125646008D01*
X105809521Y-125646008D02*
X105761902Y-125741246D01*
X105761902Y-125741246D02*
X105761902Y-125979341D01*
X105761902Y-125979341D02*
X105809521Y-126074579D01*
X105809521Y-126074579D02*
X105857140Y-126122199D01*
X105857140Y-126122199D02*
X105952378Y-126169818D01*
X105952378Y-126169818D02*
X106190473Y-126169818D01*
X106190473Y-126169818D02*
X106285711Y-126122199D01*
X106285711Y-126122199D02*
X106333330Y-126074579D01*
X119738093Y-104559874D02*
X119738093Y-103559874D01*
X119071427Y-103559874D02*
X118880951Y-103559874D01*
X118880951Y-103559874D02*
X118785713Y-103607493D01*
X118785713Y-103607493D02*
X118690475Y-103702731D01*
X118690475Y-103702731D02*
X118642856Y-103893207D01*
X118642856Y-103893207D02*
X118642856Y-104226540D01*
X118642856Y-104226540D02*
X118690475Y-104417016D01*
X118690475Y-104417016D02*
X118785713Y-104512255D01*
X118785713Y-104512255D02*
X118880951Y-104559874D01*
X118880951Y-104559874D02*
X119071427Y-104559874D01*
X119071427Y-104559874D02*
X119166665Y-104512255D01*
X119166665Y-104512255D02*
X119261903Y-104417016D01*
X119261903Y-104417016D02*
X119309522Y-104226540D01*
X119309522Y-104226540D02*
X119309522Y-103893207D01*
X119309522Y-103893207D02*
X119261903Y-103702731D01*
X119261903Y-103702731D02*
X119166665Y-103607493D01*
X119166665Y-103607493D02*
X119071427Y-103559874D01*
X118357141Y-103559874D02*
X117785713Y-103559874D01*
X118071427Y-104559874D02*
X118071427Y-103559874D01*
X117690475Y-104655112D02*
X116928570Y-104655112D01*
X116690474Y-104559874D02*
X116690474Y-103559874D01*
X116690474Y-103559874D02*
X116357141Y-104274159D01*
X116357141Y-104274159D02*
X116023808Y-103559874D01*
X116023808Y-103559874D02*
X116023808Y-104559874D01*
X115166665Y-104512255D02*
X115261903Y-104559874D01*
X115261903Y-104559874D02*
X115452379Y-104559874D01*
X115452379Y-104559874D02*
X115547617Y-104512255D01*
X115547617Y-104512255D02*
X115595236Y-104417016D01*
X115595236Y-104417016D02*
X115595236Y-104036064D01*
X115595236Y-104036064D02*
X115547617Y-103940826D01*
X115547617Y-103940826D02*
X115452379Y-103893207D01*
X115452379Y-103893207D02*
X115261903Y-103893207D01*
X115261903Y-103893207D02*
X115166665Y-103940826D01*
X115166665Y-103940826D02*
X115119046Y-104036064D01*
X115119046Y-104036064D02*
X115119046Y-104131302D01*
X115119046Y-104131302D02*
X115595236Y-104226540D01*
X114738093Y-104512255D02*
X114642855Y-104559874D01*
X114642855Y-104559874D02*
X114452379Y-104559874D01*
X114452379Y-104559874D02*
X114357141Y-104512255D01*
X114357141Y-104512255D02*
X114309522Y-104417016D01*
X114309522Y-104417016D02*
X114309522Y-104369397D01*
X114309522Y-104369397D02*
X114357141Y-104274159D01*
X114357141Y-104274159D02*
X114452379Y-104226540D01*
X114452379Y-104226540D02*
X114595236Y-104226540D01*
X114595236Y-104226540D02*
X114690474Y-104178921D01*
X114690474Y-104178921D02*
X114738093Y-104083683D01*
X114738093Y-104083683D02*
X114738093Y-104036064D01*
X114738093Y-104036064D02*
X114690474Y-103940826D01*
X114690474Y-103940826D02*
X114595236Y-103893207D01*
X114595236Y-103893207D02*
X114452379Y-103893207D01*
X114452379Y-103893207D02*
X114357141Y-103940826D01*
X113928569Y-104512255D02*
X113833331Y-104559874D01*
X113833331Y-104559874D02*
X113642855Y-104559874D01*
X113642855Y-104559874D02*
X113547617Y-104512255D01*
X113547617Y-104512255D02*
X113499998Y-104417016D01*
X113499998Y-104417016D02*
X113499998Y-104369397D01*
X113499998Y-104369397D02*
X113547617Y-104274159D01*
X113547617Y-104274159D02*
X113642855Y-104226540D01*
X113642855Y-104226540D02*
X113785712Y-104226540D01*
X113785712Y-104226540D02*
X113880950Y-104178921D01*
X113880950Y-104178921D02*
X113928569Y-104083683D01*
X113928569Y-104083683D02*
X113928569Y-104036064D01*
X113928569Y-104036064D02*
X113880950Y-103940826D01*
X113880950Y-103940826D02*
X113785712Y-103893207D01*
X113785712Y-103893207D02*
X113642855Y-103893207D01*
X113642855Y-103893207D02*
X113547617Y-103940826D01*
X111976188Y-104036064D02*
X111833331Y-104083683D01*
X111833331Y-104083683D02*
X111785712Y-104131302D01*
X111785712Y-104131302D02*
X111738093Y-104226540D01*
X111738093Y-104226540D02*
X111738093Y-104369397D01*
X111738093Y-104369397D02*
X111785712Y-104464635D01*
X111785712Y-104464635D02*
X111833331Y-104512255D01*
X111833331Y-104512255D02*
X111928569Y-104559874D01*
X111928569Y-104559874D02*
X112309521Y-104559874D01*
X112309521Y-104559874D02*
X112309521Y-103559874D01*
X112309521Y-103559874D02*
X111976188Y-103559874D01*
X111976188Y-103559874D02*
X111880950Y-103607493D01*
X111880950Y-103607493D02*
X111833331Y-103655112D01*
X111833331Y-103655112D02*
X111785712Y-103750350D01*
X111785712Y-103750350D02*
X111785712Y-103845588D01*
X111785712Y-103845588D02*
X111833331Y-103940826D01*
X111833331Y-103940826D02*
X111880950Y-103988445D01*
X111880950Y-103988445D02*
X111976188Y-104036064D01*
X111976188Y-104036064D02*
X112309521Y-104036064D01*
X110880950Y-103893207D02*
X110880950Y-104559874D01*
X111309521Y-103893207D02*
X111309521Y-104417016D01*
X111309521Y-104417016D02*
X111261902Y-104512255D01*
X111261902Y-104512255D02*
X111166664Y-104559874D01*
X111166664Y-104559874D02*
X111023807Y-104559874D01*
X111023807Y-104559874D02*
X110928569Y-104512255D01*
X110928569Y-104512255D02*
X110880950Y-104464635D01*
X110452378Y-104512255D02*
X110357140Y-104559874D01*
X110357140Y-104559874D02*
X110166664Y-104559874D01*
X110166664Y-104559874D02*
X110071426Y-104512255D01*
X110071426Y-104512255D02*
X110023807Y-104417016D01*
X110023807Y-104417016D02*
X110023807Y-104369397D01*
X110023807Y-104369397D02*
X110071426Y-104274159D01*
X110071426Y-104274159D02*
X110166664Y-104226540D01*
X110166664Y-104226540D02*
X110309521Y-104226540D01*
X110309521Y-104226540D02*
X110404759Y-104178921D01*
X110404759Y-104178921D02*
X110452378Y-104083683D01*
X110452378Y-104083683D02*
X110452378Y-104036064D01*
X110452378Y-104036064D02*
X110404759Y-103940826D01*
X110404759Y-103940826D02*
X110309521Y-103893207D01*
X110309521Y-103893207D02*
X110166664Y-103893207D01*
X110166664Y-103893207D02*
X110071426Y-103940826D01*
X109595235Y-104178921D02*
X108833331Y-104178921D01*
X108023807Y-104036064D02*
X107880950Y-104083683D01*
X107880950Y-104083683D02*
X107833331Y-104131302D01*
X107833331Y-104131302D02*
X107785712Y-104226540D01*
X107785712Y-104226540D02*
X107785712Y-104369397D01*
X107785712Y-104369397D02*
X107833331Y-104464635D01*
X107833331Y-104464635D02*
X107880950Y-104512255D01*
X107880950Y-104512255D02*
X107976188Y-104559874D01*
X107976188Y-104559874D02*
X108357140Y-104559874D01*
X108357140Y-104559874D02*
X108357140Y-103559874D01*
X108357140Y-103559874D02*
X108023807Y-103559874D01*
X108023807Y-103559874D02*
X107928569Y-103607493D01*
X107928569Y-103607493D02*
X107880950Y-103655112D01*
X107880950Y-103655112D02*
X107833331Y-103750350D01*
X107833331Y-103750350D02*
X107833331Y-103845588D01*
X107833331Y-103845588D02*
X107880950Y-103940826D01*
X107880950Y-103940826D02*
X107928569Y-103988445D01*
X107928569Y-103988445D02*
X108023807Y-104036064D01*
X108023807Y-104036064D02*
X108357140Y-104036064D01*
X107357140Y-104559874D02*
X107357140Y-103893207D01*
X107357140Y-104083683D02*
X107309521Y-103988445D01*
X107309521Y-103988445D02*
X107261902Y-103940826D01*
X107261902Y-103940826D02*
X107166664Y-103893207D01*
X107166664Y-103893207D02*
X107071426Y-103893207D01*
X106357140Y-104512255D02*
X106452378Y-104559874D01*
X106452378Y-104559874D02*
X106642854Y-104559874D01*
X106642854Y-104559874D02*
X106738092Y-104512255D01*
X106738092Y-104512255D02*
X106785711Y-104417016D01*
X106785711Y-104417016D02*
X106785711Y-104036064D01*
X106785711Y-104036064D02*
X106738092Y-103940826D01*
X106738092Y-103940826D02*
X106642854Y-103893207D01*
X106642854Y-103893207D02*
X106452378Y-103893207D01*
X106452378Y-103893207D02*
X106357140Y-103940826D01*
X106357140Y-103940826D02*
X106309521Y-104036064D01*
X106309521Y-104036064D02*
X106309521Y-104131302D01*
X106309521Y-104131302D02*
X106785711Y-104226540D01*
X105452378Y-104559874D02*
X105452378Y-104036064D01*
X105452378Y-104036064D02*
X105499997Y-103940826D01*
X105499997Y-103940826D02*
X105595235Y-103893207D01*
X105595235Y-103893207D02*
X105785711Y-103893207D01*
X105785711Y-103893207D02*
X105880949Y-103940826D01*
X105452378Y-104512255D02*
X105547616Y-104559874D01*
X105547616Y-104559874D02*
X105785711Y-104559874D01*
X105785711Y-104559874D02*
X105880949Y-104512255D01*
X105880949Y-104512255D02*
X105928568Y-104417016D01*
X105928568Y-104417016D02*
X105928568Y-104321778D01*
X105928568Y-104321778D02*
X105880949Y-104226540D01*
X105880949Y-104226540D02*
X105785711Y-104178921D01*
X105785711Y-104178921D02*
X105547616Y-104178921D01*
X105547616Y-104178921D02*
X105452378Y-104131302D01*
X104976187Y-104559874D02*
X104976187Y-103559874D01*
X104880949Y-104178921D02*
X104595235Y-104559874D01*
X104595235Y-103893207D02*
X104976187Y-104274159D01*
X104023806Y-104559874D02*
X104119044Y-104512255D01*
X104119044Y-104512255D02*
X104166663Y-104464635D01*
X104166663Y-104464635D02*
X104214282Y-104369397D01*
X104214282Y-104369397D02*
X104214282Y-104083683D01*
X104214282Y-104083683D02*
X104166663Y-103988445D01*
X104166663Y-103988445D02*
X104119044Y-103940826D01*
X104119044Y-103940826D02*
X104023806Y-103893207D01*
X104023806Y-103893207D02*
X103880949Y-103893207D01*
X103880949Y-103893207D02*
X103785711Y-103940826D01*
X103785711Y-103940826D02*
X103738092Y-103988445D01*
X103738092Y-103988445D02*
X103690473Y-104083683D01*
X103690473Y-104083683D02*
X103690473Y-104369397D01*
X103690473Y-104369397D02*
X103738092Y-104464635D01*
X103738092Y-104464635D02*
X103785711Y-104512255D01*
X103785711Y-104512255D02*
X103880949Y-104559874D01*
X103880949Y-104559874D02*
X104023806Y-104559874D01*
X102833330Y-103893207D02*
X102833330Y-104559874D01*
X103261901Y-103893207D02*
X103261901Y-104417016D01*
X103261901Y-104417016D02*
X103214282Y-104512255D01*
X103214282Y-104512255D02*
X103119044Y-104559874D01*
X103119044Y-104559874D02*
X102976187Y-104559874D01*
X102976187Y-104559874D02*
X102880949Y-104512255D01*
X102880949Y-104512255D02*
X102833330Y-104464635D01*
X102499996Y-103893207D02*
X102119044Y-103893207D01*
X102357139Y-103559874D02*
X102357139Y-104417016D01*
X102357139Y-104417016D02*
X102309520Y-104512255D01*
X102309520Y-104512255D02*
X102214282Y-104559874D01*
X102214282Y-104559874D02*
X102119044Y-104559874D01*
X116333330Y-105169818D02*
X115999997Y-106169818D01*
X115999997Y-106169818D02*
X115666664Y-105169818D01*
X115380949Y-105265056D02*
X115333330Y-105217437D01*
X115333330Y-105217437D02*
X115238092Y-105169818D01*
X115238092Y-105169818D02*
X114999997Y-105169818D01*
X114999997Y-105169818D02*
X114904759Y-105217437D01*
X114904759Y-105217437D02*
X114857140Y-105265056D01*
X114857140Y-105265056D02*
X114809521Y-105360294D01*
X114809521Y-105360294D02*
X114809521Y-105455532D01*
X114809521Y-105455532D02*
X114857140Y-105598389D01*
X114857140Y-105598389D02*
X115428568Y-106169818D01*
X115428568Y-106169818D02*
X114809521Y-106169818D01*
X114380949Y-106074579D02*
X114333330Y-106122199D01*
X114333330Y-106122199D02*
X114380949Y-106169818D01*
X114380949Y-106169818D02*
X114428568Y-106122199D01*
X114428568Y-106122199D02*
X114380949Y-106074579D01*
X114380949Y-106074579D02*
X114380949Y-106169818D01*
X113714283Y-105169818D02*
X113619045Y-105169818D01*
X113619045Y-105169818D02*
X113523807Y-105217437D01*
X113523807Y-105217437D02*
X113476188Y-105265056D01*
X113476188Y-105265056D02*
X113428569Y-105360294D01*
X113428569Y-105360294D02*
X113380950Y-105550770D01*
X113380950Y-105550770D02*
X113380950Y-105788865D01*
X113380950Y-105788865D02*
X113428569Y-105979341D01*
X113428569Y-105979341D02*
X113476188Y-106074579D01*
X113476188Y-106074579D02*
X113523807Y-106122199D01*
X113523807Y-106122199D02*
X113619045Y-106169818D01*
X113619045Y-106169818D02*
X113714283Y-106169818D01*
X113714283Y-106169818D02*
X113809521Y-106122199D01*
X113809521Y-106122199D02*
X113857140Y-106074579D01*
X113857140Y-106074579D02*
X113904759Y-105979341D01*
X113904759Y-105979341D02*
X113952378Y-105788865D01*
X113952378Y-105788865D02*
X113952378Y-105550770D01*
X113952378Y-105550770D02*
X113904759Y-105360294D01*
X113904759Y-105360294D02*
X113857140Y-105265056D01*
X113857140Y-105265056D02*
X113809521Y-105217437D01*
X113809521Y-105217437D02*
X113714283Y-105169818D01*
X112047616Y-105598389D02*
X112142854Y-105550770D01*
X112142854Y-105550770D02*
X112190473Y-105503151D01*
X112190473Y-105503151D02*
X112238092Y-105407913D01*
X112238092Y-105407913D02*
X112238092Y-105360294D01*
X112238092Y-105360294D02*
X112190473Y-105265056D01*
X112190473Y-105265056D02*
X112142854Y-105217437D01*
X112142854Y-105217437D02*
X112047616Y-105169818D01*
X112047616Y-105169818D02*
X111857140Y-105169818D01*
X111857140Y-105169818D02*
X111761902Y-105217437D01*
X111761902Y-105217437D02*
X111714283Y-105265056D01*
X111714283Y-105265056D02*
X111666664Y-105360294D01*
X111666664Y-105360294D02*
X111666664Y-105407913D01*
X111666664Y-105407913D02*
X111714283Y-105503151D01*
X111714283Y-105503151D02*
X111761902Y-105550770D01*
X111761902Y-105550770D02*
X111857140Y-105598389D01*
X111857140Y-105598389D02*
X112047616Y-105598389D01*
X112047616Y-105598389D02*
X112142854Y-105646008D01*
X112142854Y-105646008D02*
X112190473Y-105693627D01*
X112190473Y-105693627D02*
X112238092Y-105788865D01*
X112238092Y-105788865D02*
X112238092Y-105979341D01*
X112238092Y-105979341D02*
X112190473Y-106074579D01*
X112190473Y-106074579D02*
X112142854Y-106122199D01*
X112142854Y-106122199D02*
X112047616Y-106169818D01*
X112047616Y-106169818D02*
X111857140Y-106169818D01*
X111857140Y-106169818D02*
X111761902Y-106122199D01*
X111761902Y-106122199D02*
X111714283Y-106074579D01*
X111714283Y-106074579D02*
X111666664Y-105979341D01*
X111666664Y-105979341D02*
X111666664Y-105788865D01*
X111666664Y-105788865D02*
X111714283Y-105693627D01*
X111714283Y-105693627D02*
X111761902Y-105646008D01*
X111761902Y-105646008D02*
X111857140Y-105598389D01*
X110523807Y-105122199D02*
X111380949Y-106407913D01*
X109666664Y-106169818D02*
X110238092Y-106169818D01*
X109952378Y-106169818D02*
X109952378Y-105169818D01*
X109952378Y-105169818D02*
X110047616Y-105312675D01*
X110047616Y-105312675D02*
X110142854Y-105407913D01*
X110142854Y-105407913D02*
X110238092Y-105455532D01*
X109190473Y-106169818D02*
X108999997Y-106169818D01*
X108999997Y-106169818D02*
X108904759Y-106122199D01*
X108904759Y-106122199D02*
X108857140Y-106074579D01*
X108857140Y-106074579D02*
X108761902Y-105931722D01*
X108761902Y-105931722D02*
X108714283Y-105741246D01*
X108714283Y-105741246D02*
X108714283Y-105360294D01*
X108714283Y-105360294D02*
X108761902Y-105265056D01*
X108761902Y-105265056D02*
X108809521Y-105217437D01*
X108809521Y-105217437D02*
X108904759Y-105169818D01*
X108904759Y-105169818D02*
X109095235Y-105169818D01*
X109095235Y-105169818D02*
X109190473Y-105217437D01*
X109190473Y-105217437D02*
X109238092Y-105265056D01*
X109238092Y-105265056D02*
X109285711Y-105360294D01*
X109285711Y-105360294D02*
X109285711Y-105598389D01*
X109285711Y-105598389D02*
X109238092Y-105693627D01*
X109238092Y-105693627D02*
X109190473Y-105741246D01*
X109190473Y-105741246D02*
X109095235Y-105788865D01*
X109095235Y-105788865D02*
X108904759Y-105788865D01*
X108904759Y-105788865D02*
X108809521Y-105741246D01*
X108809521Y-105741246D02*
X108761902Y-105693627D01*
X108761902Y-105693627D02*
X108714283Y-105598389D01*
X107571426Y-105122199D02*
X108428568Y-106407913D01*
X107285711Y-105265056D02*
X107238092Y-105217437D01*
X107238092Y-105217437D02*
X107142854Y-105169818D01*
X107142854Y-105169818D02*
X106904759Y-105169818D01*
X106904759Y-105169818D02*
X106809521Y-105217437D01*
X106809521Y-105217437D02*
X106761902Y-105265056D01*
X106761902Y-105265056D02*
X106714283Y-105360294D01*
X106714283Y-105360294D02*
X106714283Y-105455532D01*
X106714283Y-105455532D02*
X106761902Y-105598389D01*
X106761902Y-105598389D02*
X107333330Y-106169818D01*
X107333330Y-106169818D02*
X106714283Y-106169818D01*
X105809521Y-105169818D02*
X106285711Y-105169818D01*
X106285711Y-105169818D02*
X106333330Y-105646008D01*
X106333330Y-105646008D02*
X106285711Y-105598389D01*
X106285711Y-105598389D02*
X106190473Y-105550770D01*
X106190473Y-105550770D02*
X105952378Y-105550770D01*
X105952378Y-105550770D02*
X105857140Y-105598389D01*
X105857140Y-105598389D02*
X105809521Y-105646008D01*
X105809521Y-105646008D02*
X105761902Y-105741246D01*
X105761902Y-105741246D02*
X105761902Y-105979341D01*
X105761902Y-105979341D02*
X105809521Y-106074579D01*
X105809521Y-106074579D02*
X105857140Y-106122199D01*
X105857140Y-106122199D02*
X105952378Y-106169818D01*
X105952378Y-106169818D02*
X106190473Y-106169818D01*
X106190473Y-106169818D02*
X106285711Y-106122199D01*
X106285711Y-106122199D02*
X106333330Y-106074579D01*
X119738093Y-84559874D02*
X119738093Y-83559874D01*
X119071427Y-83559874D02*
X118880951Y-83559874D01*
X118880951Y-83559874D02*
X118785713Y-83607493D01*
X118785713Y-83607493D02*
X118690475Y-83702731D01*
X118690475Y-83702731D02*
X118642856Y-83893207D01*
X118642856Y-83893207D02*
X118642856Y-84226540D01*
X118642856Y-84226540D02*
X118690475Y-84417016D01*
X118690475Y-84417016D02*
X118785713Y-84512255D01*
X118785713Y-84512255D02*
X118880951Y-84559874D01*
X118880951Y-84559874D02*
X119071427Y-84559874D01*
X119071427Y-84559874D02*
X119166665Y-84512255D01*
X119166665Y-84512255D02*
X119261903Y-84417016D01*
X119261903Y-84417016D02*
X119309522Y-84226540D01*
X119309522Y-84226540D02*
X119309522Y-83893207D01*
X119309522Y-83893207D02*
X119261903Y-83702731D01*
X119261903Y-83702731D02*
X119166665Y-83607493D01*
X119166665Y-83607493D02*
X119071427Y-83559874D01*
X118357141Y-83559874D02*
X117785713Y-83559874D01*
X118071427Y-84559874D02*
X118071427Y-83559874D01*
X117690475Y-84655112D02*
X116928570Y-84655112D01*
X116690474Y-84559874D02*
X116690474Y-83559874D01*
X116690474Y-83559874D02*
X116357141Y-84274159D01*
X116357141Y-84274159D02*
X116023808Y-83559874D01*
X116023808Y-83559874D02*
X116023808Y-84559874D01*
X115166665Y-84512255D02*
X115261903Y-84559874D01*
X115261903Y-84559874D02*
X115452379Y-84559874D01*
X115452379Y-84559874D02*
X115547617Y-84512255D01*
X115547617Y-84512255D02*
X115595236Y-84417016D01*
X115595236Y-84417016D02*
X115595236Y-84036064D01*
X115595236Y-84036064D02*
X115547617Y-83940826D01*
X115547617Y-83940826D02*
X115452379Y-83893207D01*
X115452379Y-83893207D02*
X115261903Y-83893207D01*
X115261903Y-83893207D02*
X115166665Y-83940826D01*
X115166665Y-83940826D02*
X115119046Y-84036064D01*
X115119046Y-84036064D02*
X115119046Y-84131302D01*
X115119046Y-84131302D02*
X115595236Y-84226540D01*
X114738093Y-84512255D02*
X114642855Y-84559874D01*
X114642855Y-84559874D02*
X114452379Y-84559874D01*
X114452379Y-84559874D02*
X114357141Y-84512255D01*
X114357141Y-84512255D02*
X114309522Y-84417016D01*
X114309522Y-84417016D02*
X114309522Y-84369397D01*
X114309522Y-84369397D02*
X114357141Y-84274159D01*
X114357141Y-84274159D02*
X114452379Y-84226540D01*
X114452379Y-84226540D02*
X114595236Y-84226540D01*
X114595236Y-84226540D02*
X114690474Y-84178921D01*
X114690474Y-84178921D02*
X114738093Y-84083683D01*
X114738093Y-84083683D02*
X114738093Y-84036064D01*
X114738093Y-84036064D02*
X114690474Y-83940826D01*
X114690474Y-83940826D02*
X114595236Y-83893207D01*
X114595236Y-83893207D02*
X114452379Y-83893207D01*
X114452379Y-83893207D02*
X114357141Y-83940826D01*
X113928569Y-84512255D02*
X113833331Y-84559874D01*
X113833331Y-84559874D02*
X113642855Y-84559874D01*
X113642855Y-84559874D02*
X113547617Y-84512255D01*
X113547617Y-84512255D02*
X113499998Y-84417016D01*
X113499998Y-84417016D02*
X113499998Y-84369397D01*
X113499998Y-84369397D02*
X113547617Y-84274159D01*
X113547617Y-84274159D02*
X113642855Y-84226540D01*
X113642855Y-84226540D02*
X113785712Y-84226540D01*
X113785712Y-84226540D02*
X113880950Y-84178921D01*
X113880950Y-84178921D02*
X113928569Y-84083683D01*
X113928569Y-84083683D02*
X113928569Y-84036064D01*
X113928569Y-84036064D02*
X113880950Y-83940826D01*
X113880950Y-83940826D02*
X113785712Y-83893207D01*
X113785712Y-83893207D02*
X113642855Y-83893207D01*
X113642855Y-83893207D02*
X113547617Y-83940826D01*
X111976188Y-84036064D02*
X111833331Y-84083683D01*
X111833331Y-84083683D02*
X111785712Y-84131302D01*
X111785712Y-84131302D02*
X111738093Y-84226540D01*
X111738093Y-84226540D02*
X111738093Y-84369397D01*
X111738093Y-84369397D02*
X111785712Y-84464635D01*
X111785712Y-84464635D02*
X111833331Y-84512255D01*
X111833331Y-84512255D02*
X111928569Y-84559874D01*
X111928569Y-84559874D02*
X112309521Y-84559874D01*
X112309521Y-84559874D02*
X112309521Y-83559874D01*
X112309521Y-83559874D02*
X111976188Y-83559874D01*
X111976188Y-83559874D02*
X111880950Y-83607493D01*
X111880950Y-83607493D02*
X111833331Y-83655112D01*
X111833331Y-83655112D02*
X111785712Y-83750350D01*
X111785712Y-83750350D02*
X111785712Y-83845588D01*
X111785712Y-83845588D02*
X111833331Y-83940826D01*
X111833331Y-83940826D02*
X111880950Y-83988445D01*
X111880950Y-83988445D02*
X111976188Y-84036064D01*
X111976188Y-84036064D02*
X112309521Y-84036064D01*
X110880950Y-83893207D02*
X110880950Y-84559874D01*
X111309521Y-83893207D02*
X111309521Y-84417016D01*
X111309521Y-84417016D02*
X111261902Y-84512255D01*
X111261902Y-84512255D02*
X111166664Y-84559874D01*
X111166664Y-84559874D02*
X111023807Y-84559874D01*
X111023807Y-84559874D02*
X110928569Y-84512255D01*
X110928569Y-84512255D02*
X110880950Y-84464635D01*
X110452378Y-84512255D02*
X110357140Y-84559874D01*
X110357140Y-84559874D02*
X110166664Y-84559874D01*
X110166664Y-84559874D02*
X110071426Y-84512255D01*
X110071426Y-84512255D02*
X110023807Y-84417016D01*
X110023807Y-84417016D02*
X110023807Y-84369397D01*
X110023807Y-84369397D02*
X110071426Y-84274159D01*
X110071426Y-84274159D02*
X110166664Y-84226540D01*
X110166664Y-84226540D02*
X110309521Y-84226540D01*
X110309521Y-84226540D02*
X110404759Y-84178921D01*
X110404759Y-84178921D02*
X110452378Y-84083683D01*
X110452378Y-84083683D02*
X110452378Y-84036064D01*
X110452378Y-84036064D02*
X110404759Y-83940826D01*
X110404759Y-83940826D02*
X110309521Y-83893207D01*
X110309521Y-83893207D02*
X110166664Y-83893207D01*
X110166664Y-83893207D02*
X110071426Y-83940826D01*
X109595235Y-84178921D02*
X108833331Y-84178921D01*
X108023807Y-84036064D02*
X107880950Y-84083683D01*
X107880950Y-84083683D02*
X107833331Y-84131302D01*
X107833331Y-84131302D02*
X107785712Y-84226540D01*
X107785712Y-84226540D02*
X107785712Y-84369397D01*
X107785712Y-84369397D02*
X107833331Y-84464635D01*
X107833331Y-84464635D02*
X107880950Y-84512255D01*
X107880950Y-84512255D02*
X107976188Y-84559874D01*
X107976188Y-84559874D02*
X108357140Y-84559874D01*
X108357140Y-84559874D02*
X108357140Y-83559874D01*
X108357140Y-83559874D02*
X108023807Y-83559874D01*
X108023807Y-83559874D02*
X107928569Y-83607493D01*
X107928569Y-83607493D02*
X107880950Y-83655112D01*
X107880950Y-83655112D02*
X107833331Y-83750350D01*
X107833331Y-83750350D02*
X107833331Y-83845588D01*
X107833331Y-83845588D02*
X107880950Y-83940826D01*
X107880950Y-83940826D02*
X107928569Y-83988445D01*
X107928569Y-83988445D02*
X108023807Y-84036064D01*
X108023807Y-84036064D02*
X108357140Y-84036064D01*
X107357140Y-84559874D02*
X107357140Y-83893207D01*
X107357140Y-84083683D02*
X107309521Y-83988445D01*
X107309521Y-83988445D02*
X107261902Y-83940826D01*
X107261902Y-83940826D02*
X107166664Y-83893207D01*
X107166664Y-83893207D02*
X107071426Y-83893207D01*
X106357140Y-84512255D02*
X106452378Y-84559874D01*
X106452378Y-84559874D02*
X106642854Y-84559874D01*
X106642854Y-84559874D02*
X106738092Y-84512255D01*
X106738092Y-84512255D02*
X106785711Y-84417016D01*
X106785711Y-84417016D02*
X106785711Y-84036064D01*
X106785711Y-84036064D02*
X106738092Y-83940826D01*
X106738092Y-83940826D02*
X106642854Y-83893207D01*
X106642854Y-83893207D02*
X106452378Y-83893207D01*
X106452378Y-83893207D02*
X106357140Y-83940826D01*
X106357140Y-83940826D02*
X106309521Y-84036064D01*
X106309521Y-84036064D02*
X106309521Y-84131302D01*
X106309521Y-84131302D02*
X106785711Y-84226540D01*
X105452378Y-84559874D02*
X105452378Y-84036064D01*
X105452378Y-84036064D02*
X105499997Y-83940826D01*
X105499997Y-83940826D02*
X105595235Y-83893207D01*
X105595235Y-83893207D02*
X105785711Y-83893207D01*
X105785711Y-83893207D02*
X105880949Y-83940826D01*
X105452378Y-84512255D02*
X105547616Y-84559874D01*
X105547616Y-84559874D02*
X105785711Y-84559874D01*
X105785711Y-84559874D02*
X105880949Y-84512255D01*
X105880949Y-84512255D02*
X105928568Y-84417016D01*
X105928568Y-84417016D02*
X105928568Y-84321778D01*
X105928568Y-84321778D02*
X105880949Y-84226540D01*
X105880949Y-84226540D02*
X105785711Y-84178921D01*
X105785711Y-84178921D02*
X105547616Y-84178921D01*
X105547616Y-84178921D02*
X105452378Y-84131302D01*
X104976187Y-84559874D02*
X104976187Y-83559874D01*
X104880949Y-84178921D02*
X104595235Y-84559874D01*
X104595235Y-83893207D02*
X104976187Y-84274159D01*
X104023806Y-84559874D02*
X104119044Y-84512255D01*
X104119044Y-84512255D02*
X104166663Y-84464635D01*
X104166663Y-84464635D02*
X104214282Y-84369397D01*
X104214282Y-84369397D02*
X104214282Y-84083683D01*
X104214282Y-84083683D02*
X104166663Y-83988445D01*
X104166663Y-83988445D02*
X104119044Y-83940826D01*
X104119044Y-83940826D02*
X104023806Y-83893207D01*
X104023806Y-83893207D02*
X103880949Y-83893207D01*
X103880949Y-83893207D02*
X103785711Y-83940826D01*
X103785711Y-83940826D02*
X103738092Y-83988445D01*
X103738092Y-83988445D02*
X103690473Y-84083683D01*
X103690473Y-84083683D02*
X103690473Y-84369397D01*
X103690473Y-84369397D02*
X103738092Y-84464635D01*
X103738092Y-84464635D02*
X103785711Y-84512255D01*
X103785711Y-84512255D02*
X103880949Y-84559874D01*
X103880949Y-84559874D02*
X104023806Y-84559874D01*
X102833330Y-83893207D02*
X102833330Y-84559874D01*
X103261901Y-83893207D02*
X103261901Y-84417016D01*
X103261901Y-84417016D02*
X103214282Y-84512255D01*
X103214282Y-84512255D02*
X103119044Y-84559874D01*
X103119044Y-84559874D02*
X102976187Y-84559874D01*
X102976187Y-84559874D02*
X102880949Y-84512255D01*
X102880949Y-84512255D02*
X102833330Y-84464635D01*
X102499996Y-83893207D02*
X102119044Y-83893207D01*
X102357139Y-83559874D02*
X102357139Y-84417016D01*
X102357139Y-84417016D02*
X102309520Y-84512255D01*
X102309520Y-84512255D02*
X102214282Y-84559874D01*
X102214282Y-84559874D02*
X102119044Y-84559874D01*
X116333330Y-85169818D02*
X115999997Y-86169818D01*
X115999997Y-86169818D02*
X115666664Y-85169818D01*
X115380949Y-85265056D02*
X115333330Y-85217437D01*
X115333330Y-85217437D02*
X115238092Y-85169818D01*
X115238092Y-85169818D02*
X114999997Y-85169818D01*
X114999997Y-85169818D02*
X114904759Y-85217437D01*
X114904759Y-85217437D02*
X114857140Y-85265056D01*
X114857140Y-85265056D02*
X114809521Y-85360294D01*
X114809521Y-85360294D02*
X114809521Y-85455532D01*
X114809521Y-85455532D02*
X114857140Y-85598389D01*
X114857140Y-85598389D02*
X115428568Y-86169818D01*
X115428568Y-86169818D02*
X114809521Y-86169818D01*
X114380949Y-86074579D02*
X114333330Y-86122199D01*
X114333330Y-86122199D02*
X114380949Y-86169818D01*
X114380949Y-86169818D02*
X114428568Y-86122199D01*
X114428568Y-86122199D02*
X114380949Y-86074579D01*
X114380949Y-86074579D02*
X114380949Y-86169818D01*
X113714283Y-85169818D02*
X113619045Y-85169818D01*
X113619045Y-85169818D02*
X113523807Y-85217437D01*
X113523807Y-85217437D02*
X113476188Y-85265056D01*
X113476188Y-85265056D02*
X113428569Y-85360294D01*
X113428569Y-85360294D02*
X113380950Y-85550770D01*
X113380950Y-85550770D02*
X113380950Y-85788865D01*
X113380950Y-85788865D02*
X113428569Y-85979341D01*
X113428569Y-85979341D02*
X113476188Y-86074579D01*
X113476188Y-86074579D02*
X113523807Y-86122199D01*
X113523807Y-86122199D02*
X113619045Y-86169818D01*
X113619045Y-86169818D02*
X113714283Y-86169818D01*
X113714283Y-86169818D02*
X113809521Y-86122199D01*
X113809521Y-86122199D02*
X113857140Y-86074579D01*
X113857140Y-86074579D02*
X113904759Y-85979341D01*
X113904759Y-85979341D02*
X113952378Y-85788865D01*
X113952378Y-85788865D02*
X113952378Y-85550770D01*
X113952378Y-85550770D02*
X113904759Y-85360294D01*
X113904759Y-85360294D02*
X113857140Y-85265056D01*
X113857140Y-85265056D02*
X113809521Y-85217437D01*
X113809521Y-85217437D02*
X113714283Y-85169818D01*
X112047616Y-85598389D02*
X112142854Y-85550770D01*
X112142854Y-85550770D02*
X112190473Y-85503151D01*
X112190473Y-85503151D02*
X112238092Y-85407913D01*
X112238092Y-85407913D02*
X112238092Y-85360294D01*
X112238092Y-85360294D02*
X112190473Y-85265056D01*
X112190473Y-85265056D02*
X112142854Y-85217437D01*
X112142854Y-85217437D02*
X112047616Y-85169818D01*
X112047616Y-85169818D02*
X111857140Y-85169818D01*
X111857140Y-85169818D02*
X111761902Y-85217437D01*
X111761902Y-85217437D02*
X111714283Y-85265056D01*
X111714283Y-85265056D02*
X111666664Y-85360294D01*
X111666664Y-85360294D02*
X111666664Y-85407913D01*
X111666664Y-85407913D02*
X111714283Y-85503151D01*
X111714283Y-85503151D02*
X111761902Y-85550770D01*
X111761902Y-85550770D02*
X111857140Y-85598389D01*
X111857140Y-85598389D02*
X112047616Y-85598389D01*
X112047616Y-85598389D02*
X112142854Y-85646008D01*
X112142854Y-85646008D02*
X112190473Y-85693627D01*
X112190473Y-85693627D02*
X112238092Y-85788865D01*
X112238092Y-85788865D02*
X112238092Y-85979341D01*
X112238092Y-85979341D02*
X112190473Y-86074579D01*
X112190473Y-86074579D02*
X112142854Y-86122199D01*
X112142854Y-86122199D02*
X112047616Y-86169818D01*
X112047616Y-86169818D02*
X111857140Y-86169818D01*
X111857140Y-86169818D02*
X111761902Y-86122199D01*
X111761902Y-86122199D02*
X111714283Y-86074579D01*
X111714283Y-86074579D02*
X111666664Y-85979341D01*
X111666664Y-85979341D02*
X111666664Y-85788865D01*
X111666664Y-85788865D02*
X111714283Y-85693627D01*
X111714283Y-85693627D02*
X111761902Y-85646008D01*
X111761902Y-85646008D02*
X111857140Y-85598389D01*
X110523807Y-85122199D02*
X111380949Y-86407913D01*
X109666664Y-86169818D02*
X110238092Y-86169818D01*
X109952378Y-86169818D02*
X109952378Y-85169818D01*
X109952378Y-85169818D02*
X110047616Y-85312675D01*
X110047616Y-85312675D02*
X110142854Y-85407913D01*
X110142854Y-85407913D02*
X110238092Y-85455532D01*
X109190473Y-86169818D02*
X108999997Y-86169818D01*
X108999997Y-86169818D02*
X108904759Y-86122199D01*
X108904759Y-86122199D02*
X108857140Y-86074579D01*
X108857140Y-86074579D02*
X108761902Y-85931722D01*
X108761902Y-85931722D02*
X108714283Y-85741246D01*
X108714283Y-85741246D02*
X108714283Y-85360294D01*
X108714283Y-85360294D02*
X108761902Y-85265056D01*
X108761902Y-85265056D02*
X108809521Y-85217437D01*
X108809521Y-85217437D02*
X108904759Y-85169818D01*
X108904759Y-85169818D02*
X109095235Y-85169818D01*
X109095235Y-85169818D02*
X109190473Y-85217437D01*
X109190473Y-85217437D02*
X109238092Y-85265056D01*
X109238092Y-85265056D02*
X109285711Y-85360294D01*
X109285711Y-85360294D02*
X109285711Y-85598389D01*
X109285711Y-85598389D02*
X109238092Y-85693627D01*
X109238092Y-85693627D02*
X109190473Y-85741246D01*
X109190473Y-85741246D02*
X109095235Y-85788865D01*
X109095235Y-85788865D02*
X108904759Y-85788865D01*
X108904759Y-85788865D02*
X108809521Y-85741246D01*
X108809521Y-85741246D02*
X108761902Y-85693627D01*
X108761902Y-85693627D02*
X108714283Y-85598389D01*
X107571426Y-85122199D02*
X108428568Y-86407913D01*
X107285711Y-85265056D02*
X107238092Y-85217437D01*
X107238092Y-85217437D02*
X107142854Y-85169818D01*
X107142854Y-85169818D02*
X106904759Y-85169818D01*
X106904759Y-85169818D02*
X106809521Y-85217437D01*
X106809521Y-85217437D02*
X106761902Y-85265056D01*
X106761902Y-85265056D02*
X106714283Y-85360294D01*
X106714283Y-85360294D02*
X106714283Y-85455532D01*
X106714283Y-85455532D02*
X106761902Y-85598389D01*
X106761902Y-85598389D02*
X107333330Y-86169818D01*
X107333330Y-86169818D02*
X106714283Y-86169818D01*
X105809521Y-85169818D02*
X106285711Y-85169818D01*
X106285711Y-85169818D02*
X106333330Y-85646008D01*
X106333330Y-85646008D02*
X106285711Y-85598389D01*
X106285711Y-85598389D02*
X106190473Y-85550770D01*
X106190473Y-85550770D02*
X105952378Y-85550770D01*
X105952378Y-85550770D02*
X105857140Y-85598389D01*
X105857140Y-85598389D02*
X105809521Y-85646008D01*
X105809521Y-85646008D02*
X105761902Y-85741246D01*
X105761902Y-85741246D02*
X105761902Y-85979341D01*
X105761902Y-85979341D02*
X105809521Y-86074579D01*
X105809521Y-86074579D02*
X105857140Y-86122199D01*
X105857140Y-86122199D02*
X105952378Y-86169818D01*
X105952378Y-86169818D02*
X106190473Y-86169818D01*
X106190473Y-86169818D02*
X106285711Y-86122199D01*
X106285711Y-86122199D02*
X106333330Y-86074579D01*
X119738093Y-64559874D02*
X119738093Y-63559874D01*
X119071427Y-63559874D02*
X118880951Y-63559874D01*
X118880951Y-63559874D02*
X118785713Y-63607493D01*
X118785713Y-63607493D02*
X118690475Y-63702731D01*
X118690475Y-63702731D02*
X118642856Y-63893207D01*
X118642856Y-63893207D02*
X118642856Y-64226540D01*
X118642856Y-64226540D02*
X118690475Y-64417016D01*
X118690475Y-64417016D02*
X118785713Y-64512255D01*
X118785713Y-64512255D02*
X118880951Y-64559874D01*
X118880951Y-64559874D02*
X119071427Y-64559874D01*
X119071427Y-64559874D02*
X119166665Y-64512255D01*
X119166665Y-64512255D02*
X119261903Y-64417016D01*
X119261903Y-64417016D02*
X119309522Y-64226540D01*
X119309522Y-64226540D02*
X119309522Y-63893207D01*
X119309522Y-63893207D02*
X119261903Y-63702731D01*
X119261903Y-63702731D02*
X119166665Y-63607493D01*
X119166665Y-63607493D02*
X119071427Y-63559874D01*
X118357141Y-63559874D02*
X117785713Y-63559874D01*
X118071427Y-64559874D02*
X118071427Y-63559874D01*
X117690475Y-64655112D02*
X116928570Y-64655112D01*
X116690474Y-64559874D02*
X116690474Y-63559874D01*
X116690474Y-63559874D02*
X116357141Y-64274159D01*
X116357141Y-64274159D02*
X116023808Y-63559874D01*
X116023808Y-63559874D02*
X116023808Y-64559874D01*
X115166665Y-64512255D02*
X115261903Y-64559874D01*
X115261903Y-64559874D02*
X115452379Y-64559874D01*
X115452379Y-64559874D02*
X115547617Y-64512255D01*
X115547617Y-64512255D02*
X115595236Y-64417016D01*
X115595236Y-64417016D02*
X115595236Y-64036064D01*
X115595236Y-64036064D02*
X115547617Y-63940826D01*
X115547617Y-63940826D02*
X115452379Y-63893207D01*
X115452379Y-63893207D02*
X115261903Y-63893207D01*
X115261903Y-63893207D02*
X115166665Y-63940826D01*
X115166665Y-63940826D02*
X115119046Y-64036064D01*
X115119046Y-64036064D02*
X115119046Y-64131302D01*
X115119046Y-64131302D02*
X115595236Y-64226540D01*
X114738093Y-64512255D02*
X114642855Y-64559874D01*
X114642855Y-64559874D02*
X114452379Y-64559874D01*
X114452379Y-64559874D02*
X114357141Y-64512255D01*
X114357141Y-64512255D02*
X114309522Y-64417016D01*
X114309522Y-64417016D02*
X114309522Y-64369397D01*
X114309522Y-64369397D02*
X114357141Y-64274159D01*
X114357141Y-64274159D02*
X114452379Y-64226540D01*
X114452379Y-64226540D02*
X114595236Y-64226540D01*
X114595236Y-64226540D02*
X114690474Y-64178921D01*
X114690474Y-64178921D02*
X114738093Y-64083683D01*
X114738093Y-64083683D02*
X114738093Y-64036064D01*
X114738093Y-64036064D02*
X114690474Y-63940826D01*
X114690474Y-63940826D02*
X114595236Y-63893207D01*
X114595236Y-63893207D02*
X114452379Y-63893207D01*
X114452379Y-63893207D02*
X114357141Y-63940826D01*
X113928569Y-64512255D02*
X113833331Y-64559874D01*
X113833331Y-64559874D02*
X113642855Y-64559874D01*
X113642855Y-64559874D02*
X113547617Y-64512255D01*
X113547617Y-64512255D02*
X113499998Y-64417016D01*
X113499998Y-64417016D02*
X113499998Y-64369397D01*
X113499998Y-64369397D02*
X113547617Y-64274159D01*
X113547617Y-64274159D02*
X113642855Y-64226540D01*
X113642855Y-64226540D02*
X113785712Y-64226540D01*
X113785712Y-64226540D02*
X113880950Y-64178921D01*
X113880950Y-64178921D02*
X113928569Y-64083683D01*
X113928569Y-64083683D02*
X113928569Y-64036064D01*
X113928569Y-64036064D02*
X113880950Y-63940826D01*
X113880950Y-63940826D02*
X113785712Y-63893207D01*
X113785712Y-63893207D02*
X113642855Y-63893207D01*
X113642855Y-63893207D02*
X113547617Y-63940826D01*
X111976188Y-64036064D02*
X111833331Y-64083683D01*
X111833331Y-64083683D02*
X111785712Y-64131302D01*
X111785712Y-64131302D02*
X111738093Y-64226540D01*
X111738093Y-64226540D02*
X111738093Y-64369397D01*
X111738093Y-64369397D02*
X111785712Y-64464635D01*
X111785712Y-64464635D02*
X111833331Y-64512255D01*
X111833331Y-64512255D02*
X111928569Y-64559874D01*
X111928569Y-64559874D02*
X112309521Y-64559874D01*
X112309521Y-64559874D02*
X112309521Y-63559874D01*
X112309521Y-63559874D02*
X111976188Y-63559874D01*
X111976188Y-63559874D02*
X111880950Y-63607493D01*
X111880950Y-63607493D02*
X111833331Y-63655112D01*
X111833331Y-63655112D02*
X111785712Y-63750350D01*
X111785712Y-63750350D02*
X111785712Y-63845588D01*
X111785712Y-63845588D02*
X111833331Y-63940826D01*
X111833331Y-63940826D02*
X111880950Y-63988445D01*
X111880950Y-63988445D02*
X111976188Y-64036064D01*
X111976188Y-64036064D02*
X112309521Y-64036064D01*
X110880950Y-63893207D02*
X110880950Y-64559874D01*
X111309521Y-63893207D02*
X111309521Y-64417016D01*
X111309521Y-64417016D02*
X111261902Y-64512255D01*
X111261902Y-64512255D02*
X111166664Y-64559874D01*
X111166664Y-64559874D02*
X111023807Y-64559874D01*
X111023807Y-64559874D02*
X110928569Y-64512255D01*
X110928569Y-64512255D02*
X110880950Y-64464635D01*
X110452378Y-64512255D02*
X110357140Y-64559874D01*
X110357140Y-64559874D02*
X110166664Y-64559874D01*
X110166664Y-64559874D02*
X110071426Y-64512255D01*
X110071426Y-64512255D02*
X110023807Y-64417016D01*
X110023807Y-64417016D02*
X110023807Y-64369397D01*
X110023807Y-64369397D02*
X110071426Y-64274159D01*
X110071426Y-64274159D02*
X110166664Y-64226540D01*
X110166664Y-64226540D02*
X110309521Y-64226540D01*
X110309521Y-64226540D02*
X110404759Y-64178921D01*
X110404759Y-64178921D02*
X110452378Y-64083683D01*
X110452378Y-64083683D02*
X110452378Y-64036064D01*
X110452378Y-64036064D02*
X110404759Y-63940826D01*
X110404759Y-63940826D02*
X110309521Y-63893207D01*
X110309521Y-63893207D02*
X110166664Y-63893207D01*
X110166664Y-63893207D02*
X110071426Y-63940826D01*
X109595235Y-64178921D02*
X108833331Y-64178921D01*
X108023807Y-64036064D02*
X107880950Y-64083683D01*
X107880950Y-64083683D02*
X107833331Y-64131302D01*
X107833331Y-64131302D02*
X107785712Y-64226540D01*
X107785712Y-64226540D02*
X107785712Y-64369397D01*
X107785712Y-64369397D02*
X107833331Y-64464635D01*
X107833331Y-64464635D02*
X107880950Y-64512255D01*
X107880950Y-64512255D02*
X107976188Y-64559874D01*
X107976188Y-64559874D02*
X108357140Y-64559874D01*
X108357140Y-64559874D02*
X108357140Y-63559874D01*
X108357140Y-63559874D02*
X108023807Y-63559874D01*
X108023807Y-63559874D02*
X107928569Y-63607493D01*
X107928569Y-63607493D02*
X107880950Y-63655112D01*
X107880950Y-63655112D02*
X107833331Y-63750350D01*
X107833331Y-63750350D02*
X107833331Y-63845588D01*
X107833331Y-63845588D02*
X107880950Y-63940826D01*
X107880950Y-63940826D02*
X107928569Y-63988445D01*
X107928569Y-63988445D02*
X108023807Y-64036064D01*
X108023807Y-64036064D02*
X108357140Y-64036064D01*
X107357140Y-64559874D02*
X107357140Y-63893207D01*
X107357140Y-64083683D02*
X107309521Y-63988445D01*
X107309521Y-63988445D02*
X107261902Y-63940826D01*
X107261902Y-63940826D02*
X107166664Y-63893207D01*
X107166664Y-63893207D02*
X107071426Y-63893207D01*
X106357140Y-64512255D02*
X106452378Y-64559874D01*
X106452378Y-64559874D02*
X106642854Y-64559874D01*
X106642854Y-64559874D02*
X106738092Y-64512255D01*
X106738092Y-64512255D02*
X106785711Y-64417016D01*
X106785711Y-64417016D02*
X106785711Y-64036064D01*
X106785711Y-64036064D02*
X106738092Y-63940826D01*
X106738092Y-63940826D02*
X106642854Y-63893207D01*
X106642854Y-63893207D02*
X106452378Y-63893207D01*
X106452378Y-63893207D02*
X106357140Y-63940826D01*
X106357140Y-63940826D02*
X106309521Y-64036064D01*
X106309521Y-64036064D02*
X106309521Y-64131302D01*
X106309521Y-64131302D02*
X106785711Y-64226540D01*
X105452378Y-64559874D02*
X105452378Y-64036064D01*
X105452378Y-64036064D02*
X105499997Y-63940826D01*
X105499997Y-63940826D02*
X105595235Y-63893207D01*
X105595235Y-63893207D02*
X105785711Y-63893207D01*
X105785711Y-63893207D02*
X105880949Y-63940826D01*
X105452378Y-64512255D02*
X105547616Y-64559874D01*
X105547616Y-64559874D02*
X105785711Y-64559874D01*
X105785711Y-64559874D02*
X105880949Y-64512255D01*
X105880949Y-64512255D02*
X105928568Y-64417016D01*
X105928568Y-64417016D02*
X105928568Y-64321778D01*
X105928568Y-64321778D02*
X105880949Y-64226540D01*
X105880949Y-64226540D02*
X105785711Y-64178921D01*
X105785711Y-64178921D02*
X105547616Y-64178921D01*
X105547616Y-64178921D02*
X105452378Y-64131302D01*
X104976187Y-64559874D02*
X104976187Y-63559874D01*
X104880949Y-64178921D02*
X104595235Y-64559874D01*
X104595235Y-63893207D02*
X104976187Y-64274159D01*
X104023806Y-64559874D02*
X104119044Y-64512255D01*
X104119044Y-64512255D02*
X104166663Y-64464635D01*
X104166663Y-64464635D02*
X104214282Y-64369397D01*
X104214282Y-64369397D02*
X104214282Y-64083683D01*
X104214282Y-64083683D02*
X104166663Y-63988445D01*
X104166663Y-63988445D02*
X104119044Y-63940826D01*
X104119044Y-63940826D02*
X104023806Y-63893207D01*
X104023806Y-63893207D02*
X103880949Y-63893207D01*
X103880949Y-63893207D02*
X103785711Y-63940826D01*
X103785711Y-63940826D02*
X103738092Y-63988445D01*
X103738092Y-63988445D02*
X103690473Y-64083683D01*
X103690473Y-64083683D02*
X103690473Y-64369397D01*
X103690473Y-64369397D02*
X103738092Y-64464635D01*
X103738092Y-64464635D02*
X103785711Y-64512255D01*
X103785711Y-64512255D02*
X103880949Y-64559874D01*
X103880949Y-64559874D02*
X104023806Y-64559874D01*
X102833330Y-63893207D02*
X102833330Y-64559874D01*
X103261901Y-63893207D02*
X103261901Y-64417016D01*
X103261901Y-64417016D02*
X103214282Y-64512255D01*
X103214282Y-64512255D02*
X103119044Y-64559874D01*
X103119044Y-64559874D02*
X102976187Y-64559874D01*
X102976187Y-64559874D02*
X102880949Y-64512255D01*
X102880949Y-64512255D02*
X102833330Y-64464635D01*
X102499996Y-63893207D02*
X102119044Y-63893207D01*
X102357139Y-63559874D02*
X102357139Y-64417016D01*
X102357139Y-64417016D02*
X102309520Y-64512255D01*
X102309520Y-64512255D02*
X102214282Y-64559874D01*
X102214282Y-64559874D02*
X102119044Y-64559874D01*
X116333330Y-65169818D02*
X115999997Y-66169818D01*
X115999997Y-66169818D02*
X115666664Y-65169818D01*
X115380949Y-65265056D02*
X115333330Y-65217437D01*
X115333330Y-65217437D02*
X115238092Y-65169818D01*
X115238092Y-65169818D02*
X114999997Y-65169818D01*
X114999997Y-65169818D02*
X114904759Y-65217437D01*
X114904759Y-65217437D02*
X114857140Y-65265056D01*
X114857140Y-65265056D02*
X114809521Y-65360294D01*
X114809521Y-65360294D02*
X114809521Y-65455532D01*
X114809521Y-65455532D02*
X114857140Y-65598389D01*
X114857140Y-65598389D02*
X115428568Y-66169818D01*
X115428568Y-66169818D02*
X114809521Y-66169818D01*
X114380949Y-66074579D02*
X114333330Y-66122199D01*
X114333330Y-66122199D02*
X114380949Y-66169818D01*
X114380949Y-66169818D02*
X114428568Y-66122199D01*
X114428568Y-66122199D02*
X114380949Y-66074579D01*
X114380949Y-66074579D02*
X114380949Y-66169818D01*
X113714283Y-65169818D02*
X113619045Y-65169818D01*
X113619045Y-65169818D02*
X113523807Y-65217437D01*
X113523807Y-65217437D02*
X113476188Y-65265056D01*
X113476188Y-65265056D02*
X113428569Y-65360294D01*
X113428569Y-65360294D02*
X113380950Y-65550770D01*
X113380950Y-65550770D02*
X113380950Y-65788865D01*
X113380950Y-65788865D02*
X113428569Y-65979341D01*
X113428569Y-65979341D02*
X113476188Y-66074579D01*
X113476188Y-66074579D02*
X113523807Y-66122199D01*
X113523807Y-66122199D02*
X113619045Y-66169818D01*
X113619045Y-66169818D02*
X113714283Y-66169818D01*
X113714283Y-66169818D02*
X113809521Y-66122199D01*
X113809521Y-66122199D02*
X113857140Y-66074579D01*
X113857140Y-66074579D02*
X113904759Y-65979341D01*
X113904759Y-65979341D02*
X113952378Y-65788865D01*
X113952378Y-65788865D02*
X113952378Y-65550770D01*
X113952378Y-65550770D02*
X113904759Y-65360294D01*
X113904759Y-65360294D02*
X113857140Y-65265056D01*
X113857140Y-65265056D02*
X113809521Y-65217437D01*
X113809521Y-65217437D02*
X113714283Y-65169818D01*
X112047616Y-65598389D02*
X112142854Y-65550770D01*
X112142854Y-65550770D02*
X112190473Y-65503151D01*
X112190473Y-65503151D02*
X112238092Y-65407913D01*
X112238092Y-65407913D02*
X112238092Y-65360294D01*
X112238092Y-65360294D02*
X112190473Y-65265056D01*
X112190473Y-65265056D02*
X112142854Y-65217437D01*
X112142854Y-65217437D02*
X112047616Y-65169818D01*
X112047616Y-65169818D02*
X111857140Y-65169818D01*
X111857140Y-65169818D02*
X111761902Y-65217437D01*
X111761902Y-65217437D02*
X111714283Y-65265056D01*
X111714283Y-65265056D02*
X111666664Y-65360294D01*
X111666664Y-65360294D02*
X111666664Y-65407913D01*
X111666664Y-65407913D02*
X111714283Y-65503151D01*
X111714283Y-65503151D02*
X111761902Y-65550770D01*
X111761902Y-65550770D02*
X111857140Y-65598389D01*
X111857140Y-65598389D02*
X112047616Y-65598389D01*
X112047616Y-65598389D02*
X112142854Y-65646008D01*
X112142854Y-65646008D02*
X112190473Y-65693627D01*
X112190473Y-65693627D02*
X112238092Y-65788865D01*
X112238092Y-65788865D02*
X112238092Y-65979341D01*
X112238092Y-65979341D02*
X112190473Y-66074579D01*
X112190473Y-66074579D02*
X112142854Y-66122199D01*
X112142854Y-66122199D02*
X112047616Y-66169818D01*
X112047616Y-66169818D02*
X111857140Y-66169818D01*
X111857140Y-66169818D02*
X111761902Y-66122199D01*
X111761902Y-66122199D02*
X111714283Y-66074579D01*
X111714283Y-66074579D02*
X111666664Y-65979341D01*
X111666664Y-65979341D02*
X111666664Y-65788865D01*
X111666664Y-65788865D02*
X111714283Y-65693627D01*
X111714283Y-65693627D02*
X111761902Y-65646008D01*
X111761902Y-65646008D02*
X111857140Y-65598389D01*
X110523807Y-65122199D02*
X111380949Y-66407913D01*
X109666664Y-66169818D02*
X110238092Y-66169818D01*
X109952378Y-66169818D02*
X109952378Y-65169818D01*
X109952378Y-65169818D02*
X110047616Y-65312675D01*
X110047616Y-65312675D02*
X110142854Y-65407913D01*
X110142854Y-65407913D02*
X110238092Y-65455532D01*
X109190473Y-66169818D02*
X108999997Y-66169818D01*
X108999997Y-66169818D02*
X108904759Y-66122199D01*
X108904759Y-66122199D02*
X108857140Y-66074579D01*
X108857140Y-66074579D02*
X108761902Y-65931722D01*
X108761902Y-65931722D02*
X108714283Y-65741246D01*
X108714283Y-65741246D02*
X108714283Y-65360294D01*
X108714283Y-65360294D02*
X108761902Y-65265056D01*
X108761902Y-65265056D02*
X108809521Y-65217437D01*
X108809521Y-65217437D02*
X108904759Y-65169818D01*
X108904759Y-65169818D02*
X109095235Y-65169818D01*
X109095235Y-65169818D02*
X109190473Y-65217437D01*
X109190473Y-65217437D02*
X109238092Y-65265056D01*
X109238092Y-65265056D02*
X109285711Y-65360294D01*
X109285711Y-65360294D02*
X109285711Y-65598389D01*
X109285711Y-65598389D02*
X109238092Y-65693627D01*
X109238092Y-65693627D02*
X109190473Y-65741246D01*
X109190473Y-65741246D02*
X109095235Y-65788865D01*
X109095235Y-65788865D02*
X108904759Y-65788865D01*
X108904759Y-65788865D02*
X108809521Y-65741246D01*
X108809521Y-65741246D02*
X108761902Y-65693627D01*
X108761902Y-65693627D02*
X108714283Y-65598389D01*
X107571426Y-65122199D02*
X108428568Y-66407913D01*
X107285711Y-65265056D02*
X107238092Y-65217437D01*
X107238092Y-65217437D02*
X107142854Y-65169818D01*
X107142854Y-65169818D02*
X106904759Y-65169818D01*
X106904759Y-65169818D02*
X106809521Y-65217437D01*
X106809521Y-65217437D02*
X106761902Y-65265056D01*
X106761902Y-65265056D02*
X106714283Y-65360294D01*
X106714283Y-65360294D02*
X106714283Y-65455532D01*
X106714283Y-65455532D02*
X106761902Y-65598389D01*
X106761902Y-65598389D02*
X107333330Y-66169818D01*
X107333330Y-66169818D02*
X106714283Y-66169818D01*
X105809521Y-65169818D02*
X106285711Y-65169818D01*
X106285711Y-65169818D02*
X106333330Y-65646008D01*
X106333330Y-65646008D02*
X106285711Y-65598389D01*
X106285711Y-65598389D02*
X106190473Y-65550770D01*
X106190473Y-65550770D02*
X105952378Y-65550770D01*
X105952378Y-65550770D02*
X105857140Y-65598389D01*
X105857140Y-65598389D02*
X105809521Y-65646008D01*
X105809521Y-65646008D02*
X105761902Y-65741246D01*
X105761902Y-65741246D02*
X105761902Y-65979341D01*
X105761902Y-65979341D02*
X105809521Y-66074579D01*
X105809521Y-66074579D02*
X105857140Y-66122199D01*
X105857140Y-66122199D02*
X105952378Y-66169818D01*
X105952378Y-66169818D02*
X106190473Y-66169818D01*
X106190473Y-66169818D02*
X106285711Y-66122199D01*
X106285711Y-66122199D02*
X106333330Y-66074579D01*
X119738093Y-144559874D02*
X119738093Y-143559874D01*
X119071427Y-143559874D02*
X118880951Y-143559874D01*
X118880951Y-143559874D02*
X118785713Y-143607493D01*
X118785713Y-143607493D02*
X118690475Y-143702731D01*
X118690475Y-143702731D02*
X118642856Y-143893207D01*
X118642856Y-143893207D02*
X118642856Y-144226540D01*
X118642856Y-144226540D02*
X118690475Y-144417016D01*
X118690475Y-144417016D02*
X118785713Y-144512255D01*
X118785713Y-144512255D02*
X118880951Y-144559874D01*
X118880951Y-144559874D02*
X119071427Y-144559874D01*
X119071427Y-144559874D02*
X119166665Y-144512255D01*
X119166665Y-144512255D02*
X119261903Y-144417016D01*
X119261903Y-144417016D02*
X119309522Y-144226540D01*
X119309522Y-144226540D02*
X119309522Y-143893207D01*
X119309522Y-143893207D02*
X119261903Y-143702731D01*
X119261903Y-143702731D02*
X119166665Y-143607493D01*
X119166665Y-143607493D02*
X119071427Y-143559874D01*
X118357141Y-143559874D02*
X117785713Y-143559874D01*
X118071427Y-144559874D02*
X118071427Y-143559874D01*
X117690475Y-144655112D02*
X116928570Y-144655112D01*
X116690474Y-144559874D02*
X116690474Y-143559874D01*
X116690474Y-143559874D02*
X116357141Y-144274159D01*
X116357141Y-144274159D02*
X116023808Y-143559874D01*
X116023808Y-143559874D02*
X116023808Y-144559874D01*
X115166665Y-144512255D02*
X115261903Y-144559874D01*
X115261903Y-144559874D02*
X115452379Y-144559874D01*
X115452379Y-144559874D02*
X115547617Y-144512255D01*
X115547617Y-144512255D02*
X115595236Y-144417016D01*
X115595236Y-144417016D02*
X115595236Y-144036064D01*
X115595236Y-144036064D02*
X115547617Y-143940826D01*
X115547617Y-143940826D02*
X115452379Y-143893207D01*
X115452379Y-143893207D02*
X115261903Y-143893207D01*
X115261903Y-143893207D02*
X115166665Y-143940826D01*
X115166665Y-143940826D02*
X115119046Y-144036064D01*
X115119046Y-144036064D02*
X115119046Y-144131302D01*
X115119046Y-144131302D02*
X115595236Y-144226540D01*
X114738093Y-144512255D02*
X114642855Y-144559874D01*
X114642855Y-144559874D02*
X114452379Y-144559874D01*
X114452379Y-144559874D02*
X114357141Y-144512255D01*
X114357141Y-144512255D02*
X114309522Y-144417016D01*
X114309522Y-144417016D02*
X114309522Y-144369397D01*
X114309522Y-144369397D02*
X114357141Y-144274159D01*
X114357141Y-144274159D02*
X114452379Y-144226540D01*
X114452379Y-144226540D02*
X114595236Y-144226540D01*
X114595236Y-144226540D02*
X114690474Y-144178921D01*
X114690474Y-144178921D02*
X114738093Y-144083683D01*
X114738093Y-144083683D02*
X114738093Y-144036064D01*
X114738093Y-144036064D02*
X114690474Y-143940826D01*
X114690474Y-143940826D02*
X114595236Y-143893207D01*
X114595236Y-143893207D02*
X114452379Y-143893207D01*
X114452379Y-143893207D02*
X114357141Y-143940826D01*
X113928569Y-144512255D02*
X113833331Y-144559874D01*
X113833331Y-144559874D02*
X113642855Y-144559874D01*
X113642855Y-144559874D02*
X113547617Y-144512255D01*
X113547617Y-144512255D02*
X113499998Y-144417016D01*
X113499998Y-144417016D02*
X113499998Y-144369397D01*
X113499998Y-144369397D02*
X113547617Y-144274159D01*
X113547617Y-144274159D02*
X113642855Y-144226540D01*
X113642855Y-144226540D02*
X113785712Y-144226540D01*
X113785712Y-144226540D02*
X113880950Y-144178921D01*
X113880950Y-144178921D02*
X113928569Y-144083683D01*
X113928569Y-144083683D02*
X113928569Y-144036064D01*
X113928569Y-144036064D02*
X113880950Y-143940826D01*
X113880950Y-143940826D02*
X113785712Y-143893207D01*
X113785712Y-143893207D02*
X113642855Y-143893207D01*
X113642855Y-143893207D02*
X113547617Y-143940826D01*
X111976188Y-144036064D02*
X111833331Y-144083683D01*
X111833331Y-144083683D02*
X111785712Y-144131302D01*
X111785712Y-144131302D02*
X111738093Y-144226540D01*
X111738093Y-144226540D02*
X111738093Y-144369397D01*
X111738093Y-144369397D02*
X111785712Y-144464635D01*
X111785712Y-144464635D02*
X111833331Y-144512255D01*
X111833331Y-144512255D02*
X111928569Y-144559874D01*
X111928569Y-144559874D02*
X112309521Y-144559874D01*
X112309521Y-144559874D02*
X112309521Y-143559874D01*
X112309521Y-143559874D02*
X111976188Y-143559874D01*
X111976188Y-143559874D02*
X111880950Y-143607493D01*
X111880950Y-143607493D02*
X111833331Y-143655112D01*
X111833331Y-143655112D02*
X111785712Y-143750350D01*
X111785712Y-143750350D02*
X111785712Y-143845588D01*
X111785712Y-143845588D02*
X111833331Y-143940826D01*
X111833331Y-143940826D02*
X111880950Y-143988445D01*
X111880950Y-143988445D02*
X111976188Y-144036064D01*
X111976188Y-144036064D02*
X112309521Y-144036064D01*
X110880950Y-143893207D02*
X110880950Y-144559874D01*
X111309521Y-143893207D02*
X111309521Y-144417016D01*
X111309521Y-144417016D02*
X111261902Y-144512255D01*
X111261902Y-144512255D02*
X111166664Y-144559874D01*
X111166664Y-144559874D02*
X111023807Y-144559874D01*
X111023807Y-144559874D02*
X110928569Y-144512255D01*
X110928569Y-144512255D02*
X110880950Y-144464635D01*
X110452378Y-144512255D02*
X110357140Y-144559874D01*
X110357140Y-144559874D02*
X110166664Y-144559874D01*
X110166664Y-144559874D02*
X110071426Y-144512255D01*
X110071426Y-144512255D02*
X110023807Y-144417016D01*
X110023807Y-144417016D02*
X110023807Y-144369397D01*
X110023807Y-144369397D02*
X110071426Y-144274159D01*
X110071426Y-144274159D02*
X110166664Y-144226540D01*
X110166664Y-144226540D02*
X110309521Y-144226540D01*
X110309521Y-144226540D02*
X110404759Y-144178921D01*
X110404759Y-144178921D02*
X110452378Y-144083683D01*
X110452378Y-144083683D02*
X110452378Y-144036064D01*
X110452378Y-144036064D02*
X110404759Y-143940826D01*
X110404759Y-143940826D02*
X110309521Y-143893207D01*
X110309521Y-143893207D02*
X110166664Y-143893207D01*
X110166664Y-143893207D02*
X110071426Y-143940826D01*
X109595235Y-144178921D02*
X108833331Y-144178921D01*
X108023807Y-144036064D02*
X107880950Y-144083683D01*
X107880950Y-144083683D02*
X107833331Y-144131302D01*
X107833331Y-144131302D02*
X107785712Y-144226540D01*
X107785712Y-144226540D02*
X107785712Y-144369397D01*
X107785712Y-144369397D02*
X107833331Y-144464635D01*
X107833331Y-144464635D02*
X107880950Y-144512255D01*
X107880950Y-144512255D02*
X107976188Y-144559874D01*
X107976188Y-144559874D02*
X108357140Y-144559874D01*
X108357140Y-144559874D02*
X108357140Y-143559874D01*
X108357140Y-143559874D02*
X108023807Y-143559874D01*
X108023807Y-143559874D02*
X107928569Y-143607493D01*
X107928569Y-143607493D02*
X107880950Y-143655112D01*
X107880950Y-143655112D02*
X107833331Y-143750350D01*
X107833331Y-143750350D02*
X107833331Y-143845588D01*
X107833331Y-143845588D02*
X107880950Y-143940826D01*
X107880950Y-143940826D02*
X107928569Y-143988445D01*
X107928569Y-143988445D02*
X108023807Y-144036064D01*
X108023807Y-144036064D02*
X108357140Y-144036064D01*
X107357140Y-144559874D02*
X107357140Y-143893207D01*
X107357140Y-144083683D02*
X107309521Y-143988445D01*
X107309521Y-143988445D02*
X107261902Y-143940826D01*
X107261902Y-143940826D02*
X107166664Y-143893207D01*
X107166664Y-143893207D02*
X107071426Y-143893207D01*
X106357140Y-144512255D02*
X106452378Y-144559874D01*
X106452378Y-144559874D02*
X106642854Y-144559874D01*
X106642854Y-144559874D02*
X106738092Y-144512255D01*
X106738092Y-144512255D02*
X106785711Y-144417016D01*
X106785711Y-144417016D02*
X106785711Y-144036064D01*
X106785711Y-144036064D02*
X106738092Y-143940826D01*
X106738092Y-143940826D02*
X106642854Y-143893207D01*
X106642854Y-143893207D02*
X106452378Y-143893207D01*
X106452378Y-143893207D02*
X106357140Y-143940826D01*
X106357140Y-143940826D02*
X106309521Y-144036064D01*
X106309521Y-144036064D02*
X106309521Y-144131302D01*
X106309521Y-144131302D02*
X106785711Y-144226540D01*
X105452378Y-144559874D02*
X105452378Y-144036064D01*
X105452378Y-144036064D02*
X105499997Y-143940826D01*
X105499997Y-143940826D02*
X105595235Y-143893207D01*
X105595235Y-143893207D02*
X105785711Y-143893207D01*
X105785711Y-143893207D02*
X105880949Y-143940826D01*
X105452378Y-144512255D02*
X105547616Y-144559874D01*
X105547616Y-144559874D02*
X105785711Y-144559874D01*
X105785711Y-144559874D02*
X105880949Y-144512255D01*
X105880949Y-144512255D02*
X105928568Y-144417016D01*
X105928568Y-144417016D02*
X105928568Y-144321778D01*
X105928568Y-144321778D02*
X105880949Y-144226540D01*
X105880949Y-144226540D02*
X105785711Y-144178921D01*
X105785711Y-144178921D02*
X105547616Y-144178921D01*
X105547616Y-144178921D02*
X105452378Y-144131302D01*
X104976187Y-144559874D02*
X104976187Y-143559874D01*
X104880949Y-144178921D02*
X104595235Y-144559874D01*
X104595235Y-143893207D02*
X104976187Y-144274159D01*
X104023806Y-144559874D02*
X104119044Y-144512255D01*
X104119044Y-144512255D02*
X104166663Y-144464635D01*
X104166663Y-144464635D02*
X104214282Y-144369397D01*
X104214282Y-144369397D02*
X104214282Y-144083683D01*
X104214282Y-144083683D02*
X104166663Y-143988445D01*
X104166663Y-143988445D02*
X104119044Y-143940826D01*
X104119044Y-143940826D02*
X104023806Y-143893207D01*
X104023806Y-143893207D02*
X103880949Y-143893207D01*
X103880949Y-143893207D02*
X103785711Y-143940826D01*
X103785711Y-143940826D02*
X103738092Y-143988445D01*
X103738092Y-143988445D02*
X103690473Y-144083683D01*
X103690473Y-144083683D02*
X103690473Y-144369397D01*
X103690473Y-144369397D02*
X103738092Y-144464635D01*
X103738092Y-144464635D02*
X103785711Y-144512255D01*
X103785711Y-144512255D02*
X103880949Y-144559874D01*
X103880949Y-144559874D02*
X104023806Y-144559874D01*
X102833330Y-143893207D02*
X102833330Y-144559874D01*
X103261901Y-143893207D02*
X103261901Y-144417016D01*
X103261901Y-144417016D02*
X103214282Y-144512255D01*
X103214282Y-144512255D02*
X103119044Y-144559874D01*
X103119044Y-144559874D02*
X102976187Y-144559874D01*
X102976187Y-144559874D02*
X102880949Y-144512255D01*
X102880949Y-144512255D02*
X102833330Y-144464635D01*
X102499996Y-143893207D02*
X102119044Y-143893207D01*
X102357139Y-143559874D02*
X102357139Y-144417016D01*
X102357139Y-144417016D02*
X102309520Y-144512255D01*
X102309520Y-144512255D02*
X102214282Y-144559874D01*
X102214282Y-144559874D02*
X102119044Y-144559874D01*
X116333330Y-145169818D02*
X115999997Y-146169818D01*
X115999997Y-146169818D02*
X115666664Y-145169818D01*
X115380949Y-145265056D02*
X115333330Y-145217437D01*
X115333330Y-145217437D02*
X115238092Y-145169818D01*
X115238092Y-145169818D02*
X114999997Y-145169818D01*
X114999997Y-145169818D02*
X114904759Y-145217437D01*
X114904759Y-145217437D02*
X114857140Y-145265056D01*
X114857140Y-145265056D02*
X114809521Y-145360294D01*
X114809521Y-145360294D02*
X114809521Y-145455532D01*
X114809521Y-145455532D02*
X114857140Y-145598389D01*
X114857140Y-145598389D02*
X115428568Y-146169818D01*
X115428568Y-146169818D02*
X114809521Y-146169818D01*
X114380949Y-146074579D02*
X114333330Y-146122199D01*
X114333330Y-146122199D02*
X114380949Y-146169818D01*
X114380949Y-146169818D02*
X114428568Y-146122199D01*
X114428568Y-146122199D02*
X114380949Y-146074579D01*
X114380949Y-146074579D02*
X114380949Y-146169818D01*
X113714283Y-145169818D02*
X113619045Y-145169818D01*
X113619045Y-145169818D02*
X113523807Y-145217437D01*
X113523807Y-145217437D02*
X113476188Y-145265056D01*
X113476188Y-145265056D02*
X113428569Y-145360294D01*
X113428569Y-145360294D02*
X113380950Y-145550770D01*
X113380950Y-145550770D02*
X113380950Y-145788865D01*
X113380950Y-145788865D02*
X113428569Y-145979341D01*
X113428569Y-145979341D02*
X113476188Y-146074579D01*
X113476188Y-146074579D02*
X113523807Y-146122199D01*
X113523807Y-146122199D02*
X113619045Y-146169818D01*
X113619045Y-146169818D02*
X113714283Y-146169818D01*
X113714283Y-146169818D02*
X113809521Y-146122199D01*
X113809521Y-146122199D02*
X113857140Y-146074579D01*
X113857140Y-146074579D02*
X113904759Y-145979341D01*
X113904759Y-145979341D02*
X113952378Y-145788865D01*
X113952378Y-145788865D02*
X113952378Y-145550770D01*
X113952378Y-145550770D02*
X113904759Y-145360294D01*
X113904759Y-145360294D02*
X113857140Y-145265056D01*
X113857140Y-145265056D02*
X113809521Y-145217437D01*
X113809521Y-145217437D02*
X113714283Y-145169818D01*
X112047616Y-145598389D02*
X112142854Y-145550770D01*
X112142854Y-145550770D02*
X112190473Y-145503151D01*
X112190473Y-145503151D02*
X112238092Y-145407913D01*
X112238092Y-145407913D02*
X112238092Y-145360294D01*
X112238092Y-145360294D02*
X112190473Y-145265056D01*
X112190473Y-145265056D02*
X112142854Y-145217437D01*
X112142854Y-145217437D02*
X112047616Y-145169818D01*
X112047616Y-145169818D02*
X111857140Y-145169818D01*
X111857140Y-145169818D02*
X111761902Y-145217437D01*
X111761902Y-145217437D02*
X111714283Y-145265056D01*
X111714283Y-145265056D02*
X111666664Y-145360294D01*
X111666664Y-145360294D02*
X111666664Y-145407913D01*
X111666664Y-145407913D02*
X111714283Y-145503151D01*
X111714283Y-145503151D02*
X111761902Y-145550770D01*
X111761902Y-145550770D02*
X111857140Y-145598389D01*
X111857140Y-145598389D02*
X112047616Y-145598389D01*
X112047616Y-145598389D02*
X112142854Y-145646008D01*
X112142854Y-145646008D02*
X112190473Y-145693627D01*
X112190473Y-145693627D02*
X112238092Y-145788865D01*
X112238092Y-145788865D02*
X112238092Y-145979341D01*
X112238092Y-145979341D02*
X112190473Y-146074579D01*
X112190473Y-146074579D02*
X112142854Y-146122199D01*
X112142854Y-146122199D02*
X112047616Y-146169818D01*
X112047616Y-146169818D02*
X111857140Y-146169818D01*
X111857140Y-146169818D02*
X111761902Y-146122199D01*
X111761902Y-146122199D02*
X111714283Y-146074579D01*
X111714283Y-146074579D02*
X111666664Y-145979341D01*
X111666664Y-145979341D02*
X111666664Y-145788865D01*
X111666664Y-145788865D02*
X111714283Y-145693627D01*
X111714283Y-145693627D02*
X111761902Y-145646008D01*
X111761902Y-145646008D02*
X111857140Y-145598389D01*
X110523807Y-145122199D02*
X111380949Y-146407913D01*
X109666664Y-146169818D02*
X110238092Y-146169818D01*
X109952378Y-146169818D02*
X109952378Y-145169818D01*
X109952378Y-145169818D02*
X110047616Y-145312675D01*
X110047616Y-145312675D02*
X110142854Y-145407913D01*
X110142854Y-145407913D02*
X110238092Y-145455532D01*
X109190473Y-146169818D02*
X108999997Y-146169818D01*
X108999997Y-146169818D02*
X108904759Y-146122199D01*
X108904759Y-146122199D02*
X108857140Y-146074579D01*
X108857140Y-146074579D02*
X108761902Y-145931722D01*
X108761902Y-145931722D02*
X108714283Y-145741246D01*
X108714283Y-145741246D02*
X108714283Y-145360294D01*
X108714283Y-145360294D02*
X108761902Y-145265056D01*
X108761902Y-145265056D02*
X108809521Y-145217437D01*
X108809521Y-145217437D02*
X108904759Y-145169818D01*
X108904759Y-145169818D02*
X109095235Y-145169818D01*
X109095235Y-145169818D02*
X109190473Y-145217437D01*
X109190473Y-145217437D02*
X109238092Y-145265056D01*
X109238092Y-145265056D02*
X109285711Y-145360294D01*
X109285711Y-145360294D02*
X109285711Y-145598389D01*
X109285711Y-145598389D02*
X109238092Y-145693627D01*
X109238092Y-145693627D02*
X109190473Y-145741246D01*
X109190473Y-145741246D02*
X109095235Y-145788865D01*
X109095235Y-145788865D02*
X108904759Y-145788865D01*
X108904759Y-145788865D02*
X108809521Y-145741246D01*
X108809521Y-145741246D02*
X108761902Y-145693627D01*
X108761902Y-145693627D02*
X108714283Y-145598389D01*
X107571426Y-145122199D02*
X108428568Y-146407913D01*
X107285711Y-145265056D02*
X107238092Y-145217437D01*
X107238092Y-145217437D02*
X107142854Y-145169818D01*
X107142854Y-145169818D02*
X106904759Y-145169818D01*
X106904759Y-145169818D02*
X106809521Y-145217437D01*
X106809521Y-145217437D02*
X106761902Y-145265056D01*
X106761902Y-145265056D02*
X106714283Y-145360294D01*
X106714283Y-145360294D02*
X106714283Y-145455532D01*
X106714283Y-145455532D02*
X106761902Y-145598389D01*
X106761902Y-145598389D02*
X107333330Y-146169818D01*
X107333330Y-146169818D02*
X106714283Y-146169818D01*
X105809521Y-145169818D02*
X106285711Y-145169818D01*
X106285711Y-145169818D02*
X106333330Y-145646008D01*
X106333330Y-145646008D02*
X106285711Y-145598389D01*
X106285711Y-145598389D02*
X106190473Y-145550770D01*
X106190473Y-145550770D02*
X105952378Y-145550770D01*
X105952378Y-145550770D02*
X105857140Y-145598389D01*
X105857140Y-145598389D02*
X105809521Y-145646008D01*
X105809521Y-145646008D02*
X105761902Y-145741246D01*
X105761902Y-145741246D02*
X105761902Y-145979341D01*
X105761902Y-145979341D02*
X105809521Y-146074579D01*
X105809521Y-146074579D02*
X105857140Y-146122199D01*
X105857140Y-146122199D02*
X105952378Y-146169818D01*
X105952378Y-146169818D02*
X106190473Y-146169818D01*
X106190473Y-146169818D02*
X106285711Y-146122199D01*
X106285711Y-146122199D02*
X106333330Y-146074579D01*
D11*
%TO.C,G\u002A\u002A\u002A4*%
G36*
X128384313Y-129704043D02*
G01*
X128399381Y-129714741D01*
X128436563Y-129760295D01*
X128453003Y-129823075D01*
X128449990Y-129907073D01*
X128445447Y-129933221D01*
X128410731Y-130021318D01*
X128349280Y-130097124D01*
X128263708Y-130157131D01*
X128238803Y-130169924D01*
X128199056Y-130186979D01*
X128161013Y-130195658D01*
X128113784Y-130197888D01*
X128046482Y-130195597D01*
X127952828Y-130185598D01*
X127841508Y-130154678D01*
X127753236Y-130104647D01*
X127688887Y-130036245D01*
X127649334Y-129950211D01*
X127635450Y-129847287D01*
X127639404Y-129783539D01*
X127657515Y-129728037D01*
X127691709Y-129696438D01*
X127743545Y-129686421D01*
X127766940Y-129688292D01*
X127807988Y-129707311D01*
X127835394Y-129749579D01*
X127851924Y-129818470D01*
X127856225Y-129844642D01*
X127866609Y-129891746D01*
X127876800Y-129921698D01*
X127886162Y-129933945D01*
X127927273Y-129958871D01*
X127988826Y-129975524D01*
X128063604Y-129981589D01*
X128098642Y-129980402D01*
X128170198Y-129965819D01*
X128221629Y-129931822D01*
X128256960Y-129874880D01*
X128280212Y-129791461D01*
X128284572Y-129769744D01*
X128300113Y-129715418D01*
X128319571Y-129688329D01*
X128346465Y-129685522D01*
X128384313Y-129704043D01*
G37*
G36*
X130299561Y-129701971D02*
G01*
X130345928Y-129716749D01*
X130379413Y-129753578D01*
X130392292Y-129804094D01*
X130398526Y-129834825D01*
X130425615Y-129884679D01*
X130467373Y-129932487D01*
X130516331Y-129968359D01*
X130542369Y-129979911D01*
X130617471Y-129995459D01*
X130694544Y-129990988D01*
X130760644Y-129966594D01*
X130789858Y-129943956D01*
X130815092Y-129906672D01*
X130835990Y-129848584D01*
X130848548Y-129811346D01*
X130870320Y-129762604D01*
X130890971Y-129731472D01*
X130895657Y-129727109D01*
X130942400Y-129705160D01*
X130997249Y-129707563D01*
X131050441Y-129734155D01*
X131073517Y-129756330D01*
X131087764Y-129788376D01*
X131091374Y-129837995D01*
X131082607Y-129906221D01*
X131047449Y-129995177D01*
X130989433Y-130079267D01*
X130912892Y-130152516D01*
X130822164Y-130208951D01*
X130786171Y-130224895D01*
X130741744Y-130238198D01*
X130692444Y-130242960D01*
X130625319Y-130241311D01*
X130622549Y-130241164D01*
X130521258Y-130228535D01*
X130446665Y-130202971D01*
X130428842Y-130193034D01*
X130347356Y-130130089D01*
X130277539Y-130048366D01*
X130225611Y-129956373D01*
X130197792Y-129862617D01*
X130198366Y-129806509D01*
X130217730Y-129753206D01*
X130252422Y-129715964D01*
X130297971Y-129701956D01*
X130299561Y-129701971D01*
G37*
G36*
X132166510Y-130383010D02*
G01*
X132166584Y-130384675D01*
X132170206Y-130440252D01*
X132176955Y-130473378D01*
X132189971Y-130492467D01*
X132212398Y-130505934D01*
X132214491Y-130506850D01*
X132244259Y-130516746D01*
X132299255Y-130532769D01*
X132375214Y-130553761D01*
X132467872Y-130578558D01*
X132572962Y-130606000D01*
X132686220Y-130634927D01*
X132766092Y-130655182D01*
X132913570Y-130692899D01*
X133069507Y-130733112D01*
X133224253Y-130773320D01*
X133368153Y-130811019D01*
X133491558Y-130843708D01*
X133564360Y-130863130D01*
X133667295Y-130890544D01*
X133760328Y-130915267D01*
X133838429Y-130935965D01*
X133896572Y-130951305D01*
X133929727Y-130959952D01*
X133944198Y-130964054D01*
X133988969Y-130981525D01*
X134018394Y-131000003D01*
X134018973Y-131000588D01*
X134034144Y-131031654D01*
X134023793Y-131057960D01*
X133991926Y-131069051D01*
X133990991Y-131069017D01*
X133965356Y-131064591D01*
X133914248Y-131053419D01*
X133841872Y-131036500D01*
X133752433Y-131014837D01*
X133650136Y-130989430D01*
X133539185Y-130961281D01*
X133479008Y-130945953D01*
X133330188Y-130908661D01*
X133168673Y-130868880D01*
X133005145Y-130829211D01*
X132850292Y-130792256D01*
X132714799Y-130760616D01*
X132654337Y-130746706D01*
X132512625Y-130714152D01*
X132397437Y-130688005D01*
X132306024Y-130667927D01*
X132235638Y-130653584D01*
X132183531Y-130644638D01*
X132146955Y-130640752D01*
X132123160Y-130641593D01*
X132109399Y-130646821D01*
X132102923Y-130656102D01*
X132100983Y-130669098D01*
X132100832Y-130685472D01*
X132100796Y-130686755D01*
X132094949Y-130719426D01*
X132081097Y-130770059D01*
X132062062Y-130828256D01*
X132042694Y-130890785D01*
X132028855Y-130950236D01*
X132023552Y-130993709D01*
X132024818Y-131025288D01*
X132033784Y-131044984D01*
X132058008Y-131057278D01*
X132105044Y-131069162D01*
X132118886Y-131072435D01*
X132173168Y-131085931D01*
X132249675Y-131105511D01*
X132342811Y-131129693D01*
X132446979Y-131156997D01*
X132556584Y-131185942D01*
X132666029Y-131215046D01*
X132769718Y-131242828D01*
X132862053Y-131267809D01*
X132937442Y-131288506D01*
X132990285Y-131303439D01*
X133025619Y-131314749D01*
X133099256Y-131349080D01*
X133143063Y-131389712D01*
X133157552Y-131437057D01*
X133153030Y-131465627D01*
X133136117Y-131470309D01*
X133102358Y-131451226D01*
X133101276Y-131450484D01*
X133067737Y-131433833D01*
X133009352Y-131412485D01*
X132925007Y-131386109D01*
X132813588Y-131354377D01*
X132673981Y-131316954D01*
X132505074Y-131273509D01*
X132410473Y-131249654D01*
X132268833Y-131214426D01*
X132155203Y-131186909D01*
X132068330Y-131166817D01*
X132006967Y-131153864D01*
X131969862Y-131147767D01*
X131955763Y-131148239D01*
X131954732Y-131149615D01*
X131940940Y-131169532D01*
X131915463Y-131207052D01*
X131882859Y-131255473D01*
X131809599Y-131352403D01*
X131679516Y-131486786D01*
X131519797Y-131616398D01*
X131331142Y-131740689D01*
X131114253Y-131859107D01*
X130998159Y-131915204D01*
X130653559Y-132060157D01*
X130302672Y-132176382D01*
X129948046Y-132263109D01*
X129592230Y-132319566D01*
X129576588Y-132321311D01*
X129444427Y-132332236D01*
X129298337Y-132338652D01*
X129147253Y-132340561D01*
X129000108Y-132337968D01*
X128865839Y-132330874D01*
X128753378Y-132319284D01*
X128637250Y-132300649D01*
X128399336Y-132247730D01*
X128171149Y-132177321D01*
X127956698Y-132091136D01*
X127759989Y-131990892D01*
X127585030Y-131878304D01*
X127435828Y-131755090D01*
X127407748Y-131727637D01*
X127348375Y-131659045D01*
X127310964Y-131592672D01*
X127291407Y-131519662D01*
X127285599Y-131431160D01*
X127283569Y-131375877D01*
X127277201Y-131329781D01*
X127267407Y-131308415D01*
X127233111Y-131297954D01*
X127182939Y-131296212D01*
X127134971Y-131304708D01*
X127116835Y-131307451D01*
X127082537Y-131297213D01*
X127035558Y-131266291D01*
X127011150Y-131247852D01*
X126973040Y-131219165D01*
X126949114Y-131201292D01*
X126941033Y-131198218D01*
X126908467Y-131198230D01*
X126852861Y-131206855D01*
X126772613Y-131224425D01*
X126666127Y-131251271D01*
X126531802Y-131287724D01*
X126490025Y-131299277D01*
X126384534Y-131327988D01*
X126275562Y-131357077D01*
X126167293Y-131385484D01*
X126063911Y-131412144D01*
X125969600Y-131435998D01*
X125888543Y-131455979D01*
X125824924Y-131471027D01*
X125782927Y-131480078D01*
X125766737Y-131482069D01*
X125766006Y-131480095D01*
X125778478Y-131465447D01*
X125810237Y-131443248D01*
X125854082Y-131417762D01*
X125902814Y-131393253D01*
X125949233Y-131373985D01*
X125977176Y-131364715D01*
X126032965Y-131347121D01*
X126109502Y-131323502D01*
X126201957Y-131295339D01*
X126305497Y-131264110D01*
X126415289Y-131231295D01*
X126481015Y-131211643D01*
X126614210Y-131170782D01*
X126721338Y-131135704D01*
X126805175Y-131104883D01*
X126868498Y-131076793D01*
X126914080Y-131049907D01*
X126944703Y-131022700D01*
X126963137Y-130993646D01*
X126972163Y-130961218D01*
X126974555Y-130923892D01*
X126974218Y-130910195D01*
X126969104Y-130884951D01*
X126953569Y-130862549D01*
X126922227Y-130836678D01*
X126869692Y-130801027D01*
X126836756Y-130779353D01*
X126779799Y-130742805D01*
X126736942Y-130719691D01*
X126699743Y-130707971D01*
X126659761Y-130705605D01*
X126608558Y-130710557D01*
X126537692Y-130720779D01*
X126499956Y-130726764D01*
X126415461Y-130741938D01*
X126310966Y-130762220D01*
X126192898Y-130786245D01*
X126067686Y-130812649D01*
X125941757Y-130840067D01*
X125821540Y-130867135D01*
X125713462Y-130892487D01*
X125623954Y-130914760D01*
X125615541Y-130916926D01*
X125556753Y-130931035D01*
X125508403Y-130940996D01*
X125480253Y-130944769D01*
X125461038Y-130940561D01*
X125452937Y-130923189D01*
X125466160Y-130898888D01*
X125498809Y-130874812D01*
X125509029Y-130870134D01*
X125558433Y-130853069D01*
X125635176Y-130831338D01*
X125736839Y-130805518D01*
X125861002Y-130776189D01*
X126005245Y-130743927D01*
X126167148Y-130709311D01*
X126344291Y-130672917D01*
X126458069Y-130649687D01*
X126561364Y-130627712D01*
X126639455Y-130609772D01*
X126695205Y-130595103D01*
X126731480Y-130582946D01*
X126751144Y-130572536D01*
X126757062Y-130563112D01*
X126756654Y-130560696D01*
X126748688Y-130537154D01*
X126733758Y-130499621D01*
X126721267Y-130458142D01*
X126713025Y-130403555D01*
X126711096Y-130349738D01*
X126715771Y-130306510D01*
X126724341Y-130289608D01*
X126819203Y-130289608D01*
X126826875Y-130305836D01*
X126848556Y-130342597D01*
X126880863Y-130394220D01*
X126920406Y-130455160D01*
X126943640Y-130490649D01*
X126990568Y-130565952D01*
X127021648Y-130625323D01*
X127038654Y-130675335D01*
X127043363Y-130722558D01*
X127037548Y-130773566D01*
X127022984Y-130834929D01*
X127019392Y-130848479D01*
X127005808Y-130904542D01*
X127000827Y-130941551D01*
X127003988Y-130968445D01*
X127014835Y-130994165D01*
X127016222Y-130996769D01*
X127048811Y-131030677D01*
X127092047Y-131036263D01*
X127142989Y-131013093D01*
X127168740Y-130997460D01*
X127183106Y-130993674D01*
X127187596Y-131001388D01*
X127203970Y-131031923D01*
X127229085Y-131079823D01*
X127259710Y-131138959D01*
X127363520Y-131315012D01*
X127483645Y-131468496D01*
X127624262Y-131603520D01*
X127790151Y-131725370D01*
X127960573Y-131822102D01*
X128153736Y-131906937D01*
X128361644Y-131976991D01*
X128576915Y-132029777D01*
X128792169Y-132062811D01*
X128865291Y-132068645D01*
X128973232Y-132073431D01*
X129094704Y-132075806D01*
X129220805Y-132075785D01*
X129342633Y-132073385D01*
X129451285Y-132068620D01*
X129537857Y-132061507D01*
X129576445Y-132056908D01*
X129834627Y-132016319D01*
X130089848Y-131959747D01*
X130338633Y-131888647D01*
X130577505Y-131804478D01*
X130802989Y-131708695D01*
X131011608Y-131602755D01*
X131199888Y-131488115D01*
X131364352Y-131366231D01*
X131501525Y-131238560D01*
X131511735Y-131227555D01*
X131572154Y-131156341D01*
X131623904Y-131085459D01*
X131659579Y-131024916D01*
X131672157Y-130999875D01*
X131704026Y-130949925D01*
X131737080Y-130925459D01*
X131778108Y-130923161D01*
X131833899Y-130939712D01*
X131836350Y-130940637D01*
X131883124Y-130954457D01*
X131911097Y-130949529D01*
X131925836Y-130921769D01*
X131932911Y-130867095D01*
X131933805Y-130853883D01*
X131933617Y-130816486D01*
X131924701Y-130798887D01*
X131903617Y-130792290D01*
X131868777Y-130775789D01*
X131831721Y-130741784D01*
X131802387Y-130701208D01*
X131790456Y-130664956D01*
X131794595Y-130630820D01*
X131822664Y-130566155D01*
X131878456Y-130493466D01*
X131900531Y-130467943D01*
X131924704Y-130431169D01*
X131936994Y-130390702D01*
X131942888Y-130332860D01*
X131941986Y-130251135D01*
X131924104Y-130177206D01*
X131905177Y-130120988D01*
X131901690Y-130065163D01*
X131920622Y-130020374D01*
X131924667Y-130013957D01*
X131935563Y-129974613D01*
X131935745Y-129915129D01*
X131924927Y-129834115D01*
X131902826Y-129730182D01*
X131869152Y-129601940D01*
X131823624Y-129447998D01*
X131765955Y-129266971D01*
X131754554Y-129232169D01*
X131711209Y-129099821D01*
X131676060Y-128990532D01*
X131648208Y-128898967D01*
X131626756Y-128819787D01*
X131610806Y-128747654D01*
X131599459Y-128677234D01*
X131591817Y-128603186D01*
X131586983Y-128520173D01*
X131584058Y-128422859D01*
X131582141Y-128305905D01*
X131580338Y-128163974D01*
X131579995Y-128138122D01*
X131577471Y-127967308D01*
X131574746Y-127823428D01*
X131571636Y-127702848D01*
X131567955Y-127601932D01*
X131563520Y-127517047D01*
X131558142Y-127444556D01*
X131551637Y-127380826D01*
X131543823Y-127322221D01*
X131534508Y-127265106D01*
X131524413Y-127210544D01*
X131510772Y-127152306D01*
X131495343Y-127111453D01*
X131474848Y-127080026D01*
X131446014Y-127050067D01*
X131443246Y-127047515D01*
X131374981Y-127002368D01*
X131288524Y-126976207D01*
X131179798Y-126967766D01*
X131137336Y-126968824D01*
X131074556Y-126976099D01*
X131015789Y-126992383D01*
X130957010Y-127020117D01*
X130894191Y-127061742D01*
X130823310Y-127119700D01*
X130740338Y-127196433D01*
X130641251Y-127294382D01*
X130568067Y-127367335D01*
X130487492Y-127444037D01*
X130419388Y-127502538D01*
X130359108Y-127545656D01*
X130302002Y-127576212D01*
X130243423Y-127597023D01*
X130178723Y-127610910D01*
X130103254Y-127620691D01*
X130076827Y-127622925D01*
X130005754Y-127626598D01*
X129910814Y-127629574D01*
X129796714Y-127631852D01*
X129668155Y-127633433D01*
X129529840Y-127634314D01*
X129386469Y-127634496D01*
X129242746Y-127633978D01*
X129103371Y-127632759D01*
X128973051Y-127630839D01*
X128856485Y-127628218D01*
X128758374Y-127624895D01*
X128683424Y-127620867D01*
X128577893Y-127611456D01*
X128476697Y-127596297D01*
X128386941Y-127573691D01*
X128303212Y-127541071D01*
X128220092Y-127495870D01*
X128132166Y-127435520D01*
X128034017Y-127357455D01*
X127920230Y-127259107D01*
X127918406Y-127257490D01*
X127824791Y-127176320D01*
X127747781Y-127114534D01*
X127682263Y-127069435D01*
X127623124Y-127038326D01*
X127565249Y-127018507D01*
X127503527Y-127007281D01*
X127432842Y-127001951D01*
X127383038Y-127000162D01*
X127328912Y-127000606D01*
X127288490Y-127006284D01*
X127251478Y-127018954D01*
X127207582Y-127040370D01*
X127204678Y-127041885D01*
X127150271Y-127074936D01*
X127113668Y-127111259D01*
X127083301Y-127162194D01*
X127072098Y-127185316D01*
X127060970Y-127213248D01*
X127053380Y-127243594D01*
X127048700Y-127282084D01*
X127046301Y-127334448D01*
X127045556Y-127406421D01*
X127045834Y-127503730D01*
X127045918Y-127515673D01*
X127051273Y-127692232D01*
X127063883Y-127884334D01*
X127082882Y-128078531D01*
X127089197Y-128136272D01*
X127105250Y-128316401D01*
X127115921Y-128493247D01*
X127120331Y-128653332D01*
X127120729Y-128726047D01*
X127120359Y-128800306D01*
X127118190Y-128861764D01*
X127113338Y-128917595D01*
X127104916Y-128974972D01*
X127092039Y-129041072D01*
X127073822Y-129123067D01*
X127049378Y-129228133D01*
X127027289Y-129323789D01*
X127000695Y-129441792D01*
X126975098Y-129558083D01*
X126952587Y-129663162D01*
X126935248Y-129747531D01*
X126919063Y-129830595D01*
X126908519Y-129890978D01*
X126903590Y-129932905D01*
X126903894Y-129962408D01*
X126909047Y-129985520D01*
X126918665Y-130008272D01*
X126923139Y-130018377D01*
X126939962Y-130082384D01*
X126941623Y-130147483D01*
X126927489Y-130199942D01*
X126902670Y-130228030D01*
X126865348Y-130253694D01*
X126861736Y-130255597D01*
X126831579Y-130275015D01*
X126819203Y-130289608D01*
X126724341Y-130289608D01*
X126727342Y-130283690D01*
X126730524Y-130279742D01*
X126723563Y-130257356D01*
X126694037Y-130221471D01*
X126686280Y-130213544D01*
X126668944Y-130197518D01*
X126649949Y-130184734D01*
X126625622Y-130174606D01*
X126592291Y-130166553D01*
X126546284Y-130159991D01*
X126483929Y-130154338D01*
X126401553Y-130149009D01*
X126295483Y-130143422D01*
X126162048Y-130136993D01*
X126137225Y-130135771D01*
X126040259Y-130130155D01*
X125953774Y-130123856D01*
X125882912Y-130117332D01*
X125832814Y-130111042D01*
X125808623Y-130105445D01*
X125790812Y-130090444D01*
X125778347Y-130060850D01*
X125781107Y-130048675D01*
X125796689Y-130035998D01*
X125831329Y-130025551D01*
X125890977Y-130014907D01*
X125978711Y-130001790D01*
X126122318Y-129982280D01*
X126266317Y-129964815D01*
X126400397Y-129950618D01*
X126514248Y-129940913D01*
X126573896Y-129936705D01*
X126623720Y-129930457D01*
X126657190Y-129918019D01*
X126678443Y-129894476D01*
X126691617Y-129854911D01*
X126700849Y-129794410D01*
X126710277Y-129708058D01*
X126711139Y-129700391D01*
X126722360Y-129621572D01*
X126739153Y-129525514D01*
X126759395Y-129423659D01*
X126780959Y-129327447D01*
X126802109Y-129235952D01*
X126826971Y-129113095D01*
X126845192Y-128996868D01*
X126856979Y-128881951D01*
X126862537Y-128763018D01*
X126862069Y-128634746D01*
X126855780Y-128491814D01*
X126843874Y-128328896D01*
X126826556Y-128140672D01*
X126823652Y-128109761D01*
X126814470Y-127988414D01*
X126807651Y-127858941D01*
X126803243Y-127726925D01*
X126801290Y-127597948D01*
X126801839Y-127477594D01*
X126804937Y-127371446D01*
X126810630Y-127285086D01*
X126818964Y-127224097D01*
X126821039Y-127214406D01*
X126857807Y-127097718D01*
X126914788Y-126998892D01*
X126996925Y-126909180D01*
X127051672Y-126863787D01*
X127147759Y-126807370D01*
X127253014Y-126775747D01*
X127375168Y-126765994D01*
X127431060Y-126767580D01*
X127544305Y-126781844D01*
X127653390Y-126812770D01*
X127763746Y-126862596D01*
X127880806Y-126933565D01*
X128010004Y-127027918D01*
X128069947Y-127074352D01*
X128176503Y-127155053D01*
X128265113Y-127219111D01*
X128339459Y-127269053D01*
X128403219Y-127307402D01*
X128460076Y-127336684D01*
X128551374Y-127379448D01*
X129219386Y-127384225D01*
X129272224Y-127384580D01*
X129455834Y-127385354D01*
X129611876Y-127385064D01*
X129743120Y-127383543D01*
X129852333Y-127380620D01*
X129942285Y-127376125D01*
X130015744Y-127369890D01*
X130075479Y-127361744D01*
X130124256Y-127351518D01*
X130164846Y-127339043D01*
X130200018Y-127324148D01*
X130212294Y-127317258D01*
X130254634Y-127287607D01*
X130310891Y-127243049D01*
X130375197Y-127188340D01*
X130441683Y-127128238D01*
X130455974Y-127114938D01*
X130579459Y-127003375D01*
X130687281Y-126913236D01*
X130783135Y-126842203D01*
X130870715Y-126787965D01*
X130953715Y-126748207D01*
X131035830Y-126720615D01*
X131120753Y-126702875D01*
X131248925Y-126693630D01*
X131381042Y-126710083D01*
X131499902Y-126754477D01*
X131604660Y-126826358D01*
X131694469Y-126925272D01*
X131768483Y-127050764D01*
X131776843Y-127068533D01*
X131799305Y-127119098D01*
X131818032Y-127167931D01*
X131833365Y-127218315D01*
X131845646Y-127273529D01*
X131855217Y-127336852D01*
X131862424Y-127411564D01*
X131867603Y-127500946D01*
X131871101Y-127608276D01*
X131873259Y-127736836D01*
X131874418Y-127889905D01*
X131874922Y-128070763D01*
X131875900Y-128731008D01*
X131918114Y-128878591D01*
X131936940Y-128941049D01*
X131966127Y-129031520D01*
X131998795Y-129127871D01*
X132030777Y-129217558D01*
X132047329Y-129262935D01*
X132098295Y-129410089D01*
X132136932Y-129536222D01*
X132164597Y-129646564D01*
X132182644Y-129746344D01*
X132192432Y-129840791D01*
X132202139Y-129989357D01*
X132738265Y-129997791D01*
X132839992Y-129999601D01*
X132959249Y-130002289D01*
X133065996Y-130005317D01*
X133156521Y-130008552D01*
X133227112Y-130011855D01*
X133274058Y-130015092D01*
X133293647Y-130018127D01*
X133309784Y-130033403D01*
X133306601Y-130053770D01*
X133282148Y-130087143D01*
X133280863Y-130088660D01*
X133269398Y-130099741D01*
X133253684Y-130109303D01*
X133230752Y-130117772D01*
X133197631Y-130125576D01*
X133151348Y-130133138D01*
X133088937Y-130140885D01*
X133007424Y-130149243D01*
X132903838Y-130158637D01*
X132775210Y-130169493D01*
X132618569Y-130182237D01*
X132583072Y-130185113D01*
X132473967Y-130194314D01*
X132390482Y-130202239D01*
X132328409Y-130209541D01*
X132283542Y-130216870D01*
X132251672Y-130224881D01*
X132228592Y-130234224D01*
X132210096Y-130245553D01*
X132201138Y-130252010D01*
X132179210Y-130271121D01*
X132168114Y-130293061D01*
X132164874Y-130327227D01*
X132165039Y-130332860D01*
X132166510Y-130383010D01*
G37*
%TO.C,G\u002A\u002A\u002A3*%
G36*
X128384313Y-109704043D02*
G01*
X128399381Y-109714741D01*
X128436563Y-109760295D01*
X128453003Y-109823075D01*
X128449990Y-109907073D01*
X128445447Y-109933221D01*
X128410731Y-110021318D01*
X128349280Y-110097124D01*
X128263708Y-110157131D01*
X128238803Y-110169924D01*
X128199056Y-110186979D01*
X128161013Y-110195658D01*
X128113784Y-110197888D01*
X128046482Y-110195597D01*
X127952828Y-110185598D01*
X127841508Y-110154678D01*
X127753236Y-110104647D01*
X127688887Y-110036245D01*
X127649334Y-109950211D01*
X127635450Y-109847287D01*
X127639404Y-109783539D01*
X127657515Y-109728037D01*
X127691709Y-109696438D01*
X127743545Y-109686421D01*
X127766940Y-109688292D01*
X127807988Y-109707311D01*
X127835394Y-109749579D01*
X127851924Y-109818470D01*
X127856225Y-109844642D01*
X127866609Y-109891746D01*
X127876800Y-109921698D01*
X127886162Y-109933945D01*
X127927273Y-109958871D01*
X127988826Y-109975524D01*
X128063604Y-109981589D01*
X128098642Y-109980402D01*
X128170198Y-109965819D01*
X128221629Y-109931822D01*
X128256960Y-109874880D01*
X128280212Y-109791461D01*
X128284572Y-109769744D01*
X128300113Y-109715418D01*
X128319571Y-109688329D01*
X128346465Y-109685522D01*
X128384313Y-109704043D01*
G37*
G36*
X130299561Y-109701971D02*
G01*
X130345928Y-109716749D01*
X130379413Y-109753578D01*
X130392292Y-109804094D01*
X130398526Y-109834825D01*
X130425615Y-109884679D01*
X130467373Y-109932487D01*
X130516331Y-109968359D01*
X130542369Y-109979911D01*
X130617471Y-109995459D01*
X130694544Y-109990988D01*
X130760644Y-109966594D01*
X130789858Y-109943956D01*
X130815092Y-109906672D01*
X130835990Y-109848584D01*
X130848548Y-109811346D01*
X130870320Y-109762604D01*
X130890971Y-109731472D01*
X130895657Y-109727109D01*
X130942400Y-109705160D01*
X130997249Y-109707563D01*
X131050441Y-109734155D01*
X131073517Y-109756330D01*
X131087764Y-109788376D01*
X131091374Y-109837995D01*
X131082607Y-109906221D01*
X131047449Y-109995177D01*
X130989433Y-110079267D01*
X130912892Y-110152516D01*
X130822164Y-110208951D01*
X130786171Y-110224895D01*
X130741744Y-110238198D01*
X130692444Y-110242960D01*
X130625319Y-110241311D01*
X130622549Y-110241164D01*
X130521258Y-110228535D01*
X130446665Y-110202971D01*
X130428842Y-110193034D01*
X130347356Y-110130089D01*
X130277539Y-110048366D01*
X130225611Y-109956373D01*
X130197792Y-109862617D01*
X130198366Y-109806509D01*
X130217730Y-109753206D01*
X130252422Y-109715964D01*
X130297971Y-109701956D01*
X130299561Y-109701971D01*
G37*
G36*
X132166510Y-110383010D02*
G01*
X132166584Y-110384675D01*
X132170206Y-110440252D01*
X132176955Y-110473378D01*
X132189971Y-110492467D01*
X132212398Y-110505934D01*
X132214491Y-110506850D01*
X132244259Y-110516746D01*
X132299255Y-110532769D01*
X132375214Y-110553761D01*
X132467872Y-110578558D01*
X132572962Y-110606000D01*
X132686220Y-110634927D01*
X132766092Y-110655182D01*
X132913570Y-110692899D01*
X133069507Y-110733112D01*
X133224253Y-110773320D01*
X133368153Y-110811019D01*
X133491558Y-110843708D01*
X133564360Y-110863130D01*
X133667295Y-110890544D01*
X133760328Y-110915267D01*
X133838429Y-110935965D01*
X133896572Y-110951305D01*
X133929727Y-110959952D01*
X133944198Y-110964054D01*
X133988969Y-110981525D01*
X134018394Y-111000003D01*
X134018973Y-111000588D01*
X134034144Y-111031654D01*
X134023793Y-111057960D01*
X133991926Y-111069051D01*
X133990991Y-111069017D01*
X133965356Y-111064591D01*
X133914248Y-111053419D01*
X133841872Y-111036500D01*
X133752433Y-111014837D01*
X133650136Y-110989430D01*
X133539185Y-110961281D01*
X133479008Y-110945953D01*
X133330188Y-110908661D01*
X133168673Y-110868880D01*
X133005145Y-110829211D01*
X132850292Y-110792256D01*
X132714799Y-110760616D01*
X132654337Y-110746706D01*
X132512625Y-110714152D01*
X132397437Y-110688005D01*
X132306024Y-110667927D01*
X132235638Y-110653584D01*
X132183531Y-110644638D01*
X132146955Y-110640752D01*
X132123160Y-110641593D01*
X132109399Y-110646821D01*
X132102923Y-110656102D01*
X132100983Y-110669098D01*
X132100832Y-110685472D01*
X132100796Y-110686755D01*
X132094949Y-110719426D01*
X132081097Y-110770059D01*
X132062062Y-110828256D01*
X132042694Y-110890785D01*
X132028855Y-110950236D01*
X132023552Y-110993709D01*
X132024818Y-111025288D01*
X132033784Y-111044984D01*
X132058008Y-111057278D01*
X132105044Y-111069162D01*
X132118886Y-111072435D01*
X132173168Y-111085931D01*
X132249675Y-111105511D01*
X132342811Y-111129693D01*
X132446979Y-111156997D01*
X132556584Y-111185942D01*
X132666029Y-111215046D01*
X132769718Y-111242828D01*
X132862053Y-111267809D01*
X132937442Y-111288506D01*
X132990285Y-111303439D01*
X133025619Y-111314749D01*
X133099256Y-111349080D01*
X133143063Y-111389712D01*
X133157552Y-111437057D01*
X133153030Y-111465627D01*
X133136117Y-111470309D01*
X133102358Y-111451226D01*
X133101276Y-111450484D01*
X133067737Y-111433833D01*
X133009352Y-111412485D01*
X132925007Y-111386109D01*
X132813588Y-111354377D01*
X132673981Y-111316954D01*
X132505074Y-111273509D01*
X132410473Y-111249654D01*
X132268833Y-111214426D01*
X132155203Y-111186909D01*
X132068330Y-111166817D01*
X132006967Y-111153864D01*
X131969862Y-111147767D01*
X131955763Y-111148239D01*
X131954732Y-111149615D01*
X131940940Y-111169532D01*
X131915463Y-111207052D01*
X131882859Y-111255473D01*
X131809599Y-111352403D01*
X131679516Y-111486786D01*
X131519797Y-111616398D01*
X131331142Y-111740689D01*
X131114253Y-111859107D01*
X130998159Y-111915204D01*
X130653559Y-112060157D01*
X130302672Y-112176382D01*
X129948046Y-112263109D01*
X129592230Y-112319566D01*
X129576588Y-112321311D01*
X129444427Y-112332236D01*
X129298337Y-112338652D01*
X129147253Y-112340561D01*
X129000108Y-112337968D01*
X128865839Y-112330874D01*
X128753378Y-112319284D01*
X128637250Y-112300649D01*
X128399336Y-112247730D01*
X128171149Y-112177321D01*
X127956698Y-112091136D01*
X127759989Y-111990892D01*
X127585030Y-111878304D01*
X127435828Y-111755090D01*
X127407748Y-111727637D01*
X127348375Y-111659045D01*
X127310964Y-111592672D01*
X127291407Y-111519662D01*
X127285599Y-111431160D01*
X127283569Y-111375877D01*
X127277201Y-111329781D01*
X127267407Y-111308415D01*
X127233111Y-111297954D01*
X127182939Y-111296212D01*
X127134971Y-111304708D01*
X127116835Y-111307451D01*
X127082537Y-111297213D01*
X127035558Y-111266291D01*
X127011150Y-111247852D01*
X126973040Y-111219165D01*
X126949114Y-111201292D01*
X126941033Y-111198218D01*
X126908467Y-111198230D01*
X126852861Y-111206855D01*
X126772613Y-111224425D01*
X126666127Y-111251271D01*
X126531802Y-111287724D01*
X126490025Y-111299277D01*
X126384534Y-111327988D01*
X126275562Y-111357077D01*
X126167293Y-111385484D01*
X126063911Y-111412144D01*
X125969600Y-111435998D01*
X125888543Y-111455979D01*
X125824924Y-111471027D01*
X125782927Y-111480078D01*
X125766737Y-111482069D01*
X125766006Y-111480095D01*
X125778478Y-111465447D01*
X125810237Y-111443248D01*
X125854082Y-111417762D01*
X125902814Y-111393253D01*
X125949233Y-111373985D01*
X125977176Y-111364715D01*
X126032965Y-111347121D01*
X126109502Y-111323502D01*
X126201957Y-111295339D01*
X126305497Y-111264110D01*
X126415289Y-111231295D01*
X126481015Y-111211643D01*
X126614210Y-111170782D01*
X126721338Y-111135704D01*
X126805175Y-111104883D01*
X126868498Y-111076793D01*
X126914080Y-111049907D01*
X126944703Y-111022700D01*
X126963137Y-110993646D01*
X126972163Y-110961218D01*
X126974555Y-110923892D01*
X126974218Y-110910195D01*
X126969104Y-110884951D01*
X126953569Y-110862549D01*
X126922227Y-110836678D01*
X126869692Y-110801027D01*
X126836756Y-110779353D01*
X126779799Y-110742805D01*
X126736942Y-110719691D01*
X126699743Y-110707971D01*
X126659761Y-110705605D01*
X126608558Y-110710557D01*
X126537692Y-110720779D01*
X126499956Y-110726764D01*
X126415461Y-110741938D01*
X126310966Y-110762220D01*
X126192898Y-110786245D01*
X126067686Y-110812649D01*
X125941757Y-110840067D01*
X125821540Y-110867135D01*
X125713462Y-110892487D01*
X125623954Y-110914760D01*
X125615541Y-110916926D01*
X125556753Y-110931035D01*
X125508403Y-110940996D01*
X125480253Y-110944769D01*
X125461038Y-110940561D01*
X125452937Y-110923189D01*
X125466160Y-110898888D01*
X125498809Y-110874812D01*
X125509029Y-110870134D01*
X125558433Y-110853069D01*
X125635176Y-110831338D01*
X125736839Y-110805518D01*
X125861002Y-110776189D01*
X126005245Y-110743927D01*
X126167148Y-110709311D01*
X126344291Y-110672917D01*
X126458069Y-110649687D01*
X126561364Y-110627712D01*
X126639455Y-110609772D01*
X126695205Y-110595103D01*
X126731480Y-110582946D01*
X126751144Y-110572536D01*
X126757062Y-110563112D01*
X126756654Y-110560696D01*
X126748688Y-110537154D01*
X126733758Y-110499621D01*
X126721267Y-110458142D01*
X126713025Y-110403555D01*
X126711096Y-110349738D01*
X126715771Y-110306510D01*
X126724341Y-110289608D01*
X126819203Y-110289608D01*
X126826875Y-110305836D01*
X126848556Y-110342597D01*
X126880863Y-110394220D01*
X126920406Y-110455160D01*
X126943640Y-110490649D01*
X126990568Y-110565952D01*
X127021648Y-110625323D01*
X127038654Y-110675335D01*
X127043363Y-110722558D01*
X127037548Y-110773566D01*
X127022984Y-110834929D01*
X127019392Y-110848479D01*
X127005808Y-110904542D01*
X127000827Y-110941551D01*
X127003988Y-110968445D01*
X127014835Y-110994165D01*
X127016222Y-110996769D01*
X127048811Y-111030677D01*
X127092047Y-111036263D01*
X127142989Y-111013093D01*
X127168740Y-110997460D01*
X127183106Y-110993674D01*
X127187596Y-111001388D01*
X127203970Y-111031923D01*
X127229085Y-111079823D01*
X127259710Y-111138959D01*
X127363520Y-111315012D01*
X127483645Y-111468496D01*
X127624262Y-111603520D01*
X127790151Y-111725370D01*
X127960573Y-111822102D01*
X128153736Y-111906937D01*
X128361644Y-111976991D01*
X128576915Y-112029777D01*
X128792169Y-112062811D01*
X128865291Y-112068645D01*
X128973232Y-112073431D01*
X129094704Y-112075806D01*
X129220805Y-112075785D01*
X129342633Y-112073385D01*
X129451285Y-112068620D01*
X129537857Y-112061507D01*
X129576445Y-112056908D01*
X129834627Y-112016319D01*
X130089848Y-111959747D01*
X130338633Y-111888647D01*
X130577505Y-111804478D01*
X130802989Y-111708695D01*
X131011608Y-111602755D01*
X131199888Y-111488115D01*
X131364352Y-111366231D01*
X131501525Y-111238560D01*
X131511735Y-111227555D01*
X131572154Y-111156341D01*
X131623904Y-111085459D01*
X131659579Y-111024916D01*
X131672157Y-110999875D01*
X131704026Y-110949925D01*
X131737080Y-110925459D01*
X131778108Y-110923161D01*
X131833899Y-110939712D01*
X131836350Y-110940637D01*
X131883124Y-110954457D01*
X131911097Y-110949529D01*
X131925836Y-110921769D01*
X131932911Y-110867095D01*
X131933805Y-110853883D01*
X131933617Y-110816486D01*
X131924701Y-110798887D01*
X131903617Y-110792290D01*
X131868777Y-110775789D01*
X131831721Y-110741784D01*
X131802387Y-110701208D01*
X131790456Y-110664956D01*
X131794595Y-110630820D01*
X131822664Y-110566155D01*
X131878456Y-110493466D01*
X131900531Y-110467943D01*
X131924704Y-110431169D01*
X131936994Y-110390702D01*
X131942888Y-110332860D01*
X131941986Y-110251135D01*
X131924104Y-110177206D01*
X131905177Y-110120988D01*
X131901690Y-110065163D01*
X131920622Y-110020374D01*
X131924667Y-110013957D01*
X131935563Y-109974613D01*
X131935745Y-109915129D01*
X131924927Y-109834115D01*
X131902826Y-109730182D01*
X131869152Y-109601940D01*
X131823624Y-109447998D01*
X131765955Y-109266971D01*
X131754554Y-109232169D01*
X131711209Y-109099821D01*
X131676060Y-108990532D01*
X131648208Y-108898967D01*
X131626756Y-108819787D01*
X131610806Y-108747654D01*
X131599459Y-108677234D01*
X131591817Y-108603186D01*
X131586983Y-108520173D01*
X131584058Y-108422859D01*
X131582141Y-108305905D01*
X131580338Y-108163974D01*
X131579995Y-108138122D01*
X131577471Y-107967308D01*
X131574746Y-107823428D01*
X131571636Y-107702848D01*
X131567955Y-107601932D01*
X131563520Y-107517047D01*
X131558142Y-107444556D01*
X131551637Y-107380826D01*
X131543823Y-107322221D01*
X131534508Y-107265106D01*
X131524413Y-107210544D01*
X131510772Y-107152306D01*
X131495343Y-107111453D01*
X131474848Y-107080026D01*
X131446014Y-107050067D01*
X131443246Y-107047515D01*
X131374981Y-107002368D01*
X131288524Y-106976207D01*
X131179798Y-106967766D01*
X131137336Y-106968824D01*
X131074556Y-106976099D01*
X131015789Y-106992383D01*
X130957010Y-107020117D01*
X130894191Y-107061742D01*
X130823310Y-107119700D01*
X130740338Y-107196433D01*
X130641251Y-107294382D01*
X130568067Y-107367335D01*
X130487492Y-107444037D01*
X130419388Y-107502538D01*
X130359108Y-107545656D01*
X130302002Y-107576212D01*
X130243423Y-107597023D01*
X130178723Y-107610910D01*
X130103254Y-107620691D01*
X130076827Y-107622925D01*
X130005754Y-107626598D01*
X129910814Y-107629574D01*
X129796714Y-107631852D01*
X129668155Y-107633433D01*
X129529840Y-107634314D01*
X129386469Y-107634496D01*
X129242746Y-107633978D01*
X129103371Y-107632759D01*
X128973051Y-107630839D01*
X128856485Y-107628218D01*
X128758374Y-107624895D01*
X128683424Y-107620867D01*
X128577893Y-107611456D01*
X128476697Y-107596297D01*
X128386941Y-107573691D01*
X128303212Y-107541071D01*
X128220092Y-107495870D01*
X128132166Y-107435520D01*
X128034017Y-107357455D01*
X127920230Y-107259107D01*
X127918406Y-107257490D01*
X127824791Y-107176320D01*
X127747781Y-107114534D01*
X127682263Y-107069435D01*
X127623124Y-107038326D01*
X127565249Y-107018507D01*
X127503527Y-107007281D01*
X127432842Y-107001951D01*
X127383038Y-107000162D01*
X127328912Y-107000606D01*
X127288490Y-107006284D01*
X127251478Y-107018954D01*
X127207582Y-107040370D01*
X127204678Y-107041885D01*
X127150271Y-107074936D01*
X127113668Y-107111259D01*
X127083301Y-107162194D01*
X127072098Y-107185316D01*
X127060970Y-107213248D01*
X127053380Y-107243594D01*
X127048700Y-107282084D01*
X127046301Y-107334448D01*
X127045556Y-107406421D01*
X127045834Y-107503730D01*
X127045918Y-107515673D01*
X127051273Y-107692232D01*
X127063883Y-107884334D01*
X127082882Y-108078531D01*
X127089197Y-108136272D01*
X127105250Y-108316401D01*
X127115921Y-108493247D01*
X127120331Y-108653332D01*
X127120729Y-108726047D01*
X127120359Y-108800306D01*
X127118190Y-108861764D01*
X127113338Y-108917595D01*
X127104916Y-108974972D01*
X127092039Y-109041072D01*
X127073822Y-109123067D01*
X127049378Y-109228133D01*
X127027289Y-109323789D01*
X127000695Y-109441792D01*
X126975098Y-109558083D01*
X126952587Y-109663162D01*
X126935248Y-109747531D01*
X126919063Y-109830595D01*
X126908519Y-109890978D01*
X126903590Y-109932905D01*
X126903894Y-109962408D01*
X126909047Y-109985520D01*
X126918665Y-110008272D01*
X126923139Y-110018377D01*
X126939962Y-110082384D01*
X126941623Y-110147483D01*
X126927489Y-110199942D01*
X126902670Y-110228030D01*
X126865348Y-110253694D01*
X126861736Y-110255597D01*
X126831579Y-110275015D01*
X126819203Y-110289608D01*
X126724341Y-110289608D01*
X126727342Y-110283690D01*
X126730524Y-110279742D01*
X126723563Y-110257356D01*
X126694037Y-110221471D01*
X126686280Y-110213544D01*
X126668944Y-110197518D01*
X126649949Y-110184734D01*
X126625622Y-110174606D01*
X126592291Y-110166553D01*
X126546284Y-110159991D01*
X126483929Y-110154338D01*
X126401553Y-110149009D01*
X126295483Y-110143422D01*
X126162048Y-110136993D01*
X126137225Y-110135771D01*
X126040259Y-110130155D01*
X125953774Y-110123856D01*
X125882912Y-110117332D01*
X125832814Y-110111042D01*
X125808623Y-110105445D01*
X125790812Y-110090444D01*
X125778347Y-110060850D01*
X125781107Y-110048675D01*
X125796689Y-110035998D01*
X125831329Y-110025551D01*
X125890977Y-110014907D01*
X125978711Y-110001790D01*
X126122318Y-109982280D01*
X126266317Y-109964815D01*
X126400397Y-109950618D01*
X126514248Y-109940913D01*
X126573896Y-109936705D01*
X126623720Y-109930457D01*
X126657190Y-109918019D01*
X126678443Y-109894476D01*
X126691617Y-109854911D01*
X126700849Y-109794410D01*
X126710277Y-109708058D01*
X126711139Y-109700391D01*
X126722360Y-109621572D01*
X126739153Y-109525514D01*
X126759395Y-109423659D01*
X126780959Y-109327447D01*
X126802109Y-109235952D01*
X126826971Y-109113095D01*
X126845192Y-108996868D01*
X126856979Y-108881951D01*
X126862537Y-108763018D01*
X126862069Y-108634746D01*
X126855780Y-108491814D01*
X126843874Y-108328896D01*
X126826556Y-108140672D01*
X126823652Y-108109761D01*
X126814470Y-107988414D01*
X126807651Y-107858941D01*
X126803243Y-107726925D01*
X126801290Y-107597948D01*
X126801839Y-107477594D01*
X126804937Y-107371446D01*
X126810630Y-107285086D01*
X126818964Y-107224097D01*
X126821039Y-107214406D01*
X126857807Y-107097718D01*
X126914788Y-106998892D01*
X126996925Y-106909180D01*
X127051672Y-106863787D01*
X127147759Y-106807370D01*
X127253014Y-106775747D01*
X127375168Y-106765994D01*
X127431060Y-106767580D01*
X127544305Y-106781844D01*
X127653390Y-106812770D01*
X127763746Y-106862596D01*
X127880806Y-106933565D01*
X128010004Y-107027918D01*
X128069947Y-107074352D01*
X128176503Y-107155053D01*
X128265113Y-107219111D01*
X128339459Y-107269053D01*
X128403219Y-107307402D01*
X128460076Y-107336684D01*
X128551374Y-107379448D01*
X129219386Y-107384225D01*
X129272224Y-107384580D01*
X129455834Y-107385354D01*
X129611876Y-107385064D01*
X129743120Y-107383543D01*
X129852333Y-107380620D01*
X129942285Y-107376125D01*
X130015744Y-107369890D01*
X130075479Y-107361744D01*
X130124256Y-107351518D01*
X130164846Y-107339043D01*
X130200018Y-107324148D01*
X130212294Y-107317258D01*
X130254634Y-107287607D01*
X130310891Y-107243049D01*
X130375197Y-107188340D01*
X130441683Y-107128238D01*
X130455974Y-107114938D01*
X130579459Y-107003375D01*
X130687281Y-106913236D01*
X130783135Y-106842203D01*
X130870715Y-106787965D01*
X130953715Y-106748207D01*
X131035830Y-106720615D01*
X131120753Y-106702875D01*
X131248925Y-106693630D01*
X131381042Y-106710083D01*
X131499902Y-106754477D01*
X131604660Y-106826358D01*
X131694469Y-106925272D01*
X131768483Y-107050764D01*
X131776843Y-107068533D01*
X131799305Y-107119098D01*
X131818032Y-107167931D01*
X131833365Y-107218315D01*
X131845646Y-107273529D01*
X131855217Y-107336852D01*
X131862424Y-107411564D01*
X131867603Y-107500946D01*
X131871101Y-107608276D01*
X131873259Y-107736836D01*
X131874418Y-107889905D01*
X131874922Y-108070763D01*
X131875900Y-108731008D01*
X131918114Y-108878591D01*
X131936940Y-108941049D01*
X131966127Y-109031520D01*
X131998795Y-109127871D01*
X132030777Y-109217558D01*
X132047329Y-109262935D01*
X132098295Y-109410089D01*
X132136932Y-109536222D01*
X132164597Y-109646564D01*
X132182644Y-109746344D01*
X132192432Y-109840791D01*
X132202139Y-109989357D01*
X132738265Y-109997791D01*
X132839992Y-109999601D01*
X132959249Y-110002289D01*
X133065996Y-110005317D01*
X133156521Y-110008552D01*
X133227112Y-110011855D01*
X133274058Y-110015092D01*
X133293647Y-110018127D01*
X133309784Y-110033403D01*
X133306601Y-110053770D01*
X133282148Y-110087143D01*
X133280863Y-110088660D01*
X133269398Y-110099741D01*
X133253684Y-110109303D01*
X133230752Y-110117772D01*
X133197631Y-110125576D01*
X133151348Y-110133138D01*
X133088937Y-110140885D01*
X133007424Y-110149243D01*
X132903838Y-110158637D01*
X132775210Y-110169493D01*
X132618569Y-110182237D01*
X132583072Y-110185113D01*
X132473967Y-110194314D01*
X132390482Y-110202239D01*
X132328409Y-110209541D01*
X132283542Y-110216870D01*
X132251672Y-110224881D01*
X132228592Y-110234224D01*
X132210096Y-110245553D01*
X132201138Y-110252010D01*
X132179210Y-110271121D01*
X132168114Y-110293061D01*
X132164874Y-110327227D01*
X132165039Y-110332860D01*
X132166510Y-110383010D01*
G37*
%TO.C,G\u002A\u002A\u002A2*%
G36*
X128384313Y-89704043D02*
G01*
X128399381Y-89714741D01*
X128436563Y-89760295D01*
X128453003Y-89823075D01*
X128449990Y-89907073D01*
X128445447Y-89933221D01*
X128410731Y-90021318D01*
X128349280Y-90097124D01*
X128263708Y-90157131D01*
X128238803Y-90169924D01*
X128199056Y-90186979D01*
X128161013Y-90195658D01*
X128113784Y-90197888D01*
X128046482Y-90195597D01*
X127952828Y-90185598D01*
X127841508Y-90154678D01*
X127753236Y-90104647D01*
X127688887Y-90036245D01*
X127649334Y-89950211D01*
X127635450Y-89847287D01*
X127639404Y-89783539D01*
X127657515Y-89728037D01*
X127691709Y-89696438D01*
X127743545Y-89686421D01*
X127766940Y-89688292D01*
X127807988Y-89707311D01*
X127835394Y-89749579D01*
X127851924Y-89818470D01*
X127856225Y-89844642D01*
X127866609Y-89891746D01*
X127876800Y-89921698D01*
X127886162Y-89933945D01*
X127927273Y-89958871D01*
X127988826Y-89975524D01*
X128063604Y-89981589D01*
X128098642Y-89980402D01*
X128170198Y-89965819D01*
X128221629Y-89931822D01*
X128256960Y-89874880D01*
X128280212Y-89791461D01*
X128284572Y-89769744D01*
X128300113Y-89715418D01*
X128319571Y-89688329D01*
X128346465Y-89685522D01*
X128384313Y-89704043D01*
G37*
G36*
X130299561Y-89701971D02*
G01*
X130345928Y-89716749D01*
X130379413Y-89753578D01*
X130392292Y-89804094D01*
X130398526Y-89834825D01*
X130425615Y-89884679D01*
X130467373Y-89932487D01*
X130516331Y-89968359D01*
X130542369Y-89979911D01*
X130617471Y-89995459D01*
X130694544Y-89990988D01*
X130760644Y-89966594D01*
X130789858Y-89943956D01*
X130815092Y-89906672D01*
X130835990Y-89848584D01*
X130848548Y-89811346D01*
X130870320Y-89762604D01*
X130890971Y-89731472D01*
X130895657Y-89727109D01*
X130942400Y-89705160D01*
X130997249Y-89707563D01*
X131050441Y-89734155D01*
X131073517Y-89756330D01*
X131087764Y-89788376D01*
X131091374Y-89837995D01*
X131082607Y-89906221D01*
X131047449Y-89995177D01*
X130989433Y-90079267D01*
X130912892Y-90152516D01*
X130822164Y-90208951D01*
X130786171Y-90224895D01*
X130741744Y-90238198D01*
X130692444Y-90242960D01*
X130625319Y-90241311D01*
X130622549Y-90241164D01*
X130521258Y-90228535D01*
X130446665Y-90202971D01*
X130428842Y-90193034D01*
X130347356Y-90130089D01*
X130277539Y-90048366D01*
X130225611Y-89956373D01*
X130197792Y-89862617D01*
X130198366Y-89806509D01*
X130217730Y-89753206D01*
X130252422Y-89715964D01*
X130297971Y-89701956D01*
X130299561Y-89701971D01*
G37*
G36*
X132166510Y-90383010D02*
G01*
X132166584Y-90384675D01*
X132170206Y-90440252D01*
X132176955Y-90473378D01*
X132189971Y-90492467D01*
X132212398Y-90505934D01*
X132214491Y-90506850D01*
X132244259Y-90516746D01*
X132299255Y-90532769D01*
X132375214Y-90553761D01*
X132467872Y-90578558D01*
X132572962Y-90606000D01*
X132686220Y-90634927D01*
X132766092Y-90655182D01*
X132913570Y-90692899D01*
X133069507Y-90733112D01*
X133224253Y-90773320D01*
X133368153Y-90811019D01*
X133491558Y-90843708D01*
X133564360Y-90863130D01*
X133667295Y-90890544D01*
X133760328Y-90915267D01*
X133838429Y-90935965D01*
X133896572Y-90951305D01*
X133929727Y-90959952D01*
X133944198Y-90964054D01*
X133988969Y-90981525D01*
X134018394Y-91000003D01*
X134018973Y-91000588D01*
X134034144Y-91031654D01*
X134023793Y-91057960D01*
X133991926Y-91069051D01*
X133990991Y-91069017D01*
X133965356Y-91064591D01*
X133914248Y-91053419D01*
X133841872Y-91036500D01*
X133752433Y-91014837D01*
X133650136Y-90989430D01*
X133539185Y-90961281D01*
X133479008Y-90945953D01*
X133330188Y-90908661D01*
X133168673Y-90868880D01*
X133005145Y-90829211D01*
X132850292Y-90792256D01*
X132714799Y-90760616D01*
X132654337Y-90746706D01*
X132512625Y-90714152D01*
X132397437Y-90688005D01*
X132306024Y-90667927D01*
X132235638Y-90653584D01*
X132183531Y-90644638D01*
X132146955Y-90640752D01*
X132123160Y-90641593D01*
X132109399Y-90646821D01*
X132102923Y-90656102D01*
X132100983Y-90669098D01*
X132100832Y-90685472D01*
X132100796Y-90686755D01*
X132094949Y-90719426D01*
X132081097Y-90770059D01*
X132062062Y-90828256D01*
X132042694Y-90890785D01*
X132028855Y-90950236D01*
X132023552Y-90993709D01*
X132024818Y-91025288D01*
X132033784Y-91044984D01*
X132058008Y-91057278D01*
X132105044Y-91069162D01*
X132118886Y-91072435D01*
X132173168Y-91085931D01*
X132249675Y-91105511D01*
X132342811Y-91129693D01*
X132446979Y-91156997D01*
X132556584Y-91185942D01*
X132666029Y-91215046D01*
X132769718Y-91242828D01*
X132862053Y-91267809D01*
X132937442Y-91288506D01*
X132990285Y-91303439D01*
X133025619Y-91314749D01*
X133099256Y-91349080D01*
X133143063Y-91389712D01*
X133157552Y-91437057D01*
X133153030Y-91465627D01*
X133136117Y-91470309D01*
X133102358Y-91451226D01*
X133101276Y-91450484D01*
X133067737Y-91433833D01*
X133009352Y-91412485D01*
X132925007Y-91386109D01*
X132813588Y-91354377D01*
X132673981Y-91316954D01*
X132505074Y-91273509D01*
X132410473Y-91249654D01*
X132268833Y-91214426D01*
X132155203Y-91186909D01*
X132068330Y-91166817D01*
X132006967Y-91153864D01*
X131969862Y-91147767D01*
X131955763Y-91148239D01*
X131954732Y-91149615D01*
X131940940Y-91169532D01*
X131915463Y-91207052D01*
X131882859Y-91255473D01*
X131809599Y-91352403D01*
X131679516Y-91486786D01*
X131519797Y-91616398D01*
X131331142Y-91740689D01*
X131114253Y-91859107D01*
X130998159Y-91915204D01*
X130653559Y-92060157D01*
X130302672Y-92176382D01*
X129948046Y-92263109D01*
X129592230Y-92319566D01*
X129576588Y-92321311D01*
X129444427Y-92332236D01*
X129298337Y-92338652D01*
X129147253Y-92340561D01*
X129000108Y-92337968D01*
X128865839Y-92330874D01*
X128753378Y-92319284D01*
X128637250Y-92300649D01*
X128399336Y-92247730D01*
X128171149Y-92177321D01*
X127956698Y-92091136D01*
X127759989Y-91990892D01*
X127585030Y-91878304D01*
X127435828Y-91755090D01*
X127407748Y-91727637D01*
X127348375Y-91659045D01*
X127310964Y-91592672D01*
X127291407Y-91519662D01*
X127285599Y-91431160D01*
X127283569Y-91375877D01*
X127277201Y-91329781D01*
X127267407Y-91308415D01*
X127233111Y-91297954D01*
X127182939Y-91296212D01*
X127134971Y-91304708D01*
X127116835Y-91307451D01*
X127082537Y-91297213D01*
X127035558Y-91266291D01*
X127011150Y-91247852D01*
X126973040Y-91219165D01*
X126949114Y-91201292D01*
X126941033Y-91198218D01*
X126908467Y-91198230D01*
X126852861Y-91206855D01*
X126772613Y-91224425D01*
X126666127Y-91251271D01*
X126531802Y-91287724D01*
X126490025Y-91299277D01*
X126384534Y-91327988D01*
X126275562Y-91357077D01*
X126167293Y-91385484D01*
X126063911Y-91412144D01*
X125969600Y-91435998D01*
X125888543Y-91455979D01*
X125824924Y-91471027D01*
X125782927Y-91480078D01*
X125766737Y-91482069D01*
X125766006Y-91480095D01*
X125778478Y-91465447D01*
X125810237Y-91443248D01*
X125854082Y-91417762D01*
X125902814Y-91393253D01*
X125949233Y-91373985D01*
X125977176Y-91364715D01*
X126032965Y-91347121D01*
X126109502Y-91323502D01*
X126201957Y-91295339D01*
X126305497Y-91264110D01*
X126415289Y-91231295D01*
X126481015Y-91211643D01*
X126614210Y-91170782D01*
X126721338Y-91135704D01*
X126805175Y-91104883D01*
X126868498Y-91076793D01*
X126914080Y-91049907D01*
X126944703Y-91022700D01*
X126963137Y-90993646D01*
X126972163Y-90961218D01*
X126974555Y-90923892D01*
X126974218Y-90910195D01*
X126969104Y-90884951D01*
X126953569Y-90862549D01*
X126922227Y-90836678D01*
X126869692Y-90801027D01*
X126836756Y-90779353D01*
X126779799Y-90742805D01*
X126736942Y-90719691D01*
X126699743Y-90707971D01*
X126659761Y-90705605D01*
X126608558Y-90710557D01*
X126537692Y-90720779D01*
X126499956Y-90726764D01*
X126415461Y-90741938D01*
X126310966Y-90762220D01*
X126192898Y-90786245D01*
X126067686Y-90812649D01*
X125941757Y-90840067D01*
X125821540Y-90867135D01*
X125713462Y-90892487D01*
X125623954Y-90914760D01*
X125615541Y-90916926D01*
X125556753Y-90931035D01*
X125508403Y-90940996D01*
X125480253Y-90944769D01*
X125461038Y-90940561D01*
X125452937Y-90923189D01*
X125466160Y-90898888D01*
X125498809Y-90874812D01*
X125509029Y-90870134D01*
X125558433Y-90853069D01*
X125635176Y-90831338D01*
X125736839Y-90805518D01*
X125861002Y-90776189D01*
X126005245Y-90743927D01*
X126167148Y-90709311D01*
X126344291Y-90672917D01*
X126458069Y-90649687D01*
X126561364Y-90627712D01*
X126639455Y-90609772D01*
X126695205Y-90595103D01*
X126731480Y-90582946D01*
X126751144Y-90572536D01*
X126757062Y-90563112D01*
X126756654Y-90560696D01*
X126748688Y-90537154D01*
X126733758Y-90499621D01*
X126721267Y-90458142D01*
X126713025Y-90403555D01*
X126711096Y-90349738D01*
X126715771Y-90306510D01*
X126724341Y-90289608D01*
X126819203Y-90289608D01*
X126826875Y-90305836D01*
X126848556Y-90342597D01*
X126880863Y-90394220D01*
X126920406Y-90455160D01*
X126943640Y-90490649D01*
X126990568Y-90565952D01*
X127021648Y-90625323D01*
X127038654Y-90675335D01*
X127043363Y-90722558D01*
X127037548Y-90773566D01*
X127022984Y-90834929D01*
X127019392Y-90848479D01*
X127005808Y-90904542D01*
X127000827Y-90941551D01*
X127003988Y-90968445D01*
X127014835Y-90994165D01*
X127016222Y-90996769D01*
X127048811Y-91030677D01*
X127092047Y-91036263D01*
X127142989Y-91013093D01*
X127168740Y-90997460D01*
X127183106Y-90993674D01*
X127187596Y-91001388D01*
X127203970Y-91031923D01*
X127229085Y-91079823D01*
X127259710Y-91138959D01*
X127363520Y-91315012D01*
X127483645Y-91468496D01*
X127624262Y-91603520D01*
X127790151Y-91725370D01*
X127960573Y-91822102D01*
X128153736Y-91906937D01*
X128361644Y-91976991D01*
X128576915Y-92029777D01*
X128792169Y-92062811D01*
X128865291Y-92068645D01*
X128973232Y-92073431D01*
X129094704Y-92075806D01*
X129220805Y-92075785D01*
X129342633Y-92073385D01*
X129451285Y-92068620D01*
X129537857Y-92061507D01*
X129576445Y-92056908D01*
X129834627Y-92016319D01*
X130089848Y-91959747D01*
X130338633Y-91888647D01*
X130577505Y-91804478D01*
X130802989Y-91708695D01*
X131011608Y-91602755D01*
X131199888Y-91488115D01*
X131364352Y-91366231D01*
X131501525Y-91238560D01*
X131511735Y-91227555D01*
X131572154Y-91156341D01*
X131623904Y-91085459D01*
X131659579Y-91024916D01*
X131672157Y-90999875D01*
X131704026Y-90949925D01*
X131737080Y-90925459D01*
X131778108Y-90923161D01*
X131833899Y-90939712D01*
X131836350Y-90940637D01*
X131883124Y-90954457D01*
X131911097Y-90949529D01*
X131925836Y-90921769D01*
X131932911Y-90867095D01*
X131933805Y-90853883D01*
X131933617Y-90816486D01*
X131924701Y-90798887D01*
X131903617Y-90792290D01*
X131868777Y-90775789D01*
X131831721Y-90741784D01*
X131802387Y-90701208D01*
X131790456Y-90664956D01*
X131794595Y-90630820D01*
X131822664Y-90566155D01*
X131878456Y-90493466D01*
X131900531Y-90467943D01*
X131924704Y-90431169D01*
X131936994Y-90390702D01*
X131942888Y-90332860D01*
X131941986Y-90251135D01*
X131924104Y-90177206D01*
X131905177Y-90120988D01*
X131901690Y-90065163D01*
X131920622Y-90020374D01*
X131924667Y-90013957D01*
X131935563Y-89974613D01*
X131935745Y-89915129D01*
X131924927Y-89834115D01*
X131902826Y-89730182D01*
X131869152Y-89601940D01*
X131823624Y-89447998D01*
X131765955Y-89266971D01*
X131754554Y-89232169D01*
X131711209Y-89099821D01*
X131676060Y-88990532D01*
X131648208Y-88898967D01*
X131626756Y-88819787D01*
X131610806Y-88747654D01*
X131599459Y-88677234D01*
X131591817Y-88603186D01*
X131586983Y-88520173D01*
X131584058Y-88422859D01*
X131582141Y-88305905D01*
X131580338Y-88163974D01*
X131579995Y-88138122D01*
X131577471Y-87967308D01*
X131574746Y-87823428D01*
X131571636Y-87702848D01*
X131567955Y-87601932D01*
X131563520Y-87517047D01*
X131558142Y-87444556D01*
X131551637Y-87380826D01*
X131543823Y-87322221D01*
X131534508Y-87265106D01*
X131524413Y-87210544D01*
X131510772Y-87152306D01*
X131495343Y-87111453D01*
X131474848Y-87080026D01*
X131446014Y-87050067D01*
X131443246Y-87047515D01*
X131374981Y-87002368D01*
X131288524Y-86976207D01*
X131179798Y-86967766D01*
X131137336Y-86968824D01*
X131074556Y-86976099D01*
X131015789Y-86992383D01*
X130957010Y-87020117D01*
X130894191Y-87061742D01*
X130823310Y-87119700D01*
X130740338Y-87196433D01*
X130641251Y-87294382D01*
X130568067Y-87367335D01*
X130487492Y-87444037D01*
X130419388Y-87502538D01*
X130359108Y-87545656D01*
X130302002Y-87576212D01*
X130243423Y-87597023D01*
X130178723Y-87610910D01*
X130103254Y-87620691D01*
X130076827Y-87622925D01*
X130005754Y-87626598D01*
X129910814Y-87629574D01*
X129796714Y-87631852D01*
X129668155Y-87633433D01*
X129529840Y-87634314D01*
X129386469Y-87634496D01*
X129242746Y-87633978D01*
X129103371Y-87632759D01*
X128973051Y-87630839D01*
X128856485Y-87628218D01*
X128758374Y-87624895D01*
X128683424Y-87620867D01*
X128577893Y-87611456D01*
X128476697Y-87596297D01*
X128386941Y-87573691D01*
X128303212Y-87541071D01*
X128220092Y-87495870D01*
X128132166Y-87435520D01*
X128034017Y-87357455D01*
X127920230Y-87259107D01*
X127918406Y-87257490D01*
X127824791Y-87176320D01*
X127747781Y-87114534D01*
X127682263Y-87069435D01*
X127623124Y-87038326D01*
X127565249Y-87018507D01*
X127503527Y-87007281D01*
X127432842Y-87001951D01*
X127383038Y-87000162D01*
X127328912Y-87000606D01*
X127288490Y-87006284D01*
X127251478Y-87018954D01*
X127207582Y-87040370D01*
X127204678Y-87041885D01*
X127150271Y-87074936D01*
X127113668Y-87111259D01*
X127083301Y-87162194D01*
X127072098Y-87185316D01*
X127060970Y-87213248D01*
X127053380Y-87243594D01*
X127048700Y-87282084D01*
X127046301Y-87334448D01*
X127045556Y-87406421D01*
X127045834Y-87503730D01*
X127045918Y-87515673D01*
X127051273Y-87692232D01*
X127063883Y-87884334D01*
X127082882Y-88078531D01*
X127089197Y-88136272D01*
X127105250Y-88316401D01*
X127115921Y-88493247D01*
X127120331Y-88653332D01*
X127120729Y-88726047D01*
X127120359Y-88800306D01*
X127118190Y-88861764D01*
X127113338Y-88917595D01*
X127104916Y-88974972D01*
X127092039Y-89041072D01*
X127073822Y-89123067D01*
X127049378Y-89228133D01*
X127027289Y-89323789D01*
X127000695Y-89441792D01*
X126975098Y-89558083D01*
X126952587Y-89663162D01*
X126935248Y-89747531D01*
X126919063Y-89830595D01*
X126908519Y-89890978D01*
X126903590Y-89932905D01*
X126903894Y-89962408D01*
X126909047Y-89985520D01*
X126918665Y-90008272D01*
X126923139Y-90018377D01*
X126939962Y-90082384D01*
X126941623Y-90147483D01*
X126927489Y-90199942D01*
X126902670Y-90228030D01*
X126865348Y-90253694D01*
X126861736Y-90255597D01*
X126831579Y-90275015D01*
X126819203Y-90289608D01*
X126724341Y-90289608D01*
X126727342Y-90283690D01*
X126730524Y-90279742D01*
X126723563Y-90257356D01*
X126694037Y-90221471D01*
X126686280Y-90213544D01*
X126668944Y-90197518D01*
X126649949Y-90184734D01*
X126625622Y-90174606D01*
X126592291Y-90166553D01*
X126546284Y-90159991D01*
X126483929Y-90154338D01*
X126401553Y-90149009D01*
X126295483Y-90143422D01*
X126162048Y-90136993D01*
X126137225Y-90135771D01*
X126040259Y-90130155D01*
X125953774Y-90123856D01*
X125882912Y-90117332D01*
X125832814Y-90111042D01*
X125808623Y-90105445D01*
X125790812Y-90090444D01*
X125778347Y-90060850D01*
X125781107Y-90048675D01*
X125796689Y-90035998D01*
X125831329Y-90025551D01*
X125890977Y-90014907D01*
X125978711Y-90001790D01*
X126122318Y-89982280D01*
X126266317Y-89964815D01*
X126400397Y-89950618D01*
X126514248Y-89940913D01*
X126573896Y-89936705D01*
X126623720Y-89930457D01*
X126657190Y-89918019D01*
X126678443Y-89894476D01*
X126691617Y-89854911D01*
X126700849Y-89794410D01*
X126710277Y-89708058D01*
X126711139Y-89700391D01*
X126722360Y-89621572D01*
X126739153Y-89525514D01*
X126759395Y-89423659D01*
X126780959Y-89327447D01*
X126802109Y-89235952D01*
X126826971Y-89113095D01*
X126845192Y-88996868D01*
X126856979Y-88881951D01*
X126862537Y-88763018D01*
X126862069Y-88634746D01*
X126855780Y-88491814D01*
X126843874Y-88328896D01*
X126826556Y-88140672D01*
X126823652Y-88109761D01*
X126814470Y-87988414D01*
X126807651Y-87858941D01*
X126803243Y-87726925D01*
X126801290Y-87597948D01*
X126801839Y-87477594D01*
X126804937Y-87371446D01*
X126810630Y-87285086D01*
X126818964Y-87224097D01*
X126821039Y-87214406D01*
X126857807Y-87097718D01*
X126914788Y-86998892D01*
X126996925Y-86909180D01*
X127051672Y-86863787D01*
X127147759Y-86807370D01*
X127253014Y-86775747D01*
X127375168Y-86765994D01*
X127431060Y-86767580D01*
X127544305Y-86781844D01*
X127653390Y-86812770D01*
X127763746Y-86862596D01*
X127880806Y-86933565D01*
X128010004Y-87027918D01*
X128069947Y-87074352D01*
X128176503Y-87155053D01*
X128265113Y-87219111D01*
X128339459Y-87269053D01*
X128403219Y-87307402D01*
X128460076Y-87336684D01*
X128551374Y-87379448D01*
X129219386Y-87384225D01*
X129272224Y-87384580D01*
X129455834Y-87385354D01*
X129611876Y-87385064D01*
X129743120Y-87383543D01*
X129852333Y-87380620D01*
X129942285Y-87376125D01*
X130015744Y-87369890D01*
X130075479Y-87361744D01*
X130124256Y-87351518D01*
X130164846Y-87339043D01*
X130200018Y-87324148D01*
X130212294Y-87317258D01*
X130254634Y-87287607D01*
X130310891Y-87243049D01*
X130375197Y-87188340D01*
X130441683Y-87128238D01*
X130455974Y-87114938D01*
X130579459Y-87003375D01*
X130687281Y-86913236D01*
X130783135Y-86842203D01*
X130870715Y-86787965D01*
X130953715Y-86748207D01*
X131035830Y-86720615D01*
X131120753Y-86702875D01*
X131248925Y-86693630D01*
X131381042Y-86710083D01*
X131499902Y-86754477D01*
X131604660Y-86826358D01*
X131694469Y-86925272D01*
X131768483Y-87050764D01*
X131776843Y-87068533D01*
X131799305Y-87119098D01*
X131818032Y-87167931D01*
X131833365Y-87218315D01*
X131845646Y-87273529D01*
X131855217Y-87336852D01*
X131862424Y-87411564D01*
X131867603Y-87500946D01*
X131871101Y-87608276D01*
X131873259Y-87736836D01*
X131874418Y-87889905D01*
X131874922Y-88070763D01*
X131875900Y-88731008D01*
X131918114Y-88878591D01*
X131936940Y-88941049D01*
X131966127Y-89031520D01*
X131998795Y-89127871D01*
X132030777Y-89217558D01*
X132047329Y-89262935D01*
X132098295Y-89410089D01*
X132136932Y-89536222D01*
X132164597Y-89646564D01*
X132182644Y-89746344D01*
X132192432Y-89840791D01*
X132202139Y-89989357D01*
X132738265Y-89997791D01*
X132839992Y-89999601D01*
X132959249Y-90002289D01*
X133065996Y-90005317D01*
X133156521Y-90008552D01*
X133227112Y-90011855D01*
X133274058Y-90015092D01*
X133293647Y-90018127D01*
X133309784Y-90033403D01*
X133306601Y-90053770D01*
X133282148Y-90087143D01*
X133280863Y-90088660D01*
X133269398Y-90099741D01*
X133253684Y-90109303D01*
X133230752Y-90117772D01*
X133197631Y-90125576D01*
X133151348Y-90133138D01*
X133088937Y-90140885D01*
X133007424Y-90149243D01*
X132903838Y-90158637D01*
X132775210Y-90169493D01*
X132618569Y-90182237D01*
X132583072Y-90185113D01*
X132473967Y-90194314D01*
X132390482Y-90202239D01*
X132328409Y-90209541D01*
X132283542Y-90216870D01*
X132251672Y-90224881D01*
X132228592Y-90234224D01*
X132210096Y-90245553D01*
X132201138Y-90252010D01*
X132179210Y-90271121D01*
X132168114Y-90293061D01*
X132164874Y-90327227D01*
X132165039Y-90332860D01*
X132166510Y-90383010D01*
G37*
%TO.C,G\u002A\u002A\u002A1*%
G36*
X128384313Y-69704043D02*
G01*
X128399381Y-69714741D01*
X128436563Y-69760295D01*
X128453003Y-69823075D01*
X128449990Y-69907073D01*
X128445447Y-69933221D01*
X128410731Y-70021318D01*
X128349280Y-70097124D01*
X128263708Y-70157131D01*
X128238803Y-70169924D01*
X128199056Y-70186979D01*
X128161013Y-70195658D01*
X128113784Y-70197888D01*
X128046482Y-70195597D01*
X127952828Y-70185598D01*
X127841508Y-70154678D01*
X127753236Y-70104647D01*
X127688887Y-70036245D01*
X127649334Y-69950211D01*
X127635450Y-69847287D01*
X127639404Y-69783539D01*
X127657515Y-69728037D01*
X127691709Y-69696438D01*
X127743545Y-69686421D01*
X127766940Y-69688292D01*
X127807988Y-69707311D01*
X127835394Y-69749579D01*
X127851924Y-69818470D01*
X127856225Y-69844642D01*
X127866609Y-69891746D01*
X127876800Y-69921698D01*
X127886162Y-69933945D01*
X127927273Y-69958871D01*
X127988826Y-69975524D01*
X128063604Y-69981589D01*
X128098642Y-69980402D01*
X128170198Y-69965819D01*
X128221629Y-69931822D01*
X128256960Y-69874880D01*
X128280212Y-69791461D01*
X128284572Y-69769744D01*
X128300113Y-69715418D01*
X128319571Y-69688329D01*
X128346465Y-69685522D01*
X128384313Y-69704043D01*
G37*
G36*
X130299561Y-69701971D02*
G01*
X130345928Y-69716749D01*
X130379413Y-69753578D01*
X130392292Y-69804094D01*
X130398526Y-69834825D01*
X130425615Y-69884679D01*
X130467373Y-69932487D01*
X130516331Y-69968359D01*
X130542369Y-69979911D01*
X130617471Y-69995459D01*
X130694544Y-69990988D01*
X130760644Y-69966594D01*
X130789858Y-69943956D01*
X130815092Y-69906672D01*
X130835990Y-69848584D01*
X130848548Y-69811346D01*
X130870320Y-69762604D01*
X130890971Y-69731472D01*
X130895657Y-69727109D01*
X130942400Y-69705160D01*
X130997249Y-69707563D01*
X131050441Y-69734155D01*
X131073517Y-69756330D01*
X131087764Y-69788376D01*
X131091374Y-69837995D01*
X131082607Y-69906221D01*
X131047449Y-69995177D01*
X130989433Y-70079267D01*
X130912892Y-70152516D01*
X130822164Y-70208951D01*
X130786171Y-70224895D01*
X130741744Y-70238198D01*
X130692444Y-70242960D01*
X130625319Y-70241311D01*
X130622549Y-70241164D01*
X130521258Y-70228535D01*
X130446665Y-70202971D01*
X130428842Y-70193034D01*
X130347356Y-70130089D01*
X130277539Y-70048366D01*
X130225611Y-69956373D01*
X130197792Y-69862617D01*
X130198366Y-69806509D01*
X130217730Y-69753206D01*
X130252422Y-69715964D01*
X130297971Y-69701956D01*
X130299561Y-69701971D01*
G37*
G36*
X132166510Y-70383010D02*
G01*
X132166584Y-70384675D01*
X132170206Y-70440252D01*
X132176955Y-70473378D01*
X132189971Y-70492467D01*
X132212398Y-70505934D01*
X132214491Y-70506850D01*
X132244259Y-70516746D01*
X132299255Y-70532769D01*
X132375214Y-70553761D01*
X132467872Y-70578558D01*
X132572962Y-70606000D01*
X132686220Y-70634927D01*
X132766092Y-70655182D01*
X132913570Y-70692899D01*
X133069507Y-70733112D01*
X133224253Y-70773320D01*
X133368153Y-70811019D01*
X133491558Y-70843708D01*
X133564360Y-70863130D01*
X133667295Y-70890544D01*
X133760328Y-70915267D01*
X133838429Y-70935965D01*
X133896572Y-70951305D01*
X133929727Y-70959952D01*
X133944198Y-70964054D01*
X133988969Y-70981525D01*
X134018394Y-71000003D01*
X134018973Y-71000588D01*
X134034144Y-71031654D01*
X134023793Y-71057960D01*
X133991926Y-71069051D01*
X133990991Y-71069017D01*
X133965356Y-71064591D01*
X133914248Y-71053419D01*
X133841872Y-71036500D01*
X133752433Y-71014837D01*
X133650136Y-70989430D01*
X133539185Y-70961281D01*
X133479008Y-70945953D01*
X133330188Y-70908661D01*
X133168673Y-70868880D01*
X133005145Y-70829211D01*
X132850292Y-70792256D01*
X132714799Y-70760616D01*
X132654337Y-70746706D01*
X132512625Y-70714152D01*
X132397437Y-70688005D01*
X132306024Y-70667927D01*
X132235638Y-70653584D01*
X132183531Y-70644638D01*
X132146955Y-70640752D01*
X132123160Y-70641593D01*
X132109399Y-70646821D01*
X132102923Y-70656102D01*
X132100983Y-70669098D01*
X132100832Y-70685472D01*
X132100796Y-70686755D01*
X132094949Y-70719426D01*
X132081097Y-70770059D01*
X132062062Y-70828256D01*
X132042694Y-70890785D01*
X132028855Y-70950236D01*
X132023552Y-70993709D01*
X132024818Y-71025288D01*
X132033784Y-71044984D01*
X132058008Y-71057278D01*
X132105044Y-71069162D01*
X132118886Y-71072435D01*
X132173168Y-71085931D01*
X132249675Y-71105511D01*
X132342811Y-71129693D01*
X132446979Y-71156997D01*
X132556584Y-71185942D01*
X132666029Y-71215046D01*
X132769718Y-71242828D01*
X132862053Y-71267809D01*
X132937442Y-71288506D01*
X132990285Y-71303439D01*
X133025619Y-71314749D01*
X133099256Y-71349080D01*
X133143063Y-71389712D01*
X133157552Y-71437057D01*
X133153030Y-71465627D01*
X133136117Y-71470309D01*
X133102358Y-71451226D01*
X133101276Y-71450484D01*
X133067737Y-71433833D01*
X133009352Y-71412485D01*
X132925007Y-71386109D01*
X132813588Y-71354377D01*
X132673981Y-71316954D01*
X132505074Y-71273509D01*
X132410473Y-71249654D01*
X132268833Y-71214426D01*
X132155203Y-71186909D01*
X132068330Y-71166817D01*
X132006967Y-71153864D01*
X131969862Y-71147767D01*
X131955763Y-71148239D01*
X131954732Y-71149615D01*
X131940940Y-71169532D01*
X131915463Y-71207052D01*
X131882859Y-71255473D01*
X131809599Y-71352403D01*
X131679516Y-71486786D01*
X131519797Y-71616398D01*
X131331142Y-71740689D01*
X131114253Y-71859107D01*
X130998159Y-71915204D01*
X130653559Y-72060157D01*
X130302672Y-72176382D01*
X129948046Y-72263109D01*
X129592230Y-72319566D01*
X129576588Y-72321311D01*
X129444427Y-72332236D01*
X129298337Y-72338652D01*
X129147253Y-72340561D01*
X129000108Y-72337968D01*
X128865839Y-72330874D01*
X128753378Y-72319284D01*
X128637250Y-72300649D01*
X128399336Y-72247730D01*
X128171149Y-72177321D01*
X127956698Y-72091136D01*
X127759989Y-71990892D01*
X127585030Y-71878304D01*
X127435828Y-71755090D01*
X127407748Y-71727637D01*
X127348375Y-71659045D01*
X127310964Y-71592672D01*
X127291407Y-71519662D01*
X127285599Y-71431160D01*
X127283569Y-71375877D01*
X127277201Y-71329781D01*
X127267407Y-71308415D01*
X127233111Y-71297954D01*
X127182939Y-71296212D01*
X127134971Y-71304708D01*
X127116835Y-71307451D01*
X127082537Y-71297213D01*
X127035558Y-71266291D01*
X127011150Y-71247852D01*
X126973040Y-71219165D01*
X126949114Y-71201292D01*
X126941033Y-71198218D01*
X126908467Y-71198230D01*
X126852861Y-71206855D01*
X126772613Y-71224425D01*
X126666127Y-71251271D01*
X126531802Y-71287724D01*
X126490025Y-71299277D01*
X126384534Y-71327988D01*
X126275562Y-71357077D01*
X126167293Y-71385484D01*
X126063911Y-71412144D01*
X125969600Y-71435998D01*
X125888543Y-71455979D01*
X125824924Y-71471027D01*
X125782927Y-71480078D01*
X125766737Y-71482069D01*
X125766006Y-71480095D01*
X125778478Y-71465447D01*
X125810237Y-71443248D01*
X125854082Y-71417762D01*
X125902814Y-71393253D01*
X125949233Y-71373985D01*
X125977176Y-71364715D01*
X126032965Y-71347121D01*
X126109502Y-71323502D01*
X126201957Y-71295339D01*
X126305497Y-71264110D01*
X126415289Y-71231295D01*
X126481015Y-71211643D01*
X126614210Y-71170782D01*
X126721338Y-71135704D01*
X126805175Y-71104883D01*
X126868498Y-71076793D01*
X126914080Y-71049907D01*
X126944703Y-71022700D01*
X126963137Y-70993646D01*
X126972163Y-70961218D01*
X126974555Y-70923892D01*
X126974218Y-70910195D01*
X126969104Y-70884951D01*
X126953569Y-70862549D01*
X126922227Y-70836678D01*
X126869692Y-70801027D01*
X126836756Y-70779353D01*
X126779799Y-70742805D01*
X126736942Y-70719691D01*
X126699743Y-70707971D01*
X126659761Y-70705605D01*
X126608558Y-70710557D01*
X126537692Y-70720779D01*
X126499956Y-70726764D01*
X126415461Y-70741938D01*
X126310966Y-70762220D01*
X126192898Y-70786245D01*
X126067686Y-70812649D01*
X125941757Y-70840067D01*
X125821540Y-70867135D01*
X125713462Y-70892487D01*
X125623954Y-70914760D01*
X125615541Y-70916926D01*
X125556753Y-70931035D01*
X125508403Y-70940996D01*
X125480253Y-70944769D01*
X125461038Y-70940561D01*
X125452937Y-70923189D01*
X125466160Y-70898888D01*
X125498809Y-70874812D01*
X125509029Y-70870134D01*
X125558433Y-70853069D01*
X125635176Y-70831338D01*
X125736839Y-70805518D01*
X125861002Y-70776189D01*
X126005245Y-70743927D01*
X126167148Y-70709311D01*
X126344291Y-70672917D01*
X126458069Y-70649687D01*
X126561364Y-70627712D01*
X126639455Y-70609772D01*
X126695205Y-70595103D01*
X126731480Y-70582946D01*
X126751144Y-70572536D01*
X126757062Y-70563112D01*
X126756654Y-70560696D01*
X126748688Y-70537154D01*
X126733758Y-70499621D01*
X126721267Y-70458142D01*
X126713025Y-70403555D01*
X126711096Y-70349738D01*
X126715771Y-70306510D01*
X126724341Y-70289608D01*
X126819203Y-70289608D01*
X126826875Y-70305836D01*
X126848556Y-70342597D01*
X126880863Y-70394220D01*
X126920406Y-70455160D01*
X126943640Y-70490649D01*
X126990568Y-70565952D01*
X127021648Y-70625323D01*
X127038654Y-70675335D01*
X127043363Y-70722558D01*
X127037548Y-70773566D01*
X127022984Y-70834929D01*
X127019392Y-70848479D01*
X127005808Y-70904542D01*
X127000827Y-70941551D01*
X127003988Y-70968445D01*
X127014835Y-70994165D01*
X127016222Y-70996769D01*
X127048811Y-71030677D01*
X127092047Y-71036263D01*
X127142989Y-71013093D01*
X127168740Y-70997460D01*
X127183106Y-70993674D01*
X127187596Y-71001388D01*
X127203970Y-71031923D01*
X127229085Y-71079823D01*
X127259710Y-71138959D01*
X127363520Y-71315012D01*
X127483645Y-71468496D01*
X127624262Y-71603520D01*
X127790151Y-71725370D01*
X127960573Y-71822102D01*
X128153736Y-71906937D01*
X128361644Y-71976991D01*
X128576915Y-72029777D01*
X128792169Y-72062811D01*
X128865291Y-72068645D01*
X128973232Y-72073431D01*
X129094704Y-72075806D01*
X129220805Y-72075785D01*
X129342633Y-72073385D01*
X129451285Y-72068620D01*
X129537857Y-72061507D01*
X129576445Y-72056908D01*
X129834627Y-72016319D01*
X130089848Y-71959747D01*
X130338633Y-71888647D01*
X130577505Y-71804478D01*
X130802989Y-71708695D01*
X131011608Y-71602755D01*
X131199888Y-71488115D01*
X131364352Y-71366231D01*
X131501525Y-71238560D01*
X131511735Y-71227555D01*
X131572154Y-71156341D01*
X131623904Y-71085459D01*
X131659579Y-71024916D01*
X131672157Y-70999875D01*
X131704026Y-70949925D01*
X131737080Y-70925459D01*
X131778108Y-70923161D01*
X131833899Y-70939712D01*
X131836350Y-70940637D01*
X131883124Y-70954457D01*
X131911097Y-70949529D01*
X131925836Y-70921769D01*
X131932911Y-70867095D01*
X131933805Y-70853883D01*
X131933617Y-70816486D01*
X131924701Y-70798887D01*
X131903617Y-70792290D01*
X131868777Y-70775789D01*
X131831721Y-70741784D01*
X131802387Y-70701208D01*
X131790456Y-70664956D01*
X131794595Y-70630820D01*
X131822664Y-70566155D01*
X131878456Y-70493466D01*
X131900531Y-70467943D01*
X131924704Y-70431169D01*
X131936994Y-70390702D01*
X131942888Y-70332860D01*
X131941986Y-70251135D01*
X131924104Y-70177206D01*
X131905177Y-70120988D01*
X131901690Y-70065163D01*
X131920622Y-70020374D01*
X131924667Y-70013957D01*
X131935563Y-69974613D01*
X131935745Y-69915129D01*
X131924927Y-69834115D01*
X131902826Y-69730182D01*
X131869152Y-69601940D01*
X131823624Y-69447998D01*
X131765955Y-69266971D01*
X131754554Y-69232169D01*
X131711209Y-69099821D01*
X131676060Y-68990532D01*
X131648208Y-68898967D01*
X131626756Y-68819787D01*
X131610806Y-68747654D01*
X131599459Y-68677234D01*
X131591817Y-68603186D01*
X131586983Y-68520173D01*
X131584058Y-68422859D01*
X131582141Y-68305905D01*
X131580338Y-68163974D01*
X131579995Y-68138122D01*
X131577471Y-67967308D01*
X131574746Y-67823428D01*
X131571636Y-67702848D01*
X131567955Y-67601932D01*
X131563520Y-67517047D01*
X131558142Y-67444556D01*
X131551637Y-67380826D01*
X131543823Y-67322221D01*
X131534508Y-67265106D01*
X131524413Y-67210544D01*
X131510772Y-67152306D01*
X131495343Y-67111453D01*
X131474848Y-67080026D01*
X131446014Y-67050067D01*
X131443246Y-67047515D01*
X131374981Y-67002368D01*
X131288524Y-66976207D01*
X131179798Y-66967766D01*
X131137336Y-66968824D01*
X131074556Y-66976099D01*
X131015789Y-66992383D01*
X130957010Y-67020117D01*
X130894191Y-67061742D01*
X130823310Y-67119700D01*
X130740338Y-67196433D01*
X130641251Y-67294382D01*
X130568067Y-67367335D01*
X130487492Y-67444037D01*
X130419388Y-67502538D01*
X130359108Y-67545656D01*
X130302002Y-67576212D01*
X130243423Y-67597023D01*
X130178723Y-67610910D01*
X130103254Y-67620691D01*
X130076827Y-67622925D01*
X130005754Y-67626598D01*
X129910814Y-67629574D01*
X129796714Y-67631852D01*
X129668155Y-67633433D01*
X129529840Y-67634314D01*
X129386469Y-67634496D01*
X129242746Y-67633978D01*
X129103371Y-67632759D01*
X128973051Y-67630839D01*
X128856485Y-67628218D01*
X128758374Y-67624895D01*
X128683424Y-67620867D01*
X128577893Y-67611456D01*
X128476697Y-67596297D01*
X128386941Y-67573691D01*
X128303212Y-67541071D01*
X128220092Y-67495870D01*
X128132166Y-67435520D01*
X128034017Y-67357455D01*
X127920230Y-67259107D01*
X127918406Y-67257490D01*
X127824791Y-67176320D01*
X127747781Y-67114534D01*
X127682263Y-67069435D01*
X127623124Y-67038326D01*
X127565249Y-67018507D01*
X127503527Y-67007281D01*
X127432842Y-67001951D01*
X127383038Y-67000162D01*
X127328912Y-67000606D01*
X127288490Y-67006284D01*
X127251478Y-67018954D01*
X127207582Y-67040370D01*
X127204678Y-67041885D01*
X127150271Y-67074936D01*
X127113668Y-67111259D01*
X127083301Y-67162194D01*
X127072098Y-67185316D01*
X127060970Y-67213248D01*
X127053380Y-67243594D01*
X127048700Y-67282084D01*
X127046301Y-67334448D01*
X127045556Y-67406421D01*
X127045834Y-67503730D01*
X127045918Y-67515673D01*
X127051273Y-67692232D01*
X127063883Y-67884334D01*
X127082882Y-68078531D01*
X127089197Y-68136272D01*
X127105250Y-68316401D01*
X127115921Y-68493247D01*
X127120331Y-68653332D01*
X127120729Y-68726047D01*
X127120359Y-68800306D01*
X127118190Y-68861764D01*
X127113338Y-68917595D01*
X127104916Y-68974972D01*
X127092039Y-69041072D01*
X127073822Y-69123067D01*
X127049378Y-69228133D01*
X127027289Y-69323789D01*
X127000695Y-69441792D01*
X126975098Y-69558083D01*
X126952587Y-69663162D01*
X126935248Y-69747531D01*
X126919063Y-69830595D01*
X126908519Y-69890978D01*
X126903590Y-69932905D01*
X126903894Y-69962408D01*
X126909047Y-69985520D01*
X126918665Y-70008272D01*
X126923139Y-70018377D01*
X126939962Y-70082384D01*
X126941623Y-70147483D01*
X126927489Y-70199942D01*
X126902670Y-70228030D01*
X126865348Y-70253694D01*
X126861736Y-70255597D01*
X126831579Y-70275015D01*
X126819203Y-70289608D01*
X126724341Y-70289608D01*
X126727342Y-70283690D01*
X126730524Y-70279742D01*
X126723563Y-70257356D01*
X126694037Y-70221471D01*
X126686280Y-70213544D01*
X126668944Y-70197518D01*
X126649949Y-70184734D01*
X126625622Y-70174606D01*
X126592291Y-70166553D01*
X126546284Y-70159991D01*
X126483929Y-70154338D01*
X126401553Y-70149009D01*
X126295483Y-70143422D01*
X126162048Y-70136993D01*
X126137225Y-70135771D01*
X126040259Y-70130155D01*
X125953774Y-70123856D01*
X125882912Y-70117332D01*
X125832814Y-70111042D01*
X125808623Y-70105445D01*
X125790812Y-70090444D01*
X125778347Y-70060850D01*
X125781107Y-70048675D01*
X125796689Y-70035998D01*
X125831329Y-70025551D01*
X125890977Y-70014907D01*
X125978711Y-70001790D01*
X126122318Y-69982280D01*
X126266317Y-69964815D01*
X126400397Y-69950618D01*
X126514248Y-69940913D01*
X126573896Y-69936705D01*
X126623720Y-69930457D01*
X126657190Y-69918019D01*
X126678443Y-69894476D01*
X126691617Y-69854911D01*
X126700849Y-69794410D01*
X126710277Y-69708058D01*
X126711139Y-69700391D01*
X126722360Y-69621572D01*
X126739153Y-69525514D01*
X126759395Y-69423659D01*
X126780959Y-69327447D01*
X126802109Y-69235952D01*
X126826971Y-69113095D01*
X126845192Y-68996868D01*
X126856979Y-68881951D01*
X126862537Y-68763018D01*
X126862069Y-68634746D01*
X126855780Y-68491814D01*
X126843874Y-68328896D01*
X126826556Y-68140672D01*
X126823652Y-68109761D01*
X126814470Y-67988414D01*
X126807651Y-67858941D01*
X126803243Y-67726925D01*
X126801290Y-67597948D01*
X126801839Y-67477594D01*
X126804937Y-67371446D01*
X126810630Y-67285086D01*
X126818964Y-67224097D01*
X126821039Y-67214406D01*
X126857807Y-67097718D01*
X126914788Y-66998892D01*
X126996925Y-66909180D01*
X127051672Y-66863787D01*
X127147759Y-66807370D01*
X127253014Y-66775747D01*
X127375168Y-66765994D01*
X127431060Y-66767580D01*
X127544305Y-66781844D01*
X127653390Y-66812770D01*
X127763746Y-66862596D01*
X127880806Y-66933565D01*
X128010004Y-67027918D01*
X128069947Y-67074352D01*
X128176503Y-67155053D01*
X128265113Y-67219111D01*
X128339459Y-67269053D01*
X128403219Y-67307402D01*
X128460076Y-67336684D01*
X128551374Y-67379448D01*
X129219386Y-67384225D01*
X129272224Y-67384580D01*
X129455834Y-67385354D01*
X129611876Y-67385064D01*
X129743120Y-67383543D01*
X129852333Y-67380620D01*
X129942285Y-67376125D01*
X130015744Y-67369890D01*
X130075479Y-67361744D01*
X130124256Y-67351518D01*
X130164846Y-67339043D01*
X130200018Y-67324148D01*
X130212294Y-67317258D01*
X130254634Y-67287607D01*
X130310891Y-67243049D01*
X130375197Y-67188340D01*
X130441683Y-67128238D01*
X130455974Y-67114938D01*
X130579459Y-67003375D01*
X130687281Y-66913236D01*
X130783135Y-66842203D01*
X130870715Y-66787965D01*
X130953715Y-66748207D01*
X131035830Y-66720615D01*
X131120753Y-66702875D01*
X131248925Y-66693630D01*
X131381042Y-66710083D01*
X131499902Y-66754477D01*
X131604660Y-66826358D01*
X131694469Y-66925272D01*
X131768483Y-67050764D01*
X131776843Y-67068533D01*
X131799305Y-67119098D01*
X131818032Y-67167931D01*
X131833365Y-67218315D01*
X131845646Y-67273529D01*
X131855217Y-67336852D01*
X131862424Y-67411564D01*
X131867603Y-67500946D01*
X131871101Y-67608276D01*
X131873259Y-67736836D01*
X131874418Y-67889905D01*
X131874922Y-68070763D01*
X131875900Y-68731008D01*
X131918114Y-68878591D01*
X131936940Y-68941049D01*
X131966127Y-69031520D01*
X131998795Y-69127871D01*
X132030777Y-69217558D01*
X132047329Y-69262935D01*
X132098295Y-69410089D01*
X132136932Y-69536222D01*
X132164597Y-69646564D01*
X132182644Y-69746344D01*
X132192432Y-69840791D01*
X132202139Y-69989357D01*
X132738265Y-69997791D01*
X132839992Y-69999601D01*
X132959249Y-70002289D01*
X133065996Y-70005317D01*
X133156521Y-70008552D01*
X133227112Y-70011855D01*
X133274058Y-70015092D01*
X133293647Y-70018127D01*
X133309784Y-70033403D01*
X133306601Y-70053770D01*
X133282148Y-70087143D01*
X133280863Y-70088660D01*
X133269398Y-70099741D01*
X133253684Y-70109303D01*
X133230752Y-70117772D01*
X133197631Y-70125576D01*
X133151348Y-70133138D01*
X133088937Y-70140885D01*
X133007424Y-70149243D01*
X132903838Y-70158637D01*
X132775210Y-70169493D01*
X132618569Y-70182237D01*
X132583072Y-70185113D01*
X132473967Y-70194314D01*
X132390482Y-70202239D01*
X132328409Y-70209541D01*
X132283542Y-70216870D01*
X132251672Y-70224881D01*
X132228592Y-70234224D01*
X132210096Y-70245553D01*
X132201138Y-70252010D01*
X132179210Y-70271121D01*
X132168114Y-70293061D01*
X132164874Y-70327227D01*
X132165039Y-70332860D01*
X132166510Y-70383010D01*
G37*
%TO.C,G\u002A\u002A\u002A*%
G36*
X128384313Y-149704043D02*
G01*
X128399381Y-149714741D01*
X128436563Y-149760295D01*
X128453003Y-149823075D01*
X128449990Y-149907073D01*
X128445447Y-149933221D01*
X128410731Y-150021318D01*
X128349280Y-150097124D01*
X128263708Y-150157131D01*
X128238803Y-150169924D01*
X128199056Y-150186979D01*
X128161013Y-150195658D01*
X128113784Y-150197888D01*
X128046482Y-150195597D01*
X127952828Y-150185598D01*
X127841508Y-150154678D01*
X127753236Y-150104647D01*
X127688887Y-150036245D01*
X127649334Y-149950211D01*
X127635450Y-149847287D01*
X127639404Y-149783539D01*
X127657515Y-149728037D01*
X127691709Y-149696438D01*
X127743545Y-149686421D01*
X127766940Y-149688292D01*
X127807988Y-149707311D01*
X127835394Y-149749579D01*
X127851924Y-149818470D01*
X127856225Y-149844642D01*
X127866609Y-149891746D01*
X127876800Y-149921698D01*
X127886162Y-149933945D01*
X127927273Y-149958871D01*
X127988826Y-149975524D01*
X128063604Y-149981589D01*
X128098642Y-149980402D01*
X128170198Y-149965819D01*
X128221629Y-149931822D01*
X128256960Y-149874880D01*
X128280212Y-149791461D01*
X128284572Y-149769744D01*
X128300113Y-149715418D01*
X128319571Y-149688329D01*
X128346465Y-149685522D01*
X128384313Y-149704043D01*
G37*
G36*
X130299561Y-149701971D02*
G01*
X130345928Y-149716749D01*
X130379413Y-149753578D01*
X130392292Y-149804094D01*
X130398526Y-149834825D01*
X130425615Y-149884679D01*
X130467373Y-149932487D01*
X130516331Y-149968359D01*
X130542369Y-149979911D01*
X130617471Y-149995459D01*
X130694544Y-149990988D01*
X130760644Y-149966594D01*
X130789858Y-149943956D01*
X130815092Y-149906672D01*
X130835990Y-149848584D01*
X130848548Y-149811346D01*
X130870320Y-149762604D01*
X130890971Y-149731472D01*
X130895657Y-149727109D01*
X130942400Y-149705160D01*
X130997249Y-149707563D01*
X131050441Y-149734155D01*
X131073517Y-149756330D01*
X131087764Y-149788376D01*
X131091374Y-149837995D01*
X131082607Y-149906221D01*
X131047449Y-149995177D01*
X130989433Y-150079267D01*
X130912892Y-150152516D01*
X130822164Y-150208951D01*
X130786171Y-150224895D01*
X130741744Y-150238198D01*
X130692444Y-150242960D01*
X130625319Y-150241311D01*
X130622549Y-150241164D01*
X130521258Y-150228535D01*
X130446665Y-150202971D01*
X130428842Y-150193034D01*
X130347356Y-150130089D01*
X130277539Y-150048366D01*
X130225611Y-149956373D01*
X130197792Y-149862617D01*
X130198366Y-149806509D01*
X130217730Y-149753206D01*
X130252422Y-149715964D01*
X130297971Y-149701956D01*
X130299561Y-149701971D01*
G37*
G36*
X132166510Y-150383010D02*
G01*
X132166584Y-150384675D01*
X132170206Y-150440252D01*
X132176955Y-150473378D01*
X132189971Y-150492467D01*
X132212398Y-150505934D01*
X132214491Y-150506850D01*
X132244259Y-150516746D01*
X132299255Y-150532769D01*
X132375214Y-150553761D01*
X132467872Y-150578558D01*
X132572962Y-150606000D01*
X132686220Y-150634927D01*
X132766092Y-150655182D01*
X132913570Y-150692899D01*
X133069507Y-150733112D01*
X133224253Y-150773320D01*
X133368153Y-150811019D01*
X133491558Y-150843708D01*
X133564360Y-150863130D01*
X133667295Y-150890544D01*
X133760328Y-150915267D01*
X133838429Y-150935965D01*
X133896572Y-150951305D01*
X133929727Y-150959952D01*
X133944198Y-150964054D01*
X133988969Y-150981525D01*
X134018394Y-151000003D01*
X134018973Y-151000588D01*
X134034144Y-151031654D01*
X134023793Y-151057960D01*
X133991926Y-151069051D01*
X133990991Y-151069017D01*
X133965356Y-151064591D01*
X133914248Y-151053419D01*
X133841872Y-151036500D01*
X133752433Y-151014837D01*
X133650136Y-150989430D01*
X133539185Y-150961281D01*
X133479008Y-150945953D01*
X133330188Y-150908661D01*
X133168673Y-150868880D01*
X133005145Y-150829211D01*
X132850292Y-150792256D01*
X132714799Y-150760616D01*
X132654337Y-150746706D01*
X132512625Y-150714152D01*
X132397437Y-150688005D01*
X132306024Y-150667927D01*
X132235638Y-150653584D01*
X132183531Y-150644638D01*
X132146955Y-150640752D01*
X132123160Y-150641593D01*
X132109399Y-150646821D01*
X132102923Y-150656102D01*
X132100983Y-150669098D01*
X132100832Y-150685472D01*
X132100796Y-150686755D01*
X132094949Y-150719426D01*
X132081097Y-150770059D01*
X132062062Y-150828256D01*
X132042694Y-150890785D01*
X132028855Y-150950236D01*
X132023552Y-150993709D01*
X132024818Y-151025288D01*
X132033784Y-151044984D01*
X132058008Y-151057278D01*
X132105044Y-151069162D01*
X132118886Y-151072435D01*
X132173168Y-151085931D01*
X132249675Y-151105511D01*
X132342811Y-151129693D01*
X132446979Y-151156997D01*
X132556584Y-151185942D01*
X132666029Y-151215046D01*
X132769718Y-151242828D01*
X132862053Y-151267809D01*
X132937442Y-151288506D01*
X132990285Y-151303439D01*
X133025619Y-151314749D01*
X133099256Y-151349080D01*
X133143063Y-151389712D01*
X133157552Y-151437057D01*
X133153030Y-151465627D01*
X133136117Y-151470309D01*
X133102358Y-151451226D01*
X133101276Y-151450484D01*
X133067737Y-151433833D01*
X133009352Y-151412485D01*
X132925007Y-151386109D01*
X132813588Y-151354377D01*
X132673981Y-151316954D01*
X132505074Y-151273509D01*
X132410473Y-151249654D01*
X132268833Y-151214426D01*
X132155203Y-151186909D01*
X132068330Y-151166817D01*
X132006967Y-151153864D01*
X131969862Y-151147767D01*
X131955763Y-151148239D01*
X131954732Y-151149615D01*
X131940940Y-151169532D01*
X131915463Y-151207052D01*
X131882859Y-151255473D01*
X131809599Y-151352403D01*
X131679516Y-151486786D01*
X131519797Y-151616398D01*
X131331142Y-151740689D01*
X131114253Y-151859107D01*
X130998159Y-151915204D01*
X130653559Y-152060157D01*
X130302672Y-152176382D01*
X129948046Y-152263109D01*
X129592230Y-152319566D01*
X129576588Y-152321311D01*
X129444427Y-152332236D01*
X129298337Y-152338652D01*
X129147253Y-152340561D01*
X129000108Y-152337968D01*
X128865839Y-152330874D01*
X128753378Y-152319284D01*
X128637250Y-152300649D01*
X128399336Y-152247730D01*
X128171149Y-152177321D01*
X127956698Y-152091136D01*
X127759989Y-151990892D01*
X127585030Y-151878304D01*
X127435828Y-151755090D01*
X127407748Y-151727637D01*
X127348375Y-151659045D01*
X127310964Y-151592672D01*
X127291407Y-151519662D01*
X127285599Y-151431160D01*
X127283569Y-151375877D01*
X127277201Y-151329781D01*
X127267407Y-151308415D01*
X127233111Y-151297954D01*
X127182939Y-151296212D01*
X127134971Y-151304708D01*
X127116835Y-151307451D01*
X127082537Y-151297213D01*
X127035558Y-151266291D01*
X127011150Y-151247852D01*
X126973040Y-151219165D01*
X126949114Y-151201292D01*
X126941033Y-151198218D01*
X126908467Y-151198230D01*
X126852861Y-151206855D01*
X126772613Y-151224425D01*
X126666127Y-151251271D01*
X126531802Y-151287724D01*
X126490025Y-151299277D01*
X126384534Y-151327988D01*
X126275562Y-151357077D01*
X126167293Y-151385484D01*
X126063911Y-151412144D01*
X125969600Y-151435998D01*
X125888543Y-151455979D01*
X125824924Y-151471027D01*
X125782927Y-151480078D01*
X125766737Y-151482069D01*
X125766006Y-151480095D01*
X125778478Y-151465447D01*
X125810237Y-151443248D01*
X125854082Y-151417762D01*
X125902814Y-151393253D01*
X125949233Y-151373985D01*
X125977176Y-151364715D01*
X126032965Y-151347121D01*
X126109502Y-151323502D01*
X126201957Y-151295339D01*
X126305497Y-151264110D01*
X126415289Y-151231295D01*
X126481015Y-151211643D01*
X126614210Y-151170782D01*
X126721338Y-151135704D01*
X126805175Y-151104883D01*
X126868498Y-151076793D01*
X126914080Y-151049907D01*
X126944703Y-151022700D01*
X126963137Y-150993646D01*
X126972163Y-150961218D01*
X126974555Y-150923892D01*
X126974218Y-150910195D01*
X126969104Y-150884951D01*
X126953569Y-150862549D01*
X126922227Y-150836678D01*
X126869692Y-150801027D01*
X126836756Y-150779353D01*
X126779799Y-150742805D01*
X126736942Y-150719691D01*
X126699743Y-150707971D01*
X126659761Y-150705605D01*
X126608558Y-150710557D01*
X126537692Y-150720779D01*
X126499956Y-150726764D01*
X126415461Y-150741938D01*
X126310966Y-150762220D01*
X126192898Y-150786245D01*
X126067686Y-150812649D01*
X125941757Y-150840067D01*
X125821540Y-150867135D01*
X125713462Y-150892487D01*
X125623954Y-150914760D01*
X125615541Y-150916926D01*
X125556753Y-150931035D01*
X125508403Y-150940996D01*
X125480253Y-150944769D01*
X125461038Y-150940561D01*
X125452937Y-150923189D01*
X125466160Y-150898888D01*
X125498809Y-150874812D01*
X125509029Y-150870134D01*
X125558433Y-150853069D01*
X125635176Y-150831338D01*
X125736839Y-150805518D01*
X125861002Y-150776189D01*
X126005245Y-150743927D01*
X126167148Y-150709311D01*
X126344291Y-150672917D01*
X126458069Y-150649687D01*
X126561364Y-150627712D01*
X126639455Y-150609772D01*
X126695205Y-150595103D01*
X126731480Y-150582946D01*
X126751144Y-150572536D01*
X126757062Y-150563112D01*
X126756654Y-150560696D01*
X126748688Y-150537154D01*
X126733758Y-150499621D01*
X126721267Y-150458142D01*
X126713025Y-150403555D01*
X126711096Y-150349738D01*
X126715771Y-150306510D01*
X126724341Y-150289608D01*
X126819203Y-150289608D01*
X126826875Y-150305836D01*
X126848556Y-150342597D01*
X126880863Y-150394220D01*
X126920406Y-150455160D01*
X126943640Y-150490649D01*
X126990568Y-150565952D01*
X127021648Y-150625323D01*
X127038654Y-150675335D01*
X127043363Y-150722558D01*
X127037548Y-150773566D01*
X127022984Y-150834929D01*
X127019392Y-150848479D01*
X127005808Y-150904542D01*
X127000827Y-150941551D01*
X127003988Y-150968445D01*
X127014835Y-150994165D01*
X127016222Y-150996769D01*
X127048811Y-151030677D01*
X127092047Y-151036263D01*
X127142989Y-151013093D01*
X127168740Y-150997460D01*
X127183106Y-150993674D01*
X127187596Y-151001388D01*
X127203970Y-151031923D01*
X127229085Y-151079823D01*
X127259710Y-151138959D01*
X127363520Y-151315012D01*
X127483645Y-151468496D01*
X127624262Y-151603520D01*
X127790151Y-151725370D01*
X127960573Y-151822102D01*
X128153736Y-151906937D01*
X128361644Y-151976991D01*
X128576915Y-152029777D01*
X128792169Y-152062811D01*
X128865291Y-152068645D01*
X128973232Y-152073431D01*
X129094704Y-152075806D01*
X129220805Y-152075785D01*
X129342633Y-152073385D01*
X129451285Y-152068620D01*
X129537857Y-152061507D01*
X129576445Y-152056908D01*
X129834627Y-152016319D01*
X130089848Y-151959747D01*
X130338633Y-151888647D01*
X130577505Y-151804478D01*
X130802989Y-151708695D01*
X131011608Y-151602755D01*
X131199888Y-151488115D01*
X131364352Y-151366231D01*
X131501525Y-151238560D01*
X131511735Y-151227555D01*
X131572154Y-151156341D01*
X131623904Y-151085459D01*
X131659579Y-151024916D01*
X131672157Y-150999875D01*
X131704026Y-150949925D01*
X131737080Y-150925459D01*
X131778108Y-150923161D01*
X131833899Y-150939712D01*
X131836350Y-150940637D01*
X131883124Y-150954457D01*
X131911097Y-150949529D01*
X131925836Y-150921769D01*
X131932911Y-150867095D01*
X131933805Y-150853883D01*
X131933617Y-150816486D01*
X131924701Y-150798887D01*
X131903617Y-150792290D01*
X131868777Y-150775789D01*
X131831721Y-150741784D01*
X131802387Y-150701208D01*
X131790456Y-150664956D01*
X131794595Y-150630820D01*
X131822664Y-150566155D01*
X131878456Y-150493466D01*
X131900531Y-150467943D01*
X131924704Y-150431169D01*
X131936994Y-150390702D01*
X131942888Y-150332860D01*
X131941986Y-150251135D01*
X131924104Y-150177206D01*
X131905177Y-150120988D01*
X131901690Y-150065163D01*
X131920622Y-150020374D01*
X131924667Y-150013957D01*
X131935563Y-149974613D01*
X131935745Y-149915129D01*
X131924927Y-149834115D01*
X131902826Y-149730182D01*
X131869152Y-149601940D01*
X131823624Y-149447998D01*
X131765955Y-149266971D01*
X131754554Y-149232169D01*
X131711209Y-149099821D01*
X131676060Y-148990532D01*
X131648208Y-148898967D01*
X131626756Y-148819787D01*
X131610806Y-148747654D01*
X131599459Y-148677234D01*
X131591817Y-148603186D01*
X131586983Y-148520173D01*
X131584058Y-148422859D01*
X131582141Y-148305905D01*
X131580338Y-148163974D01*
X131579995Y-148138122D01*
X131577471Y-147967308D01*
X131574746Y-147823428D01*
X131571636Y-147702848D01*
X131567955Y-147601932D01*
X131563520Y-147517047D01*
X131558142Y-147444556D01*
X131551637Y-147380826D01*
X131543823Y-147322221D01*
X131534508Y-147265106D01*
X131524413Y-147210544D01*
X131510772Y-147152306D01*
X131495343Y-147111453D01*
X131474848Y-147080026D01*
X131446014Y-147050067D01*
X131443246Y-147047515D01*
X131374981Y-147002368D01*
X131288524Y-146976207D01*
X131179798Y-146967766D01*
X131137336Y-146968824D01*
X131074556Y-146976099D01*
X131015789Y-146992383D01*
X130957010Y-147020117D01*
X130894191Y-147061742D01*
X130823310Y-147119700D01*
X130740338Y-147196433D01*
X130641251Y-147294382D01*
X130568067Y-147367335D01*
X130487492Y-147444037D01*
X130419388Y-147502538D01*
X130359108Y-147545656D01*
X130302002Y-147576212D01*
X130243423Y-147597023D01*
X130178723Y-147610910D01*
X130103254Y-147620691D01*
X130076827Y-147622925D01*
X130005754Y-147626598D01*
X129910814Y-147629574D01*
X129796714Y-147631852D01*
X129668155Y-147633433D01*
X129529840Y-147634314D01*
X129386469Y-147634496D01*
X129242746Y-147633978D01*
X129103371Y-147632759D01*
X128973051Y-147630839D01*
X128856485Y-147628218D01*
X128758374Y-147624895D01*
X128683424Y-147620867D01*
X128577893Y-147611456D01*
X128476697Y-147596297D01*
X128386941Y-147573691D01*
X128303212Y-147541071D01*
X128220092Y-147495870D01*
X128132166Y-147435520D01*
X128034017Y-147357455D01*
X127920230Y-147259107D01*
X127918406Y-147257490D01*
X127824791Y-147176320D01*
X127747781Y-147114534D01*
X127682263Y-147069435D01*
X127623124Y-147038326D01*
X127565249Y-147018507D01*
X127503527Y-147007281D01*
X127432842Y-147001951D01*
X127383038Y-147000162D01*
X127328912Y-147000606D01*
X127288490Y-147006284D01*
X127251478Y-147018954D01*
X127207582Y-147040370D01*
X127204678Y-147041885D01*
X127150271Y-147074936D01*
X127113668Y-147111259D01*
X127083301Y-147162194D01*
X127072098Y-147185316D01*
X127060970Y-147213248D01*
X127053380Y-147243594D01*
X127048700Y-147282084D01*
X127046301Y-147334448D01*
X127045556Y-147406421D01*
X127045834Y-147503730D01*
X127045918Y-147515673D01*
X127051273Y-147692232D01*
X127063883Y-147884334D01*
X127082882Y-148078531D01*
X127089197Y-148136272D01*
X127105250Y-148316401D01*
X127115921Y-148493247D01*
X127120331Y-148653332D01*
X127120729Y-148726047D01*
X127120359Y-148800306D01*
X127118190Y-148861764D01*
X127113338Y-148917595D01*
X127104916Y-148974972D01*
X127092039Y-149041072D01*
X127073822Y-149123067D01*
X127049378Y-149228133D01*
X127027289Y-149323789D01*
X127000695Y-149441792D01*
X126975098Y-149558083D01*
X126952587Y-149663162D01*
X126935248Y-149747531D01*
X126919063Y-149830595D01*
X126908519Y-149890978D01*
X126903590Y-149932905D01*
X126903894Y-149962408D01*
X126909047Y-149985520D01*
X126918665Y-150008272D01*
X126923139Y-150018377D01*
X126939962Y-150082384D01*
X126941623Y-150147483D01*
X126927489Y-150199942D01*
X126902670Y-150228030D01*
X126865348Y-150253694D01*
X126861736Y-150255597D01*
X126831579Y-150275015D01*
X126819203Y-150289608D01*
X126724341Y-150289608D01*
X126727342Y-150283690D01*
X126730524Y-150279742D01*
X126723563Y-150257356D01*
X126694037Y-150221471D01*
X126686280Y-150213544D01*
X126668944Y-150197518D01*
X126649949Y-150184734D01*
X126625622Y-150174606D01*
X126592291Y-150166553D01*
X126546284Y-150159991D01*
X126483929Y-150154338D01*
X126401553Y-150149009D01*
X126295483Y-150143422D01*
X126162048Y-150136993D01*
X126137225Y-150135771D01*
X126040259Y-150130155D01*
X125953774Y-150123856D01*
X125882912Y-150117332D01*
X125832814Y-150111042D01*
X125808623Y-150105445D01*
X125790812Y-150090444D01*
X125778347Y-150060850D01*
X125781107Y-150048675D01*
X125796689Y-150035998D01*
X125831329Y-150025551D01*
X125890977Y-150014907D01*
X125978711Y-150001790D01*
X126122318Y-149982280D01*
X126266317Y-149964815D01*
X126400397Y-149950618D01*
X126514248Y-149940913D01*
X126573896Y-149936705D01*
X126623720Y-149930457D01*
X126657190Y-149918019D01*
X126678443Y-149894476D01*
X126691617Y-149854911D01*
X126700849Y-149794410D01*
X126710277Y-149708058D01*
X126711139Y-149700391D01*
X126722360Y-149621572D01*
X126739153Y-149525514D01*
X126759395Y-149423659D01*
X126780959Y-149327447D01*
X126802109Y-149235952D01*
X126826971Y-149113095D01*
X126845192Y-148996868D01*
X126856979Y-148881951D01*
X126862537Y-148763018D01*
X126862069Y-148634746D01*
X126855780Y-148491814D01*
X126843874Y-148328896D01*
X126826556Y-148140672D01*
X126823652Y-148109761D01*
X126814470Y-147988414D01*
X126807651Y-147858941D01*
X126803243Y-147726925D01*
X126801290Y-147597948D01*
X126801839Y-147477594D01*
X126804937Y-147371446D01*
X126810630Y-147285086D01*
X126818964Y-147224097D01*
X126821039Y-147214406D01*
X126857807Y-147097718D01*
X126914788Y-146998892D01*
X126996925Y-146909180D01*
X127051672Y-146863787D01*
X127147759Y-146807370D01*
X127253014Y-146775747D01*
X127375168Y-146765994D01*
X127431060Y-146767580D01*
X127544305Y-146781844D01*
X127653390Y-146812770D01*
X127763746Y-146862596D01*
X127880806Y-146933565D01*
X128010004Y-147027918D01*
X128069947Y-147074352D01*
X128176503Y-147155053D01*
X128265113Y-147219111D01*
X128339459Y-147269053D01*
X128403219Y-147307402D01*
X128460076Y-147336684D01*
X128551374Y-147379448D01*
X129219386Y-147384225D01*
X129272224Y-147384580D01*
X129455834Y-147385354D01*
X129611876Y-147385064D01*
X129743120Y-147383543D01*
X129852333Y-147380620D01*
X129942285Y-147376125D01*
X130015744Y-147369890D01*
X130075479Y-147361744D01*
X130124256Y-147351518D01*
X130164846Y-147339043D01*
X130200018Y-147324148D01*
X130212294Y-147317258D01*
X130254634Y-147287607D01*
X130310891Y-147243049D01*
X130375197Y-147188340D01*
X130441683Y-147128238D01*
X130455974Y-147114938D01*
X130579459Y-147003375D01*
X130687281Y-146913236D01*
X130783135Y-146842203D01*
X130870715Y-146787965D01*
X130953715Y-146748207D01*
X131035830Y-146720615D01*
X131120753Y-146702875D01*
X131248925Y-146693630D01*
X131381042Y-146710083D01*
X131499902Y-146754477D01*
X131604660Y-146826358D01*
X131694469Y-146925272D01*
X131768483Y-147050764D01*
X131776843Y-147068533D01*
X131799305Y-147119098D01*
X131818032Y-147167931D01*
X131833365Y-147218315D01*
X131845646Y-147273529D01*
X131855217Y-147336852D01*
X131862424Y-147411564D01*
X131867603Y-147500946D01*
X131871101Y-147608276D01*
X131873259Y-147736836D01*
X131874418Y-147889905D01*
X131874922Y-148070763D01*
X131875900Y-148731008D01*
X131918114Y-148878591D01*
X131936940Y-148941049D01*
X131966127Y-149031520D01*
X131998795Y-149127871D01*
X132030777Y-149217558D01*
X132047329Y-149262935D01*
X132098295Y-149410089D01*
X132136932Y-149536222D01*
X132164597Y-149646564D01*
X132182644Y-149746344D01*
X132192432Y-149840791D01*
X132202139Y-149989357D01*
X132738265Y-149997791D01*
X132839992Y-149999601D01*
X132959249Y-150002289D01*
X133065996Y-150005317D01*
X133156521Y-150008552D01*
X133227112Y-150011855D01*
X133274058Y-150015092D01*
X133293647Y-150018127D01*
X133309784Y-150033403D01*
X133306601Y-150053770D01*
X133282148Y-150087143D01*
X133280863Y-150088660D01*
X133269398Y-150099741D01*
X133253684Y-150109303D01*
X133230752Y-150117772D01*
X133197631Y-150125576D01*
X133151348Y-150133138D01*
X133088937Y-150140885D01*
X133007424Y-150149243D01*
X132903838Y-150158637D01*
X132775210Y-150169493D01*
X132618569Y-150182237D01*
X132583072Y-150185113D01*
X132473967Y-150194314D01*
X132390482Y-150202239D01*
X132328409Y-150209541D01*
X132283542Y-150216870D01*
X132251672Y-150224881D01*
X132228592Y-150234224D01*
X132210096Y-150245553D01*
X132201138Y-150252010D01*
X132179210Y-150271121D01*
X132168114Y-150293061D01*
X132164874Y-150327227D01*
X132165039Y-150332860D01*
X132166510Y-150383010D01*
G37*
%TD*%
M02*
