%TF.GenerationSoftware,KiCad,Pcbnew,9.0.3*%
%TF.CreationDate,2025-08-19T22:59:22-04:00*%
%TF.ProjectId,Mess-Breakout,4d657373-2d42-4726-9561-6b6f75742e6b,rev?*%
%TF.SameCoordinates,Original*%
%TF.FileFunction,Soldermask,Bot*%
%TF.FilePolarity,Negative*%
%FSLAX46Y46*%
G04 Gerber Fmt 4.6, Leading zero omitted, Abs format (unit mm)*
G04 Created by KiCad (PCBNEW 9.0.3) date 2025-08-19 22:59:22*
%MOMM*%
%LPD*%
G01*
G04 APERTURE LIST*
%ADD10R,1.700000X1.700000*%
%ADD11C,1.700000*%
G04 APERTURE END LIST*
D10*
%TO.C,J10*%
X154019997Y-116800822D03*
D11*
X151479997Y-116800822D03*
X148939998Y-116800822D03*
X146399997Y-116800822D03*
X143859997Y-116800822D03*
X141319997Y-116800822D03*
X138779997Y-116800822D03*
X136239996Y-116800822D03*
X133699997Y-116800822D03*
X131159997Y-116800822D03*
X128619997Y-116800822D03*
X126079998Y-116800822D03*
X123539997Y-116800822D03*
X120999997Y-116800822D03*
X118459997Y-116800822D03*
X115919998Y-116800822D03*
X113379996Y-116800822D03*
X110839997Y-116800822D03*
X108299997Y-116800822D03*
X105759997Y-116800822D03*
X103219998Y-116800822D03*
X100679997Y-116800822D03*
X98139997Y-116800822D03*
X95599997Y-116800822D03*
X93059998Y-116800822D03*
X90519996Y-116800822D03*
X87979997Y-116800822D03*
X85439997Y-116800822D03*
X82899997Y-116800822D03*
X80359996Y-116800822D03*
%TD*%
D10*
%TO.C,J11*%
X153999998Y-121900822D03*
D11*
X153999998Y-119360822D03*
X151459998Y-121900822D03*
X151459998Y-119360822D03*
X148919999Y-121900822D03*
X148919998Y-119360822D03*
X146379998Y-121900822D03*
X146379998Y-119360822D03*
X143839998Y-121900822D03*
X143839998Y-119360822D03*
X141299998Y-121900822D03*
X141299998Y-119360822D03*
X138759998Y-121900822D03*
X138759998Y-119360822D03*
X136219997Y-121900822D03*
X136219998Y-119360822D03*
X133679998Y-121900822D03*
X133679998Y-119360822D03*
X131139998Y-121900822D03*
X131139998Y-119360822D03*
X128599998Y-121900822D03*
X128599998Y-119360822D03*
X126059999Y-121900822D03*
X126059998Y-119360822D03*
X123519998Y-121900822D03*
X123519998Y-119360822D03*
X120979998Y-121900822D03*
X120979998Y-119360822D03*
X118439998Y-121900822D03*
X118439998Y-119360822D03*
X115899999Y-121900822D03*
X115899998Y-119360822D03*
X113359997Y-121900822D03*
X113359998Y-119360822D03*
X110819998Y-121900822D03*
X110819998Y-119360822D03*
X108279998Y-121900822D03*
X108279998Y-119360822D03*
X105739998Y-121900822D03*
X105739998Y-119360822D03*
X103199999Y-121900822D03*
X103199998Y-119360822D03*
X100659998Y-121900822D03*
X100659998Y-119360822D03*
X98119998Y-121900822D03*
X98119998Y-119360822D03*
X95579998Y-121900822D03*
X95579998Y-119360822D03*
X93039999Y-121900822D03*
X93039998Y-119360822D03*
X90499997Y-121900822D03*
X90499998Y-119360822D03*
X87959998Y-121900822D03*
X87959998Y-119360822D03*
X85419998Y-121900822D03*
X85419998Y-119360822D03*
X82879998Y-121900822D03*
X82879998Y-119360822D03*
X80339997Y-121900822D03*
X80339998Y-119360822D03*
%TD*%
D10*
%TO.C,J8*%
X154019997Y-96800822D03*
D11*
X151479997Y-96800822D03*
X148939998Y-96800822D03*
X146399997Y-96800822D03*
X143859997Y-96800822D03*
X141319997Y-96800822D03*
X138779997Y-96800822D03*
X136239996Y-96800822D03*
X133699997Y-96800822D03*
X131159997Y-96800822D03*
X128619997Y-96800822D03*
X126079998Y-96800822D03*
X123539997Y-96800822D03*
X120999997Y-96800822D03*
X118459997Y-96800822D03*
X115919998Y-96800822D03*
X113379996Y-96800822D03*
X110839997Y-96800822D03*
X108299997Y-96800822D03*
X105759997Y-96800822D03*
X103219998Y-96800822D03*
X100679997Y-96800822D03*
X98139997Y-96800822D03*
X95599997Y-96800822D03*
X93059998Y-96800822D03*
X90519996Y-96800822D03*
X87979997Y-96800822D03*
X85439997Y-96800822D03*
X82899997Y-96800822D03*
X80359996Y-96800822D03*
%TD*%
D10*
%TO.C,J9*%
X153999998Y-101900822D03*
D11*
X153999998Y-99360822D03*
X151459998Y-101900822D03*
X151459998Y-99360822D03*
X148919999Y-101900822D03*
X148919998Y-99360822D03*
X146379998Y-101900822D03*
X146379998Y-99360822D03*
X143839998Y-101900822D03*
X143839998Y-99360822D03*
X141299998Y-101900822D03*
X141299998Y-99360822D03*
X138759998Y-101900822D03*
X138759998Y-99360822D03*
X136219997Y-101900822D03*
X136219998Y-99360822D03*
X133679998Y-101900822D03*
X133679998Y-99360822D03*
X131139998Y-101900822D03*
X131139998Y-99360822D03*
X128599998Y-101900822D03*
X128599998Y-99360822D03*
X126059999Y-101900822D03*
X126059998Y-99360822D03*
X123519998Y-101900822D03*
X123519998Y-99360822D03*
X120979998Y-101900822D03*
X120979998Y-99360822D03*
X118439998Y-101900822D03*
X118439998Y-99360822D03*
X115899999Y-101900822D03*
X115899998Y-99360822D03*
X113359997Y-101900822D03*
X113359998Y-99360822D03*
X110819998Y-101900822D03*
X110819998Y-99360822D03*
X108279998Y-101900822D03*
X108279998Y-99360822D03*
X105739998Y-101900822D03*
X105739998Y-99360822D03*
X103199999Y-101900822D03*
X103199998Y-99360822D03*
X100659998Y-101900822D03*
X100659998Y-99360822D03*
X98119998Y-101900822D03*
X98119998Y-99360822D03*
X95579998Y-101900822D03*
X95579998Y-99360822D03*
X93039999Y-101900822D03*
X93039998Y-99360822D03*
X90499997Y-101900822D03*
X90499998Y-99360822D03*
X87959998Y-101900822D03*
X87959998Y-99360822D03*
X85419998Y-101900822D03*
X85419998Y-99360822D03*
X82879998Y-101900822D03*
X82879998Y-99360822D03*
X80339997Y-101900822D03*
X80339998Y-99360822D03*
%TD*%
D10*
%TO.C,J4*%
X154019997Y-76800822D03*
D11*
X151479997Y-76800822D03*
X148939998Y-76800822D03*
X146399997Y-76800822D03*
X143859997Y-76800822D03*
X141319997Y-76800822D03*
X138779997Y-76800822D03*
X136239996Y-76800822D03*
X133699997Y-76800822D03*
X131159997Y-76800822D03*
X128619997Y-76800822D03*
X126079998Y-76800822D03*
X123539997Y-76800822D03*
X120999997Y-76800822D03*
X118459997Y-76800822D03*
X115919998Y-76800822D03*
X113379996Y-76800822D03*
X110839997Y-76800822D03*
X108299997Y-76800822D03*
X105759997Y-76800822D03*
X103219998Y-76800822D03*
X100679997Y-76800822D03*
X98139997Y-76800822D03*
X95599997Y-76800822D03*
X93059998Y-76800822D03*
X90519996Y-76800822D03*
X87979997Y-76800822D03*
X85439997Y-76800822D03*
X82899997Y-76800822D03*
X80359996Y-76800822D03*
%TD*%
D10*
%TO.C,J7*%
X153999998Y-81900822D03*
D11*
X153999998Y-79360822D03*
X151459998Y-81900822D03*
X151459998Y-79360822D03*
X148919999Y-81900822D03*
X148919998Y-79360822D03*
X146379998Y-81900822D03*
X146379998Y-79360822D03*
X143839998Y-81900822D03*
X143839998Y-79360822D03*
X141299998Y-81900822D03*
X141299998Y-79360822D03*
X138759998Y-81900822D03*
X138759998Y-79360822D03*
X136219997Y-81900822D03*
X136219998Y-79360822D03*
X133679998Y-81900822D03*
X133679998Y-79360822D03*
X131139998Y-81900822D03*
X131139998Y-79360822D03*
X128599998Y-81900822D03*
X128599998Y-79360822D03*
X126059999Y-81900822D03*
X126059998Y-79360822D03*
X123519998Y-81900822D03*
X123519998Y-79360822D03*
X120979998Y-81900822D03*
X120979998Y-79360822D03*
X118439998Y-81900822D03*
X118439998Y-79360822D03*
X115899999Y-81900822D03*
X115899998Y-79360822D03*
X113359997Y-81900822D03*
X113359998Y-79360822D03*
X110819998Y-81900822D03*
X110819998Y-79360822D03*
X108279998Y-81900822D03*
X108279998Y-79360822D03*
X105739998Y-81900822D03*
X105739998Y-79360822D03*
X103199999Y-81900822D03*
X103199998Y-79360822D03*
X100659998Y-81900822D03*
X100659998Y-79360822D03*
X98119998Y-81900822D03*
X98119998Y-79360822D03*
X95579998Y-81900822D03*
X95579998Y-79360822D03*
X93039999Y-81900822D03*
X93039998Y-79360822D03*
X90499997Y-81900822D03*
X90499998Y-79360822D03*
X87959998Y-81900822D03*
X87959998Y-79360822D03*
X85419998Y-81900822D03*
X85419998Y-79360822D03*
X82879998Y-81900822D03*
X82879998Y-79360822D03*
X80339997Y-81900822D03*
X80339998Y-79360822D03*
%TD*%
D10*
%TO.C,J3*%
X154019997Y-56800822D03*
D11*
X151479997Y-56800822D03*
X148939998Y-56800822D03*
X146399997Y-56800822D03*
X143859997Y-56800822D03*
X141319997Y-56800822D03*
X138779997Y-56800822D03*
X136239996Y-56800822D03*
X133699997Y-56800822D03*
X131159997Y-56800822D03*
X128619997Y-56800822D03*
X126079998Y-56800822D03*
X123539997Y-56800822D03*
X120999997Y-56800822D03*
X118459997Y-56800822D03*
X115919998Y-56800822D03*
X113379996Y-56800822D03*
X110839997Y-56800822D03*
X108299997Y-56800822D03*
X105759997Y-56800822D03*
X103219998Y-56800822D03*
X100679997Y-56800822D03*
X98139997Y-56800822D03*
X95599997Y-56800822D03*
X93059998Y-56800822D03*
X90519996Y-56800822D03*
X87979997Y-56800822D03*
X85439997Y-56800822D03*
X82899997Y-56800822D03*
X80359996Y-56800822D03*
%TD*%
D10*
%TO.C,J6*%
X153999998Y-61900822D03*
D11*
X153999998Y-59360822D03*
X151459998Y-61900822D03*
X151459998Y-59360822D03*
X148919999Y-61900822D03*
X148919998Y-59360822D03*
X146379998Y-61900822D03*
X146379998Y-59360822D03*
X143839998Y-61900822D03*
X143839998Y-59360822D03*
X141299998Y-61900822D03*
X141299998Y-59360822D03*
X138759998Y-61900822D03*
X138759998Y-59360822D03*
X136219997Y-61900822D03*
X136219998Y-59360822D03*
X133679998Y-61900822D03*
X133679998Y-59360822D03*
X131139998Y-61900822D03*
X131139998Y-59360822D03*
X128599998Y-61900822D03*
X128599998Y-59360822D03*
X126059999Y-61900822D03*
X126059998Y-59360822D03*
X123519998Y-61900822D03*
X123519998Y-59360822D03*
X120979998Y-61900822D03*
X120979998Y-59360822D03*
X118439998Y-61900822D03*
X118439998Y-59360822D03*
X115899999Y-61900822D03*
X115899998Y-59360822D03*
X113359997Y-61900822D03*
X113359998Y-59360822D03*
X110819998Y-61900822D03*
X110819998Y-59360822D03*
X108279998Y-61900822D03*
X108279998Y-59360822D03*
X105739998Y-61900822D03*
X105739998Y-59360822D03*
X103199999Y-61900822D03*
X103199998Y-59360822D03*
X100659998Y-61900822D03*
X100659998Y-59360822D03*
X98119998Y-61900822D03*
X98119998Y-59360822D03*
X95579998Y-61900822D03*
X95579998Y-59360822D03*
X93039999Y-61900822D03*
X93039998Y-59360822D03*
X90499997Y-61900822D03*
X90499998Y-59360822D03*
X87959998Y-61900822D03*
X87959998Y-59360822D03*
X85419998Y-61900822D03*
X85419998Y-59360822D03*
X82879998Y-61900822D03*
X82879998Y-59360822D03*
X80339997Y-61900822D03*
X80339998Y-59360822D03*
%TD*%
D10*
%TO.C,J5*%
X153999998Y-141900822D03*
D11*
X153999998Y-139360822D03*
X151459998Y-141900822D03*
X151459998Y-139360822D03*
X148919999Y-141900822D03*
X148919998Y-139360822D03*
X146379998Y-141900822D03*
X146379998Y-139360822D03*
X143839998Y-141900822D03*
X143839998Y-139360822D03*
X141299998Y-141900822D03*
X141299998Y-139360822D03*
X138759998Y-141900822D03*
X138759998Y-139360822D03*
X136219997Y-141900822D03*
X136219998Y-139360822D03*
X133679998Y-141900822D03*
X133679998Y-139360822D03*
X131139998Y-141900822D03*
X131139998Y-139360822D03*
X128599998Y-141900822D03*
X128599998Y-139360822D03*
X126059999Y-141900822D03*
X126059998Y-139360822D03*
X123519998Y-141900822D03*
X123519998Y-139360822D03*
X120979998Y-141900822D03*
X120979998Y-139360822D03*
X118439998Y-141900822D03*
X118439998Y-139360822D03*
X115899999Y-141900822D03*
X115899998Y-139360822D03*
X113359997Y-141900822D03*
X113359998Y-139360822D03*
X110819998Y-141900822D03*
X110819998Y-139360822D03*
X108279998Y-141900822D03*
X108279998Y-139360822D03*
X105739998Y-141900822D03*
X105739998Y-139360822D03*
X103199999Y-141900822D03*
X103199998Y-139360822D03*
X100659998Y-141900822D03*
X100659998Y-139360822D03*
X98119998Y-141900822D03*
X98119998Y-139360822D03*
X95579998Y-141900822D03*
X95579998Y-139360822D03*
X93039999Y-141900822D03*
X93039998Y-139360822D03*
X90499997Y-141900822D03*
X90499998Y-139360822D03*
X87959998Y-141900822D03*
X87959998Y-139360822D03*
X85419998Y-141900822D03*
X85419998Y-139360822D03*
X82879998Y-141900822D03*
X82879998Y-139360822D03*
X80339997Y-141900822D03*
X80339998Y-139360822D03*
%TD*%
D10*
%TO.C,J2*%
X154019997Y-136800822D03*
D11*
X151479997Y-136800822D03*
X148939998Y-136800822D03*
X146399997Y-136800822D03*
X143859997Y-136800822D03*
X141319997Y-136800822D03*
X138779997Y-136800822D03*
X136239996Y-136800822D03*
X133699997Y-136800822D03*
X131159997Y-136800822D03*
X128619997Y-136800822D03*
X126079998Y-136800822D03*
X123539997Y-136800822D03*
X120999997Y-136800822D03*
X118459997Y-136800822D03*
X115919998Y-136800822D03*
X113379996Y-136800822D03*
X110839997Y-136800822D03*
X108299997Y-136800822D03*
X105759997Y-136800822D03*
X103219998Y-136800822D03*
X100679997Y-136800822D03*
X98139997Y-136800822D03*
X95599997Y-136800822D03*
X93059998Y-136800822D03*
X90519996Y-136800822D03*
X87979997Y-136800822D03*
X85439997Y-136800822D03*
X82899997Y-136800822D03*
X80359996Y-136800822D03*
%TD*%
M02*
