%TF.GenerationSoftware,KiCad,Pcbnew,9.0.4*%
%TF.CreationDate,2025-12-18T23:17:54-05:00*%
%TF.ProjectId,Mess-Breakout+Perf,4d657373-2d42-4726-9561-6b6f75742b50,rev?*%
%TF.SameCoordinates,Original*%
%TF.FileFunction,Plated,1,2,PTH,Drill*%
%TF.FilePolarity,Positive*%
%FSLAX46Y46*%
G04 Gerber Fmt 4.6, Leading zero omitted, Abs format (unit mm)*
G04 Created by KiCad (PCBNEW 9.0.4) date 2025-12-18 23:17:54*
%MOMM*%
%LPD*%
G01*
G04 APERTURE LIST*
%TA.AperFunction,ViaDrill*%
%ADD10C,0.300000*%
%TD*%
%TA.AperFunction,ComponentDrill*%
%ADD11C,1.000000*%
%TD*%
G04 APERTURE END LIST*
D10*
X95637901Y-58700000D03*
X96137900Y-153500000D03*
X96637899Y-146850001D03*
X96637899Y-150850001D03*
X96637900Y-56161001D03*
X96637900Y-60100000D03*
X96637900Y-64100000D03*
X98637900Y-56161001D03*
X98637900Y-60100001D03*
X98637900Y-64100000D03*
X98637900Y-146850000D03*
X98637900Y-150750000D03*
X100637900Y-56161001D03*
X100637900Y-60200000D03*
X100637900Y-64100000D03*
X100637900Y-146849999D03*
X100637900Y-150750000D03*
X102537900Y-149900000D03*
X102637899Y-146850001D03*
X102637900Y-56161001D03*
X102637900Y-60100001D03*
X102637900Y-64100000D03*
X104737900Y-59300000D03*
X105237900Y-66700000D03*
X105237901Y-91400000D03*
X105537900Y-148700000D03*
X105660900Y-57300000D03*
X105937900Y-75000000D03*
X105937900Y-83600000D03*
X105937900Y-134500001D03*
X106137900Y-141800000D03*
X107137900Y-60100000D03*
X107137900Y-64100000D03*
X107137900Y-68200000D03*
X107137900Y-72200000D03*
X107137900Y-76100001D03*
X107137900Y-80100000D03*
X107137900Y-84000000D03*
X107137900Y-88000000D03*
X107137900Y-91800000D03*
X107137900Y-95700001D03*
X107137900Y-99700001D03*
X107137900Y-103600000D03*
X107137900Y-107600000D03*
X107137900Y-111500000D03*
X107137900Y-115400000D03*
X107137900Y-119300001D03*
X107137900Y-123200000D03*
X107137900Y-127100001D03*
X107137900Y-131100001D03*
X107137900Y-138900001D03*
X107137900Y-142800000D03*
X107137900Y-146800000D03*
X107137900Y-150700001D03*
X107637900Y-135000000D03*
X108487899Y-57049999D03*
X108937900Y-60100000D03*
X108937900Y-64000001D03*
X108937900Y-76100001D03*
X108937900Y-80100000D03*
X108937900Y-84000000D03*
X108937900Y-91800000D03*
X108937900Y-99700001D03*
X108937900Y-103600000D03*
X108937900Y-111500000D03*
X108937900Y-115400000D03*
X108937900Y-119300001D03*
X108937900Y-123200000D03*
X108937900Y-131100001D03*
X108937900Y-135000000D03*
X108937900Y-142800000D03*
X108937900Y-146800000D03*
X108937901Y-68100000D03*
X108937901Y-72100000D03*
X108937901Y-88000000D03*
X108937901Y-95700000D03*
X108937901Y-107600000D03*
X108937901Y-127100000D03*
X108937901Y-138900000D03*
X108937901Y-150700000D03*
X109937900Y-56500000D03*
X110937900Y-60100000D03*
X110937900Y-64100000D03*
X110937900Y-68100000D03*
X110937900Y-72100000D03*
X110937900Y-76100000D03*
X110937900Y-80200000D03*
X110937900Y-84000000D03*
X110937900Y-88000000D03*
X110937900Y-91900000D03*
X110937900Y-95800000D03*
X110937900Y-99800000D03*
X110937900Y-103700000D03*
X110937900Y-107700000D03*
X110937900Y-111600000D03*
X110937900Y-115500000D03*
X110937900Y-119400000D03*
X110937900Y-123300000D03*
X110937900Y-127200001D03*
X110937900Y-131200000D03*
X110937900Y-135100000D03*
X110937900Y-139000001D03*
X110937900Y-142900000D03*
X110937900Y-146900000D03*
X110937900Y-150800000D03*
X111937900Y-56500000D03*
X112337900Y-153899998D03*
X112937900Y-60100001D03*
X112937900Y-64100000D03*
X112937900Y-68100000D03*
X112937900Y-72100000D03*
X112937900Y-76100000D03*
X112937900Y-80100000D03*
X112937900Y-84000000D03*
X112937900Y-88000000D03*
X112937900Y-91900000D03*
X112937900Y-95800000D03*
X112937900Y-99800000D03*
X112937900Y-103700000D03*
X112937900Y-107700000D03*
X112937900Y-111600000D03*
X112937900Y-115500000D03*
X112937900Y-119400000D03*
X112937900Y-123300000D03*
X112937900Y-127200001D03*
X112937900Y-131200000D03*
X112937900Y-135100000D03*
X112937900Y-139000001D03*
X112937900Y-142900000D03*
X112937900Y-146900000D03*
X112937900Y-150700000D03*
X128637901Y-58700000D03*
X129137900Y-153500000D03*
X129637899Y-146850001D03*
X129637899Y-150850001D03*
X129637900Y-56161001D03*
X129637900Y-60100000D03*
X129637900Y-64100000D03*
X131637900Y-56161001D03*
X131637900Y-60100001D03*
X131637900Y-64100000D03*
X131637900Y-146850000D03*
X131637900Y-150750000D03*
X133637900Y-56161001D03*
X133637900Y-60200000D03*
X133637900Y-64100000D03*
X133637900Y-146849999D03*
X133637900Y-150750000D03*
X135537900Y-149900000D03*
X135637899Y-146850001D03*
X135637900Y-56161001D03*
X135637900Y-60100001D03*
X135637900Y-64100000D03*
X137737900Y-59300000D03*
X138237900Y-66700000D03*
X138237901Y-91400000D03*
X138537900Y-148700000D03*
X138660900Y-57300000D03*
X138937900Y-75000000D03*
X138937900Y-83600000D03*
X138937900Y-134500001D03*
X139137900Y-141800000D03*
X140137900Y-60100000D03*
X140137900Y-64100000D03*
X140137900Y-68200000D03*
X140137900Y-72200000D03*
X140137900Y-76100001D03*
X140137900Y-80100000D03*
X140137900Y-84000000D03*
X140137900Y-88000000D03*
X140137900Y-91800000D03*
X140137900Y-95700001D03*
X140137900Y-99700001D03*
X140137900Y-103600000D03*
X140137900Y-107600000D03*
X140137900Y-111500000D03*
X140137900Y-115400000D03*
X140137900Y-119300001D03*
X140137900Y-123200000D03*
X140137900Y-127100001D03*
X140137900Y-131100001D03*
X140137900Y-138900001D03*
X140137900Y-142800000D03*
X140137900Y-146800000D03*
X140137900Y-150700001D03*
X140637900Y-135000000D03*
X141487899Y-57049999D03*
X141937900Y-60100000D03*
X141937900Y-64000001D03*
X141937900Y-76100001D03*
X141937900Y-80100000D03*
X141937900Y-84000000D03*
X141937900Y-91800000D03*
X141937900Y-99700001D03*
X141937900Y-103600000D03*
X141937900Y-111500000D03*
X141937900Y-115400000D03*
X141937900Y-119300001D03*
X141937900Y-123200000D03*
X141937900Y-131100001D03*
X141937900Y-135000000D03*
X141937900Y-142800000D03*
X141937900Y-146800000D03*
X141937901Y-68100000D03*
X141937901Y-72100000D03*
X141937901Y-88000000D03*
X141937901Y-95700000D03*
X141937901Y-107600000D03*
X141937901Y-127100000D03*
X141937901Y-138900000D03*
X141937901Y-150700000D03*
X142937900Y-56500000D03*
X143937900Y-60100000D03*
X143937900Y-64100000D03*
X143937900Y-68100000D03*
X143937900Y-72100000D03*
X143937900Y-76100000D03*
X143937900Y-80200000D03*
X143937900Y-84000000D03*
X143937900Y-88000000D03*
X143937900Y-91900000D03*
X143937900Y-95800000D03*
X143937900Y-99800000D03*
X143937900Y-103700000D03*
X143937900Y-107700000D03*
X143937900Y-111600000D03*
X143937900Y-115500000D03*
X143937900Y-119400000D03*
X143937900Y-123300000D03*
X143937900Y-127200001D03*
X143937900Y-131200000D03*
X143937900Y-135100000D03*
X143937900Y-139000001D03*
X143937900Y-142900000D03*
X143937900Y-146900000D03*
X143937900Y-150800000D03*
X144937900Y-56500000D03*
X145337900Y-153899998D03*
X145937900Y-60100001D03*
X145937900Y-64100000D03*
X145937900Y-68100000D03*
X145937900Y-72100000D03*
X145937900Y-76100000D03*
X145937900Y-80100000D03*
X145937900Y-84000000D03*
X145937900Y-88000000D03*
X145937900Y-91900000D03*
X145937900Y-95800000D03*
X145937900Y-99800000D03*
X145937900Y-103700000D03*
X145937900Y-107700000D03*
X145937900Y-111600000D03*
X145937900Y-115500000D03*
X145937900Y-119400000D03*
X145937900Y-123300000D03*
X145937900Y-127200001D03*
X145937900Y-131200000D03*
X145937900Y-135100000D03*
X145937900Y-139000001D03*
X145937900Y-142900000D03*
X145937900Y-146900000D03*
X145937900Y-150700000D03*
X161637901Y-58700000D03*
X162137900Y-153500000D03*
X162637899Y-146850001D03*
X162637899Y-150850001D03*
X162637900Y-56161001D03*
X162637900Y-60100000D03*
X162637900Y-64100000D03*
X164637900Y-56161001D03*
X164637900Y-60100001D03*
X164637900Y-64100000D03*
X164637900Y-146850000D03*
X164637900Y-150750000D03*
X166637900Y-56161001D03*
X166637900Y-60200000D03*
X166637900Y-64100000D03*
X166637900Y-146849999D03*
X166637900Y-150750000D03*
X168537900Y-149900000D03*
X168637899Y-146850001D03*
X168637900Y-56161001D03*
X168637900Y-60100001D03*
X168637900Y-64100000D03*
X170737900Y-59300000D03*
X171237900Y-66700000D03*
X171237901Y-91400000D03*
X171537900Y-148700000D03*
X171660900Y-57300000D03*
X171937900Y-75000000D03*
X171937900Y-83600000D03*
X171937900Y-134500001D03*
X172137900Y-141800000D03*
X173137900Y-60100000D03*
X173137900Y-64100000D03*
X173137900Y-68200000D03*
X173137900Y-72200000D03*
X173137900Y-76100001D03*
X173137900Y-80100000D03*
X173137900Y-84000000D03*
X173137900Y-88000000D03*
X173137900Y-91800000D03*
X173137900Y-95700001D03*
X173137900Y-99700001D03*
X173137900Y-103600000D03*
X173137900Y-107600000D03*
X173137900Y-111500000D03*
X173137900Y-115400000D03*
X173137900Y-119300001D03*
X173137900Y-123200000D03*
X173137900Y-127100001D03*
X173137900Y-131100001D03*
X173137900Y-138900001D03*
X173137900Y-142800000D03*
X173137900Y-146800000D03*
X173137900Y-150700001D03*
X173637900Y-135000000D03*
X174487899Y-57049999D03*
X174937900Y-60100000D03*
X174937900Y-64000001D03*
X174937900Y-76100001D03*
X174937900Y-80100000D03*
X174937900Y-84000000D03*
X174937900Y-91800000D03*
X174937900Y-99700001D03*
X174937900Y-103600000D03*
X174937900Y-111500000D03*
X174937900Y-115400000D03*
X174937900Y-119300001D03*
X174937900Y-123200000D03*
X174937900Y-131100001D03*
X174937900Y-135000000D03*
X174937900Y-142800000D03*
X174937900Y-146800000D03*
X174937901Y-68100000D03*
X174937901Y-72100000D03*
X174937901Y-88000000D03*
X174937901Y-95700000D03*
X174937901Y-107600000D03*
X174937901Y-127100000D03*
X174937901Y-138900000D03*
X174937901Y-150700000D03*
X175937900Y-56500000D03*
X176937900Y-60100000D03*
X176937900Y-64100000D03*
X176937900Y-68100000D03*
X176937900Y-72100000D03*
X176937900Y-76100000D03*
X176937900Y-80200000D03*
X176937900Y-84000000D03*
X176937900Y-88000000D03*
X176937900Y-91900000D03*
X176937900Y-95800000D03*
X176937900Y-99800000D03*
X176937900Y-103700000D03*
X176937900Y-107700000D03*
X176937900Y-111600000D03*
X176937900Y-115500000D03*
X176937900Y-119400000D03*
X176937900Y-123300000D03*
X176937900Y-127200001D03*
X176937900Y-131200000D03*
X176937900Y-135100000D03*
X176937900Y-139000001D03*
X176937900Y-142900000D03*
X176937900Y-146900000D03*
X176937900Y-150800000D03*
X177937900Y-56500000D03*
X178337900Y-153899998D03*
X178937900Y-60100001D03*
X178937900Y-64100000D03*
X178937900Y-68100000D03*
X178937900Y-72100000D03*
X178937900Y-76100000D03*
X178937900Y-80100000D03*
X178937900Y-84000000D03*
X178937900Y-88000000D03*
X178937900Y-91900000D03*
X178937900Y-95800000D03*
X178937900Y-99800000D03*
X178937900Y-103700000D03*
X178937900Y-107700000D03*
X178937900Y-111600000D03*
X178937900Y-115500000D03*
X178937900Y-119400000D03*
X178937900Y-123300000D03*
X178937900Y-127200001D03*
X178937900Y-131200000D03*
X178937900Y-135100000D03*
X178937900Y-139000001D03*
X178937900Y-142900000D03*
X178937900Y-146900000D03*
X178937900Y-150700000D03*
D11*
%TO.C,J8*%
X84749723Y-57888589D03*
X84749723Y-60428589D03*
X84749723Y-62968589D03*
X84749723Y-65508589D03*
X84749723Y-68048589D03*
X84749723Y-70588589D03*
X84749723Y-73128589D03*
X84749723Y-75668589D03*
X84749723Y-78208589D03*
X84749723Y-80748589D03*
X84749723Y-83288589D03*
X84749723Y-85828589D03*
X84749723Y-88368589D03*
X84749723Y-90908589D03*
X84749723Y-93448589D03*
X84749723Y-95988589D03*
X84749723Y-98528589D03*
X84749723Y-101068589D03*
X84749723Y-103608589D03*
X84749723Y-106148589D03*
X84749723Y-108688589D03*
X84749723Y-111228589D03*
X84749723Y-113768589D03*
X84749723Y-116308589D03*
X84749723Y-118848589D03*
X84749723Y-121388589D03*
X84749723Y-123928589D03*
X84749723Y-126468589D03*
X84749723Y-129008589D03*
X84749723Y-131548589D03*
X84749723Y-134088589D03*
X84749723Y-136628589D03*
X84749723Y-139168589D03*
X84749723Y-141708589D03*
X84749723Y-144248589D03*
X84749723Y-146788589D03*
X84749723Y-149328589D03*
X84749723Y-151868589D03*
%TO.C,J7*%
X88749723Y-57888589D03*
X88749723Y-60428589D03*
X88749723Y-62968589D03*
X88749723Y-65508589D03*
X88749723Y-68048589D03*
X88749723Y-70588589D03*
X88749723Y-73128589D03*
X88749723Y-75668589D03*
X88749723Y-78208589D03*
X88749723Y-80748589D03*
X88749723Y-83288589D03*
X88749723Y-85828589D03*
X88749723Y-88368589D03*
X88749723Y-90908589D03*
X88749723Y-93448589D03*
X88749723Y-95988589D03*
X88749723Y-98528589D03*
X88749723Y-101068589D03*
X88749723Y-103608589D03*
X88749723Y-106148589D03*
X88749723Y-108688589D03*
X88749723Y-111228589D03*
X88749723Y-113768589D03*
X88749723Y-116308589D03*
X88749723Y-118848589D03*
X88749723Y-121388589D03*
X88749723Y-123928589D03*
X88749723Y-126468589D03*
X88749723Y-129008589D03*
X88749723Y-131548589D03*
X88749723Y-134088589D03*
X88749723Y-136628589D03*
X88749723Y-139168589D03*
X88749723Y-141708589D03*
X88749723Y-144248589D03*
X88749723Y-146788589D03*
X88749723Y-149328589D03*
X88749723Y-151868589D03*
X91289723Y-57888589D03*
X91289723Y-60428589D03*
X91289723Y-62968589D03*
X91289723Y-65508589D03*
X91289723Y-68048589D03*
X91289723Y-70588589D03*
X91289723Y-73128589D03*
X91289723Y-75668589D03*
X91289723Y-78208589D03*
X91289723Y-80748589D03*
X91289723Y-83288589D03*
X91289723Y-85828589D03*
X91289723Y-88368589D03*
X91289723Y-90908589D03*
X91289723Y-93448589D03*
X91289723Y-95988589D03*
X91289723Y-98528589D03*
X91289723Y-101068589D03*
X91289723Y-103608589D03*
X91289723Y-106148589D03*
X91289723Y-108688589D03*
X91289723Y-111228589D03*
X91289723Y-113768589D03*
X91289723Y-116308589D03*
X91289723Y-118848589D03*
X91289723Y-121388589D03*
X91289723Y-123928589D03*
X91289723Y-126468589D03*
X91289723Y-129008589D03*
X91289723Y-131548589D03*
X91289723Y-134088589D03*
X91289723Y-136628589D03*
X91289723Y-139168589D03*
X91289723Y-141708589D03*
X91289723Y-144248589D03*
X91289723Y-146788589D03*
X91289723Y-149328589D03*
X91289723Y-151868589D03*
%TO.C,J6*%
X97238723Y-69480001D03*
X97238723Y-72020001D03*
X97238723Y-74560000D03*
X97238723Y-77100001D03*
X97238723Y-79640001D03*
X97238723Y-82180001D03*
X97238723Y-84720001D03*
X97238723Y-87260002D03*
X97238723Y-89800001D03*
X97238723Y-92340001D03*
X97238723Y-94880001D03*
X97238723Y-97420000D03*
X97238723Y-99960001D03*
X97238723Y-102500001D03*
X97238723Y-105040001D03*
X97238723Y-107580000D03*
X97238723Y-110120002D03*
X97238723Y-112660001D03*
X97238723Y-115200001D03*
X97238723Y-117740001D03*
X97238723Y-120280000D03*
X97238723Y-122820001D03*
X97238723Y-125360001D03*
X97238723Y-127900001D03*
X97238723Y-130440000D03*
X97238723Y-132980002D03*
X97238723Y-135520001D03*
X97238723Y-138060001D03*
X97238723Y-140600001D03*
X97238723Y-143140002D03*
%TO.C,J9*%
X99798723Y-69500000D03*
X99798723Y-72040000D03*
X99798723Y-74580000D03*
X99798723Y-77120000D03*
X99798723Y-79660000D03*
X99798723Y-82200000D03*
X99798723Y-84740000D03*
X99798723Y-87280000D03*
X99798723Y-89820000D03*
X99798723Y-92360000D03*
X99798723Y-94900000D03*
X99798723Y-97440000D03*
X99798723Y-99980000D03*
X99798723Y-102520000D03*
X99798723Y-105060000D03*
X99798723Y-107600000D03*
X99798723Y-110140000D03*
X99798723Y-112680000D03*
X99798723Y-115220000D03*
X99798723Y-117760000D03*
X99798723Y-120300000D03*
X99798723Y-122840000D03*
X99798723Y-125380000D03*
X99798723Y-127920000D03*
X99798723Y-130460000D03*
X99798723Y-133000000D03*
X99798723Y-135540000D03*
X99798723Y-138080000D03*
X99798723Y-140620000D03*
X99798723Y-143160000D03*
X102338723Y-69500000D03*
X102338723Y-72040000D03*
X102338723Y-74579999D03*
X102338723Y-77120000D03*
X102338723Y-79660000D03*
X102338723Y-82200000D03*
X102338723Y-84740000D03*
X102338723Y-87280001D03*
X102338723Y-89820000D03*
X102338723Y-92360000D03*
X102338723Y-94900000D03*
X102338723Y-97439999D03*
X102338723Y-99980000D03*
X102338723Y-102520000D03*
X102338723Y-105060000D03*
X102338723Y-107599999D03*
X102338723Y-110140001D03*
X102338723Y-112680000D03*
X102338723Y-115220000D03*
X102338723Y-117760000D03*
X102338723Y-120299999D03*
X102338723Y-122840000D03*
X102338723Y-125380000D03*
X102338723Y-127920000D03*
X102338723Y-130459999D03*
X102338723Y-133000001D03*
X102338723Y-135540000D03*
X102338723Y-138080000D03*
X102338723Y-140620000D03*
X102338723Y-143160001D03*
%TO.C,J12*%
X117749723Y-57888589D03*
X117749723Y-60428589D03*
X117749723Y-62968589D03*
X117749723Y-65508589D03*
X117749723Y-68048589D03*
X117749723Y-70588589D03*
X117749723Y-73128589D03*
X117749723Y-75668589D03*
X117749723Y-78208589D03*
X117749723Y-80748589D03*
X117749723Y-83288589D03*
X117749723Y-85828589D03*
X117749723Y-88368589D03*
X117749723Y-90908589D03*
X117749723Y-93448589D03*
X117749723Y-95988589D03*
X117749723Y-98528589D03*
X117749723Y-101068589D03*
X117749723Y-103608589D03*
X117749723Y-106148589D03*
X117749723Y-108688589D03*
X117749723Y-111228589D03*
X117749723Y-113768589D03*
X117749723Y-116308589D03*
X117749723Y-118848589D03*
X117749723Y-121388589D03*
X117749723Y-123928589D03*
X117749723Y-126468589D03*
X117749723Y-129008589D03*
X117749723Y-131548589D03*
X117749723Y-134088589D03*
X117749723Y-136628589D03*
X117749723Y-139168589D03*
X117749723Y-141708589D03*
X117749723Y-144248589D03*
X117749723Y-146788589D03*
X117749723Y-149328589D03*
X117749723Y-151868589D03*
%TO.C,J11*%
X121749723Y-57888589D03*
X121749723Y-60428589D03*
X121749723Y-62968589D03*
X121749723Y-65508589D03*
X121749723Y-68048589D03*
X121749723Y-70588589D03*
X121749723Y-73128589D03*
X121749723Y-75668589D03*
X121749723Y-78208589D03*
X121749723Y-80748589D03*
X121749723Y-83288589D03*
X121749723Y-85828589D03*
X121749723Y-88368589D03*
X121749723Y-90908589D03*
X121749723Y-93448589D03*
X121749723Y-95988589D03*
X121749723Y-98528589D03*
X121749723Y-101068589D03*
X121749723Y-103608589D03*
X121749723Y-106148589D03*
X121749723Y-108688589D03*
X121749723Y-111228589D03*
X121749723Y-113768589D03*
X121749723Y-116308589D03*
X121749723Y-118848589D03*
X121749723Y-121388589D03*
X121749723Y-123928589D03*
X121749723Y-126468589D03*
X121749723Y-129008589D03*
X121749723Y-131548589D03*
X121749723Y-134088589D03*
X121749723Y-136628589D03*
X121749723Y-139168589D03*
X121749723Y-141708589D03*
X121749723Y-144248589D03*
X121749723Y-146788589D03*
X121749723Y-149328589D03*
X121749723Y-151868589D03*
X124289723Y-57888589D03*
X124289723Y-60428589D03*
X124289723Y-62968589D03*
X124289723Y-65508589D03*
X124289723Y-68048589D03*
X124289723Y-70588589D03*
X124289723Y-73128589D03*
X124289723Y-75668589D03*
X124289723Y-78208589D03*
X124289723Y-80748589D03*
X124289723Y-83288589D03*
X124289723Y-85828589D03*
X124289723Y-88368589D03*
X124289723Y-90908589D03*
X124289723Y-93448589D03*
X124289723Y-95988589D03*
X124289723Y-98528589D03*
X124289723Y-101068589D03*
X124289723Y-103608589D03*
X124289723Y-106148589D03*
X124289723Y-108688589D03*
X124289723Y-111228589D03*
X124289723Y-113768589D03*
X124289723Y-116308589D03*
X124289723Y-118848589D03*
X124289723Y-121388589D03*
X124289723Y-123928589D03*
X124289723Y-126468589D03*
X124289723Y-129008589D03*
X124289723Y-131548589D03*
X124289723Y-134088589D03*
X124289723Y-136628589D03*
X124289723Y-139168589D03*
X124289723Y-141708589D03*
X124289723Y-144248589D03*
X124289723Y-146788589D03*
X124289723Y-149328589D03*
X124289723Y-151868589D03*
%TO.C,J10*%
X130238723Y-69480001D03*
X130238723Y-72020001D03*
X130238723Y-74560000D03*
X130238723Y-77100001D03*
X130238723Y-79640001D03*
X130238723Y-82180001D03*
X130238723Y-84720001D03*
X130238723Y-87260002D03*
X130238723Y-89800001D03*
X130238723Y-92340001D03*
X130238723Y-94880001D03*
X130238723Y-97420000D03*
X130238723Y-99960001D03*
X130238723Y-102500001D03*
X130238723Y-105040001D03*
X130238723Y-107580000D03*
X130238723Y-110120002D03*
X130238723Y-112660001D03*
X130238723Y-115200001D03*
X130238723Y-117740001D03*
X130238723Y-120280000D03*
X130238723Y-122820001D03*
X130238723Y-125360001D03*
X130238723Y-127900001D03*
X130238723Y-130440000D03*
X130238723Y-132980002D03*
X130238723Y-135520001D03*
X130238723Y-138060001D03*
X130238723Y-140600001D03*
X130238723Y-143140002D03*
%TO.C,J13*%
X132798723Y-69500000D03*
X132798723Y-72040000D03*
X132798723Y-74580000D03*
X132798723Y-77120000D03*
X132798723Y-79660000D03*
X132798723Y-82200000D03*
X132798723Y-84740000D03*
X132798723Y-87280000D03*
X132798723Y-89820000D03*
X132798723Y-92360000D03*
X132798723Y-94900000D03*
X132798723Y-97440000D03*
X132798723Y-99980000D03*
X132798723Y-102520000D03*
X132798723Y-105060000D03*
X132798723Y-107600000D03*
X132798723Y-110140000D03*
X132798723Y-112680000D03*
X132798723Y-115220000D03*
X132798723Y-117760000D03*
X132798723Y-120300000D03*
X132798723Y-122840000D03*
X132798723Y-125380000D03*
X132798723Y-127920000D03*
X132798723Y-130460000D03*
X132798723Y-133000000D03*
X132798723Y-135540000D03*
X132798723Y-138080000D03*
X132798723Y-140620000D03*
X132798723Y-143160000D03*
X135338723Y-69500000D03*
X135338723Y-72040000D03*
X135338723Y-74579999D03*
X135338723Y-77120000D03*
X135338723Y-79660000D03*
X135338723Y-82200000D03*
X135338723Y-84740000D03*
X135338723Y-87280001D03*
X135338723Y-89820000D03*
X135338723Y-92360000D03*
X135338723Y-94900000D03*
X135338723Y-97439999D03*
X135338723Y-99980000D03*
X135338723Y-102520000D03*
X135338723Y-105060000D03*
X135338723Y-107599999D03*
X135338723Y-110140001D03*
X135338723Y-112680000D03*
X135338723Y-115220000D03*
X135338723Y-117760000D03*
X135338723Y-120299999D03*
X135338723Y-122840000D03*
X135338723Y-125380000D03*
X135338723Y-127920000D03*
X135338723Y-130459999D03*
X135338723Y-133000001D03*
X135338723Y-135540000D03*
X135338723Y-138080000D03*
X135338723Y-140620000D03*
X135338723Y-143160001D03*
%TO.C,J4*%
X150749723Y-57888589D03*
X150749723Y-60428589D03*
X150749723Y-62968589D03*
X150749723Y-65508589D03*
X150749723Y-68048589D03*
X150749723Y-70588589D03*
X150749723Y-73128589D03*
X150749723Y-75668589D03*
X150749723Y-78208589D03*
X150749723Y-80748589D03*
X150749723Y-83288589D03*
X150749723Y-85828589D03*
X150749723Y-88368589D03*
X150749723Y-90908589D03*
X150749723Y-93448589D03*
X150749723Y-95988589D03*
X150749723Y-98528589D03*
X150749723Y-101068589D03*
X150749723Y-103608589D03*
X150749723Y-106148589D03*
X150749723Y-108688589D03*
X150749723Y-111228589D03*
X150749723Y-113768589D03*
X150749723Y-116308589D03*
X150749723Y-118848589D03*
X150749723Y-121388589D03*
X150749723Y-123928589D03*
X150749723Y-126468589D03*
X150749723Y-129008589D03*
X150749723Y-131548589D03*
X150749723Y-134088589D03*
X150749723Y-136628589D03*
X150749723Y-139168589D03*
X150749723Y-141708589D03*
X150749723Y-144248589D03*
X150749723Y-146788589D03*
X150749723Y-149328589D03*
X150749723Y-151868589D03*
%TO.C,J3*%
X154749723Y-57888589D03*
X154749723Y-60428589D03*
X154749723Y-62968589D03*
X154749723Y-65508589D03*
X154749723Y-68048589D03*
X154749723Y-70588589D03*
X154749723Y-73128589D03*
X154749723Y-75668589D03*
X154749723Y-78208589D03*
X154749723Y-80748589D03*
X154749723Y-83288589D03*
X154749723Y-85828589D03*
X154749723Y-88368589D03*
X154749723Y-90908589D03*
X154749723Y-93448589D03*
X154749723Y-95988589D03*
X154749723Y-98528589D03*
X154749723Y-101068589D03*
X154749723Y-103608589D03*
X154749723Y-106148589D03*
X154749723Y-108688589D03*
X154749723Y-111228589D03*
X154749723Y-113768589D03*
X154749723Y-116308589D03*
X154749723Y-118848589D03*
X154749723Y-121388589D03*
X154749723Y-123928589D03*
X154749723Y-126468589D03*
X154749723Y-129008589D03*
X154749723Y-131548589D03*
X154749723Y-134088589D03*
X154749723Y-136628589D03*
X154749723Y-139168589D03*
X154749723Y-141708589D03*
X154749723Y-144248589D03*
X154749723Y-146788589D03*
X154749723Y-149328589D03*
X154749723Y-151868589D03*
X157289723Y-57888589D03*
X157289723Y-60428589D03*
X157289723Y-62968589D03*
X157289723Y-65508589D03*
X157289723Y-68048589D03*
X157289723Y-70588589D03*
X157289723Y-73128589D03*
X157289723Y-75668589D03*
X157289723Y-78208589D03*
X157289723Y-80748589D03*
X157289723Y-83288589D03*
X157289723Y-85828589D03*
X157289723Y-88368589D03*
X157289723Y-90908589D03*
X157289723Y-93448589D03*
X157289723Y-95988589D03*
X157289723Y-98528589D03*
X157289723Y-101068589D03*
X157289723Y-103608589D03*
X157289723Y-106148589D03*
X157289723Y-108688589D03*
X157289723Y-111228589D03*
X157289723Y-113768589D03*
X157289723Y-116308589D03*
X157289723Y-118848589D03*
X157289723Y-121388589D03*
X157289723Y-123928589D03*
X157289723Y-126468589D03*
X157289723Y-129008589D03*
X157289723Y-131548589D03*
X157289723Y-134088589D03*
X157289723Y-136628589D03*
X157289723Y-139168589D03*
X157289723Y-141708589D03*
X157289723Y-144248589D03*
X157289723Y-146788589D03*
X157289723Y-149328589D03*
X157289723Y-151868589D03*
%TO.C,J2*%
X163238723Y-69480001D03*
X163238723Y-72020001D03*
X163238723Y-74560000D03*
X163238723Y-77100001D03*
X163238723Y-79640001D03*
X163238723Y-82180001D03*
X163238723Y-84720001D03*
X163238723Y-87260002D03*
X163238723Y-89800001D03*
X163238723Y-92340001D03*
X163238723Y-94880001D03*
X163238723Y-97420000D03*
X163238723Y-99960001D03*
X163238723Y-102500001D03*
X163238723Y-105040001D03*
X163238723Y-107580000D03*
X163238723Y-110120002D03*
X163238723Y-112660001D03*
X163238723Y-115200001D03*
X163238723Y-117740001D03*
X163238723Y-120280000D03*
X163238723Y-122820001D03*
X163238723Y-125360001D03*
X163238723Y-127900001D03*
X163238723Y-130440000D03*
X163238723Y-132980002D03*
X163238723Y-135520001D03*
X163238723Y-138060001D03*
X163238723Y-140600001D03*
X163238723Y-143140002D03*
%TO.C,J5*%
X165798723Y-69500000D03*
X165798723Y-72040000D03*
X165798723Y-74580000D03*
X165798723Y-77120000D03*
X165798723Y-79660000D03*
X165798723Y-82200000D03*
X165798723Y-84740000D03*
X165798723Y-87280000D03*
X165798723Y-89820000D03*
X165798723Y-92360000D03*
X165798723Y-94900000D03*
X165798723Y-97440000D03*
X165798723Y-99980000D03*
X165798723Y-102520000D03*
X165798723Y-105060000D03*
X165798723Y-107600000D03*
X165798723Y-110140000D03*
X165798723Y-112680000D03*
X165798723Y-115220000D03*
X165798723Y-117760000D03*
X165798723Y-120300000D03*
X165798723Y-122840000D03*
X165798723Y-125380000D03*
X165798723Y-127920000D03*
X165798723Y-130460000D03*
X165798723Y-133000000D03*
X165798723Y-135540000D03*
X165798723Y-138080000D03*
X165798723Y-140620000D03*
X165798723Y-143160000D03*
X168338723Y-69500000D03*
X168338723Y-72040000D03*
X168338723Y-74579999D03*
X168338723Y-77120000D03*
X168338723Y-79660000D03*
X168338723Y-82200000D03*
X168338723Y-84740000D03*
X168338723Y-87280001D03*
X168338723Y-89820000D03*
X168338723Y-92360000D03*
X168338723Y-94900000D03*
X168338723Y-97439999D03*
X168338723Y-99980000D03*
X168338723Y-102520000D03*
X168338723Y-105060000D03*
X168338723Y-107599999D03*
X168338723Y-110140001D03*
X168338723Y-112680000D03*
X168338723Y-115220000D03*
X168338723Y-117760000D03*
X168338723Y-120299999D03*
X168338723Y-122840000D03*
X168338723Y-125380000D03*
X168338723Y-127920000D03*
X168338723Y-130459999D03*
X168338723Y-133000001D03*
X168338723Y-135540000D03*
X168338723Y-138080000D03*
X168338723Y-140620000D03*
X168338723Y-143160001D03*
M02*
