%TF.GenerationSoftware,KiCad,Pcbnew,9.0.4*%
%TF.CreationDate,2025-12-18T23:17:51-05:00*%
%TF.ProjectId,Mess-Breakout+Perf,4d657373-2d42-4726-9561-6b6f75742b50,rev?*%
%TF.SameCoordinates,Original*%
%TF.FileFunction,Copper,L1,Top*%
%TF.FilePolarity,Positive*%
%FSLAX46Y46*%
G04 Gerber Fmt 4.6, Leading zero omitted, Abs format (unit mm)*
G04 Created by KiCad (PCBNEW 9.0.4) date 2025-12-18 23:17:51*
%MOMM*%
%LPD*%
G01*
G04 APERTURE LIST*
G04 Aperture macros list*
%AMFreePoly0*
4,1,23,0.450000,-0.550000,-0.100000,-0.550000,-0.100000,-0.547433,-0.139158,-0.547433,-0.214805,-0.527164,-0.282628,-0.488006,-0.338006,-0.432628,-0.377164,-0.364805,-0.397433,-0.289158,-0.397433,-0.250000,-0.400000,-0.250000,-0.400000,0.250000,-0.397433,0.250000,-0.397433,0.289158,-0.377164,0.364805,-0.338006,0.432628,-0.282628,0.488006,-0.214805,0.527164,-0.139158,0.547433,-0.100000,0.547433,
-0.100000,0.550000,0.450000,0.550000,0.450000,-0.550000,0.450000,-0.550000,$1*%
%AMFreePoly1*
4,1,23,0.100000,0.547433,0.139158,0.547433,0.214805,0.527164,0.282628,0.488006,0.338006,0.432628,0.377164,0.364805,0.397433,0.289158,0.397433,0.250000,0.400000,0.250000,0.400000,-0.250000,0.397433,-0.250000,0.397433,-0.289158,0.377164,-0.364805,0.338006,-0.432628,0.282628,-0.488006,0.214805,-0.527164,0.139158,-0.547433,0.100000,-0.547433,0.100000,-0.550000,-0.450000,-0.550000,
-0.450000,0.550000,0.100000,0.550000,0.100000,0.547433,0.100000,0.547433,$1*%
G04 Aperture macros list end*
%TA.AperFunction,SMDPad,CuDef*%
%ADD10R,7.100000X0.900000*%
%TD*%
%TA.AperFunction,SMDPad,CuDef*%
%ADD11R,1.100000X0.750000*%
%TD*%
%TA.AperFunction,SMDPad,CuDef*%
%ADD12FreePoly0,270.000000*%
%TD*%
%TA.AperFunction,SMDPad,CuDef*%
%ADD13FreePoly1,90.000000*%
%TD*%
%TA.AperFunction,ComponentPad*%
%ADD14R,1.700000X1.700000*%
%TD*%
%TA.AperFunction,ComponentPad*%
%ADD15C,1.700000*%
%TD*%
%TA.AperFunction,ViaPad*%
%ADD16C,0.600000*%
%TD*%
%TA.AperFunction,Conductor*%
%ADD17C,0.800000*%
%TD*%
%TA.AperFunction,Conductor*%
%ADD18C,1.000000*%
%TD*%
%TA.AperFunction,Conductor*%
%ADD19C,0.400000*%
%TD*%
%TA.AperFunction,Conductor*%
%ADD20C,0.500000*%
%TD*%
G04 APERTURE END LIST*
D10*
%TO.P,P75,0,C*%
%TO.N,P15*%
X142937900Y-101950001D03*
D11*
X139937900Y-101700001D03*
X141937900Y-101700001D03*
X143937900Y-101700001D03*
X145937900Y-101700001D03*
D12*
%TO.P,P75,1,B*%
%TO.N,/JA1*%
X139937900Y-100700002D03*
D13*
%TO.P,P75,2,B*%
%TO.N,/JA2*%
X141937900Y-100700001D03*
D12*
%TO.P,P75,3,B*%
%TO.N,/JA3*%
X143937901Y-100700001D03*
D13*
%TO.P,P75,4,B*%
%TO.N,/JA4*%
X145937900Y-100700001D03*
%TD*%
D10*
%TO.P,P71,0,C*%
%TO.N,P11*%
X142937900Y-86200001D03*
D11*
X139937900Y-85950001D03*
X141937900Y-85950001D03*
X143937900Y-85950001D03*
X145937900Y-85950001D03*
D12*
%TO.P,P71,1,B*%
%TO.N,/JA1*%
X139937900Y-84950002D03*
D13*
%TO.P,P71,2,B*%
%TO.N,/JA2*%
X141937900Y-84950001D03*
D12*
%TO.P,P71,3,B*%
%TO.N,/JA3*%
X143937901Y-84950001D03*
D13*
%TO.P,P71,4,B*%
%TO.N,/JA4*%
X145937900Y-84950001D03*
%TD*%
D10*
%TO.P,P82,0,C*%
%TO.N,P22*%
X142937900Y-129350000D03*
D11*
X139937900Y-129100000D03*
X141937900Y-129100000D03*
X143937900Y-129100000D03*
X145937900Y-129100000D03*
D12*
%TO.P,P82,1,B*%
%TO.N,/JA1*%
X139937900Y-128100001D03*
D13*
%TO.P,P82,2,B*%
%TO.N,/JA2*%
X141937900Y-128100000D03*
D12*
%TO.P,P82,3,B*%
%TO.N,/JA3*%
X143937901Y-128100000D03*
D13*
%TO.P,P82,4,B*%
%TO.N,/JA4*%
X145937900Y-128100000D03*
%TD*%
D10*
%TO.P,P63,0,C*%
%TO.N,P3*%
X132637900Y-58050000D03*
D12*
%TO.P,P63,1,B*%
%TO.N,/JA1*%
X129637900Y-57000000D03*
D13*
%TO.P,P63,2,B*%
%TO.N,/JA2*%
X131637900Y-56999999D03*
D12*
%TO.P,P63,3,B*%
%TO.N,/JA3*%
X133637900Y-57000000D03*
D13*
%TO.P,P63,4,B*%
%TO.N,/JA4*%
X135637900Y-57000000D03*
%TD*%
D10*
%TO.P,P80,0,C*%
%TO.N,P20*%
X142937901Y-121550000D03*
D11*
X139937901Y-121300000D03*
X141937901Y-121300000D03*
X143937901Y-121300000D03*
X145937901Y-121300000D03*
D12*
%TO.P,P80,1,B*%
%TO.N,/JA1*%
X139937901Y-120300001D03*
D13*
%TO.P,P80,2,B*%
%TO.N,/JA2*%
X141937901Y-120300000D03*
D12*
%TO.P,P80,3,B*%
%TO.N,/JA3*%
X143937902Y-120300000D03*
D13*
%TO.P,P80,4,B*%
%TO.N,/JA4*%
X145937901Y-120300000D03*
%TD*%
D10*
%TO.P,P64,0,C*%
%TO.N,P4*%
X142937901Y-58300000D03*
D11*
X139937901Y-58050000D03*
X141937901Y-58050000D03*
X143937901Y-58050000D03*
X145937901Y-58050000D03*
D12*
%TO.P,P64,1,B*%
%TO.N,/JA1*%
X139937901Y-57050001D03*
D13*
%TO.P,P64,2,B*%
%TO.N,/JA2*%
X141937901Y-57050000D03*
D12*
%TO.P,P64,3,B*%
%TO.N,/JA3*%
X143937902Y-57050000D03*
D13*
%TO.P,P64,4,B*%
%TO.N,/JA4*%
X145937901Y-57050000D03*
%TD*%
D10*
%TO.P,P77,0,C*%
%TO.N,P17*%
X142937900Y-109850000D03*
D11*
X139937900Y-109600000D03*
X141937900Y-109600000D03*
X143937900Y-109600000D03*
X145937900Y-109600000D03*
D12*
%TO.P,P77,1,B*%
%TO.N,/JA1*%
X139937900Y-108600001D03*
D13*
%TO.P,P77,2,B*%
%TO.N,/JA2*%
X141937900Y-108600000D03*
D12*
%TO.P,P77,3,B*%
%TO.N,/JA3*%
X143937901Y-108600000D03*
D13*
%TO.P,P77,4,B*%
%TO.N,/JA4*%
X145937900Y-108600000D03*
%TD*%
D10*
%TO.P,P85,0,C*%
%TO.N,P25*%
X142937900Y-141150000D03*
D11*
X139937900Y-140900000D03*
X141937900Y-140900000D03*
X143937900Y-140900000D03*
X145937900Y-140900000D03*
D12*
%TO.P,P85,1,B*%
%TO.N,/JA1*%
X139937900Y-139900001D03*
D13*
%TO.P,P85,2,B*%
%TO.N,/JA2*%
X141937900Y-139900000D03*
D12*
%TO.P,P85,3,B*%
%TO.N,/JA3*%
X143937901Y-139900000D03*
D13*
%TO.P,P85,4,B*%
%TO.N,/JA4*%
X145937900Y-139900000D03*
%TD*%
D10*
%TO.P,P78,0,C*%
%TO.N,P18*%
X142937901Y-113750000D03*
D11*
X139937901Y-113500000D03*
X141937901Y-113500000D03*
X143937901Y-113500000D03*
X145937901Y-113500000D03*
D12*
%TO.P,P78,1,B*%
%TO.N,/JA1*%
X139937901Y-112500001D03*
D13*
%TO.P,P78,2,B*%
%TO.N,/JA2*%
X141937901Y-112500000D03*
D12*
%TO.P,P78,3,B*%
%TO.N,/JA3*%
X143937902Y-112500000D03*
D13*
%TO.P,P78,4,B*%
%TO.N,/JA4*%
X145937901Y-112500000D03*
%TD*%
D10*
%TO.P,P76,0,C*%
%TO.N,P16*%
X142937900Y-105850000D03*
D11*
X139937900Y-105600000D03*
X141937900Y-105600000D03*
X143937900Y-105600000D03*
X145937900Y-105600000D03*
D12*
%TO.P,P76,1,B*%
%TO.N,/JA1*%
X139937900Y-104600001D03*
D13*
%TO.P,P76,2,B*%
%TO.N,/JA2*%
X141937900Y-104600000D03*
D12*
%TO.P,P76,3,B*%
%TO.N,/JA3*%
X143937901Y-104600000D03*
D13*
%TO.P,P76,4,B*%
%TO.N,/JA4*%
X145937900Y-104600000D03*
%TD*%
D10*
%TO.P,P79,0,C*%
%TO.N,P19*%
X142937900Y-117650000D03*
D11*
X139937900Y-117400000D03*
X141937900Y-117400000D03*
X143937900Y-117400000D03*
X145937900Y-117400000D03*
D12*
%TO.P,P79,1,B*%
%TO.N,/JA1*%
X139937900Y-116400001D03*
D13*
%TO.P,P79,2,B*%
%TO.N,/JA2*%
X141937900Y-116400000D03*
D12*
%TO.P,P79,3,B*%
%TO.N,/JA3*%
X143937901Y-116400000D03*
D13*
%TO.P,P79,4,B*%
%TO.N,/JA4*%
X145937900Y-116400000D03*
%TD*%
D14*
%TO.P,J12,1,Pin_1*%
%TO.N,/B1*%
X117749723Y-57888589D03*
D15*
%TO.P,J12,2,Pin_2*%
%TO.N,/B2*%
X117749723Y-60428589D03*
%TO.P,J12,3,Pin_3*%
%TO.N,/B3*%
X117749723Y-62968589D03*
%TO.P,J12,4,Pin_4*%
%TO.N,/B4*%
X117749723Y-65508589D03*
%TO.P,J12,5,Pin_5*%
%TO.N,/B5*%
X117749723Y-68048589D03*
%TO.P,J12,6,Pin_6*%
%TO.N,/B6*%
X117749723Y-70588589D03*
%TO.P,J12,7,Pin_7*%
%TO.N,/B7*%
X117749723Y-73128589D03*
%TO.P,J12,8,Pin_8*%
%TO.N,/B8*%
X117749723Y-75668589D03*
%TO.P,J12,9,Pin_9*%
%TO.N,/B9*%
X117749723Y-78208589D03*
%TO.P,J12,10,Pin_10*%
%TO.N,/B10*%
X117749723Y-80748589D03*
%TO.P,J12,11,Pin_11*%
%TO.N,/B11*%
X117749723Y-83288589D03*
%TO.P,J12,12,Pin_12*%
%TO.N,/B12*%
X117749723Y-85828589D03*
%TO.P,J12,13,Pin_13*%
%TO.N,/B13*%
X117749723Y-88368589D03*
%TO.P,J12,14,Pin_14*%
%TO.N,/B14*%
X117749723Y-90908589D03*
%TO.P,J12,15,Pin_15*%
%TO.N,/B15*%
X117749723Y-93448589D03*
%TO.P,J12,16,Pin_16*%
%TO.N,/B16*%
X117749723Y-95988589D03*
%TO.P,J12,17,Pin_17*%
%TO.N,/B17*%
X117749723Y-98528589D03*
%TO.P,J12,18,Pin_18*%
%TO.N,/B18*%
X117749723Y-101068589D03*
%TO.P,J12,19,Pin_19*%
%TO.N,/B19*%
X117749723Y-103608589D03*
%TO.P,J12,20,Pin_20*%
%TO.N,/B20*%
X117749723Y-106148589D03*
%TO.P,J12,21,Pin_21*%
%TO.N,/B21*%
X117749723Y-108688589D03*
%TO.P,J12,22,Pin_22*%
%TO.N,/B22*%
X117749723Y-111228589D03*
%TO.P,J12,23,Pin_23*%
%TO.N,/B23*%
X117749723Y-113768589D03*
%TO.P,J12,24,Pin_24*%
%TO.N,/B24*%
X117749723Y-116308589D03*
%TO.P,J12,25,Pin_25*%
%TO.N,/B25*%
X117749723Y-118848589D03*
%TO.P,J12,26,Pin_26*%
%TO.N,/B26*%
X117749723Y-121388589D03*
%TO.P,J12,27,Pin_27*%
%TO.N,/B27*%
X117749723Y-123928589D03*
%TO.P,J12,28,Pin_28*%
%TO.N,/B28*%
X117749723Y-126468589D03*
%TO.P,J12,29,Pin_29*%
%TO.N,/B29*%
X117749723Y-129008589D03*
%TO.P,J12,30,Pin_30*%
%TO.N,/B30*%
X117749723Y-131548589D03*
%TO.P,J12,31,Pin_31*%
%TO.N,/B31*%
X117749723Y-134088589D03*
%TO.P,J12,32,Pin_32*%
%TO.N,/B32*%
X117749723Y-136628589D03*
%TO.P,J12,33,Pin_33*%
%TO.N,/B33*%
X117749723Y-139168589D03*
%TO.P,J12,34,Pin_34*%
%TO.N,/B34*%
X117749723Y-141708589D03*
%TO.P,J12,35,Pin_35*%
%TO.N,/B35*%
X117749723Y-144248589D03*
%TO.P,J12,36,Pin_36*%
%TO.N,/B36*%
X117749723Y-146788589D03*
%TO.P,J12,37,Pin_37*%
%TO.N,/B37*%
X117749723Y-149328589D03*
%TO.P,J12,38,Pin_38*%
%TO.N,/B38*%
X117749723Y-151868589D03*
%TD*%
D10*
%TO.P,P83,0,C*%
%TO.N,P23*%
X142937901Y-133350000D03*
D11*
X139937901Y-133100000D03*
X141937901Y-133100000D03*
X143937901Y-133100000D03*
X145937901Y-133100000D03*
D12*
%TO.P,P83,1,B*%
%TO.N,/JA1*%
X139937901Y-132100001D03*
D13*
%TO.P,P83,2,B*%
%TO.N,/JA2*%
X141937901Y-132100000D03*
D12*
%TO.P,P83,3,B*%
%TO.N,/JA3*%
X143937902Y-132100000D03*
D13*
%TO.P,P83,4,B*%
%TO.N,/JA4*%
X145937901Y-132100000D03*
%TD*%
D10*
%TO.P,P70,0,C*%
%TO.N,P10*%
X142937900Y-82300000D03*
D11*
X139937900Y-82050000D03*
X141937900Y-82050000D03*
X143937900Y-82050000D03*
X145937900Y-82050000D03*
D12*
%TO.P,P70,1,B*%
%TO.N,/JA1*%
X139937900Y-81050001D03*
D13*
%TO.P,P70,2,B*%
%TO.N,/JA2*%
X141937900Y-81050000D03*
D12*
%TO.P,P70,3,B*%
%TO.N,/JA3*%
X143937901Y-81050000D03*
D13*
%TO.P,P70,4,B*%
%TO.N,/JA4*%
X145937900Y-81050000D03*
%TD*%
D10*
%TO.P,P81,0,C*%
%TO.N,P21*%
X142937900Y-125450000D03*
D11*
X139937900Y-125200000D03*
X141937900Y-125200000D03*
X143937900Y-125200000D03*
X145937900Y-125200000D03*
D12*
%TO.P,P81,1,B*%
%TO.N,/JA1*%
X139937900Y-124200001D03*
D13*
%TO.P,P81,2,B*%
%TO.N,/JA2*%
X141937900Y-124200000D03*
D12*
%TO.P,P81,3,B*%
%TO.N,/JA3*%
X143937901Y-124200000D03*
D13*
%TO.P,P81,4,B*%
%TO.N,/JA4*%
X145937900Y-124200000D03*
%TD*%
D10*
%TO.P,P67,0,C*%
%TO.N,P7*%
X142937900Y-70300000D03*
D11*
X139937900Y-70050000D03*
X141937900Y-70050000D03*
X143937900Y-70050000D03*
X145937900Y-70050000D03*
D12*
%TO.P,P67,1,B*%
%TO.N,/JA1*%
X139937900Y-69050001D03*
D13*
%TO.P,P67,2,B*%
%TO.N,/JA2*%
X141937900Y-69050000D03*
D12*
%TO.P,P67,3,B*%
%TO.N,/JA3*%
X143937901Y-69050000D03*
D13*
%TO.P,P67,4,B*%
%TO.N,/JA4*%
X145937900Y-69050000D03*
%TD*%
D14*
%TO.P,J11,1,Pin_1*%
%TO.N,/B1*%
X124289723Y-57888589D03*
D15*
%TO.P,J11,2,Pin_2*%
X121749723Y-57888589D03*
%TO.P,J11,3,Pin_3*%
%TO.N,/B2*%
X124289723Y-60428589D03*
%TO.P,J11,4,Pin_4*%
X121749723Y-60428589D03*
%TO.P,J11,5,Pin_5*%
%TO.N,/B3*%
X124289723Y-62968589D03*
%TO.P,J11,6,Pin_6*%
X121749723Y-62968589D03*
%TO.P,J11,7,Pin_7*%
%TO.N,/B4*%
X124289723Y-65508589D03*
%TO.P,J11,8,Pin_8*%
X121749723Y-65508589D03*
%TO.P,J11,9,Pin_9*%
%TO.N,/B5*%
X124289723Y-68048589D03*
%TO.P,J11,10,Pin_10*%
X121749723Y-68048589D03*
%TO.P,J11,11,Pin_11*%
%TO.N,/B6*%
X124289723Y-70588589D03*
%TO.P,J11,12,Pin_12*%
X121749723Y-70588589D03*
%TO.P,J11,13,Pin_13*%
%TO.N,/B7*%
X124289723Y-73128589D03*
%TO.P,J11,14,Pin_14*%
X121749723Y-73128589D03*
%TO.P,J11,15,Pin_15*%
%TO.N,/B8*%
X124289723Y-75668589D03*
%TO.P,J11,16,Pin_16*%
X121749723Y-75668589D03*
%TO.P,J11,17,Pin_17*%
%TO.N,/B9*%
X124289723Y-78208589D03*
%TO.P,J11,18,Pin_18*%
X121749723Y-78208589D03*
%TO.P,J11,19,Pin_19*%
%TO.N,/B10*%
X124289723Y-80748589D03*
%TO.P,J11,20,Pin_20*%
X121749723Y-80748589D03*
%TO.P,J11,21,Pin_21*%
%TO.N,/B11*%
X124289723Y-83288589D03*
%TO.P,J11,22,Pin_22*%
X121749723Y-83288589D03*
%TO.P,J11,23,Pin_23*%
%TO.N,/B12*%
X124289723Y-85828589D03*
%TO.P,J11,24,Pin_24*%
X121749723Y-85828589D03*
%TO.P,J11,25,Pin_25*%
%TO.N,/B13*%
X124289723Y-88368589D03*
%TO.P,J11,26,Pin_26*%
X121749723Y-88368589D03*
%TO.P,J11,27,Pin_27*%
%TO.N,/B14*%
X124289723Y-90908589D03*
%TO.P,J11,28,Pin_28*%
X121749723Y-90908589D03*
%TO.P,J11,29,Pin_29*%
%TO.N,/B15*%
X124289723Y-93448589D03*
%TO.P,J11,30,Pin_30*%
X121749723Y-93448589D03*
%TO.P,J11,31,Pin_31*%
%TO.N,/B16*%
X124289723Y-95988589D03*
%TO.P,J11,32,Pin_32*%
X121749723Y-95988589D03*
%TO.P,J11,33,Pin_33*%
%TO.N,/B17*%
X124289723Y-98528589D03*
%TO.P,J11,34,Pin_34*%
X121749723Y-98528589D03*
%TO.P,J11,35,Pin_35*%
%TO.N,/B18*%
X124289723Y-101068589D03*
%TO.P,J11,36,Pin_36*%
X121749723Y-101068589D03*
%TO.P,J11,37,Pin_37*%
%TO.N,/B19*%
X124289723Y-103608589D03*
%TO.P,J11,38,Pin_38*%
X121749723Y-103608589D03*
%TO.P,J11,39,Pin_39*%
%TO.N,/B20*%
X124289723Y-106148589D03*
%TO.P,J11,40,Pin_40*%
X121749723Y-106148589D03*
%TO.P,J11,41,Pin_41*%
%TO.N,/B21*%
X124289723Y-108688589D03*
%TO.P,J11,42,Pin_42*%
X121749723Y-108688589D03*
%TO.P,J11,43,Pin_43*%
%TO.N,/B22*%
X124289723Y-111228589D03*
%TO.P,J11,44,Pin_44*%
X121749723Y-111228589D03*
%TO.P,J11,45,Pin_45*%
%TO.N,/B23*%
X124289723Y-113768589D03*
%TO.P,J11,46,Pin_46*%
X121749723Y-113768589D03*
%TO.P,J11,47,Pin_47*%
%TO.N,/B24*%
X124289723Y-116308589D03*
%TO.P,J11,48,Pin_48*%
X121749723Y-116308589D03*
%TO.P,J11,49,Pin_49*%
%TO.N,/B25*%
X124289723Y-118848589D03*
%TO.P,J11,50,Pin_50*%
X121749723Y-118848589D03*
%TO.P,J11,51,Pin_51*%
%TO.N,/B26*%
X124289723Y-121388589D03*
%TO.P,J11,52,Pin_52*%
X121749723Y-121388589D03*
%TO.P,J11,53,Pin_53*%
%TO.N,/B27*%
X124289723Y-123928589D03*
%TO.P,J11,54,Pin_54*%
X121749723Y-123928589D03*
%TO.P,J11,55,Pin_55*%
%TO.N,/B28*%
X124289723Y-126468589D03*
%TO.P,J11,56,Pin_56*%
X121749723Y-126468589D03*
%TO.P,J11,57,Pin_57*%
%TO.N,/B29*%
X124289723Y-129008589D03*
%TO.P,J11,58,Pin_58*%
X121749723Y-129008589D03*
%TO.P,J11,59,Pin_59*%
%TO.N,/B30*%
X124289723Y-131548589D03*
%TO.P,J11,60,Pin_60*%
X121749723Y-131548589D03*
%TO.P,J11,61,Pin_61*%
%TO.N,/B31*%
X124289723Y-134088589D03*
%TO.P,J11,62,Pin_62*%
X121749723Y-134088589D03*
%TO.P,J11,63,Pin_63*%
%TO.N,/B32*%
X124289723Y-136628589D03*
%TO.P,J11,64,Pin_64*%
X121749723Y-136628589D03*
%TO.P,J11,65,Pin_65*%
%TO.N,/B33*%
X124289723Y-139168589D03*
%TO.P,J11,66,Pin_66*%
X121749723Y-139168589D03*
%TO.P,J11,67,Pin_67*%
%TO.N,/B34*%
X124289723Y-141708589D03*
%TO.P,J11,68,Pin_68*%
X121749723Y-141708589D03*
%TO.P,J11,69,Pin_69*%
%TO.N,/B35*%
X124289723Y-144248589D03*
%TO.P,J11,70,Pin_70*%
X121749723Y-144248589D03*
%TO.P,J11,71,Pin_71*%
%TO.N,/B36*%
X124289723Y-146788589D03*
%TO.P,J11,72,Pin_72*%
X121749723Y-146788589D03*
%TO.P,J11,73,Pin_73*%
%TO.N,/B37*%
X124289723Y-149328589D03*
%TO.P,J11,74,Pin_74*%
X121749723Y-149328589D03*
%TO.P,J11,75,Pin_75*%
%TO.N,/B38*%
X124289723Y-151868589D03*
%TO.P,J11,76,Pin_76*%
X121749723Y-151868589D03*
%TD*%
D10*
%TO.P,P61,0,C*%
%TO.N,P1*%
X132637900Y-66100000D03*
D12*
%TO.P,P61,1,B*%
%TO.N,/JA1*%
X129637900Y-65050000D03*
D13*
%TO.P,P61,2,B*%
%TO.N,/JA2*%
X131637900Y-65049999D03*
D12*
%TO.P,P61,3,B*%
%TO.N,/JA3*%
X133637900Y-65050000D03*
D13*
%TO.P,P61,4,B*%
%TO.N,/JA4*%
X135637900Y-65050000D03*
%TD*%
D10*
%TO.P,P88,0,C*%
%TO.N,P28*%
X142937900Y-152950000D03*
D11*
X139937900Y-152700000D03*
X141937900Y-152700000D03*
X143937900Y-152700000D03*
X145937900Y-152700000D03*
D12*
%TO.P,P88,1,B*%
%TO.N,/JA1*%
X139937900Y-151700001D03*
D13*
%TO.P,P88,2,B*%
%TO.N,/JA2*%
X141937900Y-151700000D03*
D12*
%TO.P,P88,3,B*%
%TO.N,/JA3*%
X143937901Y-151700000D03*
D13*
%TO.P,P88,4,B*%
%TO.N,/JA4*%
X145937900Y-151700000D03*
%TD*%
D10*
%TO.P,P72,0,C*%
%TO.N,P12*%
X142937900Y-90200000D03*
D11*
X139937900Y-89950000D03*
X141937900Y-89950000D03*
X143937900Y-89950000D03*
X145937900Y-89950000D03*
D12*
%TO.P,P72,1,B*%
%TO.N,/JA1*%
X139937900Y-88950001D03*
D13*
%TO.P,P72,2,B*%
%TO.N,/JA2*%
X141937900Y-88950000D03*
D12*
%TO.P,P72,3,B*%
%TO.N,/JA3*%
X143937901Y-88950000D03*
D13*
%TO.P,P72,4,B*%
%TO.N,/JA4*%
X145937900Y-88950000D03*
%TD*%
D10*
%TO.P,P87,0,C*%
%TO.N,P27*%
X142937900Y-149050000D03*
D11*
X139937900Y-148800000D03*
X141937900Y-148800000D03*
X143937900Y-148800000D03*
X145937900Y-148800000D03*
D12*
%TO.P,P87,1,B*%
%TO.N,/JA1*%
X139937900Y-147800001D03*
D13*
%TO.P,P87,2,B*%
%TO.N,/JA2*%
X141937900Y-147800000D03*
D12*
%TO.P,P87,3,B*%
%TO.N,/JA3*%
X143937901Y-147800000D03*
D13*
%TO.P,P87,4,B*%
%TO.N,/JA4*%
X145937900Y-147800000D03*
%TD*%
D10*
%TO.P,P74,0,C*%
%TO.N,P14*%
X142937901Y-97950000D03*
D11*
X139937901Y-97700000D03*
X141937901Y-97700000D03*
X143937901Y-97700000D03*
X145937901Y-97700000D03*
D12*
%TO.P,P74,1,B*%
%TO.N,/JA1*%
X139937901Y-96700001D03*
D13*
%TO.P,P74,2,B*%
%TO.N,/JA2*%
X141937901Y-96700000D03*
D12*
%TO.P,P74,3,B*%
%TO.N,/JA3*%
X143937902Y-96700000D03*
D13*
%TO.P,P74,4,B*%
%TO.N,/JA4*%
X145937901Y-96700000D03*
%TD*%
D10*
%TO.P,P65,0,C*%
%TO.N,P5*%
X142937900Y-62300001D03*
D11*
X139937900Y-62050001D03*
X141937900Y-62050001D03*
X143937900Y-62050001D03*
X145937900Y-62050001D03*
D12*
%TO.P,P65,1,B*%
%TO.N,/JA1*%
X139937900Y-61050002D03*
D13*
%TO.P,P65,2,B*%
%TO.N,/JA2*%
X141937900Y-61050001D03*
D12*
%TO.P,P65,3,B*%
%TO.N,/JA3*%
X143937901Y-61050001D03*
D13*
%TO.P,P65,4,B*%
%TO.N,/JA4*%
X145937900Y-61050001D03*
%TD*%
D10*
%TO.P,P62,0,C*%
%TO.N,P2*%
X132637900Y-62135000D03*
D12*
%TO.P,P62,1,B*%
%TO.N,/JA1*%
X129637900Y-61085000D03*
D13*
%TO.P,P62,2,B*%
%TO.N,/JA2*%
X131637900Y-61084999D03*
D12*
%TO.P,P62,3,B*%
%TO.N,/JA3*%
X133637900Y-61085000D03*
D13*
%TO.P,P62,4,B*%
%TO.N,/JA4*%
X135637900Y-61085000D03*
%TD*%
D10*
%TO.P,P73,0,C*%
%TO.N,P13*%
X142937900Y-94050000D03*
D11*
X139937900Y-93800000D03*
X141937900Y-93800000D03*
X143937900Y-93800000D03*
X145937900Y-93800000D03*
D12*
%TO.P,P73,1,B*%
%TO.N,/JA1*%
X139937900Y-92800001D03*
D13*
%TO.P,P73,2,B*%
%TO.N,/JA2*%
X141937900Y-92800000D03*
D12*
%TO.P,P73,3,B*%
%TO.N,/JA3*%
X143937901Y-92800000D03*
D13*
%TO.P,P73,4,B*%
%TO.N,/JA4*%
X145937900Y-92800000D03*
%TD*%
D10*
%TO.P,P89,0,C*%
%TO.N,P29*%
X132637900Y-148750000D03*
D12*
%TO.P,P89,1,B*%
%TO.N,/JA1*%
X129637900Y-147700000D03*
D13*
%TO.P,P89,2,B*%
%TO.N,/JA2*%
X131637900Y-147699999D03*
D12*
%TO.P,P89,3,B*%
%TO.N,/JA3*%
X133637900Y-147700000D03*
D13*
%TO.P,P89,4,B*%
%TO.N,/JA4*%
X135637900Y-147700000D03*
%TD*%
D10*
%TO.P,P90,0,C*%
%TO.N,P30*%
X132662899Y-152650001D03*
D12*
%TO.P,P90,1,B*%
%TO.N,/JA1*%
X129662899Y-151600001D03*
D13*
%TO.P,P90,2,B*%
%TO.N,/JA2*%
X131662899Y-151600000D03*
D12*
%TO.P,P90,3,B*%
%TO.N,/JA3*%
X133662899Y-151600001D03*
D13*
%TO.P,P90,4,B*%
%TO.N,/JA4*%
X135662899Y-151600001D03*
%TD*%
D10*
%TO.P,P66,0,C*%
%TO.N,P6*%
X142937900Y-66300000D03*
D11*
X139937900Y-66050000D03*
X141937900Y-66050000D03*
X143937900Y-66050000D03*
X145937900Y-66050000D03*
D12*
%TO.P,P66,1,B*%
%TO.N,/JA1*%
X139937900Y-65050001D03*
D13*
%TO.P,P66,2,B*%
%TO.N,/JA2*%
X141937900Y-65050000D03*
D12*
%TO.P,P66,3,B*%
%TO.N,/JA3*%
X143937901Y-65050000D03*
D13*
%TO.P,P66,4,B*%
%TO.N,/JA4*%
X145937900Y-65050000D03*
%TD*%
D14*
%TO.P,J13,1,Pin_1*%
%TO.N,P1*%
X135338723Y-69500000D03*
D15*
%TO.P,J13,2,Pin_2*%
X132798723Y-69500000D03*
%TO.P,J13,3,Pin_3*%
%TO.N,P2*%
X135338723Y-72040000D03*
%TO.P,J13,4,Pin_4*%
X132798723Y-72040000D03*
%TO.P,J13,5,Pin_5*%
%TO.N,P3*%
X135338723Y-74579999D03*
%TO.P,J13,6,Pin_6*%
X132798723Y-74580000D03*
%TO.P,J13,7,Pin_7*%
%TO.N,P4*%
X135338723Y-77120000D03*
%TO.P,J13,8,Pin_8*%
X132798723Y-77120000D03*
%TO.P,J13,9,Pin_9*%
%TO.N,P5*%
X135338723Y-79660000D03*
%TO.P,J13,10,Pin_10*%
X132798723Y-79660000D03*
%TO.P,J13,11,Pin_11*%
%TO.N,P6*%
X135338723Y-82200000D03*
%TO.P,J13,12,Pin_12*%
X132798723Y-82200000D03*
%TO.P,J13,13,Pin_13*%
%TO.N,P7*%
X135338723Y-84740000D03*
%TO.P,J13,14,Pin_14*%
X132798723Y-84740000D03*
%TO.P,J13,15,Pin_15*%
%TO.N,P8*%
X135338723Y-87280001D03*
%TO.P,J13,16,Pin_16*%
X132798723Y-87280000D03*
%TO.P,J13,17,Pin_17*%
%TO.N,P9*%
X135338723Y-89820000D03*
%TO.P,J13,18,Pin_18*%
X132798723Y-89820000D03*
%TO.P,J13,19,Pin_19*%
%TO.N,P10*%
X135338723Y-92360000D03*
%TO.P,J13,20,Pin_20*%
X132798723Y-92360000D03*
%TO.P,J13,21,Pin_21*%
%TO.N,P11*%
X135338723Y-94900000D03*
%TO.P,J13,22,Pin_22*%
X132798723Y-94900000D03*
%TO.P,J13,23,Pin_23*%
%TO.N,P12*%
X135338723Y-97439999D03*
%TO.P,J13,24,Pin_24*%
X132798723Y-97440000D03*
%TO.P,J13,25,Pin_25*%
%TO.N,P13*%
X135338723Y-99980000D03*
%TO.P,J13,26,Pin_26*%
X132798723Y-99980000D03*
%TO.P,J13,27,Pin_27*%
%TO.N,P14*%
X135338723Y-102520000D03*
%TO.P,J13,28,Pin_28*%
X132798723Y-102520000D03*
%TO.P,J13,29,Pin_29*%
%TO.N,P15*%
X135338723Y-105060000D03*
%TO.P,J13,30,Pin_30*%
X132798723Y-105060000D03*
%TO.P,J13,31,Pin_31*%
%TO.N,P16*%
X135338723Y-107599999D03*
%TO.P,J13,32,Pin_32*%
X132798723Y-107600000D03*
%TO.P,J13,33,Pin_33*%
%TO.N,P17*%
X135338723Y-110140001D03*
%TO.P,J13,34,Pin_34*%
X132798723Y-110140000D03*
%TO.P,J13,35,Pin_35*%
%TO.N,P18*%
X135338723Y-112680000D03*
%TO.P,J13,36,Pin_36*%
X132798723Y-112680000D03*
%TO.P,J13,37,Pin_37*%
%TO.N,P19*%
X135338723Y-115220000D03*
%TO.P,J13,38,Pin_38*%
X132798723Y-115220000D03*
%TO.P,J13,39,Pin_39*%
%TO.N,P20*%
X135338723Y-117760000D03*
%TO.P,J13,40,Pin_40*%
X132798723Y-117760000D03*
%TO.P,J13,41,Pin_41*%
%TO.N,P21*%
X135338723Y-120299999D03*
%TO.P,J13,42,Pin_42*%
X132798723Y-120300000D03*
%TO.P,J13,43,Pin_43*%
%TO.N,P22*%
X135338723Y-122840000D03*
%TO.P,J13,44,Pin_44*%
X132798723Y-122840000D03*
%TO.P,J13,45,Pin_45*%
%TO.N,P23*%
X135338723Y-125380000D03*
%TO.P,J13,46,Pin_46*%
X132798723Y-125380000D03*
%TO.P,J13,47,Pin_47*%
%TO.N,P24*%
X135338723Y-127920000D03*
%TO.P,J13,48,Pin_48*%
X132798723Y-127920000D03*
%TO.P,J13,49,Pin_49*%
%TO.N,P25*%
X135338723Y-130459999D03*
%TO.P,J13,50,Pin_50*%
X132798723Y-130460000D03*
%TO.P,J13,51,Pin_51*%
%TO.N,P26*%
X135338723Y-133000001D03*
%TO.P,J13,52,Pin_52*%
X132798723Y-133000000D03*
%TO.P,J13,53,Pin_53*%
%TO.N,P27*%
X135338723Y-135540000D03*
%TO.P,J13,54,Pin_54*%
X132798723Y-135540000D03*
%TO.P,J13,55,Pin_55*%
%TO.N,P28*%
X135338723Y-138080000D03*
%TO.P,J13,56,Pin_56*%
X132798723Y-138080000D03*
%TO.P,J13,57,Pin_57*%
%TO.N,P29*%
X135338723Y-140620000D03*
%TO.P,J13,58,Pin_58*%
X132798723Y-140620000D03*
%TO.P,J13,59,Pin_59*%
%TO.N,P30*%
X135338723Y-143160001D03*
%TO.P,J13,60,Pin_60*%
X132798723Y-143160000D03*
%TD*%
D14*
%TO.P,J10,1,Pin_1*%
%TO.N,P1*%
X130238723Y-69480001D03*
D15*
%TO.P,J10,2,Pin_2*%
%TO.N,P2*%
X130238723Y-72020001D03*
%TO.P,J10,3,Pin_3*%
%TO.N,P3*%
X130238723Y-74560000D03*
%TO.P,J10,4,Pin_4*%
%TO.N,P4*%
X130238723Y-77100001D03*
%TO.P,J10,5,Pin_5*%
%TO.N,P5*%
X130238723Y-79640001D03*
%TO.P,J10,6,Pin_6*%
%TO.N,P6*%
X130238723Y-82180001D03*
%TO.P,J10,7,Pin_7*%
%TO.N,P7*%
X130238723Y-84720001D03*
%TO.P,J10,8,Pin_8*%
%TO.N,P8*%
X130238723Y-87260002D03*
%TO.P,J10,9,Pin_9*%
%TO.N,P9*%
X130238723Y-89800001D03*
%TO.P,J10,10,Pin_10*%
%TO.N,P10*%
X130238723Y-92340001D03*
%TO.P,J10,11,Pin_11*%
%TO.N,P11*%
X130238723Y-94880001D03*
%TO.P,J10,12,Pin_12*%
%TO.N,P12*%
X130238723Y-97420000D03*
%TO.P,J10,13,Pin_13*%
%TO.N,P13*%
X130238723Y-99960001D03*
%TO.P,J10,14,Pin_14*%
%TO.N,P14*%
X130238723Y-102500001D03*
%TO.P,J10,15,Pin_15*%
%TO.N,P15*%
X130238723Y-105040001D03*
%TO.P,J10,16,Pin_16*%
%TO.N,P16*%
X130238723Y-107580000D03*
%TO.P,J10,17,Pin_17*%
%TO.N,P17*%
X130238723Y-110120002D03*
%TO.P,J10,18,Pin_18*%
%TO.N,P18*%
X130238723Y-112660001D03*
%TO.P,J10,19,Pin_19*%
%TO.N,P19*%
X130238723Y-115200001D03*
%TO.P,J10,20,Pin_20*%
%TO.N,P20*%
X130238723Y-117740001D03*
%TO.P,J10,21,Pin_21*%
%TO.N,P21*%
X130238723Y-120280000D03*
%TO.P,J10,22,Pin_22*%
%TO.N,P22*%
X130238723Y-122820001D03*
%TO.P,J10,23,Pin_23*%
%TO.N,P23*%
X130238723Y-125360001D03*
%TO.P,J10,24,Pin_24*%
%TO.N,P24*%
X130238723Y-127900001D03*
%TO.P,J10,25,Pin_25*%
%TO.N,P25*%
X130238723Y-130440000D03*
%TO.P,J10,26,Pin_26*%
%TO.N,P26*%
X130238723Y-132980002D03*
%TO.P,J10,27,Pin_27*%
%TO.N,P27*%
X130238723Y-135520001D03*
%TO.P,J10,28,Pin_28*%
%TO.N,P28*%
X130238723Y-138060001D03*
%TO.P,J10,29,Pin_29*%
%TO.N,P29*%
X130238723Y-140600001D03*
%TO.P,J10,30,Pin_30*%
%TO.N,P30*%
X130238723Y-143140002D03*
%TD*%
D10*
%TO.P,P68,0,C*%
%TO.N,P8*%
X142937900Y-74300000D03*
D11*
X139937900Y-74050000D03*
X141937900Y-74050000D03*
X143937900Y-74050000D03*
X145937900Y-74050000D03*
D12*
%TO.P,P68,1,B*%
%TO.N,/JA1*%
X139937900Y-73050001D03*
D13*
%TO.P,P68,2,B*%
%TO.N,/JA2*%
X141937900Y-73050000D03*
D12*
%TO.P,P68,3,B*%
%TO.N,/JA3*%
X143937901Y-73050000D03*
D13*
%TO.P,P68,4,B*%
%TO.N,/JA4*%
X145937900Y-73050000D03*
%TD*%
D10*
%TO.P,P86,0,C*%
%TO.N,P26*%
X142937900Y-145050000D03*
D11*
X139937900Y-144800000D03*
X141937900Y-144800000D03*
X143937900Y-144800000D03*
X145937900Y-144800000D03*
D12*
%TO.P,P86,1,B*%
%TO.N,/JA1*%
X139937900Y-143800001D03*
D13*
%TO.P,P86,2,B*%
%TO.N,/JA2*%
X141937900Y-143800000D03*
D12*
%TO.P,P86,3,B*%
%TO.N,/JA3*%
X143937901Y-143800000D03*
D13*
%TO.P,P86,4,B*%
%TO.N,/JA4*%
X145937900Y-143800000D03*
%TD*%
D10*
%TO.P,P69,0,C*%
%TO.N,P9*%
X142937900Y-78300000D03*
D11*
X139937900Y-78050000D03*
X141937900Y-78050000D03*
X143937900Y-78050000D03*
X145937900Y-78050000D03*
D12*
%TO.P,P69,1,B*%
%TO.N,/JA1*%
X139937900Y-77050001D03*
D13*
%TO.P,P69,2,B*%
%TO.N,/JA2*%
X141937900Y-77050000D03*
D12*
%TO.P,P69,3,B*%
%TO.N,/JA3*%
X143937901Y-77050000D03*
D13*
%TO.P,P69,4,B*%
%TO.N,/JA4*%
X145937900Y-77050000D03*
%TD*%
D10*
%TO.P,P84,0,C*%
%TO.N,P24*%
X142937900Y-137250000D03*
D11*
X139937900Y-137000000D03*
X141937900Y-137000000D03*
X143937900Y-137000000D03*
X145937900Y-137000000D03*
D12*
%TO.P,P84,1,B*%
%TO.N,/JA1*%
X139937900Y-136000001D03*
D13*
%TO.P,P84,2,B*%
%TO.N,/JA2*%
X141937900Y-136000000D03*
D12*
%TO.P,P84,3,B*%
%TO.N,/JA3*%
X143937901Y-136000000D03*
D13*
%TO.P,P84,4,B*%
%TO.N,/JA4*%
X145937900Y-136000000D03*
%TD*%
D14*
%TO.P,J9,1,Pin_1*%
%TO.N,P1*%
X102338723Y-69500000D03*
D15*
%TO.P,J9,2,Pin_2*%
X99798723Y-69500000D03*
%TO.P,J9,3,Pin_3*%
%TO.N,P2*%
X102338723Y-72040000D03*
%TO.P,J9,4,Pin_4*%
X99798723Y-72040000D03*
%TO.P,J9,5,Pin_5*%
%TO.N,P3*%
X102338723Y-74579999D03*
%TO.P,J9,6,Pin_6*%
X99798723Y-74580000D03*
%TO.P,J9,7,Pin_7*%
%TO.N,P4*%
X102338723Y-77120000D03*
%TO.P,J9,8,Pin_8*%
X99798723Y-77120000D03*
%TO.P,J9,9,Pin_9*%
%TO.N,P5*%
X102338723Y-79660000D03*
%TO.P,J9,10,Pin_10*%
X99798723Y-79660000D03*
%TO.P,J9,11,Pin_11*%
%TO.N,P6*%
X102338723Y-82200000D03*
%TO.P,J9,12,Pin_12*%
X99798723Y-82200000D03*
%TO.P,J9,13,Pin_13*%
%TO.N,P7*%
X102338723Y-84740000D03*
%TO.P,J9,14,Pin_14*%
X99798723Y-84740000D03*
%TO.P,J9,15,Pin_15*%
%TO.N,P8*%
X102338723Y-87280001D03*
%TO.P,J9,16,Pin_16*%
X99798723Y-87280000D03*
%TO.P,J9,17,Pin_17*%
%TO.N,P9*%
X102338723Y-89820000D03*
%TO.P,J9,18,Pin_18*%
X99798723Y-89820000D03*
%TO.P,J9,19,Pin_19*%
%TO.N,P10*%
X102338723Y-92360000D03*
%TO.P,J9,20,Pin_20*%
X99798723Y-92360000D03*
%TO.P,J9,21,Pin_21*%
%TO.N,P11*%
X102338723Y-94900000D03*
%TO.P,J9,22,Pin_22*%
X99798723Y-94900000D03*
%TO.P,J9,23,Pin_23*%
%TO.N,P12*%
X102338723Y-97439999D03*
%TO.P,J9,24,Pin_24*%
X99798723Y-97440000D03*
%TO.P,J9,25,Pin_25*%
%TO.N,P13*%
X102338723Y-99980000D03*
%TO.P,J9,26,Pin_26*%
X99798723Y-99980000D03*
%TO.P,J9,27,Pin_27*%
%TO.N,P14*%
X102338723Y-102520000D03*
%TO.P,J9,28,Pin_28*%
X99798723Y-102520000D03*
%TO.P,J9,29,Pin_29*%
%TO.N,P15*%
X102338723Y-105060000D03*
%TO.P,J9,30,Pin_30*%
X99798723Y-105060000D03*
%TO.P,J9,31,Pin_31*%
%TO.N,P16*%
X102338723Y-107599999D03*
%TO.P,J9,32,Pin_32*%
X99798723Y-107600000D03*
%TO.P,J9,33,Pin_33*%
%TO.N,P17*%
X102338723Y-110140001D03*
%TO.P,J9,34,Pin_34*%
X99798723Y-110140000D03*
%TO.P,J9,35,Pin_35*%
%TO.N,P18*%
X102338723Y-112680000D03*
%TO.P,J9,36,Pin_36*%
X99798723Y-112680000D03*
%TO.P,J9,37,Pin_37*%
%TO.N,P19*%
X102338723Y-115220000D03*
%TO.P,J9,38,Pin_38*%
X99798723Y-115220000D03*
%TO.P,J9,39,Pin_39*%
%TO.N,P20*%
X102338723Y-117760000D03*
%TO.P,J9,40,Pin_40*%
X99798723Y-117760000D03*
%TO.P,J9,41,Pin_41*%
%TO.N,P21*%
X102338723Y-120299999D03*
%TO.P,J9,42,Pin_42*%
X99798723Y-120300000D03*
%TO.P,J9,43,Pin_43*%
%TO.N,P22*%
X102338723Y-122840000D03*
%TO.P,J9,44,Pin_44*%
X99798723Y-122840000D03*
%TO.P,J9,45,Pin_45*%
%TO.N,P23*%
X102338723Y-125380000D03*
%TO.P,J9,46,Pin_46*%
X99798723Y-125380000D03*
%TO.P,J9,47,Pin_47*%
%TO.N,P24*%
X102338723Y-127920000D03*
%TO.P,J9,48,Pin_48*%
X99798723Y-127920000D03*
%TO.P,J9,49,Pin_49*%
%TO.N,P25*%
X102338723Y-130459999D03*
%TO.P,J9,50,Pin_50*%
X99798723Y-130460000D03*
%TO.P,J9,51,Pin_51*%
%TO.N,P26*%
X102338723Y-133000001D03*
%TO.P,J9,52,Pin_52*%
X99798723Y-133000000D03*
%TO.P,J9,53,Pin_53*%
%TO.N,P27*%
X102338723Y-135540000D03*
%TO.P,J9,54,Pin_54*%
X99798723Y-135540000D03*
%TO.P,J9,55,Pin_55*%
%TO.N,P28*%
X102338723Y-138080000D03*
%TO.P,J9,56,Pin_56*%
X99798723Y-138080000D03*
%TO.P,J9,57,Pin_57*%
%TO.N,P29*%
X102338723Y-140620000D03*
%TO.P,J9,58,Pin_58*%
X99798723Y-140620000D03*
%TO.P,J9,59,Pin_59*%
%TO.N,P30*%
X102338723Y-143160001D03*
%TO.P,J9,60,Pin_60*%
X99798723Y-143160000D03*
%TD*%
D14*
%TO.P,J6,1,Pin_1*%
%TO.N,P1*%
X97238723Y-69480001D03*
D15*
%TO.P,J6,2,Pin_2*%
%TO.N,P2*%
X97238723Y-72020001D03*
%TO.P,J6,3,Pin_3*%
%TO.N,P3*%
X97238723Y-74560000D03*
%TO.P,J6,4,Pin_4*%
%TO.N,P4*%
X97238723Y-77100001D03*
%TO.P,J6,5,Pin_5*%
%TO.N,P5*%
X97238723Y-79640001D03*
%TO.P,J6,6,Pin_6*%
%TO.N,P6*%
X97238723Y-82180001D03*
%TO.P,J6,7,Pin_7*%
%TO.N,P7*%
X97238723Y-84720001D03*
%TO.P,J6,8,Pin_8*%
%TO.N,P8*%
X97238723Y-87260002D03*
%TO.P,J6,9,Pin_9*%
%TO.N,P9*%
X97238723Y-89800001D03*
%TO.P,J6,10,Pin_10*%
%TO.N,P10*%
X97238723Y-92340001D03*
%TO.P,J6,11,Pin_11*%
%TO.N,P11*%
X97238723Y-94880001D03*
%TO.P,J6,12,Pin_12*%
%TO.N,P12*%
X97238723Y-97420000D03*
%TO.P,J6,13,Pin_13*%
%TO.N,P13*%
X97238723Y-99960001D03*
%TO.P,J6,14,Pin_14*%
%TO.N,P14*%
X97238723Y-102500001D03*
%TO.P,J6,15,Pin_15*%
%TO.N,P15*%
X97238723Y-105040001D03*
%TO.P,J6,16,Pin_16*%
%TO.N,P16*%
X97238723Y-107580000D03*
%TO.P,J6,17,Pin_17*%
%TO.N,P17*%
X97238723Y-110120002D03*
%TO.P,J6,18,Pin_18*%
%TO.N,P18*%
X97238723Y-112660001D03*
%TO.P,J6,19,Pin_19*%
%TO.N,P19*%
X97238723Y-115200001D03*
%TO.P,J6,20,Pin_20*%
%TO.N,P20*%
X97238723Y-117740001D03*
%TO.P,J6,21,Pin_21*%
%TO.N,P21*%
X97238723Y-120280000D03*
%TO.P,J6,22,Pin_22*%
%TO.N,P22*%
X97238723Y-122820001D03*
%TO.P,J6,23,Pin_23*%
%TO.N,P23*%
X97238723Y-125360001D03*
%TO.P,J6,24,Pin_24*%
%TO.N,P24*%
X97238723Y-127900001D03*
%TO.P,J6,25,Pin_25*%
%TO.N,P25*%
X97238723Y-130440000D03*
%TO.P,J6,26,Pin_26*%
%TO.N,P26*%
X97238723Y-132980002D03*
%TO.P,J6,27,Pin_27*%
%TO.N,P27*%
X97238723Y-135520001D03*
%TO.P,J6,28,Pin_28*%
%TO.N,P28*%
X97238723Y-138060001D03*
%TO.P,J6,29,Pin_29*%
%TO.N,P29*%
X97238723Y-140600001D03*
%TO.P,J6,30,Pin_30*%
%TO.N,P30*%
X97238723Y-143140002D03*
%TD*%
D10*
%TO.P,P41,0,C*%
%TO.N,P11*%
X109937900Y-86200001D03*
D11*
X106937900Y-85950001D03*
X108937900Y-85950001D03*
X110937900Y-85950001D03*
X112937900Y-85950001D03*
D12*
%TO.P,P41,1,B*%
%TO.N,/JA1*%
X106937900Y-84950002D03*
D13*
%TO.P,P41,2,B*%
%TO.N,/JA2*%
X108937900Y-84950001D03*
D12*
%TO.P,P41,3,B*%
%TO.N,/JA3*%
X110937901Y-84950001D03*
D13*
%TO.P,P41,4,B*%
%TO.N,/JA4*%
X112937900Y-84950001D03*
%TD*%
D10*
%TO.P,P52,0,C*%
%TO.N,P22*%
X109937900Y-129350000D03*
D11*
X106937900Y-129100000D03*
X108937900Y-129100000D03*
X110937900Y-129100000D03*
X112937900Y-129100000D03*
D12*
%TO.P,P52,1,B*%
%TO.N,/JA1*%
X106937900Y-128100001D03*
D13*
%TO.P,P52,2,B*%
%TO.N,/JA2*%
X108937900Y-128100000D03*
D12*
%TO.P,P52,3,B*%
%TO.N,/JA3*%
X110937901Y-128100000D03*
D13*
%TO.P,P52,4,B*%
%TO.N,/JA4*%
X112937900Y-128100000D03*
%TD*%
D10*
%TO.P,P32,0,C*%
%TO.N,P2*%
X99637900Y-62135000D03*
D12*
%TO.P,P32,1,B*%
%TO.N,/JA1*%
X96637900Y-61085000D03*
D13*
%TO.P,P32,2,B*%
%TO.N,/JA2*%
X98637900Y-61084999D03*
D12*
%TO.P,P32,3,B*%
%TO.N,/JA3*%
X100637900Y-61085000D03*
D13*
%TO.P,P32,4,B*%
%TO.N,/JA4*%
X102637900Y-61085000D03*
%TD*%
D10*
%TO.P,P33,0,C*%
%TO.N,P3*%
X99637900Y-58050000D03*
D12*
%TO.P,P33,1,B*%
%TO.N,/JA1*%
X96637900Y-57000000D03*
D13*
%TO.P,P33,2,B*%
%TO.N,/JA2*%
X98637900Y-56999999D03*
D12*
%TO.P,P33,3,B*%
%TO.N,/JA3*%
X100637900Y-57000000D03*
D13*
%TO.P,P33,4,B*%
%TO.N,/JA4*%
X102637900Y-57000000D03*
%TD*%
D10*
%TO.P,P50,0,C*%
%TO.N,P20*%
X109937901Y-121550000D03*
D11*
X106937901Y-121300000D03*
X108937901Y-121300000D03*
X110937901Y-121300000D03*
X112937901Y-121300000D03*
D12*
%TO.P,P50,1,B*%
%TO.N,/JA1*%
X106937901Y-120300001D03*
D13*
%TO.P,P50,2,B*%
%TO.N,/JA2*%
X108937901Y-120300000D03*
D12*
%TO.P,P50,3,B*%
%TO.N,/JA3*%
X110937902Y-120300000D03*
D13*
%TO.P,P50,4,B*%
%TO.N,/JA4*%
X112937901Y-120300000D03*
%TD*%
D10*
%TO.P,P34,0,C*%
%TO.N,P4*%
X109937901Y-58300000D03*
D11*
X106937901Y-58050000D03*
X108937901Y-58050000D03*
X110937901Y-58050000D03*
X112937901Y-58050000D03*
D12*
%TO.P,P34,1,B*%
%TO.N,/JA1*%
X106937901Y-57050001D03*
D13*
%TO.P,P34,2,B*%
%TO.N,/JA2*%
X108937901Y-57050000D03*
D12*
%TO.P,P34,3,B*%
%TO.N,/JA3*%
X110937902Y-57050000D03*
D13*
%TO.P,P34,4,B*%
%TO.N,/JA4*%
X112937901Y-57050000D03*
%TD*%
D10*
%TO.P,P35,0,C*%
%TO.N,P5*%
X109937900Y-62300001D03*
D11*
X106937900Y-62050001D03*
X108937900Y-62050001D03*
X110937900Y-62050001D03*
X112937900Y-62050001D03*
D12*
%TO.P,P35,1,B*%
%TO.N,/JA1*%
X106937900Y-61050002D03*
D13*
%TO.P,P35,2,B*%
%TO.N,/JA2*%
X108937900Y-61050001D03*
D12*
%TO.P,P35,3,B*%
%TO.N,/JA3*%
X110937901Y-61050001D03*
D13*
%TO.P,P35,4,B*%
%TO.N,/JA4*%
X112937900Y-61050001D03*
%TD*%
D10*
%TO.P,P55,0,C*%
%TO.N,P25*%
X109937900Y-141150000D03*
D11*
X106937900Y-140900000D03*
X108937900Y-140900000D03*
X110937900Y-140900000D03*
X112937900Y-140900000D03*
D12*
%TO.P,P55,1,B*%
%TO.N,/JA1*%
X106937900Y-139900001D03*
D13*
%TO.P,P55,2,B*%
%TO.N,/JA2*%
X108937900Y-139900000D03*
D12*
%TO.P,P55,3,B*%
%TO.N,/JA3*%
X110937901Y-139900000D03*
D13*
%TO.P,P55,4,B*%
%TO.N,/JA4*%
X112937900Y-139900000D03*
%TD*%
D10*
%TO.P,P48,0,C*%
%TO.N,P18*%
X109937901Y-113750000D03*
D11*
X106937901Y-113500000D03*
X108937901Y-113500000D03*
X110937901Y-113500000D03*
X112937901Y-113500000D03*
D12*
%TO.P,P48,1,B*%
%TO.N,/JA1*%
X106937901Y-112500001D03*
D13*
%TO.P,P48,2,B*%
%TO.N,/JA2*%
X108937901Y-112500000D03*
D12*
%TO.P,P48,3,B*%
%TO.N,/JA3*%
X110937902Y-112500000D03*
D13*
%TO.P,P48,4,B*%
%TO.N,/JA4*%
X112937901Y-112500000D03*
%TD*%
D10*
%TO.P,P49,0,C*%
%TO.N,P19*%
X109937900Y-117650000D03*
D11*
X106937900Y-117400000D03*
X108937900Y-117400000D03*
X110937900Y-117400000D03*
X112937900Y-117400000D03*
D12*
%TO.P,P49,1,B*%
%TO.N,/JA1*%
X106937900Y-116400001D03*
D13*
%TO.P,P49,2,B*%
%TO.N,/JA2*%
X108937900Y-116400000D03*
D12*
%TO.P,P49,3,B*%
%TO.N,/JA3*%
X110937901Y-116400000D03*
D13*
%TO.P,P49,4,B*%
%TO.N,/JA4*%
X112937900Y-116400000D03*
%TD*%
D10*
%TO.P,P56,0,C*%
%TO.N,P26*%
X109937900Y-145050000D03*
D11*
X106937900Y-144800000D03*
X108937900Y-144800000D03*
X110937900Y-144800000D03*
X112937900Y-144800000D03*
D12*
%TO.P,P56,1,B*%
%TO.N,/JA1*%
X106937900Y-143800001D03*
D13*
%TO.P,P56,2,B*%
%TO.N,/JA2*%
X108937900Y-143800000D03*
D12*
%TO.P,P56,3,B*%
%TO.N,/JA3*%
X110937901Y-143800000D03*
D13*
%TO.P,P56,4,B*%
%TO.N,/JA4*%
X112937900Y-143800000D03*
%TD*%
D10*
%TO.P,P51,0,C*%
%TO.N,P21*%
X109937900Y-125450000D03*
D11*
X106937900Y-125200000D03*
X108937900Y-125200000D03*
X110937900Y-125200000D03*
X112937900Y-125200000D03*
D12*
%TO.P,P51,1,B*%
%TO.N,/JA1*%
X106937900Y-124200001D03*
D13*
%TO.P,P51,2,B*%
%TO.N,/JA2*%
X108937900Y-124200000D03*
D12*
%TO.P,P51,3,B*%
%TO.N,/JA3*%
X110937901Y-124200000D03*
D13*
%TO.P,P51,4,B*%
%TO.N,/JA4*%
X112937900Y-124200000D03*
%TD*%
D10*
%TO.P,P57,0,C*%
%TO.N,P27*%
X109937900Y-149050000D03*
D11*
X106937900Y-148800000D03*
X108937900Y-148800000D03*
X110937900Y-148800000D03*
X112937900Y-148800000D03*
D12*
%TO.P,P57,1,B*%
%TO.N,/JA1*%
X106937900Y-147800001D03*
D13*
%TO.P,P57,2,B*%
%TO.N,/JA2*%
X108937900Y-147800000D03*
D12*
%TO.P,P57,3,B*%
%TO.N,/JA3*%
X110937901Y-147800000D03*
D13*
%TO.P,P57,4,B*%
%TO.N,/JA4*%
X112937900Y-147800000D03*
%TD*%
D10*
%TO.P,P43,0,C*%
%TO.N,P13*%
X109937900Y-94050000D03*
D11*
X106937900Y-93800000D03*
X108937900Y-93800000D03*
X110937900Y-93800000D03*
X112937900Y-93800000D03*
D12*
%TO.P,P43,1,B*%
%TO.N,/JA1*%
X106937900Y-92800001D03*
D13*
%TO.P,P43,2,B*%
%TO.N,/JA2*%
X108937900Y-92800000D03*
D12*
%TO.P,P43,3,B*%
%TO.N,/JA3*%
X110937901Y-92800000D03*
D13*
%TO.P,P43,4,B*%
%TO.N,/JA4*%
X112937900Y-92800000D03*
%TD*%
D14*
%TO.P,J7,1,Pin_1*%
%TO.N,/B1*%
X91289723Y-57888589D03*
D15*
%TO.P,J7,2,Pin_2*%
X88749723Y-57888589D03*
%TO.P,J7,3,Pin_3*%
%TO.N,/B2*%
X91289723Y-60428589D03*
%TO.P,J7,4,Pin_4*%
X88749723Y-60428589D03*
%TO.P,J7,5,Pin_5*%
%TO.N,/B3*%
X91289723Y-62968589D03*
%TO.P,J7,6,Pin_6*%
X88749723Y-62968589D03*
%TO.P,J7,7,Pin_7*%
%TO.N,/B4*%
X91289723Y-65508589D03*
%TO.P,J7,8,Pin_8*%
X88749723Y-65508589D03*
%TO.P,J7,9,Pin_9*%
%TO.N,/B5*%
X91289723Y-68048589D03*
%TO.P,J7,10,Pin_10*%
X88749723Y-68048589D03*
%TO.P,J7,11,Pin_11*%
%TO.N,/B6*%
X91289723Y-70588589D03*
%TO.P,J7,12,Pin_12*%
X88749723Y-70588589D03*
%TO.P,J7,13,Pin_13*%
%TO.N,/B7*%
X91289723Y-73128589D03*
%TO.P,J7,14,Pin_14*%
X88749723Y-73128589D03*
%TO.P,J7,15,Pin_15*%
%TO.N,/B8*%
X91289723Y-75668589D03*
%TO.P,J7,16,Pin_16*%
X88749723Y-75668589D03*
%TO.P,J7,17,Pin_17*%
%TO.N,/B9*%
X91289723Y-78208589D03*
%TO.P,J7,18,Pin_18*%
X88749723Y-78208589D03*
%TO.P,J7,19,Pin_19*%
%TO.N,/B10*%
X91289723Y-80748589D03*
%TO.P,J7,20,Pin_20*%
X88749723Y-80748589D03*
%TO.P,J7,21,Pin_21*%
%TO.N,/B11*%
X91289723Y-83288589D03*
%TO.P,J7,22,Pin_22*%
X88749723Y-83288589D03*
%TO.P,J7,23,Pin_23*%
%TO.N,/B12*%
X91289723Y-85828589D03*
%TO.P,J7,24,Pin_24*%
X88749723Y-85828589D03*
%TO.P,J7,25,Pin_25*%
%TO.N,/B13*%
X91289723Y-88368589D03*
%TO.P,J7,26,Pin_26*%
X88749723Y-88368589D03*
%TO.P,J7,27,Pin_27*%
%TO.N,/B14*%
X91289723Y-90908589D03*
%TO.P,J7,28,Pin_28*%
X88749723Y-90908589D03*
%TO.P,J7,29,Pin_29*%
%TO.N,/B15*%
X91289723Y-93448589D03*
%TO.P,J7,30,Pin_30*%
X88749723Y-93448589D03*
%TO.P,J7,31,Pin_31*%
%TO.N,/B16*%
X91289723Y-95988589D03*
%TO.P,J7,32,Pin_32*%
X88749723Y-95988589D03*
%TO.P,J7,33,Pin_33*%
%TO.N,/B17*%
X91289723Y-98528589D03*
%TO.P,J7,34,Pin_34*%
X88749723Y-98528589D03*
%TO.P,J7,35,Pin_35*%
%TO.N,/B18*%
X91289723Y-101068589D03*
%TO.P,J7,36,Pin_36*%
X88749723Y-101068589D03*
%TO.P,J7,37,Pin_37*%
%TO.N,/B19*%
X91289723Y-103608589D03*
%TO.P,J7,38,Pin_38*%
X88749723Y-103608589D03*
%TO.P,J7,39,Pin_39*%
%TO.N,/B20*%
X91289723Y-106148589D03*
%TO.P,J7,40,Pin_40*%
X88749723Y-106148589D03*
%TO.P,J7,41,Pin_41*%
%TO.N,/B21*%
X91289723Y-108688589D03*
%TO.P,J7,42,Pin_42*%
X88749723Y-108688589D03*
%TO.P,J7,43,Pin_43*%
%TO.N,/B22*%
X91289723Y-111228589D03*
%TO.P,J7,44,Pin_44*%
X88749723Y-111228589D03*
%TO.P,J7,45,Pin_45*%
%TO.N,/B23*%
X91289723Y-113768589D03*
%TO.P,J7,46,Pin_46*%
X88749723Y-113768589D03*
%TO.P,J7,47,Pin_47*%
%TO.N,/B24*%
X91289723Y-116308589D03*
%TO.P,J7,48,Pin_48*%
X88749723Y-116308589D03*
%TO.P,J7,49,Pin_49*%
%TO.N,/B25*%
X91289723Y-118848589D03*
%TO.P,J7,50,Pin_50*%
X88749723Y-118848589D03*
%TO.P,J7,51,Pin_51*%
%TO.N,/B26*%
X91289723Y-121388589D03*
%TO.P,J7,52,Pin_52*%
X88749723Y-121388589D03*
%TO.P,J7,53,Pin_53*%
%TO.N,/B27*%
X91289723Y-123928589D03*
%TO.P,J7,54,Pin_54*%
X88749723Y-123928589D03*
%TO.P,J7,55,Pin_55*%
%TO.N,/B28*%
X91289723Y-126468589D03*
%TO.P,J7,56,Pin_56*%
X88749723Y-126468589D03*
%TO.P,J7,57,Pin_57*%
%TO.N,/B29*%
X91289723Y-129008589D03*
%TO.P,J7,58,Pin_58*%
X88749723Y-129008589D03*
%TO.P,J7,59,Pin_59*%
%TO.N,/B30*%
X91289723Y-131548589D03*
%TO.P,J7,60,Pin_60*%
X88749723Y-131548589D03*
%TO.P,J7,61,Pin_61*%
%TO.N,/B31*%
X91289723Y-134088589D03*
%TO.P,J7,62,Pin_62*%
X88749723Y-134088589D03*
%TO.P,J7,63,Pin_63*%
%TO.N,/B32*%
X91289723Y-136628589D03*
%TO.P,J7,64,Pin_64*%
X88749723Y-136628589D03*
%TO.P,J7,65,Pin_65*%
%TO.N,/B33*%
X91289723Y-139168589D03*
%TO.P,J7,66,Pin_66*%
X88749723Y-139168589D03*
%TO.P,J7,67,Pin_67*%
%TO.N,/B34*%
X91289723Y-141708589D03*
%TO.P,J7,68,Pin_68*%
X88749723Y-141708589D03*
%TO.P,J7,69,Pin_69*%
%TO.N,/B35*%
X91289723Y-144248589D03*
%TO.P,J7,70,Pin_70*%
X88749723Y-144248589D03*
%TO.P,J7,71,Pin_71*%
%TO.N,/B36*%
X91289723Y-146788589D03*
%TO.P,J7,72,Pin_72*%
X88749723Y-146788589D03*
%TO.P,J7,73,Pin_73*%
%TO.N,/B37*%
X91289723Y-149328589D03*
%TO.P,J7,74,Pin_74*%
X88749723Y-149328589D03*
%TO.P,J7,75,Pin_75*%
%TO.N,/B38*%
X91289723Y-151868589D03*
%TO.P,J7,76,Pin_76*%
X88749723Y-151868589D03*
%TD*%
D10*
%TO.P,P31,0,C*%
%TO.N,P1*%
X99637900Y-66100000D03*
D12*
%TO.P,P31,1,B*%
%TO.N,/JA1*%
X96637900Y-65050000D03*
D13*
%TO.P,P31,2,B*%
%TO.N,/JA2*%
X98637900Y-65049999D03*
D12*
%TO.P,P31,3,B*%
%TO.N,/JA3*%
X100637900Y-65050000D03*
D13*
%TO.P,P31,4,B*%
%TO.N,/JA4*%
X102637900Y-65050000D03*
%TD*%
D10*
%TO.P,P38,0,C*%
%TO.N,P8*%
X109937900Y-74300000D03*
D11*
X106937900Y-74050000D03*
X108937900Y-74050000D03*
X110937900Y-74050000D03*
X112937900Y-74050000D03*
D12*
%TO.P,P38,1,B*%
%TO.N,/JA1*%
X106937900Y-73050001D03*
D13*
%TO.P,P38,2,B*%
%TO.N,/JA2*%
X108937900Y-73050000D03*
D12*
%TO.P,P38,3,B*%
%TO.N,/JA3*%
X110937901Y-73050000D03*
D13*
%TO.P,P38,4,B*%
%TO.N,/JA4*%
X112937900Y-73050000D03*
%TD*%
D10*
%TO.P,P58,0,C*%
%TO.N,P28*%
X109937900Y-152950000D03*
D11*
X106937900Y-152700000D03*
X108937900Y-152700000D03*
X110937900Y-152700000D03*
X112937900Y-152700000D03*
D12*
%TO.P,P58,1,B*%
%TO.N,/JA1*%
X106937900Y-151700001D03*
D13*
%TO.P,P58,2,B*%
%TO.N,/JA2*%
X108937900Y-151700000D03*
D12*
%TO.P,P58,3,B*%
%TO.N,/JA3*%
X110937901Y-151700000D03*
D13*
%TO.P,P58,4,B*%
%TO.N,/JA4*%
X112937900Y-151700000D03*
%TD*%
D10*
%TO.P,P44,0,C*%
%TO.N,P14*%
X109937901Y-97950000D03*
D11*
X106937901Y-97700000D03*
X108937901Y-97700000D03*
X110937901Y-97700000D03*
X112937901Y-97700000D03*
D12*
%TO.P,P44,1,B*%
%TO.N,/JA1*%
X106937901Y-96700001D03*
D13*
%TO.P,P44,2,B*%
%TO.N,/JA2*%
X108937901Y-96700000D03*
D12*
%TO.P,P44,3,B*%
%TO.N,/JA3*%
X110937902Y-96700000D03*
D13*
%TO.P,P44,4,B*%
%TO.N,/JA4*%
X112937901Y-96700000D03*
%TD*%
D14*
%TO.P,J8,1,Pin_1*%
%TO.N,/B1*%
X84749723Y-57888589D03*
D15*
%TO.P,J8,2,Pin_2*%
%TO.N,/B2*%
X84749723Y-60428589D03*
%TO.P,J8,3,Pin_3*%
%TO.N,/B3*%
X84749723Y-62968589D03*
%TO.P,J8,4,Pin_4*%
%TO.N,/B4*%
X84749723Y-65508589D03*
%TO.P,J8,5,Pin_5*%
%TO.N,/B5*%
X84749723Y-68048589D03*
%TO.P,J8,6,Pin_6*%
%TO.N,/B6*%
X84749723Y-70588589D03*
%TO.P,J8,7,Pin_7*%
%TO.N,/B7*%
X84749723Y-73128589D03*
%TO.P,J8,8,Pin_8*%
%TO.N,/B8*%
X84749723Y-75668589D03*
%TO.P,J8,9,Pin_9*%
%TO.N,/B9*%
X84749723Y-78208589D03*
%TO.P,J8,10,Pin_10*%
%TO.N,/B10*%
X84749723Y-80748589D03*
%TO.P,J8,11,Pin_11*%
%TO.N,/B11*%
X84749723Y-83288589D03*
%TO.P,J8,12,Pin_12*%
%TO.N,/B12*%
X84749723Y-85828589D03*
%TO.P,J8,13,Pin_13*%
%TO.N,/B13*%
X84749723Y-88368589D03*
%TO.P,J8,14,Pin_14*%
%TO.N,/B14*%
X84749723Y-90908589D03*
%TO.P,J8,15,Pin_15*%
%TO.N,/B15*%
X84749723Y-93448589D03*
%TO.P,J8,16,Pin_16*%
%TO.N,/B16*%
X84749723Y-95988589D03*
%TO.P,J8,17,Pin_17*%
%TO.N,/B17*%
X84749723Y-98528589D03*
%TO.P,J8,18,Pin_18*%
%TO.N,/B18*%
X84749723Y-101068589D03*
%TO.P,J8,19,Pin_19*%
%TO.N,/B19*%
X84749723Y-103608589D03*
%TO.P,J8,20,Pin_20*%
%TO.N,/B20*%
X84749723Y-106148589D03*
%TO.P,J8,21,Pin_21*%
%TO.N,/B21*%
X84749723Y-108688589D03*
%TO.P,J8,22,Pin_22*%
%TO.N,/B22*%
X84749723Y-111228589D03*
%TO.P,J8,23,Pin_23*%
%TO.N,/B23*%
X84749723Y-113768589D03*
%TO.P,J8,24,Pin_24*%
%TO.N,/B24*%
X84749723Y-116308589D03*
%TO.P,J8,25,Pin_25*%
%TO.N,/B25*%
X84749723Y-118848589D03*
%TO.P,J8,26,Pin_26*%
%TO.N,/B26*%
X84749723Y-121388589D03*
%TO.P,J8,27,Pin_27*%
%TO.N,/B27*%
X84749723Y-123928589D03*
%TO.P,J8,28,Pin_28*%
%TO.N,/B28*%
X84749723Y-126468589D03*
%TO.P,J8,29,Pin_29*%
%TO.N,/B29*%
X84749723Y-129008589D03*
%TO.P,J8,30,Pin_30*%
%TO.N,/B30*%
X84749723Y-131548589D03*
%TO.P,J8,31,Pin_31*%
%TO.N,/B31*%
X84749723Y-134088589D03*
%TO.P,J8,32,Pin_32*%
%TO.N,/B32*%
X84749723Y-136628589D03*
%TO.P,J8,33,Pin_33*%
%TO.N,/B33*%
X84749723Y-139168589D03*
%TO.P,J8,34,Pin_34*%
%TO.N,/B34*%
X84749723Y-141708589D03*
%TO.P,J8,35,Pin_35*%
%TO.N,/B35*%
X84749723Y-144248589D03*
%TO.P,J8,36,Pin_36*%
%TO.N,/B36*%
X84749723Y-146788589D03*
%TO.P,J8,37,Pin_37*%
%TO.N,/B37*%
X84749723Y-149328589D03*
%TO.P,J8,38,Pin_38*%
%TO.N,/B38*%
X84749723Y-151868589D03*
%TD*%
D10*
%TO.P,P37,0,C*%
%TO.N,P7*%
X109937900Y-70300000D03*
D11*
X106937900Y-70050000D03*
X108937900Y-70050000D03*
X110937900Y-70050000D03*
X112937900Y-70050000D03*
D12*
%TO.P,P37,1,B*%
%TO.N,/JA1*%
X106937900Y-69050001D03*
D13*
%TO.P,P37,2,B*%
%TO.N,/JA2*%
X108937900Y-69050000D03*
D12*
%TO.P,P37,3,B*%
%TO.N,/JA3*%
X110937901Y-69050000D03*
D13*
%TO.P,P37,4,B*%
%TO.N,/JA4*%
X112937900Y-69050000D03*
%TD*%
D10*
%TO.P,P36,0,C*%
%TO.N,P6*%
X109937900Y-66300000D03*
D11*
X106937900Y-66050000D03*
X108937900Y-66050000D03*
X110937900Y-66050000D03*
X112937900Y-66050000D03*
D12*
%TO.P,P36,1,B*%
%TO.N,/JA1*%
X106937900Y-65050001D03*
D13*
%TO.P,P36,2,B*%
%TO.N,/JA2*%
X108937900Y-65050000D03*
D12*
%TO.P,P36,3,B*%
%TO.N,/JA3*%
X110937901Y-65050000D03*
D13*
%TO.P,P36,4,B*%
%TO.N,/JA4*%
X112937900Y-65050000D03*
%TD*%
D10*
%TO.P,P53,0,C*%
%TO.N,P23*%
X109937901Y-133350000D03*
D11*
X106937901Y-133100000D03*
X108937901Y-133100000D03*
X110937901Y-133100000D03*
X112937901Y-133100000D03*
D12*
%TO.P,P53,1,B*%
%TO.N,/JA1*%
X106937901Y-132100001D03*
D13*
%TO.P,P53,2,B*%
%TO.N,/JA2*%
X108937901Y-132100000D03*
D12*
%TO.P,P53,3,B*%
%TO.N,/JA3*%
X110937902Y-132100000D03*
D13*
%TO.P,P53,4,B*%
%TO.N,/JA4*%
X112937901Y-132100000D03*
%TD*%
D10*
%TO.P,P47,0,C*%
%TO.N,P17*%
X109937900Y-109850000D03*
D11*
X106937900Y-109600000D03*
X108937900Y-109600000D03*
X110937900Y-109600000D03*
X112937900Y-109600000D03*
D12*
%TO.P,P47,1,B*%
%TO.N,/JA1*%
X106937900Y-108600001D03*
D13*
%TO.P,P47,2,B*%
%TO.N,/JA2*%
X108937900Y-108600000D03*
D12*
%TO.P,P47,3,B*%
%TO.N,/JA3*%
X110937901Y-108600000D03*
D13*
%TO.P,P47,4,B*%
%TO.N,/JA4*%
X112937900Y-108600000D03*
%TD*%
D10*
%TO.P,P40,0,C*%
%TO.N,P10*%
X109937900Y-82300000D03*
D11*
X106937900Y-82050000D03*
X108937900Y-82050000D03*
X110937900Y-82050000D03*
X112937900Y-82050000D03*
D12*
%TO.P,P40,1,B*%
%TO.N,/JA1*%
X106937900Y-81050001D03*
D13*
%TO.P,P40,2,B*%
%TO.N,/JA2*%
X108937900Y-81050000D03*
D12*
%TO.P,P40,3,B*%
%TO.N,/JA3*%
X110937901Y-81050000D03*
D13*
%TO.P,P40,4,B*%
%TO.N,/JA4*%
X112937900Y-81050000D03*
%TD*%
D10*
%TO.P,P60,0,C*%
%TO.N,P30*%
X99662899Y-152650001D03*
D12*
%TO.P,P60,1,B*%
%TO.N,/JA1*%
X96662899Y-151600001D03*
D13*
%TO.P,P60,2,B*%
%TO.N,/JA2*%
X98662899Y-151600000D03*
D12*
%TO.P,P60,3,B*%
%TO.N,/JA3*%
X100662899Y-151600001D03*
D13*
%TO.P,P60,4,B*%
%TO.N,/JA4*%
X102662899Y-151600001D03*
%TD*%
D10*
%TO.P,P46,0,C*%
%TO.N,P16*%
X109937900Y-105850000D03*
D11*
X106937900Y-105600000D03*
X108937900Y-105600000D03*
X110937900Y-105600000D03*
X112937900Y-105600000D03*
D12*
%TO.P,P46,1,B*%
%TO.N,/JA1*%
X106937900Y-104600001D03*
D13*
%TO.P,P46,2,B*%
%TO.N,/JA2*%
X108937900Y-104600000D03*
D12*
%TO.P,P46,3,B*%
%TO.N,/JA3*%
X110937901Y-104600000D03*
D13*
%TO.P,P46,4,B*%
%TO.N,/JA4*%
X112937900Y-104600000D03*
%TD*%
D10*
%TO.P,P42,0,C*%
%TO.N,P12*%
X109937900Y-90200000D03*
D11*
X106937900Y-89950000D03*
X108937900Y-89950000D03*
X110937900Y-89950000D03*
X112937900Y-89950000D03*
D12*
%TO.P,P42,1,B*%
%TO.N,/JA1*%
X106937900Y-88950001D03*
D13*
%TO.P,P42,2,B*%
%TO.N,/JA2*%
X108937900Y-88950000D03*
D12*
%TO.P,P42,3,B*%
%TO.N,/JA3*%
X110937901Y-88950000D03*
D13*
%TO.P,P42,4,B*%
%TO.N,/JA4*%
X112937900Y-88950000D03*
%TD*%
D10*
%TO.P,P59,0,C*%
%TO.N,P29*%
X99637900Y-148750000D03*
D12*
%TO.P,P59,1,B*%
%TO.N,/JA1*%
X96637900Y-147700000D03*
D13*
%TO.P,P59,2,B*%
%TO.N,/JA2*%
X98637900Y-147699999D03*
D12*
%TO.P,P59,3,B*%
%TO.N,/JA3*%
X100637900Y-147700000D03*
D13*
%TO.P,P59,4,B*%
%TO.N,/JA4*%
X102637900Y-147700000D03*
%TD*%
D10*
%TO.P,P45,0,C*%
%TO.N,P15*%
X109937900Y-101950001D03*
D11*
X106937900Y-101700001D03*
X108937900Y-101700001D03*
X110937900Y-101700001D03*
X112937900Y-101700001D03*
D12*
%TO.P,P45,1,B*%
%TO.N,/JA1*%
X106937900Y-100700002D03*
D13*
%TO.P,P45,2,B*%
%TO.N,/JA2*%
X108937900Y-100700001D03*
D12*
%TO.P,P45,3,B*%
%TO.N,/JA3*%
X110937901Y-100700001D03*
D13*
%TO.P,P45,4,B*%
%TO.N,/JA4*%
X112937900Y-100700001D03*
%TD*%
D10*
%TO.P,P39,0,C*%
%TO.N,P9*%
X109937900Y-78300000D03*
D11*
X106937900Y-78050000D03*
X108937900Y-78050000D03*
X110937900Y-78050000D03*
X112937900Y-78050000D03*
D12*
%TO.P,P39,1,B*%
%TO.N,/JA1*%
X106937900Y-77050001D03*
D13*
%TO.P,P39,2,B*%
%TO.N,/JA2*%
X108937900Y-77050000D03*
D12*
%TO.P,P39,3,B*%
%TO.N,/JA3*%
X110937901Y-77050000D03*
D13*
%TO.P,P39,4,B*%
%TO.N,/JA4*%
X112937900Y-77050000D03*
%TD*%
D10*
%TO.P,P54,0,C*%
%TO.N,P24*%
X109937900Y-137250000D03*
D11*
X106937900Y-137000000D03*
X108937900Y-137000000D03*
X110937900Y-137000000D03*
X112937900Y-137000000D03*
D12*
%TO.P,P54,1,B*%
%TO.N,/JA1*%
X106937900Y-136000001D03*
D13*
%TO.P,P54,2,B*%
%TO.N,/JA2*%
X108937900Y-136000000D03*
D12*
%TO.P,P54,3,B*%
%TO.N,/JA3*%
X110937901Y-136000000D03*
D13*
%TO.P,P54,4,B*%
%TO.N,/JA4*%
X112937900Y-136000000D03*
%TD*%
D10*
%TO.P,P30,0,C*%
%TO.N,P30*%
X165662899Y-152650001D03*
D12*
%TO.P,P30,1,B*%
%TO.N,/JA1*%
X162662899Y-151600001D03*
D13*
%TO.P,P30,2,B*%
%TO.N,/JA2*%
X164662899Y-151600000D03*
D12*
%TO.P,P30,3,B*%
%TO.N,/JA3*%
X166662899Y-151600001D03*
D13*
%TO.P,P30,4,B*%
%TO.N,/JA4*%
X168662899Y-151600001D03*
%TD*%
D10*
%TO.P,P7,0,C*%
%TO.N,P7*%
X175937900Y-70300000D03*
D11*
X172937900Y-70050000D03*
X174937900Y-70050000D03*
X176937900Y-70050000D03*
X178937900Y-70050000D03*
D12*
%TO.P,P7,1,B*%
%TO.N,/JA1*%
X172937900Y-69050001D03*
D13*
%TO.P,P7,2,B*%
%TO.N,/JA2*%
X174937900Y-69050000D03*
D12*
%TO.P,P7,3,B*%
%TO.N,/JA3*%
X176937901Y-69050000D03*
D13*
%TO.P,P7,4,B*%
%TO.N,/JA4*%
X178937900Y-69050000D03*
%TD*%
D10*
%TO.P,P27,0,C*%
%TO.N,P27*%
X175937900Y-149050000D03*
D11*
X172937900Y-148800000D03*
X174937900Y-148800000D03*
X176937900Y-148800000D03*
X178937900Y-148800000D03*
D12*
%TO.P,P27,1,B*%
%TO.N,/JA1*%
X172937900Y-147800001D03*
D13*
%TO.P,P27,2,B*%
%TO.N,/JA2*%
X174937900Y-147800000D03*
D12*
%TO.P,P27,3,B*%
%TO.N,/JA3*%
X176937901Y-147800000D03*
D13*
%TO.P,P27,4,B*%
%TO.N,/JA4*%
X178937900Y-147800000D03*
%TD*%
D10*
%TO.P,P13,0,C*%
%TO.N,P13*%
X175937900Y-94050000D03*
D11*
X172937900Y-93800000D03*
X174937900Y-93800000D03*
X176937900Y-93800000D03*
X178937900Y-93800000D03*
D12*
%TO.P,P13,1,B*%
%TO.N,/JA1*%
X172937900Y-92800001D03*
D13*
%TO.P,P13,2,B*%
%TO.N,/JA2*%
X174937900Y-92800000D03*
D12*
%TO.P,P13,3,B*%
%TO.N,/JA3*%
X176937901Y-92800000D03*
D13*
%TO.P,P13,4,B*%
%TO.N,/JA4*%
X178937900Y-92800000D03*
%TD*%
D10*
%TO.P,P28,0,C*%
%TO.N,P28*%
X175937900Y-152950000D03*
D11*
X172937900Y-152700000D03*
X174937900Y-152700000D03*
X176937900Y-152700000D03*
X178937900Y-152700000D03*
D12*
%TO.P,P28,1,B*%
%TO.N,/JA1*%
X172937900Y-151700001D03*
D13*
%TO.P,P28,2,B*%
%TO.N,/JA2*%
X174937900Y-151700000D03*
D12*
%TO.P,P28,3,B*%
%TO.N,/JA3*%
X176937901Y-151700000D03*
D13*
%TO.P,P28,4,B*%
%TO.N,/JA4*%
X178937900Y-151700000D03*
%TD*%
D10*
%TO.P,P14,0,C*%
%TO.N,P14*%
X175937901Y-97950000D03*
D11*
X172937901Y-97700000D03*
X174937901Y-97700000D03*
X176937901Y-97700000D03*
X178937901Y-97700000D03*
D12*
%TO.P,P14,1,B*%
%TO.N,/JA1*%
X172937901Y-96700001D03*
D13*
%TO.P,P14,2,B*%
%TO.N,/JA2*%
X174937901Y-96700000D03*
D12*
%TO.P,P14,3,B*%
%TO.N,/JA3*%
X176937902Y-96700000D03*
D13*
%TO.P,P14,4,B*%
%TO.N,/JA4*%
X178937901Y-96700000D03*
%TD*%
D10*
%TO.P,P1,0,C*%
%TO.N,P1*%
X165637900Y-66100000D03*
D12*
%TO.P,P1,1,B*%
%TO.N,/JA1*%
X162637900Y-65050000D03*
D13*
%TO.P,P1,2,B*%
%TO.N,/JA2*%
X164637900Y-65049999D03*
D12*
%TO.P,P1,3,B*%
%TO.N,/JA3*%
X166637900Y-65050000D03*
D13*
%TO.P,P1,4,B*%
%TO.N,/JA4*%
X168637900Y-65050000D03*
%TD*%
D10*
%TO.P,P8,0,C*%
%TO.N,P8*%
X175937900Y-74300000D03*
D11*
X172937900Y-74050000D03*
X174937900Y-74050000D03*
X176937900Y-74050000D03*
X178937900Y-74050000D03*
D12*
%TO.P,P8,1,B*%
%TO.N,/JA1*%
X172937900Y-73050001D03*
D13*
%TO.P,P8,2,B*%
%TO.N,/JA2*%
X174937900Y-73050000D03*
D12*
%TO.P,P8,3,B*%
%TO.N,/JA3*%
X176937901Y-73050000D03*
D13*
%TO.P,P8,4,B*%
%TO.N,/JA4*%
X178937900Y-73050000D03*
%TD*%
D10*
%TO.P,P21,0,C*%
%TO.N,P21*%
X175937900Y-125450000D03*
D11*
X172937900Y-125200000D03*
X174937900Y-125200000D03*
X176937900Y-125200000D03*
X178937900Y-125200000D03*
D12*
%TO.P,P21,1,B*%
%TO.N,/JA1*%
X172937900Y-124200001D03*
D13*
%TO.P,P21,2,B*%
%TO.N,/JA2*%
X174937900Y-124200000D03*
D12*
%TO.P,P21,3,B*%
%TO.N,/JA3*%
X176937901Y-124200000D03*
D13*
%TO.P,P21,4,B*%
%TO.N,/JA4*%
X178937900Y-124200000D03*
%TD*%
D10*
%TO.P,P10,0,C*%
%TO.N,P10*%
X175937900Y-82300000D03*
D11*
X172937900Y-82050000D03*
X174937900Y-82050000D03*
X176937900Y-82050000D03*
X178937900Y-82050000D03*
D12*
%TO.P,P10,1,B*%
%TO.N,/JA1*%
X172937900Y-81050001D03*
D13*
%TO.P,P10,2,B*%
%TO.N,/JA2*%
X174937900Y-81050000D03*
D12*
%TO.P,P10,3,B*%
%TO.N,/JA3*%
X176937901Y-81050000D03*
D13*
%TO.P,P10,4,B*%
%TO.N,/JA4*%
X178937900Y-81050000D03*
%TD*%
D10*
%TO.P,P23,0,C*%
%TO.N,P23*%
X175937901Y-133350000D03*
D11*
X172937901Y-133100000D03*
X174937901Y-133100000D03*
X176937901Y-133100000D03*
X178937901Y-133100000D03*
D12*
%TO.P,P23,1,B*%
%TO.N,/JA1*%
X172937901Y-132100001D03*
D13*
%TO.P,P23,2,B*%
%TO.N,/JA2*%
X174937901Y-132100000D03*
D12*
%TO.P,P23,3,B*%
%TO.N,/JA3*%
X176937902Y-132100000D03*
D13*
%TO.P,P23,4,B*%
%TO.N,/JA4*%
X178937901Y-132100000D03*
%TD*%
D10*
%TO.P,P12,0,C*%
%TO.N,P12*%
X175937900Y-90200000D03*
D11*
X172937900Y-89950000D03*
X174937900Y-89950000D03*
X176937900Y-89950000D03*
X178937900Y-89950000D03*
D12*
%TO.P,P12,1,B*%
%TO.N,/JA1*%
X172937900Y-88950001D03*
D13*
%TO.P,P12,2,B*%
%TO.N,/JA2*%
X174937900Y-88950000D03*
D12*
%TO.P,P12,3,B*%
%TO.N,/JA3*%
X176937901Y-88950000D03*
D13*
%TO.P,P12,4,B*%
%TO.N,/JA4*%
X178937900Y-88950000D03*
%TD*%
D14*
%TO.P,J5,1,Pin_1*%
%TO.N,P1*%
X168338723Y-69500000D03*
D15*
%TO.P,J5,2,Pin_2*%
X165798723Y-69500000D03*
%TO.P,J5,3,Pin_3*%
%TO.N,P2*%
X168338723Y-72040000D03*
%TO.P,J5,4,Pin_4*%
X165798723Y-72040000D03*
%TO.P,J5,5,Pin_5*%
%TO.N,P3*%
X168338723Y-74579999D03*
%TO.P,J5,6,Pin_6*%
X165798723Y-74580000D03*
%TO.P,J5,7,Pin_7*%
%TO.N,P4*%
X168338723Y-77120000D03*
%TO.P,J5,8,Pin_8*%
X165798723Y-77120000D03*
%TO.P,J5,9,Pin_9*%
%TO.N,P5*%
X168338723Y-79660000D03*
%TO.P,J5,10,Pin_10*%
X165798723Y-79660000D03*
%TO.P,J5,11,Pin_11*%
%TO.N,P6*%
X168338723Y-82200000D03*
%TO.P,J5,12,Pin_12*%
X165798723Y-82200000D03*
%TO.P,J5,13,Pin_13*%
%TO.N,P7*%
X168338723Y-84740000D03*
%TO.P,J5,14,Pin_14*%
X165798723Y-84740000D03*
%TO.P,J5,15,Pin_15*%
%TO.N,P8*%
X168338723Y-87280001D03*
%TO.P,J5,16,Pin_16*%
X165798723Y-87280000D03*
%TO.P,J5,17,Pin_17*%
%TO.N,P9*%
X168338723Y-89820000D03*
%TO.P,J5,18,Pin_18*%
X165798723Y-89820000D03*
%TO.P,J5,19,Pin_19*%
%TO.N,P10*%
X168338723Y-92360000D03*
%TO.P,J5,20,Pin_20*%
X165798723Y-92360000D03*
%TO.P,J5,21,Pin_21*%
%TO.N,P11*%
X168338723Y-94900000D03*
%TO.P,J5,22,Pin_22*%
X165798723Y-94900000D03*
%TO.P,J5,23,Pin_23*%
%TO.N,P12*%
X168338723Y-97439999D03*
%TO.P,J5,24,Pin_24*%
X165798723Y-97440000D03*
%TO.P,J5,25,Pin_25*%
%TO.N,P13*%
X168338723Y-99980000D03*
%TO.P,J5,26,Pin_26*%
X165798723Y-99980000D03*
%TO.P,J5,27,Pin_27*%
%TO.N,P14*%
X168338723Y-102520000D03*
%TO.P,J5,28,Pin_28*%
X165798723Y-102520000D03*
%TO.P,J5,29,Pin_29*%
%TO.N,P15*%
X168338723Y-105060000D03*
%TO.P,J5,30,Pin_30*%
X165798723Y-105060000D03*
%TO.P,J5,31,Pin_31*%
%TO.N,P16*%
X168338723Y-107599999D03*
%TO.P,J5,32,Pin_32*%
X165798723Y-107600000D03*
%TO.P,J5,33,Pin_33*%
%TO.N,P17*%
X168338723Y-110140001D03*
%TO.P,J5,34,Pin_34*%
X165798723Y-110140000D03*
%TO.P,J5,35,Pin_35*%
%TO.N,P18*%
X168338723Y-112680000D03*
%TO.P,J5,36,Pin_36*%
X165798723Y-112680000D03*
%TO.P,J5,37,Pin_37*%
%TO.N,P19*%
X168338723Y-115220000D03*
%TO.P,J5,38,Pin_38*%
X165798723Y-115220000D03*
%TO.P,J5,39,Pin_39*%
%TO.N,P20*%
X168338723Y-117760000D03*
%TO.P,J5,40,Pin_40*%
X165798723Y-117760000D03*
%TO.P,J5,41,Pin_41*%
%TO.N,P21*%
X168338723Y-120299999D03*
%TO.P,J5,42,Pin_42*%
X165798723Y-120300000D03*
%TO.P,J5,43,Pin_43*%
%TO.N,P22*%
X168338723Y-122840000D03*
%TO.P,J5,44,Pin_44*%
X165798723Y-122840000D03*
%TO.P,J5,45,Pin_45*%
%TO.N,P23*%
X168338723Y-125380000D03*
%TO.P,J5,46,Pin_46*%
X165798723Y-125380000D03*
%TO.P,J5,47,Pin_47*%
%TO.N,P24*%
X168338723Y-127920000D03*
%TO.P,J5,48,Pin_48*%
X165798723Y-127920000D03*
%TO.P,J5,49,Pin_49*%
%TO.N,P25*%
X168338723Y-130459999D03*
%TO.P,J5,50,Pin_50*%
X165798723Y-130460000D03*
%TO.P,J5,51,Pin_51*%
%TO.N,P26*%
X168338723Y-133000001D03*
%TO.P,J5,52,Pin_52*%
X165798723Y-133000000D03*
%TO.P,J5,53,Pin_53*%
%TO.N,P27*%
X168338723Y-135540000D03*
%TO.P,J5,54,Pin_54*%
X165798723Y-135540000D03*
%TO.P,J5,55,Pin_55*%
%TO.N,P28*%
X168338723Y-138080000D03*
%TO.P,J5,56,Pin_56*%
X165798723Y-138080000D03*
%TO.P,J5,57,Pin_57*%
%TO.N,P29*%
X168338723Y-140620000D03*
%TO.P,J5,58,Pin_58*%
X165798723Y-140620000D03*
%TO.P,J5,59,Pin_59*%
%TO.N,P30*%
X168338723Y-143160001D03*
%TO.P,J5,60,Pin_60*%
X165798723Y-143160000D03*
%TD*%
D14*
%TO.P,J4,1,Pin_1*%
%TO.N,/B1*%
X150749723Y-57888589D03*
D15*
%TO.P,J4,2,Pin_2*%
%TO.N,/B2*%
X150749723Y-60428589D03*
%TO.P,J4,3,Pin_3*%
%TO.N,/B3*%
X150749723Y-62968589D03*
%TO.P,J4,4,Pin_4*%
%TO.N,/B4*%
X150749723Y-65508589D03*
%TO.P,J4,5,Pin_5*%
%TO.N,/B5*%
X150749723Y-68048589D03*
%TO.P,J4,6,Pin_6*%
%TO.N,/B6*%
X150749723Y-70588589D03*
%TO.P,J4,7,Pin_7*%
%TO.N,/B7*%
X150749723Y-73128589D03*
%TO.P,J4,8,Pin_8*%
%TO.N,/B8*%
X150749723Y-75668589D03*
%TO.P,J4,9,Pin_9*%
%TO.N,/B9*%
X150749723Y-78208589D03*
%TO.P,J4,10,Pin_10*%
%TO.N,/B10*%
X150749723Y-80748589D03*
%TO.P,J4,11,Pin_11*%
%TO.N,/B11*%
X150749723Y-83288589D03*
%TO.P,J4,12,Pin_12*%
%TO.N,/B12*%
X150749723Y-85828589D03*
%TO.P,J4,13,Pin_13*%
%TO.N,/B13*%
X150749723Y-88368589D03*
%TO.P,J4,14,Pin_14*%
%TO.N,/B14*%
X150749723Y-90908589D03*
%TO.P,J4,15,Pin_15*%
%TO.N,/B15*%
X150749723Y-93448589D03*
%TO.P,J4,16,Pin_16*%
%TO.N,/B16*%
X150749723Y-95988589D03*
%TO.P,J4,17,Pin_17*%
%TO.N,/B17*%
X150749723Y-98528589D03*
%TO.P,J4,18,Pin_18*%
%TO.N,/B18*%
X150749723Y-101068589D03*
%TO.P,J4,19,Pin_19*%
%TO.N,/B19*%
X150749723Y-103608589D03*
%TO.P,J4,20,Pin_20*%
%TO.N,/B20*%
X150749723Y-106148589D03*
%TO.P,J4,21,Pin_21*%
%TO.N,/B21*%
X150749723Y-108688589D03*
%TO.P,J4,22,Pin_22*%
%TO.N,/B22*%
X150749723Y-111228589D03*
%TO.P,J4,23,Pin_23*%
%TO.N,/B23*%
X150749723Y-113768589D03*
%TO.P,J4,24,Pin_24*%
%TO.N,/B24*%
X150749723Y-116308589D03*
%TO.P,J4,25,Pin_25*%
%TO.N,/B25*%
X150749723Y-118848589D03*
%TO.P,J4,26,Pin_26*%
%TO.N,/B26*%
X150749723Y-121388589D03*
%TO.P,J4,27,Pin_27*%
%TO.N,/B27*%
X150749723Y-123928589D03*
%TO.P,J4,28,Pin_28*%
%TO.N,/B28*%
X150749723Y-126468589D03*
%TO.P,J4,29,Pin_29*%
%TO.N,/B29*%
X150749723Y-129008589D03*
%TO.P,J4,30,Pin_30*%
%TO.N,/B30*%
X150749723Y-131548589D03*
%TO.P,J4,31,Pin_31*%
%TO.N,/B31*%
X150749723Y-134088589D03*
%TO.P,J4,32,Pin_32*%
%TO.N,/B32*%
X150749723Y-136628589D03*
%TO.P,J4,33,Pin_33*%
%TO.N,/B33*%
X150749723Y-139168589D03*
%TO.P,J4,34,Pin_34*%
%TO.N,/B34*%
X150749723Y-141708589D03*
%TO.P,J4,35,Pin_35*%
%TO.N,/B35*%
X150749723Y-144248589D03*
%TO.P,J4,36,Pin_36*%
%TO.N,/B36*%
X150749723Y-146788589D03*
%TO.P,J4,37,Pin_37*%
%TO.N,/B37*%
X150749723Y-149328589D03*
%TO.P,J4,38,Pin_38*%
%TO.N,/B38*%
X150749723Y-151868589D03*
%TD*%
D10*
%TO.P,P16,0,C*%
%TO.N,P16*%
X175937900Y-105850000D03*
D11*
X172937900Y-105600000D03*
X174937900Y-105600000D03*
X176937900Y-105600000D03*
X178937900Y-105600000D03*
D12*
%TO.P,P16,1,B*%
%TO.N,/JA1*%
X172937900Y-104600001D03*
D13*
%TO.P,P16,2,B*%
%TO.N,/JA2*%
X174937900Y-104600000D03*
D12*
%TO.P,P16,3,B*%
%TO.N,/JA3*%
X176937901Y-104600000D03*
D13*
%TO.P,P16,4,B*%
%TO.N,/JA4*%
X178937900Y-104600000D03*
%TD*%
D10*
%TO.P,P26,0,C*%
%TO.N,P26*%
X175937900Y-145050000D03*
D11*
X172937900Y-144800000D03*
X174937900Y-144800000D03*
X176937900Y-144800000D03*
X178937900Y-144800000D03*
D12*
%TO.P,P26,1,B*%
%TO.N,/JA1*%
X172937900Y-143800001D03*
D13*
%TO.P,P26,2,B*%
%TO.N,/JA2*%
X174937900Y-143800000D03*
D12*
%TO.P,P26,3,B*%
%TO.N,/JA3*%
X176937901Y-143800000D03*
D13*
%TO.P,P26,4,B*%
%TO.N,/JA4*%
X178937900Y-143800000D03*
%TD*%
D10*
%TO.P,P19,0,C*%
%TO.N,P19*%
X175937900Y-117650000D03*
D11*
X172937900Y-117400000D03*
X174937900Y-117400000D03*
X176937900Y-117400000D03*
X178937900Y-117400000D03*
D12*
%TO.P,P19,1,B*%
%TO.N,/JA1*%
X172937900Y-116400001D03*
D13*
%TO.P,P19,2,B*%
%TO.N,/JA2*%
X174937900Y-116400000D03*
D12*
%TO.P,P19,3,B*%
%TO.N,/JA3*%
X176937901Y-116400000D03*
D13*
%TO.P,P19,4,B*%
%TO.N,/JA4*%
X178937900Y-116400000D03*
%TD*%
D10*
%TO.P,P24,0,C*%
%TO.N,P24*%
X175937900Y-137250000D03*
D11*
X172937900Y-137000000D03*
X174937900Y-137000000D03*
X176937900Y-137000000D03*
X178937900Y-137000000D03*
D12*
%TO.P,P24,1,B*%
%TO.N,/JA1*%
X172937900Y-136000001D03*
D13*
%TO.P,P24,2,B*%
%TO.N,/JA2*%
X174937900Y-136000000D03*
D12*
%TO.P,P24,3,B*%
%TO.N,/JA3*%
X176937901Y-136000000D03*
D13*
%TO.P,P24,4,B*%
%TO.N,/JA4*%
X178937900Y-136000000D03*
%TD*%
D14*
%TO.P,J3,1,Pin_1*%
%TO.N,/B1*%
X157289723Y-57888589D03*
D15*
%TO.P,J3,2,Pin_2*%
X154749723Y-57888589D03*
%TO.P,J3,3,Pin_3*%
%TO.N,/B2*%
X157289723Y-60428589D03*
%TO.P,J3,4,Pin_4*%
X154749723Y-60428589D03*
%TO.P,J3,5,Pin_5*%
%TO.N,/B3*%
X157289723Y-62968589D03*
%TO.P,J3,6,Pin_6*%
X154749723Y-62968589D03*
%TO.P,J3,7,Pin_7*%
%TO.N,/B4*%
X157289723Y-65508589D03*
%TO.P,J3,8,Pin_8*%
X154749723Y-65508589D03*
%TO.P,J3,9,Pin_9*%
%TO.N,/B5*%
X157289723Y-68048589D03*
%TO.P,J3,10,Pin_10*%
X154749723Y-68048589D03*
%TO.P,J3,11,Pin_11*%
%TO.N,/B6*%
X157289723Y-70588589D03*
%TO.P,J3,12,Pin_12*%
X154749723Y-70588589D03*
%TO.P,J3,13,Pin_13*%
%TO.N,/B7*%
X157289723Y-73128589D03*
%TO.P,J3,14,Pin_14*%
X154749723Y-73128589D03*
%TO.P,J3,15,Pin_15*%
%TO.N,/B8*%
X157289723Y-75668589D03*
%TO.P,J3,16,Pin_16*%
X154749723Y-75668589D03*
%TO.P,J3,17,Pin_17*%
%TO.N,/B9*%
X157289723Y-78208589D03*
%TO.P,J3,18,Pin_18*%
X154749723Y-78208589D03*
%TO.P,J3,19,Pin_19*%
%TO.N,/B10*%
X157289723Y-80748589D03*
%TO.P,J3,20,Pin_20*%
X154749723Y-80748589D03*
%TO.P,J3,21,Pin_21*%
%TO.N,/B11*%
X157289723Y-83288589D03*
%TO.P,J3,22,Pin_22*%
X154749723Y-83288589D03*
%TO.P,J3,23,Pin_23*%
%TO.N,/B12*%
X157289723Y-85828589D03*
%TO.P,J3,24,Pin_24*%
X154749723Y-85828589D03*
%TO.P,J3,25,Pin_25*%
%TO.N,/B13*%
X157289723Y-88368589D03*
%TO.P,J3,26,Pin_26*%
X154749723Y-88368589D03*
%TO.P,J3,27,Pin_27*%
%TO.N,/B14*%
X157289723Y-90908589D03*
%TO.P,J3,28,Pin_28*%
X154749723Y-90908589D03*
%TO.P,J3,29,Pin_29*%
%TO.N,/B15*%
X157289723Y-93448589D03*
%TO.P,J3,30,Pin_30*%
X154749723Y-93448589D03*
%TO.P,J3,31,Pin_31*%
%TO.N,/B16*%
X157289723Y-95988589D03*
%TO.P,J3,32,Pin_32*%
X154749723Y-95988589D03*
%TO.P,J3,33,Pin_33*%
%TO.N,/B17*%
X157289723Y-98528589D03*
%TO.P,J3,34,Pin_34*%
X154749723Y-98528589D03*
%TO.P,J3,35,Pin_35*%
%TO.N,/B18*%
X157289723Y-101068589D03*
%TO.P,J3,36,Pin_36*%
X154749723Y-101068589D03*
%TO.P,J3,37,Pin_37*%
%TO.N,/B19*%
X157289723Y-103608589D03*
%TO.P,J3,38,Pin_38*%
X154749723Y-103608589D03*
%TO.P,J3,39,Pin_39*%
%TO.N,/B20*%
X157289723Y-106148589D03*
%TO.P,J3,40,Pin_40*%
X154749723Y-106148589D03*
%TO.P,J3,41,Pin_41*%
%TO.N,/B21*%
X157289723Y-108688589D03*
%TO.P,J3,42,Pin_42*%
X154749723Y-108688589D03*
%TO.P,J3,43,Pin_43*%
%TO.N,/B22*%
X157289723Y-111228589D03*
%TO.P,J3,44,Pin_44*%
X154749723Y-111228589D03*
%TO.P,J3,45,Pin_45*%
%TO.N,/B23*%
X157289723Y-113768589D03*
%TO.P,J3,46,Pin_46*%
X154749723Y-113768589D03*
%TO.P,J3,47,Pin_47*%
%TO.N,/B24*%
X157289723Y-116308589D03*
%TO.P,J3,48,Pin_48*%
X154749723Y-116308589D03*
%TO.P,J3,49,Pin_49*%
%TO.N,/B25*%
X157289723Y-118848589D03*
%TO.P,J3,50,Pin_50*%
X154749723Y-118848589D03*
%TO.P,J3,51,Pin_51*%
%TO.N,/B26*%
X157289723Y-121388589D03*
%TO.P,J3,52,Pin_52*%
X154749723Y-121388589D03*
%TO.P,J3,53,Pin_53*%
%TO.N,/B27*%
X157289723Y-123928589D03*
%TO.P,J3,54,Pin_54*%
X154749723Y-123928589D03*
%TO.P,J3,55,Pin_55*%
%TO.N,/B28*%
X157289723Y-126468589D03*
%TO.P,J3,56,Pin_56*%
X154749723Y-126468589D03*
%TO.P,J3,57,Pin_57*%
%TO.N,/B29*%
X157289723Y-129008589D03*
%TO.P,J3,58,Pin_58*%
X154749723Y-129008589D03*
%TO.P,J3,59,Pin_59*%
%TO.N,/B30*%
X157289723Y-131548589D03*
%TO.P,J3,60,Pin_60*%
X154749723Y-131548589D03*
%TO.P,J3,61,Pin_61*%
%TO.N,/B31*%
X157289723Y-134088589D03*
%TO.P,J3,62,Pin_62*%
X154749723Y-134088589D03*
%TO.P,J3,63,Pin_63*%
%TO.N,/B32*%
X157289723Y-136628589D03*
%TO.P,J3,64,Pin_64*%
X154749723Y-136628589D03*
%TO.P,J3,65,Pin_65*%
%TO.N,/B33*%
X157289723Y-139168589D03*
%TO.P,J3,66,Pin_66*%
X154749723Y-139168589D03*
%TO.P,J3,67,Pin_67*%
%TO.N,/B34*%
X157289723Y-141708589D03*
%TO.P,J3,68,Pin_68*%
X154749723Y-141708589D03*
%TO.P,J3,69,Pin_69*%
%TO.N,/B35*%
X157289723Y-144248589D03*
%TO.P,J3,70,Pin_70*%
X154749723Y-144248589D03*
%TO.P,J3,71,Pin_71*%
%TO.N,/B36*%
X157289723Y-146788589D03*
%TO.P,J3,72,Pin_72*%
X154749723Y-146788589D03*
%TO.P,J3,73,Pin_73*%
%TO.N,/B37*%
X157289723Y-149328589D03*
%TO.P,J3,74,Pin_74*%
X154749723Y-149328589D03*
%TO.P,J3,75,Pin_75*%
%TO.N,/B38*%
X157289723Y-151868589D03*
%TO.P,J3,76,Pin_76*%
X154749723Y-151868589D03*
%TD*%
D10*
%TO.P,P18,0,C*%
%TO.N,P18*%
X175937901Y-113750000D03*
D11*
X172937901Y-113500000D03*
X174937901Y-113500000D03*
X176937901Y-113500000D03*
X178937901Y-113500000D03*
D12*
%TO.P,P18,1,B*%
%TO.N,/JA1*%
X172937901Y-112500001D03*
D13*
%TO.P,P18,2,B*%
%TO.N,/JA2*%
X174937901Y-112500000D03*
D12*
%TO.P,P18,3,B*%
%TO.N,/JA3*%
X176937902Y-112500000D03*
D13*
%TO.P,P18,4,B*%
%TO.N,/JA4*%
X178937901Y-112500000D03*
%TD*%
D10*
%TO.P,P2,0,C*%
%TO.N,P2*%
X165637900Y-62135000D03*
D12*
%TO.P,P2,1,B*%
%TO.N,/JA1*%
X162637900Y-61085000D03*
D13*
%TO.P,P2,2,B*%
%TO.N,/JA2*%
X164637900Y-61084999D03*
D12*
%TO.P,P2,3,B*%
%TO.N,/JA3*%
X166637900Y-61085000D03*
D13*
%TO.P,P2,4,B*%
%TO.N,/JA4*%
X168637900Y-61085000D03*
%TD*%
D10*
%TO.P,P5,0,C*%
%TO.N,P5*%
X175937900Y-62300001D03*
D11*
X172937900Y-62050001D03*
X174937900Y-62050001D03*
X176937900Y-62050001D03*
X178937900Y-62050001D03*
D12*
%TO.P,P5,1,B*%
%TO.N,/JA1*%
X172937900Y-61050002D03*
D13*
%TO.P,P5,2,B*%
%TO.N,/JA2*%
X174937900Y-61050001D03*
D12*
%TO.P,P5,3,B*%
%TO.N,/JA3*%
X176937901Y-61050001D03*
D13*
%TO.P,P5,4,B*%
%TO.N,/JA4*%
X178937900Y-61050001D03*
%TD*%
D10*
%TO.P,P4,0,C*%
%TO.N,P4*%
X175937901Y-58300000D03*
D11*
X172937901Y-58050000D03*
X174937901Y-58050000D03*
X176937901Y-58050000D03*
X178937901Y-58050000D03*
D12*
%TO.P,P4,1,B*%
%TO.N,/JA1*%
X172937901Y-57050001D03*
D13*
%TO.P,P4,2,B*%
%TO.N,/JA2*%
X174937901Y-57050000D03*
D12*
%TO.P,P4,3,B*%
%TO.N,/JA3*%
X176937902Y-57050000D03*
D13*
%TO.P,P4,4,B*%
%TO.N,/JA4*%
X178937901Y-57050000D03*
%TD*%
D10*
%TO.P,P25,0,C*%
%TO.N,P25*%
X175937900Y-141150000D03*
D11*
X172937900Y-140900000D03*
X174937900Y-140900000D03*
X176937900Y-140900000D03*
X178937900Y-140900000D03*
D12*
%TO.P,P25,1,B*%
%TO.N,/JA1*%
X172937900Y-139900001D03*
D13*
%TO.P,P25,2,B*%
%TO.N,/JA2*%
X174937900Y-139900000D03*
D12*
%TO.P,P25,3,B*%
%TO.N,/JA3*%
X176937901Y-139900000D03*
D13*
%TO.P,P25,4,B*%
%TO.N,/JA4*%
X178937900Y-139900000D03*
%TD*%
D10*
%TO.P,P17,0,C*%
%TO.N,P17*%
X175937900Y-109850000D03*
D11*
X172937900Y-109600000D03*
X174937900Y-109600000D03*
X176937900Y-109600000D03*
X178937900Y-109600000D03*
D12*
%TO.P,P17,1,B*%
%TO.N,/JA1*%
X172937900Y-108600001D03*
D13*
%TO.P,P17,2,B*%
%TO.N,/JA2*%
X174937900Y-108600000D03*
D12*
%TO.P,P17,3,B*%
%TO.N,/JA3*%
X176937901Y-108600000D03*
D13*
%TO.P,P17,4,B*%
%TO.N,/JA4*%
X178937900Y-108600000D03*
%TD*%
D14*
%TO.P,J2,1,Pin_1*%
%TO.N,P1*%
X163238723Y-69480001D03*
D15*
%TO.P,J2,2,Pin_2*%
%TO.N,P2*%
X163238723Y-72020001D03*
%TO.P,J2,3,Pin_3*%
%TO.N,P3*%
X163238723Y-74560000D03*
%TO.P,J2,4,Pin_4*%
%TO.N,P4*%
X163238723Y-77100001D03*
%TO.P,J2,5,Pin_5*%
%TO.N,P5*%
X163238723Y-79640001D03*
%TO.P,J2,6,Pin_6*%
%TO.N,P6*%
X163238723Y-82180001D03*
%TO.P,J2,7,Pin_7*%
%TO.N,P7*%
X163238723Y-84720001D03*
%TO.P,J2,8,Pin_8*%
%TO.N,P8*%
X163238723Y-87260002D03*
%TO.P,J2,9,Pin_9*%
%TO.N,P9*%
X163238723Y-89800001D03*
%TO.P,J2,10,Pin_10*%
%TO.N,P10*%
X163238723Y-92340001D03*
%TO.P,J2,11,Pin_11*%
%TO.N,P11*%
X163238723Y-94880001D03*
%TO.P,J2,12,Pin_12*%
%TO.N,P12*%
X163238723Y-97420000D03*
%TO.P,J2,13,Pin_13*%
%TO.N,P13*%
X163238723Y-99960001D03*
%TO.P,J2,14,Pin_14*%
%TO.N,P14*%
X163238723Y-102500001D03*
%TO.P,J2,15,Pin_15*%
%TO.N,P15*%
X163238723Y-105040001D03*
%TO.P,J2,16,Pin_16*%
%TO.N,P16*%
X163238723Y-107580000D03*
%TO.P,J2,17,Pin_17*%
%TO.N,P17*%
X163238723Y-110120002D03*
%TO.P,J2,18,Pin_18*%
%TO.N,P18*%
X163238723Y-112660001D03*
%TO.P,J2,19,Pin_19*%
%TO.N,P19*%
X163238723Y-115200001D03*
%TO.P,J2,20,Pin_20*%
%TO.N,P20*%
X163238723Y-117740001D03*
%TO.P,J2,21,Pin_21*%
%TO.N,P21*%
X163238723Y-120280000D03*
%TO.P,J2,22,Pin_22*%
%TO.N,P22*%
X163238723Y-122820001D03*
%TO.P,J2,23,Pin_23*%
%TO.N,P23*%
X163238723Y-125360001D03*
%TO.P,J2,24,Pin_24*%
%TO.N,P24*%
X163238723Y-127900001D03*
%TO.P,J2,25,Pin_25*%
%TO.N,P25*%
X163238723Y-130440000D03*
%TO.P,J2,26,Pin_26*%
%TO.N,P26*%
X163238723Y-132980002D03*
%TO.P,J2,27,Pin_27*%
%TO.N,P27*%
X163238723Y-135520001D03*
%TO.P,J2,28,Pin_28*%
%TO.N,P28*%
X163238723Y-138060001D03*
%TO.P,J2,29,Pin_29*%
%TO.N,P29*%
X163238723Y-140600001D03*
%TO.P,J2,30,Pin_30*%
%TO.N,P30*%
X163238723Y-143140002D03*
%TD*%
D10*
%TO.P,P20,0,C*%
%TO.N,P20*%
X175937901Y-121550000D03*
D11*
X172937901Y-121300000D03*
X174937901Y-121300000D03*
X176937901Y-121300000D03*
X178937901Y-121300000D03*
D12*
%TO.P,P20,1,B*%
%TO.N,/JA1*%
X172937901Y-120300001D03*
D13*
%TO.P,P20,2,B*%
%TO.N,/JA2*%
X174937901Y-120300000D03*
D12*
%TO.P,P20,3,B*%
%TO.N,/JA3*%
X176937902Y-120300000D03*
D13*
%TO.P,P20,4,B*%
%TO.N,/JA4*%
X178937901Y-120300000D03*
%TD*%
D10*
%TO.P,P3,0,C*%
%TO.N,P3*%
X165637900Y-58050000D03*
D12*
%TO.P,P3,1,B*%
%TO.N,/JA1*%
X162637900Y-57000000D03*
D13*
%TO.P,P3,2,B*%
%TO.N,/JA2*%
X164637900Y-56999999D03*
D12*
%TO.P,P3,3,B*%
%TO.N,/JA3*%
X166637900Y-57000000D03*
D13*
%TO.P,P3,4,B*%
%TO.N,/JA4*%
X168637900Y-57000000D03*
%TD*%
D10*
%TO.P,P29,0,C*%
%TO.N,P29*%
X165637900Y-148750000D03*
D12*
%TO.P,P29,1,B*%
%TO.N,/JA1*%
X162637900Y-147700000D03*
D13*
%TO.P,P29,2,B*%
%TO.N,/JA2*%
X164637900Y-147699999D03*
D12*
%TO.P,P29,3,B*%
%TO.N,/JA3*%
X166637900Y-147700000D03*
D13*
%TO.P,P29,4,B*%
%TO.N,/JA4*%
X168637900Y-147700000D03*
%TD*%
D10*
%TO.P,P22,0,C*%
%TO.N,P22*%
X175937900Y-129350000D03*
D11*
X172937900Y-129100000D03*
X174937900Y-129100000D03*
X176937900Y-129100000D03*
X178937900Y-129100000D03*
D12*
%TO.P,P22,1,B*%
%TO.N,/JA1*%
X172937900Y-128100001D03*
D13*
%TO.P,P22,2,B*%
%TO.N,/JA2*%
X174937900Y-128100000D03*
D12*
%TO.P,P22,3,B*%
%TO.N,/JA3*%
X176937901Y-128100000D03*
D13*
%TO.P,P22,4,B*%
%TO.N,/JA4*%
X178937900Y-128100000D03*
%TD*%
D10*
%TO.P,P9,0,C*%
%TO.N,P9*%
X175937900Y-78300000D03*
D11*
X172937900Y-78050000D03*
X174937900Y-78050000D03*
X176937900Y-78050000D03*
X178937900Y-78050000D03*
D12*
%TO.P,P9,1,B*%
%TO.N,/JA1*%
X172937900Y-77050001D03*
D13*
%TO.P,P9,2,B*%
%TO.N,/JA2*%
X174937900Y-77050000D03*
D12*
%TO.P,P9,3,B*%
%TO.N,/JA3*%
X176937901Y-77050000D03*
D13*
%TO.P,P9,4,B*%
%TO.N,/JA4*%
X178937900Y-77050000D03*
%TD*%
D10*
%TO.P,P11,0,C*%
%TO.N,P11*%
X175937900Y-86200001D03*
D11*
X172937900Y-85950001D03*
X174937900Y-85950001D03*
X176937900Y-85950001D03*
X178937900Y-85950001D03*
D12*
%TO.P,P11,1,B*%
%TO.N,/JA1*%
X172937900Y-84950002D03*
D13*
%TO.P,P11,2,B*%
%TO.N,/JA2*%
X174937900Y-84950001D03*
D12*
%TO.P,P11,3,B*%
%TO.N,/JA3*%
X176937901Y-84950001D03*
D13*
%TO.P,P11,4,B*%
%TO.N,/JA4*%
X178937900Y-84950001D03*
%TD*%
D10*
%TO.P,P15,0,C*%
%TO.N,P15*%
X175937900Y-101950001D03*
D11*
X172937900Y-101700001D03*
X174937900Y-101700001D03*
X176937900Y-101700001D03*
X178937900Y-101700001D03*
D12*
%TO.P,P15,1,B*%
%TO.N,/JA1*%
X172937900Y-100700002D03*
D13*
%TO.P,P15,2,B*%
%TO.N,/JA2*%
X174937900Y-100700001D03*
D12*
%TO.P,P15,3,B*%
%TO.N,/JA3*%
X176937901Y-100700001D03*
D13*
%TO.P,P15,4,B*%
%TO.N,/JA4*%
X178937900Y-100700001D03*
%TD*%
D10*
%TO.P,P6,0,C*%
%TO.N,P6*%
X175937900Y-66300000D03*
D11*
X172937900Y-66050000D03*
X174937900Y-66050000D03*
X176937900Y-66050000D03*
X178937900Y-66050000D03*
D12*
%TO.P,P6,1,B*%
%TO.N,/JA1*%
X172937900Y-65050001D03*
D13*
%TO.P,P6,2,B*%
%TO.N,/JA2*%
X174937900Y-65050000D03*
D12*
%TO.P,P6,3,B*%
%TO.N,/JA3*%
X176937901Y-65050000D03*
D13*
%TO.P,P6,4,B*%
%TO.N,/JA4*%
X178937900Y-65050000D03*
%TD*%
D16*
%TO.N,/JA3*%
X143937900Y-76100000D03*
X143937900Y-115500000D03*
X143937900Y-84000000D03*
X143937900Y-119400000D03*
%TO.N,/JA4*%
X135637899Y-146850001D03*
X145937900Y-131200000D03*
X145937900Y-88000000D03*
X145937900Y-142900000D03*
X135637900Y-60100001D03*
X145937900Y-91900000D03*
X145937900Y-95800000D03*
X145937900Y-64100000D03*
%TO.N,/JA3*%
X143937900Y-150800000D03*
%TO.N,/JA2*%
X141937901Y-95700000D03*
X141937900Y-99700001D03*
X141937900Y-103600000D03*
X141937900Y-123200000D03*
X141937900Y-64000001D03*
%TO.N,/JA3*%
X143937900Y-68100000D03*
%TO.N,/JA2*%
X141937901Y-127100000D03*
%TO.N,/JA4*%
X145937900Y-68100000D03*
%TO.N,/JA3*%
X143937900Y-88000000D03*
%TO.N,/JA4*%
X135537900Y-149900000D03*
%TO.N,/JA3*%
X143937900Y-60100000D03*
X143937900Y-72100000D03*
%TO.N,/JA4*%
X145937900Y-115500000D03*
X145937900Y-107700000D03*
%TO.N,/JA1*%
X140137900Y-115400000D03*
%TO.N,/JA2*%
X141937901Y-72100000D03*
%TO.N,/JA1*%
X140137900Y-142800000D03*
%TO.N,/JA2*%
X131637900Y-150750000D03*
%TO.N,/JA1*%
X129637900Y-60100000D03*
%TO.N,/JA2*%
X141937900Y-135000000D03*
%TO.N,/JA1*%
X140137900Y-68200000D03*
X140137900Y-72200000D03*
X140137900Y-131100001D03*
X140137900Y-119300001D03*
%TO.N,/JA2*%
X141937900Y-142800000D03*
%TO.N,/JA1*%
X129637899Y-150850001D03*
%TO.N,/JA2*%
X141937900Y-111500000D03*
%TO.N,/JA3*%
X133637900Y-150750000D03*
%TO.N,/JA1*%
X140137900Y-60100000D03*
%TO.N,/JA4*%
X135637900Y-64100000D03*
%TO.N,/JA2*%
X141937901Y-68100000D03*
%TO.N,/JA1*%
X140137900Y-76100001D03*
%TO.N,/JA4*%
X144937900Y-56500000D03*
%TO.N,/JA1*%
X140137900Y-127100001D03*
X129637900Y-56161001D03*
%TO.N,/JA4*%
X145337900Y-153899998D03*
%TO.N,/JA3*%
X143937900Y-146900000D03*
%TO.N,/JA4*%
X145937900Y-84000000D03*
X145937900Y-139000001D03*
%TO.N,/JA3*%
X133637900Y-64100000D03*
%TO.N,/JA1*%
X140137900Y-80100000D03*
X140137900Y-88000000D03*
X140137900Y-84000000D03*
%TO.N,/JA2*%
X141937900Y-119300001D03*
X131637900Y-146850000D03*
%TO.N,/JA4*%
X145937900Y-146900000D03*
%TO.N,/JA2*%
X141937901Y-138900000D03*
%TO.N,/JA4*%
X145937900Y-127200001D03*
%TO.N,/JA2*%
X131637900Y-64100000D03*
%TO.N,/JA4*%
X145937900Y-111600000D03*
%TO.N,/JA2*%
X141937900Y-131100001D03*
%TO.N,/JA4*%
X145937900Y-150700000D03*
%TO.N,/JA3*%
X133637900Y-146849999D03*
%TO.N,/JA1*%
X138660900Y-57300000D03*
%TO.N,/JA4*%
X145937900Y-119400000D03*
%TO.N,/JA3*%
X143937900Y-127200001D03*
X143937900Y-123300000D03*
%TO.N,/JA2*%
X141937900Y-115400000D03*
%TO.N,/JA4*%
X145937900Y-135100000D03*
%TO.N,/JA1*%
X140137900Y-99700001D03*
%TO.N,/JA2*%
X141937901Y-107600000D03*
%TO.N,/JA3*%
X133637900Y-60200000D03*
%TO.N,/JA4*%
X145937900Y-80100000D03*
%TO.N,/JA1*%
X140137900Y-150700001D03*
%TO.N,/JA3*%
X143937900Y-142900000D03*
%TO.N,/JA2*%
X141937900Y-76100001D03*
%TO.N,/JA4*%
X145937900Y-123300000D03*
%TO.N,/JA3*%
X143937900Y-111600000D03*
%TO.N,/JA2*%
X131637900Y-60100001D03*
%TO.N,/JA1*%
X140137900Y-123200000D03*
X140137900Y-107600000D03*
%TO.N,P27*%
X138537900Y-148700000D03*
%TO.N,/JA1*%
X140137900Y-91800000D03*
%TO.N,P6*%
X138237900Y-66700000D03*
%TO.N,/JA1*%
X140137900Y-95700001D03*
X129637900Y-64100000D03*
%TO.N,/JA2*%
X141937901Y-88000000D03*
%TO.N,/JA1*%
X140137900Y-64100000D03*
%TO.N,/JA2*%
X141937901Y-150700000D03*
%TO.N,P12*%
X138237901Y-91400000D03*
%TO.N,/JA1*%
X140137900Y-146800000D03*
%TO.N,P10*%
X138937900Y-83600000D03*
%TO.N,/JA1*%
X140637900Y-135000000D03*
%TO.N,/JA2*%
X141487899Y-57049999D03*
%TO.N,/JA4*%
X145937900Y-60100001D03*
%TO.N,/JA2*%
X141937900Y-80100000D03*
%TO.N,/JA3*%
X143937900Y-135100000D03*
X142937900Y-56500000D03*
%TO.N,/JA4*%
X145937900Y-103700000D03*
%TO.N,/JA2*%
X141937900Y-60100000D03*
%TO.N,/JA3*%
X143937900Y-103700000D03*
%TO.N,/JA2*%
X141937900Y-146800000D03*
X131637900Y-56161001D03*
%TO.N,/JA3*%
X143937900Y-99800000D03*
%TO.N,/JA4*%
X145937900Y-76100000D03*
%TO.N,/JA3*%
X143937900Y-139000001D03*
X143937900Y-107700000D03*
%TO.N,/JA1*%
X140137900Y-138900001D03*
%TO.N,/JA3*%
X143937900Y-95800000D03*
%TO.N,/JA4*%
X135637900Y-56161001D03*
%TO.N,/JA3*%
X143937900Y-80200000D03*
X143937900Y-131200000D03*
%TO.N,/JA2*%
X141937900Y-84000000D03*
%TO.N,P23*%
X138937900Y-134500001D03*
%TO.N,/JA3*%
X143937900Y-64100000D03*
%TO.N,/JA4*%
X145937900Y-99800000D03*
%TO.N,/JA3*%
X143937900Y-91900000D03*
%TO.N,P8*%
X138937900Y-75000000D03*
%TO.N,/JA3*%
X133637900Y-56161001D03*
%TO.N,/JA1*%
X140137900Y-103600000D03*
%TO.N,P25*%
X139137900Y-141800000D03*
%TO.N,P4*%
X137737900Y-59300000D03*
%TO.N,/JA1*%
X140137900Y-111500000D03*
%TO.N,P3*%
X128637901Y-58700000D03*
%TO.N,/JA4*%
X145937900Y-72100000D03*
%TO.N,/JA2*%
X141937900Y-91800000D03*
%TO.N,/JA1*%
X129637899Y-146850001D03*
%TO.N,P30*%
X129137900Y-153500000D03*
%TO.N,/JA3*%
X110937900Y-107700000D03*
X110937900Y-91900000D03*
X110937900Y-115500000D03*
X110937900Y-84000000D03*
X110937900Y-99800000D03*
X110937900Y-60100000D03*
%TO.N,/JA4*%
X102637899Y-146850001D03*
X112937900Y-88000000D03*
X102637900Y-60100001D03*
X112937900Y-150700000D03*
X102637900Y-64100000D03*
X112937900Y-95800000D03*
%TO.N,/JA3*%
X110937900Y-150800000D03*
%TO.N,/JA2*%
X108937900Y-123200000D03*
X108937900Y-64000001D03*
X108937900Y-80100000D03*
%TO.N,/JA4*%
X112937900Y-123300000D03*
%TO.N,/JA3*%
X100637900Y-150750000D03*
%TO.N,/JA2*%
X108937901Y-127100000D03*
%TO.N,/JA4*%
X112937900Y-68100000D03*
X102537900Y-149900000D03*
%TO.N,/JA3*%
X110937900Y-131200000D03*
%TO.N,/JA4*%
X112937900Y-139000001D03*
X112937900Y-146900000D03*
X112937900Y-91900000D03*
%TO.N,/JA3*%
X100637900Y-64100000D03*
%TO.N,/JA2*%
X108937901Y-150700000D03*
%TO.N,/JA4*%
X112937900Y-107700000D03*
%TO.N,/JA1*%
X107137900Y-115400000D03*
%TO.N,/JA2*%
X98637900Y-64100000D03*
X108937901Y-72100000D03*
X98637900Y-150750000D03*
%TO.N,/JA1*%
X96637900Y-60100000D03*
%TO.N,/JA4*%
X112937900Y-103700000D03*
%TO.N,/JA1*%
X107137900Y-138900001D03*
X107137900Y-72200000D03*
%TO.N,/JA3*%
X110937900Y-88000000D03*
%TO.N,/JA1*%
X107137900Y-127100001D03*
%TO.N,/JA3*%
X110937900Y-68100000D03*
%TO.N,/JA1*%
X107137900Y-131100001D03*
X107137900Y-119300001D03*
%TO.N,/JA2*%
X108937900Y-142800000D03*
%TO.N,/JA1*%
X96637899Y-150850001D03*
%TO.N,/JA3*%
X100637900Y-56161001D03*
%TO.N,/JA2*%
X108937901Y-68100000D03*
%TO.N,/JA4*%
X112337900Y-153899998D03*
X112937900Y-119400000D03*
%TO.N,/JA1*%
X107637900Y-135000000D03*
X107137900Y-80100000D03*
X107137900Y-76100001D03*
%TO.N,/JA2*%
X108937900Y-119300001D03*
%TO.N,/JA1*%
X107137900Y-68200000D03*
%TO.N,/JA2*%
X108937901Y-95700000D03*
X108937901Y-138900000D03*
%TO.N,/JA4*%
X112937900Y-115500000D03*
X112937900Y-127200001D03*
X112937900Y-131200000D03*
%TO.N,/JA3*%
X109937900Y-56500000D03*
%TO.N,/JA2*%
X108937900Y-131100001D03*
%TO.N,/JA3*%
X100637900Y-146849999D03*
%TO.N,/JA1*%
X105660900Y-57300000D03*
%TO.N,/JA2*%
X108937900Y-84000000D03*
%TO.N,/JA1*%
X107137900Y-84000000D03*
%TO.N,/JA3*%
X110937900Y-119400000D03*
%TO.N,/JA2*%
X98637900Y-146850000D03*
%TO.N,/JA4*%
X112937900Y-142900000D03*
%TO.N,/JA3*%
X110937900Y-80200000D03*
X110937900Y-127200001D03*
%TO.N,/JA2*%
X108937900Y-115400000D03*
%TO.N,/JA4*%
X112937900Y-84000000D03*
X112937900Y-135100000D03*
%TO.N,/JA1*%
X107137900Y-99700001D03*
%TO.N,/JA2*%
X108937901Y-107600000D03*
%TO.N,/JA3*%
X100637900Y-60200000D03*
%TO.N,/JA2*%
X108937900Y-111500000D03*
%TO.N,/JA3*%
X110937900Y-103700000D03*
X110937900Y-76100000D03*
%TO.N,/JA2*%
X108937900Y-76100001D03*
%TO.N,/JA3*%
X110937900Y-142900000D03*
%TO.N,/JA2*%
X108937900Y-99700001D03*
%TO.N,/JA3*%
X110937900Y-111600000D03*
%TO.N,/JA1*%
X107137900Y-142800000D03*
X107137900Y-123200000D03*
X107137900Y-107600000D03*
%TO.N,P27*%
X105537900Y-148700000D03*
%TO.N,/JA1*%
X107137900Y-91800000D03*
%TO.N,P6*%
X105237900Y-66700000D03*
%TO.N,/JA2*%
X108937901Y-88000000D03*
%TO.N,/JA3*%
X110937900Y-146900000D03*
%TO.N,/JA2*%
X108487899Y-57049999D03*
X108937900Y-60100000D03*
X108937900Y-146800000D03*
%TO.N,/JA1*%
X107137900Y-146800000D03*
%TO.N,/JA3*%
X110937900Y-135100000D03*
%TO.N,/JA2*%
X108937900Y-135000000D03*
%TO.N,/JA3*%
X110937900Y-72100000D03*
%TO.N,/JA4*%
X112937900Y-80100000D03*
%TO.N,/JA2*%
X98637900Y-56161001D03*
%TO.N,/JA1*%
X107137900Y-64100000D03*
X96637900Y-64100000D03*
%TO.N,/JA4*%
X112937900Y-111600000D03*
%TO.N,/JA3*%
X110937900Y-95800000D03*
%TO.N,P23*%
X105937900Y-134500001D03*
%TO.N,/JA2*%
X98637900Y-60100001D03*
%TO.N,/JA3*%
X110937900Y-123300000D03*
X110937900Y-64100000D03*
%TO.N,/JA1*%
X107137900Y-150700001D03*
X107137900Y-60100000D03*
%TO.N,/JA4*%
X112937900Y-64100000D03*
%TO.N,/JA1*%
X107137900Y-95700001D03*
X96637900Y-56161001D03*
%TO.N,/JA4*%
X102637900Y-56161001D03*
X112937900Y-99800000D03*
X111937900Y-56500000D03*
%TO.N,P8*%
X105937900Y-75000000D03*
%TO.N,/JA4*%
X112937900Y-76100000D03*
%TO.N,/JA1*%
X107137900Y-103600000D03*
%TO.N,/JA4*%
X112937900Y-60100001D03*
%TO.N,P25*%
X106137900Y-141800000D03*
%TO.N,P12*%
X105237901Y-91400000D03*
%TO.N,P4*%
X104737900Y-59300000D03*
%TO.N,/JA1*%
X107137900Y-111500000D03*
X107137900Y-88000000D03*
%TO.N,P3*%
X95637901Y-58700000D03*
%TO.N,/JA4*%
X112937900Y-72100000D03*
%TO.N,/JA2*%
X108937900Y-103600000D03*
%TO.N,/JA3*%
X110937900Y-139000001D03*
%TO.N,/JA2*%
X108937900Y-91800000D03*
%TO.N,/JA1*%
X96637899Y-146850001D03*
%TO.N,P30*%
X96137900Y-153500000D03*
%TO.N,P10*%
X105937900Y-83600000D03*
%TO.N,P25*%
X172137900Y-141800000D03*
%TO.N,P30*%
X162137900Y-153500000D03*
%TO.N,P3*%
X161637901Y-58700000D03*
%TO.N,P8*%
X171937900Y-75000000D03*
%TO.N,P4*%
X170737900Y-59300000D03*
%TO.N,P27*%
X171537900Y-148700000D03*
%TO.N,P10*%
X171937900Y-83600000D03*
%TO.N,P12*%
X171237901Y-91400000D03*
%TO.N,P6*%
X171237900Y-66700000D03*
%TO.N,/JA1*%
X173137900Y-103600000D03*
X173137900Y-107600000D03*
X173137900Y-123200000D03*
X162637900Y-64100000D03*
X173137900Y-91800000D03*
X173137900Y-146800000D03*
X173137900Y-95700001D03*
X173137900Y-64100000D03*
X162637899Y-146850001D03*
X162637899Y-150850001D03*
X173137900Y-60100000D03*
X173137900Y-119300001D03*
X173137900Y-150700001D03*
X173137900Y-111500000D03*
X173137900Y-99700001D03*
X173137900Y-131100001D03*
X171660900Y-57300000D03*
X173137900Y-80100000D03*
X173137900Y-84000000D03*
X173137900Y-72200000D03*
X173137900Y-127100001D03*
X173137900Y-76100001D03*
X162637900Y-56161001D03*
X173137900Y-68200000D03*
X173637900Y-135000000D03*
X162637900Y-60100000D03*
X173137900Y-142800000D03*
X173137900Y-88000000D03*
X173137900Y-115400000D03*
X173137900Y-138900001D03*
%TO.N,P23*%
X171937900Y-134500001D03*
%TO.N,/JA2*%
X164637900Y-150750000D03*
X174937901Y-72100000D03*
X174937900Y-135000000D03*
X164637900Y-64100000D03*
X174937900Y-60100000D03*
X174937900Y-123200000D03*
X174937900Y-146800000D03*
X174937900Y-111500000D03*
X164637900Y-146850000D03*
X174937901Y-150700000D03*
X174937901Y-68100000D03*
X174937900Y-142800000D03*
X174937900Y-84000000D03*
X174937900Y-64000001D03*
X164637900Y-60100001D03*
X164637900Y-56161001D03*
X174937900Y-119300001D03*
X174937901Y-88000000D03*
X174937901Y-138900000D03*
X174937901Y-107600000D03*
X174937901Y-95700000D03*
X174937900Y-76100001D03*
X174937900Y-131100001D03*
X174937900Y-103600000D03*
X174937900Y-91800000D03*
X174937901Y-127100000D03*
X174937900Y-115400000D03*
X174937900Y-80100000D03*
X174937900Y-99700001D03*
X174487899Y-57049999D03*
%TO.N,/JA4*%
X178937900Y-139000001D03*
X178937900Y-99800000D03*
X178937900Y-80100000D03*
X168637900Y-64100000D03*
X178937900Y-64100000D03*
X178937900Y-146900000D03*
X178937900Y-76100000D03*
X178937900Y-103700000D03*
X178937900Y-95800000D03*
X178937900Y-60100001D03*
X178937900Y-107700000D03*
X178937900Y-115500000D03*
X178937900Y-150700000D03*
X178937900Y-127200001D03*
X178937900Y-111600000D03*
X178937900Y-88000000D03*
X178337900Y-153899998D03*
X177937900Y-56500000D03*
X178937900Y-68100000D03*
X178937900Y-84000000D03*
X178937900Y-131200000D03*
X168637900Y-56161001D03*
X178937900Y-91900000D03*
X168637900Y-60100001D03*
X178937900Y-142900000D03*
X178937900Y-119400000D03*
X168537900Y-149900000D03*
X178937900Y-135100000D03*
X168637899Y-146850001D03*
X178937900Y-72100000D03*
X178937900Y-123300000D03*
%TO.N,/JA3*%
X176937900Y-60100000D03*
X175937900Y-56500000D03*
X176937900Y-103700000D03*
X176937900Y-99800000D03*
X166637900Y-60200000D03*
X176937900Y-80200000D03*
X166637900Y-150750000D03*
X176937900Y-72100000D03*
X176937900Y-131200000D03*
X176937900Y-115500000D03*
X176937900Y-127200001D03*
X176937900Y-135100000D03*
X176937900Y-142900000D03*
X176937900Y-64100000D03*
X176937900Y-146900000D03*
X176937900Y-84000000D03*
X176937900Y-111600000D03*
X176937900Y-139000001D03*
X176937900Y-123300000D03*
X176937900Y-95800000D03*
X176937900Y-68100000D03*
X166637900Y-64100000D03*
X166637900Y-146849999D03*
X176937900Y-88000000D03*
X176937900Y-119400000D03*
X176937900Y-91900000D03*
X176937900Y-107700000D03*
X176937900Y-76100000D03*
X176937900Y-150800000D03*
X166637900Y-56161001D03*
%TD*%
D17*
%TO.N,/JA3*%
X143937900Y-142900000D02*
X143937900Y-143800000D01*
X143937900Y-72100000D02*
X143937900Y-73050000D01*
X143937900Y-88000000D02*
X143937900Y-88950000D01*
D18*
%TO.N,/B15*%
X117749723Y-93448589D02*
X124289723Y-93448589D01*
%TO.N,/B3*%
X117749723Y-62968589D02*
X124289723Y-62968589D01*
%TO.N,/B28*%
X117749723Y-126468589D02*
X124289723Y-126468589D01*
%TO.N,/B21*%
X117749723Y-108688589D02*
X124289723Y-108688589D01*
%TO.N,/B29*%
X117749723Y-129008589D02*
X124289723Y-129008589D01*
%TO.N,/B17*%
X117749723Y-98528589D02*
X124289723Y-98528589D01*
%TO.N,/B37*%
X117749723Y-149328589D02*
X124289723Y-149328589D01*
%TO.N,/B9*%
X117749723Y-78208589D02*
X124289723Y-78208589D01*
%TO.N,/B27*%
X117749723Y-123928589D02*
X124289723Y-123928589D01*
D19*
%TO.N,/JA3*%
X136538901Y-58851000D02*
X134986900Y-58851000D01*
X134986900Y-58851000D02*
X133637900Y-60200000D01*
D17*
X143937900Y-139000001D02*
X143937900Y-139900000D01*
X143937900Y-60100000D02*
X143937900Y-61050000D01*
X133637900Y-60200000D02*
X133637900Y-61085000D01*
X143937900Y-68100000D02*
X143937900Y-69050000D01*
X143937900Y-95800000D02*
X143937900Y-96700000D01*
X143937900Y-84000000D02*
X143937900Y-84950000D01*
%TO.N,/JA4*%
X145937900Y-64100000D02*
X145937900Y-65050000D01*
X145937900Y-119400000D02*
X145937900Y-120300000D01*
X145937900Y-115500000D02*
X145937900Y-116400000D01*
D20*
X135637899Y-150799999D02*
X135637899Y-151700001D01*
D17*
X145937900Y-91900000D02*
X145937900Y-92800000D01*
X145937900Y-127200001D02*
X145937900Y-128100000D01*
D20*
X135637899Y-146850001D02*
X135637899Y-147800000D01*
X135537900Y-149900000D02*
X135537900Y-150700000D01*
D17*
X145937900Y-80100000D02*
X145937900Y-81050000D01*
D19*
%TO.N,/JA2*%
X141136900Y-59299000D02*
X141937900Y-60100000D01*
D17*
X141937900Y-115400000D02*
X141937900Y-116399999D01*
X131637900Y-64100000D02*
X131637900Y-65050000D01*
%TO.N,P22*%
X136789723Y-126808839D02*
X139330884Y-129350000D01*
%TO.N,/JA2*%
X141937900Y-99700001D02*
X141937900Y-100699999D01*
X141937900Y-80100000D02*
X141937901Y-81049999D01*
D18*
%TO.N,/B2*%
X117749723Y-60428589D02*
X124289723Y-60428589D01*
D17*
%TO.N,/JA2*%
X141937901Y-72100000D02*
X141937901Y-73049999D01*
X141937900Y-142800000D02*
X141937900Y-143799999D01*
D19*
X132438900Y-63299000D02*
X131637900Y-64100000D01*
D17*
X141937900Y-119300001D02*
X141937900Y-120300000D01*
%TO.N,P22*%
X135338723Y-122840000D02*
X136789723Y-124291000D01*
D20*
%TO.N,/JA2*%
X131637900Y-146850000D02*
X131637900Y-147800000D01*
D19*
X136538901Y-62899000D02*
X136138900Y-63299000D01*
D18*
%TO.N,/B1*%
X117749723Y-57888589D02*
X124289723Y-57888589D01*
D17*
%TO.N,/JA2*%
X141937900Y-64000001D02*
X141937900Y-65049999D01*
%TO.N,/JA4*%
X145937900Y-107700000D02*
X145937900Y-108600000D01*
%TO.N,P21*%
X138781900Y-124901016D02*
X139330884Y-125450000D01*
X138781901Y-123743176D02*
X138781900Y-124901016D01*
%TO.N,/JA3*%
X143937900Y-80200000D02*
X143937900Y-81050000D01*
%TO.N,P21*%
X135338723Y-120299999D02*
X138781901Y-123743176D01*
%TO.N,P20*%
X139128723Y-121550000D02*
X142937900Y-121550000D01*
X135338723Y-117760001D02*
X139128723Y-121550000D01*
%TO.N,P19*%
X135338723Y-115220000D02*
X137768723Y-117650000D01*
%TO.N,/JA3*%
X143937900Y-107700000D02*
X143937900Y-108600000D01*
D18*
%TO.N,/B35*%
X117749723Y-144248589D02*
X124289723Y-144248589D01*
%TO.N,/B22*%
X117749723Y-111228589D02*
X124289723Y-111228589D01*
D17*
%TO.N,/JA4*%
X145937900Y-151700000D02*
X145937900Y-150700000D01*
D20*
%TO.N,/JA1*%
X129637900Y-151700000D02*
X129637899Y-150850001D01*
D17*
X140137900Y-131100001D02*
X140137900Y-131900000D01*
X140137900Y-115400000D02*
X140137900Y-116200001D01*
%TO.N,/JA3*%
X143937900Y-111600000D02*
X143937900Y-112500000D01*
D18*
%TO.N,/B33*%
X117749723Y-139168589D02*
X124289723Y-139168589D01*
D17*
%TO.N,/JA1*%
X140137900Y-103600000D02*
X140137900Y-104400001D01*
X140137900Y-108400001D02*
X139937900Y-108600001D01*
D19*
%TO.N,/JA3*%
X142686900Y-56249000D02*
X137892362Y-56249000D01*
D18*
%TO.N,/B38*%
X117749723Y-151868589D02*
X124289723Y-151868589D01*
D17*
%TO.N,/JA4*%
X145937900Y-76100000D02*
X145937900Y-77050000D01*
D19*
%TO.N,/JA3*%
X136538900Y-57602463D02*
X136538901Y-58851000D01*
D18*
%TO.N,/B7*%
X117749723Y-73128589D02*
X124289723Y-73128589D01*
D17*
%TO.N,/JA1*%
X140137900Y-96500000D02*
X139937900Y-96700000D01*
%TO.N,/JA3*%
X133637900Y-56161001D02*
X133637900Y-57000000D01*
D18*
%TO.N,/B30*%
X117749723Y-131548589D02*
X124289723Y-131548589D01*
D17*
%TO.N,/JA1*%
X129637900Y-56161001D02*
X129637900Y-57000000D01*
D18*
%TO.N,/B5*%
X117749723Y-68048589D02*
X124289723Y-68048589D01*
D17*
%TO.N,/JA3*%
X143937900Y-91900000D02*
X143937900Y-92800000D01*
%TO.N,/JA4*%
X145937900Y-142900000D02*
X145937900Y-143800000D01*
%TO.N,/JA1*%
X140137900Y-107600000D02*
X140137900Y-108400001D01*
%TO.N,/JA2*%
X141937900Y-103600000D02*
X141937900Y-104599999D01*
%TO.N,/JA3*%
X143937900Y-103700000D02*
X143937900Y-104600000D01*
%TO.N,/JA1*%
X140137900Y-131900000D02*
X139937900Y-132100000D01*
%TO.N,/JA4*%
X145487900Y-57050000D02*
X144937900Y-56500000D01*
D18*
%TO.N,/B19*%
X117749723Y-103608589D02*
X124289723Y-103608589D01*
D17*
%TO.N,P19*%
X137768723Y-117650000D02*
X142937899Y-117650000D01*
%TO.N,/JA3*%
X133637900Y-65050000D02*
X133637900Y-64100000D01*
%TO.N,/JA4*%
X145937900Y-57050000D02*
X145487900Y-57050000D01*
%TO.N,P22*%
X136789723Y-124291000D02*
X136789723Y-126808839D01*
%TO.N,/JA2*%
X141937900Y-111500000D02*
X141937900Y-112499999D01*
X141937901Y-107600000D02*
X141937901Y-108599999D01*
D20*
%TO.N,/JA4*%
X135537900Y-149900000D02*
X135537900Y-150650001D01*
D17*
%TO.N,/JA3*%
X143937900Y-64100000D02*
X143937900Y-65050000D01*
%TO.N,/JA2*%
X141487899Y-57049999D02*
X141937900Y-57049999D01*
%TO.N,/JA1*%
X140137900Y-112300000D02*
X139937900Y-112500000D01*
X140137900Y-68200000D02*
X140137900Y-68850001D01*
X140137900Y-95700001D02*
X140137900Y-96500000D01*
X140137900Y-80100000D02*
X140137900Y-80850000D01*
%TO.N,/JA2*%
X141937901Y-68100000D02*
X141937900Y-69049999D01*
%TO.N,/JA1*%
X140137900Y-64850000D02*
X139937900Y-65050000D01*
X140137900Y-150700001D02*
X140137900Y-151500000D01*
D18*
%TO.N,/B26*%
X117749723Y-121388589D02*
X124289723Y-121388589D01*
D17*
%TO.N,/JA1*%
X140137900Y-72850001D02*
X139937901Y-73050000D01*
D18*
%TO.N,/B8*%
X117749723Y-75668589D02*
X124289723Y-75668589D01*
D17*
%TO.N,/JA1*%
X140137900Y-60850000D02*
X139937900Y-61050000D01*
X140137900Y-92600001D02*
X139937901Y-92800000D01*
X140137900Y-88000000D02*
X140137899Y-88750000D01*
X140137900Y-146800000D02*
X140137900Y-147600001D01*
X140137900Y-124000001D02*
X139937901Y-124200000D01*
X140137900Y-80850000D02*
X139937900Y-81050000D01*
X129637900Y-65050000D02*
X129637900Y-64100000D01*
X140137900Y-64100000D02*
X140137900Y-64850000D01*
D20*
X129637899Y-146850001D02*
X129637900Y-147800000D01*
D17*
X140137900Y-84000000D02*
X140137900Y-84750000D01*
%TO.N,P22*%
X139330884Y-129350000D02*
X142937900Y-129350000D01*
%TO.N,/JA1*%
X138910899Y-57050000D02*
X139937900Y-57050000D01*
%TO.N,P5*%
X136793900Y-64448984D02*
X138942884Y-62300000D01*
%TO.N,/JA2*%
X131637900Y-60100001D02*
X131637900Y-61085000D01*
%TO.N,P9*%
X137837900Y-86832848D02*
X137837900Y-80900000D01*
%TO.N,P24*%
X137936900Y-130518178D02*
X137936900Y-136599000D01*
%TO.N,P6*%
X138237900Y-66700000D02*
X138637900Y-66300000D01*
%TO.N,P11*%
X136789723Y-89572495D02*
X140162218Y-86200001D01*
%TO.N,/JA4*%
X145937900Y-146900000D02*
X145937900Y-147800000D01*
%TO.N,P9*%
X140437900Y-78300001D02*
X142937900Y-78300001D01*
%TO.N,/JA1*%
X140137900Y-76850000D02*
X139937900Y-77050001D01*
%TO.N,P21*%
X139330884Y-125450000D02*
X142937900Y-125450000D01*
%TO.N,P5*%
X135338723Y-79660000D02*
X136793900Y-78204823D01*
%TO.N,/JA2*%
X141937900Y-91800000D02*
X141937900Y-92799999D01*
%TO.N,P14*%
X135338723Y-102520000D02*
X139908723Y-97950000D01*
D18*
%TO.N,/B24*%
X117749723Y-116308589D02*
X124289723Y-116308589D01*
D17*
%TO.N,P17*%
X135687900Y-109850000D02*
X141743900Y-109850000D01*
%TO.N,/JA2*%
X141937900Y-123200000D02*
X141937900Y-124199999D01*
D18*
%TO.N,/B4*%
X117749723Y-65508589D02*
X124289723Y-65508589D01*
D17*
%TO.N,/JA1*%
X140137900Y-143600000D02*
X139937900Y-143800000D01*
%TO.N,/JA2*%
X141937900Y-146800000D02*
X141937900Y-147799999D01*
%TO.N,/JA1*%
X140137900Y-139700000D02*
X139937900Y-139900000D01*
D18*
%TO.N,/B14*%
X117749723Y-90908589D02*
X124289723Y-90908589D01*
D17*
%TO.N,P6*%
X138637900Y-66300000D02*
X142937900Y-66300000D01*
%TO.N,P10*%
X138937900Y-83600000D02*
X140237900Y-82300000D01*
%TO.N,P11*%
X140162218Y-86200001D02*
X142937900Y-86200000D01*
%TO.N,/JA2*%
X131637900Y-56161001D02*
X131637900Y-57000001D01*
D19*
X141136900Y-59299000D02*
X139806115Y-59299000D01*
D18*
%TO.N,/B10*%
X117749723Y-80748589D02*
X124289723Y-80748589D01*
D17*
%TO.N,/JA1*%
X140137900Y-142800000D02*
X140137900Y-143600000D01*
%TO.N,/JA2*%
X141937900Y-84000000D02*
X141937900Y-84949999D01*
X141937900Y-131100001D02*
X141937900Y-132100000D01*
%TO.N,P5*%
X136793900Y-78204823D02*
X136793900Y-64448984D01*
%TO.N,/JA3*%
X143937900Y-57050000D02*
X143487900Y-57050000D01*
D18*
%TO.N,/B18*%
X117749723Y-101068589D02*
X124289723Y-101068589D01*
D17*
%TO.N,/JA1*%
X140137900Y-147600001D02*
X139937901Y-147800000D01*
D19*
%TO.N,/JA2*%
X139806115Y-59299000D02*
X136538900Y-62566215D01*
D17*
%TO.N,/JA1*%
X140137900Y-138900001D02*
X140137900Y-139700000D01*
X140137900Y-91800000D02*
X140137900Y-92600001D01*
%TO.N,/JA2*%
X141937901Y-88000000D02*
X141937900Y-88949999D01*
D18*
%TO.N,/B34*%
X117749723Y-141708589D02*
X124289723Y-141708589D01*
D17*
%TO.N,/JA1*%
X140137900Y-104400001D02*
X139937901Y-104600000D01*
%TO.N,/JA4*%
X145937900Y-103700000D02*
X145937900Y-104600000D01*
%TO.N,/JA1*%
X140137900Y-151500000D02*
X139937900Y-151700000D01*
%TO.N,P14*%
X139908723Y-97950000D02*
X142937900Y-97950000D01*
%TO.N,P12*%
X139437901Y-90200000D02*
X142937900Y-90200000D01*
%TO.N,/JA1*%
X140137900Y-120100000D02*
X139937900Y-120300000D01*
D18*
%TO.N,/B31*%
X117749723Y-134088589D02*
X124289723Y-134088589D01*
D17*
%TO.N,P12*%
X138237901Y-91400000D02*
X139437901Y-90200000D01*
%TO.N,P23*%
X140487900Y-133350000D02*
X142937900Y-133350000D01*
%TO.N,/JA3*%
X143937900Y-99800000D02*
X143937900Y-100700000D01*
%TO.N,P17*%
X135338723Y-110140002D02*
X135397899Y-110140001D01*
D18*
%TO.N,/B25*%
X117749723Y-118848589D02*
X124289723Y-118848589D01*
D17*
%TO.N,P17*%
X141743900Y-109850000D02*
X141937900Y-109656000D01*
%TO.N,/JA3*%
X143937900Y-76100000D02*
X143937900Y-77050000D01*
%TO.N,P10*%
X140237900Y-82300000D02*
X142937900Y-82300000D01*
%TO.N,/JA3*%
X143487900Y-57050000D02*
X142937900Y-56500000D01*
D19*
%TO.N,/JA2*%
X136538900Y-62566215D02*
X136538901Y-62899000D01*
D17*
%TO.N,/JA1*%
X140137900Y-116200001D02*
X139937901Y-116400000D01*
%TO.N,/JA2*%
X141937901Y-150700000D02*
X141937900Y-151700000D01*
%TO.N,P9*%
X135338723Y-89332025D02*
X137837900Y-86832848D01*
%TO.N,/JA1*%
X140137900Y-127900000D02*
X139937900Y-128100000D01*
D20*
%TO.N,/JA3*%
X133637900Y-146849999D02*
X133637900Y-147800000D01*
%TO.N,/JA4*%
X135537900Y-150700000D02*
X135637899Y-150799999D01*
D17*
%TO.N,/JA1*%
X140137900Y-84750000D02*
X139937900Y-84950000D01*
%TO.N,P11*%
X136789723Y-93449000D02*
X136789723Y-89572495D01*
%TO.N,P24*%
X137936900Y-136599000D02*
X138587900Y-137250000D01*
%TO.N,P9*%
X135338723Y-89820000D02*
X135338723Y-89332025D01*
%TO.N,/JA4*%
X145937900Y-88000000D02*
X145937900Y-88950000D01*
%TO.N,P23*%
X139337900Y-134500000D02*
X140487900Y-133350000D01*
%TO.N,P5*%
X138942884Y-62300000D02*
X142937900Y-62300000D01*
%TO.N,P9*%
X137837900Y-80900000D02*
X140437900Y-78300001D01*
%TO.N,P24*%
X135338723Y-127920000D02*
X137936900Y-130518178D01*
%TO.N,/JA1*%
X140137900Y-99700001D02*
X140137900Y-100500000D01*
X140137900Y-72200000D02*
X140137900Y-72850001D01*
%TO.N,/JA4*%
X145937900Y-84000000D02*
X145937900Y-84950000D01*
D18*
%TO.N,/B13*%
X117749723Y-88368589D02*
X124289723Y-88368589D01*
%TO.N,/B20*%
X117749723Y-106148589D02*
X124289723Y-106148589D01*
D17*
%TO.N,/JA1*%
X140137899Y-88750000D02*
X139937900Y-88950000D01*
D18*
%TO.N,/B36*%
X117749723Y-146788589D02*
X124289723Y-146788589D01*
D17*
%TO.N,/JA3*%
X143937900Y-146900000D02*
X143937900Y-147800000D01*
%TO.N,/JA4*%
X145937900Y-95800000D02*
X145937900Y-96700000D01*
%TO.N,P1*%
X132637900Y-69339177D02*
X132798723Y-69500000D01*
%TO.N,P18*%
X135338723Y-112680000D02*
X136408724Y-113750000D01*
D18*
%TO.N,/B6*%
X117749723Y-70588589D02*
X124289723Y-70588589D01*
D17*
%TO.N,P1*%
X132637900Y-66100000D02*
X132637900Y-69339177D01*
D20*
%TO.N,P29*%
X128631900Y-142206825D02*
X130238723Y-140600001D01*
D17*
%TO.N,P8*%
X141743900Y-74300000D02*
X141937900Y-74106000D01*
X139637900Y-74300000D02*
X141743900Y-74300000D01*
D20*
%TO.N,P29*%
X129043016Y-148750000D02*
X128631900Y-148338884D01*
D17*
%TO.N,P8*%
X138937900Y-75000000D02*
X139637900Y-74300000D01*
D20*
%TO.N,P29*%
X132637900Y-148750000D02*
X129043016Y-148750000D01*
D17*
%TO.N,/JA1*%
X140137900Y-60100000D02*
X140137900Y-60850000D01*
%TO.N,P11*%
X135338723Y-94900001D02*
X136789723Y-93449000D01*
%TO.N,/JA3*%
X143937900Y-115500000D02*
X143937900Y-116400000D01*
%TO.N,P25*%
X139787900Y-141150000D02*
X142737900Y-141150000D01*
D20*
%TO.N,P2*%
X129402900Y-62135000D02*
X128588900Y-62949000D01*
D17*
%TO.N,/JA3*%
X143937900Y-127200001D02*
X143937900Y-128100000D01*
%TO.N,P13*%
X138787900Y-94050000D02*
X142937899Y-94050000D01*
%TO.N,P16*%
X135338723Y-107599999D02*
X137088722Y-105850000D01*
%TO.N,/JA2*%
X141937900Y-60100000D02*
X141937900Y-61050001D01*
D18*
%TO.N,/B11*%
X117749723Y-83288589D02*
X124289723Y-83288589D01*
D17*
%TO.N,P24*%
X138587900Y-137250000D02*
X142937900Y-137250000D01*
%TO.N,/JA2*%
X141937901Y-127100000D02*
X141937901Y-128099999D01*
D20*
%TO.N,P30*%
X129987899Y-152650001D02*
X132662900Y-152650001D01*
%TO.N,P3*%
X132637900Y-58050000D02*
X129287901Y-58050000D01*
D17*
%TO.N,/JA4*%
X145937900Y-111600000D02*
X145937900Y-112500000D01*
%TO.N,P25*%
X139137900Y-141800000D02*
X139787900Y-141150000D01*
%TO.N,/JA3*%
X143937900Y-119400000D02*
X143937900Y-120300000D01*
D19*
X137892362Y-56249000D02*
X136538900Y-57602463D01*
D17*
%TO.N,/JA1*%
X129637900Y-60100000D02*
X129637900Y-61085000D01*
D20*
%TO.N,P30*%
X129137900Y-153500000D02*
X129987899Y-152650001D01*
D17*
%TO.N,/JA4*%
X145937900Y-123300000D02*
X145937900Y-124200000D01*
D20*
%TO.N,/JA3*%
X133637900Y-151700000D02*
X133637900Y-150750000D01*
D17*
X143937900Y-135100000D02*
X143937900Y-136000000D01*
%TO.N,/JA1*%
X140137900Y-123200000D02*
X140137900Y-124000001D01*
%TO.N,/JA4*%
X145937900Y-60100001D02*
X145937900Y-61050000D01*
%TO.N,/JA2*%
X141937900Y-76100001D02*
X141937901Y-77049999D01*
%TO.N,P26*%
X139330884Y-145050000D02*
X142937900Y-145050000D01*
X136837900Y-134499178D02*
X136837900Y-138163550D01*
D18*
%TO.N,/B16*%
X117749723Y-95988589D02*
X124289723Y-95988589D01*
D20*
%TO.N,P29*%
X128631900Y-148338884D02*
X128631900Y-142206825D01*
D17*
%TO.N,/JA2*%
X141937900Y-135000000D02*
X141937900Y-135999999D01*
%TO.N,P4*%
X138937900Y-58300000D02*
X142937900Y-58300000D01*
%TO.N,/JA4*%
X135637900Y-65050000D02*
X135637900Y-64100000D01*
%TO.N,/JA1*%
X140137900Y-127100001D02*
X140137900Y-127900000D01*
%TO.N,P4*%
X137937900Y-59300000D02*
X138937900Y-58300000D01*
%TO.N,/JA4*%
X145937900Y-131200000D02*
X145937900Y-132100000D01*
D18*
%TO.N,/B12*%
X117749723Y-85828589D02*
X124289723Y-85828589D01*
D17*
%TO.N,/JA1*%
X140637900Y-135300001D02*
X139937901Y-136000000D01*
D20*
%TO.N,P3*%
X129287901Y-58050000D02*
X128637901Y-58700000D01*
D17*
%TO.N,P15*%
X138448722Y-101950001D02*
X142937900Y-101950002D01*
%TO.N,/JA1*%
X140137900Y-111500000D02*
X140137900Y-112300000D01*
%TO.N,P27*%
X138887900Y-149050000D02*
X142737900Y-149050000D01*
%TO.N,/JA2*%
X141937901Y-95700000D02*
X141937900Y-96700000D01*
D20*
%TO.N,P2*%
X132637901Y-62135000D02*
X129402900Y-62135000D01*
D18*
%TO.N,/B32*%
X117749723Y-136628589D02*
X124289723Y-136628589D01*
D17*
%TO.N,/JA4*%
X145937900Y-99800000D02*
X145937900Y-100700000D01*
D20*
X135537900Y-150650001D02*
X138787898Y-153899998D01*
D17*
%TO.N,P26*%
X135338723Y-133000001D02*
X136837900Y-134499178D01*
D18*
%TO.N,/B23*%
X117749723Y-113768589D02*
X124289723Y-113768589D01*
D19*
%TO.N,/JA3*%
X142937900Y-56500000D02*
X142686900Y-56249000D01*
D20*
%TO.N,P2*%
X128588900Y-70370178D02*
X130238723Y-72020002D01*
D17*
%TO.N,/JA3*%
X143937900Y-123300000D02*
X143937900Y-124200000D01*
%TO.N,/JA1*%
X140637900Y-135000000D02*
X140637900Y-135300001D01*
%TO.N,P15*%
X135338723Y-105060000D02*
X138448722Y-101950001D01*
%TO.N,P13*%
X136789723Y-96048177D02*
X138787900Y-94050000D01*
%TO.N,P4*%
X137737900Y-59300000D02*
X137937900Y-59300000D01*
%TO.N,/JA4*%
X135637900Y-56161001D02*
X135637900Y-57000001D01*
%TO.N,P13*%
X135338723Y-99980000D02*
X136789723Y-98529000D01*
%TO.N,/JA4*%
X145937900Y-139000001D02*
X145937900Y-139900000D01*
D19*
%TO.N,/JA2*%
X136138900Y-63299000D02*
X132438900Y-63299000D01*
D17*
%TO.N,P26*%
X136837900Y-138163550D02*
X137819899Y-139145549D01*
D18*
%TO.N,P8*%
X130155527Y-87240825D02*
X135237899Y-87240826D01*
%TO.N,P24*%
X130155527Y-127880824D02*
X135237900Y-127880824D01*
%TO.N,P16*%
X130155527Y-107560823D02*
X135237900Y-107560823D01*
%TO.N,P3*%
X130155527Y-74540823D02*
X135237901Y-74540824D01*
%TO.N,P15*%
X130155527Y-105020824D02*
X135237900Y-105020824D01*
%TO.N,P12*%
X130155527Y-97400823D02*
X135237901Y-97400824D01*
%TO.N,P5*%
X130155527Y-79620825D02*
X135237900Y-79620825D01*
%TO.N,P1*%
X130155527Y-69460824D02*
X135237900Y-69460824D01*
%TO.N,P28*%
X130155527Y-138040824D02*
X135237900Y-138040824D01*
%TO.N,P6*%
X130155527Y-82160824D02*
X135237900Y-82160824D01*
%TO.N,P9*%
X130155527Y-89780824D02*
X135237900Y-89780824D01*
%TO.N,P21*%
X130155527Y-120260823D02*
X135237901Y-120260824D01*
%TO.N,P25*%
X130155527Y-130420823D02*
X135237900Y-130420823D01*
%TO.N,P18*%
X130155527Y-112640824D02*
X135237900Y-112640824D01*
%TO.N,P2*%
X130155527Y-72000824D02*
X135237900Y-72000824D01*
%TO.N,P23*%
X130155527Y-125340824D02*
X135237900Y-125340824D01*
%TO.N,P30*%
X130155527Y-143120825D02*
X135237899Y-143120826D01*
%TO.N,P17*%
X130155527Y-110100825D02*
X135237899Y-110100826D01*
%TO.N,P20*%
X130155527Y-117720824D02*
X135237900Y-117720824D01*
%TO.N,P19*%
X130155527Y-115180824D02*
X135237900Y-115180824D01*
%TO.N,P29*%
X130155527Y-140580824D02*
X135237900Y-140580824D01*
%TO.N,P10*%
X130155527Y-92320824D02*
X135237900Y-92320824D01*
%TO.N,P11*%
X130155527Y-94860824D02*
X135237900Y-94860824D01*
%TO.N,P7*%
X130155527Y-84700824D02*
X135237900Y-84700824D01*
%TO.N,P13*%
X130155527Y-99940824D02*
X135237900Y-99940824D01*
%TO.N,P4*%
X130155527Y-77080824D02*
X135237900Y-77080824D01*
%TO.N,P27*%
X130155527Y-135500825D02*
X135237900Y-135500824D01*
%TO.N,P26*%
X130155527Y-132960825D02*
X135237899Y-132960826D01*
%TO.N,P22*%
X130155527Y-122800824D02*
X135237900Y-122800824D01*
%TO.N,P14*%
X130155527Y-102480824D02*
X135237900Y-102480824D01*
D17*
%TO.N,P13*%
X136789723Y-98529000D02*
X136789723Y-96048177D01*
%TO.N,/JA2*%
X141937901Y-138900000D02*
X141937901Y-139899999D01*
D20*
%TO.N,/JA4*%
X138787898Y-153899998D02*
X145337900Y-153899998D01*
D17*
%TO.N,/JA1*%
X140137900Y-76100001D02*
X140137900Y-76850000D01*
X140137900Y-68850001D02*
X139937901Y-69050000D01*
%TO.N,/JA4*%
X145937900Y-68100000D02*
X145937900Y-69050000D01*
%TO.N,P28*%
X135338723Y-138080000D02*
X136818899Y-139560176D01*
%TO.N,P7*%
X137936900Y-79201000D02*
X137936900Y-71001000D01*
%TO.N,/JA4*%
X145937900Y-72100000D02*
X145937900Y-73050000D01*
%TO.N,P26*%
X137819899Y-139145549D02*
X137819899Y-143539015D01*
X137819899Y-143539015D02*
X139330884Y-145050000D01*
D20*
%TO.N,/JA2*%
X131637901Y-151700000D02*
X131637900Y-150750000D01*
D17*
%TO.N,P28*%
X139387900Y-152950000D02*
X142937900Y-152950000D01*
%TO.N,/JA1*%
X140137900Y-119300001D02*
X140137900Y-120100000D01*
X140137900Y-100500000D02*
X139937900Y-100700000D01*
%TO.N,/JA3*%
X143937900Y-131200000D02*
X143937900Y-132100000D01*
%TO.N,P27*%
X138537900Y-148700000D02*
X138887900Y-149050000D01*
%TO.N,/JA4*%
X145937900Y-135100000D02*
X145937900Y-136000000D01*
X135637900Y-60100001D02*
X135637900Y-61085000D01*
%TO.N,P23*%
X138937900Y-134500001D02*
X139337900Y-134500000D01*
%TO.N,P17*%
X135397899Y-110140001D02*
X135687900Y-109850000D01*
%TO.N,P7*%
X136789723Y-83289000D02*
X136789723Y-80348177D01*
%TO.N,P18*%
X136408724Y-113750000D02*
X142937900Y-113750000D01*
%TO.N,P7*%
X138637900Y-70300000D02*
X142937900Y-70300000D01*
X137936900Y-71001000D02*
X138637900Y-70300000D01*
%TO.N,P28*%
X136818899Y-150380999D02*
X139387900Y-152950000D01*
%TO.N,/JA3*%
X143937900Y-151700000D02*
X143937900Y-150800000D01*
D20*
%TO.N,P2*%
X128588900Y-62949000D02*
X128588900Y-70370178D01*
D17*
%TO.N,P7*%
X135338723Y-84740000D02*
X136789723Y-83289000D01*
%TO.N,/JA1*%
X138660900Y-57300000D02*
X138910899Y-57050000D01*
%TO.N,P7*%
X136789723Y-80348177D02*
X137936900Y-79201000D01*
%TO.N,P16*%
X137088722Y-105850000D02*
X142937899Y-105850000D01*
%TO.N,P28*%
X136818899Y-139560176D02*
X136818899Y-150380999D01*
%TO.N,/JA3*%
X110937900Y-142900000D02*
X110937900Y-143800000D01*
X110937900Y-72100000D02*
X110937900Y-73050000D01*
X110937900Y-88000000D02*
X110937900Y-88950000D01*
D18*
%TO.N,/B15*%
X84749723Y-93448589D02*
X91289723Y-93448589D01*
D17*
%TO.N,/JA3*%
X110937900Y-103700000D02*
X110937900Y-104600000D01*
D18*
%TO.N,/B28*%
X84749723Y-126468589D02*
X91289723Y-126468589D01*
%TO.N,/B21*%
X84749723Y-108688589D02*
X91289723Y-108688589D01*
%TO.N,/B36*%
X84749723Y-146788589D02*
X91289723Y-146788589D01*
%TO.N,/B17*%
X84749723Y-98528589D02*
X91289723Y-98528589D01*
%TO.N,/B9*%
X84749723Y-78208589D02*
X91289723Y-78208589D01*
%TO.N,/B18*%
X84749723Y-101068589D02*
X91289723Y-101068589D01*
%TO.N,/B11*%
X84749723Y-83288589D02*
X91289723Y-83288589D01*
%TO.N,/B16*%
X84749723Y-95988589D02*
X91289723Y-95988589D01*
%TO.N,/B31*%
X84749723Y-134088589D02*
X91289723Y-134088589D01*
%TO.N,/B12*%
X84749723Y-85828589D02*
X91289723Y-85828589D01*
%TO.N,/B19*%
X84749723Y-103608589D02*
X91289723Y-103608589D01*
D19*
%TO.N,/JA3*%
X103538901Y-58851000D02*
X101986900Y-58851000D01*
D17*
X110937900Y-60100000D02*
X110937900Y-61050000D01*
X100637900Y-60200000D02*
X100637900Y-61085000D01*
X110937900Y-68100000D02*
X110937900Y-69050000D01*
X110937900Y-57050000D02*
X110487900Y-57050000D01*
X110937900Y-95800000D02*
X110937900Y-96700000D01*
X110937900Y-84000000D02*
X110937900Y-84950000D01*
%TO.N,/JA4*%
X112937900Y-142900000D02*
X112937900Y-143800000D01*
X112937900Y-64100000D02*
X112937900Y-65050000D01*
X112937900Y-119400000D02*
X112937900Y-120300000D01*
D18*
%TO.N,/B7*%
X84749723Y-73128589D02*
X91289723Y-73128589D01*
D17*
%TO.N,/JA4*%
X102637900Y-56161001D02*
X102637900Y-57000001D01*
X112937900Y-103700000D02*
X112937900Y-104600000D01*
X112937900Y-95800000D02*
X112937900Y-96700000D01*
X112937900Y-111600000D02*
X112937900Y-112500000D01*
X112937900Y-115500000D02*
X112937900Y-116400000D01*
D20*
X102637899Y-150799999D02*
X102637899Y-151700001D01*
D17*
X112937900Y-76100000D02*
X112937900Y-77050000D01*
X112937900Y-91900000D02*
X112937900Y-92800000D01*
D20*
X102537900Y-150700000D02*
X102637899Y-150799999D01*
D17*
X112937900Y-127200001D02*
X112937900Y-128100000D01*
D20*
X102637899Y-146850001D02*
X102637899Y-147800000D01*
X102537900Y-149900000D02*
X102537900Y-150700000D01*
D19*
%TO.N,/JA2*%
X108136900Y-59299000D02*
X108937900Y-60100000D01*
D17*
X108937900Y-115400000D02*
X108937900Y-116399999D01*
D18*
%TO.N,/B13*%
X84749723Y-88368589D02*
X91289723Y-88368589D01*
D17*
%TO.N,/JA2*%
X98637900Y-64100000D02*
X98637900Y-65050000D01*
X108937901Y-138900000D02*
X108937901Y-139899999D01*
X108937900Y-103600000D02*
X108937900Y-104599999D01*
X108937901Y-150700000D02*
X108937900Y-151700000D01*
X108937900Y-99700001D02*
X108937900Y-100699999D01*
X108937900Y-80100000D02*
X108937901Y-81049999D01*
D18*
%TO.N,/B27*%
X84749723Y-123928589D02*
X91289723Y-123928589D01*
D17*
%TO.N,/JA2*%
X108937901Y-72100000D02*
X108937901Y-73049999D01*
%TO.N,/JA3*%
X110937900Y-139000001D02*
X110937900Y-139900000D01*
%TO.N,/JA2*%
X108487899Y-57049999D02*
X108937900Y-57049999D01*
X108937900Y-111500000D02*
X108937900Y-112499999D01*
X108937900Y-142800000D02*
X108937900Y-143799999D01*
D19*
X99438900Y-63299000D02*
X98637900Y-64100000D01*
X108136900Y-59299000D02*
X106806115Y-59299000D01*
D17*
X108937900Y-131100001D02*
X108937900Y-132100000D01*
D19*
X106806115Y-59299000D02*
X103538900Y-62566215D01*
D17*
X108937900Y-64000001D02*
X108937900Y-65049999D01*
D19*
%TO.N,/JA3*%
X101986900Y-58851000D02*
X100637900Y-60200000D01*
D18*
%TO.N,/B6*%
X84749723Y-70588589D02*
X91289723Y-70588589D01*
D17*
%TO.N,/JA3*%
X110937900Y-76100000D02*
X110937900Y-77050000D01*
%TO.N,/JA4*%
X112937900Y-107700000D02*
X112937900Y-108600000D01*
%TO.N,P21*%
X105781900Y-124901016D02*
X106330884Y-125450000D01*
X105781901Y-123743176D02*
X105781900Y-124901016D01*
%TO.N,P20*%
X106128723Y-121550000D02*
X109937900Y-121550000D01*
X102338723Y-117760001D02*
X106128723Y-121550000D01*
%TO.N,/JA3*%
X110937900Y-119400000D02*
X110937900Y-120300000D01*
X110487900Y-57050000D02*
X109937900Y-56500000D01*
%TO.N,P19*%
X102338723Y-115220000D02*
X104768723Y-117650000D01*
D18*
%TO.N,/B35*%
X84749723Y-144248589D02*
X91289723Y-144248589D01*
%TO.N,/B22*%
X84749723Y-111228589D02*
X91289723Y-111228589D01*
D17*
%TO.N,/JA4*%
X112937900Y-151700000D02*
X112937900Y-150700000D01*
D20*
%TO.N,/JA1*%
X96637900Y-151700000D02*
X96637899Y-150850001D01*
D17*
X107137900Y-139700000D02*
X106937900Y-139900000D01*
D20*
%TO.N,/JA4*%
X102537900Y-150650001D02*
X105787898Y-153899998D01*
D17*
%TO.N,/JA1*%
X107137900Y-131100001D02*
X107137900Y-131900000D01*
X107137900Y-115400000D02*
X107137900Y-116200001D01*
%TO.N,/JA3*%
X110937900Y-111600000D02*
X110937900Y-112500000D01*
D18*
%TO.N,/B33*%
X84749723Y-139168589D02*
X91289723Y-139168589D01*
D17*
%TO.N,/JA1*%
X107137900Y-103600000D02*
X107137900Y-104400001D01*
X107137900Y-127100001D02*
X107137900Y-127900000D01*
X107137900Y-88000000D02*
X107137899Y-88750000D01*
%TO.N,/JA4*%
X102637900Y-60100001D02*
X102637900Y-61085000D01*
D19*
%TO.N,/JA3*%
X103538900Y-57602463D02*
X103538901Y-58851000D01*
D17*
%TO.N,/JA1*%
X107137900Y-96500000D02*
X106937900Y-96700000D01*
X96637900Y-56161001D02*
X96637900Y-57000000D01*
%TO.N,/JA3*%
X110937900Y-91900000D02*
X110937900Y-92800000D01*
%TO.N,/JA1*%
X107137900Y-107600000D02*
X107137900Y-108400001D01*
X107137900Y-131900000D02*
X106937900Y-132100000D01*
D18*
%TO.N,P8*%
X97155527Y-87240825D02*
X102237899Y-87240826D01*
%TO.N,P24*%
X97155527Y-127880824D02*
X102237900Y-127880824D01*
%TO.N,P3*%
X97155527Y-74540823D02*
X102237901Y-74540824D01*
%TO.N,P16*%
X97155527Y-107560823D02*
X102237900Y-107560823D01*
%TO.N,P12*%
X97155527Y-97400823D02*
X102237901Y-97400824D01*
%TO.N,P15*%
X97155527Y-105020824D02*
X102237900Y-105020824D01*
%TO.N,P5*%
X97155527Y-79620825D02*
X102237900Y-79620825D01*
%TO.N,P6*%
X97155527Y-82160824D02*
X102237900Y-82160824D01*
%TO.N,P28*%
X97155527Y-138040824D02*
X102237900Y-138040824D01*
%TO.N,P9*%
X97155527Y-89780824D02*
X102237900Y-89780824D01*
%TO.N,P21*%
X97155527Y-120260823D02*
X102237901Y-120260824D01*
%TO.N,P25*%
X97155527Y-130420823D02*
X102237900Y-130420823D01*
%TO.N,P18*%
X97155527Y-112640824D02*
X102237900Y-112640824D01*
%TO.N,P2*%
X97155527Y-72000824D02*
X102237900Y-72000824D01*
%TO.N,P30*%
X97155527Y-143120825D02*
X102237899Y-143120826D01*
%TO.N,P17*%
X97155527Y-110100825D02*
X102237899Y-110100826D01*
%TO.N,P19*%
X97155527Y-115180824D02*
X102237900Y-115180824D01*
%TO.N,P29*%
X97155527Y-140580824D02*
X102237900Y-140580824D01*
%TO.N,P10*%
X97155527Y-92320824D02*
X102237900Y-92320824D01*
%TO.N,P11*%
X97155527Y-94860824D02*
X102237900Y-94860824D01*
%TO.N,P7*%
X97155527Y-84700824D02*
X102237900Y-84700824D01*
%TO.N,P13*%
X97155527Y-99940824D02*
X102237900Y-99940824D01*
%TO.N,P14*%
X97155527Y-102480824D02*
X102237900Y-102480824D01*
%TO.N,P4*%
X97155527Y-77080824D02*
X102237900Y-77080824D01*
%TO.N,P23*%
X97155527Y-125340824D02*
X102237900Y-125340824D01*
%TO.N,P27*%
X97155527Y-135500825D02*
X102237900Y-135500824D01*
%TO.N,P26*%
X97155527Y-132960825D02*
X102237899Y-132960826D01*
%TO.N,P20*%
X97155527Y-117720824D02*
X102237900Y-117720824D01*
%TO.N,P1*%
X97155527Y-69460824D02*
X102237900Y-69460824D01*
%TO.N,P22*%
X97155527Y-122800824D02*
X102237900Y-122800824D01*
%TO.N,/B37*%
X84749723Y-149328589D02*
X91289723Y-149328589D01*
D17*
%TO.N,/JA4*%
X112937900Y-99800000D02*
X112937900Y-100700000D01*
D18*
%TO.N,/B14*%
X84749723Y-90908589D02*
X91289723Y-90908589D01*
%TO.N,/B1*%
X84749723Y-57888589D02*
X91289723Y-57888589D01*
D19*
%TO.N,/JA3*%
X109686900Y-56249000D02*
X104892362Y-56249000D01*
D17*
%TO.N,/JA1*%
X107137900Y-100500000D02*
X106937900Y-100700000D01*
%TO.N,/JA3*%
X100637900Y-65050000D02*
X100637900Y-64100000D01*
%TO.N,/JA4*%
X112937900Y-57050000D02*
X112487900Y-57050000D01*
%TO.N,P22*%
X103789723Y-124291000D02*
X103789723Y-126808839D01*
%TO.N,/JA2*%
X108937901Y-107600000D02*
X108937901Y-108599999D01*
X108937901Y-95700000D02*
X108937900Y-96700000D01*
D20*
%TO.N,/JA4*%
X102537900Y-149900000D02*
X102537900Y-150650001D01*
D18*
%TO.N,/B4*%
X84749723Y-65508589D02*
X91289723Y-65508589D01*
D17*
%TO.N,/JA3*%
X110937900Y-64100000D02*
X110937900Y-65050000D01*
%TO.N,/JA1*%
X107137900Y-112300000D02*
X106937900Y-112500000D01*
%TO.N,P19*%
X104768723Y-117650000D02*
X109937899Y-117650000D01*
%TO.N,/JA1*%
X107137900Y-68200000D02*
X107137900Y-68850001D01*
X107137900Y-76850000D02*
X106937900Y-77050001D01*
X107137900Y-80100000D02*
X107137900Y-80850000D01*
X107137900Y-64850000D02*
X106937900Y-65050000D01*
X107137900Y-150700001D02*
X107137900Y-151500000D01*
X107137900Y-72850001D02*
X106937901Y-73050000D01*
D18*
%TO.N,/B8*%
X84749723Y-75668589D02*
X91289723Y-75668589D01*
D17*
%TO.N,/JA1*%
X107137900Y-60850000D02*
X106937900Y-61050000D01*
X107137900Y-92600001D02*
X106937901Y-92800000D01*
X107137900Y-124000001D02*
X106937901Y-124200000D01*
X107137900Y-80850000D02*
X106937900Y-81050000D01*
%TO.N,/JA4*%
X112487900Y-57050000D02*
X111937900Y-56500000D01*
%TO.N,/JA1*%
X96637900Y-65050000D02*
X96637900Y-64100000D01*
X107137900Y-64100000D02*
X107137900Y-64850000D01*
%TO.N,/JA3*%
X110937900Y-80200000D02*
X110937900Y-81050000D01*
D20*
%TO.N,/JA1*%
X96637899Y-146850001D02*
X96637900Y-147800000D01*
D17*
X107137900Y-84000000D02*
X107137900Y-84750000D01*
X105910899Y-57050000D02*
X106937900Y-57050000D01*
%TO.N,P5*%
X103793900Y-64448984D02*
X105942884Y-62300000D01*
%TO.N,/JA2*%
X98637900Y-60100001D02*
X98637900Y-61085000D01*
%TO.N,P9*%
X104837900Y-86832848D02*
X104837900Y-80900000D01*
%TO.N,P24*%
X104936900Y-130518178D02*
X104936900Y-136599000D01*
%TO.N,P28*%
X103818899Y-150380999D02*
X106387900Y-152950000D01*
%TO.N,P6*%
X105237900Y-66700000D02*
X105637900Y-66300000D01*
%TO.N,P11*%
X103789723Y-89572495D02*
X107162218Y-86200001D01*
D18*
%TO.N,/B26*%
X84749723Y-121388589D02*
X91289723Y-121388589D01*
D17*
%TO.N,/JA4*%
X112937900Y-146900000D02*
X112937900Y-147800000D01*
%TO.N,P9*%
X107437900Y-78300001D02*
X109937900Y-78300001D01*
%TO.N,P17*%
X102397899Y-110140001D02*
X102687900Y-109850000D01*
%TO.N,P5*%
X102338723Y-79660000D02*
X103793900Y-78204823D01*
%TO.N,/JA2*%
X108937900Y-91800000D02*
X108937900Y-92799999D01*
%TO.N,P14*%
X102338723Y-102520000D02*
X106908723Y-97950000D01*
%TO.N,P17*%
X102687900Y-109850000D02*
X108743900Y-109850000D01*
%TO.N,/JA2*%
X108937900Y-123200000D02*
X108937900Y-124199999D01*
D20*
X98637901Y-151700000D02*
X98637900Y-150750000D01*
D17*
X108937900Y-146800000D02*
X108937900Y-147799999D01*
%TO.N,P6*%
X105637900Y-66300000D02*
X109937900Y-66300000D01*
%TO.N,/JA3*%
X100637900Y-56161001D02*
X100637900Y-57000000D01*
%TO.N,P10*%
X105937900Y-83600000D02*
X107237900Y-82300000D01*
%TO.N,P11*%
X107162218Y-86200001D02*
X109937900Y-86200000D01*
%TO.N,/JA2*%
X98637900Y-56161001D02*
X98637900Y-57000001D01*
D18*
%TO.N,/B10*%
X84749723Y-80748589D02*
X91289723Y-80748589D01*
D17*
%TO.N,/JA1*%
X107137900Y-142800000D02*
X107137900Y-143600000D01*
%TO.N,/JA2*%
X108937900Y-84000000D02*
X108937900Y-84949999D01*
%TO.N,P5*%
X103793900Y-78204823D02*
X103793900Y-64448984D01*
%TO.N,/JA4*%
X112937900Y-60100001D02*
X112937900Y-61050000D01*
D18*
%TO.N,/B38*%
X84749723Y-151868589D02*
X91289723Y-151868589D01*
D17*
%TO.N,/JA1*%
X107137900Y-147600001D02*
X106937901Y-147800000D01*
D18*
%TO.N,/B25*%
X84749723Y-118848589D02*
X91289723Y-118848589D01*
D17*
%TO.N,/JA1*%
X107137900Y-91800000D02*
X107137900Y-92600001D01*
X107137900Y-68850001D02*
X106937901Y-69050000D01*
D19*
%TO.N,/JA2*%
X103538901Y-62899000D02*
X103138900Y-63299000D01*
D17*
X108937901Y-88000000D02*
X108937900Y-88949999D01*
D18*
%TO.N,/B34*%
X84749723Y-141708589D02*
X91289723Y-141708589D01*
D17*
%TO.N,/JA1*%
X107137900Y-151500000D02*
X106937900Y-151700000D01*
%TO.N,P14*%
X106908723Y-97950000D02*
X109937900Y-97950000D01*
%TO.N,P12*%
X106437901Y-90200000D02*
X109937900Y-90200000D01*
X105237901Y-91400000D02*
X106437901Y-90200000D01*
%TO.N,P23*%
X107487900Y-133350000D02*
X109937900Y-133350000D01*
%TO.N,/JA3*%
X110937900Y-99800000D02*
X110937900Y-100700000D01*
%TO.N,P17*%
X102338723Y-110140002D02*
X102397899Y-110140001D01*
X108743900Y-109850000D02*
X108937900Y-109656000D01*
%TO.N,/JA1*%
X107137900Y-119300001D02*
X107137900Y-120100000D01*
%TO.N,P10*%
X107237900Y-82300000D02*
X109937900Y-82300000D01*
D19*
%TO.N,/JA2*%
X103538900Y-62566215D02*
X103538901Y-62899000D01*
D17*
%TO.N,/JA1*%
X107137900Y-116200001D02*
X106937901Y-116400000D01*
%TO.N,P9*%
X102338723Y-89332025D02*
X104837900Y-86832848D01*
D20*
%TO.N,/JA3*%
X100637900Y-146849999D02*
X100637900Y-147800000D01*
D17*
%TO.N,/JA1*%
X107137900Y-84750000D02*
X106937900Y-84950000D01*
%TO.N,P24*%
X104936900Y-136599000D02*
X105587900Y-137250000D01*
%TO.N,P9*%
X102338723Y-89820000D02*
X102338723Y-89332025D01*
%TO.N,/JA4*%
X112937900Y-88000000D02*
X112937900Y-88950000D01*
%TO.N,P23*%
X106337900Y-134500000D02*
X107487900Y-133350000D01*
%TO.N,/JA1*%
X107137900Y-111500000D02*
X107137900Y-112300000D01*
%TO.N,/JA4*%
X112937900Y-123300000D02*
X112937900Y-124200000D01*
%TO.N,P5*%
X105942884Y-62300000D02*
X109937900Y-62300000D01*
%TO.N,P24*%
X102338723Y-127920000D02*
X104936900Y-130518178D01*
%TO.N,/JA4*%
X112937900Y-131200000D02*
X112937900Y-132100000D01*
%TO.N,/JA1*%
X107137900Y-72200000D02*
X107137900Y-72850001D01*
%TO.N,/JA4*%
X112937900Y-84000000D02*
X112937900Y-84950000D01*
D18*
%TO.N,/B20*%
X84749723Y-106148589D02*
X91289723Y-106148589D01*
D17*
%TO.N,/JA4*%
X112937900Y-80100000D02*
X112937900Y-81050000D01*
X112937900Y-68100000D02*
X112937900Y-69050000D01*
%TO.N,/JA3*%
X110937900Y-146900000D02*
X110937900Y-147800000D01*
%TO.N,P1*%
X99637900Y-69339177D02*
X99798723Y-69500000D01*
%TO.N,P18*%
X102338723Y-112680000D02*
X103408724Y-113750000D01*
%TO.N,/JA2*%
X108937901Y-68100000D02*
X108937900Y-69049999D01*
%TO.N,/JA1*%
X107137900Y-108400001D02*
X106937900Y-108600001D01*
%TO.N,P1*%
X99637900Y-66100000D02*
X99637900Y-69339177D01*
D18*
%TO.N,/B29*%
X84749723Y-129008589D02*
X91289723Y-129008589D01*
D20*
%TO.N,P29*%
X95631900Y-142206825D02*
X97238723Y-140600001D01*
D17*
%TO.N,P8*%
X108743900Y-74300000D02*
X108937900Y-74106000D01*
X106637900Y-74300000D02*
X108743900Y-74300000D01*
%TO.N,/JA1*%
X107137900Y-138900001D02*
X107137900Y-139700000D01*
D18*
%TO.N,/B30*%
X84749723Y-131548589D02*
X91289723Y-131548589D01*
D20*
%TO.N,P29*%
X96043016Y-148750000D02*
X95631900Y-148338884D01*
D17*
%TO.N,/JA1*%
X107137900Y-127900000D02*
X106937900Y-128100000D01*
%TO.N,P8*%
X105937900Y-75000000D02*
X106637900Y-74300000D01*
%TO.N,P18*%
X103408724Y-113750000D02*
X109937900Y-113750000D01*
D20*
%TO.N,P29*%
X99637900Y-148750000D02*
X96043016Y-148750000D01*
D17*
%TO.N,/JA1*%
X107137900Y-60100000D02*
X107137900Y-60850000D01*
%TO.N,P11*%
X102338723Y-94900001D02*
X103789723Y-93449000D01*
%TO.N,/JA3*%
X110937900Y-115500000D02*
X110937900Y-116400000D01*
%TO.N,P25*%
X106787900Y-141150000D02*
X109737900Y-141150000D01*
D20*
%TO.N,P2*%
X96402900Y-62135000D02*
X95588900Y-62949000D01*
D17*
%TO.N,/JA3*%
X110937900Y-127200001D02*
X110937900Y-128100000D01*
X110937900Y-107700000D02*
X110937900Y-108600000D01*
%TO.N,P13*%
X105787900Y-94050000D02*
X109937899Y-94050000D01*
%TO.N,P16*%
X102338723Y-107599999D02*
X104088722Y-105850000D01*
%TO.N,/JA2*%
X108937900Y-60100000D02*
X108937900Y-61050001D01*
%TO.N,/JA1*%
X107637900Y-135300001D02*
X106937901Y-136000000D01*
%TO.N,P24*%
X105587900Y-137250000D02*
X109937900Y-137250000D01*
%TO.N,P22*%
X102338723Y-122840000D02*
X103789723Y-124291000D01*
%TO.N,/JA2*%
X108937901Y-127100000D02*
X108937901Y-128099999D01*
%TO.N,P22*%
X106330884Y-129350000D02*
X109937900Y-129350000D01*
D20*
%TO.N,P30*%
X96987899Y-152650001D02*
X99662900Y-152650001D01*
%TO.N,P3*%
X99637900Y-58050000D02*
X96287901Y-58050000D01*
D18*
%TO.N,/B5*%
X84749723Y-68048589D02*
X91289723Y-68048589D01*
D17*
%TO.N,/JA2*%
X108937900Y-119300001D02*
X108937900Y-120300000D01*
%TO.N,/JA1*%
X107137900Y-99700001D02*
X107137900Y-100500000D01*
%TO.N,P25*%
X106137900Y-141800000D02*
X106787900Y-141150000D01*
%TO.N,/JA1*%
X96637900Y-60100000D02*
X96637900Y-61085000D01*
D20*
%TO.N,P30*%
X96137900Y-153500000D02*
X96987899Y-152650001D01*
D17*
%TO.N,P22*%
X103789723Y-126808839D02*
X106330884Y-129350000D01*
D20*
%TO.N,/JA3*%
X100637900Y-151700000D02*
X100637900Y-150750000D01*
D17*
%TO.N,/JA1*%
X107137900Y-143600000D02*
X106937900Y-143800000D01*
X107137900Y-95700001D02*
X107137900Y-96500000D01*
X107137900Y-123200000D02*
X107137900Y-124000001D01*
%TO.N,/JA2*%
X108937900Y-76100001D02*
X108937901Y-77049999D01*
%TO.N,P26*%
X106330884Y-145050000D02*
X109937900Y-145050000D01*
X103837900Y-134499178D02*
X103837900Y-138163550D01*
D20*
%TO.N,P29*%
X95631900Y-148338884D02*
X95631900Y-142206825D01*
D17*
%TO.N,/JA2*%
X108937900Y-135000000D02*
X108937900Y-135999999D01*
%TO.N,P4*%
X105937900Y-58300000D02*
X109937900Y-58300000D01*
%TO.N,/JA4*%
X102637900Y-65050000D02*
X102637900Y-64100000D01*
%TO.N,P4*%
X104937900Y-59300000D02*
X105937900Y-58300000D01*
D20*
%TO.N,P3*%
X96287901Y-58050000D02*
X95637901Y-58700000D01*
D17*
%TO.N,P15*%
X105448722Y-101950001D02*
X109937900Y-101950002D01*
%TO.N,P27*%
X105887900Y-149050000D02*
X109737900Y-149050000D01*
%TO.N,/JA1*%
X107137900Y-146800000D02*
X107137900Y-147600001D01*
D20*
%TO.N,P2*%
X99637901Y-62135000D02*
X96402900Y-62135000D01*
D17*
%TO.N,P26*%
X102338723Y-133000001D02*
X103837900Y-134499178D01*
D18*
%TO.N,/B23*%
X84749723Y-113768589D02*
X91289723Y-113768589D01*
D20*
%TO.N,/JA4*%
X105787898Y-153899998D02*
X112337900Y-153899998D01*
D19*
%TO.N,/JA3*%
X109937900Y-56500000D02*
X109686900Y-56249000D01*
D20*
%TO.N,P2*%
X95588900Y-70370178D02*
X97238723Y-72020002D01*
D17*
%TO.N,/JA3*%
X110937900Y-123300000D02*
X110937900Y-124200000D01*
%TO.N,/JA1*%
X107637900Y-135000000D02*
X107637900Y-135300001D01*
%TO.N,P21*%
X102338723Y-120299999D02*
X105781901Y-123743176D01*
%TO.N,/JA3*%
X110937900Y-135100000D02*
X110937900Y-136000000D01*
%TO.N,P15*%
X102338723Y-105060000D02*
X105448722Y-101950001D01*
D19*
%TO.N,/JA3*%
X104892362Y-56249000D02*
X103538900Y-57602463D01*
D17*
%TO.N,P13*%
X103789723Y-96048177D02*
X105787900Y-94050000D01*
%TO.N,P4*%
X104737900Y-59300000D02*
X104937900Y-59300000D01*
D18*
%TO.N,/B2*%
X84749723Y-60428589D02*
X91289723Y-60428589D01*
D17*
%TO.N,P13*%
X102338723Y-99980000D02*
X103789723Y-98529000D01*
%TO.N,/JA4*%
X112937900Y-139000001D02*
X112937900Y-139900000D01*
D19*
%TO.N,/JA2*%
X103138900Y-63299000D02*
X99438900Y-63299000D01*
D17*
%TO.N,P26*%
X103837900Y-138163550D02*
X104819899Y-139145549D01*
%TO.N,/JA1*%
X107137900Y-120100000D02*
X106937900Y-120300000D01*
%TO.N,P13*%
X103789723Y-98529000D02*
X103789723Y-96048177D01*
%TO.N,/JA1*%
X107137900Y-76100001D02*
X107137900Y-76850000D01*
%TO.N,P28*%
X102338723Y-138080000D02*
X103818899Y-139560176D01*
%TO.N,P21*%
X106330884Y-125450000D02*
X109937900Y-125450000D01*
%TO.N,P7*%
X104936900Y-79201000D02*
X104936900Y-71001000D01*
%TO.N,/JA4*%
X112937900Y-72100000D02*
X112937900Y-73050000D01*
%TO.N,P26*%
X104819899Y-139145549D02*
X104819899Y-143539015D01*
%TO.N,/JA1*%
X107137900Y-104400001D02*
X106937901Y-104600000D01*
%TO.N,P26*%
X104819899Y-143539015D02*
X106330884Y-145050000D01*
%TO.N,P28*%
X106387900Y-152950000D02*
X109937900Y-152950000D01*
%TO.N,P11*%
X103789723Y-93449000D02*
X103789723Y-89572495D01*
%TO.N,/JA3*%
X110937900Y-131200000D02*
X110937900Y-132100000D01*
D18*
%TO.N,/B32*%
X84749723Y-136628589D02*
X91289723Y-136628589D01*
D17*
%TO.N,P27*%
X105537900Y-148700000D02*
X105887900Y-149050000D01*
%TO.N,/JA4*%
X112937900Y-135100000D02*
X112937900Y-136000000D01*
%TO.N,P23*%
X105937900Y-134500001D02*
X106337900Y-134500000D01*
D18*
%TO.N,/B3*%
X84749723Y-62968589D02*
X91289723Y-62968589D01*
D17*
%TO.N,P7*%
X103789723Y-83289000D02*
X103789723Y-80348177D01*
X105637900Y-70300000D02*
X109937900Y-70300000D01*
X104936900Y-71001000D02*
X105637900Y-70300000D01*
%TO.N,/JA3*%
X110937900Y-151700000D02*
X110937900Y-150800000D01*
%TO.N,/JA1*%
X107137899Y-88750000D02*
X106937900Y-88950000D01*
D20*
%TO.N,P2*%
X95588900Y-62949000D02*
X95588900Y-70370178D01*
D17*
%TO.N,P7*%
X102338723Y-84740000D02*
X103789723Y-83289000D01*
%TO.N,P9*%
X104837900Y-80900000D02*
X107437900Y-78300001D01*
%TO.N,/JA1*%
X105660900Y-57300000D02*
X105910899Y-57050000D01*
%TO.N,P7*%
X103789723Y-80348177D02*
X104936900Y-79201000D01*
D18*
%TO.N,/B24*%
X84749723Y-116308589D02*
X91289723Y-116308589D01*
D20*
%TO.N,/JA2*%
X98637900Y-146850000D02*
X98637900Y-147800000D01*
D17*
%TO.N,P16*%
X104088722Y-105850000D02*
X109937899Y-105850000D01*
%TO.N,P28*%
X103818899Y-139560176D02*
X103818899Y-150380999D01*
D18*
%TO.N,P2*%
X163155527Y-72000824D02*
X168237900Y-72000824D01*
D20*
X161588900Y-62949000D02*
X161588900Y-70370178D01*
X165637901Y-62135000D02*
X162402900Y-62135000D01*
X161588900Y-70370178D02*
X163238723Y-72020002D01*
X162402900Y-62135000D02*
X161588900Y-62949000D01*
D18*
%TO.N,P25*%
X163155527Y-130420823D02*
X168237900Y-130420823D01*
D17*
X172787900Y-141150000D02*
X175737900Y-141150000D01*
X172137900Y-141800000D02*
X172787900Y-141150000D01*
D18*
%TO.N,P30*%
X163155527Y-143120825D02*
X168237899Y-143120826D01*
D20*
X162987899Y-152650001D02*
X165662900Y-152650001D01*
X162137900Y-153500000D02*
X162987899Y-152650001D01*
%TO.N,P3*%
X165637900Y-58050000D02*
X162287901Y-58050000D01*
X162287901Y-58050000D02*
X161637901Y-58700000D01*
D18*
X163155527Y-74540823D02*
X168237901Y-74540824D01*
D17*
%TO.N,P16*%
X168338723Y-107599999D02*
X170088722Y-105850000D01*
X170088722Y-105850000D02*
X175937899Y-105850000D01*
D18*
X163155527Y-107560823D02*
X168237900Y-107560823D01*
D17*
%TO.N,P13*%
X169789723Y-96048177D02*
X171787900Y-94050000D01*
X168338723Y-99980000D02*
X169789723Y-98529000D01*
D18*
X163155527Y-99940824D02*
X168237900Y-99940824D01*
D17*
X169789723Y-98529000D02*
X169789723Y-96048177D01*
X171787900Y-94050000D02*
X175937899Y-94050000D01*
%TO.N,P18*%
X169408724Y-113750000D02*
X175937900Y-113750000D01*
D18*
X163155527Y-112640824D02*
X168237900Y-112640824D01*
D17*
X168338723Y-112680000D02*
X169408724Y-113750000D01*
%TO.N,P1*%
X165637900Y-69339177D02*
X165798723Y-69500000D01*
D18*
X163155527Y-69460824D02*
X168237900Y-69460824D01*
D17*
X165637900Y-66100000D02*
X165637900Y-69339177D01*
D18*
%TO.N,P29*%
X163155527Y-140580824D02*
X168237900Y-140580824D01*
D20*
X165637900Y-148750000D02*
X162043016Y-148750000D01*
X162043016Y-148750000D02*
X161631900Y-148338884D01*
X161631900Y-148338884D02*
X161631900Y-142206825D01*
X161631900Y-142206825D02*
X163238723Y-140600001D01*
D17*
%TO.N,P8*%
X174743900Y-74300000D02*
X174937900Y-74106000D01*
X171937900Y-75000000D02*
X172637900Y-74300000D01*
X172637900Y-74300000D02*
X174743900Y-74300000D01*
D18*
X163155527Y-87240825D02*
X168237899Y-87240826D01*
D17*
%TO.N,P15*%
X168338723Y-105060000D02*
X171448722Y-101950001D01*
X171448722Y-101950001D02*
X175937900Y-101950002D01*
D18*
X163155527Y-105020824D02*
X168237900Y-105020824D01*
%TO.N,P4*%
X163155527Y-77080824D02*
X168237900Y-77080824D01*
D17*
X170737900Y-59300000D02*
X170937900Y-59300000D01*
X170937900Y-59300000D02*
X171937900Y-58300000D01*
X171937900Y-58300000D02*
X175937900Y-58300000D01*
%TO.N,P27*%
X171887900Y-149050000D02*
X175737900Y-149050000D01*
X171537900Y-148700000D02*
X171887900Y-149050000D01*
D18*
X163155527Y-135500825D02*
X168237900Y-135500824D01*
%TO.N,P7*%
X163155527Y-84700824D02*
X168237900Y-84700824D01*
D17*
X170936900Y-79201000D02*
X170936900Y-71001000D01*
X169789723Y-83289000D02*
X169789723Y-80348177D01*
X169789723Y-80348177D02*
X170936900Y-79201000D01*
X168338723Y-84740000D02*
X169789723Y-83289000D01*
X171637900Y-70300000D02*
X175937900Y-70300000D01*
X170936900Y-71001000D02*
X171637900Y-70300000D01*
D18*
%TO.N,P26*%
X163155527Y-132960825D02*
X168237899Y-132960826D01*
D17*
X169837900Y-134499178D02*
X169837900Y-138163550D01*
X168338723Y-133000001D02*
X169837900Y-134499178D01*
X172330884Y-145050000D02*
X175937900Y-145050000D01*
X170819899Y-139145549D02*
X170819899Y-143539015D01*
X170819899Y-143539015D02*
X172330884Y-145050000D01*
X169837900Y-138163550D02*
X170819899Y-139145549D01*
%TO.N,P28*%
X168338723Y-138080000D02*
X169818899Y-139560176D01*
D18*
X163155527Y-138040824D02*
X168237900Y-138040824D01*
D17*
X169818899Y-139560176D02*
X169818899Y-150380999D01*
X172387900Y-152950000D02*
X175937900Y-152950000D01*
X169818899Y-150380999D02*
X172387900Y-152950000D01*
%TO.N,P10*%
X171937900Y-83600000D02*
X173237900Y-82300000D01*
X173237900Y-82300000D02*
X175937900Y-82300000D01*
D18*
X163155527Y-92320824D02*
X168237900Y-92320824D01*
D17*
%TO.N,P24*%
X170936900Y-136599000D02*
X171587900Y-137250000D01*
X168338723Y-127920000D02*
X170936900Y-130518178D01*
X171587900Y-137250000D02*
X175937900Y-137250000D01*
X170936900Y-130518178D02*
X170936900Y-136599000D01*
D18*
X163155527Y-127880824D02*
X168237900Y-127880824D01*
%TO.N,P14*%
X163155527Y-102480824D02*
X168237900Y-102480824D01*
D17*
X168338723Y-102520000D02*
X172908723Y-97950000D01*
X172908723Y-97950000D02*
X175937900Y-97950000D01*
%TO.N,P5*%
X171942884Y-62300000D02*
X175937900Y-62300000D01*
X169793900Y-64448984D02*
X171942884Y-62300000D01*
X169793900Y-78204823D02*
X169793900Y-64448984D01*
D18*
X163155527Y-79620825D02*
X168237900Y-79620825D01*
D17*
X168338723Y-79660000D02*
X169793900Y-78204823D01*
%TO.N,P12*%
X172437901Y-90200000D02*
X175937900Y-90200000D01*
X171237901Y-91400000D02*
X172437901Y-90200000D01*
D18*
X163155527Y-97400823D02*
X168237901Y-97400824D01*
D17*
%TO.N,P17*%
X168397899Y-110140001D02*
X168687900Y-109850000D01*
D18*
X163155527Y-110100825D02*
X168237899Y-110100826D01*
D17*
X174743900Y-109850000D02*
X174937900Y-109656000D01*
X168687900Y-109850000D02*
X174743900Y-109850000D01*
X168338723Y-110140002D02*
X168397899Y-110140001D01*
%TO.N,P9*%
X173437900Y-78300001D02*
X175937900Y-78300001D01*
D18*
X163155527Y-89780824D02*
X168237900Y-89780824D01*
D17*
X168338723Y-89332025D02*
X170837900Y-86832848D01*
X168338723Y-89820000D02*
X168338723Y-89332025D01*
X170837900Y-86832848D02*
X170837900Y-80900000D01*
X170837900Y-80900000D02*
X173437900Y-78300001D01*
%TO.N,P11*%
X169789723Y-93449000D02*
X169789723Y-89572495D01*
D18*
X163155527Y-94860824D02*
X168237900Y-94860824D01*
D17*
X169789723Y-89572495D02*
X173162218Y-86200001D01*
X168338723Y-94900001D02*
X169789723Y-93449000D01*
X173162218Y-86200001D02*
X175937900Y-86200000D01*
%TO.N,P6*%
X171637900Y-66300000D02*
X175937900Y-66300000D01*
X171237900Y-66700000D02*
X171637900Y-66300000D01*
D18*
X163155527Y-82160824D02*
X168237900Y-82160824D01*
D17*
%TO.N,/JA1*%
X173137900Y-72200000D02*
X173137900Y-72850001D01*
X173137900Y-143600000D02*
X172937900Y-143800000D01*
X173137900Y-99700001D02*
X173137900Y-100500000D01*
X173137900Y-111500000D02*
X173137900Y-112300000D01*
X173137899Y-88750000D02*
X172937900Y-88950000D01*
X173637900Y-135300001D02*
X172937901Y-136000000D01*
X173137900Y-147600001D02*
X172937901Y-147800000D01*
X173137900Y-84750000D02*
X172937900Y-84950000D01*
X173137900Y-116200001D02*
X172937901Y-116400000D01*
X173137900Y-120100000D02*
X172937900Y-120300000D01*
X173137900Y-104400001D02*
X172937901Y-104600000D01*
X173137900Y-151500000D02*
X172937900Y-151700000D01*
X173137900Y-138900001D02*
X173137900Y-139700000D01*
X173137900Y-91800000D02*
X173137900Y-92600001D01*
X171660900Y-57300000D02*
X171910899Y-57050000D01*
X173137900Y-142800000D02*
X173137900Y-143600000D01*
X173137900Y-68850001D02*
X172937901Y-69050000D01*
X173137900Y-127900000D02*
X172937900Y-128100000D01*
X173137900Y-150700001D02*
X173137900Y-151500000D01*
X173137900Y-95700001D02*
X173137900Y-96500000D01*
X173137900Y-124000001D02*
X172937901Y-124200000D01*
X171910899Y-57050000D02*
X172937900Y-57050000D01*
X173137900Y-80100000D02*
X173137900Y-80850000D01*
X173137900Y-146800000D02*
X173137900Y-147600001D01*
X173637900Y-135000000D02*
X173637900Y-135300001D01*
X173137900Y-64850000D02*
X172937900Y-65050000D01*
X173137900Y-76850000D02*
X172937900Y-77050001D01*
X173137900Y-68200000D02*
X173137900Y-68850001D01*
X162637900Y-65050000D02*
X162637900Y-64100000D01*
X173137900Y-76100001D02*
X173137900Y-76850000D01*
X173137900Y-112300000D02*
X172937900Y-112500000D01*
X173137900Y-92600001D02*
X172937901Y-92800000D01*
X173137900Y-72850001D02*
X172937901Y-73050000D01*
X173137900Y-84000000D02*
X173137900Y-84750000D01*
D20*
X162637899Y-146850001D02*
X162637900Y-147800000D01*
D17*
X173137900Y-64100000D02*
X173137900Y-64850000D01*
X173137900Y-80850000D02*
X172937900Y-81050000D01*
X173137900Y-123200000D02*
X173137900Y-124000001D01*
X173137900Y-139700000D02*
X172937900Y-139900000D01*
X162637900Y-60100000D02*
X162637900Y-61085000D01*
X173137900Y-131900000D02*
X172937900Y-132100000D01*
X173137900Y-60850000D02*
X172937900Y-61050000D01*
D20*
X162637900Y-151700000D02*
X162637899Y-150850001D01*
D17*
X173137900Y-88000000D02*
X173137899Y-88750000D01*
X173137900Y-127100001D02*
X173137900Y-127900000D01*
X173137900Y-100500000D02*
X172937900Y-100700000D01*
X173137900Y-119300001D02*
X173137900Y-120100000D01*
X173137900Y-107600000D02*
X173137900Y-108400001D01*
X173137900Y-103600000D02*
X173137900Y-104400001D01*
X173137900Y-96500000D02*
X172937900Y-96700000D01*
X173137900Y-115400000D02*
X173137900Y-116200001D01*
X173137900Y-108400001D02*
X172937900Y-108600001D01*
X173137900Y-60100000D02*
X173137900Y-60850000D01*
X173137900Y-131100001D02*
X173137900Y-131900000D01*
X162637900Y-56161001D02*
X162637900Y-57000000D01*
%TO.N,P21*%
X168338723Y-120299999D02*
X171781901Y-123743176D01*
X171781900Y-124901016D02*
X172330884Y-125450000D01*
D18*
X163155527Y-120260823D02*
X168237901Y-120260824D01*
D17*
X171781901Y-123743176D02*
X171781900Y-124901016D01*
X172330884Y-125450000D02*
X175937900Y-125450000D01*
D18*
%TO.N,P19*%
X163155527Y-115180824D02*
X168237900Y-115180824D01*
D17*
X168338723Y-115220000D02*
X170768723Y-117650000D01*
X170768723Y-117650000D02*
X175937899Y-117650000D01*
%TO.N,P23*%
X171937900Y-134500001D02*
X172337900Y-134500000D01*
D18*
X163155527Y-125340824D02*
X168237900Y-125340824D01*
D17*
X172337900Y-134500000D02*
X173487900Y-133350000D01*
X173487900Y-133350000D02*
X175937900Y-133350000D01*
D18*
%TO.N,P20*%
X163155527Y-117720824D02*
X168237900Y-117720824D01*
D17*
X168338723Y-117760001D02*
X172128723Y-121550000D01*
X172128723Y-121550000D02*
X175937900Y-121550000D01*
%TO.N,P22*%
X172330884Y-129350000D02*
X175937900Y-129350000D01*
D18*
X163155527Y-122800824D02*
X168237900Y-122800824D01*
D17*
X169789723Y-124291000D02*
X169789723Y-126808839D01*
X168338723Y-122840000D02*
X169789723Y-124291000D01*
X169789723Y-126808839D02*
X172330884Y-129350000D01*
D19*
%TO.N,/JA2*%
X169538901Y-62899000D02*
X169138900Y-63299000D01*
D17*
X174937900Y-64000001D02*
X174937900Y-65049999D01*
X174937900Y-91800000D02*
X174937900Y-92799999D01*
D19*
X174136900Y-59299000D02*
X174937900Y-60100000D01*
D20*
X164637901Y-151700000D02*
X164637900Y-150750000D01*
D17*
X174937900Y-60100000D02*
X174937900Y-61050001D01*
X174937901Y-72100000D02*
X174937901Y-73049999D01*
X174937901Y-138900000D02*
X174937901Y-139899999D01*
X174937900Y-76100001D02*
X174937901Y-77049999D01*
X174937900Y-135000000D02*
X174937900Y-135999999D01*
X174487899Y-57049999D02*
X174937900Y-57049999D01*
D20*
X164637900Y-146850000D02*
X164637900Y-147800000D01*
D17*
X174937900Y-80100000D02*
X174937901Y-81049999D01*
D19*
X174136900Y-59299000D02*
X172806115Y-59299000D01*
D17*
X174937900Y-115400000D02*
X174937900Y-116399999D01*
X174937900Y-111500000D02*
X174937900Y-112499999D01*
X174937901Y-127100000D02*
X174937901Y-128099999D01*
D19*
X172806115Y-59299000D02*
X169538900Y-62566215D01*
D17*
X174937900Y-99700001D02*
X174937900Y-100699999D01*
X174937900Y-119300001D02*
X174937900Y-120300000D01*
X174937901Y-95700000D02*
X174937900Y-96700000D01*
X174937900Y-146800000D02*
X174937900Y-147799999D01*
X174937901Y-88000000D02*
X174937900Y-88949999D01*
D19*
X165438900Y-63299000D02*
X164637900Y-64100000D01*
D17*
X174937900Y-131100001D02*
X174937900Y-132100000D01*
X174937901Y-68100000D02*
X174937900Y-69049999D01*
D19*
X169138900Y-63299000D02*
X165438900Y-63299000D01*
D17*
X164637900Y-60100001D02*
X164637900Y-61085000D01*
X174937900Y-142800000D02*
X174937900Y-143799999D01*
X164637900Y-56161001D02*
X164637900Y-57000001D01*
X174937900Y-103600000D02*
X174937900Y-104599999D01*
X174937900Y-84000000D02*
X174937900Y-84949999D01*
X174937901Y-150700000D02*
X174937900Y-151700000D01*
D19*
X169538900Y-62566215D02*
X169538901Y-62899000D01*
D17*
X174937901Y-107600000D02*
X174937901Y-108599999D01*
X164637900Y-64100000D02*
X164637900Y-65050000D01*
X174937900Y-123200000D02*
X174937900Y-124199999D01*
%TO.N,/JA4*%
X178937900Y-60100001D02*
X178937900Y-61050000D01*
X178937900Y-76100000D02*
X178937900Y-77050000D01*
X178487900Y-57050000D02*
X177937900Y-56500000D01*
X178937900Y-115500000D02*
X178937900Y-116400000D01*
X178937900Y-103700000D02*
X178937900Y-104600000D01*
X178937900Y-135100000D02*
X178937900Y-136000000D01*
X178937900Y-57050000D02*
X178487900Y-57050000D01*
X178937900Y-151700000D02*
X178937900Y-150700000D01*
X178937900Y-107700000D02*
X178937900Y-108600000D01*
X168637900Y-60100001D02*
X168637900Y-61085000D01*
X178937900Y-95800000D02*
X178937900Y-96700000D01*
X168637900Y-65050000D02*
X168637900Y-64100000D01*
X178937900Y-119400000D02*
X178937900Y-120300000D01*
D20*
X171787898Y-153899998D02*
X178337900Y-153899998D01*
D17*
X168637900Y-56161001D02*
X168637900Y-57000001D01*
X178937900Y-139000001D02*
X178937900Y-139900000D01*
X178937900Y-88000000D02*
X178937900Y-88950000D01*
X178937900Y-72100000D02*
X178937900Y-73050000D01*
D20*
X168637899Y-150799999D02*
X168637899Y-151700001D01*
X168537900Y-150700000D02*
X168637899Y-150799999D01*
D17*
X178937900Y-146900000D02*
X178937900Y-147800000D01*
X178937900Y-64100000D02*
X178937900Y-65050000D01*
X178937900Y-99800000D02*
X178937900Y-100700000D01*
D20*
X168537900Y-150650001D02*
X171787898Y-153899998D01*
D17*
X178937900Y-91900000D02*
X178937900Y-92800000D01*
X178937900Y-131200000D02*
X178937900Y-132100000D01*
X178937900Y-84000000D02*
X178937900Y-84950000D01*
D20*
X168537900Y-149900000D02*
X168537900Y-150650001D01*
D17*
X178937900Y-68100000D02*
X178937900Y-69050000D01*
X178937900Y-142900000D02*
X178937900Y-143800000D01*
X178937900Y-80100000D02*
X178937900Y-81050000D01*
D20*
X168537900Y-149900000D02*
X168537900Y-150700000D01*
X168637899Y-146850001D02*
X168637899Y-147800000D01*
D17*
X178937900Y-111600000D02*
X178937900Y-112500000D01*
X178937900Y-127200001D02*
X178937900Y-128100000D01*
X178937900Y-123300000D02*
X178937900Y-124200000D01*
%TO.N,/JA3*%
X176937900Y-115500000D02*
X176937900Y-116400000D01*
X176937900Y-135100000D02*
X176937900Y-136000000D01*
X176937900Y-119400000D02*
X176937900Y-120300000D01*
D19*
X167986900Y-58851000D02*
X166637900Y-60200000D01*
D17*
X176937900Y-151700000D02*
X176937900Y-150800000D01*
X176937900Y-84000000D02*
X176937900Y-84950000D01*
X176937900Y-123300000D02*
X176937900Y-124200000D01*
D19*
X175686900Y-56249000D02*
X170892362Y-56249000D01*
X169538900Y-57602463D02*
X169538901Y-58851000D01*
D17*
X176937900Y-111600000D02*
X176937900Y-112500000D01*
X176937900Y-68100000D02*
X176937900Y-69050000D01*
D19*
X169538901Y-58851000D02*
X167986900Y-58851000D01*
D17*
X176937900Y-139000001D02*
X176937900Y-139900000D01*
X176937900Y-127200001D02*
X176937900Y-128100000D01*
X176937900Y-95800000D02*
X176937900Y-96700000D01*
X166637900Y-56161001D02*
X166637900Y-57000000D01*
X166637900Y-60200000D02*
X166637900Y-61085000D01*
X176937900Y-91900000D02*
X176937900Y-92800000D01*
X176937900Y-60100000D02*
X176937900Y-61050000D01*
X176937900Y-146900000D02*
X176937900Y-147800000D01*
X176937900Y-99800000D02*
X176937900Y-100700000D01*
D19*
X170892362Y-56249000D02*
X169538900Y-57602463D01*
D17*
X176937900Y-64100000D02*
X176937900Y-65050000D01*
X176937900Y-57050000D02*
X176487900Y-57050000D01*
D20*
X166637900Y-146849999D02*
X166637900Y-147800000D01*
D17*
X176937900Y-107700000D02*
X176937900Y-108600000D01*
X176937900Y-72100000D02*
X176937900Y-73050000D01*
X176937900Y-131200000D02*
X176937900Y-132100000D01*
X176937900Y-142900000D02*
X176937900Y-143800000D01*
D20*
X166637900Y-151700000D02*
X166637900Y-150750000D01*
D17*
X166637900Y-65050000D02*
X166637900Y-64100000D01*
X176937900Y-88000000D02*
X176937900Y-88950000D01*
X176937900Y-80200000D02*
X176937900Y-81050000D01*
X176937900Y-76100000D02*
X176937900Y-77050000D01*
X176937900Y-103700000D02*
X176937900Y-104600000D01*
D19*
X175937900Y-56500000D02*
X175686900Y-56249000D01*
D17*
X176487900Y-57050000D02*
X175937900Y-56500000D01*
D18*
%TO.N,/B28*%
X150749723Y-126468589D02*
X157289723Y-126468589D01*
%TO.N,/B17*%
X150749723Y-98528589D02*
X157289723Y-98528589D01*
%TO.N,/B8*%
X150749723Y-75668589D02*
X157289723Y-75668589D01*
%TO.N,/B19*%
X150749723Y-103608589D02*
X157289723Y-103608589D01*
%TO.N,/B6*%
X150749723Y-70588589D02*
X157289723Y-70588589D01*
%TO.N,/B11*%
X150749723Y-83288589D02*
X157289723Y-83288589D01*
%TO.N,/B14*%
X150749723Y-90908589D02*
X157289723Y-90908589D01*
%TO.N,/B22*%
X150749723Y-111228589D02*
X157289723Y-111228589D01*
%TO.N,/B21*%
X150749723Y-108688589D02*
X157289723Y-108688589D01*
%TO.N,/B16*%
X150749723Y-95988589D02*
X157289723Y-95988589D01*
%TO.N,/B27*%
X150749723Y-123928589D02*
X157289723Y-123928589D01*
%TO.N,/B13*%
X150749723Y-88368589D02*
X157289723Y-88368589D01*
%TO.N,/B9*%
X150749723Y-78208589D02*
X157289723Y-78208589D01*
%TO.N,/B10*%
X150749723Y-80748589D02*
X157289723Y-80748589D01*
%TO.N,/B24*%
X150749723Y-116308589D02*
X157289723Y-116308589D01*
%TO.N,/B1*%
X150749723Y-57888589D02*
X157289723Y-57888589D01*
%TO.N,/B12*%
X150749723Y-85828589D02*
X157289723Y-85828589D01*
%TO.N,/B7*%
X150749723Y-73128589D02*
X157289723Y-73128589D01*
%TO.N,/B20*%
X150749723Y-106148589D02*
X157289723Y-106148589D01*
%TO.N,/B4*%
X150749723Y-65508589D02*
X157289723Y-65508589D01*
%TO.N,/B26*%
X150749723Y-121388589D02*
X157289723Y-121388589D01*
%TO.N,/B23*%
X150749723Y-113768589D02*
X157289723Y-113768589D01*
%TO.N,/B2*%
X150749723Y-60428589D02*
X157289723Y-60428589D01*
%TO.N,/B3*%
X150749723Y-62968589D02*
X157289723Y-62968589D01*
%TO.N,/B5*%
X150749723Y-68048589D02*
X157289723Y-68048589D01*
%TO.N,/B15*%
X150749723Y-93448589D02*
X157289723Y-93448589D01*
%TO.N,/B18*%
X150749723Y-101068589D02*
X157289723Y-101068589D01*
%TO.N,/B25*%
X150749723Y-118848589D02*
X157289723Y-118848589D01*
%TO.N,/B37*%
X150749723Y-149328589D02*
X157289723Y-149328589D01*
%TO.N,/B30*%
X150749723Y-131548589D02*
X157289723Y-131548589D01*
%TO.N,/B32*%
X150749723Y-136628589D02*
X157289723Y-136628589D01*
%TO.N,/B29*%
X150749723Y-129008589D02*
X157289723Y-129008589D01*
%TO.N,/B31*%
X150749723Y-134088589D02*
X157289723Y-134088589D01*
%TO.N,/B35*%
X150749723Y-144248589D02*
X157289723Y-144248589D01*
%TO.N,/B38*%
X150749723Y-151868589D02*
X157289723Y-151868589D01*
%TO.N,/B34*%
X150749723Y-141708589D02*
X157289723Y-141708589D01*
%TO.N,/B36*%
X150749723Y-146788589D02*
X157289723Y-146788589D01*
%TO.N,/B33*%
X150749723Y-139168589D02*
X157289723Y-139168589D01*
%TD*%
M02*
