%TF.GenerationSoftware,KiCad,Pcbnew,9.0.4*%
%TF.CreationDate,2025-12-18T23:17:51-05:00*%
%TF.ProjectId,Mess-Breakout+Perf,4d657373-2d42-4726-9561-6b6f75742b50,rev?*%
%TF.SameCoordinates,Original*%
%TF.FileFunction,Soldermask,Top*%
%TF.FilePolarity,Negative*%
%FSLAX46Y46*%
G04 Gerber Fmt 4.6, Leading zero omitted, Abs format (unit mm)*
G04 Created by KiCad (PCBNEW 9.0.4) date 2025-12-18 23:17:51*
%MOMM*%
%LPD*%
G01*
G04 APERTURE LIST*
G04 Aperture macros list*
%AMFreePoly0*
4,1,23,0.450000,-0.550000,-0.100000,-0.550000,-0.100000,-0.547433,-0.139158,-0.547433,-0.214805,-0.527164,-0.282628,-0.488006,-0.338006,-0.432628,-0.377164,-0.364805,-0.397433,-0.289158,-0.397433,-0.250000,-0.400000,-0.250000,-0.400000,0.250000,-0.397433,0.250000,-0.397433,0.289158,-0.377164,0.364805,-0.338006,0.432628,-0.282628,0.488006,-0.214805,0.527164,-0.139158,0.547433,-0.100000,0.547433,
-0.100000,0.550000,0.450000,0.550000,0.450000,-0.550000,0.450000,-0.550000,$1*%
%AMFreePoly1*
4,1,23,0.100000,0.547433,0.139158,0.547433,0.214805,0.527164,0.282628,0.488006,0.338006,0.432628,0.377164,0.364805,0.397433,0.289158,0.397433,0.250000,0.400000,0.250000,0.400000,-0.250000,0.397433,-0.250000,0.397433,-0.289158,0.377164,-0.364805,0.338006,-0.432628,0.282628,-0.488006,0.214805,-0.527164,0.139158,-0.547433,0.100000,-0.547433,0.100000,-0.550000,-0.450000,-0.550000,
-0.450000,0.550000,0.100000,0.550000,0.100000,0.547433,0.100000,0.547433,$1*%
G04 Aperture macros list end*
%ADD10C,0.000000*%
%ADD11R,7.100000X0.900000*%
%ADD12R,1.100000X0.750000*%
%ADD13FreePoly0,270.000000*%
%ADD14FreePoly1,90.000000*%
%ADD15R,1.700000X1.700000*%
%ADD16C,1.700000*%
G04 APERTURE END LIST*
D10*
%TO.C,P75*%
G36*
X146487899Y-102550001D02*
G01*
X139387900Y-102550001D01*
X139387900Y-101350001D01*
X146487899Y-101350001D01*
X146487899Y-102550001D01*
G37*
%TO.C,P71*%
G36*
X146487899Y-86800001D02*
G01*
X139387900Y-86800001D01*
X139387900Y-85600001D01*
X146487899Y-85600001D01*
X146487899Y-86800001D01*
G37*
%TO.C,P82*%
G36*
X146487899Y-129950000D02*
G01*
X139387900Y-129950000D01*
X139387900Y-128750000D01*
X146487899Y-128750000D01*
X146487899Y-129950000D01*
G37*
%TO.C,P63*%
G36*
X136187899Y-58650000D02*
G01*
X129087900Y-58650000D01*
X129087900Y-57450000D01*
X136187899Y-57450000D01*
X136187899Y-58650000D01*
G37*
%TO.C,P80*%
G36*
X146487900Y-122150000D02*
G01*
X139387901Y-122150000D01*
X139387901Y-120950000D01*
X146487900Y-120950000D01*
X146487900Y-122150000D01*
G37*
%TO.C,P64*%
G36*
X146487900Y-58900000D02*
G01*
X139387901Y-58900000D01*
X139387901Y-57700000D01*
X146487900Y-57700000D01*
X146487900Y-58900000D01*
G37*
%TO.C,P77*%
G36*
X146487899Y-110450000D02*
G01*
X139387900Y-110450000D01*
X139387900Y-109250000D01*
X146487899Y-109250000D01*
X146487899Y-110450000D01*
G37*
%TO.C,P85*%
G36*
X146487899Y-141750000D02*
G01*
X139387900Y-141750000D01*
X139387900Y-140550000D01*
X146487899Y-140550000D01*
X146487899Y-141750000D01*
G37*
%TO.C,P78*%
G36*
X146487900Y-114350000D02*
G01*
X139387901Y-114350000D01*
X139387901Y-113150000D01*
X146487900Y-113150000D01*
X146487900Y-114350000D01*
G37*
%TO.C,P76*%
G36*
X146487899Y-106450000D02*
G01*
X139387900Y-106450000D01*
X139387900Y-105250000D01*
X146487899Y-105250000D01*
X146487899Y-106450000D01*
G37*
%TO.C,P79*%
G36*
X146487899Y-118250000D02*
G01*
X139387900Y-118250000D01*
X139387900Y-117050000D01*
X146487899Y-117050000D01*
X146487899Y-118250000D01*
G37*
%TO.C,P83*%
G36*
X146487900Y-133950000D02*
G01*
X139387901Y-133950000D01*
X139387901Y-132750000D01*
X146487900Y-132750000D01*
X146487900Y-133950000D01*
G37*
%TO.C,P70*%
G36*
X146487899Y-82900000D02*
G01*
X139387900Y-82900000D01*
X139387900Y-81700000D01*
X146487899Y-81700000D01*
X146487899Y-82900000D01*
G37*
%TO.C,P81*%
G36*
X146487899Y-126050000D02*
G01*
X139387900Y-126050000D01*
X139387900Y-124850000D01*
X146487899Y-124850000D01*
X146487899Y-126050000D01*
G37*
%TO.C,P67*%
G36*
X146487899Y-70900000D02*
G01*
X139387900Y-70900000D01*
X139387900Y-69700000D01*
X146487899Y-69700000D01*
X146487899Y-70900000D01*
G37*
%TO.C,P61*%
G36*
X136187899Y-66700000D02*
G01*
X129087900Y-66700000D01*
X129087900Y-65500000D01*
X136187899Y-65500000D01*
X136187899Y-66700000D01*
G37*
%TO.C,P88*%
G36*
X146487899Y-153550000D02*
G01*
X139387900Y-153550000D01*
X139387900Y-152350000D01*
X146487899Y-152350000D01*
X146487899Y-153550000D01*
G37*
%TO.C,P72*%
G36*
X146487899Y-90800000D02*
G01*
X139387900Y-90800000D01*
X139387900Y-89600000D01*
X146487899Y-89600000D01*
X146487899Y-90800000D01*
G37*
%TO.C,P87*%
G36*
X146487899Y-149650000D02*
G01*
X139387900Y-149650000D01*
X139387900Y-148450000D01*
X146487899Y-148450000D01*
X146487899Y-149650000D01*
G37*
%TO.C,P74*%
G36*
X146487900Y-98550000D02*
G01*
X139387901Y-98550000D01*
X139387901Y-97350000D01*
X146487900Y-97350000D01*
X146487900Y-98550000D01*
G37*
%TO.C,P65*%
G36*
X146487899Y-62900001D02*
G01*
X139387900Y-62900001D01*
X139387900Y-61700001D01*
X146487899Y-61700001D01*
X146487899Y-62900001D01*
G37*
%TO.C,P62*%
G36*
X136187899Y-62735000D02*
G01*
X129087900Y-62735000D01*
X129087900Y-61535000D01*
X136187899Y-61535000D01*
X136187899Y-62735000D01*
G37*
%TO.C,P73*%
G36*
X146487899Y-94650000D02*
G01*
X139387900Y-94650000D01*
X139387900Y-93450000D01*
X146487899Y-93450000D01*
X146487899Y-94650000D01*
G37*
%TO.C,P89*%
G36*
X136187899Y-149350000D02*
G01*
X129087900Y-149350000D01*
X129087900Y-148150000D01*
X136187899Y-148150000D01*
X136187899Y-149350000D01*
G37*
%TO.C,P90*%
G36*
X136212898Y-153250001D02*
G01*
X129112899Y-153250001D01*
X129112899Y-152050001D01*
X136212898Y-152050001D01*
X136212898Y-153250001D01*
G37*
%TO.C,P66*%
G36*
X146487899Y-66900000D02*
G01*
X139387900Y-66900000D01*
X139387900Y-65700000D01*
X146487899Y-65700000D01*
X146487899Y-66900000D01*
G37*
%TO.C,P68*%
G36*
X146487899Y-74900000D02*
G01*
X139387900Y-74900000D01*
X139387900Y-73700000D01*
X146487899Y-73700000D01*
X146487899Y-74900000D01*
G37*
%TO.C,P86*%
G36*
X146487899Y-145650000D02*
G01*
X139387900Y-145650000D01*
X139387900Y-144450000D01*
X146487899Y-144450000D01*
X146487899Y-145650000D01*
G37*
%TO.C,P69*%
G36*
X146487899Y-78900000D02*
G01*
X139387900Y-78900000D01*
X139387900Y-77700000D01*
X146487899Y-77700000D01*
X146487899Y-78900000D01*
G37*
%TO.C,P84*%
G36*
X146487899Y-137850000D02*
G01*
X139387900Y-137850000D01*
X139387900Y-136650000D01*
X146487899Y-136650000D01*
X146487899Y-137850000D01*
G37*
%TO.C,P41*%
G36*
X113487899Y-86800001D02*
G01*
X106387900Y-86800001D01*
X106387900Y-85600001D01*
X113487899Y-85600001D01*
X113487899Y-86800001D01*
G37*
%TO.C,P52*%
G36*
X113487899Y-129950000D02*
G01*
X106387900Y-129950000D01*
X106387900Y-128750000D01*
X113487899Y-128750000D01*
X113487899Y-129950000D01*
G37*
%TO.C,P32*%
G36*
X103187899Y-62735000D02*
G01*
X96087900Y-62735000D01*
X96087900Y-61535000D01*
X103187899Y-61535000D01*
X103187899Y-62735000D01*
G37*
%TO.C,P33*%
G36*
X103187899Y-58650000D02*
G01*
X96087900Y-58650000D01*
X96087900Y-57450000D01*
X103187899Y-57450000D01*
X103187899Y-58650000D01*
G37*
%TO.C,P50*%
G36*
X113487900Y-122150000D02*
G01*
X106387901Y-122150000D01*
X106387901Y-120950000D01*
X113487900Y-120950000D01*
X113487900Y-122150000D01*
G37*
%TO.C,P34*%
G36*
X113487900Y-58900000D02*
G01*
X106387901Y-58900000D01*
X106387901Y-57700000D01*
X113487900Y-57700000D01*
X113487900Y-58900000D01*
G37*
%TO.C,P35*%
G36*
X113487899Y-62900001D02*
G01*
X106387900Y-62900001D01*
X106387900Y-61700001D01*
X113487899Y-61700001D01*
X113487899Y-62900001D01*
G37*
%TO.C,P55*%
G36*
X113487899Y-141750000D02*
G01*
X106387900Y-141750000D01*
X106387900Y-140550000D01*
X113487899Y-140550000D01*
X113487899Y-141750000D01*
G37*
%TO.C,P48*%
G36*
X113487900Y-114350000D02*
G01*
X106387901Y-114350000D01*
X106387901Y-113150000D01*
X113487900Y-113150000D01*
X113487900Y-114350000D01*
G37*
%TO.C,P49*%
G36*
X113487899Y-118250000D02*
G01*
X106387900Y-118250000D01*
X106387900Y-117050000D01*
X113487899Y-117050000D01*
X113487899Y-118250000D01*
G37*
%TO.C,P56*%
G36*
X113487899Y-145650000D02*
G01*
X106387900Y-145650000D01*
X106387900Y-144450000D01*
X113487899Y-144450000D01*
X113487899Y-145650000D01*
G37*
%TO.C,P51*%
G36*
X113487899Y-126050000D02*
G01*
X106387900Y-126050000D01*
X106387900Y-124850000D01*
X113487899Y-124850000D01*
X113487899Y-126050000D01*
G37*
%TO.C,P57*%
G36*
X113487899Y-149650000D02*
G01*
X106387900Y-149650000D01*
X106387900Y-148450000D01*
X113487899Y-148450000D01*
X113487899Y-149650000D01*
G37*
%TO.C,P43*%
G36*
X113487899Y-94650000D02*
G01*
X106387900Y-94650000D01*
X106387900Y-93450000D01*
X113487899Y-93450000D01*
X113487899Y-94650000D01*
G37*
%TO.C,P31*%
G36*
X103187899Y-66700000D02*
G01*
X96087900Y-66700000D01*
X96087900Y-65500000D01*
X103187899Y-65500000D01*
X103187899Y-66700000D01*
G37*
%TO.C,P38*%
G36*
X113487899Y-74900000D02*
G01*
X106387900Y-74900000D01*
X106387900Y-73700000D01*
X113487899Y-73700000D01*
X113487899Y-74900000D01*
G37*
%TO.C,P58*%
G36*
X113487899Y-153550000D02*
G01*
X106387900Y-153550000D01*
X106387900Y-152350000D01*
X113487899Y-152350000D01*
X113487899Y-153550000D01*
G37*
%TO.C,P44*%
G36*
X113487900Y-98550000D02*
G01*
X106387901Y-98550000D01*
X106387901Y-97350000D01*
X113487900Y-97350000D01*
X113487900Y-98550000D01*
G37*
%TO.C,P37*%
G36*
X113487899Y-70900000D02*
G01*
X106387900Y-70900000D01*
X106387900Y-69700000D01*
X113487899Y-69700000D01*
X113487899Y-70900000D01*
G37*
%TO.C,P36*%
G36*
X113487899Y-66900000D02*
G01*
X106387900Y-66900000D01*
X106387900Y-65700000D01*
X113487899Y-65700000D01*
X113487899Y-66900000D01*
G37*
%TO.C,P53*%
G36*
X113487900Y-133950000D02*
G01*
X106387901Y-133950000D01*
X106387901Y-132750000D01*
X113487900Y-132750000D01*
X113487900Y-133950000D01*
G37*
%TO.C,P47*%
G36*
X113487899Y-110450000D02*
G01*
X106387900Y-110450000D01*
X106387900Y-109250000D01*
X113487899Y-109250000D01*
X113487899Y-110450000D01*
G37*
%TO.C,P40*%
G36*
X113487899Y-82900000D02*
G01*
X106387900Y-82900000D01*
X106387900Y-81700000D01*
X113487899Y-81700000D01*
X113487899Y-82900000D01*
G37*
%TO.C,P60*%
G36*
X103212898Y-153250001D02*
G01*
X96112899Y-153250001D01*
X96112899Y-152050001D01*
X103212898Y-152050001D01*
X103212898Y-153250001D01*
G37*
%TO.C,P46*%
G36*
X113487899Y-106450000D02*
G01*
X106387900Y-106450000D01*
X106387900Y-105250000D01*
X113487899Y-105250000D01*
X113487899Y-106450000D01*
G37*
%TO.C,P42*%
G36*
X113487899Y-90800000D02*
G01*
X106387900Y-90800000D01*
X106387900Y-89600000D01*
X113487899Y-89600000D01*
X113487899Y-90800000D01*
G37*
%TO.C,P59*%
G36*
X103187899Y-149350000D02*
G01*
X96087900Y-149350000D01*
X96087900Y-148150000D01*
X103187899Y-148150000D01*
X103187899Y-149350000D01*
G37*
%TO.C,P45*%
G36*
X113487899Y-102550001D02*
G01*
X106387900Y-102550001D01*
X106387900Y-101350001D01*
X113487899Y-101350001D01*
X113487899Y-102550001D01*
G37*
%TO.C,P39*%
G36*
X113487899Y-78900000D02*
G01*
X106387900Y-78900000D01*
X106387900Y-77700000D01*
X113487899Y-77700000D01*
X113487899Y-78900000D01*
G37*
%TO.C,P54*%
G36*
X113487899Y-137850000D02*
G01*
X106387900Y-137850000D01*
X106387900Y-136650000D01*
X113487899Y-136650000D01*
X113487899Y-137850000D01*
G37*
%TO.C,P30*%
G36*
X169212898Y-153250001D02*
G01*
X162112899Y-153250001D01*
X162112899Y-152050001D01*
X169212898Y-152050001D01*
X169212898Y-153250001D01*
G37*
%TO.C,P7*%
G36*
X179487899Y-70900000D02*
G01*
X172387900Y-70900000D01*
X172387900Y-69700000D01*
X179487899Y-69700000D01*
X179487899Y-70900000D01*
G37*
%TO.C,P27*%
G36*
X179487899Y-149650000D02*
G01*
X172387900Y-149650000D01*
X172387900Y-148450000D01*
X179487899Y-148450000D01*
X179487899Y-149650000D01*
G37*
%TO.C,P13*%
G36*
X179487899Y-94650000D02*
G01*
X172387900Y-94650000D01*
X172387900Y-93450000D01*
X179487899Y-93450000D01*
X179487899Y-94650000D01*
G37*
%TO.C,P28*%
G36*
X179487899Y-153550000D02*
G01*
X172387900Y-153550000D01*
X172387900Y-152350000D01*
X179487899Y-152350000D01*
X179487899Y-153550000D01*
G37*
%TO.C,P14*%
G36*
X179487900Y-98550000D02*
G01*
X172387901Y-98550000D01*
X172387901Y-97350000D01*
X179487900Y-97350000D01*
X179487900Y-98550000D01*
G37*
%TO.C,P1*%
G36*
X169187899Y-66700000D02*
G01*
X162087900Y-66700000D01*
X162087900Y-65500000D01*
X169187899Y-65500000D01*
X169187899Y-66700000D01*
G37*
%TO.C,P8*%
G36*
X179487899Y-74900000D02*
G01*
X172387900Y-74900000D01*
X172387900Y-73700000D01*
X179487899Y-73700000D01*
X179487899Y-74900000D01*
G37*
%TO.C,P21*%
G36*
X179487899Y-126050000D02*
G01*
X172387900Y-126050000D01*
X172387900Y-124850000D01*
X179487899Y-124850000D01*
X179487899Y-126050000D01*
G37*
%TO.C,P10*%
G36*
X179487899Y-82900000D02*
G01*
X172387900Y-82900000D01*
X172387900Y-81700000D01*
X179487899Y-81700000D01*
X179487899Y-82900000D01*
G37*
%TO.C,P23*%
G36*
X179487900Y-133950000D02*
G01*
X172387901Y-133950000D01*
X172387901Y-132750000D01*
X179487900Y-132750000D01*
X179487900Y-133950000D01*
G37*
%TO.C,P12*%
G36*
X179487899Y-90800000D02*
G01*
X172387900Y-90800000D01*
X172387900Y-89600000D01*
X179487899Y-89600000D01*
X179487899Y-90800000D01*
G37*
%TO.C,P16*%
G36*
X179487899Y-106450000D02*
G01*
X172387900Y-106450000D01*
X172387900Y-105250000D01*
X179487899Y-105250000D01*
X179487899Y-106450000D01*
G37*
%TO.C,P26*%
G36*
X179487899Y-145650000D02*
G01*
X172387900Y-145650000D01*
X172387900Y-144450000D01*
X179487899Y-144450000D01*
X179487899Y-145650000D01*
G37*
%TO.C,P19*%
G36*
X179487899Y-118250000D02*
G01*
X172387900Y-118250000D01*
X172387900Y-117050000D01*
X179487899Y-117050000D01*
X179487899Y-118250000D01*
G37*
%TO.C,P24*%
G36*
X179487899Y-137850000D02*
G01*
X172387900Y-137850000D01*
X172387900Y-136650000D01*
X179487899Y-136650000D01*
X179487899Y-137850000D01*
G37*
%TO.C,P18*%
G36*
X179487900Y-114350000D02*
G01*
X172387901Y-114350000D01*
X172387901Y-113150000D01*
X179487900Y-113150000D01*
X179487900Y-114350000D01*
G37*
%TO.C,P2*%
G36*
X169187899Y-62735000D02*
G01*
X162087900Y-62735000D01*
X162087900Y-61535000D01*
X169187899Y-61535000D01*
X169187899Y-62735000D01*
G37*
%TO.C,P5*%
G36*
X179487899Y-62900001D02*
G01*
X172387900Y-62900001D01*
X172387900Y-61700001D01*
X179487899Y-61700001D01*
X179487899Y-62900001D01*
G37*
%TO.C,P4*%
G36*
X179487900Y-58900000D02*
G01*
X172387901Y-58900000D01*
X172387901Y-57700000D01*
X179487900Y-57700000D01*
X179487900Y-58900000D01*
G37*
%TO.C,P25*%
G36*
X179487899Y-141750000D02*
G01*
X172387900Y-141750000D01*
X172387900Y-140550000D01*
X179487899Y-140550000D01*
X179487899Y-141750000D01*
G37*
%TO.C,P17*%
G36*
X179487899Y-110450000D02*
G01*
X172387900Y-110450000D01*
X172387900Y-109250000D01*
X179487899Y-109250000D01*
X179487899Y-110450000D01*
G37*
%TO.C,P20*%
G36*
X179487900Y-122150000D02*
G01*
X172387901Y-122150000D01*
X172387901Y-120950000D01*
X179487900Y-120950000D01*
X179487900Y-122150000D01*
G37*
%TO.C,P3*%
G36*
X169187899Y-58650000D02*
G01*
X162087900Y-58650000D01*
X162087900Y-57450000D01*
X169187899Y-57450000D01*
X169187899Y-58650000D01*
G37*
%TO.C,P29*%
G36*
X169187899Y-149350000D02*
G01*
X162087900Y-149350000D01*
X162087900Y-148150000D01*
X169187899Y-148150000D01*
X169187899Y-149350000D01*
G37*
%TO.C,P22*%
G36*
X179487899Y-129950000D02*
G01*
X172387900Y-129950000D01*
X172387900Y-128750000D01*
X179487899Y-128750000D01*
X179487899Y-129950000D01*
G37*
%TO.C,P9*%
G36*
X179487899Y-78900000D02*
G01*
X172387900Y-78900000D01*
X172387900Y-77700000D01*
X179487899Y-77700000D01*
X179487899Y-78900000D01*
G37*
%TO.C,P11*%
G36*
X179487899Y-86800001D02*
G01*
X172387900Y-86800001D01*
X172387900Y-85600001D01*
X179487899Y-85600001D01*
X179487899Y-86800001D01*
G37*
%TO.C,P15*%
G36*
X179487899Y-102550001D02*
G01*
X172387900Y-102550001D01*
X172387900Y-101350001D01*
X179487899Y-101350001D01*
X179487899Y-102550001D01*
G37*
%TO.C,P6*%
G36*
X179487899Y-66900000D02*
G01*
X172387900Y-66900000D01*
X172387900Y-65700000D01*
X179487899Y-65700000D01*
X179487899Y-66900000D01*
G37*
%TD*%
D11*
%TO.C,P75*%
X142937900Y-101950001D03*
D12*
X139937900Y-101700001D03*
X141937900Y-101700001D03*
X143937900Y-101700001D03*
X145937900Y-101700001D03*
D13*
X139937900Y-100700002D03*
D14*
X141937900Y-100700001D03*
D13*
X143937901Y-100700001D03*
D14*
X145937900Y-100700001D03*
%TD*%
D11*
%TO.C,P71*%
X142937900Y-86200001D03*
D12*
X139937900Y-85950001D03*
X141937900Y-85950001D03*
X143937900Y-85950001D03*
X145937900Y-85950001D03*
D13*
X139937900Y-84950002D03*
D14*
X141937900Y-84950001D03*
D13*
X143937901Y-84950001D03*
D14*
X145937900Y-84950001D03*
%TD*%
D11*
%TO.C,P82*%
X142937900Y-129350000D03*
D12*
X139937900Y-129100000D03*
X141937900Y-129100000D03*
X143937900Y-129100000D03*
X145937900Y-129100000D03*
D13*
X139937900Y-128100001D03*
D14*
X141937900Y-128100000D03*
D13*
X143937901Y-128100000D03*
D14*
X145937900Y-128100000D03*
%TD*%
D11*
%TO.C,P63*%
X132637900Y-58050000D03*
D13*
X129637900Y-57000000D03*
D14*
X131637900Y-56999999D03*
D13*
X133637900Y-57000000D03*
D14*
X135637900Y-57000000D03*
%TD*%
D11*
%TO.C,P80*%
X142937901Y-121550000D03*
D12*
X139937901Y-121300000D03*
X141937901Y-121300000D03*
X143937901Y-121300000D03*
X145937901Y-121300000D03*
D13*
X139937901Y-120300001D03*
D14*
X141937901Y-120300000D03*
D13*
X143937902Y-120300000D03*
D14*
X145937901Y-120300000D03*
%TD*%
D11*
%TO.C,P64*%
X142937901Y-58300000D03*
D12*
X139937901Y-58050000D03*
X141937901Y-58050000D03*
X143937901Y-58050000D03*
X145937901Y-58050000D03*
D13*
X139937901Y-57050001D03*
D14*
X141937901Y-57050000D03*
D13*
X143937902Y-57050000D03*
D14*
X145937901Y-57050000D03*
%TD*%
D11*
%TO.C,P77*%
X142937900Y-109850000D03*
D12*
X139937900Y-109600000D03*
X141937900Y-109600000D03*
X143937900Y-109600000D03*
X145937900Y-109600000D03*
D13*
X139937900Y-108600001D03*
D14*
X141937900Y-108600000D03*
D13*
X143937901Y-108600000D03*
D14*
X145937900Y-108600000D03*
%TD*%
D11*
%TO.C,P85*%
X142937900Y-141150000D03*
D12*
X139937900Y-140900000D03*
X141937900Y-140900000D03*
X143937900Y-140900000D03*
X145937900Y-140900000D03*
D13*
X139937900Y-139900001D03*
D14*
X141937900Y-139900000D03*
D13*
X143937901Y-139900000D03*
D14*
X145937900Y-139900000D03*
%TD*%
D11*
%TO.C,P78*%
X142937901Y-113750000D03*
D12*
X139937901Y-113500000D03*
X141937901Y-113500000D03*
X143937901Y-113500000D03*
X145937901Y-113500000D03*
D13*
X139937901Y-112500001D03*
D14*
X141937901Y-112500000D03*
D13*
X143937902Y-112500000D03*
D14*
X145937901Y-112500000D03*
%TD*%
D11*
%TO.C,P76*%
X142937900Y-105850000D03*
D12*
X139937900Y-105600000D03*
X141937900Y-105600000D03*
X143937900Y-105600000D03*
X145937900Y-105600000D03*
D13*
X139937900Y-104600001D03*
D14*
X141937900Y-104600000D03*
D13*
X143937901Y-104600000D03*
D14*
X145937900Y-104600000D03*
%TD*%
D11*
%TO.C,P79*%
X142937900Y-117650000D03*
D12*
X139937900Y-117400000D03*
X141937900Y-117400000D03*
X143937900Y-117400000D03*
X145937900Y-117400000D03*
D13*
X139937900Y-116400001D03*
D14*
X141937900Y-116400000D03*
D13*
X143937901Y-116400000D03*
D14*
X145937900Y-116400000D03*
%TD*%
D15*
%TO.C,J12*%
X117749723Y-57888589D03*
D16*
X117749723Y-60428589D03*
X117749723Y-62968589D03*
X117749723Y-65508589D03*
X117749723Y-68048589D03*
X117749723Y-70588589D03*
X117749723Y-73128589D03*
X117749723Y-75668589D03*
X117749723Y-78208589D03*
X117749723Y-80748589D03*
X117749723Y-83288589D03*
X117749723Y-85828589D03*
X117749723Y-88368589D03*
X117749723Y-90908589D03*
X117749723Y-93448589D03*
X117749723Y-95988589D03*
X117749723Y-98528589D03*
X117749723Y-101068589D03*
X117749723Y-103608589D03*
X117749723Y-106148589D03*
X117749723Y-108688589D03*
X117749723Y-111228589D03*
X117749723Y-113768589D03*
X117749723Y-116308589D03*
X117749723Y-118848589D03*
X117749723Y-121388589D03*
X117749723Y-123928589D03*
X117749723Y-126468589D03*
X117749723Y-129008589D03*
X117749723Y-131548589D03*
X117749723Y-134088589D03*
X117749723Y-136628589D03*
X117749723Y-139168589D03*
X117749723Y-141708589D03*
X117749723Y-144248589D03*
X117749723Y-146788589D03*
X117749723Y-149328589D03*
X117749723Y-151868589D03*
%TD*%
D11*
%TO.C,P83*%
X142937901Y-133350000D03*
D12*
X139937901Y-133100000D03*
X141937901Y-133100000D03*
X143937901Y-133100000D03*
X145937901Y-133100000D03*
D13*
X139937901Y-132100001D03*
D14*
X141937901Y-132100000D03*
D13*
X143937902Y-132100000D03*
D14*
X145937901Y-132100000D03*
%TD*%
D11*
%TO.C,P70*%
X142937900Y-82300000D03*
D12*
X139937900Y-82050000D03*
X141937900Y-82050000D03*
X143937900Y-82050000D03*
X145937900Y-82050000D03*
D13*
X139937900Y-81050001D03*
D14*
X141937900Y-81050000D03*
D13*
X143937901Y-81050000D03*
D14*
X145937900Y-81050000D03*
%TD*%
D11*
%TO.C,P81*%
X142937900Y-125450000D03*
D12*
X139937900Y-125200000D03*
X141937900Y-125200000D03*
X143937900Y-125200000D03*
X145937900Y-125200000D03*
D13*
X139937900Y-124200001D03*
D14*
X141937900Y-124200000D03*
D13*
X143937901Y-124200000D03*
D14*
X145937900Y-124200000D03*
%TD*%
D11*
%TO.C,P67*%
X142937900Y-70300000D03*
D12*
X139937900Y-70050000D03*
X141937900Y-70050000D03*
X143937900Y-70050000D03*
X145937900Y-70050000D03*
D13*
X139937900Y-69050001D03*
D14*
X141937900Y-69050000D03*
D13*
X143937901Y-69050000D03*
D14*
X145937900Y-69050000D03*
%TD*%
D15*
%TO.C,J11*%
X124289723Y-57888589D03*
D16*
X121749723Y-57888589D03*
X124289723Y-60428589D03*
X121749723Y-60428589D03*
X124289723Y-62968589D03*
X121749723Y-62968589D03*
X124289723Y-65508589D03*
X121749723Y-65508589D03*
X124289723Y-68048589D03*
X121749723Y-68048589D03*
X124289723Y-70588589D03*
X121749723Y-70588589D03*
X124289723Y-73128589D03*
X121749723Y-73128589D03*
X124289723Y-75668589D03*
X121749723Y-75668589D03*
X124289723Y-78208589D03*
X121749723Y-78208589D03*
X124289723Y-80748589D03*
X121749723Y-80748589D03*
X124289723Y-83288589D03*
X121749723Y-83288589D03*
X124289723Y-85828589D03*
X121749723Y-85828589D03*
X124289723Y-88368589D03*
X121749723Y-88368589D03*
X124289723Y-90908589D03*
X121749723Y-90908589D03*
X124289723Y-93448589D03*
X121749723Y-93448589D03*
X124289723Y-95988589D03*
X121749723Y-95988589D03*
X124289723Y-98528589D03*
X121749723Y-98528589D03*
X124289723Y-101068589D03*
X121749723Y-101068589D03*
X124289723Y-103608589D03*
X121749723Y-103608589D03*
X124289723Y-106148589D03*
X121749723Y-106148589D03*
X124289723Y-108688589D03*
X121749723Y-108688589D03*
X124289723Y-111228589D03*
X121749723Y-111228589D03*
X124289723Y-113768589D03*
X121749723Y-113768589D03*
X124289723Y-116308589D03*
X121749723Y-116308589D03*
X124289723Y-118848589D03*
X121749723Y-118848589D03*
X124289723Y-121388589D03*
X121749723Y-121388589D03*
X124289723Y-123928589D03*
X121749723Y-123928589D03*
X124289723Y-126468589D03*
X121749723Y-126468589D03*
X124289723Y-129008589D03*
X121749723Y-129008589D03*
X124289723Y-131548589D03*
X121749723Y-131548589D03*
X124289723Y-134088589D03*
X121749723Y-134088589D03*
X124289723Y-136628589D03*
X121749723Y-136628589D03*
X124289723Y-139168589D03*
X121749723Y-139168589D03*
X124289723Y-141708589D03*
X121749723Y-141708589D03*
X124289723Y-144248589D03*
X121749723Y-144248589D03*
X124289723Y-146788589D03*
X121749723Y-146788589D03*
X124289723Y-149328589D03*
X121749723Y-149328589D03*
X124289723Y-151868589D03*
X121749723Y-151868589D03*
%TD*%
D11*
%TO.C,P61*%
X132637900Y-66100000D03*
D13*
X129637900Y-65050000D03*
D14*
X131637900Y-65049999D03*
D13*
X133637900Y-65050000D03*
D14*
X135637900Y-65050000D03*
%TD*%
D11*
%TO.C,P88*%
X142937900Y-152950000D03*
D12*
X139937900Y-152700000D03*
X141937900Y-152700000D03*
X143937900Y-152700000D03*
X145937900Y-152700000D03*
D13*
X139937900Y-151700001D03*
D14*
X141937900Y-151700000D03*
D13*
X143937901Y-151700000D03*
D14*
X145937900Y-151700000D03*
%TD*%
D11*
%TO.C,P72*%
X142937900Y-90200000D03*
D12*
X139937900Y-89950000D03*
X141937900Y-89950000D03*
X143937900Y-89950000D03*
X145937900Y-89950000D03*
D13*
X139937900Y-88950001D03*
D14*
X141937900Y-88950000D03*
D13*
X143937901Y-88950000D03*
D14*
X145937900Y-88950000D03*
%TD*%
D11*
%TO.C,P87*%
X142937900Y-149050000D03*
D12*
X139937900Y-148800000D03*
X141937900Y-148800000D03*
X143937900Y-148800000D03*
X145937900Y-148800000D03*
D13*
X139937900Y-147800001D03*
D14*
X141937900Y-147800000D03*
D13*
X143937901Y-147800000D03*
D14*
X145937900Y-147800000D03*
%TD*%
D11*
%TO.C,P74*%
X142937901Y-97950000D03*
D12*
X139937901Y-97700000D03*
X141937901Y-97700000D03*
X143937901Y-97700000D03*
X145937901Y-97700000D03*
D13*
X139937901Y-96700001D03*
D14*
X141937901Y-96700000D03*
D13*
X143937902Y-96700000D03*
D14*
X145937901Y-96700000D03*
%TD*%
D11*
%TO.C,P65*%
X142937900Y-62300001D03*
D12*
X139937900Y-62050001D03*
X141937900Y-62050001D03*
X143937900Y-62050001D03*
X145937900Y-62050001D03*
D13*
X139937900Y-61050002D03*
D14*
X141937900Y-61050001D03*
D13*
X143937901Y-61050001D03*
D14*
X145937900Y-61050001D03*
%TD*%
D11*
%TO.C,P62*%
X132637900Y-62135000D03*
D13*
X129637900Y-61085000D03*
D14*
X131637900Y-61084999D03*
D13*
X133637900Y-61085000D03*
D14*
X135637900Y-61085000D03*
%TD*%
D11*
%TO.C,P73*%
X142937900Y-94050000D03*
D12*
X139937900Y-93800000D03*
X141937900Y-93800000D03*
X143937900Y-93800000D03*
X145937900Y-93800000D03*
D13*
X139937900Y-92800001D03*
D14*
X141937900Y-92800000D03*
D13*
X143937901Y-92800000D03*
D14*
X145937900Y-92800000D03*
%TD*%
D11*
%TO.C,P89*%
X132637900Y-148750000D03*
D13*
X129637900Y-147700000D03*
D14*
X131637900Y-147699999D03*
D13*
X133637900Y-147700000D03*
D14*
X135637900Y-147700000D03*
%TD*%
D11*
%TO.C,P90*%
X132662899Y-152650001D03*
D13*
X129662899Y-151600001D03*
D14*
X131662899Y-151600000D03*
D13*
X133662899Y-151600001D03*
D14*
X135662899Y-151600001D03*
%TD*%
D11*
%TO.C,P66*%
X142937900Y-66300000D03*
D12*
X139937900Y-66050000D03*
X141937900Y-66050000D03*
X143937900Y-66050000D03*
X145937900Y-66050000D03*
D13*
X139937900Y-65050001D03*
D14*
X141937900Y-65050000D03*
D13*
X143937901Y-65050000D03*
D14*
X145937900Y-65050000D03*
%TD*%
D15*
%TO.C,J13*%
X135338723Y-69500000D03*
D16*
X132798723Y-69500000D03*
X135338723Y-72040000D03*
X132798723Y-72040000D03*
X135338723Y-74579999D03*
X132798723Y-74580000D03*
X135338723Y-77120000D03*
X132798723Y-77120000D03*
X135338723Y-79660000D03*
X132798723Y-79660000D03*
X135338723Y-82200000D03*
X132798723Y-82200000D03*
X135338723Y-84740000D03*
X132798723Y-84740000D03*
X135338723Y-87280001D03*
X132798723Y-87280000D03*
X135338723Y-89820000D03*
X132798723Y-89820000D03*
X135338723Y-92360000D03*
X132798723Y-92360000D03*
X135338723Y-94900000D03*
X132798723Y-94900000D03*
X135338723Y-97439999D03*
X132798723Y-97440000D03*
X135338723Y-99980000D03*
X132798723Y-99980000D03*
X135338723Y-102520000D03*
X132798723Y-102520000D03*
X135338723Y-105060000D03*
X132798723Y-105060000D03*
X135338723Y-107599999D03*
X132798723Y-107600000D03*
X135338723Y-110140001D03*
X132798723Y-110140000D03*
X135338723Y-112680000D03*
X132798723Y-112680000D03*
X135338723Y-115220000D03*
X132798723Y-115220000D03*
X135338723Y-117760000D03*
X132798723Y-117760000D03*
X135338723Y-120299999D03*
X132798723Y-120300000D03*
X135338723Y-122840000D03*
X132798723Y-122840000D03*
X135338723Y-125380000D03*
X132798723Y-125380000D03*
X135338723Y-127920000D03*
X132798723Y-127920000D03*
X135338723Y-130459999D03*
X132798723Y-130460000D03*
X135338723Y-133000001D03*
X132798723Y-133000000D03*
X135338723Y-135540000D03*
X132798723Y-135540000D03*
X135338723Y-138080000D03*
X132798723Y-138080000D03*
X135338723Y-140620000D03*
X132798723Y-140620000D03*
X135338723Y-143160001D03*
X132798723Y-143160000D03*
%TD*%
D15*
%TO.C,J10*%
X130238723Y-69480001D03*
D16*
X130238723Y-72020001D03*
X130238723Y-74560000D03*
X130238723Y-77100001D03*
X130238723Y-79640001D03*
X130238723Y-82180001D03*
X130238723Y-84720001D03*
X130238723Y-87260002D03*
X130238723Y-89800001D03*
X130238723Y-92340001D03*
X130238723Y-94880001D03*
X130238723Y-97420000D03*
X130238723Y-99960001D03*
X130238723Y-102500001D03*
X130238723Y-105040001D03*
X130238723Y-107580000D03*
X130238723Y-110120002D03*
X130238723Y-112660001D03*
X130238723Y-115200001D03*
X130238723Y-117740001D03*
X130238723Y-120280000D03*
X130238723Y-122820001D03*
X130238723Y-125360001D03*
X130238723Y-127900001D03*
X130238723Y-130440000D03*
X130238723Y-132980002D03*
X130238723Y-135520001D03*
X130238723Y-138060001D03*
X130238723Y-140600001D03*
X130238723Y-143140002D03*
%TD*%
D11*
%TO.C,P68*%
X142937900Y-74300000D03*
D12*
X139937900Y-74050000D03*
X141937900Y-74050000D03*
X143937900Y-74050000D03*
X145937900Y-74050000D03*
D13*
X139937900Y-73050001D03*
D14*
X141937900Y-73050000D03*
D13*
X143937901Y-73050000D03*
D14*
X145937900Y-73050000D03*
%TD*%
D11*
%TO.C,P86*%
X142937900Y-145050000D03*
D12*
X139937900Y-144800000D03*
X141937900Y-144800000D03*
X143937900Y-144800000D03*
X145937900Y-144800000D03*
D13*
X139937900Y-143800001D03*
D14*
X141937900Y-143800000D03*
D13*
X143937901Y-143800000D03*
D14*
X145937900Y-143800000D03*
%TD*%
D11*
%TO.C,P69*%
X142937900Y-78300000D03*
D12*
X139937900Y-78050000D03*
X141937900Y-78050000D03*
X143937900Y-78050000D03*
X145937900Y-78050000D03*
D13*
X139937900Y-77050001D03*
D14*
X141937900Y-77050000D03*
D13*
X143937901Y-77050000D03*
D14*
X145937900Y-77050000D03*
%TD*%
D11*
%TO.C,P84*%
X142937900Y-137250000D03*
D12*
X139937900Y-137000000D03*
X141937900Y-137000000D03*
X143937900Y-137000000D03*
X145937900Y-137000000D03*
D13*
X139937900Y-136000001D03*
D14*
X141937900Y-136000000D03*
D13*
X143937901Y-136000000D03*
D14*
X145937900Y-136000000D03*
%TD*%
D15*
%TO.C,J9*%
X102338723Y-69500000D03*
D16*
X99798723Y-69500000D03*
X102338723Y-72040000D03*
X99798723Y-72040000D03*
X102338723Y-74579999D03*
X99798723Y-74580000D03*
X102338723Y-77120000D03*
X99798723Y-77120000D03*
X102338723Y-79660000D03*
X99798723Y-79660000D03*
X102338723Y-82200000D03*
X99798723Y-82200000D03*
X102338723Y-84740000D03*
X99798723Y-84740000D03*
X102338723Y-87280001D03*
X99798723Y-87280000D03*
X102338723Y-89820000D03*
X99798723Y-89820000D03*
X102338723Y-92360000D03*
X99798723Y-92360000D03*
X102338723Y-94900000D03*
X99798723Y-94900000D03*
X102338723Y-97439999D03*
X99798723Y-97440000D03*
X102338723Y-99980000D03*
X99798723Y-99980000D03*
X102338723Y-102520000D03*
X99798723Y-102520000D03*
X102338723Y-105060000D03*
X99798723Y-105060000D03*
X102338723Y-107599999D03*
X99798723Y-107600000D03*
X102338723Y-110140001D03*
X99798723Y-110140000D03*
X102338723Y-112680000D03*
X99798723Y-112680000D03*
X102338723Y-115220000D03*
X99798723Y-115220000D03*
X102338723Y-117760000D03*
X99798723Y-117760000D03*
X102338723Y-120299999D03*
X99798723Y-120300000D03*
X102338723Y-122840000D03*
X99798723Y-122840000D03*
X102338723Y-125380000D03*
X99798723Y-125380000D03*
X102338723Y-127920000D03*
X99798723Y-127920000D03*
X102338723Y-130459999D03*
X99798723Y-130460000D03*
X102338723Y-133000001D03*
X99798723Y-133000000D03*
X102338723Y-135540000D03*
X99798723Y-135540000D03*
X102338723Y-138080000D03*
X99798723Y-138080000D03*
X102338723Y-140620000D03*
X99798723Y-140620000D03*
X102338723Y-143160001D03*
X99798723Y-143160000D03*
%TD*%
D15*
%TO.C,J6*%
X97238723Y-69480001D03*
D16*
X97238723Y-72020001D03*
X97238723Y-74560000D03*
X97238723Y-77100001D03*
X97238723Y-79640001D03*
X97238723Y-82180001D03*
X97238723Y-84720001D03*
X97238723Y-87260002D03*
X97238723Y-89800001D03*
X97238723Y-92340001D03*
X97238723Y-94880001D03*
X97238723Y-97420000D03*
X97238723Y-99960001D03*
X97238723Y-102500001D03*
X97238723Y-105040001D03*
X97238723Y-107580000D03*
X97238723Y-110120002D03*
X97238723Y-112660001D03*
X97238723Y-115200001D03*
X97238723Y-117740001D03*
X97238723Y-120280000D03*
X97238723Y-122820001D03*
X97238723Y-125360001D03*
X97238723Y-127900001D03*
X97238723Y-130440000D03*
X97238723Y-132980002D03*
X97238723Y-135520001D03*
X97238723Y-138060001D03*
X97238723Y-140600001D03*
X97238723Y-143140002D03*
%TD*%
D11*
%TO.C,P41*%
X109937900Y-86200001D03*
D12*
X106937900Y-85950001D03*
X108937900Y-85950001D03*
X110937900Y-85950001D03*
X112937900Y-85950001D03*
D13*
X106937900Y-84950002D03*
D14*
X108937900Y-84950001D03*
D13*
X110937901Y-84950001D03*
D14*
X112937900Y-84950001D03*
%TD*%
D11*
%TO.C,P52*%
X109937900Y-129350000D03*
D12*
X106937900Y-129100000D03*
X108937900Y-129100000D03*
X110937900Y-129100000D03*
X112937900Y-129100000D03*
D13*
X106937900Y-128100001D03*
D14*
X108937900Y-128100000D03*
D13*
X110937901Y-128100000D03*
D14*
X112937900Y-128100000D03*
%TD*%
D11*
%TO.C,P32*%
X99637900Y-62135000D03*
D13*
X96637900Y-61085000D03*
D14*
X98637900Y-61084999D03*
D13*
X100637900Y-61085000D03*
D14*
X102637900Y-61085000D03*
%TD*%
D11*
%TO.C,P33*%
X99637900Y-58050000D03*
D13*
X96637900Y-57000000D03*
D14*
X98637900Y-56999999D03*
D13*
X100637900Y-57000000D03*
D14*
X102637900Y-57000000D03*
%TD*%
D11*
%TO.C,P50*%
X109937901Y-121550000D03*
D12*
X106937901Y-121300000D03*
X108937901Y-121300000D03*
X110937901Y-121300000D03*
X112937901Y-121300000D03*
D13*
X106937901Y-120300001D03*
D14*
X108937901Y-120300000D03*
D13*
X110937902Y-120300000D03*
D14*
X112937901Y-120300000D03*
%TD*%
D11*
%TO.C,P34*%
X109937901Y-58300000D03*
D12*
X106937901Y-58050000D03*
X108937901Y-58050000D03*
X110937901Y-58050000D03*
X112937901Y-58050000D03*
D13*
X106937901Y-57050001D03*
D14*
X108937901Y-57050000D03*
D13*
X110937902Y-57050000D03*
D14*
X112937901Y-57050000D03*
%TD*%
D11*
%TO.C,P35*%
X109937900Y-62300001D03*
D12*
X106937900Y-62050001D03*
X108937900Y-62050001D03*
X110937900Y-62050001D03*
X112937900Y-62050001D03*
D13*
X106937900Y-61050002D03*
D14*
X108937900Y-61050001D03*
D13*
X110937901Y-61050001D03*
D14*
X112937900Y-61050001D03*
%TD*%
D11*
%TO.C,P55*%
X109937900Y-141150000D03*
D12*
X106937900Y-140900000D03*
X108937900Y-140900000D03*
X110937900Y-140900000D03*
X112937900Y-140900000D03*
D13*
X106937900Y-139900001D03*
D14*
X108937900Y-139900000D03*
D13*
X110937901Y-139900000D03*
D14*
X112937900Y-139900000D03*
%TD*%
D11*
%TO.C,P48*%
X109937901Y-113750000D03*
D12*
X106937901Y-113500000D03*
X108937901Y-113500000D03*
X110937901Y-113500000D03*
X112937901Y-113500000D03*
D13*
X106937901Y-112500001D03*
D14*
X108937901Y-112500000D03*
D13*
X110937902Y-112500000D03*
D14*
X112937901Y-112500000D03*
%TD*%
D11*
%TO.C,P49*%
X109937900Y-117650000D03*
D12*
X106937900Y-117400000D03*
X108937900Y-117400000D03*
X110937900Y-117400000D03*
X112937900Y-117400000D03*
D13*
X106937900Y-116400001D03*
D14*
X108937900Y-116400000D03*
D13*
X110937901Y-116400000D03*
D14*
X112937900Y-116400000D03*
%TD*%
D11*
%TO.C,P56*%
X109937900Y-145050000D03*
D12*
X106937900Y-144800000D03*
X108937900Y-144800000D03*
X110937900Y-144800000D03*
X112937900Y-144800000D03*
D13*
X106937900Y-143800001D03*
D14*
X108937900Y-143800000D03*
D13*
X110937901Y-143800000D03*
D14*
X112937900Y-143800000D03*
%TD*%
D11*
%TO.C,P51*%
X109937900Y-125450000D03*
D12*
X106937900Y-125200000D03*
X108937900Y-125200000D03*
X110937900Y-125200000D03*
X112937900Y-125200000D03*
D13*
X106937900Y-124200001D03*
D14*
X108937900Y-124200000D03*
D13*
X110937901Y-124200000D03*
D14*
X112937900Y-124200000D03*
%TD*%
D11*
%TO.C,P57*%
X109937900Y-149050000D03*
D12*
X106937900Y-148800000D03*
X108937900Y-148800000D03*
X110937900Y-148800000D03*
X112937900Y-148800000D03*
D13*
X106937900Y-147800001D03*
D14*
X108937900Y-147800000D03*
D13*
X110937901Y-147800000D03*
D14*
X112937900Y-147800000D03*
%TD*%
D11*
%TO.C,P43*%
X109937900Y-94050000D03*
D12*
X106937900Y-93800000D03*
X108937900Y-93800000D03*
X110937900Y-93800000D03*
X112937900Y-93800000D03*
D13*
X106937900Y-92800001D03*
D14*
X108937900Y-92800000D03*
D13*
X110937901Y-92800000D03*
D14*
X112937900Y-92800000D03*
%TD*%
D15*
%TO.C,J7*%
X91289723Y-57888589D03*
D16*
X88749723Y-57888589D03*
X91289723Y-60428589D03*
X88749723Y-60428589D03*
X91289723Y-62968589D03*
X88749723Y-62968589D03*
X91289723Y-65508589D03*
X88749723Y-65508589D03*
X91289723Y-68048589D03*
X88749723Y-68048589D03*
X91289723Y-70588589D03*
X88749723Y-70588589D03*
X91289723Y-73128589D03*
X88749723Y-73128589D03*
X91289723Y-75668589D03*
X88749723Y-75668589D03*
X91289723Y-78208589D03*
X88749723Y-78208589D03*
X91289723Y-80748589D03*
X88749723Y-80748589D03*
X91289723Y-83288589D03*
X88749723Y-83288589D03*
X91289723Y-85828589D03*
X88749723Y-85828589D03*
X91289723Y-88368589D03*
X88749723Y-88368589D03*
X91289723Y-90908589D03*
X88749723Y-90908589D03*
X91289723Y-93448589D03*
X88749723Y-93448589D03*
X91289723Y-95988589D03*
X88749723Y-95988589D03*
X91289723Y-98528589D03*
X88749723Y-98528589D03*
X91289723Y-101068589D03*
X88749723Y-101068589D03*
X91289723Y-103608589D03*
X88749723Y-103608589D03*
X91289723Y-106148589D03*
X88749723Y-106148589D03*
X91289723Y-108688589D03*
X88749723Y-108688589D03*
X91289723Y-111228589D03*
X88749723Y-111228589D03*
X91289723Y-113768589D03*
X88749723Y-113768589D03*
X91289723Y-116308589D03*
X88749723Y-116308589D03*
X91289723Y-118848589D03*
X88749723Y-118848589D03*
X91289723Y-121388589D03*
X88749723Y-121388589D03*
X91289723Y-123928589D03*
X88749723Y-123928589D03*
X91289723Y-126468589D03*
X88749723Y-126468589D03*
X91289723Y-129008589D03*
X88749723Y-129008589D03*
X91289723Y-131548589D03*
X88749723Y-131548589D03*
X91289723Y-134088589D03*
X88749723Y-134088589D03*
X91289723Y-136628589D03*
X88749723Y-136628589D03*
X91289723Y-139168589D03*
X88749723Y-139168589D03*
X91289723Y-141708589D03*
X88749723Y-141708589D03*
X91289723Y-144248589D03*
X88749723Y-144248589D03*
X91289723Y-146788589D03*
X88749723Y-146788589D03*
X91289723Y-149328589D03*
X88749723Y-149328589D03*
X91289723Y-151868589D03*
X88749723Y-151868589D03*
%TD*%
D11*
%TO.C,P31*%
X99637900Y-66100000D03*
D13*
X96637900Y-65050000D03*
D14*
X98637900Y-65049999D03*
D13*
X100637900Y-65050000D03*
D14*
X102637900Y-65050000D03*
%TD*%
D11*
%TO.C,P38*%
X109937900Y-74300000D03*
D12*
X106937900Y-74050000D03*
X108937900Y-74050000D03*
X110937900Y-74050000D03*
X112937900Y-74050000D03*
D13*
X106937900Y-73050001D03*
D14*
X108937900Y-73050000D03*
D13*
X110937901Y-73050000D03*
D14*
X112937900Y-73050000D03*
%TD*%
D11*
%TO.C,P58*%
X109937900Y-152950000D03*
D12*
X106937900Y-152700000D03*
X108937900Y-152700000D03*
X110937900Y-152700000D03*
X112937900Y-152700000D03*
D13*
X106937900Y-151700001D03*
D14*
X108937900Y-151700000D03*
D13*
X110937901Y-151700000D03*
D14*
X112937900Y-151700000D03*
%TD*%
D11*
%TO.C,P44*%
X109937901Y-97950000D03*
D12*
X106937901Y-97700000D03*
X108937901Y-97700000D03*
X110937901Y-97700000D03*
X112937901Y-97700000D03*
D13*
X106937901Y-96700001D03*
D14*
X108937901Y-96700000D03*
D13*
X110937902Y-96700000D03*
D14*
X112937901Y-96700000D03*
%TD*%
D15*
%TO.C,J8*%
X84749723Y-57888589D03*
D16*
X84749723Y-60428589D03*
X84749723Y-62968589D03*
X84749723Y-65508589D03*
X84749723Y-68048589D03*
X84749723Y-70588589D03*
X84749723Y-73128589D03*
X84749723Y-75668589D03*
X84749723Y-78208589D03*
X84749723Y-80748589D03*
X84749723Y-83288589D03*
X84749723Y-85828589D03*
X84749723Y-88368589D03*
X84749723Y-90908589D03*
X84749723Y-93448589D03*
X84749723Y-95988589D03*
X84749723Y-98528589D03*
X84749723Y-101068589D03*
X84749723Y-103608589D03*
X84749723Y-106148589D03*
X84749723Y-108688589D03*
X84749723Y-111228589D03*
X84749723Y-113768589D03*
X84749723Y-116308589D03*
X84749723Y-118848589D03*
X84749723Y-121388589D03*
X84749723Y-123928589D03*
X84749723Y-126468589D03*
X84749723Y-129008589D03*
X84749723Y-131548589D03*
X84749723Y-134088589D03*
X84749723Y-136628589D03*
X84749723Y-139168589D03*
X84749723Y-141708589D03*
X84749723Y-144248589D03*
X84749723Y-146788589D03*
X84749723Y-149328589D03*
X84749723Y-151868589D03*
%TD*%
D11*
%TO.C,P37*%
X109937900Y-70300000D03*
D12*
X106937900Y-70050000D03*
X108937900Y-70050000D03*
X110937900Y-70050000D03*
X112937900Y-70050000D03*
D13*
X106937900Y-69050001D03*
D14*
X108937900Y-69050000D03*
D13*
X110937901Y-69050000D03*
D14*
X112937900Y-69050000D03*
%TD*%
D11*
%TO.C,P36*%
X109937900Y-66300000D03*
D12*
X106937900Y-66050000D03*
X108937900Y-66050000D03*
X110937900Y-66050000D03*
X112937900Y-66050000D03*
D13*
X106937900Y-65050001D03*
D14*
X108937900Y-65050000D03*
D13*
X110937901Y-65050000D03*
D14*
X112937900Y-65050000D03*
%TD*%
D11*
%TO.C,P53*%
X109937901Y-133350000D03*
D12*
X106937901Y-133100000D03*
X108937901Y-133100000D03*
X110937901Y-133100000D03*
X112937901Y-133100000D03*
D13*
X106937901Y-132100001D03*
D14*
X108937901Y-132100000D03*
D13*
X110937902Y-132100000D03*
D14*
X112937901Y-132100000D03*
%TD*%
D11*
%TO.C,P47*%
X109937900Y-109850000D03*
D12*
X106937900Y-109600000D03*
X108937900Y-109600000D03*
X110937900Y-109600000D03*
X112937900Y-109600000D03*
D13*
X106937900Y-108600001D03*
D14*
X108937900Y-108600000D03*
D13*
X110937901Y-108600000D03*
D14*
X112937900Y-108600000D03*
%TD*%
D11*
%TO.C,P40*%
X109937900Y-82300000D03*
D12*
X106937900Y-82050000D03*
X108937900Y-82050000D03*
X110937900Y-82050000D03*
X112937900Y-82050000D03*
D13*
X106937900Y-81050001D03*
D14*
X108937900Y-81050000D03*
D13*
X110937901Y-81050000D03*
D14*
X112937900Y-81050000D03*
%TD*%
D11*
%TO.C,P60*%
X99662899Y-152650001D03*
D13*
X96662899Y-151600001D03*
D14*
X98662899Y-151600000D03*
D13*
X100662899Y-151600001D03*
D14*
X102662899Y-151600001D03*
%TD*%
D11*
%TO.C,P46*%
X109937900Y-105850000D03*
D12*
X106937900Y-105600000D03*
X108937900Y-105600000D03*
X110937900Y-105600000D03*
X112937900Y-105600000D03*
D13*
X106937900Y-104600001D03*
D14*
X108937900Y-104600000D03*
D13*
X110937901Y-104600000D03*
D14*
X112937900Y-104600000D03*
%TD*%
D11*
%TO.C,P42*%
X109937900Y-90200000D03*
D12*
X106937900Y-89950000D03*
X108937900Y-89950000D03*
X110937900Y-89950000D03*
X112937900Y-89950000D03*
D13*
X106937900Y-88950001D03*
D14*
X108937900Y-88950000D03*
D13*
X110937901Y-88950000D03*
D14*
X112937900Y-88950000D03*
%TD*%
D11*
%TO.C,P59*%
X99637900Y-148750000D03*
D13*
X96637900Y-147700000D03*
D14*
X98637900Y-147699999D03*
D13*
X100637900Y-147700000D03*
D14*
X102637900Y-147700000D03*
%TD*%
D11*
%TO.C,P45*%
X109937900Y-101950001D03*
D12*
X106937900Y-101700001D03*
X108937900Y-101700001D03*
X110937900Y-101700001D03*
X112937900Y-101700001D03*
D13*
X106937900Y-100700002D03*
D14*
X108937900Y-100700001D03*
D13*
X110937901Y-100700001D03*
D14*
X112937900Y-100700001D03*
%TD*%
D11*
%TO.C,P39*%
X109937900Y-78300000D03*
D12*
X106937900Y-78050000D03*
X108937900Y-78050000D03*
X110937900Y-78050000D03*
X112937900Y-78050000D03*
D13*
X106937900Y-77050001D03*
D14*
X108937900Y-77050000D03*
D13*
X110937901Y-77050000D03*
D14*
X112937900Y-77050000D03*
%TD*%
D11*
%TO.C,P54*%
X109937900Y-137250000D03*
D12*
X106937900Y-137000000D03*
X108937900Y-137000000D03*
X110937900Y-137000000D03*
X112937900Y-137000000D03*
D13*
X106937900Y-136000001D03*
D14*
X108937900Y-136000000D03*
D13*
X110937901Y-136000000D03*
D14*
X112937900Y-136000000D03*
%TD*%
D11*
%TO.C,P30*%
X165662899Y-152650001D03*
D13*
X162662899Y-151600001D03*
D14*
X164662899Y-151600000D03*
D13*
X166662899Y-151600001D03*
D14*
X168662899Y-151600001D03*
%TD*%
D11*
%TO.C,P7*%
X175937900Y-70300000D03*
D12*
X172937900Y-70050000D03*
X174937900Y-70050000D03*
X176937900Y-70050000D03*
X178937900Y-70050000D03*
D13*
X172937900Y-69050001D03*
D14*
X174937900Y-69050000D03*
D13*
X176937901Y-69050000D03*
D14*
X178937900Y-69050000D03*
%TD*%
D11*
%TO.C,P27*%
X175937900Y-149050000D03*
D12*
X172937900Y-148800000D03*
X174937900Y-148800000D03*
X176937900Y-148800000D03*
X178937900Y-148800000D03*
D13*
X172937900Y-147800001D03*
D14*
X174937900Y-147800000D03*
D13*
X176937901Y-147800000D03*
D14*
X178937900Y-147800000D03*
%TD*%
D11*
%TO.C,P13*%
X175937900Y-94050000D03*
D12*
X172937900Y-93800000D03*
X174937900Y-93800000D03*
X176937900Y-93800000D03*
X178937900Y-93800000D03*
D13*
X172937900Y-92800001D03*
D14*
X174937900Y-92800000D03*
D13*
X176937901Y-92800000D03*
D14*
X178937900Y-92800000D03*
%TD*%
D11*
%TO.C,P28*%
X175937900Y-152950000D03*
D12*
X172937900Y-152700000D03*
X174937900Y-152700000D03*
X176937900Y-152700000D03*
X178937900Y-152700000D03*
D13*
X172937900Y-151700001D03*
D14*
X174937900Y-151700000D03*
D13*
X176937901Y-151700000D03*
D14*
X178937900Y-151700000D03*
%TD*%
D11*
%TO.C,P14*%
X175937901Y-97950000D03*
D12*
X172937901Y-97700000D03*
X174937901Y-97700000D03*
X176937901Y-97700000D03*
X178937901Y-97700000D03*
D13*
X172937901Y-96700001D03*
D14*
X174937901Y-96700000D03*
D13*
X176937902Y-96700000D03*
D14*
X178937901Y-96700000D03*
%TD*%
D11*
%TO.C,P1*%
X165637900Y-66100000D03*
D13*
X162637900Y-65050000D03*
D14*
X164637900Y-65049999D03*
D13*
X166637900Y-65050000D03*
D14*
X168637900Y-65050000D03*
%TD*%
D11*
%TO.C,P8*%
X175937900Y-74300000D03*
D12*
X172937900Y-74050000D03*
X174937900Y-74050000D03*
X176937900Y-74050000D03*
X178937900Y-74050000D03*
D13*
X172937900Y-73050001D03*
D14*
X174937900Y-73050000D03*
D13*
X176937901Y-73050000D03*
D14*
X178937900Y-73050000D03*
%TD*%
D11*
%TO.C,P21*%
X175937900Y-125450000D03*
D12*
X172937900Y-125200000D03*
X174937900Y-125200000D03*
X176937900Y-125200000D03*
X178937900Y-125200000D03*
D13*
X172937900Y-124200001D03*
D14*
X174937900Y-124200000D03*
D13*
X176937901Y-124200000D03*
D14*
X178937900Y-124200000D03*
%TD*%
D11*
%TO.C,P10*%
X175937900Y-82300000D03*
D12*
X172937900Y-82050000D03*
X174937900Y-82050000D03*
X176937900Y-82050000D03*
X178937900Y-82050000D03*
D13*
X172937900Y-81050001D03*
D14*
X174937900Y-81050000D03*
D13*
X176937901Y-81050000D03*
D14*
X178937900Y-81050000D03*
%TD*%
D11*
%TO.C,P23*%
X175937901Y-133350000D03*
D12*
X172937901Y-133100000D03*
X174937901Y-133100000D03*
X176937901Y-133100000D03*
X178937901Y-133100000D03*
D13*
X172937901Y-132100001D03*
D14*
X174937901Y-132100000D03*
D13*
X176937902Y-132100000D03*
D14*
X178937901Y-132100000D03*
%TD*%
D11*
%TO.C,P12*%
X175937900Y-90200000D03*
D12*
X172937900Y-89950000D03*
X174937900Y-89950000D03*
X176937900Y-89950000D03*
X178937900Y-89950000D03*
D13*
X172937900Y-88950001D03*
D14*
X174937900Y-88950000D03*
D13*
X176937901Y-88950000D03*
D14*
X178937900Y-88950000D03*
%TD*%
D15*
%TO.C,J5*%
X168338723Y-69500000D03*
D16*
X165798723Y-69500000D03*
X168338723Y-72040000D03*
X165798723Y-72040000D03*
X168338723Y-74579999D03*
X165798723Y-74580000D03*
X168338723Y-77120000D03*
X165798723Y-77120000D03*
X168338723Y-79660000D03*
X165798723Y-79660000D03*
X168338723Y-82200000D03*
X165798723Y-82200000D03*
X168338723Y-84740000D03*
X165798723Y-84740000D03*
X168338723Y-87280001D03*
X165798723Y-87280000D03*
X168338723Y-89820000D03*
X165798723Y-89820000D03*
X168338723Y-92360000D03*
X165798723Y-92360000D03*
X168338723Y-94900000D03*
X165798723Y-94900000D03*
X168338723Y-97439999D03*
X165798723Y-97440000D03*
X168338723Y-99980000D03*
X165798723Y-99980000D03*
X168338723Y-102520000D03*
X165798723Y-102520000D03*
X168338723Y-105060000D03*
X165798723Y-105060000D03*
X168338723Y-107599999D03*
X165798723Y-107600000D03*
X168338723Y-110140001D03*
X165798723Y-110140000D03*
X168338723Y-112680000D03*
X165798723Y-112680000D03*
X168338723Y-115220000D03*
X165798723Y-115220000D03*
X168338723Y-117760000D03*
X165798723Y-117760000D03*
X168338723Y-120299999D03*
X165798723Y-120300000D03*
X168338723Y-122840000D03*
X165798723Y-122840000D03*
X168338723Y-125380000D03*
X165798723Y-125380000D03*
X168338723Y-127920000D03*
X165798723Y-127920000D03*
X168338723Y-130459999D03*
X165798723Y-130460000D03*
X168338723Y-133000001D03*
X165798723Y-133000000D03*
X168338723Y-135540000D03*
X165798723Y-135540000D03*
X168338723Y-138080000D03*
X165798723Y-138080000D03*
X168338723Y-140620000D03*
X165798723Y-140620000D03*
X168338723Y-143160001D03*
X165798723Y-143160000D03*
%TD*%
D15*
%TO.C,J4*%
X150749723Y-57888589D03*
D16*
X150749723Y-60428589D03*
X150749723Y-62968589D03*
X150749723Y-65508589D03*
X150749723Y-68048589D03*
X150749723Y-70588589D03*
X150749723Y-73128589D03*
X150749723Y-75668589D03*
X150749723Y-78208589D03*
X150749723Y-80748589D03*
X150749723Y-83288589D03*
X150749723Y-85828589D03*
X150749723Y-88368589D03*
X150749723Y-90908589D03*
X150749723Y-93448589D03*
X150749723Y-95988589D03*
X150749723Y-98528589D03*
X150749723Y-101068589D03*
X150749723Y-103608589D03*
X150749723Y-106148589D03*
X150749723Y-108688589D03*
X150749723Y-111228589D03*
X150749723Y-113768589D03*
X150749723Y-116308589D03*
X150749723Y-118848589D03*
X150749723Y-121388589D03*
X150749723Y-123928589D03*
X150749723Y-126468589D03*
X150749723Y-129008589D03*
X150749723Y-131548589D03*
X150749723Y-134088589D03*
X150749723Y-136628589D03*
X150749723Y-139168589D03*
X150749723Y-141708589D03*
X150749723Y-144248589D03*
X150749723Y-146788589D03*
X150749723Y-149328589D03*
X150749723Y-151868589D03*
%TD*%
D11*
%TO.C,P16*%
X175937900Y-105850000D03*
D12*
X172937900Y-105600000D03*
X174937900Y-105600000D03*
X176937900Y-105600000D03*
X178937900Y-105600000D03*
D13*
X172937900Y-104600001D03*
D14*
X174937900Y-104600000D03*
D13*
X176937901Y-104600000D03*
D14*
X178937900Y-104600000D03*
%TD*%
D11*
%TO.C,P26*%
X175937900Y-145050000D03*
D12*
X172937900Y-144800000D03*
X174937900Y-144800000D03*
X176937900Y-144800000D03*
X178937900Y-144800000D03*
D13*
X172937900Y-143800001D03*
D14*
X174937900Y-143800000D03*
D13*
X176937901Y-143800000D03*
D14*
X178937900Y-143800000D03*
%TD*%
D11*
%TO.C,P19*%
X175937900Y-117650000D03*
D12*
X172937900Y-117400000D03*
X174937900Y-117400000D03*
X176937900Y-117400000D03*
X178937900Y-117400000D03*
D13*
X172937900Y-116400001D03*
D14*
X174937900Y-116400000D03*
D13*
X176937901Y-116400000D03*
D14*
X178937900Y-116400000D03*
%TD*%
D11*
%TO.C,P24*%
X175937900Y-137250000D03*
D12*
X172937900Y-137000000D03*
X174937900Y-137000000D03*
X176937900Y-137000000D03*
X178937900Y-137000000D03*
D13*
X172937900Y-136000001D03*
D14*
X174937900Y-136000000D03*
D13*
X176937901Y-136000000D03*
D14*
X178937900Y-136000000D03*
%TD*%
D15*
%TO.C,J3*%
X157289723Y-57888589D03*
D16*
X154749723Y-57888589D03*
X157289723Y-60428589D03*
X154749723Y-60428589D03*
X157289723Y-62968589D03*
X154749723Y-62968589D03*
X157289723Y-65508589D03*
X154749723Y-65508589D03*
X157289723Y-68048589D03*
X154749723Y-68048589D03*
X157289723Y-70588589D03*
X154749723Y-70588589D03*
X157289723Y-73128589D03*
X154749723Y-73128589D03*
X157289723Y-75668589D03*
X154749723Y-75668589D03*
X157289723Y-78208589D03*
X154749723Y-78208589D03*
X157289723Y-80748589D03*
X154749723Y-80748589D03*
X157289723Y-83288589D03*
X154749723Y-83288589D03*
X157289723Y-85828589D03*
X154749723Y-85828589D03*
X157289723Y-88368589D03*
X154749723Y-88368589D03*
X157289723Y-90908589D03*
X154749723Y-90908589D03*
X157289723Y-93448589D03*
X154749723Y-93448589D03*
X157289723Y-95988589D03*
X154749723Y-95988589D03*
X157289723Y-98528589D03*
X154749723Y-98528589D03*
X157289723Y-101068589D03*
X154749723Y-101068589D03*
X157289723Y-103608589D03*
X154749723Y-103608589D03*
X157289723Y-106148589D03*
X154749723Y-106148589D03*
X157289723Y-108688589D03*
X154749723Y-108688589D03*
X157289723Y-111228589D03*
X154749723Y-111228589D03*
X157289723Y-113768589D03*
X154749723Y-113768589D03*
X157289723Y-116308589D03*
X154749723Y-116308589D03*
X157289723Y-118848589D03*
X154749723Y-118848589D03*
X157289723Y-121388589D03*
X154749723Y-121388589D03*
X157289723Y-123928589D03*
X154749723Y-123928589D03*
X157289723Y-126468589D03*
X154749723Y-126468589D03*
X157289723Y-129008589D03*
X154749723Y-129008589D03*
X157289723Y-131548589D03*
X154749723Y-131548589D03*
X157289723Y-134088589D03*
X154749723Y-134088589D03*
X157289723Y-136628589D03*
X154749723Y-136628589D03*
X157289723Y-139168589D03*
X154749723Y-139168589D03*
X157289723Y-141708589D03*
X154749723Y-141708589D03*
X157289723Y-144248589D03*
X154749723Y-144248589D03*
X157289723Y-146788589D03*
X154749723Y-146788589D03*
X157289723Y-149328589D03*
X154749723Y-149328589D03*
X157289723Y-151868589D03*
X154749723Y-151868589D03*
%TD*%
D11*
%TO.C,P18*%
X175937901Y-113750000D03*
D12*
X172937901Y-113500000D03*
X174937901Y-113500000D03*
X176937901Y-113500000D03*
X178937901Y-113500000D03*
D13*
X172937901Y-112500001D03*
D14*
X174937901Y-112500000D03*
D13*
X176937902Y-112500000D03*
D14*
X178937901Y-112500000D03*
%TD*%
D11*
%TO.C,P2*%
X165637900Y-62135000D03*
D13*
X162637900Y-61085000D03*
D14*
X164637900Y-61084999D03*
D13*
X166637900Y-61085000D03*
D14*
X168637900Y-61085000D03*
%TD*%
D11*
%TO.C,P5*%
X175937900Y-62300001D03*
D12*
X172937900Y-62050001D03*
X174937900Y-62050001D03*
X176937900Y-62050001D03*
X178937900Y-62050001D03*
D13*
X172937900Y-61050002D03*
D14*
X174937900Y-61050001D03*
D13*
X176937901Y-61050001D03*
D14*
X178937900Y-61050001D03*
%TD*%
D11*
%TO.C,P4*%
X175937901Y-58300000D03*
D12*
X172937901Y-58050000D03*
X174937901Y-58050000D03*
X176937901Y-58050000D03*
X178937901Y-58050000D03*
D13*
X172937901Y-57050001D03*
D14*
X174937901Y-57050000D03*
D13*
X176937902Y-57050000D03*
D14*
X178937901Y-57050000D03*
%TD*%
D11*
%TO.C,P25*%
X175937900Y-141150000D03*
D12*
X172937900Y-140900000D03*
X174937900Y-140900000D03*
X176937900Y-140900000D03*
X178937900Y-140900000D03*
D13*
X172937900Y-139900001D03*
D14*
X174937900Y-139900000D03*
D13*
X176937901Y-139900000D03*
D14*
X178937900Y-139900000D03*
%TD*%
D11*
%TO.C,P17*%
X175937900Y-109850000D03*
D12*
X172937900Y-109600000D03*
X174937900Y-109600000D03*
X176937900Y-109600000D03*
X178937900Y-109600000D03*
D13*
X172937900Y-108600001D03*
D14*
X174937900Y-108600000D03*
D13*
X176937901Y-108600000D03*
D14*
X178937900Y-108600000D03*
%TD*%
D15*
%TO.C,J2*%
X163238723Y-69480001D03*
D16*
X163238723Y-72020001D03*
X163238723Y-74560000D03*
X163238723Y-77100001D03*
X163238723Y-79640001D03*
X163238723Y-82180001D03*
X163238723Y-84720001D03*
X163238723Y-87260002D03*
X163238723Y-89800001D03*
X163238723Y-92340001D03*
X163238723Y-94880001D03*
X163238723Y-97420000D03*
X163238723Y-99960001D03*
X163238723Y-102500001D03*
X163238723Y-105040001D03*
X163238723Y-107580000D03*
X163238723Y-110120002D03*
X163238723Y-112660001D03*
X163238723Y-115200001D03*
X163238723Y-117740001D03*
X163238723Y-120280000D03*
X163238723Y-122820001D03*
X163238723Y-125360001D03*
X163238723Y-127900001D03*
X163238723Y-130440000D03*
X163238723Y-132980002D03*
X163238723Y-135520001D03*
X163238723Y-138060001D03*
X163238723Y-140600001D03*
X163238723Y-143140002D03*
%TD*%
D11*
%TO.C,P20*%
X175937901Y-121550000D03*
D12*
X172937901Y-121300000D03*
X174937901Y-121300000D03*
X176937901Y-121300000D03*
X178937901Y-121300000D03*
D13*
X172937901Y-120300001D03*
D14*
X174937901Y-120300000D03*
D13*
X176937902Y-120300000D03*
D14*
X178937901Y-120300000D03*
%TD*%
D11*
%TO.C,P3*%
X165637900Y-58050000D03*
D13*
X162637900Y-57000000D03*
D14*
X164637900Y-56999999D03*
D13*
X166637900Y-57000000D03*
D14*
X168637900Y-57000000D03*
%TD*%
D11*
%TO.C,P29*%
X165637900Y-148750000D03*
D13*
X162637900Y-147700000D03*
D14*
X164637900Y-147699999D03*
D13*
X166637900Y-147700000D03*
D14*
X168637900Y-147700000D03*
%TD*%
D11*
%TO.C,P22*%
X175937900Y-129350000D03*
D12*
X172937900Y-129100000D03*
X174937900Y-129100000D03*
X176937900Y-129100000D03*
X178937900Y-129100000D03*
D13*
X172937900Y-128100001D03*
D14*
X174937900Y-128100000D03*
D13*
X176937901Y-128100000D03*
D14*
X178937900Y-128100000D03*
%TD*%
D11*
%TO.C,P9*%
X175937900Y-78300000D03*
D12*
X172937900Y-78050000D03*
X174937900Y-78050000D03*
X176937900Y-78050000D03*
X178937900Y-78050000D03*
D13*
X172937900Y-77050001D03*
D14*
X174937900Y-77050000D03*
D13*
X176937901Y-77050000D03*
D14*
X178937900Y-77050000D03*
%TD*%
D11*
%TO.C,P11*%
X175937900Y-86200001D03*
D12*
X172937900Y-85950001D03*
X174937900Y-85950001D03*
X176937900Y-85950001D03*
X178937900Y-85950001D03*
D13*
X172937900Y-84950002D03*
D14*
X174937900Y-84950001D03*
D13*
X176937901Y-84950001D03*
D14*
X178937900Y-84950001D03*
%TD*%
D11*
%TO.C,P15*%
X175937900Y-101950001D03*
D12*
X172937900Y-101700001D03*
X174937900Y-101700001D03*
X176937900Y-101700001D03*
X178937900Y-101700001D03*
D13*
X172937900Y-100700002D03*
D14*
X174937900Y-100700001D03*
D13*
X176937901Y-100700001D03*
D14*
X178937900Y-100700001D03*
%TD*%
D11*
%TO.C,P6*%
X175937900Y-66300000D03*
D12*
X172937900Y-66050000D03*
X174937900Y-66050000D03*
X176937900Y-66050000D03*
X178937900Y-66050000D03*
D13*
X172937900Y-65050001D03*
D14*
X174937900Y-65050000D03*
D13*
X176937901Y-65050000D03*
D14*
X178937900Y-65050000D03*
%TD*%
M02*
