%TF.GenerationSoftware,KiCad,Pcbnew,9.0.4*%
%TF.CreationDate,2025-12-18T23:17:51-05:00*%
%TF.ProjectId,Mess-Breakout+Perf,4d657373-2d42-4726-9561-6b6f75742b50,rev?*%
%TF.SameCoordinates,Original*%
%TF.FileFunction,Legend,Top*%
%TF.FilePolarity,Positive*%
%FSLAX46Y46*%
G04 Gerber Fmt 4.6, Leading zero omitted, Abs format (unit mm)*
G04 Created by KiCad (PCBNEW 9.0.4) date 2025-12-18 23:17:51*
%MOMM*%
%LPD*%
G01*
G04 APERTURE LIST*
%ADD10C,0.150000*%
%ADD11C,0.120000*%
G04 APERTURE END LIST*
D10*
X138692719Y-102114285D02*
X137692719Y-102114285D01*
X137692719Y-102114285D02*
X137692719Y-101733333D01*
X137692719Y-101733333D02*
X137740338Y-101638095D01*
X137740338Y-101638095D02*
X137787957Y-101590476D01*
X137787957Y-101590476D02*
X137883195Y-101542857D01*
X137883195Y-101542857D02*
X138026052Y-101542857D01*
X138026052Y-101542857D02*
X138121290Y-101590476D01*
X138121290Y-101590476D02*
X138168909Y-101638095D01*
X138168909Y-101638095D02*
X138216528Y-101733333D01*
X138216528Y-101733333D02*
X138216528Y-102114285D01*
X137692719Y-101209523D02*
X137692719Y-100542857D01*
X137692719Y-100542857D02*
X138692719Y-100971428D01*
X137692719Y-99685714D02*
X137692719Y-100161904D01*
X137692719Y-100161904D02*
X138168909Y-100209523D01*
X138168909Y-100209523D02*
X138121290Y-100161904D01*
X138121290Y-100161904D02*
X138073671Y-100066666D01*
X138073671Y-100066666D02*
X138073671Y-99828571D01*
X138073671Y-99828571D02*
X138121290Y-99733333D01*
X138121290Y-99733333D02*
X138168909Y-99685714D01*
X138168909Y-99685714D02*
X138264147Y-99638095D01*
X138264147Y-99638095D02*
X138502242Y-99638095D01*
X138502242Y-99638095D02*
X138597480Y-99685714D01*
X138597480Y-99685714D02*
X138645100Y-99733333D01*
X138645100Y-99733333D02*
X138692719Y-99828571D01*
X138692719Y-99828571D02*
X138692719Y-100066666D01*
X138692719Y-100066666D02*
X138645100Y-100161904D01*
X138645100Y-100161904D02*
X138597480Y-100209523D01*
X138692719Y-86364285D02*
X137692719Y-86364285D01*
X137692719Y-86364285D02*
X137692719Y-85983333D01*
X137692719Y-85983333D02*
X137740338Y-85888095D01*
X137740338Y-85888095D02*
X137787957Y-85840476D01*
X137787957Y-85840476D02*
X137883195Y-85792857D01*
X137883195Y-85792857D02*
X138026052Y-85792857D01*
X138026052Y-85792857D02*
X138121290Y-85840476D01*
X138121290Y-85840476D02*
X138168909Y-85888095D01*
X138168909Y-85888095D02*
X138216528Y-85983333D01*
X138216528Y-85983333D02*
X138216528Y-86364285D01*
X137692719Y-85459523D02*
X137692719Y-84792857D01*
X137692719Y-84792857D02*
X138692719Y-85221428D01*
X138692719Y-83888095D02*
X138692719Y-84459523D01*
X138692719Y-84173809D02*
X137692719Y-84173809D01*
X137692719Y-84173809D02*
X137835576Y-84269047D01*
X137835576Y-84269047D02*
X137930814Y-84364285D01*
X137930814Y-84364285D02*
X137978433Y-84459523D01*
X138692719Y-129514284D02*
X137692719Y-129514284D01*
X137692719Y-129514284D02*
X137692719Y-129133332D01*
X137692719Y-129133332D02*
X137740338Y-129038094D01*
X137740338Y-129038094D02*
X137787957Y-128990475D01*
X137787957Y-128990475D02*
X137883195Y-128942856D01*
X137883195Y-128942856D02*
X138026052Y-128942856D01*
X138026052Y-128942856D02*
X138121290Y-128990475D01*
X138121290Y-128990475D02*
X138168909Y-129038094D01*
X138168909Y-129038094D02*
X138216528Y-129133332D01*
X138216528Y-129133332D02*
X138216528Y-129514284D01*
X138121290Y-128371427D02*
X138073671Y-128466665D01*
X138073671Y-128466665D02*
X138026052Y-128514284D01*
X138026052Y-128514284D02*
X137930814Y-128561903D01*
X137930814Y-128561903D02*
X137883195Y-128561903D01*
X137883195Y-128561903D02*
X137787957Y-128514284D01*
X137787957Y-128514284D02*
X137740338Y-128466665D01*
X137740338Y-128466665D02*
X137692719Y-128371427D01*
X137692719Y-128371427D02*
X137692719Y-128180951D01*
X137692719Y-128180951D02*
X137740338Y-128085713D01*
X137740338Y-128085713D02*
X137787957Y-128038094D01*
X137787957Y-128038094D02*
X137883195Y-127990475D01*
X137883195Y-127990475D02*
X137930814Y-127990475D01*
X137930814Y-127990475D02*
X138026052Y-128038094D01*
X138026052Y-128038094D02*
X138073671Y-128085713D01*
X138073671Y-128085713D02*
X138121290Y-128180951D01*
X138121290Y-128180951D02*
X138121290Y-128371427D01*
X138121290Y-128371427D02*
X138168909Y-128466665D01*
X138168909Y-128466665D02*
X138216528Y-128514284D01*
X138216528Y-128514284D02*
X138311766Y-128561903D01*
X138311766Y-128561903D02*
X138502242Y-128561903D01*
X138502242Y-128561903D02*
X138597480Y-128514284D01*
X138597480Y-128514284D02*
X138645100Y-128466665D01*
X138645100Y-128466665D02*
X138692719Y-128371427D01*
X138692719Y-128371427D02*
X138692719Y-128180951D01*
X138692719Y-128180951D02*
X138645100Y-128085713D01*
X138645100Y-128085713D02*
X138597480Y-128038094D01*
X138597480Y-128038094D02*
X138502242Y-127990475D01*
X138502242Y-127990475D02*
X138311766Y-127990475D01*
X138311766Y-127990475D02*
X138216528Y-128038094D01*
X138216528Y-128038094D02*
X138168909Y-128085713D01*
X138168909Y-128085713D02*
X138121290Y-128180951D01*
X137787957Y-127609522D02*
X137740338Y-127561903D01*
X137740338Y-127561903D02*
X137692719Y-127466665D01*
X137692719Y-127466665D02*
X137692719Y-127228570D01*
X137692719Y-127228570D02*
X137740338Y-127133332D01*
X137740338Y-127133332D02*
X137787957Y-127085713D01*
X137787957Y-127085713D02*
X137883195Y-127038094D01*
X137883195Y-127038094D02*
X137978433Y-127038094D01*
X137978433Y-127038094D02*
X138121290Y-127085713D01*
X138121290Y-127085713D02*
X138692719Y-127657141D01*
X138692719Y-127657141D02*
X138692719Y-127038094D01*
X131448614Y-59454818D02*
X131448614Y-58454818D01*
X131448614Y-58454818D02*
X131829566Y-58454818D01*
X131829566Y-58454818D02*
X131924804Y-58502437D01*
X131924804Y-58502437D02*
X131972423Y-58550056D01*
X131972423Y-58550056D02*
X132020042Y-58645294D01*
X132020042Y-58645294D02*
X132020042Y-58788151D01*
X132020042Y-58788151D02*
X131972423Y-58883389D01*
X131972423Y-58883389D02*
X131924804Y-58931008D01*
X131924804Y-58931008D02*
X131829566Y-58978627D01*
X131829566Y-58978627D02*
X131448614Y-58978627D01*
X132877185Y-58454818D02*
X132686709Y-58454818D01*
X132686709Y-58454818D02*
X132591471Y-58502437D01*
X132591471Y-58502437D02*
X132543852Y-58550056D01*
X132543852Y-58550056D02*
X132448614Y-58692913D01*
X132448614Y-58692913D02*
X132400995Y-58883389D01*
X132400995Y-58883389D02*
X132400995Y-59264341D01*
X132400995Y-59264341D02*
X132448614Y-59359579D01*
X132448614Y-59359579D02*
X132496233Y-59407199D01*
X132496233Y-59407199D02*
X132591471Y-59454818D01*
X132591471Y-59454818D02*
X132781947Y-59454818D01*
X132781947Y-59454818D02*
X132877185Y-59407199D01*
X132877185Y-59407199D02*
X132924804Y-59359579D01*
X132924804Y-59359579D02*
X132972423Y-59264341D01*
X132972423Y-59264341D02*
X132972423Y-59026246D01*
X132972423Y-59026246D02*
X132924804Y-58931008D01*
X132924804Y-58931008D02*
X132877185Y-58883389D01*
X132877185Y-58883389D02*
X132781947Y-58835770D01*
X132781947Y-58835770D02*
X132591471Y-58835770D01*
X132591471Y-58835770D02*
X132496233Y-58883389D01*
X132496233Y-58883389D02*
X132448614Y-58931008D01*
X132448614Y-58931008D02*
X132400995Y-59026246D01*
X133305757Y-58454818D02*
X133924804Y-58454818D01*
X133924804Y-58454818D02*
X133591471Y-58835770D01*
X133591471Y-58835770D02*
X133734328Y-58835770D01*
X133734328Y-58835770D02*
X133829566Y-58883389D01*
X133829566Y-58883389D02*
X133877185Y-58931008D01*
X133877185Y-58931008D02*
X133924804Y-59026246D01*
X133924804Y-59026246D02*
X133924804Y-59264341D01*
X133924804Y-59264341D02*
X133877185Y-59359579D01*
X133877185Y-59359579D02*
X133829566Y-59407199D01*
X133829566Y-59407199D02*
X133734328Y-59454818D01*
X133734328Y-59454818D02*
X133448614Y-59454818D01*
X133448614Y-59454818D02*
X133353376Y-59407199D01*
X133353376Y-59407199D02*
X133305757Y-59359579D01*
X138692720Y-121714284D02*
X137692720Y-121714284D01*
X137692720Y-121714284D02*
X137692720Y-121333332D01*
X137692720Y-121333332D02*
X137740339Y-121238094D01*
X137740339Y-121238094D02*
X137787958Y-121190475D01*
X137787958Y-121190475D02*
X137883196Y-121142856D01*
X137883196Y-121142856D02*
X138026053Y-121142856D01*
X138026053Y-121142856D02*
X138121291Y-121190475D01*
X138121291Y-121190475D02*
X138168910Y-121238094D01*
X138168910Y-121238094D02*
X138216529Y-121333332D01*
X138216529Y-121333332D02*
X138216529Y-121714284D01*
X138121291Y-120571427D02*
X138073672Y-120666665D01*
X138073672Y-120666665D02*
X138026053Y-120714284D01*
X138026053Y-120714284D02*
X137930815Y-120761903D01*
X137930815Y-120761903D02*
X137883196Y-120761903D01*
X137883196Y-120761903D02*
X137787958Y-120714284D01*
X137787958Y-120714284D02*
X137740339Y-120666665D01*
X137740339Y-120666665D02*
X137692720Y-120571427D01*
X137692720Y-120571427D02*
X137692720Y-120380951D01*
X137692720Y-120380951D02*
X137740339Y-120285713D01*
X137740339Y-120285713D02*
X137787958Y-120238094D01*
X137787958Y-120238094D02*
X137883196Y-120190475D01*
X137883196Y-120190475D02*
X137930815Y-120190475D01*
X137930815Y-120190475D02*
X138026053Y-120238094D01*
X138026053Y-120238094D02*
X138073672Y-120285713D01*
X138073672Y-120285713D02*
X138121291Y-120380951D01*
X138121291Y-120380951D02*
X138121291Y-120571427D01*
X138121291Y-120571427D02*
X138168910Y-120666665D01*
X138168910Y-120666665D02*
X138216529Y-120714284D01*
X138216529Y-120714284D02*
X138311767Y-120761903D01*
X138311767Y-120761903D02*
X138502243Y-120761903D01*
X138502243Y-120761903D02*
X138597481Y-120714284D01*
X138597481Y-120714284D02*
X138645101Y-120666665D01*
X138645101Y-120666665D02*
X138692720Y-120571427D01*
X138692720Y-120571427D02*
X138692720Y-120380951D01*
X138692720Y-120380951D02*
X138645101Y-120285713D01*
X138645101Y-120285713D02*
X138597481Y-120238094D01*
X138597481Y-120238094D02*
X138502243Y-120190475D01*
X138502243Y-120190475D02*
X138311767Y-120190475D01*
X138311767Y-120190475D02*
X138216529Y-120238094D01*
X138216529Y-120238094D02*
X138168910Y-120285713D01*
X138168910Y-120285713D02*
X138121291Y-120380951D01*
X137692720Y-119571427D02*
X137692720Y-119476189D01*
X137692720Y-119476189D02*
X137740339Y-119380951D01*
X137740339Y-119380951D02*
X137787958Y-119333332D01*
X137787958Y-119333332D02*
X137883196Y-119285713D01*
X137883196Y-119285713D02*
X138073672Y-119238094D01*
X138073672Y-119238094D02*
X138311767Y-119238094D01*
X138311767Y-119238094D02*
X138502243Y-119285713D01*
X138502243Y-119285713D02*
X138597481Y-119333332D01*
X138597481Y-119333332D02*
X138645101Y-119380951D01*
X138645101Y-119380951D02*
X138692720Y-119476189D01*
X138692720Y-119476189D02*
X138692720Y-119571427D01*
X138692720Y-119571427D02*
X138645101Y-119666665D01*
X138645101Y-119666665D02*
X138597481Y-119714284D01*
X138597481Y-119714284D02*
X138502243Y-119761903D01*
X138502243Y-119761903D02*
X138311767Y-119809522D01*
X138311767Y-119809522D02*
X138073672Y-119809522D01*
X138073672Y-119809522D02*
X137883196Y-119761903D01*
X137883196Y-119761903D02*
X137787958Y-119714284D01*
X137787958Y-119714284D02*
X137740339Y-119666665D01*
X137740339Y-119666665D02*
X137692720Y-119571427D01*
X138692720Y-58464284D02*
X137692720Y-58464284D01*
X137692720Y-58464284D02*
X137692720Y-58083332D01*
X137692720Y-58083332D02*
X137740339Y-57988094D01*
X137740339Y-57988094D02*
X137787958Y-57940475D01*
X137787958Y-57940475D02*
X137883196Y-57892856D01*
X137883196Y-57892856D02*
X138026053Y-57892856D01*
X138026053Y-57892856D02*
X138121291Y-57940475D01*
X138121291Y-57940475D02*
X138168910Y-57988094D01*
X138168910Y-57988094D02*
X138216529Y-58083332D01*
X138216529Y-58083332D02*
X138216529Y-58464284D01*
X137692720Y-57035713D02*
X137692720Y-57226189D01*
X137692720Y-57226189D02*
X137740339Y-57321427D01*
X137740339Y-57321427D02*
X137787958Y-57369046D01*
X137787958Y-57369046D02*
X137930815Y-57464284D01*
X137930815Y-57464284D02*
X138121291Y-57511903D01*
X138121291Y-57511903D02*
X138502243Y-57511903D01*
X138502243Y-57511903D02*
X138597481Y-57464284D01*
X138597481Y-57464284D02*
X138645101Y-57416665D01*
X138645101Y-57416665D02*
X138692720Y-57321427D01*
X138692720Y-57321427D02*
X138692720Y-57130951D01*
X138692720Y-57130951D02*
X138645101Y-57035713D01*
X138645101Y-57035713D02*
X138597481Y-56988094D01*
X138597481Y-56988094D02*
X138502243Y-56940475D01*
X138502243Y-56940475D02*
X138264148Y-56940475D01*
X138264148Y-56940475D02*
X138168910Y-56988094D01*
X138168910Y-56988094D02*
X138121291Y-57035713D01*
X138121291Y-57035713D02*
X138073672Y-57130951D01*
X138073672Y-57130951D02*
X138073672Y-57321427D01*
X138073672Y-57321427D02*
X138121291Y-57416665D01*
X138121291Y-57416665D02*
X138168910Y-57464284D01*
X138168910Y-57464284D02*
X138264148Y-57511903D01*
X138026053Y-56083332D02*
X138692720Y-56083332D01*
X137645101Y-56321427D02*
X138359386Y-56559522D01*
X138359386Y-56559522D02*
X138359386Y-55940475D01*
X138692719Y-110014284D02*
X137692719Y-110014284D01*
X137692719Y-110014284D02*
X137692719Y-109633332D01*
X137692719Y-109633332D02*
X137740338Y-109538094D01*
X137740338Y-109538094D02*
X137787957Y-109490475D01*
X137787957Y-109490475D02*
X137883195Y-109442856D01*
X137883195Y-109442856D02*
X138026052Y-109442856D01*
X138026052Y-109442856D02*
X138121290Y-109490475D01*
X138121290Y-109490475D02*
X138168909Y-109538094D01*
X138168909Y-109538094D02*
X138216528Y-109633332D01*
X138216528Y-109633332D02*
X138216528Y-110014284D01*
X137692719Y-109109522D02*
X137692719Y-108442856D01*
X137692719Y-108442856D02*
X138692719Y-108871427D01*
X137692719Y-108157141D02*
X137692719Y-107490475D01*
X137692719Y-107490475D02*
X138692719Y-107919046D01*
X138692719Y-141314284D02*
X137692719Y-141314284D01*
X137692719Y-141314284D02*
X137692719Y-140933332D01*
X137692719Y-140933332D02*
X137740338Y-140838094D01*
X137740338Y-140838094D02*
X137787957Y-140790475D01*
X137787957Y-140790475D02*
X137883195Y-140742856D01*
X137883195Y-140742856D02*
X138026052Y-140742856D01*
X138026052Y-140742856D02*
X138121290Y-140790475D01*
X138121290Y-140790475D02*
X138168909Y-140838094D01*
X138168909Y-140838094D02*
X138216528Y-140933332D01*
X138216528Y-140933332D02*
X138216528Y-141314284D01*
X138121290Y-140171427D02*
X138073671Y-140266665D01*
X138073671Y-140266665D02*
X138026052Y-140314284D01*
X138026052Y-140314284D02*
X137930814Y-140361903D01*
X137930814Y-140361903D02*
X137883195Y-140361903D01*
X137883195Y-140361903D02*
X137787957Y-140314284D01*
X137787957Y-140314284D02*
X137740338Y-140266665D01*
X137740338Y-140266665D02*
X137692719Y-140171427D01*
X137692719Y-140171427D02*
X137692719Y-139980951D01*
X137692719Y-139980951D02*
X137740338Y-139885713D01*
X137740338Y-139885713D02*
X137787957Y-139838094D01*
X137787957Y-139838094D02*
X137883195Y-139790475D01*
X137883195Y-139790475D02*
X137930814Y-139790475D01*
X137930814Y-139790475D02*
X138026052Y-139838094D01*
X138026052Y-139838094D02*
X138073671Y-139885713D01*
X138073671Y-139885713D02*
X138121290Y-139980951D01*
X138121290Y-139980951D02*
X138121290Y-140171427D01*
X138121290Y-140171427D02*
X138168909Y-140266665D01*
X138168909Y-140266665D02*
X138216528Y-140314284D01*
X138216528Y-140314284D02*
X138311766Y-140361903D01*
X138311766Y-140361903D02*
X138502242Y-140361903D01*
X138502242Y-140361903D02*
X138597480Y-140314284D01*
X138597480Y-140314284D02*
X138645100Y-140266665D01*
X138645100Y-140266665D02*
X138692719Y-140171427D01*
X138692719Y-140171427D02*
X138692719Y-139980951D01*
X138692719Y-139980951D02*
X138645100Y-139885713D01*
X138645100Y-139885713D02*
X138597480Y-139838094D01*
X138597480Y-139838094D02*
X138502242Y-139790475D01*
X138502242Y-139790475D02*
X138311766Y-139790475D01*
X138311766Y-139790475D02*
X138216528Y-139838094D01*
X138216528Y-139838094D02*
X138168909Y-139885713D01*
X138168909Y-139885713D02*
X138121290Y-139980951D01*
X137692719Y-138885713D02*
X137692719Y-139361903D01*
X137692719Y-139361903D02*
X138168909Y-139409522D01*
X138168909Y-139409522D02*
X138121290Y-139361903D01*
X138121290Y-139361903D02*
X138073671Y-139266665D01*
X138073671Y-139266665D02*
X138073671Y-139028570D01*
X138073671Y-139028570D02*
X138121290Y-138933332D01*
X138121290Y-138933332D02*
X138168909Y-138885713D01*
X138168909Y-138885713D02*
X138264147Y-138838094D01*
X138264147Y-138838094D02*
X138502242Y-138838094D01*
X138502242Y-138838094D02*
X138597480Y-138885713D01*
X138597480Y-138885713D02*
X138645100Y-138933332D01*
X138645100Y-138933332D02*
X138692719Y-139028570D01*
X138692719Y-139028570D02*
X138692719Y-139266665D01*
X138692719Y-139266665D02*
X138645100Y-139361903D01*
X138645100Y-139361903D02*
X138597480Y-139409522D01*
X138692720Y-113914284D02*
X137692720Y-113914284D01*
X137692720Y-113914284D02*
X137692720Y-113533332D01*
X137692720Y-113533332D02*
X137740339Y-113438094D01*
X137740339Y-113438094D02*
X137787958Y-113390475D01*
X137787958Y-113390475D02*
X137883196Y-113342856D01*
X137883196Y-113342856D02*
X138026053Y-113342856D01*
X138026053Y-113342856D02*
X138121291Y-113390475D01*
X138121291Y-113390475D02*
X138168910Y-113438094D01*
X138168910Y-113438094D02*
X138216529Y-113533332D01*
X138216529Y-113533332D02*
X138216529Y-113914284D01*
X137692720Y-113009522D02*
X137692720Y-112342856D01*
X137692720Y-112342856D02*
X138692720Y-112771427D01*
X138121291Y-111819046D02*
X138073672Y-111914284D01*
X138073672Y-111914284D02*
X138026053Y-111961903D01*
X138026053Y-111961903D02*
X137930815Y-112009522D01*
X137930815Y-112009522D02*
X137883196Y-112009522D01*
X137883196Y-112009522D02*
X137787958Y-111961903D01*
X137787958Y-111961903D02*
X137740339Y-111914284D01*
X137740339Y-111914284D02*
X137692720Y-111819046D01*
X137692720Y-111819046D02*
X137692720Y-111628570D01*
X137692720Y-111628570D02*
X137740339Y-111533332D01*
X137740339Y-111533332D02*
X137787958Y-111485713D01*
X137787958Y-111485713D02*
X137883196Y-111438094D01*
X137883196Y-111438094D02*
X137930815Y-111438094D01*
X137930815Y-111438094D02*
X138026053Y-111485713D01*
X138026053Y-111485713D02*
X138073672Y-111533332D01*
X138073672Y-111533332D02*
X138121291Y-111628570D01*
X138121291Y-111628570D02*
X138121291Y-111819046D01*
X138121291Y-111819046D02*
X138168910Y-111914284D01*
X138168910Y-111914284D02*
X138216529Y-111961903D01*
X138216529Y-111961903D02*
X138311767Y-112009522D01*
X138311767Y-112009522D02*
X138502243Y-112009522D01*
X138502243Y-112009522D02*
X138597481Y-111961903D01*
X138597481Y-111961903D02*
X138645101Y-111914284D01*
X138645101Y-111914284D02*
X138692720Y-111819046D01*
X138692720Y-111819046D02*
X138692720Y-111628570D01*
X138692720Y-111628570D02*
X138645101Y-111533332D01*
X138645101Y-111533332D02*
X138597481Y-111485713D01*
X138597481Y-111485713D02*
X138502243Y-111438094D01*
X138502243Y-111438094D02*
X138311767Y-111438094D01*
X138311767Y-111438094D02*
X138216529Y-111485713D01*
X138216529Y-111485713D02*
X138168910Y-111533332D01*
X138168910Y-111533332D02*
X138121291Y-111628570D01*
X138692719Y-106014284D02*
X137692719Y-106014284D01*
X137692719Y-106014284D02*
X137692719Y-105633332D01*
X137692719Y-105633332D02*
X137740338Y-105538094D01*
X137740338Y-105538094D02*
X137787957Y-105490475D01*
X137787957Y-105490475D02*
X137883195Y-105442856D01*
X137883195Y-105442856D02*
X138026052Y-105442856D01*
X138026052Y-105442856D02*
X138121290Y-105490475D01*
X138121290Y-105490475D02*
X138168909Y-105538094D01*
X138168909Y-105538094D02*
X138216528Y-105633332D01*
X138216528Y-105633332D02*
X138216528Y-106014284D01*
X137692719Y-105109522D02*
X137692719Y-104442856D01*
X137692719Y-104442856D02*
X138692719Y-104871427D01*
X137692719Y-103633332D02*
X137692719Y-103823808D01*
X137692719Y-103823808D02*
X137740338Y-103919046D01*
X137740338Y-103919046D02*
X137787957Y-103966665D01*
X137787957Y-103966665D02*
X137930814Y-104061903D01*
X137930814Y-104061903D02*
X138121290Y-104109522D01*
X138121290Y-104109522D02*
X138502242Y-104109522D01*
X138502242Y-104109522D02*
X138597480Y-104061903D01*
X138597480Y-104061903D02*
X138645100Y-104014284D01*
X138645100Y-104014284D02*
X138692719Y-103919046D01*
X138692719Y-103919046D02*
X138692719Y-103728570D01*
X138692719Y-103728570D02*
X138645100Y-103633332D01*
X138645100Y-103633332D02*
X138597480Y-103585713D01*
X138597480Y-103585713D02*
X138502242Y-103538094D01*
X138502242Y-103538094D02*
X138264147Y-103538094D01*
X138264147Y-103538094D02*
X138168909Y-103585713D01*
X138168909Y-103585713D02*
X138121290Y-103633332D01*
X138121290Y-103633332D02*
X138073671Y-103728570D01*
X138073671Y-103728570D02*
X138073671Y-103919046D01*
X138073671Y-103919046D02*
X138121290Y-104014284D01*
X138121290Y-104014284D02*
X138168909Y-104061903D01*
X138168909Y-104061903D02*
X138264147Y-104109522D01*
X138692719Y-117814284D02*
X137692719Y-117814284D01*
X137692719Y-117814284D02*
X137692719Y-117433332D01*
X137692719Y-117433332D02*
X137740338Y-117338094D01*
X137740338Y-117338094D02*
X137787957Y-117290475D01*
X137787957Y-117290475D02*
X137883195Y-117242856D01*
X137883195Y-117242856D02*
X138026052Y-117242856D01*
X138026052Y-117242856D02*
X138121290Y-117290475D01*
X138121290Y-117290475D02*
X138168909Y-117338094D01*
X138168909Y-117338094D02*
X138216528Y-117433332D01*
X138216528Y-117433332D02*
X138216528Y-117814284D01*
X137692719Y-116909522D02*
X137692719Y-116242856D01*
X137692719Y-116242856D02*
X138692719Y-116671427D01*
X138692719Y-115814284D02*
X138692719Y-115623808D01*
X138692719Y-115623808D02*
X138645100Y-115528570D01*
X138645100Y-115528570D02*
X138597480Y-115480951D01*
X138597480Y-115480951D02*
X138454623Y-115385713D01*
X138454623Y-115385713D02*
X138264147Y-115338094D01*
X138264147Y-115338094D02*
X137883195Y-115338094D01*
X137883195Y-115338094D02*
X137787957Y-115385713D01*
X137787957Y-115385713D02*
X137740338Y-115433332D01*
X137740338Y-115433332D02*
X137692719Y-115528570D01*
X137692719Y-115528570D02*
X137692719Y-115719046D01*
X137692719Y-115719046D02*
X137740338Y-115814284D01*
X137740338Y-115814284D02*
X137787957Y-115861903D01*
X137787957Y-115861903D02*
X137883195Y-115909522D01*
X137883195Y-115909522D02*
X138121290Y-115909522D01*
X138121290Y-115909522D02*
X138216528Y-115861903D01*
X138216528Y-115861903D02*
X138264147Y-115814284D01*
X138264147Y-115814284D02*
X138311766Y-115719046D01*
X138311766Y-115719046D02*
X138311766Y-115528570D01*
X138311766Y-115528570D02*
X138264147Y-115433332D01*
X138264147Y-115433332D02*
X138216528Y-115385713D01*
X138216528Y-115385713D02*
X138121290Y-115338094D01*
X116940199Y-54573408D02*
X116940199Y-55287693D01*
X116940199Y-55287693D02*
X116892580Y-55430550D01*
X116892580Y-55430550D02*
X116797342Y-55525789D01*
X116797342Y-55525789D02*
X116654485Y-55573408D01*
X116654485Y-55573408D02*
X116559247Y-55573408D01*
X117940199Y-55573408D02*
X117368771Y-55573408D01*
X117654485Y-55573408D02*
X117654485Y-54573408D01*
X117654485Y-54573408D02*
X117559247Y-54716265D01*
X117559247Y-54716265D02*
X117464009Y-54811503D01*
X117464009Y-54811503D02*
X117368771Y-54859122D01*
X118321152Y-54668646D02*
X118368771Y-54621027D01*
X118368771Y-54621027D02*
X118464009Y-54573408D01*
X118464009Y-54573408D02*
X118702104Y-54573408D01*
X118702104Y-54573408D02*
X118797342Y-54621027D01*
X118797342Y-54621027D02*
X118844961Y-54668646D01*
X118844961Y-54668646D02*
X118892580Y-54763884D01*
X118892580Y-54763884D02*
X118892580Y-54859122D01*
X118892580Y-54859122D02*
X118844961Y-55001979D01*
X118844961Y-55001979D02*
X118273533Y-55573408D01*
X118273533Y-55573408D02*
X118892580Y-55573408D01*
X138692720Y-133514284D02*
X137692720Y-133514284D01*
X137692720Y-133514284D02*
X137692720Y-133133332D01*
X137692720Y-133133332D02*
X137740339Y-133038094D01*
X137740339Y-133038094D02*
X137787958Y-132990475D01*
X137787958Y-132990475D02*
X137883196Y-132942856D01*
X137883196Y-132942856D02*
X138026053Y-132942856D01*
X138026053Y-132942856D02*
X138121291Y-132990475D01*
X138121291Y-132990475D02*
X138168910Y-133038094D01*
X138168910Y-133038094D02*
X138216529Y-133133332D01*
X138216529Y-133133332D02*
X138216529Y-133514284D01*
X138121291Y-132371427D02*
X138073672Y-132466665D01*
X138073672Y-132466665D02*
X138026053Y-132514284D01*
X138026053Y-132514284D02*
X137930815Y-132561903D01*
X137930815Y-132561903D02*
X137883196Y-132561903D01*
X137883196Y-132561903D02*
X137787958Y-132514284D01*
X137787958Y-132514284D02*
X137740339Y-132466665D01*
X137740339Y-132466665D02*
X137692720Y-132371427D01*
X137692720Y-132371427D02*
X137692720Y-132180951D01*
X137692720Y-132180951D02*
X137740339Y-132085713D01*
X137740339Y-132085713D02*
X137787958Y-132038094D01*
X137787958Y-132038094D02*
X137883196Y-131990475D01*
X137883196Y-131990475D02*
X137930815Y-131990475D01*
X137930815Y-131990475D02*
X138026053Y-132038094D01*
X138026053Y-132038094D02*
X138073672Y-132085713D01*
X138073672Y-132085713D02*
X138121291Y-132180951D01*
X138121291Y-132180951D02*
X138121291Y-132371427D01*
X138121291Y-132371427D02*
X138168910Y-132466665D01*
X138168910Y-132466665D02*
X138216529Y-132514284D01*
X138216529Y-132514284D02*
X138311767Y-132561903D01*
X138311767Y-132561903D02*
X138502243Y-132561903D01*
X138502243Y-132561903D02*
X138597481Y-132514284D01*
X138597481Y-132514284D02*
X138645101Y-132466665D01*
X138645101Y-132466665D02*
X138692720Y-132371427D01*
X138692720Y-132371427D02*
X138692720Y-132180951D01*
X138692720Y-132180951D02*
X138645101Y-132085713D01*
X138645101Y-132085713D02*
X138597481Y-132038094D01*
X138597481Y-132038094D02*
X138502243Y-131990475D01*
X138502243Y-131990475D02*
X138311767Y-131990475D01*
X138311767Y-131990475D02*
X138216529Y-132038094D01*
X138216529Y-132038094D02*
X138168910Y-132085713D01*
X138168910Y-132085713D02*
X138121291Y-132180951D01*
X137692720Y-131657141D02*
X137692720Y-131038094D01*
X137692720Y-131038094D02*
X138073672Y-131371427D01*
X138073672Y-131371427D02*
X138073672Y-131228570D01*
X138073672Y-131228570D02*
X138121291Y-131133332D01*
X138121291Y-131133332D02*
X138168910Y-131085713D01*
X138168910Y-131085713D02*
X138264148Y-131038094D01*
X138264148Y-131038094D02*
X138502243Y-131038094D01*
X138502243Y-131038094D02*
X138597481Y-131085713D01*
X138597481Y-131085713D02*
X138645101Y-131133332D01*
X138645101Y-131133332D02*
X138692720Y-131228570D01*
X138692720Y-131228570D02*
X138692720Y-131514284D01*
X138692720Y-131514284D02*
X138645101Y-131609522D01*
X138645101Y-131609522D02*
X138597481Y-131657141D01*
X138692719Y-82464284D02*
X137692719Y-82464284D01*
X137692719Y-82464284D02*
X137692719Y-82083332D01*
X137692719Y-82083332D02*
X137740338Y-81988094D01*
X137740338Y-81988094D02*
X137787957Y-81940475D01*
X137787957Y-81940475D02*
X137883195Y-81892856D01*
X137883195Y-81892856D02*
X138026052Y-81892856D01*
X138026052Y-81892856D02*
X138121290Y-81940475D01*
X138121290Y-81940475D02*
X138168909Y-81988094D01*
X138168909Y-81988094D02*
X138216528Y-82083332D01*
X138216528Y-82083332D02*
X138216528Y-82464284D01*
X137692719Y-81559522D02*
X137692719Y-80892856D01*
X137692719Y-80892856D02*
X138692719Y-81321427D01*
X137692719Y-80321427D02*
X137692719Y-80226189D01*
X137692719Y-80226189D02*
X137740338Y-80130951D01*
X137740338Y-80130951D02*
X137787957Y-80083332D01*
X137787957Y-80083332D02*
X137883195Y-80035713D01*
X137883195Y-80035713D02*
X138073671Y-79988094D01*
X138073671Y-79988094D02*
X138311766Y-79988094D01*
X138311766Y-79988094D02*
X138502242Y-80035713D01*
X138502242Y-80035713D02*
X138597480Y-80083332D01*
X138597480Y-80083332D02*
X138645100Y-80130951D01*
X138645100Y-80130951D02*
X138692719Y-80226189D01*
X138692719Y-80226189D02*
X138692719Y-80321427D01*
X138692719Y-80321427D02*
X138645100Y-80416665D01*
X138645100Y-80416665D02*
X138597480Y-80464284D01*
X138597480Y-80464284D02*
X138502242Y-80511903D01*
X138502242Y-80511903D02*
X138311766Y-80559522D01*
X138311766Y-80559522D02*
X138073671Y-80559522D01*
X138073671Y-80559522D02*
X137883195Y-80511903D01*
X137883195Y-80511903D02*
X137787957Y-80464284D01*
X137787957Y-80464284D02*
X137740338Y-80416665D01*
X137740338Y-80416665D02*
X137692719Y-80321427D01*
X138692719Y-125614284D02*
X137692719Y-125614284D01*
X137692719Y-125614284D02*
X137692719Y-125233332D01*
X137692719Y-125233332D02*
X137740338Y-125138094D01*
X137740338Y-125138094D02*
X137787957Y-125090475D01*
X137787957Y-125090475D02*
X137883195Y-125042856D01*
X137883195Y-125042856D02*
X138026052Y-125042856D01*
X138026052Y-125042856D02*
X138121290Y-125090475D01*
X138121290Y-125090475D02*
X138168909Y-125138094D01*
X138168909Y-125138094D02*
X138216528Y-125233332D01*
X138216528Y-125233332D02*
X138216528Y-125614284D01*
X138121290Y-124471427D02*
X138073671Y-124566665D01*
X138073671Y-124566665D02*
X138026052Y-124614284D01*
X138026052Y-124614284D02*
X137930814Y-124661903D01*
X137930814Y-124661903D02*
X137883195Y-124661903D01*
X137883195Y-124661903D02*
X137787957Y-124614284D01*
X137787957Y-124614284D02*
X137740338Y-124566665D01*
X137740338Y-124566665D02*
X137692719Y-124471427D01*
X137692719Y-124471427D02*
X137692719Y-124280951D01*
X137692719Y-124280951D02*
X137740338Y-124185713D01*
X137740338Y-124185713D02*
X137787957Y-124138094D01*
X137787957Y-124138094D02*
X137883195Y-124090475D01*
X137883195Y-124090475D02*
X137930814Y-124090475D01*
X137930814Y-124090475D02*
X138026052Y-124138094D01*
X138026052Y-124138094D02*
X138073671Y-124185713D01*
X138073671Y-124185713D02*
X138121290Y-124280951D01*
X138121290Y-124280951D02*
X138121290Y-124471427D01*
X138121290Y-124471427D02*
X138168909Y-124566665D01*
X138168909Y-124566665D02*
X138216528Y-124614284D01*
X138216528Y-124614284D02*
X138311766Y-124661903D01*
X138311766Y-124661903D02*
X138502242Y-124661903D01*
X138502242Y-124661903D02*
X138597480Y-124614284D01*
X138597480Y-124614284D02*
X138645100Y-124566665D01*
X138645100Y-124566665D02*
X138692719Y-124471427D01*
X138692719Y-124471427D02*
X138692719Y-124280951D01*
X138692719Y-124280951D02*
X138645100Y-124185713D01*
X138645100Y-124185713D02*
X138597480Y-124138094D01*
X138597480Y-124138094D02*
X138502242Y-124090475D01*
X138502242Y-124090475D02*
X138311766Y-124090475D01*
X138311766Y-124090475D02*
X138216528Y-124138094D01*
X138216528Y-124138094D02*
X138168909Y-124185713D01*
X138168909Y-124185713D02*
X138121290Y-124280951D01*
X138692719Y-123138094D02*
X138692719Y-123709522D01*
X138692719Y-123423808D02*
X137692719Y-123423808D01*
X137692719Y-123423808D02*
X137835576Y-123519046D01*
X137835576Y-123519046D02*
X137930814Y-123614284D01*
X137930814Y-123614284D02*
X137978433Y-123709522D01*
X138692719Y-70464284D02*
X137692719Y-70464284D01*
X137692719Y-70464284D02*
X137692719Y-70083332D01*
X137692719Y-70083332D02*
X137740338Y-69988094D01*
X137740338Y-69988094D02*
X137787957Y-69940475D01*
X137787957Y-69940475D02*
X137883195Y-69892856D01*
X137883195Y-69892856D02*
X138026052Y-69892856D01*
X138026052Y-69892856D02*
X138121290Y-69940475D01*
X138121290Y-69940475D02*
X138168909Y-69988094D01*
X138168909Y-69988094D02*
X138216528Y-70083332D01*
X138216528Y-70083332D02*
X138216528Y-70464284D01*
X137692719Y-69035713D02*
X137692719Y-69226189D01*
X137692719Y-69226189D02*
X137740338Y-69321427D01*
X137740338Y-69321427D02*
X137787957Y-69369046D01*
X137787957Y-69369046D02*
X137930814Y-69464284D01*
X137930814Y-69464284D02*
X138121290Y-69511903D01*
X138121290Y-69511903D02*
X138502242Y-69511903D01*
X138502242Y-69511903D02*
X138597480Y-69464284D01*
X138597480Y-69464284D02*
X138645100Y-69416665D01*
X138645100Y-69416665D02*
X138692719Y-69321427D01*
X138692719Y-69321427D02*
X138692719Y-69130951D01*
X138692719Y-69130951D02*
X138645100Y-69035713D01*
X138645100Y-69035713D02*
X138597480Y-68988094D01*
X138597480Y-68988094D02*
X138502242Y-68940475D01*
X138502242Y-68940475D02*
X138264147Y-68940475D01*
X138264147Y-68940475D02*
X138168909Y-68988094D01*
X138168909Y-68988094D02*
X138121290Y-69035713D01*
X138121290Y-69035713D02*
X138073671Y-69130951D01*
X138073671Y-69130951D02*
X138073671Y-69321427D01*
X138073671Y-69321427D02*
X138121290Y-69416665D01*
X138121290Y-69416665D02*
X138168909Y-69464284D01*
X138168909Y-69464284D02*
X138264147Y-69511903D01*
X137692719Y-68607141D02*
X137692719Y-67940475D01*
X137692719Y-67940475D02*
X138692719Y-68369046D01*
X122210199Y-54573408D02*
X122210199Y-55287693D01*
X122210199Y-55287693D02*
X122162580Y-55430550D01*
X122162580Y-55430550D02*
X122067342Y-55525789D01*
X122067342Y-55525789D02*
X121924485Y-55573408D01*
X121924485Y-55573408D02*
X121829247Y-55573408D01*
X123210199Y-55573408D02*
X122638771Y-55573408D01*
X122924485Y-55573408D02*
X122924485Y-54573408D01*
X122924485Y-54573408D02*
X122829247Y-54716265D01*
X122829247Y-54716265D02*
X122734009Y-54811503D01*
X122734009Y-54811503D02*
X122638771Y-54859122D01*
X124162580Y-55573408D02*
X123591152Y-55573408D01*
X123876866Y-55573408D02*
X123876866Y-54573408D01*
X123876866Y-54573408D02*
X123781628Y-54716265D01*
X123781628Y-54716265D02*
X123686390Y-54811503D01*
X123686390Y-54811503D02*
X123591152Y-54859122D01*
X131448615Y-67954819D02*
X131448615Y-66954819D01*
X131448615Y-66954819D02*
X131829567Y-66954819D01*
X131829567Y-66954819D02*
X131924805Y-67002438D01*
X131924805Y-67002438D02*
X131972424Y-67050057D01*
X131972424Y-67050057D02*
X132020043Y-67145295D01*
X132020043Y-67145295D02*
X132020043Y-67288152D01*
X132020043Y-67288152D02*
X131972424Y-67383390D01*
X131972424Y-67383390D02*
X131924805Y-67431009D01*
X131924805Y-67431009D02*
X131829567Y-67478628D01*
X131829567Y-67478628D02*
X131448615Y-67478628D01*
X132877186Y-66954819D02*
X132686710Y-66954819D01*
X132686710Y-66954819D02*
X132591472Y-67002438D01*
X132591472Y-67002438D02*
X132543853Y-67050057D01*
X132543853Y-67050057D02*
X132448615Y-67192914D01*
X132448615Y-67192914D02*
X132400996Y-67383390D01*
X132400996Y-67383390D02*
X132400996Y-67764342D01*
X132400996Y-67764342D02*
X132448615Y-67859580D01*
X132448615Y-67859580D02*
X132496234Y-67907200D01*
X132496234Y-67907200D02*
X132591472Y-67954819D01*
X132591472Y-67954819D02*
X132781948Y-67954819D01*
X132781948Y-67954819D02*
X132877186Y-67907200D01*
X132877186Y-67907200D02*
X132924805Y-67859580D01*
X132924805Y-67859580D02*
X132972424Y-67764342D01*
X132972424Y-67764342D02*
X132972424Y-67526247D01*
X132972424Y-67526247D02*
X132924805Y-67431009D01*
X132924805Y-67431009D02*
X132877186Y-67383390D01*
X132877186Y-67383390D02*
X132781948Y-67335771D01*
X132781948Y-67335771D02*
X132591472Y-67335771D01*
X132591472Y-67335771D02*
X132496234Y-67383390D01*
X132496234Y-67383390D02*
X132448615Y-67431009D01*
X132448615Y-67431009D02*
X132400996Y-67526247D01*
X133924805Y-67954819D02*
X133353377Y-67954819D01*
X133639091Y-67954819D02*
X133639091Y-66954819D01*
X133639091Y-66954819D02*
X133543853Y-67097676D01*
X133543853Y-67097676D02*
X133448615Y-67192914D01*
X133448615Y-67192914D02*
X133353377Y-67240533D01*
X138692719Y-153114284D02*
X137692719Y-153114284D01*
X137692719Y-153114284D02*
X137692719Y-152733332D01*
X137692719Y-152733332D02*
X137740338Y-152638094D01*
X137740338Y-152638094D02*
X137787957Y-152590475D01*
X137787957Y-152590475D02*
X137883195Y-152542856D01*
X137883195Y-152542856D02*
X138026052Y-152542856D01*
X138026052Y-152542856D02*
X138121290Y-152590475D01*
X138121290Y-152590475D02*
X138168909Y-152638094D01*
X138168909Y-152638094D02*
X138216528Y-152733332D01*
X138216528Y-152733332D02*
X138216528Y-153114284D01*
X138121290Y-151971427D02*
X138073671Y-152066665D01*
X138073671Y-152066665D02*
X138026052Y-152114284D01*
X138026052Y-152114284D02*
X137930814Y-152161903D01*
X137930814Y-152161903D02*
X137883195Y-152161903D01*
X137883195Y-152161903D02*
X137787957Y-152114284D01*
X137787957Y-152114284D02*
X137740338Y-152066665D01*
X137740338Y-152066665D02*
X137692719Y-151971427D01*
X137692719Y-151971427D02*
X137692719Y-151780951D01*
X137692719Y-151780951D02*
X137740338Y-151685713D01*
X137740338Y-151685713D02*
X137787957Y-151638094D01*
X137787957Y-151638094D02*
X137883195Y-151590475D01*
X137883195Y-151590475D02*
X137930814Y-151590475D01*
X137930814Y-151590475D02*
X138026052Y-151638094D01*
X138026052Y-151638094D02*
X138073671Y-151685713D01*
X138073671Y-151685713D02*
X138121290Y-151780951D01*
X138121290Y-151780951D02*
X138121290Y-151971427D01*
X138121290Y-151971427D02*
X138168909Y-152066665D01*
X138168909Y-152066665D02*
X138216528Y-152114284D01*
X138216528Y-152114284D02*
X138311766Y-152161903D01*
X138311766Y-152161903D02*
X138502242Y-152161903D01*
X138502242Y-152161903D02*
X138597480Y-152114284D01*
X138597480Y-152114284D02*
X138645100Y-152066665D01*
X138645100Y-152066665D02*
X138692719Y-151971427D01*
X138692719Y-151971427D02*
X138692719Y-151780951D01*
X138692719Y-151780951D02*
X138645100Y-151685713D01*
X138645100Y-151685713D02*
X138597480Y-151638094D01*
X138597480Y-151638094D02*
X138502242Y-151590475D01*
X138502242Y-151590475D02*
X138311766Y-151590475D01*
X138311766Y-151590475D02*
X138216528Y-151638094D01*
X138216528Y-151638094D02*
X138168909Y-151685713D01*
X138168909Y-151685713D02*
X138121290Y-151780951D01*
X138121290Y-151019046D02*
X138073671Y-151114284D01*
X138073671Y-151114284D02*
X138026052Y-151161903D01*
X138026052Y-151161903D02*
X137930814Y-151209522D01*
X137930814Y-151209522D02*
X137883195Y-151209522D01*
X137883195Y-151209522D02*
X137787957Y-151161903D01*
X137787957Y-151161903D02*
X137740338Y-151114284D01*
X137740338Y-151114284D02*
X137692719Y-151019046D01*
X137692719Y-151019046D02*
X137692719Y-150828570D01*
X137692719Y-150828570D02*
X137740338Y-150733332D01*
X137740338Y-150733332D02*
X137787957Y-150685713D01*
X137787957Y-150685713D02*
X137883195Y-150638094D01*
X137883195Y-150638094D02*
X137930814Y-150638094D01*
X137930814Y-150638094D02*
X138026052Y-150685713D01*
X138026052Y-150685713D02*
X138073671Y-150733332D01*
X138073671Y-150733332D02*
X138121290Y-150828570D01*
X138121290Y-150828570D02*
X138121290Y-151019046D01*
X138121290Y-151019046D02*
X138168909Y-151114284D01*
X138168909Y-151114284D02*
X138216528Y-151161903D01*
X138216528Y-151161903D02*
X138311766Y-151209522D01*
X138311766Y-151209522D02*
X138502242Y-151209522D01*
X138502242Y-151209522D02*
X138597480Y-151161903D01*
X138597480Y-151161903D02*
X138645100Y-151114284D01*
X138645100Y-151114284D02*
X138692719Y-151019046D01*
X138692719Y-151019046D02*
X138692719Y-150828570D01*
X138692719Y-150828570D02*
X138645100Y-150733332D01*
X138645100Y-150733332D02*
X138597480Y-150685713D01*
X138597480Y-150685713D02*
X138502242Y-150638094D01*
X138502242Y-150638094D02*
X138311766Y-150638094D01*
X138311766Y-150638094D02*
X138216528Y-150685713D01*
X138216528Y-150685713D02*
X138168909Y-150733332D01*
X138168909Y-150733332D02*
X138121290Y-150828570D01*
X138692719Y-90364284D02*
X137692719Y-90364284D01*
X137692719Y-90364284D02*
X137692719Y-89983332D01*
X137692719Y-89983332D02*
X137740338Y-89888094D01*
X137740338Y-89888094D02*
X137787957Y-89840475D01*
X137787957Y-89840475D02*
X137883195Y-89792856D01*
X137883195Y-89792856D02*
X138026052Y-89792856D01*
X138026052Y-89792856D02*
X138121290Y-89840475D01*
X138121290Y-89840475D02*
X138168909Y-89888094D01*
X138168909Y-89888094D02*
X138216528Y-89983332D01*
X138216528Y-89983332D02*
X138216528Y-90364284D01*
X137692719Y-89459522D02*
X137692719Y-88792856D01*
X137692719Y-88792856D02*
X138692719Y-89221427D01*
X137787957Y-88459522D02*
X137740338Y-88411903D01*
X137740338Y-88411903D02*
X137692719Y-88316665D01*
X137692719Y-88316665D02*
X137692719Y-88078570D01*
X137692719Y-88078570D02*
X137740338Y-87983332D01*
X137740338Y-87983332D02*
X137787957Y-87935713D01*
X137787957Y-87935713D02*
X137883195Y-87888094D01*
X137883195Y-87888094D02*
X137978433Y-87888094D01*
X137978433Y-87888094D02*
X138121290Y-87935713D01*
X138121290Y-87935713D02*
X138692719Y-88507141D01*
X138692719Y-88507141D02*
X138692719Y-87888094D01*
X138692719Y-149214284D02*
X137692719Y-149214284D01*
X137692719Y-149214284D02*
X137692719Y-148833332D01*
X137692719Y-148833332D02*
X137740338Y-148738094D01*
X137740338Y-148738094D02*
X137787957Y-148690475D01*
X137787957Y-148690475D02*
X137883195Y-148642856D01*
X137883195Y-148642856D02*
X138026052Y-148642856D01*
X138026052Y-148642856D02*
X138121290Y-148690475D01*
X138121290Y-148690475D02*
X138168909Y-148738094D01*
X138168909Y-148738094D02*
X138216528Y-148833332D01*
X138216528Y-148833332D02*
X138216528Y-149214284D01*
X138121290Y-148071427D02*
X138073671Y-148166665D01*
X138073671Y-148166665D02*
X138026052Y-148214284D01*
X138026052Y-148214284D02*
X137930814Y-148261903D01*
X137930814Y-148261903D02*
X137883195Y-148261903D01*
X137883195Y-148261903D02*
X137787957Y-148214284D01*
X137787957Y-148214284D02*
X137740338Y-148166665D01*
X137740338Y-148166665D02*
X137692719Y-148071427D01*
X137692719Y-148071427D02*
X137692719Y-147880951D01*
X137692719Y-147880951D02*
X137740338Y-147785713D01*
X137740338Y-147785713D02*
X137787957Y-147738094D01*
X137787957Y-147738094D02*
X137883195Y-147690475D01*
X137883195Y-147690475D02*
X137930814Y-147690475D01*
X137930814Y-147690475D02*
X138026052Y-147738094D01*
X138026052Y-147738094D02*
X138073671Y-147785713D01*
X138073671Y-147785713D02*
X138121290Y-147880951D01*
X138121290Y-147880951D02*
X138121290Y-148071427D01*
X138121290Y-148071427D02*
X138168909Y-148166665D01*
X138168909Y-148166665D02*
X138216528Y-148214284D01*
X138216528Y-148214284D02*
X138311766Y-148261903D01*
X138311766Y-148261903D02*
X138502242Y-148261903D01*
X138502242Y-148261903D02*
X138597480Y-148214284D01*
X138597480Y-148214284D02*
X138645100Y-148166665D01*
X138645100Y-148166665D02*
X138692719Y-148071427D01*
X138692719Y-148071427D02*
X138692719Y-147880951D01*
X138692719Y-147880951D02*
X138645100Y-147785713D01*
X138645100Y-147785713D02*
X138597480Y-147738094D01*
X138597480Y-147738094D02*
X138502242Y-147690475D01*
X138502242Y-147690475D02*
X138311766Y-147690475D01*
X138311766Y-147690475D02*
X138216528Y-147738094D01*
X138216528Y-147738094D02*
X138168909Y-147785713D01*
X138168909Y-147785713D02*
X138121290Y-147880951D01*
X137692719Y-147357141D02*
X137692719Y-146690475D01*
X137692719Y-146690475D02*
X138692719Y-147119046D01*
X138692720Y-98114284D02*
X137692720Y-98114284D01*
X137692720Y-98114284D02*
X137692720Y-97733332D01*
X137692720Y-97733332D02*
X137740339Y-97638094D01*
X137740339Y-97638094D02*
X137787958Y-97590475D01*
X137787958Y-97590475D02*
X137883196Y-97542856D01*
X137883196Y-97542856D02*
X138026053Y-97542856D01*
X138026053Y-97542856D02*
X138121291Y-97590475D01*
X138121291Y-97590475D02*
X138168910Y-97638094D01*
X138168910Y-97638094D02*
X138216529Y-97733332D01*
X138216529Y-97733332D02*
X138216529Y-98114284D01*
X137692720Y-97209522D02*
X137692720Y-96542856D01*
X137692720Y-96542856D02*
X138692720Y-96971427D01*
X138026053Y-95733332D02*
X138692720Y-95733332D01*
X137645101Y-95971427D02*
X138359386Y-96209522D01*
X138359386Y-96209522D02*
X138359386Y-95590475D01*
X138692719Y-62464285D02*
X137692719Y-62464285D01*
X137692719Y-62464285D02*
X137692719Y-62083333D01*
X137692719Y-62083333D02*
X137740338Y-61988095D01*
X137740338Y-61988095D02*
X137787957Y-61940476D01*
X137787957Y-61940476D02*
X137883195Y-61892857D01*
X137883195Y-61892857D02*
X138026052Y-61892857D01*
X138026052Y-61892857D02*
X138121290Y-61940476D01*
X138121290Y-61940476D02*
X138168909Y-61988095D01*
X138168909Y-61988095D02*
X138216528Y-62083333D01*
X138216528Y-62083333D02*
X138216528Y-62464285D01*
X137692719Y-61035714D02*
X137692719Y-61226190D01*
X137692719Y-61226190D02*
X137740338Y-61321428D01*
X137740338Y-61321428D02*
X137787957Y-61369047D01*
X137787957Y-61369047D02*
X137930814Y-61464285D01*
X137930814Y-61464285D02*
X138121290Y-61511904D01*
X138121290Y-61511904D02*
X138502242Y-61511904D01*
X138502242Y-61511904D02*
X138597480Y-61464285D01*
X138597480Y-61464285D02*
X138645100Y-61416666D01*
X138645100Y-61416666D02*
X138692719Y-61321428D01*
X138692719Y-61321428D02*
X138692719Y-61130952D01*
X138692719Y-61130952D02*
X138645100Y-61035714D01*
X138645100Y-61035714D02*
X138597480Y-60988095D01*
X138597480Y-60988095D02*
X138502242Y-60940476D01*
X138502242Y-60940476D02*
X138264147Y-60940476D01*
X138264147Y-60940476D02*
X138168909Y-60988095D01*
X138168909Y-60988095D02*
X138121290Y-61035714D01*
X138121290Y-61035714D02*
X138073671Y-61130952D01*
X138073671Y-61130952D02*
X138073671Y-61321428D01*
X138073671Y-61321428D02*
X138121290Y-61416666D01*
X138121290Y-61416666D02*
X138168909Y-61464285D01*
X138168909Y-61464285D02*
X138264147Y-61511904D01*
X137692719Y-60035714D02*
X137692719Y-60511904D01*
X137692719Y-60511904D02*
X138168909Y-60559523D01*
X138168909Y-60559523D02*
X138121290Y-60511904D01*
X138121290Y-60511904D02*
X138073671Y-60416666D01*
X138073671Y-60416666D02*
X138073671Y-60178571D01*
X138073671Y-60178571D02*
X138121290Y-60083333D01*
X138121290Y-60083333D02*
X138168909Y-60035714D01*
X138168909Y-60035714D02*
X138264147Y-59988095D01*
X138264147Y-59988095D02*
X138502242Y-59988095D01*
X138502242Y-59988095D02*
X138597480Y-60035714D01*
X138597480Y-60035714D02*
X138645100Y-60083333D01*
X138645100Y-60083333D02*
X138692719Y-60178571D01*
X138692719Y-60178571D02*
X138692719Y-60416666D01*
X138692719Y-60416666D02*
X138645100Y-60511904D01*
X138645100Y-60511904D02*
X138597480Y-60559523D01*
X131448614Y-63654819D02*
X131448614Y-62654819D01*
X131448614Y-62654819D02*
X131829566Y-62654819D01*
X131829566Y-62654819D02*
X131924804Y-62702438D01*
X131924804Y-62702438D02*
X131972423Y-62750057D01*
X131972423Y-62750057D02*
X132020042Y-62845295D01*
X132020042Y-62845295D02*
X132020042Y-62988152D01*
X132020042Y-62988152D02*
X131972423Y-63083390D01*
X131972423Y-63083390D02*
X131924804Y-63131009D01*
X131924804Y-63131009D02*
X131829566Y-63178628D01*
X131829566Y-63178628D02*
X131448614Y-63178628D01*
X132877185Y-62654819D02*
X132686709Y-62654819D01*
X132686709Y-62654819D02*
X132591471Y-62702438D01*
X132591471Y-62702438D02*
X132543852Y-62750057D01*
X132543852Y-62750057D02*
X132448614Y-62892914D01*
X132448614Y-62892914D02*
X132400995Y-63083390D01*
X132400995Y-63083390D02*
X132400995Y-63464342D01*
X132400995Y-63464342D02*
X132448614Y-63559580D01*
X132448614Y-63559580D02*
X132496233Y-63607200D01*
X132496233Y-63607200D02*
X132591471Y-63654819D01*
X132591471Y-63654819D02*
X132781947Y-63654819D01*
X132781947Y-63654819D02*
X132877185Y-63607200D01*
X132877185Y-63607200D02*
X132924804Y-63559580D01*
X132924804Y-63559580D02*
X132972423Y-63464342D01*
X132972423Y-63464342D02*
X132972423Y-63226247D01*
X132972423Y-63226247D02*
X132924804Y-63131009D01*
X132924804Y-63131009D02*
X132877185Y-63083390D01*
X132877185Y-63083390D02*
X132781947Y-63035771D01*
X132781947Y-63035771D02*
X132591471Y-63035771D01*
X132591471Y-63035771D02*
X132496233Y-63083390D01*
X132496233Y-63083390D02*
X132448614Y-63131009D01*
X132448614Y-63131009D02*
X132400995Y-63226247D01*
X133353376Y-62750057D02*
X133400995Y-62702438D01*
X133400995Y-62702438D02*
X133496233Y-62654819D01*
X133496233Y-62654819D02*
X133734328Y-62654819D01*
X133734328Y-62654819D02*
X133829566Y-62702438D01*
X133829566Y-62702438D02*
X133877185Y-62750057D01*
X133877185Y-62750057D02*
X133924804Y-62845295D01*
X133924804Y-62845295D02*
X133924804Y-62940533D01*
X133924804Y-62940533D02*
X133877185Y-63083390D01*
X133877185Y-63083390D02*
X133305757Y-63654819D01*
X133305757Y-63654819D02*
X133924804Y-63654819D01*
X138692719Y-94214284D02*
X137692719Y-94214284D01*
X137692719Y-94214284D02*
X137692719Y-93833332D01*
X137692719Y-93833332D02*
X137740338Y-93738094D01*
X137740338Y-93738094D02*
X137787957Y-93690475D01*
X137787957Y-93690475D02*
X137883195Y-93642856D01*
X137883195Y-93642856D02*
X138026052Y-93642856D01*
X138026052Y-93642856D02*
X138121290Y-93690475D01*
X138121290Y-93690475D02*
X138168909Y-93738094D01*
X138168909Y-93738094D02*
X138216528Y-93833332D01*
X138216528Y-93833332D02*
X138216528Y-94214284D01*
X137692719Y-93309522D02*
X137692719Y-92642856D01*
X137692719Y-92642856D02*
X138692719Y-93071427D01*
X137692719Y-92357141D02*
X137692719Y-91738094D01*
X137692719Y-91738094D02*
X138073671Y-92071427D01*
X138073671Y-92071427D02*
X138073671Y-91928570D01*
X138073671Y-91928570D02*
X138121290Y-91833332D01*
X138121290Y-91833332D02*
X138168909Y-91785713D01*
X138168909Y-91785713D02*
X138264147Y-91738094D01*
X138264147Y-91738094D02*
X138502242Y-91738094D01*
X138502242Y-91738094D02*
X138597480Y-91785713D01*
X138597480Y-91785713D02*
X138645100Y-91833332D01*
X138645100Y-91833332D02*
X138692719Y-91928570D01*
X138692719Y-91928570D02*
X138692719Y-92214284D01*
X138692719Y-92214284D02*
X138645100Y-92309522D01*
X138645100Y-92309522D02*
X138597480Y-92357141D01*
X131623614Y-146354818D02*
X131623614Y-145354818D01*
X131623614Y-145354818D02*
X132004566Y-145354818D01*
X132004566Y-145354818D02*
X132099804Y-145402437D01*
X132099804Y-145402437D02*
X132147423Y-145450056D01*
X132147423Y-145450056D02*
X132195042Y-145545294D01*
X132195042Y-145545294D02*
X132195042Y-145688151D01*
X132195042Y-145688151D02*
X132147423Y-145783389D01*
X132147423Y-145783389D02*
X132099804Y-145831008D01*
X132099804Y-145831008D02*
X132004566Y-145878627D01*
X132004566Y-145878627D02*
X131623614Y-145878627D01*
X132766471Y-145783389D02*
X132671233Y-145735770D01*
X132671233Y-145735770D02*
X132623614Y-145688151D01*
X132623614Y-145688151D02*
X132575995Y-145592913D01*
X132575995Y-145592913D02*
X132575995Y-145545294D01*
X132575995Y-145545294D02*
X132623614Y-145450056D01*
X132623614Y-145450056D02*
X132671233Y-145402437D01*
X132671233Y-145402437D02*
X132766471Y-145354818D01*
X132766471Y-145354818D02*
X132956947Y-145354818D01*
X132956947Y-145354818D02*
X133052185Y-145402437D01*
X133052185Y-145402437D02*
X133099804Y-145450056D01*
X133099804Y-145450056D02*
X133147423Y-145545294D01*
X133147423Y-145545294D02*
X133147423Y-145592913D01*
X133147423Y-145592913D02*
X133099804Y-145688151D01*
X133099804Y-145688151D02*
X133052185Y-145735770D01*
X133052185Y-145735770D02*
X132956947Y-145783389D01*
X132956947Y-145783389D02*
X132766471Y-145783389D01*
X132766471Y-145783389D02*
X132671233Y-145831008D01*
X132671233Y-145831008D02*
X132623614Y-145878627D01*
X132623614Y-145878627D02*
X132575995Y-145973865D01*
X132575995Y-145973865D02*
X132575995Y-146164341D01*
X132575995Y-146164341D02*
X132623614Y-146259579D01*
X132623614Y-146259579D02*
X132671233Y-146307199D01*
X132671233Y-146307199D02*
X132766471Y-146354818D01*
X132766471Y-146354818D02*
X132956947Y-146354818D01*
X132956947Y-146354818D02*
X133052185Y-146307199D01*
X133052185Y-146307199D02*
X133099804Y-146259579D01*
X133099804Y-146259579D02*
X133147423Y-146164341D01*
X133147423Y-146164341D02*
X133147423Y-145973865D01*
X133147423Y-145973865D02*
X133099804Y-145878627D01*
X133099804Y-145878627D02*
X133052185Y-145831008D01*
X133052185Y-145831008D02*
X132956947Y-145783389D01*
X133623614Y-146354818D02*
X133814090Y-146354818D01*
X133814090Y-146354818D02*
X133909328Y-146307199D01*
X133909328Y-146307199D02*
X133956947Y-146259579D01*
X133956947Y-146259579D02*
X134052185Y-146116722D01*
X134052185Y-146116722D02*
X134099804Y-145926246D01*
X134099804Y-145926246D02*
X134099804Y-145545294D01*
X134099804Y-145545294D02*
X134052185Y-145450056D01*
X134052185Y-145450056D02*
X134004566Y-145402437D01*
X134004566Y-145402437D02*
X133909328Y-145354818D01*
X133909328Y-145354818D02*
X133718852Y-145354818D01*
X133718852Y-145354818D02*
X133623614Y-145402437D01*
X133623614Y-145402437D02*
X133575995Y-145450056D01*
X133575995Y-145450056D02*
X133528376Y-145545294D01*
X133528376Y-145545294D02*
X133528376Y-145783389D01*
X133528376Y-145783389D02*
X133575995Y-145878627D01*
X133575995Y-145878627D02*
X133623614Y-145926246D01*
X133623614Y-145926246D02*
X133718852Y-145973865D01*
X133718852Y-145973865D02*
X133909328Y-145973865D01*
X133909328Y-145973865D02*
X134004566Y-145926246D01*
X134004566Y-145926246D02*
X134052185Y-145878627D01*
X134052185Y-145878627D02*
X134099804Y-145783389D01*
X131648613Y-149954820D02*
X131648613Y-148954820D01*
X131648613Y-148954820D02*
X132029565Y-148954820D01*
X132029565Y-148954820D02*
X132124803Y-149002439D01*
X132124803Y-149002439D02*
X132172422Y-149050058D01*
X132172422Y-149050058D02*
X132220041Y-149145296D01*
X132220041Y-149145296D02*
X132220041Y-149288153D01*
X132220041Y-149288153D02*
X132172422Y-149383391D01*
X132172422Y-149383391D02*
X132124803Y-149431010D01*
X132124803Y-149431010D02*
X132029565Y-149478629D01*
X132029565Y-149478629D02*
X131648613Y-149478629D01*
X132696232Y-149954820D02*
X132886708Y-149954820D01*
X132886708Y-149954820D02*
X132981946Y-149907201D01*
X132981946Y-149907201D02*
X133029565Y-149859581D01*
X133029565Y-149859581D02*
X133124803Y-149716724D01*
X133124803Y-149716724D02*
X133172422Y-149526248D01*
X133172422Y-149526248D02*
X133172422Y-149145296D01*
X133172422Y-149145296D02*
X133124803Y-149050058D01*
X133124803Y-149050058D02*
X133077184Y-149002439D01*
X133077184Y-149002439D02*
X132981946Y-148954820D01*
X132981946Y-148954820D02*
X132791470Y-148954820D01*
X132791470Y-148954820D02*
X132696232Y-149002439D01*
X132696232Y-149002439D02*
X132648613Y-149050058D01*
X132648613Y-149050058D02*
X132600994Y-149145296D01*
X132600994Y-149145296D02*
X132600994Y-149383391D01*
X132600994Y-149383391D02*
X132648613Y-149478629D01*
X132648613Y-149478629D02*
X132696232Y-149526248D01*
X132696232Y-149526248D02*
X132791470Y-149573867D01*
X132791470Y-149573867D02*
X132981946Y-149573867D01*
X132981946Y-149573867D02*
X133077184Y-149526248D01*
X133077184Y-149526248D02*
X133124803Y-149478629D01*
X133124803Y-149478629D02*
X133172422Y-149383391D01*
X133791470Y-148954820D02*
X133886708Y-148954820D01*
X133886708Y-148954820D02*
X133981946Y-149002439D01*
X133981946Y-149002439D02*
X134029565Y-149050058D01*
X134029565Y-149050058D02*
X134077184Y-149145296D01*
X134077184Y-149145296D02*
X134124803Y-149335772D01*
X134124803Y-149335772D02*
X134124803Y-149573867D01*
X134124803Y-149573867D02*
X134077184Y-149764343D01*
X134077184Y-149764343D02*
X134029565Y-149859581D01*
X134029565Y-149859581D02*
X133981946Y-149907201D01*
X133981946Y-149907201D02*
X133886708Y-149954820D01*
X133886708Y-149954820D02*
X133791470Y-149954820D01*
X133791470Y-149954820D02*
X133696232Y-149907201D01*
X133696232Y-149907201D02*
X133648613Y-149859581D01*
X133648613Y-149859581D02*
X133600994Y-149764343D01*
X133600994Y-149764343D02*
X133553375Y-149573867D01*
X133553375Y-149573867D02*
X133553375Y-149335772D01*
X133553375Y-149335772D02*
X133600994Y-149145296D01*
X133600994Y-149145296D02*
X133648613Y-149050058D01*
X133648613Y-149050058D02*
X133696232Y-149002439D01*
X133696232Y-149002439D02*
X133791470Y-148954820D01*
X138692719Y-66464284D02*
X137692719Y-66464284D01*
X137692719Y-66464284D02*
X137692719Y-66083332D01*
X137692719Y-66083332D02*
X137740338Y-65988094D01*
X137740338Y-65988094D02*
X137787957Y-65940475D01*
X137787957Y-65940475D02*
X137883195Y-65892856D01*
X137883195Y-65892856D02*
X138026052Y-65892856D01*
X138026052Y-65892856D02*
X138121290Y-65940475D01*
X138121290Y-65940475D02*
X138168909Y-65988094D01*
X138168909Y-65988094D02*
X138216528Y-66083332D01*
X138216528Y-66083332D02*
X138216528Y-66464284D01*
X137692719Y-65035713D02*
X137692719Y-65226189D01*
X137692719Y-65226189D02*
X137740338Y-65321427D01*
X137740338Y-65321427D02*
X137787957Y-65369046D01*
X137787957Y-65369046D02*
X137930814Y-65464284D01*
X137930814Y-65464284D02*
X138121290Y-65511903D01*
X138121290Y-65511903D02*
X138502242Y-65511903D01*
X138502242Y-65511903D02*
X138597480Y-65464284D01*
X138597480Y-65464284D02*
X138645100Y-65416665D01*
X138645100Y-65416665D02*
X138692719Y-65321427D01*
X138692719Y-65321427D02*
X138692719Y-65130951D01*
X138692719Y-65130951D02*
X138645100Y-65035713D01*
X138645100Y-65035713D02*
X138597480Y-64988094D01*
X138597480Y-64988094D02*
X138502242Y-64940475D01*
X138502242Y-64940475D02*
X138264147Y-64940475D01*
X138264147Y-64940475D02*
X138168909Y-64988094D01*
X138168909Y-64988094D02*
X138121290Y-65035713D01*
X138121290Y-65035713D02*
X138073671Y-65130951D01*
X138073671Y-65130951D02*
X138073671Y-65321427D01*
X138073671Y-65321427D02*
X138121290Y-65416665D01*
X138121290Y-65416665D02*
X138168909Y-65464284D01*
X138168909Y-65464284D02*
X138264147Y-65511903D01*
X137692719Y-64083332D02*
X137692719Y-64273808D01*
X137692719Y-64273808D02*
X137740338Y-64369046D01*
X137740338Y-64369046D02*
X137787957Y-64416665D01*
X137787957Y-64416665D02*
X137930814Y-64511903D01*
X137930814Y-64511903D02*
X138121290Y-64559522D01*
X138121290Y-64559522D02*
X138502242Y-64559522D01*
X138502242Y-64559522D02*
X138597480Y-64511903D01*
X138597480Y-64511903D02*
X138645100Y-64464284D01*
X138645100Y-64464284D02*
X138692719Y-64369046D01*
X138692719Y-64369046D02*
X138692719Y-64178570D01*
X138692719Y-64178570D02*
X138645100Y-64083332D01*
X138645100Y-64083332D02*
X138597480Y-64035713D01*
X138597480Y-64035713D02*
X138502242Y-63988094D01*
X138502242Y-63988094D02*
X138264147Y-63988094D01*
X138264147Y-63988094D02*
X138168909Y-64035713D01*
X138168909Y-64035713D02*
X138121290Y-64083332D01*
X138121290Y-64083332D02*
X138073671Y-64178570D01*
X138073671Y-64178570D02*
X138073671Y-64369046D01*
X138073671Y-64369046D02*
X138121290Y-64464284D01*
X138121290Y-64464284D02*
X138168909Y-64511903D01*
X138168909Y-64511903D02*
X138264147Y-64559522D01*
X138692719Y-74464284D02*
X137692719Y-74464284D01*
X137692719Y-74464284D02*
X137692719Y-74083332D01*
X137692719Y-74083332D02*
X137740338Y-73988094D01*
X137740338Y-73988094D02*
X137787957Y-73940475D01*
X137787957Y-73940475D02*
X137883195Y-73892856D01*
X137883195Y-73892856D02*
X138026052Y-73892856D01*
X138026052Y-73892856D02*
X138121290Y-73940475D01*
X138121290Y-73940475D02*
X138168909Y-73988094D01*
X138168909Y-73988094D02*
X138216528Y-74083332D01*
X138216528Y-74083332D02*
X138216528Y-74464284D01*
X137692719Y-73035713D02*
X137692719Y-73226189D01*
X137692719Y-73226189D02*
X137740338Y-73321427D01*
X137740338Y-73321427D02*
X137787957Y-73369046D01*
X137787957Y-73369046D02*
X137930814Y-73464284D01*
X137930814Y-73464284D02*
X138121290Y-73511903D01*
X138121290Y-73511903D02*
X138502242Y-73511903D01*
X138502242Y-73511903D02*
X138597480Y-73464284D01*
X138597480Y-73464284D02*
X138645100Y-73416665D01*
X138645100Y-73416665D02*
X138692719Y-73321427D01*
X138692719Y-73321427D02*
X138692719Y-73130951D01*
X138692719Y-73130951D02*
X138645100Y-73035713D01*
X138645100Y-73035713D02*
X138597480Y-72988094D01*
X138597480Y-72988094D02*
X138502242Y-72940475D01*
X138502242Y-72940475D02*
X138264147Y-72940475D01*
X138264147Y-72940475D02*
X138168909Y-72988094D01*
X138168909Y-72988094D02*
X138121290Y-73035713D01*
X138121290Y-73035713D02*
X138073671Y-73130951D01*
X138073671Y-73130951D02*
X138073671Y-73321427D01*
X138073671Y-73321427D02*
X138121290Y-73416665D01*
X138121290Y-73416665D02*
X138168909Y-73464284D01*
X138168909Y-73464284D02*
X138264147Y-73511903D01*
X138121290Y-72369046D02*
X138073671Y-72464284D01*
X138073671Y-72464284D02*
X138026052Y-72511903D01*
X138026052Y-72511903D02*
X137930814Y-72559522D01*
X137930814Y-72559522D02*
X137883195Y-72559522D01*
X137883195Y-72559522D02*
X137787957Y-72511903D01*
X137787957Y-72511903D02*
X137740338Y-72464284D01*
X137740338Y-72464284D02*
X137692719Y-72369046D01*
X137692719Y-72369046D02*
X137692719Y-72178570D01*
X137692719Y-72178570D02*
X137740338Y-72083332D01*
X137740338Y-72083332D02*
X137787957Y-72035713D01*
X137787957Y-72035713D02*
X137883195Y-71988094D01*
X137883195Y-71988094D02*
X137930814Y-71988094D01*
X137930814Y-71988094D02*
X138026052Y-72035713D01*
X138026052Y-72035713D02*
X138073671Y-72083332D01*
X138073671Y-72083332D02*
X138121290Y-72178570D01*
X138121290Y-72178570D02*
X138121290Y-72369046D01*
X138121290Y-72369046D02*
X138168909Y-72464284D01*
X138168909Y-72464284D02*
X138216528Y-72511903D01*
X138216528Y-72511903D02*
X138311766Y-72559522D01*
X138311766Y-72559522D02*
X138502242Y-72559522D01*
X138502242Y-72559522D02*
X138597480Y-72511903D01*
X138597480Y-72511903D02*
X138645100Y-72464284D01*
X138645100Y-72464284D02*
X138692719Y-72369046D01*
X138692719Y-72369046D02*
X138692719Y-72178570D01*
X138692719Y-72178570D02*
X138645100Y-72083332D01*
X138645100Y-72083332D02*
X138597480Y-72035713D01*
X138597480Y-72035713D02*
X138502242Y-71988094D01*
X138502242Y-71988094D02*
X138311766Y-71988094D01*
X138311766Y-71988094D02*
X138216528Y-72035713D01*
X138216528Y-72035713D02*
X138168909Y-72083332D01*
X138168909Y-72083332D02*
X138121290Y-72178570D01*
X138692719Y-145214284D02*
X137692719Y-145214284D01*
X137692719Y-145214284D02*
X137692719Y-144833332D01*
X137692719Y-144833332D02*
X137740338Y-144738094D01*
X137740338Y-144738094D02*
X137787957Y-144690475D01*
X137787957Y-144690475D02*
X137883195Y-144642856D01*
X137883195Y-144642856D02*
X138026052Y-144642856D01*
X138026052Y-144642856D02*
X138121290Y-144690475D01*
X138121290Y-144690475D02*
X138168909Y-144738094D01*
X138168909Y-144738094D02*
X138216528Y-144833332D01*
X138216528Y-144833332D02*
X138216528Y-145214284D01*
X138121290Y-144071427D02*
X138073671Y-144166665D01*
X138073671Y-144166665D02*
X138026052Y-144214284D01*
X138026052Y-144214284D02*
X137930814Y-144261903D01*
X137930814Y-144261903D02*
X137883195Y-144261903D01*
X137883195Y-144261903D02*
X137787957Y-144214284D01*
X137787957Y-144214284D02*
X137740338Y-144166665D01*
X137740338Y-144166665D02*
X137692719Y-144071427D01*
X137692719Y-144071427D02*
X137692719Y-143880951D01*
X137692719Y-143880951D02*
X137740338Y-143785713D01*
X137740338Y-143785713D02*
X137787957Y-143738094D01*
X137787957Y-143738094D02*
X137883195Y-143690475D01*
X137883195Y-143690475D02*
X137930814Y-143690475D01*
X137930814Y-143690475D02*
X138026052Y-143738094D01*
X138026052Y-143738094D02*
X138073671Y-143785713D01*
X138073671Y-143785713D02*
X138121290Y-143880951D01*
X138121290Y-143880951D02*
X138121290Y-144071427D01*
X138121290Y-144071427D02*
X138168909Y-144166665D01*
X138168909Y-144166665D02*
X138216528Y-144214284D01*
X138216528Y-144214284D02*
X138311766Y-144261903D01*
X138311766Y-144261903D02*
X138502242Y-144261903D01*
X138502242Y-144261903D02*
X138597480Y-144214284D01*
X138597480Y-144214284D02*
X138645100Y-144166665D01*
X138645100Y-144166665D02*
X138692719Y-144071427D01*
X138692719Y-144071427D02*
X138692719Y-143880951D01*
X138692719Y-143880951D02*
X138645100Y-143785713D01*
X138645100Y-143785713D02*
X138597480Y-143738094D01*
X138597480Y-143738094D02*
X138502242Y-143690475D01*
X138502242Y-143690475D02*
X138311766Y-143690475D01*
X138311766Y-143690475D02*
X138216528Y-143738094D01*
X138216528Y-143738094D02*
X138168909Y-143785713D01*
X138168909Y-143785713D02*
X138121290Y-143880951D01*
X137692719Y-142833332D02*
X137692719Y-143023808D01*
X137692719Y-143023808D02*
X137740338Y-143119046D01*
X137740338Y-143119046D02*
X137787957Y-143166665D01*
X137787957Y-143166665D02*
X137930814Y-143261903D01*
X137930814Y-143261903D02*
X138121290Y-143309522D01*
X138121290Y-143309522D02*
X138502242Y-143309522D01*
X138502242Y-143309522D02*
X138597480Y-143261903D01*
X138597480Y-143261903D02*
X138645100Y-143214284D01*
X138645100Y-143214284D02*
X138692719Y-143119046D01*
X138692719Y-143119046D02*
X138692719Y-142928570D01*
X138692719Y-142928570D02*
X138645100Y-142833332D01*
X138645100Y-142833332D02*
X138597480Y-142785713D01*
X138597480Y-142785713D02*
X138502242Y-142738094D01*
X138502242Y-142738094D02*
X138264147Y-142738094D01*
X138264147Y-142738094D02*
X138168909Y-142785713D01*
X138168909Y-142785713D02*
X138121290Y-142833332D01*
X138121290Y-142833332D02*
X138073671Y-142928570D01*
X138073671Y-142928570D02*
X138073671Y-143119046D01*
X138073671Y-143119046D02*
X138121290Y-143214284D01*
X138121290Y-143214284D02*
X138168909Y-143261903D01*
X138168909Y-143261903D02*
X138264147Y-143309522D01*
X138692719Y-78464284D02*
X137692719Y-78464284D01*
X137692719Y-78464284D02*
X137692719Y-78083332D01*
X137692719Y-78083332D02*
X137740338Y-77988094D01*
X137740338Y-77988094D02*
X137787957Y-77940475D01*
X137787957Y-77940475D02*
X137883195Y-77892856D01*
X137883195Y-77892856D02*
X138026052Y-77892856D01*
X138026052Y-77892856D02*
X138121290Y-77940475D01*
X138121290Y-77940475D02*
X138168909Y-77988094D01*
X138168909Y-77988094D02*
X138216528Y-78083332D01*
X138216528Y-78083332D02*
X138216528Y-78464284D01*
X137692719Y-77035713D02*
X137692719Y-77226189D01*
X137692719Y-77226189D02*
X137740338Y-77321427D01*
X137740338Y-77321427D02*
X137787957Y-77369046D01*
X137787957Y-77369046D02*
X137930814Y-77464284D01*
X137930814Y-77464284D02*
X138121290Y-77511903D01*
X138121290Y-77511903D02*
X138502242Y-77511903D01*
X138502242Y-77511903D02*
X138597480Y-77464284D01*
X138597480Y-77464284D02*
X138645100Y-77416665D01*
X138645100Y-77416665D02*
X138692719Y-77321427D01*
X138692719Y-77321427D02*
X138692719Y-77130951D01*
X138692719Y-77130951D02*
X138645100Y-77035713D01*
X138645100Y-77035713D02*
X138597480Y-76988094D01*
X138597480Y-76988094D02*
X138502242Y-76940475D01*
X138502242Y-76940475D02*
X138264147Y-76940475D01*
X138264147Y-76940475D02*
X138168909Y-76988094D01*
X138168909Y-76988094D02*
X138121290Y-77035713D01*
X138121290Y-77035713D02*
X138073671Y-77130951D01*
X138073671Y-77130951D02*
X138073671Y-77321427D01*
X138073671Y-77321427D02*
X138121290Y-77416665D01*
X138121290Y-77416665D02*
X138168909Y-77464284D01*
X138168909Y-77464284D02*
X138264147Y-77511903D01*
X138692719Y-76464284D02*
X138692719Y-76273808D01*
X138692719Y-76273808D02*
X138645100Y-76178570D01*
X138645100Y-76178570D02*
X138597480Y-76130951D01*
X138597480Y-76130951D02*
X138454623Y-76035713D01*
X138454623Y-76035713D02*
X138264147Y-75988094D01*
X138264147Y-75988094D02*
X137883195Y-75988094D01*
X137883195Y-75988094D02*
X137787957Y-76035713D01*
X137787957Y-76035713D02*
X137740338Y-76083332D01*
X137740338Y-76083332D02*
X137692719Y-76178570D01*
X137692719Y-76178570D02*
X137692719Y-76369046D01*
X137692719Y-76369046D02*
X137740338Y-76464284D01*
X137740338Y-76464284D02*
X137787957Y-76511903D01*
X137787957Y-76511903D02*
X137883195Y-76559522D01*
X137883195Y-76559522D02*
X138121290Y-76559522D01*
X138121290Y-76559522D02*
X138216528Y-76511903D01*
X138216528Y-76511903D02*
X138264147Y-76464284D01*
X138264147Y-76464284D02*
X138311766Y-76369046D01*
X138311766Y-76369046D02*
X138311766Y-76178570D01*
X138311766Y-76178570D02*
X138264147Y-76083332D01*
X138264147Y-76083332D02*
X138216528Y-76035713D01*
X138216528Y-76035713D02*
X138121290Y-75988094D01*
X138692719Y-137414284D02*
X137692719Y-137414284D01*
X137692719Y-137414284D02*
X137692719Y-137033332D01*
X137692719Y-137033332D02*
X137740338Y-136938094D01*
X137740338Y-136938094D02*
X137787957Y-136890475D01*
X137787957Y-136890475D02*
X137883195Y-136842856D01*
X137883195Y-136842856D02*
X138026052Y-136842856D01*
X138026052Y-136842856D02*
X138121290Y-136890475D01*
X138121290Y-136890475D02*
X138168909Y-136938094D01*
X138168909Y-136938094D02*
X138216528Y-137033332D01*
X138216528Y-137033332D02*
X138216528Y-137414284D01*
X138121290Y-136271427D02*
X138073671Y-136366665D01*
X138073671Y-136366665D02*
X138026052Y-136414284D01*
X138026052Y-136414284D02*
X137930814Y-136461903D01*
X137930814Y-136461903D02*
X137883195Y-136461903D01*
X137883195Y-136461903D02*
X137787957Y-136414284D01*
X137787957Y-136414284D02*
X137740338Y-136366665D01*
X137740338Y-136366665D02*
X137692719Y-136271427D01*
X137692719Y-136271427D02*
X137692719Y-136080951D01*
X137692719Y-136080951D02*
X137740338Y-135985713D01*
X137740338Y-135985713D02*
X137787957Y-135938094D01*
X137787957Y-135938094D02*
X137883195Y-135890475D01*
X137883195Y-135890475D02*
X137930814Y-135890475D01*
X137930814Y-135890475D02*
X138026052Y-135938094D01*
X138026052Y-135938094D02*
X138073671Y-135985713D01*
X138073671Y-135985713D02*
X138121290Y-136080951D01*
X138121290Y-136080951D02*
X138121290Y-136271427D01*
X138121290Y-136271427D02*
X138168909Y-136366665D01*
X138168909Y-136366665D02*
X138216528Y-136414284D01*
X138216528Y-136414284D02*
X138311766Y-136461903D01*
X138311766Y-136461903D02*
X138502242Y-136461903D01*
X138502242Y-136461903D02*
X138597480Y-136414284D01*
X138597480Y-136414284D02*
X138645100Y-136366665D01*
X138645100Y-136366665D02*
X138692719Y-136271427D01*
X138692719Y-136271427D02*
X138692719Y-136080951D01*
X138692719Y-136080951D02*
X138645100Y-135985713D01*
X138645100Y-135985713D02*
X138597480Y-135938094D01*
X138597480Y-135938094D02*
X138502242Y-135890475D01*
X138502242Y-135890475D02*
X138311766Y-135890475D01*
X138311766Y-135890475D02*
X138216528Y-135938094D01*
X138216528Y-135938094D02*
X138168909Y-135985713D01*
X138168909Y-135985713D02*
X138121290Y-136080951D01*
X138026052Y-135033332D02*
X138692719Y-135033332D01*
X137645100Y-135271427D02*
X138359385Y-135509522D01*
X138359385Y-135509522D02*
X138359385Y-134890475D01*
X105692719Y-86364285D02*
X104692719Y-86364285D01*
X104692719Y-86364285D02*
X104692719Y-85983333D01*
X104692719Y-85983333D02*
X104740338Y-85888095D01*
X104740338Y-85888095D02*
X104787957Y-85840476D01*
X104787957Y-85840476D02*
X104883195Y-85792857D01*
X104883195Y-85792857D02*
X105026052Y-85792857D01*
X105026052Y-85792857D02*
X105121290Y-85840476D01*
X105121290Y-85840476D02*
X105168909Y-85888095D01*
X105168909Y-85888095D02*
X105216528Y-85983333D01*
X105216528Y-85983333D02*
X105216528Y-86364285D01*
X105026052Y-84935714D02*
X105692719Y-84935714D01*
X104645100Y-85173809D02*
X105359385Y-85411904D01*
X105359385Y-85411904D02*
X105359385Y-84792857D01*
X105692719Y-83888095D02*
X105692719Y-84459523D01*
X105692719Y-84173809D02*
X104692719Y-84173809D01*
X104692719Y-84173809D02*
X104835576Y-84269047D01*
X104835576Y-84269047D02*
X104930814Y-84364285D01*
X104930814Y-84364285D02*
X104978433Y-84459523D01*
X105692719Y-129514284D02*
X104692719Y-129514284D01*
X104692719Y-129514284D02*
X104692719Y-129133332D01*
X104692719Y-129133332D02*
X104740338Y-129038094D01*
X104740338Y-129038094D02*
X104787957Y-128990475D01*
X104787957Y-128990475D02*
X104883195Y-128942856D01*
X104883195Y-128942856D02*
X105026052Y-128942856D01*
X105026052Y-128942856D02*
X105121290Y-128990475D01*
X105121290Y-128990475D02*
X105168909Y-129038094D01*
X105168909Y-129038094D02*
X105216528Y-129133332D01*
X105216528Y-129133332D02*
X105216528Y-129514284D01*
X104692719Y-128038094D02*
X104692719Y-128514284D01*
X104692719Y-128514284D02*
X105168909Y-128561903D01*
X105168909Y-128561903D02*
X105121290Y-128514284D01*
X105121290Y-128514284D02*
X105073671Y-128419046D01*
X105073671Y-128419046D02*
X105073671Y-128180951D01*
X105073671Y-128180951D02*
X105121290Y-128085713D01*
X105121290Y-128085713D02*
X105168909Y-128038094D01*
X105168909Y-128038094D02*
X105264147Y-127990475D01*
X105264147Y-127990475D02*
X105502242Y-127990475D01*
X105502242Y-127990475D02*
X105597480Y-128038094D01*
X105597480Y-128038094D02*
X105645100Y-128085713D01*
X105645100Y-128085713D02*
X105692719Y-128180951D01*
X105692719Y-128180951D02*
X105692719Y-128419046D01*
X105692719Y-128419046D02*
X105645100Y-128514284D01*
X105645100Y-128514284D02*
X105597480Y-128561903D01*
X104787957Y-127609522D02*
X104740338Y-127561903D01*
X104740338Y-127561903D02*
X104692719Y-127466665D01*
X104692719Y-127466665D02*
X104692719Y-127228570D01*
X104692719Y-127228570D02*
X104740338Y-127133332D01*
X104740338Y-127133332D02*
X104787957Y-127085713D01*
X104787957Y-127085713D02*
X104883195Y-127038094D01*
X104883195Y-127038094D02*
X104978433Y-127038094D01*
X104978433Y-127038094D02*
X105121290Y-127085713D01*
X105121290Y-127085713D02*
X105692719Y-127657141D01*
X105692719Y-127657141D02*
X105692719Y-127038094D01*
X98448614Y-63654819D02*
X98448614Y-62654819D01*
X98448614Y-62654819D02*
X98829566Y-62654819D01*
X98829566Y-62654819D02*
X98924804Y-62702438D01*
X98924804Y-62702438D02*
X98972423Y-62750057D01*
X98972423Y-62750057D02*
X99020042Y-62845295D01*
X99020042Y-62845295D02*
X99020042Y-62988152D01*
X99020042Y-62988152D02*
X98972423Y-63083390D01*
X98972423Y-63083390D02*
X98924804Y-63131009D01*
X98924804Y-63131009D02*
X98829566Y-63178628D01*
X98829566Y-63178628D02*
X98448614Y-63178628D01*
X99353376Y-62654819D02*
X99972423Y-62654819D01*
X99972423Y-62654819D02*
X99639090Y-63035771D01*
X99639090Y-63035771D02*
X99781947Y-63035771D01*
X99781947Y-63035771D02*
X99877185Y-63083390D01*
X99877185Y-63083390D02*
X99924804Y-63131009D01*
X99924804Y-63131009D02*
X99972423Y-63226247D01*
X99972423Y-63226247D02*
X99972423Y-63464342D01*
X99972423Y-63464342D02*
X99924804Y-63559580D01*
X99924804Y-63559580D02*
X99877185Y-63607200D01*
X99877185Y-63607200D02*
X99781947Y-63654819D01*
X99781947Y-63654819D02*
X99496233Y-63654819D01*
X99496233Y-63654819D02*
X99400995Y-63607200D01*
X99400995Y-63607200D02*
X99353376Y-63559580D01*
X100353376Y-62750057D02*
X100400995Y-62702438D01*
X100400995Y-62702438D02*
X100496233Y-62654819D01*
X100496233Y-62654819D02*
X100734328Y-62654819D01*
X100734328Y-62654819D02*
X100829566Y-62702438D01*
X100829566Y-62702438D02*
X100877185Y-62750057D01*
X100877185Y-62750057D02*
X100924804Y-62845295D01*
X100924804Y-62845295D02*
X100924804Y-62940533D01*
X100924804Y-62940533D02*
X100877185Y-63083390D01*
X100877185Y-63083390D02*
X100305757Y-63654819D01*
X100305757Y-63654819D02*
X100924804Y-63654819D01*
X98448614Y-59454818D02*
X98448614Y-58454818D01*
X98448614Y-58454818D02*
X98829566Y-58454818D01*
X98829566Y-58454818D02*
X98924804Y-58502437D01*
X98924804Y-58502437D02*
X98972423Y-58550056D01*
X98972423Y-58550056D02*
X99020042Y-58645294D01*
X99020042Y-58645294D02*
X99020042Y-58788151D01*
X99020042Y-58788151D02*
X98972423Y-58883389D01*
X98972423Y-58883389D02*
X98924804Y-58931008D01*
X98924804Y-58931008D02*
X98829566Y-58978627D01*
X98829566Y-58978627D02*
X98448614Y-58978627D01*
X99353376Y-58454818D02*
X99972423Y-58454818D01*
X99972423Y-58454818D02*
X99639090Y-58835770D01*
X99639090Y-58835770D02*
X99781947Y-58835770D01*
X99781947Y-58835770D02*
X99877185Y-58883389D01*
X99877185Y-58883389D02*
X99924804Y-58931008D01*
X99924804Y-58931008D02*
X99972423Y-59026246D01*
X99972423Y-59026246D02*
X99972423Y-59264341D01*
X99972423Y-59264341D02*
X99924804Y-59359579D01*
X99924804Y-59359579D02*
X99877185Y-59407199D01*
X99877185Y-59407199D02*
X99781947Y-59454818D01*
X99781947Y-59454818D02*
X99496233Y-59454818D01*
X99496233Y-59454818D02*
X99400995Y-59407199D01*
X99400995Y-59407199D02*
X99353376Y-59359579D01*
X100305757Y-58454818D02*
X100924804Y-58454818D01*
X100924804Y-58454818D02*
X100591471Y-58835770D01*
X100591471Y-58835770D02*
X100734328Y-58835770D01*
X100734328Y-58835770D02*
X100829566Y-58883389D01*
X100829566Y-58883389D02*
X100877185Y-58931008D01*
X100877185Y-58931008D02*
X100924804Y-59026246D01*
X100924804Y-59026246D02*
X100924804Y-59264341D01*
X100924804Y-59264341D02*
X100877185Y-59359579D01*
X100877185Y-59359579D02*
X100829566Y-59407199D01*
X100829566Y-59407199D02*
X100734328Y-59454818D01*
X100734328Y-59454818D02*
X100448614Y-59454818D01*
X100448614Y-59454818D02*
X100353376Y-59407199D01*
X100353376Y-59407199D02*
X100305757Y-59359579D01*
X105692720Y-121714284D02*
X104692720Y-121714284D01*
X104692720Y-121714284D02*
X104692720Y-121333332D01*
X104692720Y-121333332D02*
X104740339Y-121238094D01*
X104740339Y-121238094D02*
X104787958Y-121190475D01*
X104787958Y-121190475D02*
X104883196Y-121142856D01*
X104883196Y-121142856D02*
X105026053Y-121142856D01*
X105026053Y-121142856D02*
X105121291Y-121190475D01*
X105121291Y-121190475D02*
X105168910Y-121238094D01*
X105168910Y-121238094D02*
X105216529Y-121333332D01*
X105216529Y-121333332D02*
X105216529Y-121714284D01*
X104692720Y-120238094D02*
X104692720Y-120714284D01*
X104692720Y-120714284D02*
X105168910Y-120761903D01*
X105168910Y-120761903D02*
X105121291Y-120714284D01*
X105121291Y-120714284D02*
X105073672Y-120619046D01*
X105073672Y-120619046D02*
X105073672Y-120380951D01*
X105073672Y-120380951D02*
X105121291Y-120285713D01*
X105121291Y-120285713D02*
X105168910Y-120238094D01*
X105168910Y-120238094D02*
X105264148Y-120190475D01*
X105264148Y-120190475D02*
X105502243Y-120190475D01*
X105502243Y-120190475D02*
X105597481Y-120238094D01*
X105597481Y-120238094D02*
X105645101Y-120285713D01*
X105645101Y-120285713D02*
X105692720Y-120380951D01*
X105692720Y-120380951D02*
X105692720Y-120619046D01*
X105692720Y-120619046D02*
X105645101Y-120714284D01*
X105645101Y-120714284D02*
X105597481Y-120761903D01*
X104692720Y-119571427D02*
X104692720Y-119476189D01*
X104692720Y-119476189D02*
X104740339Y-119380951D01*
X104740339Y-119380951D02*
X104787958Y-119333332D01*
X104787958Y-119333332D02*
X104883196Y-119285713D01*
X104883196Y-119285713D02*
X105073672Y-119238094D01*
X105073672Y-119238094D02*
X105311767Y-119238094D01*
X105311767Y-119238094D02*
X105502243Y-119285713D01*
X105502243Y-119285713D02*
X105597481Y-119333332D01*
X105597481Y-119333332D02*
X105645101Y-119380951D01*
X105645101Y-119380951D02*
X105692720Y-119476189D01*
X105692720Y-119476189D02*
X105692720Y-119571427D01*
X105692720Y-119571427D02*
X105645101Y-119666665D01*
X105645101Y-119666665D02*
X105597481Y-119714284D01*
X105597481Y-119714284D02*
X105502243Y-119761903D01*
X105502243Y-119761903D02*
X105311767Y-119809522D01*
X105311767Y-119809522D02*
X105073672Y-119809522D01*
X105073672Y-119809522D02*
X104883196Y-119761903D01*
X104883196Y-119761903D02*
X104787958Y-119714284D01*
X104787958Y-119714284D02*
X104740339Y-119666665D01*
X104740339Y-119666665D02*
X104692720Y-119571427D01*
X105692720Y-58464284D02*
X104692720Y-58464284D01*
X104692720Y-58464284D02*
X104692720Y-58083332D01*
X104692720Y-58083332D02*
X104740339Y-57988094D01*
X104740339Y-57988094D02*
X104787958Y-57940475D01*
X104787958Y-57940475D02*
X104883196Y-57892856D01*
X104883196Y-57892856D02*
X105026053Y-57892856D01*
X105026053Y-57892856D02*
X105121291Y-57940475D01*
X105121291Y-57940475D02*
X105168910Y-57988094D01*
X105168910Y-57988094D02*
X105216529Y-58083332D01*
X105216529Y-58083332D02*
X105216529Y-58464284D01*
X104692720Y-57559522D02*
X104692720Y-56940475D01*
X104692720Y-56940475D02*
X105073672Y-57273808D01*
X105073672Y-57273808D02*
X105073672Y-57130951D01*
X105073672Y-57130951D02*
X105121291Y-57035713D01*
X105121291Y-57035713D02*
X105168910Y-56988094D01*
X105168910Y-56988094D02*
X105264148Y-56940475D01*
X105264148Y-56940475D02*
X105502243Y-56940475D01*
X105502243Y-56940475D02*
X105597481Y-56988094D01*
X105597481Y-56988094D02*
X105645101Y-57035713D01*
X105645101Y-57035713D02*
X105692720Y-57130951D01*
X105692720Y-57130951D02*
X105692720Y-57416665D01*
X105692720Y-57416665D02*
X105645101Y-57511903D01*
X105645101Y-57511903D02*
X105597481Y-57559522D01*
X105026053Y-56083332D02*
X105692720Y-56083332D01*
X104645101Y-56321427D02*
X105359386Y-56559522D01*
X105359386Y-56559522D02*
X105359386Y-55940475D01*
X105692719Y-62464285D02*
X104692719Y-62464285D01*
X104692719Y-62464285D02*
X104692719Y-62083333D01*
X104692719Y-62083333D02*
X104740338Y-61988095D01*
X104740338Y-61988095D02*
X104787957Y-61940476D01*
X104787957Y-61940476D02*
X104883195Y-61892857D01*
X104883195Y-61892857D02*
X105026052Y-61892857D01*
X105026052Y-61892857D02*
X105121290Y-61940476D01*
X105121290Y-61940476D02*
X105168909Y-61988095D01*
X105168909Y-61988095D02*
X105216528Y-62083333D01*
X105216528Y-62083333D02*
X105216528Y-62464285D01*
X104692719Y-61559523D02*
X104692719Y-60940476D01*
X104692719Y-60940476D02*
X105073671Y-61273809D01*
X105073671Y-61273809D02*
X105073671Y-61130952D01*
X105073671Y-61130952D02*
X105121290Y-61035714D01*
X105121290Y-61035714D02*
X105168909Y-60988095D01*
X105168909Y-60988095D02*
X105264147Y-60940476D01*
X105264147Y-60940476D02*
X105502242Y-60940476D01*
X105502242Y-60940476D02*
X105597480Y-60988095D01*
X105597480Y-60988095D02*
X105645100Y-61035714D01*
X105645100Y-61035714D02*
X105692719Y-61130952D01*
X105692719Y-61130952D02*
X105692719Y-61416666D01*
X105692719Y-61416666D02*
X105645100Y-61511904D01*
X105645100Y-61511904D02*
X105597480Y-61559523D01*
X104692719Y-60035714D02*
X104692719Y-60511904D01*
X104692719Y-60511904D02*
X105168909Y-60559523D01*
X105168909Y-60559523D02*
X105121290Y-60511904D01*
X105121290Y-60511904D02*
X105073671Y-60416666D01*
X105073671Y-60416666D02*
X105073671Y-60178571D01*
X105073671Y-60178571D02*
X105121290Y-60083333D01*
X105121290Y-60083333D02*
X105168909Y-60035714D01*
X105168909Y-60035714D02*
X105264147Y-59988095D01*
X105264147Y-59988095D02*
X105502242Y-59988095D01*
X105502242Y-59988095D02*
X105597480Y-60035714D01*
X105597480Y-60035714D02*
X105645100Y-60083333D01*
X105645100Y-60083333D02*
X105692719Y-60178571D01*
X105692719Y-60178571D02*
X105692719Y-60416666D01*
X105692719Y-60416666D02*
X105645100Y-60511904D01*
X105645100Y-60511904D02*
X105597480Y-60559523D01*
X105692719Y-141314284D02*
X104692719Y-141314284D01*
X104692719Y-141314284D02*
X104692719Y-140933332D01*
X104692719Y-140933332D02*
X104740338Y-140838094D01*
X104740338Y-140838094D02*
X104787957Y-140790475D01*
X104787957Y-140790475D02*
X104883195Y-140742856D01*
X104883195Y-140742856D02*
X105026052Y-140742856D01*
X105026052Y-140742856D02*
X105121290Y-140790475D01*
X105121290Y-140790475D02*
X105168909Y-140838094D01*
X105168909Y-140838094D02*
X105216528Y-140933332D01*
X105216528Y-140933332D02*
X105216528Y-141314284D01*
X104692719Y-139838094D02*
X104692719Y-140314284D01*
X104692719Y-140314284D02*
X105168909Y-140361903D01*
X105168909Y-140361903D02*
X105121290Y-140314284D01*
X105121290Y-140314284D02*
X105073671Y-140219046D01*
X105073671Y-140219046D02*
X105073671Y-139980951D01*
X105073671Y-139980951D02*
X105121290Y-139885713D01*
X105121290Y-139885713D02*
X105168909Y-139838094D01*
X105168909Y-139838094D02*
X105264147Y-139790475D01*
X105264147Y-139790475D02*
X105502242Y-139790475D01*
X105502242Y-139790475D02*
X105597480Y-139838094D01*
X105597480Y-139838094D02*
X105645100Y-139885713D01*
X105645100Y-139885713D02*
X105692719Y-139980951D01*
X105692719Y-139980951D02*
X105692719Y-140219046D01*
X105692719Y-140219046D02*
X105645100Y-140314284D01*
X105645100Y-140314284D02*
X105597480Y-140361903D01*
X104692719Y-138885713D02*
X104692719Y-139361903D01*
X104692719Y-139361903D02*
X105168909Y-139409522D01*
X105168909Y-139409522D02*
X105121290Y-139361903D01*
X105121290Y-139361903D02*
X105073671Y-139266665D01*
X105073671Y-139266665D02*
X105073671Y-139028570D01*
X105073671Y-139028570D02*
X105121290Y-138933332D01*
X105121290Y-138933332D02*
X105168909Y-138885713D01*
X105168909Y-138885713D02*
X105264147Y-138838094D01*
X105264147Y-138838094D02*
X105502242Y-138838094D01*
X105502242Y-138838094D02*
X105597480Y-138885713D01*
X105597480Y-138885713D02*
X105645100Y-138933332D01*
X105645100Y-138933332D02*
X105692719Y-139028570D01*
X105692719Y-139028570D02*
X105692719Y-139266665D01*
X105692719Y-139266665D02*
X105645100Y-139361903D01*
X105645100Y-139361903D02*
X105597480Y-139409522D01*
X105692720Y-113914284D02*
X104692720Y-113914284D01*
X104692720Y-113914284D02*
X104692720Y-113533332D01*
X104692720Y-113533332D02*
X104740339Y-113438094D01*
X104740339Y-113438094D02*
X104787958Y-113390475D01*
X104787958Y-113390475D02*
X104883196Y-113342856D01*
X104883196Y-113342856D02*
X105026053Y-113342856D01*
X105026053Y-113342856D02*
X105121291Y-113390475D01*
X105121291Y-113390475D02*
X105168910Y-113438094D01*
X105168910Y-113438094D02*
X105216529Y-113533332D01*
X105216529Y-113533332D02*
X105216529Y-113914284D01*
X105026053Y-112485713D02*
X105692720Y-112485713D01*
X104645101Y-112723808D02*
X105359386Y-112961903D01*
X105359386Y-112961903D02*
X105359386Y-112342856D01*
X105121291Y-111819046D02*
X105073672Y-111914284D01*
X105073672Y-111914284D02*
X105026053Y-111961903D01*
X105026053Y-111961903D02*
X104930815Y-112009522D01*
X104930815Y-112009522D02*
X104883196Y-112009522D01*
X104883196Y-112009522D02*
X104787958Y-111961903D01*
X104787958Y-111961903D02*
X104740339Y-111914284D01*
X104740339Y-111914284D02*
X104692720Y-111819046D01*
X104692720Y-111819046D02*
X104692720Y-111628570D01*
X104692720Y-111628570D02*
X104740339Y-111533332D01*
X104740339Y-111533332D02*
X104787958Y-111485713D01*
X104787958Y-111485713D02*
X104883196Y-111438094D01*
X104883196Y-111438094D02*
X104930815Y-111438094D01*
X104930815Y-111438094D02*
X105026053Y-111485713D01*
X105026053Y-111485713D02*
X105073672Y-111533332D01*
X105073672Y-111533332D02*
X105121291Y-111628570D01*
X105121291Y-111628570D02*
X105121291Y-111819046D01*
X105121291Y-111819046D02*
X105168910Y-111914284D01*
X105168910Y-111914284D02*
X105216529Y-111961903D01*
X105216529Y-111961903D02*
X105311767Y-112009522D01*
X105311767Y-112009522D02*
X105502243Y-112009522D01*
X105502243Y-112009522D02*
X105597481Y-111961903D01*
X105597481Y-111961903D02*
X105645101Y-111914284D01*
X105645101Y-111914284D02*
X105692720Y-111819046D01*
X105692720Y-111819046D02*
X105692720Y-111628570D01*
X105692720Y-111628570D02*
X105645101Y-111533332D01*
X105645101Y-111533332D02*
X105597481Y-111485713D01*
X105597481Y-111485713D02*
X105502243Y-111438094D01*
X105502243Y-111438094D02*
X105311767Y-111438094D01*
X105311767Y-111438094D02*
X105216529Y-111485713D01*
X105216529Y-111485713D02*
X105168910Y-111533332D01*
X105168910Y-111533332D02*
X105121291Y-111628570D01*
X105692719Y-117814284D02*
X104692719Y-117814284D01*
X104692719Y-117814284D02*
X104692719Y-117433332D01*
X104692719Y-117433332D02*
X104740338Y-117338094D01*
X104740338Y-117338094D02*
X104787957Y-117290475D01*
X104787957Y-117290475D02*
X104883195Y-117242856D01*
X104883195Y-117242856D02*
X105026052Y-117242856D01*
X105026052Y-117242856D02*
X105121290Y-117290475D01*
X105121290Y-117290475D02*
X105168909Y-117338094D01*
X105168909Y-117338094D02*
X105216528Y-117433332D01*
X105216528Y-117433332D02*
X105216528Y-117814284D01*
X105026052Y-116385713D02*
X105692719Y-116385713D01*
X104645100Y-116623808D02*
X105359385Y-116861903D01*
X105359385Y-116861903D02*
X105359385Y-116242856D01*
X105692719Y-115814284D02*
X105692719Y-115623808D01*
X105692719Y-115623808D02*
X105645100Y-115528570D01*
X105645100Y-115528570D02*
X105597480Y-115480951D01*
X105597480Y-115480951D02*
X105454623Y-115385713D01*
X105454623Y-115385713D02*
X105264147Y-115338094D01*
X105264147Y-115338094D02*
X104883195Y-115338094D01*
X104883195Y-115338094D02*
X104787957Y-115385713D01*
X104787957Y-115385713D02*
X104740338Y-115433332D01*
X104740338Y-115433332D02*
X104692719Y-115528570D01*
X104692719Y-115528570D02*
X104692719Y-115719046D01*
X104692719Y-115719046D02*
X104740338Y-115814284D01*
X104740338Y-115814284D02*
X104787957Y-115861903D01*
X104787957Y-115861903D02*
X104883195Y-115909522D01*
X104883195Y-115909522D02*
X105121290Y-115909522D01*
X105121290Y-115909522D02*
X105216528Y-115861903D01*
X105216528Y-115861903D02*
X105264147Y-115814284D01*
X105264147Y-115814284D02*
X105311766Y-115719046D01*
X105311766Y-115719046D02*
X105311766Y-115528570D01*
X105311766Y-115528570D02*
X105264147Y-115433332D01*
X105264147Y-115433332D02*
X105216528Y-115385713D01*
X105216528Y-115385713D02*
X105121290Y-115338094D01*
X105692719Y-145214284D02*
X104692719Y-145214284D01*
X104692719Y-145214284D02*
X104692719Y-144833332D01*
X104692719Y-144833332D02*
X104740338Y-144738094D01*
X104740338Y-144738094D02*
X104787957Y-144690475D01*
X104787957Y-144690475D02*
X104883195Y-144642856D01*
X104883195Y-144642856D02*
X105026052Y-144642856D01*
X105026052Y-144642856D02*
X105121290Y-144690475D01*
X105121290Y-144690475D02*
X105168909Y-144738094D01*
X105168909Y-144738094D02*
X105216528Y-144833332D01*
X105216528Y-144833332D02*
X105216528Y-145214284D01*
X104692719Y-143738094D02*
X104692719Y-144214284D01*
X104692719Y-144214284D02*
X105168909Y-144261903D01*
X105168909Y-144261903D02*
X105121290Y-144214284D01*
X105121290Y-144214284D02*
X105073671Y-144119046D01*
X105073671Y-144119046D02*
X105073671Y-143880951D01*
X105073671Y-143880951D02*
X105121290Y-143785713D01*
X105121290Y-143785713D02*
X105168909Y-143738094D01*
X105168909Y-143738094D02*
X105264147Y-143690475D01*
X105264147Y-143690475D02*
X105502242Y-143690475D01*
X105502242Y-143690475D02*
X105597480Y-143738094D01*
X105597480Y-143738094D02*
X105645100Y-143785713D01*
X105645100Y-143785713D02*
X105692719Y-143880951D01*
X105692719Y-143880951D02*
X105692719Y-144119046D01*
X105692719Y-144119046D02*
X105645100Y-144214284D01*
X105645100Y-144214284D02*
X105597480Y-144261903D01*
X104692719Y-142833332D02*
X104692719Y-143023808D01*
X104692719Y-143023808D02*
X104740338Y-143119046D01*
X104740338Y-143119046D02*
X104787957Y-143166665D01*
X104787957Y-143166665D02*
X104930814Y-143261903D01*
X104930814Y-143261903D02*
X105121290Y-143309522D01*
X105121290Y-143309522D02*
X105502242Y-143309522D01*
X105502242Y-143309522D02*
X105597480Y-143261903D01*
X105597480Y-143261903D02*
X105645100Y-143214284D01*
X105645100Y-143214284D02*
X105692719Y-143119046D01*
X105692719Y-143119046D02*
X105692719Y-142928570D01*
X105692719Y-142928570D02*
X105645100Y-142833332D01*
X105645100Y-142833332D02*
X105597480Y-142785713D01*
X105597480Y-142785713D02*
X105502242Y-142738094D01*
X105502242Y-142738094D02*
X105264147Y-142738094D01*
X105264147Y-142738094D02*
X105168909Y-142785713D01*
X105168909Y-142785713D02*
X105121290Y-142833332D01*
X105121290Y-142833332D02*
X105073671Y-142928570D01*
X105073671Y-142928570D02*
X105073671Y-143119046D01*
X105073671Y-143119046D02*
X105121290Y-143214284D01*
X105121290Y-143214284D02*
X105168909Y-143261903D01*
X105168909Y-143261903D02*
X105264147Y-143309522D01*
X105692719Y-125614284D02*
X104692719Y-125614284D01*
X104692719Y-125614284D02*
X104692719Y-125233332D01*
X104692719Y-125233332D02*
X104740338Y-125138094D01*
X104740338Y-125138094D02*
X104787957Y-125090475D01*
X104787957Y-125090475D02*
X104883195Y-125042856D01*
X104883195Y-125042856D02*
X105026052Y-125042856D01*
X105026052Y-125042856D02*
X105121290Y-125090475D01*
X105121290Y-125090475D02*
X105168909Y-125138094D01*
X105168909Y-125138094D02*
X105216528Y-125233332D01*
X105216528Y-125233332D02*
X105216528Y-125614284D01*
X104692719Y-124138094D02*
X104692719Y-124614284D01*
X104692719Y-124614284D02*
X105168909Y-124661903D01*
X105168909Y-124661903D02*
X105121290Y-124614284D01*
X105121290Y-124614284D02*
X105073671Y-124519046D01*
X105073671Y-124519046D02*
X105073671Y-124280951D01*
X105073671Y-124280951D02*
X105121290Y-124185713D01*
X105121290Y-124185713D02*
X105168909Y-124138094D01*
X105168909Y-124138094D02*
X105264147Y-124090475D01*
X105264147Y-124090475D02*
X105502242Y-124090475D01*
X105502242Y-124090475D02*
X105597480Y-124138094D01*
X105597480Y-124138094D02*
X105645100Y-124185713D01*
X105645100Y-124185713D02*
X105692719Y-124280951D01*
X105692719Y-124280951D02*
X105692719Y-124519046D01*
X105692719Y-124519046D02*
X105645100Y-124614284D01*
X105645100Y-124614284D02*
X105597480Y-124661903D01*
X105692719Y-123138094D02*
X105692719Y-123709522D01*
X105692719Y-123423808D02*
X104692719Y-123423808D01*
X104692719Y-123423808D02*
X104835576Y-123519046D01*
X104835576Y-123519046D02*
X104930814Y-123614284D01*
X104930814Y-123614284D02*
X104978433Y-123709522D01*
X105692719Y-149214284D02*
X104692719Y-149214284D01*
X104692719Y-149214284D02*
X104692719Y-148833332D01*
X104692719Y-148833332D02*
X104740338Y-148738094D01*
X104740338Y-148738094D02*
X104787957Y-148690475D01*
X104787957Y-148690475D02*
X104883195Y-148642856D01*
X104883195Y-148642856D02*
X105026052Y-148642856D01*
X105026052Y-148642856D02*
X105121290Y-148690475D01*
X105121290Y-148690475D02*
X105168909Y-148738094D01*
X105168909Y-148738094D02*
X105216528Y-148833332D01*
X105216528Y-148833332D02*
X105216528Y-149214284D01*
X104692719Y-147738094D02*
X104692719Y-148214284D01*
X104692719Y-148214284D02*
X105168909Y-148261903D01*
X105168909Y-148261903D02*
X105121290Y-148214284D01*
X105121290Y-148214284D02*
X105073671Y-148119046D01*
X105073671Y-148119046D02*
X105073671Y-147880951D01*
X105073671Y-147880951D02*
X105121290Y-147785713D01*
X105121290Y-147785713D02*
X105168909Y-147738094D01*
X105168909Y-147738094D02*
X105264147Y-147690475D01*
X105264147Y-147690475D02*
X105502242Y-147690475D01*
X105502242Y-147690475D02*
X105597480Y-147738094D01*
X105597480Y-147738094D02*
X105645100Y-147785713D01*
X105645100Y-147785713D02*
X105692719Y-147880951D01*
X105692719Y-147880951D02*
X105692719Y-148119046D01*
X105692719Y-148119046D02*
X105645100Y-148214284D01*
X105645100Y-148214284D02*
X105597480Y-148261903D01*
X104692719Y-147357141D02*
X104692719Y-146690475D01*
X104692719Y-146690475D02*
X105692719Y-147119046D01*
X105692719Y-94214284D02*
X104692719Y-94214284D01*
X104692719Y-94214284D02*
X104692719Y-93833332D01*
X104692719Y-93833332D02*
X104740338Y-93738094D01*
X104740338Y-93738094D02*
X104787957Y-93690475D01*
X104787957Y-93690475D02*
X104883195Y-93642856D01*
X104883195Y-93642856D02*
X105026052Y-93642856D01*
X105026052Y-93642856D02*
X105121290Y-93690475D01*
X105121290Y-93690475D02*
X105168909Y-93738094D01*
X105168909Y-93738094D02*
X105216528Y-93833332D01*
X105216528Y-93833332D02*
X105216528Y-94214284D01*
X105026052Y-92785713D02*
X105692719Y-92785713D01*
X104645100Y-93023808D02*
X105359385Y-93261903D01*
X105359385Y-93261903D02*
X105359385Y-92642856D01*
X104692719Y-92357141D02*
X104692719Y-91738094D01*
X104692719Y-91738094D02*
X105073671Y-92071427D01*
X105073671Y-92071427D02*
X105073671Y-91928570D01*
X105073671Y-91928570D02*
X105121290Y-91833332D01*
X105121290Y-91833332D02*
X105168909Y-91785713D01*
X105168909Y-91785713D02*
X105264147Y-91738094D01*
X105264147Y-91738094D02*
X105502242Y-91738094D01*
X105502242Y-91738094D02*
X105597480Y-91785713D01*
X105597480Y-91785713D02*
X105645100Y-91833332D01*
X105645100Y-91833332D02*
X105692719Y-91928570D01*
X105692719Y-91928570D02*
X105692719Y-92214284D01*
X105692719Y-92214284D02*
X105645100Y-92309522D01*
X105645100Y-92309522D02*
X105597480Y-92357141D01*
X89686389Y-54573408D02*
X89686389Y-55287693D01*
X89686389Y-55287693D02*
X89638770Y-55430550D01*
X89638770Y-55430550D02*
X89543532Y-55525789D01*
X89543532Y-55525789D02*
X89400675Y-55573408D01*
X89400675Y-55573408D02*
X89305437Y-55573408D01*
X90067342Y-54573408D02*
X90734008Y-54573408D01*
X90734008Y-54573408D02*
X90305437Y-55573408D01*
X98448615Y-67954819D02*
X98448615Y-66954819D01*
X98448615Y-66954819D02*
X98829567Y-66954819D01*
X98829567Y-66954819D02*
X98924805Y-67002438D01*
X98924805Y-67002438D02*
X98972424Y-67050057D01*
X98972424Y-67050057D02*
X99020043Y-67145295D01*
X99020043Y-67145295D02*
X99020043Y-67288152D01*
X99020043Y-67288152D02*
X98972424Y-67383390D01*
X98972424Y-67383390D02*
X98924805Y-67431009D01*
X98924805Y-67431009D02*
X98829567Y-67478628D01*
X98829567Y-67478628D02*
X98448615Y-67478628D01*
X99353377Y-66954819D02*
X99972424Y-66954819D01*
X99972424Y-66954819D02*
X99639091Y-67335771D01*
X99639091Y-67335771D02*
X99781948Y-67335771D01*
X99781948Y-67335771D02*
X99877186Y-67383390D01*
X99877186Y-67383390D02*
X99924805Y-67431009D01*
X99924805Y-67431009D02*
X99972424Y-67526247D01*
X99972424Y-67526247D02*
X99972424Y-67764342D01*
X99972424Y-67764342D02*
X99924805Y-67859580D01*
X99924805Y-67859580D02*
X99877186Y-67907200D01*
X99877186Y-67907200D02*
X99781948Y-67954819D01*
X99781948Y-67954819D02*
X99496234Y-67954819D01*
X99496234Y-67954819D02*
X99400996Y-67907200D01*
X99400996Y-67907200D02*
X99353377Y-67859580D01*
X100924805Y-67954819D02*
X100353377Y-67954819D01*
X100639091Y-67954819D02*
X100639091Y-66954819D01*
X100639091Y-66954819D02*
X100543853Y-67097676D01*
X100543853Y-67097676D02*
X100448615Y-67192914D01*
X100448615Y-67192914D02*
X100353377Y-67240533D01*
X105692719Y-74464284D02*
X104692719Y-74464284D01*
X104692719Y-74464284D02*
X104692719Y-74083332D01*
X104692719Y-74083332D02*
X104740338Y-73988094D01*
X104740338Y-73988094D02*
X104787957Y-73940475D01*
X104787957Y-73940475D02*
X104883195Y-73892856D01*
X104883195Y-73892856D02*
X105026052Y-73892856D01*
X105026052Y-73892856D02*
X105121290Y-73940475D01*
X105121290Y-73940475D02*
X105168909Y-73988094D01*
X105168909Y-73988094D02*
X105216528Y-74083332D01*
X105216528Y-74083332D02*
X105216528Y-74464284D01*
X104692719Y-73559522D02*
X104692719Y-72940475D01*
X104692719Y-72940475D02*
X105073671Y-73273808D01*
X105073671Y-73273808D02*
X105073671Y-73130951D01*
X105073671Y-73130951D02*
X105121290Y-73035713D01*
X105121290Y-73035713D02*
X105168909Y-72988094D01*
X105168909Y-72988094D02*
X105264147Y-72940475D01*
X105264147Y-72940475D02*
X105502242Y-72940475D01*
X105502242Y-72940475D02*
X105597480Y-72988094D01*
X105597480Y-72988094D02*
X105645100Y-73035713D01*
X105645100Y-73035713D02*
X105692719Y-73130951D01*
X105692719Y-73130951D02*
X105692719Y-73416665D01*
X105692719Y-73416665D02*
X105645100Y-73511903D01*
X105645100Y-73511903D02*
X105597480Y-73559522D01*
X105121290Y-72369046D02*
X105073671Y-72464284D01*
X105073671Y-72464284D02*
X105026052Y-72511903D01*
X105026052Y-72511903D02*
X104930814Y-72559522D01*
X104930814Y-72559522D02*
X104883195Y-72559522D01*
X104883195Y-72559522D02*
X104787957Y-72511903D01*
X104787957Y-72511903D02*
X104740338Y-72464284D01*
X104740338Y-72464284D02*
X104692719Y-72369046D01*
X104692719Y-72369046D02*
X104692719Y-72178570D01*
X104692719Y-72178570D02*
X104740338Y-72083332D01*
X104740338Y-72083332D02*
X104787957Y-72035713D01*
X104787957Y-72035713D02*
X104883195Y-71988094D01*
X104883195Y-71988094D02*
X104930814Y-71988094D01*
X104930814Y-71988094D02*
X105026052Y-72035713D01*
X105026052Y-72035713D02*
X105073671Y-72083332D01*
X105073671Y-72083332D02*
X105121290Y-72178570D01*
X105121290Y-72178570D02*
X105121290Y-72369046D01*
X105121290Y-72369046D02*
X105168909Y-72464284D01*
X105168909Y-72464284D02*
X105216528Y-72511903D01*
X105216528Y-72511903D02*
X105311766Y-72559522D01*
X105311766Y-72559522D02*
X105502242Y-72559522D01*
X105502242Y-72559522D02*
X105597480Y-72511903D01*
X105597480Y-72511903D02*
X105645100Y-72464284D01*
X105645100Y-72464284D02*
X105692719Y-72369046D01*
X105692719Y-72369046D02*
X105692719Y-72178570D01*
X105692719Y-72178570D02*
X105645100Y-72083332D01*
X105645100Y-72083332D02*
X105597480Y-72035713D01*
X105597480Y-72035713D02*
X105502242Y-71988094D01*
X105502242Y-71988094D02*
X105311766Y-71988094D01*
X105311766Y-71988094D02*
X105216528Y-72035713D01*
X105216528Y-72035713D02*
X105168909Y-72083332D01*
X105168909Y-72083332D02*
X105121290Y-72178570D01*
X105692719Y-153114284D02*
X104692719Y-153114284D01*
X104692719Y-153114284D02*
X104692719Y-152733332D01*
X104692719Y-152733332D02*
X104740338Y-152638094D01*
X104740338Y-152638094D02*
X104787957Y-152590475D01*
X104787957Y-152590475D02*
X104883195Y-152542856D01*
X104883195Y-152542856D02*
X105026052Y-152542856D01*
X105026052Y-152542856D02*
X105121290Y-152590475D01*
X105121290Y-152590475D02*
X105168909Y-152638094D01*
X105168909Y-152638094D02*
X105216528Y-152733332D01*
X105216528Y-152733332D02*
X105216528Y-153114284D01*
X104692719Y-151638094D02*
X104692719Y-152114284D01*
X104692719Y-152114284D02*
X105168909Y-152161903D01*
X105168909Y-152161903D02*
X105121290Y-152114284D01*
X105121290Y-152114284D02*
X105073671Y-152019046D01*
X105073671Y-152019046D02*
X105073671Y-151780951D01*
X105073671Y-151780951D02*
X105121290Y-151685713D01*
X105121290Y-151685713D02*
X105168909Y-151638094D01*
X105168909Y-151638094D02*
X105264147Y-151590475D01*
X105264147Y-151590475D02*
X105502242Y-151590475D01*
X105502242Y-151590475D02*
X105597480Y-151638094D01*
X105597480Y-151638094D02*
X105645100Y-151685713D01*
X105645100Y-151685713D02*
X105692719Y-151780951D01*
X105692719Y-151780951D02*
X105692719Y-152019046D01*
X105692719Y-152019046D02*
X105645100Y-152114284D01*
X105645100Y-152114284D02*
X105597480Y-152161903D01*
X105121290Y-151019046D02*
X105073671Y-151114284D01*
X105073671Y-151114284D02*
X105026052Y-151161903D01*
X105026052Y-151161903D02*
X104930814Y-151209522D01*
X104930814Y-151209522D02*
X104883195Y-151209522D01*
X104883195Y-151209522D02*
X104787957Y-151161903D01*
X104787957Y-151161903D02*
X104740338Y-151114284D01*
X104740338Y-151114284D02*
X104692719Y-151019046D01*
X104692719Y-151019046D02*
X104692719Y-150828570D01*
X104692719Y-150828570D02*
X104740338Y-150733332D01*
X104740338Y-150733332D02*
X104787957Y-150685713D01*
X104787957Y-150685713D02*
X104883195Y-150638094D01*
X104883195Y-150638094D02*
X104930814Y-150638094D01*
X104930814Y-150638094D02*
X105026052Y-150685713D01*
X105026052Y-150685713D02*
X105073671Y-150733332D01*
X105073671Y-150733332D02*
X105121290Y-150828570D01*
X105121290Y-150828570D02*
X105121290Y-151019046D01*
X105121290Y-151019046D02*
X105168909Y-151114284D01*
X105168909Y-151114284D02*
X105216528Y-151161903D01*
X105216528Y-151161903D02*
X105311766Y-151209522D01*
X105311766Y-151209522D02*
X105502242Y-151209522D01*
X105502242Y-151209522D02*
X105597480Y-151161903D01*
X105597480Y-151161903D02*
X105645100Y-151114284D01*
X105645100Y-151114284D02*
X105692719Y-151019046D01*
X105692719Y-151019046D02*
X105692719Y-150828570D01*
X105692719Y-150828570D02*
X105645100Y-150733332D01*
X105645100Y-150733332D02*
X105597480Y-150685713D01*
X105597480Y-150685713D02*
X105502242Y-150638094D01*
X105502242Y-150638094D02*
X105311766Y-150638094D01*
X105311766Y-150638094D02*
X105216528Y-150685713D01*
X105216528Y-150685713D02*
X105168909Y-150733332D01*
X105168909Y-150733332D02*
X105121290Y-150828570D01*
X105692720Y-98114284D02*
X104692720Y-98114284D01*
X104692720Y-98114284D02*
X104692720Y-97733332D01*
X104692720Y-97733332D02*
X104740339Y-97638094D01*
X104740339Y-97638094D02*
X104787958Y-97590475D01*
X104787958Y-97590475D02*
X104883196Y-97542856D01*
X104883196Y-97542856D02*
X105026053Y-97542856D01*
X105026053Y-97542856D02*
X105121291Y-97590475D01*
X105121291Y-97590475D02*
X105168910Y-97638094D01*
X105168910Y-97638094D02*
X105216529Y-97733332D01*
X105216529Y-97733332D02*
X105216529Y-98114284D01*
X105026053Y-96685713D02*
X105692720Y-96685713D01*
X104645101Y-96923808D02*
X105359386Y-97161903D01*
X105359386Y-97161903D02*
X105359386Y-96542856D01*
X105026053Y-95733332D02*
X105692720Y-95733332D01*
X104645101Y-95971427D02*
X105359386Y-96209522D01*
X105359386Y-96209522D02*
X105359386Y-95590475D01*
X84416389Y-54573408D02*
X84416389Y-55287693D01*
X84416389Y-55287693D02*
X84368770Y-55430550D01*
X84368770Y-55430550D02*
X84273532Y-55525789D01*
X84273532Y-55525789D02*
X84130675Y-55573408D01*
X84130675Y-55573408D02*
X84035437Y-55573408D01*
X85035437Y-55001979D02*
X84940199Y-54954360D01*
X84940199Y-54954360D02*
X84892580Y-54906741D01*
X84892580Y-54906741D02*
X84844961Y-54811503D01*
X84844961Y-54811503D02*
X84844961Y-54763884D01*
X84844961Y-54763884D02*
X84892580Y-54668646D01*
X84892580Y-54668646D02*
X84940199Y-54621027D01*
X84940199Y-54621027D02*
X85035437Y-54573408D01*
X85035437Y-54573408D02*
X85225913Y-54573408D01*
X85225913Y-54573408D02*
X85321151Y-54621027D01*
X85321151Y-54621027D02*
X85368770Y-54668646D01*
X85368770Y-54668646D02*
X85416389Y-54763884D01*
X85416389Y-54763884D02*
X85416389Y-54811503D01*
X85416389Y-54811503D02*
X85368770Y-54906741D01*
X85368770Y-54906741D02*
X85321151Y-54954360D01*
X85321151Y-54954360D02*
X85225913Y-55001979D01*
X85225913Y-55001979D02*
X85035437Y-55001979D01*
X85035437Y-55001979D02*
X84940199Y-55049598D01*
X84940199Y-55049598D02*
X84892580Y-55097217D01*
X84892580Y-55097217D02*
X84844961Y-55192455D01*
X84844961Y-55192455D02*
X84844961Y-55382931D01*
X84844961Y-55382931D02*
X84892580Y-55478169D01*
X84892580Y-55478169D02*
X84940199Y-55525789D01*
X84940199Y-55525789D02*
X85035437Y-55573408D01*
X85035437Y-55573408D02*
X85225913Y-55573408D01*
X85225913Y-55573408D02*
X85321151Y-55525789D01*
X85321151Y-55525789D02*
X85368770Y-55478169D01*
X85368770Y-55478169D02*
X85416389Y-55382931D01*
X85416389Y-55382931D02*
X85416389Y-55192455D01*
X85416389Y-55192455D02*
X85368770Y-55097217D01*
X85368770Y-55097217D02*
X85321151Y-55049598D01*
X85321151Y-55049598D02*
X85225913Y-55001979D01*
X105692719Y-70464284D02*
X104692719Y-70464284D01*
X104692719Y-70464284D02*
X104692719Y-70083332D01*
X104692719Y-70083332D02*
X104740338Y-69988094D01*
X104740338Y-69988094D02*
X104787957Y-69940475D01*
X104787957Y-69940475D02*
X104883195Y-69892856D01*
X104883195Y-69892856D02*
X105026052Y-69892856D01*
X105026052Y-69892856D02*
X105121290Y-69940475D01*
X105121290Y-69940475D02*
X105168909Y-69988094D01*
X105168909Y-69988094D02*
X105216528Y-70083332D01*
X105216528Y-70083332D02*
X105216528Y-70464284D01*
X104692719Y-69559522D02*
X104692719Y-68940475D01*
X104692719Y-68940475D02*
X105073671Y-69273808D01*
X105073671Y-69273808D02*
X105073671Y-69130951D01*
X105073671Y-69130951D02*
X105121290Y-69035713D01*
X105121290Y-69035713D02*
X105168909Y-68988094D01*
X105168909Y-68988094D02*
X105264147Y-68940475D01*
X105264147Y-68940475D02*
X105502242Y-68940475D01*
X105502242Y-68940475D02*
X105597480Y-68988094D01*
X105597480Y-68988094D02*
X105645100Y-69035713D01*
X105645100Y-69035713D02*
X105692719Y-69130951D01*
X105692719Y-69130951D02*
X105692719Y-69416665D01*
X105692719Y-69416665D02*
X105645100Y-69511903D01*
X105645100Y-69511903D02*
X105597480Y-69559522D01*
X104692719Y-68607141D02*
X104692719Y-67940475D01*
X104692719Y-67940475D02*
X105692719Y-68369046D01*
X105692719Y-66464284D02*
X104692719Y-66464284D01*
X104692719Y-66464284D02*
X104692719Y-66083332D01*
X104692719Y-66083332D02*
X104740338Y-65988094D01*
X104740338Y-65988094D02*
X104787957Y-65940475D01*
X104787957Y-65940475D02*
X104883195Y-65892856D01*
X104883195Y-65892856D02*
X105026052Y-65892856D01*
X105026052Y-65892856D02*
X105121290Y-65940475D01*
X105121290Y-65940475D02*
X105168909Y-65988094D01*
X105168909Y-65988094D02*
X105216528Y-66083332D01*
X105216528Y-66083332D02*
X105216528Y-66464284D01*
X104692719Y-65559522D02*
X104692719Y-64940475D01*
X104692719Y-64940475D02*
X105073671Y-65273808D01*
X105073671Y-65273808D02*
X105073671Y-65130951D01*
X105073671Y-65130951D02*
X105121290Y-65035713D01*
X105121290Y-65035713D02*
X105168909Y-64988094D01*
X105168909Y-64988094D02*
X105264147Y-64940475D01*
X105264147Y-64940475D02*
X105502242Y-64940475D01*
X105502242Y-64940475D02*
X105597480Y-64988094D01*
X105597480Y-64988094D02*
X105645100Y-65035713D01*
X105645100Y-65035713D02*
X105692719Y-65130951D01*
X105692719Y-65130951D02*
X105692719Y-65416665D01*
X105692719Y-65416665D02*
X105645100Y-65511903D01*
X105645100Y-65511903D02*
X105597480Y-65559522D01*
X104692719Y-64083332D02*
X104692719Y-64273808D01*
X104692719Y-64273808D02*
X104740338Y-64369046D01*
X104740338Y-64369046D02*
X104787957Y-64416665D01*
X104787957Y-64416665D02*
X104930814Y-64511903D01*
X104930814Y-64511903D02*
X105121290Y-64559522D01*
X105121290Y-64559522D02*
X105502242Y-64559522D01*
X105502242Y-64559522D02*
X105597480Y-64511903D01*
X105597480Y-64511903D02*
X105645100Y-64464284D01*
X105645100Y-64464284D02*
X105692719Y-64369046D01*
X105692719Y-64369046D02*
X105692719Y-64178570D01*
X105692719Y-64178570D02*
X105645100Y-64083332D01*
X105645100Y-64083332D02*
X105597480Y-64035713D01*
X105597480Y-64035713D02*
X105502242Y-63988094D01*
X105502242Y-63988094D02*
X105264147Y-63988094D01*
X105264147Y-63988094D02*
X105168909Y-64035713D01*
X105168909Y-64035713D02*
X105121290Y-64083332D01*
X105121290Y-64083332D02*
X105073671Y-64178570D01*
X105073671Y-64178570D02*
X105073671Y-64369046D01*
X105073671Y-64369046D02*
X105121290Y-64464284D01*
X105121290Y-64464284D02*
X105168909Y-64511903D01*
X105168909Y-64511903D02*
X105264147Y-64559522D01*
X105692720Y-133514284D02*
X104692720Y-133514284D01*
X104692720Y-133514284D02*
X104692720Y-133133332D01*
X104692720Y-133133332D02*
X104740339Y-133038094D01*
X104740339Y-133038094D02*
X104787958Y-132990475D01*
X104787958Y-132990475D02*
X104883196Y-132942856D01*
X104883196Y-132942856D02*
X105026053Y-132942856D01*
X105026053Y-132942856D02*
X105121291Y-132990475D01*
X105121291Y-132990475D02*
X105168910Y-133038094D01*
X105168910Y-133038094D02*
X105216529Y-133133332D01*
X105216529Y-133133332D02*
X105216529Y-133514284D01*
X104692720Y-132038094D02*
X104692720Y-132514284D01*
X104692720Y-132514284D02*
X105168910Y-132561903D01*
X105168910Y-132561903D02*
X105121291Y-132514284D01*
X105121291Y-132514284D02*
X105073672Y-132419046D01*
X105073672Y-132419046D02*
X105073672Y-132180951D01*
X105073672Y-132180951D02*
X105121291Y-132085713D01*
X105121291Y-132085713D02*
X105168910Y-132038094D01*
X105168910Y-132038094D02*
X105264148Y-131990475D01*
X105264148Y-131990475D02*
X105502243Y-131990475D01*
X105502243Y-131990475D02*
X105597481Y-132038094D01*
X105597481Y-132038094D02*
X105645101Y-132085713D01*
X105645101Y-132085713D02*
X105692720Y-132180951D01*
X105692720Y-132180951D02*
X105692720Y-132419046D01*
X105692720Y-132419046D02*
X105645101Y-132514284D01*
X105645101Y-132514284D02*
X105597481Y-132561903D01*
X104692720Y-131657141D02*
X104692720Y-131038094D01*
X104692720Y-131038094D02*
X105073672Y-131371427D01*
X105073672Y-131371427D02*
X105073672Y-131228570D01*
X105073672Y-131228570D02*
X105121291Y-131133332D01*
X105121291Y-131133332D02*
X105168910Y-131085713D01*
X105168910Y-131085713D02*
X105264148Y-131038094D01*
X105264148Y-131038094D02*
X105502243Y-131038094D01*
X105502243Y-131038094D02*
X105597481Y-131085713D01*
X105597481Y-131085713D02*
X105645101Y-131133332D01*
X105645101Y-131133332D02*
X105692720Y-131228570D01*
X105692720Y-131228570D02*
X105692720Y-131514284D01*
X105692720Y-131514284D02*
X105645101Y-131609522D01*
X105645101Y-131609522D02*
X105597481Y-131657141D01*
X105692719Y-110014284D02*
X104692719Y-110014284D01*
X104692719Y-110014284D02*
X104692719Y-109633332D01*
X104692719Y-109633332D02*
X104740338Y-109538094D01*
X104740338Y-109538094D02*
X104787957Y-109490475D01*
X104787957Y-109490475D02*
X104883195Y-109442856D01*
X104883195Y-109442856D02*
X105026052Y-109442856D01*
X105026052Y-109442856D02*
X105121290Y-109490475D01*
X105121290Y-109490475D02*
X105168909Y-109538094D01*
X105168909Y-109538094D02*
X105216528Y-109633332D01*
X105216528Y-109633332D02*
X105216528Y-110014284D01*
X105026052Y-108585713D02*
X105692719Y-108585713D01*
X104645100Y-108823808D02*
X105359385Y-109061903D01*
X105359385Y-109061903D02*
X105359385Y-108442856D01*
X104692719Y-108157141D02*
X104692719Y-107490475D01*
X104692719Y-107490475D02*
X105692719Y-107919046D01*
X105692719Y-82464284D02*
X104692719Y-82464284D01*
X104692719Y-82464284D02*
X104692719Y-82083332D01*
X104692719Y-82083332D02*
X104740338Y-81988094D01*
X104740338Y-81988094D02*
X104787957Y-81940475D01*
X104787957Y-81940475D02*
X104883195Y-81892856D01*
X104883195Y-81892856D02*
X105026052Y-81892856D01*
X105026052Y-81892856D02*
X105121290Y-81940475D01*
X105121290Y-81940475D02*
X105168909Y-81988094D01*
X105168909Y-81988094D02*
X105216528Y-82083332D01*
X105216528Y-82083332D02*
X105216528Y-82464284D01*
X105026052Y-81035713D02*
X105692719Y-81035713D01*
X104645100Y-81273808D02*
X105359385Y-81511903D01*
X105359385Y-81511903D02*
X105359385Y-80892856D01*
X104692719Y-80321427D02*
X104692719Y-80226189D01*
X104692719Y-80226189D02*
X104740338Y-80130951D01*
X104740338Y-80130951D02*
X104787957Y-80083332D01*
X104787957Y-80083332D02*
X104883195Y-80035713D01*
X104883195Y-80035713D02*
X105073671Y-79988094D01*
X105073671Y-79988094D02*
X105311766Y-79988094D01*
X105311766Y-79988094D02*
X105502242Y-80035713D01*
X105502242Y-80035713D02*
X105597480Y-80083332D01*
X105597480Y-80083332D02*
X105645100Y-80130951D01*
X105645100Y-80130951D02*
X105692719Y-80226189D01*
X105692719Y-80226189D02*
X105692719Y-80321427D01*
X105692719Y-80321427D02*
X105645100Y-80416665D01*
X105645100Y-80416665D02*
X105597480Y-80464284D01*
X105597480Y-80464284D02*
X105502242Y-80511903D01*
X105502242Y-80511903D02*
X105311766Y-80559522D01*
X105311766Y-80559522D02*
X105073671Y-80559522D01*
X105073671Y-80559522D02*
X104883195Y-80511903D01*
X104883195Y-80511903D02*
X104787957Y-80464284D01*
X104787957Y-80464284D02*
X104740338Y-80416665D01*
X104740338Y-80416665D02*
X104692719Y-80321427D01*
X98648613Y-149954820D02*
X98648613Y-148954820D01*
X98648613Y-148954820D02*
X99029565Y-148954820D01*
X99029565Y-148954820D02*
X99124803Y-149002439D01*
X99124803Y-149002439D02*
X99172422Y-149050058D01*
X99172422Y-149050058D02*
X99220041Y-149145296D01*
X99220041Y-149145296D02*
X99220041Y-149288153D01*
X99220041Y-149288153D02*
X99172422Y-149383391D01*
X99172422Y-149383391D02*
X99124803Y-149431010D01*
X99124803Y-149431010D02*
X99029565Y-149478629D01*
X99029565Y-149478629D02*
X98648613Y-149478629D01*
X100077184Y-148954820D02*
X99886708Y-148954820D01*
X99886708Y-148954820D02*
X99791470Y-149002439D01*
X99791470Y-149002439D02*
X99743851Y-149050058D01*
X99743851Y-149050058D02*
X99648613Y-149192915D01*
X99648613Y-149192915D02*
X99600994Y-149383391D01*
X99600994Y-149383391D02*
X99600994Y-149764343D01*
X99600994Y-149764343D02*
X99648613Y-149859581D01*
X99648613Y-149859581D02*
X99696232Y-149907201D01*
X99696232Y-149907201D02*
X99791470Y-149954820D01*
X99791470Y-149954820D02*
X99981946Y-149954820D01*
X99981946Y-149954820D02*
X100077184Y-149907201D01*
X100077184Y-149907201D02*
X100124803Y-149859581D01*
X100124803Y-149859581D02*
X100172422Y-149764343D01*
X100172422Y-149764343D02*
X100172422Y-149526248D01*
X100172422Y-149526248D02*
X100124803Y-149431010D01*
X100124803Y-149431010D02*
X100077184Y-149383391D01*
X100077184Y-149383391D02*
X99981946Y-149335772D01*
X99981946Y-149335772D02*
X99791470Y-149335772D01*
X99791470Y-149335772D02*
X99696232Y-149383391D01*
X99696232Y-149383391D02*
X99648613Y-149431010D01*
X99648613Y-149431010D02*
X99600994Y-149526248D01*
X100791470Y-148954820D02*
X100886708Y-148954820D01*
X100886708Y-148954820D02*
X100981946Y-149002439D01*
X100981946Y-149002439D02*
X101029565Y-149050058D01*
X101029565Y-149050058D02*
X101077184Y-149145296D01*
X101077184Y-149145296D02*
X101124803Y-149335772D01*
X101124803Y-149335772D02*
X101124803Y-149573867D01*
X101124803Y-149573867D02*
X101077184Y-149764343D01*
X101077184Y-149764343D02*
X101029565Y-149859581D01*
X101029565Y-149859581D02*
X100981946Y-149907201D01*
X100981946Y-149907201D02*
X100886708Y-149954820D01*
X100886708Y-149954820D02*
X100791470Y-149954820D01*
X100791470Y-149954820D02*
X100696232Y-149907201D01*
X100696232Y-149907201D02*
X100648613Y-149859581D01*
X100648613Y-149859581D02*
X100600994Y-149764343D01*
X100600994Y-149764343D02*
X100553375Y-149573867D01*
X100553375Y-149573867D02*
X100553375Y-149335772D01*
X100553375Y-149335772D02*
X100600994Y-149145296D01*
X100600994Y-149145296D02*
X100648613Y-149050058D01*
X100648613Y-149050058D02*
X100696232Y-149002439D01*
X100696232Y-149002439D02*
X100791470Y-148954820D01*
X105692719Y-106014284D02*
X104692719Y-106014284D01*
X104692719Y-106014284D02*
X104692719Y-105633332D01*
X104692719Y-105633332D02*
X104740338Y-105538094D01*
X104740338Y-105538094D02*
X104787957Y-105490475D01*
X104787957Y-105490475D02*
X104883195Y-105442856D01*
X104883195Y-105442856D02*
X105026052Y-105442856D01*
X105026052Y-105442856D02*
X105121290Y-105490475D01*
X105121290Y-105490475D02*
X105168909Y-105538094D01*
X105168909Y-105538094D02*
X105216528Y-105633332D01*
X105216528Y-105633332D02*
X105216528Y-106014284D01*
X105026052Y-104585713D02*
X105692719Y-104585713D01*
X104645100Y-104823808D02*
X105359385Y-105061903D01*
X105359385Y-105061903D02*
X105359385Y-104442856D01*
X104692719Y-103633332D02*
X104692719Y-103823808D01*
X104692719Y-103823808D02*
X104740338Y-103919046D01*
X104740338Y-103919046D02*
X104787957Y-103966665D01*
X104787957Y-103966665D02*
X104930814Y-104061903D01*
X104930814Y-104061903D02*
X105121290Y-104109522D01*
X105121290Y-104109522D02*
X105502242Y-104109522D01*
X105502242Y-104109522D02*
X105597480Y-104061903D01*
X105597480Y-104061903D02*
X105645100Y-104014284D01*
X105645100Y-104014284D02*
X105692719Y-103919046D01*
X105692719Y-103919046D02*
X105692719Y-103728570D01*
X105692719Y-103728570D02*
X105645100Y-103633332D01*
X105645100Y-103633332D02*
X105597480Y-103585713D01*
X105597480Y-103585713D02*
X105502242Y-103538094D01*
X105502242Y-103538094D02*
X105264147Y-103538094D01*
X105264147Y-103538094D02*
X105168909Y-103585713D01*
X105168909Y-103585713D02*
X105121290Y-103633332D01*
X105121290Y-103633332D02*
X105073671Y-103728570D01*
X105073671Y-103728570D02*
X105073671Y-103919046D01*
X105073671Y-103919046D02*
X105121290Y-104014284D01*
X105121290Y-104014284D02*
X105168909Y-104061903D01*
X105168909Y-104061903D02*
X105264147Y-104109522D01*
X105692719Y-90364284D02*
X104692719Y-90364284D01*
X104692719Y-90364284D02*
X104692719Y-89983332D01*
X104692719Y-89983332D02*
X104740338Y-89888094D01*
X104740338Y-89888094D02*
X104787957Y-89840475D01*
X104787957Y-89840475D02*
X104883195Y-89792856D01*
X104883195Y-89792856D02*
X105026052Y-89792856D01*
X105026052Y-89792856D02*
X105121290Y-89840475D01*
X105121290Y-89840475D02*
X105168909Y-89888094D01*
X105168909Y-89888094D02*
X105216528Y-89983332D01*
X105216528Y-89983332D02*
X105216528Y-90364284D01*
X105026052Y-88935713D02*
X105692719Y-88935713D01*
X104645100Y-89173808D02*
X105359385Y-89411903D01*
X105359385Y-89411903D02*
X105359385Y-88792856D01*
X104787957Y-88459522D02*
X104740338Y-88411903D01*
X104740338Y-88411903D02*
X104692719Y-88316665D01*
X104692719Y-88316665D02*
X104692719Y-88078570D01*
X104692719Y-88078570D02*
X104740338Y-87983332D01*
X104740338Y-87983332D02*
X104787957Y-87935713D01*
X104787957Y-87935713D02*
X104883195Y-87888094D01*
X104883195Y-87888094D02*
X104978433Y-87888094D01*
X104978433Y-87888094D02*
X105121290Y-87935713D01*
X105121290Y-87935713D02*
X105692719Y-88507141D01*
X105692719Y-88507141D02*
X105692719Y-87888094D01*
X98623614Y-146354818D02*
X98623614Y-145354818D01*
X98623614Y-145354818D02*
X99004566Y-145354818D01*
X99004566Y-145354818D02*
X99099804Y-145402437D01*
X99099804Y-145402437D02*
X99147423Y-145450056D01*
X99147423Y-145450056D02*
X99195042Y-145545294D01*
X99195042Y-145545294D02*
X99195042Y-145688151D01*
X99195042Y-145688151D02*
X99147423Y-145783389D01*
X99147423Y-145783389D02*
X99099804Y-145831008D01*
X99099804Y-145831008D02*
X99004566Y-145878627D01*
X99004566Y-145878627D02*
X98623614Y-145878627D01*
X100099804Y-145354818D02*
X99623614Y-145354818D01*
X99623614Y-145354818D02*
X99575995Y-145831008D01*
X99575995Y-145831008D02*
X99623614Y-145783389D01*
X99623614Y-145783389D02*
X99718852Y-145735770D01*
X99718852Y-145735770D02*
X99956947Y-145735770D01*
X99956947Y-145735770D02*
X100052185Y-145783389D01*
X100052185Y-145783389D02*
X100099804Y-145831008D01*
X100099804Y-145831008D02*
X100147423Y-145926246D01*
X100147423Y-145926246D02*
X100147423Y-146164341D01*
X100147423Y-146164341D02*
X100099804Y-146259579D01*
X100099804Y-146259579D02*
X100052185Y-146307199D01*
X100052185Y-146307199D02*
X99956947Y-146354818D01*
X99956947Y-146354818D02*
X99718852Y-146354818D01*
X99718852Y-146354818D02*
X99623614Y-146307199D01*
X99623614Y-146307199D02*
X99575995Y-146259579D01*
X100623614Y-146354818D02*
X100814090Y-146354818D01*
X100814090Y-146354818D02*
X100909328Y-146307199D01*
X100909328Y-146307199D02*
X100956947Y-146259579D01*
X100956947Y-146259579D02*
X101052185Y-146116722D01*
X101052185Y-146116722D02*
X101099804Y-145926246D01*
X101099804Y-145926246D02*
X101099804Y-145545294D01*
X101099804Y-145545294D02*
X101052185Y-145450056D01*
X101052185Y-145450056D02*
X101004566Y-145402437D01*
X101004566Y-145402437D02*
X100909328Y-145354818D01*
X100909328Y-145354818D02*
X100718852Y-145354818D01*
X100718852Y-145354818D02*
X100623614Y-145402437D01*
X100623614Y-145402437D02*
X100575995Y-145450056D01*
X100575995Y-145450056D02*
X100528376Y-145545294D01*
X100528376Y-145545294D02*
X100528376Y-145783389D01*
X100528376Y-145783389D02*
X100575995Y-145878627D01*
X100575995Y-145878627D02*
X100623614Y-145926246D01*
X100623614Y-145926246D02*
X100718852Y-145973865D01*
X100718852Y-145973865D02*
X100909328Y-145973865D01*
X100909328Y-145973865D02*
X101004566Y-145926246D01*
X101004566Y-145926246D02*
X101052185Y-145878627D01*
X101052185Y-145878627D02*
X101099804Y-145783389D01*
X105692719Y-102114285D02*
X104692719Y-102114285D01*
X104692719Y-102114285D02*
X104692719Y-101733333D01*
X104692719Y-101733333D02*
X104740338Y-101638095D01*
X104740338Y-101638095D02*
X104787957Y-101590476D01*
X104787957Y-101590476D02*
X104883195Y-101542857D01*
X104883195Y-101542857D02*
X105026052Y-101542857D01*
X105026052Y-101542857D02*
X105121290Y-101590476D01*
X105121290Y-101590476D02*
X105168909Y-101638095D01*
X105168909Y-101638095D02*
X105216528Y-101733333D01*
X105216528Y-101733333D02*
X105216528Y-102114285D01*
X105026052Y-100685714D02*
X105692719Y-100685714D01*
X104645100Y-100923809D02*
X105359385Y-101161904D01*
X105359385Y-101161904D02*
X105359385Y-100542857D01*
X104692719Y-99685714D02*
X104692719Y-100161904D01*
X104692719Y-100161904D02*
X105168909Y-100209523D01*
X105168909Y-100209523D02*
X105121290Y-100161904D01*
X105121290Y-100161904D02*
X105073671Y-100066666D01*
X105073671Y-100066666D02*
X105073671Y-99828571D01*
X105073671Y-99828571D02*
X105121290Y-99733333D01*
X105121290Y-99733333D02*
X105168909Y-99685714D01*
X105168909Y-99685714D02*
X105264147Y-99638095D01*
X105264147Y-99638095D02*
X105502242Y-99638095D01*
X105502242Y-99638095D02*
X105597480Y-99685714D01*
X105597480Y-99685714D02*
X105645100Y-99733333D01*
X105645100Y-99733333D02*
X105692719Y-99828571D01*
X105692719Y-99828571D02*
X105692719Y-100066666D01*
X105692719Y-100066666D02*
X105645100Y-100161904D01*
X105645100Y-100161904D02*
X105597480Y-100209523D01*
X105692719Y-78464284D02*
X104692719Y-78464284D01*
X104692719Y-78464284D02*
X104692719Y-78083332D01*
X104692719Y-78083332D02*
X104740338Y-77988094D01*
X104740338Y-77988094D02*
X104787957Y-77940475D01*
X104787957Y-77940475D02*
X104883195Y-77892856D01*
X104883195Y-77892856D02*
X105026052Y-77892856D01*
X105026052Y-77892856D02*
X105121290Y-77940475D01*
X105121290Y-77940475D02*
X105168909Y-77988094D01*
X105168909Y-77988094D02*
X105216528Y-78083332D01*
X105216528Y-78083332D02*
X105216528Y-78464284D01*
X104692719Y-77559522D02*
X104692719Y-76940475D01*
X104692719Y-76940475D02*
X105073671Y-77273808D01*
X105073671Y-77273808D02*
X105073671Y-77130951D01*
X105073671Y-77130951D02*
X105121290Y-77035713D01*
X105121290Y-77035713D02*
X105168909Y-76988094D01*
X105168909Y-76988094D02*
X105264147Y-76940475D01*
X105264147Y-76940475D02*
X105502242Y-76940475D01*
X105502242Y-76940475D02*
X105597480Y-76988094D01*
X105597480Y-76988094D02*
X105645100Y-77035713D01*
X105645100Y-77035713D02*
X105692719Y-77130951D01*
X105692719Y-77130951D02*
X105692719Y-77416665D01*
X105692719Y-77416665D02*
X105645100Y-77511903D01*
X105645100Y-77511903D02*
X105597480Y-77559522D01*
X105692719Y-76464284D02*
X105692719Y-76273808D01*
X105692719Y-76273808D02*
X105645100Y-76178570D01*
X105645100Y-76178570D02*
X105597480Y-76130951D01*
X105597480Y-76130951D02*
X105454623Y-76035713D01*
X105454623Y-76035713D02*
X105264147Y-75988094D01*
X105264147Y-75988094D02*
X104883195Y-75988094D01*
X104883195Y-75988094D02*
X104787957Y-76035713D01*
X104787957Y-76035713D02*
X104740338Y-76083332D01*
X104740338Y-76083332D02*
X104692719Y-76178570D01*
X104692719Y-76178570D02*
X104692719Y-76369046D01*
X104692719Y-76369046D02*
X104740338Y-76464284D01*
X104740338Y-76464284D02*
X104787957Y-76511903D01*
X104787957Y-76511903D02*
X104883195Y-76559522D01*
X104883195Y-76559522D02*
X105121290Y-76559522D01*
X105121290Y-76559522D02*
X105216528Y-76511903D01*
X105216528Y-76511903D02*
X105264147Y-76464284D01*
X105264147Y-76464284D02*
X105311766Y-76369046D01*
X105311766Y-76369046D02*
X105311766Y-76178570D01*
X105311766Y-76178570D02*
X105264147Y-76083332D01*
X105264147Y-76083332D02*
X105216528Y-76035713D01*
X105216528Y-76035713D02*
X105121290Y-75988094D01*
X105692719Y-137414284D02*
X104692719Y-137414284D01*
X104692719Y-137414284D02*
X104692719Y-137033332D01*
X104692719Y-137033332D02*
X104740338Y-136938094D01*
X104740338Y-136938094D02*
X104787957Y-136890475D01*
X104787957Y-136890475D02*
X104883195Y-136842856D01*
X104883195Y-136842856D02*
X105026052Y-136842856D01*
X105026052Y-136842856D02*
X105121290Y-136890475D01*
X105121290Y-136890475D02*
X105168909Y-136938094D01*
X105168909Y-136938094D02*
X105216528Y-137033332D01*
X105216528Y-137033332D02*
X105216528Y-137414284D01*
X104692719Y-135938094D02*
X104692719Y-136414284D01*
X104692719Y-136414284D02*
X105168909Y-136461903D01*
X105168909Y-136461903D02*
X105121290Y-136414284D01*
X105121290Y-136414284D02*
X105073671Y-136319046D01*
X105073671Y-136319046D02*
X105073671Y-136080951D01*
X105073671Y-136080951D02*
X105121290Y-135985713D01*
X105121290Y-135985713D02*
X105168909Y-135938094D01*
X105168909Y-135938094D02*
X105264147Y-135890475D01*
X105264147Y-135890475D02*
X105502242Y-135890475D01*
X105502242Y-135890475D02*
X105597480Y-135938094D01*
X105597480Y-135938094D02*
X105645100Y-135985713D01*
X105645100Y-135985713D02*
X105692719Y-136080951D01*
X105692719Y-136080951D02*
X105692719Y-136319046D01*
X105692719Y-136319046D02*
X105645100Y-136414284D01*
X105645100Y-136414284D02*
X105597480Y-136461903D01*
X105026052Y-135033332D02*
X105692719Y-135033332D01*
X104645100Y-135271427D02*
X105359385Y-135509522D01*
X105359385Y-135509522D02*
X105359385Y-134890475D01*
X164648613Y-149954820D02*
X164648613Y-148954820D01*
X164648613Y-148954820D02*
X165029565Y-148954820D01*
X165029565Y-148954820D02*
X165124803Y-149002439D01*
X165124803Y-149002439D02*
X165172422Y-149050058D01*
X165172422Y-149050058D02*
X165220041Y-149145296D01*
X165220041Y-149145296D02*
X165220041Y-149288153D01*
X165220041Y-149288153D02*
X165172422Y-149383391D01*
X165172422Y-149383391D02*
X165124803Y-149431010D01*
X165124803Y-149431010D02*
X165029565Y-149478629D01*
X165029565Y-149478629D02*
X164648613Y-149478629D01*
X165553375Y-148954820D02*
X166172422Y-148954820D01*
X166172422Y-148954820D02*
X165839089Y-149335772D01*
X165839089Y-149335772D02*
X165981946Y-149335772D01*
X165981946Y-149335772D02*
X166077184Y-149383391D01*
X166077184Y-149383391D02*
X166124803Y-149431010D01*
X166124803Y-149431010D02*
X166172422Y-149526248D01*
X166172422Y-149526248D02*
X166172422Y-149764343D01*
X166172422Y-149764343D02*
X166124803Y-149859581D01*
X166124803Y-149859581D02*
X166077184Y-149907201D01*
X166077184Y-149907201D02*
X165981946Y-149954820D01*
X165981946Y-149954820D02*
X165696232Y-149954820D01*
X165696232Y-149954820D02*
X165600994Y-149907201D01*
X165600994Y-149907201D02*
X165553375Y-149859581D01*
X166791470Y-148954820D02*
X166886708Y-148954820D01*
X166886708Y-148954820D02*
X166981946Y-149002439D01*
X166981946Y-149002439D02*
X167029565Y-149050058D01*
X167029565Y-149050058D02*
X167077184Y-149145296D01*
X167077184Y-149145296D02*
X167124803Y-149335772D01*
X167124803Y-149335772D02*
X167124803Y-149573867D01*
X167124803Y-149573867D02*
X167077184Y-149764343D01*
X167077184Y-149764343D02*
X167029565Y-149859581D01*
X167029565Y-149859581D02*
X166981946Y-149907201D01*
X166981946Y-149907201D02*
X166886708Y-149954820D01*
X166886708Y-149954820D02*
X166791470Y-149954820D01*
X166791470Y-149954820D02*
X166696232Y-149907201D01*
X166696232Y-149907201D02*
X166648613Y-149859581D01*
X166648613Y-149859581D02*
X166600994Y-149764343D01*
X166600994Y-149764343D02*
X166553375Y-149573867D01*
X166553375Y-149573867D02*
X166553375Y-149335772D01*
X166553375Y-149335772D02*
X166600994Y-149145296D01*
X166600994Y-149145296D02*
X166648613Y-149050058D01*
X166648613Y-149050058D02*
X166696232Y-149002439D01*
X166696232Y-149002439D02*
X166791470Y-148954820D01*
X171692719Y-69988093D02*
X170692719Y-69988093D01*
X170692719Y-69988093D02*
X170692719Y-69607141D01*
X170692719Y-69607141D02*
X170740338Y-69511903D01*
X170740338Y-69511903D02*
X170787957Y-69464284D01*
X170787957Y-69464284D02*
X170883195Y-69416665D01*
X170883195Y-69416665D02*
X171026052Y-69416665D01*
X171026052Y-69416665D02*
X171121290Y-69464284D01*
X171121290Y-69464284D02*
X171168909Y-69511903D01*
X171168909Y-69511903D02*
X171216528Y-69607141D01*
X171216528Y-69607141D02*
X171216528Y-69988093D01*
X170692719Y-69083331D02*
X170692719Y-68416665D01*
X170692719Y-68416665D02*
X171692719Y-68845236D01*
X171692719Y-149214284D02*
X170692719Y-149214284D01*
X170692719Y-149214284D02*
X170692719Y-148833332D01*
X170692719Y-148833332D02*
X170740338Y-148738094D01*
X170740338Y-148738094D02*
X170787957Y-148690475D01*
X170787957Y-148690475D02*
X170883195Y-148642856D01*
X170883195Y-148642856D02*
X171026052Y-148642856D01*
X171026052Y-148642856D02*
X171121290Y-148690475D01*
X171121290Y-148690475D02*
X171168909Y-148738094D01*
X171168909Y-148738094D02*
X171216528Y-148833332D01*
X171216528Y-148833332D02*
X171216528Y-149214284D01*
X170787957Y-148261903D02*
X170740338Y-148214284D01*
X170740338Y-148214284D02*
X170692719Y-148119046D01*
X170692719Y-148119046D02*
X170692719Y-147880951D01*
X170692719Y-147880951D02*
X170740338Y-147785713D01*
X170740338Y-147785713D02*
X170787957Y-147738094D01*
X170787957Y-147738094D02*
X170883195Y-147690475D01*
X170883195Y-147690475D02*
X170978433Y-147690475D01*
X170978433Y-147690475D02*
X171121290Y-147738094D01*
X171121290Y-147738094D02*
X171692719Y-148309522D01*
X171692719Y-148309522D02*
X171692719Y-147690475D01*
X170692719Y-147357141D02*
X170692719Y-146690475D01*
X170692719Y-146690475D02*
X171692719Y-147119046D01*
X171692719Y-94214284D02*
X170692719Y-94214284D01*
X170692719Y-94214284D02*
X170692719Y-93833332D01*
X170692719Y-93833332D02*
X170740338Y-93738094D01*
X170740338Y-93738094D02*
X170787957Y-93690475D01*
X170787957Y-93690475D02*
X170883195Y-93642856D01*
X170883195Y-93642856D02*
X171026052Y-93642856D01*
X171026052Y-93642856D02*
X171121290Y-93690475D01*
X171121290Y-93690475D02*
X171168909Y-93738094D01*
X171168909Y-93738094D02*
X171216528Y-93833332D01*
X171216528Y-93833332D02*
X171216528Y-94214284D01*
X171692719Y-92690475D02*
X171692719Y-93261903D01*
X171692719Y-92976189D02*
X170692719Y-92976189D01*
X170692719Y-92976189D02*
X170835576Y-93071427D01*
X170835576Y-93071427D02*
X170930814Y-93166665D01*
X170930814Y-93166665D02*
X170978433Y-93261903D01*
X170692719Y-92357141D02*
X170692719Y-91738094D01*
X170692719Y-91738094D02*
X171073671Y-92071427D01*
X171073671Y-92071427D02*
X171073671Y-91928570D01*
X171073671Y-91928570D02*
X171121290Y-91833332D01*
X171121290Y-91833332D02*
X171168909Y-91785713D01*
X171168909Y-91785713D02*
X171264147Y-91738094D01*
X171264147Y-91738094D02*
X171502242Y-91738094D01*
X171502242Y-91738094D02*
X171597480Y-91785713D01*
X171597480Y-91785713D02*
X171645100Y-91833332D01*
X171645100Y-91833332D02*
X171692719Y-91928570D01*
X171692719Y-91928570D02*
X171692719Y-92214284D01*
X171692719Y-92214284D02*
X171645100Y-92309522D01*
X171645100Y-92309522D02*
X171597480Y-92357141D01*
X171692719Y-153114284D02*
X170692719Y-153114284D01*
X170692719Y-153114284D02*
X170692719Y-152733332D01*
X170692719Y-152733332D02*
X170740338Y-152638094D01*
X170740338Y-152638094D02*
X170787957Y-152590475D01*
X170787957Y-152590475D02*
X170883195Y-152542856D01*
X170883195Y-152542856D02*
X171026052Y-152542856D01*
X171026052Y-152542856D02*
X171121290Y-152590475D01*
X171121290Y-152590475D02*
X171168909Y-152638094D01*
X171168909Y-152638094D02*
X171216528Y-152733332D01*
X171216528Y-152733332D02*
X171216528Y-153114284D01*
X170787957Y-152161903D02*
X170740338Y-152114284D01*
X170740338Y-152114284D02*
X170692719Y-152019046D01*
X170692719Y-152019046D02*
X170692719Y-151780951D01*
X170692719Y-151780951D02*
X170740338Y-151685713D01*
X170740338Y-151685713D02*
X170787957Y-151638094D01*
X170787957Y-151638094D02*
X170883195Y-151590475D01*
X170883195Y-151590475D02*
X170978433Y-151590475D01*
X170978433Y-151590475D02*
X171121290Y-151638094D01*
X171121290Y-151638094D02*
X171692719Y-152209522D01*
X171692719Y-152209522D02*
X171692719Y-151590475D01*
X171121290Y-151019046D02*
X171073671Y-151114284D01*
X171073671Y-151114284D02*
X171026052Y-151161903D01*
X171026052Y-151161903D02*
X170930814Y-151209522D01*
X170930814Y-151209522D02*
X170883195Y-151209522D01*
X170883195Y-151209522D02*
X170787957Y-151161903D01*
X170787957Y-151161903D02*
X170740338Y-151114284D01*
X170740338Y-151114284D02*
X170692719Y-151019046D01*
X170692719Y-151019046D02*
X170692719Y-150828570D01*
X170692719Y-150828570D02*
X170740338Y-150733332D01*
X170740338Y-150733332D02*
X170787957Y-150685713D01*
X170787957Y-150685713D02*
X170883195Y-150638094D01*
X170883195Y-150638094D02*
X170930814Y-150638094D01*
X170930814Y-150638094D02*
X171026052Y-150685713D01*
X171026052Y-150685713D02*
X171073671Y-150733332D01*
X171073671Y-150733332D02*
X171121290Y-150828570D01*
X171121290Y-150828570D02*
X171121290Y-151019046D01*
X171121290Y-151019046D02*
X171168909Y-151114284D01*
X171168909Y-151114284D02*
X171216528Y-151161903D01*
X171216528Y-151161903D02*
X171311766Y-151209522D01*
X171311766Y-151209522D02*
X171502242Y-151209522D01*
X171502242Y-151209522D02*
X171597480Y-151161903D01*
X171597480Y-151161903D02*
X171645100Y-151114284D01*
X171645100Y-151114284D02*
X171692719Y-151019046D01*
X171692719Y-151019046D02*
X171692719Y-150828570D01*
X171692719Y-150828570D02*
X171645100Y-150733332D01*
X171645100Y-150733332D02*
X171597480Y-150685713D01*
X171597480Y-150685713D02*
X171502242Y-150638094D01*
X171502242Y-150638094D02*
X171311766Y-150638094D01*
X171311766Y-150638094D02*
X171216528Y-150685713D01*
X171216528Y-150685713D02*
X171168909Y-150733332D01*
X171168909Y-150733332D02*
X171121290Y-150828570D01*
X171692720Y-98114284D02*
X170692720Y-98114284D01*
X170692720Y-98114284D02*
X170692720Y-97733332D01*
X170692720Y-97733332D02*
X170740339Y-97638094D01*
X170740339Y-97638094D02*
X170787958Y-97590475D01*
X170787958Y-97590475D02*
X170883196Y-97542856D01*
X170883196Y-97542856D02*
X171026053Y-97542856D01*
X171026053Y-97542856D02*
X171121291Y-97590475D01*
X171121291Y-97590475D02*
X171168910Y-97638094D01*
X171168910Y-97638094D02*
X171216529Y-97733332D01*
X171216529Y-97733332D02*
X171216529Y-98114284D01*
X171692720Y-96590475D02*
X171692720Y-97161903D01*
X171692720Y-96876189D02*
X170692720Y-96876189D01*
X170692720Y-96876189D02*
X170835577Y-96971427D01*
X170835577Y-96971427D02*
X170930815Y-97066665D01*
X170930815Y-97066665D02*
X170978434Y-97161903D01*
X171026053Y-95733332D02*
X171692720Y-95733332D01*
X170645101Y-95971427D02*
X171359386Y-96209522D01*
X171359386Y-96209522D02*
X171359386Y-95590475D01*
X164924806Y-67954819D02*
X164924806Y-66954819D01*
X164924806Y-66954819D02*
X165305758Y-66954819D01*
X165305758Y-66954819D02*
X165400996Y-67002438D01*
X165400996Y-67002438D02*
X165448615Y-67050057D01*
X165448615Y-67050057D02*
X165496234Y-67145295D01*
X165496234Y-67145295D02*
X165496234Y-67288152D01*
X165496234Y-67288152D02*
X165448615Y-67383390D01*
X165448615Y-67383390D02*
X165400996Y-67431009D01*
X165400996Y-67431009D02*
X165305758Y-67478628D01*
X165305758Y-67478628D02*
X164924806Y-67478628D01*
X166448615Y-67954819D02*
X165877187Y-67954819D01*
X166162901Y-67954819D02*
X166162901Y-66954819D01*
X166162901Y-66954819D02*
X166067663Y-67097676D01*
X166067663Y-67097676D02*
X165972425Y-67192914D01*
X165972425Y-67192914D02*
X165877187Y-67240533D01*
X171692719Y-73988093D02*
X170692719Y-73988093D01*
X170692719Y-73988093D02*
X170692719Y-73607141D01*
X170692719Y-73607141D02*
X170740338Y-73511903D01*
X170740338Y-73511903D02*
X170787957Y-73464284D01*
X170787957Y-73464284D02*
X170883195Y-73416665D01*
X170883195Y-73416665D02*
X171026052Y-73416665D01*
X171026052Y-73416665D02*
X171121290Y-73464284D01*
X171121290Y-73464284D02*
X171168909Y-73511903D01*
X171168909Y-73511903D02*
X171216528Y-73607141D01*
X171216528Y-73607141D02*
X171216528Y-73988093D01*
X171121290Y-72845236D02*
X171073671Y-72940474D01*
X171073671Y-72940474D02*
X171026052Y-72988093D01*
X171026052Y-72988093D02*
X170930814Y-73035712D01*
X170930814Y-73035712D02*
X170883195Y-73035712D01*
X170883195Y-73035712D02*
X170787957Y-72988093D01*
X170787957Y-72988093D02*
X170740338Y-72940474D01*
X170740338Y-72940474D02*
X170692719Y-72845236D01*
X170692719Y-72845236D02*
X170692719Y-72654760D01*
X170692719Y-72654760D02*
X170740338Y-72559522D01*
X170740338Y-72559522D02*
X170787957Y-72511903D01*
X170787957Y-72511903D02*
X170883195Y-72464284D01*
X170883195Y-72464284D02*
X170930814Y-72464284D01*
X170930814Y-72464284D02*
X171026052Y-72511903D01*
X171026052Y-72511903D02*
X171073671Y-72559522D01*
X171073671Y-72559522D02*
X171121290Y-72654760D01*
X171121290Y-72654760D02*
X171121290Y-72845236D01*
X171121290Y-72845236D02*
X171168909Y-72940474D01*
X171168909Y-72940474D02*
X171216528Y-72988093D01*
X171216528Y-72988093D02*
X171311766Y-73035712D01*
X171311766Y-73035712D02*
X171502242Y-73035712D01*
X171502242Y-73035712D02*
X171597480Y-72988093D01*
X171597480Y-72988093D02*
X171645100Y-72940474D01*
X171645100Y-72940474D02*
X171692719Y-72845236D01*
X171692719Y-72845236D02*
X171692719Y-72654760D01*
X171692719Y-72654760D02*
X171645100Y-72559522D01*
X171645100Y-72559522D02*
X171597480Y-72511903D01*
X171597480Y-72511903D02*
X171502242Y-72464284D01*
X171502242Y-72464284D02*
X171311766Y-72464284D01*
X171311766Y-72464284D02*
X171216528Y-72511903D01*
X171216528Y-72511903D02*
X171168909Y-72559522D01*
X171168909Y-72559522D02*
X171121290Y-72654760D01*
X171692719Y-125614284D02*
X170692719Y-125614284D01*
X170692719Y-125614284D02*
X170692719Y-125233332D01*
X170692719Y-125233332D02*
X170740338Y-125138094D01*
X170740338Y-125138094D02*
X170787957Y-125090475D01*
X170787957Y-125090475D02*
X170883195Y-125042856D01*
X170883195Y-125042856D02*
X171026052Y-125042856D01*
X171026052Y-125042856D02*
X171121290Y-125090475D01*
X171121290Y-125090475D02*
X171168909Y-125138094D01*
X171168909Y-125138094D02*
X171216528Y-125233332D01*
X171216528Y-125233332D02*
X171216528Y-125614284D01*
X170787957Y-124661903D02*
X170740338Y-124614284D01*
X170740338Y-124614284D02*
X170692719Y-124519046D01*
X170692719Y-124519046D02*
X170692719Y-124280951D01*
X170692719Y-124280951D02*
X170740338Y-124185713D01*
X170740338Y-124185713D02*
X170787957Y-124138094D01*
X170787957Y-124138094D02*
X170883195Y-124090475D01*
X170883195Y-124090475D02*
X170978433Y-124090475D01*
X170978433Y-124090475D02*
X171121290Y-124138094D01*
X171121290Y-124138094D02*
X171692719Y-124709522D01*
X171692719Y-124709522D02*
X171692719Y-124090475D01*
X171692719Y-123138094D02*
X171692719Y-123709522D01*
X171692719Y-123423808D02*
X170692719Y-123423808D01*
X170692719Y-123423808D02*
X170835576Y-123519046D01*
X170835576Y-123519046D02*
X170930814Y-123614284D01*
X170930814Y-123614284D02*
X170978433Y-123709522D01*
X171692719Y-82464284D02*
X170692719Y-82464284D01*
X170692719Y-82464284D02*
X170692719Y-82083332D01*
X170692719Y-82083332D02*
X170740338Y-81988094D01*
X170740338Y-81988094D02*
X170787957Y-81940475D01*
X170787957Y-81940475D02*
X170883195Y-81892856D01*
X170883195Y-81892856D02*
X171026052Y-81892856D01*
X171026052Y-81892856D02*
X171121290Y-81940475D01*
X171121290Y-81940475D02*
X171168909Y-81988094D01*
X171168909Y-81988094D02*
X171216528Y-82083332D01*
X171216528Y-82083332D02*
X171216528Y-82464284D01*
X171692719Y-80940475D02*
X171692719Y-81511903D01*
X171692719Y-81226189D02*
X170692719Y-81226189D01*
X170692719Y-81226189D02*
X170835576Y-81321427D01*
X170835576Y-81321427D02*
X170930814Y-81416665D01*
X170930814Y-81416665D02*
X170978433Y-81511903D01*
X170692719Y-80321427D02*
X170692719Y-80226189D01*
X170692719Y-80226189D02*
X170740338Y-80130951D01*
X170740338Y-80130951D02*
X170787957Y-80083332D01*
X170787957Y-80083332D02*
X170883195Y-80035713D01*
X170883195Y-80035713D02*
X171073671Y-79988094D01*
X171073671Y-79988094D02*
X171311766Y-79988094D01*
X171311766Y-79988094D02*
X171502242Y-80035713D01*
X171502242Y-80035713D02*
X171597480Y-80083332D01*
X171597480Y-80083332D02*
X171645100Y-80130951D01*
X171645100Y-80130951D02*
X171692719Y-80226189D01*
X171692719Y-80226189D02*
X171692719Y-80321427D01*
X171692719Y-80321427D02*
X171645100Y-80416665D01*
X171645100Y-80416665D02*
X171597480Y-80464284D01*
X171597480Y-80464284D02*
X171502242Y-80511903D01*
X171502242Y-80511903D02*
X171311766Y-80559522D01*
X171311766Y-80559522D02*
X171073671Y-80559522D01*
X171073671Y-80559522D02*
X170883195Y-80511903D01*
X170883195Y-80511903D02*
X170787957Y-80464284D01*
X170787957Y-80464284D02*
X170740338Y-80416665D01*
X170740338Y-80416665D02*
X170692719Y-80321427D01*
X171692720Y-133514284D02*
X170692720Y-133514284D01*
X170692720Y-133514284D02*
X170692720Y-133133332D01*
X170692720Y-133133332D02*
X170740339Y-133038094D01*
X170740339Y-133038094D02*
X170787958Y-132990475D01*
X170787958Y-132990475D02*
X170883196Y-132942856D01*
X170883196Y-132942856D02*
X171026053Y-132942856D01*
X171026053Y-132942856D02*
X171121291Y-132990475D01*
X171121291Y-132990475D02*
X171168910Y-133038094D01*
X171168910Y-133038094D02*
X171216529Y-133133332D01*
X171216529Y-133133332D02*
X171216529Y-133514284D01*
X170787958Y-132561903D02*
X170740339Y-132514284D01*
X170740339Y-132514284D02*
X170692720Y-132419046D01*
X170692720Y-132419046D02*
X170692720Y-132180951D01*
X170692720Y-132180951D02*
X170740339Y-132085713D01*
X170740339Y-132085713D02*
X170787958Y-132038094D01*
X170787958Y-132038094D02*
X170883196Y-131990475D01*
X170883196Y-131990475D02*
X170978434Y-131990475D01*
X170978434Y-131990475D02*
X171121291Y-132038094D01*
X171121291Y-132038094D02*
X171692720Y-132609522D01*
X171692720Y-132609522D02*
X171692720Y-131990475D01*
X170692720Y-131657141D02*
X170692720Y-131038094D01*
X170692720Y-131038094D02*
X171073672Y-131371427D01*
X171073672Y-131371427D02*
X171073672Y-131228570D01*
X171073672Y-131228570D02*
X171121291Y-131133332D01*
X171121291Y-131133332D02*
X171168910Y-131085713D01*
X171168910Y-131085713D02*
X171264148Y-131038094D01*
X171264148Y-131038094D02*
X171502243Y-131038094D01*
X171502243Y-131038094D02*
X171597481Y-131085713D01*
X171597481Y-131085713D02*
X171645101Y-131133332D01*
X171645101Y-131133332D02*
X171692720Y-131228570D01*
X171692720Y-131228570D02*
X171692720Y-131514284D01*
X171692720Y-131514284D02*
X171645101Y-131609522D01*
X171645101Y-131609522D02*
X171597481Y-131657141D01*
X171692719Y-90364284D02*
X170692719Y-90364284D01*
X170692719Y-90364284D02*
X170692719Y-89983332D01*
X170692719Y-89983332D02*
X170740338Y-89888094D01*
X170740338Y-89888094D02*
X170787957Y-89840475D01*
X170787957Y-89840475D02*
X170883195Y-89792856D01*
X170883195Y-89792856D02*
X171026052Y-89792856D01*
X171026052Y-89792856D02*
X171121290Y-89840475D01*
X171121290Y-89840475D02*
X171168909Y-89888094D01*
X171168909Y-89888094D02*
X171216528Y-89983332D01*
X171216528Y-89983332D02*
X171216528Y-90364284D01*
X171692719Y-88840475D02*
X171692719Y-89411903D01*
X171692719Y-89126189D02*
X170692719Y-89126189D01*
X170692719Y-89126189D02*
X170835576Y-89221427D01*
X170835576Y-89221427D02*
X170930814Y-89316665D01*
X170930814Y-89316665D02*
X170978433Y-89411903D01*
X170787957Y-88459522D02*
X170740338Y-88411903D01*
X170740338Y-88411903D02*
X170692719Y-88316665D01*
X170692719Y-88316665D02*
X170692719Y-88078570D01*
X170692719Y-88078570D02*
X170740338Y-87983332D01*
X170740338Y-87983332D02*
X170787957Y-87935713D01*
X170787957Y-87935713D02*
X170883195Y-87888094D01*
X170883195Y-87888094D02*
X170978433Y-87888094D01*
X170978433Y-87888094D02*
X171121290Y-87935713D01*
X171121290Y-87935713D02*
X171692719Y-88507141D01*
X171692719Y-88507141D02*
X171692719Y-87888094D01*
X150416389Y-54573408D02*
X150416389Y-55287693D01*
X150416389Y-55287693D02*
X150368770Y-55430550D01*
X150368770Y-55430550D02*
X150273532Y-55525789D01*
X150273532Y-55525789D02*
X150130675Y-55573408D01*
X150130675Y-55573408D02*
X150035437Y-55573408D01*
X151321151Y-54906741D02*
X151321151Y-55573408D01*
X151083056Y-54525789D02*
X150844961Y-55240074D01*
X150844961Y-55240074D02*
X151464008Y-55240074D01*
X171692719Y-106014284D02*
X170692719Y-106014284D01*
X170692719Y-106014284D02*
X170692719Y-105633332D01*
X170692719Y-105633332D02*
X170740338Y-105538094D01*
X170740338Y-105538094D02*
X170787957Y-105490475D01*
X170787957Y-105490475D02*
X170883195Y-105442856D01*
X170883195Y-105442856D02*
X171026052Y-105442856D01*
X171026052Y-105442856D02*
X171121290Y-105490475D01*
X171121290Y-105490475D02*
X171168909Y-105538094D01*
X171168909Y-105538094D02*
X171216528Y-105633332D01*
X171216528Y-105633332D02*
X171216528Y-106014284D01*
X171692719Y-104490475D02*
X171692719Y-105061903D01*
X171692719Y-104776189D02*
X170692719Y-104776189D01*
X170692719Y-104776189D02*
X170835576Y-104871427D01*
X170835576Y-104871427D02*
X170930814Y-104966665D01*
X170930814Y-104966665D02*
X170978433Y-105061903D01*
X170692719Y-103633332D02*
X170692719Y-103823808D01*
X170692719Y-103823808D02*
X170740338Y-103919046D01*
X170740338Y-103919046D02*
X170787957Y-103966665D01*
X170787957Y-103966665D02*
X170930814Y-104061903D01*
X170930814Y-104061903D02*
X171121290Y-104109522D01*
X171121290Y-104109522D02*
X171502242Y-104109522D01*
X171502242Y-104109522D02*
X171597480Y-104061903D01*
X171597480Y-104061903D02*
X171645100Y-104014284D01*
X171645100Y-104014284D02*
X171692719Y-103919046D01*
X171692719Y-103919046D02*
X171692719Y-103728570D01*
X171692719Y-103728570D02*
X171645100Y-103633332D01*
X171645100Y-103633332D02*
X171597480Y-103585713D01*
X171597480Y-103585713D02*
X171502242Y-103538094D01*
X171502242Y-103538094D02*
X171264147Y-103538094D01*
X171264147Y-103538094D02*
X171168909Y-103585713D01*
X171168909Y-103585713D02*
X171121290Y-103633332D01*
X171121290Y-103633332D02*
X171073671Y-103728570D01*
X171073671Y-103728570D02*
X171073671Y-103919046D01*
X171073671Y-103919046D02*
X171121290Y-104014284D01*
X171121290Y-104014284D02*
X171168909Y-104061903D01*
X171168909Y-104061903D02*
X171264147Y-104109522D01*
X171692719Y-145214284D02*
X170692719Y-145214284D01*
X170692719Y-145214284D02*
X170692719Y-144833332D01*
X170692719Y-144833332D02*
X170740338Y-144738094D01*
X170740338Y-144738094D02*
X170787957Y-144690475D01*
X170787957Y-144690475D02*
X170883195Y-144642856D01*
X170883195Y-144642856D02*
X171026052Y-144642856D01*
X171026052Y-144642856D02*
X171121290Y-144690475D01*
X171121290Y-144690475D02*
X171168909Y-144738094D01*
X171168909Y-144738094D02*
X171216528Y-144833332D01*
X171216528Y-144833332D02*
X171216528Y-145214284D01*
X170787957Y-144261903D02*
X170740338Y-144214284D01*
X170740338Y-144214284D02*
X170692719Y-144119046D01*
X170692719Y-144119046D02*
X170692719Y-143880951D01*
X170692719Y-143880951D02*
X170740338Y-143785713D01*
X170740338Y-143785713D02*
X170787957Y-143738094D01*
X170787957Y-143738094D02*
X170883195Y-143690475D01*
X170883195Y-143690475D02*
X170978433Y-143690475D01*
X170978433Y-143690475D02*
X171121290Y-143738094D01*
X171121290Y-143738094D02*
X171692719Y-144309522D01*
X171692719Y-144309522D02*
X171692719Y-143690475D01*
X170692719Y-142833332D02*
X170692719Y-143023808D01*
X170692719Y-143023808D02*
X170740338Y-143119046D01*
X170740338Y-143119046D02*
X170787957Y-143166665D01*
X170787957Y-143166665D02*
X170930814Y-143261903D01*
X170930814Y-143261903D02*
X171121290Y-143309522D01*
X171121290Y-143309522D02*
X171502242Y-143309522D01*
X171502242Y-143309522D02*
X171597480Y-143261903D01*
X171597480Y-143261903D02*
X171645100Y-143214284D01*
X171645100Y-143214284D02*
X171692719Y-143119046D01*
X171692719Y-143119046D02*
X171692719Y-142928570D01*
X171692719Y-142928570D02*
X171645100Y-142833332D01*
X171645100Y-142833332D02*
X171597480Y-142785713D01*
X171597480Y-142785713D02*
X171502242Y-142738094D01*
X171502242Y-142738094D02*
X171264147Y-142738094D01*
X171264147Y-142738094D02*
X171168909Y-142785713D01*
X171168909Y-142785713D02*
X171121290Y-142833332D01*
X171121290Y-142833332D02*
X171073671Y-142928570D01*
X171073671Y-142928570D02*
X171073671Y-143119046D01*
X171073671Y-143119046D02*
X171121290Y-143214284D01*
X171121290Y-143214284D02*
X171168909Y-143261903D01*
X171168909Y-143261903D02*
X171264147Y-143309522D01*
X171692719Y-117814284D02*
X170692719Y-117814284D01*
X170692719Y-117814284D02*
X170692719Y-117433332D01*
X170692719Y-117433332D02*
X170740338Y-117338094D01*
X170740338Y-117338094D02*
X170787957Y-117290475D01*
X170787957Y-117290475D02*
X170883195Y-117242856D01*
X170883195Y-117242856D02*
X171026052Y-117242856D01*
X171026052Y-117242856D02*
X171121290Y-117290475D01*
X171121290Y-117290475D02*
X171168909Y-117338094D01*
X171168909Y-117338094D02*
X171216528Y-117433332D01*
X171216528Y-117433332D02*
X171216528Y-117814284D01*
X171692719Y-116290475D02*
X171692719Y-116861903D01*
X171692719Y-116576189D02*
X170692719Y-116576189D01*
X170692719Y-116576189D02*
X170835576Y-116671427D01*
X170835576Y-116671427D02*
X170930814Y-116766665D01*
X170930814Y-116766665D02*
X170978433Y-116861903D01*
X171692719Y-115814284D02*
X171692719Y-115623808D01*
X171692719Y-115623808D02*
X171645100Y-115528570D01*
X171645100Y-115528570D02*
X171597480Y-115480951D01*
X171597480Y-115480951D02*
X171454623Y-115385713D01*
X171454623Y-115385713D02*
X171264147Y-115338094D01*
X171264147Y-115338094D02*
X170883195Y-115338094D01*
X170883195Y-115338094D02*
X170787957Y-115385713D01*
X170787957Y-115385713D02*
X170740338Y-115433332D01*
X170740338Y-115433332D02*
X170692719Y-115528570D01*
X170692719Y-115528570D02*
X170692719Y-115719046D01*
X170692719Y-115719046D02*
X170740338Y-115814284D01*
X170740338Y-115814284D02*
X170787957Y-115861903D01*
X170787957Y-115861903D02*
X170883195Y-115909522D01*
X170883195Y-115909522D02*
X171121290Y-115909522D01*
X171121290Y-115909522D02*
X171216528Y-115861903D01*
X171216528Y-115861903D02*
X171264147Y-115814284D01*
X171264147Y-115814284D02*
X171311766Y-115719046D01*
X171311766Y-115719046D02*
X171311766Y-115528570D01*
X171311766Y-115528570D02*
X171264147Y-115433332D01*
X171264147Y-115433332D02*
X171216528Y-115385713D01*
X171216528Y-115385713D02*
X171121290Y-115338094D01*
X171692719Y-137414284D02*
X170692719Y-137414284D01*
X170692719Y-137414284D02*
X170692719Y-137033332D01*
X170692719Y-137033332D02*
X170740338Y-136938094D01*
X170740338Y-136938094D02*
X170787957Y-136890475D01*
X170787957Y-136890475D02*
X170883195Y-136842856D01*
X170883195Y-136842856D02*
X171026052Y-136842856D01*
X171026052Y-136842856D02*
X171121290Y-136890475D01*
X171121290Y-136890475D02*
X171168909Y-136938094D01*
X171168909Y-136938094D02*
X171216528Y-137033332D01*
X171216528Y-137033332D02*
X171216528Y-137414284D01*
X170787957Y-136461903D02*
X170740338Y-136414284D01*
X170740338Y-136414284D02*
X170692719Y-136319046D01*
X170692719Y-136319046D02*
X170692719Y-136080951D01*
X170692719Y-136080951D02*
X170740338Y-135985713D01*
X170740338Y-135985713D02*
X170787957Y-135938094D01*
X170787957Y-135938094D02*
X170883195Y-135890475D01*
X170883195Y-135890475D02*
X170978433Y-135890475D01*
X170978433Y-135890475D02*
X171121290Y-135938094D01*
X171121290Y-135938094D02*
X171692719Y-136509522D01*
X171692719Y-136509522D02*
X171692719Y-135890475D01*
X171026052Y-135033332D02*
X171692719Y-135033332D01*
X170645100Y-135271427D02*
X171359385Y-135509522D01*
X171359385Y-135509522D02*
X171359385Y-134890475D01*
X155686389Y-54573408D02*
X155686389Y-55287693D01*
X155686389Y-55287693D02*
X155638770Y-55430550D01*
X155638770Y-55430550D02*
X155543532Y-55525789D01*
X155543532Y-55525789D02*
X155400675Y-55573408D01*
X155400675Y-55573408D02*
X155305437Y-55573408D01*
X156067342Y-54573408D02*
X156686389Y-54573408D01*
X156686389Y-54573408D02*
X156353056Y-54954360D01*
X156353056Y-54954360D02*
X156495913Y-54954360D01*
X156495913Y-54954360D02*
X156591151Y-55001979D01*
X156591151Y-55001979D02*
X156638770Y-55049598D01*
X156638770Y-55049598D02*
X156686389Y-55144836D01*
X156686389Y-55144836D02*
X156686389Y-55382931D01*
X156686389Y-55382931D02*
X156638770Y-55478169D01*
X156638770Y-55478169D02*
X156591151Y-55525789D01*
X156591151Y-55525789D02*
X156495913Y-55573408D01*
X156495913Y-55573408D02*
X156210199Y-55573408D01*
X156210199Y-55573408D02*
X156114961Y-55525789D01*
X156114961Y-55525789D02*
X156067342Y-55478169D01*
X171692720Y-113914284D02*
X170692720Y-113914284D01*
X170692720Y-113914284D02*
X170692720Y-113533332D01*
X170692720Y-113533332D02*
X170740339Y-113438094D01*
X170740339Y-113438094D02*
X170787958Y-113390475D01*
X170787958Y-113390475D02*
X170883196Y-113342856D01*
X170883196Y-113342856D02*
X171026053Y-113342856D01*
X171026053Y-113342856D02*
X171121291Y-113390475D01*
X171121291Y-113390475D02*
X171168910Y-113438094D01*
X171168910Y-113438094D02*
X171216529Y-113533332D01*
X171216529Y-113533332D02*
X171216529Y-113914284D01*
X171692720Y-112390475D02*
X171692720Y-112961903D01*
X171692720Y-112676189D02*
X170692720Y-112676189D01*
X170692720Y-112676189D02*
X170835577Y-112771427D01*
X170835577Y-112771427D02*
X170930815Y-112866665D01*
X170930815Y-112866665D02*
X170978434Y-112961903D01*
X171121291Y-111819046D02*
X171073672Y-111914284D01*
X171073672Y-111914284D02*
X171026053Y-111961903D01*
X171026053Y-111961903D02*
X170930815Y-112009522D01*
X170930815Y-112009522D02*
X170883196Y-112009522D01*
X170883196Y-112009522D02*
X170787958Y-111961903D01*
X170787958Y-111961903D02*
X170740339Y-111914284D01*
X170740339Y-111914284D02*
X170692720Y-111819046D01*
X170692720Y-111819046D02*
X170692720Y-111628570D01*
X170692720Y-111628570D02*
X170740339Y-111533332D01*
X170740339Y-111533332D02*
X170787958Y-111485713D01*
X170787958Y-111485713D02*
X170883196Y-111438094D01*
X170883196Y-111438094D02*
X170930815Y-111438094D01*
X170930815Y-111438094D02*
X171026053Y-111485713D01*
X171026053Y-111485713D02*
X171073672Y-111533332D01*
X171073672Y-111533332D02*
X171121291Y-111628570D01*
X171121291Y-111628570D02*
X171121291Y-111819046D01*
X171121291Y-111819046D02*
X171168910Y-111914284D01*
X171168910Y-111914284D02*
X171216529Y-111961903D01*
X171216529Y-111961903D02*
X171311767Y-112009522D01*
X171311767Y-112009522D02*
X171502243Y-112009522D01*
X171502243Y-112009522D02*
X171597481Y-111961903D01*
X171597481Y-111961903D02*
X171645101Y-111914284D01*
X171645101Y-111914284D02*
X171692720Y-111819046D01*
X171692720Y-111819046D02*
X171692720Y-111628570D01*
X171692720Y-111628570D02*
X171645101Y-111533332D01*
X171645101Y-111533332D02*
X171597481Y-111485713D01*
X171597481Y-111485713D02*
X171502243Y-111438094D01*
X171502243Y-111438094D02*
X171311767Y-111438094D01*
X171311767Y-111438094D02*
X171216529Y-111485713D01*
X171216529Y-111485713D02*
X171168910Y-111533332D01*
X171168910Y-111533332D02*
X171121291Y-111628570D01*
X164924805Y-63654819D02*
X164924805Y-62654819D01*
X164924805Y-62654819D02*
X165305757Y-62654819D01*
X165305757Y-62654819D02*
X165400995Y-62702438D01*
X165400995Y-62702438D02*
X165448614Y-62750057D01*
X165448614Y-62750057D02*
X165496233Y-62845295D01*
X165496233Y-62845295D02*
X165496233Y-62988152D01*
X165496233Y-62988152D02*
X165448614Y-63083390D01*
X165448614Y-63083390D02*
X165400995Y-63131009D01*
X165400995Y-63131009D02*
X165305757Y-63178628D01*
X165305757Y-63178628D02*
X164924805Y-63178628D01*
X165877186Y-62750057D02*
X165924805Y-62702438D01*
X165924805Y-62702438D02*
X166020043Y-62654819D01*
X166020043Y-62654819D02*
X166258138Y-62654819D01*
X166258138Y-62654819D02*
X166353376Y-62702438D01*
X166353376Y-62702438D02*
X166400995Y-62750057D01*
X166400995Y-62750057D02*
X166448614Y-62845295D01*
X166448614Y-62845295D02*
X166448614Y-62940533D01*
X166448614Y-62940533D02*
X166400995Y-63083390D01*
X166400995Y-63083390D02*
X165829567Y-63654819D01*
X165829567Y-63654819D02*
X166448614Y-63654819D01*
X171692719Y-61988094D02*
X170692719Y-61988094D01*
X170692719Y-61988094D02*
X170692719Y-61607142D01*
X170692719Y-61607142D02*
X170740338Y-61511904D01*
X170740338Y-61511904D02*
X170787957Y-61464285D01*
X170787957Y-61464285D02*
X170883195Y-61416666D01*
X170883195Y-61416666D02*
X171026052Y-61416666D01*
X171026052Y-61416666D02*
X171121290Y-61464285D01*
X171121290Y-61464285D02*
X171168909Y-61511904D01*
X171168909Y-61511904D02*
X171216528Y-61607142D01*
X171216528Y-61607142D02*
X171216528Y-61988094D01*
X170692719Y-60511904D02*
X170692719Y-60988094D01*
X170692719Y-60988094D02*
X171168909Y-61035713D01*
X171168909Y-61035713D02*
X171121290Y-60988094D01*
X171121290Y-60988094D02*
X171073671Y-60892856D01*
X171073671Y-60892856D02*
X171073671Y-60654761D01*
X171073671Y-60654761D02*
X171121290Y-60559523D01*
X171121290Y-60559523D02*
X171168909Y-60511904D01*
X171168909Y-60511904D02*
X171264147Y-60464285D01*
X171264147Y-60464285D02*
X171502242Y-60464285D01*
X171502242Y-60464285D02*
X171597480Y-60511904D01*
X171597480Y-60511904D02*
X171645100Y-60559523D01*
X171645100Y-60559523D02*
X171692719Y-60654761D01*
X171692719Y-60654761D02*
X171692719Y-60892856D01*
X171692719Y-60892856D02*
X171645100Y-60988094D01*
X171645100Y-60988094D02*
X171597480Y-61035713D01*
X171692720Y-57988093D02*
X170692720Y-57988093D01*
X170692720Y-57988093D02*
X170692720Y-57607141D01*
X170692720Y-57607141D02*
X170740339Y-57511903D01*
X170740339Y-57511903D02*
X170787958Y-57464284D01*
X170787958Y-57464284D02*
X170883196Y-57416665D01*
X170883196Y-57416665D02*
X171026053Y-57416665D01*
X171026053Y-57416665D02*
X171121291Y-57464284D01*
X171121291Y-57464284D02*
X171168910Y-57511903D01*
X171168910Y-57511903D02*
X171216529Y-57607141D01*
X171216529Y-57607141D02*
X171216529Y-57988093D01*
X171026053Y-56559522D02*
X171692720Y-56559522D01*
X170645101Y-56797617D02*
X171359386Y-57035712D01*
X171359386Y-57035712D02*
X171359386Y-56416665D01*
X171692719Y-141314284D02*
X170692719Y-141314284D01*
X170692719Y-141314284D02*
X170692719Y-140933332D01*
X170692719Y-140933332D02*
X170740338Y-140838094D01*
X170740338Y-140838094D02*
X170787957Y-140790475D01*
X170787957Y-140790475D02*
X170883195Y-140742856D01*
X170883195Y-140742856D02*
X171026052Y-140742856D01*
X171026052Y-140742856D02*
X171121290Y-140790475D01*
X171121290Y-140790475D02*
X171168909Y-140838094D01*
X171168909Y-140838094D02*
X171216528Y-140933332D01*
X171216528Y-140933332D02*
X171216528Y-141314284D01*
X170787957Y-140361903D02*
X170740338Y-140314284D01*
X170740338Y-140314284D02*
X170692719Y-140219046D01*
X170692719Y-140219046D02*
X170692719Y-139980951D01*
X170692719Y-139980951D02*
X170740338Y-139885713D01*
X170740338Y-139885713D02*
X170787957Y-139838094D01*
X170787957Y-139838094D02*
X170883195Y-139790475D01*
X170883195Y-139790475D02*
X170978433Y-139790475D01*
X170978433Y-139790475D02*
X171121290Y-139838094D01*
X171121290Y-139838094D02*
X171692719Y-140409522D01*
X171692719Y-140409522D02*
X171692719Y-139790475D01*
X170692719Y-138885713D02*
X170692719Y-139361903D01*
X170692719Y-139361903D02*
X171168909Y-139409522D01*
X171168909Y-139409522D02*
X171121290Y-139361903D01*
X171121290Y-139361903D02*
X171073671Y-139266665D01*
X171073671Y-139266665D02*
X171073671Y-139028570D01*
X171073671Y-139028570D02*
X171121290Y-138933332D01*
X171121290Y-138933332D02*
X171168909Y-138885713D01*
X171168909Y-138885713D02*
X171264147Y-138838094D01*
X171264147Y-138838094D02*
X171502242Y-138838094D01*
X171502242Y-138838094D02*
X171597480Y-138885713D01*
X171597480Y-138885713D02*
X171645100Y-138933332D01*
X171645100Y-138933332D02*
X171692719Y-139028570D01*
X171692719Y-139028570D02*
X171692719Y-139266665D01*
X171692719Y-139266665D02*
X171645100Y-139361903D01*
X171645100Y-139361903D02*
X171597480Y-139409522D01*
X171692719Y-110014284D02*
X170692719Y-110014284D01*
X170692719Y-110014284D02*
X170692719Y-109633332D01*
X170692719Y-109633332D02*
X170740338Y-109538094D01*
X170740338Y-109538094D02*
X170787957Y-109490475D01*
X170787957Y-109490475D02*
X170883195Y-109442856D01*
X170883195Y-109442856D02*
X171026052Y-109442856D01*
X171026052Y-109442856D02*
X171121290Y-109490475D01*
X171121290Y-109490475D02*
X171168909Y-109538094D01*
X171168909Y-109538094D02*
X171216528Y-109633332D01*
X171216528Y-109633332D02*
X171216528Y-110014284D01*
X171692719Y-108490475D02*
X171692719Y-109061903D01*
X171692719Y-108776189D02*
X170692719Y-108776189D01*
X170692719Y-108776189D02*
X170835576Y-108871427D01*
X170835576Y-108871427D02*
X170930814Y-108966665D01*
X170930814Y-108966665D02*
X170978433Y-109061903D01*
X170692719Y-108157141D02*
X170692719Y-107490475D01*
X170692719Y-107490475D02*
X171692719Y-107919046D01*
X171692720Y-121714284D02*
X170692720Y-121714284D01*
X170692720Y-121714284D02*
X170692720Y-121333332D01*
X170692720Y-121333332D02*
X170740339Y-121238094D01*
X170740339Y-121238094D02*
X170787958Y-121190475D01*
X170787958Y-121190475D02*
X170883196Y-121142856D01*
X170883196Y-121142856D02*
X171026053Y-121142856D01*
X171026053Y-121142856D02*
X171121291Y-121190475D01*
X171121291Y-121190475D02*
X171168910Y-121238094D01*
X171168910Y-121238094D02*
X171216529Y-121333332D01*
X171216529Y-121333332D02*
X171216529Y-121714284D01*
X170787958Y-120761903D02*
X170740339Y-120714284D01*
X170740339Y-120714284D02*
X170692720Y-120619046D01*
X170692720Y-120619046D02*
X170692720Y-120380951D01*
X170692720Y-120380951D02*
X170740339Y-120285713D01*
X170740339Y-120285713D02*
X170787958Y-120238094D01*
X170787958Y-120238094D02*
X170883196Y-120190475D01*
X170883196Y-120190475D02*
X170978434Y-120190475D01*
X170978434Y-120190475D02*
X171121291Y-120238094D01*
X171121291Y-120238094D02*
X171692720Y-120809522D01*
X171692720Y-120809522D02*
X171692720Y-120190475D01*
X170692720Y-119571427D02*
X170692720Y-119476189D01*
X170692720Y-119476189D02*
X170740339Y-119380951D01*
X170740339Y-119380951D02*
X170787958Y-119333332D01*
X170787958Y-119333332D02*
X170883196Y-119285713D01*
X170883196Y-119285713D02*
X171073672Y-119238094D01*
X171073672Y-119238094D02*
X171311767Y-119238094D01*
X171311767Y-119238094D02*
X171502243Y-119285713D01*
X171502243Y-119285713D02*
X171597481Y-119333332D01*
X171597481Y-119333332D02*
X171645101Y-119380951D01*
X171645101Y-119380951D02*
X171692720Y-119476189D01*
X171692720Y-119476189D02*
X171692720Y-119571427D01*
X171692720Y-119571427D02*
X171645101Y-119666665D01*
X171645101Y-119666665D02*
X171597481Y-119714284D01*
X171597481Y-119714284D02*
X171502243Y-119761903D01*
X171502243Y-119761903D02*
X171311767Y-119809522D01*
X171311767Y-119809522D02*
X171073672Y-119809522D01*
X171073672Y-119809522D02*
X170883196Y-119761903D01*
X170883196Y-119761903D02*
X170787958Y-119714284D01*
X170787958Y-119714284D02*
X170740339Y-119666665D01*
X170740339Y-119666665D02*
X170692720Y-119571427D01*
X164924805Y-59454818D02*
X164924805Y-58454818D01*
X164924805Y-58454818D02*
X165305757Y-58454818D01*
X165305757Y-58454818D02*
X165400995Y-58502437D01*
X165400995Y-58502437D02*
X165448614Y-58550056D01*
X165448614Y-58550056D02*
X165496233Y-58645294D01*
X165496233Y-58645294D02*
X165496233Y-58788151D01*
X165496233Y-58788151D02*
X165448614Y-58883389D01*
X165448614Y-58883389D02*
X165400995Y-58931008D01*
X165400995Y-58931008D02*
X165305757Y-58978627D01*
X165305757Y-58978627D02*
X164924805Y-58978627D01*
X165829567Y-58454818D02*
X166448614Y-58454818D01*
X166448614Y-58454818D02*
X166115281Y-58835770D01*
X166115281Y-58835770D02*
X166258138Y-58835770D01*
X166258138Y-58835770D02*
X166353376Y-58883389D01*
X166353376Y-58883389D02*
X166400995Y-58931008D01*
X166400995Y-58931008D02*
X166448614Y-59026246D01*
X166448614Y-59026246D02*
X166448614Y-59264341D01*
X166448614Y-59264341D02*
X166400995Y-59359579D01*
X166400995Y-59359579D02*
X166353376Y-59407199D01*
X166353376Y-59407199D02*
X166258138Y-59454818D01*
X166258138Y-59454818D02*
X165972424Y-59454818D01*
X165972424Y-59454818D02*
X165877186Y-59407199D01*
X165877186Y-59407199D02*
X165829567Y-59359579D01*
X164623614Y-146354818D02*
X164623614Y-145354818D01*
X164623614Y-145354818D02*
X165004566Y-145354818D01*
X165004566Y-145354818D02*
X165099804Y-145402437D01*
X165099804Y-145402437D02*
X165147423Y-145450056D01*
X165147423Y-145450056D02*
X165195042Y-145545294D01*
X165195042Y-145545294D02*
X165195042Y-145688151D01*
X165195042Y-145688151D02*
X165147423Y-145783389D01*
X165147423Y-145783389D02*
X165099804Y-145831008D01*
X165099804Y-145831008D02*
X165004566Y-145878627D01*
X165004566Y-145878627D02*
X164623614Y-145878627D01*
X165575995Y-145450056D02*
X165623614Y-145402437D01*
X165623614Y-145402437D02*
X165718852Y-145354818D01*
X165718852Y-145354818D02*
X165956947Y-145354818D01*
X165956947Y-145354818D02*
X166052185Y-145402437D01*
X166052185Y-145402437D02*
X166099804Y-145450056D01*
X166099804Y-145450056D02*
X166147423Y-145545294D01*
X166147423Y-145545294D02*
X166147423Y-145640532D01*
X166147423Y-145640532D02*
X166099804Y-145783389D01*
X166099804Y-145783389D02*
X165528376Y-146354818D01*
X165528376Y-146354818D02*
X166147423Y-146354818D01*
X166623614Y-146354818D02*
X166814090Y-146354818D01*
X166814090Y-146354818D02*
X166909328Y-146307199D01*
X166909328Y-146307199D02*
X166956947Y-146259579D01*
X166956947Y-146259579D02*
X167052185Y-146116722D01*
X167052185Y-146116722D02*
X167099804Y-145926246D01*
X167099804Y-145926246D02*
X167099804Y-145545294D01*
X167099804Y-145545294D02*
X167052185Y-145450056D01*
X167052185Y-145450056D02*
X167004566Y-145402437D01*
X167004566Y-145402437D02*
X166909328Y-145354818D01*
X166909328Y-145354818D02*
X166718852Y-145354818D01*
X166718852Y-145354818D02*
X166623614Y-145402437D01*
X166623614Y-145402437D02*
X166575995Y-145450056D01*
X166575995Y-145450056D02*
X166528376Y-145545294D01*
X166528376Y-145545294D02*
X166528376Y-145783389D01*
X166528376Y-145783389D02*
X166575995Y-145878627D01*
X166575995Y-145878627D02*
X166623614Y-145926246D01*
X166623614Y-145926246D02*
X166718852Y-145973865D01*
X166718852Y-145973865D02*
X166909328Y-145973865D01*
X166909328Y-145973865D02*
X167004566Y-145926246D01*
X167004566Y-145926246D02*
X167052185Y-145878627D01*
X167052185Y-145878627D02*
X167099804Y-145783389D01*
X171692719Y-129514284D02*
X170692719Y-129514284D01*
X170692719Y-129514284D02*
X170692719Y-129133332D01*
X170692719Y-129133332D02*
X170740338Y-129038094D01*
X170740338Y-129038094D02*
X170787957Y-128990475D01*
X170787957Y-128990475D02*
X170883195Y-128942856D01*
X170883195Y-128942856D02*
X171026052Y-128942856D01*
X171026052Y-128942856D02*
X171121290Y-128990475D01*
X171121290Y-128990475D02*
X171168909Y-129038094D01*
X171168909Y-129038094D02*
X171216528Y-129133332D01*
X171216528Y-129133332D02*
X171216528Y-129514284D01*
X170787957Y-128561903D02*
X170740338Y-128514284D01*
X170740338Y-128514284D02*
X170692719Y-128419046D01*
X170692719Y-128419046D02*
X170692719Y-128180951D01*
X170692719Y-128180951D02*
X170740338Y-128085713D01*
X170740338Y-128085713D02*
X170787957Y-128038094D01*
X170787957Y-128038094D02*
X170883195Y-127990475D01*
X170883195Y-127990475D02*
X170978433Y-127990475D01*
X170978433Y-127990475D02*
X171121290Y-128038094D01*
X171121290Y-128038094D02*
X171692719Y-128609522D01*
X171692719Y-128609522D02*
X171692719Y-127990475D01*
X170787957Y-127609522D02*
X170740338Y-127561903D01*
X170740338Y-127561903D02*
X170692719Y-127466665D01*
X170692719Y-127466665D02*
X170692719Y-127228570D01*
X170692719Y-127228570D02*
X170740338Y-127133332D01*
X170740338Y-127133332D02*
X170787957Y-127085713D01*
X170787957Y-127085713D02*
X170883195Y-127038094D01*
X170883195Y-127038094D02*
X170978433Y-127038094D01*
X170978433Y-127038094D02*
X171121290Y-127085713D01*
X171121290Y-127085713D02*
X171692719Y-127657141D01*
X171692719Y-127657141D02*
X171692719Y-127038094D01*
X171692719Y-77988093D02*
X170692719Y-77988093D01*
X170692719Y-77988093D02*
X170692719Y-77607141D01*
X170692719Y-77607141D02*
X170740338Y-77511903D01*
X170740338Y-77511903D02*
X170787957Y-77464284D01*
X170787957Y-77464284D02*
X170883195Y-77416665D01*
X170883195Y-77416665D02*
X171026052Y-77416665D01*
X171026052Y-77416665D02*
X171121290Y-77464284D01*
X171121290Y-77464284D02*
X171168909Y-77511903D01*
X171168909Y-77511903D02*
X171216528Y-77607141D01*
X171216528Y-77607141D02*
X171216528Y-77988093D01*
X171692719Y-76940474D02*
X171692719Y-76749998D01*
X171692719Y-76749998D02*
X171645100Y-76654760D01*
X171645100Y-76654760D02*
X171597480Y-76607141D01*
X171597480Y-76607141D02*
X171454623Y-76511903D01*
X171454623Y-76511903D02*
X171264147Y-76464284D01*
X171264147Y-76464284D02*
X170883195Y-76464284D01*
X170883195Y-76464284D02*
X170787957Y-76511903D01*
X170787957Y-76511903D02*
X170740338Y-76559522D01*
X170740338Y-76559522D02*
X170692719Y-76654760D01*
X170692719Y-76654760D02*
X170692719Y-76845236D01*
X170692719Y-76845236D02*
X170740338Y-76940474D01*
X170740338Y-76940474D02*
X170787957Y-76988093D01*
X170787957Y-76988093D02*
X170883195Y-77035712D01*
X170883195Y-77035712D02*
X171121290Y-77035712D01*
X171121290Y-77035712D02*
X171216528Y-76988093D01*
X171216528Y-76988093D02*
X171264147Y-76940474D01*
X171264147Y-76940474D02*
X171311766Y-76845236D01*
X171311766Y-76845236D02*
X171311766Y-76654760D01*
X171311766Y-76654760D02*
X171264147Y-76559522D01*
X171264147Y-76559522D02*
X171216528Y-76511903D01*
X171216528Y-76511903D02*
X171121290Y-76464284D01*
X171692719Y-86364285D02*
X170692719Y-86364285D01*
X170692719Y-86364285D02*
X170692719Y-85983333D01*
X170692719Y-85983333D02*
X170740338Y-85888095D01*
X170740338Y-85888095D02*
X170787957Y-85840476D01*
X170787957Y-85840476D02*
X170883195Y-85792857D01*
X170883195Y-85792857D02*
X171026052Y-85792857D01*
X171026052Y-85792857D02*
X171121290Y-85840476D01*
X171121290Y-85840476D02*
X171168909Y-85888095D01*
X171168909Y-85888095D02*
X171216528Y-85983333D01*
X171216528Y-85983333D02*
X171216528Y-86364285D01*
X171692719Y-84840476D02*
X171692719Y-85411904D01*
X171692719Y-85126190D02*
X170692719Y-85126190D01*
X170692719Y-85126190D02*
X170835576Y-85221428D01*
X170835576Y-85221428D02*
X170930814Y-85316666D01*
X170930814Y-85316666D02*
X170978433Y-85411904D01*
X171692719Y-83888095D02*
X171692719Y-84459523D01*
X171692719Y-84173809D02*
X170692719Y-84173809D01*
X170692719Y-84173809D02*
X170835576Y-84269047D01*
X170835576Y-84269047D02*
X170930814Y-84364285D01*
X170930814Y-84364285D02*
X170978433Y-84459523D01*
X171692719Y-102114285D02*
X170692719Y-102114285D01*
X170692719Y-102114285D02*
X170692719Y-101733333D01*
X170692719Y-101733333D02*
X170740338Y-101638095D01*
X170740338Y-101638095D02*
X170787957Y-101590476D01*
X170787957Y-101590476D02*
X170883195Y-101542857D01*
X170883195Y-101542857D02*
X171026052Y-101542857D01*
X171026052Y-101542857D02*
X171121290Y-101590476D01*
X171121290Y-101590476D02*
X171168909Y-101638095D01*
X171168909Y-101638095D02*
X171216528Y-101733333D01*
X171216528Y-101733333D02*
X171216528Y-102114285D01*
X171692719Y-100590476D02*
X171692719Y-101161904D01*
X171692719Y-100876190D02*
X170692719Y-100876190D01*
X170692719Y-100876190D02*
X170835576Y-100971428D01*
X170835576Y-100971428D02*
X170930814Y-101066666D01*
X170930814Y-101066666D02*
X170978433Y-101161904D01*
X170692719Y-99685714D02*
X170692719Y-100161904D01*
X170692719Y-100161904D02*
X171168909Y-100209523D01*
X171168909Y-100209523D02*
X171121290Y-100161904D01*
X171121290Y-100161904D02*
X171073671Y-100066666D01*
X171073671Y-100066666D02*
X171073671Y-99828571D01*
X171073671Y-99828571D02*
X171121290Y-99733333D01*
X171121290Y-99733333D02*
X171168909Y-99685714D01*
X171168909Y-99685714D02*
X171264147Y-99638095D01*
X171264147Y-99638095D02*
X171502242Y-99638095D01*
X171502242Y-99638095D02*
X171597480Y-99685714D01*
X171597480Y-99685714D02*
X171645100Y-99733333D01*
X171645100Y-99733333D02*
X171692719Y-99828571D01*
X171692719Y-99828571D02*
X171692719Y-100066666D01*
X171692719Y-100066666D02*
X171645100Y-100161904D01*
X171645100Y-100161904D02*
X171597480Y-100209523D01*
X171692719Y-65988093D02*
X170692719Y-65988093D01*
X170692719Y-65988093D02*
X170692719Y-65607141D01*
X170692719Y-65607141D02*
X170740338Y-65511903D01*
X170740338Y-65511903D02*
X170787957Y-65464284D01*
X170787957Y-65464284D02*
X170883195Y-65416665D01*
X170883195Y-65416665D02*
X171026052Y-65416665D01*
X171026052Y-65416665D02*
X171121290Y-65464284D01*
X171121290Y-65464284D02*
X171168909Y-65511903D01*
X171168909Y-65511903D02*
X171216528Y-65607141D01*
X171216528Y-65607141D02*
X171216528Y-65988093D01*
X170692719Y-64559522D02*
X170692719Y-64749998D01*
X170692719Y-64749998D02*
X170740338Y-64845236D01*
X170740338Y-64845236D02*
X170787957Y-64892855D01*
X170787957Y-64892855D02*
X170930814Y-64988093D01*
X170930814Y-64988093D02*
X171121290Y-65035712D01*
X171121290Y-65035712D02*
X171502242Y-65035712D01*
X171502242Y-65035712D02*
X171597480Y-64988093D01*
X171597480Y-64988093D02*
X171645100Y-64940474D01*
X171645100Y-64940474D02*
X171692719Y-64845236D01*
X171692719Y-64845236D02*
X171692719Y-64654760D01*
X171692719Y-64654760D02*
X171645100Y-64559522D01*
X171645100Y-64559522D02*
X171597480Y-64511903D01*
X171597480Y-64511903D02*
X171502242Y-64464284D01*
X171502242Y-64464284D02*
X171264147Y-64464284D01*
X171264147Y-64464284D02*
X171168909Y-64511903D01*
X171168909Y-64511903D02*
X171121290Y-64559522D01*
X171121290Y-64559522D02*
X171073671Y-64654760D01*
X171073671Y-64654760D02*
X171073671Y-64845236D01*
X171073671Y-64845236D02*
X171121290Y-64940474D01*
X171121290Y-64940474D02*
X171168909Y-64988093D01*
X171168909Y-64988093D02*
X171264147Y-65035712D01*
D11*
%TO.C,P75*%
X139937900Y-100000001D02*
X139637900Y-99700001D01*
X139937900Y-100000001D02*
X140237900Y-99700001D01*
X140237900Y-99700001D02*
X139637900Y-99700001D01*
%TO.C,P71*%
X139937900Y-84250001D02*
X139637900Y-83950001D01*
X139937900Y-84250001D02*
X140237900Y-83950001D01*
X140237900Y-83950001D02*
X139637900Y-83950001D01*
%TO.C,P82*%
X139937900Y-127400000D02*
X139637900Y-127100000D01*
X139937900Y-127400000D02*
X140237900Y-127100000D01*
X140237900Y-127100000D02*
X139637900Y-127100000D01*
%TO.C,P63*%
X129637900Y-56100000D02*
X129337900Y-55800000D01*
X129637900Y-56100000D02*
X129937900Y-55800000D01*
X129937900Y-55800000D02*
X129337900Y-55800000D01*
%TO.C,P80*%
X139937901Y-119600000D02*
X139637901Y-119300000D01*
X139937901Y-119600000D02*
X140237901Y-119300000D01*
X140237901Y-119300000D02*
X139637901Y-119300000D01*
%TO.C,P64*%
X139937901Y-56350000D02*
X139637901Y-56050000D01*
X139937901Y-56350000D02*
X140237901Y-56050000D01*
X140237901Y-56050000D02*
X139637901Y-56050000D01*
%TO.C,P77*%
X139937900Y-107900000D02*
X139637900Y-107600000D01*
X139937900Y-107900000D02*
X140237900Y-107600000D01*
X140237900Y-107600000D02*
X139637900Y-107600000D01*
%TO.C,P85*%
X139937900Y-139200000D02*
X139637900Y-138900000D01*
X139937900Y-139200000D02*
X140237900Y-138900000D01*
X140237900Y-138900000D02*
X139637900Y-138900000D01*
%TO.C,P78*%
X139937901Y-111800000D02*
X139637901Y-111500000D01*
X139937901Y-111800000D02*
X140237901Y-111500000D01*
X140237901Y-111500000D02*
X139637901Y-111500000D01*
%TO.C,P76*%
X139937900Y-103900000D02*
X139637900Y-103600000D01*
X139937900Y-103900000D02*
X140237900Y-103600000D01*
X140237900Y-103600000D02*
X139637900Y-103600000D01*
%TO.C,P79*%
X139937900Y-115700000D02*
X139637900Y-115400000D01*
X139937900Y-115700000D02*
X140237900Y-115400000D01*
X140237900Y-115400000D02*
X139637900Y-115400000D01*
%TO.C,J12*%
X116419723Y-59158589D02*
X116419723Y-153198589D01*
X116419723Y-59158589D02*
X119079723Y-59158589D01*
X116419723Y-153198589D02*
X119079723Y-153198589D01*
X117749723Y-56558589D02*
X119079723Y-56558589D01*
X119079723Y-56558589D02*
X119079723Y-57888589D01*
X119079723Y-59158589D02*
X119079723Y-153198589D01*
%TO.C,P83*%
X139937901Y-131400000D02*
X139637901Y-131100000D01*
X139937901Y-131400000D02*
X140237901Y-131100000D01*
X140237901Y-131100000D02*
X139637901Y-131100000D01*
%TO.C,P70*%
X139937900Y-80350000D02*
X139637900Y-80050000D01*
X139937900Y-80350000D02*
X140237900Y-80050000D01*
X140237900Y-80050000D02*
X139637900Y-80050000D01*
%TO.C,P81*%
X139937900Y-123500000D02*
X139637900Y-123200000D01*
X139937900Y-123500000D02*
X140237900Y-123200000D01*
X140237900Y-123200000D02*
X139637900Y-123200000D01*
%TO.C,P67*%
X139937900Y-68350000D02*
X139637900Y-68050000D01*
X139937900Y-68350000D02*
X140237900Y-68050000D01*
X140237900Y-68050000D02*
X139637900Y-68050000D01*
%TO.C,J11*%
X120419723Y-56558589D02*
X120419723Y-153198589D01*
X120419723Y-56558589D02*
X123019723Y-56558589D01*
X120419723Y-153198589D02*
X125619723Y-153198589D01*
X123019723Y-56558589D02*
X123019723Y-59158589D01*
X123019723Y-59158589D02*
X125619723Y-59158589D01*
X124289723Y-56558589D02*
X125619723Y-56558589D01*
X125619723Y-56558589D02*
X125619723Y-57888589D01*
X125619723Y-59158589D02*
X125619723Y-153198589D01*
%TO.C,P61*%
X129637900Y-64150000D02*
X129337900Y-63850000D01*
X129637900Y-64150000D02*
X129937900Y-63850000D01*
X129937900Y-63850000D02*
X129337900Y-63850000D01*
%TO.C,P88*%
X139937900Y-151000000D02*
X139637900Y-150700000D01*
X139937900Y-151000000D02*
X140237900Y-150700000D01*
X140237900Y-150700000D02*
X139637900Y-150700000D01*
%TO.C,P72*%
X139937900Y-88250000D02*
X139637900Y-87950000D01*
X139937900Y-88250000D02*
X140237900Y-87950000D01*
X140237900Y-87950000D02*
X139637900Y-87950000D01*
%TO.C,P87*%
X139937900Y-147100000D02*
X139637900Y-146800000D01*
X139937900Y-147100000D02*
X140237900Y-146800000D01*
X140237900Y-146800000D02*
X139637900Y-146800000D01*
%TO.C,P74*%
X139937901Y-96000000D02*
X139637901Y-95700000D01*
X139937901Y-96000000D02*
X140237901Y-95700000D01*
X140237901Y-95700000D02*
X139637901Y-95700000D01*
%TO.C,P65*%
X139937900Y-60350001D02*
X139637900Y-60050001D01*
X139937900Y-60350001D02*
X140237900Y-60050001D01*
X140237900Y-60050001D02*
X139637900Y-60050001D01*
%TO.C,P62*%
X129637900Y-60185000D02*
X129337900Y-59885000D01*
X129637900Y-60185000D02*
X129937900Y-59885000D01*
X129937900Y-59885000D02*
X129337900Y-59885000D01*
%TO.C,P73*%
X139937900Y-92100000D02*
X139637900Y-91800000D01*
X139937900Y-92100000D02*
X140237900Y-91800000D01*
X140237900Y-91800000D02*
X139637900Y-91800000D01*
%TO.C,P89*%
X129637900Y-146800000D02*
X129337900Y-146500000D01*
X129637900Y-146800000D02*
X129937900Y-146500000D01*
X129937900Y-146500000D02*
X129337900Y-146500000D01*
%TO.C,P90*%
X129662899Y-150700001D02*
X129362899Y-150400001D01*
X129662899Y-150700001D02*
X129962899Y-150400001D01*
X129962899Y-150400001D02*
X129362899Y-150400001D01*
%TO.C,P66*%
X139937900Y-64350000D02*
X139637900Y-64050000D01*
X139937900Y-64350000D02*
X140237900Y-64050000D01*
X140237900Y-64050000D02*
X139637900Y-64050000D01*
%TO.C,J13*%
X131468723Y-68170000D02*
X131468723Y-144490000D01*
X131468723Y-68170000D02*
X134068722Y-68170000D01*
X131468723Y-144490000D02*
X136668723Y-144490001D01*
X134068722Y-68170000D02*
X134068723Y-70770000D01*
X134068723Y-70770000D02*
X136668723Y-70770001D01*
X135338723Y-68170000D02*
X136668723Y-68170000D01*
X136668723Y-68170000D02*
X136668723Y-69500000D01*
X136668723Y-70770001D02*
X136668723Y-144490001D01*
%TO.C,J10*%
X128908723Y-70750002D02*
X128908723Y-144470002D01*
X128908723Y-70750002D02*
X131568723Y-70750002D01*
X128908723Y-144470002D02*
X131568723Y-144470002D01*
X130238723Y-68150001D02*
X131568723Y-68150001D01*
X131568723Y-68150001D02*
X131568723Y-69480001D01*
X131568723Y-70750002D02*
X131568723Y-144470002D01*
%TO.C,P68*%
X139937900Y-72350000D02*
X139637900Y-72050000D01*
X139937900Y-72350000D02*
X140237900Y-72050000D01*
X140237900Y-72050000D02*
X139637900Y-72050000D01*
%TO.C,P86*%
X139937900Y-143100000D02*
X139637900Y-142800000D01*
X139937900Y-143100000D02*
X140237900Y-142800000D01*
X140237900Y-142800000D02*
X139637900Y-142800000D01*
%TO.C,P69*%
X139937900Y-76350000D02*
X139637900Y-76050000D01*
X139937900Y-76350000D02*
X140237900Y-76050000D01*
X140237900Y-76050000D02*
X139637900Y-76050000D01*
%TO.C,P84*%
X139937900Y-135300000D02*
X139637900Y-135000000D01*
X139937900Y-135300000D02*
X140237900Y-135000000D01*
X140237900Y-135000000D02*
X139637900Y-135000000D01*
%TO.C,J9*%
X98468723Y-68170000D02*
X98468723Y-144490000D01*
X98468723Y-68170000D02*
X101068722Y-68170000D01*
X98468723Y-144490000D02*
X103668723Y-144490001D01*
X101068722Y-68170000D02*
X101068723Y-70770000D01*
X101068723Y-70770000D02*
X103668723Y-70770001D01*
X102338723Y-68170000D02*
X103668723Y-68170000D01*
X103668723Y-68170000D02*
X103668723Y-69500000D01*
X103668723Y-70770001D02*
X103668723Y-144490001D01*
%TO.C,J6*%
X95908723Y-70750002D02*
X95908723Y-144470002D01*
X95908723Y-70750002D02*
X98568723Y-70750002D01*
X95908723Y-144470002D02*
X98568723Y-144470002D01*
X97238723Y-68150001D02*
X98568723Y-68150001D01*
X98568723Y-68150001D02*
X98568723Y-69480001D01*
X98568723Y-70750002D02*
X98568723Y-144470002D01*
%TO.C,P41*%
X106937900Y-84250001D02*
X106637900Y-83950001D01*
X106937900Y-84250001D02*
X107237900Y-83950001D01*
X107237900Y-83950001D02*
X106637900Y-83950001D01*
%TO.C,P52*%
X106937900Y-127400000D02*
X106637900Y-127100000D01*
X106937900Y-127400000D02*
X107237900Y-127100000D01*
X107237900Y-127100000D02*
X106637900Y-127100000D01*
%TO.C,P32*%
X96637900Y-60185000D02*
X96337900Y-59885000D01*
X96637900Y-60185000D02*
X96937900Y-59885000D01*
X96937900Y-59885000D02*
X96337900Y-59885000D01*
%TO.C,P33*%
X96637900Y-56100000D02*
X96337900Y-55800000D01*
X96637900Y-56100000D02*
X96937900Y-55800000D01*
X96937900Y-55800000D02*
X96337900Y-55800000D01*
%TO.C,P50*%
X106937901Y-119600000D02*
X106637901Y-119300000D01*
X106937901Y-119600000D02*
X107237901Y-119300000D01*
X107237901Y-119300000D02*
X106637901Y-119300000D01*
%TO.C,P34*%
X106937901Y-56350000D02*
X106637901Y-56050000D01*
X106937901Y-56350000D02*
X107237901Y-56050000D01*
X107237901Y-56050000D02*
X106637901Y-56050000D01*
%TO.C,P35*%
X106937900Y-60350001D02*
X106637900Y-60050001D01*
X106937900Y-60350001D02*
X107237900Y-60050001D01*
X107237900Y-60050001D02*
X106637900Y-60050001D01*
%TO.C,P55*%
X106937900Y-139200000D02*
X106637900Y-138900000D01*
X106937900Y-139200000D02*
X107237900Y-138900000D01*
X107237900Y-138900000D02*
X106637900Y-138900000D01*
%TO.C,P48*%
X106937901Y-111800000D02*
X106637901Y-111500000D01*
X106937901Y-111800000D02*
X107237901Y-111500000D01*
X107237901Y-111500000D02*
X106637901Y-111500000D01*
%TO.C,P49*%
X106937900Y-115700000D02*
X106637900Y-115400000D01*
X106937900Y-115700000D02*
X107237900Y-115400000D01*
X107237900Y-115400000D02*
X106637900Y-115400000D01*
%TO.C,P56*%
X106937900Y-143100000D02*
X106637900Y-142800000D01*
X106937900Y-143100000D02*
X107237900Y-142800000D01*
X107237900Y-142800000D02*
X106637900Y-142800000D01*
%TO.C,P51*%
X106937900Y-123500000D02*
X106637900Y-123200000D01*
X106937900Y-123500000D02*
X107237900Y-123200000D01*
X107237900Y-123200000D02*
X106637900Y-123200000D01*
%TO.C,P57*%
X106937900Y-147100000D02*
X106637900Y-146800000D01*
X106937900Y-147100000D02*
X107237900Y-146800000D01*
X107237900Y-146800000D02*
X106637900Y-146800000D01*
%TO.C,P43*%
X106937900Y-92100000D02*
X106637900Y-91800000D01*
X106937900Y-92100000D02*
X107237900Y-91800000D01*
X107237900Y-91800000D02*
X106637900Y-91800000D01*
%TO.C,J7*%
X87419723Y-56558589D02*
X87419723Y-153198589D01*
X87419723Y-56558589D02*
X90019723Y-56558589D01*
X87419723Y-153198589D02*
X92619723Y-153198589D01*
X90019723Y-56558589D02*
X90019723Y-59158589D01*
X90019723Y-59158589D02*
X92619723Y-59158589D01*
X91289723Y-56558589D02*
X92619723Y-56558589D01*
X92619723Y-56558589D02*
X92619723Y-57888589D01*
X92619723Y-59158589D02*
X92619723Y-153198589D01*
%TO.C,P31*%
X96637900Y-64150000D02*
X96337900Y-63850000D01*
X96637900Y-64150000D02*
X96937900Y-63850000D01*
X96937900Y-63850000D02*
X96337900Y-63850000D01*
%TO.C,P38*%
X106937900Y-72350000D02*
X106637900Y-72050000D01*
X106937900Y-72350000D02*
X107237900Y-72050000D01*
X107237900Y-72050000D02*
X106637900Y-72050000D01*
%TO.C,P58*%
X106937900Y-151000000D02*
X106637900Y-150700000D01*
X106937900Y-151000000D02*
X107237900Y-150700000D01*
X107237900Y-150700000D02*
X106637900Y-150700000D01*
%TO.C,P44*%
X106937901Y-96000000D02*
X106637901Y-95700000D01*
X106937901Y-96000000D02*
X107237901Y-95700000D01*
X107237901Y-95700000D02*
X106637901Y-95700000D01*
%TO.C,J8*%
X83419723Y-59158589D02*
X83419723Y-153198589D01*
X83419723Y-59158589D02*
X86079723Y-59158589D01*
X83419723Y-153198589D02*
X86079723Y-153198589D01*
X84749723Y-56558589D02*
X86079723Y-56558589D01*
X86079723Y-56558589D02*
X86079723Y-57888589D01*
X86079723Y-59158589D02*
X86079723Y-153198589D01*
%TO.C,P37*%
X106937900Y-68350000D02*
X106637900Y-68050000D01*
X106937900Y-68350000D02*
X107237900Y-68050000D01*
X107237900Y-68050000D02*
X106637900Y-68050000D01*
%TO.C,P36*%
X106937900Y-64350000D02*
X106637900Y-64050000D01*
X106937900Y-64350000D02*
X107237900Y-64050000D01*
X107237900Y-64050000D02*
X106637900Y-64050000D01*
%TO.C,P53*%
X106937901Y-131400000D02*
X106637901Y-131100000D01*
X106937901Y-131400000D02*
X107237901Y-131100000D01*
X107237901Y-131100000D02*
X106637901Y-131100000D01*
%TO.C,P47*%
X106937900Y-107900000D02*
X106637900Y-107600000D01*
X106937900Y-107900000D02*
X107237900Y-107600000D01*
X107237900Y-107600000D02*
X106637900Y-107600000D01*
%TO.C,P40*%
X106937900Y-80350000D02*
X106637900Y-80050000D01*
X106937900Y-80350000D02*
X107237900Y-80050000D01*
X107237900Y-80050000D02*
X106637900Y-80050000D01*
%TO.C,P60*%
X96662899Y-150700001D02*
X96362899Y-150400001D01*
X96662899Y-150700001D02*
X96962899Y-150400001D01*
X96962899Y-150400001D02*
X96362899Y-150400001D01*
%TO.C,P46*%
X106937900Y-103900000D02*
X106637900Y-103600000D01*
X106937900Y-103900000D02*
X107237900Y-103600000D01*
X107237900Y-103600000D02*
X106637900Y-103600000D01*
%TO.C,P42*%
X106937900Y-88250000D02*
X106637900Y-87950000D01*
X106937900Y-88250000D02*
X107237900Y-87950000D01*
X107237900Y-87950000D02*
X106637900Y-87950000D01*
%TO.C,P59*%
X96637900Y-146800000D02*
X96337900Y-146500000D01*
X96637900Y-146800000D02*
X96937900Y-146500000D01*
X96937900Y-146500000D02*
X96337900Y-146500000D01*
%TO.C,P45*%
X106937900Y-100000001D02*
X106637900Y-99700001D01*
X106937900Y-100000001D02*
X107237900Y-99700001D01*
X107237900Y-99700001D02*
X106637900Y-99700001D01*
%TO.C,P39*%
X106937900Y-76350000D02*
X106637900Y-76050000D01*
X106937900Y-76350000D02*
X107237900Y-76050000D01*
X107237900Y-76050000D02*
X106637900Y-76050000D01*
%TO.C,P54*%
X106937900Y-135300000D02*
X106637900Y-135000000D01*
X106937900Y-135300000D02*
X107237900Y-135000000D01*
X107237900Y-135000000D02*
X106637900Y-135000000D01*
%TO.C,P30*%
X162662899Y-150700001D02*
X162362899Y-150400001D01*
X162662899Y-150700001D02*
X162962899Y-150400001D01*
X162962899Y-150400001D02*
X162362899Y-150400001D01*
%TO.C,P7*%
X172937900Y-68350000D02*
X172637900Y-68050000D01*
X172937900Y-68350000D02*
X173237900Y-68050000D01*
X173237900Y-68050000D02*
X172637900Y-68050000D01*
%TO.C,P27*%
X172937900Y-147100000D02*
X172637900Y-146800000D01*
X172937900Y-147100000D02*
X173237900Y-146800000D01*
X173237900Y-146800000D02*
X172637900Y-146800000D01*
%TO.C,P13*%
X172937900Y-92100000D02*
X172637900Y-91800000D01*
X172937900Y-92100000D02*
X173237900Y-91800000D01*
X173237900Y-91800000D02*
X172637900Y-91800000D01*
%TO.C,P28*%
X172937900Y-151000000D02*
X172637900Y-150700000D01*
X172937900Y-151000000D02*
X173237900Y-150700000D01*
X173237900Y-150700000D02*
X172637900Y-150700000D01*
%TO.C,P14*%
X172937901Y-96000000D02*
X172637901Y-95700000D01*
X172937901Y-96000000D02*
X173237901Y-95700000D01*
X173237901Y-95700000D02*
X172637901Y-95700000D01*
%TO.C,P1*%
X162637900Y-64150000D02*
X162337900Y-63850000D01*
X162637900Y-64150000D02*
X162937900Y-63850000D01*
X162937900Y-63850000D02*
X162337900Y-63850000D01*
%TO.C,P8*%
X172937900Y-72350000D02*
X172637900Y-72050000D01*
X172937900Y-72350000D02*
X173237900Y-72050000D01*
X173237900Y-72050000D02*
X172637900Y-72050000D01*
%TO.C,P21*%
X172937900Y-123500000D02*
X172637900Y-123200000D01*
X172937900Y-123500000D02*
X173237900Y-123200000D01*
X173237900Y-123200000D02*
X172637900Y-123200000D01*
%TO.C,P10*%
X172937900Y-80350000D02*
X172637900Y-80050000D01*
X172937900Y-80350000D02*
X173237900Y-80050000D01*
X173237900Y-80050000D02*
X172637900Y-80050000D01*
%TO.C,P23*%
X172937901Y-131400000D02*
X172637901Y-131100000D01*
X172937901Y-131400000D02*
X173237901Y-131100000D01*
X173237901Y-131100000D02*
X172637901Y-131100000D01*
%TO.C,P12*%
X172937900Y-88250000D02*
X172637900Y-87950000D01*
X172937900Y-88250000D02*
X173237900Y-87950000D01*
X173237900Y-87950000D02*
X172637900Y-87950000D01*
%TO.C,J5*%
X164468723Y-68170000D02*
X164468723Y-144490000D01*
X164468723Y-68170000D02*
X167068722Y-68170000D01*
X164468723Y-144490000D02*
X169668723Y-144490001D01*
X167068722Y-68170000D02*
X167068723Y-70770000D01*
X167068723Y-70770000D02*
X169668723Y-70770001D01*
X168338723Y-68170000D02*
X169668723Y-68170000D01*
X169668723Y-68170000D02*
X169668723Y-69500000D01*
X169668723Y-70770001D02*
X169668723Y-144490001D01*
%TO.C,J4*%
X149419723Y-59158589D02*
X149419723Y-153198589D01*
X149419723Y-59158589D02*
X152079723Y-59158589D01*
X149419723Y-153198589D02*
X152079723Y-153198589D01*
X150749723Y-56558589D02*
X152079723Y-56558589D01*
X152079723Y-56558589D02*
X152079723Y-57888589D01*
X152079723Y-59158589D02*
X152079723Y-153198589D01*
%TO.C,P16*%
X172937900Y-103900000D02*
X172637900Y-103600000D01*
X172937900Y-103900000D02*
X173237900Y-103600000D01*
X173237900Y-103600000D02*
X172637900Y-103600000D01*
%TO.C,P26*%
X172937900Y-143100000D02*
X172637900Y-142800000D01*
X172937900Y-143100000D02*
X173237900Y-142800000D01*
X173237900Y-142800000D02*
X172637900Y-142800000D01*
%TO.C,P19*%
X172937900Y-115700000D02*
X172637900Y-115400000D01*
X172937900Y-115700000D02*
X173237900Y-115400000D01*
X173237900Y-115400000D02*
X172637900Y-115400000D01*
%TO.C,P24*%
X172937900Y-135300000D02*
X172637900Y-135000000D01*
X172937900Y-135300000D02*
X173237900Y-135000000D01*
X173237900Y-135000000D02*
X172637900Y-135000000D01*
%TO.C,J3*%
X153419723Y-56558589D02*
X153419723Y-153198589D01*
X153419723Y-56558589D02*
X156019723Y-56558589D01*
X153419723Y-153198589D02*
X158619723Y-153198589D01*
X156019723Y-56558589D02*
X156019723Y-59158589D01*
X156019723Y-59158589D02*
X158619723Y-59158589D01*
X157289723Y-56558589D02*
X158619723Y-56558589D01*
X158619723Y-56558589D02*
X158619723Y-57888589D01*
X158619723Y-59158589D02*
X158619723Y-153198589D01*
%TO.C,P18*%
X172937901Y-111800000D02*
X172637901Y-111500000D01*
X172937901Y-111800000D02*
X173237901Y-111500000D01*
X173237901Y-111500000D02*
X172637901Y-111500000D01*
%TO.C,P2*%
X162637900Y-60185000D02*
X162337900Y-59885000D01*
X162637900Y-60185000D02*
X162937900Y-59885000D01*
X162937900Y-59885000D02*
X162337900Y-59885000D01*
%TO.C,P5*%
X172937900Y-60350001D02*
X172637900Y-60050001D01*
X172937900Y-60350001D02*
X173237900Y-60050001D01*
X173237900Y-60050001D02*
X172637900Y-60050001D01*
%TO.C,P4*%
X172937901Y-56350000D02*
X172637901Y-56050000D01*
X172937901Y-56350000D02*
X173237901Y-56050000D01*
X173237901Y-56050000D02*
X172637901Y-56050000D01*
%TO.C,P25*%
X172937900Y-139200000D02*
X172637900Y-138900000D01*
X172937900Y-139200000D02*
X173237900Y-138900000D01*
X173237900Y-138900000D02*
X172637900Y-138900000D01*
%TO.C,P17*%
X172937900Y-107900000D02*
X172637900Y-107600000D01*
X172937900Y-107900000D02*
X173237900Y-107600000D01*
X173237900Y-107600000D02*
X172637900Y-107600000D01*
%TO.C,J2*%
X161908723Y-70750002D02*
X161908723Y-144470002D01*
X161908723Y-70750002D02*
X164568723Y-70750002D01*
X161908723Y-144470002D02*
X164568723Y-144470002D01*
X163238723Y-68150001D02*
X164568723Y-68150001D01*
X164568723Y-68150001D02*
X164568723Y-69480001D01*
X164568723Y-70750002D02*
X164568723Y-144470002D01*
%TO.C,P20*%
X172937901Y-119600000D02*
X172637901Y-119300000D01*
X172937901Y-119600000D02*
X173237901Y-119300000D01*
X173237901Y-119300000D02*
X172637901Y-119300000D01*
%TO.C,P3*%
X162637900Y-56100000D02*
X162337900Y-55800000D01*
X162637900Y-56100000D02*
X162937900Y-55800000D01*
X162937900Y-55800000D02*
X162337900Y-55800000D01*
%TO.C,P29*%
X162637900Y-146800000D02*
X162337900Y-146500000D01*
X162637900Y-146800000D02*
X162937900Y-146500000D01*
X162937900Y-146500000D02*
X162337900Y-146500000D01*
%TO.C,P22*%
X172937900Y-127400000D02*
X172637900Y-127100000D01*
X172937900Y-127400000D02*
X173237900Y-127100000D01*
X173237900Y-127100000D02*
X172637900Y-127100000D01*
%TO.C,P9*%
X172937900Y-76350000D02*
X172637900Y-76050000D01*
X172937900Y-76350000D02*
X173237900Y-76050000D01*
X173237900Y-76050000D02*
X172637900Y-76050000D01*
%TO.C,P11*%
X172937900Y-84250001D02*
X172637900Y-83950001D01*
X172937900Y-84250001D02*
X173237900Y-83950001D01*
X173237900Y-83950001D02*
X172637900Y-83950001D01*
%TO.C,P15*%
X172937900Y-100000001D02*
X172637900Y-99700001D01*
X172937900Y-100000001D02*
X173237900Y-99700001D01*
X173237900Y-99700001D02*
X172637900Y-99700001D01*
%TO.C,P6*%
X172937900Y-64350000D02*
X172637900Y-64050000D01*
X172937900Y-64350000D02*
X173237900Y-64050000D01*
X173237900Y-64050000D02*
X172637900Y-64050000D01*
%TD*%
M02*
