%TF.GenerationSoftware,KiCad,Pcbnew,9.0.4*%
%TF.CreationDate,2025-12-22T14:42:49-05:00*%
%TF.ProjectId,Mess-CharliePlexing,4d657373-2d43-4686-9172-6c6965506c65,rev?*%
%TF.SameCoordinates,Original*%
%TF.FileFunction,Legend,Bot*%
%TF.FilePolarity,Positive*%
%FSLAX46Y46*%
G04 Gerber Fmt 4.6, Leading zero omitted, Abs format (unit mm)*
G04 Created by KiCad (PCBNEW 9.0.4) date 2025-12-22 14:42:49*
%MOMM*%
%LPD*%
G01*
G04 APERTURE LIST*
%ADD10C,0.150000*%
%ADD11C,0.120000*%
%ADD12C,0.000000*%
G04 APERTURE END LIST*
D10*
X150440124Y-94661904D02*
X151440124Y-94661904D01*
X151440124Y-93995238D02*
X151440124Y-93804762D01*
X151440124Y-93804762D02*
X151392505Y-93709524D01*
X151392505Y-93709524D02*
X151297267Y-93614286D01*
X151297267Y-93614286D02*
X151106791Y-93566667D01*
X151106791Y-93566667D02*
X150773458Y-93566667D01*
X150773458Y-93566667D02*
X150582982Y-93614286D01*
X150582982Y-93614286D02*
X150487744Y-93709524D01*
X150487744Y-93709524D02*
X150440124Y-93804762D01*
X150440124Y-93804762D02*
X150440124Y-93995238D01*
X150440124Y-93995238D02*
X150487744Y-94090476D01*
X150487744Y-94090476D02*
X150582982Y-94185714D01*
X150582982Y-94185714D02*
X150773458Y-94233333D01*
X150773458Y-94233333D02*
X151106791Y-94233333D01*
X151106791Y-94233333D02*
X151297267Y-94185714D01*
X151297267Y-94185714D02*
X151392505Y-94090476D01*
X151392505Y-94090476D02*
X151440124Y-93995238D01*
X151440124Y-93280952D02*
X151440124Y-92709524D01*
X150440124Y-92995238D02*
X151440124Y-92995238D01*
X150344886Y-92614286D02*
X150344886Y-91852381D01*
X150440124Y-91614285D02*
X151440124Y-91614285D01*
X151440124Y-91614285D02*
X150725839Y-91280952D01*
X150725839Y-91280952D02*
X151440124Y-90947619D01*
X151440124Y-90947619D02*
X150440124Y-90947619D01*
X150487744Y-90090476D02*
X150440124Y-90185714D01*
X150440124Y-90185714D02*
X150440124Y-90376190D01*
X150440124Y-90376190D02*
X150487744Y-90471428D01*
X150487744Y-90471428D02*
X150582982Y-90519047D01*
X150582982Y-90519047D02*
X150963934Y-90519047D01*
X150963934Y-90519047D02*
X151059172Y-90471428D01*
X151059172Y-90471428D02*
X151106791Y-90376190D01*
X151106791Y-90376190D02*
X151106791Y-90185714D01*
X151106791Y-90185714D02*
X151059172Y-90090476D01*
X151059172Y-90090476D02*
X150963934Y-90042857D01*
X150963934Y-90042857D02*
X150868696Y-90042857D01*
X150868696Y-90042857D02*
X150773458Y-90519047D01*
X150487744Y-89661904D02*
X150440124Y-89566666D01*
X150440124Y-89566666D02*
X150440124Y-89376190D01*
X150440124Y-89376190D02*
X150487744Y-89280952D01*
X150487744Y-89280952D02*
X150582982Y-89233333D01*
X150582982Y-89233333D02*
X150630601Y-89233333D01*
X150630601Y-89233333D02*
X150725839Y-89280952D01*
X150725839Y-89280952D02*
X150773458Y-89376190D01*
X150773458Y-89376190D02*
X150773458Y-89519047D01*
X150773458Y-89519047D02*
X150821077Y-89614285D01*
X150821077Y-89614285D02*
X150916315Y-89661904D01*
X150916315Y-89661904D02*
X150963934Y-89661904D01*
X150963934Y-89661904D02*
X151059172Y-89614285D01*
X151059172Y-89614285D02*
X151106791Y-89519047D01*
X151106791Y-89519047D02*
X151106791Y-89376190D01*
X151106791Y-89376190D02*
X151059172Y-89280952D01*
X150487744Y-88852380D02*
X150440124Y-88757142D01*
X150440124Y-88757142D02*
X150440124Y-88566666D01*
X150440124Y-88566666D02*
X150487744Y-88471428D01*
X150487744Y-88471428D02*
X150582982Y-88423809D01*
X150582982Y-88423809D02*
X150630601Y-88423809D01*
X150630601Y-88423809D02*
X150725839Y-88471428D01*
X150725839Y-88471428D02*
X150773458Y-88566666D01*
X150773458Y-88566666D02*
X150773458Y-88709523D01*
X150773458Y-88709523D02*
X150821077Y-88804761D01*
X150821077Y-88804761D02*
X150916315Y-88852380D01*
X150916315Y-88852380D02*
X150963934Y-88852380D01*
X150963934Y-88852380D02*
X151059172Y-88804761D01*
X151059172Y-88804761D02*
X151106791Y-88709523D01*
X151106791Y-88709523D02*
X151106791Y-88566666D01*
X151106791Y-88566666D02*
X151059172Y-88471428D01*
X150440124Y-86757142D02*
X150440124Y-87233332D01*
X150440124Y-87233332D02*
X151440124Y-87233332D01*
X150963934Y-86423808D02*
X150963934Y-86090475D01*
X150440124Y-85947618D02*
X150440124Y-86423808D01*
X150440124Y-86423808D02*
X151440124Y-86423808D01*
X151440124Y-86423808D02*
X151440124Y-85947618D01*
X150440124Y-85519046D02*
X151440124Y-85519046D01*
X151440124Y-85519046D02*
X151440124Y-85280951D01*
X151440124Y-85280951D02*
X151392505Y-85138094D01*
X151392505Y-85138094D02*
X151297267Y-85042856D01*
X151297267Y-85042856D02*
X151202029Y-84995237D01*
X151202029Y-84995237D02*
X151011553Y-84947618D01*
X151011553Y-84947618D02*
X150868696Y-84947618D01*
X150868696Y-84947618D02*
X150678220Y-84995237D01*
X150678220Y-84995237D02*
X150582982Y-85042856D01*
X150582982Y-85042856D02*
X150487744Y-85138094D01*
X150487744Y-85138094D02*
X150440124Y-85280951D01*
X150440124Y-85280951D02*
X150440124Y-85519046D01*
X151440124Y-84042856D02*
X151440124Y-84519046D01*
X151440124Y-84519046D02*
X150963934Y-84566665D01*
X150963934Y-84566665D02*
X151011553Y-84519046D01*
X151011553Y-84519046D02*
X151059172Y-84423808D01*
X151059172Y-84423808D02*
X151059172Y-84185713D01*
X151059172Y-84185713D02*
X151011553Y-84090475D01*
X151011553Y-84090475D02*
X150963934Y-84042856D01*
X150963934Y-84042856D02*
X150868696Y-83995237D01*
X150868696Y-83995237D02*
X150630601Y-83995237D01*
X150630601Y-83995237D02*
X150535363Y-84042856D01*
X150535363Y-84042856D02*
X150487744Y-84090475D01*
X150487744Y-84090475D02*
X150440124Y-84185713D01*
X150440124Y-84185713D02*
X150440124Y-84423808D01*
X150440124Y-84423808D02*
X150487744Y-84519046D01*
X150487744Y-84519046D02*
X150535363Y-84566665D01*
X150440124Y-83519046D02*
X150440124Y-83328570D01*
X150440124Y-83328570D02*
X150487744Y-83233332D01*
X150487744Y-83233332D02*
X150535363Y-83185713D01*
X150535363Y-83185713D02*
X150678220Y-83090475D01*
X150678220Y-83090475D02*
X150868696Y-83042856D01*
X150868696Y-83042856D02*
X151249648Y-83042856D01*
X151249648Y-83042856D02*
X151344886Y-83090475D01*
X151344886Y-83090475D02*
X151392505Y-83138094D01*
X151392505Y-83138094D02*
X151440124Y-83233332D01*
X151440124Y-83233332D02*
X151440124Y-83423808D01*
X151440124Y-83423808D02*
X151392505Y-83519046D01*
X151392505Y-83519046D02*
X151344886Y-83566665D01*
X151344886Y-83566665D02*
X151249648Y-83614284D01*
X151249648Y-83614284D02*
X151011553Y-83614284D01*
X151011553Y-83614284D02*
X150916315Y-83566665D01*
X150916315Y-83566665D02*
X150868696Y-83519046D01*
X150868696Y-83519046D02*
X150821077Y-83423808D01*
X150821077Y-83423808D02*
X150821077Y-83233332D01*
X150821077Y-83233332D02*
X150868696Y-83138094D01*
X150868696Y-83138094D02*
X150916315Y-83090475D01*
X150916315Y-83090475D02*
X151011553Y-83042856D01*
X151440124Y-82138094D02*
X151440124Y-82614284D01*
X151440124Y-82614284D02*
X150963934Y-82661903D01*
X150963934Y-82661903D02*
X151011553Y-82614284D01*
X151011553Y-82614284D02*
X151059172Y-82519046D01*
X151059172Y-82519046D02*
X151059172Y-82280951D01*
X151059172Y-82280951D02*
X151011553Y-82185713D01*
X151011553Y-82185713D02*
X150963934Y-82138094D01*
X150963934Y-82138094D02*
X150868696Y-82090475D01*
X150868696Y-82090475D02*
X150630601Y-82090475D01*
X150630601Y-82090475D02*
X150535363Y-82138094D01*
X150535363Y-82138094D02*
X150487744Y-82185713D01*
X150487744Y-82185713D02*
X150440124Y-82280951D01*
X150440124Y-82280951D02*
X150440124Y-82519046D01*
X150440124Y-82519046D02*
X150487744Y-82614284D01*
X150487744Y-82614284D02*
X150535363Y-82661903D01*
X149830180Y-93733332D02*
X148830180Y-93399999D01*
X148830180Y-93399999D02*
X149830180Y-93066666D01*
X149734942Y-92780951D02*
X149782561Y-92733332D01*
X149782561Y-92733332D02*
X149830180Y-92638094D01*
X149830180Y-92638094D02*
X149830180Y-92399999D01*
X149830180Y-92399999D02*
X149782561Y-92304761D01*
X149782561Y-92304761D02*
X149734942Y-92257142D01*
X149734942Y-92257142D02*
X149639704Y-92209523D01*
X149639704Y-92209523D02*
X149544466Y-92209523D01*
X149544466Y-92209523D02*
X149401609Y-92257142D01*
X149401609Y-92257142D02*
X148830180Y-92828570D01*
X148830180Y-92828570D02*
X148830180Y-92209523D01*
X148925419Y-91780951D02*
X148877800Y-91733332D01*
X148877800Y-91733332D02*
X148830180Y-91780951D01*
X148830180Y-91780951D02*
X148877800Y-91828570D01*
X148877800Y-91828570D02*
X148925419Y-91780951D01*
X148925419Y-91780951D02*
X148830180Y-91780951D01*
X149830180Y-91114285D02*
X149830180Y-91019047D01*
X149830180Y-91019047D02*
X149782561Y-90923809D01*
X149782561Y-90923809D02*
X149734942Y-90876190D01*
X149734942Y-90876190D02*
X149639704Y-90828571D01*
X149639704Y-90828571D02*
X149449228Y-90780952D01*
X149449228Y-90780952D02*
X149211133Y-90780952D01*
X149211133Y-90780952D02*
X149020657Y-90828571D01*
X149020657Y-90828571D02*
X148925419Y-90876190D01*
X148925419Y-90876190D02*
X148877800Y-90923809D01*
X148877800Y-90923809D02*
X148830180Y-91019047D01*
X148830180Y-91019047D02*
X148830180Y-91114285D01*
X148830180Y-91114285D02*
X148877800Y-91209523D01*
X148877800Y-91209523D02*
X148925419Y-91257142D01*
X148925419Y-91257142D02*
X149020657Y-91304761D01*
X149020657Y-91304761D02*
X149211133Y-91352380D01*
X149211133Y-91352380D02*
X149449228Y-91352380D01*
X149449228Y-91352380D02*
X149639704Y-91304761D01*
X149639704Y-91304761D02*
X149734942Y-91257142D01*
X149734942Y-91257142D02*
X149782561Y-91209523D01*
X149782561Y-91209523D02*
X149830180Y-91114285D01*
X149401609Y-89447618D02*
X149449228Y-89542856D01*
X149449228Y-89542856D02*
X149496847Y-89590475D01*
X149496847Y-89590475D02*
X149592085Y-89638094D01*
X149592085Y-89638094D02*
X149639704Y-89638094D01*
X149639704Y-89638094D02*
X149734942Y-89590475D01*
X149734942Y-89590475D02*
X149782561Y-89542856D01*
X149782561Y-89542856D02*
X149830180Y-89447618D01*
X149830180Y-89447618D02*
X149830180Y-89257142D01*
X149830180Y-89257142D02*
X149782561Y-89161904D01*
X149782561Y-89161904D02*
X149734942Y-89114285D01*
X149734942Y-89114285D02*
X149639704Y-89066666D01*
X149639704Y-89066666D02*
X149592085Y-89066666D01*
X149592085Y-89066666D02*
X149496847Y-89114285D01*
X149496847Y-89114285D02*
X149449228Y-89161904D01*
X149449228Y-89161904D02*
X149401609Y-89257142D01*
X149401609Y-89257142D02*
X149401609Y-89447618D01*
X149401609Y-89447618D02*
X149353990Y-89542856D01*
X149353990Y-89542856D02*
X149306371Y-89590475D01*
X149306371Y-89590475D02*
X149211133Y-89638094D01*
X149211133Y-89638094D02*
X149020657Y-89638094D01*
X149020657Y-89638094D02*
X148925419Y-89590475D01*
X148925419Y-89590475D02*
X148877800Y-89542856D01*
X148877800Y-89542856D02*
X148830180Y-89447618D01*
X148830180Y-89447618D02*
X148830180Y-89257142D01*
X148830180Y-89257142D02*
X148877800Y-89161904D01*
X148877800Y-89161904D02*
X148925419Y-89114285D01*
X148925419Y-89114285D02*
X149020657Y-89066666D01*
X149020657Y-89066666D02*
X149211133Y-89066666D01*
X149211133Y-89066666D02*
X149306371Y-89114285D01*
X149306371Y-89114285D02*
X149353990Y-89161904D01*
X149353990Y-89161904D02*
X149401609Y-89257142D01*
X149877800Y-87923809D02*
X148592085Y-88780951D01*
X148830180Y-87066666D02*
X148830180Y-87638094D01*
X148830180Y-87352380D02*
X149830180Y-87352380D01*
X149830180Y-87352380D02*
X149687323Y-87447618D01*
X149687323Y-87447618D02*
X149592085Y-87542856D01*
X149592085Y-87542856D02*
X149544466Y-87638094D01*
X148830180Y-86590475D02*
X148830180Y-86399999D01*
X148830180Y-86399999D02*
X148877800Y-86304761D01*
X148877800Y-86304761D02*
X148925419Y-86257142D01*
X148925419Y-86257142D02*
X149068276Y-86161904D01*
X149068276Y-86161904D02*
X149258752Y-86114285D01*
X149258752Y-86114285D02*
X149639704Y-86114285D01*
X149639704Y-86114285D02*
X149734942Y-86161904D01*
X149734942Y-86161904D02*
X149782561Y-86209523D01*
X149782561Y-86209523D02*
X149830180Y-86304761D01*
X149830180Y-86304761D02*
X149830180Y-86495237D01*
X149830180Y-86495237D02*
X149782561Y-86590475D01*
X149782561Y-86590475D02*
X149734942Y-86638094D01*
X149734942Y-86638094D02*
X149639704Y-86685713D01*
X149639704Y-86685713D02*
X149401609Y-86685713D01*
X149401609Y-86685713D02*
X149306371Y-86638094D01*
X149306371Y-86638094D02*
X149258752Y-86590475D01*
X149258752Y-86590475D02*
X149211133Y-86495237D01*
X149211133Y-86495237D02*
X149211133Y-86304761D01*
X149211133Y-86304761D02*
X149258752Y-86209523D01*
X149258752Y-86209523D02*
X149306371Y-86161904D01*
X149306371Y-86161904D02*
X149401609Y-86114285D01*
X149877800Y-84971428D02*
X148592085Y-85828570D01*
X149734942Y-84685713D02*
X149782561Y-84638094D01*
X149782561Y-84638094D02*
X149830180Y-84542856D01*
X149830180Y-84542856D02*
X149830180Y-84304761D01*
X149830180Y-84304761D02*
X149782561Y-84209523D01*
X149782561Y-84209523D02*
X149734942Y-84161904D01*
X149734942Y-84161904D02*
X149639704Y-84114285D01*
X149639704Y-84114285D02*
X149544466Y-84114285D01*
X149544466Y-84114285D02*
X149401609Y-84161904D01*
X149401609Y-84161904D02*
X148830180Y-84733332D01*
X148830180Y-84733332D02*
X148830180Y-84114285D01*
X149830180Y-83209523D02*
X149830180Y-83685713D01*
X149830180Y-83685713D02*
X149353990Y-83733332D01*
X149353990Y-83733332D02*
X149401609Y-83685713D01*
X149401609Y-83685713D02*
X149449228Y-83590475D01*
X149449228Y-83590475D02*
X149449228Y-83352380D01*
X149449228Y-83352380D02*
X149401609Y-83257142D01*
X149401609Y-83257142D02*
X149353990Y-83209523D01*
X149353990Y-83209523D02*
X149258752Y-83161904D01*
X149258752Y-83161904D02*
X149020657Y-83161904D01*
X149020657Y-83161904D02*
X148925419Y-83209523D01*
X148925419Y-83209523D02*
X148877800Y-83257142D01*
X148877800Y-83257142D02*
X148830180Y-83352380D01*
X148830180Y-83352380D02*
X148830180Y-83590475D01*
X148830180Y-83590475D02*
X148877800Y-83685713D01*
X148877800Y-83685713D02*
X148925419Y-83733332D01*
X142556665Y-89995619D02*
X142889998Y-89519428D01*
X143128093Y-89995619D02*
X143128093Y-88995619D01*
X143128093Y-88995619D02*
X142747141Y-88995619D01*
X142747141Y-88995619D02*
X142651903Y-89043238D01*
X142651903Y-89043238D02*
X142604284Y-89090857D01*
X142604284Y-89090857D02*
X142556665Y-89186095D01*
X142556665Y-89186095D02*
X142556665Y-89328952D01*
X142556665Y-89328952D02*
X142604284Y-89424190D01*
X142604284Y-89424190D02*
X142651903Y-89471809D01*
X142651903Y-89471809D02*
X142747141Y-89519428D01*
X142747141Y-89519428D02*
X143128093Y-89519428D01*
X142223331Y-88995619D02*
X141604284Y-88995619D01*
X141604284Y-88995619D02*
X141937617Y-89376571D01*
X141937617Y-89376571D02*
X141794760Y-89376571D01*
X141794760Y-89376571D02*
X141699522Y-89424190D01*
X141699522Y-89424190D02*
X141651903Y-89471809D01*
X141651903Y-89471809D02*
X141604284Y-89567047D01*
X141604284Y-89567047D02*
X141604284Y-89805142D01*
X141604284Y-89805142D02*
X141651903Y-89900380D01*
X141651903Y-89900380D02*
X141699522Y-89948000D01*
X141699522Y-89948000D02*
X141794760Y-89995619D01*
X141794760Y-89995619D02*
X142080474Y-89995619D01*
X142080474Y-89995619D02*
X142175712Y-89948000D01*
X142175712Y-89948000D02*
X142223331Y-89900380D01*
X142566666Y-100095619D02*
X142899999Y-99619428D01*
X143138094Y-100095619D02*
X143138094Y-99095619D01*
X143138094Y-99095619D02*
X142757142Y-99095619D01*
X142757142Y-99095619D02*
X142661904Y-99143238D01*
X142661904Y-99143238D02*
X142614285Y-99190857D01*
X142614285Y-99190857D02*
X142566666Y-99286095D01*
X142566666Y-99286095D02*
X142566666Y-99428952D01*
X142566666Y-99428952D02*
X142614285Y-99524190D01*
X142614285Y-99524190D02*
X142661904Y-99571809D01*
X142661904Y-99571809D02*
X142757142Y-99619428D01*
X142757142Y-99619428D02*
X143138094Y-99619428D01*
X142233332Y-99095619D02*
X141566666Y-99095619D01*
X141566666Y-99095619D02*
X141995237Y-100095619D01*
X142566666Y-125470379D02*
X142614285Y-125517999D01*
X142614285Y-125517999D02*
X142757142Y-125565618D01*
X142757142Y-125565618D02*
X142852380Y-125565618D01*
X142852380Y-125565618D02*
X142995237Y-125517999D01*
X142995237Y-125517999D02*
X143090475Y-125422760D01*
X143090475Y-125422760D02*
X143138094Y-125327522D01*
X143138094Y-125327522D02*
X143185713Y-125137046D01*
X143185713Y-125137046D02*
X143185713Y-124994189D01*
X143185713Y-124994189D02*
X143138094Y-124803713D01*
X143138094Y-124803713D02*
X143090475Y-124708475D01*
X143090475Y-124708475D02*
X142995237Y-124613237D01*
X142995237Y-124613237D02*
X142852380Y-124565618D01*
X142852380Y-124565618D02*
X142757142Y-124565618D01*
X142757142Y-124565618D02*
X142614285Y-124613237D01*
X142614285Y-124613237D02*
X142566666Y-124660856D01*
X141709523Y-124565618D02*
X141899999Y-124565618D01*
X141899999Y-124565618D02*
X141995237Y-124613237D01*
X141995237Y-124613237D02*
X142042856Y-124660856D01*
X142042856Y-124660856D02*
X142138094Y-124803713D01*
X142138094Y-124803713D02*
X142185713Y-124994189D01*
X142185713Y-124994189D02*
X142185713Y-125375141D01*
X142185713Y-125375141D02*
X142138094Y-125470379D01*
X142138094Y-125470379D02*
X142090475Y-125517999D01*
X142090475Y-125517999D02*
X141995237Y-125565618D01*
X141995237Y-125565618D02*
X141804761Y-125565618D01*
X141804761Y-125565618D02*
X141709523Y-125517999D01*
X141709523Y-125517999D02*
X141661904Y-125470379D01*
X141661904Y-125470379D02*
X141614285Y-125375141D01*
X141614285Y-125375141D02*
X141614285Y-125137046D01*
X141614285Y-125137046D02*
X141661904Y-125041808D01*
X141661904Y-125041808D02*
X141709523Y-124994189D01*
X141709523Y-124994189D02*
X141804761Y-124946570D01*
X141804761Y-124946570D02*
X141995237Y-124946570D01*
X141995237Y-124946570D02*
X142090475Y-124994189D01*
X142090475Y-124994189D02*
X142138094Y-125041808D01*
X142138094Y-125041808D02*
X142185713Y-125137046D01*
X140476666Y-117800380D02*
X140524285Y-117848000D01*
X140524285Y-117848000D02*
X140667142Y-117895619D01*
X140667142Y-117895619D02*
X140762380Y-117895619D01*
X140762380Y-117895619D02*
X140905237Y-117848000D01*
X140905237Y-117848000D02*
X141000475Y-117752761D01*
X141000475Y-117752761D02*
X141048094Y-117657523D01*
X141048094Y-117657523D02*
X141095713Y-117467047D01*
X141095713Y-117467047D02*
X141095713Y-117324190D01*
X141095713Y-117324190D02*
X141048094Y-117133714D01*
X141048094Y-117133714D02*
X141000475Y-117038476D01*
X141000475Y-117038476D02*
X140905237Y-116943238D01*
X140905237Y-116943238D02*
X140762380Y-116895619D01*
X140762380Y-116895619D02*
X140667142Y-116895619D01*
X140667142Y-116895619D02*
X140524285Y-116943238D01*
X140524285Y-116943238D02*
X140476666Y-116990857D01*
X140143332Y-116895619D02*
X139524285Y-116895619D01*
X139524285Y-116895619D02*
X139857618Y-117276571D01*
X139857618Y-117276571D02*
X139714761Y-117276571D01*
X139714761Y-117276571D02*
X139619523Y-117324190D01*
X139619523Y-117324190D02*
X139571904Y-117371809D01*
X139571904Y-117371809D02*
X139524285Y-117467047D01*
X139524285Y-117467047D02*
X139524285Y-117705142D01*
X139524285Y-117705142D02*
X139571904Y-117800380D01*
X139571904Y-117800380D02*
X139619523Y-117848000D01*
X139619523Y-117848000D02*
X139714761Y-117895619D01*
X139714761Y-117895619D02*
X140000475Y-117895619D01*
X140000475Y-117895619D02*
X140095713Y-117848000D01*
X140095713Y-117848000D02*
X140143332Y-117800380D01*
X160348093Y-96632437D02*
X160443331Y-96584818D01*
X160443331Y-96584818D02*
X160586188Y-96584818D01*
X160586188Y-96584818D02*
X160729045Y-96632437D01*
X160729045Y-96632437D02*
X160824283Y-96727675D01*
X160824283Y-96727675D02*
X160871902Y-96822913D01*
X160871902Y-96822913D02*
X160919521Y-97013389D01*
X160919521Y-97013389D02*
X160919521Y-97156246D01*
X160919521Y-97156246D02*
X160871902Y-97346722D01*
X160871902Y-97346722D02*
X160824283Y-97441960D01*
X160824283Y-97441960D02*
X160729045Y-97537199D01*
X160729045Y-97537199D02*
X160586188Y-97584818D01*
X160586188Y-97584818D02*
X160490950Y-97584818D01*
X160490950Y-97584818D02*
X160348093Y-97537199D01*
X160348093Y-97537199D02*
X160300474Y-97489579D01*
X160300474Y-97489579D02*
X160300474Y-97156246D01*
X160300474Y-97156246D02*
X160490950Y-97156246D01*
X142593131Y-82454819D02*
X142926464Y-81978628D01*
X143164559Y-82454819D02*
X143164559Y-81454819D01*
X143164559Y-81454819D02*
X142783607Y-81454819D01*
X142783607Y-81454819D02*
X142688369Y-81502438D01*
X142688369Y-81502438D02*
X142640750Y-81550057D01*
X142640750Y-81550057D02*
X142593131Y-81645295D01*
X142593131Y-81645295D02*
X142593131Y-81788152D01*
X142593131Y-81788152D02*
X142640750Y-81883390D01*
X142640750Y-81883390D02*
X142688369Y-81931009D01*
X142688369Y-81931009D02*
X142783607Y-81978628D01*
X142783607Y-81978628D02*
X143164559Y-81978628D01*
X141974083Y-81454819D02*
X141878845Y-81454819D01*
X141878845Y-81454819D02*
X141783607Y-81502438D01*
X141783607Y-81502438D02*
X141735988Y-81550057D01*
X141735988Y-81550057D02*
X141688369Y-81645295D01*
X141688369Y-81645295D02*
X141640750Y-81835771D01*
X141640750Y-81835771D02*
X141640750Y-82073866D01*
X141640750Y-82073866D02*
X141688369Y-82264342D01*
X141688369Y-82264342D02*
X141735988Y-82359580D01*
X141735988Y-82359580D02*
X141783607Y-82407200D01*
X141783607Y-82407200D02*
X141878845Y-82454819D01*
X141878845Y-82454819D02*
X141974083Y-82454819D01*
X141974083Y-82454819D02*
X142069321Y-82407200D01*
X142069321Y-82407200D02*
X142116940Y-82359580D01*
X142116940Y-82359580D02*
X142164559Y-82264342D01*
X142164559Y-82264342D02*
X142212178Y-82073866D01*
X142212178Y-82073866D02*
X142212178Y-81835771D01*
X142212178Y-81835771D02*
X142164559Y-81645295D01*
X142164559Y-81645295D02*
X142116940Y-81550057D01*
X142116940Y-81550057D02*
X142069321Y-81502438D01*
X142069321Y-81502438D02*
X141974083Y-81454819D01*
X160374559Y-81541638D02*
X160469797Y-81494019D01*
X160469797Y-81494019D02*
X160612654Y-81494019D01*
X160612654Y-81494019D02*
X160755511Y-81541638D01*
X160755511Y-81541638D02*
X160850749Y-81636876D01*
X160850749Y-81636876D02*
X160898368Y-81732114D01*
X160898368Y-81732114D02*
X160945987Y-81922590D01*
X160945987Y-81922590D02*
X160945987Y-82065447D01*
X160945987Y-82065447D02*
X160898368Y-82255923D01*
X160898368Y-82255923D02*
X160850749Y-82351161D01*
X160850749Y-82351161D02*
X160755511Y-82446400D01*
X160755511Y-82446400D02*
X160612654Y-82494019D01*
X160612654Y-82494019D02*
X160517416Y-82494019D01*
X160517416Y-82494019D02*
X160374559Y-82446400D01*
X160374559Y-82446400D02*
X160326940Y-82398780D01*
X160326940Y-82398780D02*
X160326940Y-82065447D01*
X160326940Y-82065447D02*
X160517416Y-82065447D01*
X140038097Y-106833239D02*
X140133335Y-106785620D01*
X140133335Y-106785620D02*
X140276192Y-106785620D01*
X140276192Y-106785620D02*
X140419049Y-106833239D01*
X140419049Y-106833239D02*
X140514287Y-106928477D01*
X140514287Y-106928477D02*
X140561906Y-107023715D01*
X140561906Y-107023715D02*
X140609525Y-107214191D01*
X140609525Y-107214191D02*
X140609525Y-107357048D01*
X140609525Y-107357048D02*
X140561906Y-107547524D01*
X140561906Y-107547524D02*
X140514287Y-107642762D01*
X140514287Y-107642762D02*
X140419049Y-107738001D01*
X140419049Y-107738001D02*
X140276192Y-107785620D01*
X140276192Y-107785620D02*
X140180954Y-107785620D01*
X140180954Y-107785620D02*
X140038097Y-107738001D01*
X140038097Y-107738001D02*
X139990478Y-107690381D01*
X139990478Y-107690381D02*
X139990478Y-107357048D01*
X139990478Y-107357048D02*
X140180954Y-107357048D01*
X140476666Y-125470379D02*
X140524285Y-125517999D01*
X140524285Y-125517999D02*
X140667142Y-125565618D01*
X140667142Y-125565618D02*
X140762380Y-125565618D01*
X140762380Y-125565618D02*
X140905237Y-125517999D01*
X140905237Y-125517999D02*
X141000475Y-125422760D01*
X141000475Y-125422760D02*
X141048094Y-125327522D01*
X141048094Y-125327522D02*
X141095713Y-125137046D01*
X141095713Y-125137046D02*
X141095713Y-124994189D01*
X141095713Y-124994189D02*
X141048094Y-124803713D01*
X141048094Y-124803713D02*
X141000475Y-124708475D01*
X141000475Y-124708475D02*
X140905237Y-124613237D01*
X140905237Y-124613237D02*
X140762380Y-124565618D01*
X140762380Y-124565618D02*
X140667142Y-124565618D01*
X140667142Y-124565618D02*
X140524285Y-124613237D01*
X140524285Y-124613237D02*
X140476666Y-124660856D01*
X139619523Y-124565618D02*
X139809999Y-124565618D01*
X139809999Y-124565618D02*
X139905237Y-124613237D01*
X139905237Y-124613237D02*
X139952856Y-124660856D01*
X139952856Y-124660856D02*
X140048094Y-124803713D01*
X140048094Y-124803713D02*
X140095713Y-124994189D01*
X140095713Y-124994189D02*
X140095713Y-125375141D01*
X140095713Y-125375141D02*
X140048094Y-125470379D01*
X140048094Y-125470379D02*
X140000475Y-125517999D01*
X140000475Y-125517999D02*
X139905237Y-125565618D01*
X139905237Y-125565618D02*
X139714761Y-125565618D01*
X139714761Y-125565618D02*
X139619523Y-125517999D01*
X139619523Y-125517999D02*
X139571904Y-125470379D01*
X139571904Y-125470379D02*
X139524285Y-125375141D01*
X139524285Y-125375141D02*
X139524285Y-125137046D01*
X139524285Y-125137046D02*
X139571904Y-125041808D01*
X139571904Y-125041808D02*
X139619523Y-124994189D01*
X139619523Y-124994189D02*
X139714761Y-124946570D01*
X139714761Y-124946570D02*
X139905237Y-124946570D01*
X139905237Y-124946570D02*
X140000475Y-124994189D01*
X140000475Y-124994189D02*
X140048094Y-125041808D01*
X140048094Y-125041808D02*
X140095713Y-125137046D01*
X161290474Y-102687201D02*
X161147617Y-102734820D01*
X161147617Y-102734820D02*
X160909522Y-102734820D01*
X160909522Y-102734820D02*
X160814284Y-102687201D01*
X160814284Y-102687201D02*
X160766665Y-102639581D01*
X160766665Y-102639581D02*
X160719046Y-102544343D01*
X160719046Y-102544343D02*
X160719046Y-102449105D01*
X160719046Y-102449105D02*
X160766665Y-102353867D01*
X160766665Y-102353867D02*
X160814284Y-102306248D01*
X160814284Y-102306248D02*
X160909522Y-102258629D01*
X160909522Y-102258629D02*
X161099998Y-102211010D01*
X161099998Y-102211010D02*
X161195236Y-102163391D01*
X161195236Y-102163391D02*
X161242855Y-102115772D01*
X161242855Y-102115772D02*
X161290474Y-102020534D01*
X161290474Y-102020534D02*
X161290474Y-101925296D01*
X161290474Y-101925296D02*
X161242855Y-101830058D01*
X161242855Y-101830058D02*
X161195236Y-101782439D01*
X161195236Y-101782439D02*
X161099998Y-101734820D01*
X161099998Y-101734820D02*
X160861903Y-101734820D01*
X160861903Y-101734820D02*
X160719046Y-101782439D01*
X159814284Y-102734820D02*
X160290474Y-102734820D01*
X160290474Y-102734820D02*
X160290474Y-101734820D01*
X161314285Y-105257199D02*
X161171428Y-105304818D01*
X161171428Y-105304818D02*
X160933333Y-105304818D01*
X160933333Y-105304818D02*
X160838095Y-105257199D01*
X160838095Y-105257199D02*
X160790476Y-105209579D01*
X160790476Y-105209579D02*
X160742857Y-105114341D01*
X160742857Y-105114341D02*
X160742857Y-105019103D01*
X160742857Y-105019103D02*
X160790476Y-104923865D01*
X160790476Y-104923865D02*
X160838095Y-104876246D01*
X160838095Y-104876246D02*
X160933333Y-104828627D01*
X160933333Y-104828627D02*
X161123809Y-104781008D01*
X161123809Y-104781008D02*
X161219047Y-104733389D01*
X161219047Y-104733389D02*
X161266666Y-104685770D01*
X161266666Y-104685770D02*
X161314285Y-104590532D01*
X161314285Y-104590532D02*
X161314285Y-104495294D01*
X161314285Y-104495294D02*
X161266666Y-104400056D01*
X161266666Y-104400056D02*
X161219047Y-104352437D01*
X161219047Y-104352437D02*
X161123809Y-104304818D01*
X161123809Y-104304818D02*
X160885714Y-104304818D01*
X160885714Y-104304818D02*
X160742857Y-104352437D01*
X160361904Y-105019103D02*
X159885714Y-105019103D01*
X160457142Y-105304818D02*
X160123809Y-104304818D01*
X160123809Y-104304818D02*
X159790476Y-105304818D01*
X141050750Y-82169104D02*
X140574560Y-82169104D01*
X141145988Y-82454819D02*
X140812655Y-81454819D01*
X140812655Y-81454819D02*
X140479322Y-82454819D01*
X139955512Y-81454819D02*
X139860274Y-81454819D01*
X139860274Y-81454819D02*
X139765036Y-81502438D01*
X139765036Y-81502438D02*
X139717417Y-81550057D01*
X139717417Y-81550057D02*
X139669798Y-81645295D01*
X139669798Y-81645295D02*
X139622179Y-81835771D01*
X139622179Y-81835771D02*
X139622179Y-82073866D01*
X139622179Y-82073866D02*
X139669798Y-82264342D01*
X139669798Y-82264342D02*
X139717417Y-82359580D01*
X139717417Y-82359580D02*
X139765036Y-82407200D01*
X139765036Y-82407200D02*
X139860274Y-82454819D01*
X139860274Y-82454819D02*
X139955512Y-82454819D01*
X139955512Y-82454819D02*
X140050750Y-82407200D01*
X140050750Y-82407200D02*
X140098369Y-82359580D01*
X140098369Y-82359580D02*
X140145988Y-82264342D01*
X140145988Y-82264342D02*
X140193607Y-82073866D01*
X140193607Y-82073866D02*
X140193607Y-81835771D01*
X140193607Y-81835771D02*
X140145988Y-81645295D01*
X140145988Y-81645295D02*
X140098369Y-81550057D01*
X140098369Y-81550057D02*
X140050750Y-81502438D01*
X140050750Y-81502438D02*
X139955512Y-81454819D01*
X142566666Y-128020380D02*
X142614285Y-128068000D01*
X142614285Y-128068000D02*
X142757142Y-128115619D01*
X142757142Y-128115619D02*
X142852380Y-128115619D01*
X142852380Y-128115619D02*
X142995237Y-128068000D01*
X142995237Y-128068000D02*
X143090475Y-127972761D01*
X143090475Y-127972761D02*
X143138094Y-127877523D01*
X143138094Y-127877523D02*
X143185713Y-127687047D01*
X143185713Y-127687047D02*
X143185713Y-127544190D01*
X143185713Y-127544190D02*
X143138094Y-127353714D01*
X143138094Y-127353714D02*
X143090475Y-127258476D01*
X143090475Y-127258476D02*
X142995237Y-127163238D01*
X142995237Y-127163238D02*
X142852380Y-127115619D01*
X142852380Y-127115619D02*
X142757142Y-127115619D01*
X142757142Y-127115619D02*
X142614285Y-127163238D01*
X142614285Y-127163238D02*
X142566666Y-127210857D01*
X142233332Y-127115619D02*
X141566666Y-127115619D01*
X141566666Y-127115619D02*
X141995237Y-128115619D01*
X140466665Y-110250380D02*
X140514284Y-110298000D01*
X140514284Y-110298000D02*
X140657141Y-110345619D01*
X140657141Y-110345619D02*
X140752379Y-110345619D01*
X140752379Y-110345619D02*
X140895236Y-110298000D01*
X140895236Y-110298000D02*
X140990474Y-110202761D01*
X140990474Y-110202761D02*
X141038093Y-110107523D01*
X141038093Y-110107523D02*
X141085712Y-109917047D01*
X141085712Y-109917047D02*
X141085712Y-109774190D01*
X141085712Y-109774190D02*
X141038093Y-109583714D01*
X141038093Y-109583714D02*
X140990474Y-109488476D01*
X140990474Y-109488476D02*
X140895236Y-109393238D01*
X140895236Y-109393238D02*
X140752379Y-109345619D01*
X140752379Y-109345619D02*
X140657141Y-109345619D01*
X140657141Y-109345619D02*
X140514284Y-109393238D01*
X140514284Y-109393238D02*
X140466665Y-109440857D01*
X139847617Y-109345619D02*
X139752379Y-109345619D01*
X139752379Y-109345619D02*
X139657141Y-109393238D01*
X139657141Y-109393238D02*
X139609522Y-109440857D01*
X139609522Y-109440857D02*
X139561903Y-109536095D01*
X139561903Y-109536095D02*
X139514284Y-109726571D01*
X139514284Y-109726571D02*
X139514284Y-109964666D01*
X139514284Y-109964666D02*
X139561903Y-110155142D01*
X139561903Y-110155142D02*
X139609522Y-110250380D01*
X139609522Y-110250380D02*
X139657141Y-110298000D01*
X139657141Y-110298000D02*
X139752379Y-110345619D01*
X139752379Y-110345619D02*
X139847617Y-110345619D01*
X139847617Y-110345619D02*
X139942855Y-110298000D01*
X139942855Y-110298000D02*
X139990474Y-110250380D01*
X139990474Y-110250380D02*
X140038093Y-110155142D01*
X140038093Y-110155142D02*
X140085712Y-109964666D01*
X140085712Y-109964666D02*
X140085712Y-109726571D01*
X140085712Y-109726571D02*
X140038093Y-109536095D01*
X140038093Y-109536095D02*
X139990474Y-109440857D01*
X139990474Y-109440857D02*
X139942855Y-109393238D01*
X139942855Y-109393238D02*
X139847617Y-109345619D01*
X157856668Y-115474819D02*
X158190001Y-114998628D01*
X158428096Y-115474819D02*
X158428096Y-114474819D01*
X158428096Y-114474819D02*
X158047144Y-114474819D01*
X158047144Y-114474819D02*
X157951906Y-114522438D01*
X157951906Y-114522438D02*
X157904287Y-114570057D01*
X157904287Y-114570057D02*
X157856668Y-114665295D01*
X157856668Y-114665295D02*
X157856668Y-114808152D01*
X157856668Y-114808152D02*
X157904287Y-114903390D01*
X157904287Y-114903390D02*
X157951906Y-114951009D01*
X157951906Y-114951009D02*
X158047144Y-114998628D01*
X158047144Y-114998628D02*
X158428096Y-114998628D01*
X157475715Y-114570057D02*
X157428096Y-114522438D01*
X157428096Y-114522438D02*
X157332858Y-114474819D01*
X157332858Y-114474819D02*
X157094763Y-114474819D01*
X157094763Y-114474819D02*
X156999525Y-114522438D01*
X156999525Y-114522438D02*
X156951906Y-114570057D01*
X156951906Y-114570057D02*
X156904287Y-114665295D01*
X156904287Y-114665295D02*
X156904287Y-114760533D01*
X156904287Y-114760533D02*
X156951906Y-114903390D01*
X156951906Y-114903390D02*
X157523334Y-115474819D01*
X157523334Y-115474819D02*
X156904287Y-115474819D01*
X140038096Y-104313238D02*
X140133334Y-104265619D01*
X140133334Y-104265619D02*
X140276191Y-104265619D01*
X140276191Y-104265619D02*
X140419048Y-104313238D01*
X140419048Y-104313238D02*
X140514286Y-104408476D01*
X140514286Y-104408476D02*
X140561905Y-104503714D01*
X140561905Y-104503714D02*
X140609524Y-104694190D01*
X140609524Y-104694190D02*
X140609524Y-104837047D01*
X140609524Y-104837047D02*
X140561905Y-105027523D01*
X140561905Y-105027523D02*
X140514286Y-105122761D01*
X140514286Y-105122761D02*
X140419048Y-105218000D01*
X140419048Y-105218000D02*
X140276191Y-105265619D01*
X140276191Y-105265619D02*
X140180953Y-105265619D01*
X140180953Y-105265619D02*
X140038096Y-105218000D01*
X140038096Y-105218000D02*
X139990477Y-105170380D01*
X139990477Y-105170380D02*
X139990477Y-104837047D01*
X139990477Y-104837047D02*
X140180953Y-104837047D01*
X161314284Y-92021009D02*
X160980951Y-92021009D01*
X160838094Y-92544819D02*
X161314284Y-92544819D01*
X161314284Y-92544819D02*
X161314284Y-91544819D01*
X161314284Y-91544819D02*
X160838094Y-91544819D01*
X159838094Y-92449580D02*
X159885713Y-92497200D01*
X159885713Y-92497200D02*
X160028570Y-92544819D01*
X160028570Y-92544819D02*
X160123808Y-92544819D01*
X160123808Y-92544819D02*
X160266665Y-92497200D01*
X160266665Y-92497200D02*
X160361903Y-92401961D01*
X160361903Y-92401961D02*
X160409522Y-92306723D01*
X160409522Y-92306723D02*
X160457141Y-92116247D01*
X160457141Y-92116247D02*
X160457141Y-91973390D01*
X160457141Y-91973390D02*
X160409522Y-91782914D01*
X160409522Y-91782914D02*
X160361903Y-91687676D01*
X160361903Y-91687676D02*
X160266665Y-91592438D01*
X160266665Y-91592438D02*
X160123808Y-91544819D01*
X160123808Y-91544819D02*
X160028570Y-91544819D01*
X160028570Y-91544819D02*
X159885713Y-91592438D01*
X159885713Y-91592438D02*
X159838094Y-91640057D01*
X142128095Y-101743239D02*
X142223333Y-101695620D01*
X142223333Y-101695620D02*
X142366190Y-101695620D01*
X142366190Y-101695620D02*
X142509047Y-101743239D01*
X142509047Y-101743239D02*
X142604285Y-101838477D01*
X142604285Y-101838477D02*
X142651904Y-101933715D01*
X142651904Y-101933715D02*
X142699523Y-102124191D01*
X142699523Y-102124191D02*
X142699523Y-102267048D01*
X142699523Y-102267048D02*
X142651904Y-102457524D01*
X142651904Y-102457524D02*
X142604285Y-102552762D01*
X142604285Y-102552762D02*
X142509047Y-102648001D01*
X142509047Y-102648001D02*
X142366190Y-102695620D01*
X142366190Y-102695620D02*
X142270952Y-102695620D01*
X142270952Y-102695620D02*
X142128095Y-102648001D01*
X142128095Y-102648001D02*
X142080476Y-102600381D01*
X142080476Y-102600381D02*
X142080476Y-102267048D01*
X142080476Y-102267048D02*
X142270952Y-102267048D01*
X140466666Y-122980381D02*
X140514285Y-123028001D01*
X140514285Y-123028001D02*
X140657142Y-123075620D01*
X140657142Y-123075620D02*
X140752380Y-123075620D01*
X140752380Y-123075620D02*
X140895237Y-123028001D01*
X140895237Y-123028001D02*
X140990475Y-122932762D01*
X140990475Y-122932762D02*
X141038094Y-122837524D01*
X141038094Y-122837524D02*
X141085713Y-122647048D01*
X141085713Y-122647048D02*
X141085713Y-122504191D01*
X141085713Y-122504191D02*
X141038094Y-122313715D01*
X141038094Y-122313715D02*
X140990475Y-122218477D01*
X140990475Y-122218477D02*
X140895237Y-122123239D01*
X140895237Y-122123239D02*
X140752380Y-122075620D01*
X140752380Y-122075620D02*
X140657142Y-122075620D01*
X140657142Y-122075620D02*
X140514285Y-122123239D01*
X140514285Y-122123239D02*
X140466666Y-122170858D01*
X139561904Y-122075620D02*
X140038094Y-122075620D01*
X140038094Y-122075620D02*
X140085713Y-122551810D01*
X140085713Y-122551810D02*
X140038094Y-122504191D01*
X140038094Y-122504191D02*
X139942856Y-122456572D01*
X139942856Y-122456572D02*
X139704761Y-122456572D01*
X139704761Y-122456572D02*
X139609523Y-122504191D01*
X139609523Y-122504191D02*
X139561904Y-122551810D01*
X139561904Y-122551810D02*
X139514285Y-122647048D01*
X139514285Y-122647048D02*
X139514285Y-122885143D01*
X139514285Y-122885143D02*
X139561904Y-122980381D01*
X139561904Y-122980381D02*
X139609523Y-123028001D01*
X139609523Y-123028001D02*
X139704761Y-123075620D01*
X139704761Y-123075620D02*
X139942856Y-123075620D01*
X139942856Y-123075620D02*
X140038094Y-123028001D01*
X140038094Y-123028001D02*
X140085713Y-122980381D01*
X141014285Y-94769905D02*
X140538095Y-94769905D01*
X141109523Y-95055620D02*
X140776190Y-94055620D01*
X140776190Y-94055620D02*
X140442857Y-95055620D01*
X139633333Y-94055620D02*
X140109523Y-94055620D01*
X140109523Y-94055620D02*
X140157142Y-94531810D01*
X140157142Y-94531810D02*
X140109523Y-94484191D01*
X140109523Y-94484191D02*
X140014285Y-94436572D01*
X140014285Y-94436572D02*
X139776190Y-94436572D01*
X139776190Y-94436572D02*
X139680952Y-94484191D01*
X139680952Y-94484191D02*
X139633333Y-94531810D01*
X139633333Y-94531810D02*
X139585714Y-94627048D01*
X139585714Y-94627048D02*
X139585714Y-94865143D01*
X139585714Y-94865143D02*
X139633333Y-94960381D01*
X139633333Y-94960381D02*
X139680952Y-95008001D01*
X139680952Y-95008001D02*
X139776190Y-95055620D01*
X139776190Y-95055620D02*
X140014285Y-95055620D01*
X140014285Y-95055620D02*
X140109523Y-95008001D01*
X140109523Y-95008001D02*
X140157142Y-94960381D01*
X157856667Y-112974818D02*
X158190000Y-112498627D01*
X158428095Y-112974818D02*
X158428095Y-111974818D01*
X158428095Y-111974818D02*
X158047143Y-111974818D01*
X158047143Y-111974818D02*
X157951905Y-112022437D01*
X157951905Y-112022437D02*
X157904286Y-112070056D01*
X157904286Y-112070056D02*
X157856667Y-112165294D01*
X157856667Y-112165294D02*
X157856667Y-112308151D01*
X157856667Y-112308151D02*
X157904286Y-112403389D01*
X157904286Y-112403389D02*
X157951905Y-112451008D01*
X157951905Y-112451008D02*
X158047143Y-112498627D01*
X158047143Y-112498627D02*
X158428095Y-112498627D01*
X156904286Y-112974818D02*
X157475714Y-112974818D01*
X157190000Y-112974818D02*
X157190000Y-111974818D01*
X157190000Y-111974818D02*
X157285238Y-112117675D01*
X157285238Y-112117675D02*
X157380476Y-112212913D01*
X157380476Y-112212913D02*
X157475714Y-112260532D01*
X142556665Y-112760380D02*
X142604284Y-112808000D01*
X142604284Y-112808000D02*
X142747141Y-112855619D01*
X142747141Y-112855619D02*
X142842379Y-112855619D01*
X142842379Y-112855619D02*
X142985236Y-112808000D01*
X142985236Y-112808000D02*
X143080474Y-112712761D01*
X143080474Y-112712761D02*
X143128093Y-112617523D01*
X143128093Y-112617523D02*
X143175712Y-112427047D01*
X143175712Y-112427047D02*
X143175712Y-112284190D01*
X143175712Y-112284190D02*
X143128093Y-112093714D01*
X143128093Y-112093714D02*
X143080474Y-111998476D01*
X143080474Y-111998476D02*
X142985236Y-111903238D01*
X142985236Y-111903238D02*
X142842379Y-111855619D01*
X142842379Y-111855619D02*
X142747141Y-111855619D01*
X142747141Y-111855619D02*
X142604284Y-111903238D01*
X142604284Y-111903238D02*
X142556665Y-111950857D01*
X141604284Y-112855619D02*
X142175712Y-112855619D01*
X141889998Y-112855619D02*
X141889998Y-111855619D01*
X141889998Y-111855619D02*
X141985236Y-111998476D01*
X141985236Y-111998476D02*
X142080474Y-112093714D01*
X142080474Y-112093714D02*
X142175712Y-112141333D01*
X160933331Y-94094820D02*
X160599998Y-95094820D01*
X160599998Y-95094820D02*
X160266665Y-94094820D01*
X140038095Y-101743239D02*
X140133333Y-101695620D01*
X140133333Y-101695620D02*
X140276190Y-101695620D01*
X140276190Y-101695620D02*
X140419047Y-101743239D01*
X140419047Y-101743239D02*
X140514285Y-101838477D01*
X140514285Y-101838477D02*
X140561904Y-101933715D01*
X140561904Y-101933715D02*
X140609523Y-102124191D01*
X140609523Y-102124191D02*
X140609523Y-102267048D01*
X140609523Y-102267048D02*
X140561904Y-102457524D01*
X140561904Y-102457524D02*
X140514285Y-102552762D01*
X140514285Y-102552762D02*
X140419047Y-102648001D01*
X140419047Y-102648001D02*
X140276190Y-102695620D01*
X140276190Y-102695620D02*
X140180952Y-102695620D01*
X140180952Y-102695620D02*
X140038095Y-102648001D01*
X140038095Y-102648001D02*
X139990476Y-102600381D01*
X139990476Y-102600381D02*
X139990476Y-102267048D01*
X139990476Y-102267048D02*
X140180952Y-102267048D01*
X140476666Y-128020380D02*
X140524285Y-128068000D01*
X140524285Y-128068000D02*
X140667142Y-128115619D01*
X140667142Y-128115619D02*
X140762380Y-128115619D01*
X140762380Y-128115619D02*
X140905237Y-128068000D01*
X140905237Y-128068000D02*
X141000475Y-127972761D01*
X141000475Y-127972761D02*
X141048094Y-127877523D01*
X141048094Y-127877523D02*
X141095713Y-127687047D01*
X141095713Y-127687047D02*
X141095713Y-127544190D01*
X141095713Y-127544190D02*
X141048094Y-127353714D01*
X141048094Y-127353714D02*
X141000475Y-127258476D01*
X141000475Y-127258476D02*
X140905237Y-127163238D01*
X140905237Y-127163238D02*
X140762380Y-127115619D01*
X140762380Y-127115619D02*
X140667142Y-127115619D01*
X140667142Y-127115619D02*
X140524285Y-127163238D01*
X140524285Y-127163238D02*
X140476666Y-127210857D01*
X140143332Y-127115619D02*
X139476666Y-127115619D01*
X139476666Y-127115619D02*
X139905237Y-128115619D01*
X142128096Y-104313238D02*
X142223334Y-104265619D01*
X142223334Y-104265619D02*
X142366191Y-104265619D01*
X142366191Y-104265619D02*
X142509048Y-104313238D01*
X142509048Y-104313238D02*
X142604286Y-104408476D01*
X142604286Y-104408476D02*
X142651905Y-104503714D01*
X142651905Y-104503714D02*
X142699524Y-104694190D01*
X142699524Y-104694190D02*
X142699524Y-104837047D01*
X142699524Y-104837047D02*
X142651905Y-105027523D01*
X142651905Y-105027523D02*
X142604286Y-105122761D01*
X142604286Y-105122761D02*
X142509048Y-105218000D01*
X142509048Y-105218000D02*
X142366191Y-105265619D01*
X142366191Y-105265619D02*
X142270953Y-105265619D01*
X142270953Y-105265619D02*
X142128096Y-105218000D01*
X142128096Y-105218000D02*
X142080477Y-105170380D01*
X142080477Y-105170380D02*
X142080477Y-104837047D01*
X142080477Y-104837047D02*
X142270953Y-104837047D01*
X161467140Y-100087200D02*
X161324283Y-100134819D01*
X161324283Y-100134819D02*
X161086188Y-100134819D01*
X161086188Y-100134819D02*
X160990950Y-100087200D01*
X160990950Y-100087200D02*
X160943331Y-100039580D01*
X160943331Y-100039580D02*
X160895712Y-99944342D01*
X160895712Y-99944342D02*
X160895712Y-99849104D01*
X160895712Y-99849104D02*
X160943331Y-99753866D01*
X160943331Y-99753866D02*
X160990950Y-99706247D01*
X160990950Y-99706247D02*
X161086188Y-99658628D01*
X161086188Y-99658628D02*
X161276664Y-99611009D01*
X161276664Y-99611009D02*
X161371902Y-99563390D01*
X161371902Y-99563390D02*
X161419521Y-99515771D01*
X161419521Y-99515771D02*
X161467140Y-99420533D01*
X161467140Y-99420533D02*
X161467140Y-99325295D01*
X161467140Y-99325295D02*
X161419521Y-99230057D01*
X161419521Y-99230057D02*
X161371902Y-99182438D01*
X161371902Y-99182438D02*
X161276664Y-99134819D01*
X161276664Y-99134819D02*
X161038569Y-99134819D01*
X161038569Y-99134819D02*
X160895712Y-99182438D01*
X160562378Y-99134819D02*
X160324283Y-100134819D01*
X160324283Y-100134819D02*
X160133807Y-99420533D01*
X160133807Y-99420533D02*
X159943331Y-100134819D01*
X159943331Y-100134819D02*
X159705236Y-99134819D01*
X157866666Y-128154819D02*
X158199999Y-127678628D01*
X158438094Y-128154819D02*
X158438094Y-127154819D01*
X158438094Y-127154819D02*
X158057142Y-127154819D01*
X158057142Y-127154819D02*
X157961904Y-127202438D01*
X157961904Y-127202438D02*
X157914285Y-127250057D01*
X157914285Y-127250057D02*
X157866666Y-127345295D01*
X157866666Y-127345295D02*
X157866666Y-127488152D01*
X157866666Y-127488152D02*
X157914285Y-127583390D01*
X157914285Y-127583390D02*
X157961904Y-127631009D01*
X157961904Y-127631009D02*
X158057142Y-127678628D01*
X158057142Y-127678628D02*
X158438094Y-127678628D01*
X157533332Y-127154819D02*
X156866666Y-127154819D01*
X156866666Y-127154819D02*
X157295237Y-128154819D01*
X141014286Y-84629904D02*
X140538096Y-84629904D01*
X141109524Y-84915619D02*
X140776191Y-83915619D01*
X140776191Y-83915619D02*
X140442858Y-84915619D01*
X139585715Y-84915619D02*
X140157143Y-84915619D01*
X139871429Y-84915619D02*
X139871429Y-83915619D01*
X139871429Y-83915619D02*
X139966667Y-84058476D01*
X139966667Y-84058476D02*
X140061905Y-84153714D01*
X140061905Y-84153714D02*
X140157143Y-84201333D01*
X141024285Y-99809904D02*
X140548095Y-99809904D01*
X141119523Y-100095619D02*
X140786190Y-99095619D01*
X140786190Y-99095619D02*
X140452857Y-100095619D01*
X140214761Y-99095619D02*
X139548095Y-99095619D01*
X139548095Y-99095619D02*
X139976666Y-100095619D01*
X142556665Y-115310381D02*
X142604284Y-115358001D01*
X142604284Y-115358001D02*
X142747141Y-115405620D01*
X142747141Y-115405620D02*
X142842379Y-115405620D01*
X142842379Y-115405620D02*
X142985236Y-115358001D01*
X142985236Y-115358001D02*
X143080474Y-115262762D01*
X143080474Y-115262762D02*
X143128093Y-115167524D01*
X143128093Y-115167524D02*
X143175712Y-114977048D01*
X143175712Y-114977048D02*
X143175712Y-114834191D01*
X143175712Y-114834191D02*
X143128093Y-114643715D01*
X143128093Y-114643715D02*
X143080474Y-114548477D01*
X143080474Y-114548477D02*
X142985236Y-114453239D01*
X142985236Y-114453239D02*
X142842379Y-114405620D01*
X142842379Y-114405620D02*
X142747141Y-114405620D01*
X142747141Y-114405620D02*
X142604284Y-114453239D01*
X142604284Y-114453239D02*
X142556665Y-114500858D01*
X142175712Y-114500858D02*
X142128093Y-114453239D01*
X142128093Y-114453239D02*
X142032855Y-114405620D01*
X142032855Y-114405620D02*
X141794760Y-114405620D01*
X141794760Y-114405620D02*
X141699522Y-114453239D01*
X141699522Y-114453239D02*
X141651903Y-114500858D01*
X141651903Y-114500858D02*
X141604284Y-114596096D01*
X141604284Y-114596096D02*
X141604284Y-114691334D01*
X141604284Y-114691334D02*
X141651903Y-114834191D01*
X141651903Y-114834191D02*
X142223331Y-115405620D01*
X142223331Y-115405620D02*
X141604284Y-115405620D01*
X140466665Y-112760380D02*
X140514284Y-112808000D01*
X140514284Y-112808000D02*
X140657141Y-112855619D01*
X140657141Y-112855619D02*
X140752379Y-112855619D01*
X140752379Y-112855619D02*
X140895236Y-112808000D01*
X140895236Y-112808000D02*
X140990474Y-112712761D01*
X140990474Y-112712761D02*
X141038093Y-112617523D01*
X141038093Y-112617523D02*
X141085712Y-112427047D01*
X141085712Y-112427047D02*
X141085712Y-112284190D01*
X141085712Y-112284190D02*
X141038093Y-112093714D01*
X141038093Y-112093714D02*
X140990474Y-111998476D01*
X140990474Y-111998476D02*
X140895236Y-111903238D01*
X140895236Y-111903238D02*
X140752379Y-111855619D01*
X140752379Y-111855619D02*
X140657141Y-111855619D01*
X140657141Y-111855619D02*
X140514284Y-111903238D01*
X140514284Y-111903238D02*
X140466665Y-111950857D01*
X139514284Y-112855619D02*
X140085712Y-112855619D01*
X139799998Y-112855619D02*
X139799998Y-111855619D01*
X139799998Y-111855619D02*
X139895236Y-111998476D01*
X139895236Y-111998476D02*
X139990474Y-112093714D01*
X139990474Y-112093714D02*
X140085712Y-112141333D01*
X142566666Y-117800380D02*
X142614285Y-117848000D01*
X142614285Y-117848000D02*
X142757142Y-117895619D01*
X142757142Y-117895619D02*
X142852380Y-117895619D01*
X142852380Y-117895619D02*
X142995237Y-117848000D01*
X142995237Y-117848000D02*
X143090475Y-117752761D01*
X143090475Y-117752761D02*
X143138094Y-117657523D01*
X143138094Y-117657523D02*
X143185713Y-117467047D01*
X143185713Y-117467047D02*
X143185713Y-117324190D01*
X143185713Y-117324190D02*
X143138094Y-117133714D01*
X143138094Y-117133714D02*
X143090475Y-117038476D01*
X143090475Y-117038476D02*
X142995237Y-116943238D01*
X142995237Y-116943238D02*
X142852380Y-116895619D01*
X142852380Y-116895619D02*
X142757142Y-116895619D01*
X142757142Y-116895619D02*
X142614285Y-116943238D01*
X142614285Y-116943238D02*
X142566666Y-116990857D01*
X142233332Y-116895619D02*
X141614285Y-116895619D01*
X141614285Y-116895619D02*
X141947618Y-117276571D01*
X141947618Y-117276571D02*
X141804761Y-117276571D01*
X141804761Y-117276571D02*
X141709523Y-117324190D01*
X141709523Y-117324190D02*
X141661904Y-117371809D01*
X141661904Y-117371809D02*
X141614285Y-117467047D01*
X141614285Y-117467047D02*
X141614285Y-117705142D01*
X141614285Y-117705142D02*
X141661904Y-117800380D01*
X141661904Y-117800380D02*
X141709523Y-117848000D01*
X141709523Y-117848000D02*
X141804761Y-117895619D01*
X141804761Y-117895619D02*
X142090475Y-117895619D01*
X142090475Y-117895619D02*
X142185713Y-117848000D01*
X142185713Y-117848000D02*
X142233332Y-117800380D01*
X140476666Y-120350381D02*
X140524285Y-120398001D01*
X140524285Y-120398001D02*
X140667142Y-120445620D01*
X140667142Y-120445620D02*
X140762380Y-120445620D01*
X140762380Y-120445620D02*
X140905237Y-120398001D01*
X140905237Y-120398001D02*
X141000475Y-120302762D01*
X141000475Y-120302762D02*
X141048094Y-120207524D01*
X141048094Y-120207524D02*
X141095713Y-120017048D01*
X141095713Y-120017048D02*
X141095713Y-119874191D01*
X141095713Y-119874191D02*
X141048094Y-119683715D01*
X141048094Y-119683715D02*
X141000475Y-119588477D01*
X141000475Y-119588477D02*
X140905237Y-119493239D01*
X140905237Y-119493239D02*
X140762380Y-119445620D01*
X140762380Y-119445620D02*
X140667142Y-119445620D01*
X140667142Y-119445620D02*
X140524285Y-119493239D01*
X140524285Y-119493239D02*
X140476666Y-119540858D01*
X139619523Y-119778953D02*
X139619523Y-120445620D01*
X139857618Y-119398001D02*
X140095713Y-120112286D01*
X140095713Y-120112286D02*
X139476666Y-120112286D01*
X141014284Y-89709904D02*
X140538094Y-89709904D01*
X141109522Y-89995619D02*
X140776189Y-88995619D01*
X140776189Y-88995619D02*
X140442856Y-89995619D01*
X140204760Y-88995619D02*
X139585713Y-88995619D01*
X139585713Y-88995619D02*
X139919046Y-89376571D01*
X139919046Y-89376571D02*
X139776189Y-89376571D01*
X139776189Y-89376571D02*
X139680951Y-89424190D01*
X139680951Y-89424190D02*
X139633332Y-89471809D01*
X139633332Y-89471809D02*
X139585713Y-89567047D01*
X139585713Y-89567047D02*
X139585713Y-89805142D01*
X139585713Y-89805142D02*
X139633332Y-89900380D01*
X139633332Y-89900380D02*
X139680951Y-89948000D01*
X139680951Y-89948000D02*
X139776189Y-89995619D01*
X139776189Y-89995619D02*
X140061903Y-89995619D01*
X140061903Y-89995619D02*
X140157141Y-89948000D01*
X140157141Y-89948000D02*
X140204760Y-89900380D01*
X142556666Y-95055620D02*
X142889999Y-94579429D01*
X143128094Y-95055620D02*
X143128094Y-94055620D01*
X143128094Y-94055620D02*
X142747142Y-94055620D01*
X142747142Y-94055620D02*
X142651904Y-94103239D01*
X142651904Y-94103239D02*
X142604285Y-94150858D01*
X142604285Y-94150858D02*
X142556666Y-94246096D01*
X142556666Y-94246096D02*
X142556666Y-94388953D01*
X142556666Y-94388953D02*
X142604285Y-94484191D01*
X142604285Y-94484191D02*
X142651904Y-94531810D01*
X142651904Y-94531810D02*
X142747142Y-94579429D01*
X142747142Y-94579429D02*
X143128094Y-94579429D01*
X141651904Y-94055620D02*
X142128094Y-94055620D01*
X142128094Y-94055620D02*
X142175713Y-94531810D01*
X142175713Y-94531810D02*
X142128094Y-94484191D01*
X142128094Y-94484191D02*
X142032856Y-94436572D01*
X142032856Y-94436572D02*
X141794761Y-94436572D01*
X141794761Y-94436572D02*
X141699523Y-94484191D01*
X141699523Y-94484191D02*
X141651904Y-94531810D01*
X141651904Y-94531810D02*
X141604285Y-94627048D01*
X141604285Y-94627048D02*
X141604285Y-94865143D01*
X141604285Y-94865143D02*
X141651904Y-94960381D01*
X141651904Y-94960381D02*
X141699523Y-95008001D01*
X141699523Y-95008001D02*
X141794761Y-95055620D01*
X141794761Y-95055620D02*
X142032856Y-95055620D01*
X142032856Y-95055620D02*
X142128094Y-95008001D01*
X142128094Y-95008001D02*
X142175713Y-94960381D01*
X142556667Y-87415619D02*
X142890000Y-86939428D01*
X143128095Y-87415619D02*
X143128095Y-86415619D01*
X143128095Y-86415619D02*
X142747143Y-86415619D01*
X142747143Y-86415619D02*
X142651905Y-86463238D01*
X142651905Y-86463238D02*
X142604286Y-86510857D01*
X142604286Y-86510857D02*
X142556667Y-86606095D01*
X142556667Y-86606095D02*
X142556667Y-86748952D01*
X142556667Y-86748952D02*
X142604286Y-86844190D01*
X142604286Y-86844190D02*
X142651905Y-86891809D01*
X142651905Y-86891809D02*
X142747143Y-86939428D01*
X142747143Y-86939428D02*
X143128095Y-86939428D01*
X142175714Y-86510857D02*
X142128095Y-86463238D01*
X142128095Y-86463238D02*
X142032857Y-86415619D01*
X142032857Y-86415619D02*
X141794762Y-86415619D01*
X141794762Y-86415619D02*
X141699524Y-86463238D01*
X141699524Y-86463238D02*
X141651905Y-86510857D01*
X141651905Y-86510857D02*
X141604286Y-86606095D01*
X141604286Y-86606095D02*
X141604286Y-86701333D01*
X141604286Y-86701333D02*
X141651905Y-86844190D01*
X141651905Y-86844190D02*
X142223333Y-87415619D01*
X142223333Y-87415619D02*
X141604286Y-87415619D01*
X140466665Y-115310381D02*
X140514284Y-115358001D01*
X140514284Y-115358001D02*
X140657141Y-115405620D01*
X140657141Y-115405620D02*
X140752379Y-115405620D01*
X140752379Y-115405620D02*
X140895236Y-115358001D01*
X140895236Y-115358001D02*
X140990474Y-115262762D01*
X140990474Y-115262762D02*
X141038093Y-115167524D01*
X141038093Y-115167524D02*
X141085712Y-114977048D01*
X141085712Y-114977048D02*
X141085712Y-114834191D01*
X141085712Y-114834191D02*
X141038093Y-114643715D01*
X141038093Y-114643715D02*
X140990474Y-114548477D01*
X140990474Y-114548477D02*
X140895236Y-114453239D01*
X140895236Y-114453239D02*
X140752379Y-114405620D01*
X140752379Y-114405620D02*
X140657141Y-114405620D01*
X140657141Y-114405620D02*
X140514284Y-114453239D01*
X140514284Y-114453239D02*
X140466665Y-114500858D01*
X140085712Y-114500858D02*
X140038093Y-114453239D01*
X140038093Y-114453239D02*
X139942855Y-114405620D01*
X139942855Y-114405620D02*
X139704760Y-114405620D01*
X139704760Y-114405620D02*
X139609522Y-114453239D01*
X139609522Y-114453239D02*
X139561903Y-114500858D01*
X139561903Y-114500858D02*
X139514284Y-114596096D01*
X139514284Y-114596096D02*
X139514284Y-114691334D01*
X139514284Y-114691334D02*
X139561903Y-114834191D01*
X139561903Y-114834191D02*
X140133331Y-115405620D01*
X140133331Y-115405620D02*
X139514284Y-115405620D01*
X142566666Y-97545618D02*
X142899999Y-97069427D01*
X143138094Y-97545618D02*
X143138094Y-96545618D01*
X143138094Y-96545618D02*
X142757142Y-96545618D01*
X142757142Y-96545618D02*
X142661904Y-96593237D01*
X142661904Y-96593237D02*
X142614285Y-96640856D01*
X142614285Y-96640856D02*
X142566666Y-96736094D01*
X142566666Y-96736094D02*
X142566666Y-96878951D01*
X142566666Y-96878951D02*
X142614285Y-96974189D01*
X142614285Y-96974189D02*
X142661904Y-97021808D01*
X142661904Y-97021808D02*
X142757142Y-97069427D01*
X142757142Y-97069427D02*
X143138094Y-97069427D01*
X141709523Y-96545618D02*
X141899999Y-96545618D01*
X141899999Y-96545618D02*
X141995237Y-96593237D01*
X141995237Y-96593237D02*
X142042856Y-96640856D01*
X142042856Y-96640856D02*
X142138094Y-96783713D01*
X142138094Y-96783713D02*
X142185713Y-96974189D01*
X142185713Y-96974189D02*
X142185713Y-97355141D01*
X142185713Y-97355141D02*
X142138094Y-97450379D01*
X142138094Y-97450379D02*
X142090475Y-97497999D01*
X142090475Y-97497999D02*
X141995237Y-97545618D01*
X141995237Y-97545618D02*
X141804761Y-97545618D01*
X141804761Y-97545618D02*
X141709523Y-97497999D01*
X141709523Y-97497999D02*
X141661904Y-97450379D01*
X141661904Y-97450379D02*
X141614285Y-97355141D01*
X141614285Y-97355141D02*
X141614285Y-97117046D01*
X141614285Y-97117046D02*
X141661904Y-97021808D01*
X141661904Y-97021808D02*
X141709523Y-96974189D01*
X141709523Y-96974189D02*
X141804761Y-96926570D01*
X141804761Y-96926570D02*
X141995237Y-96926570D01*
X141995237Y-96926570D02*
X142090475Y-96974189D01*
X142090475Y-96974189D02*
X142138094Y-97021808D01*
X142138094Y-97021808D02*
X142185713Y-97117046D01*
X141014286Y-87129904D02*
X140538096Y-87129904D01*
X141109524Y-87415619D02*
X140776191Y-86415619D01*
X140776191Y-86415619D02*
X140442858Y-87415619D01*
X140157143Y-86510857D02*
X140109524Y-86463238D01*
X140109524Y-86463238D02*
X140014286Y-86415619D01*
X140014286Y-86415619D02*
X139776191Y-86415619D01*
X139776191Y-86415619D02*
X139680953Y-86463238D01*
X139680953Y-86463238D02*
X139633334Y-86510857D01*
X139633334Y-86510857D02*
X139585715Y-86606095D01*
X139585715Y-86606095D02*
X139585715Y-86701333D01*
X139585715Y-86701333D02*
X139633334Y-86844190D01*
X139633334Y-86844190D02*
X140204762Y-87415619D01*
X140204762Y-87415619D02*
X139585715Y-87415619D01*
X141024285Y-97259903D02*
X140548095Y-97259903D01*
X141119523Y-97545618D02*
X140786190Y-96545618D01*
X140786190Y-96545618D02*
X140452857Y-97545618D01*
X139690952Y-96545618D02*
X139881428Y-96545618D01*
X139881428Y-96545618D02*
X139976666Y-96593237D01*
X139976666Y-96593237D02*
X140024285Y-96640856D01*
X140024285Y-96640856D02*
X140119523Y-96783713D01*
X140119523Y-96783713D02*
X140167142Y-96974189D01*
X140167142Y-96974189D02*
X140167142Y-97355141D01*
X140167142Y-97355141D02*
X140119523Y-97450379D01*
X140119523Y-97450379D02*
X140071904Y-97497999D01*
X140071904Y-97497999D02*
X139976666Y-97545618D01*
X139976666Y-97545618D02*
X139786190Y-97545618D01*
X139786190Y-97545618D02*
X139690952Y-97497999D01*
X139690952Y-97497999D02*
X139643333Y-97450379D01*
X139643333Y-97450379D02*
X139595714Y-97355141D01*
X139595714Y-97355141D02*
X139595714Y-97117046D01*
X139595714Y-97117046D02*
X139643333Y-97021808D01*
X139643333Y-97021808D02*
X139690952Y-96974189D01*
X139690952Y-96974189D02*
X139786190Y-96926570D01*
X139786190Y-96926570D02*
X139976666Y-96926570D01*
X139976666Y-96926570D02*
X140071904Y-96974189D01*
X140071904Y-96974189D02*
X140119523Y-97021808D01*
X140119523Y-97021808D02*
X140167142Y-97117046D01*
X142556666Y-122980381D02*
X142604285Y-123028001D01*
X142604285Y-123028001D02*
X142747142Y-123075620D01*
X142747142Y-123075620D02*
X142842380Y-123075620D01*
X142842380Y-123075620D02*
X142985237Y-123028001D01*
X142985237Y-123028001D02*
X143080475Y-122932762D01*
X143080475Y-122932762D02*
X143128094Y-122837524D01*
X143128094Y-122837524D02*
X143175713Y-122647048D01*
X143175713Y-122647048D02*
X143175713Y-122504191D01*
X143175713Y-122504191D02*
X143128094Y-122313715D01*
X143128094Y-122313715D02*
X143080475Y-122218477D01*
X143080475Y-122218477D02*
X142985237Y-122123239D01*
X142985237Y-122123239D02*
X142842380Y-122075620D01*
X142842380Y-122075620D02*
X142747142Y-122075620D01*
X142747142Y-122075620D02*
X142604285Y-122123239D01*
X142604285Y-122123239D02*
X142556666Y-122170858D01*
X141651904Y-122075620D02*
X142128094Y-122075620D01*
X142128094Y-122075620D02*
X142175713Y-122551810D01*
X142175713Y-122551810D02*
X142128094Y-122504191D01*
X142128094Y-122504191D02*
X142032856Y-122456572D01*
X142032856Y-122456572D02*
X141794761Y-122456572D01*
X141794761Y-122456572D02*
X141699523Y-122504191D01*
X141699523Y-122504191D02*
X141651904Y-122551810D01*
X141651904Y-122551810D02*
X141604285Y-122647048D01*
X141604285Y-122647048D02*
X141604285Y-122885143D01*
X141604285Y-122885143D02*
X141651904Y-122980381D01*
X141651904Y-122980381D02*
X141699523Y-123028001D01*
X141699523Y-123028001D02*
X141794761Y-123075620D01*
X141794761Y-123075620D02*
X142032856Y-123075620D01*
X142032856Y-123075620D02*
X142128094Y-123028001D01*
X142128094Y-123028001D02*
X142175713Y-122980381D01*
X141014285Y-92219904D02*
X140538095Y-92219904D01*
X141109523Y-92505619D02*
X140776190Y-91505619D01*
X140776190Y-91505619D02*
X140442857Y-92505619D01*
X139680952Y-91838952D02*
X139680952Y-92505619D01*
X139919047Y-91458000D02*
X140157142Y-92172285D01*
X140157142Y-92172285D02*
X139538095Y-92172285D01*
X157856665Y-118054819D02*
X158189998Y-117578628D01*
X158428093Y-118054819D02*
X158428093Y-117054819D01*
X158428093Y-117054819D02*
X158047141Y-117054819D01*
X158047141Y-117054819D02*
X157951903Y-117102438D01*
X157951903Y-117102438D02*
X157904284Y-117150057D01*
X157904284Y-117150057D02*
X157856665Y-117245295D01*
X157856665Y-117245295D02*
X157856665Y-117388152D01*
X157856665Y-117388152D02*
X157904284Y-117483390D01*
X157904284Y-117483390D02*
X157951903Y-117531009D01*
X157951903Y-117531009D02*
X158047141Y-117578628D01*
X158047141Y-117578628D02*
X158428093Y-117578628D01*
X157523331Y-117054819D02*
X156904284Y-117054819D01*
X156904284Y-117054819D02*
X157237617Y-117435771D01*
X157237617Y-117435771D02*
X157094760Y-117435771D01*
X157094760Y-117435771D02*
X156999522Y-117483390D01*
X156999522Y-117483390D02*
X156951903Y-117531009D01*
X156951903Y-117531009D02*
X156904284Y-117626247D01*
X156904284Y-117626247D02*
X156904284Y-117864342D01*
X156904284Y-117864342D02*
X156951903Y-117959580D01*
X156951903Y-117959580D02*
X156999522Y-118007200D01*
X156999522Y-118007200D02*
X157094760Y-118054819D01*
X157094760Y-118054819D02*
X157380474Y-118054819D01*
X157380474Y-118054819D02*
X157475712Y-118007200D01*
X157475712Y-118007200D02*
X157523331Y-117959580D01*
X142556667Y-84915619D02*
X142890000Y-84439428D01*
X143128095Y-84915619D02*
X143128095Y-83915619D01*
X143128095Y-83915619D02*
X142747143Y-83915619D01*
X142747143Y-83915619D02*
X142651905Y-83963238D01*
X142651905Y-83963238D02*
X142604286Y-84010857D01*
X142604286Y-84010857D02*
X142556667Y-84106095D01*
X142556667Y-84106095D02*
X142556667Y-84248952D01*
X142556667Y-84248952D02*
X142604286Y-84344190D01*
X142604286Y-84344190D02*
X142651905Y-84391809D01*
X142651905Y-84391809D02*
X142747143Y-84439428D01*
X142747143Y-84439428D02*
X143128095Y-84439428D01*
X141604286Y-84915619D02*
X142175714Y-84915619D01*
X141890000Y-84915619D02*
X141890000Y-83915619D01*
X141890000Y-83915619D02*
X141985238Y-84058476D01*
X141985238Y-84058476D02*
X142080476Y-84153714D01*
X142080476Y-84153714D02*
X142175714Y-84201333D01*
X157856665Y-120564819D02*
X158189998Y-120088628D01*
X158428093Y-120564819D02*
X158428093Y-119564819D01*
X158428093Y-119564819D02*
X158047141Y-119564819D01*
X158047141Y-119564819D02*
X157951903Y-119612438D01*
X157951903Y-119612438D02*
X157904284Y-119660057D01*
X157904284Y-119660057D02*
X157856665Y-119755295D01*
X157856665Y-119755295D02*
X157856665Y-119898152D01*
X157856665Y-119898152D02*
X157904284Y-119993390D01*
X157904284Y-119993390D02*
X157951903Y-120041009D01*
X157951903Y-120041009D02*
X158047141Y-120088628D01*
X158047141Y-120088628D02*
X158428093Y-120088628D01*
X156999522Y-119898152D02*
X156999522Y-120564819D01*
X157237617Y-119517200D02*
X157475712Y-120231485D01*
X157475712Y-120231485D02*
X156856665Y-120231485D01*
X161242856Y-86931009D02*
X160909523Y-86931009D01*
X160766666Y-87454819D02*
X161242856Y-87454819D01*
X161242856Y-87454819D02*
X161242856Y-86454819D01*
X161242856Y-86454819D02*
X160766666Y-86454819D01*
X160385713Y-87169104D02*
X159909523Y-87169104D01*
X160480951Y-87454819D02*
X160147618Y-86454819D01*
X160147618Y-86454819D02*
X159814285Y-87454819D01*
X142556666Y-92505619D02*
X142889999Y-92029428D01*
X143128094Y-92505619D02*
X143128094Y-91505619D01*
X143128094Y-91505619D02*
X142747142Y-91505619D01*
X142747142Y-91505619D02*
X142651904Y-91553238D01*
X142651904Y-91553238D02*
X142604285Y-91600857D01*
X142604285Y-91600857D02*
X142556666Y-91696095D01*
X142556666Y-91696095D02*
X142556666Y-91838952D01*
X142556666Y-91838952D02*
X142604285Y-91934190D01*
X142604285Y-91934190D02*
X142651904Y-91981809D01*
X142651904Y-91981809D02*
X142747142Y-92029428D01*
X142747142Y-92029428D02*
X143128094Y-92029428D01*
X141699523Y-91838952D02*
X141699523Y-92505619D01*
X141937618Y-91458000D02*
X142175713Y-92172285D01*
X142175713Y-92172285D02*
X141556666Y-92172285D01*
X160933332Y-83954818D02*
X160599999Y-84954818D01*
X160599999Y-84954818D02*
X160266666Y-83954818D01*
X142566666Y-120350381D02*
X142614285Y-120398001D01*
X142614285Y-120398001D02*
X142757142Y-120445620D01*
X142757142Y-120445620D02*
X142852380Y-120445620D01*
X142852380Y-120445620D02*
X142995237Y-120398001D01*
X142995237Y-120398001D02*
X143090475Y-120302762D01*
X143090475Y-120302762D02*
X143138094Y-120207524D01*
X143138094Y-120207524D02*
X143185713Y-120017048D01*
X143185713Y-120017048D02*
X143185713Y-119874191D01*
X143185713Y-119874191D02*
X143138094Y-119683715D01*
X143138094Y-119683715D02*
X143090475Y-119588477D01*
X143090475Y-119588477D02*
X142995237Y-119493239D01*
X142995237Y-119493239D02*
X142852380Y-119445620D01*
X142852380Y-119445620D02*
X142757142Y-119445620D01*
X142757142Y-119445620D02*
X142614285Y-119493239D01*
X142614285Y-119493239D02*
X142566666Y-119540858D01*
X141709523Y-119778953D02*
X141709523Y-120445620D01*
X141947618Y-119398001D02*
X142185713Y-120112286D01*
X142185713Y-120112286D02*
X141566666Y-120112286D01*
X157893131Y-110514019D02*
X158226464Y-110037828D01*
X158464559Y-110514019D02*
X158464559Y-109514019D01*
X158464559Y-109514019D02*
X158083607Y-109514019D01*
X158083607Y-109514019D02*
X157988369Y-109561638D01*
X157988369Y-109561638D02*
X157940750Y-109609257D01*
X157940750Y-109609257D02*
X157893131Y-109704495D01*
X157893131Y-109704495D02*
X157893131Y-109847352D01*
X157893131Y-109847352D02*
X157940750Y-109942590D01*
X157940750Y-109942590D02*
X157988369Y-109990209D01*
X157988369Y-109990209D02*
X158083607Y-110037828D01*
X158083607Y-110037828D02*
X158464559Y-110037828D01*
X157274083Y-109514019D02*
X157178845Y-109514019D01*
X157178845Y-109514019D02*
X157083607Y-109561638D01*
X157083607Y-109561638D02*
X157035988Y-109609257D01*
X157035988Y-109609257D02*
X156988369Y-109704495D01*
X156988369Y-109704495D02*
X156940750Y-109894971D01*
X156940750Y-109894971D02*
X156940750Y-110133066D01*
X156940750Y-110133066D02*
X156988369Y-110323542D01*
X156988369Y-110323542D02*
X157035988Y-110418780D01*
X157035988Y-110418780D02*
X157083607Y-110466400D01*
X157083607Y-110466400D02*
X157178845Y-110514019D01*
X157178845Y-110514019D02*
X157274083Y-110514019D01*
X157274083Y-110514019D02*
X157369321Y-110466400D01*
X157369321Y-110466400D02*
X157416940Y-110418780D01*
X157416940Y-110418780D02*
X157464559Y-110323542D01*
X157464559Y-110323542D02*
X157512178Y-110133066D01*
X157512178Y-110133066D02*
X157512178Y-109894971D01*
X157512178Y-109894971D02*
X157464559Y-109704495D01*
X157464559Y-109704495D02*
X157416940Y-109609257D01*
X157416940Y-109609257D02*
X157369321Y-109561638D01*
X157369321Y-109561638D02*
X157274083Y-109514019D01*
X142556665Y-110250380D02*
X142604284Y-110298000D01*
X142604284Y-110298000D02*
X142747141Y-110345619D01*
X142747141Y-110345619D02*
X142842379Y-110345619D01*
X142842379Y-110345619D02*
X142985236Y-110298000D01*
X142985236Y-110298000D02*
X143080474Y-110202761D01*
X143080474Y-110202761D02*
X143128093Y-110107523D01*
X143128093Y-110107523D02*
X143175712Y-109917047D01*
X143175712Y-109917047D02*
X143175712Y-109774190D01*
X143175712Y-109774190D02*
X143128093Y-109583714D01*
X143128093Y-109583714D02*
X143080474Y-109488476D01*
X143080474Y-109488476D02*
X142985236Y-109393238D01*
X142985236Y-109393238D02*
X142842379Y-109345619D01*
X142842379Y-109345619D02*
X142747141Y-109345619D01*
X142747141Y-109345619D02*
X142604284Y-109393238D01*
X142604284Y-109393238D02*
X142556665Y-109440857D01*
X141937617Y-109345619D02*
X141842379Y-109345619D01*
X141842379Y-109345619D02*
X141747141Y-109393238D01*
X141747141Y-109393238D02*
X141699522Y-109440857D01*
X141699522Y-109440857D02*
X141651903Y-109536095D01*
X141651903Y-109536095D02*
X141604284Y-109726571D01*
X141604284Y-109726571D02*
X141604284Y-109964666D01*
X141604284Y-109964666D02*
X141651903Y-110155142D01*
X141651903Y-110155142D02*
X141699522Y-110250380D01*
X141699522Y-110250380D02*
X141747141Y-110298000D01*
X141747141Y-110298000D02*
X141842379Y-110345619D01*
X141842379Y-110345619D02*
X141937617Y-110345619D01*
X141937617Y-110345619D02*
X142032855Y-110298000D01*
X142032855Y-110298000D02*
X142080474Y-110250380D01*
X142080474Y-110250380D02*
X142128093Y-110155142D01*
X142128093Y-110155142D02*
X142175712Y-109964666D01*
X142175712Y-109964666D02*
X142175712Y-109726571D01*
X142175712Y-109726571D02*
X142128093Y-109536095D01*
X142128093Y-109536095D02*
X142080474Y-109440857D01*
X142080474Y-109440857D02*
X142032855Y-109393238D01*
X142032855Y-109393238D02*
X141937617Y-109345619D01*
X161314283Y-89511009D02*
X160980950Y-89511009D01*
X160838093Y-90034819D02*
X161314283Y-90034819D01*
X161314283Y-90034819D02*
X161314283Y-89034819D01*
X161314283Y-89034819D02*
X160838093Y-89034819D01*
X159838093Y-90034819D02*
X160171426Y-89558628D01*
X160409521Y-90034819D02*
X160409521Y-89034819D01*
X160409521Y-89034819D02*
X160028569Y-89034819D01*
X160028569Y-89034819D02*
X159933331Y-89082438D01*
X159933331Y-89082438D02*
X159885712Y-89130057D01*
X159885712Y-89130057D02*
X159838093Y-89225295D01*
X159838093Y-89225295D02*
X159838093Y-89368152D01*
X159838093Y-89368152D02*
X159885712Y-89463390D01*
X159885712Y-89463390D02*
X159933331Y-89511009D01*
X159933331Y-89511009D02*
X160028569Y-89558628D01*
X160028569Y-89558628D02*
X160409521Y-89558628D01*
X157856665Y-123114820D02*
X158189998Y-122638629D01*
X158428093Y-123114820D02*
X158428093Y-122114820D01*
X158428093Y-122114820D02*
X158047141Y-122114820D01*
X158047141Y-122114820D02*
X157951903Y-122162439D01*
X157951903Y-122162439D02*
X157904284Y-122210058D01*
X157904284Y-122210058D02*
X157856665Y-122305296D01*
X157856665Y-122305296D02*
X157856665Y-122448153D01*
X157856665Y-122448153D02*
X157904284Y-122543391D01*
X157904284Y-122543391D02*
X157951903Y-122591010D01*
X157951903Y-122591010D02*
X158047141Y-122638629D01*
X158047141Y-122638629D02*
X158428093Y-122638629D01*
X156951903Y-122114820D02*
X157428093Y-122114820D01*
X157428093Y-122114820D02*
X157475712Y-122591010D01*
X157475712Y-122591010D02*
X157428093Y-122543391D01*
X157428093Y-122543391D02*
X157332855Y-122495772D01*
X157332855Y-122495772D02*
X157094760Y-122495772D01*
X157094760Y-122495772D02*
X156999522Y-122543391D01*
X156999522Y-122543391D02*
X156951903Y-122591010D01*
X156951903Y-122591010D02*
X156904284Y-122686248D01*
X156904284Y-122686248D02*
X156904284Y-122924343D01*
X156904284Y-122924343D02*
X156951903Y-123019581D01*
X156951903Y-123019581D02*
X156999522Y-123067201D01*
X156999522Y-123067201D02*
X157094760Y-123114820D01*
X157094760Y-123114820D02*
X157332855Y-123114820D01*
X157332855Y-123114820D02*
X157428093Y-123067201D01*
X157428093Y-123067201D02*
X157475712Y-123019581D01*
X142128097Y-106833239D02*
X142223335Y-106785620D01*
X142223335Y-106785620D02*
X142366192Y-106785620D01*
X142366192Y-106785620D02*
X142509049Y-106833239D01*
X142509049Y-106833239D02*
X142604287Y-106928477D01*
X142604287Y-106928477D02*
X142651906Y-107023715D01*
X142651906Y-107023715D02*
X142699525Y-107214191D01*
X142699525Y-107214191D02*
X142699525Y-107357048D01*
X142699525Y-107357048D02*
X142651906Y-107547524D01*
X142651906Y-107547524D02*
X142604287Y-107642762D01*
X142604287Y-107642762D02*
X142509049Y-107738001D01*
X142509049Y-107738001D02*
X142366192Y-107785620D01*
X142366192Y-107785620D02*
X142270954Y-107785620D01*
X142270954Y-107785620D02*
X142128097Y-107738001D01*
X142128097Y-107738001D02*
X142080478Y-107690381D01*
X142080478Y-107690381D02*
X142080478Y-107357048D01*
X142080478Y-107357048D02*
X142270954Y-107357048D01*
X157866666Y-125604818D02*
X158199999Y-125128627D01*
X158438094Y-125604818D02*
X158438094Y-124604818D01*
X158438094Y-124604818D02*
X158057142Y-124604818D01*
X158057142Y-124604818D02*
X157961904Y-124652437D01*
X157961904Y-124652437D02*
X157914285Y-124700056D01*
X157914285Y-124700056D02*
X157866666Y-124795294D01*
X157866666Y-124795294D02*
X157866666Y-124938151D01*
X157866666Y-124938151D02*
X157914285Y-125033389D01*
X157914285Y-125033389D02*
X157961904Y-125081008D01*
X157961904Y-125081008D02*
X158057142Y-125128627D01*
X158057142Y-125128627D02*
X158438094Y-125128627D01*
X157009523Y-124604818D02*
X157199999Y-124604818D01*
X157199999Y-124604818D02*
X157295237Y-124652437D01*
X157295237Y-124652437D02*
X157342856Y-124700056D01*
X157342856Y-124700056D02*
X157438094Y-124842913D01*
X157438094Y-124842913D02*
X157485713Y-125033389D01*
X157485713Y-125033389D02*
X157485713Y-125414341D01*
X157485713Y-125414341D02*
X157438094Y-125509579D01*
X157438094Y-125509579D02*
X157390475Y-125557199D01*
X157390475Y-125557199D02*
X157295237Y-125604818D01*
X157295237Y-125604818D02*
X157104761Y-125604818D01*
X157104761Y-125604818D02*
X157009523Y-125557199D01*
X157009523Y-125557199D02*
X156961904Y-125509579D01*
X156961904Y-125509579D02*
X156914285Y-125414341D01*
X156914285Y-125414341D02*
X156914285Y-125176246D01*
X156914285Y-125176246D02*
X156961904Y-125081008D01*
X156961904Y-125081008D02*
X157009523Y-125033389D01*
X157009523Y-125033389D02*
X157104761Y-124985770D01*
X157104761Y-124985770D02*
X157295237Y-124985770D01*
X157295237Y-124985770D02*
X157390475Y-125033389D01*
X157390475Y-125033389D02*
X157438094Y-125081008D01*
X157438094Y-125081008D02*
X157485713Y-125176246D01*
X119533332Y-127574819D02*
X119533332Y-128289104D01*
X119533332Y-128289104D02*
X119580951Y-128431961D01*
X119580951Y-128431961D02*
X119676189Y-128527200D01*
X119676189Y-128527200D02*
X119819046Y-128574819D01*
X119819046Y-128574819D02*
X119914284Y-128574819D01*
X119057141Y-128574819D02*
X119057141Y-127574819D01*
X119057141Y-127574819D02*
X118676189Y-127574819D01*
X118676189Y-127574819D02*
X118580951Y-127622438D01*
X118580951Y-127622438D02*
X118533332Y-127670057D01*
X118533332Y-127670057D02*
X118485713Y-127765295D01*
X118485713Y-127765295D02*
X118485713Y-127908152D01*
X118485713Y-127908152D02*
X118533332Y-128003390D01*
X118533332Y-128003390D02*
X118580951Y-128051009D01*
X118580951Y-128051009D02*
X118676189Y-128098628D01*
X118676189Y-128098628D02*
X119057141Y-128098628D01*
X117533332Y-128574819D02*
X118104760Y-128574819D01*
X117819046Y-128574819D02*
X117819046Y-127574819D01*
X117819046Y-127574819D02*
X117914284Y-127717676D01*
X117914284Y-127717676D02*
X118009522Y-127812914D01*
X118009522Y-127812914D02*
X118104760Y-127860533D01*
X119333333Y-117174819D02*
X119333333Y-117889104D01*
X119333333Y-117889104D02*
X119380952Y-118031961D01*
X119380952Y-118031961D02*
X119476190Y-118127200D01*
X119476190Y-118127200D02*
X119619047Y-118174819D01*
X119619047Y-118174819D02*
X119714285Y-118174819D01*
X118857142Y-118174819D02*
X118857142Y-117174819D01*
X118857142Y-117174819D02*
X118476190Y-117174819D01*
X118476190Y-117174819D02*
X118380952Y-117222438D01*
X118380952Y-117222438D02*
X118333333Y-117270057D01*
X118333333Y-117270057D02*
X118285714Y-117365295D01*
X118285714Y-117365295D02*
X118285714Y-117508152D01*
X118285714Y-117508152D02*
X118333333Y-117603390D01*
X118333333Y-117603390D02*
X118380952Y-117651009D01*
X118380952Y-117651009D02*
X118476190Y-117698628D01*
X118476190Y-117698628D02*
X118857142Y-117698628D01*
X117380952Y-117174819D02*
X117857142Y-117174819D01*
X117857142Y-117174819D02*
X117904761Y-117651009D01*
X117904761Y-117651009D02*
X117857142Y-117603390D01*
X117857142Y-117603390D02*
X117761904Y-117555771D01*
X117761904Y-117555771D02*
X117523809Y-117555771D01*
X117523809Y-117555771D02*
X117428571Y-117603390D01*
X117428571Y-117603390D02*
X117380952Y-117651009D01*
X117380952Y-117651009D02*
X117333333Y-117746247D01*
X117333333Y-117746247D02*
X117333333Y-117984342D01*
X117333333Y-117984342D02*
X117380952Y-118079580D01*
X117380952Y-118079580D02*
X117428571Y-118127200D01*
X117428571Y-118127200D02*
X117523809Y-118174819D01*
X117523809Y-118174819D02*
X117761904Y-118174819D01*
X117761904Y-118174819D02*
X117857142Y-118127200D01*
X117857142Y-118127200D02*
X117904761Y-118079580D01*
X104954819Y-107986666D02*
X105669104Y-107986666D01*
X105669104Y-107986666D02*
X105811961Y-107939047D01*
X105811961Y-107939047D02*
X105907200Y-107843809D01*
X105907200Y-107843809D02*
X105954819Y-107700952D01*
X105954819Y-107700952D02*
X105954819Y-107605714D01*
X104954819Y-108939047D02*
X104954819Y-108462857D01*
X104954819Y-108462857D02*
X105431009Y-108415238D01*
X105431009Y-108415238D02*
X105383390Y-108462857D01*
X105383390Y-108462857D02*
X105335771Y-108558095D01*
X105335771Y-108558095D02*
X105335771Y-108796190D01*
X105335771Y-108796190D02*
X105383390Y-108891428D01*
X105383390Y-108891428D02*
X105431009Y-108939047D01*
X105431009Y-108939047D02*
X105526247Y-108986666D01*
X105526247Y-108986666D02*
X105764342Y-108986666D01*
X105764342Y-108986666D02*
X105859580Y-108939047D01*
X105859580Y-108939047D02*
X105907200Y-108891428D01*
X105907200Y-108891428D02*
X105954819Y-108796190D01*
X105954819Y-108796190D02*
X105954819Y-108558095D01*
X105954819Y-108558095D02*
X105907200Y-108462857D01*
X105907200Y-108462857D02*
X105859580Y-108415238D01*
X119409523Y-101574818D02*
X119409523Y-102289103D01*
X119409523Y-102289103D02*
X119457142Y-102431960D01*
X119457142Y-102431960D02*
X119552380Y-102527199D01*
X119552380Y-102527199D02*
X119695237Y-102574818D01*
X119695237Y-102574818D02*
X119790475Y-102574818D01*
X118933332Y-102574818D02*
X118933332Y-101574818D01*
X118933332Y-101574818D02*
X118552380Y-101574818D01*
X118552380Y-101574818D02*
X118457142Y-101622437D01*
X118457142Y-101622437D02*
X118409523Y-101670056D01*
X118409523Y-101670056D02*
X118361904Y-101765294D01*
X118361904Y-101765294D02*
X118361904Y-101908151D01*
X118361904Y-101908151D02*
X118409523Y-102003389D01*
X118409523Y-102003389D02*
X118457142Y-102051008D01*
X118457142Y-102051008D02*
X118552380Y-102098627D01*
X118552380Y-102098627D02*
X118933332Y-102098627D01*
X117409523Y-102574818D02*
X117980951Y-102574818D01*
X117695237Y-102574818D02*
X117695237Y-101574818D01*
X117695237Y-101574818D02*
X117790475Y-101717675D01*
X117790475Y-101717675D02*
X117885713Y-101812913D01*
X117885713Y-101812913D02*
X117980951Y-101860532D01*
X116457142Y-102574818D02*
X117028570Y-102574818D01*
X116742856Y-102574818D02*
X116742856Y-101574818D01*
X116742856Y-101574818D02*
X116838094Y-101717675D01*
X116838094Y-101717675D02*
X116933332Y-101812913D01*
X116933332Y-101812913D02*
X117028570Y-101860532D01*
X104954819Y-100986666D02*
X105669104Y-100986666D01*
X105669104Y-100986666D02*
X105811961Y-100939047D01*
X105811961Y-100939047D02*
X105907200Y-100843809D01*
X105907200Y-100843809D02*
X105954819Y-100700952D01*
X105954819Y-100700952D02*
X105954819Y-100605714D01*
X104954819Y-101367619D02*
X104954819Y-102034285D01*
X104954819Y-102034285D02*
X105954819Y-101605714D01*
X100154820Y-82410476D02*
X100869105Y-82410476D01*
X100869105Y-82410476D02*
X101011962Y-82362857D01*
X101011962Y-82362857D02*
X101107201Y-82267619D01*
X101107201Y-82267619D02*
X101154820Y-82124762D01*
X101154820Y-82124762D02*
X101154820Y-82029524D01*
X101154820Y-82886667D02*
X100154820Y-82886667D01*
X100154820Y-82886667D02*
X100154820Y-83267619D01*
X100154820Y-83267619D02*
X100202439Y-83362857D01*
X100202439Y-83362857D02*
X100250058Y-83410476D01*
X100250058Y-83410476D02*
X100345296Y-83458095D01*
X100345296Y-83458095D02*
X100488153Y-83458095D01*
X100488153Y-83458095D02*
X100583391Y-83410476D01*
X100583391Y-83410476D02*
X100631010Y-83362857D01*
X100631010Y-83362857D02*
X100678629Y-83267619D01*
X100678629Y-83267619D02*
X100678629Y-82886667D01*
X100250058Y-83839048D02*
X100202439Y-83886667D01*
X100202439Y-83886667D02*
X100154820Y-83981905D01*
X100154820Y-83981905D02*
X100154820Y-84220000D01*
X100154820Y-84220000D02*
X100202439Y-84315238D01*
X100202439Y-84315238D02*
X100250058Y-84362857D01*
X100250058Y-84362857D02*
X100345296Y-84410476D01*
X100345296Y-84410476D02*
X100440534Y-84410476D01*
X100440534Y-84410476D02*
X100583391Y-84362857D01*
X100583391Y-84362857D02*
X101154820Y-83791429D01*
X101154820Y-83791429D02*
X101154820Y-84410476D01*
X100154820Y-85029524D02*
X100154820Y-85124762D01*
X100154820Y-85124762D02*
X100202439Y-85220000D01*
X100202439Y-85220000D02*
X100250058Y-85267619D01*
X100250058Y-85267619D02*
X100345296Y-85315238D01*
X100345296Y-85315238D02*
X100535772Y-85362857D01*
X100535772Y-85362857D02*
X100773867Y-85362857D01*
X100773867Y-85362857D02*
X100964343Y-85315238D01*
X100964343Y-85315238D02*
X101059581Y-85267619D01*
X101059581Y-85267619D02*
X101107201Y-85220000D01*
X101107201Y-85220000D02*
X101154820Y-85124762D01*
X101154820Y-85124762D02*
X101154820Y-85029524D01*
X101154820Y-85029524D02*
X101107201Y-84934286D01*
X101107201Y-84934286D02*
X101059581Y-84886667D01*
X101059581Y-84886667D02*
X100964343Y-84839048D01*
X100964343Y-84839048D02*
X100773867Y-84791429D01*
X100773867Y-84791429D02*
X100535772Y-84791429D01*
X100535772Y-84791429D02*
X100345296Y-84839048D01*
X100345296Y-84839048D02*
X100250058Y-84886667D01*
X100250058Y-84886667D02*
X100202439Y-84934286D01*
X100202439Y-84934286D02*
X100154820Y-85029524D01*
X119409523Y-88574819D02*
X119409523Y-89289104D01*
X119409523Y-89289104D02*
X119457142Y-89431961D01*
X119457142Y-89431961D02*
X119552380Y-89527200D01*
X119552380Y-89527200D02*
X119695237Y-89574819D01*
X119695237Y-89574819D02*
X119790475Y-89574819D01*
X118933332Y-89574819D02*
X118933332Y-88574819D01*
X118933332Y-88574819D02*
X118552380Y-88574819D01*
X118552380Y-88574819D02*
X118457142Y-88622438D01*
X118457142Y-88622438D02*
X118409523Y-88670057D01*
X118409523Y-88670057D02*
X118361904Y-88765295D01*
X118361904Y-88765295D02*
X118361904Y-88908152D01*
X118361904Y-88908152D02*
X118409523Y-89003390D01*
X118409523Y-89003390D02*
X118457142Y-89051009D01*
X118457142Y-89051009D02*
X118552380Y-89098628D01*
X118552380Y-89098628D02*
X118933332Y-89098628D01*
X117409523Y-89574819D02*
X117980951Y-89574819D01*
X117695237Y-89574819D02*
X117695237Y-88574819D01*
X117695237Y-88574819D02*
X117790475Y-88717676D01*
X117790475Y-88717676D02*
X117885713Y-88812914D01*
X117885713Y-88812914D02*
X117980951Y-88860533D01*
X116552380Y-88574819D02*
X116742856Y-88574819D01*
X116742856Y-88574819D02*
X116838094Y-88622438D01*
X116838094Y-88622438D02*
X116885713Y-88670057D01*
X116885713Y-88670057D02*
X116980951Y-88812914D01*
X116980951Y-88812914D02*
X117028570Y-89003390D01*
X117028570Y-89003390D02*
X117028570Y-89384342D01*
X117028570Y-89384342D02*
X116980951Y-89479580D01*
X116980951Y-89479580D02*
X116933332Y-89527200D01*
X116933332Y-89527200D02*
X116838094Y-89574819D01*
X116838094Y-89574819D02*
X116647618Y-89574819D01*
X116647618Y-89574819D02*
X116552380Y-89527200D01*
X116552380Y-89527200D02*
X116504761Y-89479580D01*
X116504761Y-89479580D02*
X116457142Y-89384342D01*
X116457142Y-89384342D02*
X116457142Y-89146247D01*
X116457142Y-89146247D02*
X116504761Y-89051009D01*
X116504761Y-89051009D02*
X116552380Y-89003390D01*
X116552380Y-89003390D02*
X116647618Y-88955771D01*
X116647618Y-88955771D02*
X116838094Y-88955771D01*
X116838094Y-88955771D02*
X116933332Y-89003390D01*
X116933332Y-89003390D02*
X116980951Y-89051009D01*
X116980951Y-89051009D02*
X117028570Y-89146247D01*
X119333333Y-114574819D02*
X119333333Y-115289104D01*
X119333333Y-115289104D02*
X119380952Y-115431961D01*
X119380952Y-115431961D02*
X119476190Y-115527200D01*
X119476190Y-115527200D02*
X119619047Y-115574819D01*
X119619047Y-115574819D02*
X119714285Y-115574819D01*
X118857142Y-115574819D02*
X118857142Y-114574819D01*
X118857142Y-114574819D02*
X118476190Y-114574819D01*
X118476190Y-114574819D02*
X118380952Y-114622438D01*
X118380952Y-114622438D02*
X118333333Y-114670057D01*
X118333333Y-114670057D02*
X118285714Y-114765295D01*
X118285714Y-114765295D02*
X118285714Y-114908152D01*
X118285714Y-114908152D02*
X118333333Y-115003390D01*
X118333333Y-115003390D02*
X118380952Y-115051009D01*
X118380952Y-115051009D02*
X118476190Y-115098628D01*
X118476190Y-115098628D02*
X118857142Y-115098628D01*
X117428571Y-114574819D02*
X117619047Y-114574819D01*
X117619047Y-114574819D02*
X117714285Y-114622438D01*
X117714285Y-114622438D02*
X117761904Y-114670057D01*
X117761904Y-114670057D02*
X117857142Y-114812914D01*
X117857142Y-114812914D02*
X117904761Y-115003390D01*
X117904761Y-115003390D02*
X117904761Y-115384342D01*
X117904761Y-115384342D02*
X117857142Y-115479580D01*
X117857142Y-115479580D02*
X117809523Y-115527200D01*
X117809523Y-115527200D02*
X117714285Y-115574819D01*
X117714285Y-115574819D02*
X117523809Y-115574819D01*
X117523809Y-115574819D02*
X117428571Y-115527200D01*
X117428571Y-115527200D02*
X117380952Y-115479580D01*
X117380952Y-115479580D02*
X117333333Y-115384342D01*
X117333333Y-115384342D02*
X117333333Y-115146247D01*
X117333333Y-115146247D02*
X117380952Y-115051009D01*
X117380952Y-115051009D02*
X117428571Y-115003390D01*
X117428571Y-115003390D02*
X117523809Y-114955771D01*
X117523809Y-114955771D02*
X117714285Y-114955771D01*
X117714285Y-114955771D02*
X117809523Y-115003390D01*
X117809523Y-115003390D02*
X117857142Y-115051009D01*
X117857142Y-115051009D02*
X117904761Y-115146247D01*
X105954819Y-117386666D02*
X106669104Y-117386666D01*
X106669104Y-117386666D02*
X106811961Y-117339047D01*
X106811961Y-117339047D02*
X106907200Y-117243809D01*
X106907200Y-117243809D02*
X106954819Y-117100952D01*
X106954819Y-117100952D02*
X106954819Y-117005714D01*
X105954819Y-117767619D02*
X105954819Y-118386666D01*
X105954819Y-118386666D02*
X106335771Y-118053333D01*
X106335771Y-118053333D02*
X106335771Y-118196190D01*
X106335771Y-118196190D02*
X106383390Y-118291428D01*
X106383390Y-118291428D02*
X106431009Y-118339047D01*
X106431009Y-118339047D02*
X106526247Y-118386666D01*
X106526247Y-118386666D02*
X106764342Y-118386666D01*
X106764342Y-118386666D02*
X106859580Y-118339047D01*
X106859580Y-118339047D02*
X106907200Y-118291428D01*
X106907200Y-118291428D02*
X106954819Y-118196190D01*
X106954819Y-118196190D02*
X106954819Y-117910476D01*
X106954819Y-117910476D02*
X106907200Y-117815238D01*
X106907200Y-117815238D02*
X106859580Y-117767619D01*
X104954819Y-97586666D02*
X105669104Y-97586666D01*
X105669104Y-97586666D02*
X105811961Y-97539047D01*
X105811961Y-97539047D02*
X105907200Y-97443809D01*
X105907200Y-97443809D02*
X105954819Y-97300952D01*
X105954819Y-97300952D02*
X105954819Y-97205714D01*
X105383390Y-98205714D02*
X105335771Y-98110476D01*
X105335771Y-98110476D02*
X105288152Y-98062857D01*
X105288152Y-98062857D02*
X105192914Y-98015238D01*
X105192914Y-98015238D02*
X105145295Y-98015238D01*
X105145295Y-98015238D02*
X105050057Y-98062857D01*
X105050057Y-98062857D02*
X105002438Y-98110476D01*
X105002438Y-98110476D02*
X104954819Y-98205714D01*
X104954819Y-98205714D02*
X104954819Y-98396190D01*
X104954819Y-98396190D02*
X105002438Y-98491428D01*
X105002438Y-98491428D02*
X105050057Y-98539047D01*
X105050057Y-98539047D02*
X105145295Y-98586666D01*
X105145295Y-98586666D02*
X105192914Y-98586666D01*
X105192914Y-98586666D02*
X105288152Y-98539047D01*
X105288152Y-98539047D02*
X105335771Y-98491428D01*
X105335771Y-98491428D02*
X105383390Y-98396190D01*
X105383390Y-98396190D02*
X105383390Y-98205714D01*
X105383390Y-98205714D02*
X105431009Y-98110476D01*
X105431009Y-98110476D02*
X105478628Y-98062857D01*
X105478628Y-98062857D02*
X105573866Y-98015238D01*
X105573866Y-98015238D02*
X105764342Y-98015238D01*
X105764342Y-98015238D02*
X105859580Y-98062857D01*
X105859580Y-98062857D02*
X105907200Y-98110476D01*
X105907200Y-98110476D02*
X105954819Y-98205714D01*
X105954819Y-98205714D02*
X105954819Y-98396190D01*
X105954819Y-98396190D02*
X105907200Y-98491428D01*
X105907200Y-98491428D02*
X105859580Y-98539047D01*
X105859580Y-98539047D02*
X105764342Y-98586666D01*
X105764342Y-98586666D02*
X105573866Y-98586666D01*
X105573866Y-98586666D02*
X105478628Y-98539047D01*
X105478628Y-98539047D02*
X105431009Y-98491428D01*
X105431009Y-98491428D02*
X105383390Y-98396190D01*
X105954819Y-120786666D02*
X106669104Y-120786666D01*
X106669104Y-120786666D02*
X106811961Y-120739047D01*
X106811961Y-120739047D02*
X106907200Y-120643809D01*
X106907200Y-120643809D02*
X106954819Y-120500952D01*
X106954819Y-120500952D02*
X106954819Y-120405714D01*
X106050057Y-121215238D02*
X106002438Y-121262857D01*
X106002438Y-121262857D02*
X105954819Y-121358095D01*
X105954819Y-121358095D02*
X105954819Y-121596190D01*
X105954819Y-121596190D02*
X106002438Y-121691428D01*
X106002438Y-121691428D02*
X106050057Y-121739047D01*
X106050057Y-121739047D02*
X106145295Y-121786666D01*
X106145295Y-121786666D02*
X106240533Y-121786666D01*
X106240533Y-121786666D02*
X106383390Y-121739047D01*
X106383390Y-121739047D02*
X106954819Y-121167619D01*
X106954819Y-121167619D02*
X106954819Y-121786666D01*
X119409522Y-93774819D02*
X119409522Y-94489104D01*
X119409522Y-94489104D02*
X119457141Y-94631961D01*
X119457141Y-94631961D02*
X119552379Y-94727200D01*
X119552379Y-94727200D02*
X119695236Y-94774819D01*
X119695236Y-94774819D02*
X119790474Y-94774819D01*
X118933331Y-94774819D02*
X118933331Y-93774819D01*
X118933331Y-93774819D02*
X118552379Y-93774819D01*
X118552379Y-93774819D02*
X118457141Y-93822438D01*
X118457141Y-93822438D02*
X118409522Y-93870057D01*
X118409522Y-93870057D02*
X118361903Y-93965295D01*
X118361903Y-93965295D02*
X118361903Y-94108152D01*
X118361903Y-94108152D02*
X118409522Y-94203390D01*
X118409522Y-94203390D02*
X118457141Y-94251009D01*
X118457141Y-94251009D02*
X118552379Y-94298628D01*
X118552379Y-94298628D02*
X118933331Y-94298628D01*
X117409522Y-94774819D02*
X117980950Y-94774819D01*
X117695236Y-94774819D02*
X117695236Y-93774819D01*
X117695236Y-93774819D02*
X117790474Y-93917676D01*
X117790474Y-93917676D02*
X117885712Y-94012914D01*
X117885712Y-94012914D02*
X117980950Y-94060533D01*
X116552379Y-94108152D02*
X116552379Y-94774819D01*
X116790474Y-93727200D02*
X117028569Y-94441485D01*
X117028569Y-94441485D02*
X116409522Y-94441485D01*
X119409523Y-80774819D02*
X119409523Y-81489104D01*
X119409523Y-81489104D02*
X119457142Y-81631961D01*
X119457142Y-81631961D02*
X119552380Y-81727200D01*
X119552380Y-81727200D02*
X119695237Y-81774819D01*
X119695237Y-81774819D02*
X119790475Y-81774819D01*
X118933332Y-81774819D02*
X118933332Y-80774819D01*
X118933332Y-80774819D02*
X118552380Y-80774819D01*
X118552380Y-80774819D02*
X118457142Y-80822438D01*
X118457142Y-80822438D02*
X118409523Y-80870057D01*
X118409523Y-80870057D02*
X118361904Y-80965295D01*
X118361904Y-80965295D02*
X118361904Y-81108152D01*
X118361904Y-81108152D02*
X118409523Y-81203390D01*
X118409523Y-81203390D02*
X118457142Y-81251009D01*
X118457142Y-81251009D02*
X118552380Y-81298628D01*
X118552380Y-81298628D02*
X118933332Y-81298628D01*
X117409523Y-81774819D02*
X117980951Y-81774819D01*
X117695237Y-81774819D02*
X117695237Y-80774819D01*
X117695237Y-80774819D02*
X117790475Y-80917676D01*
X117790475Y-80917676D02*
X117885713Y-81012914D01*
X117885713Y-81012914D02*
X117980951Y-81060533D01*
X116933332Y-81774819D02*
X116742856Y-81774819D01*
X116742856Y-81774819D02*
X116647618Y-81727200D01*
X116647618Y-81727200D02*
X116599999Y-81679580D01*
X116599999Y-81679580D02*
X116504761Y-81536723D01*
X116504761Y-81536723D02*
X116457142Y-81346247D01*
X116457142Y-81346247D02*
X116457142Y-80965295D01*
X116457142Y-80965295D02*
X116504761Y-80870057D01*
X116504761Y-80870057D02*
X116552380Y-80822438D01*
X116552380Y-80822438D02*
X116647618Y-80774819D01*
X116647618Y-80774819D02*
X116838094Y-80774819D01*
X116838094Y-80774819D02*
X116933332Y-80822438D01*
X116933332Y-80822438D02*
X116980951Y-80870057D01*
X116980951Y-80870057D02*
X117028570Y-80965295D01*
X117028570Y-80965295D02*
X117028570Y-81203390D01*
X117028570Y-81203390D02*
X116980951Y-81298628D01*
X116980951Y-81298628D02*
X116933332Y-81346247D01*
X116933332Y-81346247D02*
X116838094Y-81393866D01*
X116838094Y-81393866D02*
X116647618Y-81393866D01*
X116647618Y-81393866D02*
X116552380Y-81346247D01*
X116552380Y-81346247D02*
X116504761Y-81298628D01*
X116504761Y-81298628D02*
X116457142Y-81203390D01*
X119409523Y-98974819D02*
X119409523Y-99689104D01*
X119409523Y-99689104D02*
X119457142Y-99831961D01*
X119457142Y-99831961D02*
X119552380Y-99927200D01*
X119552380Y-99927200D02*
X119695237Y-99974819D01*
X119695237Y-99974819D02*
X119790475Y-99974819D01*
X118933332Y-99974819D02*
X118933332Y-98974819D01*
X118933332Y-98974819D02*
X118552380Y-98974819D01*
X118552380Y-98974819D02*
X118457142Y-99022438D01*
X118457142Y-99022438D02*
X118409523Y-99070057D01*
X118409523Y-99070057D02*
X118361904Y-99165295D01*
X118361904Y-99165295D02*
X118361904Y-99308152D01*
X118361904Y-99308152D02*
X118409523Y-99403390D01*
X118409523Y-99403390D02*
X118457142Y-99451009D01*
X118457142Y-99451009D02*
X118552380Y-99498628D01*
X118552380Y-99498628D02*
X118933332Y-99498628D01*
X117409523Y-99974819D02*
X117980951Y-99974819D01*
X117695237Y-99974819D02*
X117695237Y-98974819D01*
X117695237Y-98974819D02*
X117790475Y-99117676D01*
X117790475Y-99117676D02*
X117885713Y-99212914D01*
X117885713Y-99212914D02*
X117980951Y-99260533D01*
X117028570Y-99070057D02*
X116980951Y-99022438D01*
X116980951Y-99022438D02*
X116885713Y-98974819D01*
X116885713Y-98974819D02*
X116647618Y-98974819D01*
X116647618Y-98974819D02*
X116552380Y-99022438D01*
X116552380Y-99022438D02*
X116504761Y-99070057D01*
X116504761Y-99070057D02*
X116457142Y-99165295D01*
X116457142Y-99165295D02*
X116457142Y-99260533D01*
X116457142Y-99260533D02*
X116504761Y-99403390D01*
X116504761Y-99403390D02*
X117076189Y-99974819D01*
X117076189Y-99974819D02*
X116457142Y-99974819D01*
X119333333Y-106774818D02*
X119333333Y-107489103D01*
X119333333Y-107489103D02*
X119380952Y-107631960D01*
X119380952Y-107631960D02*
X119476190Y-107727199D01*
X119476190Y-107727199D02*
X119619047Y-107774818D01*
X119619047Y-107774818D02*
X119714285Y-107774818D01*
X118857142Y-107774818D02*
X118857142Y-106774818D01*
X118857142Y-106774818D02*
X118476190Y-106774818D01*
X118476190Y-106774818D02*
X118380952Y-106822437D01*
X118380952Y-106822437D02*
X118333333Y-106870056D01*
X118333333Y-106870056D02*
X118285714Y-106965294D01*
X118285714Y-106965294D02*
X118285714Y-107108151D01*
X118285714Y-107108151D02*
X118333333Y-107203389D01*
X118333333Y-107203389D02*
X118380952Y-107251008D01*
X118380952Y-107251008D02*
X118476190Y-107298627D01*
X118476190Y-107298627D02*
X118857142Y-107298627D01*
X117809523Y-107774818D02*
X117619047Y-107774818D01*
X117619047Y-107774818D02*
X117523809Y-107727199D01*
X117523809Y-107727199D02*
X117476190Y-107679579D01*
X117476190Y-107679579D02*
X117380952Y-107536722D01*
X117380952Y-107536722D02*
X117333333Y-107346246D01*
X117333333Y-107346246D02*
X117333333Y-106965294D01*
X117333333Y-106965294D02*
X117380952Y-106870056D01*
X117380952Y-106870056D02*
X117428571Y-106822437D01*
X117428571Y-106822437D02*
X117523809Y-106774818D01*
X117523809Y-106774818D02*
X117714285Y-106774818D01*
X117714285Y-106774818D02*
X117809523Y-106822437D01*
X117809523Y-106822437D02*
X117857142Y-106870056D01*
X117857142Y-106870056D02*
X117904761Y-106965294D01*
X117904761Y-106965294D02*
X117904761Y-107203389D01*
X117904761Y-107203389D02*
X117857142Y-107298627D01*
X117857142Y-107298627D02*
X117809523Y-107346246D01*
X117809523Y-107346246D02*
X117714285Y-107393865D01*
X117714285Y-107393865D02*
X117523809Y-107393865D01*
X117523809Y-107393865D02*
X117428571Y-107346246D01*
X117428571Y-107346246D02*
X117380952Y-107298627D01*
X117380952Y-107298627D02*
X117333333Y-107203389D01*
X119333333Y-119774819D02*
X119333333Y-120489104D01*
X119333333Y-120489104D02*
X119380952Y-120631961D01*
X119380952Y-120631961D02*
X119476190Y-120727200D01*
X119476190Y-120727200D02*
X119619047Y-120774819D01*
X119619047Y-120774819D02*
X119714285Y-120774819D01*
X118857142Y-120774819D02*
X118857142Y-119774819D01*
X118857142Y-119774819D02*
X118476190Y-119774819D01*
X118476190Y-119774819D02*
X118380952Y-119822438D01*
X118380952Y-119822438D02*
X118333333Y-119870057D01*
X118333333Y-119870057D02*
X118285714Y-119965295D01*
X118285714Y-119965295D02*
X118285714Y-120108152D01*
X118285714Y-120108152D02*
X118333333Y-120203390D01*
X118333333Y-120203390D02*
X118380952Y-120251009D01*
X118380952Y-120251009D02*
X118476190Y-120298628D01*
X118476190Y-120298628D02*
X118857142Y-120298628D01*
X117428571Y-120108152D02*
X117428571Y-120774819D01*
X117666666Y-119727200D02*
X117904761Y-120441485D01*
X117904761Y-120441485D02*
X117285714Y-120441485D01*
X119409523Y-96374819D02*
X119409523Y-97089104D01*
X119409523Y-97089104D02*
X119457142Y-97231961D01*
X119457142Y-97231961D02*
X119552380Y-97327200D01*
X119552380Y-97327200D02*
X119695237Y-97374819D01*
X119695237Y-97374819D02*
X119790475Y-97374819D01*
X118933332Y-97374819D02*
X118933332Y-96374819D01*
X118933332Y-96374819D02*
X118552380Y-96374819D01*
X118552380Y-96374819D02*
X118457142Y-96422438D01*
X118457142Y-96422438D02*
X118409523Y-96470057D01*
X118409523Y-96470057D02*
X118361904Y-96565295D01*
X118361904Y-96565295D02*
X118361904Y-96708152D01*
X118361904Y-96708152D02*
X118409523Y-96803390D01*
X118409523Y-96803390D02*
X118457142Y-96851009D01*
X118457142Y-96851009D02*
X118552380Y-96898628D01*
X118552380Y-96898628D02*
X118933332Y-96898628D01*
X117409523Y-97374819D02*
X117980951Y-97374819D01*
X117695237Y-97374819D02*
X117695237Y-96374819D01*
X117695237Y-96374819D02*
X117790475Y-96517676D01*
X117790475Y-96517676D02*
X117885713Y-96612914D01*
X117885713Y-96612914D02*
X117980951Y-96660533D01*
X117076189Y-96374819D02*
X116457142Y-96374819D01*
X116457142Y-96374819D02*
X116790475Y-96755771D01*
X116790475Y-96755771D02*
X116647618Y-96755771D01*
X116647618Y-96755771D02*
X116552380Y-96803390D01*
X116552380Y-96803390D02*
X116504761Y-96851009D01*
X116504761Y-96851009D02*
X116457142Y-96946247D01*
X116457142Y-96946247D02*
X116457142Y-97184342D01*
X116457142Y-97184342D02*
X116504761Y-97279580D01*
X116504761Y-97279580D02*
X116552380Y-97327200D01*
X116552380Y-97327200D02*
X116647618Y-97374819D01*
X116647618Y-97374819D02*
X116933332Y-97374819D01*
X116933332Y-97374819D02*
X117028570Y-97327200D01*
X117028570Y-97327200D02*
X117076189Y-97279580D01*
X119333332Y-122374819D02*
X119333332Y-123089104D01*
X119333332Y-123089104D02*
X119380951Y-123231961D01*
X119380951Y-123231961D02*
X119476189Y-123327200D01*
X119476189Y-123327200D02*
X119619046Y-123374819D01*
X119619046Y-123374819D02*
X119714284Y-123374819D01*
X118857141Y-123374819D02*
X118857141Y-122374819D01*
X118857141Y-122374819D02*
X118476189Y-122374819D01*
X118476189Y-122374819D02*
X118380951Y-122422438D01*
X118380951Y-122422438D02*
X118333332Y-122470057D01*
X118333332Y-122470057D02*
X118285713Y-122565295D01*
X118285713Y-122565295D02*
X118285713Y-122708152D01*
X118285713Y-122708152D02*
X118333332Y-122803390D01*
X118333332Y-122803390D02*
X118380951Y-122851009D01*
X118380951Y-122851009D02*
X118476189Y-122898628D01*
X118476189Y-122898628D02*
X118857141Y-122898628D01*
X117952379Y-122374819D02*
X117333332Y-122374819D01*
X117333332Y-122374819D02*
X117666665Y-122755771D01*
X117666665Y-122755771D02*
X117523808Y-122755771D01*
X117523808Y-122755771D02*
X117428570Y-122803390D01*
X117428570Y-122803390D02*
X117380951Y-122851009D01*
X117380951Y-122851009D02*
X117333332Y-122946247D01*
X117333332Y-122946247D02*
X117333332Y-123184342D01*
X117333332Y-123184342D02*
X117380951Y-123279580D01*
X117380951Y-123279580D02*
X117428570Y-123327200D01*
X117428570Y-123327200D02*
X117523808Y-123374819D01*
X117523808Y-123374819D02*
X117809522Y-123374819D01*
X117809522Y-123374819D02*
X117904760Y-123327200D01*
X117904760Y-123327200D02*
X117952379Y-123279580D01*
X119409523Y-91174819D02*
X119409523Y-91889104D01*
X119409523Y-91889104D02*
X119457142Y-92031961D01*
X119457142Y-92031961D02*
X119552380Y-92127200D01*
X119552380Y-92127200D02*
X119695237Y-92174819D01*
X119695237Y-92174819D02*
X119790475Y-92174819D01*
X118933332Y-92174819D02*
X118933332Y-91174819D01*
X118933332Y-91174819D02*
X118552380Y-91174819D01*
X118552380Y-91174819D02*
X118457142Y-91222438D01*
X118457142Y-91222438D02*
X118409523Y-91270057D01*
X118409523Y-91270057D02*
X118361904Y-91365295D01*
X118361904Y-91365295D02*
X118361904Y-91508152D01*
X118361904Y-91508152D02*
X118409523Y-91603390D01*
X118409523Y-91603390D02*
X118457142Y-91651009D01*
X118457142Y-91651009D02*
X118552380Y-91698628D01*
X118552380Y-91698628D02*
X118933332Y-91698628D01*
X117409523Y-92174819D02*
X117980951Y-92174819D01*
X117695237Y-92174819D02*
X117695237Y-91174819D01*
X117695237Y-91174819D02*
X117790475Y-91317676D01*
X117790475Y-91317676D02*
X117885713Y-91412914D01*
X117885713Y-91412914D02*
X117980951Y-91460533D01*
X116504761Y-91174819D02*
X116980951Y-91174819D01*
X116980951Y-91174819D02*
X117028570Y-91651009D01*
X117028570Y-91651009D02*
X116980951Y-91603390D01*
X116980951Y-91603390D02*
X116885713Y-91555771D01*
X116885713Y-91555771D02*
X116647618Y-91555771D01*
X116647618Y-91555771D02*
X116552380Y-91603390D01*
X116552380Y-91603390D02*
X116504761Y-91651009D01*
X116504761Y-91651009D02*
X116457142Y-91746247D01*
X116457142Y-91746247D02*
X116457142Y-91984342D01*
X116457142Y-91984342D02*
X116504761Y-92079580D01*
X116504761Y-92079580D02*
X116552380Y-92127200D01*
X116552380Y-92127200D02*
X116647618Y-92174819D01*
X116647618Y-92174819D02*
X116885713Y-92174819D01*
X116885713Y-92174819D02*
X116980951Y-92127200D01*
X116980951Y-92127200D02*
X117028570Y-92079580D01*
X119409523Y-104174819D02*
X119409523Y-104889104D01*
X119409523Y-104889104D02*
X119457142Y-105031961D01*
X119457142Y-105031961D02*
X119552380Y-105127200D01*
X119552380Y-105127200D02*
X119695237Y-105174819D01*
X119695237Y-105174819D02*
X119790475Y-105174819D01*
X118933332Y-105174819D02*
X118933332Y-104174819D01*
X118933332Y-104174819D02*
X118552380Y-104174819D01*
X118552380Y-104174819D02*
X118457142Y-104222438D01*
X118457142Y-104222438D02*
X118409523Y-104270057D01*
X118409523Y-104270057D02*
X118361904Y-104365295D01*
X118361904Y-104365295D02*
X118361904Y-104508152D01*
X118361904Y-104508152D02*
X118409523Y-104603390D01*
X118409523Y-104603390D02*
X118457142Y-104651009D01*
X118457142Y-104651009D02*
X118552380Y-104698628D01*
X118552380Y-104698628D02*
X118933332Y-104698628D01*
X117409523Y-105174819D02*
X117980951Y-105174819D01*
X117695237Y-105174819D02*
X117695237Y-104174819D01*
X117695237Y-104174819D02*
X117790475Y-104317676D01*
X117790475Y-104317676D02*
X117885713Y-104412914D01*
X117885713Y-104412914D02*
X117980951Y-104460533D01*
X116790475Y-104174819D02*
X116695237Y-104174819D01*
X116695237Y-104174819D02*
X116599999Y-104222438D01*
X116599999Y-104222438D02*
X116552380Y-104270057D01*
X116552380Y-104270057D02*
X116504761Y-104365295D01*
X116504761Y-104365295D02*
X116457142Y-104555771D01*
X116457142Y-104555771D02*
X116457142Y-104793866D01*
X116457142Y-104793866D02*
X116504761Y-104984342D01*
X116504761Y-104984342D02*
X116552380Y-105079580D01*
X116552380Y-105079580D02*
X116599999Y-105127200D01*
X116599999Y-105127200D02*
X116695237Y-105174819D01*
X116695237Y-105174819D02*
X116790475Y-105174819D01*
X116790475Y-105174819D02*
X116885713Y-105127200D01*
X116885713Y-105127200D02*
X116933332Y-105079580D01*
X116933332Y-105079580D02*
X116980951Y-104984342D01*
X116980951Y-104984342D02*
X117028570Y-104793866D01*
X117028570Y-104793866D02*
X117028570Y-104555771D01*
X117028570Y-104555771D02*
X116980951Y-104365295D01*
X116980951Y-104365295D02*
X116933332Y-104270057D01*
X116933332Y-104270057D02*
X116885713Y-104222438D01*
X116885713Y-104222438D02*
X116790475Y-104174819D01*
X119333333Y-109374819D02*
X119333333Y-110089104D01*
X119333333Y-110089104D02*
X119380952Y-110231961D01*
X119380952Y-110231961D02*
X119476190Y-110327200D01*
X119476190Y-110327200D02*
X119619047Y-110374819D01*
X119619047Y-110374819D02*
X119714285Y-110374819D01*
X118857142Y-110374819D02*
X118857142Y-109374819D01*
X118857142Y-109374819D02*
X118476190Y-109374819D01*
X118476190Y-109374819D02*
X118380952Y-109422438D01*
X118380952Y-109422438D02*
X118333333Y-109470057D01*
X118333333Y-109470057D02*
X118285714Y-109565295D01*
X118285714Y-109565295D02*
X118285714Y-109708152D01*
X118285714Y-109708152D02*
X118333333Y-109803390D01*
X118333333Y-109803390D02*
X118380952Y-109851009D01*
X118380952Y-109851009D02*
X118476190Y-109898628D01*
X118476190Y-109898628D02*
X118857142Y-109898628D01*
X117714285Y-109803390D02*
X117809523Y-109755771D01*
X117809523Y-109755771D02*
X117857142Y-109708152D01*
X117857142Y-109708152D02*
X117904761Y-109612914D01*
X117904761Y-109612914D02*
X117904761Y-109565295D01*
X117904761Y-109565295D02*
X117857142Y-109470057D01*
X117857142Y-109470057D02*
X117809523Y-109422438D01*
X117809523Y-109422438D02*
X117714285Y-109374819D01*
X117714285Y-109374819D02*
X117523809Y-109374819D01*
X117523809Y-109374819D02*
X117428571Y-109422438D01*
X117428571Y-109422438D02*
X117380952Y-109470057D01*
X117380952Y-109470057D02*
X117333333Y-109565295D01*
X117333333Y-109565295D02*
X117333333Y-109612914D01*
X117333333Y-109612914D02*
X117380952Y-109708152D01*
X117380952Y-109708152D02*
X117428571Y-109755771D01*
X117428571Y-109755771D02*
X117523809Y-109803390D01*
X117523809Y-109803390D02*
X117714285Y-109803390D01*
X117714285Y-109803390D02*
X117809523Y-109851009D01*
X117809523Y-109851009D02*
X117857142Y-109898628D01*
X117857142Y-109898628D02*
X117904761Y-109993866D01*
X117904761Y-109993866D02*
X117904761Y-110184342D01*
X117904761Y-110184342D02*
X117857142Y-110279580D01*
X117857142Y-110279580D02*
X117809523Y-110327200D01*
X117809523Y-110327200D02*
X117714285Y-110374819D01*
X117714285Y-110374819D02*
X117523809Y-110374819D01*
X117523809Y-110374819D02*
X117428571Y-110327200D01*
X117428571Y-110327200D02*
X117380952Y-110279580D01*
X117380952Y-110279580D02*
X117333333Y-110184342D01*
X117333333Y-110184342D02*
X117333333Y-109993866D01*
X117333333Y-109993866D02*
X117380952Y-109898628D01*
X117380952Y-109898628D02*
X117428571Y-109851009D01*
X117428571Y-109851009D02*
X117523809Y-109803390D01*
X112754819Y-123010477D02*
X113469104Y-123010477D01*
X113469104Y-123010477D02*
X113611961Y-122962858D01*
X113611961Y-122962858D02*
X113707200Y-122867620D01*
X113707200Y-122867620D02*
X113754819Y-122724763D01*
X113754819Y-122724763D02*
X113754819Y-122629525D01*
X113754819Y-124010477D02*
X113754819Y-123439049D01*
X113754819Y-123724763D02*
X112754819Y-123724763D01*
X112754819Y-123724763D02*
X112897676Y-123629525D01*
X112897676Y-123629525D02*
X112992914Y-123534287D01*
X112992914Y-123534287D02*
X113040533Y-123439049D01*
X112850057Y-124391430D02*
X112802438Y-124439049D01*
X112802438Y-124439049D02*
X112754819Y-124534287D01*
X112754819Y-124534287D02*
X112754819Y-124772382D01*
X112754819Y-124772382D02*
X112802438Y-124867620D01*
X112802438Y-124867620D02*
X112850057Y-124915239D01*
X112850057Y-124915239D02*
X112945295Y-124962858D01*
X112945295Y-124962858D02*
X113040533Y-124962858D01*
X113040533Y-124962858D02*
X113183390Y-124915239D01*
X113183390Y-124915239D02*
X113754819Y-124343811D01*
X113754819Y-124343811D02*
X113754819Y-124962858D01*
X119409523Y-83374819D02*
X119409523Y-84089104D01*
X119409523Y-84089104D02*
X119457142Y-84231961D01*
X119457142Y-84231961D02*
X119552380Y-84327200D01*
X119552380Y-84327200D02*
X119695237Y-84374819D01*
X119695237Y-84374819D02*
X119790475Y-84374819D01*
X118933332Y-84374819D02*
X118933332Y-83374819D01*
X118933332Y-83374819D02*
X118552380Y-83374819D01*
X118552380Y-83374819D02*
X118457142Y-83422438D01*
X118457142Y-83422438D02*
X118409523Y-83470057D01*
X118409523Y-83470057D02*
X118361904Y-83565295D01*
X118361904Y-83565295D02*
X118361904Y-83708152D01*
X118361904Y-83708152D02*
X118409523Y-83803390D01*
X118409523Y-83803390D02*
X118457142Y-83851009D01*
X118457142Y-83851009D02*
X118552380Y-83898628D01*
X118552380Y-83898628D02*
X118933332Y-83898628D01*
X117409523Y-84374819D02*
X117980951Y-84374819D01*
X117695237Y-84374819D02*
X117695237Y-83374819D01*
X117695237Y-83374819D02*
X117790475Y-83517676D01*
X117790475Y-83517676D02*
X117885713Y-83612914D01*
X117885713Y-83612914D02*
X117980951Y-83660533D01*
X116838094Y-83803390D02*
X116933332Y-83755771D01*
X116933332Y-83755771D02*
X116980951Y-83708152D01*
X116980951Y-83708152D02*
X117028570Y-83612914D01*
X117028570Y-83612914D02*
X117028570Y-83565295D01*
X117028570Y-83565295D02*
X116980951Y-83470057D01*
X116980951Y-83470057D02*
X116933332Y-83422438D01*
X116933332Y-83422438D02*
X116838094Y-83374819D01*
X116838094Y-83374819D02*
X116647618Y-83374819D01*
X116647618Y-83374819D02*
X116552380Y-83422438D01*
X116552380Y-83422438D02*
X116504761Y-83470057D01*
X116504761Y-83470057D02*
X116457142Y-83565295D01*
X116457142Y-83565295D02*
X116457142Y-83612914D01*
X116457142Y-83612914D02*
X116504761Y-83708152D01*
X116504761Y-83708152D02*
X116552380Y-83755771D01*
X116552380Y-83755771D02*
X116647618Y-83803390D01*
X116647618Y-83803390D02*
X116838094Y-83803390D01*
X116838094Y-83803390D02*
X116933332Y-83851009D01*
X116933332Y-83851009D02*
X116980951Y-83898628D01*
X116980951Y-83898628D02*
X117028570Y-83993866D01*
X117028570Y-83993866D02*
X117028570Y-84184342D01*
X117028570Y-84184342D02*
X116980951Y-84279580D01*
X116980951Y-84279580D02*
X116933332Y-84327200D01*
X116933332Y-84327200D02*
X116838094Y-84374819D01*
X116838094Y-84374819D02*
X116647618Y-84374819D01*
X116647618Y-84374819D02*
X116552380Y-84327200D01*
X116552380Y-84327200D02*
X116504761Y-84279580D01*
X116504761Y-84279580D02*
X116457142Y-84184342D01*
X116457142Y-84184342D02*
X116457142Y-83993866D01*
X116457142Y-83993866D02*
X116504761Y-83898628D01*
X116504761Y-83898628D02*
X116552380Y-83851009D01*
X116552380Y-83851009D02*
X116647618Y-83803390D01*
X104954819Y-104486667D02*
X105669104Y-104486667D01*
X105669104Y-104486667D02*
X105811961Y-104439048D01*
X105811961Y-104439048D02*
X105907200Y-104343810D01*
X105907200Y-104343810D02*
X105954819Y-104200953D01*
X105954819Y-104200953D02*
X105954819Y-104105715D01*
X104954819Y-105391429D02*
X104954819Y-105200953D01*
X104954819Y-105200953D02*
X105002438Y-105105715D01*
X105002438Y-105105715D02*
X105050057Y-105058096D01*
X105050057Y-105058096D02*
X105192914Y-104962858D01*
X105192914Y-104962858D02*
X105383390Y-104915239D01*
X105383390Y-104915239D02*
X105764342Y-104915239D01*
X105764342Y-104915239D02*
X105859580Y-104962858D01*
X105859580Y-104962858D02*
X105907200Y-105010477D01*
X105907200Y-105010477D02*
X105954819Y-105105715D01*
X105954819Y-105105715D02*
X105954819Y-105296191D01*
X105954819Y-105296191D02*
X105907200Y-105391429D01*
X105907200Y-105391429D02*
X105859580Y-105439048D01*
X105859580Y-105439048D02*
X105764342Y-105486667D01*
X105764342Y-105486667D02*
X105526247Y-105486667D01*
X105526247Y-105486667D02*
X105431009Y-105439048D01*
X105431009Y-105439048D02*
X105383390Y-105391429D01*
X105383390Y-105391429D02*
X105335771Y-105296191D01*
X105335771Y-105296191D02*
X105335771Y-105105715D01*
X105335771Y-105105715D02*
X105383390Y-105010477D01*
X105383390Y-105010477D02*
X105431009Y-104962858D01*
X105431009Y-104962858D02*
X105526247Y-104915239D01*
X119409523Y-85974820D02*
X119409523Y-86689105D01*
X119409523Y-86689105D02*
X119457142Y-86831962D01*
X119457142Y-86831962D02*
X119552380Y-86927201D01*
X119552380Y-86927201D02*
X119695237Y-86974820D01*
X119695237Y-86974820D02*
X119790475Y-86974820D01*
X118933332Y-86974820D02*
X118933332Y-85974820D01*
X118933332Y-85974820D02*
X118552380Y-85974820D01*
X118552380Y-85974820D02*
X118457142Y-86022439D01*
X118457142Y-86022439D02*
X118409523Y-86070058D01*
X118409523Y-86070058D02*
X118361904Y-86165296D01*
X118361904Y-86165296D02*
X118361904Y-86308153D01*
X118361904Y-86308153D02*
X118409523Y-86403391D01*
X118409523Y-86403391D02*
X118457142Y-86451010D01*
X118457142Y-86451010D02*
X118552380Y-86498629D01*
X118552380Y-86498629D02*
X118933332Y-86498629D01*
X117409523Y-86974820D02*
X117980951Y-86974820D01*
X117695237Y-86974820D02*
X117695237Y-85974820D01*
X117695237Y-85974820D02*
X117790475Y-86117677D01*
X117790475Y-86117677D02*
X117885713Y-86212915D01*
X117885713Y-86212915D02*
X117980951Y-86260534D01*
X117076189Y-85974820D02*
X116409523Y-85974820D01*
X116409523Y-85974820D02*
X116838094Y-86974820D01*
X119333333Y-111974819D02*
X119333333Y-112689104D01*
X119333333Y-112689104D02*
X119380952Y-112831961D01*
X119380952Y-112831961D02*
X119476190Y-112927200D01*
X119476190Y-112927200D02*
X119619047Y-112974819D01*
X119619047Y-112974819D02*
X119714285Y-112974819D01*
X118857142Y-112974819D02*
X118857142Y-111974819D01*
X118857142Y-111974819D02*
X118476190Y-111974819D01*
X118476190Y-111974819D02*
X118380952Y-112022438D01*
X118380952Y-112022438D02*
X118333333Y-112070057D01*
X118333333Y-112070057D02*
X118285714Y-112165295D01*
X118285714Y-112165295D02*
X118285714Y-112308152D01*
X118285714Y-112308152D02*
X118333333Y-112403390D01*
X118333333Y-112403390D02*
X118380952Y-112451009D01*
X118380952Y-112451009D02*
X118476190Y-112498628D01*
X118476190Y-112498628D02*
X118857142Y-112498628D01*
X117952380Y-111974819D02*
X117285714Y-111974819D01*
X117285714Y-111974819D02*
X117714285Y-112974819D01*
X105954819Y-113986666D02*
X106669104Y-113986666D01*
X106669104Y-113986666D02*
X106811961Y-113939047D01*
X106811961Y-113939047D02*
X106907200Y-113843809D01*
X106907200Y-113843809D02*
X106954819Y-113700952D01*
X106954819Y-113700952D02*
X106954819Y-113605714D01*
X106288152Y-114891428D02*
X106954819Y-114891428D01*
X105907200Y-114653333D02*
X106621485Y-114415238D01*
X106621485Y-114415238D02*
X106621485Y-115034285D01*
X119333333Y-124974819D02*
X119333333Y-125689104D01*
X119333333Y-125689104D02*
X119380952Y-125831961D01*
X119380952Y-125831961D02*
X119476190Y-125927200D01*
X119476190Y-125927200D02*
X119619047Y-125974819D01*
X119619047Y-125974819D02*
X119714285Y-125974819D01*
X118857142Y-125974819D02*
X118857142Y-124974819D01*
X118857142Y-124974819D02*
X118476190Y-124974819D01*
X118476190Y-124974819D02*
X118380952Y-125022438D01*
X118380952Y-125022438D02*
X118333333Y-125070057D01*
X118333333Y-125070057D02*
X118285714Y-125165295D01*
X118285714Y-125165295D02*
X118285714Y-125308152D01*
X118285714Y-125308152D02*
X118333333Y-125403390D01*
X118333333Y-125403390D02*
X118380952Y-125451009D01*
X118380952Y-125451009D02*
X118476190Y-125498628D01*
X118476190Y-125498628D02*
X118857142Y-125498628D01*
X117904761Y-125070057D02*
X117857142Y-125022438D01*
X117857142Y-125022438D02*
X117761904Y-124974819D01*
X117761904Y-124974819D02*
X117523809Y-124974819D01*
X117523809Y-124974819D02*
X117428571Y-125022438D01*
X117428571Y-125022438D02*
X117380952Y-125070057D01*
X117380952Y-125070057D02*
X117333333Y-125165295D01*
X117333333Y-125165295D02*
X117333333Y-125260533D01*
X117333333Y-125260533D02*
X117380952Y-125403390D01*
X117380952Y-125403390D02*
X117952380Y-125974819D01*
X117952380Y-125974819D02*
X117333333Y-125974819D01*
D11*
%TO.C,JP1*%
X120099999Y-127819999D02*
X120099999Y-128420001D01*
X120799999Y-129120000D02*
X122199999Y-129120000D01*
X122199999Y-127120000D02*
X120799999Y-127120000D01*
X122899999Y-128420001D02*
X122899999Y-127819999D01*
X120099999Y-127819999D02*
G75*
G02*
X120799999Y-127120000I700000J-1D01*
G01*
X120799999Y-129120000D02*
G75*
G02*
X120099999Y-128420001I0J700000D01*
G01*
X122199999Y-127120000D02*
G75*
G02*
X122899999Y-127819999I1J-699999D01*
G01*
X122899999Y-128420001D02*
G75*
G02*
X122199999Y-129120000I-699999J0D01*
G01*
%TO.C,JP5*%
X120100000Y-117419999D02*
X120100000Y-118020001D01*
X120800000Y-118720000D02*
X122200000Y-118720000D01*
X122200000Y-116720000D02*
X120800000Y-116720000D01*
X122900000Y-118020001D02*
X122900000Y-117419999D01*
X120100000Y-117419999D02*
G75*
G02*
X120800000Y-116720000I700000J-1D01*
G01*
X120800000Y-118720000D02*
G75*
G02*
X120100000Y-118020001I0J700000D01*
G01*
X122200000Y-116720000D02*
G75*
G02*
X122900000Y-117419999I1J-699999D01*
G01*
X122900000Y-118020001D02*
G75*
G02*
X122200000Y-118720000I-699999J0D01*
G01*
%TO.C,J5*%
X108600001Y-107220000D02*
X108900001Y-106920000D01*
X108600001Y-107220000D02*
X108900001Y-107520000D01*
X108900001Y-106920000D02*
X108900001Y-107520000D01*
%TO.C,JP11*%
X120100000Y-101849998D02*
X120100000Y-102450000D01*
X120800000Y-103149999D02*
X122200000Y-103149999D01*
X122200000Y-101149999D02*
X120800000Y-101149999D01*
X122900000Y-102450000D02*
X122900000Y-101849998D01*
X120100000Y-101849998D02*
G75*
G02*
X120800000Y-101149999I700000J-1D01*
G01*
X120800000Y-103149999D02*
G75*
G02*
X120100000Y-102450000I0J700000D01*
G01*
X122200000Y-101149999D02*
G75*
G02*
X122900000Y-101849998I1J-699999D01*
G01*
X122900000Y-102450000D02*
G75*
G02*
X122200000Y-103149999I-699999J0D01*
G01*
%TO.C,J7*%
X108600001Y-100220000D02*
X108900001Y-99920000D01*
X108600001Y-100220000D02*
X108900001Y-100520000D01*
X108900001Y-99920000D02*
X108900001Y-100520000D01*
D12*
%TO.C,G\u002A\u002A\u002A*%
G36*
X148840773Y-115086948D02*
G01*
X148855841Y-115097646D01*
X148893023Y-115143200D01*
X148909463Y-115205980D01*
X148906450Y-115289978D01*
X148901907Y-115316126D01*
X148867191Y-115404223D01*
X148805740Y-115480029D01*
X148720168Y-115540036D01*
X148695263Y-115552829D01*
X148655516Y-115569884D01*
X148617473Y-115578563D01*
X148570244Y-115580793D01*
X148502942Y-115578502D01*
X148409288Y-115568503D01*
X148297968Y-115537583D01*
X148209696Y-115487552D01*
X148145347Y-115419150D01*
X148105794Y-115333116D01*
X148091910Y-115230192D01*
X148095864Y-115166444D01*
X148113975Y-115110942D01*
X148148169Y-115079343D01*
X148200005Y-115069326D01*
X148223400Y-115071197D01*
X148264448Y-115090216D01*
X148291854Y-115132484D01*
X148308384Y-115201375D01*
X148312685Y-115227547D01*
X148323069Y-115274651D01*
X148333260Y-115304603D01*
X148342622Y-115316850D01*
X148383733Y-115341776D01*
X148445286Y-115358429D01*
X148520064Y-115364494D01*
X148555102Y-115363307D01*
X148626658Y-115348724D01*
X148678089Y-115314727D01*
X148713420Y-115257785D01*
X148736672Y-115174366D01*
X148741032Y-115152649D01*
X148756573Y-115098323D01*
X148776031Y-115071234D01*
X148802925Y-115068427D01*
X148840773Y-115086948D01*
G37*
G36*
X150756021Y-115084876D02*
G01*
X150802388Y-115099654D01*
X150835873Y-115136483D01*
X150848752Y-115186999D01*
X150854986Y-115217730D01*
X150882075Y-115267584D01*
X150923833Y-115315392D01*
X150972791Y-115351264D01*
X150998829Y-115362816D01*
X151073931Y-115378364D01*
X151151004Y-115373893D01*
X151217104Y-115349499D01*
X151246318Y-115326861D01*
X151271552Y-115289577D01*
X151292450Y-115231489D01*
X151305008Y-115194251D01*
X151326780Y-115145509D01*
X151347431Y-115114377D01*
X151352117Y-115110014D01*
X151398860Y-115088065D01*
X151453709Y-115090468D01*
X151506901Y-115117060D01*
X151529977Y-115139235D01*
X151544224Y-115171281D01*
X151547834Y-115220900D01*
X151539067Y-115289126D01*
X151503909Y-115378082D01*
X151445893Y-115462172D01*
X151369352Y-115535421D01*
X151278624Y-115591856D01*
X151242631Y-115607800D01*
X151198204Y-115621103D01*
X151148904Y-115625865D01*
X151081779Y-115624216D01*
X151079009Y-115624069D01*
X150977718Y-115611440D01*
X150903125Y-115585876D01*
X150885302Y-115575939D01*
X150803816Y-115512994D01*
X150733999Y-115431271D01*
X150682071Y-115339278D01*
X150654252Y-115245522D01*
X150654826Y-115189414D01*
X150674190Y-115136111D01*
X150708882Y-115098869D01*
X150754431Y-115084861D01*
X150756021Y-115084876D01*
G37*
G36*
X152622970Y-115765915D02*
G01*
X152623044Y-115767580D01*
X152626666Y-115823157D01*
X152633415Y-115856283D01*
X152646431Y-115875372D01*
X152668858Y-115888839D01*
X152670951Y-115889755D01*
X152700719Y-115899651D01*
X152755715Y-115915674D01*
X152831674Y-115936666D01*
X152924332Y-115961463D01*
X153029422Y-115988905D01*
X153142680Y-116017832D01*
X153222552Y-116038087D01*
X153370030Y-116075804D01*
X153525967Y-116116017D01*
X153680713Y-116156225D01*
X153824613Y-116193924D01*
X153948018Y-116226613D01*
X154020820Y-116246035D01*
X154123755Y-116273449D01*
X154216788Y-116298172D01*
X154294889Y-116318870D01*
X154353032Y-116334210D01*
X154386187Y-116342857D01*
X154400658Y-116346959D01*
X154445429Y-116364430D01*
X154474854Y-116382908D01*
X154475433Y-116383493D01*
X154490604Y-116414559D01*
X154480253Y-116440865D01*
X154448386Y-116451956D01*
X154447451Y-116451922D01*
X154421816Y-116447496D01*
X154370708Y-116436324D01*
X154298332Y-116419405D01*
X154208893Y-116397742D01*
X154106596Y-116372335D01*
X153995645Y-116344186D01*
X153935468Y-116328858D01*
X153786648Y-116291566D01*
X153625133Y-116251785D01*
X153461605Y-116212116D01*
X153306752Y-116175161D01*
X153171259Y-116143521D01*
X153110797Y-116129611D01*
X152969085Y-116097057D01*
X152853897Y-116070910D01*
X152762484Y-116050832D01*
X152692098Y-116036489D01*
X152639991Y-116027543D01*
X152603415Y-116023657D01*
X152579620Y-116024498D01*
X152565859Y-116029726D01*
X152559383Y-116039007D01*
X152557443Y-116052003D01*
X152557292Y-116068377D01*
X152557256Y-116069660D01*
X152551409Y-116102331D01*
X152537557Y-116152964D01*
X152518522Y-116211161D01*
X152499154Y-116273690D01*
X152485315Y-116333141D01*
X152480012Y-116376614D01*
X152481278Y-116408193D01*
X152490244Y-116427889D01*
X152514468Y-116440183D01*
X152561504Y-116452067D01*
X152575346Y-116455340D01*
X152629628Y-116468836D01*
X152706135Y-116488416D01*
X152799271Y-116512598D01*
X152903439Y-116539902D01*
X153013044Y-116568847D01*
X153122489Y-116597951D01*
X153226178Y-116625733D01*
X153318513Y-116650714D01*
X153393902Y-116671411D01*
X153446745Y-116686344D01*
X153482079Y-116697654D01*
X153555716Y-116731985D01*
X153599523Y-116772617D01*
X153614012Y-116819962D01*
X153609490Y-116848532D01*
X153592577Y-116853214D01*
X153558818Y-116834131D01*
X153557736Y-116833389D01*
X153524197Y-116816738D01*
X153465812Y-116795390D01*
X153381467Y-116769014D01*
X153270048Y-116737282D01*
X153130441Y-116699859D01*
X152961534Y-116656414D01*
X152866933Y-116632559D01*
X152725293Y-116597331D01*
X152611663Y-116569814D01*
X152524790Y-116549722D01*
X152463427Y-116536769D01*
X152426322Y-116530672D01*
X152412223Y-116531144D01*
X152411192Y-116532520D01*
X152397400Y-116552437D01*
X152371923Y-116589957D01*
X152339319Y-116638378D01*
X152266059Y-116735308D01*
X152135976Y-116869691D01*
X151976257Y-116999303D01*
X151787602Y-117123594D01*
X151570713Y-117242012D01*
X151454619Y-117298109D01*
X151110019Y-117443062D01*
X150759132Y-117559287D01*
X150404506Y-117646014D01*
X150048690Y-117702471D01*
X150033048Y-117704216D01*
X149900887Y-117715141D01*
X149754797Y-117721557D01*
X149603713Y-117723466D01*
X149456568Y-117720873D01*
X149322299Y-117713779D01*
X149209838Y-117702189D01*
X149093710Y-117683554D01*
X148855796Y-117630635D01*
X148627609Y-117560226D01*
X148413158Y-117474041D01*
X148216449Y-117373797D01*
X148041490Y-117261209D01*
X147892288Y-117137995D01*
X147864208Y-117110542D01*
X147804835Y-117041950D01*
X147767424Y-116975577D01*
X147747867Y-116902567D01*
X147742059Y-116814065D01*
X147740029Y-116758782D01*
X147733661Y-116712686D01*
X147723867Y-116691320D01*
X147689571Y-116680859D01*
X147639399Y-116679117D01*
X147591431Y-116687613D01*
X147573295Y-116690356D01*
X147538997Y-116680118D01*
X147492018Y-116649196D01*
X147467610Y-116630757D01*
X147429500Y-116602070D01*
X147405574Y-116584197D01*
X147397493Y-116581123D01*
X147364927Y-116581135D01*
X147309321Y-116589760D01*
X147229073Y-116607330D01*
X147122587Y-116634176D01*
X146988262Y-116670629D01*
X146946485Y-116682182D01*
X146840994Y-116710893D01*
X146732022Y-116739982D01*
X146623753Y-116768389D01*
X146520371Y-116795049D01*
X146426060Y-116818903D01*
X146345003Y-116838884D01*
X146281384Y-116853932D01*
X146239387Y-116862983D01*
X146223197Y-116864974D01*
X146222466Y-116863000D01*
X146234938Y-116848352D01*
X146266697Y-116826153D01*
X146310542Y-116800667D01*
X146359274Y-116776158D01*
X146405693Y-116756890D01*
X146433636Y-116747620D01*
X146489425Y-116730026D01*
X146565962Y-116706407D01*
X146658417Y-116678244D01*
X146761957Y-116647015D01*
X146871749Y-116614200D01*
X146937475Y-116594548D01*
X147070670Y-116553687D01*
X147177798Y-116518609D01*
X147261635Y-116487788D01*
X147324958Y-116459698D01*
X147370540Y-116432812D01*
X147401163Y-116405605D01*
X147419597Y-116376551D01*
X147428623Y-116344123D01*
X147431015Y-116306797D01*
X147430678Y-116293100D01*
X147425564Y-116267856D01*
X147410029Y-116245454D01*
X147378687Y-116219583D01*
X147326152Y-116183932D01*
X147293216Y-116162258D01*
X147236259Y-116125710D01*
X147193402Y-116102596D01*
X147156203Y-116090876D01*
X147116221Y-116088510D01*
X147065018Y-116093462D01*
X146994152Y-116103684D01*
X146956416Y-116109669D01*
X146871921Y-116124843D01*
X146767426Y-116145125D01*
X146649358Y-116169150D01*
X146524146Y-116195554D01*
X146398217Y-116222972D01*
X146278000Y-116250040D01*
X146169922Y-116275392D01*
X146080414Y-116297665D01*
X146072001Y-116299831D01*
X146013213Y-116313940D01*
X145964863Y-116323901D01*
X145936713Y-116327674D01*
X145917498Y-116323466D01*
X145909397Y-116306094D01*
X145922620Y-116281793D01*
X145955269Y-116257717D01*
X145965489Y-116253039D01*
X146014893Y-116235974D01*
X146091636Y-116214243D01*
X146193299Y-116188423D01*
X146317462Y-116159094D01*
X146461705Y-116126832D01*
X146623608Y-116092216D01*
X146800751Y-116055822D01*
X146914529Y-116032592D01*
X147017824Y-116010617D01*
X147095915Y-115992677D01*
X147151665Y-115978008D01*
X147187940Y-115965851D01*
X147207604Y-115955441D01*
X147213522Y-115946017D01*
X147213114Y-115943601D01*
X147205148Y-115920059D01*
X147190218Y-115882526D01*
X147177727Y-115841047D01*
X147169485Y-115786460D01*
X147167556Y-115732643D01*
X147172231Y-115689415D01*
X147180801Y-115672513D01*
X147275663Y-115672513D01*
X147283335Y-115688741D01*
X147305016Y-115725502D01*
X147337323Y-115777125D01*
X147376866Y-115838065D01*
X147400100Y-115873554D01*
X147447028Y-115948857D01*
X147478108Y-116008228D01*
X147495114Y-116058240D01*
X147499823Y-116105463D01*
X147494008Y-116156471D01*
X147479444Y-116217834D01*
X147475852Y-116231384D01*
X147462268Y-116287447D01*
X147457287Y-116324456D01*
X147460448Y-116351350D01*
X147471295Y-116377070D01*
X147472682Y-116379674D01*
X147505271Y-116413582D01*
X147548507Y-116419168D01*
X147599449Y-116395998D01*
X147625200Y-116380365D01*
X147639566Y-116376579D01*
X147644056Y-116384293D01*
X147660430Y-116414828D01*
X147685545Y-116462728D01*
X147716170Y-116521864D01*
X147819980Y-116697917D01*
X147940105Y-116851401D01*
X148080722Y-116986425D01*
X148246611Y-117108275D01*
X148417033Y-117205007D01*
X148610196Y-117289842D01*
X148818104Y-117359896D01*
X149033375Y-117412682D01*
X149248629Y-117445716D01*
X149321751Y-117451550D01*
X149429692Y-117456336D01*
X149551164Y-117458711D01*
X149677265Y-117458690D01*
X149799093Y-117456290D01*
X149907745Y-117451525D01*
X149994317Y-117444412D01*
X150032905Y-117439813D01*
X150291087Y-117399224D01*
X150546308Y-117342652D01*
X150795093Y-117271552D01*
X151033965Y-117187383D01*
X151259449Y-117091600D01*
X151468068Y-116985660D01*
X151656348Y-116871020D01*
X151820812Y-116749136D01*
X151957985Y-116621465D01*
X151968195Y-116610460D01*
X152028614Y-116539246D01*
X152080364Y-116468364D01*
X152116039Y-116407821D01*
X152128617Y-116382780D01*
X152160486Y-116332830D01*
X152193540Y-116308364D01*
X152234568Y-116306066D01*
X152290359Y-116322617D01*
X152292810Y-116323542D01*
X152339584Y-116337362D01*
X152367557Y-116332434D01*
X152382296Y-116304674D01*
X152389371Y-116250000D01*
X152390265Y-116236788D01*
X152390077Y-116199391D01*
X152381161Y-116181792D01*
X152360077Y-116175195D01*
X152325237Y-116158694D01*
X152288181Y-116124689D01*
X152258847Y-116084113D01*
X152246916Y-116047861D01*
X152251055Y-116013725D01*
X152279124Y-115949060D01*
X152334916Y-115876371D01*
X152356991Y-115850848D01*
X152381164Y-115814074D01*
X152393454Y-115773607D01*
X152399348Y-115715765D01*
X152398446Y-115634040D01*
X152380564Y-115560111D01*
X152361637Y-115503893D01*
X152358150Y-115448068D01*
X152377082Y-115403279D01*
X152381127Y-115396862D01*
X152392023Y-115357518D01*
X152392205Y-115298034D01*
X152381387Y-115217020D01*
X152359286Y-115113087D01*
X152325612Y-114984845D01*
X152280084Y-114830903D01*
X152222415Y-114649876D01*
X152211014Y-114615074D01*
X152167669Y-114482726D01*
X152132520Y-114373437D01*
X152104668Y-114281872D01*
X152083216Y-114202692D01*
X152067266Y-114130559D01*
X152055919Y-114060139D01*
X152048277Y-113986091D01*
X152043443Y-113903078D01*
X152040518Y-113805764D01*
X152038601Y-113688810D01*
X152036798Y-113546879D01*
X152036455Y-113521027D01*
X152033931Y-113350213D01*
X152031206Y-113206333D01*
X152028096Y-113085753D01*
X152024415Y-112984837D01*
X152019980Y-112899952D01*
X152014602Y-112827461D01*
X152008097Y-112763731D01*
X152000283Y-112705126D01*
X151990968Y-112648011D01*
X151980873Y-112593449D01*
X151967232Y-112535211D01*
X151951803Y-112494358D01*
X151931308Y-112462931D01*
X151902474Y-112432972D01*
X151899706Y-112430420D01*
X151831441Y-112385273D01*
X151744984Y-112359112D01*
X151636258Y-112350671D01*
X151593796Y-112351729D01*
X151531016Y-112359004D01*
X151472249Y-112375288D01*
X151413470Y-112403022D01*
X151350651Y-112444647D01*
X151279770Y-112502605D01*
X151196798Y-112579338D01*
X151097711Y-112677287D01*
X151024527Y-112750240D01*
X150943952Y-112826942D01*
X150875848Y-112885443D01*
X150815568Y-112928561D01*
X150758462Y-112959117D01*
X150699883Y-112979928D01*
X150635183Y-112993815D01*
X150559714Y-113003596D01*
X150533287Y-113005830D01*
X150462214Y-113009503D01*
X150367274Y-113012479D01*
X150253174Y-113014757D01*
X150124615Y-113016338D01*
X149986300Y-113017219D01*
X149842929Y-113017401D01*
X149699206Y-113016883D01*
X149559831Y-113015664D01*
X149429511Y-113013744D01*
X149312945Y-113011123D01*
X149214834Y-113007800D01*
X149139884Y-113003772D01*
X149034353Y-112994361D01*
X148933157Y-112979202D01*
X148843401Y-112956596D01*
X148759672Y-112923976D01*
X148676552Y-112878775D01*
X148588626Y-112818425D01*
X148490477Y-112740360D01*
X148376690Y-112642012D01*
X148374866Y-112640395D01*
X148281251Y-112559225D01*
X148204241Y-112497439D01*
X148138723Y-112452340D01*
X148079584Y-112421231D01*
X148021709Y-112401412D01*
X147959987Y-112390186D01*
X147889302Y-112384856D01*
X147839498Y-112383067D01*
X147785372Y-112383511D01*
X147744950Y-112389189D01*
X147707938Y-112401859D01*
X147664042Y-112423275D01*
X147661138Y-112424790D01*
X147606731Y-112457841D01*
X147570128Y-112494164D01*
X147539761Y-112545099D01*
X147528558Y-112568221D01*
X147517430Y-112596153D01*
X147509840Y-112626499D01*
X147505160Y-112664989D01*
X147502761Y-112717353D01*
X147502016Y-112789326D01*
X147502294Y-112886635D01*
X147502378Y-112898578D01*
X147507733Y-113075137D01*
X147520343Y-113267239D01*
X147539342Y-113461436D01*
X147545657Y-113519177D01*
X147561710Y-113699306D01*
X147572381Y-113876152D01*
X147576791Y-114036237D01*
X147577189Y-114108952D01*
X147576819Y-114183211D01*
X147574650Y-114244669D01*
X147569798Y-114300500D01*
X147561376Y-114357877D01*
X147548499Y-114423977D01*
X147530282Y-114505972D01*
X147505838Y-114611038D01*
X147483749Y-114706694D01*
X147457155Y-114824697D01*
X147431558Y-114940988D01*
X147409047Y-115046067D01*
X147391708Y-115130436D01*
X147375523Y-115213500D01*
X147364979Y-115273883D01*
X147360050Y-115315810D01*
X147360354Y-115345313D01*
X147365507Y-115368425D01*
X147375125Y-115391177D01*
X147379599Y-115401282D01*
X147396422Y-115465289D01*
X147398083Y-115530388D01*
X147383949Y-115582847D01*
X147359130Y-115610935D01*
X147321808Y-115636599D01*
X147318196Y-115638502D01*
X147288039Y-115657920D01*
X147275663Y-115672513D01*
X147180801Y-115672513D01*
X147183802Y-115666595D01*
X147186984Y-115662647D01*
X147180023Y-115640261D01*
X147150497Y-115604376D01*
X147142740Y-115596449D01*
X147125404Y-115580423D01*
X147106409Y-115567639D01*
X147082082Y-115557511D01*
X147048751Y-115549458D01*
X147002744Y-115542896D01*
X146940389Y-115537243D01*
X146858013Y-115531914D01*
X146751943Y-115526327D01*
X146618508Y-115519898D01*
X146593685Y-115518676D01*
X146496719Y-115513060D01*
X146410234Y-115506761D01*
X146339372Y-115500237D01*
X146289274Y-115493947D01*
X146265083Y-115488350D01*
X146247272Y-115473349D01*
X146234807Y-115443755D01*
X146237567Y-115431580D01*
X146253149Y-115418903D01*
X146287789Y-115408456D01*
X146347437Y-115397812D01*
X146435171Y-115384695D01*
X146578778Y-115365185D01*
X146722777Y-115347720D01*
X146856857Y-115333523D01*
X146970708Y-115323818D01*
X147030356Y-115319610D01*
X147080180Y-115313362D01*
X147113650Y-115300924D01*
X147134903Y-115277381D01*
X147148077Y-115237816D01*
X147157309Y-115177315D01*
X147166737Y-115090963D01*
X147167599Y-115083296D01*
X147178820Y-115004477D01*
X147195613Y-114908419D01*
X147215855Y-114806564D01*
X147237419Y-114710352D01*
X147258569Y-114618857D01*
X147283431Y-114496000D01*
X147301652Y-114379773D01*
X147313439Y-114264856D01*
X147318997Y-114145923D01*
X147318529Y-114017651D01*
X147312240Y-113874719D01*
X147300334Y-113711801D01*
X147283016Y-113523577D01*
X147280112Y-113492666D01*
X147270930Y-113371319D01*
X147264111Y-113241846D01*
X147259703Y-113109830D01*
X147257750Y-112980853D01*
X147258299Y-112860499D01*
X147261397Y-112754351D01*
X147267090Y-112667991D01*
X147275424Y-112607002D01*
X147277499Y-112597311D01*
X147314267Y-112480623D01*
X147371248Y-112381797D01*
X147453385Y-112292085D01*
X147508132Y-112246692D01*
X147604219Y-112190275D01*
X147709474Y-112158652D01*
X147831628Y-112148899D01*
X147887520Y-112150485D01*
X148000765Y-112164749D01*
X148109850Y-112195675D01*
X148220206Y-112245501D01*
X148337266Y-112316470D01*
X148466464Y-112410823D01*
X148526407Y-112457257D01*
X148632963Y-112537958D01*
X148721573Y-112602016D01*
X148795919Y-112651958D01*
X148859679Y-112690307D01*
X148916536Y-112719589D01*
X149007834Y-112762353D01*
X149675846Y-112767130D01*
X149728684Y-112767485D01*
X149912294Y-112768259D01*
X150068336Y-112767969D01*
X150199580Y-112766448D01*
X150308793Y-112763525D01*
X150398745Y-112759030D01*
X150472204Y-112752795D01*
X150531939Y-112744649D01*
X150580716Y-112734423D01*
X150621306Y-112721948D01*
X150656478Y-112707053D01*
X150668754Y-112700163D01*
X150711094Y-112670512D01*
X150767351Y-112625954D01*
X150831657Y-112571245D01*
X150898143Y-112511143D01*
X150912434Y-112497843D01*
X151035919Y-112386280D01*
X151143741Y-112296141D01*
X151239595Y-112225108D01*
X151327175Y-112170870D01*
X151410175Y-112131112D01*
X151492290Y-112103520D01*
X151577213Y-112085780D01*
X151705385Y-112076535D01*
X151837502Y-112092988D01*
X151956362Y-112137382D01*
X152061120Y-112209263D01*
X152150929Y-112308177D01*
X152224943Y-112433669D01*
X152233303Y-112451438D01*
X152255765Y-112502003D01*
X152274492Y-112550836D01*
X152289825Y-112601220D01*
X152302106Y-112656434D01*
X152311677Y-112719757D01*
X152318884Y-112794469D01*
X152324063Y-112883851D01*
X152327561Y-112991181D01*
X152329719Y-113119741D01*
X152330878Y-113272810D01*
X152331382Y-113453668D01*
X152332360Y-114113913D01*
X152374574Y-114261496D01*
X152393400Y-114323954D01*
X152422587Y-114414425D01*
X152455255Y-114510776D01*
X152487237Y-114600463D01*
X152503789Y-114645840D01*
X152554755Y-114792994D01*
X152593392Y-114919127D01*
X152621057Y-115029469D01*
X152639104Y-115129249D01*
X152648892Y-115223696D01*
X152658599Y-115372262D01*
X153194725Y-115380696D01*
X153296452Y-115382506D01*
X153415709Y-115385194D01*
X153522456Y-115388222D01*
X153612981Y-115391457D01*
X153683572Y-115394760D01*
X153730518Y-115397997D01*
X153750107Y-115401032D01*
X153766244Y-115416308D01*
X153763061Y-115436675D01*
X153738608Y-115470048D01*
X153737323Y-115471565D01*
X153725858Y-115482646D01*
X153710144Y-115492208D01*
X153687212Y-115500677D01*
X153654091Y-115508481D01*
X153607808Y-115516043D01*
X153545397Y-115523790D01*
X153463884Y-115532148D01*
X153360298Y-115541542D01*
X153231670Y-115552398D01*
X153075029Y-115565142D01*
X153039532Y-115568018D01*
X152930427Y-115577219D01*
X152846942Y-115585144D01*
X152784869Y-115592446D01*
X152740002Y-115599775D01*
X152708132Y-115607786D01*
X152685052Y-115617129D01*
X152666556Y-115628458D01*
X152657598Y-115634915D01*
X152635670Y-115654026D01*
X152624574Y-115675966D01*
X152621334Y-115710132D01*
X152621499Y-115715765D01*
X152622970Y-115765915D01*
G37*
D11*
%TO.C,JP20*%
X101500001Y-82320000D02*
X101500001Y-85120000D01*
X101500001Y-85120000D02*
X103500001Y-85120000D01*
X103500001Y-82320000D02*
X101500001Y-82320000D01*
X103500001Y-85120000D02*
X103500001Y-82320000D01*
%TO.C,JP16*%
X120100000Y-88849999D02*
X120100000Y-89450001D01*
X120800000Y-90150000D02*
X122200000Y-90150000D01*
X122200000Y-88150000D02*
X120800000Y-88150000D01*
X122900000Y-89450001D02*
X122900000Y-88849999D01*
X120100000Y-88849999D02*
G75*
G02*
X120800000Y-88150000I700000J-1D01*
G01*
X120800000Y-90150000D02*
G75*
G02*
X120100000Y-89450001I0J700000D01*
G01*
X122200000Y-88150000D02*
G75*
G02*
X122900000Y-88849999I1J-699999D01*
G01*
X122900000Y-89450001D02*
G75*
G02*
X122200000Y-90150000I-699999J0D01*
G01*
%TO.C,JP6*%
X120100000Y-114819999D02*
X120100000Y-115420001D01*
X120800000Y-116120000D02*
X122200000Y-116120000D01*
X122200000Y-114120000D02*
X120800000Y-114120000D01*
X122900000Y-115420001D02*
X122900000Y-114819999D01*
X120100000Y-114819999D02*
G75*
G02*
X120800000Y-114120000I700000J-1D01*
G01*
X120800000Y-116120000D02*
G75*
G02*
X120100000Y-115420001I0J700000D01*
G01*
X122200000Y-114120000D02*
G75*
G02*
X122900000Y-114819999I1J-699999D01*
G01*
X122900000Y-115420001D02*
G75*
G02*
X122200000Y-116120000I-699999J0D01*
G01*
%TO.C,J3*%
X109600001Y-116620000D02*
X109900001Y-116320000D01*
X109600001Y-116620000D02*
X109900001Y-116920000D01*
X109900001Y-116320000D02*
X109900001Y-116920000D01*
%TO.C,J8*%
X108600001Y-96820000D02*
X108900001Y-96520000D01*
X108600001Y-96820000D02*
X108900001Y-97120000D01*
X108900001Y-96520000D02*
X108900001Y-97120000D01*
%TO.C,J2*%
X109600001Y-120020000D02*
X109900001Y-119720000D01*
X109600001Y-120020000D02*
X109900001Y-120320000D01*
X109900001Y-119720000D02*
X109900001Y-120320000D01*
%TO.C,JP14*%
X120099999Y-94049999D02*
X120099999Y-94650001D01*
X120799999Y-95350000D02*
X122199999Y-95350000D01*
X122199999Y-93350000D02*
X120799999Y-93350000D01*
X122899999Y-94650001D02*
X122899999Y-94049999D01*
X120099999Y-94049999D02*
G75*
G02*
X120799999Y-93350000I700000J-1D01*
G01*
X120799999Y-95350000D02*
G75*
G02*
X120099999Y-94650001I0J700000D01*
G01*
X122199999Y-93350000D02*
G75*
G02*
X122899999Y-94049999I1J-699999D01*
G01*
X122899999Y-94650001D02*
G75*
G02*
X122199999Y-95350000I-699999J0D01*
G01*
%TO.C,JP19*%
X120100000Y-81019999D02*
X120100000Y-81620001D01*
X120800000Y-82320000D02*
X122200000Y-82320000D01*
X122200000Y-80320000D02*
X120800000Y-80320000D01*
X122900000Y-81620001D02*
X122900000Y-81019999D01*
X120100000Y-81019999D02*
G75*
G02*
X120800000Y-80320000I700000J-1D01*
G01*
X120800000Y-82320000D02*
G75*
G02*
X120100000Y-81620001I0J700000D01*
G01*
X122200000Y-80320000D02*
G75*
G02*
X122900000Y-81019999I1J-699999D01*
G01*
X122900000Y-81620001D02*
G75*
G02*
X122200000Y-82320000I-699999J0D01*
G01*
%TO.C,JP12*%
X120100000Y-99249999D02*
X120100000Y-99850001D01*
X120800000Y-100550000D02*
X122200000Y-100550000D01*
X122200000Y-98550000D02*
X120800000Y-98550000D01*
X122900000Y-99850001D02*
X122900000Y-99249999D01*
X120100000Y-99249999D02*
G75*
G02*
X120800000Y-98550000I700000J-1D01*
G01*
X120800000Y-100550000D02*
G75*
G02*
X120100000Y-99850001I0J700000D01*
G01*
X122200000Y-98550000D02*
G75*
G02*
X122900000Y-99249999I1J-699999D01*
G01*
X122900000Y-99850001D02*
G75*
G02*
X122200000Y-100550000I-699999J0D01*
G01*
%TO.C,JP9*%
X120100000Y-107037677D02*
X120100000Y-107637679D01*
X120800000Y-108337678D02*
X122200000Y-108337678D01*
X122200000Y-106337678D02*
X120800000Y-106337678D01*
X122900000Y-107637679D02*
X122900000Y-107037677D01*
X120100000Y-107037677D02*
G75*
G02*
X120800000Y-106337678I700000J-1D01*
G01*
X120800000Y-108337678D02*
G75*
G02*
X120100000Y-107637679I0J700000D01*
G01*
X122200000Y-106337678D02*
G75*
G02*
X122900000Y-107037677I1J-699999D01*
G01*
X122900000Y-107637679D02*
G75*
G02*
X122200000Y-108337678I-699999J0D01*
G01*
%TO.C,JP4*%
X120100000Y-120015005D02*
X120100000Y-120615007D01*
X120800000Y-121315006D02*
X122200000Y-121315006D01*
X122200000Y-119315006D02*
X120800000Y-119315006D01*
X122900000Y-120615007D02*
X122900000Y-120015005D01*
X120100000Y-120015005D02*
G75*
G02*
X120800000Y-119315006I700000J-1D01*
G01*
X120800000Y-121315006D02*
G75*
G02*
X120100000Y-120615007I0J700000D01*
G01*
X122200000Y-119315006D02*
G75*
G02*
X122900000Y-120015005I1J-699999D01*
G01*
X122900000Y-120615007D02*
G75*
G02*
X122200000Y-121315006I-699999J0D01*
G01*
%TO.C,JP13*%
X120100000Y-96649999D02*
X120100000Y-97250001D01*
X120800000Y-97950000D02*
X122200000Y-97950000D01*
X122200000Y-95950000D02*
X120800000Y-95950000D01*
X122900000Y-97250001D02*
X122900000Y-96649999D01*
X120100000Y-96649999D02*
G75*
G02*
X120800000Y-95950000I700000J-1D01*
G01*
X120800000Y-97950000D02*
G75*
G02*
X120100000Y-97250001I0J700000D01*
G01*
X122200000Y-95950000D02*
G75*
G02*
X122900000Y-96649999I1J-699999D01*
G01*
X122900000Y-97250001D02*
G75*
G02*
X122200000Y-97950000I-699999J0D01*
G01*
%TO.C,JP3*%
X120099999Y-122611053D02*
X120099999Y-123211055D01*
X120799999Y-123911054D02*
X122199999Y-123911054D01*
X122199999Y-121911054D02*
X120799999Y-121911054D01*
X122899999Y-123211055D02*
X122899999Y-122611053D01*
X120099999Y-122611053D02*
G75*
G02*
X120799999Y-121911054I700000J-1D01*
G01*
X120799999Y-123911054D02*
G75*
G02*
X120099999Y-123211055I0J700000D01*
G01*
X122199999Y-121911054D02*
G75*
G02*
X122899999Y-122611053I1J-699999D01*
G01*
X122899999Y-123211055D02*
G75*
G02*
X122199999Y-123911054I-699999J0D01*
G01*
%TO.C,JP15*%
X120100000Y-91449999D02*
X120100000Y-92050001D01*
X120800000Y-92750000D02*
X122200000Y-92750000D01*
X122200000Y-90750000D02*
X120800000Y-90750000D01*
X122900000Y-92050001D02*
X122900000Y-91449999D01*
X120100000Y-91449999D02*
G75*
G02*
X120800000Y-90750000I700000J-1D01*
G01*
X120800000Y-92750000D02*
G75*
G02*
X120100000Y-92050001I0J700000D01*
G01*
X122200000Y-90750000D02*
G75*
G02*
X122900000Y-91449999I1J-699999D01*
G01*
X122900000Y-92050001D02*
G75*
G02*
X122200000Y-92750000I-699999J0D01*
G01*
%TO.C,JP10*%
X120100000Y-104449999D02*
X120100000Y-105050001D01*
X120800000Y-105750000D02*
X122200000Y-105750000D01*
X122200000Y-103750000D02*
X120800000Y-103750000D01*
X122900000Y-105050001D02*
X122900000Y-104449999D01*
X120100000Y-104449999D02*
G75*
G02*
X120800000Y-103750000I700000J-1D01*
G01*
X120800000Y-105750000D02*
G75*
G02*
X120100000Y-105050001I0J700000D01*
G01*
X122200000Y-103750000D02*
G75*
G02*
X122900000Y-104449999I1J-699999D01*
G01*
X122900000Y-105050001D02*
G75*
G02*
X122200000Y-105750000I-699999J0D01*
G01*
%TO.C,JP8*%
X120100000Y-109624363D02*
X120100000Y-110224365D01*
X120800000Y-110924364D02*
X122200000Y-110924364D01*
X122200000Y-108924364D02*
X120800000Y-108924364D01*
X122900000Y-110224365D02*
X122900000Y-109624363D01*
X120100000Y-109624363D02*
G75*
G02*
X120800000Y-108924364I700000J-1D01*
G01*
X120800000Y-110924364D02*
G75*
G02*
X120100000Y-110224365I0J700000D01*
G01*
X122200000Y-108924364D02*
G75*
G02*
X122900000Y-109624363I1J-699999D01*
G01*
X122900000Y-110224365D02*
G75*
G02*
X122200000Y-110924364I-699999J0D01*
G01*
%TO.C,J12*%
X116400001Y-122720001D02*
X116700001Y-122420001D01*
X116400001Y-122720001D02*
X116700001Y-123020001D01*
X116700001Y-122420001D02*
X116700001Y-123020001D01*
%TO.C,JP18*%
X120100000Y-83639999D02*
X120100000Y-84240001D01*
X120800000Y-84940000D02*
X122200000Y-84940000D01*
X122200000Y-82940000D02*
X120800000Y-82940000D01*
X122900000Y-84240001D02*
X122900000Y-83639999D01*
X120100000Y-83639999D02*
G75*
G02*
X120800000Y-82940000I700000J-1D01*
G01*
X120800000Y-84940000D02*
G75*
G02*
X120100000Y-84240001I0J700000D01*
G01*
X122200000Y-82940000D02*
G75*
G02*
X122900000Y-83639999I1J-699999D01*
G01*
X122900000Y-84240001D02*
G75*
G02*
X122200000Y-84940000I-699999J0D01*
G01*
%TO.C,J6*%
X108600001Y-103720001D02*
X108900001Y-103420001D01*
X108600001Y-103720001D02*
X108900001Y-104020001D01*
X108900001Y-103420001D02*
X108900001Y-104020001D01*
%TO.C,JP17*%
X120100000Y-86250000D02*
X120100000Y-86850002D01*
X120800000Y-87550001D02*
X122200000Y-87550001D01*
X122200000Y-85550001D02*
X120800000Y-85550001D01*
X122900000Y-86850002D02*
X122900000Y-86250000D01*
X120100000Y-86250000D02*
G75*
G02*
X120800000Y-85550001I700000J-1D01*
G01*
X120800000Y-87550001D02*
G75*
G02*
X120100000Y-86850002I0J700000D01*
G01*
X122200000Y-85550001D02*
G75*
G02*
X122900000Y-86250000I1J-699999D01*
G01*
X122900000Y-86850002D02*
G75*
G02*
X122200000Y-87550001I-699999J0D01*
G01*
%TO.C,JP7*%
X120100000Y-112219999D02*
X120100000Y-112820001D01*
X120800000Y-113520000D02*
X122200000Y-113520000D01*
X122200000Y-111520000D02*
X120800000Y-111520000D01*
X122900000Y-112820001D02*
X122900000Y-112219999D01*
X120100000Y-112219999D02*
G75*
G02*
X120800000Y-111520000I700000J-1D01*
G01*
X120800000Y-113520000D02*
G75*
G02*
X120100000Y-112820001I0J700000D01*
G01*
X122200000Y-111520000D02*
G75*
G02*
X122900000Y-112219999I1J-699999D01*
G01*
X122900000Y-112820001D02*
G75*
G02*
X122200000Y-113520000I-699999J0D01*
G01*
%TO.C,J4*%
X109600001Y-113220000D02*
X109900001Y-112920000D01*
X109600001Y-113220000D02*
X109900001Y-113520000D01*
X109900001Y-112920000D02*
X109900001Y-113520000D01*
%TO.C,JP2*%
X120100000Y-125219999D02*
X120100000Y-125820001D01*
X120800000Y-126520000D02*
X122200000Y-126520000D01*
X122200000Y-124520000D02*
X120800000Y-124520000D01*
X122900000Y-125820001D02*
X122900000Y-125219999D01*
X120100000Y-125219999D02*
G75*
G02*
X120800000Y-124520000I700000J-1D01*
G01*
X120800000Y-126520000D02*
G75*
G02*
X120100000Y-125820001I0J700000D01*
G01*
X122200000Y-124520000D02*
G75*
G02*
X122900000Y-125219999I1J-699999D01*
G01*
X122900000Y-125820001D02*
G75*
G02*
X122200000Y-126520000I-699999J0D01*
G01*
%TD*%
M02*
