%TF.GenerationSoftware,KiCad,Pcbnew,9.0.4*%
%TF.CreationDate,2025-12-22T14:42:49-05:00*%
%TF.ProjectId,Mess-CharliePlexing,4d657373-2d43-4686-9172-6c6965506c65,rev?*%
%TF.SameCoordinates,Original*%
%TF.FileFunction,Soldermask,Bot*%
%TF.FilePolarity,Negative*%
%FSLAX46Y46*%
G04 Gerber Fmt 4.6, Leading zero omitted, Abs format (unit mm)*
G04 Created by KiCad (PCBNEW 9.0.4) date 2025-12-22 14:42:49*
%MOMM*%
%LPD*%
G01*
G04 APERTURE LIST*
G04 Aperture macros list*
%AMFreePoly0*
4,1,23,0.500000,-0.750000,0.000000,-0.750000,0.000000,-0.745722,-0.065263,-0.745722,-0.191342,-0.711940,-0.304381,-0.646677,-0.396677,-0.554381,-0.461940,-0.441342,-0.495722,-0.315263,-0.495722,-0.250000,-0.500000,-0.250000,-0.500000,0.250000,-0.495722,0.250000,-0.495722,0.315263,-0.461940,0.441342,-0.396677,0.554381,-0.304381,0.646677,-0.191342,0.711940,-0.065263,0.745722,0.000000,0.745722,
0.000000,0.750000,0.500000,0.750000,0.500000,-0.750000,0.500000,-0.750000,$1*%
%AMFreePoly1*
4,1,23,0.000000,0.745722,0.065263,0.745722,0.191342,0.711940,0.304381,0.646677,0.396677,0.554381,0.461940,0.441342,0.495722,0.315263,0.495722,0.250000,0.500000,0.250000,0.500000,-0.250000,0.495722,-0.250000,0.495722,-0.315263,0.461940,-0.441342,0.396677,-0.554381,0.304381,-0.646677,0.191342,-0.711940,0.065263,-0.745722,0.000000,-0.745722,0.000000,-0.750000,-0.500000,-0.750000,
-0.500000,0.750000,0.000000,0.750000,0.000000,0.745722,0.000000,0.745722,$1*%
%AMFreePoly2*
4,1,23,0.450000,-0.550000,-0.100000,-0.550000,-0.100000,-0.547433,-0.139158,-0.547433,-0.214805,-0.527164,-0.282628,-0.488006,-0.338006,-0.432628,-0.377164,-0.364805,-0.397433,-0.289158,-0.397433,-0.250000,-0.400000,-0.250000,-0.400000,0.250000,-0.397433,0.250000,-0.397433,0.289158,-0.377164,0.364805,-0.338006,0.432628,-0.282628,0.488006,-0.214805,0.527164,-0.139158,0.547433,-0.100000,0.547433,
-0.100000,0.550000,0.450000,0.550000,0.450000,-0.550000,0.450000,-0.550000,$1*%
%AMFreePoly3*
4,1,23,0.100000,0.547433,0.139158,0.547433,0.214805,0.527164,0.282628,0.488006,0.338006,0.432628,0.377164,0.364805,0.397433,0.289158,0.397433,0.250000,0.400000,0.250000,0.400000,-0.250000,0.397433,-0.250000,0.397433,-0.289158,0.377164,-0.364805,0.338006,-0.432628,0.282628,-0.488006,0.214805,-0.527164,0.139158,-0.547433,0.100000,-0.547433,0.100000,-0.550000,-0.450000,-0.550000,
-0.450000,0.550000,0.100000,0.550000,0.100000,0.547433,0.100000,0.547433,$1*%
G04 Aperture macros list end*
%ADD10C,0.000000*%
%ADD11R,1.700000X1.700000*%
%ADD12C,1.700000*%
%ADD13FreePoly0,180.000000*%
%ADD14FreePoly1,180.000000*%
%ADD15FreePoly2,270.000000*%
%ADD16R,1.100000X1.000000*%
%ADD17FreePoly3,270.000000*%
%ADD18R,1.500000X1.000000*%
G04 APERTURE END LIST*
D10*
%TO.C,JP1*%
G36*
X121649999Y-128870000D02*
G01*
X121349999Y-128870000D01*
X121349999Y-127370000D01*
X121649999Y-127370000D01*
X121649999Y-128870000D01*
G37*
%TO.C,JP5*%
G36*
X121650000Y-118470000D02*
G01*
X121350000Y-118470000D01*
X121350000Y-116970000D01*
X121650000Y-116970000D01*
X121650000Y-118470000D01*
G37*
%TO.C,J5*%
G36*
X108250000Y-109070000D02*
G01*
X107150000Y-109070000D01*
X107150000Y-107570000D01*
X108250000Y-107570000D01*
X108250000Y-109070000D01*
G37*
%TO.C,JP11*%
G36*
X121650000Y-102899999D02*
G01*
X121350000Y-102899999D01*
X121350000Y-101399999D01*
X121650000Y-101399999D01*
X121650000Y-102899999D01*
G37*
%TO.C,J7*%
G36*
X108250000Y-102070000D02*
G01*
X107150000Y-102070000D01*
X107150000Y-100570000D01*
X108250000Y-100570000D01*
X108250000Y-102070000D01*
G37*
%TO.C,JP20*%
G36*
X103250001Y-83870000D02*
G01*
X101750001Y-83870000D01*
X101750001Y-83570000D01*
X103250001Y-83570000D01*
X103250001Y-83870000D01*
G37*
%TO.C,JP16*%
G36*
X121650000Y-89900000D02*
G01*
X121350000Y-89900000D01*
X121350000Y-88400000D01*
X121650000Y-88400000D01*
X121650000Y-89900000D01*
G37*
%TO.C,JP6*%
G36*
X121650000Y-115870000D02*
G01*
X121350000Y-115870000D01*
X121350000Y-114370000D01*
X121650000Y-114370000D01*
X121650000Y-115870000D01*
G37*
%TO.C,J3*%
G36*
X109250000Y-118470000D02*
G01*
X108150000Y-118470000D01*
X108150000Y-116970000D01*
X109250000Y-116970000D01*
X109250000Y-118470000D01*
G37*
%TO.C,J8*%
G36*
X108250000Y-98670000D02*
G01*
X107150000Y-98670000D01*
X107150000Y-97170000D01*
X108250000Y-97170000D01*
X108250000Y-98670000D01*
G37*
%TO.C,J2*%
G36*
X109250000Y-121870000D02*
G01*
X108150000Y-121870000D01*
X108150000Y-120370000D01*
X109250000Y-120370000D01*
X109250000Y-121870000D01*
G37*
%TO.C,JP14*%
G36*
X121649999Y-95100000D02*
G01*
X121349999Y-95100000D01*
X121349999Y-93600000D01*
X121649999Y-93600000D01*
X121649999Y-95100000D01*
G37*
%TO.C,JP19*%
G36*
X121650000Y-82070000D02*
G01*
X121350000Y-82070000D01*
X121350000Y-80570000D01*
X121650000Y-80570000D01*
X121650000Y-82070000D01*
G37*
%TO.C,JP12*%
G36*
X121650000Y-100300000D02*
G01*
X121350000Y-100300000D01*
X121350000Y-98800000D01*
X121650000Y-98800000D01*
X121650000Y-100300000D01*
G37*
%TO.C,JP9*%
G36*
X121650000Y-108087678D02*
G01*
X121350000Y-108087678D01*
X121350000Y-106587678D01*
X121650000Y-106587678D01*
X121650000Y-108087678D01*
G37*
%TO.C,JP4*%
G36*
X121650000Y-121065006D02*
G01*
X121350000Y-121065006D01*
X121350000Y-119565006D01*
X121650000Y-119565006D01*
X121650000Y-121065006D01*
G37*
%TO.C,JP13*%
G36*
X121650000Y-97700000D02*
G01*
X121350000Y-97700000D01*
X121350000Y-96200000D01*
X121650000Y-96200000D01*
X121650000Y-97700000D01*
G37*
%TO.C,JP3*%
G36*
X121649999Y-123661054D02*
G01*
X121349999Y-123661054D01*
X121349999Y-122161054D01*
X121649999Y-122161054D01*
X121649999Y-123661054D01*
G37*
%TO.C,JP15*%
G36*
X121650000Y-92500000D02*
G01*
X121350000Y-92500000D01*
X121350000Y-91000000D01*
X121650000Y-91000000D01*
X121650000Y-92500000D01*
G37*
%TO.C,JP10*%
G36*
X121650000Y-105500000D02*
G01*
X121350000Y-105500000D01*
X121350000Y-104000000D01*
X121650000Y-104000000D01*
X121650000Y-105500000D01*
G37*
%TO.C,JP8*%
G36*
X121650000Y-110674364D02*
G01*
X121350000Y-110674364D01*
X121350000Y-109174364D01*
X121650000Y-109174364D01*
X121650000Y-110674364D01*
G37*
%TO.C,J12*%
G36*
X116050000Y-124570001D02*
G01*
X114950000Y-124570001D01*
X114950000Y-123070001D01*
X116050000Y-123070001D01*
X116050000Y-124570001D01*
G37*
%TO.C,JP18*%
G36*
X121650000Y-84690000D02*
G01*
X121350000Y-84690000D01*
X121350000Y-83190000D01*
X121650000Y-83190000D01*
X121650000Y-84690000D01*
G37*
%TO.C,J6*%
G36*
X108250000Y-105570001D02*
G01*
X107150000Y-105570001D01*
X107150000Y-104070001D01*
X108250000Y-104070001D01*
X108250000Y-105570001D01*
G37*
%TO.C,JP17*%
G36*
X121650000Y-87300001D02*
G01*
X121350000Y-87300001D01*
X121350000Y-85800001D01*
X121650000Y-85800001D01*
X121650000Y-87300001D01*
G37*
%TO.C,JP7*%
G36*
X121650000Y-113270000D02*
G01*
X121350000Y-113270000D01*
X121350000Y-111770000D01*
X121650000Y-111770000D01*
X121650000Y-113270000D01*
G37*
%TO.C,J4*%
G36*
X109250000Y-115070000D02*
G01*
X108150000Y-115070000D01*
X108150000Y-113570000D01*
X109250000Y-113570000D01*
X109250000Y-115070000D01*
G37*
%TO.C,JP2*%
G36*
X121650000Y-126270000D02*
G01*
X121350000Y-126270000D01*
X121350000Y-124770000D01*
X121650000Y-124770000D01*
X121650000Y-126270000D01*
G37*
%TD*%
D11*
%TO.C,J2*%
X135460000Y-81900000D03*
D12*
X138000000Y-81900000D03*
X135460000Y-84440000D03*
X138000000Y-84440000D03*
X135460000Y-86980000D03*
X138000000Y-86980000D03*
X135460000Y-89520000D03*
X138000000Y-89520000D03*
X135460000Y-92060000D03*
X138000000Y-92060000D03*
X135460000Y-94600000D03*
X138000000Y-94600000D03*
X135460000Y-97140000D03*
X138000000Y-97140000D03*
X135460000Y-99680000D03*
X138000000Y-99680000D03*
X135460000Y-102220000D03*
X138000000Y-102220000D03*
X135460000Y-104760000D03*
X138000000Y-104760000D03*
X135460000Y-107300000D03*
X138000000Y-107300000D03*
X135460000Y-109840000D03*
X138000000Y-109840000D03*
X135460000Y-112380000D03*
X138000000Y-112380000D03*
X135460000Y-114920000D03*
X138000000Y-114920000D03*
X135460000Y-117460000D03*
X138000000Y-117460000D03*
X135460000Y-120000000D03*
X138000000Y-120000000D03*
X135460000Y-122540000D03*
X138000000Y-122540000D03*
X135460000Y-125080000D03*
X138000000Y-125080000D03*
X135460000Y-127620000D03*
X138000000Y-127620000D03*
%TD*%
D11*
%TO.C,J9*%
X131900000Y-127520000D03*
D12*
X131900000Y-124980000D03*
X131900000Y-122440001D03*
X131900000Y-119900000D03*
X131900000Y-117360000D03*
X131900000Y-114820000D03*
X131900000Y-112280000D03*
X131900000Y-109739999D03*
X131900000Y-107200000D03*
X131900000Y-104660000D03*
X131900000Y-102120000D03*
X131900000Y-99580001D03*
X131900000Y-97040000D03*
X131900000Y-94500000D03*
X131900000Y-91960000D03*
X131900000Y-89420001D03*
X131900000Y-86879999D03*
X131900000Y-84340000D03*
X131900000Y-81800000D03*
%TD*%
D11*
%TO.C,J1*%
X129040001Y-127520000D03*
D12*
X126500001Y-127520000D03*
X129040001Y-124980000D03*
X126500001Y-124980000D03*
X129040001Y-122440001D03*
X126500001Y-122440000D03*
X129040001Y-119900000D03*
X126500001Y-119900000D03*
X129040001Y-117360000D03*
X126500001Y-117360000D03*
X129040001Y-114820000D03*
X126500001Y-114820000D03*
X129040001Y-112280000D03*
X126500001Y-112280000D03*
X129040001Y-109739999D03*
X126500001Y-109740000D03*
X129040001Y-107200000D03*
X126500001Y-107200000D03*
X129040001Y-104660000D03*
X126500001Y-104660000D03*
X129040001Y-102120000D03*
X126500001Y-102120000D03*
X129040001Y-99580001D03*
X126500001Y-99580000D03*
X129040001Y-97040000D03*
X126500001Y-97040000D03*
X129040001Y-94500000D03*
X126500001Y-94500000D03*
X129040001Y-91960000D03*
X126500001Y-91960000D03*
X129040001Y-89420001D03*
X126500001Y-89420000D03*
X129040001Y-86879999D03*
X126500001Y-86880000D03*
X129040001Y-84340000D03*
X126500001Y-84340000D03*
X129040001Y-81800000D03*
X126500001Y-81800000D03*
%TD*%
D11*
%TO.C,J1*%
X158300000Y-81900000D03*
D12*
X158300000Y-84440000D03*
X158300000Y-86980000D03*
X158300000Y-89520000D03*
X158300000Y-92060000D03*
X158300000Y-94600000D03*
X158300000Y-97140000D03*
X158300000Y-99680000D03*
X158300000Y-102220000D03*
X158300000Y-104760000D03*
%TD*%
D11*
%TO.C,J3*%
X160000000Y-109820000D03*
D12*
X160000000Y-112360000D03*
X160000000Y-114900000D03*
X160000000Y-117440000D03*
X160000000Y-119980000D03*
X160000000Y-122520000D03*
X160000000Y-125060000D03*
X160000000Y-127600000D03*
%TD*%
D13*
%TO.C,JP1*%
X122149998Y-128120000D03*
D14*
X120850000Y-128120000D03*
%TD*%
D13*
%TO.C,JP5*%
X122149999Y-117720000D03*
D14*
X120850001Y-117720000D03*
%TD*%
D15*
%TO.C,J5*%
X107700000Y-107220001D03*
D16*
X107700000Y-108320000D03*
D17*
X107700000Y-109419999D03*
%TD*%
D13*
%TO.C,JP11*%
X122149999Y-102149999D03*
D14*
X120850001Y-102149999D03*
%TD*%
D15*
%TO.C,J7*%
X107700000Y-100220001D03*
D16*
X107700000Y-101320000D03*
D17*
X107700000Y-102419999D03*
%TD*%
D18*
%TO.C,JP20*%
X102500001Y-83070001D03*
X102500001Y-84369999D03*
%TD*%
D13*
%TO.C,JP16*%
X122149999Y-89150000D03*
D14*
X120850001Y-89150000D03*
%TD*%
D13*
%TO.C,JP6*%
X122149999Y-115120000D03*
D14*
X120850001Y-115120000D03*
%TD*%
D15*
%TO.C,J3*%
X108700000Y-116620001D03*
D16*
X108700000Y-117720000D03*
D17*
X108700000Y-118819999D03*
%TD*%
D15*
%TO.C,J8*%
X107700000Y-96820001D03*
D16*
X107700000Y-97920000D03*
D17*
X107700000Y-99019999D03*
%TD*%
D15*
%TO.C,J2*%
X108700000Y-120020001D03*
D16*
X108700000Y-121120000D03*
D17*
X108700000Y-122219999D03*
%TD*%
D13*
%TO.C,JP14*%
X122149998Y-94350000D03*
D14*
X120850000Y-94350000D03*
%TD*%
D13*
%TO.C,JP19*%
X122149999Y-81320000D03*
D14*
X120850001Y-81320000D03*
%TD*%
D13*
%TO.C,JP12*%
X122149999Y-99550000D03*
D14*
X120850001Y-99550000D03*
%TD*%
D13*
%TO.C,JP9*%
X122149999Y-107337678D03*
D14*
X120850001Y-107337678D03*
%TD*%
D13*
%TO.C,JP4*%
X122149999Y-120315006D03*
D14*
X120850001Y-120315006D03*
%TD*%
D13*
%TO.C,JP13*%
X122149999Y-96950000D03*
D14*
X120850001Y-96950000D03*
%TD*%
D13*
%TO.C,JP3*%
X122149998Y-122911054D03*
D14*
X120850000Y-122911054D03*
%TD*%
D13*
%TO.C,JP15*%
X122149999Y-91750000D03*
D14*
X120850001Y-91750000D03*
%TD*%
D13*
%TO.C,JP10*%
X122149999Y-104750000D03*
D14*
X120850001Y-104750000D03*
%TD*%
D13*
%TO.C,JP8*%
X122149999Y-109924364D03*
D14*
X120850001Y-109924364D03*
%TD*%
D15*
%TO.C,J12*%
X115500000Y-122720002D03*
D16*
X115500000Y-123820001D03*
D17*
X115500000Y-124920000D03*
%TD*%
D13*
%TO.C,JP18*%
X122149999Y-83940000D03*
D14*
X120850001Y-83940000D03*
%TD*%
D15*
%TO.C,J6*%
X107700000Y-103720002D03*
D16*
X107700000Y-104820001D03*
D17*
X107700000Y-105920000D03*
%TD*%
D13*
%TO.C,JP17*%
X122149999Y-86550001D03*
D14*
X120850001Y-86550001D03*
%TD*%
D13*
%TO.C,JP7*%
X122149999Y-112520000D03*
D14*
X120850001Y-112520000D03*
%TD*%
D15*
%TO.C,J4*%
X108700000Y-113220001D03*
D16*
X108700000Y-114320000D03*
D17*
X108700000Y-115419999D03*
%TD*%
D13*
%TO.C,JP2*%
X122149999Y-125520000D03*
D14*
X120850001Y-125520000D03*
%TD*%
M02*
