%TF.GenerationSoftware,KiCad,Pcbnew,9.0.4*%
%TF.CreationDate,2025-12-19T20:32:14-05:00*%
%TF.ProjectId,PowerCircuit,506f7765-7243-4697-9263-7569742e6b69,rev?*%
%TF.SameCoordinates,Original*%
%TF.FileFunction,Paste,Top*%
%TF.FilePolarity,Positive*%
%FSLAX46Y46*%
G04 Gerber Fmt 4.6, Leading zero omitted, Abs format (unit mm)*
G04 Created by KiCad (PCBNEW 9.0.4) date 2025-12-19 20:32:14*
%MOMM*%
%LPD*%
G01*
G04 APERTURE LIST*
G04 Aperture macros list*
%AMRoundRect*
0 Rectangle with rounded corners*
0 $1 Rounding radius*
0 $2 $3 $4 $5 $6 $7 $8 $9 X,Y pos of 4 corners*
0 Add a 4 corners polygon primitive as box body*
4,1,4,$2,$3,$4,$5,$6,$7,$8,$9,$2,$3,0*
0 Add four circle primitives for the rounded corners*
1,1,$1+$1,$2,$3*
1,1,$1+$1,$4,$5*
1,1,$1+$1,$6,$7*
1,1,$1+$1,$8,$9*
0 Add four rect primitives between the rounded corners*
20,1,$1+$1,$2,$3,$4,$5,0*
20,1,$1+$1,$4,$5,$6,$7,0*
20,1,$1+$1,$6,$7,$8,$9,0*
20,1,$1+$1,$8,$9,$2,$3,0*%
G04 Aperture macros list end*
%ADD10RoundRect,0.250000X-0.262500X-0.450000X0.262500X-0.450000X0.262500X0.450000X-0.262500X0.450000X0*%
%ADD11RoundRect,0.150000X-0.512500X-0.150000X0.512500X-0.150000X0.512500X0.150000X-0.512500X0.150000X0*%
%ADD12RoundRect,0.150000X0.587500X0.150000X-0.587500X0.150000X-0.587500X-0.150000X0.587500X-0.150000X0*%
%ADD13RoundRect,0.250000X0.262500X0.450000X-0.262500X0.450000X-0.262500X-0.450000X0.262500X-0.450000X0*%
%ADD14RoundRect,0.150000X-0.150000X0.587500X-0.150000X-0.587500X0.150000X-0.587500X0.150000X0.587500X0*%
%ADD15RoundRect,0.112500X0.112500X-0.187500X0.112500X0.187500X-0.112500X0.187500X-0.112500X-0.187500X0*%
%ADD16RoundRect,0.218750X-0.218750X-0.256250X0.218750X-0.256250X0.218750X0.256250X-0.218750X0.256250X0*%
%ADD17RoundRect,0.150000X-0.587500X-0.150000X0.587500X-0.150000X0.587500X0.150000X-0.587500X0.150000X0*%
%ADD18RoundRect,0.112500X0.187500X0.112500X-0.187500X0.112500X-0.187500X-0.112500X0.187500X-0.112500X0*%
%ADD19RoundRect,0.243750X0.243750X0.456250X-0.243750X0.456250X-0.243750X-0.456250X0.243750X-0.456250X0*%
%ADD20RoundRect,0.100000X-0.225000X-0.100000X0.225000X-0.100000X0.225000X0.100000X-0.225000X0.100000X0*%
%ADD21RoundRect,0.250000X-0.450000X0.262500X-0.450000X-0.262500X0.450000X-0.262500X0.450000X0.262500X0*%
%ADD22RoundRect,0.150000X0.150000X-0.587500X0.150000X0.587500X-0.150000X0.587500X-0.150000X-0.587500X0*%
%ADD23RoundRect,0.225000X-0.225000X-0.375000X0.225000X-0.375000X0.225000X0.375000X-0.225000X0.375000X0*%
%ADD24RoundRect,0.225000X-0.225000X-0.250000X0.225000X-0.250000X0.225000X0.250000X-0.225000X0.250000X0*%
G04 APERTURE END LIST*
D10*
%TO.C,R8*%
X138887500Y-99900000D03*
X140712500Y-99900000D03*
%TD*%
D11*
%TO.C,U19*%
X132862502Y-80499997D03*
X132862502Y-82399995D03*
X135137502Y-81449996D03*
%TD*%
D12*
%TO.C,Q55*%
X105537500Y-96300000D03*
X105537500Y-94400000D03*
X103662499Y-95350000D03*
%TD*%
D13*
%TO.C,R106*%
X116612500Y-108200000D03*
X114787500Y-108200000D03*
%TD*%
%TO.C,R119*%
X106700000Y-131100000D03*
X104875000Y-131100000D03*
%TD*%
D14*
%TO.C,Q32*%
X140750000Y-62381248D03*
X138850000Y-62381248D03*
X139800000Y-64256249D03*
%TD*%
D15*
%TO.C,D15*%
X96777998Y-86224997D03*
X96777998Y-84124997D03*
%TD*%
D16*
%TO.C,D16*%
X134112500Y-67324998D03*
X135687500Y-67324998D03*
%TD*%
D12*
%TO.C,Q59*%
X111037500Y-139850000D03*
X111037500Y-137950000D03*
X109162499Y-138900000D03*
%TD*%
D10*
%TO.C,R115*%
X106275000Y-128300000D03*
X108100000Y-128300000D03*
%TD*%
%TO.C,R29*%
X72887500Y-49524998D03*
X74712500Y-49524998D03*
%TD*%
D13*
%TO.C,R25*%
X73400001Y-56024998D03*
X71575001Y-56024998D03*
%TD*%
%TO.C,R7*%
X135912500Y-103100000D03*
X134087500Y-103100000D03*
%TD*%
D10*
%TO.C,R105*%
X72987500Y-121300000D03*
X74812500Y-121300000D03*
%TD*%
%TO.C,R69*%
X143487500Y-71324998D03*
X145312500Y-71324998D03*
%TD*%
%TO.C,R50*%
X105887500Y-49524998D03*
X107712500Y-49524998D03*
%TD*%
D17*
%TO.C,Q57*%
X114800000Y-123400000D03*
X114800000Y-125300000D03*
X116675001Y-124350000D03*
%TD*%
D10*
%TO.C,R38*%
X81487500Y-89024998D03*
X83312500Y-89024998D03*
%TD*%
D13*
%TO.C,R93*%
X70012500Y-120500000D03*
X68187500Y-120500000D03*
%TD*%
D18*
%TO.C,D29*%
X98450000Y-128300000D03*
X96350000Y-128300000D03*
%TD*%
D10*
%TO.C,R17*%
X147487500Y-139400000D03*
X149312500Y-139400000D03*
%TD*%
D14*
%TO.C,Q9*%
X74750000Y-62381248D03*
X72850000Y-62381248D03*
X73800000Y-64256249D03*
%TD*%
D17*
%TO.C,U8*%
X81762500Y-68274998D03*
X81762500Y-70174998D03*
X83637501Y-69224998D03*
%TD*%
D10*
%TO.C,R21*%
X138987500Y-121300000D03*
X140812500Y-121300000D03*
%TD*%
D19*
%TO.C,D22*%
X73537500Y-117700000D03*
X71662500Y-117700000D03*
%TD*%
D13*
%TO.C,R78*%
X135887503Y-56024998D03*
X134062503Y-56024998D03*
%TD*%
%TO.C,R77*%
X139700000Y-80724998D03*
X137875000Y-80724998D03*
%TD*%
D10*
%TO.C,R95*%
X76987500Y-125200000D03*
X78812500Y-125200000D03*
%TD*%
D17*
%TO.C,Q26*%
X101462500Y-72774998D03*
X101462500Y-74674998D03*
X103337501Y-73724998D03*
%TD*%
D16*
%TO.C,D26*%
X101112500Y-117700000D03*
X102687500Y-117700000D03*
%TD*%
%TO.C,D1*%
X134112500Y-117700000D03*
X135687500Y-117700000D03*
%TD*%
D20*
%TO.C,U9*%
X78650000Y-77674998D03*
X78650000Y-78324998D03*
X78650000Y-78974998D03*
X80550000Y-78974998D03*
X80550000Y-77674998D03*
%TD*%
D15*
%TO.C,D25*%
X63777998Y-136599999D03*
X63777998Y-134499999D03*
%TD*%
D13*
%TO.C,R85*%
X83612500Y-108200000D03*
X81787500Y-108200000D03*
%TD*%
D12*
%TO.C,Q12*%
X138937500Y-135550000D03*
X138937500Y-133650000D03*
X137062499Y-134600000D03*
%TD*%
D13*
%TO.C,R112*%
X102912500Y-103100000D03*
X101087500Y-103100000D03*
%TD*%
%TO.C,R89*%
X76900000Y-106400000D03*
X75075000Y-106400000D03*
%TD*%
D12*
%TO.C,Q35*%
X138537500Y-45924998D03*
X138537500Y-44024998D03*
X136662499Y-44974998D03*
%TD*%
D21*
%TO.C,R18*%
X145400000Y-106987500D03*
X145400000Y-108812500D03*
%TD*%
D10*
%TO.C,R11*%
X142987500Y-125200000D03*
X144812500Y-125200000D03*
%TD*%
D12*
%TO.C,U23*%
X145137500Y-53574998D03*
X145137500Y-51674998D03*
X143262499Y-52624998D03*
%TD*%
D22*
%TO.C,Q44*%
X68149999Y-99974999D03*
X70049999Y-99974999D03*
X69099999Y-98099998D03*
%TD*%
D14*
%TO.C,Q1*%
X144650000Y-116662500D03*
X142750000Y-116662500D03*
X143700000Y-118537501D03*
%TD*%
D13*
%TO.C,R51*%
X103012500Y-70124998D03*
X101187500Y-70124998D03*
%TD*%
D12*
%TO.C,Q50*%
X72937500Y-135550000D03*
X72937500Y-133650000D03*
X71062499Y-134600000D03*
%TD*%
D19*
%TO.C,D2*%
X139537500Y-117700000D03*
X137662500Y-117700000D03*
%TD*%
%TO.C,D7*%
X73537500Y-67324998D03*
X71662500Y-67324998D03*
%TD*%
D17*
%TO.C,Q38*%
X134362500Y-87774998D03*
X134362500Y-89674998D03*
X136237501Y-88724998D03*
%TD*%
D10*
%TO.C,R52*%
X106275000Y-77924998D03*
X108100000Y-77924998D03*
%TD*%
D17*
%TO.C,Q16*%
X68462500Y-72774998D03*
X68462500Y-74674998D03*
X70337501Y-73724998D03*
%TD*%
D10*
%TO.C,R97*%
X63487500Y-139600000D03*
X65312500Y-139600000D03*
%TD*%
D17*
%TO.C,Q18*%
X68362500Y-87774998D03*
X68362500Y-89674998D03*
X70237501Y-88724998D03*
%TD*%
D15*
%TO.C,D20*%
X129777998Y-86224997D03*
X129777998Y-84124997D03*
%TD*%
D10*
%TO.C,R10*%
X139275000Y-128300000D03*
X141100000Y-128300000D03*
%TD*%
D23*
%TO.C,D28*%
X100350000Y-128100000D03*
X103650000Y-128100000D03*
%TD*%
D20*
%TO.C,U27*%
X78650000Y-128050000D03*
X78650000Y-128700000D03*
X78650000Y-129350000D03*
X80550000Y-129350000D03*
X80550000Y-128050000D03*
%TD*%
D23*
%TO.C,D3*%
X133350000Y-128100000D03*
X136650000Y-128100000D03*
%TD*%
D13*
%TO.C,R36*%
X69887503Y-56024998D03*
X68062503Y-56024998D03*
%TD*%
D22*
%TO.C,Q3*%
X134150000Y-111537500D03*
X136050000Y-111537500D03*
X135100000Y-109662499D03*
%TD*%
D14*
%TO.C,Q41*%
X78650000Y-116662500D03*
X76750000Y-116662500D03*
X77700000Y-118537501D03*
%TD*%
D13*
%TO.C,R86*%
X74912499Y-110031250D03*
X73087499Y-110031250D03*
%TD*%
D24*
%TO.C,C16*%
X99850000Y-135400000D03*
X101400000Y-135400000D03*
%TD*%
D10*
%TO.C,R74*%
X142987500Y-74824998D03*
X144812500Y-74824998D03*
%TD*%
D22*
%TO.C,Q33*%
X134150000Y-61162498D03*
X136050000Y-61162498D03*
X135100000Y-59287497D03*
%TD*%
D20*
%TO.C,U15*%
X111650000Y-77674998D03*
X111650000Y-78324998D03*
X111650000Y-78974998D03*
X113550000Y-78974998D03*
X113550000Y-77674998D03*
%TD*%
D13*
%TO.C,R107*%
X107912499Y-110031250D03*
X106087499Y-110031250D03*
%TD*%
D17*
%TO.C,Q46*%
X68462500Y-123150000D03*
X68462500Y-125050000D03*
X70337501Y-124100000D03*
%TD*%
D10*
%TO.C,R80*%
X147487500Y-89024998D03*
X149312500Y-89024998D03*
%TD*%
D13*
%TO.C,R35*%
X73700000Y-80724998D03*
X71875000Y-80724998D03*
%TD*%
D12*
%TO.C,Q40*%
X138937500Y-85174998D03*
X138937500Y-83274998D03*
X137062499Y-84224998D03*
%TD*%
D10*
%TO.C,R125*%
X104574999Y-103100000D03*
X106399999Y-103100000D03*
%TD*%
%TO.C,R90*%
X77487500Y-121700000D03*
X79312500Y-121700000D03*
%TD*%
D17*
%TO.C,Q47*%
X81800000Y-123400000D03*
X81800000Y-125300000D03*
X83675001Y-124350000D03*
%TD*%
%TO.C,Q8*%
X147800000Y-123400000D03*
X147800000Y-125300000D03*
X149675001Y-124350000D03*
%TD*%
D13*
%TO.C,R9*%
X136012500Y-120500000D03*
X134187500Y-120500000D03*
%TD*%
%TO.C,R68*%
X142900000Y-56024998D03*
X141075000Y-56024998D03*
%TD*%
D10*
%TO.C,R54*%
X109487500Y-84724998D03*
X111312500Y-84724998D03*
%TD*%
D12*
%TO.C,Q60*%
X105937500Y-135550000D03*
X105937500Y-133650000D03*
X104062499Y-134600000D03*
%TD*%
%TO.C,Q29*%
X111037500Y-89474998D03*
X111037500Y-87574998D03*
X109162499Y-88524998D03*
%TD*%
D13*
%TO.C,R26*%
X76900000Y-56024998D03*
X75075000Y-56024998D03*
%TD*%
D10*
%TO.C,R32*%
X76987500Y-74824998D03*
X78812500Y-74824998D03*
%TD*%
%TO.C,R83*%
X137574999Y-52724998D03*
X139399999Y-52724998D03*
%TD*%
%TO.C,R108*%
X101175000Y-114700000D03*
X103000000Y-114700000D03*
%TD*%
D14*
%TO.C,Q2*%
X140750000Y-112756250D03*
X138850000Y-112756250D03*
X139800000Y-114631251D03*
%TD*%
D22*
%TO.C,Q13*%
X68150000Y-61162498D03*
X70050000Y-61162498D03*
X69100000Y-59287497D03*
%TD*%
D13*
%TO.C,R43*%
X116612500Y-57824998D03*
X114787500Y-57824998D03*
%TD*%
D18*
%TO.C,D24*%
X65450000Y-128300000D03*
X63350000Y-128300000D03*
%TD*%
D13*
%TO.C,R28*%
X69912500Y-52724998D03*
X68087500Y-52724998D03*
%TD*%
D12*
%TO.C,Q20*%
X72937500Y-85174998D03*
X72937500Y-83274998D03*
X71062499Y-84224998D03*
%TD*%
D13*
%TO.C,R65*%
X140912499Y-59656248D03*
X139087499Y-59656248D03*
%TD*%
D12*
%TO.C,Q49*%
X78037500Y-139850000D03*
X78037500Y-137950000D03*
X76162499Y-138900000D03*
%TD*%
%TO.C,U11*%
X79137500Y-53574998D03*
X79137500Y-51674998D03*
X77262499Y-52624998D03*
%TD*%
D24*
%TO.C,C4*%
X66850000Y-85024998D03*
X68400000Y-85024998D03*
%TD*%
D10*
%TO.C,R73*%
X139275000Y-77924998D03*
X141100000Y-77924998D03*
%TD*%
D14*
%TO.C,Q7*%
X78650000Y-66287498D03*
X76750000Y-66287498D03*
X77700000Y-68162499D03*
%TD*%
D13*
%TO.C,R67*%
X139400001Y-56024998D03*
X137575001Y-56024998D03*
%TD*%
D10*
%TO.C,R75*%
X142487500Y-84724998D03*
X144312500Y-84724998D03*
%TD*%
%TO.C,R27*%
X77487500Y-71324998D03*
X79312500Y-71324998D03*
%TD*%
D13*
%TO.C,R4*%
X139400001Y-106400000D03*
X137575001Y-106400000D03*
%TD*%
D10*
%TO.C,R92*%
X72887500Y-99900000D03*
X74712500Y-99900000D03*
%TD*%
D20*
%TO.C,U33*%
X111650000Y-128050000D03*
X111650000Y-128700000D03*
X111650000Y-129350000D03*
X113550000Y-129350000D03*
X113550000Y-128050000D03*
%TD*%
D23*
%TO.C,D13*%
X100350000Y-77724998D03*
X103650000Y-77724998D03*
%TD*%
D10*
%TO.C,R6*%
X143487500Y-121700000D03*
X145312500Y-121700000D03*
%TD*%
%TO.C,R118*%
X96487500Y-139600000D03*
X98312500Y-139600000D03*
%TD*%
D21*
%TO.C,R60*%
X112400000Y-56612498D03*
X112400000Y-58437498D03*
%TD*%
D23*
%TO.C,D23*%
X67350000Y-128100000D03*
X70650000Y-128100000D03*
%TD*%
D11*
%TO.C,U22*%
X147625000Y-84324998D03*
X147625000Y-85274997D03*
X147625000Y-86224996D03*
X149900000Y-86224996D03*
X149900000Y-84324998D03*
%TD*%
D21*
%TO.C,R102*%
X79400000Y-106987500D03*
X79400000Y-108812500D03*
%TD*%
D11*
%TO.C,U28*%
X81625000Y-134700000D03*
X81625000Y-135649999D03*
X81625000Y-136599998D03*
X83900000Y-136599998D03*
X83900000Y-134700000D03*
%TD*%
D10*
%TO.C,R96*%
X76487500Y-135100000D03*
X78312500Y-135100000D03*
%TD*%
D18*
%TO.C,D9*%
X65450000Y-77924998D03*
X63350000Y-77924998D03*
%TD*%
D12*
%TO.C,Q5*%
X138537500Y-96300000D03*
X138537500Y-94400000D03*
X136662499Y-95350000D03*
%TD*%
D22*
%TO.C,Q14*%
X68149999Y-49599997D03*
X70049999Y-49599997D03*
X69099999Y-47724996D03*
%TD*%
D11*
%TO.C,U16*%
X114625000Y-84324998D03*
X114625000Y-85274997D03*
X114625000Y-86224996D03*
X116900000Y-86224996D03*
X116900000Y-84324998D03*
%TD*%
D10*
%TO.C,R62*%
X104574999Y-52724998D03*
X106399999Y-52724998D03*
%TD*%
%TO.C,R31*%
X73275000Y-77924998D03*
X75100000Y-77924998D03*
%TD*%
%TO.C,R48*%
X110487500Y-71324998D03*
X112312500Y-71324998D03*
%TD*%
D23*
%TO.C,D8*%
X67350000Y-77724998D03*
X70650000Y-77724998D03*
%TD*%
D19*
%TO.C,D17*%
X139537500Y-67324998D03*
X137662500Y-67324998D03*
%TD*%
D16*
%TO.C,D11*%
X101112500Y-67324998D03*
X102687500Y-67324998D03*
%TD*%
D11*
%TO.C,U13*%
X99862502Y-80499997D03*
X99862502Y-82399995D03*
X102137502Y-81449996D03*
%TD*%
D10*
%TO.C,R126*%
X105987500Y-121300000D03*
X107812500Y-121300000D03*
%TD*%
D17*
%TO.C,Q6*%
X134462500Y-123150000D03*
X134462500Y-125050000D03*
X136337501Y-124100000D03*
%TD*%
D10*
%TO.C,R34*%
X63487500Y-89224998D03*
X65312500Y-89224998D03*
%TD*%
D18*
%TO.C,D19*%
X131450000Y-77924998D03*
X129350000Y-77924998D03*
%TD*%
D13*
%TO.C,R49*%
X102912500Y-52724998D03*
X101087500Y-52724998D03*
%TD*%
D24*
%TO.C,C1*%
X132850000Y-135400000D03*
X134400000Y-135400000D03*
%TD*%
D10*
%TO.C,R101*%
X81487500Y-139400000D03*
X83312500Y-139400000D03*
%TD*%
D22*
%TO.C,Q34*%
X134149999Y-49599997D03*
X136049999Y-49599997D03*
X135099999Y-47724996D03*
%TD*%
D12*
%TO.C,U35*%
X112137500Y-103950000D03*
X112137500Y-102050000D03*
X110262499Y-103000000D03*
%TD*%
D10*
%TO.C,R94*%
X73275000Y-128300000D03*
X75100000Y-128300000D03*
%TD*%
D13*
%TO.C,R120*%
X102887503Y-106400000D03*
X101062503Y-106400000D03*
%TD*%
D11*
%TO.C,U4*%
X147625000Y-134700000D03*
X147625000Y-135649999D03*
X147625000Y-136599998D03*
X149900000Y-136599998D03*
X149900000Y-134700000D03*
%TD*%
D13*
%TO.C,R1*%
X149612500Y-108200000D03*
X147787500Y-108200000D03*
%TD*%
%TO.C,R91*%
X69912500Y-103100000D03*
X68087500Y-103100000D03*
%TD*%
D12*
%TO.C,U29*%
X79137500Y-103950000D03*
X79137500Y-102050000D03*
X77262499Y-103000000D03*
%TD*%
D13*
%TO.C,R47*%
X109900000Y-56024998D03*
X108075000Y-56024998D03*
%TD*%
D11*
%TO.C,U34*%
X114625000Y-134700000D03*
X114625000Y-135649999D03*
X114625000Y-136599998D03*
X116900000Y-136599998D03*
X116900000Y-134700000D03*
%TD*%
D10*
%TO.C,R41*%
X71574999Y-52724998D03*
X73399999Y-52724998D03*
%TD*%
D16*
%TO.C,D6*%
X68112500Y-67324998D03*
X69687500Y-67324998D03*
%TD*%
D23*
%TO.C,D18*%
X133350000Y-77724998D03*
X136650000Y-77724998D03*
%TD*%
D10*
%TO.C,R66*%
X134175000Y-64324998D03*
X136000000Y-64324998D03*
%TD*%
D13*
%TO.C,R23*%
X74912499Y-59656248D03*
X73087499Y-59656248D03*
%TD*%
D10*
%TO.C,R20*%
X137574999Y-103100000D03*
X139399999Y-103100000D03*
%TD*%
D21*
%TO.C,R123*%
X112400000Y-106987500D03*
X112400000Y-108812500D03*
%TD*%
D22*
%TO.C,Q4*%
X134149999Y-99974999D03*
X136049999Y-99974999D03*
X135099999Y-98099998D03*
%TD*%
D13*
%TO.C,R114*%
X103012500Y-120500000D03*
X101187500Y-120500000D03*
%TD*%
D10*
%TO.C,R76*%
X129487500Y-89224998D03*
X131312500Y-89224998D03*
%TD*%
%TO.C,R111*%
X110487500Y-121700000D03*
X112312500Y-121700000D03*
%TD*%
D12*
%TO.C,Q15*%
X72537500Y-45924998D03*
X72537500Y-44024998D03*
X70662499Y-44974998D03*
%TD*%
D17*
%TO.C,U14*%
X114762500Y-68274998D03*
X114762500Y-70174998D03*
X116637501Y-69224998D03*
%TD*%
D10*
%TO.C,R24*%
X68175000Y-64324998D03*
X70000000Y-64324998D03*
%TD*%
D18*
%TO.C,D14*%
X98450000Y-77924998D03*
X96350000Y-77924998D03*
%TD*%
D10*
%TO.C,R113*%
X105887500Y-99900000D03*
X107712500Y-99900000D03*
%TD*%
%TO.C,R42*%
X72987500Y-70924998D03*
X74812500Y-70924998D03*
%TD*%
D20*
%TO.C,U3*%
X144650000Y-128050000D03*
X144650000Y-128700000D03*
X144650000Y-129350000D03*
X146550000Y-129350000D03*
X146550000Y-128050000D03*
%TD*%
D13*
%TO.C,R56*%
X106700000Y-80724998D03*
X104875000Y-80724998D03*
%TD*%
D10*
%TO.C,R87*%
X68175000Y-114700000D03*
X70000000Y-114700000D03*
%TD*%
%TO.C,R55*%
X96487500Y-89224998D03*
X98312500Y-89224998D03*
%TD*%
%TO.C,R71*%
X138887500Y-49524998D03*
X140712500Y-49524998D03*
%TD*%
%TO.C,R45*%
X101175000Y-64324998D03*
X103000000Y-64324998D03*
%TD*%
D22*
%TO.C,Q53*%
X101150000Y-111537500D03*
X103050000Y-111537500D03*
X102100000Y-109662499D03*
%TD*%
D17*
%TO.C,U20*%
X147762500Y-68274998D03*
X147762500Y-70174998D03*
X149637501Y-69224998D03*
%TD*%
%TO.C,Q56*%
X101462500Y-123150000D03*
X101462500Y-125050000D03*
X103337501Y-124100000D03*
%TD*%
D12*
%TO.C,Q19*%
X78037500Y-89474998D03*
X78037500Y-87574998D03*
X76162499Y-88524998D03*
%TD*%
D15*
%TO.C,D10*%
X63777998Y-86224997D03*
X63777998Y-84124997D03*
%TD*%
D10*
%TO.C,R63*%
X105987500Y-70924998D03*
X107812500Y-70924998D03*
%TD*%
D17*
%TO.C,Q28*%
X101362500Y-87774998D03*
X101362500Y-89674998D03*
X103237501Y-88724998D03*
%TD*%
D24*
%TO.C,C7*%
X99850000Y-85024998D03*
X101400000Y-85024998D03*
%TD*%
D10*
%TO.C,R117*%
X109487500Y-135100000D03*
X111312500Y-135100000D03*
%TD*%
D17*
%TO.C,Q36*%
X134462500Y-72774998D03*
X134462500Y-74674998D03*
X136337501Y-73724998D03*
%TD*%
D10*
%TO.C,R3*%
X134175000Y-114700000D03*
X136000000Y-114700000D03*
%TD*%
%TO.C,R59*%
X114487500Y-89024998D03*
X116312500Y-89024998D03*
%TD*%
D17*
%TO.C,Q17*%
X81800000Y-73024998D03*
X81800000Y-74924998D03*
X83675001Y-73974998D03*
%TD*%
D10*
%TO.C,R84*%
X138987500Y-70924998D03*
X140812500Y-70924998D03*
%TD*%
D17*
%TO.C,Q37*%
X147800000Y-73024998D03*
X147800000Y-74924998D03*
X149675001Y-73974998D03*
%TD*%
D22*
%TO.C,Q23*%
X101150000Y-61162498D03*
X103050000Y-61162498D03*
X102100000Y-59287497D03*
%TD*%
D17*
%TO.C,U26*%
X81762500Y-118650000D03*
X81762500Y-120550000D03*
X83637501Y-119600000D03*
%TD*%
D12*
%TO.C,Q30*%
X105937500Y-85174998D03*
X105937500Y-83274998D03*
X104062499Y-84224998D03*
%TD*%
D11*
%TO.C,U1*%
X132862502Y-130874999D03*
X132862502Y-132774997D03*
X135137502Y-131824998D03*
%TD*%
D24*
%TO.C,C13*%
X66850000Y-135400000D03*
X68400000Y-135400000D03*
%TD*%
D12*
%TO.C,Q45*%
X72537500Y-96300000D03*
X72537500Y-94400000D03*
X70662499Y-95350000D03*
%TD*%
D16*
%TO.C,D21*%
X68112500Y-117700000D03*
X69687500Y-117700000D03*
%TD*%
D17*
%TO.C,Q10*%
X134362500Y-138150000D03*
X134362500Y-140050000D03*
X136237501Y-139100000D03*
%TD*%
D13*
%TO.C,R44*%
X107912499Y-59656248D03*
X106087499Y-59656248D03*
%TD*%
D11*
%TO.C,U25*%
X66862502Y-130874999D03*
X66862502Y-132774997D03*
X69137502Y-131824998D03*
%TD*%
D10*
%TO.C,R33*%
X76487500Y-84724998D03*
X78312500Y-84724998D03*
%TD*%
D13*
%TO.C,R88*%
X73400001Y-106400000D03*
X71575001Y-106400000D03*
%TD*%
D19*
%TO.C,D12*%
X106537500Y-67324998D03*
X104662500Y-67324998D03*
%TD*%
D17*
%TO.C,Q58*%
X101362500Y-138150000D03*
X101362500Y-140050000D03*
X103237501Y-139100000D03*
%TD*%
D13*
%TO.C,R15*%
X135887503Y-106400000D03*
X134062503Y-106400000D03*
%TD*%
D22*
%TO.C,Q24*%
X101149999Y-49599997D03*
X103049999Y-49599997D03*
X102099999Y-47724996D03*
%TD*%
D17*
%TO.C,Q27*%
X114800000Y-73024998D03*
X114800000Y-74924998D03*
X116675001Y-73974998D03*
%TD*%
D10*
%TO.C,R104*%
X71574999Y-103100000D03*
X73399999Y-103100000D03*
%TD*%
D17*
%TO.C,Q48*%
X68362500Y-138150000D03*
X68362500Y-140050000D03*
X70237501Y-139100000D03*
%TD*%
D14*
%TO.C,Q52*%
X107750000Y-112756250D03*
X105850000Y-112756250D03*
X106800000Y-114631251D03*
%TD*%
D11*
%TO.C,U10*%
X81625000Y-84324998D03*
X81625000Y-85274997D03*
X81625000Y-86224996D03*
X83900000Y-86224996D03*
X83900000Y-84324998D03*
%TD*%
D21*
%TO.C,R81*%
X145400000Y-56612498D03*
X145400000Y-58437498D03*
%TD*%
D13*
%TO.C,R57*%
X102887503Y-56024998D03*
X101062503Y-56024998D03*
%TD*%
D12*
%TO.C,Q39*%
X144037500Y-89474998D03*
X144037500Y-87574998D03*
X142162499Y-88524998D03*
%TD*%
D17*
%TO.C,U2*%
X147762500Y-118650000D03*
X147762500Y-120550000D03*
X149637501Y-119600000D03*
%TD*%
D11*
%TO.C,U31*%
X99862502Y-130874999D03*
X99862502Y-132774997D03*
X102137502Y-131824998D03*
%TD*%
D13*
%TO.C,R109*%
X106400001Y-106400000D03*
X104575001Y-106400000D03*
%TD*%
D10*
%TO.C,R122*%
X114487500Y-139400000D03*
X116312500Y-139400000D03*
%TD*%
D13*
%TO.C,R110*%
X109900000Y-106400000D03*
X108075000Y-106400000D03*
%TD*%
%TO.C,R2*%
X140912499Y-110031250D03*
X139087499Y-110031250D03*
%TD*%
D10*
%TO.C,R13*%
X129487500Y-139600000D03*
X131312500Y-139600000D03*
%TD*%
D13*
%TO.C,R98*%
X73700000Y-131100000D03*
X71875000Y-131100000D03*
%TD*%
D14*
%TO.C,Q42*%
X74750000Y-112756250D03*
X72850000Y-112756250D03*
X73800000Y-114631251D03*
%TD*%
D10*
%TO.C,R12*%
X142487500Y-135100000D03*
X144312500Y-135100000D03*
%TD*%
D15*
%TO.C,D5*%
X129777998Y-136599999D03*
X129777998Y-134499999D03*
%TD*%
D13*
%TO.C,R99*%
X69887503Y-106400000D03*
X68062503Y-106400000D03*
%TD*%
%TO.C,R22*%
X83612500Y-57824998D03*
X81787500Y-57824998D03*
%TD*%
D14*
%TO.C,Q22*%
X107750000Y-62381248D03*
X105850000Y-62381248D03*
X106800000Y-64256249D03*
%TD*%
D13*
%TO.C,R5*%
X142900000Y-106400000D03*
X141075000Y-106400000D03*
%TD*%
D19*
%TO.C,D27*%
X106537500Y-117700000D03*
X104662500Y-117700000D03*
%TD*%
D13*
%TO.C,R46*%
X106400001Y-56024998D03*
X104575001Y-56024998D03*
%TD*%
D17*
%TO.C,U32*%
X114762500Y-118650000D03*
X114762500Y-120550000D03*
X116637501Y-119600000D03*
%TD*%
D13*
%TO.C,R14*%
X139700000Y-131100000D03*
X137875000Y-131100000D03*
%TD*%
D12*
%TO.C,U5*%
X145137500Y-103950000D03*
X145137500Y-102050000D03*
X143262499Y-103000000D03*
%TD*%
%TO.C,Q11*%
X144037500Y-139850000D03*
X144037500Y-137950000D03*
X142162499Y-138900000D03*
%TD*%
D15*
%TO.C,D30*%
X96777998Y-136599999D03*
X96777998Y-134499999D03*
%TD*%
D10*
%TO.C,R116*%
X109987500Y-125200000D03*
X111812500Y-125200000D03*
%TD*%
D14*
%TO.C,Q51*%
X111650000Y-116662500D03*
X109750000Y-116662500D03*
X110700000Y-118537501D03*
%TD*%
D21*
%TO.C,R39*%
X79400000Y-56612498D03*
X79400000Y-58437498D03*
%TD*%
D12*
%TO.C,Q25*%
X105537500Y-45924998D03*
X105537500Y-44024998D03*
X103662499Y-44974998D03*
%TD*%
D22*
%TO.C,Q54*%
X101149999Y-99974999D03*
X103049999Y-99974999D03*
X102099999Y-98099998D03*
%TD*%
D12*
%TO.C,U17*%
X112137500Y-53574998D03*
X112137500Y-51674998D03*
X110262499Y-52624998D03*
%TD*%
D20*
%TO.C,U21*%
X144650000Y-77674998D03*
X144650000Y-78324998D03*
X144650000Y-78974998D03*
X146550000Y-78974998D03*
X146550000Y-77674998D03*
%TD*%
D18*
%TO.C,D4*%
X131450000Y-128300000D03*
X129350000Y-128300000D03*
%TD*%
D13*
%TO.C,R72*%
X136012500Y-70124998D03*
X134187500Y-70124998D03*
%TD*%
D24*
%TO.C,C10*%
X132850000Y-85024998D03*
X134400000Y-85024998D03*
%TD*%
D11*
%TO.C,U7*%
X66862502Y-80499997D03*
X66862502Y-82399995D03*
X69137502Y-81449996D03*
%TD*%
D14*
%TO.C,Q31*%
X144650000Y-66287498D03*
X142750000Y-66287498D03*
X143700000Y-68162499D03*
%TD*%
D13*
%TO.C,R70*%
X135912500Y-52724998D03*
X134087500Y-52724998D03*
%TD*%
%TO.C,R64*%
X149612500Y-57824998D03*
X147787500Y-57824998D03*
%TD*%
D14*
%TO.C,Q21*%
X111650000Y-66287498D03*
X109750000Y-66287498D03*
X110700000Y-68162499D03*
%TD*%
D22*
%TO.C,Q43*%
X68150000Y-111537500D03*
X70050000Y-111537500D03*
X69100000Y-109662499D03*
%TD*%
D10*
%TO.C,R53*%
X109987500Y-74824998D03*
X111812500Y-74824998D03*
%TD*%
D13*
%TO.C,R30*%
X70012500Y-70124998D03*
X68187500Y-70124998D03*
%TD*%
M02*
