%TF.GenerationSoftware,KiCad,Pcbnew,9.0.4*%
%TF.CreationDate,2025-12-19T20:32:14-05:00*%
%TF.ProjectId,PowerCircuit,506f7765-7243-4697-9263-7569742e6b69,rev?*%
%TF.SameCoordinates,Original*%
%TF.FileFunction,Paste,Bot*%
%TF.FilePolarity,Positive*%
%FSLAX46Y46*%
G04 Gerber Fmt 4.6, Leading zero omitted, Abs format (unit mm)*
G04 Created by KiCad (PCBNEW 9.0.4) date 2025-12-19 20:32:14*
%MOMM*%
%LPD*%
G01*
G04 APERTURE LIST*
G04 Aperture macros list*
%AMRoundRect*
0 Rectangle with rounded corners*
0 $1 Rounding radius*
0 $2 $3 $4 $5 $6 $7 $8 $9 X,Y pos of 4 corners*
0 Add a 4 corners polygon primitive as box body*
4,1,4,$2,$3,$4,$5,$6,$7,$8,$9,$2,$3,0*
0 Add four circle primitives for the rounded corners*
1,1,$1+$1,$2,$3*
1,1,$1+$1,$4,$5*
1,1,$1+$1,$6,$7*
1,1,$1+$1,$8,$9*
0 Add four rect primitives between the rounded corners*
20,1,$1+$1,$2,$3,$4,$5,0*
20,1,$1+$1,$4,$5,$6,$7,0*
20,1,$1+$1,$6,$7,$8,$9,0*
20,1,$1+$1,$8,$9,$2,$3,0*%
G04 Aperture macros list end*
%ADD10RoundRect,0.225000X-0.250000X0.225000X-0.250000X-0.225000X0.250000X-0.225000X0.250000X0.225000X0*%
%ADD11RoundRect,0.250000X0.262500X0.450000X-0.262500X0.450000X-0.262500X-0.450000X0.262500X-0.450000X0*%
%ADD12R,2.700000X1.000000*%
%ADD13RoundRect,0.250000X-0.262500X-0.450000X0.262500X-0.450000X0.262500X0.450000X-0.262500X0.450000X0*%
%ADD14RoundRect,0.087500X0.087500X-0.250000X0.087500X0.250000X-0.087500X0.250000X-0.087500X-0.250000X0*%
%ADD15RoundRect,0.225000X0.225000X0.250000X-0.225000X0.250000X-0.225000X-0.250000X0.225000X-0.250000X0*%
G04 APERTURE END LIST*
D10*
%TO.C,C14*%
X72300000Y-121325000D03*
X72300000Y-122875000D03*
%TD*%
D11*
%TO.C,R40*%
X77712500Y-67824998D03*
X75887500Y-67824998D03*
%TD*%
D10*
%TO.C,C8*%
X105300000Y-70949998D03*
X105300000Y-72499998D03*
%TD*%
D12*
%TO.C,L4*%
X145100000Y-72824997D03*
X145100000Y-70624999D03*
%TD*%
D13*
%TO.C,R58*%
X105375000Y-67824998D03*
X107200000Y-67824998D03*
%TD*%
D10*
%TO.C,C2*%
X138300000Y-121325000D03*
X138300000Y-122875000D03*
%TD*%
D14*
%TO.C,U36*%
X108500000Y-122800000D03*
X108000000Y-122800001D03*
X107500000Y-122800000D03*
X107500000Y-121375000D03*
X108000000Y-121374999D03*
X108500000Y-121375000D03*
%TD*%
D12*
%TO.C,L6*%
X112100000Y-123199999D03*
X112100000Y-121000001D03*
%TD*%
D14*
%TO.C,U12*%
X75500000Y-72424998D03*
X75000000Y-72424999D03*
X74500000Y-72424998D03*
X74500000Y-70999998D03*
X75000000Y-70999997D03*
X75500000Y-70999998D03*
%TD*%
D10*
%TO.C,C11*%
X138300000Y-70949998D03*
X138300000Y-72499998D03*
%TD*%
D11*
%TO.C,R82*%
X143712500Y-67824998D03*
X141887500Y-67824998D03*
%TD*%
D15*
%TO.C,C12*%
X146875000Y-67824998D03*
X145325000Y-67824998D03*
%TD*%
D13*
%TO.C,R79*%
X138375000Y-67824998D03*
X140200000Y-67824998D03*
%TD*%
D12*
%TO.C,L1*%
X145100000Y-123199999D03*
X145100000Y-121000001D03*
%TD*%
D14*
%TO.C,U30*%
X75500000Y-122800000D03*
X75000000Y-122800001D03*
X74500000Y-122800000D03*
X74500000Y-121375000D03*
X75000000Y-121374999D03*
X75500000Y-121375000D03*
%TD*%
%TO.C,U6*%
X141500000Y-122800000D03*
X141000000Y-122800001D03*
X140500000Y-122800000D03*
X140500000Y-121375000D03*
X141000000Y-121374999D03*
X141500000Y-121375000D03*
%TD*%
D10*
%TO.C,C5*%
X72300000Y-70949998D03*
X72300000Y-72499998D03*
%TD*%
D11*
%TO.C,R103*%
X77712500Y-118200000D03*
X75887500Y-118200000D03*
%TD*%
D12*
%TO.C,L3*%
X112100000Y-72824997D03*
X112100000Y-70624999D03*
%TD*%
D15*
%TO.C,C18*%
X113875000Y-118200000D03*
X112325000Y-118200000D03*
%TD*%
D13*
%TO.C,R100*%
X72375000Y-118200000D03*
X74200000Y-118200000D03*
%TD*%
D15*
%TO.C,C6*%
X80875000Y-67824998D03*
X79325000Y-67824998D03*
%TD*%
%TO.C,C3*%
X146875000Y-118200000D03*
X145325000Y-118200000D03*
%TD*%
%TO.C,C15*%
X80875000Y-118200000D03*
X79325000Y-118200000D03*
%TD*%
D10*
%TO.C,C17*%
X105300000Y-121325000D03*
X105300000Y-122875000D03*
%TD*%
D11*
%TO.C,R124*%
X110712500Y-118200000D03*
X108887500Y-118200000D03*
%TD*%
D13*
%TO.C,R121*%
X105375000Y-118200000D03*
X107200000Y-118200000D03*
%TD*%
D11*
%TO.C,R61*%
X110712500Y-67824998D03*
X108887500Y-67824998D03*
%TD*%
D13*
%TO.C,R16*%
X138375000Y-118200000D03*
X140200000Y-118200000D03*
%TD*%
D11*
%TO.C,R19*%
X143712500Y-118200000D03*
X141887500Y-118200000D03*
%TD*%
D14*
%TO.C,U18*%
X108500000Y-72424998D03*
X108000000Y-72424999D03*
X107500000Y-72424998D03*
X107500000Y-70999998D03*
X108000000Y-70999997D03*
X108500000Y-70999998D03*
%TD*%
D15*
%TO.C,C9*%
X113875000Y-67824998D03*
X112325000Y-67824998D03*
%TD*%
D14*
%TO.C,U24*%
X141500000Y-72424998D03*
X141000000Y-72424999D03*
X140500000Y-72424998D03*
X140500000Y-70999998D03*
X141000000Y-70999997D03*
X141500000Y-70999998D03*
%TD*%
D13*
%TO.C,R37*%
X72375000Y-67824998D03*
X74200000Y-67824998D03*
%TD*%
D12*
%TO.C,L2*%
X79100000Y-72824997D03*
X79100000Y-70624999D03*
%TD*%
%TO.C,L5*%
X79100000Y-123199999D03*
X79100000Y-121000001D03*
%TD*%
M02*
