%TF.GenerationSoftware,KiCad,Pcbnew,9.0.4*%
%TF.CreationDate,2025-12-19T20:32:14-05:00*%
%TF.ProjectId,PowerCircuit,506f7765-7243-4697-9263-7569742e6b69,rev?*%
%TF.SameCoordinates,Original*%
%TF.FileFunction,Soldermask,Bot*%
%TF.FilePolarity,Negative*%
%FSLAX46Y46*%
G04 Gerber Fmt 4.6, Leading zero omitted, Abs format (unit mm)*
G04 Created by KiCad (PCBNEW 9.0.4) date 2025-12-19 20:32:14*
%MOMM*%
%LPD*%
G01*
G04 APERTURE LIST*
G04 Aperture macros list*
%AMRoundRect*
0 Rectangle with rounded corners*
0 $1 Rounding radius*
0 $2 $3 $4 $5 $6 $7 $8 $9 X,Y pos of 4 corners*
0 Add a 4 corners polygon primitive as box body*
4,1,4,$2,$3,$4,$5,$6,$7,$8,$9,$2,$3,0*
0 Add four circle primitives for the rounded corners*
1,1,$1+$1,$2,$3*
1,1,$1+$1,$4,$5*
1,1,$1+$1,$6,$7*
1,1,$1+$1,$8,$9*
0 Add four rect primitives between the rounded corners*
20,1,$1+$1,$2,$3,$4,$5,0*
20,1,$1+$1,$4,$5,$6,$7,0*
20,1,$1+$1,$6,$7,$8,$9,0*
20,1,$1+$1,$8,$9,$2,$3,0*%
%AMFreePoly0*
4,1,6,0.825000,0.000000,0.525000,-0.450000,-0.500000,-0.450000,-0.500000,0.450000,0.525000,0.450000,0.825000,0.000000,0.825000,0.000000,$1*%
%AMFreePoly1*
4,1,6,0.500000,-0.450000,-0.625000,-0.450000,-0.325000,0.000000,-0.625000,0.450000,0.500000,0.450000,0.500000,-0.450000,0.500000,-0.450000,$1*%
G04 Aperture macros list end*
%ADD10C,0.000000*%
%ADD11R,0.850000X0.850000*%
%ADD12C,0.850000*%
%ADD13R,1.700000X1.700000*%
%ADD14C,1.700000*%
%ADD15RoundRect,0.225000X-0.250000X0.225000X-0.250000X-0.225000X0.250000X-0.225000X0.250000X0.225000X0*%
%ADD16FreePoly0,0.000000*%
%ADD17FreePoly1,0.000000*%
%ADD18RoundRect,0.250000X0.262500X0.450000X-0.262500X0.450000X-0.262500X-0.450000X0.262500X-0.450000X0*%
%ADD19R,2.700000X1.000000*%
%ADD20RoundRect,0.250000X-0.262500X-0.450000X0.262500X-0.450000X0.262500X0.450000X-0.262500X0.450000X0*%
%ADD21RoundRect,0.087500X0.087500X-0.250000X0.087500X0.250000X-0.087500X0.250000X-0.087500X-0.250000X0*%
%ADD22RoundRect,0.225000X0.225000X0.250000X-0.225000X0.250000X-0.225000X-0.250000X0.225000X-0.250000X0*%
G04 APERTURE END LIST*
D10*
%TO.C,J17*%
G36*
X140925000Y-136350000D02*
G01*
X138475000Y-136350000D01*
X138475000Y-135450000D01*
X140925000Y-135450000D01*
X140925000Y-136350000D01*
G37*
%TO.C,J32*%
G36*
X82175000Y-79012498D02*
G01*
X79725000Y-79012498D01*
X79725000Y-78112498D01*
X82175000Y-78112498D01*
X82175000Y-79012498D01*
G37*
%TO.C,J89*%
G36*
X82175000Y-129387500D02*
G01*
X79725000Y-129387500D01*
X79725000Y-128487500D01*
X82175000Y-128487500D01*
X82175000Y-129387500D01*
G37*
%TO.C,J52*%
G36*
X115174999Y-76724997D02*
G01*
X112724999Y-76724997D01*
X112724999Y-75824997D01*
X115174999Y-75824997D01*
X115174999Y-76724997D01*
G37*
%TO.C,J109*%
G36*
X115174999Y-127099999D02*
G01*
X112724999Y-127099999D01*
X112724999Y-126199999D01*
X115174999Y-126199999D01*
X115174999Y-127099999D01*
G37*
%TO.C,J51*%
G36*
X115175000Y-79012498D02*
G01*
X112725000Y-79012498D01*
X112725000Y-78112498D01*
X115175000Y-78112498D01*
X115175000Y-79012498D01*
G37*
%TO.C,J112*%
G36*
X107925000Y-136350000D02*
G01*
X105475000Y-136350000D01*
X105475000Y-135450000D01*
X107925000Y-135450000D01*
X107925000Y-136350000D01*
G37*
%TO.C,J90*%
G36*
X82174999Y-127099999D02*
G01*
X79724999Y-127099999D01*
X79724999Y-126199999D01*
X82174999Y-126199999D01*
X82174999Y-127099999D01*
G37*
%TO.C,J55*%
G36*
X107925000Y-85974998D02*
G01*
X105475000Y-85974998D01*
X105475000Y-85074998D01*
X107925000Y-85074998D01*
X107925000Y-85974998D01*
G37*
%TO.C,J14*%
G36*
X148174999Y-127099999D02*
G01*
X145724999Y-127099999D01*
X145724999Y-126199999D01*
X148174999Y-126199999D01*
X148174999Y-127099999D01*
G37*
%TO.C,J13*%
G36*
X148175000Y-129387500D02*
G01*
X145725000Y-129387500D01*
X145725000Y-128487500D01*
X148175000Y-128487500D01*
X148175000Y-129387500D01*
G37*
%TO.C,J74*%
G36*
X140925000Y-85974998D02*
G01*
X138475000Y-85974998D01*
X138475000Y-85074998D01*
X140925000Y-85074998D01*
X140925000Y-85974998D01*
G37*
%TO.C,J36*%
G36*
X74925000Y-85974998D02*
G01*
X72475000Y-85974998D01*
X72475000Y-85074998D01*
X74925000Y-85074998D01*
X74925000Y-85974998D01*
G37*
%TO.C,J71*%
G36*
X148174999Y-76724997D02*
G01*
X145724999Y-76724997D01*
X145724999Y-75824997D01*
X148174999Y-75824997D01*
X148174999Y-76724997D01*
G37*
%TO.C,J93*%
G36*
X74925000Y-136350000D02*
G01*
X72475000Y-136350000D01*
X72475000Y-135450000D01*
X74925000Y-135450000D01*
X74925000Y-136350000D01*
G37*
%TO.C,J108*%
G36*
X115175000Y-129387500D02*
G01*
X112725000Y-129387500D01*
X112725000Y-128487500D01*
X115175000Y-128487500D01*
X115175000Y-129387500D01*
G37*
%TO.C,J33*%
G36*
X82174999Y-76724997D02*
G01*
X79724999Y-76724997D01*
X79724999Y-75824997D01*
X82174999Y-75824997D01*
X82174999Y-76724997D01*
G37*
%TO.C,J70*%
G36*
X148175000Y-79012498D02*
G01*
X145725000Y-79012498D01*
X145725000Y-78112498D01*
X148175000Y-78112498D01*
X148175000Y-79012498D01*
G37*
%TD*%
D11*
%TO.C,J84*%
X83000000Y-110800000D03*
D12*
X83000000Y-111800000D03*
%TD*%
D11*
%TO.C,TP26*%
X110000000Y-109100000D03*
%TD*%
D13*
%TO.C,J45*%
X116200000Y-46324998D03*
D14*
X116200000Y-48864998D03*
X116200000Y-51404997D03*
X116200000Y-53944998D03*
%TD*%
D13*
%TO.C,J75*%
X145100000Y-46324998D03*
%TD*%
D11*
%TO.C,J103*%
X116000000Y-110800000D03*
D12*
X116000000Y-111800000D03*
%TD*%
D13*
%TO.C,J38*%
X87900000Y-45344998D03*
D14*
X87900000Y-47884998D03*
X87900000Y-50424998D03*
X87900000Y-52964998D03*
X87900000Y-55504998D03*
X87900000Y-58044998D03*
X87900000Y-60584998D03*
X87900000Y-63124998D03*
X87900000Y-65664998D03*
X87900000Y-68204998D03*
X87900000Y-70744998D03*
X87900000Y-73284998D03*
X87900000Y-75824998D03*
X87900000Y-78364998D03*
X87900000Y-80904998D03*
X87900000Y-83444998D03*
X87900000Y-85984998D03*
X87900000Y-88524998D03*
%TD*%
D13*
%TO.C,J107*%
X124500000Y-95720000D03*
D14*
X124500000Y-98260000D03*
X124500000Y-100800000D03*
X124500000Y-103340000D03*
X124500000Y-105880000D03*
X124500000Y-108420000D03*
X124500000Y-110960000D03*
X124500000Y-113500000D03*
X124500000Y-116040000D03*
X124500000Y-118580000D03*
X124500000Y-121120000D03*
X124500000Y-123660000D03*
X124500000Y-126200000D03*
X124500000Y-128740000D03*
X124500000Y-131280000D03*
X124500000Y-133820000D03*
X124500000Y-136360000D03*
X124500000Y-138900000D03*
%TD*%
D13*
%TO.C,J31*%
X91500000Y-45344998D03*
D14*
X91500000Y-47884998D03*
X91500000Y-50424998D03*
X91500000Y-52964998D03*
X91500000Y-55504998D03*
X91500000Y-58044998D03*
X91500000Y-60584998D03*
X91500000Y-63124998D03*
X91500000Y-65664998D03*
X91500000Y-68204998D03*
X91500000Y-70744998D03*
X91500000Y-73284998D03*
X91500000Y-75824998D03*
X91500000Y-78364998D03*
X91500000Y-80904998D03*
X91500000Y-83444998D03*
X91500000Y-85984998D03*
X91500000Y-88524998D03*
%TD*%
D13*
%TO.C,J83*%
X83200000Y-96700000D03*
D14*
X83200000Y-99240000D03*
X83200000Y-101779999D03*
X83200000Y-104320000D03*
%TD*%
D13*
%TO.C,J37*%
X79100000Y-46324998D03*
%TD*%
D11*
%TO.C,TP13*%
X106800000Y-74524998D03*
%TD*%
D13*
%TO.C,J64*%
X149200000Y-46324998D03*
D14*
X149200000Y-48864998D03*
X149200000Y-51404997D03*
X149200000Y-53944998D03*
%TD*%
D11*
%TO.C,J65*%
X149000000Y-60424998D03*
D12*
X149000000Y-61424998D03*
%TD*%
D13*
%TO.C,J18*%
X145100000Y-96700000D03*
%TD*%
D11*
%TO.C,J8*%
X149000000Y-110800000D03*
D12*
X149000000Y-111800000D03*
%TD*%
D11*
%TO.C,J27*%
X83000000Y-60424998D03*
D12*
X83000000Y-61424998D03*
%TD*%
D11*
%TO.C,TP3*%
X139800000Y-124900000D03*
%TD*%
%TO.C,TP12*%
X100600000Y-45124998D03*
%TD*%
%TO.C,TP22*%
X67600000Y-95500000D03*
%TD*%
D13*
%TO.C,J50*%
X124500000Y-45344998D03*
D14*
X124500000Y-47884998D03*
X124500000Y-50424998D03*
X124500000Y-52964998D03*
X124500000Y-55504998D03*
X124500000Y-58044998D03*
X124500000Y-60584998D03*
X124500000Y-63124998D03*
X124500000Y-65664998D03*
X124500000Y-68204998D03*
X124500000Y-70744998D03*
X124500000Y-73284998D03*
X124500000Y-75824998D03*
X124500000Y-78364998D03*
X124500000Y-80904998D03*
X124500000Y-83444998D03*
X124500000Y-85984998D03*
X124500000Y-88524998D03*
%TD*%
D13*
%TO.C,J113*%
X112100000Y-96700000D03*
%TD*%
%TO.C,J76*%
X153900000Y-45344998D03*
D14*
X153900000Y-47884998D03*
X153900000Y-50424998D03*
X153900000Y-52964998D03*
X153900000Y-55504998D03*
X153900000Y-58044998D03*
X153900000Y-60584998D03*
X153900000Y-63124998D03*
X153900000Y-65664998D03*
X153900000Y-68204998D03*
X153900000Y-70744998D03*
X153900000Y-73284998D03*
X153900000Y-75824998D03*
X153900000Y-78364998D03*
X153900000Y-80904998D03*
X153900000Y-83444998D03*
X153900000Y-85984998D03*
X153900000Y-88524998D03*
%TD*%
D13*
%TO.C,J85*%
X64400000Y-96700000D03*
D14*
X64400000Y-99240000D03*
X64400000Y-101780000D03*
X64400000Y-104320000D03*
X64400000Y-106860000D03*
X64400000Y-109400000D03*
X64400000Y-111940000D03*
X64400000Y-114480000D03*
X64400000Y-117020000D03*
X64400000Y-119560000D03*
X64400000Y-122100000D03*
X64400000Y-124640000D03*
%TD*%
D13*
%TO.C,J56*%
X112100000Y-46324998D03*
%TD*%
%TO.C,J88*%
X91500000Y-95720000D03*
D14*
X91500000Y-98260000D03*
X91500000Y-100800000D03*
X91500000Y-103340000D03*
X91500000Y-105880000D03*
X91500000Y-108420000D03*
X91500000Y-110960000D03*
X91500000Y-113500000D03*
X91500000Y-116040000D03*
X91500000Y-118580000D03*
X91500000Y-121120000D03*
X91500000Y-123660000D03*
X91500000Y-126200000D03*
X91500000Y-128740000D03*
X91500000Y-131280000D03*
X91500000Y-133820000D03*
X91500000Y-136360000D03*
X91500000Y-138900000D03*
%TD*%
D11*
%TO.C,TP8*%
X73800000Y-74524998D03*
%TD*%
D13*
%TO.C,J69*%
X157500000Y-45344998D03*
D14*
X157500000Y-47884998D03*
X157500000Y-50424998D03*
X157500000Y-52964998D03*
X157500000Y-55504998D03*
X157500000Y-58044998D03*
X157500000Y-60584998D03*
X157500000Y-63124998D03*
X157500000Y-65664998D03*
X157500000Y-68204998D03*
X157500000Y-70744998D03*
X157500000Y-73284998D03*
X157500000Y-75824998D03*
X157500000Y-78364998D03*
X157500000Y-80904998D03*
X157500000Y-83444998D03*
X157500000Y-85984998D03*
X157500000Y-88524998D03*
%TD*%
D13*
%TO.C,J94*%
X79100000Y-96700000D03*
%TD*%
%TO.C,J12*%
X157500000Y-95720000D03*
D14*
X157500000Y-98260000D03*
X157500000Y-100800000D03*
X157500000Y-103340000D03*
X157500000Y-105880000D03*
X157500000Y-108420000D03*
X157500000Y-110960000D03*
X157500000Y-113500000D03*
X157500000Y-116040000D03*
X157500000Y-118580000D03*
X157500000Y-121120000D03*
X157500000Y-123660000D03*
X157500000Y-126200000D03*
X157500000Y-128740000D03*
X157500000Y-131280000D03*
X157500000Y-133820000D03*
X157500000Y-136360000D03*
X157500000Y-138900000D03*
%TD*%
D11*
%TO.C,TP21*%
X77000000Y-109100000D03*
%TD*%
D13*
%TO.C,J9*%
X130400000Y-96700000D03*
D14*
X130400000Y-99240000D03*
X130400000Y-101780000D03*
X130400000Y-104320000D03*
X130400000Y-106860000D03*
X130400000Y-109400000D03*
X130400000Y-111940000D03*
X130400000Y-114480000D03*
X130400000Y-117020000D03*
X130400000Y-119560000D03*
X130400000Y-122100000D03*
X130400000Y-124640000D03*
%TD*%
D11*
%TO.C,TP18*%
X139800000Y-74524998D03*
%TD*%
D13*
%TO.C,J95*%
X87900000Y-95720000D03*
D14*
X87900000Y-98260000D03*
X87900000Y-100800000D03*
X87900000Y-103340000D03*
X87900000Y-105880000D03*
X87900000Y-108420000D03*
X87900000Y-110960000D03*
X87900000Y-113500000D03*
X87900000Y-116040000D03*
X87900000Y-118580000D03*
X87900000Y-121120000D03*
X87900000Y-123660000D03*
X87900000Y-126200000D03*
X87900000Y-128740000D03*
X87900000Y-131280000D03*
X87900000Y-133820000D03*
X87900000Y-136360000D03*
X87900000Y-138900000D03*
%TD*%
D13*
%TO.C,J7*%
X149200000Y-96700000D03*
D14*
X149200000Y-99240000D03*
X149200000Y-101779999D03*
X149200000Y-104320000D03*
%TD*%
D11*
%TO.C,TP27*%
X100600000Y-95500000D03*
%TD*%
%TO.C,TP16*%
X143000000Y-58724998D03*
%TD*%
%TO.C,TP6*%
X77000000Y-58724998D03*
%TD*%
D13*
%TO.C,J19*%
X153900000Y-95720000D03*
D14*
X153900000Y-98260000D03*
X153900000Y-100800000D03*
X153900000Y-103340000D03*
X153900000Y-105880000D03*
X153900000Y-108420000D03*
X153900000Y-110960000D03*
X153900000Y-113500000D03*
X153900000Y-116040000D03*
X153900000Y-118580000D03*
X153900000Y-121120000D03*
X153900000Y-123660000D03*
X153900000Y-126200000D03*
X153900000Y-128740000D03*
X153900000Y-131280000D03*
X153900000Y-133820000D03*
X153900000Y-136360000D03*
X153900000Y-138900000D03*
%TD*%
D11*
%TO.C,TP2*%
X133600000Y-95500000D03*
%TD*%
D13*
%TO.C,J47*%
X97400000Y-46324998D03*
D14*
X97400000Y-48864998D03*
X97400000Y-51404998D03*
X97400000Y-53944998D03*
X97400000Y-56484998D03*
X97400000Y-59024998D03*
X97400000Y-61564998D03*
X97400000Y-64104998D03*
X97400000Y-66644998D03*
X97400000Y-69184998D03*
X97400000Y-71724998D03*
X97400000Y-74264998D03*
%TD*%
D13*
%TO.C,J104*%
X97400000Y-96700000D03*
D14*
X97400000Y-99240000D03*
X97400000Y-101780000D03*
X97400000Y-104320000D03*
X97400000Y-106860000D03*
X97400000Y-109400000D03*
X97400000Y-111940000D03*
X97400000Y-114480000D03*
X97400000Y-117020000D03*
X97400000Y-119560000D03*
X97400000Y-122100000D03*
X97400000Y-124640000D03*
%TD*%
D11*
%TO.C,TP23*%
X73800000Y-124900000D03*
%TD*%
%TO.C,J46*%
X116000000Y-60424998D03*
D12*
X116000000Y-61424998D03*
%TD*%
D13*
%TO.C,J114*%
X120900000Y-95720000D03*
D14*
X120900000Y-98260000D03*
X120900000Y-100800000D03*
X120900000Y-103340000D03*
X120900000Y-105880000D03*
X120900000Y-108420000D03*
X120900000Y-110960000D03*
X120900000Y-113500000D03*
X120900000Y-116040000D03*
X120900000Y-118580000D03*
X120900000Y-121120000D03*
X120900000Y-123660000D03*
X120900000Y-126200000D03*
X120900000Y-128740000D03*
X120900000Y-131280000D03*
X120900000Y-133820000D03*
X120900000Y-136360000D03*
X120900000Y-138900000D03*
%TD*%
D11*
%TO.C,TP17*%
X133600000Y-45124998D03*
%TD*%
%TO.C,TP11*%
X110000000Y-58724998D03*
%TD*%
%TO.C,TP1*%
X143000000Y-109100000D03*
%TD*%
%TO.C,TP28*%
X106800000Y-124900000D03*
%TD*%
D13*
%TO.C,J26*%
X83200000Y-46324998D03*
D14*
X83200000Y-48864998D03*
X83200000Y-51404997D03*
X83200000Y-53944998D03*
%TD*%
D13*
%TO.C,J102*%
X116200000Y-96700000D03*
D14*
X116200000Y-99240000D03*
X116200000Y-101779999D03*
X116200000Y-104320000D03*
%TD*%
D13*
%TO.C,J57*%
X120900000Y-45344998D03*
D14*
X120900000Y-47884998D03*
X120900000Y-50424998D03*
X120900000Y-52964998D03*
X120900000Y-55504998D03*
X120900000Y-58044998D03*
X120900000Y-60584998D03*
X120900000Y-63124998D03*
X120900000Y-65664998D03*
X120900000Y-68204998D03*
X120900000Y-70744998D03*
X120900000Y-73284998D03*
X120900000Y-75824998D03*
X120900000Y-78364998D03*
X120900000Y-80904998D03*
X120900000Y-83444998D03*
X120900000Y-85984998D03*
X120900000Y-88524998D03*
%TD*%
D13*
%TO.C,J66*%
X130400000Y-46324998D03*
D14*
X130400000Y-48864998D03*
X130400000Y-51404998D03*
X130400000Y-53944998D03*
X130400000Y-56484998D03*
X130400000Y-59024998D03*
X130400000Y-61564998D03*
X130400000Y-64104998D03*
X130400000Y-66644998D03*
X130400000Y-69184998D03*
X130400000Y-71724998D03*
X130400000Y-74264998D03*
%TD*%
D11*
%TO.C,TP7*%
X67600000Y-45124998D03*
%TD*%
D13*
%TO.C,J28*%
X64400000Y-46324998D03*
D14*
X64400000Y-48864998D03*
X64400000Y-51404998D03*
X64400000Y-53944998D03*
X64400000Y-56484998D03*
X64400000Y-59024998D03*
X64400000Y-61564998D03*
X64400000Y-64104998D03*
X64400000Y-66644998D03*
X64400000Y-69184998D03*
X64400000Y-71724998D03*
X64400000Y-74264998D03*
%TD*%
D15*
%TO.C,C14*%
X72300000Y-121325000D03*
X72300000Y-122875000D03*
%TD*%
D16*
%TO.C,J17*%
X138975001Y-135900000D03*
D17*
X140424999Y-135900000D03*
%TD*%
D18*
%TO.C,R40*%
X77712500Y-67824998D03*
X75887500Y-67824998D03*
%TD*%
D15*
%TO.C,C8*%
X105300000Y-70949998D03*
X105300000Y-72499998D03*
%TD*%
D19*
%TO.C,L4*%
X145100000Y-72824997D03*
X145100000Y-70624999D03*
%TD*%
D20*
%TO.C,R58*%
X105375000Y-67824998D03*
X107200000Y-67824998D03*
%TD*%
D11*
%TO.C,TP20*%
X148800000Y-64324998D03*
%TD*%
D16*
%TO.C,J32*%
X80225001Y-78562498D03*
D17*
X81674999Y-78562498D03*
%TD*%
D11*
%TO.C,TP5*%
X148800000Y-114700000D03*
%TD*%
D16*
%TO.C,J89*%
X80225001Y-128937500D03*
D17*
X81674999Y-128937500D03*
%TD*%
D15*
%TO.C,C2*%
X138300000Y-121325000D03*
X138300000Y-122875000D03*
%TD*%
D21*
%TO.C,U36*%
X108500000Y-122800000D03*
X108000000Y-122800001D03*
X107500000Y-122800000D03*
X107500000Y-121375000D03*
X108000000Y-121374999D03*
X108500000Y-121375000D03*
%TD*%
D19*
%TO.C,L6*%
X112100000Y-123199999D03*
X112100000Y-121000001D03*
%TD*%
D11*
%TO.C,TP14*%
X108500000Y-79824998D03*
%TD*%
D21*
%TO.C,U12*%
X75500000Y-72424998D03*
X75000000Y-72424999D03*
X74500000Y-72424998D03*
X74500000Y-70999998D03*
X75000000Y-70999997D03*
X75500000Y-70999998D03*
%TD*%
D16*
%TO.C,J52*%
X113225000Y-76274997D03*
D17*
X114674998Y-76274997D03*
%TD*%
D15*
%TO.C,C11*%
X138300000Y-70949998D03*
X138300000Y-72499998D03*
%TD*%
D11*
%TO.C,TP25*%
X82800000Y-114700000D03*
%TD*%
D18*
%TO.C,R82*%
X143712500Y-67824998D03*
X141887500Y-67824998D03*
%TD*%
D16*
%TO.C,J109*%
X113225000Y-126649999D03*
D17*
X114674998Y-126649999D03*
%TD*%
D16*
%TO.C,J51*%
X113225001Y-78562498D03*
D17*
X114674999Y-78562498D03*
%TD*%
D22*
%TO.C,C12*%
X146875000Y-67824998D03*
X145325000Y-67824998D03*
%TD*%
D20*
%TO.C,R79*%
X138375000Y-67824998D03*
X140200000Y-67824998D03*
%TD*%
D16*
%TO.C,J112*%
X105975001Y-135900000D03*
D17*
X107424999Y-135900000D03*
%TD*%
D19*
%TO.C,L1*%
X145100000Y-123199999D03*
X145100000Y-121000001D03*
%TD*%
D11*
%TO.C,TP29*%
X108500000Y-130200000D03*
%TD*%
D16*
%TO.C,J90*%
X80225000Y-126649999D03*
D17*
X81674998Y-126649999D03*
%TD*%
D16*
%TO.C,J55*%
X105975001Y-85524998D03*
D17*
X107424999Y-85524998D03*
%TD*%
D21*
%TO.C,U30*%
X75500000Y-122800000D03*
X75000000Y-122800001D03*
X74500000Y-122800000D03*
X74500000Y-121375000D03*
X75000000Y-121374999D03*
X75500000Y-121375000D03*
%TD*%
%TO.C,U6*%
X141500000Y-122800000D03*
X141000000Y-122800001D03*
X140500000Y-122800000D03*
X140500000Y-121375000D03*
X141000000Y-121374999D03*
X141500000Y-121375000D03*
%TD*%
D11*
%TO.C,TP30*%
X115800000Y-114700000D03*
%TD*%
D15*
%TO.C,C5*%
X72300000Y-70949998D03*
X72300000Y-72499998D03*
%TD*%
D18*
%TO.C,R103*%
X77712500Y-118200000D03*
X75887500Y-118200000D03*
%TD*%
D19*
%TO.C,L3*%
X112100000Y-72824997D03*
X112100000Y-70624999D03*
%TD*%
D22*
%TO.C,C18*%
X113875000Y-118200000D03*
X112325000Y-118200000D03*
%TD*%
D11*
%TO.C,TP24*%
X75500000Y-130200000D03*
%TD*%
D16*
%TO.C,J14*%
X146225000Y-126649999D03*
D17*
X147674998Y-126649999D03*
%TD*%
D20*
%TO.C,R100*%
X72375000Y-118200000D03*
X74200000Y-118200000D03*
%TD*%
D11*
%TO.C,TP10*%
X82800000Y-64324998D03*
%TD*%
D22*
%TO.C,C6*%
X80875000Y-67824998D03*
X79325000Y-67824998D03*
%TD*%
%TO.C,C3*%
X146875000Y-118200000D03*
X145325000Y-118200000D03*
%TD*%
%TO.C,C15*%
X80875000Y-118200000D03*
X79325000Y-118200000D03*
%TD*%
D15*
%TO.C,C17*%
X105300000Y-121325000D03*
X105300000Y-122875000D03*
%TD*%
D11*
%TO.C,TP4*%
X141500000Y-130200000D03*
%TD*%
%TO.C,TP19*%
X141500000Y-79824998D03*
%TD*%
D18*
%TO.C,R124*%
X110712500Y-118200000D03*
X108887500Y-118200000D03*
%TD*%
D16*
%TO.C,J13*%
X146225001Y-128937500D03*
D17*
X147674999Y-128937500D03*
%TD*%
D11*
%TO.C,TP15*%
X115800000Y-64324998D03*
%TD*%
D16*
%TO.C,J74*%
X138975001Y-85524998D03*
D17*
X140424999Y-85524998D03*
%TD*%
D20*
%TO.C,R121*%
X105375000Y-118200000D03*
X107200000Y-118200000D03*
%TD*%
D18*
%TO.C,R61*%
X110712500Y-67824998D03*
X108887500Y-67824998D03*
%TD*%
D16*
%TO.C,J36*%
X72975001Y-85524998D03*
D17*
X74424999Y-85524998D03*
%TD*%
D16*
%TO.C,J71*%
X146225000Y-76274997D03*
D17*
X147674998Y-76274997D03*
%TD*%
D20*
%TO.C,R16*%
X138375000Y-118200000D03*
X140200000Y-118200000D03*
%TD*%
D18*
%TO.C,R19*%
X143712500Y-118200000D03*
X141887500Y-118200000D03*
%TD*%
D16*
%TO.C,J93*%
X72975001Y-135900000D03*
D17*
X74424999Y-135900000D03*
%TD*%
D11*
%TO.C,TP9*%
X75500000Y-79824998D03*
%TD*%
D21*
%TO.C,U18*%
X108500000Y-72424998D03*
X108000000Y-72424999D03*
X107500000Y-72424998D03*
X107500000Y-70999998D03*
X108000000Y-70999997D03*
X108500000Y-70999998D03*
%TD*%
D22*
%TO.C,C9*%
X113875000Y-67824998D03*
X112325000Y-67824998D03*
%TD*%
D21*
%TO.C,U24*%
X141500000Y-72424998D03*
X141000000Y-72424999D03*
X140500000Y-72424998D03*
X140500000Y-70999998D03*
X141000000Y-70999997D03*
X141500000Y-70999998D03*
%TD*%
D20*
%TO.C,R37*%
X72375000Y-67824998D03*
X74200000Y-67824998D03*
%TD*%
D16*
%TO.C,J108*%
X113225001Y-128937500D03*
D17*
X114674999Y-128937500D03*
%TD*%
D16*
%TO.C,J33*%
X80225000Y-76274997D03*
D17*
X81674998Y-76274997D03*
%TD*%
D19*
%TO.C,L2*%
X79100000Y-72824997D03*
X79100000Y-70624999D03*
%TD*%
%TO.C,L5*%
X79100000Y-123199999D03*
X79100000Y-121000001D03*
%TD*%
D16*
%TO.C,J70*%
X146225001Y-78562498D03*
D17*
X147674999Y-78562498D03*
%TD*%
M02*
