%TF.GenerationSoftware,KiCad,Pcbnew,9.0.3*%
%TF.CreationDate,2025-08-19T23:25:36-04:00*%
%TF.ProjectId,Mess-CharliePlexing2,4d657373-2d43-4686-9172-6c6965506c65,rev?*%
%TF.SameCoordinates,Original*%
%TF.FileFunction,Plated,1,2,PTH,Drill*%
%TF.FilePolarity,Positive*%
%FSLAX46Y46*%
G04 Gerber Fmt 4.6, Leading zero omitted, Abs format (unit mm)*
G04 Created by KiCad (PCBNEW 9.0.3) date 2025-08-19 23:25:36*
%MOMM*%
%LPD*%
G01*
G04 APERTURE LIST*
%TA.AperFunction,ViaDrill*%
%ADD10C,0.300000*%
%TD*%
%TA.AperFunction,ComponentDrill*%
%ADD11C,1.000000*%
%TD*%
G04 APERTURE END LIST*
D10*
X73290001Y-130300000D03*
X73364999Y-80625002D03*
X73440001Y-54600000D03*
X73890001Y-93300000D03*
X74090001Y-108100000D03*
X74190001Y-73400000D03*
X74940001Y-63700000D03*
X74940001Y-68300000D03*
X75390001Y-57857999D03*
X75600000Y-86549998D03*
X75600000Y-111449999D03*
X75600000Y-134400003D03*
X75700000Y-109700001D03*
X75790001Y-53224998D03*
X76190001Y-49900000D03*
X76590001Y-68900000D03*
X76690001Y-98100000D03*
X77700000Y-88675001D03*
X77955000Y-57900000D03*
X77990001Y-79850001D03*
X78077938Y-101101807D03*
X78090001Y-73500000D03*
X78181002Y-91500000D03*
X78190001Y-127100000D03*
X78190001Y-136890001D03*
X78200000Y-75875001D03*
X78200000Y-82600000D03*
X78200000Y-86375001D03*
X78590001Y-45400000D03*
X78680002Y-97275001D03*
X78680002Y-100575001D03*
X78890001Y-58900000D03*
X79590001Y-103000000D03*
X79690001Y-92600000D03*
X79700000Y-68775001D03*
X79790001Y-59650000D03*
X80100000Y-117975001D03*
X80780002Y-133000001D03*
X80780002Y-136150001D03*
X80790001Y-62649999D03*
X80790001Y-72024997D03*
X80790001Y-84800000D03*
X80790001Y-114600001D03*
X80800000Y-53224999D03*
X80800000Y-60900000D03*
X80800000Y-99800001D03*
X80900000Y-86549997D03*
X80900000Y-101549999D03*
X80900000Y-111449999D03*
X80990001Y-64550000D03*
X81300000Y-117775001D03*
X82301000Y-77725000D03*
X83280002Y-97675001D03*
X83290000Y-81300000D03*
X83290001Y-51600000D03*
X83290001Y-56125003D03*
X83390001Y-48300000D03*
X83390001Y-87500000D03*
X83390001Y-106600000D03*
X83390001Y-129500000D03*
X83400000Y-90875001D03*
X83400000Y-120775001D03*
X83490001Y-91900000D03*
X83635002Y-125645001D03*
X83700000Y-111375001D03*
X83815003Y-121825002D03*
X83890001Y-77800000D03*
X84290001Y-45200000D03*
X84990001Y-92700000D03*
X85690001Y-127700000D03*
X85890001Y-96450000D03*
X86000000Y-48577999D03*
X86000000Y-62650000D03*
X86000000Y-67275001D03*
X86000000Y-74950002D03*
X86000000Y-81600000D03*
X86000000Y-86549997D03*
X86000000Y-94700000D03*
X86000000Y-101550001D03*
X86000000Y-106549999D03*
X86190001Y-124600000D03*
X87000000Y-92775001D03*
X88300000Y-63775001D03*
X88390001Y-53600000D03*
X88390001Y-69348000D03*
X88390001Y-71756333D03*
X88490001Y-79850002D03*
X88500000Y-97175001D03*
X88582501Y-112757502D03*
X88590001Y-48500000D03*
X88590001Y-113800000D03*
X88600000Y-91175001D03*
X88700000Y-84875001D03*
X88700000Y-101275001D03*
X89390001Y-82900000D03*
X89440001Y-108500000D03*
X89490001Y-127500000D03*
X90360934Y-132600001D03*
X90990001Y-49800000D03*
X91100000Y-53224999D03*
X91100000Y-67275001D03*
X91100000Y-77900000D03*
X91200000Y-86549999D03*
X91280002Y-116349998D03*
X91290001Y-123600000D03*
X92166116Y-73047689D03*
X92290001Y-83700000D03*
X92900000Y-132375001D03*
X93390001Y-78800000D03*
X93400000Y-119175001D03*
X93580002Y-96100001D03*
X93600000Y-58175001D03*
X93680002Y-130900001D03*
X93700000Y-106875001D03*
X93780002Y-91700000D03*
X93780002Y-127400001D03*
X93781002Y-123375001D03*
X93790001Y-72000000D03*
X93880002Y-133200001D03*
X93890001Y-79900000D03*
X93899000Y-62875001D03*
X94000000Y-111375001D03*
X94000000Y-120475001D03*
X94066958Y-74950000D03*
X94100000Y-81275001D03*
X94151000Y-117400000D03*
X94180002Y-104800001D03*
X94700000Y-59474002D03*
X95800000Y-132575001D03*
X95990001Y-61026001D03*
X96040001Y-76700000D03*
X96290001Y-65525003D03*
X96290001Y-134400003D03*
X96300000Y-48567999D03*
X96390001Y-62650000D03*
X96390001Y-116349999D03*
X96400000Y-106549999D03*
X96400000Y-126349999D03*
X96500000Y-101549997D03*
X96690001Y-72800000D03*
X96700000Y-92975001D03*
X96790001Y-87800000D03*
X98090001Y-122200000D03*
X98707500Y-82082501D03*
X98790001Y-45000000D03*
X98800000Y-67675001D03*
X98800000Y-86275001D03*
X98890001Y-48400000D03*
X98900000Y-96975001D03*
X99000000Y-88600000D03*
X99000000Y-111275001D03*
X99000000Y-113400000D03*
X99090001Y-121500000D03*
X99100000Y-101175001D03*
X99100000Y-103900000D03*
X99100000Y-127775001D03*
X100009112Y-55117003D03*
X100482422Y-64075001D03*
X101480002Y-126349999D03*
X101489997Y-53225000D03*
X101490001Y-45750000D03*
X101500000Y-86549997D03*
X101500000Y-99799999D03*
X101580002Y-134400001D03*
X101590001Y-48568000D03*
X101590001Y-103300000D03*
X101600000Y-67275000D03*
X101600000Y-113500000D03*
X101600000Y-116349999D03*
X101790001Y-132592500D03*
X102240000Y-72960322D03*
X102240000Y-75875589D03*
X103757500Y-58132501D03*
X103797501Y-133192500D03*
X103900000Y-106975001D03*
X103990001Y-72000000D03*
X104090001Y-124500000D03*
X104100000Y-110875001D03*
X104200000Y-95975001D03*
X104390001Y-67500000D03*
X104400000Y-92475001D03*
X104790001Y-54399005D03*
X104990001Y-77876001D03*
X105190001Y-128400000D03*
X105390001Y-117400000D03*
X105490001Y-108275001D03*
X105940001Y-73800000D03*
X106590001Y-84800000D03*
X106690001Y-45900000D03*
X106690001Y-48567999D03*
X106690001Y-74950000D03*
X106690001Y-136150000D03*
X106700000Y-101549999D03*
X106700000Y-106550000D03*
X106700000Y-126349999D03*
X106790001Y-53225000D03*
X106800000Y-93075001D03*
X106800000Y-116349999D03*
X106840001Y-76800000D03*
X106890001Y-112600000D03*
X107690001Y-73100000D03*
X108526765Y-77800000D03*
X108600000Y-98275001D03*
X108690001Y-107585000D03*
X109180002Y-131100001D03*
X109190001Y-67400000D03*
X109200000Y-86275001D03*
X109276765Y-81600000D03*
X109290001Y-63650000D03*
X109290001Y-126300000D03*
X109300000Y-96875001D03*
X109300000Y-101175001D03*
X109390001Y-90900000D03*
X109490001Y-58100000D03*
X109500000Y-124475001D03*
X110490001Y-54399005D03*
X111790001Y-76700000D03*
X111790001Y-114600001D03*
X111800000Y-119600000D03*
X111890001Y-72024997D03*
X111900000Y-48568000D03*
X111900000Y-111449999D03*
X111990001Y-109700001D03*
X112190001Y-65525003D03*
X113290001Y-92700000D03*
X113390001Y-98200000D03*
X113714672Y-107600000D03*
X113790001Y-123000000D03*
X113900000Y-49975001D03*
X113965000Y-73200000D03*
X114000000Y-68775001D03*
X114300000Y-53175001D03*
X114400000Y-131175001D03*
X114590001Y-103400000D03*
X114600000Y-112575001D03*
X114600000Y-126975001D03*
X114740001Y-98250000D03*
X114800000Y-71075001D03*
X114900000Y-58975001D03*
X115890001Y-122400000D03*
X115990001Y-113200000D03*
X116400000Y-83075001D03*
X117000000Y-86549998D03*
X117000000Y-116349999D03*
X117100000Y-54975001D03*
X117100000Y-62650000D03*
X117180002Y-134400001D03*
X117290001Y-67275001D03*
X118100000Y-59375001D03*
X118400000Y-88475001D03*
X118675269Y-118400000D03*
X119440001Y-72800000D03*
X119590001Y-83500000D03*
X123290001Y-130300000D03*
X123364999Y-80625002D03*
X123440001Y-54600000D03*
X123890001Y-93300000D03*
X124090001Y-108100000D03*
X124190001Y-73400000D03*
X124940001Y-63700000D03*
X124940001Y-68300000D03*
X125390001Y-57857999D03*
X125600000Y-86549998D03*
X125600000Y-111449999D03*
X125600000Y-134400003D03*
X125700000Y-109700001D03*
X125790001Y-53224998D03*
X126190001Y-49900000D03*
X126590001Y-68900000D03*
X126690001Y-98100000D03*
X127700000Y-88675001D03*
X127955000Y-57900000D03*
X127990001Y-79850001D03*
X128077938Y-101101807D03*
X128090001Y-73500000D03*
X128181002Y-91500000D03*
X128190001Y-127100000D03*
X128190001Y-136890001D03*
X128200000Y-75875001D03*
X128200000Y-82600000D03*
X128200000Y-86375001D03*
X128590001Y-45400000D03*
X128680002Y-97275001D03*
X128680002Y-100575001D03*
X128890001Y-58900000D03*
X129590001Y-103000000D03*
X129690001Y-92600000D03*
X129700000Y-68775001D03*
X129790001Y-59650000D03*
X130100000Y-117975001D03*
X130780002Y-133000001D03*
X130780002Y-136150001D03*
X130790001Y-62649999D03*
X130790001Y-72024997D03*
X130790001Y-84800000D03*
X130790001Y-114600001D03*
X130800000Y-53224999D03*
X130800000Y-60900000D03*
X130800000Y-99800001D03*
X130900000Y-86549997D03*
X130900000Y-101549999D03*
X130900000Y-111449999D03*
X130990001Y-64550000D03*
X131300000Y-117775001D03*
X132301000Y-77725000D03*
X133280002Y-97675001D03*
X133290000Y-81300000D03*
X133290001Y-51600000D03*
X133290001Y-56125003D03*
X133390001Y-48300000D03*
X133390001Y-87500000D03*
X133390001Y-106600000D03*
X133390001Y-129500000D03*
X133400000Y-90875001D03*
X133400000Y-120775001D03*
X133490001Y-91900000D03*
X133635002Y-125645001D03*
X133700000Y-111375001D03*
X133815003Y-121825002D03*
X133890001Y-77800000D03*
X134290001Y-45200000D03*
X134990001Y-92700000D03*
X135690001Y-127700000D03*
X135890001Y-96450000D03*
X136000000Y-48577999D03*
X136000000Y-62650000D03*
X136000000Y-67275001D03*
X136000000Y-74950002D03*
X136000000Y-81600000D03*
X136000000Y-86549997D03*
X136000000Y-94700000D03*
X136000000Y-101550001D03*
X136000000Y-106549999D03*
X136190001Y-124600000D03*
X137000000Y-92775001D03*
X138300000Y-63775001D03*
X138390001Y-53600000D03*
X138390001Y-69348000D03*
X138390001Y-71756333D03*
X138490001Y-79850002D03*
X138500000Y-97175001D03*
X138582501Y-112757502D03*
X138590001Y-48500000D03*
X138590001Y-113800000D03*
X138600000Y-91175001D03*
X138700000Y-84875001D03*
X138700000Y-101275001D03*
X139390001Y-82900000D03*
X139440001Y-108500000D03*
X139490001Y-127500000D03*
X140360934Y-132600001D03*
X140990001Y-49800000D03*
X141100000Y-53224999D03*
X141100000Y-67275001D03*
X141100000Y-77900000D03*
X141200000Y-86549999D03*
X141280002Y-116349998D03*
X141290001Y-123600000D03*
X142166116Y-73047689D03*
X142290001Y-83700000D03*
X142900000Y-132375001D03*
X143390001Y-78800000D03*
X143400000Y-119175001D03*
X143580002Y-96100001D03*
X143600000Y-58175001D03*
X143680002Y-130900001D03*
X143700000Y-106875001D03*
X143780002Y-91700000D03*
X143780002Y-127400001D03*
X143781002Y-123375001D03*
X143790001Y-72000000D03*
X143880002Y-133200001D03*
X143890001Y-79900000D03*
X143899000Y-62875001D03*
X144000000Y-111375001D03*
X144000000Y-120475001D03*
X144066958Y-74950000D03*
X144100000Y-81275001D03*
X144151000Y-117400000D03*
X144180002Y-104800001D03*
X144700000Y-59474002D03*
X145800000Y-132575001D03*
X145990001Y-61026001D03*
X146040001Y-76700000D03*
X146290001Y-65525003D03*
X146290001Y-134400003D03*
X146300000Y-48567999D03*
X146390001Y-62650000D03*
X146390001Y-116349999D03*
X146400000Y-106549999D03*
X146400000Y-126349999D03*
X146500000Y-101549997D03*
X146690001Y-72800000D03*
X146700000Y-92975001D03*
X146790001Y-87800000D03*
X148090001Y-122200000D03*
X148707500Y-82082501D03*
X148790001Y-45000000D03*
X148800000Y-67675001D03*
X148800000Y-86275001D03*
X148890001Y-48400000D03*
X148900000Y-96975001D03*
X149000000Y-88600000D03*
X149000000Y-111275001D03*
X149000000Y-113400000D03*
X149090001Y-121500000D03*
X149100000Y-101175001D03*
X149100000Y-103900000D03*
X149100000Y-127775001D03*
X150009112Y-55117003D03*
X150482422Y-64075001D03*
X151480002Y-126349999D03*
X151489997Y-53225000D03*
X151490001Y-45750000D03*
X151500000Y-86549997D03*
X151500000Y-99799999D03*
X151580002Y-134400001D03*
X151590001Y-48568000D03*
X151590001Y-103300000D03*
X151600000Y-67275000D03*
X151600000Y-113500000D03*
X151600000Y-116349999D03*
X151790001Y-132592500D03*
X152240000Y-72960322D03*
X152240000Y-75875589D03*
X153757500Y-58132501D03*
X153797501Y-133192500D03*
X153900000Y-106975001D03*
X153990001Y-72000000D03*
X154090001Y-124500000D03*
X154100000Y-110875001D03*
X154200000Y-95975001D03*
X154390001Y-67500000D03*
X154400000Y-92475001D03*
X154790001Y-54399005D03*
X154990001Y-77876001D03*
X155190001Y-128400000D03*
X155390001Y-117400000D03*
X155490001Y-108275001D03*
X155940001Y-73800000D03*
X156590001Y-84800000D03*
X156690001Y-45900000D03*
X156690001Y-48567999D03*
X156690001Y-74950000D03*
X156690001Y-136150000D03*
X156700000Y-101549999D03*
X156700000Y-106550000D03*
X156700000Y-126349999D03*
X156790001Y-53225000D03*
X156800000Y-93075001D03*
X156800000Y-116349999D03*
X156840001Y-76800000D03*
X156890001Y-112600000D03*
X157690001Y-73100000D03*
X158526765Y-77800000D03*
X158600000Y-98275001D03*
X158690001Y-107585000D03*
X159180002Y-131100001D03*
X159190001Y-67400000D03*
X159200000Y-86275001D03*
X159276765Y-81600000D03*
X159290001Y-63650000D03*
X159290001Y-126300000D03*
X159300000Y-96875001D03*
X159300000Y-101175001D03*
X159390001Y-90900000D03*
X159490001Y-58100000D03*
X159500000Y-124475001D03*
X160490001Y-54399005D03*
X161790001Y-76700000D03*
X161790001Y-114600001D03*
X161800000Y-119600000D03*
X161890001Y-72024997D03*
X161900000Y-48568000D03*
X161900000Y-111449999D03*
X161990001Y-109700001D03*
X162190001Y-65525003D03*
X163290001Y-92700000D03*
X163390001Y-98200000D03*
X163714672Y-107600000D03*
X163790001Y-123000000D03*
X163900000Y-49975001D03*
X163965000Y-73200000D03*
X164000000Y-68775001D03*
X164300000Y-53175001D03*
X164400000Y-131175001D03*
X164590001Y-103400000D03*
X164600000Y-112575001D03*
X164600000Y-126975001D03*
X164740001Y-98250000D03*
X164800000Y-71075001D03*
X164900000Y-58975001D03*
X165890001Y-122400000D03*
X165990001Y-113200000D03*
X166400000Y-83075001D03*
X167000000Y-86549998D03*
X167000000Y-116349999D03*
X167100000Y-54975001D03*
X167100000Y-62650000D03*
X167180002Y-134400001D03*
X167290001Y-67275001D03*
X168100000Y-59375001D03*
X168400000Y-88475001D03*
X168675269Y-118400000D03*
X169440001Y-72800000D03*
X169590001Y-83500000D03*
D11*
%TO.C,J2*%
X73290001Y-40960000D03*
X73290001Y-43500000D03*
X75830001Y-40960000D03*
X75830001Y-43500000D03*
X78370001Y-40960000D03*
X78370001Y-43500000D03*
X80910001Y-40960000D03*
X80910001Y-43500000D03*
X83450001Y-40960000D03*
X83450001Y-43500000D03*
X85990001Y-40960000D03*
X85990001Y-43500000D03*
X88530001Y-40960000D03*
X88530001Y-43500000D03*
X91070001Y-40960000D03*
X91070001Y-43500000D03*
X93610001Y-40960000D03*
X93610001Y-43500000D03*
X96150001Y-40960000D03*
X96150001Y-43500000D03*
X98690001Y-40960000D03*
X98690001Y-43500000D03*
X101230001Y-40960000D03*
X101230001Y-43500000D03*
X103770001Y-40960000D03*
X103770001Y-43500000D03*
X106310001Y-40960000D03*
X106310001Y-43500000D03*
X108850001Y-40960000D03*
X108850001Y-43500000D03*
X111390001Y-40960000D03*
X111390001Y-43500000D03*
X113930001Y-40960000D03*
X113930001Y-43500000D03*
X116470001Y-40960000D03*
X116470001Y-43500000D03*
X119010001Y-40960000D03*
X119010001Y-43500000D03*
%TO.C,J1*%
X123290001Y-40960000D03*
X123290001Y-43500000D03*
X125830001Y-40960000D03*
X125830001Y-43500000D03*
X128370001Y-40960000D03*
X128370001Y-43500000D03*
X130910001Y-40960000D03*
X130910001Y-43500000D03*
X133450001Y-40960000D03*
X133450001Y-43500000D03*
X135990001Y-40960000D03*
X135990001Y-43500000D03*
X138530001Y-40960000D03*
X138530001Y-43500000D03*
X141070001Y-40960000D03*
X141070001Y-43500000D03*
X143610001Y-40960000D03*
X143610001Y-43500000D03*
X146150001Y-40960000D03*
X146150001Y-43500000D03*
X148690001Y-40960000D03*
X148690001Y-43500000D03*
X151230001Y-40960000D03*
X151230001Y-43500000D03*
X153770001Y-40960000D03*
X153770001Y-43500000D03*
X156310001Y-40960000D03*
X156310001Y-43500000D03*
X158850001Y-40960000D03*
X158850001Y-43500000D03*
X161390001Y-40960000D03*
X161390001Y-43500000D03*
X163930001Y-40960000D03*
X163930001Y-43500000D03*
X166470001Y-40960000D03*
X166470001Y-43500000D03*
X169010001Y-40960000D03*
X169010001Y-43500000D03*
M02*
