%TF.GenerationSoftware,KiCad,Pcbnew,9.0.3*%
%TF.CreationDate,2025-08-19T23:25:34-04:00*%
%TF.ProjectId,Mess-CharliePlexing2,4d657373-2d43-4686-9172-6c6965506c65,rev?*%
%TF.SameCoordinates,Original*%
%TF.FileFunction,Copper,L1,Top*%
%TF.FilePolarity,Positive*%
%FSLAX46Y46*%
G04 Gerber Fmt 4.6, Leading zero omitted, Abs format (unit mm)*
G04 Created by KiCad (PCBNEW 9.0.3) date 2025-08-19 23:25:34*
%MOMM*%
%LPD*%
G01*
G04 APERTURE LIST*
G04 Aperture macros list*
%AMRoundRect*
0 Rectangle with rounded corners*
0 $1 Rounding radius*
0 $2 $3 $4 $5 $6 $7 $8 $9 X,Y pos of 4 corners*
0 Add a 4 corners polygon primitive as box body*
4,1,4,$2,$3,$4,$5,$6,$7,$8,$9,$2,$3,0*
0 Add four circle primitives for the rounded corners*
1,1,$1+$1,$2,$3*
1,1,$1+$1,$4,$5*
1,1,$1+$1,$6,$7*
1,1,$1+$1,$8,$9*
0 Add four rect primitives between the rounded corners*
20,1,$1+$1,$2,$3,$4,$5,0*
20,1,$1+$1,$4,$5,$6,$7,0*
20,1,$1+$1,$6,$7,$8,$9,0*
20,1,$1+$1,$8,$9,$2,$3,0*%
G04 Aperture macros list end*
%TA.AperFunction,SMDPad,CuDef*%
%ADD10RoundRect,0.237500X0.237500X-0.287500X0.237500X0.287500X-0.237500X0.287500X-0.237500X-0.287500X0*%
%TD*%
%TA.AperFunction,SMDPad,CuDef*%
%ADD11RoundRect,0.237500X-0.237500X0.287500X-0.237500X-0.287500X0.237500X-0.287500X0.237500X0.287500X0*%
%TD*%
%TA.AperFunction,ComponentPad*%
%ADD12R,1.700000X1.700000*%
%TD*%
%TA.AperFunction,ComponentPad*%
%ADD13C,1.700000*%
%TD*%
%TA.AperFunction,ViaPad*%
%ADD14C,0.600000*%
%TD*%
%TA.AperFunction,Conductor*%
%ADD15C,0.500000*%
%TD*%
%TA.AperFunction,Conductor*%
%ADD16C,0.400000*%
%TD*%
%TA.AperFunction,Conductor*%
%ADD17C,0.200000*%
%TD*%
G04 APERTURE END LIST*
D10*
%TO.P,D427,1,K*%
%TO.N,R_1*%
X87310001Y-67275001D03*
%TO.P,D427,2,A*%
%TO.N,A_1*%
X87310001Y-65525003D03*
%TD*%
%TO.P,D403,1,K*%
%TO.N,A_2*%
X102730001Y-62650000D03*
%TO.P,D403,2,A*%
%TO.N,C_0*%
X102730001Y-60900002D03*
%TD*%
D11*
%TO.P,D406,1,K*%
%TO.N,C_0*%
X94959999Y-60900002D03*
%TO.P,D406,2,A*%
%TO.N,R_2*%
X94959999Y-62650000D03*
%TD*%
%TO.P,D546,1,K*%
%TO.N,C_2*%
X105420001Y-99800001D03*
%TO.P,D546,2,A*%
%TO.N,R_4*%
X105420001Y-101549999D03*
%TD*%
D10*
%TO.P,D583,1,K*%
%TO.N,A_5*%
X102840004Y-111449999D03*
%TO.P,D583,2,A*%
%TO.N,R_3*%
X102840004Y-109700001D03*
%TD*%
%TO.P,D369,1,K*%
%TO.N,C_6*%
X97700001Y-53225000D03*
%TO.P,D369,2,A*%
%TO.N,A_0*%
X97700001Y-51475002D03*
%TD*%
D11*
%TO.P,D574,1,K*%
%TO.N,A_3*%
X79490003Y-104800001D03*
%TO.P,D574,2,A*%
%TO.N,C_6*%
X79490003Y-106549999D03*
%TD*%
D10*
%TO.P,D395,1,K*%
%TO.N,A_6*%
X76980000Y-57874999D03*
%TO.P,D395,2,A*%
%TO.N,R_0*%
X76980000Y-56125001D03*
%TD*%
D11*
%TO.P,D354,1,K*%
%TO.N,A_0*%
X89929999Y-46818002D03*
%TO.P,D354,2,A*%
%TO.N,C_2*%
X89929999Y-48568000D03*
%TD*%
%TO.P,D608,1,K*%
%TO.N,A_4*%
X84700003Y-114600001D03*
%TO.P,D608,2,A*%
%TO.N,R_4*%
X84700003Y-116349999D03*
%TD*%
%TO.P,D552,1,K*%
%TO.N,C_2*%
X89900003Y-99800003D03*
%TO.P,D552,2,A*%
%TO.N,A_6*%
X89900003Y-101550001D03*
%TD*%
%TO.P,D414,1,K*%
%TO.N,C_0*%
X74390001Y-60900000D03*
%TO.P,D414,2,A*%
%TO.N,R_4*%
X74390001Y-62649998D03*
%TD*%
D10*
%TO.P,D351,1,K*%
%TO.N,R_2*%
X97700001Y-48568000D03*
%TO.P,D351,2,A*%
%TO.N,A_0*%
X97700001Y-46818002D03*
%TD*%
%TO.P,D591,1,K*%
%TO.N,A_7*%
X82120002Y-111449999D03*
%TO.P,D591,2,A*%
%TO.N,R_3*%
X82120002Y-109700001D03*
%TD*%
%TO.P,D483,1,K*%
%TO.N,A_4*%
X82110000Y-81600001D03*
%TO.P,D483,2,A*%
%TO.N,C_1*%
X82110000Y-79850003D03*
%TD*%
%TO.P,D639,1,K*%
%TO.N,A_7*%
X97660003Y-126349999D03*
%TO.P,D639,2,A*%
%TO.N,C_4*%
X97660003Y-124600001D03*
%TD*%
%TO.P,D657,1,K*%
%TO.N,C_6*%
X97680002Y-131249999D03*
%TO.P,D657,2,A*%
%TO.N,R_5*%
X97680002Y-129500001D03*
%TD*%
D11*
%TO.P,D524,1,K*%
%TO.N,R_2*%
X115790000Y-94700001D03*
%TO.P,D524,2,A*%
%TO.N,C_2*%
X115790000Y-96449999D03*
%TD*%
D10*
%TO.P,D581,1,K*%
%TO.N,C_4*%
X108020004Y-111449999D03*
%TO.P,D581,2,A*%
%TO.N,R_3*%
X108020004Y-109700001D03*
%TD*%
%TO.P,D391,1,K*%
%TO.N,A_5*%
X87340001Y-57874999D03*
%TO.P,D391,2,A*%
%TO.N,R_0*%
X87340001Y-56125001D03*
%TD*%
D11*
%TO.P,D660,1,K*%
%TO.N,R_5*%
X89990002Y-129500000D03*
%TO.P,D660,2,A*%
%TO.N,A_7*%
X89990002Y-131249998D03*
%TD*%
%TO.P,D412,1,K*%
%TO.N,C_0*%
X79570000Y-60900001D03*
%TO.P,D412,2,A*%
%TO.N,A_4*%
X79570000Y-62649999D03*
%TD*%
%TO.P,D382,1,K*%
%TO.N,R_0*%
X110550003Y-56142005D03*
%TO.P,D382,2,A*%
%TO.N,C_2*%
X110550003Y-57892003D03*
%TD*%
%TO.P,D570,1,K*%
%TO.N,A_3*%
X89890003Y-104800003D03*
%TO.P,D570,2,A*%
%TO.N,C_5*%
X89890003Y-106550001D03*
%TD*%
%TO.P,D458,1,K*%
%TO.N,R_1*%
X100290000Y-74950002D03*
%TO.P,D458,2,A*%
%TO.N,C_2*%
X100290000Y-76700000D03*
%TD*%
D10*
%TO.P,D557,1,K*%
%TO.N,R_7*%
X76950002Y-101550000D03*
%TO.P,D557,2,A*%
%TO.N,C_2*%
X76950002Y-99800002D03*
%TD*%
%TO.P,D535,1,K*%
%TO.N,A_6*%
X87260003Y-96450000D03*
%TO.P,D535,2,A*%
%TO.N,R_2*%
X87260003Y-94700002D03*
%TD*%
D11*
%TO.P,D488,1,K*%
%TO.N,C_1*%
X115790000Y-84800000D03*
%TO.P,D488,2,A*%
%TO.N,A_5*%
X115790000Y-86549998D03*
%TD*%
D10*
%TO.P,D529,1,K*%
%TO.N,C_4*%
X102800004Y-96450000D03*
%TO.P,D529,2,A*%
%TO.N,R_2*%
X102800004Y-94700002D03*
%TD*%
%TO.P,D621,1,K*%
%TO.N,C_7*%
X97700002Y-121349999D03*
%TO.P,D621,2,A*%
%TO.N,A_4*%
X97700002Y-119600001D03*
%TD*%
%TO.P,D517,1,K*%
%TO.N,C_6*%
X87300000Y-91449998D03*
%TO.P,D517,2,A*%
%TO.N,A_2*%
X87300000Y-89700000D03*
%TD*%
%TO.P,D649,1,K*%
%TO.N,C_6*%
X118380002Y-131249999D03*
%TO.P,D649,2,A*%
%TO.N,A_5*%
X118380002Y-129500001D03*
%TD*%
D11*
%TO.P,D606,1,K*%
%TO.N,C_3*%
X89880003Y-114600001D03*
%TO.P,D606,2,A*%
%TO.N,R_7*%
X89880003Y-116349999D03*
%TD*%
D10*
%TO.P,D635,1,K*%
%TO.N,A_6*%
X108020004Y-126349999D03*
%TO.P,D635,2,A*%
%TO.N,C_4*%
X108020004Y-124600001D03*
%TD*%
%TO.P,D599,1,K*%
%TO.N,A_6*%
X108010003Y-116349999D03*
%TO.P,D599,2,A*%
%TO.N,C_3*%
X108010003Y-114600001D03*
%TD*%
D11*
%TO.P,D410,1,K*%
%TO.N,C_0*%
X84599999Y-60900002D03*
%TO.P,D410,2,A*%
%TO.N,R_3*%
X84599999Y-62650000D03*
%TD*%
D10*
%TO.P,D663,1,K*%
%TO.N,A_7*%
X82200000Y-131199999D03*
%TO.P,D663,2,A*%
%TO.N,C_5*%
X82200000Y-129450001D03*
%TD*%
%TO.P,D421,1,K*%
%TO.N,R_6*%
X102850002Y-67275000D03*
%TO.P,D421,2,A*%
%TO.N,C_0*%
X102850002Y-65525002D03*
%TD*%
%TO.P,D453,1,K*%
%TO.N,C_7*%
X113209998Y-76699998D03*
%TO.P,D453,2,A*%
%TO.N,A_1*%
X113209998Y-74950000D03*
%TD*%
%TO.P,D595,1,K*%
%TO.N,A_5*%
X118380002Y-116349999D03*
%TO.P,D595,2,A*%
%TO.N,C_3*%
X118380002Y-114600001D03*
%TD*%
D11*
%TO.P,D669,1,K*%
%TO.N,C_6*%
X113200002Y-134400001D03*
%TO.P,D669,2,A*%
%TO.N,A_6*%
X113200002Y-136149999D03*
%TD*%
%TO.P,D370,1,K*%
%TO.N,A_0*%
X95109998Y-51475000D03*
%TO.P,D370,2,A*%
%TO.N,C_6*%
X95109998Y-53224998D03*
%TD*%
%TO.P,D384,1,K*%
%TO.N,R_0*%
X105370002Y-56142005D03*
%TO.P,D384,2,A*%
%TO.N,A_3*%
X105370002Y-57892003D03*
%TD*%
%TO.P,D622,1,K*%
%TO.N,A_4*%
X95110000Y-119600001D03*
%TO.P,D622,2,A*%
%TO.N,C_7*%
X95110000Y-121349999D03*
%TD*%
D10*
%TO.P,D353,1,K*%
%TO.N,C_2*%
X92520001Y-48568000D03*
%TO.P,D353,2,A*%
%TO.N,A_0*%
X92520001Y-46818002D03*
%TD*%
%TO.P,D559,1,K*%
%TO.N,R_3*%
X118380002Y-106549999D03*
%TO.P,D559,2,A*%
%TO.N,A_3*%
X118380002Y-104800001D03*
%TD*%
%TO.P,D589,1,K*%
%TO.N,C_6*%
X87300003Y-111449999D03*
%TO.P,D589,2,A*%
%TO.N,R_3*%
X87300003Y-109700001D03*
%TD*%
D11*
%TO.P,D632,1,K*%
%TO.N,R_4*%
X115790003Y-124600001D03*
%TO.P,D632,2,A*%
%TO.N,A_7*%
X115790003Y-126349999D03*
%TD*%
%TO.P,D664,1,K*%
%TO.N,C_5*%
X79610001Y-129450003D03*
%TO.P,D664,2,A*%
%TO.N,A_7*%
X79610001Y-131200001D03*
%TD*%
%TO.P,D462,1,K*%
%TO.N,R_1*%
X89930000Y-74950002D03*
%TO.P,D462,2,A*%
%TO.N,C_3*%
X89930000Y-76700000D03*
%TD*%
%TO.P,D650,1,K*%
%TO.N,A_5*%
X115790001Y-129500000D03*
%TO.P,D650,2,A*%
%TO.N,C_6*%
X115790001Y-131249998D03*
%TD*%
%TO.P,D366,1,K*%
%TO.N,A_0*%
X105470000Y-51475002D03*
%TO.P,D366,2,A*%
%TO.N,C_5*%
X105470000Y-53225000D03*
%TD*%
D10*
%TO.P,D443,1,K*%
%TO.N,R_5*%
X92475001Y-72024997D03*
%TO.P,D443,2,A*%
%TO.N,A_1*%
X92475001Y-70274999D03*
%TD*%
D11*
%TO.P,D658,1,K*%
%TO.N,R_5*%
X95090002Y-129500001D03*
%TO.P,D658,2,A*%
%TO.N,C_6*%
X95090002Y-131249999D03*
%TD*%
D10*
%TO.P,D615,1,K*%
%TO.N,R_6*%
X113190004Y-121349999D03*
%TO.P,D615,2,A*%
%TO.N,A_4*%
X113190004Y-119600001D03*
%TD*%
%TO.P,D345,1,K*%
%TO.N,C_0*%
X113239999Y-48568000D03*
%TO.P,D345,2,A*%
%TO.N,A_0*%
X113239999Y-46818002D03*
%TD*%
D11*
%TO.P,D677,1,K*%
%TO.N,C_7*%
X92480005Y-134400003D03*
%TO.P,D677,2,A*%
%TO.N,R_6*%
X92480005Y-136150001D03*
%TD*%
D10*
%TO.P,D495,1,K*%
%TO.N,A_7*%
X97660000Y-86549998D03*
%TO.P,D495,2,A*%
%TO.N,C_1*%
X97660000Y-84800000D03*
%TD*%
%TO.P,D437,1,K*%
%TO.N,C_3*%
X108014999Y-72024997D03*
%TO.P,D437,2,A*%
%TO.N,A_1*%
X108014999Y-70274999D03*
%TD*%
D11*
%TO.P,D624,1,K*%
%TO.N,R_4*%
X89890001Y-119600001D03*
%TO.P,D624,2,A*%
%TO.N,C_4*%
X89890001Y-121349999D03*
%TD*%
D10*
%TO.P,D605,1,K*%
%TO.N,R_7*%
X92470003Y-116349998D03*
%TO.P,D605,2,A*%
%TO.N,C_3*%
X92470003Y-114600000D03*
%TD*%
D11*
%TO.P,D644,1,K*%
%TO.N,A_5*%
X84800003Y-124600000D03*
%TO.P,D644,2,A*%
%TO.N,R_5*%
X84800003Y-126349998D03*
%TD*%
D10*
%TO.P,D349,1,K*%
%TO.N,C_1*%
X102880000Y-48568000D03*
%TO.P,D349,2,A*%
%TO.N,A_0*%
X102880000Y-46818002D03*
%TD*%
D11*
%TO.P,D346,1,K*%
%TO.N,A_0*%
X110650001Y-46818002D03*
%TO.P,D346,2,A*%
%TO.N,C_0*%
X110650001Y-48568000D03*
%TD*%
D10*
%TO.P,D467,1,K*%
%TO.N,A_5*%
X76980000Y-76700000D03*
%TO.P,D467,2,A*%
%TO.N,R_1*%
X76980000Y-74950002D03*
%TD*%
D11*
%TO.P,D452,1,K*%
%TO.N,A_1*%
X115800000Y-74950000D03*
%TO.P,D452,2,A*%
%TO.N,R_7*%
X115800000Y-76699998D03*
%TD*%
%TO.P,D508,1,K*%
%TO.N,A_2*%
X110610000Y-89700000D03*
%TO.P,D508,2,A*%
%TO.N,R_4*%
X110610000Y-91449998D03*
%TD*%
%TO.P,D440,1,K*%
%TO.N,A_1*%
X100245000Y-70274999D03*
%TO.P,D440,2,A*%
%TO.N,R_4*%
X100245000Y-72024997D03*
%TD*%
D10*
%TO.P,D623,1,K*%
%TO.N,C_4*%
X92480002Y-121349999D03*
%TO.P,D623,2,A*%
%TO.N,R_4*%
X92480002Y-119600001D03*
%TD*%
%TO.P,D503,1,K*%
%TO.N,R_3*%
X76940000Y-86549999D03*
%TO.P,D503,2,A*%
%TO.N,A_2*%
X76940000Y-84800001D03*
%TD*%
%TO.P,D401,1,K*%
%TO.N,C_7*%
X107909999Y-62650000D03*
%TO.P,D401,2,A*%
%TO.N,R_0*%
X107909999Y-60900002D03*
%TD*%
%TO.P,D363,1,K*%
%TO.N,R_5*%
X113270000Y-53225000D03*
%TO.P,D363,2,A*%
%TO.N,A_0*%
X113270000Y-51475002D03*
%TD*%
D11*
%TO.P,D364,1,K*%
%TO.N,A_0*%
X110680003Y-51475001D03*
%TO.P,D364,2,A*%
%TO.N,R_5*%
X110680003Y-53224999D03*
%TD*%
%TO.P,D510,1,K*%
%TO.N,A_2*%
X105430003Y-89700000D03*
%TO.P,D510,2,A*%
%TO.N,C_4*%
X105430003Y-91449998D03*
%TD*%
%TO.P,D578,1,K*%
%TO.N,A_3*%
X115790003Y-109700001D03*
%TO.P,D578,2,A*%
%TO.N,C_7*%
X115790003Y-111449999D03*
%TD*%
D10*
%TO.P,D531,1,K*%
%TO.N,A_5*%
X97620004Y-96450000D03*
%TO.P,D531,2,A*%
%TO.N,R_2*%
X97620004Y-94700002D03*
%TD*%
D11*
%TO.P,D448,1,K*%
%TO.N,A_1*%
X79524999Y-70274999D03*
%TO.P,D448,2,A*%
%TO.N,R_6*%
X79524999Y-72024997D03*
%TD*%
%TO.P,D500,1,K*%
%TO.N,A_2*%
X84709998Y-84799999D03*
%TO.P,D500,2,A*%
%TO.N,R_2*%
X84709998Y-86549997D03*
%TD*%
%TO.P,D636,1,K*%
%TO.N,C_4*%
X105430002Y-124600001D03*
%TO.P,D636,2,A*%
%TO.N,A_6*%
X105430002Y-126349999D03*
%TD*%
%TO.P,D402,1,K*%
%TO.N,R_0*%
X105320000Y-60900002D03*
%TO.P,D402,2,A*%
%TO.N,C_7*%
X105320000Y-62650000D03*
%TD*%
%TO.P,D496,1,K*%
%TO.N,C_1*%
X95070000Y-84800001D03*
%TO.P,D496,2,A*%
%TO.N,A_7*%
X95070000Y-86549999D03*
%TD*%
D10*
%TO.P,D405,1,K*%
%TO.N,R_2*%
X97550001Y-62650000D03*
%TO.P,D405,2,A*%
%TO.N,C_0*%
X97550001Y-60900002D03*
%TD*%
D11*
%TO.P,D588,1,K*%
%TO.N,R_3*%
X89890003Y-109700001D03*
%TO.P,D588,2,A*%
%TO.N,A_6*%
X89890003Y-111449999D03*
%TD*%
D10*
%TO.P,D573,1,K*%
%TO.N,C_6*%
X82080002Y-106549999D03*
%TO.P,D573,2,A*%
%TO.N,A_3*%
X82080002Y-104800001D03*
%TD*%
D11*
%TO.P,D494,1,K*%
%TO.N,C_1*%
X100250000Y-84800001D03*
%TO.P,D494,2,A*%
%TO.N,R_6*%
X100250000Y-86549999D03*
%TD*%
D10*
%TO.P,D678,1,K*%
%TO.N,R_6*%
X89890002Y-136149999D03*
%TO.P,D678,2,A*%
%TO.N,C_7*%
X89890002Y-134400001D03*
%TD*%
%TO.P,D565,1,K*%
%TO.N,C_4*%
X102840002Y-106550001D03*
%TO.P,D565,2,A*%
%TO.N,A_3*%
X102840002Y-104800003D03*
%TD*%
D11*
%TO.P,D518,1,K*%
%TO.N,A_2*%
X84710001Y-89700000D03*
%TO.P,D518,2,A*%
%TO.N,C_6*%
X84710001Y-91449998D03*
%TD*%
D10*
%TO.P,D545,1,K*%
%TO.N,R_4*%
X108010003Y-101549999D03*
%TO.P,D545,2,A*%
%TO.N,C_2*%
X108010003Y-99800001D03*
%TD*%
D11*
%TO.P,D600,1,K*%
%TO.N,C_3*%
X105420000Y-114599999D03*
%TO.P,D600,2,A*%
%TO.N,A_6*%
X105420000Y-116349997D03*
%TD*%
%TO.P,D390,1,K*%
%TO.N,R_0*%
X89929999Y-56125001D03*
%TO.P,D390,2,A*%
%TO.N,C_4*%
X89929999Y-57874999D03*
%TD*%
D10*
%TO.P,D525,1,K*%
%TO.N,C_3*%
X113200001Y-96449999D03*
%TO.P,D525,2,A*%
%TO.N,R_2*%
X113200001Y-94700001D03*
%TD*%
%TO.P,D659,1,K*%
%TO.N,A_7*%
X92580002Y-131249999D03*
%TO.P,D659,2,A*%
%TO.N,R_5*%
X92580002Y-129500001D03*
%TD*%
D11*
%TO.P,D634,1,K*%
%TO.N,R_4*%
X110610003Y-124600001D03*
%TO.P,D634,2,A*%
%TO.N,C_7*%
X110610003Y-126349999D03*
%TD*%
%TO.P,D560,1,K*%
%TO.N,A_3*%
X115790000Y-104800001D03*
%TO.P,D560,2,A*%
%TO.N,R_3*%
X115790000Y-106549999D03*
%TD*%
%TO.P,D416,1,K*%
%TO.N,C_0*%
X115800000Y-65525003D03*
%TO.P,D416,2,A*%
%TO.N,A_5*%
X115800000Y-67275001D03*
%TD*%
D10*
%TO.P,D561,1,K*%
%TO.N,C_3*%
X113200003Y-106550001D03*
%TO.P,D561,2,A*%
%TO.N,A_3*%
X113200003Y-104800003D03*
%TD*%
D11*
%TO.P,D378,1,K*%
%TO.N,R_0*%
X74390001Y-51475002D03*
%TO.P,D378,2,A*%
%TO.N,C_1*%
X74390001Y-53225000D03*
%TD*%
%TO.P,D400,1,K*%
%TO.N,R_0*%
X110500001Y-60900001D03*
%TO.P,D400,2,A*%
%TO.N,A_7*%
X110500001Y-62649999D03*
%TD*%
D10*
%TO.P,D445,1,K*%
%TO.N,C_5*%
X87295002Y-72024999D03*
%TO.P,D445,2,A*%
%TO.N,A_1*%
X87295002Y-70275001D03*
%TD*%
%TO.P,D379,1,K*%
%TO.N,A_2*%
X118320001Y-57892001D03*
%TO.P,D379,2,A*%
%TO.N,R_0*%
X118320001Y-56142003D03*
%TD*%
%TO.P,D684,1,K*%
%TO.N,R_7*%
X74350005Y-136150001D03*
%TO.P,D684,2,A*%
%TO.N,C_7*%
X74350005Y-134400003D03*
%TD*%
%TO.P,D569,1,K*%
%TO.N,C_5*%
X92480000Y-106549999D03*
%TO.P,D569,2,A*%
%TO.N,A_3*%
X92480000Y-104800001D03*
%TD*%
%TO.P,D643,1,K*%
%TO.N,R_5*%
X87390001Y-126349998D03*
%TO.P,D643,2,A*%
%TO.N,A_5*%
X87390001Y-124600000D03*
%TD*%
%TO.P,D365,1,K*%
%TO.N,C_5*%
X108070000Y-53225000D03*
%TO.P,D365,2,A*%
%TO.N,A_0*%
X108070000Y-51475002D03*
%TD*%
D11*
%TO.P,D502,1,K*%
%TO.N,A_2*%
X79529998Y-84799999D03*
%TO.P,D502,2,A*%
%TO.N,C_2*%
X79529998Y-86549997D03*
%TD*%
D10*
%TO.P,D679,1,K*%
%TO.N,R_7*%
X87300004Y-136150001D03*
%TO.P,D679,2,A*%
%TO.N,A_7*%
X87300004Y-134400003D03*
%TD*%
%TO.P,D407,1,K*%
%TO.N,A_3*%
X92370001Y-62650000D03*
%TO.P,D407,2,A*%
%TO.N,C_0*%
X92370001Y-60900002D03*
%TD*%
%TO.P,D505,1,K*%
%TO.N,C_3*%
X118380002Y-91449998D03*
%TO.P,D505,2,A*%
%TO.N,A_2*%
X118380002Y-89700000D03*
%TD*%
D11*
%TO.P,D536,1,K*%
%TO.N,R_2*%
X84670004Y-94700002D03*
%TO.P,D536,2,A*%
%TO.N,A_6*%
X84670004Y-96450000D03*
%TD*%
D10*
%TO.P,D670,1,K*%
%TO.N,A_6*%
X110610003Y-136149999D03*
%TO.P,D670,2,A*%
%TO.N,C_6*%
X110610003Y-134400001D03*
%TD*%
%TO.P,D461,1,K*%
%TO.N,C_3*%
X92519998Y-76700000D03*
%TO.P,D461,2,A*%
%TO.N,R_1*%
X92519998Y-74950002D03*
%TD*%
%TO.P,D661,1,K*%
%TO.N,C_7*%
X87380002Y-131200001D03*
%TO.P,D661,2,A*%
%TO.N,R_5*%
X87380002Y-129450003D03*
%TD*%
D11*
%TO.P,D444,1,K*%
%TO.N,A_1*%
X89884999Y-70274999D03*
%TO.P,D444,2,A*%
%TO.N,R_5*%
X89884999Y-72024997D03*
%TD*%
%TO.P,D590,1,K*%
%TO.N,R_3*%
X84710004Y-109700001D03*
%TO.P,D590,2,A*%
%TO.N,C_6*%
X84710004Y-111449999D03*
%TD*%
%TO.P,D456,1,K*%
%TO.N,R_1*%
X105439999Y-74950000D03*
%TO.P,D456,2,A*%
%TO.N,C_1*%
X105439999Y-76699998D03*
%TD*%
D10*
%TO.P,D457,1,K*%
%TO.N,C_2*%
X102850000Y-76699999D03*
%TO.P,D457,2,A*%
%TO.N,R_1*%
X102850000Y-74950001D03*
%TD*%
D11*
%TO.P,D472,1,K*%
%TO.N,R_1*%
X110619999Y-79850002D03*
%TO.P,D472,2,A*%
%TO.N,A_6*%
X110619999Y-81600000D03*
%TD*%
%TO.P,D478,1,K*%
%TO.N,R_1*%
X95080000Y-79850002D03*
%TO.P,D478,2,A*%
%TO.N,C_7*%
X95080000Y-81600000D03*
%TD*%
D10*
%TO.P,D497,1,K*%
%TO.N,R_7*%
X92480000Y-86549999D03*
%TO.P,D497,2,A*%
%TO.N,C_1*%
X92480000Y-84800001D03*
%TD*%
D11*
%TO.P,D630,1,K*%
%TO.N,R_4*%
X74350002Y-119600001D03*
%TO.P,D630,2,A*%
%TO.N,C_6*%
X74350002Y-121349999D03*
%TD*%
%TO.P,D675,1,K*%
%TO.N,C_6*%
X97660005Y-134400003D03*
%TO.P,D675,2,A*%
%TO.N,R_6*%
X97660005Y-136150001D03*
%TD*%
%TO.P,D460,1,K*%
%TO.N,R_1*%
X95110000Y-74950002D03*
%TO.P,D460,2,A*%
%TO.N,A_3*%
X95110000Y-76700000D03*
%TD*%
%TO.P,D618,1,K*%
%TO.N,A_4*%
X105420003Y-119600000D03*
%TO.P,D618,2,A*%
%TO.N,C_6*%
X105420003Y-121349998D03*
%TD*%
%TO.P,D562,1,K*%
%TO.N,A_3*%
X110610000Y-104800001D03*
%TO.P,D562,2,A*%
%TO.N,C_3*%
X110610000Y-106549999D03*
%TD*%
%TO.P,D422,1,K*%
%TO.N,C_0*%
X100260002Y-65525003D03*
%TO.P,D422,2,A*%
%TO.N,R_6*%
X100260002Y-67275001D03*
%TD*%
D10*
%TO.P,D541,1,K*%
%TO.N,C_7*%
X118370002Y-101549999D03*
%TO.P,D541,2,A*%
%TO.N,R_2*%
X118370002Y-99800001D03*
%TD*%
%TO.P,D469,1,K*%
%TO.N,C_5*%
X118390000Y-81600000D03*
%TO.P,D469,2,A*%
%TO.N,R_1*%
X118390000Y-79850002D03*
%TD*%
D11*
%TO.P,D528,1,K*%
%TO.N,R_2*%
X105390001Y-94700000D03*
%TO.P,D528,2,A*%
%TO.N,A_4*%
X105390001Y-96449998D03*
%TD*%
%TO.P,D582,1,K*%
%TO.N,R_3*%
X105430004Y-109700000D03*
%TO.P,D582,2,A*%
%TO.N,C_4*%
X105430004Y-111449998D03*
%TD*%
D10*
%TO.P,D431,1,K*%
%TO.N,R_2*%
X76950002Y-67275001D03*
%TO.P,D431,2,A*%
%TO.N,A_1*%
X76950002Y-65525003D03*
%TD*%
D11*
%TO.P,D596,1,K*%
%TO.N,C_3*%
X115780002Y-114600001D03*
%TO.P,D596,2,A*%
%TO.N,A_5*%
X115780002Y-116349999D03*
%TD*%
D10*
%TO.P,D549,1,K*%
%TO.N,R_5*%
X97650001Y-101549997D03*
%TO.P,D549,2,A*%
%TO.N,C_2*%
X97650001Y-99799999D03*
%TD*%
%TO.P,D676,1,K*%
%TO.N,R_6*%
X95070002Y-136149999D03*
%TO.P,D676,2,A*%
%TO.N,C_6*%
X95070002Y-134400001D03*
%TD*%
D11*
%TO.P,D564,1,K*%
%TO.N,A_3*%
X105430002Y-104800002D03*
%TO.P,D564,2,A*%
%TO.N,R_4*%
X105430002Y-106550000D03*
%TD*%
%TO.P,D504,1,K*%
%TO.N,A_2*%
X74290000Y-84800000D03*
%TO.P,D504,2,A*%
%TO.N,R_3*%
X74290000Y-86549998D03*
%TD*%
%TO.P,D620,1,K*%
%TO.N,A_4*%
X100290000Y-119600001D03*
%TO.P,D620,2,A*%
%TO.N,R_7*%
X100290000Y-121349999D03*
%TD*%
%TO.P,D532,1,K*%
%TO.N,R_2*%
X95030002Y-94700002D03*
%TO.P,D532,2,A*%
%TO.N,A_5*%
X95030002Y-96450000D03*
%TD*%
%TO.P,D654,1,K*%
%TO.N,A_5*%
X105430003Y-129500001D03*
%TO.P,D654,2,A*%
%TO.N,C_7*%
X105430003Y-131249999D03*
%TD*%
D10*
%TO.P,D447,1,K*%
%TO.N,R_6*%
X82115002Y-72024999D03*
%TO.P,D447,2,A*%
%TO.N,A_1*%
X82115002Y-70275001D03*
%TD*%
%TO.P,D371,1,K*%
%TO.N,R_7*%
X92520002Y-53224999D03*
%TO.P,D371,2,A*%
%TO.N,A_0*%
X92520002Y-51475001D03*
%TD*%
D11*
%TO.P,D604,1,K*%
%TO.N,C_3*%
X95060002Y-114600001D03*
%TO.P,D604,2,A*%
%TO.N,A_7*%
X95060002Y-116349999D03*
%TD*%
%TO.P,D512,1,K*%
%TO.N,A_2*%
X100250002Y-89700000D03*
%TO.P,D512,2,A*%
%TO.N,R_5*%
X100250002Y-91449998D03*
%TD*%
D10*
%TO.P,D631,1,K*%
%TO.N,A_7*%
X118380002Y-126349999D03*
%TO.P,D631,2,A*%
%TO.N,R_4*%
X118380002Y-124600001D03*
%TD*%
%TO.P,D547,1,K*%
%TO.N,A_5*%
X102830003Y-101549999D03*
%TO.P,D547,2,A*%
%TO.N,C_2*%
X102830003Y-99800001D03*
%TD*%
D11*
%TO.P,D671,1,K*%
%TO.N,R_7*%
X108020004Y-134400002D03*
%TO.P,D671,2,A*%
%TO.N,A_6*%
X108020004Y-136150000D03*
%TD*%
D10*
%TO.P,D515,1,K*%
%TO.N,R_6*%
X92480000Y-91449998D03*
%TO.P,D515,2,A*%
%TO.N,A_2*%
X92480000Y-89700000D03*
%TD*%
D11*
%TO.P,D446,1,K*%
%TO.N,A_1*%
X84704999Y-70274999D03*
%TO.P,D446,2,A*%
%TO.N,C_5*%
X84704999Y-72024997D03*
%TD*%
D10*
%TO.P,D674,1,K*%
%TO.N,A_6*%
X100250005Y-136150000D03*
%TO.P,D674,2,A*%
%TO.N,C_7*%
X100250005Y-134400002D03*
%TD*%
D11*
%TO.P,D344,1,K*%
%TO.N,A_0*%
X115829999Y-46818001D03*
%TO.P,D344,2,A*%
%TO.N,R_0*%
X115829999Y-48567999D03*
%TD*%
%TO.P,D612,1,K*%
%TO.N,A_4*%
X74340002Y-114600001D03*
%TO.P,D612,2,A*%
%TO.N,R_5*%
X74340002Y-116349999D03*
%TD*%
D10*
%TO.P,D459,1,K*%
%TO.N,A_3*%
X97699999Y-76700000D03*
%TO.P,D459,2,A*%
%TO.N,R_1*%
X97699999Y-74950002D03*
%TD*%
D11*
%TO.P,D474,1,K*%
%TO.N,R_1*%
X105440000Y-79850002D03*
%TO.P,D474,2,A*%
%TO.N,C_6*%
X105440000Y-81600000D03*
%TD*%
%TO.P,D580,1,K*%
%TO.N,R_3*%
X110610003Y-109700001D03*
%TO.P,D580,2,A*%
%TO.N,C_3*%
X110610003Y-111449999D03*
%TD*%
%TO.P,D408,1,K*%
%TO.N,C_0*%
X89779999Y-60900002D03*
%TO.P,D408,2,A*%
%TO.N,A_3*%
X89779999Y-62650000D03*
%TD*%
D10*
%TO.P,D513,1,K*%
%TO.N,C_5*%
X97660000Y-91449998D03*
%TO.P,D513,2,A*%
%TO.N,A_2*%
X97660000Y-89700000D03*
%TD*%
D11*
%TO.P,D666,1,K*%
%TO.N,C_5*%
X74390002Y-129425000D03*
%TO.P,D666,2,A*%
%TO.N,R_7*%
X74390002Y-131174998D03*
%TD*%
%TO.P,D683,1,K*%
%TO.N,C_7*%
X76940002Y-134400001D03*
%TO.P,D683,2,A*%
%TO.N,R_7*%
X76940002Y-136149999D03*
%TD*%
D10*
%TO.P,D383,1,K*%
%TO.N,A_3*%
X107960004Y-57892003D03*
%TO.P,D383,2,A*%
%TO.N,R_0*%
X107960004Y-56142005D03*
%TD*%
%TO.P,D653,1,K*%
%TO.N,C_7*%
X108020001Y-131249999D03*
%TO.P,D653,2,A*%
%TO.N,A_5*%
X108020001Y-129500001D03*
%TD*%
%TO.P,D597,1,K*%
%TO.N,R_5*%
X113190002Y-116349999D03*
%TO.P,D597,2,A*%
%TO.N,C_3*%
X113190002Y-114600001D03*
%TD*%
D11*
%TO.P,D432,1,K*%
%TO.N,A_1*%
X74360000Y-65525003D03*
%TO.P,D432,2,A*%
%TO.N,R_2*%
X74360000Y-67275001D03*
%TD*%
%TO.P,D380,1,K*%
%TO.N,R_0*%
X115730003Y-56142005D03*
%TO.P,D380,2,A*%
%TO.N,A_2*%
X115730003Y-57892003D03*
%TD*%
%TO.P,D554,1,K*%
%TO.N,C_2*%
X84720003Y-99800003D03*
%TO.P,D554,2,A*%
%TO.N,R_6*%
X84720003Y-101550001D03*
%TD*%
D10*
%TO.P,D682,1,K*%
%TO.N,A_7*%
X79530004Y-136149999D03*
%TO.P,D682,2,A*%
%TO.N,C_7*%
X79530004Y-134400001D03*
%TD*%
%TO.P,D507,1,K*%
%TO.N,R_4*%
X113200002Y-91449997D03*
%TO.P,D507,2,A*%
%TO.N,A_2*%
X113200002Y-89699999D03*
%TD*%
%TO.P,D359,1,K*%
%TO.N,R_4*%
X76980000Y-48568000D03*
%TO.P,D359,2,A*%
%TO.N,A_0*%
X76980000Y-46818002D03*
%TD*%
D11*
%TO.P,D482,1,K*%
%TO.N,C_1*%
X84699999Y-79850003D03*
%TO.P,D482,2,A*%
%TO.N,R_3*%
X84699999Y-81600001D03*
%TD*%
D10*
%TO.P,D563,1,K*%
%TO.N,R_4*%
X108020001Y-106549999D03*
%TO.P,D563,2,A*%
%TO.N,A_3*%
X108020001Y-104800001D03*
%TD*%
D11*
%TO.P,D594,1,K*%
%TO.N,R_3*%
X74350003Y-109700001D03*
%TO.P,D594,2,A*%
%TO.N,C_7*%
X74350003Y-111449999D03*
%TD*%
D10*
%TO.P,D475,1,K*%
%TO.N,A_7*%
X102850000Y-81599999D03*
%TO.P,D475,2,A*%
%TO.N,R_1*%
X102850000Y-79850001D03*
%TD*%
D11*
%TO.P,D426,1,K*%
%TO.N,C_0*%
X89900000Y-65525001D03*
%TO.P,D426,2,A*%
%TO.N,R_7*%
X89900000Y-67274999D03*
%TD*%
D10*
%TO.P,D481,1,K*%
%TO.N,R_3*%
X87290000Y-81600000D03*
%TO.P,D481,2,A*%
%TO.N,C_1*%
X87290000Y-79850002D03*
%TD*%
D11*
%TO.P,D598,1,K*%
%TO.N,C_3*%
X110600001Y-114600001D03*
%TO.P,D598,2,A*%
%TO.N,R_5*%
X110600001Y-116349999D03*
%TD*%
D10*
%TO.P,D543,1,K*%
%TO.N,A_4*%
X113190001Y-101549998D03*
%TO.P,D543,2,A*%
%TO.N,C_2*%
X113190001Y-99800000D03*
%TD*%
%TO.P,D637,1,K*%
%TO.N,R_6*%
X102840004Y-126349999D03*
%TO.P,D637,2,A*%
%TO.N,C_4*%
X102840004Y-124600001D03*
%TD*%
%TO.P,D619,1,K*%
%TO.N,R_7*%
X102880002Y-121349999D03*
%TO.P,D619,2,A*%
%TO.N,A_4*%
X102880002Y-119600001D03*
%TD*%
D11*
%TO.P,D350,1,K*%
%TO.N,A_0*%
X100290000Y-46818002D03*
%TO.P,D350,2,A*%
%TO.N,C_1*%
X100290000Y-48568000D03*
%TD*%
%TO.P,D392,1,K*%
%TO.N,R_0*%
X84749999Y-56125001D03*
%TO.P,D392,2,A*%
%TO.N,A_5*%
X84749999Y-57874999D03*
%TD*%
D10*
%TO.P,D527,1,K*%
%TO.N,A_4*%
X107980002Y-96449999D03*
%TO.P,D527,2,A*%
%TO.N,R_2*%
X107980002Y-94700001D03*
%TD*%
%TO.P,D625,1,K*%
%TO.N,C_5*%
X87300002Y-121349999D03*
%TO.P,D625,2,A*%
%TO.N,R_4*%
X87300002Y-119600001D03*
%TD*%
%TO.P,D601,1,K*%
%TO.N,R_6*%
X102830002Y-116349999D03*
%TO.P,D601,2,A*%
%TO.N,C_3*%
X102830002Y-114600001D03*
%TD*%
D11*
%TO.P,D662,1,K*%
%TO.N,R_5*%
X84790000Y-129450003D03*
%TO.P,D662,2,A*%
%TO.N,C_7*%
X84790000Y-131200001D03*
%TD*%
%TO.P,D614,1,K*%
%TO.N,A_4*%
X115780002Y-119600001D03*
%TO.P,D614,2,A*%
%TO.N,C_5*%
X115780002Y-121349999D03*
%TD*%
D10*
%TO.P,D499,1,K*%
%TO.N,R_2*%
X87300001Y-86549999D03*
%TO.P,D499,2,A*%
%TO.N,A_2*%
X87300001Y-84800001D03*
%TD*%
%TO.P,D477,1,K*%
%TO.N,C_7*%
X97669998Y-81600000D03*
%TO.P,D477,2,A*%
%TO.N,R_1*%
X97669998Y-79850002D03*
%TD*%
%TO.P,D413,1,K*%
%TO.N,R_4*%
X76979999Y-62649998D03*
%TO.P,D413,2,A*%
%TO.N,C_0*%
X76979999Y-60900000D03*
%TD*%
D11*
%TO.P,D484,1,K*%
%TO.N,C_1*%
X79519997Y-79850001D03*
%TO.P,D484,2,A*%
%TO.N,A_4*%
X79519997Y-81599999D03*
%TD*%
D10*
%TO.P,D511,1,K*%
%TO.N,R_5*%
X102840001Y-91449998D03*
%TO.P,D511,2,A*%
%TO.N,A_2*%
X102840001Y-89700000D03*
%TD*%
%TO.P,D435,1,K*%
%TO.N,R_3*%
X113195001Y-72024999D03*
%TO.P,D435,2,A*%
%TO.N,A_1*%
X113195001Y-70275001D03*
%TD*%
%TO.P,D613,1,K*%
%TO.N,C_5*%
X118370004Y-121349999D03*
%TO.P,D613,2,A*%
%TO.N,A_4*%
X118370004Y-119600001D03*
%TD*%
D11*
%TO.P,D530,1,K*%
%TO.N,R_2*%
X100210004Y-94700000D03*
%TO.P,D530,2,A*%
%TO.N,C_4*%
X100210004Y-96449998D03*
%TD*%
D10*
%TO.P,D571,1,K*%
%TO.N,R_6*%
X87300000Y-106549999D03*
%TO.P,D571,2,A*%
%TO.N,A_3*%
X87300000Y-104800001D03*
%TD*%
D11*
%TO.P,D476,1,K*%
%TO.N,R_1*%
X100260000Y-79850002D03*
%TO.P,D476,2,A*%
%TO.N,A_7*%
X100260000Y-81600000D03*
%TD*%
%TO.P,D352,1,K*%
%TO.N,A_0*%
X95110001Y-46818001D03*
%TO.P,D352,2,A*%
%TO.N,R_2*%
X95110001Y-48567999D03*
%TD*%
D10*
%TO.P,D519,1,K*%
%TO.N,R_7*%
X82120002Y-91449998D03*
%TO.P,D519,2,A*%
%TO.N,A_2*%
X82120002Y-89700000D03*
%TD*%
%TO.P,D501,1,K*%
%TO.N,C_2*%
X82120001Y-86549999D03*
%TO.P,D501,2,A*%
%TO.N,A_2*%
X82120001Y-84800001D03*
%TD*%
D11*
%TO.P,D638,1,K*%
%TO.N,C_4*%
X100250002Y-124600001D03*
%TO.P,D638,2,A*%
%TO.N,R_6*%
X100250002Y-126349999D03*
%TD*%
%TO.P,D450,1,K*%
%TO.N,A_1*%
X74345001Y-70275000D03*
%TO.P,D450,2,A*%
%TO.N,C_6*%
X74345001Y-72024998D03*
%TD*%
D10*
%TO.P,D485,1,K*%
%TO.N,R_4*%
X76930000Y-81600001D03*
%TO.P,D485,2,A*%
%TO.N,C_1*%
X76930000Y-79850003D03*
%TD*%
%TO.P,D471,1,K*%
%TO.N,A_6*%
X113209999Y-81600000D03*
%TO.P,D471,2,A*%
%TO.N,R_1*%
X113209999Y-79850002D03*
%TD*%
%TO.P,D533,1,K*%
%TO.N,C_5*%
X92440002Y-96449998D03*
%TO.P,D533,2,A*%
%TO.N,R_2*%
X92440002Y-94700000D03*
%TD*%
D11*
%TO.P,D418,1,K*%
%TO.N,C_0*%
X110620001Y-65525003D03*
%TO.P,D418,2,A*%
%TO.N,R_5*%
X110620001Y-67275001D03*
%TD*%
%TO.P,D572,1,K*%
%TO.N,A_3*%
X84710001Y-104800001D03*
%TO.P,D572,2,A*%
%TO.N,R_6*%
X84710001Y-106549999D03*
%TD*%
%TO.P,D680,1,K*%
%TO.N,A_7*%
X84710004Y-134400002D03*
%TO.P,D680,2,A*%
%TO.N,R_7*%
X84710004Y-136150000D03*
%TD*%
%TO.P,D526,1,K*%
%TO.N,R_2*%
X110610002Y-94700001D03*
%TO.P,D526,2,A*%
%TO.N,C_3*%
X110610002Y-96449999D03*
%TD*%
D10*
%TO.P,D609,1,K*%
%TO.N,C_4*%
X82110000Y-116349997D03*
%TO.P,D609,2,A*%
%TO.N,A_4*%
X82110000Y-114599999D03*
%TD*%
D11*
%TO.P,D430,1,K*%
%TO.N,A_1*%
X79540002Y-65525002D03*
%TO.P,D430,2,A*%
%TO.N,C_1*%
X79540002Y-67275000D03*
%TD*%
D10*
%TO.P,D575,1,K*%
%TO.N,R_7*%
X76900001Y-106549999D03*
%TO.P,D575,2,A*%
%TO.N,A_3*%
X76900001Y-104800001D03*
%TD*%
D11*
%TO.P,D486,1,K*%
%TO.N,C_1*%
X74339997Y-79850001D03*
%TO.P,D486,2,A*%
%TO.N,R_4*%
X74339997Y-81599999D03*
%TD*%
%TO.P,D534,1,K*%
%TO.N,R_2*%
X89850003Y-94700002D03*
%TO.P,D534,2,A*%
%TO.N,C_5*%
X89850003Y-96450000D03*
%TD*%
D10*
%TO.P,D611,1,K*%
%TO.N,R_5*%
X76930002Y-116349998D03*
%TO.P,D611,2,A*%
%TO.N,A_4*%
X76930002Y-114600000D03*
%TD*%
D11*
%TO.P,D522,1,K*%
%TO.N,A_2*%
X74350000Y-89700000D03*
%TO.P,D522,2,A*%
%TO.N,C_7*%
X74350000Y-91449998D03*
%TD*%
D10*
%TO.P,D347,1,K*%
%TO.N,R_1*%
X108059999Y-48568000D03*
%TO.P,D347,2,A*%
%TO.N,A_0*%
X108059999Y-46818002D03*
%TD*%
%TO.P,D633,1,K*%
%TO.N,C_7*%
X113200005Y-126349999D03*
%TO.P,D633,2,A*%
%TO.N,R_4*%
X113200005Y-124600001D03*
%TD*%
D11*
%TO.P,D558,1,K*%
%TO.N,C_2*%
X74360002Y-99800003D03*
%TO.P,D558,2,A*%
%TO.N,R_7*%
X74360002Y-101550001D03*
%TD*%
D10*
%TO.P,D672,1,K*%
%TO.N,A_6*%
X105430004Y-136150001D03*
%TO.P,D672,2,A*%
%TO.N,R_7*%
X105430004Y-134400003D03*
%TD*%
D11*
%TO.P,D540,1,K*%
%TO.N,R_2*%
X74310002Y-94700000D03*
%TO.P,D540,2,A*%
%TO.N,A_7*%
X74310002Y-96449998D03*
%TD*%
D10*
%TO.P,D521,1,K*%
%TO.N,C_7*%
X76940002Y-91449998D03*
%TO.P,D521,2,A*%
%TO.N,A_2*%
X76940002Y-89700000D03*
%TD*%
%TO.P,D399,1,K*%
%TO.N,A_7*%
X113089999Y-62650000D03*
%TO.P,D399,2,A*%
%TO.N,R_0*%
X113089999Y-60900002D03*
%TD*%
D11*
%TO.P,D468,1,K*%
%TO.N,R_1*%
X74389998Y-74950002D03*
%TO.P,D468,2,A*%
%TO.N,A_5*%
X74389998Y-76700000D03*
%TD*%
D10*
%TO.P,D487,1,K*%
%TO.N,A_5*%
X118380000Y-86549999D03*
%TO.P,D487,2,A*%
%TO.N,C_1*%
X118380000Y-84800001D03*
%TD*%
D11*
%TO.P,D396,1,K*%
%TO.N,R_0*%
X74390001Y-56125001D03*
%TO.P,D396,2,A*%
%TO.N,A_6*%
X74390001Y-57874999D03*
%TD*%
%TO.P,D652,1,K*%
%TO.N,A_5*%
X110610003Y-129500001D03*
%TO.P,D652,2,A*%
%TO.N,R_7*%
X110610003Y-131249999D03*
%TD*%
%TO.P,D640,1,K*%
%TO.N,C_4*%
X95070002Y-124600001D03*
%TO.P,D640,2,A*%
%TO.N,A_7*%
X95070002Y-126349999D03*
%TD*%
%TO.P,D386,1,K*%
%TO.N,R_0*%
X100190001Y-56142003D03*
%TO.P,D386,2,A*%
%TO.N,C_3*%
X100190001Y-57892001D03*
%TD*%
%TO.P,D466,1,K*%
%TO.N,R_1*%
X79569999Y-74950002D03*
%TO.P,D466,2,A*%
%TO.N,C_4*%
X79569999Y-76700000D03*
%TD*%
%TO.P,D428,1,K*%
%TO.N,A_1*%
X84720001Y-65525003D03*
%TO.P,D428,2,A*%
%TO.N,R_1*%
X84720001Y-67275001D03*
%TD*%
D10*
%TO.P,D555,1,K*%
%TO.N,A_7*%
X82130000Y-101549999D03*
%TO.P,D555,2,A*%
%TO.N,C_2*%
X82130000Y-99800001D03*
%TD*%
D11*
%TO.P,D388,1,K*%
%TO.N,R_0*%
X95010003Y-56142004D03*
%TO.P,D388,2,A*%
%TO.N,A_4*%
X95010003Y-57892002D03*
%TD*%
D10*
%TO.P,D373,1,K*%
%TO.N,C_7*%
X87340000Y-53225000D03*
%TO.P,D373,2,A*%
%TO.N,A_0*%
X87340000Y-51475002D03*
%TD*%
%TO.P,D423,1,K*%
%TO.N,A_7*%
X97670002Y-67274999D03*
%TO.P,D423,2,A*%
%TO.N,C_0*%
X97670002Y-65525001D03*
%TD*%
%TO.P,D381,1,K*%
%TO.N,C_2*%
X113140003Y-57892002D03*
%TO.P,D381,2,A*%
%TO.N,R_0*%
X113140003Y-56142004D03*
%TD*%
%TO.P,D645,1,K*%
%TO.N,C_5*%
X82210003Y-126349999D03*
%TO.P,D645,2,A*%
%TO.N,A_5*%
X82210003Y-124600001D03*
%TD*%
%TO.P,D449,1,K*%
%TO.N,C_6*%
X76935000Y-72024997D03*
%TO.P,D449,2,A*%
%TO.N,A_1*%
X76935000Y-70274999D03*
%TD*%
%TO.P,D419,1,K*%
%TO.N,A_6*%
X108030001Y-67275001D03*
%TO.P,D419,2,A*%
%TO.N,C_0*%
X108030001Y-65525003D03*
%TD*%
D11*
%TO.P,D358,1,K*%
%TO.N,A_0*%
X79570000Y-46818002D03*
%TO.P,D358,2,A*%
%TO.N,C_3*%
X79570000Y-48568000D03*
%TD*%
%TO.P,D544,1,K*%
%TO.N,C_2*%
X110600003Y-99800000D03*
%TO.P,D544,2,A*%
%TO.N,A_4*%
X110600003Y-101549998D03*
%TD*%
%TO.P,D356,1,K*%
%TO.N,A_0*%
X84749999Y-46818002D03*
%TO.P,D356,2,A*%
%TO.N,R_3*%
X84749999Y-48568000D03*
%TD*%
D10*
%TO.P,D473,1,K*%
%TO.N,C_6*%
X108029999Y-81600000D03*
%TO.P,D473,2,A*%
%TO.N,R_1*%
X108029999Y-79850002D03*
%TD*%
%TO.P,D567,1,K*%
%TO.N,R_5*%
X97660000Y-106549999D03*
%TO.P,D567,2,A*%
%TO.N,A_3*%
X97660000Y-104800001D03*
%TD*%
D11*
%TO.P,D646,1,K*%
%TO.N,A_5*%
X79620001Y-124600001D03*
%TO.P,D646,2,A*%
%TO.N,C_5*%
X79620001Y-126349999D03*
%TD*%
%TO.P,D667,1,K*%
%TO.N,R_6*%
X118380002Y-134400001D03*
%TO.P,D667,2,A*%
%TO.N,A_6*%
X118380002Y-136149999D03*
%TD*%
%TO.P,D548,1,K*%
%TO.N,C_2*%
X100240001Y-99800001D03*
%TO.P,D548,2,A*%
%TO.N,A_5*%
X100240001Y-101549999D03*
%TD*%
D10*
%TO.P,D377,1,K*%
%TO.N,C_1*%
X76979998Y-53224998D03*
%TO.P,D377,2,A*%
%TO.N,R_0*%
X76979998Y-51475000D03*
%TD*%
D11*
%TO.P,D424,1,K*%
%TO.N,C_0*%
X95080000Y-65525001D03*
%TO.P,D424,2,A*%
%TO.N,A_7*%
X95080000Y-67274999D03*
%TD*%
D10*
%TO.P,D385,1,K*%
%TO.N,C_3*%
X102780004Y-57892003D03*
%TO.P,D385,2,A*%
%TO.N,R_0*%
X102780004Y-56142005D03*
%TD*%
D11*
%TO.P,D516,1,K*%
%TO.N,A_2*%
X89890001Y-89700000D03*
%TO.P,D516,2,A*%
%TO.N,R_6*%
X89890001Y-91449998D03*
%TD*%
D10*
%TO.P,D387,1,K*%
%TO.N,A_4*%
X97600003Y-57892003D03*
%TO.P,D387,2,A*%
%TO.N,R_0*%
X97600003Y-56142005D03*
%TD*%
D11*
%TO.P,D681,1,K*%
%TO.N,C_7*%
X82120004Y-134400003D03*
%TO.P,D681,2,A*%
%TO.N,A_7*%
X82120004Y-136150001D03*
%TD*%
%TO.P,D374,1,K*%
%TO.N,A_0*%
X84750001Y-51475001D03*
%TO.P,D374,2,A*%
%TO.N,C_7*%
X84750001Y-53224999D03*
%TD*%
%TO.P,D616,1,K*%
%TO.N,A_4*%
X110600001Y-119599999D03*
%TO.P,D616,2,A*%
%TO.N,R_6*%
X110600001Y-121349997D03*
%TD*%
D10*
%TO.P,D441,1,K*%
%TO.N,C_4*%
X97655001Y-72024998D03*
%TO.P,D441,2,A*%
%TO.N,A_1*%
X97655001Y-70275000D03*
%TD*%
D11*
%TO.P,D556,1,K*%
%TO.N,C_2*%
X79540001Y-99800001D03*
%TO.P,D556,2,A*%
%TO.N,A_7*%
X79540001Y-101549999D03*
%TD*%
D10*
%TO.P,D603,1,K*%
%TO.N,A_7*%
X97650002Y-116349999D03*
%TO.P,D603,2,A*%
%TO.N,C_3*%
X97650002Y-114600001D03*
%TD*%
%TO.P,D553,1,K*%
%TO.N,R_6*%
X87310000Y-101549999D03*
%TO.P,D553,2,A*%
%TO.N,C_2*%
X87310000Y-99800001D03*
%TD*%
%TO.P,D425,1,K*%
%TO.N,R_7*%
X92490000Y-67275001D03*
%TO.P,D425,2,A*%
%TO.N,C_0*%
X92490000Y-65525003D03*
%TD*%
D11*
%TO.P,D464,1,K*%
%TO.N,R_1*%
X84749999Y-74950002D03*
%TO.P,D464,2,A*%
%TO.N,A_4*%
X84749999Y-76700000D03*
%TD*%
D10*
%TO.P,D607,1,K*%
%TO.N,R_4*%
X87290000Y-116349997D03*
%TO.P,D607,2,A*%
%TO.N,A_4*%
X87290000Y-114599999D03*
%TD*%
%TO.P,D651,1,K*%
%TO.N,R_7*%
X113200003Y-131249998D03*
%TO.P,D651,2,A*%
%TO.N,A_5*%
X113200003Y-129500000D03*
%TD*%
%TO.P,D357,1,K*%
%TO.N,C_3*%
X82160000Y-48568000D03*
%TO.P,D357,2,A*%
%TO.N,A_0*%
X82160000Y-46818002D03*
%TD*%
D11*
%TO.P,D656,1,K*%
%TO.N,R_5*%
X100290002Y-129499999D03*
%TO.P,D656,2,A*%
%TO.N,C_5*%
X100290002Y-131249997D03*
%TD*%
%TO.P,D470,1,K*%
%TO.N,R_1*%
X115799998Y-79850002D03*
%TO.P,D470,2,A*%
%TO.N,C_5*%
X115799998Y-81600000D03*
%TD*%
%TO.P,D568,1,K*%
%TO.N,A_3*%
X95070003Y-104800003D03*
%TO.P,D568,2,A*%
%TO.N,R_5*%
X95070003Y-106550001D03*
%TD*%
D10*
%TO.P,D439,1,K*%
%TO.N,R_4*%
X102834999Y-72024997D03*
%TO.P,D439,2,A*%
%TO.N,A_1*%
X102834999Y-70274999D03*
%TD*%
%TO.P,D367,1,K*%
%TO.N,R_6*%
X102879999Y-53224999D03*
%TO.P,D367,2,A*%
%TO.N,A_0*%
X102879999Y-51475001D03*
%TD*%
%TO.P,D417,1,K*%
%TO.N,R_5*%
X113210000Y-67274999D03*
%TO.P,D417,2,A*%
%TO.N,C_0*%
X113210000Y-65525001D03*
%TD*%
%TO.P,D465,1,K*%
%TO.N,C_4*%
X82159999Y-76700000D03*
%TO.P,D465,2,A*%
%TO.N,R_1*%
X82159999Y-74950002D03*
%TD*%
D11*
%TO.P,D520,1,K*%
%TO.N,A_2*%
X79530000Y-89700000D03*
%TO.P,D520,2,A*%
%TO.N,R_7*%
X79530000Y-91449998D03*
%TD*%
D10*
%TO.P,D415,1,K*%
%TO.N,A_5*%
X118390002Y-67275001D03*
%TO.P,D415,2,A*%
%TO.N,C_0*%
X118390002Y-65525003D03*
%TD*%
D11*
%TO.P,D360,1,K*%
%TO.N,A_0*%
X74390001Y-46818002D03*
%TO.P,D360,2,A*%
%TO.N,R_4*%
X74390001Y-48568000D03*
%TD*%
D10*
%TO.P,D493,1,K*%
%TO.N,R_6*%
X102839998Y-86549997D03*
%TO.P,D493,2,A*%
%TO.N,C_1*%
X102839998Y-84799999D03*
%TD*%
%TO.P,D593,1,K*%
%TO.N,C_7*%
X76940002Y-111449999D03*
%TO.P,D593,2,A*%
%TO.N,R_3*%
X76940002Y-109700001D03*
%TD*%
%TO.P,D587,1,K*%
%TO.N,A_6*%
X92480003Y-111449999D03*
%TO.P,D587,2,A*%
%TO.N,R_3*%
X92480003Y-109700001D03*
%TD*%
D11*
%TO.P,D542,1,K*%
%TO.N,R_2*%
X115780002Y-99800001D03*
%TO.P,D542,2,A*%
%TO.N,C_7*%
X115780002Y-101549999D03*
%TD*%
%TO.P,D673,1,K*%
%TO.N,C_7*%
X102840004Y-134400001D03*
%TO.P,D673,2,A*%
%TO.N,A_6*%
X102840004Y-136149999D03*
%TD*%
D10*
%TO.P,D551,1,K*%
%TO.N,A_6*%
X92490002Y-101550001D03*
%TO.P,D551,2,A*%
%TO.N,C_2*%
X92490002Y-99800003D03*
%TD*%
%TO.P,D665,1,K*%
%TO.N,R_7*%
X76980002Y-131175000D03*
%TO.P,D665,2,A*%
%TO.N,C_5*%
X76980002Y-129425002D03*
%TD*%
%TO.P,D489,1,K*%
%TO.N,R_5*%
X113200000Y-86549999D03*
%TO.P,D489,2,A*%
%TO.N,C_1*%
X113200000Y-84800001D03*
%TD*%
%TO.P,D397,1,K*%
%TO.N,C_6*%
X118270000Y-62649999D03*
%TO.P,D397,2,A*%
%TO.N,R_0*%
X118270000Y-60900001D03*
%TD*%
D11*
%TO.P,D368,1,K*%
%TO.N,A_0*%
X100289999Y-51475002D03*
%TO.P,D368,2,A*%
%TO.N,R_6*%
X100289999Y-53225000D03*
%TD*%
%TO.P,D394,1,K*%
%TO.N,R_0*%
X79569999Y-56125001D03*
%TO.P,D394,2,A*%
%TO.N,C_5*%
X79569999Y-57874999D03*
%TD*%
D10*
%TO.P,D433,1,K*%
%TO.N,C_2*%
X118400000Y-72024999D03*
%TO.P,D433,2,A*%
%TO.N,A_1*%
X118400000Y-70275001D03*
%TD*%
D11*
%TO.P,D586,1,K*%
%TO.N,R_3*%
X95070002Y-109700001D03*
%TO.P,D586,2,A*%
%TO.N,C_5*%
X95070002Y-111449999D03*
%TD*%
%TO.P,D362,1,K*%
%TO.N,A_0*%
X115880002Y-51500003D03*
%TO.P,D362,2,A*%
%TO.N,C_4*%
X115880002Y-53250001D03*
%TD*%
%TO.P,D442,1,K*%
%TO.N,A_1*%
X95065001Y-70275001D03*
%TO.P,D442,2,A*%
%TO.N,C_4*%
X95065001Y-72024999D03*
%TD*%
D10*
%TO.P,D479,1,K*%
%TO.N,A_3*%
X92489998Y-81600000D03*
%TO.P,D479,2,A*%
%TO.N,C_1*%
X92489998Y-79850002D03*
%TD*%
D11*
%TO.P,D404,1,K*%
%TO.N,C_0*%
X100140000Y-60900002D03*
%TO.P,D404,2,A*%
%TO.N,A_2*%
X100140000Y-62650000D03*
%TD*%
D10*
%TO.P,D539,1,K*%
%TO.N,A_7*%
X76900002Y-96450000D03*
%TO.P,D539,2,A*%
%TO.N,R_2*%
X76900002Y-94700002D03*
%TD*%
D11*
%TO.P,D642,1,K*%
%TO.N,C_4*%
X89980002Y-124600001D03*
%TO.P,D642,2,A*%
%TO.N,R_7*%
X89980002Y-126349999D03*
%TD*%
D10*
%TO.P,D409,1,K*%
%TO.N,R_3*%
X87190000Y-62650000D03*
%TO.P,D409,2,A*%
%TO.N,C_0*%
X87190000Y-60900002D03*
%TD*%
%TO.P,D523,1,K*%
%TO.N,C_2*%
X118380002Y-96449998D03*
%TO.P,D523,2,A*%
%TO.N,R_2*%
X118380002Y-94700000D03*
%TD*%
%TO.P,D627,1,K*%
%TO.N,A_6*%
X82120001Y-121349999D03*
%TO.P,D627,2,A*%
%TO.N,R_4*%
X82120001Y-119600001D03*
%TD*%
%TO.P,D429,1,K*%
%TO.N,C_1*%
X82130002Y-67275001D03*
%TO.P,D429,2,A*%
%TO.N,A_1*%
X82130002Y-65525003D03*
%TD*%
D11*
%TO.P,D372,1,K*%
%TO.N,A_0*%
X89930000Y-51475001D03*
%TO.P,D372,2,A*%
%TO.N,R_7*%
X89930000Y-53224999D03*
%TD*%
D10*
%TO.P,D463,1,K*%
%TO.N,A_4*%
X87339998Y-76700000D03*
%TO.P,D463,2,A*%
%TO.N,R_1*%
X87339998Y-74950002D03*
%TD*%
D11*
%TO.P,D566,1,K*%
%TO.N,A_3*%
X100250002Y-104800001D03*
%TO.P,D566,2,A*%
%TO.N,C_4*%
X100250002Y-106549999D03*
%TD*%
D10*
%TO.P,D617,1,K*%
%TO.N,C_6*%
X108010003Y-121349999D03*
%TO.P,D617,2,A*%
%TO.N,A_4*%
X108010003Y-119600001D03*
%TD*%
%TO.P,D537,1,K*%
%TO.N,C_6*%
X82080004Y-96449999D03*
%TO.P,D537,2,A*%
%TO.N,R_2*%
X82080004Y-94700001D03*
%TD*%
%TO.P,D641,1,K*%
%TO.N,R_7*%
X92480003Y-126349999D03*
%TO.P,D641,2,A*%
%TO.N,C_4*%
X92480003Y-124600001D03*
%TD*%
D11*
%TO.P,D492,1,K*%
%TO.N,C_1*%
X105430001Y-84800001D03*
%TO.P,D492,2,A*%
%TO.N,A_6*%
X105430001Y-86549999D03*
%TD*%
%TO.P,D514,1,K*%
%TO.N,A_2*%
X95070002Y-89700000D03*
%TO.P,D514,2,A*%
%TO.N,C_5*%
X95070002Y-91449998D03*
%TD*%
%TO.P,D438,1,K*%
%TO.N,A_1*%
X105425002Y-70275001D03*
%TO.P,D438,2,A*%
%TO.N,C_3*%
X105425002Y-72024999D03*
%TD*%
D10*
%TO.P,D647,1,K*%
%TO.N,R_6*%
X77030001Y-126349997D03*
%TO.P,D647,2,A*%
%TO.N,A_5*%
X77030001Y-124599999D03*
%TD*%
D11*
%TO.P,D348,1,K*%
%TO.N,A_0*%
X105470002Y-46818001D03*
%TO.P,D348,2,A*%
%TO.N,R_1*%
X105470002Y-48567999D03*
%TD*%
%TO.P,D610,1,K*%
%TO.N,A_4*%
X79520002Y-114600001D03*
%TO.P,D610,2,A*%
%TO.N,C_4*%
X79520002Y-116349999D03*
%TD*%
%TO.P,D436,1,K*%
%TO.N,A_1*%
X110605001Y-70274999D03*
%TO.P,D436,2,A*%
%TO.N,R_3*%
X110605001Y-72024997D03*
%TD*%
%TO.P,D434,1,K*%
%TO.N,A_1*%
X115810001Y-70275003D03*
%TO.P,D434,2,A*%
%TO.N,C_2*%
X115810001Y-72025001D03*
%TD*%
%TO.P,D602,1,K*%
%TO.N,C_3*%
X100240002Y-114600000D03*
%TO.P,D602,2,A*%
%TO.N,R_6*%
X100240002Y-116349998D03*
%TD*%
%TO.P,D648,1,K*%
%TO.N,A_5*%
X74440002Y-124600001D03*
%TO.P,D648,2,A*%
%TO.N,R_6*%
X74440002Y-126349999D03*
%TD*%
D10*
%TO.P,D375,1,K*%
%TO.N,C_0*%
X82160001Y-53224999D03*
%TO.P,D375,2,A*%
%TO.N,R_0*%
X82160001Y-51475001D03*
%TD*%
D11*
%TO.P,D584,1,K*%
%TO.N,R_3*%
X100250002Y-109700001D03*
%TO.P,D584,2,A*%
%TO.N,A_5*%
X100250002Y-111449999D03*
%TD*%
D10*
%TO.P,D355,1,K*%
%TO.N,R_3*%
X87340001Y-48568000D03*
%TO.P,D355,2,A*%
%TO.N,A_0*%
X87340001Y-46818002D03*
%TD*%
D11*
%TO.P,D454,1,K*%
%TO.N,A_1*%
X110620001Y-74950002D03*
%TO.P,D454,2,A*%
%TO.N,C_7*%
X110620001Y-76700000D03*
%TD*%
D10*
%TO.P,D629,1,K*%
%TO.N,C_6*%
X76940001Y-121349999D03*
%TO.P,D629,2,A*%
%TO.N,R_4*%
X76940001Y-119600001D03*
%TD*%
D11*
%TO.P,D576,1,K*%
%TO.N,A_3*%
X74310003Y-104800001D03*
%TO.P,D576,2,A*%
%TO.N,R_7*%
X74310003Y-106549999D03*
%TD*%
%TO.P,D628,1,K*%
%TO.N,R_4*%
X79530003Y-119600001D03*
%TO.P,D628,2,A*%
%TO.N,A_6*%
X79530003Y-121349999D03*
%TD*%
D10*
%TO.P,D491,1,K*%
%TO.N,A_6*%
X108019999Y-86549999D03*
%TO.P,D491,2,A*%
%TO.N,C_1*%
X108019999Y-84800001D03*
%TD*%
%TO.P,D393,1,K*%
%TO.N,C_5*%
X82160000Y-57874999D03*
%TO.P,D393,2,A*%
%TO.N,R_0*%
X82160000Y-56125001D03*
%TD*%
%TO.P,D451,1,K*%
%TO.N,R_7*%
X118390000Y-76700000D03*
%TO.P,D451,2,A*%
%TO.N,A_1*%
X118390000Y-74950002D03*
%TD*%
%TO.P,D389,1,K*%
%TO.N,C_4*%
X92520001Y-57874999D03*
%TO.P,D389,2,A*%
%TO.N,R_0*%
X92520001Y-56125001D03*
%TD*%
%TO.P,D455,1,K*%
%TO.N,C_1*%
X108029998Y-76699998D03*
%TO.P,D455,2,A*%
%TO.N,R_1*%
X108029998Y-74950000D03*
%TD*%
D11*
%TO.P,D498,1,K*%
%TO.N,C_1*%
X89890001Y-84800000D03*
%TO.P,D498,2,A*%
%TO.N,R_7*%
X89890001Y-86549998D03*
%TD*%
D10*
%TO.P,D509,1,K*%
%TO.N,C_4*%
X108020001Y-91449998D03*
%TO.P,D509,2,A*%
%TO.N,A_2*%
X108020001Y-89700000D03*
%TD*%
D11*
%TO.P,D550,1,K*%
%TO.N,C_2*%
X95080002Y-99800001D03*
%TO.P,D550,2,A*%
%TO.N,R_5*%
X95080002Y-101549999D03*
%TD*%
D10*
%TO.P,D411,1,K*%
%TO.N,A_4*%
X82010000Y-62650000D03*
%TO.P,D411,2,A*%
%TO.N,C_0*%
X82010000Y-60900002D03*
%TD*%
D11*
%TO.P,D592,1,K*%
%TO.N,R_3*%
X79530004Y-109700001D03*
%TO.P,D592,2,A*%
%TO.N,A_7*%
X79530004Y-111449999D03*
%TD*%
%TO.P,D538,1,K*%
%TO.N,R_2*%
X79490004Y-94700002D03*
%TO.P,D538,2,A*%
%TO.N,C_6*%
X79490004Y-96450000D03*
%TD*%
D10*
%TO.P,D585,1,K*%
%TO.N,C_5*%
X97660004Y-111449999D03*
%TO.P,D585,2,A*%
%TO.N,R_3*%
X97660004Y-109700001D03*
%TD*%
D12*
%TO.P,J2,1,Pin_1*%
%TO.N,A_0*%
X119010001Y-40960000D03*
D13*
%TO.P,J2,2,Pin_2*%
%TO.N,R_0*%
X119010001Y-43500000D03*
%TO.P,J2,3,Pin_3*%
%TO.N,A_1*%
X116470001Y-40960000D03*
%TO.P,J2,4,Pin_4*%
%TO.N,R_1*%
X116470001Y-43500000D03*
%TO.P,J2,5,Pin_5*%
%TO.N,A_2*%
X113930001Y-40960000D03*
%TO.P,J2,6,Pin_6*%
%TO.N,R_2*%
X113930001Y-43500000D03*
%TO.P,J2,7,Pin_7*%
%TO.N,A_3*%
X111390001Y-40960000D03*
%TO.P,J2,8,Pin_8*%
%TO.N,R_3*%
X111390001Y-43500000D03*
%TO.P,J2,9,Pin_9*%
%TO.N,A_4*%
X108850001Y-40960000D03*
%TO.P,J2,10,Pin_10*%
%TO.N,R_4*%
X108850001Y-43500000D03*
%TO.P,J2,11,Pin_11*%
%TO.N,A_5*%
X106310001Y-40960000D03*
%TO.P,J2,12,Pin_12*%
%TO.N,R_5*%
X106310001Y-43500000D03*
%TO.P,J2,13,Pin_13*%
%TO.N,A_6*%
X103770001Y-40960000D03*
%TO.P,J2,14,Pin_14*%
%TO.N,R_6*%
X103770001Y-43500000D03*
%TO.P,J2,15,Pin_15*%
%TO.N,A_7*%
X101230001Y-40960000D03*
%TO.P,J2,16,Pin_16*%
%TO.N,R_7*%
X101230001Y-43500000D03*
%TO.P,J2,17,Pin_17*%
%TO.N,unconnected-(J1-Pin_17-Pad17)*%
X98690001Y-40960000D03*
%TO.P,J2,18,Pin_18*%
%TO.N,unconnected-(J1-Pin_18-Pad18)*%
X98690001Y-43500000D03*
%TO.P,J2,19,Pin_19*%
%TO.N,unconnected-(J1-Pin_19-Pad19)*%
X96150001Y-40960000D03*
%TO.P,J2,20,Pin_20*%
%TO.N,unconnected-(J1-Pin_20-Pad20)*%
X96150001Y-43500000D03*
%TO.P,J2,21,Pin_21*%
%TO.N,unconnected-(J1-Pin_21-Pad21)*%
X93610001Y-40960000D03*
%TO.P,J2,22,Pin_22*%
%TO.N,unconnected-(J1-Pin_22-Pad22)*%
X93610001Y-43500000D03*
%TO.P,J2,23,Pin_23*%
%TO.N,C_0*%
X91070001Y-40960000D03*
%TO.P,J2,24,Pin_24*%
X91070001Y-43500000D03*
%TO.P,J2,25,Pin_25*%
%TO.N,C_1*%
X88530001Y-40960000D03*
%TO.P,J2,26,Pin_26*%
X88530001Y-43500000D03*
%TO.P,J2,27,Pin_27*%
%TO.N,C_2*%
X85990001Y-40960000D03*
%TO.P,J2,28,Pin_28*%
X85990001Y-43500000D03*
%TO.P,J2,29,Pin_29*%
%TO.N,C_3*%
X83450001Y-40960000D03*
%TO.P,J2,30,Pin_30*%
X83450001Y-43500000D03*
%TO.P,J2,31,Pin_31*%
%TO.N,C_4*%
X80910001Y-40960000D03*
%TO.P,J2,32,Pin_32*%
X80910001Y-43500000D03*
%TO.P,J2,33,Pin_33*%
%TO.N,C_5*%
X78370001Y-40960000D03*
%TO.P,J2,34,Pin_34*%
X78370001Y-43500000D03*
%TO.P,J2,35,Pin_35*%
%TO.N,C_6*%
X75830001Y-40960000D03*
%TO.P,J2,36,Pin_36*%
X75830001Y-43500000D03*
%TO.P,J2,37,Pin_37*%
%TO.N,C_7*%
X73290001Y-40960000D03*
%TO.P,J2,38,Pin_38*%
X73290001Y-43500000D03*
%TD*%
D11*
%TO.P,D376,1,K*%
%TO.N,R_0*%
X79570001Y-51475002D03*
%TO.P,D376,2,A*%
%TO.N,C_0*%
X79570001Y-53225000D03*
%TD*%
%TO.P,D490,1,K*%
%TO.N,C_1*%
X110610001Y-84800001D03*
%TO.P,D490,2,A*%
%TO.N,R_5*%
X110610001Y-86549999D03*
%TD*%
D10*
%TO.P,D668,1,K*%
%TO.N,A_6*%
X115790005Y-136150001D03*
%TO.P,D668,2,A*%
%TO.N,R_6*%
X115790005Y-134400003D03*
%TD*%
%TO.P,D577,1,K*%
%TO.N,C_7*%
X118380002Y-111449999D03*
%TO.P,D577,2,A*%
%TO.N,A_3*%
X118380002Y-109700001D03*
%TD*%
D11*
%TO.P,D626,1,K*%
%TO.N,R_4*%
X84710003Y-119600001D03*
%TO.P,D626,2,A*%
%TO.N,C_5*%
X84710003Y-121349999D03*
%TD*%
%TO.P,D420,1,K*%
%TO.N,C_0*%
X105440000Y-65525002D03*
%TO.P,D420,2,A*%
%TO.N,A_6*%
X105440000Y-67275000D03*
%TD*%
D10*
%TO.P,D579,1,K*%
%TO.N,C_3*%
X113200003Y-111449999D03*
%TO.P,D579,2,A*%
%TO.N,R_3*%
X113200003Y-109700001D03*
%TD*%
%TO.P,D655,1,K*%
%TO.N,C_5*%
X102880002Y-131249999D03*
%TO.P,D655,2,A*%
%TO.N,R_5*%
X102880002Y-129500001D03*
%TD*%
D11*
%TO.P,D506,1,K*%
%TO.N,A_2*%
X115790000Y-89700000D03*
%TO.P,D506,2,A*%
%TO.N,C_3*%
X115790000Y-91449998D03*
%TD*%
%TO.P,D398,1,K*%
%TO.N,R_0*%
X115680001Y-60900002D03*
%TO.P,D398,2,A*%
%TO.N,C_6*%
X115680001Y-62650000D03*
%TD*%
%TO.P,D480,1,K*%
%TO.N,C_1*%
X89899999Y-79850002D03*
%TO.P,D480,2,A*%
%TO.N,A_3*%
X89899999Y-81600000D03*
%TD*%
D10*
%TO.P,D343,1,K*%
%TO.N,R_0*%
X118420000Y-48568000D03*
%TO.P,D343,2,A*%
%TO.N,A_0*%
X118420000Y-46818002D03*
%TD*%
%TO.P,D361,1,K*%
%TO.N,C_4*%
X118470000Y-53250001D03*
%TO.P,D361,2,A*%
%TO.N,A_0*%
X118470000Y-51500003D03*
%TD*%
%TO.P,D237,1,K*%
%TO.N,C_3*%
X163200003Y-111449999D03*
%TO.P,D237,2,A*%
%TO.N,R_3*%
X163200003Y-109700001D03*
%TD*%
%TO.P,D109,1,K*%
%TO.N,R_7*%
X168390000Y-76700000D03*
%TO.P,D109,2,A*%
%TO.N,A_1*%
X168390000Y-74950002D03*
%TD*%
D11*
%TO.P,D6,1,K*%
%TO.N,A_0*%
X155470002Y-46818001D03*
%TO.P,D6,2,A*%
%TO.N,R_1*%
X155470002Y-48567999D03*
%TD*%
%TO.P,D148,1,K*%
%TO.N,C_1*%
X160610001Y-84800001D03*
%TO.P,D148,2,A*%
%TO.N,R_5*%
X160610001Y-86549999D03*
%TD*%
D10*
%TO.P,D326,1,K*%
%TO.N,A_6*%
X165790005Y-136150001D03*
%TO.P,D326,2,A*%
%TO.N,R_6*%
X165790005Y-134400003D03*
%TD*%
D11*
%TO.P,D92,1,K*%
%TO.N,A_1*%
X165810001Y-70275003D03*
%TO.P,D92,2,A*%
%TO.N,C_2*%
X165810001Y-72025001D03*
%TD*%
D10*
%TO.P,D243,1,K*%
%TO.N,C_5*%
X147660004Y-111449999D03*
%TO.P,D243,2,A*%
%TO.N,R_3*%
X147660004Y-109700001D03*
%TD*%
D11*
%TO.P,D230,1,K*%
%TO.N,A_3*%
X134710001Y-104800001D03*
%TO.P,D230,2,A*%
%TO.N,R_6*%
X134710001Y-106549999D03*
%TD*%
%TO.P,D108,1,K*%
%TO.N,A_1*%
X124345001Y-70275000D03*
%TO.P,D108,2,A*%
%TO.N,C_6*%
X124345001Y-72024998D03*
%TD*%
D10*
%TO.P,D269,1,K*%
%TO.N,R_5*%
X126930002Y-116349998D03*
%TO.P,D269,2,A*%
%TO.N,A_4*%
X126930002Y-114600000D03*
%TD*%
D11*
%TO.P,D10,1,K*%
%TO.N,A_0*%
X145110001Y-46818001D03*
%TO.P,D10,2,A*%
%TO.N,R_2*%
X145110001Y-48567999D03*
%TD*%
D10*
%TO.P,D191,1,K*%
%TO.N,C_5*%
X142440002Y-96449998D03*
%TO.P,D191,2,A*%
%TO.N,R_2*%
X142440002Y-94700000D03*
%TD*%
%TO.P,D267,1,K*%
%TO.N,C_4*%
X132110000Y-116349997D03*
%TO.P,D267,2,A*%
%TO.N,A_4*%
X132110000Y-114599999D03*
%TD*%
D11*
%TO.P,D296,1,K*%
%TO.N,C_4*%
X150250002Y-124600001D03*
%TO.P,D296,2,A*%
%TO.N,R_6*%
X150250002Y-126349999D03*
%TD*%
D10*
%TO.P,D177,1,K*%
%TO.N,R_7*%
X132120002Y-91449998D03*
%TO.P,D177,2,A*%
%TO.N,A_2*%
X132120002Y-89700000D03*
%TD*%
D12*
%TO.P,J1,1,Pin_1*%
%TO.N,A_0*%
X169010001Y-40960000D03*
D13*
%TO.P,J1,2,Pin_2*%
%TO.N,R_0*%
X169010001Y-43500000D03*
%TO.P,J1,3,Pin_3*%
%TO.N,A_1*%
X166470001Y-40960000D03*
%TO.P,J1,4,Pin_4*%
%TO.N,R_1*%
X166470001Y-43500000D03*
%TO.P,J1,5,Pin_5*%
%TO.N,A_2*%
X163930001Y-40960000D03*
%TO.P,J1,6,Pin_6*%
%TO.N,R_2*%
X163930001Y-43500000D03*
%TO.P,J1,7,Pin_7*%
%TO.N,A_3*%
X161390001Y-40960000D03*
%TO.P,J1,8,Pin_8*%
%TO.N,R_3*%
X161390001Y-43500000D03*
%TO.P,J1,9,Pin_9*%
%TO.N,A_4*%
X158850001Y-40960000D03*
%TO.P,J1,10,Pin_10*%
%TO.N,R_4*%
X158850001Y-43500000D03*
%TO.P,J1,11,Pin_11*%
%TO.N,A_5*%
X156310001Y-40960000D03*
%TO.P,J1,12,Pin_12*%
%TO.N,R_5*%
X156310001Y-43500000D03*
%TO.P,J1,13,Pin_13*%
%TO.N,A_6*%
X153770001Y-40960000D03*
%TO.P,J1,14,Pin_14*%
%TO.N,R_6*%
X153770001Y-43500000D03*
%TO.P,J1,15,Pin_15*%
%TO.N,A_7*%
X151230001Y-40960000D03*
%TO.P,J1,16,Pin_16*%
%TO.N,R_7*%
X151230001Y-43500000D03*
%TO.P,J1,17,Pin_17*%
%TO.N,unconnected-(J1-Pin_17-Pad17)*%
X148690001Y-40960000D03*
%TO.P,J1,18,Pin_18*%
%TO.N,unconnected-(J1-Pin_18-Pad18)*%
X148690001Y-43500000D03*
%TO.P,J1,19,Pin_19*%
%TO.N,unconnected-(J1-Pin_19-Pad19)*%
X146150001Y-40960000D03*
%TO.P,J1,20,Pin_20*%
%TO.N,unconnected-(J1-Pin_20-Pad20)*%
X146150001Y-43500000D03*
%TO.P,J1,21,Pin_21*%
%TO.N,unconnected-(J1-Pin_21-Pad21)*%
X143610001Y-40960000D03*
%TO.P,J1,22,Pin_22*%
%TO.N,unconnected-(J1-Pin_22-Pad22)*%
X143610001Y-43500000D03*
%TO.P,J1,23,Pin_23*%
%TO.N,C_0*%
X141070001Y-40960000D03*
%TO.P,J1,24,Pin_24*%
X141070001Y-43500000D03*
%TO.P,J1,25,Pin_25*%
%TO.N,C_1*%
X138530001Y-40960000D03*
%TO.P,J1,26,Pin_26*%
X138530001Y-43500000D03*
%TO.P,J1,27,Pin_27*%
%TO.N,C_2*%
X135990001Y-40960000D03*
%TO.P,J1,28,Pin_28*%
X135990001Y-43500000D03*
%TO.P,J1,29,Pin_29*%
%TO.N,C_3*%
X133450001Y-40960000D03*
%TO.P,J1,30,Pin_30*%
X133450001Y-43500000D03*
%TO.P,J1,31,Pin_31*%
%TO.N,C_4*%
X130910001Y-40960000D03*
%TO.P,J1,32,Pin_32*%
X130910001Y-43500000D03*
%TO.P,J1,33,Pin_33*%
%TO.N,C_5*%
X128370001Y-40960000D03*
%TO.P,J1,34,Pin_34*%
X128370001Y-43500000D03*
%TO.P,J1,35,Pin_35*%
%TO.N,C_6*%
X125830001Y-40960000D03*
%TO.P,J1,36,Pin_36*%
X125830001Y-43500000D03*
%TO.P,J1,37,Pin_37*%
%TO.N,C_7*%
X123290001Y-40960000D03*
%TO.P,J1,38,Pin_38*%
X123290001Y-43500000D03*
%TD*%
D11*
%TO.P,D174,1,K*%
%TO.N,A_2*%
X139890001Y-89700000D03*
%TO.P,D174,2,A*%
%TO.N,R_6*%
X139890001Y-91449998D03*
%TD*%
D10*
%TO.P,D43,1,K*%
%TO.N,C_3*%
X152780004Y-57892003D03*
%TO.P,D43,2,A*%
%TO.N,R_0*%
X152780004Y-56142005D03*
%TD*%
%TO.P,D195,1,K*%
%TO.N,C_6*%
X132080004Y-96449999D03*
%TO.P,D195,2,A*%
%TO.N,R_2*%
X132080004Y-94700001D03*
%TD*%
%TO.P,D235,1,K*%
%TO.N,C_7*%
X168380002Y-111449999D03*
%TO.P,D235,2,A*%
%TO.N,A_3*%
X168380002Y-109700001D03*
%TD*%
D11*
%TO.P,D150,1,K*%
%TO.N,C_1*%
X155430001Y-84800001D03*
%TO.P,D150,2,A*%
%TO.N,A_6*%
X155430001Y-86549999D03*
%TD*%
D10*
%TO.P,D261,1,K*%
%TO.N,A_7*%
X147650002Y-116349999D03*
%TO.P,D261,2,A*%
%TO.N,C_3*%
X147650002Y-114600001D03*
%TD*%
%TO.P,D45,1,K*%
%TO.N,A_4*%
X147600003Y-57892003D03*
%TO.P,D45,2,A*%
%TO.N,R_0*%
X147600003Y-56142005D03*
%TD*%
D11*
%TO.P,D325,1,K*%
%TO.N,R_6*%
X168380002Y-134400001D03*
%TO.P,D325,2,A*%
%TO.N,A_6*%
X168380002Y-136149999D03*
%TD*%
D10*
%TO.P,D99,1,K*%
%TO.N,C_4*%
X147655001Y-72024998D03*
%TO.P,D99,2,A*%
%TO.N,A_1*%
X147655001Y-70275000D03*
%TD*%
%TO.P,D225,1,K*%
%TO.N,R_5*%
X147660000Y-106549999D03*
%TO.P,D225,2,A*%
%TO.N,A_3*%
X147660000Y-104800001D03*
%TD*%
D11*
%TO.P,D32,1,K*%
%TO.N,A_0*%
X134750001Y-51475001D03*
%TO.P,D32,2,A*%
%TO.N,C_7*%
X134750001Y-53224999D03*
%TD*%
D10*
%TO.P,D131,1,K*%
%TO.N,C_6*%
X158029999Y-81600000D03*
%TO.P,D131,2,A*%
%TO.N,R_1*%
X158029999Y-79850002D03*
%TD*%
D11*
%TO.P,D14,1,K*%
%TO.N,A_0*%
X134749999Y-46818002D03*
%TO.P,D14,2,A*%
%TO.N,R_3*%
X134749999Y-48568000D03*
%TD*%
%TO.P,D16,1,K*%
%TO.N,A_0*%
X129570000Y-46818002D03*
%TO.P,D16,2,A*%
%TO.N,C_3*%
X129570000Y-48568000D03*
%TD*%
D10*
%TO.P,D303,1,K*%
%TO.N,C_5*%
X132210003Y-126349999D03*
%TO.P,D303,2,A*%
%TO.N,A_5*%
X132210003Y-124600001D03*
%TD*%
%TO.P,D77,1,K*%
%TO.N,A_6*%
X158030001Y-67275001D03*
%TO.P,D77,2,A*%
%TO.N,C_0*%
X158030001Y-65525003D03*
%TD*%
%TO.P,D39,1,K*%
%TO.N,C_2*%
X163140003Y-57892002D03*
%TO.P,D39,2,A*%
%TO.N,R_0*%
X163140003Y-56142004D03*
%TD*%
%TO.P,D107,1,K*%
%TO.N,C_6*%
X126935000Y-72024997D03*
%TO.P,D107,2,A*%
%TO.N,A_1*%
X126935000Y-70274999D03*
%TD*%
%TO.P,D71,1,K*%
%TO.N,R_4*%
X126979999Y-62649998D03*
%TO.P,D71,2,A*%
%TO.N,C_0*%
X126979999Y-60900000D03*
%TD*%
D11*
%TO.P,D142,1,K*%
%TO.N,C_1*%
X129519997Y-79850001D03*
%TO.P,D142,2,A*%
%TO.N,A_4*%
X129519997Y-81599999D03*
%TD*%
D10*
%TO.P,D143,1,K*%
%TO.N,R_4*%
X126930000Y-81600001D03*
%TO.P,D143,2,A*%
%TO.N,C_1*%
X126930000Y-79850003D03*
%TD*%
%TO.P,D157,1,K*%
%TO.N,R_2*%
X137300001Y-86549999D03*
%TO.P,D157,2,A*%
%TO.N,A_2*%
X137300001Y-84800001D03*
%TD*%
%TO.P,D271,1,K*%
%TO.N,C_5*%
X168370004Y-121349999D03*
%TO.P,D271,2,A*%
%TO.N,A_4*%
X168370004Y-119600001D03*
%TD*%
D11*
%TO.P,D30,1,K*%
%TO.N,A_0*%
X139930000Y-51475001D03*
%TO.P,D30,2,A*%
%TO.N,R_7*%
X139930000Y-53224999D03*
%TD*%
D10*
%TO.P,D167,1,K*%
%TO.N,C_4*%
X158020001Y-91449998D03*
%TO.P,D167,2,A*%
%TO.N,A_2*%
X158020001Y-89700000D03*
%TD*%
D11*
%TO.P,D320,1,K*%
%TO.N,R_5*%
X134790000Y-129450003D03*
%TO.P,D320,2,A*%
%TO.N,C_7*%
X134790000Y-131200001D03*
%TD*%
D10*
%TO.P,D5,1,K*%
%TO.N,R_1*%
X158059999Y-48568000D03*
%TO.P,D5,2,A*%
%TO.N,A_0*%
X158059999Y-46818002D03*
%TD*%
%TO.P,D259,1,K*%
%TO.N,R_6*%
X152830002Y-116349999D03*
%TO.P,D259,2,A*%
%TO.N,C_3*%
X152830002Y-114600001D03*
%TD*%
D11*
%TO.P,D178,1,K*%
%TO.N,A_2*%
X129530000Y-89700000D03*
%TO.P,D178,2,A*%
%TO.N,R_7*%
X129530000Y-91449998D03*
%TD*%
D10*
%TO.P,D93,1,K*%
%TO.N,R_3*%
X163195001Y-72024999D03*
%TO.P,D93,2,A*%
%TO.N,A_1*%
X163195001Y-70275001D03*
%TD*%
%TO.P,D129,1,K*%
%TO.N,A_6*%
X163209999Y-81600000D03*
%TO.P,D129,2,A*%
%TO.N,R_1*%
X163209999Y-79850002D03*
%TD*%
D11*
%TO.P,D256,1,K*%
%TO.N,C_3*%
X160600001Y-114600001D03*
%TO.P,D256,2,A*%
%TO.N,R_5*%
X160600001Y-116349999D03*
%TD*%
%TO.P,D268,1,K*%
%TO.N,A_4*%
X129520002Y-114600001D03*
%TO.P,D268,2,A*%
%TO.N,C_4*%
X129520002Y-116349999D03*
%TD*%
%TO.P,D50,1,K*%
%TO.N,R_0*%
X134749999Y-56125001D03*
%TO.P,D50,2,A*%
%TO.N,A_5*%
X134749999Y-57874999D03*
%TD*%
D10*
%TO.P,D277,1,K*%
%TO.N,R_7*%
X152880002Y-121349999D03*
%TO.P,D277,2,A*%
%TO.N,A_4*%
X152880002Y-119600001D03*
%TD*%
%TO.P,D295,1,K*%
%TO.N,R_6*%
X152840004Y-126349999D03*
%TO.P,D295,2,A*%
%TO.N,C_4*%
X152840004Y-124600001D03*
%TD*%
%TO.P,D185,1,K*%
%TO.N,A_4*%
X157980002Y-96449999D03*
%TO.P,D185,2,A*%
%TO.N,R_2*%
X157980002Y-94700001D03*
%TD*%
D11*
%TO.P,D208,1,K*%
%TO.N,C_2*%
X145080002Y-99800001D03*
%TO.P,D208,2,A*%
%TO.N,R_5*%
X145080002Y-101549999D03*
%TD*%
%TO.P,D312,1,K*%
%TO.N,A_5*%
X155430003Y-129500001D03*
%TO.P,D312,2,A*%
%TO.N,C_7*%
X155430003Y-131249999D03*
%TD*%
%TO.P,D140,1,K*%
%TO.N,C_1*%
X134699999Y-79850003D03*
%TO.P,D140,2,A*%
%TO.N,R_3*%
X134699999Y-81600001D03*
%TD*%
%TO.P,D170,1,K*%
%TO.N,A_2*%
X150250002Y-89700000D03*
%TO.P,D170,2,A*%
%TO.N,R_5*%
X150250002Y-91449998D03*
%TD*%
%TO.P,D262,1,K*%
%TO.N,C_3*%
X145060002Y-114600001D03*
%TO.P,D262,2,A*%
%TO.N,A_7*%
X145060002Y-116349999D03*
%TD*%
%TO.P,D190,1,K*%
%TO.N,R_2*%
X145030002Y-94700002D03*
%TO.P,D190,2,A*%
%TO.N,A_5*%
X145030002Y-96450000D03*
%TD*%
%TO.P,D222,1,K*%
%TO.N,A_3*%
X155430002Y-104800002D03*
%TO.P,D222,2,A*%
%TO.N,R_4*%
X155430002Y-106550000D03*
%TD*%
D10*
%TO.P,D334,1,K*%
%TO.N,R_6*%
X145070002Y-136149999D03*
%TO.P,D334,2,A*%
%TO.N,C_6*%
X145070002Y-134400001D03*
%TD*%
%TO.P,D17,1,K*%
%TO.N,R_4*%
X126980000Y-48568000D03*
%TO.P,D17,2,A*%
%TO.N,A_0*%
X126980000Y-46818002D03*
%TD*%
%TO.P,D105,1,K*%
%TO.N,R_6*%
X132115002Y-72024999D03*
%TO.P,D105,2,A*%
%TO.N,A_1*%
X132115002Y-70275001D03*
%TD*%
%TO.P,D51,1,K*%
%TO.N,C_5*%
X132160000Y-57874999D03*
%TO.P,D51,2,A*%
%TO.N,R_0*%
X132160000Y-56125001D03*
%TD*%
D11*
%TO.P,D298,1,K*%
%TO.N,C_4*%
X145070002Y-124600001D03*
%TO.P,D298,2,A*%
%TO.N,A_7*%
X145070002Y-126349999D03*
%TD*%
D10*
%TO.P,D83,1,K*%
%TO.N,R_7*%
X142490000Y-67275001D03*
%TO.P,D83,2,A*%
%TO.N,C_0*%
X142490000Y-65525003D03*
%TD*%
%TO.P,D207,1,K*%
%TO.N,R_5*%
X147650001Y-101549997D03*
%TO.P,D207,2,A*%
%TO.N,C_2*%
X147650001Y-99799999D03*
%TD*%
D11*
%TO.P,D34,1,K*%
%TO.N,R_0*%
X129570001Y-51475002D03*
%TO.P,D34,2,A*%
%TO.N,C_0*%
X129570001Y-53225000D03*
%TD*%
%TO.P,D254,1,K*%
%TO.N,C_3*%
X165780002Y-114600001D03*
%TO.P,D254,2,A*%
%TO.N,A_5*%
X165780002Y-116349999D03*
%TD*%
%TO.P,D240,1,K*%
%TO.N,R_3*%
X155430004Y-109700000D03*
%TO.P,D240,2,A*%
%TO.N,C_4*%
X155430004Y-111449998D03*
%TD*%
%TO.P,D333,1,K*%
%TO.N,C_6*%
X147660005Y-134400003D03*
%TO.P,D333,2,A*%
%TO.N,R_6*%
X147660005Y-136150001D03*
%TD*%
D10*
%TO.P,D311,1,K*%
%TO.N,C_7*%
X158020001Y-131249999D03*
%TO.P,D311,2,A*%
%TO.N,A_5*%
X158020001Y-129500001D03*
%TD*%
%TO.P,D127,1,K*%
%TO.N,C_5*%
X168390000Y-81600000D03*
%TO.P,D127,2,A*%
%TO.N,R_1*%
X168390000Y-79850002D03*
%TD*%
D11*
%TO.P,D100,1,K*%
%TO.N,A_1*%
X145065001Y-70275001D03*
%TO.P,D100,2,A*%
%TO.N,C_4*%
X145065001Y-72024999D03*
%TD*%
%TO.P,D80,1,K*%
%TO.N,C_0*%
X150260002Y-65525003D03*
%TO.P,D80,2,A*%
%TO.N,R_6*%
X150260002Y-67275001D03*
%TD*%
D10*
%TO.P,D330,1,K*%
%TO.N,A_6*%
X155430004Y-136150001D03*
%TO.P,D330,2,A*%
%TO.N,R_7*%
X155430004Y-134400003D03*
%TD*%
D11*
%TO.P,D198,1,K*%
%TO.N,R_2*%
X124310002Y-94700000D03*
%TO.P,D198,2,A*%
%TO.N,A_7*%
X124310002Y-96449998D03*
%TD*%
%TO.P,D180,1,K*%
%TO.N,A_2*%
X124350000Y-89700000D03*
%TO.P,D180,2,A*%
%TO.N,C_7*%
X124350000Y-91449998D03*
%TD*%
%TO.P,D186,1,K*%
%TO.N,R_2*%
X155390001Y-94700000D03*
%TO.P,D186,2,A*%
%TO.N,A_4*%
X155390001Y-96449998D03*
%TD*%
D10*
%TO.P,D113,1,K*%
%TO.N,C_1*%
X158029998Y-76699998D03*
%TO.P,D113,2,A*%
%TO.N,R_1*%
X158029998Y-74950000D03*
%TD*%
%TO.P,D155,1,K*%
%TO.N,R_7*%
X142480000Y-86549999D03*
%TO.P,D155,2,A*%
%TO.N,C_1*%
X142480000Y-84800001D03*
%TD*%
%TO.P,D201,1,K*%
%TO.N,A_4*%
X163190001Y-101549998D03*
%TO.P,D201,2,A*%
%TO.N,C_2*%
X163190001Y-99800000D03*
%TD*%
%TO.P,D199,1,K*%
%TO.N,C_7*%
X168370002Y-101549999D03*
%TO.P,D199,2,A*%
%TO.N,R_2*%
X168370002Y-99800001D03*
%TD*%
D11*
%TO.P,D130,1,K*%
%TO.N,R_1*%
X160619999Y-79850002D03*
%TO.P,D130,2,A*%
%TO.N,A_6*%
X160619999Y-81600000D03*
%TD*%
%TO.P,D54,1,K*%
%TO.N,R_0*%
X124390001Y-56125001D03*
%TO.P,D54,2,A*%
%TO.N,A_6*%
X124390001Y-57874999D03*
%TD*%
D10*
%TO.P,D179,1,K*%
%TO.N,C_7*%
X126940002Y-91449998D03*
%TO.P,D179,2,A*%
%TO.N,A_2*%
X126940002Y-89700000D03*
%TD*%
D11*
%TO.P,D122,1,K*%
%TO.N,R_1*%
X134749999Y-74950002D03*
%TO.P,D122,2,A*%
%TO.N,A_4*%
X134749999Y-76700000D03*
%TD*%
D10*
%TO.P,D213,1,K*%
%TO.N,A_7*%
X132130000Y-101549999D03*
%TO.P,D213,2,A*%
%TO.N,C_2*%
X132130000Y-99800001D03*
%TD*%
D11*
%TO.P,D194,1,K*%
%TO.N,R_2*%
X134670004Y-94700002D03*
%TO.P,D194,2,A*%
%TO.N,A_6*%
X134670004Y-96450000D03*
%TD*%
D10*
%TO.P,D245,1,K*%
%TO.N,A_6*%
X142480003Y-111449999D03*
%TO.P,D245,2,A*%
%TO.N,R_3*%
X142480003Y-109700001D03*
%TD*%
D11*
%TO.P,D76,1,K*%
%TO.N,C_0*%
X160620001Y-65525003D03*
%TO.P,D76,2,A*%
%TO.N,R_5*%
X160620001Y-67275001D03*
%TD*%
D10*
%TO.P,D319,1,K*%
%TO.N,C_7*%
X137380002Y-131200001D03*
%TO.P,D319,2,A*%
%TO.N,R_5*%
X137380002Y-129450003D03*
%TD*%
%TO.P,D163,1,K*%
%TO.N,C_3*%
X168380002Y-91449998D03*
%TO.P,D163,2,A*%
%TO.N,A_2*%
X168380002Y-89700000D03*
%TD*%
%TO.P,D173,1,K*%
%TO.N,R_6*%
X142480000Y-91449998D03*
%TO.P,D173,2,A*%
%TO.N,A_2*%
X142480000Y-89700000D03*
%TD*%
%TO.P,D65,1,K*%
%TO.N,A_3*%
X142370001Y-62650000D03*
%TO.P,D65,2,A*%
%TO.N,C_0*%
X142370001Y-60900002D03*
%TD*%
%TO.P,D73,1,K*%
%TO.N,A_5*%
X168390002Y-67275001D03*
%TO.P,D73,2,A*%
%TO.N,C_0*%
X168390002Y-65525003D03*
%TD*%
%TO.P,D119,1,K*%
%TO.N,C_3*%
X142519998Y-76700000D03*
%TO.P,D119,2,A*%
%TO.N,R_1*%
X142519998Y-74950002D03*
%TD*%
D11*
%TO.P,D244,1,K*%
%TO.N,R_3*%
X145070002Y-109700001D03*
%TO.P,D244,2,A*%
%TO.N,C_5*%
X145070002Y-111449999D03*
%TD*%
D10*
%TO.P,D337,1,K*%
%TO.N,R_7*%
X137300004Y-136150001D03*
%TO.P,D337,2,A*%
%TO.N,A_7*%
X137300004Y-134400003D03*
%TD*%
%TO.P,D233,1,K*%
%TO.N,R_7*%
X126900001Y-106549999D03*
%TO.P,D233,2,A*%
%TO.N,A_3*%
X126900001Y-104800001D03*
%TD*%
D11*
%TO.P,D306,1,K*%
%TO.N,A_5*%
X124440002Y-124600001D03*
%TO.P,D306,2,A*%
%TO.N,R_6*%
X124440002Y-126349999D03*
%TD*%
D10*
%TO.P,D197,1,K*%
%TO.N,A_7*%
X126900002Y-96450000D03*
%TO.P,D197,2,A*%
%TO.N,R_2*%
X126900002Y-94700002D03*
%TD*%
%TO.P,D328,1,K*%
%TO.N,A_6*%
X160610003Y-136149999D03*
%TO.P,D328,2,A*%
%TO.N,C_6*%
X160610003Y-134400001D03*
%TD*%
%TO.P,D301,1,K*%
%TO.N,R_5*%
X137390001Y-126349998D03*
%TO.P,D301,2,A*%
%TO.N,A_5*%
X137390001Y-124600000D03*
%TD*%
%TO.P,D227,1,K*%
%TO.N,C_5*%
X142480000Y-106549999D03*
%TO.P,D227,2,A*%
%TO.N,A_3*%
X142480000Y-104800001D03*
%TD*%
%TO.P,D305,1,K*%
%TO.N,R_6*%
X127030001Y-126349997D03*
%TO.P,D305,2,A*%
%TO.N,A_5*%
X127030001Y-124599999D03*
%TD*%
%TO.P,D81,1,K*%
%TO.N,A_7*%
X147670002Y-67274999D03*
%TO.P,D81,2,A*%
%TO.N,C_0*%
X147670002Y-65525001D03*
%TD*%
D11*
%TO.P,D252,1,K*%
%TO.N,R_3*%
X124350003Y-109700001D03*
%TO.P,D252,2,A*%
%TO.N,C_7*%
X124350003Y-111449999D03*
%TD*%
%TO.P,D88,1,K*%
%TO.N,A_1*%
X129540002Y-65525002D03*
%TO.P,D88,2,A*%
%TO.N,C_1*%
X129540002Y-67275000D03*
%TD*%
D10*
%TO.P,D41,1,K*%
%TO.N,A_3*%
X157960004Y-57892003D03*
%TO.P,D41,2,A*%
%TO.N,R_0*%
X157960004Y-56142005D03*
%TD*%
D11*
%TO.P,D270,1,K*%
%TO.N,A_4*%
X124340002Y-114600001D03*
%TO.P,D270,2,A*%
%TO.N,R_5*%
X124340002Y-116349999D03*
%TD*%
%TO.P,D341,1,K*%
%TO.N,C_7*%
X126940002Y-134400001D03*
%TO.P,D341,2,A*%
%TO.N,R_7*%
X126940002Y-136149999D03*
%TD*%
%TO.P,D2,1,K*%
%TO.N,A_0*%
X165829999Y-46818001D03*
%TO.P,D2,2,A*%
%TO.N,R_0*%
X165829999Y-48567999D03*
%TD*%
D10*
%TO.P,D15,1,K*%
%TO.N,C_3*%
X132160000Y-48568000D03*
%TO.P,D15,2,A*%
%TO.N,A_0*%
X132160000Y-46818002D03*
%TD*%
%TO.P,D181,1,K*%
%TO.N,C_2*%
X168380002Y-96449998D03*
%TO.P,D181,2,A*%
%TO.N,R_2*%
X168380002Y-94700000D03*
%TD*%
D11*
%TO.P,D66,1,K*%
%TO.N,C_0*%
X139779999Y-60900002D03*
%TO.P,D66,2,A*%
%TO.N,A_3*%
X139779999Y-62650000D03*
%TD*%
D10*
%TO.P,D171,1,K*%
%TO.N,C_5*%
X147660000Y-91449998D03*
%TO.P,D171,2,A*%
%TO.N,A_2*%
X147660000Y-89700000D03*
%TD*%
%TO.P,D332,1,K*%
%TO.N,A_6*%
X150250005Y-136150000D03*
%TO.P,D332,2,A*%
%TO.N,C_7*%
X150250005Y-134400002D03*
%TD*%
D11*
%TO.P,D242,1,K*%
%TO.N,R_3*%
X150250002Y-109700001D03*
%TO.P,D242,2,A*%
%TO.N,A_5*%
X150250002Y-111449999D03*
%TD*%
%TO.P,D96,1,K*%
%TO.N,A_1*%
X155425002Y-70275001D03*
%TO.P,D96,2,A*%
%TO.N,C_3*%
X155425002Y-72024999D03*
%TD*%
%TO.P,D329,1,K*%
%TO.N,R_7*%
X158020004Y-134400002D03*
%TO.P,D329,2,A*%
%TO.N,A_6*%
X158020004Y-136150000D03*
%TD*%
D10*
%TO.P,D289,1,K*%
%TO.N,A_7*%
X168380002Y-126349999D03*
%TO.P,D289,2,A*%
%TO.N,R_4*%
X168380002Y-124600001D03*
%TD*%
D11*
%TO.P,D104,1,K*%
%TO.N,A_1*%
X134704999Y-70274999D03*
%TO.P,D104,2,A*%
%TO.N,C_5*%
X134704999Y-72024997D03*
%TD*%
D10*
%TO.P,D313,1,K*%
%TO.N,C_5*%
X152880002Y-131249999D03*
%TO.P,D313,2,A*%
%TO.N,R_5*%
X152880002Y-129500001D03*
%TD*%
%TO.P,D265,1,K*%
%TO.N,R_4*%
X137290000Y-116349997D03*
%TO.P,D265,2,A*%
%TO.N,A_4*%
X137290000Y-114599999D03*
%TD*%
D11*
%TO.P,D152,1,K*%
%TO.N,C_1*%
X150250000Y-84800001D03*
%TO.P,D152,2,A*%
%TO.N,R_6*%
X150250000Y-86549999D03*
%TD*%
%TO.P,D124,1,K*%
%TO.N,R_1*%
X129569999Y-74950002D03*
%TO.P,D124,2,A*%
%TO.N,C_4*%
X129569999Y-76700000D03*
%TD*%
D10*
%TO.P,D287,1,K*%
%TO.N,C_6*%
X126940001Y-121349999D03*
%TO.P,D287,2,A*%
%TO.N,R_4*%
X126940001Y-119600001D03*
%TD*%
%TO.P,D1,1,K*%
%TO.N,R_0*%
X168420000Y-48568000D03*
%TO.P,D1,2,A*%
%TO.N,A_0*%
X168420000Y-46818002D03*
%TD*%
D11*
%TO.P,D246,1,K*%
%TO.N,R_3*%
X139890003Y-109700001D03*
%TO.P,D246,2,A*%
%TO.N,A_6*%
X139890003Y-111449999D03*
%TD*%
D10*
%TO.P,D205,1,K*%
%TO.N,A_5*%
X152830003Y-101549999D03*
%TO.P,D205,2,A*%
%TO.N,C_2*%
X152830003Y-99800001D03*
%TD*%
D11*
%TO.P,D44,1,K*%
%TO.N,R_0*%
X150190001Y-56142003D03*
%TO.P,D44,2,A*%
%TO.N,C_3*%
X150190001Y-57892001D03*
%TD*%
D10*
%TO.P,D231,1,K*%
%TO.N,C_6*%
X132080002Y-106549999D03*
%TO.P,D231,2,A*%
%TO.N,A_3*%
X132080002Y-104800001D03*
%TD*%
%TO.P,D63,1,K*%
%TO.N,R_2*%
X147550001Y-62650000D03*
%TO.P,D63,2,A*%
%TO.N,C_0*%
X147550001Y-60900002D03*
%TD*%
D11*
%TO.P,D60,1,K*%
%TO.N,R_0*%
X155320000Y-60900002D03*
%TO.P,D60,2,A*%
%TO.N,C_7*%
X155320000Y-62650000D03*
%TD*%
D10*
%TO.P,D336,1,K*%
%TO.N,R_6*%
X139890002Y-136149999D03*
%TO.P,D336,2,A*%
%TO.N,C_7*%
X139890002Y-134400001D03*
%TD*%
D11*
%TO.P,D339,1,K*%
%TO.N,C_7*%
X132120004Y-134400003D03*
%TO.P,D339,2,A*%
%TO.N,A_7*%
X132120004Y-136150001D03*
%TD*%
%TO.P,D202,1,K*%
%TO.N,C_2*%
X160600003Y-99800000D03*
%TO.P,D202,2,A*%
%TO.N,A_4*%
X160600003Y-101549998D03*
%TD*%
%TO.P,D22,1,K*%
%TO.N,A_0*%
X160680003Y-51475001D03*
%TO.P,D22,2,A*%
%TO.N,R_5*%
X160680003Y-53224999D03*
%TD*%
%TO.P,D106,1,K*%
%TO.N,A_1*%
X129524999Y-70274999D03*
%TO.P,D106,2,A*%
%TO.N,R_6*%
X129524999Y-72024997D03*
%TD*%
D10*
%TO.P,D275,1,K*%
%TO.N,C_6*%
X158010003Y-121349999D03*
%TO.P,D275,2,A*%
%TO.N,A_4*%
X158010003Y-119600001D03*
%TD*%
%TO.P,D21,1,K*%
%TO.N,R_5*%
X163270000Y-53225000D03*
%TO.P,D21,2,A*%
%TO.N,A_0*%
X163270000Y-51475002D03*
%TD*%
D11*
%TO.P,D294,1,K*%
%TO.N,C_4*%
X155430002Y-124600001D03*
%TO.P,D294,2,A*%
%TO.N,A_6*%
X155430002Y-126349999D03*
%TD*%
D10*
%TO.P,D165,1,K*%
%TO.N,R_4*%
X163200002Y-91449997D03*
%TO.P,D165,2,A*%
%TO.N,A_2*%
X163200002Y-89699999D03*
%TD*%
D11*
%TO.P,D52,1,K*%
%TO.N,R_0*%
X129569999Y-56125001D03*
%TO.P,D52,2,A*%
%TO.N,C_5*%
X129569999Y-57874999D03*
%TD*%
D10*
%TO.P,D31,1,K*%
%TO.N,C_7*%
X137340000Y-53225000D03*
%TO.P,D31,2,A*%
%TO.N,A_0*%
X137340000Y-51475002D03*
%TD*%
%TO.P,D139,1,K*%
%TO.N,R_3*%
X137290000Y-81600000D03*
%TO.P,D139,2,A*%
%TO.N,C_1*%
X137290000Y-79850002D03*
%TD*%
D11*
%TO.P,D110,1,K*%
%TO.N,A_1*%
X165800000Y-74950000D03*
%TO.P,D110,2,A*%
%TO.N,R_7*%
X165800000Y-76699998D03*
%TD*%
D10*
%TO.P,D47,1,K*%
%TO.N,C_4*%
X142520001Y-57874999D03*
%TO.P,D47,2,A*%
%TO.N,R_0*%
X142520001Y-56125001D03*
%TD*%
D11*
%TO.P,D86,1,K*%
%TO.N,A_1*%
X134720001Y-65525003D03*
%TO.P,D86,2,A*%
%TO.N,R_1*%
X134720001Y-67275001D03*
%TD*%
%TO.P,D236,1,K*%
%TO.N,A_3*%
X165790003Y-109700001D03*
%TO.P,D236,2,A*%
%TO.N,C_7*%
X165790003Y-111449999D03*
%TD*%
D10*
%TO.P,D149,1,K*%
%TO.N,A_6*%
X158019999Y-86549999D03*
%TO.P,D149,2,A*%
%TO.N,C_1*%
X158019999Y-84800001D03*
%TD*%
D11*
%TO.P,D238,1,K*%
%TO.N,R_3*%
X160610003Y-109700001D03*
%TO.P,D238,2,A*%
%TO.N,C_3*%
X160610003Y-111449999D03*
%TD*%
D10*
%TO.P,D281,1,K*%
%TO.N,C_4*%
X142480002Y-121349999D03*
%TO.P,D281,2,A*%
%TO.N,R_4*%
X142480002Y-119600001D03*
%TD*%
%TO.P,D59,1,K*%
%TO.N,C_7*%
X157909999Y-62650000D03*
%TO.P,D59,2,A*%
%TO.N,R_0*%
X157909999Y-60900002D03*
%TD*%
D11*
%TO.P,D136,1,K*%
%TO.N,R_1*%
X145080000Y-79850002D03*
%TO.P,D136,2,A*%
%TO.N,C_7*%
X145080000Y-81600000D03*
%TD*%
%TO.P,D98,1,K*%
%TO.N,A_1*%
X150245000Y-70274999D03*
%TO.P,D98,2,A*%
%TO.N,R_4*%
X150245000Y-72024997D03*
%TD*%
D10*
%TO.P,D125,1,K*%
%TO.N,A_5*%
X126980000Y-76700000D03*
%TO.P,D125,2,A*%
%TO.N,R_1*%
X126980000Y-74950002D03*
%TD*%
D11*
%TO.P,D134,1,K*%
%TO.N,R_1*%
X150260000Y-79850002D03*
%TO.P,D134,2,A*%
%TO.N,A_7*%
X150260000Y-81600000D03*
%TD*%
%TO.P,D90,1,K*%
%TO.N,A_1*%
X124360000Y-65525003D03*
%TO.P,D90,2,A*%
%TO.N,R_2*%
X124360000Y-67275001D03*
%TD*%
D10*
%TO.P,D169,1,K*%
%TO.N,R_5*%
X152840001Y-91449998D03*
%TO.P,D169,2,A*%
%TO.N,A_2*%
X152840001Y-89700000D03*
%TD*%
%TO.P,D209,1,K*%
%TO.N,A_6*%
X142490002Y-101550001D03*
%TO.P,D209,2,A*%
%TO.N,C_2*%
X142490002Y-99800003D03*
%TD*%
D11*
%TO.P,D158,1,K*%
%TO.N,A_2*%
X134709998Y-84799999D03*
%TO.P,D158,2,A*%
%TO.N,R_2*%
X134709998Y-86549997D03*
%TD*%
D10*
%TO.P,D135,1,K*%
%TO.N,C_7*%
X147669998Y-81600000D03*
%TO.P,D135,2,A*%
%TO.N,R_1*%
X147669998Y-79850002D03*
%TD*%
D11*
%TO.P,D4,1,K*%
%TO.N,A_0*%
X160650001Y-46818002D03*
%TO.P,D4,2,A*%
%TO.N,C_0*%
X160650001Y-48568000D03*
%TD*%
%TO.P,D216,1,K*%
%TO.N,C_2*%
X124360002Y-99800003D03*
%TO.P,D216,2,A*%
%TO.N,R_7*%
X124360002Y-101550001D03*
%TD*%
%TO.P,D38,1,K*%
%TO.N,R_0*%
X165730003Y-56142005D03*
%TO.P,D38,2,A*%
%TO.N,A_2*%
X165730003Y-57892003D03*
%TD*%
%TO.P,D302,1,K*%
%TO.N,A_5*%
X134800003Y-124600000D03*
%TO.P,D302,2,A*%
%TO.N,R_5*%
X134800003Y-126349998D03*
%TD*%
D10*
%TO.P,D23,1,K*%
%TO.N,C_5*%
X158070000Y-53225000D03*
%TO.P,D23,2,A*%
%TO.N,A_0*%
X158070000Y-51475002D03*
%TD*%
D11*
%TO.P,D172,1,K*%
%TO.N,A_2*%
X145070002Y-89700000D03*
%TO.P,D172,2,A*%
%TO.N,C_5*%
X145070002Y-91449998D03*
%TD*%
%TO.P,D8,1,K*%
%TO.N,A_0*%
X150290000Y-46818002D03*
%TO.P,D8,2,A*%
%TO.N,C_1*%
X150290000Y-48568000D03*
%TD*%
D10*
%TO.P,D69,1,K*%
%TO.N,A_4*%
X132010000Y-62650000D03*
%TO.P,D69,2,A*%
%TO.N,C_0*%
X132010000Y-60900002D03*
%TD*%
%TO.P,D153,1,K*%
%TO.N,A_7*%
X147660000Y-86549998D03*
%TO.P,D153,2,A*%
%TO.N,C_1*%
X147660000Y-84800000D03*
%TD*%
%TO.P,D263,1,K*%
%TO.N,R_7*%
X142470003Y-116349998D03*
%TO.P,D263,2,A*%
%TO.N,C_3*%
X142470003Y-114600000D03*
%TD*%
%TO.P,D147,1,K*%
%TO.N,R_5*%
X163200000Y-86549999D03*
%TO.P,D147,2,A*%
%TO.N,C_1*%
X163200000Y-84800001D03*
%TD*%
D11*
%TO.P,D226,1,K*%
%TO.N,A_3*%
X145070003Y-104800003D03*
%TO.P,D226,2,A*%
%TO.N,R_5*%
X145070003Y-106550001D03*
%TD*%
D10*
%TO.P,D221,1,K*%
%TO.N,R_4*%
X158020001Y-106549999D03*
%TO.P,D221,2,A*%
%TO.N,A_3*%
X158020001Y-104800001D03*
%TD*%
%TO.P,D342,1,K*%
%TO.N,R_7*%
X124350005Y-136150001D03*
%TO.P,D342,2,A*%
%TO.N,C_7*%
X124350005Y-134400003D03*
%TD*%
D11*
%TO.P,D335,1,K*%
%TO.N,C_7*%
X142480005Y-134400003D03*
%TO.P,D335,2,A*%
%TO.N,R_6*%
X142480005Y-136150001D03*
%TD*%
%TO.P,D220,1,K*%
%TO.N,A_3*%
X160610000Y-104800001D03*
%TO.P,D220,2,A*%
%TO.N,C_3*%
X160610000Y-106549999D03*
%TD*%
D10*
%TO.P,D3,1,K*%
%TO.N,C_0*%
X163239999Y-48568000D03*
%TO.P,D3,2,A*%
%TO.N,A_0*%
X163239999Y-46818002D03*
%TD*%
D11*
%TO.P,D184,1,K*%
%TO.N,R_2*%
X160610002Y-94700001D03*
%TO.P,D184,2,A*%
%TO.N,C_3*%
X160610002Y-96449999D03*
%TD*%
D10*
%TO.P,D273,1,K*%
%TO.N,R_6*%
X163190004Y-121349999D03*
%TO.P,D273,2,A*%
%TO.N,A_4*%
X163190004Y-119600001D03*
%TD*%
%TO.P,D255,1,K*%
%TO.N,R_5*%
X163190002Y-116349999D03*
%TO.P,D255,2,A*%
%TO.N,C_3*%
X163190002Y-114600001D03*
%TD*%
%TO.P,D33,1,K*%
%TO.N,C_0*%
X132160001Y-53224999D03*
%TO.P,D33,2,A*%
%TO.N,R_0*%
X132160001Y-51475001D03*
%TD*%
%TO.P,D95,1,K*%
%TO.N,C_3*%
X158014999Y-72024997D03*
%TO.P,D95,2,A*%
%TO.N,A_1*%
X158014999Y-70274999D03*
%TD*%
D11*
%TO.P,D274,1,K*%
%TO.N,A_4*%
X160600001Y-119599999D03*
%TO.P,D274,2,A*%
%TO.N,R_6*%
X160600001Y-121349997D03*
%TD*%
D10*
%TO.P,D55,1,K*%
%TO.N,C_6*%
X168270000Y-62649999D03*
%TO.P,D55,2,A*%
%TO.N,R_0*%
X168270000Y-60900001D03*
%TD*%
%TO.P,D89,1,K*%
%TO.N,R_2*%
X126950002Y-67275001D03*
%TO.P,D89,2,A*%
%TO.N,A_1*%
X126950002Y-65525003D03*
%TD*%
%TO.P,D121,1,K*%
%TO.N,A_4*%
X137339998Y-76700000D03*
%TO.P,D121,2,A*%
%TO.N,R_1*%
X137339998Y-74950002D03*
%TD*%
D11*
%TO.P,D316,1,K*%
%TO.N,R_5*%
X145090002Y-129500001D03*
%TO.P,D316,2,A*%
%TO.N,C_6*%
X145090002Y-131249999D03*
%TD*%
%TO.P,D120,1,K*%
%TO.N,R_1*%
X139930000Y-74950002D03*
%TO.P,D120,2,A*%
%TO.N,C_3*%
X139930000Y-76700000D03*
%TD*%
D10*
%TO.P,D101,1,K*%
%TO.N,R_5*%
X142475001Y-72024997D03*
%TO.P,D101,2,A*%
%TO.N,A_1*%
X142475001Y-70274999D03*
%TD*%
D11*
%TO.P,D24,1,K*%
%TO.N,A_0*%
X155470000Y-51475002D03*
%TO.P,D24,2,A*%
%TO.N,C_5*%
X155470000Y-53225000D03*
%TD*%
%TO.P,D224,1,K*%
%TO.N,A_3*%
X150250002Y-104800001D03*
%TO.P,D224,2,A*%
%TO.N,C_4*%
X150250002Y-106549999D03*
%TD*%
%TO.P,D132,1,K*%
%TO.N,R_1*%
X155440000Y-79850002D03*
%TO.P,D132,2,A*%
%TO.N,C_6*%
X155440000Y-81600000D03*
%TD*%
D10*
%TO.P,D103,1,K*%
%TO.N,C_5*%
X137295002Y-72024999D03*
%TO.P,D103,2,A*%
%TO.N,A_1*%
X137295002Y-70275001D03*
%TD*%
D11*
%TO.P,D156,1,K*%
%TO.N,C_1*%
X139890001Y-84800000D03*
%TO.P,D156,2,A*%
%TO.N,R_7*%
X139890001Y-86549998D03*
%TD*%
%TO.P,D58,1,K*%
%TO.N,R_0*%
X160500001Y-60900001D03*
%TO.P,D58,2,A*%
%TO.N,A_7*%
X160500001Y-62649999D03*
%TD*%
%TO.P,D286,1,K*%
%TO.N,R_4*%
X129530003Y-119600001D03*
%TO.P,D286,2,A*%
%TO.N,A_6*%
X129530003Y-121349999D03*
%TD*%
%TO.P,D300,1,K*%
%TO.N,C_4*%
X139980002Y-124600001D03*
%TO.P,D300,2,A*%
%TO.N,R_7*%
X139980002Y-126349999D03*
%TD*%
%TO.P,D18,1,K*%
%TO.N,A_0*%
X124390001Y-46818002D03*
%TO.P,D18,2,A*%
%TO.N,R_4*%
X124390001Y-48568000D03*
%TD*%
%TO.P,D74,1,K*%
%TO.N,C_0*%
X165800000Y-65525003D03*
%TO.P,D74,2,A*%
%TO.N,A_5*%
X165800000Y-67275001D03*
%TD*%
D10*
%TO.P,D159,1,K*%
%TO.N,C_2*%
X132120001Y-86549999D03*
%TO.P,D159,2,A*%
%TO.N,A_2*%
X132120001Y-84800001D03*
%TD*%
%TO.P,D219,1,K*%
%TO.N,C_3*%
X163200003Y-106550001D03*
%TO.P,D219,2,A*%
%TO.N,A_3*%
X163200003Y-104800003D03*
%TD*%
%TO.P,D309,1,K*%
%TO.N,R_7*%
X163200003Y-131249998D03*
%TO.P,D309,2,A*%
%TO.N,A_5*%
X163200003Y-129500000D03*
%TD*%
D11*
%TO.P,D94,1,K*%
%TO.N,A_1*%
X160605001Y-70274999D03*
%TO.P,D94,2,A*%
%TO.N,R_3*%
X160605001Y-72024997D03*
%TD*%
D10*
%TO.P,D13,1,K*%
%TO.N,R_3*%
X137340001Y-48568000D03*
%TO.P,D13,2,A*%
%TO.N,A_0*%
X137340001Y-46818002D03*
%TD*%
D11*
%TO.P,D292,1,K*%
%TO.N,R_4*%
X160610003Y-124600001D03*
%TO.P,D292,2,A*%
%TO.N,C_7*%
X160610003Y-126349999D03*
%TD*%
%TO.P,D218,1,K*%
%TO.N,A_3*%
X165790000Y-104800001D03*
%TO.P,D218,2,A*%
%TO.N,R_3*%
X165790000Y-106549999D03*
%TD*%
D10*
%TO.P,D115,1,K*%
%TO.N,C_2*%
X152850000Y-76699999D03*
%TO.P,D115,2,A*%
%TO.N,R_1*%
X152850000Y-74950001D03*
%TD*%
%TO.P,D317,1,K*%
%TO.N,A_7*%
X142580002Y-131249999D03*
%TO.P,D317,2,A*%
%TO.N,R_5*%
X142580002Y-129500001D03*
%TD*%
D11*
%TO.P,D128,1,K*%
%TO.N,R_1*%
X165799998Y-79850002D03*
%TO.P,D128,2,A*%
%TO.N,C_5*%
X165799998Y-81600000D03*
%TD*%
D10*
%TO.P,D35,1,K*%
%TO.N,C_1*%
X126979998Y-53224998D03*
%TO.P,D35,2,A*%
%TO.N,R_0*%
X126979998Y-51475000D03*
%TD*%
%TO.P,D29,1,K*%
%TO.N,R_7*%
X142520002Y-53224999D03*
%TO.P,D29,2,A*%
%TO.N,A_0*%
X142520002Y-51475001D03*
%TD*%
D11*
%TO.P,D192,1,K*%
%TO.N,R_2*%
X139850003Y-94700002D03*
%TO.P,D192,2,A*%
%TO.N,C_5*%
X139850003Y-96450000D03*
%TD*%
D10*
%TO.P,D299,1,K*%
%TO.N,R_7*%
X142480003Y-126349999D03*
%TO.P,D299,2,A*%
%TO.N,C_4*%
X142480003Y-124600001D03*
%TD*%
D11*
%TO.P,D258,1,K*%
%TO.N,C_3*%
X155420000Y-114599999D03*
%TO.P,D258,2,A*%
%TO.N,A_6*%
X155420000Y-116349997D03*
%TD*%
%TO.P,D84,1,K*%
%TO.N,C_0*%
X139900000Y-65525001D03*
%TO.P,D84,2,A*%
%TO.N,R_7*%
X139900000Y-67274999D03*
%TD*%
%TO.P,D278,1,K*%
%TO.N,A_4*%
X150290000Y-119600001D03*
%TO.P,D278,2,A*%
%TO.N,R_7*%
X150290000Y-121349999D03*
%TD*%
%TO.P,D144,1,K*%
%TO.N,C_1*%
X124339997Y-79850001D03*
%TO.P,D144,2,A*%
%TO.N,R_4*%
X124339997Y-81599999D03*
%TD*%
%TO.P,D48,1,K*%
%TO.N,R_0*%
X139929999Y-56125001D03*
%TO.P,D48,2,A*%
%TO.N,C_4*%
X139929999Y-57874999D03*
%TD*%
D10*
%TO.P,D203,1,K*%
%TO.N,R_4*%
X158010003Y-101549999D03*
%TO.P,D203,2,A*%
%TO.N,C_2*%
X158010003Y-99800001D03*
%TD*%
%TO.P,D285,1,K*%
%TO.N,A_6*%
X132120001Y-121349999D03*
%TO.P,D285,2,A*%
%TO.N,R_4*%
X132120001Y-119600001D03*
%TD*%
%TO.P,D283,1,K*%
%TO.N,C_5*%
X137300002Y-121349999D03*
%TO.P,D283,2,A*%
%TO.N,R_4*%
X137300002Y-119600001D03*
%TD*%
%TO.P,D183,1,K*%
%TO.N,C_3*%
X163200001Y-96449999D03*
%TO.P,D183,2,A*%
%TO.N,R_2*%
X163200001Y-94700001D03*
%TD*%
%TO.P,D87,1,K*%
%TO.N,C_1*%
X132130002Y-67275001D03*
%TO.P,D87,2,A*%
%TO.N,A_1*%
X132130002Y-65525003D03*
%TD*%
%TO.P,D223,1,K*%
%TO.N,C_4*%
X152840002Y-106550001D03*
%TO.P,D223,2,A*%
%TO.N,A_3*%
X152840002Y-104800003D03*
%TD*%
D11*
%TO.P,D36,1,K*%
%TO.N,R_0*%
X124390001Y-51475002D03*
%TO.P,D36,2,A*%
%TO.N,C_1*%
X124390001Y-53225000D03*
%TD*%
%TO.P,D214,1,K*%
%TO.N,C_2*%
X129540001Y-99800001D03*
%TO.P,D214,2,A*%
%TO.N,A_7*%
X129540001Y-101549999D03*
%TD*%
%TO.P,D338,1,K*%
%TO.N,A_7*%
X134710004Y-134400002D03*
%TO.P,D338,2,A*%
%TO.N,R_7*%
X134710004Y-136150000D03*
%TD*%
%TO.P,D176,1,K*%
%TO.N,A_2*%
X134710001Y-89700000D03*
%TO.P,D176,2,A*%
%TO.N,C_6*%
X134710001Y-91449998D03*
%TD*%
%TO.P,D264,1,K*%
%TO.N,C_3*%
X139880003Y-114600001D03*
%TO.P,D264,2,A*%
%TO.N,R_7*%
X139880003Y-116349999D03*
%TD*%
%TO.P,D164,1,K*%
%TO.N,A_2*%
X165790000Y-89700000D03*
%TO.P,D164,2,A*%
%TO.N,C_3*%
X165790000Y-91449998D03*
%TD*%
D10*
%TO.P,D211,1,K*%
%TO.N,R_6*%
X137310000Y-101549999D03*
%TO.P,D211,2,A*%
%TO.N,C_2*%
X137310000Y-99800001D03*
%TD*%
D11*
%TO.P,D20,1,K*%
%TO.N,A_0*%
X165880002Y-51500003D03*
%TO.P,D20,2,A*%
%TO.N,C_4*%
X165880002Y-53250001D03*
%TD*%
%TO.P,D126,1,K*%
%TO.N,R_1*%
X124389998Y-74950002D03*
%TO.P,D126,2,A*%
%TO.N,A_5*%
X124389998Y-76700000D03*
%TD*%
D10*
%TO.P,D11,1,K*%
%TO.N,C_2*%
X142520001Y-48568000D03*
%TO.P,D11,2,A*%
%TO.N,A_0*%
X142520001Y-46818002D03*
%TD*%
D11*
%TO.P,D248,1,K*%
%TO.N,R_3*%
X134710004Y-109700001D03*
%TO.P,D248,2,A*%
%TO.N,C_6*%
X134710004Y-111449999D03*
%TD*%
D10*
%TO.P,D19,1,K*%
%TO.N,C_4*%
X168470000Y-53250001D03*
%TO.P,D19,2,A*%
%TO.N,A_0*%
X168470000Y-51500003D03*
%TD*%
D11*
%TO.P,D182,1,K*%
%TO.N,R_2*%
X165790000Y-94700001D03*
%TO.P,D182,2,A*%
%TO.N,C_2*%
X165790000Y-96449999D03*
%TD*%
D10*
%TO.P,D239,1,K*%
%TO.N,C_4*%
X158020004Y-111449999D03*
%TO.P,D239,2,A*%
%TO.N,R_3*%
X158020004Y-109700001D03*
%TD*%
%TO.P,D137,1,K*%
%TO.N,A_3*%
X142489998Y-81600000D03*
%TO.P,D137,2,A*%
%TO.N,C_1*%
X142489998Y-79850002D03*
%TD*%
%TO.P,D49,1,K*%
%TO.N,A_5*%
X137340001Y-57874999D03*
%TO.P,D49,2,A*%
%TO.N,R_0*%
X137340001Y-56125001D03*
%TD*%
%TO.P,D297,1,K*%
%TO.N,A_7*%
X147660003Y-126349999D03*
%TO.P,D297,2,A*%
%TO.N,C_4*%
X147660003Y-124600001D03*
%TD*%
D11*
%TO.P,D280,1,K*%
%TO.N,A_4*%
X145110000Y-119600001D03*
%TO.P,D280,2,A*%
%TO.N,C_7*%
X145110000Y-121349999D03*
%TD*%
D10*
%TO.P,D315,1,K*%
%TO.N,C_6*%
X147680002Y-131249999D03*
%TO.P,D315,2,A*%
%TO.N,R_5*%
X147680002Y-129500001D03*
%TD*%
%TO.P,D189,1,K*%
%TO.N,A_5*%
X147620004Y-96450000D03*
%TO.P,D189,2,A*%
%TO.N,R_2*%
X147620004Y-94700002D03*
%TD*%
%TO.P,D141,1,K*%
%TO.N,A_4*%
X132110000Y-81600001D03*
%TO.P,D141,2,A*%
%TO.N,C_1*%
X132110000Y-79850003D03*
%TD*%
%TO.P,D37,1,K*%
%TO.N,A_2*%
X168320001Y-57892001D03*
%TO.P,D37,2,A*%
%TO.N,R_0*%
X168320001Y-56142003D03*
%TD*%
D11*
%TO.P,D26,1,K*%
%TO.N,A_0*%
X150289999Y-51475002D03*
%TO.P,D26,2,A*%
%TO.N,R_6*%
X150289999Y-53225000D03*
%TD*%
D10*
%TO.P,D193,1,K*%
%TO.N,A_6*%
X137260003Y-96450000D03*
%TO.P,D193,2,A*%
%TO.N,R_2*%
X137260003Y-94700002D03*
%TD*%
D11*
%TO.P,D327,1,K*%
%TO.N,C_6*%
X163200002Y-134400001D03*
%TO.P,D327,2,A*%
%TO.N,A_6*%
X163200002Y-136149999D03*
%TD*%
%TO.P,D188,1,K*%
%TO.N,R_2*%
X150210004Y-94700000D03*
%TO.P,D188,2,A*%
%TO.N,C_4*%
X150210004Y-96449998D03*
%TD*%
%TO.P,D314,1,K*%
%TO.N,R_5*%
X150290002Y-129499999D03*
%TO.P,D314,2,A*%
%TO.N,C_5*%
X150290002Y-131249997D03*
%TD*%
%TO.P,D62,1,K*%
%TO.N,C_0*%
X150140000Y-60900002D03*
%TO.P,D62,2,A*%
%TO.N,A_2*%
X150140000Y-62650000D03*
%TD*%
%TO.P,D154,1,K*%
%TO.N,C_1*%
X145070000Y-84800001D03*
%TO.P,D154,2,A*%
%TO.N,A_7*%
X145070000Y-86549999D03*
%TD*%
%TO.P,D112,1,K*%
%TO.N,A_1*%
X160620001Y-74950002D03*
%TO.P,D112,2,A*%
%TO.N,C_7*%
X160620001Y-76700000D03*
%TD*%
D10*
%TO.P,D257,1,K*%
%TO.N,A_6*%
X158010003Y-116349999D03*
%TO.P,D257,2,A*%
%TO.N,C_3*%
X158010003Y-114600001D03*
%TD*%
%TO.P,D175,1,K*%
%TO.N,C_6*%
X137300000Y-91449998D03*
%TO.P,D175,2,A*%
%TO.N,A_2*%
X137300000Y-89700000D03*
%TD*%
D11*
%TO.P,D288,1,K*%
%TO.N,R_4*%
X124350002Y-119600001D03*
%TO.P,D288,2,A*%
%TO.N,C_6*%
X124350002Y-121349999D03*
%TD*%
%TO.P,D40,1,K*%
%TO.N,R_0*%
X160550003Y-56142005D03*
%TO.P,D40,2,A*%
%TO.N,C_2*%
X160550003Y-57892003D03*
%TD*%
%TO.P,D116,1,K*%
%TO.N,R_1*%
X150290000Y-74950002D03*
%TO.P,D116,2,A*%
%TO.N,C_2*%
X150290000Y-76700000D03*
%TD*%
%TO.P,D42,1,K*%
%TO.N,R_0*%
X155370002Y-56142005D03*
%TO.P,D42,2,A*%
%TO.N,A_3*%
X155370002Y-57892003D03*
%TD*%
D10*
%TO.P,D161,1,K*%
%TO.N,R_3*%
X126940000Y-86549999D03*
%TO.P,D161,2,A*%
%TO.N,A_2*%
X126940000Y-84800001D03*
%TD*%
D11*
%TO.P,D260,1,K*%
%TO.N,C_3*%
X150240002Y-114600000D03*
%TO.P,D260,2,A*%
%TO.N,R_6*%
X150240002Y-116349998D03*
%TD*%
D10*
%TO.P,D249,1,K*%
%TO.N,A_7*%
X132120002Y-111449999D03*
%TO.P,D249,2,A*%
%TO.N,R_3*%
X132120002Y-109700001D03*
%TD*%
%TO.P,D9,1,K*%
%TO.N,R_2*%
X147700001Y-48568000D03*
%TO.P,D9,2,A*%
%TO.N,A_0*%
X147700001Y-46818002D03*
%TD*%
D11*
%TO.P,D146,1,K*%
%TO.N,C_1*%
X165790000Y-84800000D03*
%TO.P,D146,2,A*%
%TO.N,A_5*%
X165790000Y-86549998D03*
%TD*%
D10*
%TO.P,D57,1,K*%
%TO.N,A_7*%
X163089999Y-62650000D03*
%TO.P,D57,2,A*%
%TO.N,R_0*%
X163089999Y-60900002D03*
%TD*%
D11*
%TO.P,D210,1,K*%
%TO.N,C_2*%
X139900003Y-99800003D03*
%TO.P,D210,2,A*%
%TO.N,A_6*%
X139900003Y-101550001D03*
%TD*%
D10*
%TO.P,D229,1,K*%
%TO.N,R_6*%
X137300000Y-106549999D03*
%TO.P,D229,2,A*%
%TO.N,A_3*%
X137300000Y-104800001D03*
%TD*%
%TO.P,D307,1,K*%
%TO.N,C_6*%
X168380002Y-131249999D03*
%TO.P,D307,2,A*%
%TO.N,A_5*%
X168380002Y-129500001D03*
%TD*%
%TO.P,D251,1,K*%
%TO.N,C_7*%
X126940002Y-111449999D03*
%TO.P,D251,2,A*%
%TO.N,R_3*%
X126940002Y-109700001D03*
%TD*%
D11*
%TO.P,D284,1,K*%
%TO.N,R_4*%
X134710003Y-119600001D03*
%TO.P,D284,2,A*%
%TO.N,C_5*%
X134710003Y-121349999D03*
%TD*%
%TO.P,D72,1,K*%
%TO.N,C_0*%
X124390001Y-60900000D03*
%TO.P,D72,2,A*%
%TO.N,R_4*%
X124390001Y-62649998D03*
%TD*%
%TO.P,D234,1,K*%
%TO.N,A_3*%
X124310003Y-104800001D03*
%TO.P,D234,2,A*%
%TO.N,R_7*%
X124310003Y-106549999D03*
%TD*%
%TO.P,D70,1,K*%
%TO.N,C_0*%
X129570000Y-60900001D03*
%TO.P,D70,2,A*%
%TO.N,A_4*%
X129570000Y-62649999D03*
%TD*%
%TO.P,D318,1,K*%
%TO.N,R_5*%
X139990002Y-129500000D03*
%TO.P,D318,2,A*%
%TO.N,A_7*%
X139990002Y-131249998D03*
%TD*%
%TO.P,D228,1,K*%
%TO.N,A_3*%
X139890003Y-104800003D03*
%TO.P,D228,2,A*%
%TO.N,C_5*%
X139890003Y-106550001D03*
%TD*%
D10*
%TO.P,D151,1,K*%
%TO.N,R_6*%
X152839998Y-86549997D03*
%TO.P,D151,2,A*%
%TO.N,C_1*%
X152839998Y-84799999D03*
%TD*%
%TO.P,D215,1,K*%
%TO.N,R_7*%
X126950002Y-101550000D03*
%TO.P,D215,2,A*%
%TO.N,C_2*%
X126950002Y-99800002D03*
%TD*%
%TO.P,D7,1,K*%
%TO.N,C_1*%
X152880000Y-48568000D03*
%TO.P,D7,2,A*%
%TO.N,A_0*%
X152880000Y-46818002D03*
%TD*%
%TO.P,D253,1,K*%
%TO.N,A_5*%
X168380002Y-116349999D03*
%TO.P,D253,2,A*%
%TO.N,C_3*%
X168380002Y-114600001D03*
%TD*%
D11*
%TO.P,D114,1,K*%
%TO.N,R_1*%
X155439999Y-74950000D03*
%TO.P,D114,2,A*%
%TO.N,C_1*%
X155439999Y-76699998D03*
%TD*%
%TO.P,D322,1,K*%
%TO.N,C_5*%
X129610001Y-129450003D03*
%TO.P,D322,2,A*%
%TO.N,A_7*%
X129610001Y-131200001D03*
%TD*%
%TO.P,D12,1,K*%
%TO.N,A_0*%
X139929999Y-46818002D03*
%TO.P,D12,2,A*%
%TO.N,C_2*%
X139929999Y-48568000D03*
%TD*%
%TO.P,D331,1,K*%
%TO.N,C_7*%
X152840004Y-134400001D03*
%TO.P,D331,2,A*%
%TO.N,A_6*%
X152840004Y-136149999D03*
%TD*%
%TO.P,D304,1,K*%
%TO.N,A_5*%
X129620001Y-124600001D03*
%TO.P,D304,2,A*%
%TO.N,C_5*%
X129620001Y-126349999D03*
%TD*%
%TO.P,D118,1,K*%
%TO.N,R_1*%
X145110000Y-74950002D03*
%TO.P,D118,2,A*%
%TO.N,A_3*%
X145110000Y-76700000D03*
%TD*%
D10*
%TO.P,D75,1,K*%
%TO.N,R_5*%
X163210000Y-67274999D03*
%TO.P,D75,2,A*%
%TO.N,C_0*%
X163210000Y-65525001D03*
%TD*%
D11*
%TO.P,D166,1,K*%
%TO.N,A_2*%
X160610000Y-89700000D03*
%TO.P,D166,2,A*%
%TO.N,R_4*%
X160610000Y-91449998D03*
%TD*%
D10*
%TO.P,D27,1,K*%
%TO.N,C_6*%
X147700001Y-53225000D03*
%TO.P,D27,2,A*%
%TO.N,A_0*%
X147700001Y-51475002D03*
%TD*%
D11*
%TO.P,D232,1,K*%
%TO.N,A_3*%
X129490003Y-104800001D03*
%TO.P,D232,2,A*%
%TO.N,C_6*%
X129490003Y-106549999D03*
%TD*%
D10*
%TO.P,D91,1,K*%
%TO.N,C_2*%
X168400000Y-72024999D03*
%TO.P,D91,2,A*%
%TO.N,A_1*%
X168400000Y-70275001D03*
%TD*%
%TO.P,D53,1,K*%
%TO.N,A_6*%
X126980000Y-57874999D03*
%TO.P,D53,2,A*%
%TO.N,R_0*%
X126980000Y-56125001D03*
%TD*%
D11*
%TO.P,D82,1,K*%
%TO.N,C_0*%
X145080000Y-65525001D03*
%TO.P,D82,2,A*%
%TO.N,A_7*%
X145080000Y-67274999D03*
%TD*%
%TO.P,D138,1,K*%
%TO.N,C_1*%
X139899999Y-79850002D03*
%TO.P,D138,2,A*%
%TO.N,A_3*%
X139899999Y-81600000D03*
%TD*%
%TO.P,D46,1,K*%
%TO.N,R_0*%
X145010003Y-56142004D03*
%TO.P,D46,2,A*%
%TO.N,A_4*%
X145010003Y-57892002D03*
%TD*%
%TO.P,D310,1,K*%
%TO.N,A_5*%
X160610003Y-129500001D03*
%TO.P,D310,2,A*%
%TO.N,R_7*%
X160610003Y-131249999D03*
%TD*%
D10*
%TO.P,D117,1,K*%
%TO.N,A_3*%
X147699999Y-76700000D03*
%TO.P,D117,2,A*%
%TO.N,R_1*%
X147699999Y-74950002D03*
%TD*%
D11*
%TO.P,D324,1,K*%
%TO.N,C_5*%
X124390002Y-129425000D03*
%TO.P,D324,2,A*%
%TO.N,R_7*%
X124390002Y-131174998D03*
%TD*%
%TO.P,D102,1,K*%
%TO.N,A_1*%
X139884999Y-70274999D03*
%TO.P,D102,2,A*%
%TO.N,R_5*%
X139884999Y-72024997D03*
%TD*%
D10*
%TO.P,D291,1,K*%
%TO.N,C_7*%
X163200005Y-126349999D03*
%TO.P,D291,2,A*%
%TO.N,R_4*%
X163200005Y-124600001D03*
%TD*%
%TO.P,D217,1,K*%
%TO.N,R_3*%
X168380002Y-106549999D03*
%TO.P,D217,2,A*%
%TO.N,A_3*%
X168380002Y-104800001D03*
%TD*%
%TO.P,D279,1,K*%
%TO.N,C_7*%
X147700002Y-121349999D03*
%TO.P,D279,2,A*%
%TO.N,A_4*%
X147700002Y-119600001D03*
%TD*%
D11*
%TO.P,D266,1,K*%
%TO.N,A_4*%
X134700003Y-114600001D03*
%TO.P,D266,2,A*%
%TO.N,R_4*%
X134700003Y-116349999D03*
%TD*%
D10*
%TO.P,D111,1,K*%
%TO.N,C_7*%
X163209998Y-76699998D03*
%TO.P,D111,2,A*%
%TO.N,A_1*%
X163209998Y-74950000D03*
%TD*%
D11*
%TO.P,D68,1,K*%
%TO.N,C_0*%
X134599999Y-60900002D03*
%TO.P,D68,2,A*%
%TO.N,R_3*%
X134599999Y-62650000D03*
%TD*%
D10*
%TO.P,D79,1,K*%
%TO.N,R_6*%
X152850002Y-67275000D03*
%TO.P,D79,2,A*%
%TO.N,C_0*%
X152850002Y-65525002D03*
%TD*%
D11*
%TO.P,D272,1,K*%
%TO.N,A_4*%
X165780002Y-119600001D03*
%TO.P,D272,2,A*%
%TO.N,C_5*%
X165780002Y-121349999D03*
%TD*%
D10*
%TO.P,D67,1,K*%
%TO.N,R_3*%
X137190000Y-62650000D03*
%TO.P,D67,2,A*%
%TO.N,C_0*%
X137190000Y-60900002D03*
%TD*%
D11*
%TO.P,D206,1,K*%
%TO.N,C_2*%
X150240001Y-99800001D03*
%TO.P,D206,2,A*%
%TO.N,A_5*%
X150240001Y-101549999D03*
%TD*%
D10*
%TO.P,D340,1,K*%
%TO.N,A_7*%
X129530004Y-136149999D03*
%TO.P,D340,2,A*%
%TO.N,C_7*%
X129530004Y-134400001D03*
%TD*%
D11*
%TO.P,D308,1,K*%
%TO.N,A_5*%
X165790001Y-129500000D03*
%TO.P,D308,2,A*%
%TO.N,C_6*%
X165790001Y-131249998D03*
%TD*%
D10*
%TO.P,D247,1,K*%
%TO.N,C_6*%
X137300003Y-111449999D03*
%TO.P,D247,2,A*%
%TO.N,R_3*%
X137300003Y-109700001D03*
%TD*%
D11*
%TO.P,D204,1,K*%
%TO.N,C_2*%
X155420001Y-99800001D03*
%TO.P,D204,2,A*%
%TO.N,R_4*%
X155420001Y-101549999D03*
%TD*%
%TO.P,D56,1,K*%
%TO.N,R_0*%
X165680001Y-60900002D03*
%TO.P,D56,2,A*%
%TO.N,C_6*%
X165680001Y-62650000D03*
%TD*%
D10*
%TO.P,D241,1,K*%
%TO.N,A_5*%
X152840004Y-111449999D03*
%TO.P,D241,2,A*%
%TO.N,R_3*%
X152840004Y-109700001D03*
%TD*%
%TO.P,D187,1,K*%
%TO.N,C_4*%
X152800004Y-96450000D03*
%TO.P,D187,2,A*%
%TO.N,R_2*%
X152800004Y-94700002D03*
%TD*%
D11*
%TO.P,D276,1,K*%
%TO.N,A_4*%
X155420003Y-119600000D03*
%TO.P,D276,2,A*%
%TO.N,C_6*%
X155420003Y-121349998D03*
%TD*%
D10*
%TO.P,D97,1,K*%
%TO.N,R_4*%
X152834999Y-72024997D03*
%TO.P,D97,2,A*%
%TO.N,A_1*%
X152834999Y-70274999D03*
%TD*%
D11*
%TO.P,D160,1,K*%
%TO.N,A_2*%
X129529998Y-84799999D03*
%TO.P,D160,2,A*%
%TO.N,C_2*%
X129529998Y-86549997D03*
%TD*%
%TO.P,D162,1,K*%
%TO.N,A_2*%
X124290000Y-84800000D03*
%TO.P,D162,2,A*%
%TO.N,R_3*%
X124290000Y-86549998D03*
%TD*%
D10*
%TO.P,D123,1,K*%
%TO.N,C_4*%
X132159999Y-76700000D03*
%TO.P,D123,2,A*%
%TO.N,R_1*%
X132159999Y-74950002D03*
%TD*%
%TO.P,D293,1,K*%
%TO.N,A_6*%
X158020004Y-126349999D03*
%TO.P,D293,2,A*%
%TO.N,C_4*%
X158020004Y-124600001D03*
%TD*%
D11*
%TO.P,D196,1,K*%
%TO.N,R_2*%
X129490004Y-94700002D03*
%TO.P,D196,2,A*%
%TO.N,C_6*%
X129490004Y-96450000D03*
%TD*%
D10*
%TO.P,D25,1,K*%
%TO.N,R_6*%
X152879999Y-53224999D03*
%TO.P,D25,2,A*%
%TO.N,A_0*%
X152879999Y-51475001D03*
%TD*%
D11*
%TO.P,D64,1,K*%
%TO.N,C_0*%
X144959999Y-60900002D03*
%TO.P,D64,2,A*%
%TO.N,R_2*%
X144959999Y-62650000D03*
%TD*%
D10*
%TO.P,D61,1,K*%
%TO.N,A_2*%
X152730001Y-62650000D03*
%TO.P,D61,2,A*%
%TO.N,C_0*%
X152730001Y-60900002D03*
%TD*%
D11*
%TO.P,D28,1,K*%
%TO.N,A_0*%
X145109998Y-51475000D03*
%TO.P,D28,2,A*%
%TO.N,C_6*%
X145109998Y-53224998D03*
%TD*%
%TO.P,D168,1,K*%
%TO.N,A_2*%
X155430003Y-89700000D03*
%TO.P,D168,2,A*%
%TO.N,C_4*%
X155430003Y-91449998D03*
%TD*%
%TO.P,D200,1,K*%
%TO.N,R_2*%
X165780002Y-99800001D03*
%TO.P,D200,2,A*%
%TO.N,C_7*%
X165780002Y-101549999D03*
%TD*%
D10*
%TO.P,D145,1,K*%
%TO.N,A_5*%
X168380000Y-86549999D03*
%TO.P,D145,2,A*%
%TO.N,C_1*%
X168380000Y-84800001D03*
%TD*%
D11*
%TO.P,D78,1,K*%
%TO.N,C_0*%
X155440000Y-65525002D03*
%TO.P,D78,2,A*%
%TO.N,A_6*%
X155440000Y-67275000D03*
%TD*%
%TO.P,D290,1,K*%
%TO.N,R_4*%
X165790003Y-124600001D03*
%TO.P,D290,2,A*%
%TO.N,A_7*%
X165790003Y-126349999D03*
%TD*%
D10*
%TO.P,D321,1,K*%
%TO.N,A_7*%
X132200000Y-131199999D03*
%TO.P,D321,2,A*%
%TO.N,C_5*%
X132200000Y-129450001D03*
%TD*%
%TO.P,D323,1,K*%
%TO.N,R_7*%
X126980002Y-131175000D03*
%TO.P,D323,2,A*%
%TO.N,C_5*%
X126980002Y-129425002D03*
%TD*%
D11*
%TO.P,D212,1,K*%
%TO.N,C_2*%
X134720003Y-99800003D03*
%TO.P,D212,2,A*%
%TO.N,R_6*%
X134720003Y-101550001D03*
%TD*%
D10*
%TO.P,D85,1,K*%
%TO.N,R_1*%
X137310001Y-67275001D03*
%TO.P,D85,2,A*%
%TO.N,A_1*%
X137310001Y-65525003D03*
%TD*%
D11*
%TO.P,D250,1,K*%
%TO.N,R_3*%
X129530004Y-109700001D03*
%TO.P,D250,2,A*%
%TO.N,A_7*%
X129530004Y-111449999D03*
%TD*%
%TO.P,D282,1,K*%
%TO.N,R_4*%
X139890001Y-119600001D03*
%TO.P,D282,2,A*%
%TO.N,C_4*%
X139890001Y-121349999D03*
%TD*%
D10*
%TO.P,D133,1,K*%
%TO.N,A_7*%
X152850000Y-81599999D03*
%TO.P,D133,2,A*%
%TO.N,R_1*%
X152850000Y-79850001D03*
%TD*%
D14*
%TO.N,R_7*%
X91100000Y-53224999D03*
%TO.N,R_6*%
X101480002Y-126349999D03*
%TO.N,C_7*%
X111790001Y-76700000D03*
X88390001Y-53600000D03*
%TO.N,C_6*%
X92900000Y-132375001D03*
X92290001Y-83700000D03*
X83700000Y-111375001D03*
X88600000Y-91175001D03*
X83490001Y-91900000D03*
X91290001Y-123600000D03*
X83280002Y-97675001D03*
%TO.N,C_5*%
X93780002Y-91700000D03*
X83815003Y-121825002D03*
%TO.N,A_5*%
X88590001Y-113800000D03*
X99000000Y-113400000D03*
%TO.N,C_5*%
X83635002Y-125645001D03*
%TO.N,A_5*%
X117290001Y-67275001D03*
X114590001Y-103400000D03*
%TO.N,C_5*%
X105940001Y-73800000D03*
%TO.N,A_5*%
X98900000Y-96975001D03*
%TO.N,A_4*%
X109300000Y-101175001D03*
%TO.N,C_4*%
X102240000Y-72960322D03*
X110490001Y-54399005D03*
%TO.N,A_4*%
X83290000Y-81300000D03*
%TO.N,C_4*%
X104100000Y-110875001D03*
X103900000Y-106975001D03*
%TO.N,A_4*%
X111800000Y-119600000D03*
%TO.N,C_3*%
X103990001Y-72000000D03*
X104990001Y-77876001D03*
%TO.N,A_3*%
X94100000Y-81275001D03*
%TO.N,C_2*%
X101500000Y-99799999D03*
%TO.N,C_1*%
X77990001Y-79850001D03*
X76590001Y-68900000D03*
X75790001Y-53224998D03*
%TO.N,C_3*%
X103757500Y-58132501D03*
%TO.N,A_3*%
X96040001Y-76700000D03*
%TO.N,C_1*%
X106590001Y-84800000D03*
X90990001Y-49800000D03*
%TO.N,R_5*%
X105390001Y-117400000D03*
%TO.N,R_6*%
X78190001Y-136890001D03*
X87000000Y-92775001D03*
X115990001Y-113200000D03*
%TO.N,R_5*%
X105490001Y-108275001D03*
X105190001Y-128400000D03*
%TO.N,R_4*%
X109500000Y-124475001D03*
X106800000Y-93075001D03*
X108690001Y-107585000D03*
%TO.N,R_5*%
X114300000Y-53175001D03*
%TO.N,R_3*%
X111890001Y-72024997D03*
X111990001Y-109700001D03*
%TO.N,R_2*%
X74940001Y-68300000D03*
%TO.N,R_1*%
X106690001Y-48567999D03*
X106690001Y-74950000D03*
X94066958Y-74950000D03*
%TO.N,R_3*%
X86000000Y-62650000D03*
%TO.N,R_0*%
X83290001Y-51600000D03*
%TO.N,R_3*%
X86000000Y-48577999D03*
%TO.N,R_1*%
X86000000Y-67275001D03*
%TO.N,A_2*%
X80990001Y-64550000D03*
%TO.N,A_1*%
X119440001Y-72800000D03*
%TO.N,A_2*%
X118400000Y-88475001D03*
%TO.N,A_3*%
X94180002Y-104800001D03*
%TO.N,C_1*%
X106840001Y-76800000D03*
%TO.N,C_4*%
X104400000Y-92475001D03*
%TO.N,R_4*%
X106700000Y-101549999D03*
%TO.N,R_2*%
X96390001Y-62650000D03*
%TO.N,R_5*%
X104790001Y-54399005D03*
%TO.N,R_6*%
X78190001Y-127100000D03*
%TO.N,A_7*%
X93780002Y-127400001D03*
%TO.N,R_7*%
X74090001Y-108100000D03*
%TO.N,A_6*%
X106690001Y-136150000D03*
%TO.N,C_3*%
X113714672Y-107600000D03*
%TO.N,A_3*%
X93899000Y-62875001D03*
%TO.N,C_1*%
X76190001Y-49900000D03*
%TO.N,R_4*%
X93400000Y-119175001D03*
%TO.N,C_4*%
X85690001Y-127700000D03*
X93790001Y-72000000D03*
%TO.N,A_5*%
X99000000Y-111275001D03*
%TO.N,R_6*%
X80790001Y-72024997D03*
%TO.N,R_7*%
X91100000Y-67275001D03*
%TO.N,C_6*%
X83390001Y-106600000D03*
%TO.N,A_6*%
X106700000Y-126349999D03*
X109190001Y-67400000D03*
%TO.N,C_2*%
X80800000Y-99800001D03*
X102240000Y-75875589D03*
%TO.N,A_2*%
X80790001Y-84800000D03*
%TO.N,R_7*%
X103797501Y-133192500D03*
%TO.N,R_6*%
X117180002Y-134400001D03*
%TO.N,C_5*%
X93580002Y-96100001D03*
%TO.N,R_2*%
X74940001Y-63700000D03*
%TO.N,R_6*%
X101500000Y-86549997D03*
%TO.N,R_5*%
X96690001Y-72800000D03*
%TO.N,C_7*%
X108526765Y-77800000D03*
%TO.N,A_6*%
X84990001Y-92700000D03*
%TO.N,C_1*%
X101490001Y-45750000D03*
%TO.N,C_0*%
X112190001Y-65525003D03*
%TO.N,R_7*%
X89490001Y-127500000D03*
%TO.N,A_5*%
X99100000Y-103900000D03*
%TO.N,R_1*%
X93890001Y-79900000D03*
%TO.N,A_6*%
X88582501Y-112757502D03*
%TO.N,R_7*%
X83390001Y-87500000D03*
%TO.N,C_7*%
X75600000Y-111449999D03*
%TO.N,C_1*%
X88490001Y-79850002D03*
%TO.N,C_7*%
X89390001Y-82900000D03*
%TO.N,C_2*%
X114800000Y-71075001D03*
%TO.N,R_7*%
X91100000Y-77900000D03*
%TO.N,C_5*%
X93700000Y-106875001D03*
%TO.N,C_4*%
X104090001Y-124500000D03*
%TO.N,R_6*%
X101600000Y-116349999D03*
%TO.N,R_7*%
X78077938Y-101101807D03*
%TO.N,A_5*%
X99100000Y-101175001D03*
%TO.N,R_6*%
X101600000Y-113500000D03*
%TO.N,A_7*%
X80900000Y-111449999D03*
%TO.N,R_6*%
X101590001Y-103300000D03*
%TO.N,C_7*%
X73440001Y-54600000D03*
%TO.N,C_0*%
X80800000Y-60900000D03*
%TO.N,R_5*%
X96790001Y-87800000D03*
%TO.N,A_5*%
X79590001Y-103000000D03*
%TO.N,R_2*%
X86000000Y-86549997D03*
%TO.N,C_4*%
X81300000Y-117775001D03*
%TO.N,R_3*%
X75700000Y-109700001D03*
%TO.N,R_7*%
X99100000Y-127775001D03*
%TO.N,A_7*%
X77700000Y-88675001D03*
X80780002Y-136150001D03*
%TO.N,C_2*%
X114900000Y-58975001D03*
%TO.N,R_6*%
X101489997Y-53225000D03*
%TO.N,A_7*%
X93680002Y-130900001D03*
%TO.N,R_7*%
X90360934Y-132600001D03*
%TO.N,R_3*%
X75600000Y-86549998D03*
%TO.N,R_6*%
X79700000Y-68775001D03*
%TO.N,A_6*%
X109200000Y-86275001D03*
%TO.N,C_3*%
X113290001Y-92700000D03*
%TO.N,A_7*%
X80900000Y-101549999D03*
%TO.N,C_0*%
X96290001Y-65525003D03*
%TO.N,R_4*%
X107690001Y-73100000D03*
%TO.N,R_2*%
X98890001Y-48400000D03*
%TO.N,C_3*%
X111900000Y-111449999D03*
%TO.N,A_5*%
X99000000Y-88600000D03*
%TO.N,R_3*%
X86000000Y-81600000D03*
X78200000Y-82600000D03*
%TO.N,C_2*%
X80900000Y-86549997D03*
%TO.N,C_7*%
X98090001Y-122200000D03*
%TO.N,A_6*%
X88700000Y-101275001D03*
%TO.N,R_7*%
X78181002Y-91500000D03*
%TO.N,C_7*%
X109290001Y-63650000D03*
%TO.N,C_5*%
X94151000Y-117400000D03*
%TO.N,R_5*%
X83390001Y-129500000D03*
X96700000Y-92975001D03*
%TO.N,C_6*%
X76690001Y-98100000D03*
%TO.N,R_5*%
X96400000Y-106549999D03*
%TO.N,R_6*%
X86000000Y-106549999D03*
%TO.N,C_4*%
X104200000Y-95975001D03*
%TO.N,A_6*%
X104390001Y-67500000D03*
%TO.N,R_7*%
X91280002Y-116349998D03*
%TO.N,A_4*%
X82301000Y-77725000D03*
%TO.N,R_1*%
X106690001Y-45900000D03*
%TO.N,C_3*%
X113965000Y-73200000D03*
%TO.N,R_4*%
X73890001Y-93300000D03*
%TO.N,C_1*%
X88700000Y-84875001D03*
%TO.N,C_7*%
X101580002Y-134400001D03*
%TO.N,C_0*%
X80800000Y-53224999D03*
%TO.N,C_5*%
X92166116Y-73047689D03*
%TO.N,A_5*%
X117000000Y-86549998D03*
%TO.N,R_5*%
X80100000Y-117975001D03*
%TO.N,R_6*%
X101600000Y-67275000D03*
%TO.N,C_7*%
X75600000Y-134400003D03*
%TO.N,R_0*%
X83290001Y-56125003D03*
%TO.N,C_6*%
X96290001Y-134400003D03*
%TO.N,C_1*%
X101590001Y-48568000D03*
%TO.N,A_6*%
X75390001Y-57857999D03*
%TO.N,A_4*%
X80790001Y-114600001D03*
%TO.N,C_3*%
X111790001Y-114600001D03*
%TO.N,R_5*%
X88390001Y-69348000D03*
%TO.N,A_2*%
X118100000Y-59375001D03*
%TO.N,A_7*%
X96400000Y-126349999D03*
%TO.N,R_7*%
X100009112Y-55117003D03*
%TO.N,C_6*%
X114400000Y-131175001D03*
%TO.N,R_4*%
X106700000Y-106550000D03*
%TO.N,C_4*%
X109390001Y-90900000D03*
%TO.N,A_6*%
X79690001Y-92600000D03*
%TO.N,A_7*%
X80780002Y-133000001D03*
%TO.N,C_5*%
X78090001Y-73500000D03*
%TO.N,C_6*%
X117100000Y-54975001D03*
%TO.N,A_5*%
X117000000Y-116349999D03*
%TO.N,A_3*%
X109490001Y-58100000D03*
%TO.N,A_5*%
X86190001Y-124600000D03*
%TO.N,C_7*%
X114600000Y-112575001D03*
%TO.N,C_2*%
X88590001Y-48500000D03*
%TO.N,C_7*%
X109290001Y-126300000D03*
%TO.N,C_5*%
X77955000Y-57900000D03*
%TO.N,R_5*%
X88390001Y-71756333D03*
%TO.N,C_5*%
X95800000Y-132575001D03*
%TO.N,C_4*%
X93600000Y-58175001D03*
%TO.N,R_3*%
X78200000Y-86375001D03*
%TO.N,C_5*%
X119590001Y-83500000D03*
%TO.N,C_7*%
X114600000Y-126975001D03*
%TO.N,C_4*%
X93390001Y-78800000D03*
%TO.N,C_5*%
X94000000Y-120475001D03*
%TO.N,C_6*%
X117100000Y-62650000D03*
%TO.N,A_7*%
X100482422Y-64075001D03*
X96390001Y-116349999D03*
%TO.N,C_4*%
X84290001Y-45200000D03*
%TO.N,R_7*%
X83400000Y-90875001D03*
X89440001Y-108500000D03*
%TO.N,A_7*%
X98707500Y-82082501D03*
%TO.N,C_6*%
X113790001Y-123000000D03*
%TO.N,A_6*%
X108600000Y-98275001D03*
%TO.N,R_6*%
X101790001Y-132592500D03*
%TO.N,R_1*%
X86000000Y-74950002D03*
%TO.N,A_5*%
X78200000Y-75875001D03*
%TO.N,R_6*%
X115890001Y-122400000D03*
%TO.N,A_6*%
X109276765Y-81600000D03*
X85890001Y-96450000D03*
%TO.N,A_5*%
X78890001Y-58900000D03*
%TO.N,A_7*%
X78680002Y-100575001D03*
%TO.N,R_7*%
X73290001Y-130300000D03*
%TO.N,A_6*%
X106800000Y-116349999D03*
%TO.N,C_7*%
X109180002Y-131100001D03*
%TO.N,C_5*%
X118675269Y-118400000D03*
%TO.N,R_2*%
X96300000Y-48567999D03*
%TO.N,C_3*%
X113390001Y-98200000D03*
%TO.N,A_7*%
X98800000Y-86275001D03*
%TO.N,A_6*%
X83400000Y-120775001D03*
X88500000Y-97175001D03*
%TO.N,C_5*%
X106790001Y-53225000D03*
%TO.N,R_2*%
X86000000Y-94700000D03*
X98790001Y-45000000D03*
%TO.N,C_0*%
X95990001Y-61026001D03*
%TO.N,A_3*%
X94700000Y-59474002D03*
%TO.N,A_5*%
X78590001Y-45400000D03*
%TO.N,A_4*%
X80790001Y-62649999D03*
%TO.N,C_6*%
X116400000Y-83075001D03*
%TO.N,A_4*%
X109300000Y-96875001D03*
%TO.N,R_5*%
X96500000Y-101549997D03*
%TO.N,C_5*%
X94000000Y-111375001D03*
%TO.N,C_2*%
X114740001Y-98250000D03*
%TO.N,C_7*%
X93880002Y-133200001D03*
%TO.N,R_4*%
X93781002Y-123375001D03*
%TO.N,A_7*%
X78680002Y-97275001D03*
%TO.N,C_0*%
X111900000Y-48568000D03*
%TO.N,A_7*%
X98800000Y-67675001D03*
%TO.N,R_4*%
X73364999Y-80625002D03*
%TO.N,R_7*%
X91200000Y-86549999D03*
%TO.N,R_5*%
X114000000Y-68775001D03*
%TO.N,R_6*%
X86000000Y-101550001D03*
%TO.N,C_2*%
X113900000Y-49975001D03*
%TO.N,A_6*%
X106890001Y-112600000D03*
%TO.N,C_6*%
X74190001Y-73400000D03*
%TO.N,C_3*%
X83390001Y-48300000D03*
X83890001Y-77800000D03*
%TO.N,R_7*%
X99090001Y-121500000D03*
%TO.N,R_2*%
X88300000Y-63775001D03*
%TO.N,A_4*%
X79790001Y-59650000D03*
%TO.N,A_1*%
X169440001Y-72800000D03*
%TO.N,A_2*%
X168100000Y-59375001D03*
X130990001Y-64550000D03*
X168400000Y-88475001D03*
X130790001Y-84800000D03*
%TO.N,C_0*%
X145990001Y-61026001D03*
X146290001Y-65525003D03*
X162190001Y-65525003D03*
X130800000Y-60900000D03*
X130800000Y-53224999D03*
X161900000Y-48568000D03*
%TO.N,C_1*%
X140990001Y-49800000D03*
X151490001Y-45750000D03*
X138490001Y-79850002D03*
X127990001Y-79850001D03*
X151590001Y-48568000D03*
X126590001Y-68900000D03*
X125790001Y-53224998D03*
X126190001Y-49900000D03*
X138700000Y-84875001D03*
X156590001Y-84800000D03*
X156840001Y-76800000D03*
%TO.N,C_2*%
X164740001Y-98250000D03*
X130900000Y-86549997D03*
X151500000Y-99799999D03*
X163900000Y-49975001D03*
X164800000Y-71075001D03*
X164900000Y-58975001D03*
X152240000Y-75875589D03*
X130800000Y-99800001D03*
X138590001Y-48500000D03*
%TO.N,A_3*%
X144700000Y-59474002D03*
X144100000Y-81275001D03*
X144180002Y-104800001D03*
X146040001Y-76700000D03*
X143899000Y-62875001D03*
X159490001Y-58100000D03*
%TO.N,C_3*%
X163390001Y-98200000D03*
X161900000Y-111449999D03*
X153990001Y-72000000D03*
X133890001Y-77800000D03*
X163714672Y-107600000D03*
X153757500Y-58132501D03*
X154990001Y-77876001D03*
X163290001Y-92700000D03*
X161790001Y-114600001D03*
X163965000Y-73200000D03*
X133390001Y-48300000D03*
%TO.N,A_4*%
X132301000Y-77725000D03*
X159300000Y-96875001D03*
X129790001Y-59650000D03*
X159300000Y-101175001D03*
X161800000Y-119600000D03*
X130790001Y-114600001D03*
X133290000Y-81300000D03*
X130790001Y-62649999D03*
%TO.N,C_4*%
X134290001Y-45200000D03*
X153900000Y-106975001D03*
X154100000Y-110875001D03*
X154400000Y-92475001D03*
X131300000Y-117775001D03*
X143600000Y-58175001D03*
X154090001Y-124500000D03*
X143790001Y-72000000D03*
X154200000Y-95975001D03*
X152240000Y-72960322D03*
X159390001Y-90900000D03*
X143390001Y-78800000D03*
X160490001Y-54399005D03*
X135690001Y-127700000D03*
%TO.N,A_5*%
X128200000Y-75875001D03*
X128590001Y-45400000D03*
X149000000Y-88600000D03*
X164590001Y-103400000D03*
X149000000Y-113400000D03*
X148900000Y-96975001D03*
X136190001Y-124600000D03*
X129590001Y-103000000D03*
X138590001Y-113800000D03*
X167290001Y-67275001D03*
X149100000Y-101175001D03*
X149100000Y-103900000D03*
X167000000Y-116349999D03*
X149000000Y-111275001D03*
X128890001Y-58900000D03*
X167000000Y-86549998D03*
%TO.N,C_5*%
X144000000Y-120475001D03*
X168675269Y-118400000D03*
X155940001Y-73800000D03*
X133815003Y-121825002D03*
X144000000Y-111375001D03*
X143580002Y-96100001D03*
X144151000Y-117400000D03*
X127955000Y-57900000D03*
X133635002Y-125645001D03*
X128090001Y-73500000D03*
X169590001Y-83500000D03*
X143700000Y-106875001D03*
X143780002Y-91700000D03*
X142166116Y-73047689D03*
X156790001Y-53225000D03*
X145800000Y-132575001D03*
%TO.N,A_6*%
X125390001Y-57857999D03*
X159276765Y-81600000D03*
X134990001Y-92700000D03*
X133400000Y-120775001D03*
X154390001Y-67500000D03*
X156700000Y-126349999D03*
X159200000Y-86275001D03*
X156690001Y-136150000D03*
X138582501Y-112757502D03*
X156800000Y-116349999D03*
X138700000Y-101275001D03*
X158600000Y-98275001D03*
X159190001Y-67400000D03*
X129690001Y-92600000D03*
X138500000Y-97175001D03*
X135890001Y-96450000D03*
X156890001Y-112600000D03*
%TO.N,C_6*%
X163790001Y-123000000D03*
X164400000Y-131175001D03*
X141290001Y-123600000D03*
X167100000Y-62650000D03*
X167100000Y-54975001D03*
X133490001Y-91900000D03*
X138600000Y-91175001D03*
X146290001Y-134400003D03*
X133700000Y-111375001D03*
X166400000Y-83075001D03*
X142290001Y-83700000D03*
X133280002Y-97675001D03*
X133390001Y-106600000D03*
X124190001Y-73400000D03*
X126690001Y-98100000D03*
X142900000Y-132375001D03*
%TO.N,A_7*%
X127700000Y-88675001D03*
X128680002Y-97275001D03*
X130900000Y-111449999D03*
X148800000Y-67675001D03*
X143780002Y-127400001D03*
X150482422Y-64075001D03*
X148800000Y-86275001D03*
X128680002Y-100575001D03*
X130780002Y-136150001D03*
X146400000Y-126349999D03*
X130780002Y-133000001D03*
X143680002Y-130900001D03*
X146390001Y-116349999D03*
X148707500Y-82082501D03*
X130900000Y-101549999D03*
%TO.N,C_7*%
X151580002Y-134400001D03*
X161790001Y-76700000D03*
X123440001Y-54600000D03*
X139390001Y-82900000D03*
X143880002Y-133200001D03*
X158526765Y-77800000D03*
X159290001Y-126300000D03*
X138390001Y-53600000D03*
X159180002Y-131100001D03*
X125600000Y-134400003D03*
X125600000Y-111449999D03*
X148090001Y-122200000D03*
X164600000Y-126975001D03*
X159290001Y-63650000D03*
X164600000Y-112575001D03*
%TO.N,R_0*%
X133290001Y-56125003D03*
X133290001Y-51600000D03*
%TO.N,R_1*%
X156690001Y-74950000D03*
X136000000Y-67275001D03*
X143890001Y-79900000D03*
X156690001Y-45900000D03*
X144066958Y-74950000D03*
X156690001Y-48567999D03*
X136000000Y-74950002D03*
%TO.N,R_2*%
X136000000Y-86549997D03*
X136000000Y-94700000D03*
X124940001Y-63700000D03*
X148790001Y-45000000D03*
X146390001Y-62650000D03*
X146300000Y-48567999D03*
X148890001Y-48400000D03*
X124940001Y-68300000D03*
X138300000Y-63775001D03*
%TO.N,R_3*%
X128200000Y-82600000D03*
X125700000Y-109700001D03*
X136000000Y-48577999D03*
X136000000Y-62650000D03*
X128200000Y-86375001D03*
X136000000Y-81600000D03*
X161990001Y-109700001D03*
X125600000Y-86549998D03*
X161890001Y-72024997D03*
%TO.N,R_4*%
X123364999Y-80625002D03*
X156700000Y-106550000D03*
X156800000Y-93075001D03*
X143400000Y-119175001D03*
X158690001Y-107585000D03*
X156700000Y-101549999D03*
X123890001Y-93300000D03*
X159500000Y-124475001D03*
X157690001Y-73100000D03*
X143781002Y-123375001D03*
%TO.N,R_5*%
X146790001Y-87800000D03*
X164300000Y-53175001D03*
X138390001Y-69348000D03*
X155190001Y-128400000D03*
X146700000Y-92975001D03*
X130100000Y-117975001D03*
X146500000Y-101549997D03*
X146400000Y-106549999D03*
X155390001Y-117400000D03*
X164000000Y-68775001D03*
X154790001Y-54399005D03*
X133390001Y-129500000D03*
X155490001Y-108275001D03*
X138390001Y-71756333D03*
X146690001Y-72800000D03*
%TO.N,R_6*%
X165990001Y-113200000D03*
X137000000Y-92775001D03*
X151790001Y-132592500D03*
X167180002Y-134400001D03*
X128190001Y-136890001D03*
X129700000Y-68775001D03*
X151600000Y-113500000D03*
X151489997Y-53225000D03*
X136000000Y-101550001D03*
X165890001Y-122400000D03*
X128190001Y-127100000D03*
X136000000Y-106549999D03*
X151600000Y-116349999D03*
X151480002Y-126349999D03*
X151590001Y-103300000D03*
X130790001Y-72024997D03*
X151500000Y-86549997D03*
X151600000Y-67275000D03*
%TO.N,R_7*%
X149090001Y-121500000D03*
X141200000Y-86549999D03*
X128077938Y-101101807D03*
X139490001Y-127500000D03*
X123290001Y-130300000D03*
X150009112Y-55117003D03*
X141100000Y-67275001D03*
X141100000Y-77900000D03*
X124090001Y-108100000D03*
X139440001Y-108500000D03*
X140360934Y-132600001D03*
X133390001Y-87500000D03*
X133400000Y-90875001D03*
X141280002Y-116349998D03*
X141100000Y-53224999D03*
X149100000Y-127775001D03*
X153797501Y-133192500D03*
X128181002Y-91500000D03*
%TD*%
D15*
%TO.N,A_7*%
X94830004Y-126349999D02*
X93780002Y-127400001D01*
X77975001Y-88400000D02*
X93219999Y-88400000D01*
X79655000Y-101549999D02*
X78680002Y-100575001D01*
X106616002Y-127726001D02*
X106216000Y-127325999D01*
X112340001Y-62650000D02*
X110500001Y-62649999D01*
X100482422Y-64075001D02*
X100882424Y-64075001D01*
X82120004Y-136150001D02*
X82960005Y-136150001D01*
X96390001Y-116349999D02*
X97650002Y-116349999D01*
%TO.N,C_6*%
X83774998Y-111449999D02*
X83700000Y-111375001D01*
X116925996Y-55149005D02*
X102039006Y-55149005D01*
X105440000Y-81600000D02*
X108029999Y-81600000D01*
X105420003Y-121349998D02*
X108010003Y-121349999D01*
%TO.N,C_7*%
X113200005Y-126349999D02*
X113974998Y-126349999D01*
X109030004Y-131249999D02*
X109180002Y-131100001D01*
X107909999Y-62650000D02*
X105320000Y-62650000D01*
X76940002Y-91449998D02*
X74350000Y-91449998D01*
X73590001Y-83700000D02*
X72390001Y-84900000D01*
X113974998Y-126349999D02*
X114600000Y-126975001D01*
%TO.N,C_6*%
X92290001Y-83700000D02*
X103340000Y-83700000D01*
X84710001Y-91449998D02*
X87300000Y-91449998D01*
X103340000Y-83700000D02*
X105440000Y-81600000D01*
X79190002Y-123600000D02*
X76940001Y-121349999D01*
X83490001Y-91900000D02*
X84259999Y-91900000D01*
X74345001Y-72024998D02*
X74345001Y-73245000D01*
X75008738Y-112425999D02*
X82649002Y-112425999D01*
X110610003Y-134400001D02*
X113200002Y-134400001D01*
X95090002Y-131249999D02*
X97680002Y-131249999D01*
%TO.N,A_7*%
X99720736Y-127325999D02*
X98744736Y-126349999D01*
%TO.N,C_6*%
X97619996Y-53224998D02*
X95029995Y-53224998D01*
X79490003Y-106549999D02*
X83340000Y-106549999D01*
%TO.N,A_6*%
X106690001Y-136150000D02*
X118380002Y-136149999D01*
X109276765Y-81600000D02*
X110619999Y-81600000D01*
%TO.N,A_7*%
X99292500Y-82082501D02*
X99775001Y-81600000D01*
%TO.N,A_6*%
X77059999Y-57857999D02*
X75690001Y-57857999D01*
%TO.N,A_7*%
X79530004Y-136149999D02*
X82120002Y-136149999D01*
%TO.N,C_6*%
X88325003Y-91449998D02*
X88600000Y-91175001D01*
%TO.N,C_5*%
X93700000Y-106875001D02*
X93374998Y-106549999D01*
%TO.N,A_6*%
X85890001Y-96450000D02*
X87260003Y-96450000D01*
%TO.N,C_5*%
X95151000Y-118400000D02*
X94151000Y-117400000D01*
X92440000Y-96450000D02*
X92440002Y-96449998D01*
%TO.N,A_5*%
X79990001Y-103400000D02*
X98600000Y-103400000D01*
%TO.N,C_5*%
X88370003Y-73100000D02*
X87295002Y-72024999D01*
X106790001Y-53225000D02*
X108070000Y-53225000D01*
%TO.N,A_5*%
X113739998Y-88600000D02*
X115790000Y-86549998D01*
%TO.N,C_6*%
X117100000Y-62650000D02*
X115810001Y-62650000D01*
%TO.N,C_7*%
X107909999Y-62650000D02*
X108290001Y-62650000D01*
%TO.N,A_5*%
X98600000Y-103400000D02*
X99100000Y-103900000D01*
%TO.N,C_7*%
X118380002Y-111449999D02*
X115790003Y-111449999D01*
%TO.N,A_5*%
X74440002Y-124600001D02*
X87390001Y-124600000D01*
X74389998Y-76700000D02*
X76980000Y-76700000D01*
%TO.N,C_5*%
X87295000Y-72024997D02*
X87295002Y-72024999D01*
D16*
%TO.N,A_5*%
X80079001Y-42211000D02*
X79621001Y-42669000D01*
D15*
X102840004Y-111449999D02*
X100250002Y-111449999D01*
X79590001Y-103000000D02*
X79990001Y-103400000D01*
X118390002Y-67275001D02*
X117290001Y-67275001D01*
X99474998Y-101549999D02*
X99100000Y-101175001D01*
%TO.N,C_4*%
X107920003Y-124500000D02*
X90080003Y-124500000D01*
%TO.N,A_7*%
X82200000Y-131199999D02*
X79610003Y-131199999D01*
%TO.N,C_4*%
X109390001Y-90900000D02*
X108569999Y-90900000D01*
X100210004Y-96449998D02*
X102800002Y-96449998D01*
X102240000Y-72960322D02*
X102200322Y-73000000D01*
%TO.N,C_6*%
X109129999Y-82700000D02*
X108029999Y-81600000D01*
%TO.N,C_4*%
X104674997Y-111449998D02*
X104100000Y-110875001D01*
X82110000Y-116349997D02*
X82110000Y-116965001D01*
D17*
X105430003Y-91449998D02*
X105425003Y-91449998D01*
D15*
X93815000Y-72024999D02*
X95065001Y-72024999D01*
%TO.N,A_5*%
X77375001Y-76700000D02*
X78200000Y-75875001D01*
%TO.N,C_4*%
X87545265Y-127700000D02*
X85690001Y-127700000D01*
X108020004Y-111449999D02*
X105430004Y-111449998D01*
X80910001Y-43500000D02*
X82610001Y-45200000D01*
X93282998Y-57857999D02*
X93600000Y-58175001D01*
X105430004Y-111449998D02*
X104674997Y-111449998D01*
%TO.N,A_4*%
X79700000Y-62649999D02*
X80790001Y-62649999D01*
X84749999Y-76700000D02*
X87339998Y-76700000D01*
%TO.N,C_6*%
X109660004Y-123000000D02*
X113790001Y-123000000D01*
%TO.N,A_4*%
X83690001Y-76700000D02*
X82665001Y-77725000D01*
%TO.N,C_7*%
X115790003Y-111449999D02*
X115725002Y-111449999D01*
%TO.N,A_4*%
X88954003Y-116929265D02*
X90448739Y-118424001D01*
X108874998Y-96449999D02*
X109300000Y-96875001D01*
X82110000Y-81600001D02*
X82989999Y-81600001D01*
X93252005Y-59650000D02*
X95010003Y-57892002D01*
%TO.N,A_7*%
X82960005Y-136150001D02*
X84710004Y-134400002D01*
%TO.N,A_4*%
X90448739Y-118424001D02*
X93934000Y-118424001D01*
X97680002Y-57875003D02*
X95090002Y-57875002D01*
X87289998Y-114600001D02*
X87290000Y-114599999D01*
%TO.N,C_5*%
X82930004Y-126349999D02*
X82210003Y-126349999D01*
%TO.N,C_3*%
X89890001Y-77800000D02*
X89930000Y-77760001D01*
X115625003Y-91449998D02*
X115790000Y-91449998D01*
X102860003Y-57875003D02*
X100270002Y-57875003D01*
X108990002Y-73000000D02*
X108014999Y-72024997D01*
X104015000Y-72024999D02*
X103990001Y-72000000D01*
%TO.N,C_6*%
X82080004Y-96449999D02*
X82080004Y-96475003D01*
D17*
%TO.N,C_3*%
X108014997Y-72024999D02*
X108014999Y-72024997D01*
D15*
%TO.N,A_3*%
X103478074Y-59474002D02*
X94700000Y-59474002D01*
%TO.N,A_6*%
X108030001Y-67275001D02*
X105440000Y-67275000D01*
%TO.N,C_6*%
X95070002Y-134400001D02*
X95049000Y-134378999D01*
X113200002Y-133839997D02*
X115790001Y-131249998D01*
%TO.N,A_3*%
X108265000Y-58100000D02*
X108040003Y-57875003D01*
%TO.N,C_6*%
X74345001Y-73245000D02*
X74190001Y-73400000D01*
%TO.N,A_4*%
X89590001Y-59650000D02*
X93252005Y-59650000D01*
%TO.N,C_5*%
X93230005Y-96449998D02*
X92440002Y-96449998D01*
D16*
%TO.N,A_5*%
X85090001Y-42211000D02*
X80079001Y-42211000D01*
D15*
%TO.N,A_3*%
X119390001Y-105810000D02*
X119390001Y-108690002D01*
%TO.N,C_3*%
X111640000Y-96449999D02*
X113200001Y-96449999D01*
%TO.N,A_3*%
X89899999Y-81600000D02*
X92489998Y-81600000D01*
%TO.N,C_1*%
X76790001Y-68700000D02*
X78115002Y-68700000D01*
%TO.N,A_3*%
X74310003Y-104800001D02*
X118380002Y-104800001D01*
%TO.N,C_3*%
X113200001Y-96449999D02*
X113200001Y-98010000D01*
%TO.N,C_1*%
X74310000Y-53224998D02*
X74309998Y-53225000D01*
X78115002Y-68700000D02*
X79540002Y-67275000D01*
%TO.N,C_4*%
X92531002Y-121400999D02*
X92480002Y-121349999D01*
%TO.N,C_3*%
X110610000Y-106549999D02*
X113200001Y-106549999D01*
%TO.N,C_7*%
X72390001Y-84900000D02*
X72390001Y-93409997D01*
%TO.N,C_4*%
X115880002Y-53250001D02*
X118470000Y-53250001D01*
%TO.N,C_6*%
X87300003Y-111449999D02*
X83774998Y-111449999D01*
%TO.N,C_3*%
X82379759Y-48300000D02*
X82111759Y-48568000D01*
X83390001Y-48300000D02*
X82379759Y-48300000D01*
X113965000Y-73200000D02*
X113765000Y-73000000D01*
%TO.N,A_5*%
X99174998Y-111449999D02*
X99000000Y-111275001D01*
%TO.N,C_7*%
X101890001Y-134400001D02*
X102840004Y-134400001D01*
X115780002Y-101549999D02*
X118370002Y-101549999D01*
%TO.N,A_6*%
X108020004Y-126349999D02*
X105430002Y-126349999D01*
%TO.N,C_7*%
X115725002Y-111449999D02*
X114600000Y-112575001D01*
%TO.N,C_4*%
X95065001Y-72024999D02*
X97655001Y-72024998D01*
%TO.N,A_4*%
X88954003Y-116264002D02*
X88954003Y-116929265D01*
%TO.N,C_7*%
X72390001Y-109489997D02*
X72390001Y-93409997D01*
X100250005Y-134400002D02*
X101890001Y-134400001D01*
%TO.N,A_7*%
X98715000Y-86275001D02*
X98490001Y-86500000D01*
X87300004Y-133939996D02*
X89990002Y-131249998D01*
%TO.N,A_5*%
X84829998Y-57857999D02*
X87420000Y-57857999D01*
%TO.N,A_4*%
X74340002Y-114600001D02*
X80790001Y-114600001D01*
%TO.N,C_6*%
X76935000Y-72024997D02*
X74345001Y-72024998D01*
X82649002Y-112425999D02*
X83700000Y-111375001D01*
%TO.N,C_4*%
X102800002Y-96449998D02*
X102800004Y-96450000D01*
%TO.N,A_4*%
X84749999Y-76700000D02*
X83690001Y-76700000D01*
%TO.N,A_7*%
X98490001Y-86500000D02*
X97709998Y-86500000D01*
X77855001Y-96450000D02*
X78680002Y-97275001D01*
%TO.N,C_4*%
X103474998Y-106549999D02*
X103900000Y-106975001D01*
%TO.N,R_7*%
X92480000Y-86549999D02*
X91200000Y-86549999D01*
X76980002Y-131175000D02*
X74390004Y-131175000D01*
X73515004Y-130300000D02*
X74390002Y-131174998D01*
%TO.N,C_6*%
X91290001Y-123600000D02*
X79190002Y-123600000D01*
%TO.N,R_7*%
X88964002Y-133820735D02*
X90184736Y-132600001D01*
X77984737Y-106549999D02*
X76900001Y-106549999D01*
X89490001Y-127500000D02*
X89490001Y-126840000D01*
X76950002Y-101550000D02*
X77629745Y-101550000D01*
X105005004Y-134400003D02*
X103797501Y-133192500D01*
%TO.N,A_7*%
X97670002Y-67274999D02*
X95080000Y-67274999D01*
%TO.N,R_7*%
X93715002Y-77925001D02*
X94416002Y-78626001D01*
X83775001Y-87500000D02*
X83875001Y-87600000D01*
X92480003Y-126349999D02*
X92480003Y-127162077D01*
%TO.N,A_6*%
X105440000Y-67275000D02*
X104615001Y-67275000D01*
%TO.N,R_7*%
X105430004Y-134400003D02*
X105005004Y-134400003D01*
X87300004Y-136150001D02*
X88964002Y-134486003D01*
%TO.N,C_3*%
X89930000Y-76700000D02*
X92519998Y-76700000D01*
%TO.N,R_7*%
X76940000Y-136150001D02*
X76940002Y-136149999D01*
%TO.N,R_6*%
X115990001Y-113200000D02*
X115790001Y-113400000D01*
X84710001Y-106549999D02*
X87300000Y-106549999D01*
%TO.N,A_7*%
X84710004Y-134400002D02*
X87300004Y-134400003D01*
%TO.N,R_6*%
X101600000Y-67275000D02*
X100260002Y-67275001D01*
X88360001Y-102600000D02*
X87310000Y-101549999D01*
X74440002Y-126349999D02*
X76590001Y-126349999D01*
%TO.N,A_5*%
X88590001Y-113800000D02*
X88990001Y-113400000D01*
%TO.N,R_6*%
X78900000Y-137649000D02*
X78900000Y-137600000D01*
X89890001Y-91449998D02*
X88564998Y-92775001D01*
%TO.N,C_4*%
X100250002Y-106549999D02*
X103474998Y-106549999D01*
X102800004Y-96450000D02*
X103725001Y-96450000D01*
%TO.N,R_6*%
X101590001Y-103300000D02*
X100890001Y-102600000D01*
%TO.N,A_7*%
X97695003Y-67300000D02*
X97670002Y-67274999D01*
%TO.N,R_6*%
X113190004Y-121349999D02*
X110600003Y-121349999D01*
X87309998Y-101550001D02*
X87310000Y-101549999D01*
X101682501Y-132700000D02*
X100444741Y-132700000D01*
X99592001Y-68598000D02*
X100260002Y-67929999D01*
%TO.N,R_7*%
X88839999Y-87600000D02*
X89890001Y-86549998D01*
X83390001Y-87500000D02*
X83775001Y-87500000D01*
%TO.N,C_4*%
X92480003Y-124600001D02*
X92531002Y-124549002D01*
%TO.N,R_7*%
X78181002Y-91500000D02*
X79479998Y-91500000D01*
%TO.N,A_7*%
X76900000Y-96449998D02*
X76900002Y-96450000D01*
%TO.N,C_1*%
X76899995Y-53224998D02*
X75790001Y-53224998D01*
%TO.N,C_4*%
X81590001Y-78800000D02*
X93390001Y-78800000D01*
%TO.N,C_3*%
X105425002Y-72024999D02*
X104015000Y-72024999D01*
%TO.N,R_7*%
X93468927Y-128151001D02*
X98724000Y-128151001D01*
X98724000Y-128151001D02*
X99100000Y-127775001D01*
X92992004Y-55117003D02*
X100009112Y-55117003D01*
X82120002Y-91449998D02*
X82825003Y-91449998D01*
%TO.N,C_5*%
X83635002Y-125645001D02*
X82930004Y-126349999D01*
%TO.N,C_7*%
X74350005Y-134400003D02*
X82120004Y-134400003D01*
%TO.N,C_5*%
X93580002Y-96100001D02*
X93230005Y-96449998D01*
%TO.N,R_7*%
X74390004Y-131175000D02*
X74390002Y-131174998D01*
X108020004Y-134400002D02*
X108020004Y-133839998D01*
X82825003Y-91449998D02*
X83400000Y-90875001D01*
X92490000Y-67275001D02*
X91100000Y-67275001D01*
%TO.N,A_7*%
X100260000Y-81600000D02*
X102850000Y-81599999D01*
%TO.N,A_5*%
X78890001Y-58900000D02*
X83787997Y-58900000D01*
%TO.N,R_5*%
X114000000Y-68775001D02*
X113210000Y-67985001D01*
%TO.N,A_7*%
X92580002Y-131249999D02*
X93330004Y-131249999D01*
%TO.N,R_5*%
X108596002Y-69299000D02*
X110620001Y-67275001D01*
%TO.N,A_7*%
X110590001Y-64400000D02*
X112340001Y-62650000D01*
%TO.N,R_7*%
X89440001Y-108500000D02*
X79934738Y-108500000D01*
%TO.N,R_5*%
X110620003Y-67274999D02*
X110620001Y-67275001D01*
X98200000Y-92975001D02*
X99725003Y-91449998D01*
%TO.N,R_7*%
X89880003Y-116349999D02*
X92470003Y-116349998D01*
%TO.N,A_6*%
X79530003Y-121349999D02*
X82120001Y-121349999D01*
%TO.N,A_5*%
X120239001Y-127641002D02*
X118380002Y-129500001D01*
%TO.N,R_5*%
X89834995Y-72075001D02*
X89884999Y-72024997D01*
X96490001Y-73000000D02*
X96690001Y-72800000D01*
X89226000Y-69299000D02*
X108596002Y-69299000D01*
%TO.N,C_6*%
X73414002Y-114020735D02*
X75008738Y-112425999D01*
%TO.N,R_6*%
X84720003Y-101550001D02*
X87309998Y-101550001D01*
%TO.N,A_3*%
X109490001Y-58100000D02*
X108265000Y-58100000D01*
%TO.N,R_5*%
X89884999Y-72024997D02*
X92475001Y-72024997D01*
%TO.N,C_4*%
X98630003Y-73000000D02*
X97655001Y-72024998D01*
%TO.N,A_6*%
X89600000Y-98275001D02*
X108600000Y-98275001D01*
%TO.N,C_3*%
X113200001Y-98010000D02*
X113390001Y-98200000D01*
%TO.N,R_5*%
X89177000Y-69348000D02*
X89226000Y-69299000D01*
%TO.N,R_7*%
X79530000Y-91449998D02*
X82120002Y-91449998D01*
%TO.N,R_5*%
X97649999Y-101549999D02*
X97650001Y-101549997D01*
%TO.N,A_4*%
X79519999Y-81600001D02*
X79519997Y-81599999D01*
%TO.N,R_5*%
X99725003Y-91449998D02*
X100250002Y-91449998D01*
%TO.N,C_6*%
X74350002Y-121349999D02*
X73414002Y-120413999D01*
%TO.N,C_5*%
X97660004Y-111449999D02*
X95070002Y-111449999D01*
%TO.N,R_7*%
X73384003Y-102526000D02*
X74360002Y-101550001D01*
%TO.N,C_3*%
X82111759Y-48568000D02*
X79521759Y-48568000D01*
%TO.N,R_4*%
X95361267Y-93526001D02*
X74116002Y-93526001D01*
X97061075Y-93676001D02*
X97011075Y-93726001D01*
%TO.N,A_7*%
X114911075Y-127726001D02*
X106616002Y-127726001D01*
%TO.N,R_6*%
X89890002Y-136149999D02*
X97660003Y-136149999D01*
%TO.N,A_6*%
X87260003Y-96450000D02*
X87774999Y-96450000D01*
%TO.N,R_4*%
X92480002Y-119600001D02*
X92975000Y-119600001D01*
X84710003Y-119600001D02*
X84710003Y-116359999D01*
%TO.N,A_7*%
X97660003Y-126349999D02*
X95070002Y-126349999D01*
%TO.N,R_6*%
X101689998Y-53224999D02*
X102799996Y-53224999D01*
%TO.N,R_4*%
X110610000Y-91449998D02*
X108984997Y-93075001D01*
X105420001Y-101549999D02*
X108010003Y-101549999D01*
X72590001Y-64579998D02*
X72590001Y-79850003D01*
X74339999Y-81600001D02*
X74339997Y-81599999D01*
%TO.N,C_5*%
X100290004Y-131249999D02*
X100290002Y-131249997D01*
%TO.N,C_1*%
X79540002Y-67275000D02*
X82130002Y-67275001D01*
%TO.N,C_3*%
X104990001Y-77876001D02*
X94780735Y-77876001D01*
%TO.N,R_6*%
X88391001Y-137649000D02*
X78900000Y-137649000D01*
%TO.N,R_4*%
X75700000Y-62649998D02*
X77109999Y-62649998D01*
X84710003Y-116359999D02*
X84700003Y-116349999D01*
X76930000Y-81600001D02*
X74339999Y-81600001D01*
%TO.N,C_4*%
X92480002Y-121349999D02*
X89890001Y-121349999D01*
%TO.N,R_4*%
X108690001Y-107219999D02*
X108020001Y-106549999D01*
%TO.N,C_6*%
X80790001Y-96449999D02*
X82080004Y-96449999D01*
%TO.N,R_4*%
X72390001Y-50519759D02*
X74341760Y-48568000D01*
X100245000Y-72024997D02*
X102834999Y-72024997D01*
%TO.N,R_5*%
X110610001Y-86549999D02*
X113200000Y-86549999D01*
%TO.N,C_4*%
X114730998Y-54399005D02*
X115880002Y-53250001D01*
%TO.N,R_5*%
X88708669Y-72075001D02*
X89834995Y-72075001D01*
%TO.N,C_6*%
X79490004Y-96450000D02*
X80790001Y-96449999D01*
%TO.N,R_5*%
X93450004Y-73000000D02*
X96490001Y-73000000D01*
%TO.N,R_6*%
X92480000Y-91449998D02*
X89890001Y-91449998D01*
%TO.N,R_5*%
X108599266Y-54201000D02*
X108996000Y-53804266D01*
%TO.N,C_5*%
X83650004Y-72024997D02*
X84704999Y-72024997D01*
%TO.N,R_5*%
X88390001Y-71756333D02*
X88708669Y-72075001D01*
X102830004Y-129450003D02*
X102880002Y-129500001D01*
%TO.N,R_7*%
X113873997Y-78626001D02*
X115800000Y-76699998D01*
%TO.N,A_7*%
X100882424Y-64075001D02*
X101207423Y-64400000D01*
%TO.N,A_6*%
X108155000Y-67400000D02*
X108030001Y-67275001D01*
%TO.N,A_5*%
X115800000Y-67275001D02*
X117290001Y-67275001D01*
%TO.N,R_5*%
X108365997Y-54399005D02*
X108564002Y-54201000D01*
%TO.N,A_7*%
X97709998Y-86500000D02*
X97660000Y-86549998D01*
%TO.N,R_5*%
X113190002Y-116349999D02*
X110600001Y-116349999D01*
X99385002Y-108275001D02*
X97660000Y-106549999D01*
X74340002Y-116349999D02*
X76930002Y-116349998D01*
X103980003Y-128400000D02*
X102880002Y-129500001D01*
%TO.N,R_6*%
X79700000Y-68775001D02*
X79877001Y-68598000D01*
%TO.N,C_4*%
X82110000Y-116965001D02*
X81300000Y-117775001D01*
%TO.N,A_7*%
X74310002Y-96449998D02*
X76900000Y-96449998D01*
%TO.N,R_5*%
X84800003Y-126349998D02*
X84800003Y-129440000D01*
X78555005Y-117975001D02*
X80100000Y-117975001D01*
X102840001Y-91449998D02*
X100250002Y-91449998D01*
X84790000Y-129450003D02*
X102830004Y-129450003D01*
%TO.N,A_6*%
X93630004Y-112600000D02*
X92480003Y-111449999D01*
%TO.N,R_3*%
X76989999Y-86500000D02*
X76940000Y-86549999D01*
X86000000Y-81600000D02*
X84699999Y-81600001D01*
%TO.N,R_5*%
X108996000Y-53804266D02*
X108996000Y-53769002D01*
%TO.N,R_3*%
X115790000Y-106549999D02*
X115790000Y-107110004D01*
X74350003Y-109700001D02*
X75700000Y-109700001D01*
X110605001Y-72024997D02*
X111890001Y-72024997D01*
%TO.N,R_2*%
X74360000Y-67719999D02*
X74360000Y-67275001D01*
%TO.N,R_5*%
X108996000Y-53769002D02*
X109540003Y-53224999D01*
%TO.N,R_2*%
X76950002Y-67275001D02*
X75965000Y-67275001D01*
%TO.N,C_4*%
X79569999Y-76779998D02*
X81590001Y-78800000D01*
%TO.N,R_6*%
X99324005Y-134486001D02*
X97660005Y-136150001D01*
%TO.N,R_3*%
X111990001Y-109700001D02*
X75700000Y-109700001D01*
%TO.N,R_6*%
X89890002Y-136149999D02*
X88391001Y-137649000D01*
%TO.N,R_3*%
X87320000Y-62650000D02*
X86000000Y-62650000D01*
X74290000Y-86549998D02*
X75600000Y-86549998D01*
X113194999Y-72024997D02*
X113195001Y-72024999D01*
%TO.N,C_1*%
X90890001Y-49900000D02*
X90990001Y-49800000D01*
%TO.N,R_7*%
X73390001Y-132174999D02*
X73390001Y-135189997D01*
%TO.N,C_3*%
X103500002Y-57875003D02*
X102860003Y-57875003D01*
%TO.N,R_7*%
X91400000Y-77900000D02*
X91425001Y-77925001D01*
%TO.N,R_0*%
X83290001Y-56125003D02*
X83289999Y-56125001D01*
%TO.N,A_4*%
X87290000Y-114599999D02*
X88954003Y-116264002D01*
%TO.N,R_1*%
X118390000Y-79850002D02*
X95080000Y-79850002D01*
%TO.N,R_0*%
X119490001Y-47449758D02*
X118371759Y-48568000D01*
%TO.N,R_2*%
X97651760Y-48568000D02*
X96300000Y-48567999D01*
%TO.N,A_4*%
X105390001Y-96449998D02*
X107980002Y-96449999D01*
%TO.N,A_5*%
X88990001Y-113400000D02*
X99000000Y-113400000D01*
%TO.N,R_2*%
X87299999Y-86549997D02*
X87300001Y-86549999D01*
%TO.N,R_7*%
X89980002Y-126349999D02*
X92480003Y-126349999D01*
%TO.N,R_4*%
X74520001Y-62649998D02*
X72390001Y-60519998D01*
%TO.N,R_2*%
X84709998Y-86549997D02*
X86000000Y-86549997D01*
%TO.N,C_1*%
X77990001Y-79850001D02*
X92489998Y-79850002D01*
%TO.N,C_7*%
X82120004Y-134400003D02*
X82120004Y-133869997D01*
%TO.N,R_2*%
X118370002Y-99800001D02*
X115780002Y-99800001D01*
%TO.N,R_1*%
X114220001Y-45750000D02*
X116470001Y-43500000D01*
%TO.N,C_4*%
X92600000Y-57857999D02*
X93282998Y-57857999D01*
%TO.N,R_0*%
X119490001Y-45220000D02*
X119010001Y-44740000D01*
X83289999Y-56125001D02*
X74390001Y-56125001D01*
X83165002Y-51475001D02*
X83290001Y-51600000D01*
%TO.N,R_2*%
X98890001Y-48400000D02*
X97819760Y-48400000D01*
%TO.N,R_0*%
X119790001Y-54735002D02*
X119790001Y-49986242D01*
%TO.N,R_6*%
X115305673Y-122400000D02*
X114255672Y-121349999D01*
%TO.N,R_1*%
X108029998Y-74950000D02*
X106690001Y-74950000D01*
%TO.N,R_7*%
X91200000Y-86549999D02*
X89890001Y-86549998D01*
%TO.N,R_1*%
X93939999Y-79850002D02*
X93890001Y-79900000D01*
X108003999Y-74924001D02*
X108029998Y-74950000D01*
%TO.N,R_6*%
X88564998Y-92775001D02*
X87000000Y-92775001D01*
%TO.N,R_2*%
X98790001Y-45000000D02*
X112430001Y-45000000D01*
X96300000Y-48567999D02*
X95061760Y-48567999D01*
X95089999Y-63134945D02*
X95089999Y-62650000D01*
X88300000Y-63775001D02*
X94449943Y-63775001D01*
%TO.N,R_1*%
X106690001Y-74950000D02*
X74390000Y-74950000D01*
%TO.N,C_5*%
X84290005Y-121349999D02*
X87300002Y-121349999D01*
X95070002Y-91449998D02*
X94030004Y-91449998D01*
%TO.N,C_1*%
X75790001Y-53224998D02*
X74310000Y-53224998D01*
%TO.N,A_5*%
X115780002Y-116349999D02*
X118380002Y-116349999D01*
%TO.N,C_3*%
X118380002Y-91449998D02*
X115790000Y-91449998D01*
%TO.N,R_4*%
X108984997Y-93075001D02*
X106800000Y-93075001D01*
%TO.N,C_3*%
X89930000Y-77760001D02*
X89930000Y-76700000D01*
D17*
%TO.N,A_4*%
X110225006Y-101175001D02*
X110600003Y-101549998D01*
D15*
%TO.N,R_6*%
X100250002Y-86549997D02*
X100250000Y-86549999D01*
%TO.N,C_7*%
X109626765Y-76700000D02*
X108526765Y-77800000D01*
%TO.N,C_6*%
X115790001Y-131249998D02*
X118380002Y-131249999D01*
%TO.N,R_4*%
X108400000Y-123375001D02*
X109500000Y-124475001D01*
%TO.N,C_7*%
X73440001Y-54600000D02*
X87390001Y-54600000D01*
%TO.N,R_0*%
X83290001Y-56125003D02*
X118400000Y-56125003D01*
%TO.N,R_3*%
X115790000Y-107110004D02*
X113200003Y-109700001D01*
%TO.N,A_6*%
X104615001Y-67275000D02*
X104390001Y-67500000D01*
%TO.N,C_7*%
X89390001Y-82900000D02*
X86190001Y-82900000D01*
%TO.N,C_1*%
X74339997Y-79850001D02*
X77990001Y-79850001D01*
%TO.N,C_7*%
X111790001Y-76700000D02*
X113209996Y-76700000D01*
D17*
%TO.N,C_5*%
X88175000Y-120475001D02*
X87300002Y-121349999D01*
D15*
%TO.N,C_7*%
X95080000Y-81600000D02*
X97669998Y-81600000D01*
%TO.N,C_5*%
X118390000Y-81600000D02*
X118390000Y-82299999D01*
%TO.N,C_7*%
X87390001Y-54600000D02*
X88390001Y-53600000D01*
%TO.N,C_5*%
X95070002Y-111449999D02*
X94074998Y-111449999D01*
X77955000Y-57900000D02*
X78055000Y-57800000D01*
%TO.N,R_7*%
X89849997Y-53224999D02*
X91100000Y-53224999D01*
%TO.N,R_4*%
X76931759Y-48568000D02*
X74341760Y-48568000D01*
%TO.N,A_6*%
X100250005Y-136150000D02*
X106690001Y-136150000D01*
%TO.N,R_7*%
X100290000Y-121349999D02*
X102880002Y-121349999D01*
%TO.N,A_4*%
X93934000Y-118424001D02*
X95110000Y-119600001D01*
D17*
%TO.N,C_5*%
X88175000Y-120475001D02*
X94000000Y-120475001D01*
D15*
%TO.N,C_3*%
X113714672Y-107600000D02*
X113200003Y-107085331D01*
%TO.N,A_3*%
X105077073Y-57875003D02*
X103478074Y-59474002D01*
%TO.N,C_6*%
X115790001Y-131249998D02*
X114474997Y-131249998D01*
%TO.N,R_3*%
X85990001Y-48568000D02*
X87291760Y-48568000D01*
%TO.N,A_5*%
X117000000Y-86549998D02*
X115790000Y-86549998D01*
%TO.N,A_7*%
X93219999Y-88400000D02*
X95070000Y-86549999D01*
%TO.N,R_6*%
X99324005Y-133820736D02*
X99324005Y-134486001D01*
%TO.N,C_4*%
X79569999Y-76700000D02*
X79569999Y-76779998D01*
%TO.N,A_6*%
X75690001Y-57857999D02*
X74470000Y-57857999D01*
%TO.N,C_7*%
X120091001Y-103270998D02*
X120091001Y-109739000D01*
%TO.N,R_0*%
X119010001Y-44740000D02*
X119010001Y-43500000D01*
%TO.N,A_6*%
X88975000Y-101550001D02*
X88700000Y-101275001D01*
%TO.N,C_5*%
X82175001Y-73500000D02*
X78090001Y-73500000D01*
X83650004Y-72024997D02*
X82175001Y-73500000D01*
%TO.N,A_6*%
X105420002Y-116349999D02*
X105420000Y-116349997D01*
%TO.N,R_4*%
X105325998Y-73000999D02*
X103811001Y-73000999D01*
%TO.N,C_5*%
X78055000Y-57800000D02*
X79591999Y-57800000D01*
%TO.N,A_7*%
X98707500Y-82082501D02*
X99292500Y-82082501D01*
%TO.N,C_7*%
X120091001Y-109739000D02*
X118380002Y-111449999D01*
%TO.N,R_5*%
X109311000Y-87849000D02*
X96839001Y-87849000D01*
%TO.N,R_0*%
X119790001Y-49986242D02*
X118371759Y-48568000D01*
%TO.N,R_5*%
X84740003Y-129500000D02*
X84790000Y-129450003D01*
%TO.N,C_5*%
X118370004Y-121349999D02*
X119296004Y-120423999D01*
%TO.N,R_2*%
X95089999Y-62650000D02*
X97680001Y-62650000D01*
%TO.N,R_4*%
X74520001Y-62649998D02*
X72590001Y-64579998D01*
%TO.N,R_0*%
X119490001Y-57215004D02*
X119490001Y-59810000D01*
%TO.N,R_5*%
X105490001Y-108275001D02*
X99385002Y-108275001D01*
%TO.N,C_5*%
X92113805Y-73100000D02*
X88370003Y-73100000D01*
%TO.N,C_7*%
X82120004Y-133869997D02*
X84790000Y-131200001D01*
%TO.N,A_5*%
X100240001Y-101549999D02*
X102830003Y-101549999D01*
%TO.N,C_7*%
X93780000Y-82900000D02*
X89390001Y-82900000D01*
%TO.N,C_6*%
X74350002Y-121349999D02*
X76940001Y-121349999D01*
%TO.N,R_7*%
X74390002Y-131174998D02*
X73390001Y-132174999D01*
%TO.N,C_7*%
X84669998Y-53224999D02*
X87259997Y-53225000D01*
%TO.N,A_7*%
X79530004Y-111449999D02*
X82120002Y-111449999D01*
%TO.N,R_2*%
X74940001Y-63700000D02*
X75490001Y-63700000D01*
%TO.N,A_5*%
X100240001Y-101549999D02*
X99474998Y-101549999D01*
X103980004Y-102700000D02*
X102830003Y-101549999D01*
%TO.N,A_3*%
X92500001Y-62650000D02*
X89909999Y-62650000D01*
%TO.N,R_1*%
X95080000Y-79850002D02*
X93939999Y-79850002D01*
%TO.N,R_3*%
X113200003Y-109700001D02*
X111990001Y-109700001D01*
%TO.N,C_7*%
X87634997Y-53600000D02*
X87259997Y-53225000D01*
%TO.N,R_4*%
X113200002Y-91449997D02*
X110610000Y-91449998D01*
%TO.N,A_5*%
X105430003Y-129500001D02*
X118380002Y-129500001D01*
%TO.N,C_6*%
X87300000Y-91449998D02*
X88325003Y-91449998D01*
%TO.N,C_7*%
X84890001Y-82900000D02*
X86190001Y-82900000D01*
%TO.N,R_5*%
X97660000Y-106549999D02*
X96400000Y-106549999D01*
%TO.N,C_7*%
X109290001Y-126300000D02*
X110560004Y-126300000D01*
%TO.N,R_3*%
X111890001Y-72024997D02*
X113194999Y-72024997D01*
%TO.N,C_4*%
X79569999Y-76700000D02*
X82159999Y-76700000D01*
%TO.N,R_6*%
X78900000Y-137600000D02*
X78190001Y-136890001D01*
%TO.N,C_5*%
X79620001Y-126349999D02*
X79620001Y-129440003D01*
X105940001Y-73800000D02*
X92918427Y-73800000D01*
%TO.N,C_2*%
X74360005Y-99800000D02*
X74360002Y-99800003D01*
%TO.N,R_7*%
X89900002Y-67275001D02*
X89900000Y-67274999D01*
%TO.N,C_2*%
X102240000Y-75875589D02*
X102850000Y-76485589D01*
%TO.N,C_5*%
X94030004Y-91449998D02*
X93780002Y-91700000D01*
%TO.N,R_1*%
X106690001Y-48567999D02*
X105421761Y-48567999D01*
%TO.N,R_4*%
X105326997Y-73000000D02*
X105325998Y-73000999D01*
%TO.N,C_4*%
X105425003Y-91449998D02*
X104400000Y-92475001D01*
%TO.N,R_6*%
X77440000Y-126349999D02*
X78190001Y-127100000D01*
%TO.N,C_2*%
X109628926Y-50200000D02*
X113675001Y-50200000D01*
%TO.N,A_7*%
X99775001Y-81600000D02*
X100260000Y-81600000D01*
%TO.N,R_7*%
X118389998Y-76699998D02*
X118390000Y-76700000D01*
%TO.N,R_3*%
X111890001Y-72024997D02*
X112190001Y-72024997D01*
%TO.N,C_2*%
X113700001Y-57875002D02*
X113220002Y-57875002D01*
%TO.N,R_2*%
X74940001Y-68300000D02*
X74360000Y-67719999D01*
%TO.N,C_4*%
X108569999Y-90900000D02*
X108020001Y-91449998D01*
%TO.N,C_7*%
X74350003Y-111449999D02*
X72390001Y-109489997D01*
%TO.N,R_4*%
X74520001Y-62649998D02*
X75700000Y-62649998D01*
%TO.N,C_4*%
X88316001Y-126264002D02*
X88316001Y-126929264D01*
%TO.N,R_5*%
X76930002Y-116349998D02*
X78555005Y-117975001D01*
%TO.N,R_2*%
X86000000Y-86549997D02*
X87299999Y-86549997D01*
%TO.N,R_5*%
X95080002Y-101549999D02*
X97649999Y-101549999D01*
%TO.N,R_6*%
X100890001Y-102600000D02*
X88360001Y-102600000D01*
%TO.N,C_5*%
X115799998Y-81600000D02*
X118390000Y-81600000D01*
%TO.N,C_7*%
X84090001Y-83700000D02*
X73590001Y-83700000D01*
%TO.N,R_7*%
X100290000Y-121349999D02*
X99240002Y-121349999D01*
%TO.N,A_7*%
X95060002Y-116349999D02*
X96390001Y-116349999D01*
%TO.N,A_5*%
X99000000Y-88600000D02*
X113739998Y-88600000D01*
%TO.N,C_7*%
X89890002Y-134400001D02*
X92480003Y-134400001D01*
%TO.N,C_6*%
X73414002Y-120413999D02*
X73414002Y-114020735D01*
%TO.N,C_5*%
X98964998Y-132575001D02*
X95800000Y-132575001D01*
%TO.N,A_7*%
X115790003Y-126349999D02*
X115790003Y-126847073D01*
%TO.N,C_4*%
X79520002Y-116349999D02*
X82109998Y-116349999D01*
%TO.N,A_4*%
X82110000Y-81600001D02*
X79519999Y-81600001D01*
%TO.N,R_7*%
X83875001Y-87600000D02*
X88839999Y-87600000D01*
%TO.N,A_7*%
X82130000Y-101549999D02*
X79655000Y-101549999D01*
%TO.N,R_4*%
X92975000Y-119600001D02*
X93400000Y-119175001D01*
%TO.N,C_5*%
X119296004Y-119020735D02*
X118675269Y-118400000D01*
%TO.N,R_7*%
X108020004Y-133839998D02*
X110610003Y-131249999D01*
%TO.N,C_7*%
X84790000Y-131200001D02*
X87380002Y-131200001D01*
%TO.N,C_2*%
X118400000Y-72024999D02*
X115810003Y-72024999D01*
%TO.N,R_6*%
X76590001Y-126349999D02*
X77029999Y-126349999D01*
%TO.N,R_4*%
X74116002Y-93526001D02*
X73890001Y-93300000D01*
%TO.N,A_7*%
X118380002Y-126349999D02*
X115790003Y-126349999D01*
%TO.N,C_5*%
X79620001Y-129440003D02*
X79610001Y-129450003D01*
%TO.N,A_7*%
X82200000Y-131199999D02*
X82200000Y-131580003D01*
%TO.N,C_5*%
X105470000Y-53225000D02*
X106790001Y-53225000D01*
X115780002Y-121349999D02*
X118370004Y-121349999D01*
%TO.N,C_6*%
X98515001Y-53225000D02*
X97619998Y-53225000D01*
X95090002Y-131249999D02*
X93965000Y-132375001D01*
%TO.N,R_7*%
X73384003Y-105623999D02*
X73384003Y-102526000D01*
%TO.N,R_4*%
X108690001Y-107585000D02*
X108690001Y-107219999D01*
%TO.N,C_4*%
X82610001Y-45200000D02*
X84290001Y-45200000D01*
%TO.N,C_1*%
X76590001Y-68900000D02*
X76790001Y-68700000D01*
%TO.N,A_4*%
X107980002Y-96449999D02*
X108874998Y-96449999D01*
%TO.N,R_7*%
X94416002Y-78626001D02*
X113873997Y-78626001D01*
%TO.N,R_2*%
X118380002Y-94700000D02*
X119306002Y-95626000D01*
%TO.N,A_7*%
X97660000Y-86549998D02*
X95070000Y-86549999D01*
%TO.N,C_1*%
X90780001Y-45750000D02*
X88530001Y-43500000D01*
%TO.N,A_3*%
X108040003Y-57875003D02*
X105450001Y-57875003D01*
D16*
%TO.N,A_5*%
X79621001Y-42669000D02*
X79621001Y-44369000D01*
D15*
%TO.N,C_1*%
X109490002Y-84800001D02*
X118380000Y-84800001D01*
%TO.N,C_7*%
X111690001Y-126349999D02*
X110610003Y-126349999D01*
%TO.N,A_6*%
X79690001Y-92600000D02*
X79790001Y-92700000D01*
%TO.N,C_1*%
X106590001Y-84800000D02*
X109490001Y-84800000D01*
%TO.N,R_7*%
X105430004Y-134400003D02*
X108020004Y-134400002D01*
%TO.N,A_7*%
X98490001Y-67300000D02*
X97695003Y-67300000D01*
X95070002Y-126349999D02*
X94830004Y-126349999D01*
%TO.N,C_1*%
X101490001Y-45750000D02*
X91690001Y-45750000D01*
%TO.N,A_5*%
X114590001Y-103400000D02*
X113890001Y-102700000D01*
%TO.N,C_6*%
X82080004Y-96475003D02*
X83280002Y-97675001D01*
%TO.N,R_5*%
X87390001Y-126349998D02*
X84800003Y-126349998D01*
%TO.N,A_6*%
X82825002Y-121349999D02*
X83400000Y-120775001D01*
%TO.N,C_6*%
X101090001Y-54200000D02*
X99490001Y-54200000D01*
%TO.N,C_3*%
X113200003Y-107085331D02*
X113200003Y-106550001D01*
%TO.N,R_7*%
X79479998Y-91500000D02*
X79530000Y-91449998D01*
%TO.N,C_1*%
X109490001Y-84800000D02*
X109490002Y-84800001D01*
%TO.N,C_3*%
X113290001Y-92700000D02*
X114375001Y-92700000D01*
%TO.N,C_4*%
X93790001Y-72000000D02*
X93815000Y-72024999D01*
%TO.N,A_4*%
X95110000Y-119600001D02*
X118370004Y-119600001D01*
D17*
%TO.N,R_5*%
X87390001Y-129440004D02*
X87380002Y-129450003D01*
D15*
%TO.N,C_7*%
X108020001Y-131249999D02*
X109030004Y-131249999D01*
%TO.N,R_6*%
X110600003Y-121349999D02*
X110600001Y-121349997D01*
%TO.N,C_3*%
X103757500Y-58132501D02*
X103500002Y-57875003D01*
%TO.N,C_5*%
X118390000Y-82299999D02*
X119590001Y-83500000D01*
%TO.N,C_4*%
X102200322Y-73000000D02*
X98630003Y-73000000D01*
%TO.N,R_4*%
X95561267Y-93726001D02*
X95361267Y-93526001D01*
%TO.N,C_5*%
X74390002Y-129425000D02*
X82174999Y-129425000D01*
%TO.N,R_5*%
X95070005Y-106549999D02*
X95070003Y-106550001D01*
%TO.N,R_2*%
X75590001Y-63800000D02*
X88275001Y-63800000D01*
%TO.N,A_5*%
X113890001Y-102700000D02*
X103980004Y-102700000D01*
%TO.N,C_5*%
X82160000Y-57874999D02*
X79569999Y-57874999D01*
%TO.N,R_7*%
X99240002Y-121349999D02*
X99090001Y-121500000D01*
%TO.N,C_3*%
X105425002Y-72024999D02*
X108014997Y-72024999D01*
%TO.N,C_4*%
X92531002Y-124549002D02*
X92531002Y-121400999D01*
%TO.N,C_6*%
X102039006Y-55149005D02*
X101090001Y-54200000D01*
%TO.N,C_7*%
X108290001Y-62650000D02*
X109290001Y-63650000D01*
%TO.N,R_2*%
X112430001Y-45000000D02*
X113930001Y-43500000D01*
%TO.N,R_3*%
X78200000Y-86375001D02*
X78075001Y-86500000D01*
%TO.N,C_6*%
X83340000Y-106549999D02*
X83390001Y-106600000D01*
%TO.N,R_6*%
X100209996Y-53225000D02*
X101489997Y-53225000D01*
%TO.N,C_7*%
X95110000Y-121349999D02*
X97700002Y-121349999D01*
%TO.N,R_4*%
X93781002Y-123375001D02*
X108400000Y-123375001D01*
%TO.N,R_3*%
X118380002Y-106549999D02*
X115790000Y-106549999D01*
%TO.N,R_4*%
X84700003Y-116349999D02*
X87289998Y-116349999D01*
%TO.N,C_5*%
X119296004Y-120423999D02*
X119296004Y-119020735D01*
%TO.N,A_5*%
X97620004Y-96450000D02*
X98374999Y-96450000D01*
%TO.N,R_3*%
X86000000Y-62650000D02*
X84729999Y-62650000D01*
%TO.N,A_6*%
X79790001Y-92700000D02*
X84990001Y-92700000D01*
%TO.N,A_3*%
X118380002Y-109700001D02*
X115790003Y-109700001D01*
%TO.N,R_7*%
X74310003Y-107879998D02*
X74090001Y-108100000D01*
%TO.N,C_3*%
X111640000Y-96449999D02*
X110610002Y-96449999D01*
%TO.N,C_5*%
X84704999Y-72024997D02*
X87295000Y-72024997D01*
%TO.N,R_6*%
X79877001Y-68598000D02*
X99592001Y-68598000D01*
%TO.N,R_2*%
X75490001Y-63700000D02*
X75590001Y-63800000D01*
%TO.N,C_7*%
X89390001Y-82900000D02*
X89690001Y-82900000D01*
%TO.N,C_2*%
X114900000Y-58975001D02*
X114800000Y-58975001D01*
%TO.N,A_6*%
X75690001Y-57857999D02*
X75390001Y-57857999D01*
%TO.N,R_4*%
X110610003Y-124600001D02*
X109625000Y-124600001D01*
%TO.N,R_3*%
X84701758Y-48568000D02*
X85990001Y-48568000D01*
%TO.N,C_7*%
X84890001Y-82900000D02*
X84090001Y-83700000D01*
%TO.N,C_1*%
X76190001Y-49900000D02*
X90890001Y-49900000D01*
%TO.N,C_5*%
X83815003Y-121825002D02*
X84290005Y-121349999D01*
%TO.N,R_0*%
X82160001Y-51475001D02*
X74390001Y-51475002D01*
%TO.N,C_7*%
X97700002Y-121349999D02*
X97700002Y-121810001D01*
%TO.N,R_6*%
X102830002Y-116349999D02*
X100240002Y-116349998D01*
%TO.N,A_5*%
X118380002Y-116349999D02*
X120239001Y-118208998D01*
%TO.N,R_7*%
X84710004Y-136150000D02*
X87300004Y-136150001D01*
%TO.N,A_2*%
X80790001Y-84800000D02*
X74290000Y-84800000D01*
%TO.N,A_5*%
X95030002Y-96450000D02*
X97620004Y-96450000D01*
%TO.N,R_5*%
X83390001Y-129500000D02*
X84740003Y-129500000D01*
%TO.N,A_4*%
X80790001Y-114600001D02*
X87289998Y-114600001D01*
%TO.N,A_2*%
X100270000Y-62650000D02*
X98370000Y-64550000D01*
%TO.N,A_7*%
X89990002Y-131249998D02*
X92580002Y-131249999D01*
%TO.N,C_6*%
X108010003Y-121349999D02*
X109660004Y-123000000D01*
%TO.N,A_7*%
X106216000Y-127325999D02*
X99720736Y-127325999D01*
%TO.N,A_1*%
X73434000Y-68200000D02*
X73434000Y-69363999D01*
%TO.N,C_1*%
X89890001Y-84800000D02*
X106590001Y-84800000D01*
X89815000Y-84875001D02*
X89890001Y-84800000D01*
%TO.N,A_2*%
X74350000Y-89700000D02*
X118380002Y-89700000D01*
%TO.N,C_3*%
X113200001Y-106549999D02*
X113200003Y-106550001D01*
%TO.N,A_1*%
X73434000Y-66356001D02*
X73434000Y-68200000D01*
%TO.N,R_7*%
X91100000Y-77900000D02*
X91400000Y-77900000D01*
%TO.N,A_2*%
X73364000Y-85726000D02*
X73364000Y-88714000D01*
%TO.N,R_0*%
X118400000Y-56125003D02*
X119790001Y-54735002D01*
%TO.N,C_7*%
X101580002Y-134400001D02*
X101580002Y-134347924D01*
%TO.N,C_2*%
X102850000Y-76485589D02*
X102850000Y-76699999D01*
%TO.N,A_2*%
X118400000Y-57875001D02*
X115810004Y-57875001D01*
%TO.N,R_2*%
X119306002Y-98864001D02*
X118370002Y-99800001D01*
%TO.N,R_4*%
X106199000Y-93676001D02*
X97061075Y-93676001D01*
%TO.N,A_1*%
X87310001Y-65525003D02*
X74264998Y-65525003D01*
%TO.N,R_5*%
X96400000Y-106549999D02*
X95070005Y-106549999D01*
%TO.N,C_6*%
X80790001Y-96449999D02*
X80790001Y-97900000D01*
%TO.N,A_2*%
X118400000Y-59075001D02*
X118100000Y-59375001D01*
%TO.N,A_4*%
X113190001Y-101549998D02*
X109674997Y-101549998D01*
%TO.N,R_7*%
X89490001Y-126840000D02*
X89980002Y-126349999D01*
%TO.N,R_0*%
X119490001Y-59810000D02*
X118400000Y-60900001D01*
%TO.N,R_7*%
X73290001Y-130300000D02*
X73515004Y-130300000D01*
%TO.N,R_4*%
X73364999Y-80625002D02*
X74339997Y-81599999D01*
%TO.N,A_2*%
X73364000Y-88714000D02*
X74350000Y-89700000D01*
%TO.N,R_0*%
X118400000Y-56125003D02*
X119490001Y-57215004D01*
%TO.N,A_2*%
X87300001Y-84800001D02*
X80790001Y-84800000D01*
%TO.N,C_2*%
X113220002Y-57875002D02*
X110630002Y-57875003D01*
%TO.N,A_6*%
X84670004Y-96450000D02*
X85890001Y-96450000D01*
%TO.N,C_2*%
X79529998Y-86549997D02*
X80900000Y-86549997D01*
%TO.N,C_1*%
X88700000Y-84875001D02*
X89815000Y-84875001D01*
X105439999Y-76699998D02*
X108029998Y-76699998D01*
%TO.N,C_7*%
X113209996Y-76700000D02*
X113209998Y-76699998D01*
%TO.N,C_2*%
X115790000Y-96449999D02*
X115790000Y-97200001D01*
%TO.N,R_6*%
X82115000Y-72024997D02*
X82115002Y-72024999D01*
%TO.N,C_2*%
X94103760Y-50200000D02*
X109618923Y-50200000D01*
D17*
X97649999Y-99800001D02*
X97650001Y-99799999D01*
D15*
%TO.N,R_5*%
X113210000Y-67274999D02*
X110620003Y-67274999D01*
%TO.N,R_7*%
X91100000Y-53224999D02*
X92992004Y-55117003D01*
%TO.N,C_2*%
X114800000Y-71075001D02*
X114860001Y-71075001D01*
%TO.N,A_6*%
X89900003Y-101550001D02*
X92490002Y-101550001D01*
%TO.N,R_1*%
X87310001Y-67275001D02*
X86000000Y-67275001D01*
%TO.N,R_7*%
X91100000Y-67275001D02*
X89900002Y-67275001D01*
%TO.N,C_2*%
X115790000Y-97200001D02*
X114740001Y-98250000D01*
%TO.N,A_6*%
X88500000Y-97175001D02*
X89600000Y-98275001D01*
%TO.N,C_2*%
X80900002Y-86549999D02*
X80900000Y-86549997D01*
%TO.N,C_6*%
X99490001Y-54200000D02*
X98515001Y-53225000D01*
%TO.N,C_7*%
X113200005Y-126349999D02*
X111690001Y-126349999D01*
%TO.N,C_2*%
X88590001Y-48500000D02*
X89813758Y-48500000D01*
%TO.N,R_6*%
X118380002Y-134400001D02*
X115790007Y-134400001D01*
%TO.N,R_5*%
X110610001Y-86549999D02*
X109311000Y-87849000D01*
%TO.N,C_5*%
X93374998Y-106549999D02*
X92480000Y-106549999D01*
%TO.N,C_2*%
X89881758Y-48568000D02*
X92471760Y-48568000D01*
%TO.N,R_7*%
X77629745Y-101550000D02*
X78077938Y-101101807D01*
%TO.N,C_5*%
X100290002Y-131249997D02*
X98964998Y-132575001D01*
%TO.N,C_2*%
X118380002Y-96449998D02*
X115790000Y-96449999D01*
X82120001Y-86549999D02*
X80900002Y-86549999D01*
%TO.N,C_7*%
X110560004Y-126300000D02*
X110610003Y-126349999D01*
%TO.N,C_5*%
X118675269Y-118400000D02*
X95151000Y-118400000D01*
X92918427Y-73800000D02*
X92166116Y-73047689D01*
%TO.N,R_5*%
X96839001Y-87849000D02*
X96790001Y-87800000D01*
%TO.N,C_4*%
X108020001Y-91449998D02*
X105425003Y-91449998D01*
%TO.N,C_2*%
X113675001Y-50200000D02*
X113900000Y-49975001D01*
X92471760Y-48568000D02*
X94103760Y-50200000D01*
%TO.N,A_4*%
X89590001Y-59650000D02*
X79790001Y-59650000D01*
%TO.N,R_5*%
X96700000Y-92975001D02*
X98200000Y-92975001D01*
%TO.N,R_4*%
X118380002Y-124600001D02*
X110610003Y-124600001D01*
%TO.N,A_6*%
X113209999Y-81600000D02*
X110619999Y-81600000D01*
%TO.N,C_1*%
X91690001Y-45750000D02*
X90780001Y-45750000D01*
%TO.N,C_5*%
X102880002Y-131249999D02*
X100290004Y-131249999D01*
%TO.N,A_7*%
X93330004Y-131249999D02*
X93680002Y-130900001D01*
%TO.N,R_6*%
X79524999Y-72024997D02*
X82115000Y-72024997D01*
%TO.N,A_5*%
X98374999Y-96450000D02*
X98900000Y-96975001D01*
%TO.N,R_7*%
X91100000Y-53224999D02*
X92439999Y-53224999D01*
%TO.N,R_5*%
X88390001Y-69348000D02*
X89177000Y-69348000D01*
%TO.N,A_7*%
X82200000Y-131580003D02*
X80780002Y-133000001D01*
%TO.N,A_2*%
X118400000Y-88475001D02*
X118400000Y-89680002D01*
%TO.N,R_1*%
X86000000Y-67275001D02*
X84720001Y-67275001D01*
%TO.N,A_4*%
X82989999Y-81600001D02*
X83290000Y-81300000D01*
%TO.N,R_6*%
X101790001Y-132592500D02*
X101682501Y-132700000D01*
%TO.N,C_6*%
X96290001Y-134400003D02*
X95070004Y-134400003D01*
%TO.N,A_5*%
X83787997Y-58900000D02*
X84829998Y-57857999D01*
%TO.N,R_4*%
X105430002Y-106550000D02*
X108020001Y-106549999D01*
%TO.N,R_6*%
X102839998Y-86549997D02*
X101500000Y-86549997D01*
%TO.N,A_6*%
X108925002Y-86549999D02*
X109200000Y-86275001D01*
%TO.N,A_3*%
X118380002Y-104800001D02*
X119390001Y-105810000D01*
%TO.N,A_6*%
X89890003Y-111449999D02*
X88582501Y-112757502D01*
%TO.N,A_4*%
X82665001Y-77725000D02*
X82301000Y-77725000D01*
%TO.N,A_3*%
X94100000Y-81275001D02*
X93775001Y-81600000D01*
%TO.N,R_6*%
X100444741Y-132700000D02*
X99324005Y-133820736D01*
%TO.N,R_7*%
X74310003Y-106549999D02*
X73384003Y-105623999D01*
%TO.N,A_6*%
X89900003Y-101550001D02*
X88975000Y-101550001D01*
X108019999Y-86549999D02*
X108925002Y-86549999D01*
%TO.N,R_3*%
X78075001Y-86500000D02*
X76989999Y-86500000D01*
%TO.N,R_6*%
X76590001Y-126349999D02*
X77440000Y-126349999D01*
%TO.N,R_3*%
X76940000Y-86549999D02*
X75600000Y-86549998D01*
%TO.N,R_7*%
X76900001Y-106549999D02*
X74310003Y-106549999D01*
%TO.N,C_5*%
X82200000Y-126360002D02*
X82210003Y-126349999D01*
%TO.N,R_2*%
X97819760Y-48400000D02*
X97651760Y-48568000D01*
%TO.N,A_6*%
X87774999Y-96450000D02*
X88500000Y-97175001D01*
%TO.N,R_6*%
X115890001Y-122400000D02*
X115305673Y-122400000D01*
%TO.N,C_6*%
X95070004Y-134400003D02*
X95070002Y-134400001D01*
%TO.N,C_3*%
X118380002Y-114600001D02*
X111790001Y-114600001D01*
%TO.N,R_1*%
X74390000Y-74950000D02*
X74389998Y-74950002D01*
D16*
%TO.N,A_5*%
X106310001Y-40960000D02*
X105059001Y-42211000D01*
D15*
X100250002Y-111449999D02*
X99174998Y-111449999D01*
%TO.N,C_7*%
X118370002Y-101549999D02*
X120091001Y-103270998D01*
%TO.N,C_4*%
X90080003Y-124500000D02*
X89980002Y-124600001D01*
%TO.N,R_2*%
X74310002Y-94700000D02*
X118380002Y-94700000D01*
%TO.N,A_7*%
X98800000Y-67609999D02*
X98490001Y-67300000D01*
%TO.N,A_6*%
X108010003Y-116349999D02*
X105420002Y-116349999D01*
%TO.N,R_4*%
X72590001Y-79850003D02*
X73364999Y-80625002D01*
%TO.N,C_7*%
X76940002Y-111449999D02*
X74350003Y-111449999D01*
%TO.N,C_5*%
X79620001Y-126349999D02*
X82210003Y-126349999D01*
%TO.N,A_3*%
X95110000Y-76700000D02*
X97699999Y-76700000D01*
%TO.N,A_6*%
X109190001Y-67400000D02*
X108155000Y-67400000D01*
%TO.N,A_7*%
X115790003Y-126847073D02*
X114911075Y-127726001D01*
%TO.N,A_6*%
X106890001Y-112600000D02*
X93630004Y-112600000D01*
%TO.N,R_4*%
X103811001Y-73000999D02*
X102834999Y-72024997D01*
%TO.N,C_7*%
X101580002Y-134347924D02*
X104677927Y-131249999D01*
%TO.N,R_4*%
X109625000Y-124600001D02*
X109500000Y-124475001D01*
%TO.N,R_0*%
X82160001Y-51475001D02*
X83165002Y-51475001D01*
%TO.N,C_6*%
X116024999Y-82700000D02*
X109129999Y-82700000D01*
%TO.N,R_7*%
X92480003Y-127162077D02*
X93468927Y-128151001D01*
%TO.N,R_1*%
X106690001Y-45900000D02*
X106840001Y-45750000D01*
%TO.N,C_7*%
X95080000Y-81600000D02*
X93780000Y-82900000D01*
%TO.N,R_7*%
X90184736Y-132600001D02*
X90360934Y-132600001D01*
%TO.N,A_6*%
X82120001Y-121349999D02*
X82825002Y-121349999D01*
%TO.N,A_3*%
X92725002Y-62875001D02*
X92500001Y-62650000D01*
%TO.N,C_6*%
X117100000Y-54975001D02*
X116925996Y-55149005D01*
%TO.N,A_7*%
X98800000Y-86275001D02*
X98715000Y-86275001D01*
%TO.N,A_3*%
X119390001Y-108690002D02*
X118380002Y-109700001D01*
%TO.N,R_7*%
X74360002Y-101550001D02*
X76950002Y-101550000D01*
D17*
%TO.N,R_0*%
X102860001Y-56125003D02*
X102860003Y-56125005D01*
D15*
X76899993Y-51475002D02*
X76899995Y-51475000D01*
%TO.N,C_2*%
X89813758Y-48500000D02*
X89881758Y-48568000D01*
%TO.N,A_3*%
X93899000Y-62875001D02*
X92725002Y-62875001D01*
%TO.N,R_4*%
X107590001Y-73000000D02*
X105326997Y-73000000D01*
%TO.N,A_7*%
X79610003Y-131199999D02*
X79610001Y-131200001D01*
%TO.N,A_3*%
X92489998Y-81600000D02*
X92489998Y-81385003D01*
%TO.N,R_4*%
X97011075Y-93726001D02*
X95561267Y-93726001D01*
%TO.N,A_6*%
X92480003Y-111449999D02*
X89890003Y-111449999D01*
%TO.N,R_6*%
X101689997Y-53225000D02*
X101689998Y-53224999D01*
%TO.N,R_7*%
X110610003Y-131249999D02*
X113200003Y-131249998D01*
%TO.N,C_5*%
X79591999Y-57800000D02*
X79649998Y-57857999D01*
%TO.N,C_2*%
X100290000Y-76700000D02*
X102850000Y-76699999D01*
%TO.N,R_0*%
X118371759Y-48568000D02*
X115781758Y-48567999D01*
X118400000Y-60900001D02*
X105450000Y-60900002D01*
%TO.N,A_7*%
X98744736Y-126349999D02*
X97660003Y-126349999D01*
%TO.N,C_7*%
X92480005Y-134400003D02*
X92680000Y-134400003D01*
%TO.N,C_0*%
X74646002Y-61026001D02*
X95990001Y-61026001D01*
%TO.N,R_7*%
X115800000Y-76699998D02*
X118389998Y-76699998D01*
%TO.N,R_2*%
X88275001Y-63800000D02*
X88300000Y-63775001D01*
%TO.N,C_0*%
X118390002Y-65525003D02*
X96290001Y-65525003D01*
%TO.N,R_6*%
X101500000Y-86549997D02*
X100250002Y-86549997D01*
%TO.N,C_0*%
X89900002Y-65525003D02*
X89900000Y-65525001D01*
%TO.N,C_3*%
X94780735Y-77876001D02*
X93604734Y-76700000D01*
%TO.N,R_0*%
X119490001Y-45220000D02*
X119490001Y-47449758D01*
%TO.N,C_0*%
X110601760Y-48568000D02*
X111900000Y-48568000D01*
%TO.N,C_3*%
X111790001Y-114600001D02*
X89880003Y-114600001D01*
%TO.N,A_7*%
X82120002Y-136149999D02*
X82120004Y-136150001D01*
%TO.N,R_2*%
X94449943Y-63775001D02*
X95089999Y-63134945D01*
%TO.N,C_6*%
X80590001Y-98100000D02*
X76690001Y-98100000D01*
%TO.N,A_4*%
X95090002Y-57875002D02*
X93365004Y-59600000D01*
%TO.N,C_0*%
X98990001Y-61026001D02*
X102734002Y-61026001D01*
%TO.N,R_5*%
X110125002Y-116349999D02*
X110600001Y-116349999D01*
%TO.N,C_6*%
X84259999Y-91900000D02*
X84710001Y-91449998D01*
%TO.N,C_7*%
X104677927Y-131249999D02*
X105430003Y-131249999D01*
%TO.N,C_0*%
X82079998Y-53224999D02*
X80800000Y-53224999D01*
%TO.N,C_5*%
X92166116Y-73047689D02*
X92113805Y-73100000D01*
%TO.N,R_4*%
X107690001Y-73100000D02*
X107590001Y-73000000D01*
D16*
%TO.N,A_5*%
X105059001Y-42211000D02*
X85090001Y-42211000D01*
D15*
%TO.N,C_0*%
X96290001Y-65525003D02*
X89900002Y-65525003D01*
%TO.N,A_5*%
X76980000Y-76700000D02*
X77375001Y-76700000D01*
%TO.N,A_3*%
X93775001Y-81600000D02*
X92489998Y-81600000D01*
%TO.N,C_0*%
X102734002Y-61026001D02*
X102860001Y-60900002D01*
%TO.N,A_4*%
X82140000Y-62650000D02*
X80790001Y-62649999D01*
%TO.N,C_7*%
X92680000Y-134400003D02*
X93880002Y-133200001D01*
X110620001Y-76700000D02*
X111790001Y-76700000D01*
%TO.N,C_4*%
X90009998Y-57857999D02*
X92600000Y-57857999D01*
%TO.N,C_6*%
X97619998Y-53225000D02*
X97619996Y-53224998D01*
%TO.N,A_1*%
X119440001Y-73900001D02*
X118390000Y-74950002D01*
%TO.N,A_0*%
X74341760Y-46818002D02*
X114590001Y-46818002D01*
X114590001Y-46818002D02*
X114690001Y-46918002D01*
%TO.N,R_4*%
X74350002Y-119600001D02*
X92480002Y-119600001D01*
%TO.N,R_5*%
X109075001Y-117400000D02*
X105390001Y-117400000D01*
%TO.N,R_3*%
X87290000Y-81600000D02*
X86000000Y-81600000D01*
%TO.N,C_7*%
X97700002Y-121810001D02*
X98090001Y-122200000D01*
%TO.N,R_7*%
X74350005Y-136150001D02*
X76940000Y-136150001D01*
%TO.N,A_5*%
X120239001Y-118208998D02*
X120239001Y-127641002D01*
%TO.N,C_4*%
X89980002Y-124600001D02*
X88316001Y-126264002D01*
%TO.N,A_0*%
X118389997Y-51500003D02*
X114690001Y-51500003D01*
%TO.N,C_4*%
X88316001Y-126929264D02*
X87545265Y-127700000D01*
%TO.N,R_3*%
X86000000Y-48577999D02*
X85990001Y-48568000D01*
D16*
%TO.N,A_0*%
X117759001Y-42211000D02*
X119010001Y-40960000D01*
%TO.N,A_5*%
X79621001Y-44369000D02*
X78590001Y-45400000D01*
D15*
%TO.N,C_6*%
X116400000Y-83075001D02*
X116024999Y-82700000D01*
%TO.N,R_5*%
X109075001Y-117400000D02*
X110125002Y-116349999D01*
%TO.N,C_2*%
X114800000Y-58975001D02*
X113700001Y-57875002D01*
%TO.N,A_0*%
X114590001Y-46818002D02*
X118371759Y-46818002D01*
%TO.N,C_2*%
X113190001Y-99800000D02*
X74360005Y-99800000D01*
%TO.N,C_6*%
X113200002Y-134400001D02*
X113200002Y-133839997D01*
%TO.N,A_7*%
X98800000Y-67675001D02*
X98800000Y-67609999D01*
%TO.N,C_6*%
X118400000Y-62649999D02*
X117100000Y-62650000D01*
%TO.N,R_5*%
X105190001Y-128400000D02*
X103980003Y-128400000D01*
%TO.N,R_6*%
X100260002Y-67929999D02*
X100260002Y-67275001D01*
%TO.N,A_6*%
X105430001Y-86549999D02*
X108019999Y-86549999D01*
%TO.N,A_7*%
X101207423Y-64400000D02*
X110590001Y-64400000D01*
%TO.N,R_6*%
X114255672Y-121349999D02*
X113190004Y-121349999D01*
%TO.N,C_5*%
X94074998Y-111449999D02*
X94000000Y-111375001D01*
%TO.N,A_0*%
X114690001Y-46918002D02*
X114690001Y-51500003D01*
%TO.N,A_5*%
X118380000Y-86549999D02*
X117000000Y-86549998D01*
%TO.N,A_2*%
X74290000Y-84800000D02*
X73364000Y-85726000D01*
%TO.N,R_5*%
X104790001Y-54399005D02*
X108365997Y-54399005D01*
%TO.N,C_4*%
X82109998Y-116349999D02*
X82110000Y-116349997D01*
%TO.N,R_4*%
X72390001Y-60519998D02*
X72390001Y-50519759D01*
%TO.N,A_0*%
X114690001Y-51500003D02*
X84695000Y-51500003D01*
%TO.N,A_7*%
X77700000Y-88675001D02*
X77975001Y-88400000D01*
%TO.N,R_2*%
X119306002Y-95626000D02*
X119306002Y-98864001D01*
%TO.N,C_3*%
X113765000Y-73000000D02*
X108990002Y-73000000D01*
%TO.N,C_6*%
X95049000Y-131291001D02*
X95090002Y-131249999D01*
%TO.N,C_3*%
X83890001Y-77800000D02*
X89890001Y-77800000D01*
D17*
%TO.N,R_2*%
X86000000Y-94700000D02*
X86100000Y-94700000D01*
D15*
%TO.N,A_2*%
X118400000Y-89680002D02*
X118380002Y-89700000D01*
X115810004Y-57875001D02*
X115810002Y-57875003D01*
%TO.N,R_5*%
X108564002Y-54201000D02*
X108599266Y-54201000D01*
%TO.N,C_2*%
X114740001Y-98250000D02*
X113190001Y-99800000D01*
%TO.N,C_3*%
X114375001Y-92700000D02*
X115625003Y-91449998D01*
%TO.N,R_2*%
X75965000Y-67275001D02*
X74940001Y-68300000D01*
%TO.N,A_2*%
X102860001Y-62650000D02*
X100270000Y-62650000D01*
%TO.N,R_3*%
X83700000Y-82600000D02*
X84699999Y-81600001D01*
D16*
%TO.N,A_0*%
X118420000Y-46818002D02*
X117759001Y-46157003D01*
D15*
%TO.N,R_7*%
X74310003Y-106549999D02*
X74310003Y-107879998D01*
%TO.N,A_4*%
X109674997Y-101549998D02*
X109300000Y-101175001D01*
%TO.N,C_5*%
X89890005Y-106549999D02*
X89890003Y-106550001D01*
%TO.N,R_6*%
X115790001Y-113400000D02*
X101700000Y-113400000D01*
X77029999Y-126349999D02*
X77030001Y-126349997D01*
%TO.N,R_1*%
X106840001Y-45750000D02*
X114220001Y-45750000D01*
%TO.N,A_2*%
X98370000Y-64550000D02*
X80990001Y-64550000D01*
%TO.N,A_1*%
X74264998Y-65525003D02*
X73434000Y-66356001D01*
%TO.N,R_5*%
X113210000Y-67985001D02*
X113210000Y-67274999D01*
X109540003Y-53224999D02*
X114250001Y-53225000D01*
D17*
%TO.N,R_6*%
X86000002Y-101549999D02*
X86000000Y-101550001D01*
D15*
%TO.N,C_4*%
X103725001Y-96450000D02*
X104200000Y-95975001D01*
%TO.N,R_7*%
X88964002Y-134486003D02*
X88964002Y-133820735D01*
%TO.N,C_6*%
X97660005Y-134400003D02*
X96290001Y-134400003D01*
%TO.N,C_0*%
X74520001Y-60900000D02*
X74646002Y-61026001D01*
%TO.N,C_5*%
X97660000Y-91449998D02*
X95070002Y-91449998D01*
%TO.N,C_4*%
X110490001Y-54399005D02*
X114730998Y-54399005D01*
%TO.N,C_5*%
X92480000Y-106549999D02*
X89890005Y-106549999D01*
%TO.N,R_1*%
X108011758Y-48568000D02*
X106690001Y-48567999D01*
%TO.N,C_6*%
X80790001Y-97900000D02*
X80590001Y-98100000D01*
%TO.N,C_0*%
X95990001Y-61026001D02*
X98990001Y-61026001D01*
%TO.N,R_4*%
X106800000Y-93075001D02*
X106199000Y-93676001D01*
%TO.N,C_7*%
X88390001Y-53600000D02*
X87634997Y-53600000D01*
%TO.N,C_0*%
X79489998Y-53225000D02*
X80800000Y-53224999D01*
%TO.N,R_6*%
X97660003Y-136149999D02*
X97660005Y-136150001D01*
%TO.N,C_0*%
X113191758Y-48568000D02*
X111900000Y-48568000D01*
%TO.N,R_7*%
X79934738Y-108500000D02*
X77984737Y-106549999D01*
%TO.N,R_6*%
X101700000Y-113400000D02*
X101600000Y-113500000D01*
D17*
%TO.N,C_0*%
X79699998Y-60899999D02*
X79700000Y-60900001D01*
D15*
%TO.N,C_6*%
X95049000Y-134378999D02*
X95049000Y-131291001D01*
%TO.N,A_7*%
X76900002Y-96450000D02*
X77855001Y-96450000D01*
%TO.N,C_6*%
X93965000Y-132375001D02*
X92900000Y-132375001D01*
%TO.N,C_1*%
X107929996Y-76800000D02*
X108029998Y-76699998D01*
%TO.N,C_7*%
X72390001Y-93409997D02*
X74350000Y-91449998D01*
D16*
%TO.N,A_0*%
X117759001Y-46157003D02*
X117759001Y-42211000D01*
D15*
%TO.N,R_7*%
X91425001Y-77925001D02*
X93715002Y-77925001D01*
%TO.N,A_7*%
X87300004Y-134400003D02*
X87300004Y-133939996D01*
%TO.N,C_5*%
X89850003Y-96450000D02*
X92440000Y-96450000D01*
%TO.N,R_3*%
X78200000Y-82600000D02*
X83700000Y-82600000D01*
%TO.N,R_5*%
X114250001Y-53225000D02*
X114300000Y-53175001D01*
%TO.N,A_1*%
X119440001Y-71315002D02*
X119440001Y-73900001D01*
%TO.N,A_7*%
X112340001Y-62650000D02*
X113219999Y-62650000D01*
%TO.N,C_3*%
X93604734Y-76700000D02*
X92519998Y-76700000D01*
%TO.N,C_2*%
X115810003Y-72024999D02*
X115810001Y-72025001D01*
%TO.N,A_1*%
X74345001Y-70275000D02*
X118400000Y-70275001D01*
X118400000Y-70275001D02*
X119440001Y-71315002D01*
%TO.N,C_7*%
X110620001Y-76700000D02*
X109626765Y-76700000D01*
%TO.N,R_6*%
X101489997Y-53225000D02*
X101689997Y-53225000D01*
%TO.N,C_2*%
X114860001Y-71075001D02*
X115810001Y-72025001D01*
%TO.N,A_1*%
X73434000Y-69363999D02*
X74345001Y-70275000D01*
%TO.N,R_7*%
X73390001Y-135189997D02*
X74350005Y-136150001D01*
%TO.N,A_2*%
X118400000Y-57875001D02*
X118400000Y-59075001D01*
%TO.N,R_5*%
X92475001Y-72024997D02*
X93450004Y-73000000D01*
%TO.N,R_6*%
X115790007Y-134400001D02*
X115790005Y-134400003D01*
%TO.N,C_4*%
X108020004Y-124600001D02*
X107920003Y-124500000D01*
%TO.N,A_0*%
X84695000Y-51500003D02*
X84669998Y-51475001D01*
%TO.N,R_6*%
X102840004Y-126349999D02*
X100250002Y-126349999D01*
%TO.N,C_7*%
X105430003Y-131249999D02*
X108020001Y-131249999D01*
%TO.N,C_3*%
X113200003Y-111449999D02*
X110610003Y-111449999D01*
%TO.N,A_1*%
X118390000Y-74950002D02*
X110620001Y-74950002D01*
%TO.N,C_1*%
X100290000Y-48568000D02*
X102880000Y-48568000D01*
%TO.N,R_6*%
X102850002Y-67275000D02*
X101600000Y-67275000D01*
%TO.N,R_4*%
X87289998Y-116349999D02*
X87290000Y-116349997D01*
%TO.N,A_0*%
X164590001Y-46818002D02*
X164690001Y-46918002D01*
X124341760Y-46818002D02*
X164590001Y-46818002D01*
X164590001Y-46818002D02*
X168371759Y-46818002D01*
D16*
X167759001Y-42211000D02*
X169010001Y-40960000D01*
D15*
X168389997Y-51500003D02*
X164690001Y-51500003D01*
D16*
X168420000Y-46818002D02*
X167759001Y-46157003D01*
D15*
X164690001Y-46918002D02*
X164690001Y-51500003D01*
D16*
X167759001Y-46157003D02*
X167759001Y-42211000D01*
D15*
X164690001Y-51500003D02*
X134695000Y-51500003D01*
X134695000Y-51500003D02*
X134669998Y-51475001D01*
%TO.N,A_1*%
X124345001Y-70275000D02*
X168400000Y-70275001D01*
X169440001Y-71315002D02*
X169440001Y-73900001D01*
X123434000Y-69363999D02*
X124345001Y-70275000D01*
X168390000Y-74950002D02*
X160620001Y-74950002D01*
X168400000Y-70275001D02*
X169440001Y-71315002D01*
X124264998Y-65525003D02*
X123434000Y-66356001D01*
X137310001Y-65525003D02*
X124264998Y-65525003D01*
X123434000Y-68200000D02*
X123434000Y-69363999D01*
X123434000Y-66356001D02*
X123434000Y-68200000D01*
X169440001Y-73900001D02*
X168390000Y-74950002D01*
%TO.N,A_2*%
X137300001Y-84800001D02*
X130790001Y-84800000D01*
X123364000Y-85726000D02*
X123364000Y-88714000D01*
X130790001Y-84800000D02*
X124290000Y-84800000D01*
X168400000Y-88475001D02*
X168400000Y-89680002D01*
X124290000Y-84800000D02*
X123364000Y-85726000D01*
X168400000Y-59075001D02*
X168100000Y-59375001D01*
X148370000Y-64550000D02*
X130990001Y-64550000D01*
X124350000Y-89700000D02*
X168380002Y-89700000D01*
X123364000Y-88714000D02*
X124350000Y-89700000D01*
X150270000Y-62650000D02*
X148370000Y-64550000D01*
X168400000Y-57875001D02*
X165810004Y-57875001D01*
X152860001Y-62650000D02*
X150270000Y-62650000D01*
X165810004Y-57875001D02*
X165810002Y-57875003D01*
X168400000Y-89680002D02*
X168380002Y-89700000D01*
X168400000Y-57875001D02*
X168400000Y-59075001D01*
D17*
%TO.N,C_0*%
X129699998Y-60899999D02*
X129700000Y-60900001D01*
D15*
X129489998Y-53225000D02*
X130800000Y-53224999D01*
X163191758Y-48568000D02*
X161900000Y-48568000D01*
X145990001Y-61026001D02*
X148990001Y-61026001D01*
X124520001Y-60900000D02*
X124646002Y-61026001D01*
X146290001Y-65525003D02*
X139900002Y-65525003D01*
X160601760Y-48568000D02*
X161900000Y-48568000D01*
X139900002Y-65525003D02*
X139900000Y-65525001D01*
X152734002Y-61026001D02*
X152860001Y-60900002D01*
X148990001Y-61026001D02*
X152734002Y-61026001D01*
X124646002Y-61026001D02*
X145990001Y-61026001D01*
X132079998Y-53224999D02*
X130800000Y-53224999D01*
X168390002Y-65525003D02*
X146290001Y-65525003D01*
%TO.N,C_1*%
X140780001Y-45750000D02*
X138530001Y-43500000D01*
X125790001Y-53224998D02*
X124310000Y-53224998D01*
X150290000Y-48568000D02*
X152880000Y-48568000D01*
X128115002Y-68700000D02*
X129540002Y-67275000D01*
X126899995Y-53224998D02*
X125790001Y-53224998D01*
X138700000Y-84875001D02*
X139815000Y-84875001D01*
X127990001Y-79850001D02*
X142489998Y-79850002D01*
X139815000Y-84875001D02*
X139890001Y-84800000D01*
X124310000Y-53224998D02*
X124309998Y-53225000D01*
X140890001Y-49900000D02*
X140990001Y-49800000D01*
X126790001Y-68700000D02*
X128115002Y-68700000D01*
X124339997Y-79850001D02*
X127990001Y-79850001D01*
X129540002Y-67275000D02*
X132130002Y-67275001D01*
X126590001Y-68900000D02*
X126790001Y-68700000D01*
X126190001Y-49900000D02*
X140890001Y-49900000D01*
X159490001Y-84800000D02*
X159490002Y-84800001D01*
X139890001Y-84800000D02*
X156590001Y-84800000D01*
X155439999Y-76699998D02*
X158029998Y-76699998D01*
X157929996Y-76800000D02*
X158029998Y-76699998D01*
X141690001Y-45750000D02*
X140780001Y-45750000D01*
X151490001Y-45750000D02*
X141690001Y-45750000D01*
X159490002Y-84800001D02*
X168380000Y-84800001D01*
X156590001Y-84800000D02*
X159490001Y-84800000D01*
%TO.N,C_2*%
X124360005Y-99800000D02*
X124360002Y-99800003D01*
X168400000Y-72024999D02*
X165810003Y-72024999D01*
X164800000Y-58975001D02*
X163700001Y-57875002D01*
X152240000Y-75875589D02*
X152850000Y-76485589D01*
X159628926Y-50200000D02*
X163675001Y-50200000D01*
X152850000Y-76485589D02*
X152850000Y-76699999D01*
X163190001Y-99800000D02*
X124360005Y-99800000D01*
X164900000Y-58975001D02*
X164800000Y-58975001D01*
X164860001Y-71075001D02*
X165810001Y-72025001D01*
X163700001Y-57875002D02*
X163220002Y-57875002D01*
X164740001Y-98250000D02*
X163190001Y-99800000D01*
X165810003Y-72024999D02*
X165810001Y-72025001D01*
X150290000Y-76700000D02*
X152850000Y-76699999D01*
X163675001Y-50200000D02*
X163900000Y-49975001D01*
X139813758Y-48500000D02*
X139881758Y-48568000D01*
X139881758Y-48568000D02*
X142471760Y-48568000D01*
X130900002Y-86549999D02*
X130900000Y-86549997D01*
X165790000Y-96449999D02*
X165790000Y-97200001D01*
X138590001Y-48500000D02*
X139813758Y-48500000D01*
X165790000Y-97200001D02*
X164740001Y-98250000D01*
X164800000Y-71075001D02*
X164860001Y-71075001D01*
D17*
X147649999Y-99800001D02*
X147650001Y-99799999D01*
D15*
X144103760Y-50200000D02*
X159618923Y-50200000D01*
X132120001Y-86549999D02*
X130900002Y-86549999D01*
X168380002Y-96449998D02*
X165790000Y-96449999D01*
X129529998Y-86549997D02*
X130900000Y-86549997D01*
X163220002Y-57875002D02*
X160630002Y-57875003D01*
X142471760Y-48568000D02*
X144103760Y-50200000D01*
%TO.N,A_3*%
X143899000Y-62875001D02*
X142725002Y-62875001D01*
X142725002Y-62875001D02*
X142500001Y-62650000D01*
X168380002Y-109700001D02*
X165790003Y-109700001D01*
X142500001Y-62650000D02*
X139909999Y-62650000D01*
X139899999Y-81600000D02*
X142489998Y-81600000D01*
X158265000Y-58100000D02*
X158040003Y-57875003D01*
X124310003Y-104800001D02*
X168380002Y-104800001D01*
X159490001Y-58100000D02*
X158265000Y-58100000D01*
X158040003Y-57875003D02*
X155450001Y-57875003D01*
X169390001Y-108690002D02*
X168380002Y-109700001D01*
X153478074Y-59474002D02*
X144700000Y-59474002D01*
X145110000Y-76700000D02*
X147699999Y-76700000D01*
X155077073Y-57875003D02*
X153478074Y-59474002D01*
X168380002Y-104800001D02*
X169390001Y-105810000D01*
X142489998Y-81600000D02*
X142489998Y-81385003D01*
X143775001Y-81600000D02*
X142489998Y-81600000D01*
X144100000Y-81275001D02*
X143775001Y-81600000D01*
X169390001Y-105810000D02*
X169390001Y-108690002D01*
%TO.N,C_3*%
X163765000Y-73000000D02*
X158990002Y-73000000D01*
X160610000Y-106549999D02*
X163200001Y-106549999D01*
X161640000Y-96449999D02*
X163200001Y-96449999D01*
X133390001Y-48300000D02*
X132379759Y-48300000D01*
X163290001Y-92700000D02*
X164375001Y-92700000D01*
X163200001Y-96449999D02*
X163200001Y-98010000D01*
X139930000Y-77760001D02*
X139930000Y-76700000D01*
X155425002Y-72024999D02*
X154015000Y-72024999D01*
X154990001Y-77876001D02*
X144780735Y-77876001D01*
D17*
X158014997Y-72024999D02*
X158014999Y-72024997D01*
D15*
X132111759Y-48568000D02*
X129521759Y-48568000D01*
X163965000Y-73200000D02*
X163765000Y-73000000D01*
X153500002Y-57875003D02*
X152860003Y-57875003D01*
X163200001Y-98010000D02*
X163390001Y-98200000D01*
X163200003Y-111449999D02*
X160610003Y-111449999D01*
X139890001Y-77800000D02*
X139930000Y-77760001D01*
X139930000Y-76700000D02*
X142519998Y-76700000D01*
X168380002Y-114600001D02*
X161790001Y-114600001D01*
X143604734Y-76700000D02*
X142519998Y-76700000D01*
X164375001Y-92700000D02*
X165625003Y-91449998D01*
X165625003Y-91449998D02*
X165790000Y-91449998D01*
X154015000Y-72024999D02*
X153990001Y-72000000D01*
X155425002Y-72024999D02*
X158014997Y-72024999D01*
X158990002Y-73000000D02*
X158014999Y-72024997D01*
X153757500Y-58132501D02*
X153500002Y-57875003D01*
X161640000Y-96449999D02*
X160610002Y-96449999D01*
X152860003Y-57875003D02*
X150270002Y-57875003D01*
X133890001Y-77800000D02*
X139890001Y-77800000D01*
X163200001Y-106549999D02*
X163200003Y-106550001D01*
X132379759Y-48300000D02*
X132111759Y-48568000D01*
X144780735Y-77876001D02*
X143604734Y-76700000D01*
X163714672Y-107600000D02*
X163200003Y-107085331D01*
X168380002Y-91449998D02*
X165790000Y-91449998D01*
X163200003Y-107085331D02*
X163200003Y-106550001D01*
X161790001Y-114600001D02*
X139880003Y-114600001D01*
%TO.N,A_4*%
X132989999Y-81600001D02*
X133290000Y-81300000D01*
X124340002Y-114600001D02*
X130790001Y-114600001D01*
X138954003Y-116264002D02*
X138954003Y-116929265D01*
X145090002Y-57875002D02*
X143365004Y-59600000D01*
X132140000Y-62650000D02*
X130790001Y-62649999D01*
X134749999Y-76700000D02*
X133690001Y-76700000D01*
X132110000Y-81600001D02*
X132989999Y-81600001D01*
X145110000Y-119600001D02*
X168370004Y-119600001D01*
X143934000Y-118424001D02*
X145110000Y-119600001D01*
X163190001Y-101549998D02*
X159674997Y-101549998D01*
X129519999Y-81600001D02*
X129519997Y-81599999D01*
X157980002Y-96449999D02*
X158874998Y-96449999D01*
X132665001Y-77725000D02*
X132301000Y-77725000D01*
X159674997Y-101549998D02*
X159300000Y-101175001D01*
X140448739Y-118424001D02*
X143934000Y-118424001D01*
X143252005Y-59650000D02*
X145010003Y-57892002D01*
X139590001Y-59650000D02*
X143252005Y-59650000D01*
D17*
X160225006Y-101175001D02*
X160600003Y-101549998D01*
D15*
X130790001Y-114600001D02*
X137289998Y-114600001D01*
X158874998Y-96449999D02*
X159300000Y-96875001D01*
X138954003Y-116929265D02*
X140448739Y-118424001D01*
X133690001Y-76700000D02*
X132665001Y-77725000D01*
X134749999Y-76700000D02*
X137339998Y-76700000D01*
X155390001Y-96449998D02*
X157980002Y-96449999D01*
X137290000Y-114599999D02*
X138954003Y-116264002D01*
X132110000Y-81600001D02*
X129519999Y-81600001D01*
X137289998Y-114600001D02*
X137290000Y-114599999D01*
X129700000Y-62649999D02*
X130790001Y-62649999D01*
X147680002Y-57875003D02*
X145090002Y-57875002D01*
X139590001Y-59650000D02*
X129790001Y-59650000D01*
%TO.N,C_4*%
X152200322Y-73000000D02*
X148630003Y-73000000D01*
X158569999Y-90900000D02*
X158020001Y-91449998D01*
X129569999Y-76779998D02*
X131590001Y-78800000D01*
X160490001Y-54399005D02*
X164730998Y-54399005D01*
X152800004Y-96450000D02*
X153725001Y-96450000D01*
X132610001Y-45200000D02*
X134290001Y-45200000D01*
X137545265Y-127700000D02*
X135690001Y-127700000D01*
X142480003Y-124600001D02*
X142531002Y-124549002D01*
X153474998Y-106549999D02*
X153900000Y-106975001D01*
X139980002Y-124600001D02*
X138316001Y-126264002D01*
X130910001Y-43500000D02*
X132610001Y-45200000D01*
X140009998Y-57857999D02*
X142600000Y-57857999D01*
X155430004Y-111449998D02*
X154674997Y-111449998D01*
X142531002Y-121400999D02*
X142480002Y-121349999D01*
X143282998Y-57857999D02*
X143600000Y-58175001D01*
X140080003Y-124500000D02*
X139980002Y-124600001D01*
X129569999Y-76700000D02*
X132159999Y-76700000D01*
X148630003Y-73000000D02*
X147655001Y-72024998D01*
X158020004Y-111449999D02*
X155430004Y-111449998D01*
X129520002Y-116349999D02*
X132109998Y-116349999D01*
X165880002Y-53250001D02*
X168470000Y-53250001D01*
X152240000Y-72960322D02*
X152200322Y-73000000D01*
X131590001Y-78800000D02*
X143390001Y-78800000D01*
X145065001Y-72024999D02*
X147655001Y-72024998D01*
X138316001Y-126264002D02*
X138316001Y-126929264D01*
X157920003Y-124500000D02*
X140080003Y-124500000D01*
X143815000Y-72024999D02*
X145065001Y-72024999D01*
X142480002Y-121349999D02*
X139890001Y-121349999D01*
X132109998Y-116349999D02*
X132110000Y-116349997D01*
X158020004Y-124600001D02*
X157920003Y-124500000D01*
X132110000Y-116349997D02*
X132110000Y-116965001D01*
X142600000Y-57857999D02*
X143282998Y-57857999D01*
X143790001Y-72000000D02*
X143815000Y-72024999D01*
X138316001Y-126929264D02*
X137545265Y-127700000D01*
X150250002Y-106549999D02*
X153474998Y-106549999D01*
X132110000Y-116965001D02*
X131300000Y-117775001D01*
X129569999Y-76700000D02*
X129569999Y-76779998D01*
X158020001Y-91449998D02*
X155425003Y-91449998D01*
X155425003Y-91449998D02*
X154400000Y-92475001D01*
X159390001Y-90900000D02*
X158569999Y-90900000D01*
D17*
X155430003Y-91449998D02*
X155425003Y-91449998D01*
D15*
X164730998Y-54399005D02*
X165880002Y-53250001D01*
X154674997Y-111449998D02*
X154100000Y-110875001D01*
X150210004Y-96449998D02*
X152800002Y-96449998D01*
X142531002Y-124549002D02*
X142531002Y-121400999D01*
X152800002Y-96449998D02*
X152800004Y-96450000D01*
X153725001Y-96450000D02*
X154200000Y-95975001D01*
%TO.N,A_5*%
X165800000Y-67275001D02*
X167290001Y-67275001D01*
X145030002Y-96450000D02*
X147620004Y-96450000D01*
X127375001Y-76700000D02*
X128200000Y-75875001D01*
X128890001Y-58900000D02*
X133787997Y-58900000D01*
X147620004Y-96450000D02*
X148374999Y-96450000D01*
D16*
X129621001Y-44369000D02*
X128590001Y-45400000D01*
D15*
X149474998Y-101549999D02*
X149100000Y-101175001D01*
D16*
X156310001Y-40960000D02*
X155059001Y-42211000D01*
D15*
X168390002Y-67275001D02*
X167290001Y-67275001D01*
X148374999Y-96450000D02*
X148900000Y-96975001D01*
X149000000Y-88600000D02*
X163739998Y-88600000D01*
X129590001Y-103000000D02*
X129990001Y-103400000D01*
X164590001Y-103400000D02*
X163890001Y-102700000D01*
X152840004Y-111449999D02*
X150250002Y-111449999D01*
X168380002Y-116349999D02*
X170239001Y-118208998D01*
X134829998Y-57857999D02*
X137420000Y-57857999D01*
X126980000Y-76700000D02*
X127375001Y-76700000D01*
X168380000Y-86549999D02*
X167000000Y-86549998D01*
X170239001Y-127641002D02*
X168380002Y-129500001D01*
D16*
X155059001Y-42211000D02*
X135090001Y-42211000D01*
D15*
X163890001Y-102700000D02*
X153980004Y-102700000D01*
X149174998Y-111449999D02*
X149000000Y-111275001D01*
X133787997Y-58900000D02*
X134829998Y-57857999D01*
X163739998Y-88600000D02*
X165790000Y-86549998D01*
X167000000Y-86549998D02*
X165790000Y-86549998D01*
D16*
X129621001Y-42669000D02*
X129621001Y-44369000D01*
D15*
X150240001Y-101549999D02*
X152830003Y-101549999D01*
X138990001Y-113400000D02*
X149000000Y-113400000D01*
X129990001Y-103400000D02*
X148600000Y-103400000D01*
X124440002Y-124600001D02*
X137390001Y-124600000D01*
X124389998Y-76700000D02*
X126980000Y-76700000D01*
D16*
X130079001Y-42211000D02*
X129621001Y-42669000D01*
D15*
X138590001Y-113800000D02*
X138990001Y-113400000D01*
X170239001Y-118208998D02*
X170239001Y-127641002D01*
X153980004Y-102700000D02*
X152830003Y-101549999D01*
D16*
X135090001Y-42211000D02*
X130079001Y-42211000D01*
D15*
X150240001Y-101549999D02*
X149474998Y-101549999D01*
X150250002Y-111449999D02*
X149174998Y-111449999D01*
X155430003Y-129500001D02*
X168380002Y-129500001D01*
X148600000Y-103400000D02*
X149100000Y-103900000D01*
X165780002Y-116349999D02*
X168380002Y-116349999D01*
%TO.N,C_5*%
X132175001Y-73500000D02*
X128090001Y-73500000D01*
X137295000Y-72024997D02*
X137295002Y-72024999D01*
X133650004Y-72024997D02*
X134704999Y-72024997D01*
X145070002Y-91449998D02*
X144030004Y-91449998D01*
X138370003Y-73100000D02*
X137295002Y-72024999D01*
X168390000Y-81600000D02*
X168390000Y-82299999D01*
X145070002Y-111449999D02*
X144074998Y-111449999D01*
X129620001Y-126349999D02*
X129620001Y-129440003D01*
X129620001Y-129440003D02*
X129610001Y-129450003D01*
X150290002Y-131249997D02*
X148964998Y-132575001D01*
X165780002Y-121349999D02*
X168370004Y-121349999D01*
X129620001Y-126349999D02*
X132210003Y-126349999D01*
X143580002Y-96100001D02*
X143230005Y-96449998D01*
X168390000Y-82299999D02*
X169590001Y-83500000D01*
X143230005Y-96449998D02*
X142440002Y-96449998D01*
X148964998Y-132575001D02*
X145800000Y-132575001D01*
X150290004Y-131249999D02*
X150290002Y-131249997D01*
X152880002Y-131249999D02*
X150290004Y-131249999D01*
X142440000Y-96450000D02*
X142440002Y-96449998D01*
X132160000Y-57874999D02*
X129569999Y-57874999D01*
X169296004Y-120423999D02*
X169296004Y-119020735D01*
X168370004Y-121349999D02*
X169296004Y-120423999D01*
X134290005Y-121349999D02*
X137300002Y-121349999D01*
X147660000Y-91449998D02*
X145070002Y-91449998D01*
X139850003Y-96450000D02*
X142440000Y-96450000D01*
X132930004Y-126349999D02*
X132210003Y-126349999D01*
X139890005Y-106549999D02*
X139890003Y-106550001D01*
X144030004Y-91449998D02*
X143780002Y-91700000D01*
X145151000Y-118400000D02*
X144151000Y-117400000D01*
X142113805Y-73100000D02*
X138370003Y-73100000D01*
X132200000Y-126360002D02*
X132210003Y-126349999D01*
X168675269Y-118400000D02*
X145151000Y-118400000D01*
X133650004Y-72024997D02*
X132175001Y-73500000D01*
X142166116Y-73047689D02*
X142113805Y-73100000D01*
X129591999Y-57800000D02*
X129649998Y-57857999D01*
X147660004Y-111449999D02*
X145070002Y-111449999D01*
X165799998Y-81600000D02*
X168390000Y-81600000D01*
D17*
X138175000Y-120475001D02*
X137300002Y-121349999D01*
D15*
X156790001Y-53225000D02*
X158070000Y-53225000D01*
X143374998Y-106549999D02*
X142480000Y-106549999D01*
D17*
X138175000Y-120475001D02*
X144000000Y-120475001D01*
D15*
X134704999Y-72024997D02*
X137295000Y-72024997D01*
X144074998Y-111449999D02*
X144000000Y-111375001D01*
X133815003Y-121825002D02*
X134290005Y-121349999D01*
X142480000Y-106549999D02*
X139890005Y-106549999D01*
X155940001Y-73800000D02*
X142918427Y-73800000D01*
X169296004Y-119020735D02*
X168675269Y-118400000D01*
X143700000Y-106875001D02*
X143374998Y-106549999D01*
X128055000Y-57800000D02*
X129591999Y-57800000D01*
X127955000Y-57900000D02*
X128055000Y-57800000D01*
X133635002Y-125645001D02*
X132930004Y-126349999D01*
X124390002Y-129425000D02*
X132174999Y-129425000D01*
X155470000Y-53225000D02*
X156790001Y-53225000D01*
X142918427Y-73800000D02*
X142166116Y-73047689D01*
%TO.N,A_6*%
X158155000Y-67400000D02*
X158030001Y-67275001D01*
X158010003Y-116349999D02*
X155420002Y-116349999D01*
X127059999Y-57857999D02*
X125690001Y-57857999D01*
X139890003Y-111449999D02*
X138582501Y-112757502D01*
X138500000Y-97175001D02*
X139600000Y-98275001D01*
X143630004Y-112600000D02*
X142480003Y-111449999D01*
X158020004Y-126349999D02*
X155430002Y-126349999D01*
X155430001Y-86549999D02*
X158019999Y-86549999D01*
X150250005Y-136150000D02*
X156690001Y-136150000D01*
X129790001Y-92700000D02*
X134990001Y-92700000D01*
X135890001Y-96450000D02*
X137260003Y-96450000D01*
X159276765Y-81600000D02*
X160619999Y-81600000D01*
X163209999Y-81600000D02*
X160619999Y-81600000D01*
X132825002Y-121349999D02*
X133400000Y-120775001D01*
X139900003Y-101550001D02*
X142490002Y-101550001D01*
X132120001Y-121349999D02*
X132825002Y-121349999D01*
X142480003Y-111449999D02*
X139890003Y-111449999D01*
X158030001Y-67275001D02*
X155440000Y-67275000D01*
X134670004Y-96450000D02*
X135890001Y-96450000D01*
X125690001Y-57857999D02*
X124470000Y-57857999D01*
X125690001Y-57857999D02*
X125390001Y-57857999D01*
X139900003Y-101550001D02*
X138975000Y-101550001D01*
X137260003Y-96450000D02*
X137774999Y-96450000D01*
X137774999Y-96450000D02*
X138500000Y-97175001D01*
X158019999Y-86549999D02*
X158925002Y-86549999D01*
X156690001Y-136150000D02*
X168380002Y-136149999D01*
X129690001Y-92600000D02*
X129790001Y-92700000D01*
X155440000Y-67275000D02*
X154615001Y-67275000D01*
X156890001Y-112600000D02*
X143630004Y-112600000D01*
X129530003Y-121349999D02*
X132120001Y-121349999D01*
X154615001Y-67275000D02*
X154390001Y-67500000D01*
X155420002Y-116349999D02*
X155420000Y-116349997D01*
X158925002Y-86549999D02*
X159200000Y-86275001D01*
X139600000Y-98275001D02*
X158600000Y-98275001D01*
X138975000Y-101550001D02*
X138700000Y-101275001D01*
X159190001Y-67400000D02*
X158155000Y-67400000D01*
%TO.N,C_6*%
X147660005Y-134400003D02*
X146290001Y-134400003D01*
X165790001Y-131249998D02*
X164474997Y-131249998D01*
X147619996Y-53224998D02*
X145029995Y-53224998D01*
X123414002Y-120413999D02*
X123414002Y-114020735D01*
X141290001Y-123600000D02*
X129190002Y-123600000D01*
X159660004Y-123000000D02*
X163790001Y-123000000D01*
X160610003Y-134400001D02*
X163200002Y-134400001D01*
X166024999Y-82700000D02*
X159129999Y-82700000D01*
X129490004Y-96450000D02*
X130790001Y-96449999D01*
X166400000Y-83075001D02*
X166024999Y-82700000D01*
X130590001Y-98100000D02*
X126690001Y-98100000D01*
X124345001Y-73245000D02*
X124190001Y-73400000D01*
X145090002Y-131249999D02*
X143965000Y-132375001D01*
X152039006Y-55149005D02*
X151090001Y-54200000D01*
X130790001Y-96449999D02*
X132080004Y-96449999D01*
X125008738Y-112425999D02*
X132649002Y-112425999D01*
X142290001Y-83700000D02*
X153340000Y-83700000D01*
X134259999Y-91900000D02*
X134710001Y-91449998D01*
X124350002Y-121349999D02*
X123414002Y-120413999D01*
X159129999Y-82700000D02*
X158029999Y-81600000D01*
X124345001Y-72024998D02*
X124345001Y-73245000D01*
X163200002Y-134400001D02*
X163200002Y-133839997D01*
X151090001Y-54200000D02*
X149490001Y-54200000D01*
X138325003Y-91449998D02*
X138600000Y-91175001D01*
X147619998Y-53225000D02*
X147619996Y-53224998D01*
X145049000Y-131291001D02*
X145090002Y-131249999D01*
X132649002Y-112425999D02*
X133700000Y-111375001D01*
X133340000Y-106549999D02*
X133390001Y-106600000D01*
X133490001Y-91900000D02*
X134259999Y-91900000D01*
X123414002Y-114020735D02*
X125008738Y-112425999D01*
X129190002Y-123600000D02*
X126940001Y-121349999D01*
X126935000Y-72024997D02*
X124345001Y-72024998D01*
X153340000Y-83700000D02*
X155440000Y-81600000D01*
X145070002Y-134400001D02*
X145049000Y-134378999D01*
X137300000Y-91449998D02*
X138325003Y-91449998D01*
X134710001Y-91449998D02*
X137300000Y-91449998D01*
X165790001Y-131249998D02*
X168380002Y-131249999D01*
X129490003Y-106549999D02*
X133340000Y-106549999D01*
X132080004Y-96449999D02*
X132080004Y-96475003D01*
X149490001Y-54200000D02*
X148515001Y-53225000D01*
X145090002Y-131249999D02*
X147680002Y-131249999D01*
X130790001Y-97900000D02*
X130590001Y-98100000D01*
X167100000Y-54975001D02*
X166925996Y-55149005D01*
X146290001Y-134400003D02*
X145070004Y-134400003D01*
X163200002Y-133839997D02*
X165790001Y-131249998D01*
X148515001Y-53225000D02*
X147619998Y-53225000D01*
X167100000Y-62650000D02*
X165810001Y-62650000D01*
X155440000Y-81600000D02*
X158029999Y-81600000D01*
X124350002Y-121349999D02*
X126940001Y-121349999D01*
X145070004Y-134400003D02*
X145070002Y-134400001D01*
X132080004Y-96475003D02*
X133280002Y-97675001D01*
X145049000Y-134378999D02*
X145049000Y-131291001D01*
X143965000Y-132375001D02*
X142900000Y-132375001D01*
X168400000Y-62649999D02*
X167100000Y-62650000D01*
X133774998Y-111449999D02*
X133700000Y-111375001D01*
X130790001Y-96449999D02*
X130790001Y-97900000D01*
X155420003Y-121349998D02*
X158010003Y-121349999D01*
X158010003Y-121349999D02*
X159660004Y-123000000D01*
X137300003Y-111449999D02*
X133774998Y-111449999D01*
X166925996Y-55149005D02*
X152039006Y-55149005D01*
%TO.N,A_7*%
X132200000Y-131199999D02*
X129610003Y-131199999D01*
X149775001Y-81600000D02*
X150260000Y-81600000D01*
X126900000Y-96449998D02*
X126900002Y-96450000D01*
X127855001Y-96450000D02*
X128680002Y-97275001D01*
X149292500Y-82082501D02*
X149775001Y-81600000D01*
X148800000Y-86275001D02*
X148715000Y-86275001D01*
X151207423Y-64400000D02*
X160590001Y-64400000D01*
X147660000Y-86549998D02*
X145070000Y-86549999D01*
X148490001Y-67300000D02*
X147695003Y-67300000D01*
X148744736Y-126349999D02*
X147660003Y-126349999D01*
X165790003Y-126847073D02*
X164911075Y-127726001D01*
X126900002Y-96450000D02*
X127855001Y-96450000D01*
X150882424Y-64075001D02*
X151207423Y-64400000D01*
X124310002Y-96449998D02*
X126900000Y-96449998D01*
X162340001Y-62650000D02*
X163219999Y-62650000D01*
X143330004Y-131249999D02*
X143680002Y-130900001D01*
X142580002Y-131249999D02*
X143330004Y-131249999D01*
X168380002Y-126349999D02*
X165790003Y-126349999D01*
X143219999Y-88400000D02*
X145070000Y-86549999D01*
X132200000Y-131199999D02*
X132200000Y-131580003D01*
X148800000Y-67609999D02*
X148490001Y-67300000D01*
X137300004Y-134400003D02*
X137300004Y-133939996D01*
X148800000Y-67675001D02*
X148800000Y-67609999D01*
X150482422Y-64075001D02*
X150882424Y-64075001D01*
X129530004Y-136149999D02*
X132120002Y-136149999D01*
X127700000Y-88675001D02*
X127975001Y-88400000D01*
X148715000Y-86275001D02*
X148490001Y-86500000D01*
X149720736Y-127325999D02*
X148744736Y-126349999D01*
X156216000Y-127325999D02*
X149720736Y-127325999D01*
X127975001Y-88400000D02*
X143219999Y-88400000D01*
X164911075Y-127726001D02*
X156616002Y-127726001D01*
X129610003Y-131199999D02*
X129610001Y-131200001D01*
X165790003Y-126349999D02*
X165790003Y-126847073D01*
X156616002Y-127726001D02*
X156216000Y-127325999D01*
X132960005Y-136150001D02*
X134710004Y-134400002D01*
X148490001Y-86500000D02*
X147709998Y-86500000D01*
X132200000Y-131580003D02*
X130780002Y-133000001D01*
X145060002Y-116349999D02*
X146390001Y-116349999D01*
X145070002Y-126349999D02*
X144830004Y-126349999D01*
X144830004Y-126349999D02*
X143780002Y-127400001D01*
X148707500Y-82082501D02*
X149292500Y-82082501D01*
X139990002Y-131249998D02*
X142580002Y-131249999D01*
X129530004Y-111449999D02*
X132120002Y-111449999D01*
X147670002Y-67274999D02*
X145080000Y-67274999D01*
X132120002Y-136149999D02*
X132120004Y-136150001D01*
X146390001Y-116349999D02*
X147650002Y-116349999D01*
X132130000Y-101549999D02*
X129655000Y-101549999D01*
X134710004Y-134400002D02*
X137300004Y-134400003D01*
X147695003Y-67300000D02*
X147670002Y-67274999D01*
X162340001Y-62650000D02*
X160500001Y-62649999D01*
X150260000Y-81600000D02*
X152850000Y-81599999D01*
X147709998Y-86500000D02*
X147660000Y-86549998D01*
X147660003Y-126349999D02*
X145070002Y-126349999D01*
X132120004Y-136150001D02*
X132960005Y-136150001D01*
X129655000Y-101549999D02*
X128680002Y-100575001D01*
X137300004Y-133939996D02*
X139990002Y-131249998D01*
X160590001Y-64400000D02*
X162340001Y-62650000D01*
%TO.N,C_7*%
X122390001Y-93409997D02*
X124350000Y-91449998D01*
X165790003Y-111449999D02*
X165725002Y-111449999D01*
X160560004Y-126300000D02*
X160610003Y-126349999D01*
X163200005Y-126349999D02*
X163974998Y-126349999D01*
X124350003Y-111449999D02*
X122390001Y-109489997D01*
X165725002Y-111449999D02*
X164600000Y-112575001D01*
X159030004Y-131249999D02*
X159180002Y-131100001D01*
X134090001Y-83700000D02*
X123590001Y-83700000D01*
X160620001Y-76700000D02*
X161790001Y-76700000D01*
X134790000Y-131200001D02*
X137380002Y-131200001D01*
X147700002Y-121349999D02*
X147700002Y-121810001D01*
X123590001Y-83700000D02*
X122390001Y-84900000D01*
X150250005Y-134400002D02*
X151890001Y-134400001D01*
X143780000Y-82900000D02*
X139390001Y-82900000D01*
X139390001Y-82900000D02*
X139690001Y-82900000D01*
X168380002Y-111449999D02*
X165790003Y-111449999D01*
X165780002Y-101549999D02*
X168370002Y-101549999D01*
X139390001Y-82900000D02*
X136190001Y-82900000D01*
X158290001Y-62650000D02*
X159290001Y-63650000D01*
X122390001Y-84900000D02*
X122390001Y-93409997D01*
X132120004Y-134400003D02*
X132120004Y-133869997D01*
X126940002Y-91449998D02*
X124350000Y-91449998D01*
X157909999Y-62650000D02*
X155320000Y-62650000D01*
X151890001Y-134400001D02*
X152840004Y-134400001D01*
X151580002Y-134400001D02*
X151580002Y-134347924D01*
X157909999Y-62650000D02*
X158290001Y-62650000D01*
X142680000Y-134400003D02*
X143880002Y-133200001D01*
X124350005Y-134400003D02*
X132120004Y-134400003D01*
X160620001Y-76700000D02*
X159626765Y-76700000D01*
X170091001Y-103270998D02*
X170091001Y-109739000D01*
X122390001Y-109489997D02*
X122390001Y-93409997D01*
X134890001Y-82900000D02*
X134090001Y-83700000D01*
X163974998Y-126349999D02*
X164600000Y-126975001D01*
X139890002Y-134400001D02*
X142480003Y-134400001D01*
X134669998Y-53224999D02*
X137259997Y-53225000D01*
X159290001Y-126300000D02*
X160560004Y-126300000D01*
X163200005Y-126349999D02*
X161690001Y-126349999D01*
X155430003Y-131249999D02*
X158020001Y-131249999D01*
X170091001Y-109739000D02*
X168380002Y-111449999D01*
X142480005Y-134400003D02*
X142680000Y-134400003D01*
X145080000Y-81600000D02*
X147669998Y-81600000D01*
X161690001Y-126349999D02*
X160610003Y-126349999D01*
X163209996Y-76700000D02*
X163209998Y-76699998D01*
X145110000Y-121349999D02*
X147700002Y-121349999D01*
X134890001Y-82900000D02*
X136190001Y-82900000D01*
X158020001Y-131249999D02*
X159030004Y-131249999D01*
X137634997Y-53600000D02*
X137259997Y-53225000D01*
X159626765Y-76700000D02*
X158526765Y-77800000D01*
X154677927Y-131249999D02*
X155430003Y-131249999D01*
X168370002Y-101549999D02*
X170091001Y-103270998D01*
X151580002Y-134347924D02*
X154677927Y-131249999D01*
X132120004Y-133869997D02*
X134790000Y-131200001D01*
X145080000Y-81600000D02*
X143780000Y-82900000D01*
X137390001Y-54600000D02*
X138390001Y-53600000D01*
X138390001Y-53600000D02*
X137634997Y-53600000D01*
X161790001Y-76700000D02*
X163209996Y-76700000D01*
X126940002Y-111449999D02*
X124350003Y-111449999D01*
X123440001Y-54600000D02*
X137390001Y-54600000D01*
X147700002Y-121810001D02*
X148090001Y-122200000D01*
%TO.N,R_0*%
X169490001Y-57215004D02*
X169490001Y-59810000D01*
X133290001Y-56125003D02*
X168400000Y-56125003D01*
X169490001Y-45220000D02*
X169490001Y-47449758D01*
X169490001Y-59810000D02*
X168400000Y-60900001D01*
X126899993Y-51475002D02*
X126899995Y-51475000D01*
X133289999Y-56125001D02*
X124390001Y-56125001D01*
X132160001Y-51475001D02*
X124390001Y-51475002D01*
X133165002Y-51475001D02*
X133290001Y-51600000D01*
X133290001Y-56125003D02*
X133289999Y-56125001D01*
X169490001Y-45220000D02*
X169010001Y-44740000D01*
X168371759Y-48568000D02*
X165781758Y-48567999D01*
X168400000Y-56125003D02*
X169790001Y-54735002D01*
X168400000Y-60900001D02*
X155450000Y-60900002D01*
D17*
X152860001Y-56125003D02*
X152860003Y-56125005D01*
D15*
X169790001Y-49986242D02*
X168371759Y-48568000D01*
X168400000Y-56125003D02*
X169490001Y-57215004D01*
X169010001Y-44740000D02*
X169010001Y-43500000D01*
X169490001Y-47449758D02*
X168371759Y-48568000D01*
X132160001Y-51475001D02*
X133165002Y-51475001D01*
X169790001Y-54735002D02*
X169790001Y-49986242D01*
%TO.N,R_1*%
X143939999Y-79850002D02*
X143890001Y-79900000D01*
X156840001Y-45750000D02*
X164220001Y-45750000D01*
X158003999Y-74924001D02*
X158029998Y-74950000D01*
X145080000Y-79850002D02*
X143939999Y-79850002D01*
X137310001Y-67275001D02*
X136000000Y-67275001D01*
X158029998Y-74950000D02*
X156690001Y-74950000D01*
X158011758Y-48568000D02*
X156690001Y-48567999D01*
X156690001Y-45900000D02*
X156840001Y-45750000D01*
X164220001Y-45750000D02*
X166470001Y-43500000D01*
X168390000Y-79850002D02*
X145080000Y-79850002D01*
X136000000Y-67275001D02*
X134720001Y-67275001D01*
X156690001Y-48567999D02*
X155421761Y-48567999D01*
X156690001Y-74950000D02*
X124390000Y-74950000D01*
X124390000Y-74950000D02*
X124389998Y-74950002D01*
%TO.N,R_2*%
X145089999Y-62650000D02*
X147680001Y-62650000D01*
X146300000Y-48567999D02*
X145061760Y-48567999D01*
X148890001Y-48400000D02*
X147819760Y-48400000D01*
X169306002Y-98864001D02*
X168370002Y-99800001D01*
X147819760Y-48400000D02*
X147651760Y-48568000D01*
X138275001Y-63800000D02*
X138300000Y-63775001D01*
X138300000Y-63775001D02*
X144449943Y-63775001D01*
X137299999Y-86549997D02*
X137300001Y-86549999D01*
X168370002Y-99800001D02*
X165780002Y-99800001D01*
X134709998Y-86549997D02*
X136000000Y-86549997D01*
X125490001Y-63700000D02*
X125590001Y-63800000D01*
X169306002Y-95626000D02*
X169306002Y-98864001D01*
X125590001Y-63800000D02*
X138275001Y-63800000D01*
X136000000Y-86549997D02*
X137299999Y-86549997D01*
X162430001Y-45000000D02*
X163930001Y-43500000D01*
X148790001Y-45000000D02*
X162430001Y-45000000D01*
X168380002Y-94700000D02*
X169306002Y-95626000D01*
X124940001Y-68300000D02*
X124360000Y-67719999D01*
X147651760Y-48568000D02*
X146300000Y-48567999D01*
X124940001Y-63700000D02*
X125490001Y-63700000D01*
X145089999Y-63134945D02*
X145089999Y-62650000D01*
X124360000Y-67719999D02*
X124360000Y-67275001D01*
X125965000Y-67275001D02*
X124940001Y-68300000D01*
D17*
X136000000Y-94700000D02*
X136100000Y-94700000D01*
D15*
X126950002Y-67275001D02*
X125965000Y-67275001D01*
X144449943Y-63775001D02*
X145089999Y-63134945D01*
X124310002Y-94700000D02*
X168380002Y-94700000D01*
%TO.N,R_3*%
X165790000Y-107110004D02*
X163200003Y-109700001D01*
X128200000Y-86375001D02*
X128075001Y-86500000D01*
X137290000Y-81600000D02*
X136000000Y-81600000D01*
X136000000Y-62650000D02*
X134729999Y-62650000D01*
X168380002Y-106549999D02*
X165790000Y-106549999D01*
X124290000Y-86549998D02*
X125600000Y-86549998D01*
X137320000Y-62650000D02*
X136000000Y-62650000D01*
X136000000Y-48577999D02*
X135990001Y-48568000D01*
X126940000Y-86549999D02*
X125600000Y-86549998D01*
X124350003Y-109700001D02*
X125700000Y-109700001D01*
X160605001Y-72024997D02*
X161890001Y-72024997D01*
X163194999Y-72024997D02*
X163195001Y-72024999D01*
X161890001Y-72024997D02*
X162190001Y-72024997D01*
X165790000Y-106549999D02*
X165790000Y-107110004D01*
X126989999Y-86500000D02*
X126940000Y-86549999D01*
X135990001Y-48568000D02*
X137291760Y-48568000D01*
X128200000Y-82600000D02*
X133700000Y-82600000D01*
X128075001Y-86500000D02*
X126989999Y-86500000D01*
X136000000Y-81600000D02*
X134699999Y-81600001D01*
X133700000Y-82600000D02*
X134699999Y-81600001D01*
X161990001Y-109700001D02*
X125700000Y-109700001D01*
X134701758Y-48568000D02*
X135990001Y-48568000D01*
X161890001Y-72024997D02*
X163194999Y-72024997D01*
X163200003Y-109700001D02*
X161990001Y-109700001D01*
%TO.N,R_4*%
X157690001Y-73100000D02*
X157590001Y-73000000D01*
X153811001Y-73000999D02*
X152834999Y-72024997D01*
X122390001Y-50519759D02*
X124341760Y-48568000D01*
X145361267Y-93526001D02*
X124116002Y-93526001D01*
X124350002Y-119600001D02*
X142480002Y-119600001D01*
X156199000Y-93676001D02*
X147061075Y-93676001D01*
X160610000Y-91449998D02*
X158984997Y-93075001D01*
X124520001Y-62649998D02*
X122390001Y-60519998D01*
X159625000Y-124600001D02*
X159500000Y-124475001D01*
X145561267Y-93726001D02*
X145361267Y-93526001D01*
X163200002Y-91449997D02*
X160610000Y-91449998D01*
X125700000Y-62649998D02*
X127109999Y-62649998D01*
X160610003Y-124600001D02*
X159625000Y-124600001D01*
X158690001Y-107219999D02*
X158020001Y-106549999D01*
X123364999Y-80625002D02*
X124339997Y-81599999D01*
X155325998Y-73000999D02*
X153811001Y-73000999D01*
X124116002Y-93526001D02*
X123890001Y-93300000D01*
X147011075Y-93726001D02*
X145561267Y-93726001D01*
X142975000Y-119600001D02*
X143400000Y-119175001D01*
X158690001Y-107585000D02*
X158690001Y-107219999D01*
X122590001Y-79850003D02*
X123364999Y-80625002D01*
X126931759Y-48568000D02*
X124341760Y-48568000D01*
X124339999Y-81600001D02*
X124339997Y-81599999D01*
X155430002Y-106550000D02*
X158020001Y-106549999D01*
X143781002Y-123375001D02*
X158400000Y-123375001D01*
X122590001Y-64579998D02*
X122590001Y-79850003D01*
X134710003Y-119600001D02*
X134710003Y-116359999D01*
X168380002Y-124600001D02*
X160610003Y-124600001D01*
X134700003Y-116349999D02*
X137289998Y-116349999D01*
X155326997Y-73000000D02*
X155325998Y-73000999D01*
X155420001Y-101549999D02*
X158010003Y-101549999D01*
X137289998Y-116349999D02*
X137290000Y-116349997D01*
X157590001Y-73000000D02*
X155326997Y-73000000D01*
X122390001Y-60519998D02*
X122390001Y-50519759D01*
X150245000Y-72024997D02*
X152834999Y-72024997D01*
X158984997Y-93075001D02*
X156800000Y-93075001D01*
X124520001Y-62649998D02*
X125700000Y-62649998D01*
X142480002Y-119600001D02*
X142975000Y-119600001D01*
X147061075Y-93676001D02*
X147011075Y-93726001D01*
X158400000Y-123375001D02*
X159500000Y-124475001D01*
X156800000Y-93075001D02*
X156199000Y-93676001D01*
X126930000Y-81600001D02*
X124339999Y-81600001D01*
X124520001Y-62649998D02*
X122590001Y-64579998D01*
X134710003Y-116359999D02*
X134700003Y-116349999D01*
%TO.N,R_5*%
X158996000Y-53769002D02*
X159540003Y-53224999D01*
X145070005Y-106549999D02*
X145070003Y-106550001D01*
X139834995Y-72075001D02*
X139884999Y-72024997D01*
X133390001Y-129500000D02*
X134740003Y-129500000D01*
X160610001Y-86549999D02*
X159311000Y-87849000D01*
X145080002Y-101549999D02*
X147649999Y-101549999D01*
X142475001Y-72024997D02*
X143450004Y-73000000D01*
X149725003Y-91449998D02*
X150250002Y-91449998D01*
X147649999Y-101549999D02*
X147650001Y-101549997D01*
X139177000Y-69348000D02*
X139226000Y-69299000D01*
X126930002Y-116349998D02*
X128555005Y-117975001D01*
X139884999Y-72024997D02*
X142475001Y-72024997D01*
X139226000Y-69299000D02*
X158596002Y-69299000D01*
X146490001Y-73000000D02*
X146690001Y-72800000D01*
X159075001Y-117400000D02*
X160125002Y-116349999D01*
X159540003Y-53224999D02*
X164250001Y-53225000D01*
X148200000Y-92975001D02*
X149725003Y-91449998D01*
X134740003Y-129500000D02*
X134790000Y-129450003D01*
X160620003Y-67274999D02*
X160620001Y-67275001D01*
X158596002Y-69299000D02*
X160620001Y-67275001D01*
X154790001Y-54399005D02*
X158365997Y-54399005D01*
X164000000Y-68775001D02*
X163210000Y-67985001D01*
D17*
X137390001Y-129440004D02*
X137380002Y-129450003D01*
D15*
X138708669Y-72075001D02*
X139834995Y-72075001D01*
X138390001Y-71756333D02*
X138708669Y-72075001D01*
X143450004Y-73000000D02*
X146490001Y-73000000D01*
X153980003Y-128400000D02*
X152880002Y-129500001D01*
X158564002Y-54201000D02*
X158599266Y-54201000D01*
X146400000Y-106549999D02*
X145070005Y-106549999D01*
X138390001Y-69348000D02*
X139177000Y-69348000D01*
X146700000Y-92975001D02*
X148200000Y-92975001D01*
X152840001Y-91449998D02*
X150250002Y-91449998D01*
X134790000Y-129450003D02*
X152830004Y-129450003D01*
X152830004Y-129450003D02*
X152880002Y-129500001D01*
X134800003Y-126349998D02*
X134800003Y-129440000D01*
X155190001Y-128400000D02*
X153980003Y-128400000D01*
X137390001Y-126349998D02*
X134800003Y-126349998D01*
X164250001Y-53225000D02*
X164300000Y-53175001D01*
X155490001Y-108275001D02*
X149385002Y-108275001D01*
X158599266Y-54201000D02*
X158996000Y-53804266D01*
X124340002Y-116349999D02*
X126930002Y-116349998D01*
X163190002Y-116349999D02*
X160600001Y-116349999D01*
X158365997Y-54399005D02*
X158564002Y-54201000D01*
X158996000Y-53804266D02*
X158996000Y-53769002D01*
X159075001Y-117400000D02*
X155390001Y-117400000D01*
X160125002Y-116349999D02*
X160600001Y-116349999D01*
X163210000Y-67985001D02*
X163210000Y-67274999D01*
X163210000Y-67274999D02*
X160620003Y-67274999D01*
X146839001Y-87849000D02*
X146790001Y-87800000D01*
X159311000Y-87849000D02*
X146839001Y-87849000D01*
X149385002Y-108275001D02*
X147660000Y-106549999D01*
X160610001Y-86549999D02*
X163200000Y-86549999D01*
X147660000Y-106549999D02*
X146400000Y-106549999D01*
X128555005Y-117975001D02*
X130100000Y-117975001D01*
%TO.N,R_6*%
X126590001Y-126349999D02*
X127440000Y-126349999D01*
X164255672Y-121349999D02*
X163190004Y-121349999D01*
D17*
X136000002Y-101549999D02*
X136000000Y-101550001D01*
D15*
X160600003Y-121349999D02*
X160600001Y-121349997D01*
X142480000Y-91449998D02*
X139890001Y-91449998D01*
X129700000Y-68775001D02*
X129877001Y-68598000D01*
X132115000Y-72024997D02*
X132115002Y-72024999D01*
X151700000Y-113400000D02*
X151600000Y-113500000D01*
X126590001Y-126349999D02*
X127029999Y-126349999D01*
X129524999Y-72024997D02*
X132115000Y-72024997D01*
X128900000Y-137600000D02*
X128190001Y-136890001D01*
X150250002Y-86549997D02*
X150250000Y-86549999D01*
X151489997Y-53225000D02*
X151689997Y-53225000D01*
X151500000Y-86549997D02*
X150250002Y-86549997D01*
X165790001Y-113400000D02*
X151700000Y-113400000D01*
X139890002Y-136149999D02*
X138391001Y-137649000D01*
X165790007Y-134400001D02*
X165790005Y-134400003D01*
X152840004Y-126349999D02*
X150250002Y-126349999D01*
X151590001Y-103300000D02*
X150890001Y-102600000D01*
X134720003Y-101550001D02*
X137309998Y-101550001D01*
X163190004Y-121349999D02*
X160600003Y-121349999D01*
X137309998Y-101550001D02*
X137310000Y-101549999D01*
X151600000Y-67275000D02*
X150260002Y-67275001D01*
X147660003Y-136149999D02*
X147660005Y-136150001D01*
X127440000Y-126349999D02*
X128190001Y-127100000D01*
X151790001Y-132592500D02*
X151682501Y-132700000D01*
X150209996Y-53225000D02*
X151489997Y-53225000D01*
X149592001Y-68598000D02*
X150260002Y-67929999D01*
X149324005Y-133820736D02*
X149324005Y-134486001D01*
X138360001Y-102600000D02*
X137310000Y-101549999D01*
X150444741Y-132700000D02*
X149324005Y-133820736D01*
X168380002Y-134400001D02*
X165790007Y-134400001D01*
X129877001Y-68598000D02*
X149592001Y-68598000D01*
X139890002Y-136149999D02*
X147660003Y-136149999D01*
X151689998Y-53224999D02*
X152799996Y-53224999D01*
X127029999Y-126349999D02*
X127030001Y-126349997D01*
X150260002Y-67929999D02*
X150260002Y-67275001D01*
X165990001Y-113200000D02*
X165790001Y-113400000D01*
X152839998Y-86549997D02*
X151500000Y-86549997D01*
X138564998Y-92775001D02*
X137000000Y-92775001D01*
X134710001Y-106549999D02*
X137300000Y-106549999D01*
X152830002Y-116349999D02*
X150240002Y-116349998D01*
X151682501Y-132700000D02*
X150444741Y-132700000D01*
X128900000Y-137649000D02*
X128900000Y-137600000D01*
X165890001Y-122400000D02*
X165305673Y-122400000D01*
X138391001Y-137649000D02*
X128900000Y-137649000D01*
X149324005Y-134486001D02*
X147660005Y-136150001D01*
X150890001Y-102600000D02*
X138360001Y-102600000D01*
X124440002Y-126349999D02*
X126590001Y-126349999D01*
X151689997Y-53225000D02*
X151689998Y-53224999D01*
X165305673Y-122400000D02*
X164255672Y-121349999D01*
X152850002Y-67275000D02*
X151600000Y-67275000D01*
X139890001Y-91449998D02*
X138564998Y-92775001D01*
%TO.N,R_7*%
X133775001Y-87500000D02*
X133875001Y-87600000D01*
X155430004Y-134400003D02*
X155005004Y-134400003D01*
X126980002Y-131175000D02*
X124390004Y-131175000D01*
X123384003Y-105623999D02*
X123384003Y-102526000D01*
X123384003Y-102526000D02*
X124360002Y-101550001D01*
X124360002Y-101550001D02*
X126950002Y-101550000D01*
X123390001Y-135189997D02*
X124350005Y-136150001D01*
X139490001Y-127500000D02*
X139490001Y-126840000D01*
X144416002Y-78626001D02*
X163873997Y-78626001D01*
X150290000Y-121349999D02*
X149240002Y-121349999D01*
X129479998Y-91500000D02*
X129530000Y-91449998D01*
X127984737Y-106549999D02*
X126900001Y-106549999D01*
X138964002Y-133820735D02*
X140184736Y-132600001D01*
X138964002Y-134486003D02*
X138964002Y-133820735D01*
X139900002Y-67275001D02*
X139900000Y-67274999D01*
X149240002Y-121349999D02*
X149090001Y-121500000D01*
X142480003Y-126349999D02*
X142480003Y-127162077D01*
X129934738Y-108500000D02*
X127984737Y-106549999D01*
X123515004Y-130300000D02*
X124390002Y-131174998D01*
X155005004Y-134400003D02*
X153797501Y-133192500D01*
X126950002Y-101550000D02*
X127629745Y-101550000D01*
X142480000Y-86549999D02*
X141200000Y-86549999D01*
X139490001Y-126840000D02*
X139980002Y-126349999D01*
X168389998Y-76699998D02*
X168390000Y-76700000D01*
X126940000Y-136150001D02*
X126940002Y-136149999D01*
X137300004Y-136150001D02*
X138964002Y-134486003D01*
X127629745Y-101550000D02*
X128077938Y-101101807D01*
X143715002Y-77925001D02*
X144416002Y-78626001D01*
X163873997Y-78626001D02*
X165800000Y-76699998D01*
X124390002Y-131174998D02*
X123390001Y-132174999D01*
X138839999Y-87600000D02*
X139890001Y-86549998D01*
X126900001Y-106549999D02*
X124310003Y-106549999D01*
X139980002Y-126349999D02*
X142480003Y-126349999D01*
X132120002Y-91449998D02*
X132825003Y-91449998D01*
X133390001Y-87500000D02*
X133775001Y-87500000D01*
X124310003Y-106549999D02*
X123384003Y-105623999D01*
X141400000Y-77900000D02*
X141425001Y-77925001D01*
X129530000Y-91449998D02*
X132120002Y-91449998D01*
X141200000Y-86549999D02*
X139890001Y-86549998D01*
X140184736Y-132600001D02*
X140360934Y-132600001D01*
X142480003Y-127162077D02*
X143468927Y-128151001D01*
X123290001Y-130300000D02*
X123515004Y-130300000D01*
X133875001Y-87600000D02*
X138839999Y-87600000D01*
X139880003Y-116349999D02*
X142470003Y-116349998D01*
X132825003Y-91449998D02*
X133400000Y-90875001D01*
X141100000Y-53224999D02*
X142992004Y-55117003D01*
X141425001Y-77925001D02*
X143715002Y-77925001D01*
X139440001Y-108500000D02*
X129934738Y-108500000D01*
X128181002Y-91500000D02*
X129479998Y-91500000D01*
X158020004Y-134400002D02*
X158020004Y-133839998D01*
X160610003Y-131249999D02*
X163200003Y-131249998D01*
X124390004Y-131175000D02*
X124390002Y-131174998D01*
X148724000Y-128151001D02*
X149100000Y-127775001D01*
X143468927Y-128151001D02*
X148724000Y-128151001D01*
X141100000Y-77900000D02*
X141400000Y-77900000D01*
X124310003Y-107879998D02*
X124090001Y-108100000D01*
X158020004Y-133839998D02*
X160610003Y-131249999D01*
X123390001Y-132174999D02*
X123390001Y-135189997D01*
X141100000Y-53224999D02*
X142439999Y-53224999D01*
X150290000Y-121349999D02*
X152880002Y-121349999D01*
X124310003Y-106549999D02*
X124310003Y-107879998D01*
X139849997Y-53224999D02*
X141100000Y-53224999D01*
X124350005Y-136150001D02*
X126940000Y-136150001D01*
X134710004Y-136150000D02*
X137300004Y-136150001D01*
X155430004Y-134400003D02*
X158020004Y-134400002D01*
X142992004Y-55117003D02*
X150009112Y-55117003D01*
X165800000Y-76699998D02*
X168389998Y-76699998D01*
X142490000Y-67275001D02*
X141100000Y-67275001D01*
X141100000Y-67275001D02*
X139900002Y-67275001D01*
%TD*%
M02*
