%TF.GenerationSoftware,KiCad,Pcbnew,9.0.3*%
%TF.CreationDate,2025-08-19T23:25:34-04:00*%
%TF.ProjectId,Mess-CharliePlexing2,4d657373-2d43-4686-9172-6c6965506c65,rev?*%
%TF.SameCoordinates,Original*%
%TF.FileFunction,Legend,Bot*%
%TF.FilePolarity,Positive*%
%FSLAX46Y46*%
G04 Gerber Fmt 4.6, Leading zero omitted, Abs format (unit mm)*
G04 Created by KiCad (PCBNEW 9.0.3) date 2025-08-19 23:25:34*
%MOMM*%
%LPD*%
G01*
G04 APERTURE LIST*
%ADD10C,0.150000*%
%ADD11C,0.000000*%
G04 APERTURE END LIST*
D10*
X104355716Y-131751971D02*
X104355716Y-130751971D01*
X103689050Y-130751971D02*
X103498574Y-130751971D01*
X103498574Y-130751971D02*
X103403336Y-130799590D01*
X103403336Y-130799590D02*
X103308098Y-130894828D01*
X103308098Y-130894828D02*
X103260479Y-131085304D01*
X103260479Y-131085304D02*
X103260479Y-131418637D01*
X103260479Y-131418637D02*
X103308098Y-131609113D01*
X103308098Y-131609113D02*
X103403336Y-131704352D01*
X103403336Y-131704352D02*
X103498574Y-131751971D01*
X103498574Y-131751971D02*
X103689050Y-131751971D01*
X103689050Y-131751971D02*
X103784288Y-131704352D01*
X103784288Y-131704352D02*
X103879526Y-131609113D01*
X103879526Y-131609113D02*
X103927145Y-131418637D01*
X103927145Y-131418637D02*
X103927145Y-131085304D01*
X103927145Y-131085304D02*
X103879526Y-130894828D01*
X103879526Y-130894828D02*
X103784288Y-130799590D01*
X103784288Y-130799590D02*
X103689050Y-130751971D01*
X102974764Y-130751971D02*
X102403336Y-130751971D01*
X102689050Y-131751971D02*
X102689050Y-130751971D01*
X102308098Y-131847209D02*
X101546193Y-131847209D01*
X101308097Y-131751971D02*
X101308097Y-130751971D01*
X101308097Y-130751971D02*
X100974764Y-131466256D01*
X100974764Y-131466256D02*
X100641431Y-130751971D01*
X100641431Y-130751971D02*
X100641431Y-131751971D01*
X99784288Y-131704352D02*
X99879526Y-131751971D01*
X99879526Y-131751971D02*
X100070002Y-131751971D01*
X100070002Y-131751971D02*
X100165240Y-131704352D01*
X100165240Y-131704352D02*
X100212859Y-131609113D01*
X100212859Y-131609113D02*
X100212859Y-131228161D01*
X100212859Y-131228161D02*
X100165240Y-131132923D01*
X100165240Y-131132923D02*
X100070002Y-131085304D01*
X100070002Y-131085304D02*
X99879526Y-131085304D01*
X99879526Y-131085304D02*
X99784288Y-131132923D01*
X99784288Y-131132923D02*
X99736669Y-131228161D01*
X99736669Y-131228161D02*
X99736669Y-131323399D01*
X99736669Y-131323399D02*
X100212859Y-131418637D01*
X99355716Y-131704352D02*
X99260478Y-131751971D01*
X99260478Y-131751971D02*
X99070002Y-131751971D01*
X99070002Y-131751971D02*
X98974764Y-131704352D01*
X98974764Y-131704352D02*
X98927145Y-131609113D01*
X98927145Y-131609113D02*
X98927145Y-131561494D01*
X98927145Y-131561494D02*
X98974764Y-131466256D01*
X98974764Y-131466256D02*
X99070002Y-131418637D01*
X99070002Y-131418637D02*
X99212859Y-131418637D01*
X99212859Y-131418637D02*
X99308097Y-131371018D01*
X99308097Y-131371018D02*
X99355716Y-131275780D01*
X99355716Y-131275780D02*
X99355716Y-131228161D01*
X99355716Y-131228161D02*
X99308097Y-131132923D01*
X99308097Y-131132923D02*
X99212859Y-131085304D01*
X99212859Y-131085304D02*
X99070002Y-131085304D01*
X99070002Y-131085304D02*
X98974764Y-131132923D01*
X98546192Y-131704352D02*
X98450954Y-131751971D01*
X98450954Y-131751971D02*
X98260478Y-131751971D01*
X98260478Y-131751971D02*
X98165240Y-131704352D01*
X98165240Y-131704352D02*
X98117621Y-131609113D01*
X98117621Y-131609113D02*
X98117621Y-131561494D01*
X98117621Y-131561494D02*
X98165240Y-131466256D01*
X98165240Y-131466256D02*
X98260478Y-131418637D01*
X98260478Y-131418637D02*
X98403335Y-131418637D01*
X98403335Y-131418637D02*
X98498573Y-131371018D01*
X98498573Y-131371018D02*
X98546192Y-131275780D01*
X98546192Y-131275780D02*
X98546192Y-131228161D01*
X98546192Y-131228161D02*
X98498573Y-131132923D01*
X98498573Y-131132923D02*
X98403335Y-131085304D01*
X98403335Y-131085304D02*
X98260478Y-131085304D01*
X98260478Y-131085304D02*
X98165240Y-131132923D01*
X96355716Y-131656732D02*
X96403335Y-131704352D01*
X96403335Y-131704352D02*
X96546192Y-131751971D01*
X96546192Y-131751971D02*
X96641430Y-131751971D01*
X96641430Y-131751971D02*
X96784287Y-131704352D01*
X96784287Y-131704352D02*
X96879525Y-131609113D01*
X96879525Y-131609113D02*
X96927144Y-131513875D01*
X96927144Y-131513875D02*
X96974763Y-131323399D01*
X96974763Y-131323399D02*
X96974763Y-131180542D01*
X96974763Y-131180542D02*
X96927144Y-130990066D01*
X96927144Y-130990066D02*
X96879525Y-130894828D01*
X96879525Y-130894828D02*
X96784287Y-130799590D01*
X96784287Y-130799590D02*
X96641430Y-130751971D01*
X96641430Y-130751971D02*
X96546192Y-130751971D01*
X96546192Y-130751971D02*
X96403335Y-130799590D01*
X96403335Y-130799590D02*
X96355716Y-130847209D01*
X95927144Y-131751971D02*
X95927144Y-130751971D01*
X95498573Y-131751971D02*
X95498573Y-131228161D01*
X95498573Y-131228161D02*
X95546192Y-131132923D01*
X95546192Y-131132923D02*
X95641430Y-131085304D01*
X95641430Y-131085304D02*
X95784287Y-131085304D01*
X95784287Y-131085304D02*
X95879525Y-131132923D01*
X95879525Y-131132923D02*
X95927144Y-131180542D01*
X94593811Y-131751971D02*
X94593811Y-131228161D01*
X94593811Y-131228161D02*
X94641430Y-131132923D01*
X94641430Y-131132923D02*
X94736668Y-131085304D01*
X94736668Y-131085304D02*
X94927144Y-131085304D01*
X94927144Y-131085304D02*
X95022382Y-131132923D01*
X94593811Y-131704352D02*
X94689049Y-131751971D01*
X94689049Y-131751971D02*
X94927144Y-131751971D01*
X94927144Y-131751971D02*
X95022382Y-131704352D01*
X95022382Y-131704352D02*
X95070001Y-131609113D01*
X95070001Y-131609113D02*
X95070001Y-131513875D01*
X95070001Y-131513875D02*
X95022382Y-131418637D01*
X95022382Y-131418637D02*
X94927144Y-131371018D01*
X94927144Y-131371018D02*
X94689049Y-131371018D01*
X94689049Y-131371018D02*
X94593811Y-131323399D01*
X94117620Y-131751971D02*
X94117620Y-131085304D01*
X94117620Y-131275780D02*
X94070001Y-131180542D01*
X94070001Y-131180542D02*
X94022382Y-131132923D01*
X94022382Y-131132923D02*
X93927144Y-131085304D01*
X93927144Y-131085304D02*
X93831906Y-131085304D01*
X93355715Y-131751971D02*
X93450953Y-131704352D01*
X93450953Y-131704352D02*
X93498572Y-131609113D01*
X93498572Y-131609113D02*
X93498572Y-130751971D01*
X92974762Y-131751971D02*
X92974762Y-131085304D01*
X92974762Y-130751971D02*
X93022381Y-130799590D01*
X93022381Y-130799590D02*
X92974762Y-130847209D01*
X92974762Y-130847209D02*
X92927143Y-130799590D01*
X92927143Y-130799590D02*
X92974762Y-130751971D01*
X92974762Y-130751971D02*
X92974762Y-130847209D01*
X92117620Y-131704352D02*
X92212858Y-131751971D01*
X92212858Y-131751971D02*
X92403334Y-131751971D01*
X92403334Y-131751971D02*
X92498572Y-131704352D01*
X92498572Y-131704352D02*
X92546191Y-131609113D01*
X92546191Y-131609113D02*
X92546191Y-131228161D01*
X92546191Y-131228161D02*
X92498572Y-131132923D01*
X92498572Y-131132923D02*
X92403334Y-131085304D01*
X92403334Y-131085304D02*
X92212858Y-131085304D01*
X92212858Y-131085304D02*
X92117620Y-131132923D01*
X92117620Y-131132923D02*
X92070001Y-131228161D01*
X92070001Y-131228161D02*
X92070001Y-131323399D01*
X92070001Y-131323399D02*
X92546191Y-131418637D01*
X91641429Y-131085304D02*
X91641429Y-132085304D01*
X91641429Y-131132923D02*
X91546191Y-131085304D01*
X91546191Y-131085304D02*
X91355715Y-131085304D01*
X91355715Y-131085304D02*
X91260477Y-131132923D01*
X91260477Y-131132923D02*
X91212858Y-131180542D01*
X91212858Y-131180542D02*
X91165239Y-131275780D01*
X91165239Y-131275780D02*
X91165239Y-131561494D01*
X91165239Y-131561494D02*
X91212858Y-131656732D01*
X91212858Y-131656732D02*
X91260477Y-131704352D01*
X91260477Y-131704352D02*
X91355715Y-131751971D01*
X91355715Y-131751971D02*
X91546191Y-131751971D01*
X91546191Y-131751971D02*
X91641429Y-131704352D01*
X90593810Y-131751971D02*
X90689048Y-131704352D01*
X90689048Y-131704352D02*
X90736667Y-131609113D01*
X90736667Y-131609113D02*
X90736667Y-130751971D01*
X89831905Y-131704352D02*
X89927143Y-131751971D01*
X89927143Y-131751971D02*
X90117619Y-131751971D01*
X90117619Y-131751971D02*
X90212857Y-131704352D01*
X90212857Y-131704352D02*
X90260476Y-131609113D01*
X90260476Y-131609113D02*
X90260476Y-131228161D01*
X90260476Y-131228161D02*
X90212857Y-131132923D01*
X90212857Y-131132923D02*
X90117619Y-131085304D01*
X90117619Y-131085304D02*
X89927143Y-131085304D01*
X89927143Y-131085304D02*
X89831905Y-131132923D01*
X89831905Y-131132923D02*
X89784286Y-131228161D01*
X89784286Y-131228161D02*
X89784286Y-131323399D01*
X89784286Y-131323399D02*
X90260476Y-131418637D01*
X89450952Y-131751971D02*
X88927143Y-131085304D01*
X89450952Y-131085304D02*
X88927143Y-131751971D01*
X88546190Y-131751971D02*
X88546190Y-131085304D01*
X88546190Y-130751971D02*
X88593809Y-130799590D01*
X88593809Y-130799590D02*
X88546190Y-130847209D01*
X88546190Y-130847209D02*
X88498571Y-130799590D01*
X88498571Y-130799590D02*
X88546190Y-130751971D01*
X88546190Y-130751971D02*
X88546190Y-130847209D01*
X88070000Y-131085304D02*
X88070000Y-131751971D01*
X88070000Y-131180542D02*
X88022381Y-131132923D01*
X88022381Y-131132923D02*
X87927143Y-131085304D01*
X87927143Y-131085304D02*
X87784286Y-131085304D01*
X87784286Y-131085304D02*
X87689048Y-131132923D01*
X87689048Y-131132923D02*
X87641429Y-131228161D01*
X87641429Y-131228161D02*
X87641429Y-131751971D01*
X86736667Y-131085304D02*
X86736667Y-131894828D01*
X86736667Y-131894828D02*
X86784286Y-131990066D01*
X86784286Y-131990066D02*
X86831905Y-132037685D01*
X86831905Y-132037685D02*
X86927143Y-132085304D01*
X86927143Y-132085304D02*
X87070000Y-132085304D01*
X87070000Y-132085304D02*
X87165238Y-132037685D01*
X86736667Y-131704352D02*
X86831905Y-131751971D01*
X86831905Y-131751971D02*
X87022381Y-131751971D01*
X87022381Y-131751971D02*
X87117619Y-131704352D01*
X87117619Y-131704352D02*
X87165238Y-131656732D01*
X87165238Y-131656732D02*
X87212857Y-131561494D01*
X87212857Y-131561494D02*
X87212857Y-131275780D01*
X87212857Y-131275780D02*
X87165238Y-131180542D01*
X87165238Y-131180542D02*
X87117619Y-131132923D01*
X87117619Y-131132923D02*
X87022381Y-131085304D01*
X87022381Y-131085304D02*
X86831905Y-131085304D01*
X86831905Y-131085304D02*
X86736667Y-131132923D01*
X86308095Y-130847209D02*
X86260476Y-130799590D01*
X86260476Y-130799590D02*
X86165238Y-130751971D01*
X86165238Y-130751971D02*
X85927143Y-130751971D01*
X85927143Y-130751971D02*
X85831905Y-130799590D01*
X85831905Y-130799590D02*
X85784286Y-130847209D01*
X85784286Y-130847209D02*
X85736667Y-130942447D01*
X85736667Y-130942447D02*
X85736667Y-131037685D01*
X85736667Y-131037685D02*
X85784286Y-131180542D01*
X85784286Y-131180542D02*
X86355714Y-131751971D01*
X86355714Y-131751971D02*
X85736667Y-131751971D01*
X100403334Y-132361915D02*
X100070001Y-133361915D01*
X100070001Y-133361915D02*
X99736668Y-132361915D01*
X99450953Y-132457153D02*
X99403334Y-132409534D01*
X99403334Y-132409534D02*
X99308096Y-132361915D01*
X99308096Y-132361915D02*
X99070001Y-132361915D01*
X99070001Y-132361915D02*
X98974763Y-132409534D01*
X98974763Y-132409534D02*
X98927144Y-132457153D01*
X98927144Y-132457153D02*
X98879525Y-132552391D01*
X98879525Y-132552391D02*
X98879525Y-132647629D01*
X98879525Y-132647629D02*
X98927144Y-132790486D01*
X98927144Y-132790486D02*
X99498572Y-133361915D01*
X99498572Y-133361915D02*
X98879525Y-133361915D01*
X98450953Y-133266676D02*
X98403334Y-133314296D01*
X98403334Y-133314296D02*
X98450953Y-133361915D01*
X98450953Y-133361915D02*
X98498572Y-133314296D01*
X98498572Y-133314296D02*
X98450953Y-133266676D01*
X98450953Y-133266676D02*
X98450953Y-133361915D01*
X97784287Y-132361915D02*
X97689049Y-132361915D01*
X97689049Y-132361915D02*
X97593811Y-132409534D01*
X97593811Y-132409534D02*
X97546192Y-132457153D01*
X97546192Y-132457153D02*
X97498573Y-132552391D01*
X97498573Y-132552391D02*
X97450954Y-132742867D01*
X97450954Y-132742867D02*
X97450954Y-132980962D01*
X97450954Y-132980962D02*
X97498573Y-133171438D01*
X97498573Y-133171438D02*
X97546192Y-133266676D01*
X97546192Y-133266676D02*
X97593811Y-133314296D01*
X97593811Y-133314296D02*
X97689049Y-133361915D01*
X97689049Y-133361915D02*
X97784287Y-133361915D01*
X97784287Y-133361915D02*
X97879525Y-133314296D01*
X97879525Y-133314296D02*
X97927144Y-133266676D01*
X97927144Y-133266676D02*
X97974763Y-133171438D01*
X97974763Y-133171438D02*
X98022382Y-132980962D01*
X98022382Y-132980962D02*
X98022382Y-132742867D01*
X98022382Y-132742867D02*
X97974763Y-132552391D01*
X97974763Y-132552391D02*
X97927144Y-132457153D01*
X97927144Y-132457153D02*
X97879525Y-132409534D01*
X97879525Y-132409534D02*
X97784287Y-132361915D01*
X96117620Y-132790486D02*
X96212858Y-132742867D01*
X96212858Y-132742867D02*
X96260477Y-132695248D01*
X96260477Y-132695248D02*
X96308096Y-132600010D01*
X96308096Y-132600010D02*
X96308096Y-132552391D01*
X96308096Y-132552391D02*
X96260477Y-132457153D01*
X96260477Y-132457153D02*
X96212858Y-132409534D01*
X96212858Y-132409534D02*
X96117620Y-132361915D01*
X96117620Y-132361915D02*
X95927144Y-132361915D01*
X95927144Y-132361915D02*
X95831906Y-132409534D01*
X95831906Y-132409534D02*
X95784287Y-132457153D01*
X95784287Y-132457153D02*
X95736668Y-132552391D01*
X95736668Y-132552391D02*
X95736668Y-132600010D01*
X95736668Y-132600010D02*
X95784287Y-132695248D01*
X95784287Y-132695248D02*
X95831906Y-132742867D01*
X95831906Y-132742867D02*
X95927144Y-132790486D01*
X95927144Y-132790486D02*
X96117620Y-132790486D01*
X96117620Y-132790486D02*
X96212858Y-132838105D01*
X96212858Y-132838105D02*
X96260477Y-132885724D01*
X96260477Y-132885724D02*
X96308096Y-132980962D01*
X96308096Y-132980962D02*
X96308096Y-133171438D01*
X96308096Y-133171438D02*
X96260477Y-133266676D01*
X96260477Y-133266676D02*
X96212858Y-133314296D01*
X96212858Y-133314296D02*
X96117620Y-133361915D01*
X96117620Y-133361915D02*
X95927144Y-133361915D01*
X95927144Y-133361915D02*
X95831906Y-133314296D01*
X95831906Y-133314296D02*
X95784287Y-133266676D01*
X95784287Y-133266676D02*
X95736668Y-133171438D01*
X95736668Y-133171438D02*
X95736668Y-132980962D01*
X95736668Y-132980962D02*
X95784287Y-132885724D01*
X95784287Y-132885724D02*
X95831906Y-132838105D01*
X95831906Y-132838105D02*
X95927144Y-132790486D01*
X94593811Y-132314296D02*
X95450953Y-133600010D01*
X93736668Y-133361915D02*
X94308096Y-133361915D01*
X94022382Y-133361915D02*
X94022382Y-132361915D01*
X94022382Y-132361915D02*
X94117620Y-132504772D01*
X94117620Y-132504772D02*
X94212858Y-132600010D01*
X94212858Y-132600010D02*
X94308096Y-132647629D01*
X93260477Y-133361915D02*
X93070001Y-133361915D01*
X93070001Y-133361915D02*
X92974763Y-133314296D01*
X92974763Y-133314296D02*
X92927144Y-133266676D01*
X92927144Y-133266676D02*
X92831906Y-133123819D01*
X92831906Y-133123819D02*
X92784287Y-132933343D01*
X92784287Y-132933343D02*
X92784287Y-132552391D01*
X92784287Y-132552391D02*
X92831906Y-132457153D01*
X92831906Y-132457153D02*
X92879525Y-132409534D01*
X92879525Y-132409534D02*
X92974763Y-132361915D01*
X92974763Y-132361915D02*
X93165239Y-132361915D01*
X93165239Y-132361915D02*
X93260477Y-132409534D01*
X93260477Y-132409534D02*
X93308096Y-132457153D01*
X93308096Y-132457153D02*
X93355715Y-132552391D01*
X93355715Y-132552391D02*
X93355715Y-132790486D01*
X93355715Y-132790486D02*
X93308096Y-132885724D01*
X93308096Y-132885724D02*
X93260477Y-132933343D01*
X93260477Y-132933343D02*
X93165239Y-132980962D01*
X93165239Y-132980962D02*
X92974763Y-132980962D01*
X92974763Y-132980962D02*
X92879525Y-132933343D01*
X92879525Y-132933343D02*
X92831906Y-132885724D01*
X92831906Y-132885724D02*
X92784287Y-132790486D01*
X91641430Y-132314296D02*
X92498572Y-133600010D01*
X91355715Y-132457153D02*
X91308096Y-132409534D01*
X91308096Y-132409534D02*
X91212858Y-132361915D01*
X91212858Y-132361915D02*
X90974763Y-132361915D01*
X90974763Y-132361915D02*
X90879525Y-132409534D01*
X90879525Y-132409534D02*
X90831906Y-132457153D01*
X90831906Y-132457153D02*
X90784287Y-132552391D01*
X90784287Y-132552391D02*
X90784287Y-132647629D01*
X90784287Y-132647629D02*
X90831906Y-132790486D01*
X90831906Y-132790486D02*
X91403334Y-133361915D01*
X91403334Y-133361915D02*
X90784287Y-133361915D01*
X89879525Y-132361915D02*
X90355715Y-132361915D01*
X90355715Y-132361915D02*
X90403334Y-132838105D01*
X90403334Y-132838105D02*
X90355715Y-132790486D01*
X90355715Y-132790486D02*
X90260477Y-132742867D01*
X90260477Y-132742867D02*
X90022382Y-132742867D01*
X90022382Y-132742867D02*
X89927144Y-132790486D01*
X89927144Y-132790486D02*
X89879525Y-132838105D01*
X89879525Y-132838105D02*
X89831906Y-132933343D01*
X89831906Y-132933343D02*
X89831906Y-133171438D01*
X89831906Y-133171438D02*
X89879525Y-133266676D01*
X89879525Y-133266676D02*
X89927144Y-133314296D01*
X89927144Y-133314296D02*
X90022382Y-133361915D01*
X90022382Y-133361915D02*
X90260477Y-133361915D01*
X90260477Y-133361915D02*
X90355715Y-133314296D01*
X90355715Y-133314296D02*
X90403334Y-133266676D01*
X73649581Y-48633333D02*
X73697201Y-48585714D01*
X73697201Y-48585714D02*
X73744820Y-48442857D01*
X73744820Y-48442857D02*
X73744820Y-48347619D01*
X73744820Y-48347619D02*
X73697201Y-48204762D01*
X73697201Y-48204762D02*
X73601962Y-48109524D01*
X73601962Y-48109524D02*
X73506724Y-48061905D01*
X73506724Y-48061905D02*
X73316248Y-48014286D01*
X73316248Y-48014286D02*
X73173391Y-48014286D01*
X73173391Y-48014286D02*
X72982915Y-48061905D01*
X72982915Y-48061905D02*
X72887677Y-48109524D01*
X72887677Y-48109524D02*
X72792439Y-48204762D01*
X72792439Y-48204762D02*
X72744820Y-48347619D01*
X72744820Y-48347619D02*
X72744820Y-48442857D01*
X72744820Y-48442857D02*
X72792439Y-48585714D01*
X72792439Y-48585714D02*
X72840058Y-48633333D01*
X72744820Y-48966667D02*
X72744820Y-49633333D01*
X72744820Y-49633333D02*
X73744820Y-49204762D01*
X83700381Y-48669798D02*
X83748001Y-48622179D01*
X83748001Y-48622179D02*
X83795620Y-48479322D01*
X83795620Y-48479322D02*
X83795620Y-48384084D01*
X83795620Y-48384084D02*
X83748001Y-48241227D01*
X83748001Y-48241227D02*
X83652762Y-48145989D01*
X83652762Y-48145989D02*
X83557524Y-48098370D01*
X83557524Y-48098370D02*
X83367048Y-48050751D01*
X83367048Y-48050751D02*
X83224191Y-48050751D01*
X83224191Y-48050751D02*
X83033715Y-48098370D01*
X83033715Y-48098370D02*
X82938477Y-48145989D01*
X82938477Y-48145989D02*
X82843239Y-48241227D01*
X82843239Y-48241227D02*
X82795620Y-48384084D01*
X82795620Y-48384084D02*
X82795620Y-48479322D01*
X82795620Y-48479322D02*
X82843239Y-48622179D01*
X82843239Y-48622179D02*
X82890858Y-48669798D01*
X82795620Y-49003132D02*
X82795620Y-49622179D01*
X82795620Y-49622179D02*
X83176572Y-49288846D01*
X83176572Y-49288846D02*
X83176572Y-49431703D01*
X83176572Y-49431703D02*
X83224191Y-49526941D01*
X83224191Y-49526941D02*
X83271810Y-49574560D01*
X83271810Y-49574560D02*
X83367048Y-49622179D01*
X83367048Y-49622179D02*
X83605143Y-49622179D01*
X83605143Y-49622179D02*
X83700381Y-49574560D01*
X83700381Y-49574560D02*
X83748001Y-49526941D01*
X83748001Y-49526941D02*
X83795620Y-49431703D01*
X83795620Y-49431703D02*
X83795620Y-49145989D01*
X83795620Y-49145989D02*
X83748001Y-49050751D01*
X83748001Y-49050751D02*
X83700381Y-49003132D01*
X96555621Y-48574559D02*
X95888954Y-49098368D01*
X95888954Y-48574559D02*
X96555621Y-49098368D01*
X116855619Y-48659798D02*
X116379428Y-48326465D01*
X116855619Y-48088370D02*
X115855619Y-48088370D01*
X115855619Y-48088370D02*
X115855619Y-48469322D01*
X115855619Y-48469322D02*
X115903238Y-48564560D01*
X115903238Y-48564560D02*
X115950857Y-48612179D01*
X115950857Y-48612179D02*
X116046095Y-48659798D01*
X116046095Y-48659798D02*
X116188952Y-48659798D01*
X116188952Y-48659798D02*
X116284190Y-48612179D01*
X116284190Y-48612179D02*
X116331809Y-48564560D01*
X116331809Y-48564560D02*
X116379428Y-48469322D01*
X116379428Y-48469322D02*
X116379428Y-48088370D01*
X116855619Y-49612179D02*
X116855619Y-49040751D01*
X116855619Y-49326465D02*
X115855619Y-49326465D01*
X115855619Y-49326465D02*
X115998476Y-49231227D01*
X115998476Y-49231227D02*
X116093714Y-49135989D01*
X116093714Y-49135989D02*
X116141333Y-49040751D01*
X106695621Y-48669798D02*
X106219430Y-48336465D01*
X106695621Y-48098370D02*
X105695621Y-48098370D01*
X105695621Y-48098370D02*
X105695621Y-48479322D01*
X105695621Y-48479322D02*
X105743240Y-48574560D01*
X105743240Y-48574560D02*
X105790859Y-48622179D01*
X105790859Y-48622179D02*
X105886097Y-48669798D01*
X105886097Y-48669798D02*
X106028954Y-48669798D01*
X106028954Y-48669798D02*
X106124192Y-48622179D01*
X106124192Y-48622179D02*
X106171811Y-48574560D01*
X106171811Y-48574560D02*
X106219430Y-48479322D01*
X106219430Y-48479322D02*
X106219430Y-48098370D01*
X105695621Y-49574560D02*
X105695621Y-49098370D01*
X105695621Y-49098370D02*
X106171811Y-49050751D01*
X106171811Y-49050751D02*
X106124192Y-49098370D01*
X106124192Y-49098370D02*
X106076573Y-49193608D01*
X106076573Y-49193608D02*
X106076573Y-49431703D01*
X106076573Y-49431703D02*
X106124192Y-49526941D01*
X106124192Y-49526941D02*
X106171811Y-49574560D01*
X106171811Y-49574560D02*
X106267049Y-49622179D01*
X106267049Y-49622179D02*
X106505144Y-49622179D01*
X106505144Y-49622179D02*
X106600382Y-49574560D01*
X106600382Y-49574560D02*
X106648002Y-49526941D01*
X106648002Y-49526941D02*
X106695621Y-49431703D01*
X106695621Y-49431703D02*
X106695621Y-49193608D01*
X106695621Y-49193608D02*
X106648002Y-49098370D01*
X106648002Y-49098370D02*
X106600382Y-49050751D01*
X99075621Y-48574559D02*
X98408954Y-49098368D01*
X98408954Y-48574559D02*
X99075621Y-49098368D01*
X86250382Y-48669798D02*
X86298002Y-48622179D01*
X86298002Y-48622179D02*
X86345621Y-48479322D01*
X86345621Y-48479322D02*
X86345621Y-48384084D01*
X86345621Y-48384084D02*
X86298002Y-48241227D01*
X86298002Y-48241227D02*
X86202763Y-48145989D01*
X86202763Y-48145989D02*
X86107525Y-48098370D01*
X86107525Y-48098370D02*
X85917049Y-48050751D01*
X85917049Y-48050751D02*
X85774192Y-48050751D01*
X85774192Y-48050751D02*
X85583716Y-48098370D01*
X85583716Y-48098370D02*
X85488478Y-48145989D01*
X85488478Y-48145989D02*
X85393240Y-48241227D01*
X85393240Y-48241227D02*
X85345621Y-48384084D01*
X85345621Y-48384084D02*
X85345621Y-48479322D01*
X85345621Y-48479322D02*
X85393240Y-48622179D01*
X85393240Y-48622179D02*
X85440859Y-48669798D01*
X85440859Y-49050751D02*
X85393240Y-49098370D01*
X85393240Y-49098370D02*
X85345621Y-49193608D01*
X85345621Y-49193608D02*
X85345621Y-49431703D01*
X85345621Y-49431703D02*
X85393240Y-49526941D01*
X85393240Y-49526941D02*
X85440859Y-49574560D01*
X85440859Y-49574560D02*
X85536097Y-49622179D01*
X85536097Y-49622179D02*
X85631335Y-49622179D01*
X85631335Y-49622179D02*
X85774192Y-49574560D01*
X85774192Y-49574560D02*
X86345621Y-49003132D01*
X86345621Y-49003132D02*
X86345621Y-49622179D01*
X101635620Y-48669798D02*
X101159429Y-48336465D01*
X101635620Y-48098370D02*
X100635620Y-48098370D01*
X100635620Y-48098370D02*
X100635620Y-48479322D01*
X100635620Y-48479322D02*
X100683239Y-48574560D01*
X100683239Y-48574560D02*
X100730858Y-48622179D01*
X100730858Y-48622179D02*
X100826096Y-48669798D01*
X100826096Y-48669798D02*
X100968953Y-48669798D01*
X100968953Y-48669798D02*
X101064191Y-48622179D01*
X101064191Y-48622179D02*
X101111810Y-48574560D01*
X101111810Y-48574560D02*
X101159429Y-48479322D01*
X101159429Y-48479322D02*
X101159429Y-48098370D01*
X100635620Y-49003132D02*
X100635620Y-49669798D01*
X100635620Y-49669798D02*
X101635620Y-49241227D01*
X111735620Y-48659798D02*
X111259429Y-48326465D01*
X111735620Y-48088370D02*
X110735620Y-48088370D01*
X110735620Y-48088370D02*
X110735620Y-48469322D01*
X110735620Y-48469322D02*
X110783239Y-48564560D01*
X110783239Y-48564560D02*
X110830858Y-48612179D01*
X110830858Y-48612179D02*
X110926096Y-48659798D01*
X110926096Y-48659798D02*
X111068953Y-48659798D01*
X111068953Y-48659798D02*
X111164191Y-48612179D01*
X111164191Y-48612179D02*
X111211810Y-48564560D01*
X111211810Y-48564560D02*
X111259429Y-48469322D01*
X111259429Y-48469322D02*
X111259429Y-48088370D01*
X110735620Y-48993132D02*
X110735620Y-49612179D01*
X110735620Y-49612179D02*
X111116572Y-49278846D01*
X111116572Y-49278846D02*
X111116572Y-49421703D01*
X111116572Y-49421703D02*
X111164191Y-49516941D01*
X111164191Y-49516941D02*
X111211810Y-49564560D01*
X111211810Y-49564560D02*
X111307048Y-49612179D01*
X111307048Y-49612179D02*
X111545143Y-49612179D01*
X111545143Y-49612179D02*
X111640381Y-49564560D01*
X111640381Y-49564560D02*
X111688001Y-49516941D01*
X111688001Y-49516941D02*
X111735620Y-49421703D01*
X111735620Y-49421703D02*
X111735620Y-49135989D01*
X111735620Y-49135989D02*
X111688001Y-49040751D01*
X111688001Y-49040751D02*
X111640381Y-48993132D01*
X76110382Y-48669797D02*
X76158002Y-48622178D01*
X76158002Y-48622178D02*
X76205621Y-48479321D01*
X76205621Y-48479321D02*
X76205621Y-48384083D01*
X76205621Y-48384083D02*
X76158002Y-48241226D01*
X76158002Y-48241226D02*
X76062763Y-48145988D01*
X76062763Y-48145988D02*
X75967525Y-48098369D01*
X75967525Y-48098369D02*
X75777049Y-48050750D01*
X75777049Y-48050750D02*
X75634192Y-48050750D01*
X75634192Y-48050750D02*
X75443716Y-48098369D01*
X75443716Y-48098369D02*
X75348478Y-48145988D01*
X75348478Y-48145988D02*
X75253240Y-48241226D01*
X75253240Y-48241226D02*
X75205621Y-48384083D01*
X75205621Y-48384083D02*
X75205621Y-48479321D01*
X75205621Y-48479321D02*
X75253240Y-48622178D01*
X75253240Y-48622178D02*
X75300859Y-48669797D01*
X75205621Y-49526940D02*
X75205621Y-49336464D01*
X75205621Y-49336464D02*
X75253240Y-49241226D01*
X75253240Y-49241226D02*
X75300859Y-49193607D01*
X75300859Y-49193607D02*
X75443716Y-49098369D01*
X75443716Y-49098369D02*
X75634192Y-49050750D01*
X75634192Y-49050750D02*
X76015144Y-49050750D01*
X76015144Y-49050750D02*
X76110382Y-49098369D01*
X76110382Y-49098369D02*
X76158002Y-49145988D01*
X76158002Y-49145988D02*
X76205621Y-49241226D01*
X76205621Y-49241226D02*
X76205621Y-49431702D01*
X76205621Y-49431702D02*
X76158002Y-49526940D01*
X76158002Y-49526940D02*
X76110382Y-49574559D01*
X76110382Y-49574559D02*
X76015144Y-49622178D01*
X76015144Y-49622178D02*
X75777049Y-49622178D01*
X75777049Y-49622178D02*
X75681811Y-49574559D01*
X75681811Y-49574559D02*
X75634192Y-49526940D01*
X75634192Y-49526940D02*
X75586573Y-49431702D01*
X75586573Y-49431702D02*
X75586573Y-49241226D01*
X75586573Y-49241226D02*
X75634192Y-49145988D01*
X75634192Y-49145988D02*
X75681811Y-49098369D01*
X75681811Y-49098369D02*
X75777049Y-49050750D01*
X78610382Y-48669797D02*
X78658002Y-48622178D01*
X78658002Y-48622178D02*
X78705621Y-48479321D01*
X78705621Y-48479321D02*
X78705621Y-48384083D01*
X78705621Y-48384083D02*
X78658002Y-48241226D01*
X78658002Y-48241226D02*
X78562763Y-48145988D01*
X78562763Y-48145988D02*
X78467525Y-48098369D01*
X78467525Y-48098369D02*
X78277049Y-48050750D01*
X78277049Y-48050750D02*
X78134192Y-48050750D01*
X78134192Y-48050750D02*
X77943716Y-48098369D01*
X77943716Y-48098369D02*
X77848478Y-48145988D01*
X77848478Y-48145988D02*
X77753240Y-48241226D01*
X77753240Y-48241226D02*
X77705621Y-48384083D01*
X77705621Y-48384083D02*
X77705621Y-48479321D01*
X77705621Y-48479321D02*
X77753240Y-48622178D01*
X77753240Y-48622178D02*
X77800859Y-48669797D01*
X77705621Y-49574559D02*
X77705621Y-49098369D01*
X77705621Y-49098369D02*
X78181811Y-49050750D01*
X78181811Y-49050750D02*
X78134192Y-49098369D01*
X78134192Y-49098369D02*
X78086573Y-49193607D01*
X78086573Y-49193607D02*
X78086573Y-49431702D01*
X78086573Y-49431702D02*
X78134192Y-49526940D01*
X78134192Y-49526940D02*
X78181811Y-49574559D01*
X78181811Y-49574559D02*
X78277049Y-49622178D01*
X78277049Y-49622178D02*
X78515144Y-49622178D01*
X78515144Y-49622178D02*
X78610382Y-49574559D01*
X78610382Y-49574559D02*
X78658002Y-49526940D01*
X78658002Y-49526940D02*
X78705621Y-49431702D01*
X78705621Y-49431702D02*
X78705621Y-49193607D01*
X78705621Y-49193607D02*
X78658002Y-49098369D01*
X78658002Y-49098369D02*
X78610382Y-49050750D01*
X114365621Y-48669798D02*
X113889430Y-48336465D01*
X114365621Y-48098370D02*
X113365621Y-48098370D01*
X113365621Y-48098370D02*
X113365621Y-48479322D01*
X113365621Y-48479322D02*
X113413240Y-48574560D01*
X113413240Y-48574560D02*
X113460859Y-48622179D01*
X113460859Y-48622179D02*
X113556097Y-48669798D01*
X113556097Y-48669798D02*
X113698954Y-48669798D01*
X113698954Y-48669798D02*
X113794192Y-48622179D01*
X113794192Y-48622179D02*
X113841811Y-48574560D01*
X113841811Y-48574560D02*
X113889430Y-48479322D01*
X113889430Y-48479322D02*
X113889430Y-48098370D01*
X113460859Y-49050751D02*
X113413240Y-49098370D01*
X113413240Y-49098370D02*
X113365621Y-49193608D01*
X113365621Y-49193608D02*
X113365621Y-49431703D01*
X113365621Y-49431703D02*
X113413240Y-49526941D01*
X113413240Y-49526941D02*
X113460859Y-49574560D01*
X113460859Y-49574560D02*
X113556097Y-49622179D01*
X113556097Y-49622179D02*
X113651335Y-49622179D01*
X113651335Y-49622179D02*
X113794192Y-49574560D01*
X113794192Y-49574560D02*
X114365621Y-49003132D01*
X114365621Y-49003132D02*
X114365621Y-49622179D01*
X109185619Y-48659798D02*
X108709428Y-48326465D01*
X109185619Y-48088370D02*
X108185619Y-48088370D01*
X108185619Y-48088370D02*
X108185619Y-48469322D01*
X108185619Y-48469322D02*
X108233238Y-48564560D01*
X108233238Y-48564560D02*
X108280857Y-48612179D01*
X108280857Y-48612179D02*
X108376095Y-48659798D01*
X108376095Y-48659798D02*
X108518952Y-48659798D01*
X108518952Y-48659798D02*
X108614190Y-48612179D01*
X108614190Y-48612179D02*
X108661809Y-48564560D01*
X108661809Y-48564560D02*
X108709428Y-48469322D01*
X108709428Y-48469322D02*
X108709428Y-48088370D01*
X108518952Y-49516941D02*
X109185619Y-49516941D01*
X108138000Y-49278846D02*
X108852285Y-49040751D01*
X108852285Y-49040751D02*
X108852285Y-49659798D01*
X119405620Y-48659798D02*
X118929429Y-48326465D01*
X119405620Y-48088370D02*
X118405620Y-48088370D01*
X118405620Y-48088370D02*
X118405620Y-48469322D01*
X118405620Y-48469322D02*
X118453239Y-48564560D01*
X118453239Y-48564560D02*
X118500858Y-48612179D01*
X118500858Y-48612179D02*
X118596096Y-48659798D01*
X118596096Y-48659798D02*
X118738953Y-48659798D01*
X118738953Y-48659798D02*
X118834191Y-48612179D01*
X118834191Y-48612179D02*
X118881810Y-48564560D01*
X118881810Y-48564560D02*
X118929429Y-48469322D01*
X118929429Y-48469322D02*
X118929429Y-48088370D01*
X118405620Y-49278846D02*
X118405620Y-49374084D01*
X118405620Y-49374084D02*
X118453239Y-49469322D01*
X118453239Y-49469322D02*
X118500858Y-49516941D01*
X118500858Y-49516941D02*
X118596096Y-49564560D01*
X118596096Y-49564560D02*
X118786572Y-49612179D01*
X118786572Y-49612179D02*
X119024667Y-49612179D01*
X119024667Y-49612179D02*
X119215143Y-49564560D01*
X119215143Y-49564560D02*
X119310381Y-49516941D01*
X119310381Y-49516941D02*
X119358001Y-49469322D01*
X119358001Y-49469322D02*
X119405620Y-49374084D01*
X119405620Y-49374084D02*
X119405620Y-49278846D01*
X119405620Y-49278846D02*
X119358001Y-49183608D01*
X119358001Y-49183608D02*
X119310381Y-49135989D01*
X119310381Y-49135989D02*
X119215143Y-49088370D01*
X119215143Y-49088370D02*
X119024667Y-49040751D01*
X119024667Y-49040751D02*
X118786572Y-49040751D01*
X118786572Y-49040751D02*
X118596096Y-49088370D01*
X118596096Y-49088370D02*
X118500858Y-49135989D01*
X118500858Y-49135989D02*
X118453239Y-49183608D01*
X118453239Y-49183608D02*
X118405620Y-49278846D01*
X93985620Y-48574560D02*
X93318953Y-49098369D01*
X93318953Y-48574560D02*
X93985620Y-49098369D01*
X81190381Y-48669798D02*
X81238001Y-48622179D01*
X81238001Y-48622179D02*
X81285620Y-48479322D01*
X81285620Y-48479322D02*
X81285620Y-48384084D01*
X81285620Y-48384084D02*
X81238001Y-48241227D01*
X81238001Y-48241227D02*
X81142762Y-48145989D01*
X81142762Y-48145989D02*
X81047524Y-48098370D01*
X81047524Y-48098370D02*
X80857048Y-48050751D01*
X80857048Y-48050751D02*
X80714191Y-48050751D01*
X80714191Y-48050751D02*
X80523715Y-48098370D01*
X80523715Y-48098370D02*
X80428477Y-48145989D01*
X80428477Y-48145989D02*
X80333239Y-48241227D01*
X80333239Y-48241227D02*
X80285620Y-48384084D01*
X80285620Y-48384084D02*
X80285620Y-48479322D01*
X80285620Y-48479322D02*
X80333239Y-48622179D01*
X80333239Y-48622179D02*
X80380858Y-48669798D01*
X80618953Y-49526941D02*
X81285620Y-49526941D01*
X80238001Y-49288846D02*
X80952286Y-49050751D01*
X80952286Y-49050751D02*
X80952286Y-49669798D01*
X104145620Y-48669798D02*
X103669429Y-48336465D01*
X104145620Y-48098370D02*
X103145620Y-48098370D01*
X103145620Y-48098370D02*
X103145620Y-48479322D01*
X103145620Y-48479322D02*
X103193239Y-48574560D01*
X103193239Y-48574560D02*
X103240858Y-48622179D01*
X103240858Y-48622179D02*
X103336096Y-48669798D01*
X103336096Y-48669798D02*
X103478953Y-48669798D01*
X103478953Y-48669798D02*
X103574191Y-48622179D01*
X103574191Y-48622179D02*
X103621810Y-48574560D01*
X103621810Y-48574560D02*
X103669429Y-48479322D01*
X103669429Y-48479322D02*
X103669429Y-48098370D01*
X103145620Y-49526941D02*
X103145620Y-49336465D01*
X103145620Y-49336465D02*
X103193239Y-49241227D01*
X103193239Y-49241227D02*
X103240858Y-49193608D01*
X103240858Y-49193608D02*
X103383715Y-49098370D01*
X103383715Y-49098370D02*
X103574191Y-49050751D01*
X103574191Y-49050751D02*
X103955143Y-49050751D01*
X103955143Y-49050751D02*
X104050381Y-49098370D01*
X104050381Y-49098370D02*
X104098001Y-49145989D01*
X104098001Y-49145989D02*
X104145620Y-49241227D01*
X104145620Y-49241227D02*
X104145620Y-49431703D01*
X104145620Y-49431703D02*
X104098001Y-49526941D01*
X104098001Y-49526941D02*
X104050381Y-49574560D01*
X104050381Y-49574560D02*
X103955143Y-49622179D01*
X103955143Y-49622179D02*
X103717048Y-49622179D01*
X103717048Y-49622179D02*
X103621810Y-49574560D01*
X103621810Y-49574560D02*
X103574191Y-49526941D01*
X103574191Y-49526941D02*
X103526572Y-49431703D01*
X103526572Y-49431703D02*
X103526572Y-49241227D01*
X103526572Y-49241227D02*
X103574191Y-49145989D01*
X103574191Y-49145989D02*
X103621810Y-49098370D01*
X103621810Y-49098370D02*
X103717048Y-49050751D01*
X91290381Y-48659798D02*
X91338001Y-48612179D01*
X91338001Y-48612179D02*
X91385620Y-48469322D01*
X91385620Y-48469322D02*
X91385620Y-48374084D01*
X91385620Y-48374084D02*
X91338001Y-48231227D01*
X91338001Y-48231227D02*
X91242762Y-48135989D01*
X91242762Y-48135989D02*
X91147524Y-48088370D01*
X91147524Y-48088370D02*
X90957048Y-48040751D01*
X90957048Y-48040751D02*
X90814191Y-48040751D01*
X90814191Y-48040751D02*
X90623715Y-48088370D01*
X90623715Y-48088370D02*
X90528477Y-48135989D01*
X90528477Y-48135989D02*
X90433239Y-48231227D01*
X90433239Y-48231227D02*
X90385620Y-48374084D01*
X90385620Y-48374084D02*
X90385620Y-48469322D01*
X90385620Y-48469322D02*
X90433239Y-48612179D01*
X90433239Y-48612179D02*
X90480858Y-48659798D01*
X90385620Y-49278846D02*
X90385620Y-49374084D01*
X90385620Y-49374084D02*
X90433239Y-49469322D01*
X90433239Y-49469322D02*
X90480858Y-49516941D01*
X90480858Y-49516941D02*
X90576096Y-49564560D01*
X90576096Y-49564560D02*
X90766572Y-49612179D01*
X90766572Y-49612179D02*
X91004667Y-49612179D01*
X91004667Y-49612179D02*
X91195143Y-49564560D01*
X91195143Y-49564560D02*
X91290381Y-49516941D01*
X91290381Y-49516941D02*
X91338001Y-49469322D01*
X91338001Y-49469322D02*
X91385620Y-49374084D01*
X91385620Y-49374084D02*
X91385620Y-49278846D01*
X91385620Y-49278846D02*
X91338001Y-49183608D01*
X91338001Y-49183608D02*
X91290381Y-49135989D01*
X91290381Y-49135989D02*
X91195143Y-49088370D01*
X91195143Y-49088370D02*
X91004667Y-49040751D01*
X91004667Y-49040751D02*
X90766572Y-49040751D01*
X90766572Y-49040751D02*
X90576096Y-49088370D01*
X90576096Y-49088370D02*
X90480858Y-49135989D01*
X90480858Y-49135989D02*
X90433239Y-49183608D01*
X90433239Y-49183608D02*
X90385620Y-49278846D01*
X88740380Y-48659798D02*
X88788000Y-48612179D01*
X88788000Y-48612179D02*
X88835619Y-48469322D01*
X88835619Y-48469322D02*
X88835619Y-48374084D01*
X88835619Y-48374084D02*
X88788000Y-48231227D01*
X88788000Y-48231227D02*
X88692761Y-48135989D01*
X88692761Y-48135989D02*
X88597523Y-48088370D01*
X88597523Y-48088370D02*
X88407047Y-48040751D01*
X88407047Y-48040751D02*
X88264190Y-48040751D01*
X88264190Y-48040751D02*
X88073714Y-48088370D01*
X88073714Y-48088370D02*
X87978476Y-48135989D01*
X87978476Y-48135989D02*
X87883238Y-48231227D01*
X87883238Y-48231227D02*
X87835619Y-48374084D01*
X87835619Y-48374084D02*
X87835619Y-48469322D01*
X87835619Y-48469322D02*
X87883238Y-48612179D01*
X87883238Y-48612179D02*
X87930857Y-48659798D01*
X88835619Y-49612179D02*
X88835619Y-49040751D01*
X88835619Y-49326465D02*
X87835619Y-49326465D01*
X87835619Y-49326465D02*
X87978476Y-49231227D01*
X87978476Y-49231227D02*
X88073714Y-49135989D01*
X88073714Y-49135989D02*
X88121333Y-49040751D01*
X76049582Y-46143332D02*
X76097202Y-46095713D01*
X76097202Y-46095713D02*
X76144821Y-45952856D01*
X76144821Y-45952856D02*
X76144821Y-45857618D01*
X76144821Y-45857618D02*
X76097202Y-45714761D01*
X76097202Y-45714761D02*
X76001963Y-45619523D01*
X76001963Y-45619523D02*
X75906725Y-45571904D01*
X75906725Y-45571904D02*
X75716249Y-45524285D01*
X75716249Y-45524285D02*
X75573392Y-45524285D01*
X75573392Y-45524285D02*
X75382916Y-45571904D01*
X75382916Y-45571904D02*
X75287678Y-45619523D01*
X75287678Y-45619523D02*
X75192440Y-45714761D01*
X75192440Y-45714761D02*
X75144821Y-45857618D01*
X75144821Y-45857618D02*
X75144821Y-45952856D01*
X75144821Y-45952856D02*
X75192440Y-46095713D01*
X75192440Y-46095713D02*
X75240059Y-46143332D01*
X75144821Y-47000475D02*
X75144821Y-46809999D01*
X75144821Y-46809999D02*
X75192440Y-46714761D01*
X75192440Y-46714761D02*
X75240059Y-46667142D01*
X75240059Y-46667142D02*
X75382916Y-46571904D01*
X75382916Y-46571904D02*
X75573392Y-46524285D01*
X75573392Y-46524285D02*
X75954344Y-46524285D01*
X75954344Y-46524285D02*
X76049582Y-46571904D01*
X76049582Y-46571904D02*
X76097202Y-46619523D01*
X76097202Y-46619523D02*
X76144821Y-46714761D01*
X76144821Y-46714761D02*
X76144821Y-46905237D01*
X76144821Y-46905237D02*
X76097202Y-47000475D01*
X76097202Y-47000475D02*
X76049582Y-47048094D01*
X76049582Y-47048094D02*
X75954344Y-47095713D01*
X75954344Y-47095713D02*
X75716249Y-47095713D01*
X75716249Y-47095713D02*
X75621011Y-47048094D01*
X75621011Y-47048094D02*
X75573392Y-47000475D01*
X75573392Y-47000475D02*
X75525773Y-46905237D01*
X75525773Y-46905237D02*
X75525773Y-46714761D01*
X75525773Y-46714761D02*
X75573392Y-46619523D01*
X75573392Y-46619523D02*
X75621011Y-46571904D01*
X75621011Y-46571904D02*
X75716249Y-46524285D01*
X93924820Y-46048095D02*
X93258153Y-46571904D01*
X93258153Y-46048095D02*
X93924820Y-46571904D01*
X101289105Y-45595714D02*
X101289105Y-46071904D01*
X101574820Y-45500476D02*
X100574820Y-45833809D01*
X100574820Y-45833809D02*
X101574820Y-46167142D01*
X100574820Y-46405238D02*
X100574820Y-47071904D01*
X100574820Y-47071904D02*
X101574820Y-46643333D01*
X108839104Y-45585714D02*
X108839104Y-46061904D01*
X109124819Y-45490476D02*
X108124819Y-45823809D01*
X108124819Y-45823809D02*
X109124819Y-46157142D01*
X108458152Y-46919047D02*
X109124819Y-46919047D01*
X108077200Y-46680952D02*
X108791485Y-46442857D01*
X108791485Y-46442857D02*
X108791485Y-47061904D01*
X78549582Y-46143332D02*
X78597202Y-46095713D01*
X78597202Y-46095713D02*
X78644821Y-45952856D01*
X78644821Y-45952856D02*
X78644821Y-45857618D01*
X78644821Y-45857618D02*
X78597202Y-45714761D01*
X78597202Y-45714761D02*
X78501963Y-45619523D01*
X78501963Y-45619523D02*
X78406725Y-45571904D01*
X78406725Y-45571904D02*
X78216249Y-45524285D01*
X78216249Y-45524285D02*
X78073392Y-45524285D01*
X78073392Y-45524285D02*
X77882916Y-45571904D01*
X77882916Y-45571904D02*
X77787678Y-45619523D01*
X77787678Y-45619523D02*
X77692440Y-45714761D01*
X77692440Y-45714761D02*
X77644821Y-45857618D01*
X77644821Y-45857618D02*
X77644821Y-45952856D01*
X77644821Y-45952856D02*
X77692440Y-46095713D01*
X77692440Y-46095713D02*
X77740059Y-46143332D01*
X77644821Y-47048094D02*
X77644821Y-46571904D01*
X77644821Y-46571904D02*
X78121011Y-46524285D01*
X78121011Y-46524285D02*
X78073392Y-46571904D01*
X78073392Y-46571904D02*
X78025773Y-46667142D01*
X78025773Y-46667142D02*
X78025773Y-46905237D01*
X78025773Y-46905237D02*
X78073392Y-47000475D01*
X78073392Y-47000475D02*
X78121011Y-47048094D01*
X78121011Y-47048094D02*
X78216249Y-47095713D01*
X78216249Y-47095713D02*
X78454344Y-47095713D01*
X78454344Y-47095713D02*
X78549582Y-47048094D01*
X78549582Y-47048094D02*
X78597202Y-47000475D01*
X78597202Y-47000475D02*
X78644821Y-46905237D01*
X78644821Y-46905237D02*
X78644821Y-46667142D01*
X78644821Y-46667142D02*
X78597202Y-46571904D01*
X78597202Y-46571904D02*
X78549582Y-46524285D01*
X81129581Y-46143333D02*
X81177201Y-46095714D01*
X81177201Y-46095714D02*
X81224820Y-45952857D01*
X81224820Y-45952857D02*
X81224820Y-45857619D01*
X81224820Y-45857619D02*
X81177201Y-45714762D01*
X81177201Y-45714762D02*
X81081962Y-45619524D01*
X81081962Y-45619524D02*
X80986724Y-45571905D01*
X80986724Y-45571905D02*
X80796248Y-45524286D01*
X80796248Y-45524286D02*
X80653391Y-45524286D01*
X80653391Y-45524286D02*
X80462915Y-45571905D01*
X80462915Y-45571905D02*
X80367677Y-45619524D01*
X80367677Y-45619524D02*
X80272439Y-45714762D01*
X80272439Y-45714762D02*
X80224820Y-45857619D01*
X80224820Y-45857619D02*
X80224820Y-45952857D01*
X80224820Y-45952857D02*
X80272439Y-46095714D01*
X80272439Y-46095714D02*
X80320058Y-46143333D01*
X80558153Y-47000476D02*
X81224820Y-47000476D01*
X80177201Y-46762381D02*
X80891486Y-46524286D01*
X80891486Y-46524286D02*
X80891486Y-47143333D01*
X83639581Y-46143333D02*
X83687201Y-46095714D01*
X83687201Y-46095714D02*
X83734820Y-45952857D01*
X83734820Y-45952857D02*
X83734820Y-45857619D01*
X83734820Y-45857619D02*
X83687201Y-45714762D01*
X83687201Y-45714762D02*
X83591962Y-45619524D01*
X83591962Y-45619524D02*
X83496724Y-45571905D01*
X83496724Y-45571905D02*
X83306248Y-45524286D01*
X83306248Y-45524286D02*
X83163391Y-45524286D01*
X83163391Y-45524286D02*
X82972915Y-45571905D01*
X82972915Y-45571905D02*
X82877677Y-45619524D01*
X82877677Y-45619524D02*
X82782439Y-45714762D01*
X82782439Y-45714762D02*
X82734820Y-45857619D01*
X82734820Y-45857619D02*
X82734820Y-45952857D01*
X82734820Y-45952857D02*
X82782439Y-46095714D01*
X82782439Y-46095714D02*
X82830058Y-46143333D01*
X82734820Y-46476667D02*
X82734820Y-47095714D01*
X82734820Y-47095714D02*
X83115772Y-46762381D01*
X83115772Y-46762381D02*
X83115772Y-46905238D01*
X83115772Y-46905238D02*
X83163391Y-47000476D01*
X83163391Y-47000476D02*
X83211010Y-47048095D01*
X83211010Y-47048095D02*
X83306248Y-47095714D01*
X83306248Y-47095714D02*
X83544343Y-47095714D01*
X83544343Y-47095714D02*
X83639581Y-47048095D01*
X83639581Y-47048095D02*
X83687201Y-47000476D01*
X83687201Y-47000476D02*
X83734820Y-46905238D01*
X83734820Y-46905238D02*
X83734820Y-46619524D01*
X83734820Y-46619524D02*
X83687201Y-46524286D01*
X83687201Y-46524286D02*
X83639581Y-46476667D01*
X111389105Y-45585714D02*
X111389105Y-46061904D01*
X111674820Y-45490476D02*
X110674820Y-45823809D01*
X110674820Y-45823809D02*
X111674820Y-46157142D01*
X110674820Y-46395238D02*
X110674820Y-47014285D01*
X110674820Y-47014285D02*
X111055772Y-46680952D01*
X111055772Y-46680952D02*
X111055772Y-46823809D01*
X111055772Y-46823809D02*
X111103391Y-46919047D01*
X111103391Y-46919047D02*
X111151010Y-46966666D01*
X111151010Y-46966666D02*
X111246248Y-47014285D01*
X111246248Y-47014285D02*
X111484343Y-47014285D01*
X111484343Y-47014285D02*
X111579581Y-46966666D01*
X111579581Y-46966666D02*
X111627201Y-46919047D01*
X111627201Y-46919047D02*
X111674820Y-46823809D01*
X111674820Y-46823809D02*
X111674820Y-46538095D01*
X111674820Y-46538095D02*
X111627201Y-46442857D01*
X111627201Y-46442857D02*
X111579581Y-46395238D01*
X116509104Y-45585714D02*
X116509104Y-46061904D01*
X116794819Y-45490476D02*
X115794819Y-45823809D01*
X115794819Y-45823809D02*
X116794819Y-46157142D01*
X116794819Y-47014285D02*
X116794819Y-46442857D01*
X116794819Y-46728571D02*
X115794819Y-46728571D01*
X115794819Y-46728571D02*
X115937676Y-46633333D01*
X115937676Y-46633333D02*
X116032914Y-46538095D01*
X116032914Y-46538095D02*
X116080533Y-46442857D01*
X103799105Y-45595714D02*
X103799105Y-46071904D01*
X104084820Y-45500476D02*
X103084820Y-45833809D01*
X103084820Y-45833809D02*
X104084820Y-46167142D01*
X103084820Y-46929047D02*
X103084820Y-46738571D01*
X103084820Y-46738571D02*
X103132439Y-46643333D01*
X103132439Y-46643333D02*
X103180058Y-46595714D01*
X103180058Y-46595714D02*
X103322915Y-46500476D01*
X103322915Y-46500476D02*
X103513391Y-46452857D01*
X103513391Y-46452857D02*
X103894343Y-46452857D01*
X103894343Y-46452857D02*
X103989581Y-46500476D01*
X103989581Y-46500476D02*
X104037201Y-46548095D01*
X104037201Y-46548095D02*
X104084820Y-46643333D01*
X104084820Y-46643333D02*
X104084820Y-46833809D01*
X104084820Y-46833809D02*
X104037201Y-46929047D01*
X104037201Y-46929047D02*
X103989581Y-46976666D01*
X103989581Y-46976666D02*
X103894343Y-47024285D01*
X103894343Y-47024285D02*
X103656248Y-47024285D01*
X103656248Y-47024285D02*
X103561010Y-46976666D01*
X103561010Y-46976666D02*
X103513391Y-46929047D01*
X103513391Y-46929047D02*
X103465772Y-46833809D01*
X103465772Y-46833809D02*
X103465772Y-46643333D01*
X103465772Y-46643333D02*
X103513391Y-46548095D01*
X103513391Y-46548095D02*
X103561010Y-46500476D01*
X103561010Y-46500476D02*
X103656248Y-46452857D01*
X119059105Y-45585714D02*
X119059105Y-46061904D01*
X119344820Y-45490476D02*
X118344820Y-45823809D01*
X118344820Y-45823809D02*
X119344820Y-46157142D01*
X118344820Y-46680952D02*
X118344820Y-46776190D01*
X118344820Y-46776190D02*
X118392439Y-46871428D01*
X118392439Y-46871428D02*
X118440058Y-46919047D01*
X118440058Y-46919047D02*
X118535296Y-46966666D01*
X118535296Y-46966666D02*
X118725772Y-47014285D01*
X118725772Y-47014285D02*
X118963867Y-47014285D01*
X118963867Y-47014285D02*
X119154343Y-46966666D01*
X119154343Y-46966666D02*
X119249581Y-46919047D01*
X119249581Y-46919047D02*
X119297201Y-46871428D01*
X119297201Y-46871428D02*
X119344820Y-46776190D01*
X119344820Y-46776190D02*
X119344820Y-46680952D01*
X119344820Y-46680952D02*
X119297201Y-46585714D01*
X119297201Y-46585714D02*
X119249581Y-46538095D01*
X119249581Y-46538095D02*
X119154343Y-46490476D01*
X119154343Y-46490476D02*
X118963867Y-46442857D01*
X118963867Y-46442857D02*
X118725772Y-46442857D01*
X118725772Y-46442857D02*
X118535296Y-46490476D01*
X118535296Y-46490476D02*
X118440058Y-46538095D01*
X118440058Y-46538095D02*
X118392439Y-46585714D01*
X118392439Y-46585714D02*
X118344820Y-46680952D01*
X91229581Y-46133333D02*
X91277201Y-46085714D01*
X91277201Y-46085714D02*
X91324820Y-45942857D01*
X91324820Y-45942857D02*
X91324820Y-45847619D01*
X91324820Y-45847619D02*
X91277201Y-45704762D01*
X91277201Y-45704762D02*
X91181962Y-45609524D01*
X91181962Y-45609524D02*
X91086724Y-45561905D01*
X91086724Y-45561905D02*
X90896248Y-45514286D01*
X90896248Y-45514286D02*
X90753391Y-45514286D01*
X90753391Y-45514286D02*
X90562915Y-45561905D01*
X90562915Y-45561905D02*
X90467677Y-45609524D01*
X90467677Y-45609524D02*
X90372439Y-45704762D01*
X90372439Y-45704762D02*
X90324820Y-45847619D01*
X90324820Y-45847619D02*
X90324820Y-45942857D01*
X90324820Y-45942857D02*
X90372439Y-46085714D01*
X90372439Y-46085714D02*
X90420058Y-46133333D01*
X90324820Y-46752381D02*
X90324820Y-46847619D01*
X90324820Y-46847619D02*
X90372439Y-46942857D01*
X90372439Y-46942857D02*
X90420058Y-46990476D01*
X90420058Y-46990476D02*
X90515296Y-47038095D01*
X90515296Y-47038095D02*
X90705772Y-47085714D01*
X90705772Y-47085714D02*
X90943867Y-47085714D01*
X90943867Y-47085714D02*
X91134343Y-47038095D01*
X91134343Y-47038095D02*
X91229581Y-46990476D01*
X91229581Y-46990476D02*
X91277201Y-46942857D01*
X91277201Y-46942857D02*
X91324820Y-46847619D01*
X91324820Y-46847619D02*
X91324820Y-46752381D01*
X91324820Y-46752381D02*
X91277201Y-46657143D01*
X91277201Y-46657143D02*
X91229581Y-46609524D01*
X91229581Y-46609524D02*
X91134343Y-46561905D01*
X91134343Y-46561905D02*
X90943867Y-46514286D01*
X90943867Y-46514286D02*
X90705772Y-46514286D01*
X90705772Y-46514286D02*
X90515296Y-46561905D01*
X90515296Y-46561905D02*
X90420058Y-46609524D01*
X90420058Y-46609524D02*
X90372439Y-46657143D01*
X90372439Y-46657143D02*
X90324820Y-46752381D01*
X86189582Y-46143333D02*
X86237202Y-46095714D01*
X86237202Y-46095714D02*
X86284821Y-45952857D01*
X86284821Y-45952857D02*
X86284821Y-45857619D01*
X86284821Y-45857619D02*
X86237202Y-45714762D01*
X86237202Y-45714762D02*
X86141963Y-45619524D01*
X86141963Y-45619524D02*
X86046725Y-45571905D01*
X86046725Y-45571905D02*
X85856249Y-45524286D01*
X85856249Y-45524286D02*
X85713392Y-45524286D01*
X85713392Y-45524286D02*
X85522916Y-45571905D01*
X85522916Y-45571905D02*
X85427678Y-45619524D01*
X85427678Y-45619524D02*
X85332440Y-45714762D01*
X85332440Y-45714762D02*
X85284821Y-45857619D01*
X85284821Y-45857619D02*
X85284821Y-45952857D01*
X85284821Y-45952857D02*
X85332440Y-46095714D01*
X85332440Y-46095714D02*
X85380059Y-46143333D01*
X85380059Y-46524286D02*
X85332440Y-46571905D01*
X85332440Y-46571905D02*
X85284821Y-46667143D01*
X85284821Y-46667143D02*
X85284821Y-46905238D01*
X85284821Y-46905238D02*
X85332440Y-47000476D01*
X85332440Y-47000476D02*
X85380059Y-47048095D01*
X85380059Y-47048095D02*
X85475297Y-47095714D01*
X85475297Y-47095714D02*
X85570535Y-47095714D01*
X85570535Y-47095714D02*
X85713392Y-47048095D01*
X85713392Y-47048095D02*
X86284821Y-46476667D01*
X86284821Y-46476667D02*
X86284821Y-47095714D01*
X88679580Y-46133333D02*
X88727200Y-46085714D01*
X88727200Y-46085714D02*
X88774819Y-45942857D01*
X88774819Y-45942857D02*
X88774819Y-45847619D01*
X88774819Y-45847619D02*
X88727200Y-45704762D01*
X88727200Y-45704762D02*
X88631961Y-45609524D01*
X88631961Y-45609524D02*
X88536723Y-45561905D01*
X88536723Y-45561905D02*
X88346247Y-45514286D01*
X88346247Y-45514286D02*
X88203390Y-45514286D01*
X88203390Y-45514286D02*
X88012914Y-45561905D01*
X88012914Y-45561905D02*
X87917676Y-45609524D01*
X87917676Y-45609524D02*
X87822438Y-45704762D01*
X87822438Y-45704762D02*
X87774819Y-45847619D01*
X87774819Y-45847619D02*
X87774819Y-45942857D01*
X87774819Y-45942857D02*
X87822438Y-46085714D01*
X87822438Y-46085714D02*
X87870057Y-46133333D01*
X88774819Y-47085714D02*
X88774819Y-46514286D01*
X88774819Y-46800000D02*
X87774819Y-46800000D01*
X87774819Y-46800000D02*
X87917676Y-46704762D01*
X87917676Y-46704762D02*
X88012914Y-46609524D01*
X88012914Y-46609524D02*
X88060533Y-46514286D01*
X96494821Y-46048094D02*
X95828154Y-46571903D01*
X95828154Y-46048094D02*
X96494821Y-46571903D01*
X73649581Y-46233333D02*
X73697201Y-46185714D01*
X73697201Y-46185714D02*
X73744820Y-46042857D01*
X73744820Y-46042857D02*
X73744820Y-45947619D01*
X73744820Y-45947619D02*
X73697201Y-45804762D01*
X73697201Y-45804762D02*
X73601962Y-45709524D01*
X73601962Y-45709524D02*
X73506724Y-45661905D01*
X73506724Y-45661905D02*
X73316248Y-45614286D01*
X73316248Y-45614286D02*
X73173391Y-45614286D01*
X73173391Y-45614286D02*
X72982915Y-45661905D01*
X72982915Y-45661905D02*
X72887677Y-45709524D01*
X72887677Y-45709524D02*
X72792439Y-45804762D01*
X72792439Y-45804762D02*
X72744820Y-45947619D01*
X72744820Y-45947619D02*
X72744820Y-46042857D01*
X72744820Y-46042857D02*
X72792439Y-46185714D01*
X72792439Y-46185714D02*
X72840058Y-46233333D01*
X72744820Y-46566667D02*
X72744820Y-47233333D01*
X72744820Y-47233333D02*
X73744820Y-46804762D01*
X114019106Y-45595714D02*
X114019106Y-46071904D01*
X114304821Y-45500476D02*
X113304821Y-45833809D01*
X113304821Y-45833809D02*
X114304821Y-46167142D01*
X113400059Y-46452857D02*
X113352440Y-46500476D01*
X113352440Y-46500476D02*
X113304821Y-46595714D01*
X113304821Y-46595714D02*
X113304821Y-46833809D01*
X113304821Y-46833809D02*
X113352440Y-46929047D01*
X113352440Y-46929047D02*
X113400059Y-46976666D01*
X113400059Y-46976666D02*
X113495297Y-47024285D01*
X113495297Y-47024285D02*
X113590535Y-47024285D01*
X113590535Y-47024285D02*
X113733392Y-46976666D01*
X113733392Y-46976666D02*
X114304821Y-46405238D01*
X114304821Y-46405238D02*
X114304821Y-47024285D01*
X99014821Y-46048094D02*
X98348154Y-46571903D01*
X98348154Y-46048094D02*
X99014821Y-46571903D01*
X106349106Y-45595714D02*
X106349106Y-46071904D01*
X106634821Y-45500476D02*
X105634821Y-45833809D01*
X105634821Y-45833809D02*
X106634821Y-46167142D01*
X105634821Y-46976666D02*
X105634821Y-46500476D01*
X105634821Y-46500476D02*
X106111011Y-46452857D01*
X106111011Y-46452857D02*
X106063392Y-46500476D01*
X106063392Y-46500476D02*
X106015773Y-46595714D01*
X106015773Y-46595714D02*
X106015773Y-46833809D01*
X106015773Y-46833809D02*
X106063392Y-46929047D01*
X106063392Y-46929047D02*
X106111011Y-46976666D01*
X106111011Y-46976666D02*
X106206249Y-47024285D01*
X106206249Y-47024285D02*
X106444344Y-47024285D01*
X106444344Y-47024285D02*
X106539582Y-46976666D01*
X106539582Y-46976666D02*
X106587202Y-46929047D01*
X106587202Y-46929047D02*
X106634821Y-46833809D01*
X106634821Y-46833809D02*
X106634821Y-46595714D01*
X106634821Y-46595714D02*
X106587202Y-46500476D01*
X106587202Y-46500476D02*
X106539582Y-46452857D01*
X149014821Y-46048094D02*
X148348154Y-46571903D01*
X148348154Y-46048094D02*
X149014821Y-46571903D01*
X164019106Y-45595714D02*
X164019106Y-46071904D01*
X164304821Y-45500476D02*
X163304821Y-45833809D01*
X163304821Y-45833809D02*
X164304821Y-46167142D01*
X163400059Y-46452857D02*
X163352440Y-46500476D01*
X163352440Y-46500476D02*
X163304821Y-46595714D01*
X163304821Y-46595714D02*
X163304821Y-46833809D01*
X163304821Y-46833809D02*
X163352440Y-46929047D01*
X163352440Y-46929047D02*
X163400059Y-46976666D01*
X163400059Y-46976666D02*
X163495297Y-47024285D01*
X163495297Y-47024285D02*
X163590535Y-47024285D01*
X163590535Y-47024285D02*
X163733392Y-46976666D01*
X163733392Y-46976666D02*
X164304821Y-46405238D01*
X164304821Y-46405238D02*
X164304821Y-47024285D01*
X156349106Y-45595714D02*
X156349106Y-46071904D01*
X156634821Y-45500476D02*
X155634821Y-45833809D01*
X155634821Y-45833809D02*
X156634821Y-46167142D01*
X155634821Y-46976666D02*
X155634821Y-46500476D01*
X155634821Y-46500476D02*
X156111011Y-46452857D01*
X156111011Y-46452857D02*
X156063392Y-46500476D01*
X156063392Y-46500476D02*
X156015773Y-46595714D01*
X156015773Y-46595714D02*
X156015773Y-46833809D01*
X156015773Y-46833809D02*
X156063392Y-46929047D01*
X156063392Y-46929047D02*
X156111011Y-46976666D01*
X156111011Y-46976666D02*
X156206249Y-47024285D01*
X156206249Y-47024285D02*
X156444344Y-47024285D01*
X156444344Y-47024285D02*
X156539582Y-46976666D01*
X156539582Y-46976666D02*
X156587202Y-46929047D01*
X156587202Y-46929047D02*
X156634821Y-46833809D01*
X156634821Y-46833809D02*
X156634821Y-46595714D01*
X156634821Y-46595714D02*
X156587202Y-46500476D01*
X156587202Y-46500476D02*
X156539582Y-46452857D01*
X154355716Y-131751971D02*
X154355716Y-130751971D01*
X153689050Y-130751971D02*
X153498574Y-130751971D01*
X153498574Y-130751971D02*
X153403336Y-130799590D01*
X153403336Y-130799590D02*
X153308098Y-130894828D01*
X153308098Y-130894828D02*
X153260479Y-131085304D01*
X153260479Y-131085304D02*
X153260479Y-131418637D01*
X153260479Y-131418637D02*
X153308098Y-131609113D01*
X153308098Y-131609113D02*
X153403336Y-131704352D01*
X153403336Y-131704352D02*
X153498574Y-131751971D01*
X153498574Y-131751971D02*
X153689050Y-131751971D01*
X153689050Y-131751971D02*
X153784288Y-131704352D01*
X153784288Y-131704352D02*
X153879526Y-131609113D01*
X153879526Y-131609113D02*
X153927145Y-131418637D01*
X153927145Y-131418637D02*
X153927145Y-131085304D01*
X153927145Y-131085304D02*
X153879526Y-130894828D01*
X153879526Y-130894828D02*
X153784288Y-130799590D01*
X153784288Y-130799590D02*
X153689050Y-130751971D01*
X152974764Y-130751971D02*
X152403336Y-130751971D01*
X152689050Y-131751971D02*
X152689050Y-130751971D01*
X152308098Y-131847209D02*
X151546193Y-131847209D01*
X151308097Y-131751971D02*
X151308097Y-130751971D01*
X151308097Y-130751971D02*
X150974764Y-131466256D01*
X150974764Y-131466256D02*
X150641431Y-130751971D01*
X150641431Y-130751971D02*
X150641431Y-131751971D01*
X149784288Y-131704352D02*
X149879526Y-131751971D01*
X149879526Y-131751971D02*
X150070002Y-131751971D01*
X150070002Y-131751971D02*
X150165240Y-131704352D01*
X150165240Y-131704352D02*
X150212859Y-131609113D01*
X150212859Y-131609113D02*
X150212859Y-131228161D01*
X150212859Y-131228161D02*
X150165240Y-131132923D01*
X150165240Y-131132923D02*
X150070002Y-131085304D01*
X150070002Y-131085304D02*
X149879526Y-131085304D01*
X149879526Y-131085304D02*
X149784288Y-131132923D01*
X149784288Y-131132923D02*
X149736669Y-131228161D01*
X149736669Y-131228161D02*
X149736669Y-131323399D01*
X149736669Y-131323399D02*
X150212859Y-131418637D01*
X149355716Y-131704352D02*
X149260478Y-131751971D01*
X149260478Y-131751971D02*
X149070002Y-131751971D01*
X149070002Y-131751971D02*
X148974764Y-131704352D01*
X148974764Y-131704352D02*
X148927145Y-131609113D01*
X148927145Y-131609113D02*
X148927145Y-131561494D01*
X148927145Y-131561494D02*
X148974764Y-131466256D01*
X148974764Y-131466256D02*
X149070002Y-131418637D01*
X149070002Y-131418637D02*
X149212859Y-131418637D01*
X149212859Y-131418637D02*
X149308097Y-131371018D01*
X149308097Y-131371018D02*
X149355716Y-131275780D01*
X149355716Y-131275780D02*
X149355716Y-131228161D01*
X149355716Y-131228161D02*
X149308097Y-131132923D01*
X149308097Y-131132923D02*
X149212859Y-131085304D01*
X149212859Y-131085304D02*
X149070002Y-131085304D01*
X149070002Y-131085304D02*
X148974764Y-131132923D01*
X148546192Y-131704352D02*
X148450954Y-131751971D01*
X148450954Y-131751971D02*
X148260478Y-131751971D01*
X148260478Y-131751971D02*
X148165240Y-131704352D01*
X148165240Y-131704352D02*
X148117621Y-131609113D01*
X148117621Y-131609113D02*
X148117621Y-131561494D01*
X148117621Y-131561494D02*
X148165240Y-131466256D01*
X148165240Y-131466256D02*
X148260478Y-131418637D01*
X148260478Y-131418637D02*
X148403335Y-131418637D01*
X148403335Y-131418637D02*
X148498573Y-131371018D01*
X148498573Y-131371018D02*
X148546192Y-131275780D01*
X148546192Y-131275780D02*
X148546192Y-131228161D01*
X148546192Y-131228161D02*
X148498573Y-131132923D01*
X148498573Y-131132923D02*
X148403335Y-131085304D01*
X148403335Y-131085304D02*
X148260478Y-131085304D01*
X148260478Y-131085304D02*
X148165240Y-131132923D01*
X146355716Y-131656732D02*
X146403335Y-131704352D01*
X146403335Y-131704352D02*
X146546192Y-131751971D01*
X146546192Y-131751971D02*
X146641430Y-131751971D01*
X146641430Y-131751971D02*
X146784287Y-131704352D01*
X146784287Y-131704352D02*
X146879525Y-131609113D01*
X146879525Y-131609113D02*
X146927144Y-131513875D01*
X146927144Y-131513875D02*
X146974763Y-131323399D01*
X146974763Y-131323399D02*
X146974763Y-131180542D01*
X146974763Y-131180542D02*
X146927144Y-130990066D01*
X146927144Y-130990066D02*
X146879525Y-130894828D01*
X146879525Y-130894828D02*
X146784287Y-130799590D01*
X146784287Y-130799590D02*
X146641430Y-130751971D01*
X146641430Y-130751971D02*
X146546192Y-130751971D01*
X146546192Y-130751971D02*
X146403335Y-130799590D01*
X146403335Y-130799590D02*
X146355716Y-130847209D01*
X145927144Y-131751971D02*
X145927144Y-130751971D01*
X145498573Y-131751971D02*
X145498573Y-131228161D01*
X145498573Y-131228161D02*
X145546192Y-131132923D01*
X145546192Y-131132923D02*
X145641430Y-131085304D01*
X145641430Y-131085304D02*
X145784287Y-131085304D01*
X145784287Y-131085304D02*
X145879525Y-131132923D01*
X145879525Y-131132923D02*
X145927144Y-131180542D01*
X144593811Y-131751971D02*
X144593811Y-131228161D01*
X144593811Y-131228161D02*
X144641430Y-131132923D01*
X144641430Y-131132923D02*
X144736668Y-131085304D01*
X144736668Y-131085304D02*
X144927144Y-131085304D01*
X144927144Y-131085304D02*
X145022382Y-131132923D01*
X144593811Y-131704352D02*
X144689049Y-131751971D01*
X144689049Y-131751971D02*
X144927144Y-131751971D01*
X144927144Y-131751971D02*
X145022382Y-131704352D01*
X145022382Y-131704352D02*
X145070001Y-131609113D01*
X145070001Y-131609113D02*
X145070001Y-131513875D01*
X145070001Y-131513875D02*
X145022382Y-131418637D01*
X145022382Y-131418637D02*
X144927144Y-131371018D01*
X144927144Y-131371018D02*
X144689049Y-131371018D01*
X144689049Y-131371018D02*
X144593811Y-131323399D01*
X144117620Y-131751971D02*
X144117620Y-131085304D01*
X144117620Y-131275780D02*
X144070001Y-131180542D01*
X144070001Y-131180542D02*
X144022382Y-131132923D01*
X144022382Y-131132923D02*
X143927144Y-131085304D01*
X143927144Y-131085304D02*
X143831906Y-131085304D01*
X143355715Y-131751971D02*
X143450953Y-131704352D01*
X143450953Y-131704352D02*
X143498572Y-131609113D01*
X143498572Y-131609113D02*
X143498572Y-130751971D01*
X142974762Y-131751971D02*
X142974762Y-131085304D01*
X142974762Y-130751971D02*
X143022381Y-130799590D01*
X143022381Y-130799590D02*
X142974762Y-130847209D01*
X142974762Y-130847209D02*
X142927143Y-130799590D01*
X142927143Y-130799590D02*
X142974762Y-130751971D01*
X142974762Y-130751971D02*
X142974762Y-130847209D01*
X142117620Y-131704352D02*
X142212858Y-131751971D01*
X142212858Y-131751971D02*
X142403334Y-131751971D01*
X142403334Y-131751971D02*
X142498572Y-131704352D01*
X142498572Y-131704352D02*
X142546191Y-131609113D01*
X142546191Y-131609113D02*
X142546191Y-131228161D01*
X142546191Y-131228161D02*
X142498572Y-131132923D01*
X142498572Y-131132923D02*
X142403334Y-131085304D01*
X142403334Y-131085304D02*
X142212858Y-131085304D01*
X142212858Y-131085304D02*
X142117620Y-131132923D01*
X142117620Y-131132923D02*
X142070001Y-131228161D01*
X142070001Y-131228161D02*
X142070001Y-131323399D01*
X142070001Y-131323399D02*
X142546191Y-131418637D01*
X141641429Y-131085304D02*
X141641429Y-132085304D01*
X141641429Y-131132923D02*
X141546191Y-131085304D01*
X141546191Y-131085304D02*
X141355715Y-131085304D01*
X141355715Y-131085304D02*
X141260477Y-131132923D01*
X141260477Y-131132923D02*
X141212858Y-131180542D01*
X141212858Y-131180542D02*
X141165239Y-131275780D01*
X141165239Y-131275780D02*
X141165239Y-131561494D01*
X141165239Y-131561494D02*
X141212858Y-131656732D01*
X141212858Y-131656732D02*
X141260477Y-131704352D01*
X141260477Y-131704352D02*
X141355715Y-131751971D01*
X141355715Y-131751971D02*
X141546191Y-131751971D01*
X141546191Y-131751971D02*
X141641429Y-131704352D01*
X140593810Y-131751971D02*
X140689048Y-131704352D01*
X140689048Y-131704352D02*
X140736667Y-131609113D01*
X140736667Y-131609113D02*
X140736667Y-130751971D01*
X139831905Y-131704352D02*
X139927143Y-131751971D01*
X139927143Y-131751971D02*
X140117619Y-131751971D01*
X140117619Y-131751971D02*
X140212857Y-131704352D01*
X140212857Y-131704352D02*
X140260476Y-131609113D01*
X140260476Y-131609113D02*
X140260476Y-131228161D01*
X140260476Y-131228161D02*
X140212857Y-131132923D01*
X140212857Y-131132923D02*
X140117619Y-131085304D01*
X140117619Y-131085304D02*
X139927143Y-131085304D01*
X139927143Y-131085304D02*
X139831905Y-131132923D01*
X139831905Y-131132923D02*
X139784286Y-131228161D01*
X139784286Y-131228161D02*
X139784286Y-131323399D01*
X139784286Y-131323399D02*
X140260476Y-131418637D01*
X139450952Y-131751971D02*
X138927143Y-131085304D01*
X139450952Y-131085304D02*
X138927143Y-131751971D01*
X138546190Y-131751971D02*
X138546190Y-131085304D01*
X138546190Y-130751971D02*
X138593809Y-130799590D01*
X138593809Y-130799590D02*
X138546190Y-130847209D01*
X138546190Y-130847209D02*
X138498571Y-130799590D01*
X138498571Y-130799590D02*
X138546190Y-130751971D01*
X138546190Y-130751971D02*
X138546190Y-130847209D01*
X138070000Y-131085304D02*
X138070000Y-131751971D01*
X138070000Y-131180542D02*
X138022381Y-131132923D01*
X138022381Y-131132923D02*
X137927143Y-131085304D01*
X137927143Y-131085304D02*
X137784286Y-131085304D01*
X137784286Y-131085304D02*
X137689048Y-131132923D01*
X137689048Y-131132923D02*
X137641429Y-131228161D01*
X137641429Y-131228161D02*
X137641429Y-131751971D01*
X136736667Y-131085304D02*
X136736667Y-131894828D01*
X136736667Y-131894828D02*
X136784286Y-131990066D01*
X136784286Y-131990066D02*
X136831905Y-132037685D01*
X136831905Y-132037685D02*
X136927143Y-132085304D01*
X136927143Y-132085304D02*
X137070000Y-132085304D01*
X137070000Y-132085304D02*
X137165238Y-132037685D01*
X136736667Y-131704352D02*
X136831905Y-131751971D01*
X136831905Y-131751971D02*
X137022381Y-131751971D01*
X137022381Y-131751971D02*
X137117619Y-131704352D01*
X137117619Y-131704352D02*
X137165238Y-131656732D01*
X137165238Y-131656732D02*
X137212857Y-131561494D01*
X137212857Y-131561494D02*
X137212857Y-131275780D01*
X137212857Y-131275780D02*
X137165238Y-131180542D01*
X137165238Y-131180542D02*
X137117619Y-131132923D01*
X137117619Y-131132923D02*
X137022381Y-131085304D01*
X137022381Y-131085304D02*
X136831905Y-131085304D01*
X136831905Y-131085304D02*
X136736667Y-131132923D01*
X136308095Y-130847209D02*
X136260476Y-130799590D01*
X136260476Y-130799590D02*
X136165238Y-130751971D01*
X136165238Y-130751971D02*
X135927143Y-130751971D01*
X135927143Y-130751971D02*
X135831905Y-130799590D01*
X135831905Y-130799590D02*
X135784286Y-130847209D01*
X135784286Y-130847209D02*
X135736667Y-130942447D01*
X135736667Y-130942447D02*
X135736667Y-131037685D01*
X135736667Y-131037685D02*
X135784286Y-131180542D01*
X135784286Y-131180542D02*
X136355714Y-131751971D01*
X136355714Y-131751971D02*
X135736667Y-131751971D01*
X150403334Y-132361915D02*
X150070001Y-133361915D01*
X150070001Y-133361915D02*
X149736668Y-132361915D01*
X149450953Y-132457153D02*
X149403334Y-132409534D01*
X149403334Y-132409534D02*
X149308096Y-132361915D01*
X149308096Y-132361915D02*
X149070001Y-132361915D01*
X149070001Y-132361915D02*
X148974763Y-132409534D01*
X148974763Y-132409534D02*
X148927144Y-132457153D01*
X148927144Y-132457153D02*
X148879525Y-132552391D01*
X148879525Y-132552391D02*
X148879525Y-132647629D01*
X148879525Y-132647629D02*
X148927144Y-132790486D01*
X148927144Y-132790486D02*
X149498572Y-133361915D01*
X149498572Y-133361915D02*
X148879525Y-133361915D01*
X148450953Y-133266676D02*
X148403334Y-133314296D01*
X148403334Y-133314296D02*
X148450953Y-133361915D01*
X148450953Y-133361915D02*
X148498572Y-133314296D01*
X148498572Y-133314296D02*
X148450953Y-133266676D01*
X148450953Y-133266676D02*
X148450953Y-133361915D01*
X147784287Y-132361915D02*
X147689049Y-132361915D01*
X147689049Y-132361915D02*
X147593811Y-132409534D01*
X147593811Y-132409534D02*
X147546192Y-132457153D01*
X147546192Y-132457153D02*
X147498573Y-132552391D01*
X147498573Y-132552391D02*
X147450954Y-132742867D01*
X147450954Y-132742867D02*
X147450954Y-132980962D01*
X147450954Y-132980962D02*
X147498573Y-133171438D01*
X147498573Y-133171438D02*
X147546192Y-133266676D01*
X147546192Y-133266676D02*
X147593811Y-133314296D01*
X147593811Y-133314296D02*
X147689049Y-133361915D01*
X147689049Y-133361915D02*
X147784287Y-133361915D01*
X147784287Y-133361915D02*
X147879525Y-133314296D01*
X147879525Y-133314296D02*
X147927144Y-133266676D01*
X147927144Y-133266676D02*
X147974763Y-133171438D01*
X147974763Y-133171438D02*
X148022382Y-132980962D01*
X148022382Y-132980962D02*
X148022382Y-132742867D01*
X148022382Y-132742867D02*
X147974763Y-132552391D01*
X147974763Y-132552391D02*
X147927144Y-132457153D01*
X147927144Y-132457153D02*
X147879525Y-132409534D01*
X147879525Y-132409534D02*
X147784287Y-132361915D01*
X146117620Y-132790486D02*
X146212858Y-132742867D01*
X146212858Y-132742867D02*
X146260477Y-132695248D01*
X146260477Y-132695248D02*
X146308096Y-132600010D01*
X146308096Y-132600010D02*
X146308096Y-132552391D01*
X146308096Y-132552391D02*
X146260477Y-132457153D01*
X146260477Y-132457153D02*
X146212858Y-132409534D01*
X146212858Y-132409534D02*
X146117620Y-132361915D01*
X146117620Y-132361915D02*
X145927144Y-132361915D01*
X145927144Y-132361915D02*
X145831906Y-132409534D01*
X145831906Y-132409534D02*
X145784287Y-132457153D01*
X145784287Y-132457153D02*
X145736668Y-132552391D01*
X145736668Y-132552391D02*
X145736668Y-132600010D01*
X145736668Y-132600010D02*
X145784287Y-132695248D01*
X145784287Y-132695248D02*
X145831906Y-132742867D01*
X145831906Y-132742867D02*
X145927144Y-132790486D01*
X145927144Y-132790486D02*
X146117620Y-132790486D01*
X146117620Y-132790486D02*
X146212858Y-132838105D01*
X146212858Y-132838105D02*
X146260477Y-132885724D01*
X146260477Y-132885724D02*
X146308096Y-132980962D01*
X146308096Y-132980962D02*
X146308096Y-133171438D01*
X146308096Y-133171438D02*
X146260477Y-133266676D01*
X146260477Y-133266676D02*
X146212858Y-133314296D01*
X146212858Y-133314296D02*
X146117620Y-133361915D01*
X146117620Y-133361915D02*
X145927144Y-133361915D01*
X145927144Y-133361915D02*
X145831906Y-133314296D01*
X145831906Y-133314296D02*
X145784287Y-133266676D01*
X145784287Y-133266676D02*
X145736668Y-133171438D01*
X145736668Y-133171438D02*
X145736668Y-132980962D01*
X145736668Y-132980962D02*
X145784287Y-132885724D01*
X145784287Y-132885724D02*
X145831906Y-132838105D01*
X145831906Y-132838105D02*
X145927144Y-132790486D01*
X144593811Y-132314296D02*
X145450953Y-133600010D01*
X143736668Y-133361915D02*
X144308096Y-133361915D01*
X144022382Y-133361915D02*
X144022382Y-132361915D01*
X144022382Y-132361915D02*
X144117620Y-132504772D01*
X144117620Y-132504772D02*
X144212858Y-132600010D01*
X144212858Y-132600010D02*
X144308096Y-132647629D01*
X143260477Y-133361915D02*
X143070001Y-133361915D01*
X143070001Y-133361915D02*
X142974763Y-133314296D01*
X142974763Y-133314296D02*
X142927144Y-133266676D01*
X142927144Y-133266676D02*
X142831906Y-133123819D01*
X142831906Y-133123819D02*
X142784287Y-132933343D01*
X142784287Y-132933343D02*
X142784287Y-132552391D01*
X142784287Y-132552391D02*
X142831906Y-132457153D01*
X142831906Y-132457153D02*
X142879525Y-132409534D01*
X142879525Y-132409534D02*
X142974763Y-132361915D01*
X142974763Y-132361915D02*
X143165239Y-132361915D01*
X143165239Y-132361915D02*
X143260477Y-132409534D01*
X143260477Y-132409534D02*
X143308096Y-132457153D01*
X143308096Y-132457153D02*
X143355715Y-132552391D01*
X143355715Y-132552391D02*
X143355715Y-132790486D01*
X143355715Y-132790486D02*
X143308096Y-132885724D01*
X143308096Y-132885724D02*
X143260477Y-132933343D01*
X143260477Y-132933343D02*
X143165239Y-132980962D01*
X143165239Y-132980962D02*
X142974763Y-132980962D01*
X142974763Y-132980962D02*
X142879525Y-132933343D01*
X142879525Y-132933343D02*
X142831906Y-132885724D01*
X142831906Y-132885724D02*
X142784287Y-132790486D01*
X141641430Y-132314296D02*
X142498572Y-133600010D01*
X141355715Y-132457153D02*
X141308096Y-132409534D01*
X141308096Y-132409534D02*
X141212858Y-132361915D01*
X141212858Y-132361915D02*
X140974763Y-132361915D01*
X140974763Y-132361915D02*
X140879525Y-132409534D01*
X140879525Y-132409534D02*
X140831906Y-132457153D01*
X140831906Y-132457153D02*
X140784287Y-132552391D01*
X140784287Y-132552391D02*
X140784287Y-132647629D01*
X140784287Y-132647629D02*
X140831906Y-132790486D01*
X140831906Y-132790486D02*
X141403334Y-133361915D01*
X141403334Y-133361915D02*
X140784287Y-133361915D01*
X139879525Y-132361915D02*
X140355715Y-132361915D01*
X140355715Y-132361915D02*
X140403334Y-132838105D01*
X140403334Y-132838105D02*
X140355715Y-132790486D01*
X140355715Y-132790486D02*
X140260477Y-132742867D01*
X140260477Y-132742867D02*
X140022382Y-132742867D01*
X140022382Y-132742867D02*
X139927144Y-132790486D01*
X139927144Y-132790486D02*
X139879525Y-132838105D01*
X139879525Y-132838105D02*
X139831906Y-132933343D01*
X139831906Y-132933343D02*
X139831906Y-133171438D01*
X139831906Y-133171438D02*
X139879525Y-133266676D01*
X139879525Y-133266676D02*
X139927144Y-133314296D01*
X139927144Y-133314296D02*
X140022382Y-133361915D01*
X140022382Y-133361915D02*
X140260477Y-133361915D01*
X140260477Y-133361915D02*
X140355715Y-133314296D01*
X140355715Y-133314296D02*
X140403334Y-133266676D01*
X138740380Y-48659798D02*
X138788000Y-48612179D01*
X138788000Y-48612179D02*
X138835619Y-48469322D01*
X138835619Y-48469322D02*
X138835619Y-48374084D01*
X138835619Y-48374084D02*
X138788000Y-48231227D01*
X138788000Y-48231227D02*
X138692761Y-48135989D01*
X138692761Y-48135989D02*
X138597523Y-48088370D01*
X138597523Y-48088370D02*
X138407047Y-48040751D01*
X138407047Y-48040751D02*
X138264190Y-48040751D01*
X138264190Y-48040751D02*
X138073714Y-48088370D01*
X138073714Y-48088370D02*
X137978476Y-48135989D01*
X137978476Y-48135989D02*
X137883238Y-48231227D01*
X137883238Y-48231227D02*
X137835619Y-48374084D01*
X137835619Y-48374084D02*
X137835619Y-48469322D01*
X137835619Y-48469322D02*
X137883238Y-48612179D01*
X137883238Y-48612179D02*
X137930857Y-48659798D01*
X138835619Y-49612179D02*
X138835619Y-49040751D01*
X138835619Y-49326465D02*
X137835619Y-49326465D01*
X137835619Y-49326465D02*
X137978476Y-49231227D01*
X137978476Y-49231227D02*
X138073714Y-49135989D01*
X138073714Y-49135989D02*
X138121333Y-49040751D01*
X143985620Y-48574560D02*
X143318953Y-49098369D01*
X143318953Y-48574560D02*
X143985620Y-49098369D01*
X141229581Y-46133333D02*
X141277201Y-46085714D01*
X141277201Y-46085714D02*
X141324820Y-45942857D01*
X141324820Y-45942857D02*
X141324820Y-45847619D01*
X141324820Y-45847619D02*
X141277201Y-45704762D01*
X141277201Y-45704762D02*
X141181962Y-45609524D01*
X141181962Y-45609524D02*
X141086724Y-45561905D01*
X141086724Y-45561905D02*
X140896248Y-45514286D01*
X140896248Y-45514286D02*
X140753391Y-45514286D01*
X140753391Y-45514286D02*
X140562915Y-45561905D01*
X140562915Y-45561905D02*
X140467677Y-45609524D01*
X140467677Y-45609524D02*
X140372439Y-45704762D01*
X140372439Y-45704762D02*
X140324820Y-45847619D01*
X140324820Y-45847619D02*
X140324820Y-45942857D01*
X140324820Y-45942857D02*
X140372439Y-46085714D01*
X140372439Y-46085714D02*
X140420058Y-46133333D01*
X140324820Y-46752381D02*
X140324820Y-46847619D01*
X140324820Y-46847619D02*
X140372439Y-46942857D01*
X140372439Y-46942857D02*
X140420058Y-46990476D01*
X140420058Y-46990476D02*
X140515296Y-47038095D01*
X140515296Y-47038095D02*
X140705772Y-47085714D01*
X140705772Y-47085714D02*
X140943867Y-47085714D01*
X140943867Y-47085714D02*
X141134343Y-47038095D01*
X141134343Y-47038095D02*
X141229581Y-46990476D01*
X141229581Y-46990476D02*
X141277201Y-46942857D01*
X141277201Y-46942857D02*
X141324820Y-46847619D01*
X141324820Y-46847619D02*
X141324820Y-46752381D01*
X141324820Y-46752381D02*
X141277201Y-46657143D01*
X141277201Y-46657143D02*
X141229581Y-46609524D01*
X141229581Y-46609524D02*
X141134343Y-46561905D01*
X141134343Y-46561905D02*
X140943867Y-46514286D01*
X140943867Y-46514286D02*
X140705772Y-46514286D01*
X140705772Y-46514286D02*
X140515296Y-46561905D01*
X140515296Y-46561905D02*
X140420058Y-46609524D01*
X140420058Y-46609524D02*
X140372439Y-46657143D01*
X140372439Y-46657143D02*
X140324820Y-46752381D01*
X153799105Y-45595714D02*
X153799105Y-46071904D01*
X154084820Y-45500476D02*
X153084820Y-45833809D01*
X153084820Y-45833809D02*
X154084820Y-46167142D01*
X153084820Y-46929047D02*
X153084820Y-46738571D01*
X153084820Y-46738571D02*
X153132439Y-46643333D01*
X153132439Y-46643333D02*
X153180058Y-46595714D01*
X153180058Y-46595714D02*
X153322915Y-46500476D01*
X153322915Y-46500476D02*
X153513391Y-46452857D01*
X153513391Y-46452857D02*
X153894343Y-46452857D01*
X153894343Y-46452857D02*
X153989581Y-46500476D01*
X153989581Y-46500476D02*
X154037201Y-46548095D01*
X154037201Y-46548095D02*
X154084820Y-46643333D01*
X154084820Y-46643333D02*
X154084820Y-46833809D01*
X154084820Y-46833809D02*
X154037201Y-46929047D01*
X154037201Y-46929047D02*
X153989581Y-46976666D01*
X153989581Y-46976666D02*
X153894343Y-47024285D01*
X153894343Y-47024285D02*
X153656248Y-47024285D01*
X153656248Y-47024285D02*
X153561010Y-46976666D01*
X153561010Y-46976666D02*
X153513391Y-46929047D01*
X153513391Y-46929047D02*
X153465772Y-46833809D01*
X153465772Y-46833809D02*
X153465772Y-46643333D01*
X153465772Y-46643333D02*
X153513391Y-46548095D01*
X153513391Y-46548095D02*
X153561010Y-46500476D01*
X153561010Y-46500476D02*
X153656248Y-46452857D01*
X169405620Y-48659798D02*
X168929429Y-48326465D01*
X169405620Y-48088370D02*
X168405620Y-48088370D01*
X168405620Y-48088370D02*
X168405620Y-48469322D01*
X168405620Y-48469322D02*
X168453239Y-48564560D01*
X168453239Y-48564560D02*
X168500858Y-48612179D01*
X168500858Y-48612179D02*
X168596096Y-48659798D01*
X168596096Y-48659798D02*
X168738953Y-48659798D01*
X168738953Y-48659798D02*
X168834191Y-48612179D01*
X168834191Y-48612179D02*
X168881810Y-48564560D01*
X168881810Y-48564560D02*
X168929429Y-48469322D01*
X168929429Y-48469322D02*
X168929429Y-48088370D01*
X168405620Y-49278846D02*
X168405620Y-49374084D01*
X168405620Y-49374084D02*
X168453239Y-49469322D01*
X168453239Y-49469322D02*
X168500858Y-49516941D01*
X168500858Y-49516941D02*
X168596096Y-49564560D01*
X168596096Y-49564560D02*
X168786572Y-49612179D01*
X168786572Y-49612179D02*
X169024667Y-49612179D01*
X169024667Y-49612179D02*
X169215143Y-49564560D01*
X169215143Y-49564560D02*
X169310381Y-49516941D01*
X169310381Y-49516941D02*
X169358001Y-49469322D01*
X169358001Y-49469322D02*
X169405620Y-49374084D01*
X169405620Y-49374084D02*
X169405620Y-49278846D01*
X169405620Y-49278846D02*
X169358001Y-49183608D01*
X169358001Y-49183608D02*
X169310381Y-49135989D01*
X169310381Y-49135989D02*
X169215143Y-49088370D01*
X169215143Y-49088370D02*
X169024667Y-49040751D01*
X169024667Y-49040751D02*
X168786572Y-49040751D01*
X168786572Y-49040751D02*
X168596096Y-49088370D01*
X168596096Y-49088370D02*
X168500858Y-49135989D01*
X168500858Y-49135989D02*
X168453239Y-49183608D01*
X168453239Y-49183608D02*
X168405620Y-49278846D01*
X164365621Y-48669798D02*
X163889430Y-48336465D01*
X164365621Y-48098370D02*
X163365621Y-48098370D01*
X163365621Y-48098370D02*
X163365621Y-48479322D01*
X163365621Y-48479322D02*
X163413240Y-48574560D01*
X163413240Y-48574560D02*
X163460859Y-48622179D01*
X163460859Y-48622179D02*
X163556097Y-48669798D01*
X163556097Y-48669798D02*
X163698954Y-48669798D01*
X163698954Y-48669798D02*
X163794192Y-48622179D01*
X163794192Y-48622179D02*
X163841811Y-48574560D01*
X163841811Y-48574560D02*
X163889430Y-48479322D01*
X163889430Y-48479322D02*
X163889430Y-48098370D01*
X163460859Y-49050751D02*
X163413240Y-49098370D01*
X163413240Y-49098370D02*
X163365621Y-49193608D01*
X163365621Y-49193608D02*
X163365621Y-49431703D01*
X163365621Y-49431703D02*
X163413240Y-49526941D01*
X163413240Y-49526941D02*
X163460859Y-49574560D01*
X163460859Y-49574560D02*
X163556097Y-49622179D01*
X163556097Y-49622179D02*
X163651335Y-49622179D01*
X163651335Y-49622179D02*
X163794192Y-49574560D01*
X163794192Y-49574560D02*
X164365621Y-49003132D01*
X164365621Y-49003132D02*
X164365621Y-49622179D01*
X146494821Y-46048094D02*
X145828154Y-46571903D01*
X145828154Y-46048094D02*
X146494821Y-46571903D01*
X126110382Y-48669797D02*
X126158002Y-48622178D01*
X126158002Y-48622178D02*
X126205621Y-48479321D01*
X126205621Y-48479321D02*
X126205621Y-48384083D01*
X126205621Y-48384083D02*
X126158002Y-48241226D01*
X126158002Y-48241226D02*
X126062763Y-48145988D01*
X126062763Y-48145988D02*
X125967525Y-48098369D01*
X125967525Y-48098369D02*
X125777049Y-48050750D01*
X125777049Y-48050750D02*
X125634192Y-48050750D01*
X125634192Y-48050750D02*
X125443716Y-48098369D01*
X125443716Y-48098369D02*
X125348478Y-48145988D01*
X125348478Y-48145988D02*
X125253240Y-48241226D01*
X125253240Y-48241226D02*
X125205621Y-48384083D01*
X125205621Y-48384083D02*
X125205621Y-48479321D01*
X125205621Y-48479321D02*
X125253240Y-48622178D01*
X125253240Y-48622178D02*
X125300859Y-48669797D01*
X125205621Y-49526940D02*
X125205621Y-49336464D01*
X125205621Y-49336464D02*
X125253240Y-49241226D01*
X125253240Y-49241226D02*
X125300859Y-49193607D01*
X125300859Y-49193607D02*
X125443716Y-49098369D01*
X125443716Y-49098369D02*
X125634192Y-49050750D01*
X125634192Y-49050750D02*
X126015144Y-49050750D01*
X126015144Y-49050750D02*
X126110382Y-49098369D01*
X126110382Y-49098369D02*
X126158002Y-49145988D01*
X126158002Y-49145988D02*
X126205621Y-49241226D01*
X126205621Y-49241226D02*
X126205621Y-49431702D01*
X126205621Y-49431702D02*
X126158002Y-49526940D01*
X126158002Y-49526940D02*
X126110382Y-49574559D01*
X126110382Y-49574559D02*
X126015144Y-49622178D01*
X126015144Y-49622178D02*
X125777049Y-49622178D01*
X125777049Y-49622178D02*
X125681811Y-49574559D01*
X125681811Y-49574559D02*
X125634192Y-49526940D01*
X125634192Y-49526940D02*
X125586573Y-49431702D01*
X125586573Y-49431702D02*
X125586573Y-49241226D01*
X125586573Y-49241226D02*
X125634192Y-49145988D01*
X125634192Y-49145988D02*
X125681811Y-49098369D01*
X125681811Y-49098369D02*
X125777049Y-49050750D01*
X138679580Y-46133333D02*
X138727200Y-46085714D01*
X138727200Y-46085714D02*
X138774819Y-45942857D01*
X138774819Y-45942857D02*
X138774819Y-45847619D01*
X138774819Y-45847619D02*
X138727200Y-45704762D01*
X138727200Y-45704762D02*
X138631961Y-45609524D01*
X138631961Y-45609524D02*
X138536723Y-45561905D01*
X138536723Y-45561905D02*
X138346247Y-45514286D01*
X138346247Y-45514286D02*
X138203390Y-45514286D01*
X138203390Y-45514286D02*
X138012914Y-45561905D01*
X138012914Y-45561905D02*
X137917676Y-45609524D01*
X137917676Y-45609524D02*
X137822438Y-45704762D01*
X137822438Y-45704762D02*
X137774819Y-45847619D01*
X137774819Y-45847619D02*
X137774819Y-45942857D01*
X137774819Y-45942857D02*
X137822438Y-46085714D01*
X137822438Y-46085714D02*
X137870057Y-46133333D01*
X138774819Y-47085714D02*
X138774819Y-46514286D01*
X138774819Y-46800000D02*
X137774819Y-46800000D01*
X137774819Y-46800000D02*
X137917676Y-46704762D01*
X137917676Y-46704762D02*
X138012914Y-46609524D01*
X138012914Y-46609524D02*
X138060533Y-46514286D01*
X133639581Y-46143333D02*
X133687201Y-46095714D01*
X133687201Y-46095714D02*
X133734820Y-45952857D01*
X133734820Y-45952857D02*
X133734820Y-45857619D01*
X133734820Y-45857619D02*
X133687201Y-45714762D01*
X133687201Y-45714762D02*
X133591962Y-45619524D01*
X133591962Y-45619524D02*
X133496724Y-45571905D01*
X133496724Y-45571905D02*
X133306248Y-45524286D01*
X133306248Y-45524286D02*
X133163391Y-45524286D01*
X133163391Y-45524286D02*
X132972915Y-45571905D01*
X132972915Y-45571905D02*
X132877677Y-45619524D01*
X132877677Y-45619524D02*
X132782439Y-45714762D01*
X132782439Y-45714762D02*
X132734820Y-45857619D01*
X132734820Y-45857619D02*
X132734820Y-45952857D01*
X132734820Y-45952857D02*
X132782439Y-46095714D01*
X132782439Y-46095714D02*
X132830058Y-46143333D01*
X132734820Y-46476667D02*
X132734820Y-47095714D01*
X132734820Y-47095714D02*
X133115772Y-46762381D01*
X133115772Y-46762381D02*
X133115772Y-46905238D01*
X133115772Y-46905238D02*
X133163391Y-47000476D01*
X133163391Y-47000476D02*
X133211010Y-47048095D01*
X133211010Y-47048095D02*
X133306248Y-47095714D01*
X133306248Y-47095714D02*
X133544343Y-47095714D01*
X133544343Y-47095714D02*
X133639581Y-47048095D01*
X133639581Y-47048095D02*
X133687201Y-47000476D01*
X133687201Y-47000476D02*
X133734820Y-46905238D01*
X133734820Y-46905238D02*
X133734820Y-46619524D01*
X133734820Y-46619524D02*
X133687201Y-46524286D01*
X133687201Y-46524286D02*
X133639581Y-46476667D01*
X151635620Y-48669798D02*
X151159429Y-48336465D01*
X151635620Y-48098370D02*
X150635620Y-48098370D01*
X150635620Y-48098370D02*
X150635620Y-48479322D01*
X150635620Y-48479322D02*
X150683239Y-48574560D01*
X150683239Y-48574560D02*
X150730858Y-48622179D01*
X150730858Y-48622179D02*
X150826096Y-48669798D01*
X150826096Y-48669798D02*
X150968953Y-48669798D01*
X150968953Y-48669798D02*
X151064191Y-48622179D01*
X151064191Y-48622179D02*
X151111810Y-48574560D01*
X151111810Y-48574560D02*
X151159429Y-48479322D01*
X151159429Y-48479322D02*
X151159429Y-48098370D01*
X150635620Y-49003132D02*
X150635620Y-49669798D01*
X150635620Y-49669798D02*
X151635620Y-49241227D01*
X123649581Y-46233333D02*
X123697201Y-46185714D01*
X123697201Y-46185714D02*
X123744820Y-46042857D01*
X123744820Y-46042857D02*
X123744820Y-45947619D01*
X123744820Y-45947619D02*
X123697201Y-45804762D01*
X123697201Y-45804762D02*
X123601962Y-45709524D01*
X123601962Y-45709524D02*
X123506724Y-45661905D01*
X123506724Y-45661905D02*
X123316248Y-45614286D01*
X123316248Y-45614286D02*
X123173391Y-45614286D01*
X123173391Y-45614286D02*
X122982915Y-45661905D01*
X122982915Y-45661905D02*
X122887677Y-45709524D01*
X122887677Y-45709524D02*
X122792439Y-45804762D01*
X122792439Y-45804762D02*
X122744820Y-45947619D01*
X122744820Y-45947619D02*
X122744820Y-46042857D01*
X122744820Y-46042857D02*
X122792439Y-46185714D01*
X122792439Y-46185714D02*
X122840058Y-46233333D01*
X122744820Y-46566667D02*
X122744820Y-47233333D01*
X122744820Y-47233333D02*
X123744820Y-46804762D01*
X159185619Y-48659798D02*
X158709428Y-48326465D01*
X159185619Y-48088370D02*
X158185619Y-48088370D01*
X158185619Y-48088370D02*
X158185619Y-48469322D01*
X158185619Y-48469322D02*
X158233238Y-48564560D01*
X158233238Y-48564560D02*
X158280857Y-48612179D01*
X158280857Y-48612179D02*
X158376095Y-48659798D01*
X158376095Y-48659798D02*
X158518952Y-48659798D01*
X158518952Y-48659798D02*
X158614190Y-48612179D01*
X158614190Y-48612179D02*
X158661809Y-48564560D01*
X158661809Y-48564560D02*
X158709428Y-48469322D01*
X158709428Y-48469322D02*
X158709428Y-48088370D01*
X158518952Y-49516941D02*
X159185619Y-49516941D01*
X158138000Y-49278846D02*
X158852285Y-49040751D01*
X158852285Y-49040751D02*
X158852285Y-49659798D01*
X131129581Y-46143333D02*
X131177201Y-46095714D01*
X131177201Y-46095714D02*
X131224820Y-45952857D01*
X131224820Y-45952857D02*
X131224820Y-45857619D01*
X131224820Y-45857619D02*
X131177201Y-45714762D01*
X131177201Y-45714762D02*
X131081962Y-45619524D01*
X131081962Y-45619524D02*
X130986724Y-45571905D01*
X130986724Y-45571905D02*
X130796248Y-45524286D01*
X130796248Y-45524286D02*
X130653391Y-45524286D01*
X130653391Y-45524286D02*
X130462915Y-45571905D01*
X130462915Y-45571905D02*
X130367677Y-45619524D01*
X130367677Y-45619524D02*
X130272439Y-45714762D01*
X130272439Y-45714762D02*
X130224820Y-45857619D01*
X130224820Y-45857619D02*
X130224820Y-45952857D01*
X130224820Y-45952857D02*
X130272439Y-46095714D01*
X130272439Y-46095714D02*
X130320058Y-46143333D01*
X130558153Y-47000476D02*
X131224820Y-47000476D01*
X130177201Y-46762381D02*
X130891486Y-46524286D01*
X130891486Y-46524286D02*
X130891486Y-47143333D01*
X161389105Y-45585714D02*
X161389105Y-46061904D01*
X161674820Y-45490476D02*
X160674820Y-45823809D01*
X160674820Y-45823809D02*
X161674820Y-46157142D01*
X160674820Y-46395238D02*
X160674820Y-47014285D01*
X160674820Y-47014285D02*
X161055772Y-46680952D01*
X161055772Y-46680952D02*
X161055772Y-46823809D01*
X161055772Y-46823809D02*
X161103391Y-46919047D01*
X161103391Y-46919047D02*
X161151010Y-46966666D01*
X161151010Y-46966666D02*
X161246248Y-47014285D01*
X161246248Y-47014285D02*
X161484343Y-47014285D01*
X161484343Y-47014285D02*
X161579581Y-46966666D01*
X161579581Y-46966666D02*
X161627201Y-46919047D01*
X161627201Y-46919047D02*
X161674820Y-46823809D01*
X161674820Y-46823809D02*
X161674820Y-46538095D01*
X161674820Y-46538095D02*
X161627201Y-46442857D01*
X161627201Y-46442857D02*
X161579581Y-46395238D01*
X169059105Y-45585714D02*
X169059105Y-46061904D01*
X169344820Y-45490476D02*
X168344820Y-45823809D01*
X168344820Y-45823809D02*
X169344820Y-46157142D01*
X168344820Y-46680952D02*
X168344820Y-46776190D01*
X168344820Y-46776190D02*
X168392439Y-46871428D01*
X168392439Y-46871428D02*
X168440058Y-46919047D01*
X168440058Y-46919047D02*
X168535296Y-46966666D01*
X168535296Y-46966666D02*
X168725772Y-47014285D01*
X168725772Y-47014285D02*
X168963867Y-47014285D01*
X168963867Y-47014285D02*
X169154343Y-46966666D01*
X169154343Y-46966666D02*
X169249581Y-46919047D01*
X169249581Y-46919047D02*
X169297201Y-46871428D01*
X169297201Y-46871428D02*
X169344820Y-46776190D01*
X169344820Y-46776190D02*
X169344820Y-46680952D01*
X169344820Y-46680952D02*
X169297201Y-46585714D01*
X169297201Y-46585714D02*
X169249581Y-46538095D01*
X169249581Y-46538095D02*
X169154343Y-46490476D01*
X169154343Y-46490476D02*
X168963867Y-46442857D01*
X168963867Y-46442857D02*
X168725772Y-46442857D01*
X168725772Y-46442857D02*
X168535296Y-46490476D01*
X168535296Y-46490476D02*
X168440058Y-46538095D01*
X168440058Y-46538095D02*
X168392439Y-46585714D01*
X168392439Y-46585714D02*
X168344820Y-46680952D01*
X128549582Y-46143332D02*
X128597202Y-46095713D01*
X128597202Y-46095713D02*
X128644821Y-45952856D01*
X128644821Y-45952856D02*
X128644821Y-45857618D01*
X128644821Y-45857618D02*
X128597202Y-45714761D01*
X128597202Y-45714761D02*
X128501963Y-45619523D01*
X128501963Y-45619523D02*
X128406725Y-45571904D01*
X128406725Y-45571904D02*
X128216249Y-45524285D01*
X128216249Y-45524285D02*
X128073392Y-45524285D01*
X128073392Y-45524285D02*
X127882916Y-45571904D01*
X127882916Y-45571904D02*
X127787678Y-45619523D01*
X127787678Y-45619523D02*
X127692440Y-45714761D01*
X127692440Y-45714761D02*
X127644821Y-45857618D01*
X127644821Y-45857618D02*
X127644821Y-45952856D01*
X127644821Y-45952856D02*
X127692440Y-46095713D01*
X127692440Y-46095713D02*
X127740059Y-46143332D01*
X127644821Y-47048094D02*
X127644821Y-46571904D01*
X127644821Y-46571904D02*
X128121011Y-46524285D01*
X128121011Y-46524285D02*
X128073392Y-46571904D01*
X128073392Y-46571904D02*
X128025773Y-46667142D01*
X128025773Y-46667142D02*
X128025773Y-46905237D01*
X128025773Y-46905237D02*
X128073392Y-47000475D01*
X128073392Y-47000475D02*
X128121011Y-47048094D01*
X128121011Y-47048094D02*
X128216249Y-47095713D01*
X128216249Y-47095713D02*
X128454344Y-47095713D01*
X128454344Y-47095713D02*
X128549582Y-47048094D01*
X128549582Y-47048094D02*
X128597202Y-47000475D01*
X128597202Y-47000475D02*
X128644821Y-46905237D01*
X128644821Y-46905237D02*
X128644821Y-46667142D01*
X128644821Y-46667142D02*
X128597202Y-46571904D01*
X128597202Y-46571904D02*
X128549582Y-46524285D01*
X158839104Y-45585714D02*
X158839104Y-46061904D01*
X159124819Y-45490476D02*
X158124819Y-45823809D01*
X158124819Y-45823809D02*
X159124819Y-46157142D01*
X158458152Y-46919047D02*
X159124819Y-46919047D01*
X158077200Y-46680952D02*
X158791485Y-46442857D01*
X158791485Y-46442857D02*
X158791485Y-47061904D01*
X151289105Y-45595714D02*
X151289105Y-46071904D01*
X151574820Y-45500476D02*
X150574820Y-45833809D01*
X150574820Y-45833809D02*
X151574820Y-46167142D01*
X150574820Y-46405238D02*
X150574820Y-47071904D01*
X150574820Y-47071904D02*
X151574820Y-46643333D01*
X126049582Y-46143332D02*
X126097202Y-46095713D01*
X126097202Y-46095713D02*
X126144821Y-45952856D01*
X126144821Y-45952856D02*
X126144821Y-45857618D01*
X126144821Y-45857618D02*
X126097202Y-45714761D01*
X126097202Y-45714761D02*
X126001963Y-45619523D01*
X126001963Y-45619523D02*
X125906725Y-45571904D01*
X125906725Y-45571904D02*
X125716249Y-45524285D01*
X125716249Y-45524285D02*
X125573392Y-45524285D01*
X125573392Y-45524285D02*
X125382916Y-45571904D01*
X125382916Y-45571904D02*
X125287678Y-45619523D01*
X125287678Y-45619523D02*
X125192440Y-45714761D01*
X125192440Y-45714761D02*
X125144821Y-45857618D01*
X125144821Y-45857618D02*
X125144821Y-45952856D01*
X125144821Y-45952856D02*
X125192440Y-46095713D01*
X125192440Y-46095713D02*
X125240059Y-46143332D01*
X125144821Y-47000475D02*
X125144821Y-46809999D01*
X125144821Y-46809999D02*
X125192440Y-46714761D01*
X125192440Y-46714761D02*
X125240059Y-46667142D01*
X125240059Y-46667142D02*
X125382916Y-46571904D01*
X125382916Y-46571904D02*
X125573392Y-46524285D01*
X125573392Y-46524285D02*
X125954344Y-46524285D01*
X125954344Y-46524285D02*
X126049582Y-46571904D01*
X126049582Y-46571904D02*
X126097202Y-46619523D01*
X126097202Y-46619523D02*
X126144821Y-46714761D01*
X126144821Y-46714761D02*
X126144821Y-46905237D01*
X126144821Y-46905237D02*
X126097202Y-47000475D01*
X126097202Y-47000475D02*
X126049582Y-47048094D01*
X126049582Y-47048094D02*
X125954344Y-47095713D01*
X125954344Y-47095713D02*
X125716249Y-47095713D01*
X125716249Y-47095713D02*
X125621011Y-47048094D01*
X125621011Y-47048094D02*
X125573392Y-47000475D01*
X125573392Y-47000475D02*
X125525773Y-46905237D01*
X125525773Y-46905237D02*
X125525773Y-46714761D01*
X125525773Y-46714761D02*
X125573392Y-46619523D01*
X125573392Y-46619523D02*
X125621011Y-46571904D01*
X125621011Y-46571904D02*
X125716249Y-46524285D01*
X128610382Y-48669797D02*
X128658002Y-48622178D01*
X128658002Y-48622178D02*
X128705621Y-48479321D01*
X128705621Y-48479321D02*
X128705621Y-48384083D01*
X128705621Y-48384083D02*
X128658002Y-48241226D01*
X128658002Y-48241226D02*
X128562763Y-48145988D01*
X128562763Y-48145988D02*
X128467525Y-48098369D01*
X128467525Y-48098369D02*
X128277049Y-48050750D01*
X128277049Y-48050750D02*
X128134192Y-48050750D01*
X128134192Y-48050750D02*
X127943716Y-48098369D01*
X127943716Y-48098369D02*
X127848478Y-48145988D01*
X127848478Y-48145988D02*
X127753240Y-48241226D01*
X127753240Y-48241226D02*
X127705621Y-48384083D01*
X127705621Y-48384083D02*
X127705621Y-48479321D01*
X127705621Y-48479321D02*
X127753240Y-48622178D01*
X127753240Y-48622178D02*
X127800859Y-48669797D01*
X127705621Y-49574559D02*
X127705621Y-49098369D01*
X127705621Y-49098369D02*
X128181811Y-49050750D01*
X128181811Y-49050750D02*
X128134192Y-49098369D01*
X128134192Y-49098369D02*
X128086573Y-49193607D01*
X128086573Y-49193607D02*
X128086573Y-49431702D01*
X128086573Y-49431702D02*
X128134192Y-49526940D01*
X128134192Y-49526940D02*
X128181811Y-49574559D01*
X128181811Y-49574559D02*
X128277049Y-49622178D01*
X128277049Y-49622178D02*
X128515144Y-49622178D01*
X128515144Y-49622178D02*
X128610382Y-49574559D01*
X128610382Y-49574559D02*
X128658002Y-49526940D01*
X128658002Y-49526940D02*
X128705621Y-49431702D01*
X128705621Y-49431702D02*
X128705621Y-49193607D01*
X128705621Y-49193607D02*
X128658002Y-49098369D01*
X128658002Y-49098369D02*
X128610382Y-49050750D01*
X136189582Y-46143333D02*
X136237202Y-46095714D01*
X136237202Y-46095714D02*
X136284821Y-45952857D01*
X136284821Y-45952857D02*
X136284821Y-45857619D01*
X136284821Y-45857619D02*
X136237202Y-45714762D01*
X136237202Y-45714762D02*
X136141963Y-45619524D01*
X136141963Y-45619524D02*
X136046725Y-45571905D01*
X136046725Y-45571905D02*
X135856249Y-45524286D01*
X135856249Y-45524286D02*
X135713392Y-45524286D01*
X135713392Y-45524286D02*
X135522916Y-45571905D01*
X135522916Y-45571905D02*
X135427678Y-45619524D01*
X135427678Y-45619524D02*
X135332440Y-45714762D01*
X135332440Y-45714762D02*
X135284821Y-45857619D01*
X135284821Y-45857619D02*
X135284821Y-45952857D01*
X135284821Y-45952857D02*
X135332440Y-46095714D01*
X135332440Y-46095714D02*
X135380059Y-46143333D01*
X135380059Y-46524286D02*
X135332440Y-46571905D01*
X135332440Y-46571905D02*
X135284821Y-46667143D01*
X135284821Y-46667143D02*
X135284821Y-46905238D01*
X135284821Y-46905238D02*
X135332440Y-47000476D01*
X135332440Y-47000476D02*
X135380059Y-47048095D01*
X135380059Y-47048095D02*
X135475297Y-47095714D01*
X135475297Y-47095714D02*
X135570535Y-47095714D01*
X135570535Y-47095714D02*
X135713392Y-47048095D01*
X135713392Y-47048095D02*
X136284821Y-46476667D01*
X136284821Y-46476667D02*
X136284821Y-47095714D01*
X161735620Y-48659798D02*
X161259429Y-48326465D01*
X161735620Y-48088370D02*
X160735620Y-48088370D01*
X160735620Y-48088370D02*
X160735620Y-48469322D01*
X160735620Y-48469322D02*
X160783239Y-48564560D01*
X160783239Y-48564560D02*
X160830858Y-48612179D01*
X160830858Y-48612179D02*
X160926096Y-48659798D01*
X160926096Y-48659798D02*
X161068953Y-48659798D01*
X161068953Y-48659798D02*
X161164191Y-48612179D01*
X161164191Y-48612179D02*
X161211810Y-48564560D01*
X161211810Y-48564560D02*
X161259429Y-48469322D01*
X161259429Y-48469322D02*
X161259429Y-48088370D01*
X160735620Y-48993132D02*
X160735620Y-49612179D01*
X160735620Y-49612179D02*
X161116572Y-49278846D01*
X161116572Y-49278846D02*
X161116572Y-49421703D01*
X161116572Y-49421703D02*
X161164191Y-49516941D01*
X161164191Y-49516941D02*
X161211810Y-49564560D01*
X161211810Y-49564560D02*
X161307048Y-49612179D01*
X161307048Y-49612179D02*
X161545143Y-49612179D01*
X161545143Y-49612179D02*
X161640381Y-49564560D01*
X161640381Y-49564560D02*
X161688001Y-49516941D01*
X161688001Y-49516941D02*
X161735620Y-49421703D01*
X161735620Y-49421703D02*
X161735620Y-49135989D01*
X161735620Y-49135989D02*
X161688001Y-49040751D01*
X161688001Y-49040751D02*
X161640381Y-48993132D01*
X156695621Y-48669798D02*
X156219430Y-48336465D01*
X156695621Y-48098370D02*
X155695621Y-48098370D01*
X155695621Y-48098370D02*
X155695621Y-48479322D01*
X155695621Y-48479322D02*
X155743240Y-48574560D01*
X155743240Y-48574560D02*
X155790859Y-48622179D01*
X155790859Y-48622179D02*
X155886097Y-48669798D01*
X155886097Y-48669798D02*
X156028954Y-48669798D01*
X156028954Y-48669798D02*
X156124192Y-48622179D01*
X156124192Y-48622179D02*
X156171811Y-48574560D01*
X156171811Y-48574560D02*
X156219430Y-48479322D01*
X156219430Y-48479322D02*
X156219430Y-48098370D01*
X155695621Y-49574560D02*
X155695621Y-49098370D01*
X155695621Y-49098370D02*
X156171811Y-49050751D01*
X156171811Y-49050751D02*
X156124192Y-49098370D01*
X156124192Y-49098370D02*
X156076573Y-49193608D01*
X156076573Y-49193608D02*
X156076573Y-49431703D01*
X156076573Y-49431703D02*
X156124192Y-49526941D01*
X156124192Y-49526941D02*
X156171811Y-49574560D01*
X156171811Y-49574560D02*
X156267049Y-49622179D01*
X156267049Y-49622179D02*
X156505144Y-49622179D01*
X156505144Y-49622179D02*
X156600382Y-49574560D01*
X156600382Y-49574560D02*
X156648002Y-49526941D01*
X156648002Y-49526941D02*
X156695621Y-49431703D01*
X156695621Y-49431703D02*
X156695621Y-49193608D01*
X156695621Y-49193608D02*
X156648002Y-49098370D01*
X156648002Y-49098370D02*
X156600382Y-49050751D01*
X166855619Y-48659798D02*
X166379428Y-48326465D01*
X166855619Y-48088370D02*
X165855619Y-48088370D01*
X165855619Y-48088370D02*
X165855619Y-48469322D01*
X165855619Y-48469322D02*
X165903238Y-48564560D01*
X165903238Y-48564560D02*
X165950857Y-48612179D01*
X165950857Y-48612179D02*
X166046095Y-48659798D01*
X166046095Y-48659798D02*
X166188952Y-48659798D01*
X166188952Y-48659798D02*
X166284190Y-48612179D01*
X166284190Y-48612179D02*
X166331809Y-48564560D01*
X166331809Y-48564560D02*
X166379428Y-48469322D01*
X166379428Y-48469322D02*
X166379428Y-48088370D01*
X166855619Y-49612179D02*
X166855619Y-49040751D01*
X166855619Y-49326465D02*
X165855619Y-49326465D01*
X165855619Y-49326465D02*
X165998476Y-49231227D01*
X165998476Y-49231227D02*
X166093714Y-49135989D01*
X166093714Y-49135989D02*
X166141333Y-49040751D01*
X166509104Y-45585714D02*
X166509104Y-46061904D01*
X166794819Y-45490476D02*
X165794819Y-45823809D01*
X165794819Y-45823809D02*
X166794819Y-46157142D01*
X166794819Y-47014285D02*
X166794819Y-46442857D01*
X166794819Y-46728571D02*
X165794819Y-46728571D01*
X165794819Y-46728571D02*
X165937676Y-46633333D01*
X165937676Y-46633333D02*
X166032914Y-46538095D01*
X166032914Y-46538095D02*
X166080533Y-46442857D01*
X149075621Y-48574559D02*
X148408954Y-49098368D01*
X148408954Y-48574559D02*
X149075621Y-49098368D01*
X131190381Y-48669798D02*
X131238001Y-48622179D01*
X131238001Y-48622179D02*
X131285620Y-48479322D01*
X131285620Y-48479322D02*
X131285620Y-48384084D01*
X131285620Y-48384084D02*
X131238001Y-48241227D01*
X131238001Y-48241227D02*
X131142762Y-48145989D01*
X131142762Y-48145989D02*
X131047524Y-48098370D01*
X131047524Y-48098370D02*
X130857048Y-48050751D01*
X130857048Y-48050751D02*
X130714191Y-48050751D01*
X130714191Y-48050751D02*
X130523715Y-48098370D01*
X130523715Y-48098370D02*
X130428477Y-48145989D01*
X130428477Y-48145989D02*
X130333239Y-48241227D01*
X130333239Y-48241227D02*
X130285620Y-48384084D01*
X130285620Y-48384084D02*
X130285620Y-48479322D01*
X130285620Y-48479322D02*
X130333239Y-48622179D01*
X130333239Y-48622179D02*
X130380858Y-48669798D01*
X130618953Y-49526941D02*
X131285620Y-49526941D01*
X130238001Y-49288846D02*
X130952286Y-49050751D01*
X130952286Y-49050751D02*
X130952286Y-49669798D01*
X146555621Y-48574559D02*
X145888954Y-49098368D01*
X145888954Y-48574559D02*
X146555621Y-49098368D01*
X141290381Y-48659798D02*
X141338001Y-48612179D01*
X141338001Y-48612179D02*
X141385620Y-48469322D01*
X141385620Y-48469322D02*
X141385620Y-48374084D01*
X141385620Y-48374084D02*
X141338001Y-48231227D01*
X141338001Y-48231227D02*
X141242762Y-48135989D01*
X141242762Y-48135989D02*
X141147524Y-48088370D01*
X141147524Y-48088370D02*
X140957048Y-48040751D01*
X140957048Y-48040751D02*
X140814191Y-48040751D01*
X140814191Y-48040751D02*
X140623715Y-48088370D01*
X140623715Y-48088370D02*
X140528477Y-48135989D01*
X140528477Y-48135989D02*
X140433239Y-48231227D01*
X140433239Y-48231227D02*
X140385620Y-48374084D01*
X140385620Y-48374084D02*
X140385620Y-48469322D01*
X140385620Y-48469322D02*
X140433239Y-48612179D01*
X140433239Y-48612179D02*
X140480858Y-48659798D01*
X140385620Y-49278846D02*
X140385620Y-49374084D01*
X140385620Y-49374084D02*
X140433239Y-49469322D01*
X140433239Y-49469322D02*
X140480858Y-49516941D01*
X140480858Y-49516941D02*
X140576096Y-49564560D01*
X140576096Y-49564560D02*
X140766572Y-49612179D01*
X140766572Y-49612179D02*
X141004667Y-49612179D01*
X141004667Y-49612179D02*
X141195143Y-49564560D01*
X141195143Y-49564560D02*
X141290381Y-49516941D01*
X141290381Y-49516941D02*
X141338001Y-49469322D01*
X141338001Y-49469322D02*
X141385620Y-49374084D01*
X141385620Y-49374084D02*
X141385620Y-49278846D01*
X141385620Y-49278846D02*
X141338001Y-49183608D01*
X141338001Y-49183608D02*
X141290381Y-49135989D01*
X141290381Y-49135989D02*
X141195143Y-49088370D01*
X141195143Y-49088370D02*
X141004667Y-49040751D01*
X141004667Y-49040751D02*
X140766572Y-49040751D01*
X140766572Y-49040751D02*
X140576096Y-49088370D01*
X140576096Y-49088370D02*
X140480858Y-49135989D01*
X140480858Y-49135989D02*
X140433239Y-49183608D01*
X140433239Y-49183608D02*
X140385620Y-49278846D01*
X136250382Y-48669798D02*
X136298002Y-48622179D01*
X136298002Y-48622179D02*
X136345621Y-48479322D01*
X136345621Y-48479322D02*
X136345621Y-48384084D01*
X136345621Y-48384084D02*
X136298002Y-48241227D01*
X136298002Y-48241227D02*
X136202763Y-48145989D01*
X136202763Y-48145989D02*
X136107525Y-48098370D01*
X136107525Y-48098370D02*
X135917049Y-48050751D01*
X135917049Y-48050751D02*
X135774192Y-48050751D01*
X135774192Y-48050751D02*
X135583716Y-48098370D01*
X135583716Y-48098370D02*
X135488478Y-48145989D01*
X135488478Y-48145989D02*
X135393240Y-48241227D01*
X135393240Y-48241227D02*
X135345621Y-48384084D01*
X135345621Y-48384084D02*
X135345621Y-48479322D01*
X135345621Y-48479322D02*
X135393240Y-48622179D01*
X135393240Y-48622179D02*
X135440859Y-48669798D01*
X135440859Y-49050751D02*
X135393240Y-49098370D01*
X135393240Y-49098370D02*
X135345621Y-49193608D01*
X135345621Y-49193608D02*
X135345621Y-49431703D01*
X135345621Y-49431703D02*
X135393240Y-49526941D01*
X135393240Y-49526941D02*
X135440859Y-49574560D01*
X135440859Y-49574560D02*
X135536097Y-49622179D01*
X135536097Y-49622179D02*
X135631335Y-49622179D01*
X135631335Y-49622179D02*
X135774192Y-49574560D01*
X135774192Y-49574560D02*
X136345621Y-49003132D01*
X136345621Y-49003132D02*
X136345621Y-49622179D01*
X133700381Y-48669798D02*
X133748001Y-48622179D01*
X133748001Y-48622179D02*
X133795620Y-48479322D01*
X133795620Y-48479322D02*
X133795620Y-48384084D01*
X133795620Y-48384084D02*
X133748001Y-48241227D01*
X133748001Y-48241227D02*
X133652762Y-48145989D01*
X133652762Y-48145989D02*
X133557524Y-48098370D01*
X133557524Y-48098370D02*
X133367048Y-48050751D01*
X133367048Y-48050751D02*
X133224191Y-48050751D01*
X133224191Y-48050751D02*
X133033715Y-48098370D01*
X133033715Y-48098370D02*
X132938477Y-48145989D01*
X132938477Y-48145989D02*
X132843239Y-48241227D01*
X132843239Y-48241227D02*
X132795620Y-48384084D01*
X132795620Y-48384084D02*
X132795620Y-48479322D01*
X132795620Y-48479322D02*
X132843239Y-48622179D01*
X132843239Y-48622179D02*
X132890858Y-48669798D01*
X132795620Y-49003132D02*
X132795620Y-49622179D01*
X132795620Y-49622179D02*
X133176572Y-49288846D01*
X133176572Y-49288846D02*
X133176572Y-49431703D01*
X133176572Y-49431703D02*
X133224191Y-49526941D01*
X133224191Y-49526941D02*
X133271810Y-49574560D01*
X133271810Y-49574560D02*
X133367048Y-49622179D01*
X133367048Y-49622179D02*
X133605143Y-49622179D01*
X133605143Y-49622179D02*
X133700381Y-49574560D01*
X133700381Y-49574560D02*
X133748001Y-49526941D01*
X133748001Y-49526941D02*
X133795620Y-49431703D01*
X133795620Y-49431703D02*
X133795620Y-49145989D01*
X133795620Y-49145989D02*
X133748001Y-49050751D01*
X133748001Y-49050751D02*
X133700381Y-49003132D01*
X123649581Y-48633333D02*
X123697201Y-48585714D01*
X123697201Y-48585714D02*
X123744820Y-48442857D01*
X123744820Y-48442857D02*
X123744820Y-48347619D01*
X123744820Y-48347619D02*
X123697201Y-48204762D01*
X123697201Y-48204762D02*
X123601962Y-48109524D01*
X123601962Y-48109524D02*
X123506724Y-48061905D01*
X123506724Y-48061905D02*
X123316248Y-48014286D01*
X123316248Y-48014286D02*
X123173391Y-48014286D01*
X123173391Y-48014286D02*
X122982915Y-48061905D01*
X122982915Y-48061905D02*
X122887677Y-48109524D01*
X122887677Y-48109524D02*
X122792439Y-48204762D01*
X122792439Y-48204762D02*
X122744820Y-48347619D01*
X122744820Y-48347619D02*
X122744820Y-48442857D01*
X122744820Y-48442857D02*
X122792439Y-48585714D01*
X122792439Y-48585714D02*
X122840058Y-48633333D01*
X122744820Y-48966667D02*
X122744820Y-49633333D01*
X122744820Y-49633333D02*
X123744820Y-49204762D01*
X143924820Y-46048095D02*
X143258153Y-46571904D01*
X143258153Y-46048095D02*
X143924820Y-46571904D01*
X154145620Y-48669798D02*
X153669429Y-48336465D01*
X154145620Y-48098370D02*
X153145620Y-48098370D01*
X153145620Y-48098370D02*
X153145620Y-48479322D01*
X153145620Y-48479322D02*
X153193239Y-48574560D01*
X153193239Y-48574560D02*
X153240858Y-48622179D01*
X153240858Y-48622179D02*
X153336096Y-48669798D01*
X153336096Y-48669798D02*
X153478953Y-48669798D01*
X153478953Y-48669798D02*
X153574191Y-48622179D01*
X153574191Y-48622179D02*
X153621810Y-48574560D01*
X153621810Y-48574560D02*
X153669429Y-48479322D01*
X153669429Y-48479322D02*
X153669429Y-48098370D01*
X153145620Y-49526941D02*
X153145620Y-49336465D01*
X153145620Y-49336465D02*
X153193239Y-49241227D01*
X153193239Y-49241227D02*
X153240858Y-49193608D01*
X153240858Y-49193608D02*
X153383715Y-49098370D01*
X153383715Y-49098370D02*
X153574191Y-49050751D01*
X153574191Y-49050751D02*
X153955143Y-49050751D01*
X153955143Y-49050751D02*
X154050381Y-49098370D01*
X154050381Y-49098370D02*
X154098001Y-49145989D01*
X154098001Y-49145989D02*
X154145620Y-49241227D01*
X154145620Y-49241227D02*
X154145620Y-49431703D01*
X154145620Y-49431703D02*
X154098001Y-49526941D01*
X154098001Y-49526941D02*
X154050381Y-49574560D01*
X154050381Y-49574560D02*
X153955143Y-49622179D01*
X153955143Y-49622179D02*
X153717048Y-49622179D01*
X153717048Y-49622179D02*
X153621810Y-49574560D01*
X153621810Y-49574560D02*
X153574191Y-49526941D01*
X153574191Y-49526941D02*
X153526572Y-49431703D01*
X153526572Y-49431703D02*
X153526572Y-49241227D01*
X153526572Y-49241227D02*
X153574191Y-49145989D01*
X153574191Y-49145989D02*
X153621810Y-49098370D01*
X153621810Y-49098370D02*
X153717048Y-49050751D01*
D11*
%TO.C,G\u002A\u002A\u002A1*%
G36*
X94674316Y-124804044D02*
G01*
X94689384Y-124814742D01*
X94726566Y-124860296D01*
X94743006Y-124923076D01*
X94739993Y-125007074D01*
X94735450Y-125033222D01*
X94700734Y-125121319D01*
X94639283Y-125197125D01*
X94553711Y-125257132D01*
X94528806Y-125269925D01*
X94489059Y-125286980D01*
X94451016Y-125295659D01*
X94403787Y-125297889D01*
X94336485Y-125295598D01*
X94242831Y-125285599D01*
X94131511Y-125254679D01*
X94043239Y-125204648D01*
X93978890Y-125136246D01*
X93939337Y-125050212D01*
X93925453Y-124947288D01*
X93929407Y-124883540D01*
X93947518Y-124828038D01*
X93981712Y-124796439D01*
X94033548Y-124786422D01*
X94056943Y-124788293D01*
X94097991Y-124807312D01*
X94125397Y-124849580D01*
X94141927Y-124918471D01*
X94146228Y-124944643D01*
X94156612Y-124991747D01*
X94166803Y-125021699D01*
X94176165Y-125033946D01*
X94217276Y-125058872D01*
X94278829Y-125075525D01*
X94353607Y-125081590D01*
X94388645Y-125080403D01*
X94460201Y-125065820D01*
X94511632Y-125031823D01*
X94546963Y-124974881D01*
X94570215Y-124891462D01*
X94574575Y-124869745D01*
X94590116Y-124815419D01*
X94609574Y-124788330D01*
X94636468Y-124785523D01*
X94674316Y-124804044D01*
G37*
G36*
X96589564Y-124801972D02*
G01*
X96635931Y-124816750D01*
X96669416Y-124853579D01*
X96682295Y-124904095D01*
X96688529Y-124934826D01*
X96715618Y-124984680D01*
X96757376Y-125032488D01*
X96806334Y-125068360D01*
X96832372Y-125079912D01*
X96907474Y-125095460D01*
X96984547Y-125090989D01*
X97050647Y-125066595D01*
X97079861Y-125043957D01*
X97105095Y-125006673D01*
X97125993Y-124948585D01*
X97138551Y-124911347D01*
X97160323Y-124862605D01*
X97180974Y-124831473D01*
X97185660Y-124827110D01*
X97232403Y-124805161D01*
X97287252Y-124807564D01*
X97340444Y-124834156D01*
X97363520Y-124856331D01*
X97377767Y-124888377D01*
X97381377Y-124937996D01*
X97372610Y-125006222D01*
X97337452Y-125095178D01*
X97279436Y-125179268D01*
X97202895Y-125252517D01*
X97112167Y-125308952D01*
X97076174Y-125324896D01*
X97031747Y-125338199D01*
X96982447Y-125342961D01*
X96915322Y-125341312D01*
X96912552Y-125341165D01*
X96811261Y-125328536D01*
X96736668Y-125302972D01*
X96718845Y-125293035D01*
X96637359Y-125230090D01*
X96567542Y-125148367D01*
X96515614Y-125056374D01*
X96487795Y-124962618D01*
X96488369Y-124906510D01*
X96507733Y-124853207D01*
X96542425Y-124815965D01*
X96587974Y-124801957D01*
X96589564Y-124801972D01*
G37*
G36*
X98456513Y-125483011D02*
G01*
X98456587Y-125484676D01*
X98460209Y-125540253D01*
X98466958Y-125573379D01*
X98479974Y-125592468D01*
X98502401Y-125605935D01*
X98504494Y-125606851D01*
X98534262Y-125616747D01*
X98589258Y-125632770D01*
X98665217Y-125653762D01*
X98757875Y-125678559D01*
X98862965Y-125706001D01*
X98976223Y-125734928D01*
X99056095Y-125755183D01*
X99203573Y-125792900D01*
X99359510Y-125833113D01*
X99514256Y-125873321D01*
X99658156Y-125911020D01*
X99781561Y-125943709D01*
X99854363Y-125963131D01*
X99957298Y-125990545D01*
X100050331Y-126015268D01*
X100128432Y-126035966D01*
X100186575Y-126051306D01*
X100219730Y-126059953D01*
X100234201Y-126064055D01*
X100278972Y-126081526D01*
X100308397Y-126100004D01*
X100308976Y-126100589D01*
X100324147Y-126131655D01*
X100313796Y-126157961D01*
X100281929Y-126169052D01*
X100280994Y-126169018D01*
X100255359Y-126164592D01*
X100204251Y-126153420D01*
X100131875Y-126136501D01*
X100042436Y-126114838D01*
X99940139Y-126089431D01*
X99829188Y-126061282D01*
X99769011Y-126045954D01*
X99620191Y-126008662D01*
X99458676Y-125968881D01*
X99295148Y-125929212D01*
X99140295Y-125892257D01*
X99004802Y-125860617D01*
X98944340Y-125846707D01*
X98802628Y-125814153D01*
X98687440Y-125788006D01*
X98596027Y-125767928D01*
X98525641Y-125753585D01*
X98473534Y-125744639D01*
X98436958Y-125740753D01*
X98413163Y-125741594D01*
X98399402Y-125746822D01*
X98392926Y-125756103D01*
X98390986Y-125769099D01*
X98390835Y-125785473D01*
X98390799Y-125786756D01*
X98384952Y-125819427D01*
X98371100Y-125870060D01*
X98352065Y-125928257D01*
X98332697Y-125990786D01*
X98318858Y-126050237D01*
X98313555Y-126093710D01*
X98314821Y-126125289D01*
X98323787Y-126144985D01*
X98348011Y-126157279D01*
X98395047Y-126169163D01*
X98408889Y-126172436D01*
X98463171Y-126185932D01*
X98539678Y-126205512D01*
X98632814Y-126229694D01*
X98736982Y-126256998D01*
X98846587Y-126285943D01*
X98956032Y-126315047D01*
X99059721Y-126342829D01*
X99152056Y-126367810D01*
X99227445Y-126388507D01*
X99280288Y-126403440D01*
X99315622Y-126414750D01*
X99389259Y-126449081D01*
X99433066Y-126489713D01*
X99447555Y-126537058D01*
X99443033Y-126565628D01*
X99426120Y-126570310D01*
X99392361Y-126551227D01*
X99391279Y-126550485D01*
X99357740Y-126533834D01*
X99299355Y-126512486D01*
X99215010Y-126486110D01*
X99103591Y-126454378D01*
X98963984Y-126416955D01*
X98795077Y-126373510D01*
X98700476Y-126349655D01*
X98558836Y-126314427D01*
X98445206Y-126286910D01*
X98358333Y-126266818D01*
X98296970Y-126253865D01*
X98259865Y-126247768D01*
X98245766Y-126248240D01*
X98244735Y-126249616D01*
X98230943Y-126269533D01*
X98205466Y-126307053D01*
X98172862Y-126355474D01*
X98099602Y-126452404D01*
X97969519Y-126586787D01*
X97809800Y-126716399D01*
X97621145Y-126840690D01*
X97404256Y-126959108D01*
X97288162Y-127015205D01*
X96943562Y-127160158D01*
X96592675Y-127276383D01*
X96238049Y-127363110D01*
X95882233Y-127419567D01*
X95866591Y-127421312D01*
X95734430Y-127432237D01*
X95588340Y-127438653D01*
X95437256Y-127440562D01*
X95290111Y-127437969D01*
X95155842Y-127430875D01*
X95043381Y-127419285D01*
X94927253Y-127400650D01*
X94689339Y-127347731D01*
X94461152Y-127277322D01*
X94246701Y-127191137D01*
X94049992Y-127090893D01*
X93875033Y-126978305D01*
X93725831Y-126855091D01*
X93697751Y-126827638D01*
X93638378Y-126759046D01*
X93600967Y-126692673D01*
X93581410Y-126619663D01*
X93575602Y-126531161D01*
X93573572Y-126475878D01*
X93567204Y-126429782D01*
X93557410Y-126408416D01*
X93523114Y-126397955D01*
X93472942Y-126396213D01*
X93424974Y-126404709D01*
X93406838Y-126407452D01*
X93372540Y-126397214D01*
X93325561Y-126366292D01*
X93301153Y-126347853D01*
X93263043Y-126319166D01*
X93239117Y-126301293D01*
X93231036Y-126298219D01*
X93198470Y-126298231D01*
X93142864Y-126306856D01*
X93062616Y-126324426D01*
X92956130Y-126351272D01*
X92821805Y-126387725D01*
X92780028Y-126399278D01*
X92674537Y-126427989D01*
X92565565Y-126457078D01*
X92457296Y-126485485D01*
X92353914Y-126512145D01*
X92259603Y-126535999D01*
X92178546Y-126555980D01*
X92114927Y-126571028D01*
X92072930Y-126580079D01*
X92056740Y-126582070D01*
X92056009Y-126580096D01*
X92068481Y-126565448D01*
X92100240Y-126543249D01*
X92144085Y-126517763D01*
X92192817Y-126493254D01*
X92239236Y-126473986D01*
X92267179Y-126464716D01*
X92322968Y-126447122D01*
X92399505Y-126423503D01*
X92491960Y-126395340D01*
X92595500Y-126364111D01*
X92705292Y-126331296D01*
X92771018Y-126311644D01*
X92904213Y-126270783D01*
X93011341Y-126235705D01*
X93095178Y-126204884D01*
X93158501Y-126176794D01*
X93204083Y-126149908D01*
X93234706Y-126122701D01*
X93253140Y-126093647D01*
X93262166Y-126061219D01*
X93264558Y-126023893D01*
X93264221Y-126010196D01*
X93259107Y-125984952D01*
X93243572Y-125962550D01*
X93212230Y-125936679D01*
X93159695Y-125901028D01*
X93126759Y-125879354D01*
X93069802Y-125842806D01*
X93026945Y-125819692D01*
X92989746Y-125807972D01*
X92949764Y-125805606D01*
X92898561Y-125810558D01*
X92827695Y-125820780D01*
X92789959Y-125826765D01*
X92705464Y-125841939D01*
X92600969Y-125862221D01*
X92482901Y-125886246D01*
X92357689Y-125912650D01*
X92231760Y-125940068D01*
X92111543Y-125967136D01*
X92003465Y-125992488D01*
X91913957Y-126014761D01*
X91905544Y-126016927D01*
X91846756Y-126031036D01*
X91798406Y-126040997D01*
X91770256Y-126044770D01*
X91751041Y-126040562D01*
X91742940Y-126023190D01*
X91756163Y-125998889D01*
X91788812Y-125974813D01*
X91799032Y-125970135D01*
X91848436Y-125953070D01*
X91925179Y-125931339D01*
X92026842Y-125905519D01*
X92151005Y-125876190D01*
X92295248Y-125843928D01*
X92457151Y-125809312D01*
X92634294Y-125772918D01*
X92748072Y-125749688D01*
X92851367Y-125727713D01*
X92929458Y-125709773D01*
X92985208Y-125695104D01*
X93021483Y-125682947D01*
X93041147Y-125672537D01*
X93047065Y-125663113D01*
X93046657Y-125660697D01*
X93038691Y-125637155D01*
X93023761Y-125599622D01*
X93011270Y-125558143D01*
X93003028Y-125503556D01*
X93001099Y-125449739D01*
X93005774Y-125406511D01*
X93014344Y-125389609D01*
X93109206Y-125389609D01*
X93116878Y-125405837D01*
X93138559Y-125442598D01*
X93170866Y-125494221D01*
X93210409Y-125555161D01*
X93233643Y-125590650D01*
X93280571Y-125665953D01*
X93311651Y-125725324D01*
X93328657Y-125775336D01*
X93333366Y-125822559D01*
X93327551Y-125873567D01*
X93312987Y-125934930D01*
X93309395Y-125948480D01*
X93295811Y-126004543D01*
X93290830Y-126041552D01*
X93293991Y-126068446D01*
X93304838Y-126094166D01*
X93306225Y-126096770D01*
X93338814Y-126130678D01*
X93382050Y-126136264D01*
X93432992Y-126113094D01*
X93458743Y-126097461D01*
X93473109Y-126093675D01*
X93477599Y-126101389D01*
X93493973Y-126131924D01*
X93519088Y-126179824D01*
X93549713Y-126238960D01*
X93653523Y-126415013D01*
X93773648Y-126568497D01*
X93914265Y-126703521D01*
X94080154Y-126825371D01*
X94250576Y-126922103D01*
X94443739Y-127006938D01*
X94651647Y-127076992D01*
X94866918Y-127129778D01*
X95082172Y-127162812D01*
X95155294Y-127168646D01*
X95263235Y-127173432D01*
X95384707Y-127175807D01*
X95510808Y-127175786D01*
X95632636Y-127173386D01*
X95741288Y-127168621D01*
X95827860Y-127161508D01*
X95866448Y-127156909D01*
X96124630Y-127116320D01*
X96379851Y-127059748D01*
X96628636Y-126988648D01*
X96867508Y-126904479D01*
X97092992Y-126808696D01*
X97301611Y-126702756D01*
X97489891Y-126588116D01*
X97654355Y-126466232D01*
X97791528Y-126338561D01*
X97801738Y-126327556D01*
X97862157Y-126256342D01*
X97913907Y-126185460D01*
X97949582Y-126124917D01*
X97962160Y-126099876D01*
X97994029Y-126049926D01*
X98027083Y-126025460D01*
X98068111Y-126023162D01*
X98123902Y-126039713D01*
X98126353Y-126040638D01*
X98173127Y-126054458D01*
X98201100Y-126049530D01*
X98215839Y-126021770D01*
X98222914Y-125967096D01*
X98223808Y-125953884D01*
X98223620Y-125916487D01*
X98214704Y-125898888D01*
X98193620Y-125892291D01*
X98158780Y-125875790D01*
X98121724Y-125841785D01*
X98092390Y-125801209D01*
X98080459Y-125764957D01*
X98084598Y-125730821D01*
X98112667Y-125666156D01*
X98168459Y-125593467D01*
X98190534Y-125567944D01*
X98214707Y-125531170D01*
X98226997Y-125490703D01*
X98232891Y-125432861D01*
X98231989Y-125351136D01*
X98214107Y-125277207D01*
X98195180Y-125220989D01*
X98191693Y-125165164D01*
X98210625Y-125120375D01*
X98214670Y-125113958D01*
X98225566Y-125074614D01*
X98225748Y-125015130D01*
X98214930Y-124934116D01*
X98192829Y-124830183D01*
X98159155Y-124701941D01*
X98113627Y-124547999D01*
X98055958Y-124366972D01*
X98044557Y-124332170D01*
X98001212Y-124199822D01*
X97966063Y-124090533D01*
X97938211Y-123998968D01*
X97916759Y-123919788D01*
X97900809Y-123847655D01*
X97889462Y-123777235D01*
X97881820Y-123703187D01*
X97876986Y-123620174D01*
X97874061Y-123522860D01*
X97872144Y-123405906D01*
X97870341Y-123263975D01*
X97869998Y-123238123D01*
X97867474Y-123067309D01*
X97864749Y-122923429D01*
X97861639Y-122802849D01*
X97857958Y-122701933D01*
X97853523Y-122617048D01*
X97848145Y-122544557D01*
X97841640Y-122480827D01*
X97833826Y-122422222D01*
X97824511Y-122365107D01*
X97814416Y-122310545D01*
X97800775Y-122252307D01*
X97785346Y-122211454D01*
X97764851Y-122180027D01*
X97736017Y-122150068D01*
X97733249Y-122147516D01*
X97664984Y-122102369D01*
X97578527Y-122076208D01*
X97469801Y-122067767D01*
X97427339Y-122068825D01*
X97364559Y-122076100D01*
X97305792Y-122092384D01*
X97247013Y-122120118D01*
X97184194Y-122161743D01*
X97113313Y-122219701D01*
X97030341Y-122296434D01*
X96931254Y-122394383D01*
X96858070Y-122467336D01*
X96777495Y-122544038D01*
X96709391Y-122602539D01*
X96649111Y-122645657D01*
X96592005Y-122676213D01*
X96533426Y-122697024D01*
X96468726Y-122710911D01*
X96393257Y-122720692D01*
X96366830Y-122722926D01*
X96295757Y-122726599D01*
X96200817Y-122729575D01*
X96086717Y-122731853D01*
X95958158Y-122733434D01*
X95819843Y-122734315D01*
X95676472Y-122734497D01*
X95532749Y-122733979D01*
X95393374Y-122732760D01*
X95263054Y-122730840D01*
X95146488Y-122728219D01*
X95048377Y-122724896D01*
X94973427Y-122720868D01*
X94867896Y-122711457D01*
X94766700Y-122696298D01*
X94676944Y-122673692D01*
X94593215Y-122641072D01*
X94510095Y-122595871D01*
X94422169Y-122535521D01*
X94324020Y-122457456D01*
X94210233Y-122359108D01*
X94208409Y-122357491D01*
X94114794Y-122276321D01*
X94037784Y-122214535D01*
X93972266Y-122169436D01*
X93913127Y-122138327D01*
X93855252Y-122118508D01*
X93793530Y-122107282D01*
X93722845Y-122101952D01*
X93673041Y-122100163D01*
X93618915Y-122100607D01*
X93578493Y-122106285D01*
X93541481Y-122118955D01*
X93497585Y-122140371D01*
X93494681Y-122141886D01*
X93440274Y-122174937D01*
X93403671Y-122211260D01*
X93373304Y-122262195D01*
X93362101Y-122285317D01*
X93350973Y-122313249D01*
X93343383Y-122343595D01*
X93338703Y-122382085D01*
X93336304Y-122434449D01*
X93335559Y-122506422D01*
X93335837Y-122603731D01*
X93335921Y-122615674D01*
X93341276Y-122792233D01*
X93353886Y-122984335D01*
X93372885Y-123178532D01*
X93379200Y-123236273D01*
X93395253Y-123416402D01*
X93405924Y-123593248D01*
X93410334Y-123753333D01*
X93410732Y-123826048D01*
X93410362Y-123900307D01*
X93408193Y-123961765D01*
X93403341Y-124017596D01*
X93394919Y-124074973D01*
X93382042Y-124141073D01*
X93363825Y-124223068D01*
X93339381Y-124328134D01*
X93317292Y-124423790D01*
X93290698Y-124541793D01*
X93265101Y-124658084D01*
X93242590Y-124763163D01*
X93225251Y-124847532D01*
X93209066Y-124930596D01*
X93198522Y-124990979D01*
X93193593Y-125032906D01*
X93193897Y-125062409D01*
X93199050Y-125085521D01*
X93208668Y-125108273D01*
X93213142Y-125118378D01*
X93229965Y-125182385D01*
X93231626Y-125247484D01*
X93217492Y-125299943D01*
X93192673Y-125328031D01*
X93155351Y-125353695D01*
X93151739Y-125355598D01*
X93121582Y-125375016D01*
X93109206Y-125389609D01*
X93014344Y-125389609D01*
X93017345Y-125383691D01*
X93020527Y-125379743D01*
X93013566Y-125357357D01*
X92984040Y-125321472D01*
X92976283Y-125313545D01*
X92958947Y-125297519D01*
X92939952Y-125284735D01*
X92915625Y-125274607D01*
X92882294Y-125266554D01*
X92836287Y-125259992D01*
X92773932Y-125254339D01*
X92691556Y-125249010D01*
X92585486Y-125243423D01*
X92452051Y-125236994D01*
X92427228Y-125235772D01*
X92330262Y-125230156D01*
X92243777Y-125223857D01*
X92172915Y-125217333D01*
X92122817Y-125211043D01*
X92098626Y-125205446D01*
X92080815Y-125190445D01*
X92068350Y-125160851D01*
X92071110Y-125148676D01*
X92086692Y-125135999D01*
X92121332Y-125125552D01*
X92180980Y-125114908D01*
X92268714Y-125101791D01*
X92412321Y-125082281D01*
X92556320Y-125064816D01*
X92690400Y-125050619D01*
X92804251Y-125040914D01*
X92863899Y-125036706D01*
X92913723Y-125030458D01*
X92947193Y-125018020D01*
X92968446Y-124994477D01*
X92981620Y-124954912D01*
X92990852Y-124894411D01*
X93000280Y-124808059D01*
X93001142Y-124800392D01*
X93012363Y-124721573D01*
X93029156Y-124625515D01*
X93049398Y-124523660D01*
X93070962Y-124427448D01*
X93092112Y-124335953D01*
X93116974Y-124213096D01*
X93135195Y-124096869D01*
X93146982Y-123981952D01*
X93152540Y-123863019D01*
X93152072Y-123734747D01*
X93145783Y-123591815D01*
X93133877Y-123428897D01*
X93116559Y-123240673D01*
X93113655Y-123209762D01*
X93104473Y-123088415D01*
X93097654Y-122958942D01*
X93093246Y-122826926D01*
X93091293Y-122697949D01*
X93091842Y-122577595D01*
X93094940Y-122471447D01*
X93100633Y-122385087D01*
X93108967Y-122324098D01*
X93111042Y-122314407D01*
X93147810Y-122197719D01*
X93204791Y-122098893D01*
X93286928Y-122009181D01*
X93341675Y-121963788D01*
X93437762Y-121907371D01*
X93543017Y-121875748D01*
X93665171Y-121865995D01*
X93721063Y-121867581D01*
X93834308Y-121881845D01*
X93943393Y-121912771D01*
X94053749Y-121962597D01*
X94170809Y-122033566D01*
X94300007Y-122127919D01*
X94359950Y-122174353D01*
X94466506Y-122255054D01*
X94555116Y-122319112D01*
X94629462Y-122369054D01*
X94693222Y-122407403D01*
X94750079Y-122436685D01*
X94841377Y-122479449D01*
X95509389Y-122484226D01*
X95562227Y-122484581D01*
X95745837Y-122485355D01*
X95901879Y-122485065D01*
X96033123Y-122483544D01*
X96142336Y-122480621D01*
X96232288Y-122476126D01*
X96305747Y-122469891D01*
X96365482Y-122461745D01*
X96414259Y-122451519D01*
X96454849Y-122439044D01*
X96490021Y-122424149D01*
X96502297Y-122417259D01*
X96544637Y-122387608D01*
X96600894Y-122343050D01*
X96665200Y-122288341D01*
X96731686Y-122228239D01*
X96745977Y-122214939D01*
X96869462Y-122103376D01*
X96977284Y-122013237D01*
X97073138Y-121942204D01*
X97160718Y-121887966D01*
X97243718Y-121848208D01*
X97325833Y-121820616D01*
X97410756Y-121802876D01*
X97538928Y-121793631D01*
X97671045Y-121810084D01*
X97789905Y-121854478D01*
X97894663Y-121926359D01*
X97984472Y-122025273D01*
X98058486Y-122150765D01*
X98066846Y-122168534D01*
X98089308Y-122219099D01*
X98108035Y-122267932D01*
X98123368Y-122318316D01*
X98135649Y-122373530D01*
X98145220Y-122436853D01*
X98152427Y-122511565D01*
X98157606Y-122600947D01*
X98161104Y-122708277D01*
X98163262Y-122836837D01*
X98164421Y-122989906D01*
X98164925Y-123170764D01*
X98165903Y-123831009D01*
X98208117Y-123978592D01*
X98226943Y-124041050D01*
X98256130Y-124131521D01*
X98288798Y-124227872D01*
X98320780Y-124317559D01*
X98337332Y-124362936D01*
X98388298Y-124510090D01*
X98426935Y-124636223D01*
X98454600Y-124746565D01*
X98472647Y-124846345D01*
X98482435Y-124940792D01*
X98492142Y-125089358D01*
X99028268Y-125097792D01*
X99129995Y-125099602D01*
X99249252Y-125102290D01*
X99355999Y-125105318D01*
X99446524Y-125108553D01*
X99517115Y-125111856D01*
X99564061Y-125115093D01*
X99583650Y-125118128D01*
X99599787Y-125133404D01*
X99596604Y-125153771D01*
X99572151Y-125187144D01*
X99570866Y-125188661D01*
X99559401Y-125199742D01*
X99543687Y-125209304D01*
X99520755Y-125217773D01*
X99487634Y-125225577D01*
X99441351Y-125233139D01*
X99378940Y-125240886D01*
X99297427Y-125249244D01*
X99193841Y-125258638D01*
X99065213Y-125269494D01*
X98908572Y-125282238D01*
X98873075Y-125285114D01*
X98763970Y-125294315D01*
X98680485Y-125302240D01*
X98618412Y-125309542D01*
X98573545Y-125316871D01*
X98541675Y-125324882D01*
X98518595Y-125334225D01*
X98500099Y-125345554D01*
X98491141Y-125352011D01*
X98469213Y-125371122D01*
X98458117Y-125393062D01*
X98454877Y-125427228D01*
X98455042Y-125432861D01*
X98456513Y-125483011D01*
G37*
%TO.C,G\u002A\u002A\u002A*%
G36*
X144674316Y-124804044D02*
G01*
X144689384Y-124814742D01*
X144726566Y-124860296D01*
X144743006Y-124923076D01*
X144739993Y-125007074D01*
X144735450Y-125033222D01*
X144700734Y-125121319D01*
X144639283Y-125197125D01*
X144553711Y-125257132D01*
X144528806Y-125269925D01*
X144489059Y-125286980D01*
X144451016Y-125295659D01*
X144403787Y-125297889D01*
X144336485Y-125295598D01*
X144242831Y-125285599D01*
X144131511Y-125254679D01*
X144043239Y-125204648D01*
X143978890Y-125136246D01*
X143939337Y-125050212D01*
X143925453Y-124947288D01*
X143929407Y-124883540D01*
X143947518Y-124828038D01*
X143981712Y-124796439D01*
X144033548Y-124786422D01*
X144056943Y-124788293D01*
X144097991Y-124807312D01*
X144125397Y-124849580D01*
X144141927Y-124918471D01*
X144146228Y-124944643D01*
X144156612Y-124991747D01*
X144166803Y-125021699D01*
X144176165Y-125033946D01*
X144217276Y-125058872D01*
X144278829Y-125075525D01*
X144353607Y-125081590D01*
X144388645Y-125080403D01*
X144460201Y-125065820D01*
X144511632Y-125031823D01*
X144546963Y-124974881D01*
X144570215Y-124891462D01*
X144574575Y-124869745D01*
X144590116Y-124815419D01*
X144609574Y-124788330D01*
X144636468Y-124785523D01*
X144674316Y-124804044D01*
G37*
G36*
X146589564Y-124801972D02*
G01*
X146635931Y-124816750D01*
X146669416Y-124853579D01*
X146682295Y-124904095D01*
X146688529Y-124934826D01*
X146715618Y-124984680D01*
X146757376Y-125032488D01*
X146806334Y-125068360D01*
X146832372Y-125079912D01*
X146907474Y-125095460D01*
X146984547Y-125090989D01*
X147050647Y-125066595D01*
X147079861Y-125043957D01*
X147105095Y-125006673D01*
X147125993Y-124948585D01*
X147138551Y-124911347D01*
X147160323Y-124862605D01*
X147180974Y-124831473D01*
X147185660Y-124827110D01*
X147232403Y-124805161D01*
X147287252Y-124807564D01*
X147340444Y-124834156D01*
X147363520Y-124856331D01*
X147377767Y-124888377D01*
X147381377Y-124937996D01*
X147372610Y-125006222D01*
X147337452Y-125095178D01*
X147279436Y-125179268D01*
X147202895Y-125252517D01*
X147112167Y-125308952D01*
X147076174Y-125324896D01*
X147031747Y-125338199D01*
X146982447Y-125342961D01*
X146915322Y-125341312D01*
X146912552Y-125341165D01*
X146811261Y-125328536D01*
X146736668Y-125302972D01*
X146718845Y-125293035D01*
X146637359Y-125230090D01*
X146567542Y-125148367D01*
X146515614Y-125056374D01*
X146487795Y-124962618D01*
X146488369Y-124906510D01*
X146507733Y-124853207D01*
X146542425Y-124815965D01*
X146587974Y-124801957D01*
X146589564Y-124801972D01*
G37*
G36*
X148456513Y-125483011D02*
G01*
X148456587Y-125484676D01*
X148460209Y-125540253D01*
X148466958Y-125573379D01*
X148479974Y-125592468D01*
X148502401Y-125605935D01*
X148504494Y-125606851D01*
X148534262Y-125616747D01*
X148589258Y-125632770D01*
X148665217Y-125653762D01*
X148757875Y-125678559D01*
X148862965Y-125706001D01*
X148976223Y-125734928D01*
X149056095Y-125755183D01*
X149203573Y-125792900D01*
X149359510Y-125833113D01*
X149514256Y-125873321D01*
X149658156Y-125911020D01*
X149781561Y-125943709D01*
X149854363Y-125963131D01*
X149957298Y-125990545D01*
X150050331Y-126015268D01*
X150128432Y-126035966D01*
X150186575Y-126051306D01*
X150219730Y-126059953D01*
X150234201Y-126064055D01*
X150278972Y-126081526D01*
X150308397Y-126100004D01*
X150308976Y-126100589D01*
X150324147Y-126131655D01*
X150313796Y-126157961D01*
X150281929Y-126169052D01*
X150280994Y-126169018D01*
X150255359Y-126164592D01*
X150204251Y-126153420D01*
X150131875Y-126136501D01*
X150042436Y-126114838D01*
X149940139Y-126089431D01*
X149829188Y-126061282D01*
X149769011Y-126045954D01*
X149620191Y-126008662D01*
X149458676Y-125968881D01*
X149295148Y-125929212D01*
X149140295Y-125892257D01*
X149004802Y-125860617D01*
X148944340Y-125846707D01*
X148802628Y-125814153D01*
X148687440Y-125788006D01*
X148596027Y-125767928D01*
X148525641Y-125753585D01*
X148473534Y-125744639D01*
X148436958Y-125740753D01*
X148413163Y-125741594D01*
X148399402Y-125746822D01*
X148392926Y-125756103D01*
X148390986Y-125769099D01*
X148390835Y-125785473D01*
X148390799Y-125786756D01*
X148384952Y-125819427D01*
X148371100Y-125870060D01*
X148352065Y-125928257D01*
X148332697Y-125990786D01*
X148318858Y-126050237D01*
X148313555Y-126093710D01*
X148314821Y-126125289D01*
X148323787Y-126144985D01*
X148348011Y-126157279D01*
X148395047Y-126169163D01*
X148408889Y-126172436D01*
X148463171Y-126185932D01*
X148539678Y-126205512D01*
X148632814Y-126229694D01*
X148736982Y-126256998D01*
X148846587Y-126285943D01*
X148956032Y-126315047D01*
X149059721Y-126342829D01*
X149152056Y-126367810D01*
X149227445Y-126388507D01*
X149280288Y-126403440D01*
X149315622Y-126414750D01*
X149389259Y-126449081D01*
X149433066Y-126489713D01*
X149447555Y-126537058D01*
X149443033Y-126565628D01*
X149426120Y-126570310D01*
X149392361Y-126551227D01*
X149391279Y-126550485D01*
X149357740Y-126533834D01*
X149299355Y-126512486D01*
X149215010Y-126486110D01*
X149103591Y-126454378D01*
X148963984Y-126416955D01*
X148795077Y-126373510D01*
X148700476Y-126349655D01*
X148558836Y-126314427D01*
X148445206Y-126286910D01*
X148358333Y-126266818D01*
X148296970Y-126253865D01*
X148259865Y-126247768D01*
X148245766Y-126248240D01*
X148244735Y-126249616D01*
X148230943Y-126269533D01*
X148205466Y-126307053D01*
X148172862Y-126355474D01*
X148099602Y-126452404D01*
X147969519Y-126586787D01*
X147809800Y-126716399D01*
X147621145Y-126840690D01*
X147404256Y-126959108D01*
X147288162Y-127015205D01*
X146943562Y-127160158D01*
X146592675Y-127276383D01*
X146238049Y-127363110D01*
X145882233Y-127419567D01*
X145866591Y-127421312D01*
X145734430Y-127432237D01*
X145588340Y-127438653D01*
X145437256Y-127440562D01*
X145290111Y-127437969D01*
X145155842Y-127430875D01*
X145043381Y-127419285D01*
X144927253Y-127400650D01*
X144689339Y-127347731D01*
X144461152Y-127277322D01*
X144246701Y-127191137D01*
X144049992Y-127090893D01*
X143875033Y-126978305D01*
X143725831Y-126855091D01*
X143697751Y-126827638D01*
X143638378Y-126759046D01*
X143600967Y-126692673D01*
X143581410Y-126619663D01*
X143575602Y-126531161D01*
X143573572Y-126475878D01*
X143567204Y-126429782D01*
X143557410Y-126408416D01*
X143523114Y-126397955D01*
X143472942Y-126396213D01*
X143424974Y-126404709D01*
X143406838Y-126407452D01*
X143372540Y-126397214D01*
X143325561Y-126366292D01*
X143301153Y-126347853D01*
X143263043Y-126319166D01*
X143239117Y-126301293D01*
X143231036Y-126298219D01*
X143198470Y-126298231D01*
X143142864Y-126306856D01*
X143062616Y-126324426D01*
X142956130Y-126351272D01*
X142821805Y-126387725D01*
X142780028Y-126399278D01*
X142674537Y-126427989D01*
X142565565Y-126457078D01*
X142457296Y-126485485D01*
X142353914Y-126512145D01*
X142259603Y-126535999D01*
X142178546Y-126555980D01*
X142114927Y-126571028D01*
X142072930Y-126580079D01*
X142056740Y-126582070D01*
X142056009Y-126580096D01*
X142068481Y-126565448D01*
X142100240Y-126543249D01*
X142144085Y-126517763D01*
X142192817Y-126493254D01*
X142239236Y-126473986D01*
X142267179Y-126464716D01*
X142322968Y-126447122D01*
X142399505Y-126423503D01*
X142491960Y-126395340D01*
X142595500Y-126364111D01*
X142705292Y-126331296D01*
X142771018Y-126311644D01*
X142904213Y-126270783D01*
X143011341Y-126235705D01*
X143095178Y-126204884D01*
X143158501Y-126176794D01*
X143204083Y-126149908D01*
X143234706Y-126122701D01*
X143253140Y-126093647D01*
X143262166Y-126061219D01*
X143264558Y-126023893D01*
X143264221Y-126010196D01*
X143259107Y-125984952D01*
X143243572Y-125962550D01*
X143212230Y-125936679D01*
X143159695Y-125901028D01*
X143126759Y-125879354D01*
X143069802Y-125842806D01*
X143026945Y-125819692D01*
X142989746Y-125807972D01*
X142949764Y-125805606D01*
X142898561Y-125810558D01*
X142827695Y-125820780D01*
X142789959Y-125826765D01*
X142705464Y-125841939D01*
X142600969Y-125862221D01*
X142482901Y-125886246D01*
X142357689Y-125912650D01*
X142231760Y-125940068D01*
X142111543Y-125967136D01*
X142003465Y-125992488D01*
X141913957Y-126014761D01*
X141905544Y-126016927D01*
X141846756Y-126031036D01*
X141798406Y-126040997D01*
X141770256Y-126044770D01*
X141751041Y-126040562D01*
X141742940Y-126023190D01*
X141756163Y-125998889D01*
X141788812Y-125974813D01*
X141799032Y-125970135D01*
X141848436Y-125953070D01*
X141925179Y-125931339D01*
X142026842Y-125905519D01*
X142151005Y-125876190D01*
X142295248Y-125843928D01*
X142457151Y-125809312D01*
X142634294Y-125772918D01*
X142748072Y-125749688D01*
X142851367Y-125727713D01*
X142929458Y-125709773D01*
X142985208Y-125695104D01*
X143021483Y-125682947D01*
X143041147Y-125672537D01*
X143047065Y-125663113D01*
X143046657Y-125660697D01*
X143038691Y-125637155D01*
X143023761Y-125599622D01*
X143011270Y-125558143D01*
X143003028Y-125503556D01*
X143001099Y-125449739D01*
X143005774Y-125406511D01*
X143014344Y-125389609D01*
X143109206Y-125389609D01*
X143116878Y-125405837D01*
X143138559Y-125442598D01*
X143170866Y-125494221D01*
X143210409Y-125555161D01*
X143233643Y-125590650D01*
X143280571Y-125665953D01*
X143311651Y-125725324D01*
X143328657Y-125775336D01*
X143333366Y-125822559D01*
X143327551Y-125873567D01*
X143312987Y-125934930D01*
X143309395Y-125948480D01*
X143295811Y-126004543D01*
X143290830Y-126041552D01*
X143293991Y-126068446D01*
X143304838Y-126094166D01*
X143306225Y-126096770D01*
X143338814Y-126130678D01*
X143382050Y-126136264D01*
X143432992Y-126113094D01*
X143458743Y-126097461D01*
X143473109Y-126093675D01*
X143477599Y-126101389D01*
X143493973Y-126131924D01*
X143519088Y-126179824D01*
X143549713Y-126238960D01*
X143653523Y-126415013D01*
X143773648Y-126568497D01*
X143914265Y-126703521D01*
X144080154Y-126825371D01*
X144250576Y-126922103D01*
X144443739Y-127006938D01*
X144651647Y-127076992D01*
X144866918Y-127129778D01*
X145082172Y-127162812D01*
X145155294Y-127168646D01*
X145263235Y-127173432D01*
X145384707Y-127175807D01*
X145510808Y-127175786D01*
X145632636Y-127173386D01*
X145741288Y-127168621D01*
X145827860Y-127161508D01*
X145866448Y-127156909D01*
X146124630Y-127116320D01*
X146379851Y-127059748D01*
X146628636Y-126988648D01*
X146867508Y-126904479D01*
X147092992Y-126808696D01*
X147301611Y-126702756D01*
X147489891Y-126588116D01*
X147654355Y-126466232D01*
X147791528Y-126338561D01*
X147801738Y-126327556D01*
X147862157Y-126256342D01*
X147913907Y-126185460D01*
X147949582Y-126124917D01*
X147962160Y-126099876D01*
X147994029Y-126049926D01*
X148027083Y-126025460D01*
X148068111Y-126023162D01*
X148123902Y-126039713D01*
X148126353Y-126040638D01*
X148173127Y-126054458D01*
X148201100Y-126049530D01*
X148215839Y-126021770D01*
X148222914Y-125967096D01*
X148223808Y-125953884D01*
X148223620Y-125916487D01*
X148214704Y-125898888D01*
X148193620Y-125892291D01*
X148158780Y-125875790D01*
X148121724Y-125841785D01*
X148092390Y-125801209D01*
X148080459Y-125764957D01*
X148084598Y-125730821D01*
X148112667Y-125666156D01*
X148168459Y-125593467D01*
X148190534Y-125567944D01*
X148214707Y-125531170D01*
X148226997Y-125490703D01*
X148232891Y-125432861D01*
X148231989Y-125351136D01*
X148214107Y-125277207D01*
X148195180Y-125220989D01*
X148191693Y-125165164D01*
X148210625Y-125120375D01*
X148214670Y-125113958D01*
X148225566Y-125074614D01*
X148225748Y-125015130D01*
X148214930Y-124934116D01*
X148192829Y-124830183D01*
X148159155Y-124701941D01*
X148113627Y-124547999D01*
X148055958Y-124366972D01*
X148044557Y-124332170D01*
X148001212Y-124199822D01*
X147966063Y-124090533D01*
X147938211Y-123998968D01*
X147916759Y-123919788D01*
X147900809Y-123847655D01*
X147889462Y-123777235D01*
X147881820Y-123703187D01*
X147876986Y-123620174D01*
X147874061Y-123522860D01*
X147872144Y-123405906D01*
X147870341Y-123263975D01*
X147869998Y-123238123D01*
X147867474Y-123067309D01*
X147864749Y-122923429D01*
X147861639Y-122802849D01*
X147857958Y-122701933D01*
X147853523Y-122617048D01*
X147848145Y-122544557D01*
X147841640Y-122480827D01*
X147833826Y-122422222D01*
X147824511Y-122365107D01*
X147814416Y-122310545D01*
X147800775Y-122252307D01*
X147785346Y-122211454D01*
X147764851Y-122180027D01*
X147736017Y-122150068D01*
X147733249Y-122147516D01*
X147664984Y-122102369D01*
X147578527Y-122076208D01*
X147469801Y-122067767D01*
X147427339Y-122068825D01*
X147364559Y-122076100D01*
X147305792Y-122092384D01*
X147247013Y-122120118D01*
X147184194Y-122161743D01*
X147113313Y-122219701D01*
X147030341Y-122296434D01*
X146931254Y-122394383D01*
X146858070Y-122467336D01*
X146777495Y-122544038D01*
X146709391Y-122602539D01*
X146649111Y-122645657D01*
X146592005Y-122676213D01*
X146533426Y-122697024D01*
X146468726Y-122710911D01*
X146393257Y-122720692D01*
X146366830Y-122722926D01*
X146295757Y-122726599D01*
X146200817Y-122729575D01*
X146086717Y-122731853D01*
X145958158Y-122733434D01*
X145819843Y-122734315D01*
X145676472Y-122734497D01*
X145532749Y-122733979D01*
X145393374Y-122732760D01*
X145263054Y-122730840D01*
X145146488Y-122728219D01*
X145048377Y-122724896D01*
X144973427Y-122720868D01*
X144867896Y-122711457D01*
X144766700Y-122696298D01*
X144676944Y-122673692D01*
X144593215Y-122641072D01*
X144510095Y-122595871D01*
X144422169Y-122535521D01*
X144324020Y-122457456D01*
X144210233Y-122359108D01*
X144208409Y-122357491D01*
X144114794Y-122276321D01*
X144037784Y-122214535D01*
X143972266Y-122169436D01*
X143913127Y-122138327D01*
X143855252Y-122118508D01*
X143793530Y-122107282D01*
X143722845Y-122101952D01*
X143673041Y-122100163D01*
X143618915Y-122100607D01*
X143578493Y-122106285D01*
X143541481Y-122118955D01*
X143497585Y-122140371D01*
X143494681Y-122141886D01*
X143440274Y-122174937D01*
X143403671Y-122211260D01*
X143373304Y-122262195D01*
X143362101Y-122285317D01*
X143350973Y-122313249D01*
X143343383Y-122343595D01*
X143338703Y-122382085D01*
X143336304Y-122434449D01*
X143335559Y-122506422D01*
X143335837Y-122603731D01*
X143335921Y-122615674D01*
X143341276Y-122792233D01*
X143353886Y-122984335D01*
X143372885Y-123178532D01*
X143379200Y-123236273D01*
X143395253Y-123416402D01*
X143405924Y-123593248D01*
X143410334Y-123753333D01*
X143410732Y-123826048D01*
X143410362Y-123900307D01*
X143408193Y-123961765D01*
X143403341Y-124017596D01*
X143394919Y-124074973D01*
X143382042Y-124141073D01*
X143363825Y-124223068D01*
X143339381Y-124328134D01*
X143317292Y-124423790D01*
X143290698Y-124541793D01*
X143265101Y-124658084D01*
X143242590Y-124763163D01*
X143225251Y-124847532D01*
X143209066Y-124930596D01*
X143198522Y-124990979D01*
X143193593Y-125032906D01*
X143193897Y-125062409D01*
X143199050Y-125085521D01*
X143208668Y-125108273D01*
X143213142Y-125118378D01*
X143229965Y-125182385D01*
X143231626Y-125247484D01*
X143217492Y-125299943D01*
X143192673Y-125328031D01*
X143155351Y-125353695D01*
X143151739Y-125355598D01*
X143121582Y-125375016D01*
X143109206Y-125389609D01*
X143014344Y-125389609D01*
X143017345Y-125383691D01*
X143020527Y-125379743D01*
X143013566Y-125357357D01*
X142984040Y-125321472D01*
X142976283Y-125313545D01*
X142958947Y-125297519D01*
X142939952Y-125284735D01*
X142915625Y-125274607D01*
X142882294Y-125266554D01*
X142836287Y-125259992D01*
X142773932Y-125254339D01*
X142691556Y-125249010D01*
X142585486Y-125243423D01*
X142452051Y-125236994D01*
X142427228Y-125235772D01*
X142330262Y-125230156D01*
X142243777Y-125223857D01*
X142172915Y-125217333D01*
X142122817Y-125211043D01*
X142098626Y-125205446D01*
X142080815Y-125190445D01*
X142068350Y-125160851D01*
X142071110Y-125148676D01*
X142086692Y-125135999D01*
X142121332Y-125125552D01*
X142180980Y-125114908D01*
X142268714Y-125101791D01*
X142412321Y-125082281D01*
X142556320Y-125064816D01*
X142690400Y-125050619D01*
X142804251Y-125040914D01*
X142863899Y-125036706D01*
X142913723Y-125030458D01*
X142947193Y-125018020D01*
X142968446Y-124994477D01*
X142981620Y-124954912D01*
X142990852Y-124894411D01*
X143000280Y-124808059D01*
X143001142Y-124800392D01*
X143012363Y-124721573D01*
X143029156Y-124625515D01*
X143049398Y-124523660D01*
X143070962Y-124427448D01*
X143092112Y-124335953D01*
X143116974Y-124213096D01*
X143135195Y-124096869D01*
X143146982Y-123981952D01*
X143152540Y-123863019D01*
X143152072Y-123734747D01*
X143145783Y-123591815D01*
X143133877Y-123428897D01*
X143116559Y-123240673D01*
X143113655Y-123209762D01*
X143104473Y-123088415D01*
X143097654Y-122958942D01*
X143093246Y-122826926D01*
X143091293Y-122697949D01*
X143091842Y-122577595D01*
X143094940Y-122471447D01*
X143100633Y-122385087D01*
X143108967Y-122324098D01*
X143111042Y-122314407D01*
X143147810Y-122197719D01*
X143204791Y-122098893D01*
X143286928Y-122009181D01*
X143341675Y-121963788D01*
X143437762Y-121907371D01*
X143543017Y-121875748D01*
X143665171Y-121865995D01*
X143721063Y-121867581D01*
X143834308Y-121881845D01*
X143943393Y-121912771D01*
X144053749Y-121962597D01*
X144170809Y-122033566D01*
X144300007Y-122127919D01*
X144359950Y-122174353D01*
X144466506Y-122255054D01*
X144555116Y-122319112D01*
X144629462Y-122369054D01*
X144693222Y-122407403D01*
X144750079Y-122436685D01*
X144841377Y-122479449D01*
X145509389Y-122484226D01*
X145562227Y-122484581D01*
X145745837Y-122485355D01*
X145901879Y-122485065D01*
X146033123Y-122483544D01*
X146142336Y-122480621D01*
X146232288Y-122476126D01*
X146305747Y-122469891D01*
X146365482Y-122461745D01*
X146414259Y-122451519D01*
X146454849Y-122439044D01*
X146490021Y-122424149D01*
X146502297Y-122417259D01*
X146544637Y-122387608D01*
X146600894Y-122343050D01*
X146665200Y-122288341D01*
X146731686Y-122228239D01*
X146745977Y-122214939D01*
X146869462Y-122103376D01*
X146977284Y-122013237D01*
X147073138Y-121942204D01*
X147160718Y-121887966D01*
X147243718Y-121848208D01*
X147325833Y-121820616D01*
X147410756Y-121802876D01*
X147538928Y-121793631D01*
X147671045Y-121810084D01*
X147789905Y-121854478D01*
X147894663Y-121926359D01*
X147984472Y-122025273D01*
X148058486Y-122150765D01*
X148066846Y-122168534D01*
X148089308Y-122219099D01*
X148108035Y-122267932D01*
X148123368Y-122318316D01*
X148135649Y-122373530D01*
X148145220Y-122436853D01*
X148152427Y-122511565D01*
X148157606Y-122600947D01*
X148161104Y-122708277D01*
X148163262Y-122836837D01*
X148164421Y-122989906D01*
X148164925Y-123170764D01*
X148165903Y-123831009D01*
X148208117Y-123978592D01*
X148226943Y-124041050D01*
X148256130Y-124131521D01*
X148288798Y-124227872D01*
X148320780Y-124317559D01*
X148337332Y-124362936D01*
X148388298Y-124510090D01*
X148426935Y-124636223D01*
X148454600Y-124746565D01*
X148472647Y-124846345D01*
X148482435Y-124940792D01*
X148492142Y-125089358D01*
X149028268Y-125097792D01*
X149129995Y-125099602D01*
X149249252Y-125102290D01*
X149355999Y-125105318D01*
X149446524Y-125108553D01*
X149517115Y-125111856D01*
X149564061Y-125115093D01*
X149583650Y-125118128D01*
X149599787Y-125133404D01*
X149596604Y-125153771D01*
X149572151Y-125187144D01*
X149570866Y-125188661D01*
X149559401Y-125199742D01*
X149543687Y-125209304D01*
X149520755Y-125217773D01*
X149487634Y-125225577D01*
X149441351Y-125233139D01*
X149378940Y-125240886D01*
X149297427Y-125249244D01*
X149193841Y-125258638D01*
X149065213Y-125269494D01*
X148908572Y-125282238D01*
X148873075Y-125285114D01*
X148763970Y-125294315D01*
X148680485Y-125302240D01*
X148618412Y-125309542D01*
X148573545Y-125316871D01*
X148541675Y-125324882D01*
X148518595Y-125334225D01*
X148500099Y-125345554D01*
X148491141Y-125352011D01*
X148469213Y-125371122D01*
X148458117Y-125393062D01*
X148454877Y-125427228D01*
X148455042Y-125432861D01*
X148456513Y-125483011D01*
G37*
%TD*%
M02*
