%TF.GenerationSoftware,KiCad,Pcbnew,9.0.3*%
%TF.CreationDate,2025-08-19T23:25:34-04:00*%
%TF.ProjectId,Mess-CharliePlexing2,4d657373-2d43-4686-9172-6c6965506c65,rev?*%
%TF.SameCoordinates,Original*%
%TF.FileFunction,Copper,L2,Bot*%
%TF.FilePolarity,Positive*%
%FSLAX46Y46*%
G04 Gerber Fmt 4.6, Leading zero omitted, Abs format (unit mm)*
G04 Created by KiCad (PCBNEW 9.0.3) date 2025-08-19 23:25:34*
%MOMM*%
%LPD*%
G01*
G04 APERTURE LIST*
%TA.AperFunction,ComponentPad*%
%ADD10R,1.700000X1.700000*%
%TD*%
%TA.AperFunction,ComponentPad*%
%ADD11C,1.700000*%
%TD*%
%TA.AperFunction,ViaPad*%
%ADD12C,0.600000*%
%TD*%
%TA.AperFunction,Conductor*%
%ADD13C,0.500000*%
%TD*%
%TA.AperFunction,Conductor*%
%ADD14C,0.400000*%
%TD*%
%TA.AperFunction,Conductor*%
%ADD15C,0.200000*%
%TD*%
G04 APERTURE END LIST*
D10*
%TO.P,J2,1,Pin_1*%
%TO.N,A_0*%
X119010001Y-40960000D03*
D11*
%TO.P,J2,2,Pin_2*%
%TO.N,R_0*%
X119010001Y-43500000D03*
%TO.P,J2,3,Pin_3*%
%TO.N,A_1*%
X116470001Y-40960000D03*
%TO.P,J2,4,Pin_4*%
%TO.N,R_1*%
X116470001Y-43500000D03*
%TO.P,J2,5,Pin_5*%
%TO.N,A_2*%
X113930001Y-40960000D03*
%TO.P,J2,6,Pin_6*%
%TO.N,R_2*%
X113930001Y-43500000D03*
%TO.P,J2,7,Pin_7*%
%TO.N,A_3*%
X111390001Y-40960000D03*
%TO.P,J2,8,Pin_8*%
%TO.N,R_3*%
X111390001Y-43500000D03*
%TO.P,J2,9,Pin_9*%
%TO.N,A_4*%
X108850001Y-40960000D03*
%TO.P,J2,10,Pin_10*%
%TO.N,R_4*%
X108850001Y-43500000D03*
%TO.P,J2,11,Pin_11*%
%TO.N,A_5*%
X106310001Y-40960000D03*
%TO.P,J2,12,Pin_12*%
%TO.N,R_5*%
X106310001Y-43500000D03*
%TO.P,J2,13,Pin_13*%
%TO.N,A_6*%
X103770001Y-40960000D03*
%TO.P,J2,14,Pin_14*%
%TO.N,R_6*%
X103770001Y-43500000D03*
%TO.P,J2,15,Pin_15*%
%TO.N,A_7*%
X101230001Y-40960000D03*
%TO.P,J2,16,Pin_16*%
%TO.N,R_7*%
X101230001Y-43500000D03*
%TO.P,J2,17,Pin_17*%
%TO.N,unconnected-(J1-Pin_17-Pad17)*%
X98690001Y-40960000D03*
%TO.P,J2,18,Pin_18*%
%TO.N,unconnected-(J1-Pin_18-Pad18)*%
X98690001Y-43500000D03*
%TO.P,J2,19,Pin_19*%
%TO.N,unconnected-(J1-Pin_19-Pad19)*%
X96150001Y-40960000D03*
%TO.P,J2,20,Pin_20*%
%TO.N,unconnected-(J1-Pin_20-Pad20)*%
X96150001Y-43500000D03*
%TO.P,J2,21,Pin_21*%
%TO.N,unconnected-(J1-Pin_21-Pad21)*%
X93610001Y-40960000D03*
%TO.P,J2,22,Pin_22*%
%TO.N,unconnected-(J1-Pin_22-Pad22)*%
X93610001Y-43500000D03*
%TO.P,J2,23,Pin_23*%
%TO.N,C_0*%
X91070001Y-40960000D03*
%TO.P,J2,24,Pin_24*%
X91070001Y-43500000D03*
%TO.P,J2,25,Pin_25*%
%TO.N,C_1*%
X88530001Y-40960000D03*
%TO.P,J2,26,Pin_26*%
X88530001Y-43500000D03*
%TO.P,J2,27,Pin_27*%
%TO.N,C_2*%
X85990001Y-40960000D03*
%TO.P,J2,28,Pin_28*%
X85990001Y-43500000D03*
%TO.P,J2,29,Pin_29*%
%TO.N,C_3*%
X83450001Y-40960000D03*
%TO.P,J2,30,Pin_30*%
X83450001Y-43500000D03*
%TO.P,J2,31,Pin_31*%
%TO.N,C_4*%
X80910001Y-40960000D03*
%TO.P,J2,32,Pin_32*%
X80910001Y-43500000D03*
%TO.P,J2,33,Pin_33*%
%TO.N,C_5*%
X78370001Y-40960000D03*
%TO.P,J2,34,Pin_34*%
X78370001Y-43500000D03*
%TO.P,J2,35,Pin_35*%
%TO.N,C_6*%
X75830001Y-40960000D03*
%TO.P,J2,36,Pin_36*%
X75830001Y-43500000D03*
%TO.P,J2,37,Pin_37*%
%TO.N,C_7*%
X73290001Y-40960000D03*
%TO.P,J2,38,Pin_38*%
X73290001Y-43500000D03*
%TD*%
D10*
%TO.P,J1,1,Pin_1*%
%TO.N,A_0*%
X169010001Y-40960000D03*
D11*
%TO.P,J1,2,Pin_2*%
%TO.N,R_0*%
X169010001Y-43500000D03*
%TO.P,J1,3,Pin_3*%
%TO.N,A_1*%
X166470001Y-40960000D03*
%TO.P,J1,4,Pin_4*%
%TO.N,R_1*%
X166470001Y-43500000D03*
%TO.P,J1,5,Pin_5*%
%TO.N,A_2*%
X163930001Y-40960000D03*
%TO.P,J1,6,Pin_6*%
%TO.N,R_2*%
X163930001Y-43500000D03*
%TO.P,J1,7,Pin_7*%
%TO.N,A_3*%
X161390001Y-40960000D03*
%TO.P,J1,8,Pin_8*%
%TO.N,R_3*%
X161390001Y-43500000D03*
%TO.P,J1,9,Pin_9*%
%TO.N,A_4*%
X158850001Y-40960000D03*
%TO.P,J1,10,Pin_10*%
%TO.N,R_4*%
X158850001Y-43500000D03*
%TO.P,J1,11,Pin_11*%
%TO.N,A_5*%
X156310001Y-40960000D03*
%TO.P,J1,12,Pin_12*%
%TO.N,R_5*%
X156310001Y-43500000D03*
%TO.P,J1,13,Pin_13*%
%TO.N,A_6*%
X153770001Y-40960000D03*
%TO.P,J1,14,Pin_14*%
%TO.N,R_6*%
X153770001Y-43500000D03*
%TO.P,J1,15,Pin_15*%
%TO.N,A_7*%
X151230001Y-40960000D03*
%TO.P,J1,16,Pin_16*%
%TO.N,R_7*%
X151230001Y-43500000D03*
%TO.P,J1,17,Pin_17*%
%TO.N,unconnected-(J1-Pin_17-Pad17)*%
X148690001Y-40960000D03*
%TO.P,J1,18,Pin_18*%
%TO.N,unconnected-(J1-Pin_18-Pad18)*%
X148690001Y-43500000D03*
%TO.P,J1,19,Pin_19*%
%TO.N,unconnected-(J1-Pin_19-Pad19)*%
X146150001Y-40960000D03*
%TO.P,J1,20,Pin_20*%
%TO.N,unconnected-(J1-Pin_20-Pad20)*%
X146150001Y-43500000D03*
%TO.P,J1,21,Pin_21*%
%TO.N,unconnected-(J1-Pin_21-Pad21)*%
X143610001Y-40960000D03*
%TO.P,J1,22,Pin_22*%
%TO.N,unconnected-(J1-Pin_22-Pad22)*%
X143610001Y-43500000D03*
%TO.P,J1,23,Pin_23*%
%TO.N,C_0*%
X141070001Y-40960000D03*
%TO.P,J1,24,Pin_24*%
X141070001Y-43500000D03*
%TO.P,J1,25,Pin_25*%
%TO.N,C_1*%
X138530001Y-40960000D03*
%TO.P,J1,26,Pin_26*%
X138530001Y-43500000D03*
%TO.P,J1,27,Pin_27*%
%TO.N,C_2*%
X135990001Y-40960000D03*
%TO.P,J1,28,Pin_28*%
X135990001Y-43500000D03*
%TO.P,J1,29,Pin_29*%
%TO.N,C_3*%
X133450001Y-40960000D03*
%TO.P,J1,30,Pin_30*%
X133450001Y-43500000D03*
%TO.P,J1,31,Pin_31*%
%TO.N,C_4*%
X130910001Y-40960000D03*
%TO.P,J1,32,Pin_32*%
X130910001Y-43500000D03*
%TO.P,J1,33,Pin_33*%
%TO.N,C_5*%
X128370001Y-40960000D03*
%TO.P,J1,34,Pin_34*%
X128370001Y-43500000D03*
%TO.P,J1,35,Pin_35*%
%TO.N,C_6*%
X125830001Y-40960000D03*
%TO.P,J1,36,Pin_36*%
X125830001Y-43500000D03*
%TO.P,J1,37,Pin_37*%
%TO.N,C_7*%
X123290001Y-40960000D03*
%TO.P,J1,38,Pin_38*%
X123290001Y-43500000D03*
%TD*%
D12*
%TO.N,R_7*%
X91100000Y-53224999D03*
%TO.N,R_6*%
X101480002Y-126349999D03*
%TO.N,C_7*%
X111790001Y-76700000D03*
X88390001Y-53600000D03*
%TO.N,C_6*%
X92900000Y-132375001D03*
X92290001Y-83700000D03*
X83700000Y-111375001D03*
X88600000Y-91175001D03*
X83490001Y-91900000D03*
X91290001Y-123600000D03*
X83280002Y-97675001D03*
%TO.N,C_5*%
X93780002Y-91700000D03*
X83815003Y-121825002D03*
%TO.N,A_5*%
X88590001Y-113800000D03*
X99000000Y-113400000D03*
%TO.N,C_5*%
X83635002Y-125645001D03*
%TO.N,A_5*%
X117290001Y-67275001D03*
X114590001Y-103400000D03*
%TO.N,C_5*%
X105940001Y-73800000D03*
%TO.N,A_5*%
X98900000Y-96975001D03*
%TO.N,A_4*%
X109300000Y-101175001D03*
%TO.N,C_4*%
X102240000Y-72960322D03*
X110490001Y-54399005D03*
%TO.N,A_4*%
X83290000Y-81300000D03*
%TO.N,C_4*%
X104100000Y-110875001D03*
X103900000Y-106975001D03*
%TO.N,A_4*%
X111800000Y-119600000D03*
%TO.N,C_3*%
X103990001Y-72000000D03*
X104990001Y-77876001D03*
%TO.N,A_3*%
X94100000Y-81275001D03*
%TO.N,C_2*%
X101500000Y-99799999D03*
%TO.N,C_1*%
X77990001Y-79850001D03*
X76590001Y-68900000D03*
X75790001Y-53224998D03*
%TO.N,C_3*%
X103757500Y-58132501D03*
%TO.N,A_3*%
X96040001Y-76700000D03*
%TO.N,C_1*%
X106590001Y-84800000D03*
X90990001Y-49800000D03*
%TO.N,R_5*%
X105390001Y-117400000D03*
%TO.N,R_6*%
X78190001Y-136890001D03*
X87000000Y-92775001D03*
X115990001Y-113200000D03*
%TO.N,R_5*%
X105490001Y-108275001D03*
X105190001Y-128400000D03*
%TO.N,R_4*%
X109500000Y-124475001D03*
X106800000Y-93075001D03*
X108690001Y-107585000D03*
%TO.N,R_5*%
X114300000Y-53175001D03*
%TO.N,R_3*%
X111890001Y-72024997D03*
X111990001Y-109700001D03*
%TO.N,R_2*%
X74940001Y-68300000D03*
%TO.N,R_1*%
X106690001Y-48567999D03*
X106690001Y-74950000D03*
X94066958Y-74950000D03*
%TO.N,R_3*%
X86000000Y-62650000D03*
%TO.N,R_0*%
X83290001Y-51600000D03*
%TO.N,R_3*%
X86000000Y-48577999D03*
%TO.N,R_1*%
X86000000Y-67275001D03*
%TO.N,A_2*%
X80990001Y-64550000D03*
%TO.N,A_1*%
X119440001Y-72800000D03*
%TO.N,A_2*%
X118400000Y-88475001D03*
%TO.N,A_3*%
X94180002Y-104800001D03*
%TO.N,C_1*%
X106840001Y-76800000D03*
%TO.N,C_4*%
X104400000Y-92475001D03*
%TO.N,R_4*%
X106700000Y-101549999D03*
%TO.N,R_2*%
X96390001Y-62650000D03*
%TO.N,R_5*%
X104790001Y-54399005D03*
%TO.N,R_6*%
X78190001Y-127100000D03*
%TO.N,A_7*%
X93780002Y-127400001D03*
%TO.N,R_7*%
X74090001Y-108100000D03*
%TO.N,A_6*%
X106690001Y-136150000D03*
%TO.N,C_3*%
X113714672Y-107600000D03*
%TO.N,A_3*%
X93899000Y-62875001D03*
%TO.N,C_1*%
X76190001Y-49900000D03*
%TO.N,R_4*%
X93400000Y-119175001D03*
%TO.N,C_4*%
X85690001Y-127700000D03*
X93790001Y-72000000D03*
%TO.N,A_5*%
X99000000Y-111275001D03*
%TO.N,R_6*%
X80790001Y-72024997D03*
%TO.N,R_7*%
X91100000Y-67275001D03*
%TO.N,C_6*%
X83390001Y-106600000D03*
%TO.N,A_6*%
X106700000Y-126349999D03*
X109190001Y-67400000D03*
%TO.N,C_2*%
X80800000Y-99800001D03*
X102240000Y-75875589D03*
%TO.N,A_2*%
X80790001Y-84800000D03*
%TO.N,R_7*%
X103797501Y-133192500D03*
%TO.N,R_6*%
X117180002Y-134400001D03*
%TO.N,C_5*%
X93580002Y-96100001D03*
%TO.N,R_2*%
X74940001Y-63700000D03*
%TO.N,R_6*%
X101500000Y-86549997D03*
%TO.N,R_5*%
X96690001Y-72800000D03*
%TO.N,C_7*%
X108526765Y-77800000D03*
%TO.N,A_6*%
X84990001Y-92700000D03*
%TO.N,C_1*%
X101490001Y-45750000D03*
%TO.N,C_0*%
X112190001Y-65525003D03*
%TO.N,R_7*%
X89490001Y-127500000D03*
%TO.N,A_5*%
X99100000Y-103900000D03*
%TO.N,R_1*%
X93890001Y-79900000D03*
%TO.N,A_6*%
X88582501Y-112757502D03*
%TO.N,R_7*%
X83390001Y-87500000D03*
%TO.N,C_7*%
X75600000Y-111449999D03*
%TO.N,C_1*%
X88490001Y-79850002D03*
%TO.N,C_7*%
X89390001Y-82900000D03*
%TO.N,C_2*%
X114800000Y-71075001D03*
%TO.N,R_7*%
X91100000Y-77900000D03*
%TO.N,C_5*%
X93700000Y-106875001D03*
%TO.N,C_4*%
X104090001Y-124500000D03*
%TO.N,R_6*%
X101600000Y-116349999D03*
%TO.N,R_7*%
X78077938Y-101101807D03*
%TO.N,A_5*%
X99100000Y-101175001D03*
%TO.N,R_6*%
X101600000Y-113500000D03*
%TO.N,A_7*%
X80900000Y-111449999D03*
%TO.N,R_6*%
X101590001Y-103300000D03*
%TO.N,C_7*%
X73440001Y-54600000D03*
%TO.N,C_0*%
X80800000Y-60900000D03*
%TO.N,R_5*%
X96790001Y-87800000D03*
%TO.N,A_5*%
X79590001Y-103000000D03*
%TO.N,R_2*%
X86000000Y-86549997D03*
%TO.N,C_4*%
X81300000Y-117775001D03*
%TO.N,R_3*%
X75700000Y-109700001D03*
%TO.N,R_7*%
X99100000Y-127775001D03*
%TO.N,A_7*%
X77700000Y-88675001D03*
X80780002Y-136150001D03*
%TO.N,C_2*%
X114900000Y-58975001D03*
%TO.N,R_6*%
X101489997Y-53225000D03*
%TO.N,A_7*%
X93680002Y-130900001D03*
%TO.N,R_7*%
X90360934Y-132600001D03*
%TO.N,R_3*%
X75600000Y-86549998D03*
%TO.N,R_6*%
X79700000Y-68775001D03*
%TO.N,A_6*%
X109200000Y-86275001D03*
%TO.N,C_3*%
X113290001Y-92700000D03*
%TO.N,A_7*%
X80900000Y-101549999D03*
%TO.N,C_0*%
X96290001Y-65525003D03*
%TO.N,R_4*%
X107690001Y-73100000D03*
%TO.N,R_2*%
X98890001Y-48400000D03*
%TO.N,C_3*%
X111900000Y-111449999D03*
%TO.N,A_5*%
X99000000Y-88600000D03*
%TO.N,R_3*%
X86000000Y-81600000D03*
X78200000Y-82600000D03*
%TO.N,C_2*%
X80900000Y-86549997D03*
%TO.N,C_7*%
X98090001Y-122200000D03*
%TO.N,A_6*%
X88700000Y-101275001D03*
%TO.N,R_7*%
X78181002Y-91500000D03*
%TO.N,C_7*%
X109290001Y-63650000D03*
%TO.N,C_5*%
X94151000Y-117400000D03*
%TO.N,R_5*%
X83390001Y-129500000D03*
X96700000Y-92975001D03*
%TO.N,C_6*%
X76690001Y-98100000D03*
%TO.N,R_5*%
X96400000Y-106549999D03*
%TO.N,R_6*%
X86000000Y-106549999D03*
%TO.N,C_4*%
X104200000Y-95975001D03*
%TO.N,A_6*%
X104390001Y-67500000D03*
%TO.N,R_7*%
X91280002Y-116349998D03*
%TO.N,A_4*%
X82301000Y-77725000D03*
%TO.N,R_1*%
X106690001Y-45900000D03*
%TO.N,C_3*%
X113965000Y-73200000D03*
%TO.N,R_4*%
X73890001Y-93300000D03*
%TO.N,C_1*%
X88700000Y-84875001D03*
%TO.N,C_7*%
X101580002Y-134400001D03*
%TO.N,C_0*%
X80800000Y-53224999D03*
%TO.N,C_5*%
X92166116Y-73047689D03*
%TO.N,A_5*%
X117000000Y-86549998D03*
%TO.N,R_5*%
X80100000Y-117975001D03*
%TO.N,R_6*%
X101600000Y-67275000D03*
%TO.N,C_7*%
X75600000Y-134400003D03*
%TO.N,R_0*%
X83290001Y-56125003D03*
%TO.N,C_6*%
X96290001Y-134400003D03*
%TO.N,C_1*%
X101590001Y-48568000D03*
%TO.N,A_6*%
X75390001Y-57857999D03*
%TO.N,A_4*%
X80790001Y-114600001D03*
%TO.N,C_3*%
X111790001Y-114600001D03*
%TO.N,R_5*%
X88390001Y-69348000D03*
%TO.N,A_2*%
X118100000Y-59375001D03*
%TO.N,A_7*%
X96400000Y-126349999D03*
%TO.N,R_7*%
X100009112Y-55117003D03*
%TO.N,C_6*%
X114400000Y-131175001D03*
%TO.N,R_4*%
X106700000Y-106550000D03*
%TO.N,C_4*%
X109390001Y-90900000D03*
%TO.N,A_6*%
X79690001Y-92600000D03*
%TO.N,A_7*%
X80780002Y-133000001D03*
%TO.N,C_5*%
X78090001Y-73500000D03*
%TO.N,C_6*%
X117100000Y-54975001D03*
%TO.N,A_5*%
X117000000Y-116349999D03*
%TO.N,A_3*%
X109490001Y-58100000D03*
%TO.N,A_5*%
X86190001Y-124600000D03*
%TO.N,C_7*%
X114600000Y-112575001D03*
%TO.N,C_2*%
X88590001Y-48500000D03*
%TO.N,C_7*%
X109290001Y-126300000D03*
%TO.N,C_5*%
X77955000Y-57900000D03*
%TO.N,R_5*%
X88390001Y-71756333D03*
%TO.N,C_5*%
X95800000Y-132575001D03*
%TO.N,C_4*%
X93600000Y-58175001D03*
%TO.N,R_3*%
X78200000Y-86375001D03*
%TO.N,C_5*%
X119590001Y-83500000D03*
%TO.N,C_7*%
X114600000Y-126975001D03*
%TO.N,C_4*%
X93390001Y-78800000D03*
%TO.N,C_5*%
X94000000Y-120475001D03*
%TO.N,C_6*%
X117100000Y-62650000D03*
%TO.N,A_7*%
X100482422Y-64075001D03*
X96390001Y-116349999D03*
%TO.N,C_4*%
X84290001Y-45200000D03*
%TO.N,R_7*%
X83400000Y-90875001D03*
X89440001Y-108500000D03*
%TO.N,A_7*%
X98707500Y-82082501D03*
%TO.N,C_6*%
X113790001Y-123000000D03*
%TO.N,A_6*%
X108600000Y-98275001D03*
%TO.N,R_6*%
X101790001Y-132592500D03*
%TO.N,R_1*%
X86000000Y-74950002D03*
%TO.N,A_5*%
X78200000Y-75875001D03*
%TO.N,R_6*%
X115890001Y-122400000D03*
%TO.N,A_6*%
X109276765Y-81600000D03*
X85890001Y-96450000D03*
%TO.N,A_5*%
X78890001Y-58900000D03*
%TO.N,A_7*%
X78680002Y-100575001D03*
%TO.N,R_7*%
X73290001Y-130300000D03*
%TO.N,A_6*%
X106800000Y-116349999D03*
%TO.N,C_7*%
X109180002Y-131100001D03*
%TO.N,C_5*%
X118675269Y-118400000D03*
%TO.N,R_2*%
X96300000Y-48567999D03*
%TO.N,C_3*%
X113390001Y-98200000D03*
%TO.N,A_7*%
X98800000Y-86275001D03*
%TO.N,A_6*%
X83400000Y-120775001D03*
X88500000Y-97175001D03*
%TO.N,C_5*%
X106790001Y-53225000D03*
%TO.N,R_2*%
X86000000Y-94700000D03*
X98790001Y-45000000D03*
%TO.N,C_0*%
X95990001Y-61026001D03*
%TO.N,A_3*%
X94700000Y-59474002D03*
%TO.N,A_5*%
X78590001Y-45400000D03*
%TO.N,A_4*%
X80790001Y-62649999D03*
%TO.N,C_6*%
X116400000Y-83075001D03*
%TO.N,A_4*%
X109300000Y-96875001D03*
%TO.N,R_5*%
X96500000Y-101549997D03*
%TO.N,C_5*%
X94000000Y-111375001D03*
%TO.N,C_2*%
X114740001Y-98250000D03*
%TO.N,C_7*%
X93880002Y-133200001D03*
%TO.N,R_4*%
X93781002Y-123375001D03*
%TO.N,A_7*%
X78680002Y-97275001D03*
%TO.N,C_0*%
X111900000Y-48568000D03*
%TO.N,A_7*%
X98800000Y-67675001D03*
%TO.N,R_4*%
X73364999Y-80625002D03*
%TO.N,R_7*%
X91200000Y-86549999D03*
%TO.N,R_5*%
X114000000Y-68775001D03*
%TO.N,R_6*%
X86000000Y-101550001D03*
%TO.N,C_2*%
X113900000Y-49975001D03*
%TO.N,A_6*%
X106890001Y-112600000D03*
%TO.N,C_6*%
X74190001Y-73400000D03*
%TO.N,C_3*%
X83390001Y-48300000D03*
X83890001Y-77800000D03*
%TO.N,R_7*%
X99090001Y-121500000D03*
%TO.N,R_2*%
X88300000Y-63775001D03*
%TO.N,A_4*%
X79790001Y-59650000D03*
%TO.N,A_1*%
X169440001Y-72800000D03*
%TO.N,A_2*%
X168100000Y-59375001D03*
X130990001Y-64550000D03*
X168400000Y-88475001D03*
X130790001Y-84800000D03*
%TO.N,C_0*%
X145990001Y-61026001D03*
X146290001Y-65525003D03*
X162190001Y-65525003D03*
X130800000Y-60900000D03*
X130800000Y-53224999D03*
X161900000Y-48568000D03*
%TO.N,C_1*%
X140990001Y-49800000D03*
X151490001Y-45750000D03*
X138490001Y-79850002D03*
X127990001Y-79850001D03*
X151590001Y-48568000D03*
X126590001Y-68900000D03*
X125790001Y-53224998D03*
X126190001Y-49900000D03*
X138700000Y-84875001D03*
X156590001Y-84800000D03*
X156840001Y-76800000D03*
%TO.N,C_2*%
X164740001Y-98250000D03*
X130900000Y-86549997D03*
X151500000Y-99799999D03*
X163900000Y-49975001D03*
X164800000Y-71075001D03*
X164900000Y-58975001D03*
X152240000Y-75875589D03*
X130800000Y-99800001D03*
X138590001Y-48500000D03*
%TO.N,A_3*%
X144700000Y-59474002D03*
X144100000Y-81275001D03*
X144180002Y-104800001D03*
X146040001Y-76700000D03*
X143899000Y-62875001D03*
X159490001Y-58100000D03*
%TO.N,C_3*%
X163390001Y-98200000D03*
X161900000Y-111449999D03*
X153990001Y-72000000D03*
X133890001Y-77800000D03*
X163714672Y-107600000D03*
X153757500Y-58132501D03*
X154990001Y-77876001D03*
X163290001Y-92700000D03*
X161790001Y-114600001D03*
X163965000Y-73200000D03*
X133390001Y-48300000D03*
%TO.N,A_4*%
X132301000Y-77725000D03*
X159300000Y-96875001D03*
X129790001Y-59650000D03*
X159300000Y-101175001D03*
X161800000Y-119600000D03*
X130790001Y-114600001D03*
X133290000Y-81300000D03*
X130790001Y-62649999D03*
%TO.N,C_4*%
X134290001Y-45200000D03*
X153900000Y-106975001D03*
X154100000Y-110875001D03*
X154400000Y-92475001D03*
X131300000Y-117775001D03*
X143600000Y-58175001D03*
X154090001Y-124500000D03*
X143790001Y-72000000D03*
X154200000Y-95975001D03*
X152240000Y-72960322D03*
X159390001Y-90900000D03*
X143390001Y-78800000D03*
X160490001Y-54399005D03*
X135690001Y-127700000D03*
%TO.N,A_5*%
X128200000Y-75875001D03*
X128590001Y-45400000D03*
X149000000Y-88600000D03*
X164590001Y-103400000D03*
X149000000Y-113400000D03*
X148900000Y-96975001D03*
X136190001Y-124600000D03*
X129590001Y-103000000D03*
X138590001Y-113800000D03*
X167290001Y-67275001D03*
X149100000Y-101175001D03*
X149100000Y-103900000D03*
X167000000Y-116349999D03*
X149000000Y-111275001D03*
X128890001Y-58900000D03*
X167000000Y-86549998D03*
%TO.N,C_5*%
X144000000Y-120475001D03*
X168675269Y-118400000D03*
X155940001Y-73800000D03*
X133815003Y-121825002D03*
X144000000Y-111375001D03*
X143580002Y-96100001D03*
X144151000Y-117400000D03*
X127955000Y-57900000D03*
X133635002Y-125645001D03*
X128090001Y-73500000D03*
X169590001Y-83500000D03*
X143700000Y-106875001D03*
X143780002Y-91700000D03*
X142166116Y-73047689D03*
X156790001Y-53225000D03*
X145800000Y-132575001D03*
%TO.N,A_6*%
X125390001Y-57857999D03*
X159276765Y-81600000D03*
X134990001Y-92700000D03*
X133400000Y-120775001D03*
X154390001Y-67500000D03*
X156700000Y-126349999D03*
X159200000Y-86275001D03*
X156690001Y-136150000D03*
X138582501Y-112757502D03*
X156800000Y-116349999D03*
X138700000Y-101275001D03*
X158600000Y-98275001D03*
X159190001Y-67400000D03*
X129690001Y-92600000D03*
X138500000Y-97175001D03*
X135890001Y-96450000D03*
X156890001Y-112600000D03*
%TO.N,C_6*%
X163790001Y-123000000D03*
X164400000Y-131175001D03*
X141290001Y-123600000D03*
X167100000Y-62650000D03*
X167100000Y-54975001D03*
X133490001Y-91900000D03*
X138600000Y-91175001D03*
X146290001Y-134400003D03*
X133700000Y-111375001D03*
X166400000Y-83075001D03*
X142290001Y-83700000D03*
X133280002Y-97675001D03*
X133390001Y-106600000D03*
X124190001Y-73400000D03*
X126690001Y-98100000D03*
X142900000Y-132375001D03*
%TO.N,A_7*%
X127700000Y-88675001D03*
X128680002Y-97275001D03*
X130900000Y-111449999D03*
X148800000Y-67675001D03*
X143780002Y-127400001D03*
X150482422Y-64075001D03*
X148800000Y-86275001D03*
X128680002Y-100575001D03*
X130780002Y-136150001D03*
X146400000Y-126349999D03*
X130780002Y-133000001D03*
X143680002Y-130900001D03*
X146390001Y-116349999D03*
X148707500Y-82082501D03*
X130900000Y-101549999D03*
%TO.N,C_7*%
X151580002Y-134400001D03*
X161790001Y-76700000D03*
X123440001Y-54600000D03*
X139390001Y-82900000D03*
X143880002Y-133200001D03*
X158526765Y-77800000D03*
X159290001Y-126300000D03*
X138390001Y-53600000D03*
X159180002Y-131100001D03*
X125600000Y-134400003D03*
X125600000Y-111449999D03*
X148090001Y-122200000D03*
X164600000Y-126975001D03*
X159290001Y-63650000D03*
X164600000Y-112575001D03*
%TO.N,R_0*%
X133290001Y-56125003D03*
X133290001Y-51600000D03*
%TO.N,R_1*%
X156690001Y-74950000D03*
X136000000Y-67275001D03*
X143890001Y-79900000D03*
X156690001Y-45900000D03*
X144066958Y-74950000D03*
X156690001Y-48567999D03*
X136000000Y-74950002D03*
%TO.N,R_2*%
X136000000Y-86549997D03*
X136000000Y-94700000D03*
X124940001Y-63700000D03*
X148790001Y-45000000D03*
X146390001Y-62650000D03*
X146300000Y-48567999D03*
X148890001Y-48400000D03*
X124940001Y-68300000D03*
X138300000Y-63775001D03*
%TO.N,R_3*%
X128200000Y-82600000D03*
X125700000Y-109700001D03*
X136000000Y-48577999D03*
X136000000Y-62650000D03*
X128200000Y-86375001D03*
X136000000Y-81600000D03*
X161990001Y-109700001D03*
X125600000Y-86549998D03*
X161890001Y-72024997D03*
%TO.N,R_4*%
X123364999Y-80625002D03*
X156700000Y-106550000D03*
X156800000Y-93075001D03*
X143400000Y-119175001D03*
X158690001Y-107585000D03*
X156700000Y-101549999D03*
X123890001Y-93300000D03*
X159500000Y-124475001D03*
X157690001Y-73100000D03*
X143781002Y-123375001D03*
%TO.N,R_5*%
X146790001Y-87800000D03*
X164300000Y-53175001D03*
X138390001Y-69348000D03*
X155190001Y-128400000D03*
X146700000Y-92975001D03*
X130100000Y-117975001D03*
X146500000Y-101549997D03*
X146400000Y-106549999D03*
X155390001Y-117400000D03*
X164000000Y-68775001D03*
X154790001Y-54399005D03*
X133390001Y-129500000D03*
X155490001Y-108275001D03*
X138390001Y-71756333D03*
X146690001Y-72800000D03*
%TO.N,R_6*%
X165990001Y-113200000D03*
X137000000Y-92775001D03*
X151790001Y-132592500D03*
X167180002Y-134400001D03*
X128190001Y-136890001D03*
X129700000Y-68775001D03*
X151600000Y-113500000D03*
X151489997Y-53225000D03*
X136000000Y-101550001D03*
X165890001Y-122400000D03*
X128190001Y-127100000D03*
X136000000Y-106549999D03*
X151600000Y-116349999D03*
X151480002Y-126349999D03*
X151590001Y-103300000D03*
X130790001Y-72024997D03*
X151500000Y-86549997D03*
X151600000Y-67275000D03*
%TO.N,R_7*%
X149090001Y-121500000D03*
X141200000Y-86549999D03*
X128077938Y-101101807D03*
X139490001Y-127500000D03*
X123290001Y-130300000D03*
X150009112Y-55117003D03*
X141100000Y-67275001D03*
X141100000Y-77900000D03*
X124090001Y-108100000D03*
X139440001Y-108500000D03*
X140360934Y-132600001D03*
X133390001Y-87500000D03*
X133400000Y-90875001D03*
X141280002Y-116349998D03*
X141100000Y-53224999D03*
X149100000Y-127775001D03*
X153797501Y-133192500D03*
X128181002Y-91500000D03*
%TD*%
D13*
%TO.N,C_6*%
X74190001Y-73400000D02*
X74690001Y-73900000D01*
X114400000Y-131175001D02*
X114400000Y-136590001D01*
X76745001Y-86345000D02*
X76690001Y-86400000D01*
X96390001Y-137649000D02*
X96390001Y-134500003D01*
X83280002Y-97675001D02*
X83280002Y-92109999D01*
X92290001Y-87485000D02*
X88600000Y-91175001D01*
X74690001Y-84290000D02*
X76745001Y-86345000D01*
D14*
%TO.N,A_7*%
X97401001Y-43019818D02*
X97401001Y-48748346D01*
D13*
X98707500Y-86182501D02*
X98800000Y-86275001D01*
X100482422Y-65992579D02*
X98800000Y-67675001D01*
D14*
X97401001Y-48748346D02*
X99308112Y-50655457D01*
D13*
%TO.N,A_6*%
X88582501Y-112757502D02*
X88690001Y-112650002D01*
X104390001Y-67500000D02*
X104508500Y-67381501D01*
X109190001Y-67885000D02*
X109276765Y-67971764D01*
X75390001Y-57857999D02*
X75691001Y-58158999D01*
X106800000Y-112690001D02*
X106800000Y-116349999D01*
X77446001Y-86054636D02*
X77446001Y-87358927D01*
X109190001Y-67400000D02*
X109190001Y-67885000D01*
X104508500Y-67381501D02*
X104508500Y-57450498D01*
X84990001Y-92700000D02*
X84990001Y-95550000D01*
%TO.N,C_5*%
X105940001Y-73800000D02*
X105940001Y-59235002D01*
X94000000Y-107175001D02*
X93700000Y-106875001D01*
X77130001Y-44740000D02*
X78370001Y-43500000D01*
X106790001Y-53225000D02*
X106790001Y-58385002D01*
X83635002Y-125645001D02*
X83815003Y-125465000D01*
X83815003Y-125465000D02*
X83815003Y-121825002D01*
X119590001Y-83500000D02*
X119590001Y-117485268D01*
%TO.N,A_7*%
X98707500Y-82082501D02*
X98707500Y-86182501D01*
%TO.N,C_5*%
X94000000Y-120475001D02*
X94151000Y-120324001D01*
%TO.N,C_6*%
X96390001Y-134500003D02*
X96290001Y-134400003D01*
%TO.N,C_5*%
X77955000Y-57364999D02*
X77130001Y-56540000D01*
%TO.N,A_5*%
X99100000Y-97175001D02*
X99100000Y-101175001D01*
X78890001Y-58900000D02*
X78890001Y-75185000D01*
X78890001Y-75185000D02*
X78200000Y-75875001D01*
X99000000Y-111275001D02*
X99000000Y-113400000D01*
D14*
%TO.N,C_4*%
X84739001Y-45640364D02*
X91573638Y-52475001D01*
D13*
X93600000Y-52475001D02*
X93600000Y-58175001D01*
X104200000Y-106675001D02*
X104200000Y-95975001D01*
%TO.N,A_5*%
X78706000Y-58669001D02*
X78706000Y-45515999D01*
%TO.N,C_4*%
X93316958Y-78726957D02*
X93390001Y-78800000D01*
X104200000Y-95975001D02*
X104200000Y-92675001D01*
%TO.N,A_4*%
X109490001Y-101365002D02*
X109300000Y-101175001D01*
%TO.N,C_5*%
X94151000Y-120324001D02*
X94151000Y-117400000D01*
%TO.N,A_4*%
X82301000Y-77725000D02*
X82301000Y-80311000D01*
%TO.N,C_3*%
X104990001Y-73000000D02*
X103990001Y-72000000D01*
D14*
%TO.N,A_7*%
X101230001Y-40960000D02*
X99941001Y-42249000D01*
D13*
%TO.N,C_5*%
X78090001Y-73500000D02*
X77790001Y-73200000D01*
%TO.N,A_5*%
X99000000Y-96875001D02*
X98900000Y-96975001D01*
X78706000Y-45515999D02*
X78590001Y-45400000D01*
D14*
%TO.N,A_3*%
X110101001Y-44018182D02*
X109490001Y-44629182D01*
D13*
X94890001Y-104090002D02*
X94180002Y-104800001D01*
X95290001Y-76668628D02*
X96008629Y-76668628D01*
X94100000Y-81275001D02*
X94890001Y-82065002D01*
%TO.N,C_3*%
X111900000Y-111449999D02*
X111900000Y-114490002D01*
%TO.N,A_3*%
X95290001Y-80085000D02*
X94100000Y-81275001D01*
X93915000Y-62875001D02*
X94700000Y-62090001D01*
%TO.N,C_3*%
X84090001Y-48900000D02*
X84090001Y-77600000D01*
%TO.N,A_3*%
X94700000Y-62090001D02*
X94700000Y-59474002D01*
%TO.N,A_6*%
X83390001Y-112885000D02*
X83390001Y-120765002D01*
%TO.N,C_0*%
X113149000Y-50286076D02*
X113200000Y-50337076D01*
%TO.N,A_6*%
X75691001Y-58158999D02*
X75691001Y-84299636D01*
%TO.N,C_3*%
X113290001Y-91365002D02*
X113990001Y-90665002D01*
%TO.N,A_7*%
X96551000Y-118451001D02*
X96551000Y-126198999D01*
%TO.N,C_6*%
X74190001Y-46000000D02*
X74190001Y-45140000D01*
%TO.N,A_7*%
X93780002Y-130800001D02*
X93680002Y-130900001D01*
%TO.N,A_5*%
X114590001Y-110165002D02*
X114590001Y-103400000D01*
D14*
%TO.N,A_6*%
X103690001Y-56631999D02*
X104090001Y-57031999D01*
D13*
%TO.N,A_4*%
X79790001Y-61649999D02*
X79790001Y-45800000D01*
%TO.N,A_6*%
X106890001Y-112600000D02*
X106800000Y-112690001D01*
%TO.N,C_4*%
X104200000Y-92675001D02*
X104400000Y-92475001D01*
D14*
%TO.N,A_3*%
X109490001Y-44629182D02*
X109490001Y-58100000D01*
D13*
%TO.N,C_4*%
X110338001Y-54551005D02*
X110338001Y-89952000D01*
%TO.N,A_6*%
X106700000Y-126349999D02*
X106700000Y-136140001D01*
%TO.N,C_3*%
X113714672Y-98524671D02*
X113390001Y-98200000D01*
%TO.N,A_4*%
X111800000Y-119600000D02*
X109490001Y-117290001D01*
%TO.N,R_7*%
X101478926Y-133343500D02*
X99100000Y-130964574D01*
%TO.N,A_5*%
X80441000Y-88991000D02*
X80441000Y-98449001D01*
X78951000Y-76626001D02*
X78951000Y-87501000D01*
D14*
%TO.N,A_6*%
X105021001Y-44869000D02*
X103690001Y-46200000D01*
D13*
%TO.N,A_5*%
X86190001Y-116200000D02*
X88590001Y-113800000D01*
%TO.N,R_6*%
X101600000Y-116349999D02*
X102490001Y-117240000D01*
D14*
%TO.N,A_4*%
X79621001Y-40441818D02*
X79621001Y-45631000D01*
D13*
%TO.N,R_6*%
X78190001Y-136890001D02*
X78190001Y-127100000D01*
%TO.N,A_6*%
X108549000Y-86926001D02*
X109200000Y-86275001D01*
%TO.N,A_5*%
X117290001Y-67275001D02*
X117365002Y-67275001D01*
%TO.N,A_6*%
X84990001Y-95550000D02*
X85890001Y-96450000D01*
%TO.N,C_6*%
X74190001Y-73400000D02*
X74190001Y-46000000D01*
%TO.N,C_5*%
X94151000Y-117400000D02*
X94151000Y-111526001D01*
%TO.N,R_6*%
X101489997Y-53225000D02*
X101489997Y-67164997D01*
X101600000Y-90475001D02*
X101500000Y-90375001D01*
%TO.N,C_3*%
X113290001Y-92700000D02*
X113290001Y-98100000D01*
%TO.N,R_6*%
X101480002Y-126349999D02*
X101480002Y-122794999D01*
X102490001Y-121785000D02*
X102100000Y-122175001D01*
%TO.N,R_7*%
X100009112Y-55117003D02*
X99990001Y-55097892D01*
X91100000Y-67275001D02*
X91100000Y-77900000D01*
X91100000Y-53224999D02*
X91100000Y-67275001D01*
X99090001Y-121500000D02*
X99090001Y-127765002D01*
%TO.N,A_4*%
X82301000Y-77725000D02*
X82490001Y-77535999D01*
%TO.N,C_6*%
X92290001Y-83700000D02*
X92290001Y-87485000D01*
%TO.N,R_7*%
X89440001Y-116750000D02*
X90880000Y-116750000D01*
X99100000Y-130964574D02*
X99100000Y-127775001D01*
%TO.N,A_4*%
X82152000Y-82438000D02*
X82152000Y-113238002D01*
%TO.N,R_6*%
X115890001Y-122984328D02*
X117180002Y-124274329D01*
%TO.N,A_7*%
X98800000Y-67675001D02*
X98800000Y-67990001D01*
%TO.N,C_3*%
X113290001Y-98100000D02*
X113390001Y-98200000D01*
D14*
%TO.N,A_6*%
X105021001Y-42211000D02*
X105021001Y-44869000D01*
D13*
%TO.N,R_4*%
X107690001Y-73034998D02*
X107590001Y-73134998D01*
X93249000Y-122842999D02*
X93781002Y-123375001D01*
X107590001Y-82637925D02*
X107590001Y-83962075D01*
%TO.N,A_5*%
X78890001Y-58900000D02*
X78890001Y-58853002D01*
%TO.N,R_6*%
X102530001Y-52184996D02*
X102530001Y-44740000D01*
%TO.N,C_4*%
X110490001Y-54399005D02*
X110338001Y-54551005D01*
%TO.N,R_6*%
X102530001Y-52184996D02*
X101489997Y-53225000D01*
%TO.N,R_4*%
X108690001Y-107585000D02*
X108690001Y-123665002D01*
X73890001Y-93300000D02*
X73890001Y-81150004D01*
X107624999Y-73100000D02*
X107690001Y-73034998D01*
%TO.N,A_5*%
X114900000Y-110475001D02*
X114590001Y-110165002D01*
%TO.N,A_7*%
X98690001Y-82065002D02*
X98707500Y-82082501D01*
%TO.N,R_6*%
X101600000Y-103309999D02*
X101590001Y-103300000D01*
%TO.N,R_4*%
X106800000Y-93075001D02*
X106700000Y-93175001D01*
D15*
X106800000Y-101449999D02*
X106700000Y-101549999D01*
D13*
X108690001Y-123665002D02*
X109500000Y-124475001D01*
X106790001Y-87700000D02*
X106790001Y-93065002D01*
X107590001Y-73134998D02*
X107590001Y-82549000D01*
%TO.N,C_4*%
X102240000Y-72960322D02*
X102240000Y-73874999D01*
%TO.N,C_5*%
X94151000Y-111526001D02*
X94000000Y-111375001D01*
%TO.N,R_3*%
X75700000Y-86649998D02*
X75600000Y-86549998D01*
X86000000Y-62650000D02*
X84790001Y-63859999D01*
X75700000Y-109700001D02*
X75700000Y-86649998D01*
%TO.N,A_3*%
X93899000Y-62875001D02*
X93915000Y-62875001D01*
X96008629Y-76668628D02*
X96040001Y-76700000D01*
%TO.N,R_3*%
X86100000Y-62550000D02*
X86000000Y-62650000D01*
%TO.N,R_4*%
X93400000Y-119175001D02*
X93249000Y-119326001D01*
%TO.N,A_5*%
X117000000Y-116349999D02*
X117000000Y-112575001D01*
%TO.N,R_4*%
X106700000Y-106550000D02*
X106700000Y-101549999D01*
%TO.N,C_3*%
X113714672Y-109875329D02*
X112140002Y-111449999D01*
%TO.N,R_3*%
X84790001Y-71200000D02*
X84790001Y-80390001D01*
%TO.N,R_5*%
X114000000Y-53475001D02*
X114300000Y-53175001D01*
%TO.N,A_6*%
X79690001Y-89602927D02*
X79690001Y-92600000D01*
%TO.N,R_5*%
X105390001Y-117400000D02*
X105390001Y-108375001D01*
%TO.N,A_6*%
X88700000Y-97375001D02*
X88500000Y-97175001D01*
%TO.N,R_5*%
X96700000Y-92975001D02*
X96790001Y-92885000D01*
X96500000Y-93175001D02*
X96700000Y-92975001D01*
%TO.N,R_6*%
X101600000Y-108375001D02*
X101600000Y-103309999D01*
X100749000Y-102458999D02*
X101590001Y-103300000D01*
%TO.N,C_5*%
X92166116Y-73047689D02*
X92100000Y-73113805D01*
%TO.N,C_6*%
X116490001Y-63259999D02*
X116490001Y-82985000D01*
%TO.N,R_5*%
X105390001Y-108375001D02*
X105490001Y-108275001D01*
%TO.N,A_6*%
X88690001Y-101285000D02*
X88700000Y-101275001D01*
%TO.N,A_7*%
X80900000Y-111449999D02*
X80900000Y-101549999D01*
%TO.N,R_5*%
X96500000Y-101549997D02*
X96500000Y-93175001D01*
X104790001Y-54399005D02*
X104790001Y-46400000D01*
%TO.N,A_4*%
X82301000Y-80311000D02*
X83290000Y-81300000D01*
%TO.N,R_5*%
X96790001Y-92885000D02*
X96790001Y-87800000D01*
X83390001Y-129500000D02*
X83390001Y-128665002D01*
%TO.N,R_4*%
X107690001Y-63685000D02*
X108460001Y-62915000D01*
%TO.N,C_4*%
X81290001Y-117785000D02*
X81300000Y-117775001D01*
%TO.N,C_6*%
X117100000Y-54975001D02*
X117100000Y-62650000D01*
%TO.N,R_2*%
X96390001Y-62650000D02*
X96400000Y-62650000D01*
X87390001Y-85159996D02*
X87390001Y-64685000D01*
X86000000Y-86549997D02*
X87390001Y-85159996D01*
X74940001Y-68300000D02*
X74940001Y-63700000D01*
%TO.N,R_7*%
X89490001Y-131500000D02*
X90360934Y-132370933D01*
D15*
%TO.N,C_5*%
X83480002Y-125800001D02*
X83635002Y-125645001D01*
D14*
%TO.N,A_3*%
X111390001Y-40960000D02*
X110101001Y-42249000D01*
D13*
%TO.N,C_5*%
X93780002Y-91700000D02*
X93780002Y-95900001D01*
%TO.N,R_2*%
X87390001Y-64685000D02*
X88300000Y-63775001D01*
%TO.N,A_7*%
X79349000Y-113000999D02*
X80900000Y-111449999D01*
%TO.N,R_6*%
X117180002Y-124274329D02*
X117180002Y-134400001D01*
D14*
%TO.N,A_4*%
X80353819Y-39709000D02*
X79621001Y-40441818D01*
D13*
%TO.N,C_4*%
X93316958Y-73158043D02*
X93316958Y-78726957D01*
%TO.N,C_5*%
X94000000Y-120475001D02*
X95649000Y-122124001D01*
%TO.N,A_5*%
X99100000Y-101175001D02*
X99100000Y-102600000D01*
D14*
%TO.N,A_7*%
X98171819Y-42249000D02*
X97401001Y-43019818D01*
D13*
%TO.N,R_1*%
X107759001Y-49636999D02*
X107759001Y-62624636D01*
%TO.N,C_5*%
X94000000Y-111375001D02*
X94000000Y-107175001D01*
%TO.N,R_1*%
X107759001Y-62624636D02*
X106690001Y-63693636D01*
X86390001Y-67665002D02*
X86390001Y-74560001D01*
%TO.N,C_5*%
X93780002Y-95900001D02*
X93580002Y-96100001D01*
%TO.N,R_1*%
X106690001Y-63693636D02*
X106690001Y-74950000D01*
%TO.N,C_4*%
X84600769Y-127700000D02*
X81290001Y-124389232D01*
D14*
%TO.N,R_3*%
X111191001Y-43699000D02*
X111191001Y-71325997D01*
D13*
%TO.N,C_7*%
X92241001Y-137649000D02*
X93880002Y-136009999D01*
X109280002Y-126309999D02*
X109280002Y-131000001D01*
X112727925Y-116600000D02*
X111039001Y-114911076D01*
%TO.N,R_6*%
X102530001Y-44740000D02*
X103770001Y-43500000D01*
%TO.N,C_7*%
X101580002Y-134400001D02*
X99490002Y-134400001D01*
%TO.N,A_3*%
X95290001Y-76668628D02*
X95290001Y-64865002D01*
%TO.N,C_7*%
X98090001Y-133300000D02*
X98290001Y-133500000D01*
X111039001Y-77451000D02*
X111790001Y-76700000D01*
X98090001Y-122200000D02*
X98090001Y-133300000D01*
X114600000Y-116600000D02*
X114600000Y-112575001D01*
X75600000Y-136109999D02*
X77139001Y-137649000D01*
%TO.N,A_7*%
X96390001Y-118290002D02*
X96551000Y-118451001D01*
%TO.N,C_7*%
X98590001Y-133500000D02*
X98290001Y-133500000D01*
X109280002Y-131000001D02*
X109180002Y-131100001D01*
X98290001Y-133500000D02*
X94180001Y-133500000D01*
%TO.N,C_6*%
X116490001Y-82985000D02*
X116400000Y-83075001D01*
%TO.N,A_7*%
X79349000Y-131568999D02*
X79349000Y-113000999D01*
%TO.N,R_4*%
X108460001Y-43890000D02*
X108850001Y-43500000D01*
%TO.N,R_5*%
X114000000Y-68775001D02*
X114000000Y-53475001D01*
%TO.N,C_4*%
X104090001Y-124500000D02*
X104090001Y-110885000D01*
%TO.N,C_6*%
X92390001Y-131865002D02*
X92900000Y-132375001D01*
%TO.N,R_4*%
X107690001Y-73100000D02*
X107624999Y-73100000D01*
%TO.N,R_1*%
X106690001Y-45900000D02*
X106690001Y-48567999D01*
%TO.N,R_7*%
X103797501Y-133192500D02*
X103646501Y-133343500D01*
%TO.N,A_6*%
X83390001Y-120765002D02*
X83400000Y-120775001D01*
%TO.N,A_4*%
X82490001Y-77535999D02*
X82490001Y-64349999D01*
%TO.N,A_6*%
X88690001Y-112650002D02*
X88690001Y-101285000D01*
%TO.N,R_5*%
X83390001Y-128665002D02*
X80100000Y-125375001D01*
%TO.N,A_6*%
X88582501Y-112757502D02*
X83517499Y-112757502D01*
%TO.N,C_3*%
X113290001Y-92700000D02*
X113290001Y-91365002D01*
%TO.N,R_6*%
X87000000Y-92775001D02*
X87000000Y-100550001D01*
%TO.N,C_3*%
X83390001Y-48200000D02*
X83390001Y-48300000D01*
%TO.N,A_6*%
X77446001Y-87358927D02*
X79690001Y-89602927D01*
%TO.N,R_3*%
X78200000Y-82600000D02*
X78200000Y-86375001D01*
%TO.N,A_5*%
X99100000Y-103900000D02*
X99100000Y-111175001D01*
%TO.N,R_5*%
X96500000Y-101549997D02*
X96500000Y-106449999D01*
%TO.N,R_4*%
X107590001Y-86900000D02*
X106790001Y-87700000D01*
%TO.N,C_7*%
X109290001Y-126300000D02*
X109280002Y-126309999D01*
%TO.N,A_3*%
X95290001Y-64865002D02*
X93899000Y-63474001D01*
D14*
X110101001Y-42249000D02*
X110101001Y-44018182D01*
D13*
%TO.N,C_3*%
X84090001Y-77600000D02*
X83890001Y-77800000D01*
%TO.N,R_7*%
X89490001Y-127500000D02*
X89490001Y-131500000D01*
%TO.N,C_4*%
X85690001Y-127700000D02*
X84600769Y-127700000D01*
%TO.N,R_7*%
X91100000Y-86449999D02*
X91200000Y-86549999D01*
%TO.N,A_6*%
X109276765Y-81600000D02*
X109276765Y-86198236D01*
X106800000Y-116349999D02*
X106800000Y-126249999D01*
%TO.N,R_6*%
X101600000Y-113500000D02*
X101600000Y-108375001D01*
%TO.N,C_4*%
X103900000Y-106975001D02*
X104200000Y-106675001D01*
%TO.N,C_5*%
X93700000Y-91619998D02*
X93780002Y-91700000D01*
%TO.N,R_7*%
X78181002Y-93899001D02*
X77929002Y-94151001D01*
%TO.N,C_7*%
X93880002Y-136009999D02*
X93880002Y-134300000D01*
%TO.N,C_3*%
X103190001Y-71200000D02*
X103990001Y-72000000D01*
%TO.N,R_4*%
X93249000Y-119326001D02*
X93249000Y-122842999D01*
%TO.N,C_4*%
X103590001Y-75225000D02*
X103590001Y-82999000D01*
%TO.N,A_4*%
X82490001Y-64349999D02*
X80790001Y-62649999D01*
%TO.N,C_5*%
X93429002Y-106604003D02*
X93429002Y-96251001D01*
%TO.N,R_4*%
X108460001Y-62915000D02*
X108460001Y-43890000D01*
%TO.N,R_7*%
X89440001Y-108500000D02*
X89440001Y-116750000D01*
%TO.N,C_7*%
X88390001Y-53600000D02*
X88390001Y-53975001D01*
%TO.N,C_1*%
X106690001Y-84700000D02*
X106590001Y-84800000D01*
X76590001Y-57500000D02*
X76490001Y-57400000D01*
%TO.N,C_4*%
X104491001Y-83900000D02*
X104491001Y-92384000D01*
%TO.N,C_1*%
X75790001Y-56695924D02*
X75790001Y-53224998D01*
%TO.N,C_6*%
X74190001Y-45140000D02*
X75830001Y-43500000D01*
%TO.N,A_5*%
X117790001Y-67700000D02*
X117790001Y-85759997D01*
%TO.N,R_3*%
X111990001Y-91673638D02*
X111990001Y-109700001D01*
%TO.N,C_7*%
X93880002Y-134300000D02*
X93880002Y-133200001D01*
%TO.N,R_4*%
X107590001Y-84051000D02*
X107590001Y-86900000D01*
D14*
%TO.N,A_7*%
X99308112Y-50655457D02*
X99308112Y-62900691D01*
D13*
%TO.N,R_4*%
X106790001Y-93065002D02*
X106800000Y-93075001D01*
%TO.N,R_1*%
X94141001Y-75024043D02*
X94066958Y-74950000D01*
%TO.N,A_7*%
X78931002Y-97024001D02*
X78931002Y-89906003D01*
%TO.N,C_4*%
X102240000Y-73874999D02*
X103590001Y-75225000D01*
%TO.N,C_6*%
X117100000Y-62650000D02*
X116490001Y-63259999D01*
%TO.N,C_3*%
X103190001Y-58834998D02*
X103190001Y-71200000D01*
%TO.N,R_6*%
X101600000Y-90475001D02*
X100749000Y-91326001D01*
%TO.N,C_1*%
X101590001Y-45850000D02*
X101490001Y-45750000D01*
%TO.N,R_4*%
X107690001Y-73034998D02*
X107690001Y-63685000D01*
%TO.N,C_7*%
X75600000Y-134400003D02*
X75600000Y-136109999D01*
%TO.N,C_3*%
X103757500Y-58267499D02*
X103190001Y-58834998D01*
%TO.N,A_5*%
X78890001Y-58853002D02*
X78706000Y-58669001D01*
%TO.N,R_7*%
X78181002Y-91500000D02*
X78181002Y-93899001D01*
%TO.N,A_4*%
X109390001Y-96965002D02*
X109300000Y-96875001D01*
%TO.N,R_1*%
X93890001Y-79900000D02*
X94141001Y-79649000D01*
%TO.N,R_6*%
X86000000Y-106549999D02*
X86000000Y-101550001D01*
%TO.N,C_5*%
X93700000Y-106875001D02*
X93429002Y-106604003D01*
%TO.N,A_5*%
X80441000Y-98449001D02*
X79590001Y-99300000D01*
%TO.N,R_7*%
X83390001Y-87500000D02*
X83390001Y-88065002D01*
%TO.N,A_6*%
X109276765Y-86198236D02*
X109200000Y-86275001D01*
%TO.N,A_4*%
X82152000Y-113238002D02*
X80790001Y-114600001D01*
%TO.N,A_7*%
X80780002Y-133000001D02*
X80780002Y-136150001D01*
%TO.N,C_6*%
X76690001Y-86400000D02*
X76690001Y-98100000D01*
%TO.N,R_6*%
X101790001Y-126659998D02*
X101480002Y-126349999D01*
%TO.N,A_5*%
X117000000Y-112575001D02*
X114900000Y-110475001D01*
%TO.N,R_7*%
X90880000Y-116750000D02*
X91280002Y-116349998D01*
%TO.N,A_5*%
X78200000Y-75875001D02*
X78951000Y-76626001D01*
%TO.N,R_2*%
X96400000Y-62650000D02*
X96990001Y-62059999D01*
%TO.N,A_5*%
X78951000Y-87501000D02*
X80441000Y-88991000D01*
%TO.N,C_7*%
X73290001Y-43500000D02*
X73290001Y-54450000D01*
%TO.N,R_6*%
X115890001Y-113300000D02*
X115990001Y-113200000D01*
%TO.N,C_7*%
X88390001Y-53975001D02*
X89290001Y-54875001D01*
%TO.N,A_4*%
X109490001Y-117290001D02*
X109490001Y-101365002D01*
%TO.N,C_6*%
X83280002Y-92109999D02*
X83490001Y-91900000D01*
%TO.N,R_6*%
X115890001Y-122400000D02*
X115890001Y-113300000D01*
D14*
%TO.N,A_4*%
X79621001Y-45631000D02*
X79790001Y-45800000D01*
D13*
%TO.N,C_5*%
X92100000Y-82075001D02*
X93700000Y-83675001D01*
%TO.N,R_7*%
X100009112Y-55117003D02*
X100009112Y-44720889D01*
X100009112Y-44720889D02*
X101230001Y-43500000D01*
%TO.N,C_7*%
X93880002Y-135700000D02*
X93880002Y-134300000D01*
%TO.N,C_1*%
X76590001Y-78450001D02*
X77990001Y-79850001D01*
X101590001Y-48568000D02*
X101590001Y-45850000D01*
%TO.N,A_6*%
X88700000Y-101275001D02*
X88700000Y-97375001D01*
%TO.N,C_1*%
X106840001Y-76800000D02*
X106690001Y-76950000D01*
X76490001Y-57395924D02*
X75790001Y-56695924D01*
X90990001Y-49800000D02*
X90990001Y-45960000D01*
%TO.N,R_3*%
X86000000Y-62409999D02*
X86290001Y-62700000D01*
%TO.N,A_7*%
X96551000Y-126198999D02*
X96400000Y-126349999D01*
%TO.N,R_7*%
X77929002Y-100952871D02*
X78077938Y-101101807D01*
%TO.N,R_5*%
X88390001Y-71756333D02*
X88390001Y-69348000D01*
%TO.N,C_4*%
X104100000Y-107175001D02*
X103900000Y-106975001D01*
D14*
%TO.N,A_4*%
X108850001Y-40960000D02*
X107599001Y-39709000D01*
D13*
%TO.N,C_6*%
X83390001Y-111065002D02*
X83700000Y-111375001D01*
%TO.N,A_5*%
X79590001Y-99300000D02*
X79590001Y-103000000D01*
%TO.N,C_6*%
X83280002Y-106490001D02*
X83280002Y-97675001D01*
%TO.N,C_1*%
X76590001Y-68900000D02*
X76590001Y-57500000D01*
%TO.N,A_5*%
X117365002Y-67275001D02*
X117790001Y-67700000D01*
%TO.N,A_3*%
X95290001Y-76804544D02*
X95290001Y-80085000D01*
%TO.N,A_6*%
X109276765Y-67971764D02*
X109276765Y-81600000D01*
%TO.N,C_5*%
X77790001Y-73200000D02*
X77790001Y-58064999D01*
%TO.N,R_4*%
X73890001Y-81150004D02*
X73364999Y-80625002D01*
%TO.N,A_7*%
X93780002Y-127400001D02*
X93780002Y-130800001D01*
%TO.N,R_5*%
X96790001Y-87800000D02*
X96790001Y-72900000D01*
%TO.N,C_4*%
X93790001Y-72000000D02*
X93790001Y-72685000D01*
%TO.N,R_2*%
X96990001Y-49258000D02*
X96300000Y-48567999D01*
%TO.N,C_4*%
X104090001Y-110885000D02*
X104100000Y-110875001D01*
%TO.N,R_5*%
X96500000Y-106449999D02*
X96400000Y-106549999D01*
%TO.N,C_3*%
X83190001Y-48000000D02*
X82600001Y-47410000D01*
%TO.N,A_4*%
X109390001Y-101085000D02*
X109390001Y-96965002D01*
%TO.N,R_6*%
X101490001Y-86539998D02*
X101500000Y-86549997D01*
%TO.N,R_3*%
X113176820Y-90486819D02*
X111990001Y-91673638D01*
%TO.N,A_3*%
X94890001Y-82065002D02*
X94890001Y-104090002D01*
%TO.N,A_7*%
X98690001Y-68100000D02*
X98690001Y-82065002D01*
%TO.N,R_6*%
X102490001Y-117240000D02*
X102490001Y-121785000D01*
X101600000Y-67275000D02*
X101490001Y-67384999D01*
%TO.N,C_7*%
X75600000Y-134400003D02*
X75600000Y-111449999D01*
%TO.N,A_5*%
X98900000Y-96975001D02*
X99100000Y-97175001D01*
%TO.N,C_3*%
X82600001Y-44350000D02*
X83450001Y-43500000D01*
%TO.N,C_4*%
X93790001Y-72685000D02*
X93316958Y-73158043D01*
%TO.N,C_3*%
X113990001Y-90665002D02*
X113990001Y-73225001D01*
%TO.N,R_7*%
X91100000Y-77900000D02*
X91100000Y-86449999D01*
%TO.N,A_6*%
X108600000Y-98275001D02*
X108549000Y-98224001D01*
%TO.N,C_0*%
X95490001Y-64073638D02*
X96290001Y-64873638D01*
%TO.N,C_7*%
X99490002Y-134400001D02*
X98590001Y-133500000D01*
%TO.N,R_6*%
X79700000Y-68775001D02*
X80790001Y-69865002D01*
D14*
%TO.N,C_4*%
X84739001Y-45640364D02*
X84730365Y-45640364D01*
D13*
%TO.N,C_5*%
X77955000Y-57900000D02*
X77955000Y-57364999D01*
%TO.N,A_7*%
X78931002Y-89906003D02*
X77700000Y-88675001D01*
%TO.N,C_7*%
X114600000Y-116600000D02*
X112727925Y-116600000D01*
%TO.N,C_4*%
X104491001Y-92384000D02*
X104400000Y-92475001D01*
%TO.N,R_5*%
X105190001Y-117600000D02*
X105390001Y-117400000D01*
%TO.N,R_1*%
X86000000Y-67275001D02*
X86390001Y-67665002D01*
%TO.N,C_3*%
X83450001Y-40960000D02*
X83450001Y-43500000D01*
%TO.N,C_1*%
X76490001Y-57400000D02*
X76490001Y-57395924D01*
%TO.N,A_7*%
X78680002Y-97275001D02*
X78931002Y-97024001D01*
%TO.N,C_3*%
X111900000Y-114490002D02*
X111790001Y-114600001D01*
%TO.N,R_1*%
X86390001Y-74560001D02*
X86000000Y-74950002D01*
%TO.N,R_6*%
X101489997Y-67164997D02*
X101600000Y-67275000D01*
%TO.N,C_0*%
X94410001Y-48080000D02*
X94410001Y-46840000D01*
D14*
%TO.N,C_4*%
X91573638Y-52475001D02*
X93600000Y-52475001D01*
D13*
%TO.N,A_5*%
X86190001Y-124600000D02*
X86190001Y-116200000D01*
%TO.N,C_6*%
X113341001Y-137649000D02*
X96390001Y-137649000D01*
%TO.N,R_3*%
X86000000Y-48577999D02*
X86000000Y-62409999D01*
%TO.N,C_7*%
X109290001Y-63650000D02*
X108439001Y-64501000D01*
D14*
%TO.N,R_3*%
X111191001Y-71325997D02*
X111890001Y-72024997D01*
D13*
%TO.N,C_3*%
X82600001Y-47410000D02*
X82600001Y-44350000D01*
X113714672Y-107600000D02*
X113714672Y-109875329D01*
%TO.N,C_2*%
X81451000Y-87100997D02*
X80900000Y-86549997D01*
X114800000Y-71075001D02*
X115400000Y-71675001D01*
%TO.N,C_1*%
X76590001Y-68900000D02*
X76590001Y-78450001D01*
%TO.N,R_7*%
X74090001Y-129500000D02*
X73290001Y-130300000D01*
%TO.N,A_7*%
X100482422Y-64075001D02*
X100482422Y-65992579D01*
%TO.N,C_6*%
X91290001Y-123600000D02*
X92390001Y-124700000D01*
X83390001Y-106600000D02*
X83280002Y-106490001D01*
%TO.N,A_5*%
X99100000Y-102600000D02*
X99100000Y-103900000D01*
%TO.N,C_1*%
X88490001Y-79850002D02*
X88490001Y-84665002D01*
%TO.N,R_7*%
X89490001Y-116800000D02*
X89440001Y-116750000D01*
%TO.N,R_2*%
X98790001Y-45000000D02*
X98790001Y-48300000D01*
%TO.N,R_6*%
X115890001Y-122400000D02*
X115890001Y-122984328D01*
%TO.N,C_6*%
X114400000Y-136590001D02*
X113341001Y-137649000D01*
%TO.N,C_5*%
X95649000Y-132424001D02*
X95800000Y-132575001D01*
%TO.N,R_1*%
X94141001Y-79649000D02*
X94141001Y-75024043D01*
%TO.N,C_5*%
X93429002Y-96251001D02*
X93580002Y-96100001D01*
%TO.N,R_6*%
X101790001Y-132592500D02*
X101790001Y-126659998D01*
%TO.N,C_7*%
X114600000Y-126975001D02*
X114600000Y-116600000D01*
%TO.N,C_1*%
X75790001Y-50300000D02*
X76190001Y-49900000D01*
%TO.N,C_5*%
X106790001Y-58385002D02*
X105940001Y-59235002D01*
%TO.N,R_2*%
X86000000Y-94700000D02*
X86000000Y-86549997D01*
%TO.N,A_7*%
X96390001Y-116349999D02*
X96390001Y-118290002D01*
%TO.N,C_2*%
X102290001Y-99009998D02*
X101500000Y-99799999D01*
D14*
%TO.N,A_1*%
X116470001Y-40960000D02*
X117721001Y-42211000D01*
D13*
%TO.N,C_2*%
X115290001Y-51365002D02*
X113900000Y-49975001D01*
%TO.N,R_5*%
X106310001Y-44880000D02*
X106310001Y-43500000D01*
%TO.N,C_2*%
X102351000Y-90163926D02*
X102351000Y-90786076D01*
X88590001Y-48500000D02*
X88590001Y-46100000D01*
%TO.N,C_4*%
X110338001Y-89952000D02*
X109390001Y-90900000D01*
%TO.N,C_2*%
X114900000Y-58975001D02*
X114900000Y-70975001D01*
%TO.N,C_4*%
X81290001Y-124389232D02*
X81290001Y-123600000D01*
%TO.N,C_2*%
X88590001Y-46100000D02*
X85990001Y-43500000D01*
X80800000Y-99800001D02*
X81451000Y-99149001D01*
%TO.N,C_3*%
X103757500Y-58132501D02*
X103757500Y-58267499D01*
%TO.N,A_7*%
X80780002Y-133000001D02*
X79349000Y-131568999D01*
%TO.N,C_2*%
X115290001Y-58585000D02*
X115290001Y-51365002D01*
%TO.N,C_5*%
X77790001Y-58064999D02*
X77955000Y-57900000D01*
%TO.N,C_7*%
X111039001Y-114911076D02*
X111039001Y-77451000D01*
%TO.N,C_2*%
X115400000Y-97590001D02*
X114740001Y-98250000D01*
X115400000Y-78375001D02*
X115400000Y-97590001D01*
%TO.N,R_6*%
X101480002Y-122794999D02*
X102100000Y-122175001D01*
%TO.N,C_5*%
X93700000Y-83775001D02*
X93700000Y-91619998D01*
%TO.N,C_6*%
X83390001Y-106600000D02*
X83390001Y-111065002D01*
%TO.N,C_2*%
X81451000Y-99149001D02*
X81451000Y-87100997D01*
D14*
%TO.N,C_4*%
X84730365Y-45640364D02*
X84290001Y-45200000D01*
D13*
%TO.N,C_2*%
X114900000Y-70975001D02*
X114800000Y-71075001D01*
%TO.N,C_7*%
X108526765Y-72651000D02*
X108526765Y-77800000D01*
%TO.N,C_2*%
X102290001Y-90102927D02*
X102351000Y-90163926D01*
%TO.N,R_3*%
X111890001Y-72024997D02*
X113176820Y-73311816D01*
%TO.N,C_2*%
X115400000Y-71675001D02*
X115400000Y-78375001D01*
D14*
%TO.N,A_7*%
X99308112Y-62900691D02*
X100482422Y-64075001D01*
D13*
%TO.N,R_6*%
X80790001Y-69865002D02*
X80790001Y-72024997D01*
%TO.N,C_2*%
X114900000Y-58975001D02*
X115290001Y-58585000D01*
%TO.N,A_4*%
X109300000Y-101175001D02*
X109390001Y-101085000D01*
%TO.N,C_0*%
X113200000Y-64225003D02*
X112190001Y-65235002D01*
%TO.N,R_6*%
X101600000Y-116349999D02*
X101600000Y-113500000D01*
D14*
%TO.N,A_1*%
X117721001Y-42211000D02*
X117721001Y-48981058D01*
D13*
%TO.N,C_3*%
X112140002Y-111449999D02*
X111900000Y-111449999D01*
%TO.N,C_0*%
X95490001Y-61526001D02*
X95490001Y-64073638D01*
%TO.N,A_7*%
X98800000Y-67990001D02*
X98690001Y-68100000D01*
%TO.N,C_5*%
X119590001Y-117485268D02*
X118675269Y-118400000D01*
%TO.N,C_1*%
X90990001Y-45960000D02*
X88530001Y-43500000D01*
%TO.N,C_4*%
X80910001Y-40960000D02*
X80910001Y-43500000D01*
%TO.N,C_0*%
X111900000Y-48568000D02*
X113149000Y-49817000D01*
%TO.N,R_7*%
X103646501Y-133343500D02*
X101478926Y-133343500D01*
%TO.N,R_5*%
X105190001Y-128400000D02*
X105190001Y-117600000D01*
%TO.N,A_6*%
X104508500Y-57450498D02*
X104090001Y-57031999D01*
%TO.N,R_2*%
X98790001Y-48300000D02*
X98890001Y-48400000D01*
%TO.N,C_0*%
X113149000Y-49817000D02*
X113149000Y-50286076D01*
%TO.N,R_5*%
X104790001Y-46400000D02*
X106310001Y-44880000D01*
%TO.N,C_0*%
X94410001Y-46840000D02*
X91070001Y-43500000D01*
%TO.N,C_3*%
X113990001Y-73225001D02*
X113965000Y-73200000D01*
%TO.N,R_6*%
X101490001Y-67384999D02*
X101490001Y-86539998D01*
%TO.N,A_5*%
X117790001Y-85759997D02*
X117000000Y-86549998D01*
%TO.N,C_7*%
X73290001Y-40960000D02*
X73290001Y-43500000D01*
%TO.N,C_6*%
X75830001Y-40960000D02*
X75830001Y-43500000D01*
%TO.N,C_1*%
X88530001Y-40960000D02*
X88530001Y-43500000D01*
%TO.N,C_2*%
X85990001Y-40960000D02*
X85990001Y-43500000D01*
%TO.N,C_5*%
X78370001Y-40960000D02*
X78370001Y-43500000D01*
%TO.N,C_0*%
X91070001Y-40960000D02*
X91070001Y-43500000D01*
X112190001Y-65235002D02*
X112190001Y-65525003D01*
%TO.N,C_6*%
X114400000Y-131175001D02*
X113790001Y-130565002D01*
%TO.N,C_5*%
X95649000Y-122124001D02*
X95649000Y-132424001D01*
%TO.N,A_6*%
X106700000Y-136140001D02*
X106690001Y-136150000D01*
D14*
%TO.N,R_3*%
X111390001Y-43500000D02*
X111191001Y-43699000D01*
D13*
%TO.N,R_7*%
X99090001Y-127765002D02*
X99100000Y-127775001D01*
X83390001Y-88065002D02*
X83400000Y-88075001D01*
%TO.N,C_3*%
X83190001Y-48000000D02*
X83390001Y-48200000D01*
%TO.N,C_0*%
X94410001Y-48080000D02*
X95990001Y-49660000D01*
%TO.N,R_7*%
X83400000Y-88075001D02*
X83400000Y-90875001D01*
%TO.N,R_6*%
X100749000Y-91326001D02*
X100749000Y-102458999D01*
%TO.N,C_0*%
X113200000Y-50337076D02*
X113200000Y-64225003D01*
%TO.N,R_0*%
X83290001Y-51600000D02*
X83290001Y-56125003D01*
%TO.N,C_7*%
X73290001Y-54450000D02*
X73440001Y-54600000D01*
%TO.N,C_0*%
X95990001Y-49660000D02*
X95990001Y-61026001D01*
%TO.N,A_4*%
X80790001Y-62649999D02*
X79790001Y-61649999D01*
%TO.N,C_7*%
X94180001Y-133500000D02*
X93880002Y-133200001D01*
%TO.N,R_6*%
X87000000Y-100550001D02*
X86000000Y-101550001D01*
%TO.N,C_4*%
X81290001Y-123600000D02*
X81290001Y-117785000D01*
D14*
%TO.N,A_7*%
X99941001Y-42249000D02*
X98171819Y-42249000D01*
D13*
%TO.N,R_3*%
X84790001Y-80390001D02*
X86000000Y-81600000D01*
%TO.N,C_0*%
X80800000Y-53224999D02*
X80800000Y-60900000D01*
%TO.N,C_2*%
X102240000Y-75875589D02*
X102290001Y-75925590D01*
%TO.N,R_6*%
X101500000Y-90375001D02*
X101500000Y-86549997D01*
%TO.N,C_7*%
X108439001Y-64501000D02*
X108439001Y-72563236D01*
D14*
%TO.N,A_6*%
X103770001Y-40960000D02*
X105021001Y-42211000D01*
D13*
%TO.N,R_7*%
X90360934Y-132370933D02*
X90360934Y-132600001D01*
%TO.N,R_4*%
X106700000Y-93175001D02*
X106700000Y-101549999D01*
D14*
%TO.N,A_1*%
X119440001Y-50700058D02*
X119440001Y-72800000D01*
D13*
%TO.N,C_1*%
X88490001Y-84665002D02*
X88700000Y-84875001D01*
D15*
%TO.N,C_0*%
X112100000Y-65525003D02*
X112190001Y-65525003D01*
D13*
%TO.N,A_6*%
X108549000Y-98224001D02*
X108549000Y-86926001D01*
X75691001Y-84299636D02*
X77446001Y-86054636D01*
%TO.N,A_2*%
X118690001Y-59965002D02*
X118690001Y-88185000D01*
%TO.N,C_4*%
X103590001Y-82999000D02*
X104491001Y-83900000D01*
%TO.N,C_1*%
X75790001Y-53224998D02*
X75790001Y-50300000D01*
D14*
%TO.N,A_6*%
X103690001Y-46200000D02*
X103690001Y-56631999D01*
D13*
%TO.N,C_5*%
X77130001Y-56540000D02*
X77130001Y-44740000D01*
%TO.N,R_3*%
X84790001Y-63859999D02*
X84790001Y-71200000D01*
D14*
%TO.N,A_2*%
X118100000Y-50209999D02*
X118100000Y-59375001D01*
D13*
%TO.N,C_0*%
X95990001Y-61026001D02*
X95490001Y-61526001D01*
%TO.N,A_3*%
X93899000Y-63474001D02*
X93899000Y-62875001D01*
%TO.N,C_1*%
X106690001Y-76950000D02*
X106690001Y-84700000D01*
%TO.N,A_2*%
X81551000Y-65110999D02*
X81551000Y-82047636D01*
X80790001Y-82808635D02*
X80790001Y-84800000D01*
D14*
%TO.N,A_1*%
X117721001Y-48981058D02*
X119440001Y-50700058D01*
D13*
%TO.N,C_6*%
X92390001Y-124700000D02*
X92390001Y-131865002D01*
%TO.N,C_4*%
X104100000Y-110875001D02*
X104100000Y-107175001D01*
%TO.N,A_7*%
X78680002Y-100575001D02*
X78680002Y-97275001D01*
%TO.N,C_2*%
X102290001Y-90847075D02*
X102290001Y-99009998D01*
D14*
%TO.N,A_2*%
X115181001Y-42211000D02*
X115181001Y-47291000D01*
D13*
%TO.N,R_5*%
X96790001Y-72900000D02*
X96690001Y-72800000D01*
%TO.N,R_2*%
X96990001Y-62059999D02*
X96990001Y-49258000D01*
%TO.N,C_3*%
X113714672Y-107600000D02*
X113714672Y-98524671D01*
D14*
%TO.N,A_2*%
X115181001Y-47291000D02*
X118100000Y-50209999D01*
D13*
%TO.N,R_7*%
X74090001Y-108100000D02*
X74090001Y-129500000D01*
%TO.N,C_2*%
X102351000Y-90786076D02*
X102290001Y-90847075D01*
X102290001Y-75925590D02*
X102290001Y-90102927D01*
%TO.N,R_7*%
X77929002Y-94151001D02*
X77929002Y-100952871D01*
%TO.N,A_2*%
X81551000Y-82047636D02*
X80790001Y-82808635D01*
D14*
%TO.N,A_4*%
X107599001Y-39709000D02*
X80353819Y-39709000D01*
D13*
%TO.N,C_4*%
X92990001Y-71200000D02*
X92990001Y-58785000D01*
%TO.N,A_2*%
X118690001Y-88185000D02*
X118400000Y-88475001D01*
%TO.N,C_7*%
X89290001Y-54875001D02*
X89290001Y-82800000D01*
%TO.N,C_4*%
X93790001Y-72000000D02*
X92990001Y-71200000D01*
D14*
%TO.N,A_2*%
X113930001Y-40960000D02*
X115181001Y-42211000D01*
D13*
%TO.N,C_5*%
X92100000Y-73113805D02*
X92100000Y-82075001D01*
%TO.N,R_5*%
X80100000Y-125375001D02*
X80100000Y-117975001D01*
%TO.N,A_2*%
X80990001Y-64550000D02*
X81551000Y-65110999D01*
%TO.N,C_3*%
X104990001Y-77876001D02*
X104990001Y-73000000D01*
%TO.N,C_4*%
X92990001Y-58785000D02*
X93600000Y-58175001D01*
%TO.N,A_2*%
X118100000Y-59375001D02*
X118690001Y-59965002D01*
%TO.N,C_3*%
X83190001Y-48000000D02*
X84090001Y-48900000D01*
%TO.N,R_1*%
X106690001Y-48567999D02*
X107759001Y-49636999D01*
%TO.N,C_6*%
X113790001Y-130565002D02*
X113790001Y-123000000D01*
%TO.N,C_0*%
X96290001Y-64873638D02*
X96290001Y-65525003D01*
%TO.N,R_7*%
X89490001Y-127500000D02*
X89490001Y-116800000D01*
%TO.N,C_7*%
X89290001Y-82800000D02*
X89390001Y-82900000D01*
%TO.N,A_5*%
X99000000Y-88600000D02*
X99000000Y-96875001D01*
%TO.N,C_6*%
X74690001Y-73900000D02*
X74690001Y-84290000D01*
%TO.N,R_3*%
X113176820Y-73311816D02*
X113176820Y-90486819D01*
D15*
%TO.N,C_0*%
X112000000Y-65425003D02*
X112100000Y-65525003D01*
D13*
%TO.N,C_7*%
X77139001Y-137649000D02*
X92241001Y-137649000D01*
X108439001Y-72563236D02*
X108526765Y-72651000D01*
%TO.N,A_6*%
X106800000Y-126249999D02*
X106700000Y-126349999D01*
%TO.N,A_4*%
X83290000Y-81300000D02*
X82152000Y-82438000D01*
D14*
%TO.N,A_1*%
X167721001Y-48981058D02*
X169440001Y-50700058D01*
X167721001Y-42211000D02*
X167721001Y-48981058D01*
X169440001Y-50700058D02*
X169440001Y-72800000D01*
X166470001Y-40960000D02*
X167721001Y-42211000D01*
D13*
%TO.N,A_2*%
X130990001Y-64550000D02*
X131551000Y-65110999D01*
X130790001Y-82808635D02*
X130790001Y-84800000D01*
D14*
X168100000Y-50209999D02*
X168100000Y-59375001D01*
X165181001Y-42211000D02*
X165181001Y-47291000D01*
D13*
X131551000Y-65110999D02*
X131551000Y-82047636D01*
X168100000Y-59375001D02*
X168690001Y-59965002D01*
D14*
X165181001Y-47291000D02*
X168100000Y-50209999D01*
X163930001Y-40960000D02*
X165181001Y-42211000D01*
D13*
X168690001Y-88185000D02*
X168400000Y-88475001D01*
X168690001Y-59965002D02*
X168690001Y-88185000D01*
X131551000Y-82047636D02*
X130790001Y-82808635D01*
%TO.N,C_0*%
X145490001Y-61526001D02*
X145490001Y-64073638D01*
X130800000Y-53224999D02*
X130800000Y-60900000D01*
X141070001Y-40960000D02*
X141070001Y-43500000D01*
X146290001Y-64873638D02*
X146290001Y-65525003D01*
X163200000Y-64225003D02*
X162190001Y-65235002D01*
D15*
X162000000Y-65425003D02*
X162100000Y-65525003D01*
D13*
X144410001Y-48080000D02*
X145990001Y-49660000D01*
X163149000Y-49817000D02*
X163149000Y-50286076D01*
X144410001Y-46840000D02*
X141070001Y-43500000D01*
X163200000Y-50337076D02*
X163200000Y-64225003D01*
X161900000Y-48568000D02*
X163149000Y-49817000D01*
X145990001Y-49660000D02*
X145990001Y-61026001D01*
X145490001Y-64073638D02*
X146290001Y-64873638D01*
X145990001Y-61026001D02*
X145490001Y-61526001D01*
D15*
X162100000Y-65525003D02*
X162190001Y-65525003D01*
D13*
X144410001Y-48080000D02*
X144410001Y-46840000D01*
X162190001Y-65235002D02*
X162190001Y-65525003D01*
X163149000Y-50286076D02*
X163200000Y-50337076D01*
%TO.N,C_1*%
X126590001Y-68900000D02*
X126590001Y-78450001D01*
X156840001Y-76800000D02*
X156690001Y-76950000D01*
X125790001Y-53224998D02*
X125790001Y-50300000D01*
X140990001Y-45960000D02*
X138530001Y-43500000D01*
X140990001Y-49800000D02*
X140990001Y-45960000D01*
X126490001Y-57395924D02*
X125790001Y-56695924D01*
X156690001Y-76950000D02*
X156690001Y-84700000D01*
X151590001Y-48568000D02*
X151590001Y-45850000D01*
X126490001Y-57400000D02*
X126490001Y-57395924D01*
X126590001Y-68900000D02*
X126590001Y-57500000D01*
X126590001Y-78450001D02*
X127990001Y-79850001D01*
X156690001Y-84700000D02*
X156590001Y-84800000D01*
X151590001Y-45850000D02*
X151490001Y-45750000D01*
X125790001Y-50300000D02*
X126190001Y-49900000D01*
X126590001Y-57500000D02*
X126490001Y-57400000D01*
X125790001Y-56695924D02*
X125790001Y-53224998D01*
X138530001Y-40960000D02*
X138530001Y-43500000D01*
X138490001Y-84665002D02*
X138700000Y-84875001D01*
X138490001Y-79850002D02*
X138490001Y-84665002D01*
%TO.N,C_2*%
X152240000Y-75875589D02*
X152290001Y-75925590D01*
X164800000Y-71075001D02*
X165400000Y-71675001D01*
X131451000Y-87100997D02*
X130900000Y-86549997D01*
X135990001Y-40960000D02*
X135990001Y-43500000D01*
X130800000Y-99800001D02*
X131451000Y-99149001D01*
X138590001Y-48500000D02*
X138590001Y-46100000D01*
X152351000Y-90786076D02*
X152290001Y-90847075D01*
X164900000Y-58975001D02*
X164900000Y-70975001D01*
X152290001Y-99009998D02*
X151500000Y-99799999D01*
X131451000Y-99149001D02*
X131451000Y-87100997D01*
X164900000Y-58975001D02*
X165290001Y-58585000D01*
X165290001Y-58585000D02*
X165290001Y-51365002D01*
X152351000Y-90163926D02*
X152351000Y-90786076D01*
X165400000Y-97590001D02*
X164740001Y-98250000D01*
X138590001Y-46100000D02*
X135990001Y-43500000D01*
X165290001Y-51365002D02*
X163900000Y-49975001D01*
X152290001Y-90847075D02*
X152290001Y-99009998D01*
X165400000Y-78375001D02*
X165400000Y-97590001D01*
X165400000Y-71675001D02*
X165400000Y-78375001D01*
X152290001Y-75925590D02*
X152290001Y-90102927D01*
X152290001Y-90102927D02*
X152351000Y-90163926D01*
X164900000Y-70975001D02*
X164800000Y-71075001D01*
D14*
%TO.N,A_3*%
X160101001Y-42249000D02*
X160101001Y-44018182D01*
D13*
X145290001Y-64865002D02*
X143899000Y-63474001D01*
X145290001Y-76804544D02*
X145290001Y-80085000D01*
D14*
X159490001Y-44629182D02*
X159490001Y-58100000D01*
D13*
X143899000Y-63474001D02*
X143899000Y-62875001D01*
D14*
X160101001Y-44018182D02*
X159490001Y-44629182D01*
D13*
X145290001Y-80085000D02*
X144100000Y-81275001D01*
D14*
X161390001Y-40960000D02*
X160101001Y-42249000D01*
D13*
X145290001Y-76668628D02*
X145290001Y-64865002D01*
X144700000Y-62090001D02*
X144700000Y-59474002D01*
X144890001Y-82065002D02*
X144890001Y-104090002D01*
X146008629Y-76668628D02*
X146040001Y-76700000D01*
X144890001Y-104090002D02*
X144180002Y-104800001D01*
X145290001Y-76668628D02*
X146008629Y-76668628D01*
X143915000Y-62875001D02*
X144700000Y-62090001D01*
X143899000Y-62875001D02*
X143915000Y-62875001D01*
X144100000Y-81275001D02*
X144890001Y-82065002D01*
%TO.N,C_3*%
X133450001Y-40960000D02*
X133450001Y-43500000D01*
X163290001Y-91365002D02*
X163990001Y-90665002D01*
X163290001Y-92700000D02*
X163290001Y-98100000D01*
X134090001Y-48900000D02*
X134090001Y-77600000D01*
X133390001Y-48200000D02*
X133390001Y-48300000D01*
X163714672Y-98524671D02*
X163390001Y-98200000D01*
X133190001Y-48000000D02*
X132600001Y-47410000D01*
X161900000Y-111449999D02*
X161900000Y-114490002D01*
X163990001Y-73225001D02*
X163965000Y-73200000D01*
X161900000Y-114490002D02*
X161790001Y-114600001D01*
X153190001Y-71200000D02*
X153990001Y-72000000D01*
X153757500Y-58267499D02*
X153190001Y-58834998D01*
X163290001Y-92700000D02*
X163290001Y-91365002D01*
X163714672Y-109875329D02*
X162140002Y-111449999D01*
X163990001Y-90665002D02*
X163990001Y-73225001D01*
X163714672Y-107600000D02*
X163714672Y-109875329D01*
X153757500Y-58132501D02*
X153757500Y-58267499D01*
X134090001Y-77600000D02*
X133890001Y-77800000D01*
X132600001Y-44350000D02*
X133450001Y-43500000D01*
X163290001Y-98100000D02*
X163390001Y-98200000D01*
X153190001Y-58834998D02*
X153190001Y-71200000D01*
X162140002Y-111449999D02*
X161900000Y-111449999D01*
X154990001Y-73000000D02*
X153990001Y-72000000D01*
X132600001Y-47410000D02*
X132600001Y-44350000D01*
X154990001Y-77876001D02*
X154990001Y-73000000D01*
X133190001Y-48000000D02*
X134090001Y-48900000D01*
X163714672Y-107600000D02*
X163714672Y-98524671D01*
X133190001Y-48000000D02*
X133390001Y-48200000D01*
%TO.N,A_4*%
X161800000Y-119600000D02*
X159490001Y-117290001D01*
X133290000Y-81300000D02*
X132152000Y-82438000D01*
D14*
X157599001Y-39709000D02*
X130353819Y-39709000D01*
X130353819Y-39709000D02*
X129621001Y-40441818D01*
D13*
X130790001Y-62649999D02*
X129790001Y-61649999D01*
X132301000Y-80311000D02*
X133290000Y-81300000D01*
D14*
X129621001Y-45631000D02*
X129790001Y-45800000D01*
D13*
X159490001Y-101365002D02*
X159300000Y-101175001D01*
X132490001Y-77535999D02*
X132490001Y-64349999D01*
X159390001Y-96965002D02*
X159300000Y-96875001D01*
X159390001Y-101085000D02*
X159390001Y-96965002D01*
X132152000Y-113238002D02*
X130790001Y-114600001D01*
X129790001Y-61649999D02*
X129790001Y-45800000D01*
X132490001Y-64349999D02*
X130790001Y-62649999D01*
X159490001Y-117290001D02*
X159490001Y-101365002D01*
X132152000Y-82438000D02*
X132152000Y-113238002D01*
X132301000Y-77725000D02*
X132301000Y-80311000D01*
D14*
X129621001Y-40441818D02*
X129621001Y-45631000D01*
D13*
X159300000Y-101175001D02*
X159390001Y-101085000D01*
X132301000Y-77725000D02*
X132490001Y-77535999D01*
D14*
X158850001Y-40960000D02*
X157599001Y-39709000D01*
D13*
%TO.N,C_4*%
X153900000Y-106975001D02*
X154200000Y-106675001D01*
X143790001Y-72000000D02*
X143790001Y-72685000D01*
X134600769Y-127700000D02*
X131290001Y-124389232D01*
X154090001Y-124500000D02*
X154090001Y-110885000D01*
X154200000Y-106675001D02*
X154200000Y-95975001D01*
X154491001Y-83900000D02*
X154491001Y-92384000D01*
X142990001Y-71200000D02*
X142990001Y-58785000D01*
X143316958Y-78726957D02*
X143390001Y-78800000D01*
X143316958Y-73158043D02*
X143316958Y-78726957D01*
X152240000Y-73874999D02*
X153590001Y-75225000D01*
X160490001Y-54399005D02*
X160338001Y-54551005D01*
X160338001Y-54551005D02*
X160338001Y-89952000D01*
X130910001Y-40960000D02*
X130910001Y-43500000D01*
X154200000Y-95975001D02*
X154200000Y-92675001D01*
X143790001Y-72000000D02*
X142990001Y-71200000D01*
X143790001Y-72685000D02*
X143316958Y-73158043D01*
D14*
X141573638Y-52475001D02*
X143600000Y-52475001D01*
D13*
X142990001Y-58785000D02*
X143600000Y-58175001D01*
X154200000Y-92675001D02*
X154400000Y-92475001D01*
X152240000Y-72960322D02*
X152240000Y-73874999D01*
X131290001Y-123600000D02*
X131290001Y-117785000D01*
X143600000Y-52475001D02*
X143600000Y-58175001D01*
X154491001Y-92384000D02*
X154400000Y-92475001D01*
X160338001Y-89952000D02*
X159390001Y-90900000D01*
X154090001Y-110885000D02*
X154100000Y-110875001D01*
D14*
X134739001Y-45640364D02*
X134730365Y-45640364D01*
D13*
X131290001Y-117785000D02*
X131300000Y-117775001D01*
X131290001Y-124389232D02*
X131290001Y-123600000D01*
X154100000Y-107175001D02*
X153900000Y-106975001D01*
D14*
X134730365Y-45640364D02*
X134290001Y-45200000D01*
D13*
X154100000Y-110875001D02*
X154100000Y-107175001D01*
X135690001Y-127700000D02*
X134600769Y-127700000D01*
D14*
X134739001Y-45640364D02*
X141573638Y-52475001D01*
D13*
X153590001Y-82999000D02*
X154491001Y-83900000D01*
X153590001Y-75225000D02*
X153590001Y-82999000D01*
%TO.N,A_5*%
X128706000Y-45515999D02*
X128590001Y-45400000D01*
X128706000Y-58669001D02*
X128706000Y-45515999D01*
X130441000Y-98449001D02*
X129590001Y-99300000D01*
X128890001Y-58900000D02*
X128890001Y-58853002D01*
X128890001Y-75185000D02*
X128200000Y-75875001D01*
X149100000Y-101175001D02*
X149100000Y-102600000D01*
X128200000Y-75875001D02*
X128951000Y-76626001D01*
X149000000Y-88600000D02*
X149000000Y-96875001D01*
X167365002Y-67275001D02*
X167790001Y-67700000D01*
X128890001Y-58900000D02*
X128890001Y-75185000D01*
X167290001Y-67275001D02*
X167365002Y-67275001D01*
X148900000Y-96975001D02*
X149100000Y-97175001D01*
X128951000Y-87501000D02*
X130441000Y-88991000D01*
X130441000Y-88991000D02*
X130441000Y-98449001D01*
X149000000Y-111275001D02*
X149000000Y-113400000D01*
X136190001Y-124600000D02*
X136190001Y-116200000D01*
X136190001Y-116200000D02*
X138590001Y-113800000D01*
X128951000Y-76626001D02*
X128951000Y-87501000D01*
X149100000Y-103900000D02*
X149100000Y-111175001D01*
X167000000Y-116349999D02*
X167000000Y-112575001D01*
X164900000Y-110475001D02*
X164590001Y-110165002D01*
X149000000Y-96875001D02*
X148900000Y-96975001D01*
X167790001Y-67700000D02*
X167790001Y-85759997D01*
X164590001Y-110165002D02*
X164590001Y-103400000D01*
X149100000Y-97175001D02*
X149100000Y-101175001D01*
X167000000Y-112575001D02*
X164900000Y-110475001D01*
X167790001Y-85759997D02*
X167000000Y-86549998D01*
X128890001Y-58853002D02*
X128706000Y-58669001D01*
X149100000Y-102600000D02*
X149100000Y-103900000D01*
X129590001Y-99300000D02*
X129590001Y-103000000D01*
%TO.N,C_5*%
X133815003Y-125465000D02*
X133815003Y-121825002D01*
X144151000Y-120324001D02*
X144151000Y-117400000D01*
X169590001Y-117485268D02*
X168675269Y-118400000D01*
X143700000Y-91619998D02*
X143780002Y-91700000D01*
X144000000Y-107175001D02*
X143700000Y-106875001D01*
X128370001Y-40960000D02*
X128370001Y-43500000D01*
X143429002Y-96251001D02*
X143580002Y-96100001D01*
X144000000Y-120475001D02*
X145649000Y-122124001D01*
X127790001Y-58064999D02*
X127955000Y-57900000D01*
X143429002Y-106604003D02*
X143429002Y-96251001D01*
X144151000Y-117400000D02*
X144151000Y-111526001D01*
X156790001Y-58385002D02*
X155940001Y-59235002D01*
X143780002Y-91700000D02*
X143780002Y-95900001D01*
X127955000Y-57364999D02*
X127130001Y-56540000D01*
X145649000Y-132424001D02*
X145800000Y-132575001D01*
X143780002Y-95900001D02*
X143580002Y-96100001D01*
X142100000Y-73113805D02*
X142100000Y-82075001D01*
D15*
X133480002Y-125800001D02*
X133635002Y-125645001D01*
D13*
X155940001Y-73800000D02*
X155940001Y-59235002D01*
X145649000Y-122124001D02*
X145649000Y-132424001D01*
X144000000Y-111375001D02*
X144000000Y-107175001D01*
X133635002Y-125645001D02*
X133815003Y-125465000D01*
X127130001Y-44740000D02*
X128370001Y-43500000D01*
X142166116Y-73047689D02*
X142100000Y-73113805D01*
X127790001Y-73200000D02*
X127790001Y-58064999D01*
X142100000Y-82075001D02*
X143700000Y-83675001D01*
X128090001Y-73500000D02*
X127790001Y-73200000D01*
X144151000Y-111526001D02*
X144000000Y-111375001D01*
X127130001Y-56540000D02*
X127130001Y-44740000D01*
X156790001Y-53225000D02*
X156790001Y-58385002D01*
X127955000Y-57900000D02*
X127955000Y-57364999D01*
X169590001Y-83500000D02*
X169590001Y-117485268D01*
X143700000Y-83775001D02*
X143700000Y-91619998D01*
X144000000Y-120475001D02*
X144151000Y-120324001D01*
X143700000Y-106875001D02*
X143429002Y-106604003D01*
%TO.N,A_6*%
X159276765Y-81600000D02*
X159276765Y-86198236D01*
X156800000Y-116349999D02*
X156800000Y-126249999D01*
X158600000Y-98275001D02*
X158549000Y-98224001D01*
D14*
X153770001Y-40960000D02*
X155021001Y-42211000D01*
D13*
X127446001Y-87358927D02*
X129690001Y-89602927D01*
X138690001Y-112650002D02*
X138690001Y-101285000D01*
D14*
X155021001Y-44869000D02*
X153690001Y-46200000D01*
D13*
X159190001Y-67885000D02*
X159276765Y-67971764D01*
X154390001Y-67500000D02*
X154508500Y-67381501D01*
X138700000Y-101275001D02*
X138700000Y-97375001D01*
X138582501Y-112757502D02*
X138690001Y-112650002D01*
X133390001Y-112885000D02*
X133390001Y-120765002D01*
X125691001Y-58158999D02*
X125691001Y-84299636D01*
D14*
X153690001Y-56631999D02*
X154090001Y-57031999D01*
D13*
X125390001Y-57857999D02*
X125691001Y-58158999D01*
X127446001Y-86054636D02*
X127446001Y-87358927D01*
X159276765Y-86198236D02*
X159200000Y-86275001D01*
X138582501Y-112757502D02*
X133517499Y-112757502D01*
X129690001Y-89602927D02*
X129690001Y-92600000D01*
X158549000Y-86926001D02*
X159200000Y-86275001D01*
D14*
X153690001Y-46200000D02*
X153690001Y-56631999D01*
D13*
X159190001Y-67400000D02*
X159190001Y-67885000D01*
X158549000Y-98224001D02*
X158549000Y-86926001D01*
X154508500Y-67381501D02*
X154508500Y-57450498D01*
X156890001Y-112600000D02*
X156800000Y-112690001D01*
X138700000Y-97375001D02*
X138500000Y-97175001D01*
X154508500Y-57450498D02*
X154090001Y-57031999D01*
X134990001Y-95550000D02*
X135890001Y-96450000D01*
X156800000Y-126249999D02*
X156700000Y-126349999D01*
X156700000Y-136140001D02*
X156690001Y-136150000D01*
D14*
X155021001Y-42211000D02*
X155021001Y-44869000D01*
D13*
X159276765Y-67971764D02*
X159276765Y-81600000D01*
X134990001Y-92700000D02*
X134990001Y-95550000D01*
X156800000Y-112690001D02*
X156800000Y-116349999D01*
X138690001Y-101285000D02*
X138700000Y-101275001D01*
X125691001Y-84299636D02*
X127446001Y-86054636D01*
X156700000Y-126349999D02*
X156700000Y-136140001D01*
X133390001Y-120765002D02*
X133400000Y-120775001D01*
%TO.N,C_6*%
X133390001Y-111065002D02*
X133700000Y-111375001D01*
X163790001Y-130565002D02*
X163790001Y-123000000D01*
X124190001Y-73400000D02*
X124690001Y-73900000D01*
X124190001Y-45140000D02*
X125830001Y-43500000D01*
X133390001Y-106600000D02*
X133390001Y-111065002D01*
X124690001Y-84290000D02*
X126745001Y-86345000D01*
X167100000Y-54975001D02*
X167100000Y-62650000D01*
X142290001Y-87485000D02*
X138600000Y-91175001D01*
X166490001Y-82985000D02*
X166400000Y-83075001D01*
X164400000Y-136590001D02*
X163341001Y-137649000D01*
X142290001Y-83700000D02*
X142290001Y-87485000D01*
X124690001Y-73900000D02*
X124690001Y-84290000D01*
X164400000Y-131175001D02*
X164400000Y-136590001D01*
X124190001Y-46000000D02*
X124190001Y-45140000D01*
X125830001Y-40960000D02*
X125830001Y-43500000D01*
X142390001Y-124700000D02*
X142390001Y-131865002D01*
X126690001Y-86400000D02*
X126690001Y-98100000D01*
X146390001Y-134500003D02*
X146290001Y-134400003D01*
X146390001Y-137649000D02*
X146390001Y-134500003D01*
X142390001Y-131865002D02*
X142900000Y-132375001D01*
X163341001Y-137649000D02*
X146390001Y-137649000D01*
X133390001Y-106600000D02*
X133280002Y-106490001D01*
X126745001Y-86345000D02*
X126690001Y-86400000D01*
X164400000Y-131175001D02*
X163790001Y-130565002D01*
X124190001Y-73400000D02*
X124190001Y-46000000D01*
X166490001Y-63259999D02*
X166490001Y-82985000D01*
X133280002Y-92109999D02*
X133490001Y-91900000D01*
X141290001Y-123600000D02*
X142390001Y-124700000D01*
X133280002Y-97675001D02*
X133280002Y-92109999D01*
X133280002Y-106490001D02*
X133280002Y-97675001D01*
X167100000Y-62650000D02*
X166490001Y-63259999D01*
%TO.N,A_7*%
X150482422Y-65992579D02*
X148800000Y-67675001D01*
D14*
X149941001Y-42249000D02*
X148171819Y-42249000D01*
D13*
X128931002Y-97024001D02*
X128931002Y-89906003D01*
D14*
X149308112Y-62900691D02*
X150482422Y-64075001D01*
D13*
X130780002Y-133000001D02*
X130780002Y-136150001D01*
D14*
X149308112Y-50655457D02*
X149308112Y-62900691D01*
X147401001Y-43019818D02*
X147401001Y-48748346D01*
D13*
X128680002Y-100575001D02*
X128680002Y-97275001D01*
X128931002Y-89906003D02*
X127700000Y-88675001D01*
X146551000Y-126198999D02*
X146400000Y-126349999D01*
X148707500Y-86182501D02*
X148800000Y-86275001D01*
X143780002Y-130800001D02*
X143680002Y-130900001D01*
X130900000Y-111449999D02*
X130900000Y-101549999D01*
X129349000Y-113000999D02*
X130900000Y-111449999D01*
X148690001Y-82065002D02*
X148707500Y-82082501D01*
X143780002Y-127400001D02*
X143780002Y-130800001D01*
X148690001Y-68100000D02*
X148690001Y-82065002D01*
X128680002Y-97275001D02*
X128931002Y-97024001D01*
X146390001Y-118290002D02*
X146551000Y-118451001D01*
X130780002Y-133000001D02*
X129349000Y-131568999D01*
X146390001Y-116349999D02*
X146390001Y-118290002D01*
X148800000Y-67990001D02*
X148690001Y-68100000D01*
X148707500Y-82082501D02*
X148707500Y-86182501D01*
X146551000Y-118451001D02*
X146551000Y-126198999D01*
D14*
X151230001Y-40960000D02*
X149941001Y-42249000D01*
D13*
X150482422Y-64075001D02*
X150482422Y-65992579D01*
X129349000Y-131568999D02*
X129349000Y-113000999D01*
X148800000Y-67675001D02*
X148800000Y-67990001D01*
D14*
X147401001Y-48748346D02*
X149308112Y-50655457D01*
X148171819Y-42249000D02*
X147401001Y-43019818D01*
D13*
%TO.N,C_7*%
X148090001Y-122200000D02*
X148090001Y-133300000D01*
X139290001Y-82800000D02*
X139390001Y-82900000D01*
X158526765Y-72651000D02*
X158526765Y-77800000D01*
X138390001Y-53600000D02*
X138390001Y-53975001D01*
X143880002Y-134300000D02*
X143880002Y-133200001D01*
X139290001Y-54875001D02*
X139290001Y-82800000D01*
X158439001Y-72563236D02*
X158526765Y-72651000D01*
X161039001Y-114911076D02*
X161039001Y-77451000D01*
X149490002Y-134400001D02*
X148590001Y-133500000D01*
X164600000Y-116600000D02*
X162727925Y-116600000D01*
X148590001Y-133500000D02*
X148290001Y-133500000D01*
X127139001Y-137649000D02*
X142241001Y-137649000D01*
X151580002Y-134400001D02*
X149490002Y-134400001D01*
X143880002Y-135700000D02*
X143880002Y-134300000D01*
X159280002Y-126309999D02*
X159280002Y-131000001D01*
X159290001Y-63650000D02*
X158439001Y-64501000D01*
X148090001Y-133300000D02*
X148290001Y-133500000D01*
X123290001Y-54450000D02*
X123440001Y-54600000D01*
X123290001Y-40960000D02*
X123290001Y-43500000D01*
X143880002Y-136009999D02*
X143880002Y-134300000D01*
X161039001Y-77451000D02*
X161790001Y-76700000D01*
X125600000Y-136109999D02*
X127139001Y-137649000D01*
X125600000Y-134400003D02*
X125600000Y-136109999D01*
X162727925Y-116600000D02*
X161039001Y-114911076D01*
X159280002Y-131000001D02*
X159180002Y-131100001D01*
X158439001Y-64501000D02*
X158439001Y-72563236D01*
X138390001Y-53975001D02*
X139290001Y-54875001D01*
X123290001Y-43500000D02*
X123290001Y-54450000D01*
X148290001Y-133500000D02*
X144180001Y-133500000D01*
X142241001Y-137649000D02*
X143880002Y-136009999D01*
X144180001Y-133500000D02*
X143880002Y-133200001D01*
X159290001Y-126300000D02*
X159280002Y-126309999D01*
X164600000Y-116600000D02*
X164600000Y-112575001D01*
X125600000Y-134400003D02*
X125600000Y-111449999D01*
X164600000Y-126975001D02*
X164600000Y-116600000D01*
%TO.N,R_0*%
X133290001Y-51600000D02*
X133290001Y-56125003D01*
%TO.N,R_1*%
X156690001Y-45900000D02*
X156690001Y-48567999D01*
X156690001Y-48567999D02*
X157759001Y-49636999D01*
X136390001Y-67665002D02*
X136390001Y-74560001D01*
X144141001Y-75024043D02*
X144066958Y-74950000D01*
X143890001Y-79900000D02*
X144141001Y-79649000D01*
X157759001Y-62624636D02*
X156690001Y-63693636D01*
X136390001Y-74560001D02*
X136000000Y-74950002D01*
X144141001Y-79649000D02*
X144141001Y-75024043D01*
X156690001Y-63693636D02*
X156690001Y-74950000D01*
X136000000Y-67275001D02*
X136390001Y-67665002D01*
X157759001Y-49636999D02*
X157759001Y-62624636D01*
%TO.N,R_2*%
X148790001Y-45000000D02*
X148790001Y-48300000D01*
X136000000Y-94700000D02*
X136000000Y-86549997D01*
X146990001Y-62059999D02*
X146990001Y-49258000D01*
X136000000Y-86549997D02*
X137390001Y-85159996D01*
X148790001Y-48300000D02*
X148890001Y-48400000D01*
X137390001Y-64685000D02*
X138300000Y-63775001D01*
X137390001Y-85159996D02*
X137390001Y-64685000D01*
X146390001Y-62650000D02*
X146400000Y-62650000D01*
X124940001Y-68300000D02*
X124940001Y-63700000D01*
X146990001Y-49258000D02*
X146300000Y-48567999D01*
X146400000Y-62650000D02*
X146990001Y-62059999D01*
D14*
%TO.N,R_3*%
X161191001Y-71325997D02*
X161890001Y-72024997D01*
D13*
X125700000Y-86649998D02*
X125600000Y-86549998D01*
X134790001Y-71200000D02*
X134790001Y-80390001D01*
X136000000Y-62650000D02*
X134790001Y-63859999D01*
X163176820Y-73311816D02*
X163176820Y-90486819D01*
X136000000Y-62409999D02*
X136290001Y-62700000D01*
X163176820Y-90486819D02*
X161990001Y-91673638D01*
D14*
X161390001Y-43500000D02*
X161191001Y-43699000D01*
D13*
X134790001Y-80390001D02*
X136000000Y-81600000D01*
X161990001Y-91673638D02*
X161990001Y-109700001D01*
X161890001Y-72024997D02*
X163176820Y-73311816D01*
X136100000Y-62550000D02*
X136000000Y-62650000D01*
D14*
X161191001Y-43699000D02*
X161191001Y-71325997D01*
D13*
X128200000Y-82600000D02*
X128200000Y-86375001D01*
X136000000Y-48577999D02*
X136000000Y-62409999D01*
X134790001Y-63859999D02*
X134790001Y-71200000D01*
X125700000Y-109700001D02*
X125700000Y-86649998D01*
%TO.N,R_4*%
X143249000Y-119326001D02*
X143249000Y-122842999D01*
X157690001Y-63685000D02*
X158460001Y-62915000D01*
X156700000Y-106550000D02*
X156700000Y-101549999D01*
X143400000Y-119175001D02*
X143249000Y-119326001D01*
X158690001Y-123665002D02*
X159500000Y-124475001D01*
X157590001Y-82637925D02*
X157590001Y-83962075D01*
X143249000Y-122842999D02*
X143781002Y-123375001D01*
X157590001Y-73134998D02*
X157590001Y-82549000D01*
X123890001Y-81150004D02*
X123364999Y-80625002D01*
X156790001Y-87700000D02*
X156790001Y-93065002D01*
X158460001Y-62915000D02*
X158460001Y-43890000D01*
X156700000Y-93175001D02*
X156700000Y-101549999D01*
X157624999Y-73100000D02*
X157690001Y-73034998D01*
X157690001Y-73100000D02*
X157624999Y-73100000D01*
X158690001Y-107585000D02*
X158690001Y-123665002D01*
X157590001Y-84051000D02*
X157590001Y-86900000D01*
D15*
X156800000Y-101449999D02*
X156700000Y-101549999D01*
D13*
X156800000Y-93075001D02*
X156700000Y-93175001D01*
X156790001Y-93065002D02*
X156800000Y-93075001D01*
X123890001Y-93300000D02*
X123890001Y-81150004D01*
X157690001Y-73034998D02*
X157690001Y-63685000D01*
X157590001Y-86900000D02*
X156790001Y-87700000D01*
X157690001Y-73034998D02*
X157590001Y-73134998D01*
X158460001Y-43890000D02*
X158850001Y-43500000D01*
%TO.N,R_5*%
X155390001Y-108375001D02*
X155490001Y-108275001D01*
X133390001Y-128665002D02*
X130100000Y-125375001D01*
X156310001Y-44880000D02*
X156310001Y-43500000D01*
X155190001Y-117600000D02*
X155390001Y-117400000D01*
X130100000Y-125375001D02*
X130100000Y-117975001D01*
X146790001Y-72900000D02*
X146690001Y-72800000D01*
X146500000Y-106449999D02*
X146400000Y-106549999D01*
X164000000Y-68775001D02*
X164000000Y-53475001D01*
X133390001Y-129500000D02*
X133390001Y-128665002D01*
X164000000Y-53475001D02*
X164300000Y-53175001D01*
X146700000Y-92975001D02*
X146790001Y-92885000D01*
X146790001Y-87800000D02*
X146790001Y-72900000D01*
X154790001Y-54399005D02*
X154790001Y-46400000D01*
X146500000Y-101549997D02*
X146500000Y-93175001D01*
X138390001Y-71756333D02*
X138390001Y-69348000D01*
X146500000Y-101549997D02*
X146500000Y-106449999D01*
X155390001Y-117400000D02*
X155390001Y-108375001D01*
X155190001Y-128400000D02*
X155190001Y-117600000D01*
X146790001Y-92885000D02*
X146790001Y-87800000D01*
X154790001Y-46400000D02*
X156310001Y-44880000D01*
X146500000Y-93175001D02*
X146700000Y-92975001D01*
%TO.N,R_6*%
X151489997Y-67164997D02*
X151600000Y-67275000D01*
X137000000Y-92775001D02*
X137000000Y-100550001D01*
X136000000Y-106549999D02*
X136000000Y-101550001D01*
X151600000Y-67275000D02*
X151490001Y-67384999D01*
X152530001Y-44740000D02*
X153770001Y-43500000D01*
X151500000Y-90375001D02*
X151500000Y-86549997D01*
X151600000Y-90475001D02*
X151500000Y-90375001D01*
X152530001Y-52184996D02*
X152530001Y-44740000D01*
X152490001Y-121785000D02*
X152100000Y-122175001D01*
X151790001Y-126659998D02*
X151480002Y-126349999D01*
X151480002Y-126349999D02*
X151480002Y-122794999D01*
X151600000Y-113500000D02*
X151600000Y-108375001D01*
X150749000Y-102458999D02*
X151590001Y-103300000D01*
X150749000Y-91326001D02*
X150749000Y-102458999D01*
X137000000Y-100550001D02*
X136000000Y-101550001D01*
X165890001Y-122400000D02*
X165890001Y-122984328D01*
X151790001Y-132592500D02*
X151790001Y-126659998D01*
X151489997Y-53225000D02*
X151489997Y-67164997D01*
X151600000Y-103309999D02*
X151590001Y-103300000D01*
X152530001Y-52184996D02*
X151489997Y-53225000D01*
X151600000Y-90475001D02*
X150749000Y-91326001D01*
X165890001Y-122400000D02*
X165890001Y-113300000D01*
X151490001Y-67384999D02*
X151490001Y-86539998D01*
X130790001Y-69865002D02*
X130790001Y-72024997D01*
X165890001Y-122984328D02*
X167180002Y-124274329D01*
X165890001Y-113300000D02*
X165990001Y-113200000D01*
X151600000Y-116349999D02*
X151600000Y-113500000D01*
X151480002Y-122794999D02*
X152100000Y-122175001D01*
X167180002Y-124274329D02*
X167180002Y-134400001D01*
X151490001Y-86539998D02*
X151500000Y-86549997D01*
X151600000Y-116349999D02*
X152490001Y-117240000D01*
X152490001Y-117240000D02*
X152490001Y-121785000D01*
X129700000Y-68775001D02*
X130790001Y-69865002D01*
X151600000Y-108375001D02*
X151600000Y-103309999D01*
X128190001Y-136890001D02*
X128190001Y-127100000D01*
%TO.N,R_7*%
X128181002Y-93899001D02*
X127929002Y-94151001D01*
X127929002Y-100952871D02*
X128077938Y-101101807D01*
X133390001Y-87500000D02*
X133390001Y-88065002D01*
X127929002Y-94151001D02*
X127929002Y-100952871D01*
X141100000Y-53224999D02*
X141100000Y-67275001D01*
X139490001Y-131500000D02*
X140360934Y-132370933D01*
X141100000Y-77900000D02*
X141100000Y-86449999D01*
X139440001Y-116750000D02*
X140880000Y-116750000D01*
X141100000Y-67275001D02*
X141100000Y-77900000D01*
X124090001Y-108100000D02*
X124090001Y-129500000D01*
X133400000Y-88075001D02*
X133400000Y-90875001D01*
X149100000Y-130964574D02*
X149100000Y-127775001D01*
X150009112Y-55117003D02*
X149990001Y-55097892D01*
X153646501Y-133343500D02*
X151478926Y-133343500D01*
X140880000Y-116750000D02*
X141280002Y-116349998D01*
X139490001Y-127500000D02*
X139490001Y-116800000D01*
X140360934Y-132370933D02*
X140360934Y-132600001D01*
X149090001Y-121500000D02*
X149090001Y-127765002D01*
X153797501Y-133192500D02*
X153646501Y-133343500D01*
X141100000Y-86449999D02*
X141200000Y-86549999D01*
X150009112Y-44720889D02*
X151230001Y-43500000D01*
X139490001Y-127500000D02*
X139490001Y-131500000D01*
X139490001Y-116800000D02*
X139440001Y-116750000D01*
X133390001Y-88065002D02*
X133400000Y-88075001D01*
X149090001Y-127765002D02*
X149100000Y-127775001D01*
X150009112Y-55117003D02*
X150009112Y-44720889D01*
X139440001Y-108500000D02*
X139440001Y-116750000D01*
X151478926Y-133343500D02*
X149100000Y-130964574D01*
X128181002Y-91500000D02*
X128181002Y-93899001D01*
X124090001Y-129500000D02*
X123290001Y-130300000D01*
%TD*%
M02*
