%TF.GenerationSoftware,KiCad,Pcbnew,9.0.3*%
%TF.CreationDate,2025-08-19T23:25:34-04:00*%
%TF.ProjectId,Mess-CharliePlexing2,4d657373-2d43-4686-9172-6c6965506c65,rev?*%
%TF.SameCoordinates,Original*%
%TF.FileFunction,Profile,NP*%
%FSLAX46Y46*%
G04 Gerber Fmt 4.6, Leading zero omitted, Abs format (unit mm)*
G04 Created by KiCad (PCBNEW 9.0.3) date 2025-08-19 23:25:34*
%MOMM*%
%LPD*%
G01*
G04 APERTURE LIST*
%TA.AperFunction,Profile*%
%ADD10C,1.000000*%
%TD*%
%ADD11C,0.150000*%
%TA.AperFunction,Profile*%
%ADD12C,0.050000*%
%TD*%
G04 APERTURE END LIST*
D10*
X121239301Y-38916151D02*
X121239301Y-138000000D01*
D11*
X119859049Y-22704819D02*
X120049525Y-22704819D01*
X120049525Y-22704819D02*
X120144763Y-22657200D01*
X120144763Y-22657200D02*
X120192382Y-22609580D01*
X120192382Y-22609580D02*
X120287620Y-22466723D01*
X120287620Y-22466723D02*
X120335239Y-22276247D01*
X120335239Y-22276247D02*
X120335239Y-21895295D01*
X120335239Y-21895295D02*
X120287620Y-21800057D01*
X120287620Y-21800057D02*
X120240001Y-21752438D01*
X120240001Y-21752438D02*
X120144763Y-21704819D01*
X120144763Y-21704819D02*
X119954287Y-21704819D01*
X119954287Y-21704819D02*
X119859049Y-21752438D01*
X119859049Y-21752438D02*
X119811430Y-21800057D01*
X119811430Y-21800057D02*
X119763811Y-21895295D01*
X119763811Y-21895295D02*
X119763811Y-22133390D01*
X119763811Y-22133390D02*
X119811430Y-22228628D01*
X119811430Y-22228628D02*
X119859049Y-22276247D01*
X119859049Y-22276247D02*
X119954287Y-22323866D01*
X119954287Y-22323866D02*
X120144763Y-22323866D01*
X120144763Y-22323866D02*
X120240001Y-22276247D01*
X120240001Y-22276247D02*
X120287620Y-22228628D01*
X120287620Y-22228628D02*
X120335239Y-22133390D01*
X120811430Y-22704819D02*
X121001906Y-22704819D01*
X121001906Y-22704819D02*
X121097144Y-22657200D01*
X121097144Y-22657200D02*
X121144763Y-22609580D01*
X121144763Y-22609580D02*
X121240001Y-22466723D01*
X121240001Y-22466723D02*
X121287620Y-22276247D01*
X121287620Y-22276247D02*
X121287620Y-21895295D01*
X121287620Y-21895295D02*
X121240001Y-21800057D01*
X121240001Y-21800057D02*
X121192382Y-21752438D01*
X121192382Y-21752438D02*
X121097144Y-21704819D01*
X121097144Y-21704819D02*
X120906668Y-21704819D01*
X120906668Y-21704819D02*
X120811430Y-21752438D01*
X120811430Y-21752438D02*
X120763811Y-21800057D01*
X120763811Y-21800057D02*
X120716192Y-21895295D01*
X120716192Y-21895295D02*
X120716192Y-22133390D01*
X120716192Y-22133390D02*
X120763811Y-22228628D01*
X120763811Y-22228628D02*
X120811430Y-22276247D01*
X120811430Y-22276247D02*
X120906668Y-22323866D01*
X120906668Y-22323866D02*
X121097144Y-22323866D01*
X121097144Y-22323866D02*
X121192382Y-22276247D01*
X121192382Y-22276247D02*
X121240001Y-22228628D01*
X121240001Y-22228628D02*
X121287620Y-22133390D01*
X121716192Y-22609580D02*
X121763811Y-22657200D01*
X121763811Y-22657200D02*
X121716192Y-22704819D01*
X121716192Y-22704819D02*
X121668573Y-22657200D01*
X121668573Y-22657200D02*
X121716192Y-22609580D01*
X121716192Y-22609580D02*
X121716192Y-22704819D01*
X122668572Y-21704819D02*
X122192382Y-21704819D01*
X122192382Y-21704819D02*
X122144763Y-22181009D01*
X122144763Y-22181009D02*
X122192382Y-22133390D01*
X122192382Y-22133390D02*
X122287620Y-22085771D01*
X122287620Y-22085771D02*
X122525715Y-22085771D01*
X122525715Y-22085771D02*
X122620953Y-22133390D01*
X122620953Y-22133390D02*
X122668572Y-22181009D01*
X122668572Y-22181009D02*
X122716191Y-22276247D01*
X122716191Y-22276247D02*
X122716191Y-22514342D01*
X122716191Y-22514342D02*
X122668572Y-22609580D01*
X122668572Y-22609580D02*
X122620953Y-22657200D01*
X122620953Y-22657200D02*
X122525715Y-22704819D01*
X122525715Y-22704819D02*
X122287620Y-22704819D01*
X122287620Y-22704819D02*
X122192382Y-22657200D01*
X122192382Y-22657200D02*
X122144763Y-22609580D01*
D12*
X71490001Y-37900000D02*
X71490001Y-22813580D01*
X170990001Y-37900000D02*
X170990001Y-22813580D01*
X71490001Y-23400000D02*
X170990001Y-23400000D01*
X71490001Y-23400000D02*
X72616505Y-22813579D01*
X71490001Y-23400000D02*
X72616505Y-23986421D01*
X170990001Y-23400000D02*
X169863497Y-23986421D01*
X170990001Y-23400000D02*
X169863497Y-22813579D01*
D11*
X53104819Y-89066666D02*
X53104819Y-89638094D01*
X53104819Y-89352380D02*
X52104819Y-89352380D01*
X52104819Y-89352380D02*
X52247676Y-89447618D01*
X52247676Y-89447618D02*
X52342914Y-89542856D01*
X52342914Y-89542856D02*
X52390533Y-89638094D01*
X52104819Y-88447618D02*
X52104819Y-88352380D01*
X52104819Y-88352380D02*
X52152438Y-88257142D01*
X52152438Y-88257142D02*
X52200057Y-88209523D01*
X52200057Y-88209523D02*
X52295295Y-88161904D01*
X52295295Y-88161904D02*
X52485771Y-88114285D01*
X52485771Y-88114285D02*
X52723866Y-88114285D01*
X52723866Y-88114285D02*
X52914342Y-88161904D01*
X52914342Y-88161904D02*
X53009580Y-88209523D01*
X53009580Y-88209523D02*
X53057200Y-88257142D01*
X53057200Y-88257142D02*
X53104819Y-88352380D01*
X53104819Y-88352380D02*
X53104819Y-88447618D01*
X53104819Y-88447618D02*
X53057200Y-88542856D01*
X53057200Y-88542856D02*
X53009580Y-88590475D01*
X53009580Y-88590475D02*
X52914342Y-88638094D01*
X52914342Y-88638094D02*
X52723866Y-88685713D01*
X52723866Y-88685713D02*
X52485771Y-88685713D01*
X52485771Y-88685713D02*
X52295295Y-88638094D01*
X52295295Y-88638094D02*
X52200057Y-88590475D01*
X52200057Y-88590475D02*
X52152438Y-88542856D01*
X52152438Y-88542856D02*
X52104819Y-88447618D01*
X52104819Y-87495237D02*
X52104819Y-87399999D01*
X52104819Y-87399999D02*
X52152438Y-87304761D01*
X52152438Y-87304761D02*
X52200057Y-87257142D01*
X52200057Y-87257142D02*
X52295295Y-87209523D01*
X52295295Y-87209523D02*
X52485771Y-87161904D01*
X52485771Y-87161904D02*
X52723866Y-87161904D01*
X52723866Y-87161904D02*
X52914342Y-87209523D01*
X52914342Y-87209523D02*
X53009580Y-87257142D01*
X53009580Y-87257142D02*
X53057200Y-87304761D01*
X53057200Y-87304761D02*
X53104819Y-87399999D01*
X53104819Y-87399999D02*
X53104819Y-87495237D01*
X53104819Y-87495237D02*
X53057200Y-87590475D01*
X53057200Y-87590475D02*
X53009580Y-87638094D01*
X53009580Y-87638094D02*
X52914342Y-87685713D01*
X52914342Y-87685713D02*
X52723866Y-87733332D01*
X52723866Y-87733332D02*
X52485771Y-87733332D01*
X52485771Y-87733332D02*
X52295295Y-87685713D01*
X52295295Y-87685713D02*
X52200057Y-87638094D01*
X52200057Y-87638094D02*
X52152438Y-87590475D01*
X52152438Y-87590475D02*
X52104819Y-87495237D01*
D12*
X70990001Y-38400000D02*
X53213580Y-38400000D01*
X70990001Y-138400000D02*
X53213580Y-138400000D01*
X53800000Y-38400000D02*
X53800000Y-138400000D01*
X53800000Y-38400000D02*
X54386421Y-39526504D01*
X53800000Y-38400000D02*
X53213579Y-39526504D01*
X53800000Y-138400000D02*
X53213579Y-137273496D01*
X53800000Y-138400000D02*
X54386421Y-137273496D01*
X71490001Y-38400000D02*
X170990001Y-38400000D01*
X170990001Y-138400000D01*
X71490001Y-138400000D01*
X71490001Y-38400000D01*
X71490001Y-38400000D02*
X120990001Y-38400000D01*
X120990001Y-138400000D01*
X71490001Y-138400000D01*
X71490001Y-38400000D01*
X121490001Y-38400000D02*
X170990001Y-38400000D01*
X170990001Y-138400000D01*
X121490001Y-138400000D01*
X121490001Y-38400000D01*
M02*
