%TF.GenerationSoftware,KiCad,Pcbnew,9.0.3*%
%TF.CreationDate,2025-08-19T23:25:34-04:00*%
%TF.ProjectId,Mess-CharliePlexing2,4d657373-2d43-4686-9172-6c6965506c65,rev?*%
%TF.SameCoordinates,Original*%
%TF.FileFunction,Soldermask,Top*%
%TF.FilePolarity,Negative*%
%FSLAX46Y46*%
G04 Gerber Fmt 4.6, Leading zero omitted, Abs format (unit mm)*
G04 Created by KiCad (PCBNEW 9.0.3) date 2025-08-19 23:25:34*
%MOMM*%
%LPD*%
G01*
G04 APERTURE LIST*
G04 Aperture macros list*
%AMRoundRect*
0 Rectangle with rounded corners*
0 $1 Rounding radius*
0 $2 $3 $4 $5 $6 $7 $8 $9 X,Y pos of 4 corners*
0 Add a 4 corners polygon primitive as box body*
4,1,4,$2,$3,$4,$5,$6,$7,$8,$9,$2,$3,0*
0 Add four circle primitives for the rounded corners*
1,1,$1+$1,$2,$3*
1,1,$1+$1,$4,$5*
1,1,$1+$1,$6,$7*
1,1,$1+$1,$8,$9*
0 Add four rect primitives between the rounded corners*
20,1,$1+$1,$2,$3,$4,$5,0*
20,1,$1+$1,$4,$5,$6,$7,0*
20,1,$1+$1,$6,$7,$8,$9,0*
20,1,$1+$1,$8,$9,$2,$3,0*%
G04 Aperture macros list end*
%ADD10RoundRect,0.237500X0.237500X-0.287500X0.237500X0.287500X-0.237500X0.287500X-0.237500X-0.287500X0*%
%ADD11RoundRect,0.237500X-0.237500X0.287500X-0.237500X-0.287500X0.237500X-0.287500X0.237500X0.287500X0*%
%ADD12R,1.700000X1.700000*%
%ADD13C,1.700000*%
G04 APERTURE END LIST*
D10*
%TO.C,D427*%
X87310001Y-67275001D03*
X87310001Y-65525003D03*
%TD*%
%TO.C,D403*%
X102730001Y-62650000D03*
X102730001Y-60900002D03*
%TD*%
D11*
%TO.C,D406*%
X94959999Y-60900002D03*
X94959999Y-62650000D03*
%TD*%
%TO.C,D546*%
X105420001Y-99800001D03*
X105420001Y-101549999D03*
%TD*%
D10*
%TO.C,D583*%
X102840004Y-111449999D03*
X102840004Y-109700001D03*
%TD*%
%TO.C,D369*%
X97700001Y-53225000D03*
X97700001Y-51475002D03*
%TD*%
D11*
%TO.C,D574*%
X79490003Y-104800001D03*
X79490003Y-106549999D03*
%TD*%
D10*
%TO.C,D395*%
X76980000Y-57874999D03*
X76980000Y-56125001D03*
%TD*%
D11*
%TO.C,D354*%
X89929999Y-46818002D03*
X89929999Y-48568000D03*
%TD*%
%TO.C,D608*%
X84700003Y-114600001D03*
X84700003Y-116349999D03*
%TD*%
%TO.C,D552*%
X89900003Y-99800003D03*
X89900003Y-101550001D03*
%TD*%
%TO.C,D414*%
X74390001Y-60900000D03*
X74390001Y-62649998D03*
%TD*%
D10*
%TO.C,D351*%
X97700001Y-48568000D03*
X97700001Y-46818002D03*
%TD*%
%TO.C,D591*%
X82120002Y-111449999D03*
X82120002Y-109700001D03*
%TD*%
%TO.C,D483*%
X82110000Y-81600001D03*
X82110000Y-79850003D03*
%TD*%
%TO.C,D639*%
X97660003Y-126349999D03*
X97660003Y-124600001D03*
%TD*%
%TO.C,D657*%
X97680002Y-131249999D03*
X97680002Y-129500001D03*
%TD*%
D11*
%TO.C,D524*%
X115790000Y-94700001D03*
X115790000Y-96449999D03*
%TD*%
D10*
%TO.C,D581*%
X108020004Y-111449999D03*
X108020004Y-109700001D03*
%TD*%
%TO.C,D391*%
X87340001Y-57874999D03*
X87340001Y-56125001D03*
%TD*%
D11*
%TO.C,D660*%
X89990002Y-129500000D03*
X89990002Y-131249998D03*
%TD*%
%TO.C,D412*%
X79570000Y-60900001D03*
X79570000Y-62649999D03*
%TD*%
%TO.C,D382*%
X110550003Y-56142005D03*
X110550003Y-57892003D03*
%TD*%
%TO.C,D570*%
X89890003Y-104800003D03*
X89890003Y-106550001D03*
%TD*%
%TO.C,D458*%
X100290000Y-74950002D03*
X100290000Y-76700000D03*
%TD*%
D10*
%TO.C,D557*%
X76950002Y-101550000D03*
X76950002Y-99800002D03*
%TD*%
%TO.C,D535*%
X87260003Y-96450000D03*
X87260003Y-94700002D03*
%TD*%
D11*
%TO.C,D488*%
X115790000Y-84800000D03*
X115790000Y-86549998D03*
%TD*%
D10*
%TO.C,D529*%
X102800004Y-96450000D03*
X102800004Y-94700002D03*
%TD*%
%TO.C,D621*%
X97700002Y-121349999D03*
X97700002Y-119600001D03*
%TD*%
%TO.C,D517*%
X87300000Y-91449998D03*
X87300000Y-89700000D03*
%TD*%
%TO.C,D649*%
X118380002Y-131249999D03*
X118380002Y-129500001D03*
%TD*%
D11*
%TO.C,D606*%
X89880003Y-114600001D03*
X89880003Y-116349999D03*
%TD*%
D10*
%TO.C,D635*%
X108020004Y-126349999D03*
X108020004Y-124600001D03*
%TD*%
%TO.C,D599*%
X108010003Y-116349999D03*
X108010003Y-114600001D03*
%TD*%
D11*
%TO.C,D410*%
X84599999Y-60900002D03*
X84599999Y-62650000D03*
%TD*%
D10*
%TO.C,D663*%
X82200000Y-131199999D03*
X82200000Y-129450001D03*
%TD*%
%TO.C,D421*%
X102850002Y-67275000D03*
X102850002Y-65525002D03*
%TD*%
%TO.C,D453*%
X113209998Y-76699998D03*
X113209998Y-74950000D03*
%TD*%
%TO.C,D595*%
X118380002Y-116349999D03*
X118380002Y-114600001D03*
%TD*%
D11*
%TO.C,D669*%
X113200002Y-134400001D03*
X113200002Y-136149999D03*
%TD*%
%TO.C,D370*%
X95109998Y-51475000D03*
X95109998Y-53224998D03*
%TD*%
%TO.C,D384*%
X105370002Y-56142005D03*
X105370002Y-57892003D03*
%TD*%
%TO.C,D622*%
X95110000Y-119600001D03*
X95110000Y-121349999D03*
%TD*%
D10*
%TO.C,D353*%
X92520001Y-48568000D03*
X92520001Y-46818002D03*
%TD*%
%TO.C,D559*%
X118380002Y-106549999D03*
X118380002Y-104800001D03*
%TD*%
%TO.C,D589*%
X87300003Y-111449999D03*
X87300003Y-109700001D03*
%TD*%
D11*
%TO.C,D632*%
X115790003Y-124600001D03*
X115790003Y-126349999D03*
%TD*%
%TO.C,D664*%
X79610001Y-129450003D03*
X79610001Y-131200001D03*
%TD*%
%TO.C,D462*%
X89930000Y-74950002D03*
X89930000Y-76700000D03*
%TD*%
%TO.C,D650*%
X115790001Y-129500000D03*
X115790001Y-131249998D03*
%TD*%
%TO.C,D366*%
X105470000Y-51475002D03*
X105470000Y-53225000D03*
%TD*%
D10*
%TO.C,D443*%
X92475001Y-72024997D03*
X92475001Y-70274999D03*
%TD*%
D11*
%TO.C,D658*%
X95090002Y-129500001D03*
X95090002Y-131249999D03*
%TD*%
D10*
%TO.C,D615*%
X113190004Y-121349999D03*
X113190004Y-119600001D03*
%TD*%
%TO.C,D345*%
X113239999Y-48568000D03*
X113239999Y-46818002D03*
%TD*%
D11*
%TO.C,D677*%
X92480005Y-134400003D03*
X92480005Y-136150001D03*
%TD*%
D10*
%TO.C,D495*%
X97660000Y-86549998D03*
X97660000Y-84800000D03*
%TD*%
%TO.C,D437*%
X108014999Y-72024997D03*
X108014999Y-70274999D03*
%TD*%
D11*
%TO.C,D624*%
X89890001Y-119600001D03*
X89890001Y-121349999D03*
%TD*%
D10*
%TO.C,D605*%
X92470003Y-116349998D03*
X92470003Y-114600000D03*
%TD*%
D11*
%TO.C,D644*%
X84800003Y-124600000D03*
X84800003Y-126349998D03*
%TD*%
D10*
%TO.C,D349*%
X102880000Y-48568000D03*
X102880000Y-46818002D03*
%TD*%
D11*
%TO.C,D346*%
X110650001Y-46818002D03*
X110650001Y-48568000D03*
%TD*%
D10*
%TO.C,D467*%
X76980000Y-76700000D03*
X76980000Y-74950002D03*
%TD*%
D11*
%TO.C,D452*%
X115800000Y-74950000D03*
X115800000Y-76699998D03*
%TD*%
%TO.C,D508*%
X110610000Y-89700000D03*
X110610000Y-91449998D03*
%TD*%
%TO.C,D440*%
X100245000Y-70274999D03*
X100245000Y-72024997D03*
%TD*%
D10*
%TO.C,D623*%
X92480002Y-121349999D03*
X92480002Y-119600001D03*
%TD*%
%TO.C,D503*%
X76940000Y-86549999D03*
X76940000Y-84800001D03*
%TD*%
%TO.C,D401*%
X107909999Y-62650000D03*
X107909999Y-60900002D03*
%TD*%
%TO.C,D363*%
X113270000Y-53225000D03*
X113270000Y-51475002D03*
%TD*%
D11*
%TO.C,D364*%
X110680003Y-51475001D03*
X110680003Y-53224999D03*
%TD*%
%TO.C,D510*%
X105430003Y-89700000D03*
X105430003Y-91449998D03*
%TD*%
%TO.C,D578*%
X115790003Y-109700001D03*
X115790003Y-111449999D03*
%TD*%
D10*
%TO.C,D531*%
X97620004Y-96450000D03*
X97620004Y-94700002D03*
%TD*%
D11*
%TO.C,D448*%
X79524999Y-70274999D03*
X79524999Y-72024997D03*
%TD*%
%TO.C,D500*%
X84709998Y-84799999D03*
X84709998Y-86549997D03*
%TD*%
%TO.C,D636*%
X105430002Y-124600001D03*
X105430002Y-126349999D03*
%TD*%
%TO.C,D402*%
X105320000Y-60900002D03*
X105320000Y-62650000D03*
%TD*%
%TO.C,D496*%
X95070000Y-84800001D03*
X95070000Y-86549999D03*
%TD*%
D10*
%TO.C,D405*%
X97550001Y-62650000D03*
X97550001Y-60900002D03*
%TD*%
D11*
%TO.C,D588*%
X89890003Y-109700001D03*
X89890003Y-111449999D03*
%TD*%
D10*
%TO.C,D573*%
X82080002Y-106549999D03*
X82080002Y-104800001D03*
%TD*%
D11*
%TO.C,D494*%
X100250000Y-84800001D03*
X100250000Y-86549999D03*
%TD*%
D10*
%TO.C,D678*%
X89890002Y-136149999D03*
X89890002Y-134400001D03*
%TD*%
%TO.C,D565*%
X102840002Y-106550001D03*
X102840002Y-104800003D03*
%TD*%
D11*
%TO.C,D518*%
X84710001Y-89700000D03*
X84710001Y-91449998D03*
%TD*%
D10*
%TO.C,D545*%
X108010003Y-101549999D03*
X108010003Y-99800001D03*
%TD*%
D11*
%TO.C,D600*%
X105420000Y-114599999D03*
X105420000Y-116349997D03*
%TD*%
%TO.C,D390*%
X89929999Y-56125001D03*
X89929999Y-57874999D03*
%TD*%
D10*
%TO.C,D525*%
X113200001Y-96449999D03*
X113200001Y-94700001D03*
%TD*%
%TO.C,D659*%
X92580002Y-131249999D03*
X92580002Y-129500001D03*
%TD*%
D11*
%TO.C,D634*%
X110610003Y-124600001D03*
X110610003Y-126349999D03*
%TD*%
%TO.C,D560*%
X115790000Y-104800001D03*
X115790000Y-106549999D03*
%TD*%
%TO.C,D416*%
X115800000Y-65525003D03*
X115800000Y-67275001D03*
%TD*%
D10*
%TO.C,D561*%
X113200003Y-106550001D03*
X113200003Y-104800003D03*
%TD*%
D11*
%TO.C,D378*%
X74390001Y-51475002D03*
X74390001Y-53225000D03*
%TD*%
%TO.C,D400*%
X110500001Y-60900001D03*
X110500001Y-62649999D03*
%TD*%
D10*
%TO.C,D445*%
X87295002Y-72024999D03*
X87295002Y-70275001D03*
%TD*%
%TO.C,D379*%
X118320001Y-57892001D03*
X118320001Y-56142003D03*
%TD*%
%TO.C,D684*%
X74350005Y-136150001D03*
X74350005Y-134400003D03*
%TD*%
%TO.C,D569*%
X92480000Y-106549999D03*
X92480000Y-104800001D03*
%TD*%
%TO.C,D643*%
X87390001Y-126349998D03*
X87390001Y-124600000D03*
%TD*%
%TO.C,D365*%
X108070000Y-53225000D03*
X108070000Y-51475002D03*
%TD*%
D11*
%TO.C,D502*%
X79529998Y-84799999D03*
X79529998Y-86549997D03*
%TD*%
D10*
%TO.C,D679*%
X87300004Y-136150001D03*
X87300004Y-134400003D03*
%TD*%
%TO.C,D407*%
X92370001Y-62650000D03*
X92370001Y-60900002D03*
%TD*%
%TO.C,D505*%
X118380002Y-91449998D03*
X118380002Y-89700000D03*
%TD*%
D11*
%TO.C,D536*%
X84670004Y-94700002D03*
X84670004Y-96450000D03*
%TD*%
D10*
%TO.C,D670*%
X110610003Y-136149999D03*
X110610003Y-134400001D03*
%TD*%
%TO.C,D461*%
X92519998Y-76700000D03*
X92519998Y-74950002D03*
%TD*%
%TO.C,D661*%
X87380002Y-131200001D03*
X87380002Y-129450003D03*
%TD*%
D11*
%TO.C,D444*%
X89884999Y-70274999D03*
X89884999Y-72024997D03*
%TD*%
%TO.C,D590*%
X84710004Y-109700001D03*
X84710004Y-111449999D03*
%TD*%
%TO.C,D456*%
X105439999Y-74950000D03*
X105439999Y-76699998D03*
%TD*%
D10*
%TO.C,D457*%
X102850000Y-76699999D03*
X102850000Y-74950001D03*
%TD*%
D11*
%TO.C,D472*%
X110619999Y-79850002D03*
X110619999Y-81600000D03*
%TD*%
%TO.C,D478*%
X95080000Y-79850002D03*
X95080000Y-81600000D03*
%TD*%
D10*
%TO.C,D497*%
X92480000Y-86549999D03*
X92480000Y-84800001D03*
%TD*%
D11*
%TO.C,D630*%
X74350002Y-119600001D03*
X74350002Y-121349999D03*
%TD*%
%TO.C,D675*%
X97660005Y-134400003D03*
X97660005Y-136150001D03*
%TD*%
%TO.C,D460*%
X95110000Y-74950002D03*
X95110000Y-76700000D03*
%TD*%
%TO.C,D618*%
X105420003Y-119600000D03*
X105420003Y-121349998D03*
%TD*%
%TO.C,D562*%
X110610000Y-104800001D03*
X110610000Y-106549999D03*
%TD*%
%TO.C,D422*%
X100260002Y-65525003D03*
X100260002Y-67275001D03*
%TD*%
D10*
%TO.C,D541*%
X118370002Y-101549999D03*
X118370002Y-99800001D03*
%TD*%
%TO.C,D469*%
X118390000Y-81600000D03*
X118390000Y-79850002D03*
%TD*%
D11*
%TO.C,D528*%
X105390001Y-94700000D03*
X105390001Y-96449998D03*
%TD*%
%TO.C,D582*%
X105430004Y-109700000D03*
X105430004Y-111449998D03*
%TD*%
D10*
%TO.C,D431*%
X76950002Y-67275001D03*
X76950002Y-65525003D03*
%TD*%
D11*
%TO.C,D596*%
X115780002Y-114600001D03*
X115780002Y-116349999D03*
%TD*%
D10*
%TO.C,D549*%
X97650001Y-101549997D03*
X97650001Y-99799999D03*
%TD*%
%TO.C,D676*%
X95070002Y-136149999D03*
X95070002Y-134400001D03*
%TD*%
D11*
%TO.C,D564*%
X105430002Y-104800002D03*
X105430002Y-106550000D03*
%TD*%
%TO.C,D504*%
X74290000Y-84800000D03*
X74290000Y-86549998D03*
%TD*%
%TO.C,D620*%
X100290000Y-119600001D03*
X100290000Y-121349999D03*
%TD*%
%TO.C,D532*%
X95030002Y-94700002D03*
X95030002Y-96450000D03*
%TD*%
%TO.C,D654*%
X105430003Y-129500001D03*
X105430003Y-131249999D03*
%TD*%
D10*
%TO.C,D447*%
X82115002Y-72024999D03*
X82115002Y-70275001D03*
%TD*%
%TO.C,D371*%
X92520002Y-53224999D03*
X92520002Y-51475001D03*
%TD*%
D11*
%TO.C,D604*%
X95060002Y-114600001D03*
X95060002Y-116349999D03*
%TD*%
%TO.C,D512*%
X100250002Y-89700000D03*
X100250002Y-91449998D03*
%TD*%
D10*
%TO.C,D631*%
X118380002Y-126349999D03*
X118380002Y-124600001D03*
%TD*%
%TO.C,D547*%
X102830003Y-101549999D03*
X102830003Y-99800001D03*
%TD*%
D11*
%TO.C,D671*%
X108020004Y-134400002D03*
X108020004Y-136150000D03*
%TD*%
D10*
%TO.C,D515*%
X92480000Y-91449998D03*
X92480000Y-89700000D03*
%TD*%
D11*
%TO.C,D446*%
X84704999Y-70274999D03*
X84704999Y-72024997D03*
%TD*%
D10*
%TO.C,D674*%
X100250005Y-136150000D03*
X100250005Y-134400002D03*
%TD*%
D11*
%TO.C,D344*%
X115829999Y-46818001D03*
X115829999Y-48567999D03*
%TD*%
%TO.C,D612*%
X74340002Y-114600001D03*
X74340002Y-116349999D03*
%TD*%
D10*
%TO.C,D459*%
X97699999Y-76700000D03*
X97699999Y-74950002D03*
%TD*%
D11*
%TO.C,D474*%
X105440000Y-79850002D03*
X105440000Y-81600000D03*
%TD*%
%TO.C,D580*%
X110610003Y-109700001D03*
X110610003Y-111449999D03*
%TD*%
%TO.C,D408*%
X89779999Y-60900002D03*
X89779999Y-62650000D03*
%TD*%
D10*
%TO.C,D513*%
X97660000Y-91449998D03*
X97660000Y-89700000D03*
%TD*%
D11*
%TO.C,D666*%
X74390002Y-129425000D03*
X74390002Y-131174998D03*
%TD*%
%TO.C,D683*%
X76940002Y-134400001D03*
X76940002Y-136149999D03*
%TD*%
D10*
%TO.C,D383*%
X107960004Y-57892003D03*
X107960004Y-56142005D03*
%TD*%
%TO.C,D653*%
X108020001Y-131249999D03*
X108020001Y-129500001D03*
%TD*%
%TO.C,D597*%
X113190002Y-116349999D03*
X113190002Y-114600001D03*
%TD*%
D11*
%TO.C,D432*%
X74360000Y-65525003D03*
X74360000Y-67275001D03*
%TD*%
%TO.C,D380*%
X115730003Y-56142005D03*
X115730003Y-57892003D03*
%TD*%
%TO.C,D554*%
X84720003Y-99800003D03*
X84720003Y-101550001D03*
%TD*%
D10*
%TO.C,D682*%
X79530004Y-136149999D03*
X79530004Y-134400001D03*
%TD*%
%TO.C,D507*%
X113200002Y-91449997D03*
X113200002Y-89699999D03*
%TD*%
%TO.C,D359*%
X76980000Y-48568000D03*
X76980000Y-46818002D03*
%TD*%
D11*
%TO.C,D482*%
X84699999Y-79850003D03*
X84699999Y-81600001D03*
%TD*%
D10*
%TO.C,D563*%
X108020001Y-106549999D03*
X108020001Y-104800001D03*
%TD*%
D11*
%TO.C,D594*%
X74350003Y-109700001D03*
X74350003Y-111449999D03*
%TD*%
D10*
%TO.C,D475*%
X102850000Y-81599999D03*
X102850000Y-79850001D03*
%TD*%
D11*
%TO.C,D426*%
X89900000Y-65525001D03*
X89900000Y-67274999D03*
%TD*%
D10*
%TO.C,D481*%
X87290000Y-81600000D03*
X87290000Y-79850002D03*
%TD*%
D11*
%TO.C,D598*%
X110600001Y-114600001D03*
X110600001Y-116349999D03*
%TD*%
D10*
%TO.C,D543*%
X113190001Y-101549998D03*
X113190001Y-99800000D03*
%TD*%
%TO.C,D637*%
X102840004Y-126349999D03*
X102840004Y-124600001D03*
%TD*%
%TO.C,D619*%
X102880002Y-121349999D03*
X102880002Y-119600001D03*
%TD*%
D11*
%TO.C,D350*%
X100290000Y-46818002D03*
X100290000Y-48568000D03*
%TD*%
%TO.C,D392*%
X84749999Y-56125001D03*
X84749999Y-57874999D03*
%TD*%
D10*
%TO.C,D527*%
X107980002Y-96449999D03*
X107980002Y-94700001D03*
%TD*%
%TO.C,D625*%
X87300002Y-121349999D03*
X87300002Y-119600001D03*
%TD*%
%TO.C,D601*%
X102830002Y-116349999D03*
X102830002Y-114600001D03*
%TD*%
D11*
%TO.C,D662*%
X84790000Y-129450003D03*
X84790000Y-131200001D03*
%TD*%
%TO.C,D614*%
X115780002Y-119600001D03*
X115780002Y-121349999D03*
%TD*%
D10*
%TO.C,D499*%
X87300001Y-86549999D03*
X87300001Y-84800001D03*
%TD*%
%TO.C,D477*%
X97669998Y-81600000D03*
X97669998Y-79850002D03*
%TD*%
%TO.C,D413*%
X76979999Y-62649998D03*
X76979999Y-60900000D03*
%TD*%
D11*
%TO.C,D484*%
X79519997Y-79850001D03*
X79519997Y-81599999D03*
%TD*%
D10*
%TO.C,D511*%
X102840001Y-91449998D03*
X102840001Y-89700000D03*
%TD*%
%TO.C,D435*%
X113195001Y-72024999D03*
X113195001Y-70275001D03*
%TD*%
%TO.C,D613*%
X118370004Y-121349999D03*
X118370004Y-119600001D03*
%TD*%
D11*
%TO.C,D530*%
X100210004Y-94700000D03*
X100210004Y-96449998D03*
%TD*%
D10*
%TO.C,D571*%
X87300000Y-106549999D03*
X87300000Y-104800001D03*
%TD*%
D11*
%TO.C,D476*%
X100260000Y-79850002D03*
X100260000Y-81600000D03*
%TD*%
%TO.C,D352*%
X95110001Y-46818001D03*
X95110001Y-48567999D03*
%TD*%
D10*
%TO.C,D519*%
X82120002Y-91449998D03*
X82120002Y-89700000D03*
%TD*%
%TO.C,D501*%
X82120001Y-86549999D03*
X82120001Y-84800001D03*
%TD*%
D11*
%TO.C,D638*%
X100250002Y-124600001D03*
X100250002Y-126349999D03*
%TD*%
%TO.C,D450*%
X74345001Y-70275000D03*
X74345001Y-72024998D03*
%TD*%
D10*
%TO.C,D485*%
X76930000Y-81600001D03*
X76930000Y-79850003D03*
%TD*%
%TO.C,D471*%
X113209999Y-81600000D03*
X113209999Y-79850002D03*
%TD*%
%TO.C,D533*%
X92440002Y-96449998D03*
X92440002Y-94700000D03*
%TD*%
D11*
%TO.C,D418*%
X110620001Y-65525003D03*
X110620001Y-67275001D03*
%TD*%
%TO.C,D572*%
X84710001Y-104800001D03*
X84710001Y-106549999D03*
%TD*%
%TO.C,D680*%
X84710004Y-134400002D03*
X84710004Y-136150000D03*
%TD*%
%TO.C,D526*%
X110610002Y-94700001D03*
X110610002Y-96449999D03*
%TD*%
D10*
%TO.C,D609*%
X82110000Y-116349997D03*
X82110000Y-114599999D03*
%TD*%
D11*
%TO.C,D430*%
X79540002Y-65525002D03*
X79540002Y-67275000D03*
%TD*%
D10*
%TO.C,D575*%
X76900001Y-106549999D03*
X76900001Y-104800001D03*
%TD*%
D11*
%TO.C,D486*%
X74339997Y-79850001D03*
X74339997Y-81599999D03*
%TD*%
%TO.C,D534*%
X89850003Y-94700002D03*
X89850003Y-96450000D03*
%TD*%
D10*
%TO.C,D611*%
X76930002Y-116349998D03*
X76930002Y-114600000D03*
%TD*%
D11*
%TO.C,D522*%
X74350000Y-89700000D03*
X74350000Y-91449998D03*
%TD*%
D10*
%TO.C,D347*%
X108059999Y-48568000D03*
X108059999Y-46818002D03*
%TD*%
%TO.C,D633*%
X113200005Y-126349999D03*
X113200005Y-124600001D03*
%TD*%
D11*
%TO.C,D558*%
X74360002Y-99800003D03*
X74360002Y-101550001D03*
%TD*%
D10*
%TO.C,D672*%
X105430004Y-136150001D03*
X105430004Y-134400003D03*
%TD*%
D11*
%TO.C,D540*%
X74310002Y-94700000D03*
X74310002Y-96449998D03*
%TD*%
D10*
%TO.C,D521*%
X76940002Y-91449998D03*
X76940002Y-89700000D03*
%TD*%
%TO.C,D399*%
X113089999Y-62650000D03*
X113089999Y-60900002D03*
%TD*%
D11*
%TO.C,D468*%
X74389998Y-74950002D03*
X74389998Y-76700000D03*
%TD*%
D10*
%TO.C,D487*%
X118380000Y-86549999D03*
X118380000Y-84800001D03*
%TD*%
D11*
%TO.C,D396*%
X74390001Y-56125001D03*
X74390001Y-57874999D03*
%TD*%
%TO.C,D652*%
X110610003Y-129500001D03*
X110610003Y-131249999D03*
%TD*%
%TO.C,D640*%
X95070002Y-124600001D03*
X95070002Y-126349999D03*
%TD*%
%TO.C,D386*%
X100190001Y-56142003D03*
X100190001Y-57892001D03*
%TD*%
%TO.C,D466*%
X79569999Y-74950002D03*
X79569999Y-76700000D03*
%TD*%
%TO.C,D428*%
X84720001Y-65525003D03*
X84720001Y-67275001D03*
%TD*%
D10*
%TO.C,D555*%
X82130000Y-101549999D03*
X82130000Y-99800001D03*
%TD*%
D11*
%TO.C,D388*%
X95010003Y-56142004D03*
X95010003Y-57892002D03*
%TD*%
D10*
%TO.C,D373*%
X87340000Y-53225000D03*
X87340000Y-51475002D03*
%TD*%
%TO.C,D423*%
X97670002Y-67274999D03*
X97670002Y-65525001D03*
%TD*%
%TO.C,D381*%
X113140003Y-57892002D03*
X113140003Y-56142004D03*
%TD*%
%TO.C,D645*%
X82210003Y-126349999D03*
X82210003Y-124600001D03*
%TD*%
%TO.C,D449*%
X76935000Y-72024997D03*
X76935000Y-70274999D03*
%TD*%
%TO.C,D419*%
X108030001Y-67275001D03*
X108030001Y-65525003D03*
%TD*%
D11*
%TO.C,D358*%
X79570000Y-46818002D03*
X79570000Y-48568000D03*
%TD*%
%TO.C,D544*%
X110600003Y-99800000D03*
X110600003Y-101549998D03*
%TD*%
%TO.C,D356*%
X84749999Y-46818002D03*
X84749999Y-48568000D03*
%TD*%
D10*
%TO.C,D473*%
X108029999Y-81600000D03*
X108029999Y-79850002D03*
%TD*%
%TO.C,D567*%
X97660000Y-106549999D03*
X97660000Y-104800001D03*
%TD*%
D11*
%TO.C,D646*%
X79620001Y-124600001D03*
X79620001Y-126349999D03*
%TD*%
%TO.C,D667*%
X118380002Y-134400001D03*
X118380002Y-136149999D03*
%TD*%
%TO.C,D548*%
X100240001Y-99800001D03*
X100240001Y-101549999D03*
%TD*%
D10*
%TO.C,D377*%
X76979998Y-53224998D03*
X76979998Y-51475000D03*
%TD*%
D11*
%TO.C,D424*%
X95080000Y-65525001D03*
X95080000Y-67274999D03*
%TD*%
D10*
%TO.C,D385*%
X102780004Y-57892003D03*
X102780004Y-56142005D03*
%TD*%
D11*
%TO.C,D516*%
X89890001Y-89700000D03*
X89890001Y-91449998D03*
%TD*%
D10*
%TO.C,D387*%
X97600003Y-57892003D03*
X97600003Y-56142005D03*
%TD*%
D11*
%TO.C,D681*%
X82120004Y-134400003D03*
X82120004Y-136150001D03*
%TD*%
%TO.C,D374*%
X84750001Y-51475001D03*
X84750001Y-53224999D03*
%TD*%
%TO.C,D616*%
X110600001Y-119599999D03*
X110600001Y-121349997D03*
%TD*%
D10*
%TO.C,D441*%
X97655001Y-72024998D03*
X97655001Y-70275000D03*
%TD*%
D11*
%TO.C,D556*%
X79540001Y-99800001D03*
X79540001Y-101549999D03*
%TD*%
D10*
%TO.C,D603*%
X97650002Y-116349999D03*
X97650002Y-114600001D03*
%TD*%
%TO.C,D553*%
X87310000Y-101549999D03*
X87310000Y-99800001D03*
%TD*%
%TO.C,D425*%
X92490000Y-67275001D03*
X92490000Y-65525003D03*
%TD*%
D11*
%TO.C,D464*%
X84749999Y-74950002D03*
X84749999Y-76700000D03*
%TD*%
D10*
%TO.C,D607*%
X87290000Y-116349997D03*
X87290000Y-114599999D03*
%TD*%
%TO.C,D651*%
X113200003Y-131249998D03*
X113200003Y-129500000D03*
%TD*%
%TO.C,D357*%
X82160000Y-48568000D03*
X82160000Y-46818002D03*
%TD*%
D11*
%TO.C,D656*%
X100290002Y-129499999D03*
X100290002Y-131249997D03*
%TD*%
%TO.C,D470*%
X115799998Y-79850002D03*
X115799998Y-81600000D03*
%TD*%
%TO.C,D568*%
X95070003Y-104800003D03*
X95070003Y-106550001D03*
%TD*%
D10*
%TO.C,D439*%
X102834999Y-72024997D03*
X102834999Y-70274999D03*
%TD*%
%TO.C,D367*%
X102879999Y-53224999D03*
X102879999Y-51475001D03*
%TD*%
%TO.C,D417*%
X113210000Y-67274999D03*
X113210000Y-65525001D03*
%TD*%
%TO.C,D465*%
X82159999Y-76700000D03*
X82159999Y-74950002D03*
%TD*%
D11*
%TO.C,D520*%
X79530000Y-89700000D03*
X79530000Y-91449998D03*
%TD*%
D10*
%TO.C,D415*%
X118390002Y-67275001D03*
X118390002Y-65525003D03*
%TD*%
D11*
%TO.C,D360*%
X74390001Y-46818002D03*
X74390001Y-48568000D03*
%TD*%
D10*
%TO.C,D493*%
X102839998Y-86549997D03*
X102839998Y-84799999D03*
%TD*%
%TO.C,D593*%
X76940002Y-111449999D03*
X76940002Y-109700001D03*
%TD*%
%TO.C,D587*%
X92480003Y-111449999D03*
X92480003Y-109700001D03*
%TD*%
D11*
%TO.C,D542*%
X115780002Y-99800001D03*
X115780002Y-101549999D03*
%TD*%
%TO.C,D673*%
X102840004Y-134400001D03*
X102840004Y-136149999D03*
%TD*%
D10*
%TO.C,D551*%
X92490002Y-101550001D03*
X92490002Y-99800003D03*
%TD*%
%TO.C,D665*%
X76980002Y-131175000D03*
X76980002Y-129425002D03*
%TD*%
%TO.C,D489*%
X113200000Y-86549999D03*
X113200000Y-84800001D03*
%TD*%
%TO.C,D397*%
X118270000Y-62649999D03*
X118270000Y-60900001D03*
%TD*%
D11*
%TO.C,D368*%
X100289999Y-51475002D03*
X100289999Y-53225000D03*
%TD*%
%TO.C,D394*%
X79569999Y-56125001D03*
X79569999Y-57874999D03*
%TD*%
D10*
%TO.C,D433*%
X118400000Y-72024999D03*
X118400000Y-70275001D03*
%TD*%
D11*
%TO.C,D586*%
X95070002Y-109700001D03*
X95070002Y-111449999D03*
%TD*%
%TO.C,D362*%
X115880002Y-51500003D03*
X115880002Y-53250001D03*
%TD*%
%TO.C,D442*%
X95065001Y-70275001D03*
X95065001Y-72024999D03*
%TD*%
D10*
%TO.C,D479*%
X92489998Y-81600000D03*
X92489998Y-79850002D03*
%TD*%
D11*
%TO.C,D404*%
X100140000Y-60900002D03*
X100140000Y-62650000D03*
%TD*%
D10*
%TO.C,D539*%
X76900002Y-96450000D03*
X76900002Y-94700002D03*
%TD*%
D11*
%TO.C,D642*%
X89980002Y-124600001D03*
X89980002Y-126349999D03*
%TD*%
D10*
%TO.C,D409*%
X87190000Y-62650000D03*
X87190000Y-60900002D03*
%TD*%
%TO.C,D523*%
X118380002Y-96449998D03*
X118380002Y-94700000D03*
%TD*%
%TO.C,D627*%
X82120001Y-121349999D03*
X82120001Y-119600001D03*
%TD*%
%TO.C,D429*%
X82130002Y-67275001D03*
X82130002Y-65525003D03*
%TD*%
D11*
%TO.C,D372*%
X89930000Y-51475001D03*
X89930000Y-53224999D03*
%TD*%
D10*
%TO.C,D463*%
X87339998Y-76700000D03*
X87339998Y-74950002D03*
%TD*%
D11*
%TO.C,D566*%
X100250002Y-104800001D03*
X100250002Y-106549999D03*
%TD*%
D10*
%TO.C,D617*%
X108010003Y-121349999D03*
X108010003Y-119600001D03*
%TD*%
%TO.C,D537*%
X82080004Y-96449999D03*
X82080004Y-94700001D03*
%TD*%
%TO.C,D641*%
X92480003Y-126349999D03*
X92480003Y-124600001D03*
%TD*%
D11*
%TO.C,D492*%
X105430001Y-84800001D03*
X105430001Y-86549999D03*
%TD*%
%TO.C,D514*%
X95070002Y-89700000D03*
X95070002Y-91449998D03*
%TD*%
%TO.C,D438*%
X105425002Y-70275001D03*
X105425002Y-72024999D03*
%TD*%
D10*
%TO.C,D647*%
X77030001Y-126349997D03*
X77030001Y-124599999D03*
%TD*%
D11*
%TO.C,D348*%
X105470002Y-46818001D03*
X105470002Y-48567999D03*
%TD*%
%TO.C,D610*%
X79520002Y-114600001D03*
X79520002Y-116349999D03*
%TD*%
%TO.C,D436*%
X110605001Y-70274999D03*
X110605001Y-72024997D03*
%TD*%
%TO.C,D434*%
X115810001Y-70275003D03*
X115810001Y-72025001D03*
%TD*%
%TO.C,D602*%
X100240002Y-114600000D03*
X100240002Y-116349998D03*
%TD*%
%TO.C,D648*%
X74440002Y-124600001D03*
X74440002Y-126349999D03*
%TD*%
D10*
%TO.C,D375*%
X82160001Y-53224999D03*
X82160001Y-51475001D03*
%TD*%
D11*
%TO.C,D584*%
X100250002Y-109700001D03*
X100250002Y-111449999D03*
%TD*%
D10*
%TO.C,D355*%
X87340001Y-48568000D03*
X87340001Y-46818002D03*
%TD*%
D11*
%TO.C,D454*%
X110620001Y-74950002D03*
X110620001Y-76700000D03*
%TD*%
D10*
%TO.C,D629*%
X76940001Y-121349999D03*
X76940001Y-119600001D03*
%TD*%
D11*
%TO.C,D576*%
X74310003Y-104800001D03*
X74310003Y-106549999D03*
%TD*%
%TO.C,D628*%
X79530003Y-119600001D03*
X79530003Y-121349999D03*
%TD*%
D10*
%TO.C,D491*%
X108019999Y-86549999D03*
X108019999Y-84800001D03*
%TD*%
%TO.C,D393*%
X82160000Y-57874999D03*
X82160000Y-56125001D03*
%TD*%
%TO.C,D451*%
X118390000Y-76700000D03*
X118390000Y-74950002D03*
%TD*%
%TO.C,D389*%
X92520001Y-57874999D03*
X92520001Y-56125001D03*
%TD*%
%TO.C,D455*%
X108029998Y-76699998D03*
X108029998Y-74950000D03*
%TD*%
D11*
%TO.C,D498*%
X89890001Y-84800000D03*
X89890001Y-86549998D03*
%TD*%
D10*
%TO.C,D509*%
X108020001Y-91449998D03*
X108020001Y-89700000D03*
%TD*%
D11*
%TO.C,D550*%
X95080002Y-99800001D03*
X95080002Y-101549999D03*
%TD*%
D10*
%TO.C,D411*%
X82010000Y-62650000D03*
X82010000Y-60900002D03*
%TD*%
D11*
%TO.C,D592*%
X79530004Y-109700001D03*
X79530004Y-111449999D03*
%TD*%
%TO.C,D538*%
X79490004Y-94700002D03*
X79490004Y-96450000D03*
%TD*%
D10*
%TO.C,D585*%
X97660004Y-111449999D03*
X97660004Y-109700001D03*
%TD*%
D12*
%TO.C,J2*%
X119010001Y-40960000D03*
D13*
X119010001Y-43500000D03*
X116470001Y-40960000D03*
X116470001Y-43500000D03*
X113930001Y-40960000D03*
X113930001Y-43500000D03*
X111390001Y-40960000D03*
X111390001Y-43500000D03*
X108850001Y-40960000D03*
X108850001Y-43500000D03*
X106310001Y-40960000D03*
X106310001Y-43500000D03*
X103770001Y-40960000D03*
X103770001Y-43500000D03*
X101230001Y-40960000D03*
X101230001Y-43500000D03*
X98690001Y-40960000D03*
X98690001Y-43500000D03*
X96150001Y-40960000D03*
X96150001Y-43500000D03*
X93610001Y-40960000D03*
X93610001Y-43500000D03*
X91070001Y-40960000D03*
X91070001Y-43500000D03*
X88530001Y-40960000D03*
X88530001Y-43500000D03*
X85990001Y-40960000D03*
X85990001Y-43500000D03*
X83450001Y-40960000D03*
X83450001Y-43500000D03*
X80910001Y-40960000D03*
X80910001Y-43500000D03*
X78370001Y-40960000D03*
X78370001Y-43500000D03*
X75830001Y-40960000D03*
X75830001Y-43500000D03*
X73290001Y-40960000D03*
X73290001Y-43500000D03*
%TD*%
D11*
%TO.C,D376*%
X79570001Y-51475002D03*
X79570001Y-53225000D03*
%TD*%
%TO.C,D490*%
X110610001Y-84800001D03*
X110610001Y-86549999D03*
%TD*%
D10*
%TO.C,D668*%
X115790005Y-136150001D03*
X115790005Y-134400003D03*
%TD*%
%TO.C,D577*%
X118380002Y-111449999D03*
X118380002Y-109700001D03*
%TD*%
D11*
%TO.C,D626*%
X84710003Y-119600001D03*
X84710003Y-121349999D03*
%TD*%
%TO.C,D420*%
X105440000Y-65525002D03*
X105440000Y-67275000D03*
%TD*%
D10*
%TO.C,D579*%
X113200003Y-111449999D03*
X113200003Y-109700001D03*
%TD*%
%TO.C,D655*%
X102880002Y-131249999D03*
X102880002Y-129500001D03*
%TD*%
D11*
%TO.C,D506*%
X115790000Y-89700000D03*
X115790000Y-91449998D03*
%TD*%
%TO.C,D398*%
X115680001Y-60900002D03*
X115680001Y-62650000D03*
%TD*%
%TO.C,D480*%
X89899999Y-79850002D03*
X89899999Y-81600000D03*
%TD*%
D10*
%TO.C,D343*%
X118420000Y-48568000D03*
X118420000Y-46818002D03*
%TD*%
%TO.C,D361*%
X118470000Y-53250001D03*
X118470000Y-51500003D03*
%TD*%
%TO.C,D237*%
X163200003Y-111449999D03*
X163200003Y-109700001D03*
%TD*%
%TO.C,D109*%
X168390000Y-76700000D03*
X168390000Y-74950002D03*
%TD*%
D11*
%TO.C,D6*%
X155470002Y-46818001D03*
X155470002Y-48567999D03*
%TD*%
%TO.C,D148*%
X160610001Y-84800001D03*
X160610001Y-86549999D03*
%TD*%
D10*
%TO.C,D326*%
X165790005Y-136150001D03*
X165790005Y-134400003D03*
%TD*%
D11*
%TO.C,D92*%
X165810001Y-70275003D03*
X165810001Y-72025001D03*
%TD*%
D10*
%TO.C,D243*%
X147660004Y-111449999D03*
X147660004Y-109700001D03*
%TD*%
D11*
%TO.C,D230*%
X134710001Y-104800001D03*
X134710001Y-106549999D03*
%TD*%
%TO.C,D108*%
X124345001Y-70275000D03*
X124345001Y-72024998D03*
%TD*%
D10*
%TO.C,D269*%
X126930002Y-116349998D03*
X126930002Y-114600000D03*
%TD*%
D11*
%TO.C,D10*%
X145110001Y-46818001D03*
X145110001Y-48567999D03*
%TD*%
D10*
%TO.C,D191*%
X142440002Y-96449998D03*
X142440002Y-94700000D03*
%TD*%
%TO.C,D267*%
X132110000Y-116349997D03*
X132110000Y-114599999D03*
%TD*%
D11*
%TO.C,D296*%
X150250002Y-124600001D03*
X150250002Y-126349999D03*
%TD*%
D10*
%TO.C,D177*%
X132120002Y-91449998D03*
X132120002Y-89700000D03*
%TD*%
D12*
%TO.C,J1*%
X169010001Y-40960000D03*
D13*
X169010001Y-43500000D03*
X166470001Y-40960000D03*
X166470001Y-43500000D03*
X163930001Y-40960000D03*
X163930001Y-43500000D03*
X161390001Y-40960000D03*
X161390001Y-43500000D03*
X158850001Y-40960000D03*
X158850001Y-43500000D03*
X156310001Y-40960000D03*
X156310001Y-43500000D03*
X153770001Y-40960000D03*
X153770001Y-43500000D03*
X151230001Y-40960000D03*
X151230001Y-43500000D03*
X148690001Y-40960000D03*
X148690001Y-43500000D03*
X146150001Y-40960000D03*
X146150001Y-43500000D03*
X143610001Y-40960000D03*
X143610001Y-43500000D03*
X141070001Y-40960000D03*
X141070001Y-43500000D03*
X138530001Y-40960000D03*
X138530001Y-43500000D03*
X135990001Y-40960000D03*
X135990001Y-43500000D03*
X133450001Y-40960000D03*
X133450001Y-43500000D03*
X130910001Y-40960000D03*
X130910001Y-43500000D03*
X128370001Y-40960000D03*
X128370001Y-43500000D03*
X125830001Y-40960000D03*
X125830001Y-43500000D03*
X123290001Y-40960000D03*
X123290001Y-43500000D03*
%TD*%
D11*
%TO.C,D174*%
X139890001Y-89700000D03*
X139890001Y-91449998D03*
%TD*%
D10*
%TO.C,D43*%
X152780004Y-57892003D03*
X152780004Y-56142005D03*
%TD*%
%TO.C,D195*%
X132080004Y-96449999D03*
X132080004Y-94700001D03*
%TD*%
%TO.C,D235*%
X168380002Y-111449999D03*
X168380002Y-109700001D03*
%TD*%
D11*
%TO.C,D150*%
X155430001Y-84800001D03*
X155430001Y-86549999D03*
%TD*%
D10*
%TO.C,D261*%
X147650002Y-116349999D03*
X147650002Y-114600001D03*
%TD*%
%TO.C,D45*%
X147600003Y-57892003D03*
X147600003Y-56142005D03*
%TD*%
D11*
%TO.C,D325*%
X168380002Y-134400001D03*
X168380002Y-136149999D03*
%TD*%
D10*
%TO.C,D99*%
X147655001Y-72024998D03*
X147655001Y-70275000D03*
%TD*%
%TO.C,D225*%
X147660000Y-106549999D03*
X147660000Y-104800001D03*
%TD*%
D11*
%TO.C,D32*%
X134750001Y-51475001D03*
X134750001Y-53224999D03*
%TD*%
D10*
%TO.C,D131*%
X158029999Y-81600000D03*
X158029999Y-79850002D03*
%TD*%
D11*
%TO.C,D14*%
X134749999Y-46818002D03*
X134749999Y-48568000D03*
%TD*%
%TO.C,D16*%
X129570000Y-46818002D03*
X129570000Y-48568000D03*
%TD*%
D10*
%TO.C,D303*%
X132210003Y-126349999D03*
X132210003Y-124600001D03*
%TD*%
%TO.C,D77*%
X158030001Y-67275001D03*
X158030001Y-65525003D03*
%TD*%
%TO.C,D39*%
X163140003Y-57892002D03*
X163140003Y-56142004D03*
%TD*%
%TO.C,D107*%
X126935000Y-72024997D03*
X126935000Y-70274999D03*
%TD*%
%TO.C,D71*%
X126979999Y-62649998D03*
X126979999Y-60900000D03*
%TD*%
D11*
%TO.C,D142*%
X129519997Y-79850001D03*
X129519997Y-81599999D03*
%TD*%
D10*
%TO.C,D143*%
X126930000Y-81600001D03*
X126930000Y-79850003D03*
%TD*%
%TO.C,D157*%
X137300001Y-86549999D03*
X137300001Y-84800001D03*
%TD*%
%TO.C,D271*%
X168370004Y-121349999D03*
X168370004Y-119600001D03*
%TD*%
D11*
%TO.C,D30*%
X139930000Y-51475001D03*
X139930000Y-53224999D03*
%TD*%
D10*
%TO.C,D167*%
X158020001Y-91449998D03*
X158020001Y-89700000D03*
%TD*%
D11*
%TO.C,D320*%
X134790000Y-129450003D03*
X134790000Y-131200001D03*
%TD*%
D10*
%TO.C,D5*%
X158059999Y-48568000D03*
X158059999Y-46818002D03*
%TD*%
%TO.C,D259*%
X152830002Y-116349999D03*
X152830002Y-114600001D03*
%TD*%
D11*
%TO.C,D178*%
X129530000Y-89700000D03*
X129530000Y-91449998D03*
%TD*%
D10*
%TO.C,D93*%
X163195001Y-72024999D03*
X163195001Y-70275001D03*
%TD*%
%TO.C,D129*%
X163209999Y-81600000D03*
X163209999Y-79850002D03*
%TD*%
D11*
%TO.C,D256*%
X160600001Y-114600001D03*
X160600001Y-116349999D03*
%TD*%
%TO.C,D268*%
X129520002Y-114600001D03*
X129520002Y-116349999D03*
%TD*%
%TO.C,D50*%
X134749999Y-56125001D03*
X134749999Y-57874999D03*
%TD*%
D10*
%TO.C,D277*%
X152880002Y-121349999D03*
X152880002Y-119600001D03*
%TD*%
%TO.C,D295*%
X152840004Y-126349999D03*
X152840004Y-124600001D03*
%TD*%
%TO.C,D185*%
X157980002Y-96449999D03*
X157980002Y-94700001D03*
%TD*%
D11*
%TO.C,D208*%
X145080002Y-99800001D03*
X145080002Y-101549999D03*
%TD*%
%TO.C,D312*%
X155430003Y-129500001D03*
X155430003Y-131249999D03*
%TD*%
%TO.C,D140*%
X134699999Y-79850003D03*
X134699999Y-81600001D03*
%TD*%
%TO.C,D170*%
X150250002Y-89700000D03*
X150250002Y-91449998D03*
%TD*%
%TO.C,D262*%
X145060002Y-114600001D03*
X145060002Y-116349999D03*
%TD*%
%TO.C,D190*%
X145030002Y-94700002D03*
X145030002Y-96450000D03*
%TD*%
%TO.C,D222*%
X155430002Y-104800002D03*
X155430002Y-106550000D03*
%TD*%
D10*
%TO.C,D334*%
X145070002Y-136149999D03*
X145070002Y-134400001D03*
%TD*%
%TO.C,D17*%
X126980000Y-48568000D03*
X126980000Y-46818002D03*
%TD*%
%TO.C,D105*%
X132115002Y-72024999D03*
X132115002Y-70275001D03*
%TD*%
%TO.C,D51*%
X132160000Y-57874999D03*
X132160000Y-56125001D03*
%TD*%
D11*
%TO.C,D298*%
X145070002Y-124600001D03*
X145070002Y-126349999D03*
%TD*%
D10*
%TO.C,D83*%
X142490000Y-67275001D03*
X142490000Y-65525003D03*
%TD*%
%TO.C,D207*%
X147650001Y-101549997D03*
X147650001Y-99799999D03*
%TD*%
D11*
%TO.C,D34*%
X129570001Y-51475002D03*
X129570001Y-53225000D03*
%TD*%
%TO.C,D254*%
X165780002Y-114600001D03*
X165780002Y-116349999D03*
%TD*%
%TO.C,D240*%
X155430004Y-109700000D03*
X155430004Y-111449998D03*
%TD*%
%TO.C,D333*%
X147660005Y-134400003D03*
X147660005Y-136150001D03*
%TD*%
D10*
%TO.C,D311*%
X158020001Y-131249999D03*
X158020001Y-129500001D03*
%TD*%
%TO.C,D127*%
X168390000Y-81600000D03*
X168390000Y-79850002D03*
%TD*%
D11*
%TO.C,D100*%
X145065001Y-70275001D03*
X145065001Y-72024999D03*
%TD*%
%TO.C,D80*%
X150260002Y-65525003D03*
X150260002Y-67275001D03*
%TD*%
D10*
%TO.C,D330*%
X155430004Y-136150001D03*
X155430004Y-134400003D03*
%TD*%
D11*
%TO.C,D198*%
X124310002Y-94700000D03*
X124310002Y-96449998D03*
%TD*%
%TO.C,D180*%
X124350000Y-89700000D03*
X124350000Y-91449998D03*
%TD*%
%TO.C,D186*%
X155390001Y-94700000D03*
X155390001Y-96449998D03*
%TD*%
D10*
%TO.C,D113*%
X158029998Y-76699998D03*
X158029998Y-74950000D03*
%TD*%
%TO.C,D155*%
X142480000Y-86549999D03*
X142480000Y-84800001D03*
%TD*%
%TO.C,D201*%
X163190001Y-101549998D03*
X163190001Y-99800000D03*
%TD*%
%TO.C,D199*%
X168370002Y-101549999D03*
X168370002Y-99800001D03*
%TD*%
D11*
%TO.C,D130*%
X160619999Y-79850002D03*
X160619999Y-81600000D03*
%TD*%
%TO.C,D54*%
X124390001Y-56125001D03*
X124390001Y-57874999D03*
%TD*%
D10*
%TO.C,D179*%
X126940002Y-91449998D03*
X126940002Y-89700000D03*
%TD*%
D11*
%TO.C,D122*%
X134749999Y-74950002D03*
X134749999Y-76700000D03*
%TD*%
D10*
%TO.C,D213*%
X132130000Y-101549999D03*
X132130000Y-99800001D03*
%TD*%
D11*
%TO.C,D194*%
X134670004Y-94700002D03*
X134670004Y-96450000D03*
%TD*%
D10*
%TO.C,D245*%
X142480003Y-111449999D03*
X142480003Y-109700001D03*
%TD*%
D11*
%TO.C,D76*%
X160620001Y-65525003D03*
X160620001Y-67275001D03*
%TD*%
D10*
%TO.C,D319*%
X137380002Y-131200001D03*
X137380002Y-129450003D03*
%TD*%
%TO.C,D163*%
X168380002Y-91449998D03*
X168380002Y-89700000D03*
%TD*%
%TO.C,D173*%
X142480000Y-91449998D03*
X142480000Y-89700000D03*
%TD*%
%TO.C,D65*%
X142370001Y-62650000D03*
X142370001Y-60900002D03*
%TD*%
%TO.C,D73*%
X168390002Y-67275001D03*
X168390002Y-65525003D03*
%TD*%
%TO.C,D119*%
X142519998Y-76700000D03*
X142519998Y-74950002D03*
%TD*%
D11*
%TO.C,D244*%
X145070002Y-109700001D03*
X145070002Y-111449999D03*
%TD*%
D10*
%TO.C,D337*%
X137300004Y-136150001D03*
X137300004Y-134400003D03*
%TD*%
%TO.C,D233*%
X126900001Y-106549999D03*
X126900001Y-104800001D03*
%TD*%
D11*
%TO.C,D306*%
X124440002Y-124600001D03*
X124440002Y-126349999D03*
%TD*%
D10*
%TO.C,D197*%
X126900002Y-96450000D03*
X126900002Y-94700002D03*
%TD*%
%TO.C,D328*%
X160610003Y-136149999D03*
X160610003Y-134400001D03*
%TD*%
%TO.C,D301*%
X137390001Y-126349998D03*
X137390001Y-124600000D03*
%TD*%
%TO.C,D227*%
X142480000Y-106549999D03*
X142480000Y-104800001D03*
%TD*%
%TO.C,D305*%
X127030001Y-126349997D03*
X127030001Y-124599999D03*
%TD*%
%TO.C,D81*%
X147670002Y-67274999D03*
X147670002Y-65525001D03*
%TD*%
D11*
%TO.C,D252*%
X124350003Y-109700001D03*
X124350003Y-111449999D03*
%TD*%
%TO.C,D88*%
X129540002Y-65525002D03*
X129540002Y-67275000D03*
%TD*%
D10*
%TO.C,D41*%
X157960004Y-57892003D03*
X157960004Y-56142005D03*
%TD*%
D11*
%TO.C,D270*%
X124340002Y-114600001D03*
X124340002Y-116349999D03*
%TD*%
%TO.C,D341*%
X126940002Y-134400001D03*
X126940002Y-136149999D03*
%TD*%
%TO.C,D2*%
X165829999Y-46818001D03*
X165829999Y-48567999D03*
%TD*%
D10*
%TO.C,D15*%
X132160000Y-48568000D03*
X132160000Y-46818002D03*
%TD*%
%TO.C,D181*%
X168380002Y-96449998D03*
X168380002Y-94700000D03*
%TD*%
D11*
%TO.C,D66*%
X139779999Y-60900002D03*
X139779999Y-62650000D03*
%TD*%
D10*
%TO.C,D171*%
X147660000Y-91449998D03*
X147660000Y-89700000D03*
%TD*%
%TO.C,D332*%
X150250005Y-136150000D03*
X150250005Y-134400002D03*
%TD*%
D11*
%TO.C,D242*%
X150250002Y-109700001D03*
X150250002Y-111449999D03*
%TD*%
%TO.C,D96*%
X155425002Y-70275001D03*
X155425002Y-72024999D03*
%TD*%
%TO.C,D329*%
X158020004Y-134400002D03*
X158020004Y-136150000D03*
%TD*%
D10*
%TO.C,D289*%
X168380002Y-126349999D03*
X168380002Y-124600001D03*
%TD*%
D11*
%TO.C,D104*%
X134704999Y-70274999D03*
X134704999Y-72024997D03*
%TD*%
D10*
%TO.C,D313*%
X152880002Y-131249999D03*
X152880002Y-129500001D03*
%TD*%
%TO.C,D265*%
X137290000Y-116349997D03*
X137290000Y-114599999D03*
%TD*%
D11*
%TO.C,D152*%
X150250000Y-84800001D03*
X150250000Y-86549999D03*
%TD*%
%TO.C,D124*%
X129569999Y-74950002D03*
X129569999Y-76700000D03*
%TD*%
D10*
%TO.C,D287*%
X126940001Y-121349999D03*
X126940001Y-119600001D03*
%TD*%
%TO.C,D1*%
X168420000Y-48568000D03*
X168420000Y-46818002D03*
%TD*%
D11*
%TO.C,D246*%
X139890003Y-109700001D03*
X139890003Y-111449999D03*
%TD*%
D10*
%TO.C,D205*%
X152830003Y-101549999D03*
X152830003Y-99800001D03*
%TD*%
D11*
%TO.C,D44*%
X150190001Y-56142003D03*
X150190001Y-57892001D03*
%TD*%
D10*
%TO.C,D231*%
X132080002Y-106549999D03*
X132080002Y-104800001D03*
%TD*%
%TO.C,D63*%
X147550001Y-62650000D03*
X147550001Y-60900002D03*
%TD*%
D11*
%TO.C,D60*%
X155320000Y-60900002D03*
X155320000Y-62650000D03*
%TD*%
D10*
%TO.C,D336*%
X139890002Y-136149999D03*
X139890002Y-134400001D03*
%TD*%
D11*
%TO.C,D339*%
X132120004Y-134400003D03*
X132120004Y-136150001D03*
%TD*%
%TO.C,D202*%
X160600003Y-99800000D03*
X160600003Y-101549998D03*
%TD*%
%TO.C,D22*%
X160680003Y-51475001D03*
X160680003Y-53224999D03*
%TD*%
%TO.C,D106*%
X129524999Y-70274999D03*
X129524999Y-72024997D03*
%TD*%
D10*
%TO.C,D275*%
X158010003Y-121349999D03*
X158010003Y-119600001D03*
%TD*%
%TO.C,D21*%
X163270000Y-53225000D03*
X163270000Y-51475002D03*
%TD*%
D11*
%TO.C,D294*%
X155430002Y-124600001D03*
X155430002Y-126349999D03*
%TD*%
D10*
%TO.C,D165*%
X163200002Y-91449997D03*
X163200002Y-89699999D03*
%TD*%
D11*
%TO.C,D52*%
X129569999Y-56125001D03*
X129569999Y-57874999D03*
%TD*%
D10*
%TO.C,D31*%
X137340000Y-53225000D03*
X137340000Y-51475002D03*
%TD*%
%TO.C,D139*%
X137290000Y-81600000D03*
X137290000Y-79850002D03*
%TD*%
D11*
%TO.C,D110*%
X165800000Y-74950000D03*
X165800000Y-76699998D03*
%TD*%
D10*
%TO.C,D47*%
X142520001Y-57874999D03*
X142520001Y-56125001D03*
%TD*%
D11*
%TO.C,D86*%
X134720001Y-65525003D03*
X134720001Y-67275001D03*
%TD*%
%TO.C,D236*%
X165790003Y-109700001D03*
X165790003Y-111449999D03*
%TD*%
D10*
%TO.C,D149*%
X158019999Y-86549999D03*
X158019999Y-84800001D03*
%TD*%
D11*
%TO.C,D238*%
X160610003Y-109700001D03*
X160610003Y-111449999D03*
%TD*%
D10*
%TO.C,D281*%
X142480002Y-121349999D03*
X142480002Y-119600001D03*
%TD*%
%TO.C,D59*%
X157909999Y-62650000D03*
X157909999Y-60900002D03*
%TD*%
D11*
%TO.C,D136*%
X145080000Y-79850002D03*
X145080000Y-81600000D03*
%TD*%
%TO.C,D98*%
X150245000Y-70274999D03*
X150245000Y-72024997D03*
%TD*%
D10*
%TO.C,D125*%
X126980000Y-76700000D03*
X126980000Y-74950002D03*
%TD*%
D11*
%TO.C,D134*%
X150260000Y-79850002D03*
X150260000Y-81600000D03*
%TD*%
%TO.C,D90*%
X124360000Y-65525003D03*
X124360000Y-67275001D03*
%TD*%
D10*
%TO.C,D169*%
X152840001Y-91449998D03*
X152840001Y-89700000D03*
%TD*%
%TO.C,D209*%
X142490002Y-101550001D03*
X142490002Y-99800003D03*
%TD*%
D11*
%TO.C,D158*%
X134709998Y-84799999D03*
X134709998Y-86549997D03*
%TD*%
D10*
%TO.C,D135*%
X147669998Y-81600000D03*
X147669998Y-79850002D03*
%TD*%
D11*
%TO.C,D4*%
X160650001Y-46818002D03*
X160650001Y-48568000D03*
%TD*%
%TO.C,D216*%
X124360002Y-99800003D03*
X124360002Y-101550001D03*
%TD*%
%TO.C,D38*%
X165730003Y-56142005D03*
X165730003Y-57892003D03*
%TD*%
%TO.C,D302*%
X134800003Y-124600000D03*
X134800003Y-126349998D03*
%TD*%
D10*
%TO.C,D23*%
X158070000Y-53225000D03*
X158070000Y-51475002D03*
%TD*%
D11*
%TO.C,D172*%
X145070002Y-89700000D03*
X145070002Y-91449998D03*
%TD*%
%TO.C,D8*%
X150290000Y-46818002D03*
X150290000Y-48568000D03*
%TD*%
D10*
%TO.C,D69*%
X132010000Y-62650000D03*
X132010000Y-60900002D03*
%TD*%
%TO.C,D153*%
X147660000Y-86549998D03*
X147660000Y-84800000D03*
%TD*%
%TO.C,D263*%
X142470003Y-116349998D03*
X142470003Y-114600000D03*
%TD*%
%TO.C,D147*%
X163200000Y-86549999D03*
X163200000Y-84800001D03*
%TD*%
D11*
%TO.C,D226*%
X145070003Y-104800003D03*
X145070003Y-106550001D03*
%TD*%
D10*
%TO.C,D221*%
X158020001Y-106549999D03*
X158020001Y-104800001D03*
%TD*%
%TO.C,D342*%
X124350005Y-136150001D03*
X124350005Y-134400003D03*
%TD*%
D11*
%TO.C,D335*%
X142480005Y-134400003D03*
X142480005Y-136150001D03*
%TD*%
%TO.C,D220*%
X160610000Y-104800001D03*
X160610000Y-106549999D03*
%TD*%
D10*
%TO.C,D3*%
X163239999Y-48568000D03*
X163239999Y-46818002D03*
%TD*%
D11*
%TO.C,D184*%
X160610002Y-94700001D03*
X160610002Y-96449999D03*
%TD*%
D10*
%TO.C,D273*%
X163190004Y-121349999D03*
X163190004Y-119600001D03*
%TD*%
%TO.C,D255*%
X163190002Y-116349999D03*
X163190002Y-114600001D03*
%TD*%
%TO.C,D33*%
X132160001Y-53224999D03*
X132160001Y-51475001D03*
%TD*%
%TO.C,D95*%
X158014999Y-72024997D03*
X158014999Y-70274999D03*
%TD*%
D11*
%TO.C,D274*%
X160600001Y-119599999D03*
X160600001Y-121349997D03*
%TD*%
D10*
%TO.C,D55*%
X168270000Y-62649999D03*
X168270000Y-60900001D03*
%TD*%
%TO.C,D89*%
X126950002Y-67275001D03*
X126950002Y-65525003D03*
%TD*%
%TO.C,D121*%
X137339998Y-76700000D03*
X137339998Y-74950002D03*
%TD*%
D11*
%TO.C,D316*%
X145090002Y-129500001D03*
X145090002Y-131249999D03*
%TD*%
%TO.C,D120*%
X139930000Y-74950002D03*
X139930000Y-76700000D03*
%TD*%
D10*
%TO.C,D101*%
X142475001Y-72024997D03*
X142475001Y-70274999D03*
%TD*%
D11*
%TO.C,D24*%
X155470000Y-51475002D03*
X155470000Y-53225000D03*
%TD*%
%TO.C,D224*%
X150250002Y-104800001D03*
X150250002Y-106549999D03*
%TD*%
%TO.C,D132*%
X155440000Y-79850002D03*
X155440000Y-81600000D03*
%TD*%
D10*
%TO.C,D103*%
X137295002Y-72024999D03*
X137295002Y-70275001D03*
%TD*%
D11*
%TO.C,D156*%
X139890001Y-84800000D03*
X139890001Y-86549998D03*
%TD*%
%TO.C,D58*%
X160500001Y-60900001D03*
X160500001Y-62649999D03*
%TD*%
%TO.C,D286*%
X129530003Y-119600001D03*
X129530003Y-121349999D03*
%TD*%
%TO.C,D300*%
X139980002Y-124600001D03*
X139980002Y-126349999D03*
%TD*%
%TO.C,D18*%
X124390001Y-46818002D03*
X124390001Y-48568000D03*
%TD*%
%TO.C,D74*%
X165800000Y-65525003D03*
X165800000Y-67275001D03*
%TD*%
D10*
%TO.C,D159*%
X132120001Y-86549999D03*
X132120001Y-84800001D03*
%TD*%
%TO.C,D219*%
X163200003Y-106550001D03*
X163200003Y-104800003D03*
%TD*%
%TO.C,D309*%
X163200003Y-131249998D03*
X163200003Y-129500000D03*
%TD*%
D11*
%TO.C,D94*%
X160605001Y-70274999D03*
X160605001Y-72024997D03*
%TD*%
D10*
%TO.C,D13*%
X137340001Y-48568000D03*
X137340001Y-46818002D03*
%TD*%
D11*
%TO.C,D292*%
X160610003Y-124600001D03*
X160610003Y-126349999D03*
%TD*%
%TO.C,D218*%
X165790000Y-104800001D03*
X165790000Y-106549999D03*
%TD*%
D10*
%TO.C,D115*%
X152850000Y-76699999D03*
X152850000Y-74950001D03*
%TD*%
%TO.C,D317*%
X142580002Y-131249999D03*
X142580002Y-129500001D03*
%TD*%
D11*
%TO.C,D128*%
X165799998Y-79850002D03*
X165799998Y-81600000D03*
%TD*%
D10*
%TO.C,D35*%
X126979998Y-53224998D03*
X126979998Y-51475000D03*
%TD*%
%TO.C,D29*%
X142520002Y-53224999D03*
X142520002Y-51475001D03*
%TD*%
D11*
%TO.C,D192*%
X139850003Y-94700002D03*
X139850003Y-96450000D03*
%TD*%
D10*
%TO.C,D299*%
X142480003Y-126349999D03*
X142480003Y-124600001D03*
%TD*%
D11*
%TO.C,D258*%
X155420000Y-114599999D03*
X155420000Y-116349997D03*
%TD*%
%TO.C,D84*%
X139900000Y-65525001D03*
X139900000Y-67274999D03*
%TD*%
%TO.C,D278*%
X150290000Y-119600001D03*
X150290000Y-121349999D03*
%TD*%
%TO.C,D144*%
X124339997Y-79850001D03*
X124339997Y-81599999D03*
%TD*%
%TO.C,D48*%
X139929999Y-56125001D03*
X139929999Y-57874999D03*
%TD*%
D10*
%TO.C,D203*%
X158010003Y-101549999D03*
X158010003Y-99800001D03*
%TD*%
%TO.C,D285*%
X132120001Y-121349999D03*
X132120001Y-119600001D03*
%TD*%
%TO.C,D283*%
X137300002Y-121349999D03*
X137300002Y-119600001D03*
%TD*%
%TO.C,D183*%
X163200001Y-96449999D03*
X163200001Y-94700001D03*
%TD*%
%TO.C,D87*%
X132130002Y-67275001D03*
X132130002Y-65525003D03*
%TD*%
%TO.C,D223*%
X152840002Y-106550001D03*
X152840002Y-104800003D03*
%TD*%
D11*
%TO.C,D36*%
X124390001Y-51475002D03*
X124390001Y-53225000D03*
%TD*%
%TO.C,D214*%
X129540001Y-99800001D03*
X129540001Y-101549999D03*
%TD*%
%TO.C,D338*%
X134710004Y-134400002D03*
X134710004Y-136150000D03*
%TD*%
%TO.C,D176*%
X134710001Y-89700000D03*
X134710001Y-91449998D03*
%TD*%
%TO.C,D264*%
X139880003Y-114600001D03*
X139880003Y-116349999D03*
%TD*%
%TO.C,D164*%
X165790000Y-89700000D03*
X165790000Y-91449998D03*
%TD*%
D10*
%TO.C,D211*%
X137310000Y-101549999D03*
X137310000Y-99800001D03*
%TD*%
D11*
%TO.C,D20*%
X165880002Y-51500003D03*
X165880002Y-53250001D03*
%TD*%
%TO.C,D126*%
X124389998Y-74950002D03*
X124389998Y-76700000D03*
%TD*%
D10*
%TO.C,D11*%
X142520001Y-48568000D03*
X142520001Y-46818002D03*
%TD*%
D11*
%TO.C,D248*%
X134710004Y-109700001D03*
X134710004Y-111449999D03*
%TD*%
D10*
%TO.C,D19*%
X168470000Y-53250001D03*
X168470000Y-51500003D03*
%TD*%
D11*
%TO.C,D182*%
X165790000Y-94700001D03*
X165790000Y-96449999D03*
%TD*%
D10*
%TO.C,D239*%
X158020004Y-111449999D03*
X158020004Y-109700001D03*
%TD*%
%TO.C,D137*%
X142489998Y-81600000D03*
X142489998Y-79850002D03*
%TD*%
%TO.C,D49*%
X137340001Y-57874999D03*
X137340001Y-56125001D03*
%TD*%
%TO.C,D297*%
X147660003Y-126349999D03*
X147660003Y-124600001D03*
%TD*%
D11*
%TO.C,D280*%
X145110000Y-119600001D03*
X145110000Y-121349999D03*
%TD*%
D10*
%TO.C,D315*%
X147680002Y-131249999D03*
X147680002Y-129500001D03*
%TD*%
%TO.C,D189*%
X147620004Y-96450000D03*
X147620004Y-94700002D03*
%TD*%
%TO.C,D141*%
X132110000Y-81600001D03*
X132110000Y-79850003D03*
%TD*%
%TO.C,D37*%
X168320001Y-57892001D03*
X168320001Y-56142003D03*
%TD*%
D11*
%TO.C,D26*%
X150289999Y-51475002D03*
X150289999Y-53225000D03*
%TD*%
D10*
%TO.C,D193*%
X137260003Y-96450000D03*
X137260003Y-94700002D03*
%TD*%
D11*
%TO.C,D327*%
X163200002Y-134400001D03*
X163200002Y-136149999D03*
%TD*%
%TO.C,D188*%
X150210004Y-94700000D03*
X150210004Y-96449998D03*
%TD*%
%TO.C,D314*%
X150290002Y-129499999D03*
X150290002Y-131249997D03*
%TD*%
%TO.C,D62*%
X150140000Y-60900002D03*
X150140000Y-62650000D03*
%TD*%
%TO.C,D154*%
X145070000Y-84800001D03*
X145070000Y-86549999D03*
%TD*%
%TO.C,D112*%
X160620001Y-74950002D03*
X160620001Y-76700000D03*
%TD*%
D10*
%TO.C,D257*%
X158010003Y-116349999D03*
X158010003Y-114600001D03*
%TD*%
%TO.C,D175*%
X137300000Y-91449998D03*
X137300000Y-89700000D03*
%TD*%
D11*
%TO.C,D288*%
X124350002Y-119600001D03*
X124350002Y-121349999D03*
%TD*%
%TO.C,D40*%
X160550003Y-56142005D03*
X160550003Y-57892003D03*
%TD*%
%TO.C,D116*%
X150290000Y-74950002D03*
X150290000Y-76700000D03*
%TD*%
%TO.C,D42*%
X155370002Y-56142005D03*
X155370002Y-57892003D03*
%TD*%
D10*
%TO.C,D161*%
X126940000Y-86549999D03*
X126940000Y-84800001D03*
%TD*%
D11*
%TO.C,D260*%
X150240002Y-114600000D03*
X150240002Y-116349998D03*
%TD*%
D10*
%TO.C,D249*%
X132120002Y-111449999D03*
X132120002Y-109700001D03*
%TD*%
%TO.C,D9*%
X147700001Y-48568000D03*
X147700001Y-46818002D03*
%TD*%
D11*
%TO.C,D146*%
X165790000Y-84800000D03*
X165790000Y-86549998D03*
%TD*%
D10*
%TO.C,D57*%
X163089999Y-62650000D03*
X163089999Y-60900002D03*
%TD*%
D11*
%TO.C,D210*%
X139900003Y-99800003D03*
X139900003Y-101550001D03*
%TD*%
D10*
%TO.C,D229*%
X137300000Y-106549999D03*
X137300000Y-104800001D03*
%TD*%
%TO.C,D307*%
X168380002Y-131249999D03*
X168380002Y-129500001D03*
%TD*%
%TO.C,D251*%
X126940002Y-111449999D03*
X126940002Y-109700001D03*
%TD*%
D11*
%TO.C,D284*%
X134710003Y-119600001D03*
X134710003Y-121349999D03*
%TD*%
%TO.C,D72*%
X124390001Y-60900000D03*
X124390001Y-62649998D03*
%TD*%
%TO.C,D234*%
X124310003Y-104800001D03*
X124310003Y-106549999D03*
%TD*%
%TO.C,D70*%
X129570000Y-60900001D03*
X129570000Y-62649999D03*
%TD*%
%TO.C,D318*%
X139990002Y-129500000D03*
X139990002Y-131249998D03*
%TD*%
%TO.C,D228*%
X139890003Y-104800003D03*
X139890003Y-106550001D03*
%TD*%
D10*
%TO.C,D151*%
X152839998Y-86549997D03*
X152839998Y-84799999D03*
%TD*%
%TO.C,D215*%
X126950002Y-101550000D03*
X126950002Y-99800002D03*
%TD*%
%TO.C,D7*%
X152880000Y-48568000D03*
X152880000Y-46818002D03*
%TD*%
%TO.C,D253*%
X168380002Y-116349999D03*
X168380002Y-114600001D03*
%TD*%
D11*
%TO.C,D114*%
X155439999Y-74950000D03*
X155439999Y-76699998D03*
%TD*%
%TO.C,D322*%
X129610001Y-129450003D03*
X129610001Y-131200001D03*
%TD*%
%TO.C,D12*%
X139929999Y-46818002D03*
X139929999Y-48568000D03*
%TD*%
%TO.C,D331*%
X152840004Y-134400001D03*
X152840004Y-136149999D03*
%TD*%
%TO.C,D304*%
X129620001Y-124600001D03*
X129620001Y-126349999D03*
%TD*%
%TO.C,D118*%
X145110000Y-74950002D03*
X145110000Y-76700000D03*
%TD*%
D10*
%TO.C,D75*%
X163210000Y-67274999D03*
X163210000Y-65525001D03*
%TD*%
D11*
%TO.C,D166*%
X160610000Y-89700000D03*
X160610000Y-91449998D03*
%TD*%
D10*
%TO.C,D27*%
X147700001Y-53225000D03*
X147700001Y-51475002D03*
%TD*%
D11*
%TO.C,D232*%
X129490003Y-104800001D03*
X129490003Y-106549999D03*
%TD*%
D10*
%TO.C,D91*%
X168400000Y-72024999D03*
X168400000Y-70275001D03*
%TD*%
%TO.C,D53*%
X126980000Y-57874999D03*
X126980000Y-56125001D03*
%TD*%
D11*
%TO.C,D82*%
X145080000Y-65525001D03*
X145080000Y-67274999D03*
%TD*%
%TO.C,D138*%
X139899999Y-79850002D03*
X139899999Y-81600000D03*
%TD*%
%TO.C,D46*%
X145010003Y-56142004D03*
X145010003Y-57892002D03*
%TD*%
%TO.C,D310*%
X160610003Y-129500001D03*
X160610003Y-131249999D03*
%TD*%
D10*
%TO.C,D117*%
X147699999Y-76700000D03*
X147699999Y-74950002D03*
%TD*%
D11*
%TO.C,D324*%
X124390002Y-129425000D03*
X124390002Y-131174998D03*
%TD*%
%TO.C,D102*%
X139884999Y-70274999D03*
X139884999Y-72024997D03*
%TD*%
D10*
%TO.C,D291*%
X163200005Y-126349999D03*
X163200005Y-124600001D03*
%TD*%
%TO.C,D217*%
X168380002Y-106549999D03*
X168380002Y-104800001D03*
%TD*%
%TO.C,D279*%
X147700002Y-121349999D03*
X147700002Y-119600001D03*
%TD*%
D11*
%TO.C,D266*%
X134700003Y-114600001D03*
X134700003Y-116349999D03*
%TD*%
D10*
%TO.C,D111*%
X163209998Y-76699998D03*
X163209998Y-74950000D03*
%TD*%
D11*
%TO.C,D68*%
X134599999Y-60900002D03*
X134599999Y-62650000D03*
%TD*%
D10*
%TO.C,D79*%
X152850002Y-67275000D03*
X152850002Y-65525002D03*
%TD*%
D11*
%TO.C,D272*%
X165780002Y-119600001D03*
X165780002Y-121349999D03*
%TD*%
D10*
%TO.C,D67*%
X137190000Y-62650000D03*
X137190000Y-60900002D03*
%TD*%
D11*
%TO.C,D206*%
X150240001Y-99800001D03*
X150240001Y-101549999D03*
%TD*%
D10*
%TO.C,D340*%
X129530004Y-136149999D03*
X129530004Y-134400001D03*
%TD*%
D11*
%TO.C,D308*%
X165790001Y-129500000D03*
X165790001Y-131249998D03*
%TD*%
D10*
%TO.C,D247*%
X137300003Y-111449999D03*
X137300003Y-109700001D03*
%TD*%
D11*
%TO.C,D204*%
X155420001Y-99800001D03*
X155420001Y-101549999D03*
%TD*%
%TO.C,D56*%
X165680001Y-60900002D03*
X165680001Y-62650000D03*
%TD*%
D10*
%TO.C,D241*%
X152840004Y-111449999D03*
X152840004Y-109700001D03*
%TD*%
%TO.C,D187*%
X152800004Y-96450000D03*
X152800004Y-94700002D03*
%TD*%
D11*
%TO.C,D276*%
X155420003Y-119600000D03*
X155420003Y-121349998D03*
%TD*%
D10*
%TO.C,D97*%
X152834999Y-72024997D03*
X152834999Y-70274999D03*
%TD*%
D11*
%TO.C,D160*%
X129529998Y-84799999D03*
X129529998Y-86549997D03*
%TD*%
%TO.C,D162*%
X124290000Y-84800000D03*
X124290000Y-86549998D03*
%TD*%
D10*
%TO.C,D123*%
X132159999Y-76700000D03*
X132159999Y-74950002D03*
%TD*%
%TO.C,D293*%
X158020004Y-126349999D03*
X158020004Y-124600001D03*
%TD*%
D11*
%TO.C,D196*%
X129490004Y-94700002D03*
X129490004Y-96450000D03*
%TD*%
D10*
%TO.C,D25*%
X152879999Y-53224999D03*
X152879999Y-51475001D03*
%TD*%
D11*
%TO.C,D64*%
X144959999Y-60900002D03*
X144959999Y-62650000D03*
%TD*%
D10*
%TO.C,D61*%
X152730001Y-62650000D03*
X152730001Y-60900002D03*
%TD*%
D11*
%TO.C,D28*%
X145109998Y-51475000D03*
X145109998Y-53224998D03*
%TD*%
%TO.C,D168*%
X155430003Y-89700000D03*
X155430003Y-91449998D03*
%TD*%
%TO.C,D200*%
X165780002Y-99800001D03*
X165780002Y-101549999D03*
%TD*%
D10*
%TO.C,D145*%
X168380000Y-86549999D03*
X168380000Y-84800001D03*
%TD*%
D11*
%TO.C,D78*%
X155440000Y-65525002D03*
X155440000Y-67275000D03*
%TD*%
%TO.C,D290*%
X165790003Y-124600001D03*
X165790003Y-126349999D03*
%TD*%
D10*
%TO.C,D321*%
X132200000Y-131199999D03*
X132200000Y-129450001D03*
%TD*%
%TO.C,D323*%
X126980002Y-131175000D03*
X126980002Y-129425002D03*
%TD*%
D11*
%TO.C,D212*%
X134720003Y-99800003D03*
X134720003Y-101550001D03*
%TD*%
D10*
%TO.C,D85*%
X137310001Y-67275001D03*
X137310001Y-65525003D03*
%TD*%
D11*
%TO.C,D250*%
X129530004Y-109700001D03*
X129530004Y-111449999D03*
%TD*%
%TO.C,D282*%
X139890001Y-119600001D03*
X139890001Y-121349999D03*
%TD*%
D10*
%TO.C,D133*%
X152850000Y-81599999D03*
X152850000Y-79850001D03*
%TD*%
M02*
