%TF.GenerationSoftware,KiCad,Pcbnew,9.0.4*%
%TF.CreationDate,2025-12-22T16:52:56-05:00*%
%TF.ProjectId,Mess-P20+PowerCircuit,4d657373-2d50-4323-902b-506f77657243,rev?*%
%TF.SameCoordinates,Original*%
%TF.FileFunction,Soldermask,Bot*%
%TF.FilePolarity,Negative*%
%FSLAX46Y46*%
G04 Gerber Fmt 4.6, Leading zero omitted, Abs format (unit mm)*
G04 Created by KiCad (PCBNEW 9.0.4) date 2025-12-22 16:52:56*
%MOMM*%
%LPD*%
G01*
G04 APERTURE LIST*
G04 Aperture macros list*
%AMRoundRect*
0 Rectangle with rounded corners*
0 $1 Rounding radius*
0 $2 $3 $4 $5 $6 $7 $8 $9 X,Y pos of 4 corners*
0 Add a 4 corners polygon primitive as box body*
4,1,4,$2,$3,$4,$5,$6,$7,$8,$9,$2,$3,0*
0 Add four circle primitives for the rounded corners*
1,1,$1+$1,$2,$3*
1,1,$1+$1,$4,$5*
1,1,$1+$1,$6,$7*
1,1,$1+$1,$8,$9*
0 Add four rect primitives between the rounded corners*
20,1,$1+$1,$2,$3,$4,$5,0*
20,1,$1+$1,$4,$5,$6,$7,0*
20,1,$1+$1,$6,$7,$8,$9,0*
20,1,$1+$1,$8,$9,$2,$3,0*%
%AMFreePoly0*
4,1,6,0.825000,0.000000,0.525000,-0.450000,-0.500000,-0.450000,-0.500000,0.450000,0.525000,0.450000,0.825000,0.000000,0.825000,0.000000,$1*%
%AMFreePoly1*
4,1,6,0.500000,-0.450000,-0.625000,-0.450000,-0.325000,0.000000,-0.625000,0.450000,0.500000,0.450000,0.500000,-0.450000,0.500000,-0.450000,$1*%
G04 Aperture macros list end*
%ADD10C,0.000000*%
%ADD11C,0.650000*%
%ADD12O,1.000000X2.100000*%
%ADD13O,1.000000X1.600000*%
%ADD14R,1.700000X1.700000*%
%ADD15R,0.850000X0.850000*%
%ADD16C,1.700000*%
%ADD17C,0.850000*%
%ADD18RoundRect,0.250000X0.262500X0.450000X-0.262500X0.450000X-0.262500X-0.450000X0.262500X-0.450000X0*%
%ADD19FreePoly0,0.000000*%
%ADD20FreePoly1,0.000000*%
%ADD21RoundRect,0.087500X0.087500X-0.250000X0.087500X0.250000X-0.087500X0.250000X-0.087500X-0.250000X0*%
%ADD22RoundRect,0.150000X-0.850000X-0.150000X0.850000X-0.150000X0.850000X0.150000X-0.850000X0.150000X0*%
%ADD23FreePoly0,90.000000*%
%ADD24FreePoly1,90.000000*%
%ADD25RoundRect,0.150000X-0.150000X0.512500X-0.150000X-0.512500X0.150000X-0.512500X0.150000X0.512500X0*%
%ADD26RoundRect,0.225000X0.225000X0.250000X-0.225000X0.250000X-0.225000X-0.250000X0.225000X-0.250000X0*%
%ADD27R,2.700000X1.000000*%
%ADD28RoundRect,0.225000X-0.250000X0.225000X-0.250000X-0.225000X0.250000X-0.225000X0.250000X0.225000X0*%
%ADD29RoundRect,0.250000X-0.262500X-0.450000X0.262500X-0.450000X0.262500X0.450000X-0.262500X0.450000X0*%
%ADD30FreePoly0,180.000000*%
%ADD31FreePoly1,180.000000*%
G04 APERTURE END LIST*
D10*
%TO.C,J65*%
G36*
X128862497Y-139250000D02*
G01*
X126412497Y-139250000D01*
X126412497Y-138350000D01*
X128862497Y-138350000D01*
X128862497Y-139250000D01*
G37*
%TO.C,J61*%
G36*
X136112497Y-132287500D02*
G01*
X133662497Y-132287500D01*
X133662497Y-131387500D01*
X136112497Y-131387500D01*
X136112497Y-132287500D01*
G37*
%TO.C,J54*%
G36*
X146468007Y-112625000D02*
G01*
X145568007Y-112625000D01*
X145568007Y-110175000D01*
X146468007Y-110175000D01*
X146468007Y-112625000D01*
G37*
%TO.C,J85*%
G36*
X86112497Y-81724997D02*
G01*
X83662497Y-81724997D01*
X83662497Y-80824997D01*
X86112497Y-80824997D01*
X86112497Y-81724997D01*
G37*
%TO.C,J133*%
G36*
X86112497Y-132287500D02*
G01*
X83662497Y-132287500D01*
X83662497Y-131387500D01*
X86112497Y-131387500D01*
X86112497Y-132287500D01*
G37*
%TO.C,J62*%
G36*
X136112496Y-129999999D02*
G01*
X133662496Y-129999999D01*
X133662496Y-129099999D01*
X136112496Y-129099999D01*
X136112496Y-129999999D01*
G37*
%TO.C,J134*%
G36*
X86112496Y-129999999D02*
G01*
X83662496Y-129999999D01*
X83662496Y-129099999D01*
X86112496Y-129099999D01*
X86112496Y-129999999D01*
G37*
%TO.C,J78*%
G36*
X96468007Y-62062497D02*
G01*
X95568007Y-62062497D01*
X95568007Y-59612497D01*
X96468007Y-59612497D01*
X96468007Y-62062497D01*
G37*
%TO.C,J113*%
G36*
X128862497Y-88687497D02*
G01*
X126412497Y-88687497D01*
X126412497Y-87787497D01*
X128862497Y-87787497D01*
X128862497Y-88687497D01*
G37*
%TO.C,J102*%
G36*
X146468007Y-62062497D02*
G01*
X145568007Y-62062497D01*
X145568007Y-59612497D01*
X146468007Y-59612497D01*
X146468007Y-62062497D01*
G37*
%TO.C,J126*%
G36*
X96468007Y-112625000D02*
G01*
X95568007Y-112625000D01*
X95568007Y-110175000D01*
X96468007Y-110175000D01*
X96468007Y-112625000D01*
G37*
%TO.C,J109*%
G36*
X136112497Y-81724997D02*
G01*
X133662497Y-81724997D01*
X133662497Y-80824997D01*
X136112497Y-80824997D01*
X136112497Y-81724997D01*
G37*
%TO.C,J45*%
G36*
X153643007Y-124250000D02*
G01*
X151193007Y-124250000D01*
X151193007Y-123350000D01*
X153643007Y-123350000D01*
X153643007Y-124250000D01*
G37*
%TO.C,J137*%
G36*
X78862497Y-139250000D02*
G01*
X76412497Y-139250000D01*
X76412497Y-138350000D01*
X78862497Y-138350000D01*
X78862497Y-139250000D01*
G37*
%TO.C,J16*%
G36*
X99143007Y-124250000D02*
G01*
X96693007Y-124250000D01*
X96693007Y-123350000D01*
X99143007Y-123350000D01*
X99143007Y-124250000D01*
G37*
%TO.C,J13*%
G36*
X149143007Y-124250000D02*
G01*
X146693007Y-124250000D01*
X146693007Y-123350000D01*
X149143007Y-123350000D01*
X149143007Y-124250000D01*
G37*
%TO.C,J15*%
G36*
X149143007Y-73687497D02*
G01*
X146693007Y-73687497D01*
X146693007Y-72787497D01*
X149143007Y-72787497D01*
X149143007Y-73687497D01*
G37*
%TO.C,J14*%
G36*
X99143007Y-73687497D02*
G01*
X96693007Y-73687497D01*
X96693007Y-72787497D01*
X99143007Y-72787497D01*
X99143007Y-73687497D01*
G37*
%TO.C,J93*%
G36*
X153643007Y-73687497D02*
G01*
X151193007Y-73687497D01*
X151193007Y-72787497D01*
X153643007Y-72787497D01*
X153643007Y-73687497D01*
G37*
%TO.C,J110*%
G36*
X136112496Y-79437496D02*
G01*
X133662496Y-79437496D01*
X133662496Y-78537496D01*
X136112496Y-78537496D01*
X136112496Y-79437496D01*
G37*
%TO.C,J69*%
G36*
X103643007Y-73687497D02*
G01*
X101193007Y-73687497D01*
X101193007Y-72787497D01*
X103643007Y-72787497D01*
X103643007Y-73687497D01*
G37*
%TO.C,J89*%
G36*
X78862497Y-88687497D02*
G01*
X76412497Y-88687497D01*
X76412497Y-87787497D01*
X78862497Y-87787497D01*
X78862497Y-88687497D01*
G37*
%TO.C,J86*%
G36*
X86112496Y-79437496D02*
G01*
X83662496Y-79437496D01*
X83662496Y-78537496D01*
X86112496Y-78537496D01*
X86112496Y-79437496D01*
G37*
%TO.C,J117*%
G36*
X103643007Y-124250000D02*
G01*
X101193007Y-124250000D01*
X101193007Y-123350000D01*
X103643007Y-123350000D01*
X103643007Y-124250000D01*
G37*
%TD*%
D11*
%TO.C,U61*%
X99708007Y-137900000D03*
X105488007Y-137900000D03*
D12*
X98278007Y-137370000D03*
D13*
X98278007Y-141550000D03*
D12*
X106918007Y-137370000D03*
D13*
X106918007Y-141550000D03*
%TD*%
D11*
%TO.C,U49*%
X149708007Y-87337497D03*
X155488007Y-87337497D03*
D12*
X148278007Y-86807497D03*
D13*
X148278007Y-90987497D03*
D12*
X156918007Y-86807497D03*
D13*
X156918007Y-90987497D03*
%TD*%
D14*
%TO.C,J66*%
X133037497Y-99600000D03*
%TD*%
D15*
%TO.C,TP11*%
X130937497Y-112000000D03*
%TD*%
%TO.C,TP18*%
X77737497Y-77237497D03*
%TD*%
D14*
%TO.C,J106*%
X118337497Y-49037497D03*
D16*
X118337497Y-51577497D03*
X118337497Y-54117497D03*
X118337497Y-56657497D03*
X118337497Y-59197497D03*
X118337497Y-61737497D03*
X118337497Y-64277497D03*
X118337497Y-66817497D03*
X118337497Y-69357497D03*
X118337497Y-71897497D03*
X118337497Y-74437497D03*
X118337497Y-76977497D03*
%TD*%
D14*
%TO.C,J138*%
X83037497Y-99600000D03*
%TD*%
%TO.C,J103*%
X137137497Y-49037497D03*
D16*
X137137497Y-51577497D03*
X137137497Y-54117496D03*
X137137497Y-56657497D03*
%TD*%
D14*
%TO.C,J121*%
X92418007Y-106340000D03*
D16*
X92418007Y-108880000D03*
X92418007Y-111420000D03*
X92418007Y-113960000D03*
X92418007Y-116500000D03*
X92418007Y-119040000D03*
X92418007Y-121580000D03*
X92418007Y-124120000D03*
X92418007Y-126660000D03*
X92418007Y-129200000D03*
X92418007Y-131740000D03*
X92418007Y-134280000D03*
X92418007Y-136820000D03*
X92418007Y-139360000D03*
X92418007Y-141900000D03*
%TD*%
D15*
%TO.C,J56*%
X136937497Y-113700000D03*
D17*
X136937497Y-114700000D03*
%TD*%
D14*
%TO.C,J73*%
X92418007Y-55777497D03*
D16*
X92418007Y-58317497D03*
X92418007Y-60857497D03*
X92418007Y-63397497D03*
X92418007Y-65937497D03*
X92418007Y-68477497D03*
X92418007Y-71017497D03*
X92418007Y-73557497D03*
X92418007Y-76097497D03*
X92418007Y-78637497D03*
X92418007Y-81177497D03*
X92418007Y-83717497D03*
X92418007Y-86257497D03*
X92418007Y-88797497D03*
X92418007Y-91337497D03*
%TD*%
D14*
%TO.C,J82*%
X68337497Y-49037497D03*
D16*
X68337497Y-51577497D03*
X68337497Y-54117497D03*
X68337497Y-56657497D03*
X68337497Y-59197497D03*
X68337497Y-61737497D03*
X68337497Y-64277497D03*
X68337497Y-66817497D03*
X68337497Y-69357497D03*
X68337497Y-71897497D03*
X68337497Y-74437497D03*
X68337497Y-76977497D03*
%TD*%
D15*
%TO.C,J128*%
X86937497Y-113700000D03*
D17*
X86937497Y-114700000D03*
%TD*%
D14*
%TO.C,J90*%
X83037497Y-49037497D03*
%TD*%
%TO.C,J123*%
X112718007Y-106360000D03*
D16*
X112718007Y-108900000D03*
X112718007Y-111440000D03*
X112718007Y-113980000D03*
X112718007Y-116520000D03*
X112718007Y-119060000D03*
X112718007Y-121600000D03*
X112718007Y-124140000D03*
X112718007Y-126680000D03*
X112718007Y-129220000D03*
X112718007Y-131760000D03*
X112718007Y-134300000D03*
X112718007Y-136840000D03*
X112718007Y-139380000D03*
X112718007Y-141920000D03*
%TD*%
D11*
%TO.C,U25*%
X149708007Y-137900000D03*
X155488007Y-137900000D03*
D12*
X148278007Y-137370000D03*
D13*
X148278007Y-141550000D03*
D12*
X156918007Y-137370000D03*
D13*
X156918007Y-141550000D03*
%TD*%
D15*
%TO.C,TP17*%
X71537497Y-47837497D03*
%TD*%
%TO.C,J80*%
X86937497Y-63137497D03*
D17*
X86937497Y-64137497D03*
%TD*%
D15*
%TO.C,TP22*%
X121537497Y-47837497D03*
%TD*%
%TO.C,TP27*%
X71537497Y-98400000D03*
%TD*%
%TO.C,TP13*%
X127737497Y-127800000D03*
%TD*%
D14*
%TO.C,J127*%
X87137497Y-99600000D03*
D16*
X87137497Y-102140000D03*
X87137497Y-104679999D03*
X87137497Y-107220000D03*
%TD*%
D14*
%TO.C,J55*%
X137137497Y-99600000D03*
D16*
X137137497Y-102140000D03*
X137137497Y-104679999D03*
X137137497Y-107220000D03*
%TD*%
D15*
%TO.C,TP28*%
X77737497Y-127800000D03*
%TD*%
%TO.C,TP21*%
X130937497Y-61437497D03*
%TD*%
D14*
%TO.C,J99*%
X162718007Y-55797497D03*
D16*
X162718007Y-58337497D03*
X162718007Y-60877497D03*
X162718007Y-63417497D03*
X162718007Y-65957497D03*
X162718007Y-68497497D03*
X162718007Y-71037497D03*
X162718007Y-73577497D03*
X162718007Y-76117497D03*
X162718007Y-78657497D03*
X162718007Y-81197497D03*
X162718007Y-83737497D03*
X162718007Y-86277497D03*
X162718007Y-88817497D03*
X162718007Y-91357497D03*
%TD*%
D14*
%TO.C,J58*%
X118337497Y-99600000D03*
D16*
X118337497Y-102140000D03*
X118337497Y-104680000D03*
X118337497Y-107220000D03*
X118337497Y-109760000D03*
X118337497Y-112300000D03*
X118337497Y-114840000D03*
X118337497Y-117380000D03*
X118337497Y-119920000D03*
X118337497Y-122460000D03*
X118337497Y-125000000D03*
X118337497Y-127540000D03*
%TD*%
D14*
%TO.C,J97*%
X142418007Y-55777497D03*
D16*
X142418007Y-58317497D03*
X142418007Y-60857497D03*
X142418007Y-63397497D03*
X142418007Y-65937497D03*
X142418007Y-68477497D03*
X142418007Y-71017497D03*
X142418007Y-73557497D03*
X142418007Y-76097497D03*
X142418007Y-78637497D03*
X142418007Y-81177497D03*
X142418007Y-83717497D03*
X142418007Y-86257497D03*
X142418007Y-88797497D03*
X142418007Y-91337497D03*
%TD*%
D14*
%TO.C,J75*%
X112718007Y-55797497D03*
D16*
X112718007Y-58337497D03*
X112718007Y-60877497D03*
X112718007Y-63417497D03*
X112718007Y-65957497D03*
X112718007Y-68497497D03*
X112718007Y-71037497D03*
X112718007Y-73577497D03*
X112718007Y-76117497D03*
X112718007Y-78657497D03*
X112718007Y-81197497D03*
X112718007Y-83737497D03*
X112718007Y-86277497D03*
X112718007Y-88817497D03*
X112718007Y-91357497D03*
%TD*%
D15*
%TO.C,TP23*%
X127737497Y-77237497D03*
%TD*%
D14*
%TO.C,J51*%
X162718007Y-106360000D03*
D16*
X162718007Y-108900000D03*
X162718007Y-111440000D03*
X162718007Y-113980000D03*
X162718007Y-116520000D03*
X162718007Y-119060000D03*
X162718007Y-121600000D03*
X162718007Y-124140000D03*
X162718007Y-126680000D03*
X162718007Y-129220000D03*
X162718007Y-131760000D03*
X162718007Y-134300000D03*
X162718007Y-136840000D03*
X162718007Y-139380000D03*
X162718007Y-141920000D03*
%TD*%
D15*
%TO.C,TP26*%
X80937497Y-112000000D03*
%TD*%
D11*
%TO.C,U37*%
X99708007Y-87337497D03*
X105488007Y-87337497D03*
D12*
X98278007Y-86807497D03*
D13*
X98278007Y-90987497D03*
D12*
X106918007Y-86807497D03*
D13*
X106918007Y-90987497D03*
%TD*%
D15*
%TO.C,J104*%
X136937497Y-63137497D03*
D17*
X136937497Y-64137497D03*
%TD*%
D15*
%TO.C,TP12*%
X121537497Y-98400000D03*
%TD*%
D14*
%TO.C,J49*%
X142418007Y-106340000D03*
D16*
X142418007Y-108880000D03*
X142418007Y-111420000D03*
X142418007Y-113960000D03*
X142418007Y-116500000D03*
X142418007Y-119040000D03*
X142418007Y-121580000D03*
X142418007Y-124120000D03*
X142418007Y-126660000D03*
X142418007Y-129200000D03*
X142418007Y-131740000D03*
X142418007Y-134280000D03*
X142418007Y-136820000D03*
X142418007Y-139360000D03*
X142418007Y-141900000D03*
%TD*%
D14*
%TO.C,J130*%
X68337497Y-99600000D03*
D16*
X68337497Y-102140000D03*
X68337497Y-104680000D03*
X68337497Y-107220000D03*
X68337497Y-109760000D03*
X68337497Y-112300000D03*
X68337497Y-114840000D03*
X68337497Y-117380000D03*
X68337497Y-119920000D03*
X68337497Y-122460000D03*
X68337497Y-125000000D03*
X68337497Y-127540000D03*
%TD*%
D14*
%TO.C,J79*%
X87137497Y-49037497D03*
D16*
X87137497Y-51577497D03*
X87137497Y-54117496D03*
X87137497Y-56657497D03*
%TD*%
D14*
%TO.C,J114*%
X133037497Y-49037497D03*
%TD*%
D15*
%TO.C,TP16*%
X80937497Y-61437497D03*
%TD*%
D18*
%TO.C,R67*%
X131649997Y-121100000D03*
X129824997Y-121100000D03*
%TD*%
D19*
%TO.C,J65*%
X126912498Y-138800000D03*
D20*
X128362496Y-138800000D03*
%TD*%
D21*
%TO.C,U54*%
X129437497Y-75137497D03*
X128937497Y-75137498D03*
X128437497Y-75137497D03*
X128437497Y-73712497D03*
X128937497Y-73712496D03*
X129437497Y-73712497D03*
%TD*%
%TO.C,U66*%
X79437497Y-125700000D03*
X78937497Y-125700001D03*
X78437497Y-125700000D03*
X78437497Y-124275000D03*
X78937497Y-124274999D03*
X79437497Y-124275000D03*
%TD*%
D22*
%TO.C,U24*%
X149911979Y-115971000D03*
X149911979Y-114701000D03*
X149911979Y-113431000D03*
X149911979Y-112161000D03*
X149911979Y-110891000D03*
X149911979Y-109621000D03*
X149911979Y-108351000D03*
X149911979Y-107081000D03*
X154911979Y-107081000D03*
X154911979Y-108351000D03*
X154911979Y-109621000D03*
X154911979Y-110891000D03*
X154911979Y-112161000D03*
X154911979Y-113431000D03*
X154911979Y-114701000D03*
X154911979Y-115971000D03*
%TD*%
D19*
%TO.C,J61*%
X134162498Y-131837500D03*
D20*
X135612496Y-131837500D03*
%TD*%
D23*
%TO.C,J54*%
X146018007Y-112124999D03*
D24*
X146018007Y-110675001D03*
%TD*%
D19*
%TO.C,J85*%
X84162498Y-81274997D03*
D20*
X85612496Y-81274997D03*
%TD*%
D18*
%TO.C,R115*%
X131649997Y-70537497D03*
X129824997Y-70537497D03*
%TD*%
D22*
%TO.C,U60*%
X99911979Y-115971000D03*
X99911979Y-114701000D03*
X99911979Y-113431000D03*
X99911979Y-112161000D03*
X99911979Y-110891000D03*
X99911979Y-109621000D03*
X99911979Y-108351000D03*
X99911979Y-107081000D03*
X104911979Y-107081000D03*
X104911979Y-108351000D03*
X104911979Y-109621000D03*
X104911979Y-110891000D03*
X104911979Y-112161000D03*
X104911979Y-113431000D03*
X104911979Y-114701000D03*
X104911979Y-115971000D03*
%TD*%
D15*
%TO.C,TP24*%
X129437497Y-82537497D03*
%TD*%
D19*
%TO.C,J133*%
X84162498Y-131837500D03*
D20*
X85612496Y-131837500D03*
%TD*%
D18*
%TO.C,R139*%
X81649997Y-121100000D03*
X79824997Y-121100000D03*
%TD*%
D15*
%TO.C,TP15*%
X136737497Y-117600000D03*
%TD*%
D25*
%TO.C,U53*%
X155568007Y-80262497D03*
X157468007Y-80262497D03*
X156518007Y-82537497D03*
%TD*%
%TO.C,U65*%
X105568007Y-130825000D03*
X107468007Y-130825000D03*
X106518007Y-133100000D03*
%TD*%
D26*
%TO.C,C43*%
X84812497Y-121100000D03*
X83262497Y-121100000D03*
%TD*%
D27*
%TO.C,L6*%
X83037497Y-126099999D03*
X83037497Y-123900001D03*
%TD*%
D26*
%TO.C,C19*%
X134812497Y-121100000D03*
X133262497Y-121100000D03*
%TD*%
D28*
%TO.C,C32*%
X126237497Y-73662497D03*
X126237497Y-75212497D03*
%TD*%
D19*
%TO.C,J62*%
X134162497Y-129549999D03*
D20*
X135612495Y-129549999D03*
%TD*%
D28*
%TO.C,C24*%
X76237497Y-73662497D03*
X76237497Y-75212497D03*
%TD*%
D19*
%TO.C,J134*%
X84162497Y-129549999D03*
D20*
X85612495Y-129549999D03*
%TD*%
D15*
%TO.C,TP29*%
X79437497Y-133100000D03*
%TD*%
%TO.C,TP14*%
X129437497Y-133100000D03*
%TD*%
D29*
%TO.C,R112*%
X126312497Y-70537497D03*
X128137497Y-70537497D03*
%TD*%
D23*
%TO.C,J78*%
X96018007Y-61562496D03*
D24*
X96018007Y-60112498D03*
%TD*%
D25*
%TO.C,U29*%
X155568007Y-130825000D03*
X157468007Y-130825000D03*
X156518007Y-133100000D03*
%TD*%
D19*
%TO.C,J113*%
X126912498Y-88237497D03*
D20*
X128362496Y-88237497D03*
%TD*%
D23*
%TO.C,J102*%
X146018007Y-61562496D03*
D24*
X146018007Y-60112498D03*
%TD*%
D23*
%TO.C,J126*%
X96018007Y-112124999D03*
D24*
X96018007Y-110675001D03*
%TD*%
D19*
%TO.C,J109*%
X134162498Y-81274997D03*
D20*
X135612496Y-81274997D03*
%TD*%
D15*
%TO.C,TP25*%
X136737497Y-67037497D03*
%TD*%
%TO.C,TP19*%
X79437497Y-82537497D03*
%TD*%
D30*
%TO.C,J45*%
X153143006Y-123800000D03*
D31*
X151693008Y-123800000D03*
%TD*%
D18*
%TO.C,R91*%
X81649997Y-70537497D03*
X79824997Y-70537497D03*
%TD*%
D15*
%TO.C,TP20*%
X86737497Y-67037497D03*
%TD*%
%TO.C,TP30*%
X86737497Y-117600000D03*
%TD*%
D22*
%TO.C,U36*%
X99911979Y-65408497D03*
X99911979Y-64138497D03*
X99911979Y-62868497D03*
X99911979Y-61598497D03*
X99911979Y-60328497D03*
X99911979Y-59058497D03*
X99911979Y-57788497D03*
X99911979Y-56518497D03*
X104911979Y-56518497D03*
X104911979Y-57788497D03*
X104911979Y-59058497D03*
X104911979Y-60328497D03*
X104911979Y-61598497D03*
X104911979Y-62868497D03*
X104911979Y-64138497D03*
X104911979Y-65408497D03*
%TD*%
D29*
%TO.C,R64*%
X126312497Y-121100000D03*
X128137497Y-121100000D03*
%TD*%
D19*
%TO.C,J137*%
X76912498Y-138800000D03*
D20*
X78362496Y-138800000D03*
%TD*%
D26*
%TO.C,C27*%
X84812497Y-70537497D03*
X83262497Y-70537497D03*
%TD*%
D19*
%TO.C,J16*%
X97193008Y-123800000D03*
D20*
X98643006Y-123800000D03*
%TD*%
D19*
%TO.C,J13*%
X147193008Y-123800000D03*
D20*
X148643006Y-123800000D03*
%TD*%
D27*
%TO.C,L4*%
X83037497Y-75537496D03*
X83037497Y-73337498D03*
%TD*%
D19*
%TO.C,J15*%
X147193008Y-73237497D03*
D20*
X148643006Y-73237497D03*
%TD*%
D19*
%TO.C,J14*%
X97193008Y-73237497D03*
D20*
X98643006Y-73237497D03*
%TD*%
D27*
%TO.C,L3*%
X133037497Y-126099999D03*
X133037497Y-123900001D03*
%TD*%
D30*
%TO.C,J93*%
X153143006Y-73237497D03*
D31*
X151693008Y-73237497D03*
%TD*%
D19*
%TO.C,J110*%
X134162497Y-78987496D03*
D20*
X135612495Y-78987496D03*
%TD*%
D21*
%TO.C,U30*%
X129437497Y-125700000D03*
X128937497Y-125700001D03*
X128437497Y-125700000D03*
X128437497Y-124275000D03*
X128937497Y-124274999D03*
X129437497Y-124275000D03*
%TD*%
%TO.C,U42*%
X79437497Y-75137497D03*
X78937497Y-75137498D03*
X78437497Y-75137497D03*
X78437497Y-73712497D03*
X78937497Y-73712496D03*
X79437497Y-73712497D03*
%TD*%
D30*
%TO.C,J69*%
X103143006Y-73237497D03*
D31*
X101693008Y-73237497D03*
%TD*%
D19*
%TO.C,J89*%
X76912498Y-88237497D03*
D20*
X78362496Y-88237497D03*
%TD*%
D28*
%TO.C,C16*%
X126237497Y-124225000D03*
X126237497Y-125775000D03*
%TD*%
D27*
%TO.C,L5*%
X133037497Y-75537496D03*
X133037497Y-73337498D03*
%TD*%
D22*
%TO.C,U48*%
X149911979Y-65408497D03*
X149911979Y-64138497D03*
X149911979Y-62868497D03*
X149911979Y-61598497D03*
X149911979Y-60328497D03*
X149911979Y-59058497D03*
X149911979Y-57788497D03*
X149911979Y-56518497D03*
X154911979Y-56518497D03*
X154911979Y-57788497D03*
X154911979Y-59058497D03*
X154911979Y-60328497D03*
X154911979Y-61598497D03*
X154911979Y-62868497D03*
X154911979Y-64138497D03*
X154911979Y-65408497D03*
%TD*%
D19*
%TO.C,J86*%
X84162497Y-78987496D03*
D20*
X85612495Y-78987496D03*
%TD*%
D26*
%TO.C,C35*%
X134812497Y-70537497D03*
X133262497Y-70537497D03*
%TD*%
D25*
%TO.C,U41*%
X105568007Y-80262497D03*
X107468007Y-80262497D03*
X106518007Y-82537497D03*
%TD*%
D29*
%TO.C,R136*%
X76312497Y-121100000D03*
X78137497Y-121100000D03*
%TD*%
D28*
%TO.C,C40*%
X76237497Y-124225000D03*
X76237497Y-125775000D03*
%TD*%
D29*
%TO.C,R88*%
X76312497Y-70537497D03*
X78137497Y-70537497D03*
%TD*%
D30*
%TO.C,J117*%
X103143006Y-123800000D03*
D31*
X101693008Y-123800000D03*
%TD*%
M02*
