%TF.GenerationSoftware,KiCad,Pcbnew,9.0.4*%
%TF.CreationDate,2025-12-21T12:52:58-05:00*%
%TF.ProjectId,Mess-P20+PowerCircuit,4d657373-2d50-4323-902b-506f77657243,rev?*%
%TF.SameCoordinates,Original*%
%TF.FileFunction,Soldermask,Top*%
%TF.FilePolarity,Negative*%
%FSLAX46Y46*%
G04 Gerber Fmt 4.6, Leading zero omitted, Abs format (unit mm)*
G04 Created by KiCad (PCBNEW 9.0.4) date 2025-12-21 12:52:58*
%MOMM*%
%LPD*%
G01*
G04 APERTURE LIST*
G04 Aperture macros list*
%AMRoundRect*
0 Rectangle with rounded corners*
0 $1 Rounding radius*
0 $2 $3 $4 $5 $6 $7 $8 $9 X,Y pos of 4 corners*
0 Add a 4 corners polygon primitive as box body*
4,1,4,$2,$3,$4,$5,$6,$7,$8,$9,$2,$3,0*
0 Add four circle primitives for the rounded corners*
1,1,$1+$1,$2,$3*
1,1,$1+$1,$4,$5*
1,1,$1+$1,$6,$7*
1,1,$1+$1,$8,$9*
0 Add four rect primitives between the rounded corners*
20,1,$1+$1,$2,$3,$4,$5,0*
20,1,$1+$1,$4,$5,$6,$7,0*
20,1,$1+$1,$6,$7,$8,$9,0*
20,1,$1+$1,$8,$9,$2,$3,0*%
%AMFreePoly0*
4,1,23,0.450000,-0.550000,-0.100000,-0.550000,-0.100000,-0.547433,-0.139158,-0.547433,-0.214805,-0.527164,-0.282628,-0.488006,-0.338006,-0.432628,-0.377164,-0.364805,-0.397433,-0.289158,-0.397433,-0.250000,-0.400000,-0.250000,-0.400000,0.250000,-0.397433,0.250000,-0.397433,0.289158,-0.377164,0.364805,-0.338006,0.432628,-0.282628,0.488006,-0.214805,0.527164,-0.139158,0.547433,-0.100000,0.547433,
-0.100000,0.550000,0.450000,0.550000,0.450000,-0.550000,0.450000,-0.550000,$1*%
%AMFreePoly1*
4,1,23,0.100000,0.547433,0.139158,0.547433,0.214805,0.527164,0.282628,0.488006,0.338006,0.432628,0.377164,0.364805,0.397433,0.289158,0.397433,0.250000,0.400000,0.250000,0.400000,-0.250000,0.397433,-0.250000,0.397433,-0.289158,0.377164,-0.364805,0.338006,-0.432628,0.282628,-0.488006,0.214805,-0.527164,0.139158,-0.547433,0.100000,-0.547433,0.100000,-0.550000,-0.450000,-0.550000,
-0.450000,0.550000,0.100000,0.550000,0.100000,0.547433,0.100000,0.547433,$1*%
%AMFreePoly2*
4,1,6,0.825000,0.000000,0.525000,-0.450000,-0.500000,-0.450000,-0.500000,0.450000,0.525000,0.450000,0.825000,0.000000,0.825000,0.000000,$1*%
%AMFreePoly3*
4,1,6,0.500000,-0.450000,-0.625000,-0.450000,-0.325000,0.000000,-0.625000,0.450000,0.500000,0.450000,0.500000,-0.450000,0.500000,-0.450000,$1*%
G04 Aperture macros list end*
%ADD10C,0.000000*%
%ADD11RoundRect,0.200000X-0.275000X0.200000X-0.275000X-0.200000X0.275000X-0.200000X0.275000X0.200000X0*%
%ADD12RoundRect,0.200000X0.275000X-0.200000X0.275000X0.200000X-0.275000X0.200000X-0.275000X-0.200000X0*%
%ADD13RoundRect,0.150000X0.587500X0.150000X-0.587500X0.150000X-0.587500X-0.150000X0.587500X-0.150000X0*%
%ADD14RoundRect,0.250000X0.262500X0.450000X-0.262500X0.450000X-0.262500X-0.450000X0.262500X-0.450000X0*%
%ADD15RoundRect,0.250000X-0.262500X-0.450000X0.262500X-0.450000X0.262500X0.450000X-0.262500X0.450000X0*%
%ADD16RoundRect,0.250000X-0.450000X-0.350000X0.450000X-0.350000X0.450000X0.350000X-0.450000X0.350000X0*%
%ADD17R,1.700000X1.700000*%
%ADD18C,1.700000*%
%ADD19R,0.850000X0.850000*%
%ADD20RoundRect,0.150000X-0.587500X-0.150000X0.587500X-0.150000X0.587500X0.150000X-0.587500X0.150000X0*%
%ADD21FreePoly0,90.000000*%
%ADD22R,1.100000X1.000000*%
%ADD23FreePoly1,90.000000*%
%ADD24RoundRect,0.225000X-0.250000X0.225000X-0.250000X-0.225000X0.250000X-0.225000X0.250000X0.225000X0*%
%ADD25RoundRect,0.225000X0.250000X-0.225000X0.250000X0.225000X-0.250000X0.225000X-0.250000X-0.225000X0*%
%ADD26RoundRect,0.250000X-0.450000X0.262500X-0.450000X-0.262500X0.450000X-0.262500X0.450000X0.262500X0*%
%ADD27RoundRect,0.150000X-0.150000X0.587500X-0.150000X-0.587500X0.150000X-0.587500X0.150000X0.587500X0*%
%ADD28FreePoly2,270.000000*%
%ADD29FreePoly3,270.000000*%
%ADD30RoundRect,0.100000X-0.637500X-0.100000X0.637500X-0.100000X0.637500X0.100000X-0.637500X0.100000X0*%
%ADD31RoundRect,0.150000X-0.512500X-0.150000X0.512500X-0.150000X0.512500X0.150000X-0.512500X0.150000X0*%
%ADD32RoundRect,0.112500X0.112500X-0.187500X0.112500X0.187500X-0.112500X0.187500X-0.112500X-0.187500X0*%
%ADD33RoundRect,0.225000X-0.225000X-0.375000X0.225000X-0.375000X0.225000X0.375000X-0.225000X0.375000X0*%
%ADD34FreePoly2,180.000000*%
%ADD35FreePoly3,180.000000*%
%ADD36RoundRect,0.225000X-0.225000X-0.250000X0.225000X-0.250000X0.225000X0.250000X-0.225000X0.250000X0*%
%ADD37FreePoly2,0.000000*%
%ADD38FreePoly3,0.000000*%
%ADD39RoundRect,0.050000X-0.050000X0.375000X-0.050000X-0.375000X0.050000X-0.375000X0.050000X0.375000X0*%
%ADD40RoundRect,0.050000X-0.375000X0.050000X-0.375000X-0.050000X0.375000X-0.050000X0.375000X0.050000X0*%
%ADD41R,1.650000X1.650000*%
%ADD42C,0.850000*%
%ADD43C,0.650000*%
%ADD44R,0.600000X1.450000*%
%ADD45R,0.300000X1.450000*%
%ADD46O,1.000000X2.100000*%
%ADD47O,1.000000X1.600000*%
%ADD48RoundRect,0.218750X0.256250X-0.218750X0.256250X0.218750X-0.256250X0.218750X-0.256250X-0.218750X0*%
%ADD49RoundRect,0.225000X0.225000X0.250000X-0.225000X0.250000X-0.225000X-0.250000X0.225000X-0.250000X0*%
%ADD50RoundRect,0.112500X0.187500X0.112500X-0.187500X0.112500X-0.187500X-0.112500X0.187500X-0.112500X0*%
%ADD51RoundRect,0.100000X-0.225000X-0.100000X0.225000X-0.100000X0.225000X0.100000X-0.225000X0.100000X0*%
%ADD52FreePoly0,0.000000*%
%ADD53R,1.000000X1.100000*%
%ADD54FreePoly1,0.000000*%
%ADD55RoundRect,0.150000X0.150000X-0.587500X0.150000X0.587500X-0.150000X0.587500X-0.150000X-0.587500X0*%
%ADD56RoundRect,0.243750X0.243750X0.456250X-0.243750X0.456250X-0.243750X-0.456250X0.243750X-0.456250X0*%
%ADD57RoundRect,0.218750X-0.218750X-0.256250X0.218750X-0.256250X0.218750X0.256250X-0.218750X0.256250X0*%
%ADD58FreePoly2,90.000000*%
%ADD59FreePoly3,90.000000*%
G04 APERTURE END LIST*
D10*
%TO.C,J125*%
G36*
X102635508Y-127750000D02*
G01*
X101535508Y-127750000D01*
X101535508Y-126250000D01*
X102635508Y-126250000D01*
X102635508Y-127750000D01*
G37*
%TO.C,J116*%
G36*
X77587497Y-143249999D02*
G01*
X76687497Y-143249999D01*
X76687497Y-140799999D01*
X77587497Y-140799999D01*
X77587497Y-143249999D01*
G37*
%TO.C,J131*%
G36*
X86237498Y-135550000D02*
G01*
X83787498Y-135550000D01*
X83787498Y-134650000D01*
X86237498Y-134650000D01*
X86237498Y-135550000D01*
G37*
%TO.C,J132*%
G36*
X83962497Y-117250000D02*
G01*
X81512497Y-117250000D01*
X81512497Y-116350000D01*
X83962497Y-116350000D01*
X83962497Y-117250000D01*
G37*
%TO.C,J122*%
G36*
X82464998Y-135555002D02*
G01*
X80014998Y-135555002D01*
X80014998Y-134655002D01*
X82464998Y-134655002D01*
X82464998Y-135555002D01*
G37*
%TO.C,J120*%
G36*
X87587497Y-132725000D02*
G01*
X86687497Y-132725000D01*
X86687497Y-130275000D01*
X87587497Y-130275000D01*
X87587497Y-132725000D01*
G37*
%TO.C,J118*%
G36*
X105468007Y-104550000D02*
G01*
X103968007Y-104550000D01*
X103968007Y-103450000D01*
X105468007Y-103450000D01*
X105468007Y-104550000D01*
G37*
%TO.C,J135*%
G36*
X82962497Y-102850000D02*
G01*
X80512497Y-102850000D01*
X80512497Y-101950000D01*
X82962497Y-101950000D01*
X82962497Y-102850000D01*
G37*
%TO.C,J124*%
G36*
X68165494Y-136125000D02*
G01*
X67265494Y-136125000D01*
X67265494Y-133675000D01*
X68165494Y-133675000D01*
X68165494Y-136125000D01*
G37*
%TO.C,J115*%
G36*
X83962497Y-114850000D02*
G01*
X81512497Y-114850000D01*
X81512497Y-113950000D01*
X83962497Y-113950000D01*
X83962497Y-114850000D01*
G37*
%TO.C,J119*%
G36*
X79787497Y-100725000D02*
G01*
X78887497Y-100725000D01*
X78887497Y-98275000D01*
X79787497Y-98275000D01*
X79787497Y-100725000D01*
G37*
%TO.C,J136*%
G36*
X83862497Y-97450000D02*
G01*
X81412497Y-97450000D01*
X81412497Y-96550000D01*
X83862497Y-96550000D01*
X83862497Y-97450000D01*
G37*
%TO.C,J129*%
G36*
X107318008Y-128675000D02*
G01*
X104868008Y-128675000D01*
X104868008Y-127775000D01*
X107318008Y-127775000D01*
X107318008Y-128675000D01*
G37*
%TO.C,J108*%
G36*
X133962497Y-66687497D02*
G01*
X131512497Y-66687497D01*
X131512497Y-65787497D01*
X133962497Y-65787497D01*
X133962497Y-66687497D01*
G37*
%TO.C,J91*%
G36*
X133962497Y-64287497D02*
G01*
X131512497Y-64287497D01*
X131512497Y-63387497D01*
X133962497Y-63387497D01*
X133962497Y-64287497D01*
G37*
%TO.C,J100*%
G36*
X118165494Y-85562497D02*
G01*
X117265494Y-85562497D01*
X117265494Y-83112497D01*
X118165494Y-83112497D01*
X118165494Y-85562497D01*
G37*
%TO.C,J96*%
G36*
X137587497Y-82162497D02*
G01*
X136687497Y-82162497D01*
X136687497Y-79712497D01*
X137587497Y-79712497D01*
X137587497Y-82162497D01*
G37*
%TO.C,J101*%
G36*
X152635508Y-77187497D02*
G01*
X151535508Y-77187497D01*
X151535508Y-75687497D01*
X152635508Y-75687497D01*
X152635508Y-77187497D01*
G37*
%TO.C,J92*%
G36*
X127587497Y-92687496D02*
G01*
X126687497Y-92687496D01*
X126687497Y-90237496D01*
X127587497Y-90237496D01*
X127587497Y-92687496D01*
G37*
%TO.C,J107*%
G36*
X136237498Y-84987497D02*
G01*
X133787498Y-84987497D01*
X133787498Y-84087497D01*
X136237498Y-84087497D01*
X136237498Y-84987497D01*
G37*
%TO.C,J95*%
G36*
X129787497Y-50162497D02*
G01*
X128887497Y-50162497D01*
X128887497Y-47712497D01*
X129787497Y-47712497D01*
X129787497Y-50162497D01*
G37*
%TO.C,J98*%
G36*
X132464998Y-84992499D02*
G01*
X130014998Y-84992499D01*
X130014998Y-84092499D01*
X132464998Y-84092499D01*
X132464998Y-84992499D01*
G37*
%TO.C,J94*%
G36*
X155468007Y-53987497D02*
G01*
X153968007Y-53987497D01*
X153968007Y-52887497D01*
X155468007Y-52887497D01*
X155468007Y-53987497D01*
G37*
%TO.C,J111*%
G36*
X132962497Y-52287497D02*
G01*
X130512497Y-52287497D01*
X130512497Y-51387497D01*
X132962497Y-51387497D01*
X132962497Y-52287497D01*
G37*
%TO.C,J105*%
G36*
X157318008Y-78112497D02*
G01*
X154868008Y-78112497D01*
X154868008Y-77212497D01*
X157318008Y-77212497D01*
X157318008Y-78112497D01*
G37*
%TO.C,J112*%
G36*
X133862497Y-46887497D02*
G01*
X131412497Y-46887497D01*
X131412497Y-45987497D01*
X133862497Y-45987497D01*
X133862497Y-46887497D01*
G37*
%TO.C,J81*%
G36*
X107318008Y-78112497D02*
G01*
X104868008Y-78112497D01*
X104868008Y-77212497D01*
X107318008Y-77212497D01*
X107318008Y-78112497D01*
G37*
%TO.C,J84*%
G36*
X83962497Y-66687497D02*
G01*
X81512497Y-66687497D01*
X81512497Y-65787497D01*
X83962497Y-65787497D01*
X83962497Y-66687497D01*
G37*
%TO.C,J72*%
G36*
X87587497Y-82162497D02*
G01*
X86687497Y-82162497D01*
X86687497Y-79712497D01*
X87587497Y-79712497D01*
X87587497Y-82162497D01*
G37*
%TO.C,J76*%
G36*
X68165494Y-85562497D02*
G01*
X67265494Y-85562497D01*
X67265494Y-83112497D01*
X68165494Y-83112497D01*
X68165494Y-85562497D01*
G37*
%TO.C,J77*%
G36*
X102635508Y-77187497D02*
G01*
X101535508Y-77187497D01*
X101535508Y-75687497D01*
X102635508Y-75687497D01*
X102635508Y-77187497D01*
G37*
%TO.C,J67*%
G36*
X83962497Y-64287497D02*
G01*
X81512497Y-64287497D01*
X81512497Y-63387497D01*
X83962497Y-63387497D01*
X83962497Y-64287497D01*
G37*
%TO.C,J68*%
G36*
X77587497Y-92687496D02*
G01*
X76687497Y-92687496D01*
X76687497Y-90237496D01*
X77587497Y-90237496D01*
X77587497Y-92687496D01*
G37*
%TO.C,J83*%
G36*
X86237498Y-84987497D02*
G01*
X83787498Y-84987497D01*
X83787498Y-84087497D01*
X86237498Y-84087497D01*
X86237498Y-84987497D01*
G37*
%TO.C,J74*%
G36*
X82464998Y-84992499D02*
G01*
X80014998Y-84992499D01*
X80014998Y-84092499D01*
X82464998Y-84092499D01*
X82464998Y-84992499D01*
G37*
%TO.C,J70*%
G36*
X105468007Y-53987497D02*
G01*
X103968007Y-53987497D01*
X103968007Y-52887497D01*
X105468007Y-52887497D01*
X105468007Y-53987497D01*
G37*
%TO.C,J71*%
G36*
X79787497Y-50162497D02*
G01*
X78887497Y-50162497D01*
X78887497Y-47712497D01*
X79787497Y-47712497D01*
X79787497Y-50162497D01*
G37*
%TO.C,J87*%
G36*
X82962497Y-52287497D02*
G01*
X80512497Y-52287497D01*
X80512497Y-51387497D01*
X82962497Y-51387497D01*
X82962497Y-52287497D01*
G37*
%TO.C,J88*%
G36*
X83862497Y-46887497D02*
G01*
X81412497Y-46887497D01*
X81412497Y-45987497D01*
X83862497Y-45987497D01*
X83862497Y-46887497D01*
G37*
%TO.C,J50*%
G36*
X132464998Y-135555002D02*
G01*
X130014998Y-135555002D01*
X130014998Y-134655002D01*
X132464998Y-134655002D01*
X132464998Y-135555002D01*
G37*
%TO.C,J47*%
G36*
X129787497Y-100725000D02*
G01*
X128887497Y-100725000D01*
X128887497Y-98275000D01*
X129787497Y-98275000D01*
X129787497Y-100725000D01*
G37*
%TO.C,J59*%
G36*
X136237498Y-135550000D02*
G01*
X133787498Y-135550000D01*
X133787498Y-134650000D01*
X136237498Y-134650000D01*
X136237498Y-135550000D01*
G37*
%TO.C,J64*%
G36*
X133862497Y-97450000D02*
G01*
X131412497Y-97450000D01*
X131412497Y-96550000D01*
X133862497Y-96550000D01*
X133862497Y-97450000D01*
G37*
%TO.C,J44*%
G36*
X127587497Y-143249999D02*
G01*
X126687497Y-143249999D01*
X126687497Y-140799999D01*
X127587497Y-140799999D01*
X127587497Y-143249999D01*
G37*
%TO.C,J53*%
G36*
X152635508Y-127750000D02*
G01*
X151535508Y-127750000D01*
X151535508Y-126250000D01*
X152635508Y-126250000D01*
X152635508Y-127750000D01*
G37*
%TO.C,J46*%
G36*
X155468007Y-104550000D02*
G01*
X153968007Y-104550000D01*
X153968007Y-103450000D01*
X155468007Y-103450000D01*
X155468007Y-104550000D01*
G37*
%TO.C,J48*%
G36*
X137587497Y-132725000D02*
G01*
X136687497Y-132725000D01*
X136687497Y-130275000D01*
X137587497Y-130275000D01*
X137587497Y-132725000D01*
G37*
%TO.C,J63*%
G36*
X132962497Y-102850000D02*
G01*
X130512497Y-102850000D01*
X130512497Y-101950000D01*
X132962497Y-101950000D01*
X132962497Y-102850000D01*
G37*
%TO.C,J57*%
G36*
X157318008Y-128675000D02*
G01*
X154868008Y-128675000D01*
X154868008Y-127775000D01*
X157318008Y-127775000D01*
X157318008Y-128675000D01*
G37*
%TO.C,J60*%
G36*
X133962497Y-117250000D02*
G01*
X131512497Y-117250000D01*
X131512497Y-116350000D01*
X133962497Y-116350000D01*
X133962497Y-117250000D01*
G37*
%TO.C,J52*%
G36*
X118165494Y-136125000D02*
G01*
X117265494Y-136125000D01*
X117265494Y-133675000D01*
X118165494Y-133675000D01*
X118165494Y-136125000D01*
G37*
%TO.C,J43*%
G36*
X133962497Y-114850000D02*
G01*
X131512497Y-114850000D01*
X131512497Y-113950000D01*
X133962497Y-113950000D01*
X133962497Y-114850000D01*
G37*
%TD*%
D11*
%TO.C,R121*%
X109418007Y-129400000D03*
X109418007Y-131050000D03*
%TD*%
D12*
%TO.C,R119*%
X109418007Y-134350000D03*
X109418007Y-132700000D03*
%TD*%
D13*
%TO.C,Q52*%
X76874997Y-138450000D03*
X76874997Y-136550000D03*
X74999996Y-137500000D03*
%TD*%
D14*
%TO.C,R125*%
X80837497Y-109300000D03*
X79012497Y-109300000D03*
%TD*%
D13*
%TO.C,Q47*%
X76474997Y-99200000D03*
X76474997Y-97300000D03*
X74599996Y-98250000D03*
%TD*%
D15*
%TO.C,R128*%
X76824997Y-102800000D03*
X78649997Y-102800000D03*
%TD*%
D16*
%TO.C,K6*%
X106118007Y-125300000D03*
X108318007Y-125300000D03*
X108318007Y-123600000D03*
X106118007Y-123600000D03*
%TD*%
D17*
%TO.C,J123*%
X112718007Y-106360000D03*
D18*
X112718007Y-108900000D03*
X112718007Y-111440000D03*
X112718007Y-113980000D03*
X112718007Y-116520000D03*
X112718007Y-119060000D03*
X112718007Y-121600000D03*
X112718007Y-124140000D03*
X112718007Y-126680000D03*
X112718007Y-129220000D03*
X112718007Y-131760000D03*
X112718007Y-134300000D03*
X112718007Y-136840000D03*
X112718007Y-139380000D03*
X112718007Y-141920000D03*
%TD*%
D19*
%TO.C,TP29*%
X79437497Y-133100000D03*
%TD*%
%TO.C,TP30*%
X86737497Y-117600000D03*
%TD*%
%TO.C,TP27*%
X71537497Y-98400000D03*
%TD*%
D14*
%TO.C,R127*%
X73849997Y-106000000D03*
X72024997Y-106000000D03*
%TD*%
D15*
%TO.C,R132*%
X80424997Y-138000000D03*
X82249997Y-138000000D03*
%TD*%
%TO.C,R126*%
X81424997Y-124600000D03*
X83249997Y-124600000D03*
%TD*%
D14*
%TO.C,R134*%
X77637497Y-134000000D03*
X75812497Y-134000000D03*
%TD*%
D20*
%TO.C,Q50*%
X72299997Y-141050000D03*
X72299997Y-142950000D03*
X74174998Y-142000000D03*
%TD*%
D17*
%TO.C,J130*%
X68337497Y-99600000D03*
D18*
X68337497Y-102140000D03*
X68337497Y-104680000D03*
X68337497Y-107220000D03*
X68337497Y-109760000D03*
X68337497Y-112300000D03*
X68337497Y-114840000D03*
X68337497Y-117380000D03*
X68337497Y-119920000D03*
X68337497Y-122460000D03*
X68337497Y-125000000D03*
X68337497Y-127540000D03*
%TD*%
D21*
%TO.C,J125*%
X102085508Y-128099999D03*
D22*
X102085508Y-127000000D03*
D23*
X102085508Y-125900001D03*
%TD*%
D24*
%TO.C,C45*%
X106818007Y-130850000D03*
X106818007Y-132400000D03*
%TD*%
D17*
%TO.C,J127*%
X87137497Y-99600000D03*
D18*
X87137497Y-102140000D03*
X87137497Y-104679999D03*
X87137497Y-107220000D03*
%TD*%
D25*
%TO.C,C44*%
X98618007Y-132075000D03*
X98618007Y-130525000D03*
%TD*%
D24*
%TO.C,C42*%
X98618007Y-127250000D03*
X98618007Y-128800000D03*
%TD*%
D26*
%TO.C,R138*%
X83337497Y-109887500D03*
X83337497Y-111712500D03*
%TD*%
D20*
%TO.C,Q49*%
X85737497Y-126300000D03*
X85737497Y-128200000D03*
X87612498Y-127250000D03*
%TD*%
D27*
%TO.C,Q14*%
X82587497Y-119562500D03*
X80687497Y-119562500D03*
X81637497Y-121437501D03*
%TD*%
D28*
%TO.C,J116*%
X77137497Y-141300000D03*
D29*
X77137497Y-142749998D03*
%TD*%
D30*
%TO.C,U58*%
X99486979Y-106755999D03*
X99486979Y-107405999D03*
X99486979Y-108055999D03*
X99486979Y-108705999D03*
X99486979Y-109355999D03*
X99486979Y-110005999D03*
X99486979Y-110655999D03*
X99486979Y-111305999D03*
X99486979Y-111955999D03*
X99486979Y-112605999D03*
X105211979Y-112605999D03*
X105211979Y-111955999D03*
X105211979Y-111305999D03*
X105211979Y-110655999D03*
X105211979Y-110005999D03*
X105211979Y-109355999D03*
X105211979Y-108705999D03*
X105211979Y-108055999D03*
X105211979Y-107405999D03*
X105211979Y-106755999D03*
%TD*%
D31*
%TO.C,U55*%
X70799999Y-133774999D03*
X70799999Y-135674997D03*
X73074999Y-134724998D03*
%TD*%
D32*
%TO.C,D35*%
X67715495Y-139499999D03*
X67715495Y-137399999D03*
%TD*%
D14*
%TO.C,R124*%
X77337498Y-109300000D03*
X75512498Y-109300000D03*
%TD*%
D33*
%TO.C,D33*%
X71287497Y-131000000D03*
X74587497Y-131000000D03*
%TD*%
D34*
%TO.C,J131*%
X85737497Y-135100000D03*
D35*
X84287499Y-135100000D03*
%TD*%
D36*
%TO.C,C38*%
X70787497Y-138300000D03*
X72337497Y-138300000D03*
%TD*%
D15*
%TO.C,R137*%
X85424997Y-142300000D03*
X87249997Y-142300000D03*
%TD*%
D14*
%TO.C,R118*%
X87549997Y-111100000D03*
X85724997Y-111100000D03*
%TD*%
D37*
%TO.C,J132*%
X82012498Y-116800000D03*
D38*
X83462496Y-116800000D03*
%TD*%
D39*
%TO.C,U56*%
X102061979Y-116330999D03*
X101661979Y-116330999D03*
X101261979Y-116330999D03*
X100861979Y-116330999D03*
X100461979Y-116330999D03*
D40*
X99811979Y-116980999D03*
X99811979Y-117380999D03*
X99811979Y-117780999D03*
X99811979Y-118180999D03*
X99811979Y-118580999D03*
D39*
X100461979Y-119230999D03*
X100861979Y-119230999D03*
X101261979Y-119230999D03*
X101661979Y-119230999D03*
X102061979Y-119230999D03*
D40*
X102711979Y-118580999D03*
X102711979Y-118180999D03*
X102711979Y-117780999D03*
X102711979Y-117380999D03*
X102711979Y-116980999D03*
D41*
X101261979Y-117780999D03*
%TD*%
D19*
%TO.C,J128*%
X86937497Y-113700000D03*
D42*
X86937497Y-114700000D03*
%TD*%
D27*
%TO.C,Q15*%
X78687497Y-115656250D03*
X76787497Y-115656250D03*
X77737497Y-117531251D03*
%TD*%
D13*
%TO.C,Q51*%
X81974997Y-142750000D03*
X81974997Y-140850000D03*
X80099996Y-141800000D03*
%TD*%
D31*
%TO.C,U62*%
X85562497Y-137600000D03*
X85562497Y-138549999D03*
X85562497Y-139499998D03*
X87837497Y-139499998D03*
X87837497Y-137600000D03*
%TD*%
D15*
%TO.C,R133*%
X67424997Y-142500000D03*
X69249997Y-142500000D03*
%TD*%
D11*
%TO.C,R123*%
X95918007Y-129350000D03*
X95918007Y-131000000D03*
%TD*%
D43*
%TO.C,U61*%
X99708007Y-137900000D03*
X105488007Y-137900000D03*
D44*
X99348007Y-136455000D03*
X100148007Y-136455000D03*
D45*
X101348007Y-136455000D03*
X102348007Y-136455000D03*
X102848007Y-136455000D03*
X103848007Y-136455000D03*
D44*
X105048007Y-136455000D03*
X105848007Y-136455000D03*
X105848007Y-136455000D03*
X105048007Y-136455000D03*
D45*
X104348007Y-136455000D03*
X103348007Y-136455000D03*
X101848007Y-136455000D03*
X100848007Y-136455000D03*
D44*
X100148007Y-136455000D03*
X99348007Y-136455000D03*
D46*
X98278007Y-137370000D03*
D47*
X98278007Y-141550000D03*
D46*
X106918007Y-137370000D03*
D47*
X106918007Y-141550000D03*
%TD*%
D15*
%TO.C,R141*%
X76924997Y-124200000D03*
X78749997Y-124200000D03*
%TD*%
D37*
%TO.C,J122*%
X80514999Y-135105002D03*
D38*
X81964997Y-135105002D03*
%TD*%
D15*
%TO.C,R122*%
X72112497Y-117600000D03*
X73937497Y-117600000D03*
%TD*%
D13*
%TO.C,U64*%
X83074997Y-106850000D03*
X83074997Y-104950000D03*
X81199996Y-105900000D03*
%TD*%
D14*
%TO.C,R120*%
X78849996Y-112931250D03*
X77024996Y-112931250D03*
%TD*%
D20*
%TO.C,U57*%
X85699997Y-121550000D03*
X85699997Y-123450000D03*
X87574998Y-122500000D03*
%TD*%
D15*
%TO.C,R131*%
X80924997Y-128100000D03*
X82749997Y-128100000D03*
%TD*%
D28*
%TO.C,J120*%
X87137497Y-130775001D03*
D29*
X87137497Y-132224999D03*
%TD*%
D48*
%TO.C,D30*%
X95918007Y-134287501D03*
X95918007Y-132712499D03*
%TD*%
D36*
%TO.C,C39*%
X97723007Y-123500000D03*
X99273007Y-123500000D03*
%TD*%
D49*
%TO.C,C41*%
X102568007Y-123500000D03*
X101018007Y-123500000D03*
%TD*%
D50*
%TO.C,D34*%
X69387497Y-131200000D03*
X67287497Y-131200000D03*
%TD*%
D51*
%TO.C,U59*%
X82587497Y-130950000D03*
X82587497Y-131600000D03*
X82587497Y-132250000D03*
X84487497Y-132250000D03*
X84487497Y-130950000D03*
%TD*%
D52*
%TO.C,J118*%
X103618008Y-104000000D03*
D53*
X104718007Y-104000000D03*
D54*
X105818006Y-104000000D03*
%TD*%
D19*
%TO.C,TP28*%
X77737497Y-127800000D03*
%TD*%
D55*
%TO.C,Q45*%
X72087497Y-114437500D03*
X73987497Y-114437500D03*
X73037497Y-112562499D03*
%TD*%
D56*
%TO.C,D32*%
X77474997Y-120600000D03*
X75599997Y-120600000D03*
%TD*%
D57*
%TO.C,D31*%
X72049997Y-120600000D03*
X73624997Y-120600000D03*
%TD*%
D15*
%TO.C,R140*%
X75512496Y-106000000D03*
X77337496Y-106000000D03*
%TD*%
D34*
%TO.C,J135*%
X82462496Y-102400000D03*
D35*
X81012498Y-102400000D03*
%TD*%
D17*
%TO.C,J121*%
X92418007Y-106340000D03*
D18*
X92418007Y-108880000D03*
X92418007Y-111420000D03*
X92418007Y-113960000D03*
X92418007Y-116500000D03*
X92418007Y-119040000D03*
X92418007Y-121580000D03*
X92418007Y-124120000D03*
X92418007Y-126660000D03*
X92418007Y-129200000D03*
X92418007Y-131740000D03*
X92418007Y-134280000D03*
X92418007Y-136820000D03*
X92418007Y-139360000D03*
X92418007Y-141900000D03*
%TD*%
D15*
%TO.C,R130*%
X77212497Y-131200000D03*
X79037497Y-131200000D03*
%TD*%
D58*
%TO.C,J124*%
X67715494Y-135624999D03*
D59*
X67715494Y-134175001D03*
%TD*%
D20*
%TO.C,Q48*%
X72399997Y-126050000D03*
X72399997Y-127950000D03*
X74274998Y-127000000D03*
%TD*%
D19*
%TO.C,TP26*%
X80937497Y-112000000D03*
%TD*%
D17*
%TO.C,J138*%
X83037497Y-99600000D03*
%TD*%
D31*
%TO.C,U63*%
X101743007Y-130500000D03*
X101743007Y-131450000D03*
X101743007Y-132400000D03*
X104018007Y-132400000D03*
X104018007Y-130500000D03*
%TD*%
D34*
%TO.C,J115*%
X83462496Y-114400000D03*
D35*
X82012498Y-114400000D03*
%TD*%
D55*
%TO.C,Q46*%
X72087496Y-102874999D03*
X73987496Y-102874999D03*
X73037496Y-100999998D03*
%TD*%
D58*
%TO.C,J119*%
X79337497Y-100224999D03*
D59*
X79337497Y-98775001D03*
%TD*%
D37*
%TO.C,J136*%
X81912498Y-97000000D03*
D38*
X83362496Y-97000000D03*
%TD*%
D14*
%TO.C,R135*%
X73825000Y-109300000D03*
X72000000Y-109300000D03*
%TD*%
D34*
%TO.C,J129*%
X106818007Y-128225000D03*
D35*
X105368009Y-128225000D03*
%TD*%
D14*
%TO.C,R129*%
X73949997Y-123400000D03*
X72124997Y-123400000D03*
%TD*%
D36*
%TO.C,C30*%
X120787497Y-87737497D03*
X122337497Y-87737497D03*
%TD*%
D14*
%TO.C,R101*%
X130837497Y-58737497D03*
X129012497Y-58737497D03*
%TD*%
D11*
%TO.C,R97*%
X159418007Y-78837497D03*
X159418007Y-80487497D03*
%TD*%
D12*
%TO.C,R95*%
X159418007Y-83787497D03*
X159418007Y-82137497D03*
%TD*%
D13*
%TO.C,Q44*%
X126874997Y-87887497D03*
X126874997Y-85987497D03*
X124999996Y-86937497D03*
%TD*%
D37*
%TO.C,J108*%
X132012498Y-66237497D03*
D38*
X133462496Y-66237497D03*
%TD*%
D13*
%TO.C,Q39*%
X126474997Y-48637497D03*
X126474997Y-46737497D03*
X124599996Y-47687497D03*
%TD*%
D16*
%TO.C,K5*%
X156118007Y-74737497D03*
X158318007Y-74737497D03*
X158318007Y-73037497D03*
X156118007Y-73037497D03*
%TD*%
D17*
%TO.C,J99*%
X162718007Y-55797497D03*
D18*
X162718007Y-58337497D03*
X162718007Y-60877497D03*
X162718007Y-63417497D03*
X162718007Y-65957497D03*
X162718007Y-68497497D03*
X162718007Y-71037497D03*
X162718007Y-73577497D03*
X162718007Y-76117497D03*
X162718007Y-78657497D03*
X162718007Y-81197497D03*
X162718007Y-83737497D03*
X162718007Y-86277497D03*
X162718007Y-88817497D03*
X162718007Y-91357497D03*
%TD*%
D19*
%TO.C,TP25*%
X136737497Y-67037497D03*
%TD*%
%TO.C,TP24*%
X129437497Y-82537497D03*
%TD*%
D34*
%TO.C,J91*%
X133462496Y-63837497D03*
D35*
X132012498Y-63837497D03*
%TD*%
D58*
%TO.C,J100*%
X117715494Y-85062496D03*
D59*
X117715494Y-83612498D03*
%TD*%
D14*
%TO.C,R103*%
X123849997Y-55437497D03*
X122024997Y-55437497D03*
%TD*%
D24*
%TO.C,C37*%
X156818007Y-80287497D03*
X156818007Y-81837497D03*
%TD*%
D15*
%TO.C,R108*%
X130424997Y-87437497D03*
X132249997Y-87437497D03*
%TD*%
D28*
%TO.C,J96*%
X137137497Y-80212498D03*
D29*
X137137497Y-81662496D03*
%TD*%
D14*
%TO.C,R110*%
X127637497Y-83437497D03*
X125812497Y-83437497D03*
%TD*%
D17*
%TO.C,J106*%
X118337497Y-49037497D03*
D18*
X118337497Y-51577497D03*
X118337497Y-54117497D03*
X118337497Y-56657497D03*
X118337497Y-59197497D03*
X118337497Y-61737497D03*
X118337497Y-64277497D03*
X118337497Y-66817497D03*
X118337497Y-69357497D03*
X118337497Y-71897497D03*
X118337497Y-74437497D03*
X118337497Y-76977497D03*
%TD*%
D21*
%TO.C,J101*%
X152085508Y-77537496D03*
D22*
X152085508Y-76437497D03*
D23*
X152085508Y-75337498D03*
%TD*%
D17*
%TO.C,J103*%
X137137497Y-49037497D03*
D18*
X137137497Y-51577497D03*
X137137497Y-54117496D03*
X137137497Y-56657497D03*
%TD*%
D25*
%TO.C,C36*%
X148618007Y-81512497D03*
X148618007Y-79962497D03*
%TD*%
D24*
%TO.C,C34*%
X148618007Y-76687497D03*
X148618007Y-78237497D03*
%TD*%
D15*
%TO.C,R113*%
X135424997Y-91737497D03*
X137249997Y-91737497D03*
%TD*%
D51*
%TO.C,U47*%
X132587497Y-80387497D03*
X132587497Y-81037497D03*
X132587497Y-81687497D03*
X134487497Y-81687497D03*
X134487497Y-80387497D03*
%TD*%
D20*
%TO.C,Q41*%
X135737497Y-75737497D03*
X135737497Y-77637497D03*
X137612498Y-76687497D03*
%TD*%
D27*
%TO.C,Q12*%
X132587497Y-68999997D03*
X130687497Y-68999997D03*
X131637497Y-70874998D03*
%TD*%
D28*
%TO.C,J92*%
X127137497Y-90737497D03*
D29*
X127137497Y-92187495D03*
%TD*%
D30*
%TO.C,U46*%
X149486979Y-56193496D03*
X149486979Y-56843496D03*
X149486979Y-57493496D03*
X149486979Y-58143496D03*
X149486979Y-58793496D03*
X149486979Y-59443496D03*
X149486979Y-60093496D03*
X149486979Y-60743496D03*
X149486979Y-61393496D03*
X149486979Y-62043496D03*
X155211979Y-62043496D03*
X155211979Y-61393496D03*
X155211979Y-60743496D03*
X155211979Y-60093496D03*
X155211979Y-59443496D03*
X155211979Y-58793496D03*
X155211979Y-58143496D03*
X155211979Y-57493496D03*
X155211979Y-56843496D03*
X155211979Y-56193496D03*
%TD*%
D31*
%TO.C,U43*%
X120799999Y-83212496D03*
X120799999Y-85112494D03*
X123074999Y-84162495D03*
%TD*%
D19*
%TO.C,TP22*%
X121537497Y-47837497D03*
%TD*%
D32*
%TO.C,D29*%
X117715495Y-88937496D03*
X117715495Y-86837496D03*
%TD*%
D14*
%TO.C,R100*%
X127337498Y-58737497D03*
X125512498Y-58737497D03*
%TD*%
D33*
%TO.C,D27*%
X121287497Y-80437497D03*
X124587497Y-80437497D03*
%TD*%
D34*
%TO.C,J107*%
X135737497Y-84537497D03*
D35*
X134287499Y-84537497D03*
%TD*%
D14*
%TO.C,R94*%
X137549997Y-60537497D03*
X135724997Y-60537497D03*
%TD*%
D15*
%TO.C,R104*%
X126824997Y-52237497D03*
X128649997Y-52237497D03*
%TD*%
D58*
%TO.C,J95*%
X129337497Y-49662496D03*
D59*
X129337497Y-48212498D03*
%TD*%
D31*
%TO.C,U50*%
X135562497Y-87037497D03*
X135562497Y-87987496D03*
X135562497Y-88937495D03*
X137837497Y-88937495D03*
X137837497Y-87037497D03*
%TD*%
D20*
%TO.C,Q42*%
X122299997Y-90487497D03*
X122299997Y-92387497D03*
X124174998Y-91437497D03*
%TD*%
D15*
%TO.C,R109*%
X117424997Y-91937497D03*
X119249997Y-91937497D03*
%TD*%
D43*
%TO.C,U49*%
X149708007Y-87337497D03*
X155488007Y-87337497D03*
D44*
X149348007Y-85892497D03*
X150148007Y-85892497D03*
D45*
X151348007Y-85892497D03*
X152348007Y-85892497D03*
X152848007Y-85892497D03*
X153848007Y-85892497D03*
D44*
X155048007Y-85892497D03*
X155848007Y-85892497D03*
X155848007Y-85892497D03*
X155048007Y-85892497D03*
D45*
X154348007Y-85892497D03*
X153348007Y-85892497D03*
X151848007Y-85892497D03*
X150848007Y-85892497D03*
D44*
X150148007Y-85892497D03*
X149348007Y-85892497D03*
D46*
X148278007Y-86807497D03*
D47*
X148278007Y-90987497D03*
D46*
X156918007Y-86807497D03*
D47*
X156918007Y-90987497D03*
%TD*%
D15*
%TO.C,R117*%
X126924997Y-73637497D03*
X128749997Y-73637497D03*
%TD*%
D37*
%TO.C,J98*%
X130514999Y-84542499D03*
D38*
X131964997Y-84542499D03*
%TD*%
D20*
%TO.C,U45*%
X135699997Y-70987497D03*
X135699997Y-72887497D03*
X137574998Y-71937497D03*
%TD*%
D19*
%TO.C,J104*%
X136937497Y-63137497D03*
D42*
X136937497Y-64137497D03*
%TD*%
D15*
%TO.C,R98*%
X122112497Y-67037497D03*
X123937497Y-67037497D03*
%TD*%
D13*
%TO.C,U52*%
X133074997Y-56287497D03*
X133074997Y-54387497D03*
X131199996Y-55337497D03*
%TD*%
D57*
%TO.C,D25*%
X122049997Y-70037497D03*
X123624997Y-70037497D03*
%TD*%
D14*
%TO.C,R96*%
X128849996Y-62368747D03*
X127024996Y-62368747D03*
%TD*%
D13*
%TO.C,Q43*%
X131974997Y-92187497D03*
X131974997Y-90287497D03*
X130099996Y-91237497D03*
%TD*%
D15*
%TO.C,R107*%
X130924997Y-77537497D03*
X132749997Y-77537497D03*
%TD*%
D50*
%TO.C,D28*%
X119387497Y-80637497D03*
X117287497Y-80637497D03*
%TD*%
D36*
%TO.C,C31*%
X147723007Y-72937497D03*
X149273007Y-72937497D03*
%TD*%
D49*
%TO.C,C33*%
X152568007Y-72937497D03*
X151018007Y-72937497D03*
%TD*%
D48*
%TO.C,D24*%
X145918007Y-83724998D03*
X145918007Y-82149996D03*
%TD*%
D52*
%TO.C,J94*%
X153618008Y-53437497D03*
D53*
X154718007Y-53437497D03*
D54*
X155818006Y-53437497D03*
%TD*%
D19*
%TO.C,TP23*%
X127737497Y-77237497D03*
%TD*%
D55*
%TO.C,Q37*%
X122087497Y-63874997D03*
X123987497Y-63874997D03*
X123037497Y-61999996D03*
%TD*%
D56*
%TO.C,D26*%
X127474997Y-70037497D03*
X125599997Y-70037497D03*
%TD*%
D15*
%TO.C,R116*%
X125512496Y-55437497D03*
X127337496Y-55437497D03*
%TD*%
D34*
%TO.C,J111*%
X132462496Y-51837497D03*
D35*
X131012498Y-51837497D03*
%TD*%
D17*
%TO.C,J97*%
X142418007Y-55777497D03*
D18*
X142418007Y-58317497D03*
X142418007Y-60857497D03*
X142418007Y-63397497D03*
X142418007Y-65937497D03*
X142418007Y-68477497D03*
X142418007Y-71017497D03*
X142418007Y-73557497D03*
X142418007Y-76097497D03*
X142418007Y-78637497D03*
X142418007Y-81177497D03*
X142418007Y-83717497D03*
X142418007Y-86257497D03*
X142418007Y-88797497D03*
X142418007Y-91337497D03*
%TD*%
D39*
%TO.C,U44*%
X152061979Y-65768496D03*
X151661979Y-65768496D03*
X151261979Y-65768496D03*
X150861979Y-65768496D03*
X150461979Y-65768496D03*
D40*
X149811979Y-66418496D03*
X149811979Y-66818496D03*
X149811979Y-67218496D03*
X149811979Y-67618496D03*
X149811979Y-68018496D03*
D39*
X150461979Y-68668496D03*
X150861979Y-68668496D03*
X151261979Y-68668496D03*
X151661979Y-68668496D03*
X152061979Y-68668496D03*
D40*
X152711979Y-68018496D03*
X152711979Y-67618496D03*
X152711979Y-67218496D03*
X152711979Y-66818496D03*
X152711979Y-66418496D03*
D41*
X151261979Y-67218496D03*
%TD*%
D15*
%TO.C,R106*%
X127212497Y-80637497D03*
X129037497Y-80637497D03*
%TD*%
D26*
%TO.C,R114*%
X133337497Y-59324997D03*
X133337497Y-61149997D03*
%TD*%
D34*
%TO.C,J105*%
X156818007Y-77662497D03*
D35*
X155368009Y-77662497D03*
%TD*%
D20*
%TO.C,Q40*%
X122399997Y-75487497D03*
X122399997Y-77387497D03*
X124274998Y-76437497D03*
%TD*%
D19*
%TO.C,TP21*%
X130937497Y-61437497D03*
%TD*%
D17*
%TO.C,J114*%
X133037497Y-49037497D03*
%TD*%
D31*
%TO.C,U51*%
X151743007Y-79937497D03*
X151743007Y-80887497D03*
X151743007Y-81837497D03*
X154018007Y-81837497D03*
X154018007Y-79937497D03*
%TD*%
D55*
%TO.C,Q38*%
X122087496Y-52312496D03*
X123987496Y-52312496D03*
X123037496Y-50437495D03*
%TD*%
D11*
%TO.C,R99*%
X145918007Y-78787497D03*
X145918007Y-80437497D03*
%TD*%
D37*
%TO.C,J112*%
X131912498Y-46437497D03*
D38*
X133362496Y-46437497D03*
%TD*%
D14*
%TO.C,R111*%
X123825000Y-58737497D03*
X122000000Y-58737497D03*
%TD*%
D27*
%TO.C,Q13*%
X128687497Y-65093747D03*
X126787497Y-65093747D03*
X127737497Y-66968748D03*
%TD*%
D14*
%TO.C,R105*%
X123949997Y-72837497D03*
X122124997Y-72837497D03*
%TD*%
D15*
%TO.C,R102*%
X131424997Y-74037497D03*
X133249997Y-74037497D03*
%TD*%
D36*
%TO.C,C22*%
X70787497Y-87737497D03*
X72337497Y-87737497D03*
%TD*%
D14*
%TO.C,R77*%
X80837497Y-58737497D03*
X79012497Y-58737497D03*
%TD*%
D13*
%TO.C,Q36*%
X76874997Y-87887497D03*
X76874997Y-85987497D03*
X74999996Y-86937497D03*
%TD*%
D34*
%TO.C,J81*%
X106818007Y-77662497D03*
D35*
X105368009Y-77662497D03*
%TD*%
D37*
%TO.C,J84*%
X82012498Y-66237497D03*
D38*
X83462496Y-66237497D03*
%TD*%
D15*
%TO.C,R80*%
X76824997Y-52237497D03*
X78649997Y-52237497D03*
%TD*%
D16*
%TO.C,K4*%
X106118007Y-74737497D03*
X108318007Y-74737497D03*
X108318007Y-73037497D03*
X106118007Y-73037497D03*
%TD*%
D19*
%TO.C,TP20*%
X86737497Y-67037497D03*
%TD*%
%TO.C,TP19*%
X79437497Y-82537497D03*
%TD*%
D28*
%TO.C,J72*%
X87137497Y-80212498D03*
D29*
X87137497Y-81662496D03*
%TD*%
D19*
%TO.C,TP17*%
X71537497Y-47837497D03*
%TD*%
D58*
%TO.C,J76*%
X67715494Y-85062496D03*
D59*
X67715494Y-83612498D03*
%TD*%
D14*
%TO.C,R79*%
X73849997Y-55437497D03*
X72024997Y-55437497D03*
%TD*%
D24*
%TO.C,C29*%
X106818007Y-80287497D03*
X106818007Y-81837497D03*
%TD*%
D15*
%TO.C,R84*%
X80424997Y-87437497D03*
X82249997Y-87437497D03*
%TD*%
%TO.C,R78*%
X81424997Y-74037497D03*
X83249997Y-74037497D03*
%TD*%
D20*
%TO.C,Q34*%
X72299997Y-90487497D03*
X72299997Y-92387497D03*
X74174998Y-91437497D03*
%TD*%
D17*
%TO.C,J82*%
X68337497Y-49037497D03*
D18*
X68337497Y-51577497D03*
X68337497Y-54117497D03*
X68337497Y-56657497D03*
X68337497Y-59197497D03*
X68337497Y-61737497D03*
X68337497Y-64277497D03*
X68337497Y-66817497D03*
X68337497Y-69357497D03*
X68337497Y-71897497D03*
X68337497Y-74437497D03*
X68337497Y-76977497D03*
%TD*%
D21*
%TO.C,J77*%
X102085508Y-77537496D03*
D22*
X102085508Y-76437497D03*
D23*
X102085508Y-75337498D03*
%TD*%
D15*
%TO.C,R89*%
X85424997Y-91737497D03*
X87249997Y-91737497D03*
%TD*%
D20*
%TO.C,Q33*%
X85737497Y-75737497D03*
X85737497Y-77637497D03*
X87612498Y-76687497D03*
%TD*%
D34*
%TO.C,J67*%
X83462496Y-63837497D03*
D35*
X82012498Y-63837497D03*
%TD*%
D27*
%TO.C,Q9*%
X82587497Y-68999997D03*
X80687497Y-68999997D03*
X81637497Y-70874998D03*
%TD*%
D14*
%TO.C,R86*%
X77637497Y-83437497D03*
X75812497Y-83437497D03*
%TD*%
D28*
%TO.C,J68*%
X77137497Y-90737497D03*
D29*
X77137497Y-92187495D03*
%TD*%
D11*
%TO.C,R73*%
X109418007Y-78837497D03*
X109418007Y-80487497D03*
%TD*%
D12*
%TO.C,R71*%
X109418007Y-83787497D03*
X109418007Y-82137497D03*
%TD*%
D17*
%TO.C,J79*%
X87137497Y-49037497D03*
D18*
X87137497Y-51577497D03*
X87137497Y-54117496D03*
X87137497Y-56657497D03*
%TD*%
D32*
%TO.C,D23*%
X67715495Y-88937496D03*
X67715495Y-86837496D03*
%TD*%
D33*
%TO.C,D21*%
X71287497Y-80437497D03*
X74587497Y-80437497D03*
%TD*%
D13*
%TO.C,Q35*%
X81974997Y-92187497D03*
X81974997Y-90287497D03*
X80099996Y-91237497D03*
%TD*%
D34*
%TO.C,J83*%
X85737497Y-84537497D03*
D35*
X84287499Y-84537497D03*
%TD*%
D39*
%TO.C,U32*%
X102061979Y-65768496D03*
X101661979Y-65768496D03*
X101261979Y-65768496D03*
X100861979Y-65768496D03*
X100461979Y-65768496D03*
D40*
X99811979Y-66418496D03*
X99811979Y-66818496D03*
X99811979Y-67218496D03*
X99811979Y-67618496D03*
X99811979Y-68018496D03*
D39*
X100461979Y-68668496D03*
X100861979Y-68668496D03*
X101261979Y-68668496D03*
X101661979Y-68668496D03*
X102061979Y-68668496D03*
D40*
X102711979Y-68018496D03*
X102711979Y-67618496D03*
X102711979Y-67218496D03*
X102711979Y-66818496D03*
X102711979Y-66418496D03*
D41*
X101261979Y-67218496D03*
%TD*%
D19*
%TO.C,J80*%
X86937497Y-63137497D03*
D42*
X86937497Y-64137497D03*
%TD*%
D27*
%TO.C,Q11*%
X78687497Y-65093747D03*
X76787497Y-65093747D03*
X77737497Y-66968748D03*
%TD*%
D31*
%TO.C,U38*%
X85562497Y-87037497D03*
X85562497Y-87987496D03*
X85562497Y-88937495D03*
X87837497Y-88937495D03*
X87837497Y-87037497D03*
%TD*%
D11*
%TO.C,R75*%
X95918007Y-78787497D03*
X95918007Y-80437497D03*
%TD*%
D43*
%TO.C,U37*%
X99708007Y-87337497D03*
X105488007Y-87337497D03*
D44*
X99348007Y-85892497D03*
X100148007Y-85892497D03*
D45*
X101348007Y-85892497D03*
X102348007Y-85892497D03*
X102848007Y-85892497D03*
X103848007Y-85892497D03*
D44*
X105048007Y-85892497D03*
X105848007Y-85892497D03*
X105848007Y-85892497D03*
X105048007Y-85892497D03*
D45*
X104348007Y-85892497D03*
X103348007Y-85892497D03*
X101848007Y-85892497D03*
X100848007Y-85892497D03*
D44*
X100148007Y-85892497D03*
X99348007Y-85892497D03*
D46*
X98278007Y-86807497D03*
D47*
X98278007Y-90987497D03*
D46*
X106918007Y-86807497D03*
D47*
X106918007Y-90987497D03*
%TD*%
D14*
%TO.C,R76*%
X77337498Y-58737497D03*
X75512498Y-58737497D03*
%TD*%
D31*
%TO.C,U31*%
X70799999Y-83212496D03*
X70799999Y-85112494D03*
X73074999Y-84162495D03*
%TD*%
D15*
%TO.C,R93*%
X76924997Y-73637497D03*
X78749997Y-73637497D03*
%TD*%
D37*
%TO.C,J74*%
X80514999Y-84542499D03*
D38*
X81964997Y-84542499D03*
%TD*%
D20*
%TO.C,U33*%
X85699997Y-70987497D03*
X85699997Y-72887497D03*
X87574998Y-71937497D03*
%TD*%
D15*
%TO.C,R74*%
X72112497Y-67037497D03*
X73937497Y-67037497D03*
%TD*%
D26*
%TO.C,R90*%
X83337497Y-59324997D03*
X83337497Y-61149997D03*
%TD*%
D13*
%TO.C,U40*%
X83074997Y-56287497D03*
X83074997Y-54387497D03*
X81199996Y-55337497D03*
%TD*%
D51*
%TO.C,U35*%
X82587497Y-80387497D03*
X82587497Y-81037497D03*
X82587497Y-81687497D03*
X84487497Y-81687497D03*
X84487497Y-80387497D03*
%TD*%
D57*
%TO.C,D19*%
X72049997Y-70037497D03*
X73624997Y-70037497D03*
%TD*%
D14*
%TO.C,R72*%
X78849996Y-62368747D03*
X77024996Y-62368747D03*
%TD*%
D13*
%TO.C,Q31*%
X76474997Y-48637497D03*
X76474997Y-46737497D03*
X74599996Y-47687497D03*
%TD*%
D15*
%TO.C,R83*%
X80924997Y-77537497D03*
X82749997Y-77537497D03*
%TD*%
D14*
%TO.C,R70*%
X87549997Y-60537497D03*
X85724997Y-60537497D03*
%TD*%
D48*
%TO.C,D18*%
X95918007Y-83724998D03*
X95918007Y-82149996D03*
%TD*%
D52*
%TO.C,J70*%
X103618008Y-53437497D03*
D53*
X104718007Y-53437497D03*
D54*
X105818006Y-53437497D03*
%TD*%
D19*
%TO.C,TP18*%
X77737497Y-77237497D03*
%TD*%
D55*
%TO.C,Q29*%
X72087497Y-63874997D03*
X73987497Y-63874997D03*
X73037497Y-61999996D03*
%TD*%
D56*
%TO.C,D20*%
X77474997Y-70037497D03*
X75599997Y-70037497D03*
%TD*%
D50*
%TO.C,D22*%
X69387497Y-80637497D03*
X67287497Y-80637497D03*
%TD*%
D15*
%TO.C,R85*%
X67424997Y-91937497D03*
X69249997Y-91937497D03*
%TD*%
%TO.C,R92*%
X75512496Y-55437497D03*
X77337496Y-55437497D03*
%TD*%
D36*
%TO.C,C23*%
X97723007Y-72937497D03*
X99273007Y-72937497D03*
%TD*%
D49*
%TO.C,C25*%
X102568007Y-72937497D03*
X101018007Y-72937497D03*
%TD*%
D58*
%TO.C,J71*%
X79337497Y-49662496D03*
D59*
X79337497Y-48212498D03*
%TD*%
D17*
%TO.C,J73*%
X92418007Y-55777497D03*
D18*
X92418007Y-58317497D03*
X92418007Y-60857497D03*
X92418007Y-63397497D03*
X92418007Y-65937497D03*
X92418007Y-68477497D03*
X92418007Y-71017497D03*
X92418007Y-73557497D03*
X92418007Y-76097497D03*
X92418007Y-78637497D03*
X92418007Y-81177497D03*
X92418007Y-83717497D03*
X92418007Y-86257497D03*
X92418007Y-88797497D03*
X92418007Y-91337497D03*
%TD*%
D15*
%TO.C,R82*%
X77212497Y-80637497D03*
X79037497Y-80637497D03*
%TD*%
D17*
%TO.C,J75*%
X112718007Y-55797497D03*
D18*
X112718007Y-58337497D03*
X112718007Y-60877497D03*
X112718007Y-63417497D03*
X112718007Y-65957497D03*
X112718007Y-68497497D03*
X112718007Y-71037497D03*
X112718007Y-73577497D03*
X112718007Y-76117497D03*
X112718007Y-78657497D03*
X112718007Y-81197497D03*
X112718007Y-83737497D03*
X112718007Y-86277497D03*
X112718007Y-88817497D03*
X112718007Y-91357497D03*
%TD*%
D20*
%TO.C,Q32*%
X72399997Y-75487497D03*
X72399997Y-77387497D03*
X74274998Y-76437497D03*
%TD*%
D19*
%TO.C,TP16*%
X80937497Y-61437497D03*
%TD*%
D17*
%TO.C,J90*%
X83037497Y-49037497D03*
%TD*%
D31*
%TO.C,U39*%
X101743007Y-79937497D03*
X101743007Y-80887497D03*
X101743007Y-81837497D03*
X104018007Y-81837497D03*
X104018007Y-79937497D03*
%TD*%
D55*
%TO.C,Q30*%
X72087496Y-52312496D03*
X73987496Y-52312496D03*
X73037496Y-50437495D03*
%TD*%
D34*
%TO.C,J87*%
X82462496Y-51837497D03*
D35*
X81012498Y-51837497D03*
%TD*%
D37*
%TO.C,J88*%
X81912498Y-46437497D03*
D38*
X83362496Y-46437497D03*
%TD*%
D14*
%TO.C,R87*%
X73825000Y-58737497D03*
X72000000Y-58737497D03*
%TD*%
D25*
%TO.C,C28*%
X98618007Y-81512497D03*
X98618007Y-79962497D03*
%TD*%
D24*
%TO.C,C26*%
X98618007Y-76687497D03*
X98618007Y-78237497D03*
%TD*%
D14*
%TO.C,R81*%
X73949997Y-72837497D03*
X72124997Y-72837497D03*
%TD*%
D30*
%TO.C,U34*%
X99486979Y-56193496D03*
X99486979Y-56843496D03*
X99486979Y-57493496D03*
X99486979Y-58143496D03*
X99486979Y-58793496D03*
X99486979Y-59443496D03*
X99486979Y-60093496D03*
X99486979Y-60743496D03*
X99486979Y-61393496D03*
X99486979Y-62043496D03*
X105211979Y-62043496D03*
X105211979Y-61393496D03*
X105211979Y-60743496D03*
X105211979Y-60093496D03*
X105211979Y-59443496D03*
X105211979Y-58793496D03*
X105211979Y-58143496D03*
X105211979Y-57493496D03*
X105211979Y-56843496D03*
X105211979Y-56193496D03*
%TD*%
D17*
%TO.C,J66*%
X133037497Y-99600000D03*
%TD*%
D19*
%TO.C,TP11*%
X130937497Y-112000000D03*
%TD*%
D20*
%TO.C,Q24*%
X122399997Y-126050000D03*
X122399997Y-127950000D03*
X124274998Y-127000000D03*
%TD*%
D15*
%TO.C,R58*%
X127212497Y-131200000D03*
X129037497Y-131200000D03*
%TD*%
D14*
%TO.C,R57*%
X123949997Y-123400000D03*
X122124997Y-123400000D03*
%TD*%
D55*
%TO.C,Q21*%
X122087497Y-114437500D03*
X123987497Y-114437500D03*
X123037497Y-112562499D03*
%TD*%
D57*
%TO.C,D13*%
X122049997Y-120600000D03*
X123624997Y-120600000D03*
%TD*%
D13*
%TO.C,U28*%
X133074997Y-106850000D03*
X133074997Y-104950000D03*
X131199996Y-105900000D03*
%TD*%
D37*
%TO.C,J50*%
X130514999Y-135105002D03*
D38*
X131964997Y-135105002D03*
%TD*%
D15*
%TO.C,R69*%
X126924997Y-124200000D03*
X128749997Y-124200000D03*
%TD*%
D50*
%TO.C,D16*%
X119387497Y-131200000D03*
X117287497Y-131200000D03*
%TD*%
D11*
%TO.C,R51*%
X145918007Y-129350000D03*
X145918007Y-131000000D03*
%TD*%
D58*
%TO.C,J47*%
X129337497Y-100224999D03*
D59*
X129337497Y-98775001D03*
%TD*%
D19*
%TO.C,J56*%
X136937497Y-113700000D03*
D42*
X136937497Y-114700000D03*
%TD*%
D39*
%TO.C,U20*%
X152061979Y-116330999D03*
X151661979Y-116330999D03*
X151261979Y-116330999D03*
X150861979Y-116330999D03*
X150461979Y-116330999D03*
D40*
X149811979Y-116980999D03*
X149811979Y-117380999D03*
X149811979Y-117780999D03*
X149811979Y-118180999D03*
X149811979Y-118580999D03*
D39*
X150461979Y-119230999D03*
X150861979Y-119230999D03*
X151261979Y-119230999D03*
X151661979Y-119230999D03*
X152061979Y-119230999D03*
D40*
X152711979Y-118580999D03*
X152711979Y-118180999D03*
X152711979Y-117780999D03*
X152711979Y-117380999D03*
X152711979Y-116980999D03*
D41*
X151261979Y-117780999D03*
%TD*%
D14*
%TO.C,R48*%
X128849996Y-112931250D03*
X127024996Y-112931250D03*
%TD*%
D34*
%TO.C,J59*%
X135737497Y-135100000D03*
D35*
X134287499Y-135100000D03*
%TD*%
D33*
%TO.C,D15*%
X121287497Y-131000000D03*
X124587497Y-131000000D03*
%TD*%
D32*
%TO.C,D17*%
X117715495Y-139499999D03*
X117715495Y-137399999D03*
%TD*%
D12*
%TO.C,R47*%
X159418007Y-134350000D03*
X159418007Y-132700000D03*
%TD*%
D30*
%TO.C,U22*%
X149486979Y-106755999D03*
X149486979Y-107405999D03*
X149486979Y-108055999D03*
X149486979Y-108705999D03*
X149486979Y-109355999D03*
X149486979Y-110005999D03*
X149486979Y-110655999D03*
X149486979Y-111305999D03*
X149486979Y-111955999D03*
X149486979Y-112605999D03*
X155211979Y-112605999D03*
X155211979Y-111955999D03*
X155211979Y-111305999D03*
X155211979Y-110655999D03*
X155211979Y-110005999D03*
X155211979Y-109355999D03*
X155211979Y-108705999D03*
X155211979Y-108055999D03*
X155211979Y-107405999D03*
X155211979Y-106755999D03*
%TD*%
D37*
%TO.C,J64*%
X131912498Y-97000000D03*
D38*
X133362496Y-97000000D03*
%TD*%
D43*
%TO.C,U25*%
X149708007Y-137900000D03*
X155488007Y-137900000D03*
D44*
X149348007Y-136455000D03*
X150148007Y-136455000D03*
D45*
X151348007Y-136455000D03*
X152348007Y-136455000D03*
X152848007Y-136455000D03*
X153848007Y-136455000D03*
D44*
X155048007Y-136455000D03*
X155848007Y-136455000D03*
X155848007Y-136455000D03*
X155048007Y-136455000D03*
D45*
X154348007Y-136455000D03*
X153348007Y-136455000D03*
X151848007Y-136455000D03*
X150848007Y-136455000D03*
D44*
X150148007Y-136455000D03*
X149348007Y-136455000D03*
D46*
X148278007Y-137370000D03*
D47*
X148278007Y-141550000D03*
D46*
X156918007Y-137370000D03*
D47*
X156918007Y-141550000D03*
%TD*%
D14*
%TO.C,R46*%
X137549997Y-111100000D03*
X135724997Y-111100000D03*
%TD*%
D28*
%TO.C,J44*%
X127137497Y-141300000D03*
D29*
X127137497Y-142749998D03*
%TD*%
D27*
%TO.C,Q8*%
X132587497Y-119562500D03*
X130687497Y-119562500D03*
X131637497Y-121437501D03*
%TD*%
D11*
%TO.C,R49*%
X159418007Y-129400000D03*
X159418007Y-131050000D03*
%TD*%
D48*
%TO.C,D12*%
X145918007Y-134287501D03*
X145918007Y-132712499D03*
%TD*%
D15*
%TO.C,R61*%
X117424997Y-142500000D03*
X119249997Y-142500000D03*
%TD*%
D20*
%TO.C,Q25*%
X135737497Y-126300000D03*
X135737497Y-128200000D03*
X137612498Y-127250000D03*
%TD*%
D51*
%TO.C,U23*%
X132587497Y-130950000D03*
X132587497Y-131600000D03*
X132587497Y-132250000D03*
X134487497Y-132250000D03*
X134487497Y-130950000D03*
%TD*%
D15*
%TO.C,R65*%
X135424997Y-142300000D03*
X137249997Y-142300000D03*
%TD*%
D26*
%TO.C,R66*%
X133337497Y-109887500D03*
X133337497Y-111712500D03*
%TD*%
D15*
%TO.C,R59*%
X130924997Y-128100000D03*
X132749997Y-128100000D03*
%TD*%
D19*
%TO.C,TP13*%
X127737497Y-127800000D03*
%TD*%
D24*
%TO.C,C18*%
X148618007Y-127250000D03*
X148618007Y-128800000D03*
%TD*%
D17*
%TO.C,J55*%
X137137497Y-99600000D03*
D18*
X137137497Y-102140000D03*
X137137497Y-104679999D03*
X137137497Y-107220000D03*
%TD*%
D25*
%TO.C,C20*%
X148618007Y-132075000D03*
X148618007Y-130525000D03*
%TD*%
D21*
%TO.C,J53*%
X152085508Y-128099999D03*
D22*
X152085508Y-127000000D03*
D23*
X152085508Y-125900001D03*
%TD*%
D17*
%TO.C,J58*%
X118337497Y-99600000D03*
D18*
X118337497Y-102140000D03*
X118337497Y-104680000D03*
X118337497Y-107220000D03*
X118337497Y-109760000D03*
X118337497Y-112300000D03*
X118337497Y-114840000D03*
X118337497Y-117380000D03*
X118337497Y-119920000D03*
X118337497Y-122460000D03*
X118337497Y-125000000D03*
X118337497Y-127540000D03*
%TD*%
D20*
%TO.C,Q26*%
X122299997Y-141050000D03*
X122299997Y-142950000D03*
X124174998Y-142000000D03*
%TD*%
D15*
%TO.C,R54*%
X131424997Y-124600000D03*
X133249997Y-124600000D03*
%TD*%
%TO.C,R60*%
X130424997Y-138000000D03*
X132249997Y-138000000D03*
%TD*%
D55*
%TO.C,Q22*%
X122087496Y-102874999D03*
X123987496Y-102874999D03*
X123037496Y-100999998D03*
%TD*%
D49*
%TO.C,C17*%
X152568007Y-123500000D03*
X151018007Y-123500000D03*
%TD*%
D24*
%TO.C,C21*%
X156818007Y-130850000D03*
X156818007Y-132400000D03*
%TD*%
D14*
%TO.C,R55*%
X123849997Y-106000000D03*
X122024997Y-106000000D03*
%TD*%
D31*
%TO.C,U26*%
X135562497Y-137600000D03*
X135562497Y-138549999D03*
X135562497Y-139499998D03*
X137837497Y-139499998D03*
X137837497Y-137600000D03*
%TD*%
D36*
%TO.C,C15*%
X147723007Y-123500000D03*
X149273007Y-123500000D03*
%TD*%
D14*
%TO.C,R52*%
X127337498Y-109300000D03*
X125512498Y-109300000D03*
%TD*%
D15*
%TO.C,R68*%
X125512496Y-106000000D03*
X127337496Y-106000000D03*
%TD*%
D52*
%TO.C,J46*%
X153618008Y-104000000D03*
D53*
X154718007Y-104000000D03*
D54*
X155818006Y-104000000D03*
%TD*%
D14*
%TO.C,R63*%
X123825000Y-109300000D03*
X122000000Y-109300000D03*
%TD*%
D20*
%TO.C,U21*%
X135699997Y-121550000D03*
X135699997Y-123450000D03*
X137574998Y-122500000D03*
%TD*%
D56*
%TO.C,D14*%
X127474997Y-120600000D03*
X125599997Y-120600000D03*
%TD*%
D28*
%TO.C,J48*%
X137137497Y-130775001D03*
D29*
X137137497Y-132224999D03*
%TD*%
D27*
%TO.C,Q10*%
X128687497Y-115656250D03*
X126787497Y-115656250D03*
X127737497Y-117531251D03*
%TD*%
D16*
%TO.C,K3*%
X156118007Y-125300000D03*
X158318007Y-125300000D03*
X158318007Y-123600000D03*
X156118007Y-123600000D03*
%TD*%
D15*
%TO.C,R56*%
X126824997Y-102800000D03*
X128649997Y-102800000D03*
%TD*%
D34*
%TO.C,J63*%
X132462496Y-102400000D03*
D35*
X131012498Y-102400000D03*
%TD*%
D13*
%TO.C,Q23*%
X126474997Y-99200000D03*
X126474997Y-97300000D03*
X124599996Y-98250000D03*
%TD*%
D17*
%TO.C,J51*%
X162718007Y-106360000D03*
D18*
X162718007Y-108900000D03*
X162718007Y-111440000D03*
X162718007Y-113980000D03*
X162718007Y-116520000D03*
X162718007Y-119060000D03*
X162718007Y-121600000D03*
X162718007Y-124140000D03*
X162718007Y-126680000D03*
X162718007Y-129220000D03*
X162718007Y-131760000D03*
X162718007Y-134300000D03*
X162718007Y-136840000D03*
X162718007Y-139380000D03*
X162718007Y-141920000D03*
%TD*%
D15*
%TO.C,R50*%
X122112497Y-117600000D03*
X123937497Y-117600000D03*
%TD*%
D34*
%TO.C,J57*%
X156818007Y-128225000D03*
D35*
X155368009Y-128225000D03*
%TD*%
D14*
%TO.C,R62*%
X127637497Y-134000000D03*
X125812497Y-134000000D03*
%TD*%
D13*
%TO.C,Q27*%
X131974997Y-142750000D03*
X131974997Y-140850000D03*
X130099996Y-141800000D03*
%TD*%
%TO.C,Q28*%
X126874997Y-138450000D03*
X126874997Y-136550000D03*
X124999996Y-137500000D03*
%TD*%
D19*
%TO.C,TP12*%
X121537497Y-98400000D03*
%TD*%
D37*
%TO.C,J60*%
X132012498Y-116800000D03*
D38*
X133462496Y-116800000D03*
%TD*%
D14*
%TO.C,R53*%
X130837497Y-109300000D03*
X129012497Y-109300000D03*
%TD*%
D36*
%TO.C,C14*%
X120787497Y-138300000D03*
X122337497Y-138300000D03*
%TD*%
D58*
%TO.C,J52*%
X117715494Y-135624999D03*
D59*
X117715494Y-134175001D03*
%TD*%
D17*
%TO.C,J49*%
X142418007Y-106340000D03*
D18*
X142418007Y-108880000D03*
X142418007Y-111420000D03*
X142418007Y-113960000D03*
X142418007Y-116500000D03*
X142418007Y-119040000D03*
X142418007Y-121580000D03*
X142418007Y-124120000D03*
X142418007Y-126660000D03*
X142418007Y-129200000D03*
X142418007Y-131740000D03*
X142418007Y-134280000D03*
X142418007Y-136820000D03*
X142418007Y-139360000D03*
X142418007Y-141900000D03*
%TD*%
D31*
%TO.C,U19*%
X120799999Y-133774999D03*
X120799999Y-135674997D03*
X123074999Y-134724998D03*
%TD*%
D34*
%TO.C,J43*%
X133462496Y-114400000D03*
D35*
X132012498Y-114400000D03*
%TD*%
D31*
%TO.C,U27*%
X151743007Y-130500000D03*
X151743007Y-131450000D03*
X151743007Y-132400000D03*
X154018007Y-132400000D03*
X154018007Y-130500000D03*
%TD*%
D19*
%TO.C,TP15*%
X136737497Y-117600000D03*
%TD*%
%TO.C,TP14*%
X129437497Y-133100000D03*
%TD*%
M02*
