%TF.GenerationSoftware,KiCad,Pcbnew,9.0.4*%
%TF.CreationDate,2025-12-21T12:53:01-05:00*%
%TF.ProjectId,Mess-P20+PowerCircuit,4d657373-2d50-4323-902b-506f77657243,rev?*%
%TF.SameCoordinates,Original*%
%TF.FileFunction,Plated,1,2,PTH,Mixed*%
%TF.FilePolarity,Positive*%
%FSLAX46Y46*%
G04 Gerber Fmt 4.6, Leading zero omitted, Abs format (unit mm)*
G04 Created by KiCad (PCBNEW 9.0.4) date 2025-12-21 12:53:01*
%MOMM*%
%LPD*%
G01*
G04 APERTURE LIST*
%TA.AperFunction,ComponentDrill*%
%ADD10C,0.200000*%
%TD*%
%TA.AperFunction,ViaDrill*%
%ADD11C,0.300000*%
%TD*%
%TA.AperFunction,ComponentDrill*%
%ADD12C,0.300000*%
%TD*%
%TA.AperFunction,ComponentDrill*%
%ADD13C,0.500000*%
%TD*%
G04 aperture for slot hole*
%TA.AperFunction,ComponentDrill*%
%ADD14C,0.600000*%
%TD*%
%TA.AperFunction,ComponentDrill*%
%ADD15C,1.000000*%
%TD*%
G04 APERTURE END LIST*
D10*
%TO.C,U32*%
X100686979Y-66643496D03*
X100686979Y-67793496D03*
%TO.C,U56*%
X100686979Y-117205999D03*
X100686979Y-118355999D03*
%TO.C,U32*%
X101836979Y-66643496D03*
X101836979Y-67793496D03*
%TO.C,U56*%
X101836979Y-117205999D03*
X101836979Y-118355999D03*
%TO.C,U44*%
X150686979Y-66643496D03*
X150686979Y-67793496D03*
%TO.C,U20*%
X150686979Y-117205999D03*
X150686979Y-118355999D03*
%TO.C,U44*%
X151836979Y-66643496D03*
X151836979Y-67793496D03*
%TO.C,U20*%
X151836979Y-117205999D03*
X151836979Y-118355999D03*
%TD*%
D11*
X68737497Y-82637497D03*
X68737497Y-88737497D03*
X68737497Y-133200000D03*
X68737497Y-139300000D03*
X71737497Y-68913970D03*
X71737497Y-119476473D03*
X72137497Y-91637497D03*
X72137497Y-142200000D03*
X72724997Y-74437497D03*
X72724997Y-125000000D03*
X73237497Y-84937497D03*
X73237497Y-135500000D03*
X73637497Y-59937497D03*
X73637497Y-110500000D03*
X73686497Y-79536497D03*
X73686497Y-130099000D03*
X74187499Y-50087496D03*
X74187499Y-100649999D03*
X74537497Y-86137497D03*
X74537497Y-136700000D03*
X74737497Y-82837497D03*
X74737497Y-133400000D03*
X76037497Y-90037497D03*
X76037497Y-140600000D03*
X76276287Y-72543536D03*
X76276287Y-123106039D03*
X79137497Y-63737497D03*
X79137497Y-114300000D03*
X80337497Y-47137497D03*
X80337497Y-97700000D03*
X80837497Y-81037497D03*
X80837497Y-131600000D03*
X81037497Y-66337497D03*
X81037497Y-79537497D03*
X81037497Y-116900000D03*
X81037497Y-130100000D03*
X81243777Y-76338500D03*
X81243777Y-126901003D03*
X81837497Y-62537497D03*
X81837497Y-113100000D03*
X82037497Y-86037497D03*
X82037497Y-136600000D03*
X83037497Y-55237497D03*
X83037497Y-105800000D03*
X83337497Y-92237497D03*
X83337497Y-142800000D03*
X83725732Y-67349262D03*
X83725732Y-117911765D03*
X83837497Y-52637497D03*
X83837497Y-103200000D03*
X84137497Y-62437497D03*
X84137497Y-113000000D03*
X84514966Y-67218440D03*
X84514966Y-117780943D03*
X84593747Y-72093747D03*
X84593747Y-122656250D03*
X85137497Y-64237497D03*
X85137497Y-114800000D03*
X85862229Y-90557559D03*
X85862229Y-141120062D03*
X87437497Y-83837497D03*
X87437497Y-134400000D03*
X94918007Y-56837497D03*
X94918007Y-107400000D03*
X95068007Y-62801376D03*
X95068007Y-113363879D03*
X97408387Y-71847117D03*
X97408387Y-122409620D03*
X98361979Y-68287497D03*
X98361979Y-118850000D03*
X98907208Y-66618497D03*
X98907208Y-117181000D03*
X98961979Y-69037497D03*
X98961979Y-119600000D03*
X99611979Y-70218496D03*
X99611979Y-120780999D03*
X99618007Y-81637497D03*
X99618007Y-132200000D03*
X100118007Y-72937497D03*
X100118007Y-123500000D03*
X100418007Y-70918496D03*
X100418007Y-121480999D03*
X101118007Y-55837497D03*
X101118007Y-106400000D03*
X101268007Y-82837497D03*
X101268007Y-133400000D03*
X101483479Y-59751498D03*
X101483479Y-110314001D03*
X101508979Y-63538497D03*
X101508979Y-114101000D03*
X101718007Y-58937497D03*
X101718007Y-109500000D03*
X101956976Y-57617768D03*
X101956976Y-108180271D03*
X102098007Y-88537497D03*
X102098007Y-139100000D03*
X102466023Y-56138011D03*
X102466023Y-106700514D03*
X102618007Y-56923443D03*
X102618007Y-107485946D03*
X103118007Y-78537497D03*
X103118007Y-129100000D03*
X103318007Y-75437497D03*
X103318007Y-126000000D03*
X103658507Y-69368496D03*
X103658507Y-119930999D03*
X104068007Y-72337497D03*
X104068007Y-122900000D03*
X104318007Y-79037497D03*
X104318007Y-129600000D03*
X105500622Y-67220112D03*
X105500622Y-117782615D03*
X105518007Y-83537497D03*
X105518007Y-134100000D03*
X105561979Y-66310225D03*
X105561979Y-116872728D03*
X106211941Y-67882902D03*
X106211941Y-118445405D03*
X106318007Y-69287497D03*
X106318007Y-119850000D03*
X106463176Y-65043328D03*
X106463176Y-115605831D03*
X106911979Y-61118496D03*
X106911979Y-62318496D03*
X106911979Y-111680999D03*
X106911979Y-112880999D03*
X106918007Y-56193496D03*
X106918007Y-106755999D03*
X107268007Y-64606735D03*
X107268007Y-115169238D03*
X107818007Y-77837497D03*
X107818007Y-128400000D03*
X107912487Y-57493495D03*
X107912487Y-108055998D03*
X108924006Y-58143496D03*
X108924006Y-108705999D03*
X109183387Y-69022117D03*
X109183387Y-119584620D03*
X109218007Y-70868496D03*
X109218007Y-121430999D03*
X109268007Y-70070059D03*
X109268007Y-120632562D03*
X109323747Y-60731757D03*
X109323747Y-111294260D03*
X118737497Y-82637497D03*
X118737497Y-88737497D03*
X118737497Y-133200000D03*
X118737497Y-139300000D03*
X121737497Y-68913970D03*
X121737497Y-119476473D03*
X122137497Y-91637497D03*
X122137497Y-142200000D03*
X122724997Y-74437497D03*
X122724997Y-125000000D03*
X123237497Y-84937497D03*
X123237497Y-135500000D03*
X123637497Y-59937497D03*
X123637497Y-110500000D03*
X123686497Y-79536497D03*
X123686497Y-130099000D03*
X124187499Y-50087496D03*
X124187499Y-100649999D03*
X124537497Y-86137497D03*
X124537497Y-136700000D03*
X124737497Y-82837497D03*
X124737497Y-133400000D03*
X126037497Y-90037497D03*
X126037497Y-140600000D03*
X126276287Y-72543536D03*
X126276287Y-123106039D03*
X129137497Y-63737497D03*
X129137497Y-114300000D03*
X130337497Y-47137497D03*
X130337497Y-97700000D03*
X130837497Y-81037497D03*
X130837497Y-131600000D03*
X131037497Y-66337497D03*
X131037497Y-79537497D03*
X131037497Y-116900000D03*
X131037497Y-130100000D03*
X131243777Y-76338500D03*
X131243777Y-126901003D03*
X131837497Y-62537497D03*
X131837497Y-113100000D03*
X132037497Y-86037497D03*
X132037497Y-136600000D03*
X133037497Y-55237497D03*
X133037497Y-105800000D03*
X133337497Y-92237497D03*
X133337497Y-142800000D03*
X133725732Y-67349262D03*
X133725732Y-117911765D03*
X133837497Y-52637497D03*
X133837497Y-103200000D03*
X134137497Y-62437497D03*
X134137497Y-113000000D03*
X134514966Y-67218440D03*
X134514966Y-117780943D03*
X134593747Y-72093747D03*
X134593747Y-122656250D03*
X135137497Y-64237497D03*
X135137497Y-114800000D03*
X135862229Y-90557559D03*
X135862229Y-141120062D03*
X137437497Y-83837497D03*
X137437497Y-134400000D03*
X144918007Y-56837497D03*
X144918007Y-107400000D03*
X145068007Y-62801376D03*
X145068007Y-113363879D03*
X147408387Y-71847117D03*
X147408387Y-122409620D03*
X148361979Y-68287497D03*
X148361979Y-118850000D03*
X148907208Y-66618497D03*
X148907208Y-117181000D03*
X148961979Y-69037497D03*
X148961979Y-119600000D03*
X149611979Y-70218496D03*
X149611979Y-120780999D03*
X149618007Y-81637497D03*
X149618007Y-132200000D03*
X150118007Y-72937497D03*
X150118007Y-123500000D03*
X150418007Y-70918496D03*
X150418007Y-121480999D03*
X151118007Y-55837497D03*
X151118007Y-106400000D03*
X151268007Y-82837497D03*
X151268007Y-133400000D03*
X151483479Y-59751498D03*
X151483479Y-110314001D03*
X151508979Y-63538497D03*
X151508979Y-114101000D03*
X151718007Y-58937497D03*
X151718007Y-109500000D03*
X151956976Y-57617768D03*
X151956976Y-108180271D03*
X152098007Y-88537497D03*
X152098007Y-139100000D03*
X152466023Y-56138011D03*
X152466023Y-106700514D03*
X152618007Y-56923443D03*
X152618007Y-107485946D03*
X153118007Y-78537497D03*
X153118007Y-129100000D03*
X153318007Y-75437497D03*
X153318007Y-126000000D03*
X153658507Y-69368496D03*
X153658507Y-119930999D03*
X154068007Y-72337497D03*
X154068007Y-122900000D03*
X154318007Y-79037497D03*
X154318007Y-129600000D03*
X155500622Y-67220112D03*
X155500622Y-117782615D03*
X155518007Y-83537497D03*
X155518007Y-134100000D03*
X155561979Y-66310225D03*
X155561979Y-116872728D03*
X156211941Y-67882902D03*
X156211941Y-118445405D03*
X156318007Y-69287497D03*
X156318007Y-119850000D03*
X156463176Y-65043328D03*
X156463176Y-115605831D03*
X156911979Y-61118496D03*
X156911979Y-62318496D03*
X156911979Y-111680999D03*
X156911979Y-112880999D03*
X156918007Y-56193496D03*
X156918007Y-106755999D03*
X157268007Y-64606735D03*
X157268007Y-115169238D03*
X157818007Y-77837497D03*
X157818007Y-128400000D03*
X157912487Y-57493495D03*
X157912487Y-108055998D03*
X158924006Y-58143496D03*
X158924006Y-108705999D03*
X159183387Y-69022117D03*
X159183387Y-119584620D03*
X159218007Y-70868496D03*
X159218007Y-121430999D03*
X159268007Y-70070059D03*
X159268007Y-120632562D03*
X159323747Y-60731757D03*
X159323747Y-111294260D03*
D12*
%TO.C,AE5*%
X109418007Y-50637497D03*
%TO.C,AE7*%
X109418007Y-101200000D03*
%TO.C,AE6*%
X159418007Y-50637497D03*
%TO.C,AE4*%
X159418007Y-101200000D03*
D13*
%TO.C,TP17*%
X71537497Y-47837497D03*
%TO.C,TP27*%
X71537497Y-98400000D03*
%TO.C,TP18*%
X77737497Y-77237497D03*
%TO.C,TP28*%
X77737497Y-127800000D03*
%TO.C,TP19*%
X79437497Y-82537497D03*
%TO.C,TP29*%
X79437497Y-133100000D03*
%TO.C,TP16*%
X80937497Y-61437497D03*
%TO.C,TP26*%
X80937497Y-112000000D03*
%TO.C,TP20*%
X86737497Y-67037497D03*
%TO.C,TP30*%
X86737497Y-117600000D03*
%TO.C,J80*%
X86937497Y-63137497D03*
X86937497Y-64137497D03*
%TO.C,J128*%
X86937497Y-113700000D03*
X86937497Y-114700000D03*
%TO.C,TP22*%
X121537497Y-47837497D03*
%TO.C,TP12*%
X121537497Y-98400000D03*
%TO.C,TP23*%
X127737497Y-77237497D03*
%TO.C,TP13*%
X127737497Y-127800000D03*
%TO.C,TP24*%
X129437497Y-82537497D03*
%TO.C,TP14*%
X129437497Y-133100000D03*
%TO.C,TP21*%
X130937497Y-61437497D03*
%TO.C,TP11*%
X130937497Y-112000000D03*
%TO.C,TP25*%
X136737497Y-67037497D03*
%TO.C,TP15*%
X136737497Y-117600000D03*
%TO.C,J104*%
X136937497Y-63137497D03*
X136937497Y-64137497D03*
%TO.C,J56*%
X136937497Y-113700000D03*
X136937497Y-114700000D03*
D14*
%TO.C,U37*%
X98278007Y-87357497D02*
X98278007Y-86257497D01*
X98278007Y-91287497D02*
X98278007Y-90687497D01*
%TO.C,U61*%
X98278007Y-137920000D02*
X98278007Y-136820000D01*
X98278007Y-141850000D02*
X98278007Y-141250000D01*
%TO.C,U37*%
X106918007Y-87357497D02*
X106918007Y-86257497D01*
X106918007Y-91287497D02*
X106918007Y-90687497D01*
%TO.C,U61*%
X106918007Y-137920000D02*
X106918007Y-136820000D01*
X106918007Y-141850000D02*
X106918007Y-141250000D01*
%TO.C,U49*%
X148278007Y-87357497D02*
X148278007Y-86257497D01*
X148278007Y-91287497D02*
X148278007Y-90687497D01*
%TO.C,U25*%
X148278007Y-137920000D02*
X148278007Y-136820000D01*
X148278007Y-141850000D02*
X148278007Y-141250000D01*
%TO.C,U49*%
X156918007Y-87357497D02*
X156918007Y-86257497D01*
X156918007Y-91287497D02*
X156918007Y-90687497D01*
%TO.C,U25*%
X156918007Y-137920000D02*
X156918007Y-136820000D01*
X156918007Y-141850000D02*
X156918007Y-141250000D01*
D15*
%TO.C,J82*%
X68337497Y-49037497D03*
X68337497Y-51577497D03*
X68337497Y-54117497D03*
X68337497Y-56657497D03*
X68337497Y-59197497D03*
X68337497Y-61737497D03*
X68337497Y-64277497D03*
X68337497Y-66817497D03*
X68337497Y-69357497D03*
X68337497Y-71897497D03*
X68337497Y-74437497D03*
X68337497Y-76977497D03*
%TO.C,J130*%
X68337497Y-99600000D03*
X68337497Y-102140000D03*
X68337497Y-104680000D03*
X68337497Y-107220000D03*
X68337497Y-109760000D03*
X68337497Y-112300000D03*
X68337497Y-114840000D03*
X68337497Y-117380000D03*
X68337497Y-119920000D03*
X68337497Y-122460000D03*
X68337497Y-125000000D03*
X68337497Y-127540000D03*
%TO.C,J90*%
X83037497Y-49037497D03*
%TO.C,J138*%
X83037497Y-99600000D03*
%TO.C,J79*%
X87137497Y-49037497D03*
X87137497Y-51577497D03*
X87137497Y-54117496D03*
X87137497Y-56657497D03*
%TO.C,J127*%
X87137497Y-99600000D03*
X87137497Y-102140000D03*
X87137497Y-104679999D03*
X87137497Y-107220000D03*
%TO.C,J73*%
X92418007Y-55777497D03*
X92418007Y-58317497D03*
X92418007Y-60857497D03*
X92418007Y-63397497D03*
X92418007Y-65937497D03*
X92418007Y-68477497D03*
X92418007Y-71017497D03*
X92418007Y-73557497D03*
X92418007Y-76097497D03*
X92418007Y-78637497D03*
X92418007Y-81177497D03*
X92418007Y-83717497D03*
X92418007Y-86257497D03*
X92418007Y-88797497D03*
X92418007Y-91337497D03*
%TO.C,J121*%
X92418007Y-106340000D03*
X92418007Y-108880000D03*
X92418007Y-111420000D03*
X92418007Y-113960000D03*
X92418007Y-116500000D03*
X92418007Y-119040000D03*
X92418007Y-121580000D03*
X92418007Y-124120000D03*
X92418007Y-126660000D03*
X92418007Y-129200000D03*
X92418007Y-131740000D03*
X92418007Y-134280000D03*
X92418007Y-136820000D03*
X92418007Y-139360000D03*
X92418007Y-141900000D03*
%TO.C,J75*%
X112718007Y-55797497D03*
X112718007Y-58337497D03*
X112718007Y-60877497D03*
X112718007Y-63417497D03*
X112718007Y-65957497D03*
X112718007Y-68497497D03*
X112718007Y-71037497D03*
X112718007Y-73577497D03*
X112718007Y-76117497D03*
X112718007Y-78657497D03*
X112718007Y-81197497D03*
X112718007Y-83737497D03*
X112718007Y-86277497D03*
X112718007Y-88817497D03*
X112718007Y-91357497D03*
%TO.C,J123*%
X112718007Y-106360000D03*
X112718007Y-108900000D03*
X112718007Y-111440000D03*
X112718007Y-113980000D03*
X112718007Y-116520000D03*
X112718007Y-119060000D03*
X112718007Y-121600000D03*
X112718007Y-124140000D03*
X112718007Y-126680000D03*
X112718007Y-129220000D03*
X112718007Y-131760000D03*
X112718007Y-134300000D03*
X112718007Y-136840000D03*
X112718007Y-139380000D03*
X112718007Y-141920000D03*
%TO.C,J106*%
X118337497Y-49037497D03*
X118337497Y-51577497D03*
X118337497Y-54117497D03*
X118337497Y-56657497D03*
X118337497Y-59197497D03*
X118337497Y-61737497D03*
X118337497Y-64277497D03*
X118337497Y-66817497D03*
X118337497Y-69357497D03*
X118337497Y-71897497D03*
X118337497Y-74437497D03*
X118337497Y-76977497D03*
%TO.C,J58*%
X118337497Y-99600000D03*
X118337497Y-102140000D03*
X118337497Y-104680000D03*
X118337497Y-107220000D03*
X118337497Y-109760000D03*
X118337497Y-112300000D03*
X118337497Y-114840000D03*
X118337497Y-117380000D03*
X118337497Y-119920000D03*
X118337497Y-122460000D03*
X118337497Y-125000000D03*
X118337497Y-127540000D03*
%TO.C,J114*%
X133037497Y-49037497D03*
%TO.C,J66*%
X133037497Y-99600000D03*
%TO.C,J103*%
X137137497Y-49037497D03*
X137137497Y-51577497D03*
X137137497Y-54117496D03*
X137137497Y-56657497D03*
%TO.C,J55*%
X137137497Y-99600000D03*
X137137497Y-102140000D03*
X137137497Y-104679999D03*
X137137497Y-107220000D03*
%TO.C,J97*%
X142418007Y-55777497D03*
X142418007Y-58317497D03*
X142418007Y-60857497D03*
X142418007Y-63397497D03*
X142418007Y-65937497D03*
X142418007Y-68477497D03*
X142418007Y-71017497D03*
X142418007Y-73557497D03*
X142418007Y-76097497D03*
X142418007Y-78637497D03*
X142418007Y-81177497D03*
X142418007Y-83717497D03*
X142418007Y-86257497D03*
X142418007Y-88797497D03*
X142418007Y-91337497D03*
%TO.C,J49*%
X142418007Y-106340000D03*
X142418007Y-108880000D03*
X142418007Y-111420000D03*
X142418007Y-113960000D03*
X142418007Y-116500000D03*
X142418007Y-119040000D03*
X142418007Y-121580000D03*
X142418007Y-124120000D03*
X142418007Y-126660000D03*
X142418007Y-129200000D03*
X142418007Y-131740000D03*
X142418007Y-134280000D03*
X142418007Y-136820000D03*
X142418007Y-139360000D03*
X142418007Y-141900000D03*
%TO.C,J99*%
X162718007Y-55797497D03*
X162718007Y-58337497D03*
X162718007Y-60877497D03*
X162718007Y-63417497D03*
X162718007Y-65957497D03*
X162718007Y-68497497D03*
X162718007Y-71037497D03*
X162718007Y-73577497D03*
X162718007Y-76117497D03*
X162718007Y-78657497D03*
X162718007Y-81197497D03*
X162718007Y-83737497D03*
X162718007Y-86277497D03*
X162718007Y-88817497D03*
X162718007Y-91357497D03*
%TO.C,J51*%
X162718007Y-106360000D03*
X162718007Y-108900000D03*
X162718007Y-111440000D03*
X162718007Y-113980000D03*
X162718007Y-116520000D03*
X162718007Y-119060000D03*
X162718007Y-121600000D03*
X162718007Y-124140000D03*
X162718007Y-126680000D03*
X162718007Y-129220000D03*
X162718007Y-131760000D03*
X162718007Y-134300000D03*
X162718007Y-136840000D03*
X162718007Y-139380000D03*
X162718007Y-141920000D03*
M02*
