%TF.GenerationSoftware,KiCad,Pcbnew,9.0.4*%
%TF.CreationDate,2025-12-22T16:52:56-05:00*%
%TF.ProjectId,Mess-P20+PowerCircuit,4d657373-2d50-4323-902b-506f77657243,rev?*%
%TF.SameCoordinates,Original*%
%TF.FileFunction,Paste,Bot*%
%TF.FilePolarity,Positive*%
%FSLAX46Y46*%
G04 Gerber Fmt 4.6, Leading zero omitted, Abs format (unit mm)*
G04 Created by KiCad (PCBNEW 9.0.4) date 2025-12-22 16:52:56*
%MOMM*%
%LPD*%
G01*
G04 APERTURE LIST*
G04 Aperture macros list*
%AMRoundRect*
0 Rectangle with rounded corners*
0 $1 Rounding radius*
0 $2 $3 $4 $5 $6 $7 $8 $9 X,Y pos of 4 corners*
0 Add a 4 corners polygon primitive as box body*
4,1,4,$2,$3,$4,$5,$6,$7,$8,$9,$2,$3,0*
0 Add four circle primitives for the rounded corners*
1,1,$1+$1,$2,$3*
1,1,$1+$1,$4,$5*
1,1,$1+$1,$6,$7*
1,1,$1+$1,$8,$9*
0 Add four rect primitives between the rounded corners*
20,1,$1+$1,$2,$3,$4,$5,0*
20,1,$1+$1,$4,$5,$6,$7,0*
20,1,$1+$1,$6,$7,$8,$9,0*
20,1,$1+$1,$8,$9,$2,$3,0*%
G04 Aperture macros list end*
%ADD10RoundRect,0.250000X0.262500X0.450000X-0.262500X0.450000X-0.262500X-0.450000X0.262500X-0.450000X0*%
%ADD11RoundRect,0.087500X0.087500X-0.250000X0.087500X0.250000X-0.087500X0.250000X-0.087500X-0.250000X0*%
%ADD12RoundRect,0.150000X-0.850000X-0.150000X0.850000X-0.150000X0.850000X0.150000X-0.850000X0.150000X0*%
%ADD13RoundRect,0.150000X-0.150000X0.512500X-0.150000X-0.512500X0.150000X-0.512500X0.150000X0.512500X0*%
%ADD14RoundRect,0.225000X0.225000X0.250000X-0.225000X0.250000X-0.225000X-0.250000X0.225000X-0.250000X0*%
%ADD15R,2.700000X1.000000*%
%ADD16RoundRect,0.225000X-0.250000X0.225000X-0.250000X-0.225000X0.250000X-0.225000X0.250000X0.225000X0*%
%ADD17RoundRect,0.250000X-0.262500X-0.450000X0.262500X-0.450000X0.262500X0.450000X-0.262500X0.450000X0*%
G04 APERTURE END LIST*
D10*
%TO.C,R67*%
X131649997Y-121100000D03*
X129824997Y-121100000D03*
%TD*%
D11*
%TO.C,U54*%
X129437497Y-75137497D03*
X128937497Y-75137498D03*
X128437497Y-75137497D03*
X128437497Y-73712497D03*
X128937497Y-73712496D03*
X129437497Y-73712497D03*
%TD*%
%TO.C,U66*%
X79437497Y-125700000D03*
X78937497Y-125700001D03*
X78437497Y-125700000D03*
X78437497Y-124275000D03*
X78937497Y-124274999D03*
X79437497Y-124275000D03*
%TD*%
D12*
%TO.C,U24*%
X149911979Y-115971000D03*
X149911979Y-114701000D03*
X149911979Y-113431000D03*
X149911979Y-112161000D03*
X149911979Y-110891000D03*
X149911979Y-109621000D03*
X149911979Y-108351000D03*
X149911979Y-107081000D03*
X154911979Y-107081000D03*
X154911979Y-108351000D03*
X154911979Y-109621000D03*
X154911979Y-110891000D03*
X154911979Y-112161000D03*
X154911979Y-113431000D03*
X154911979Y-114701000D03*
X154911979Y-115971000D03*
%TD*%
D10*
%TO.C,R115*%
X131649997Y-70537497D03*
X129824997Y-70537497D03*
%TD*%
D12*
%TO.C,U60*%
X99911979Y-115971000D03*
X99911979Y-114701000D03*
X99911979Y-113431000D03*
X99911979Y-112161000D03*
X99911979Y-110891000D03*
X99911979Y-109621000D03*
X99911979Y-108351000D03*
X99911979Y-107081000D03*
X104911979Y-107081000D03*
X104911979Y-108351000D03*
X104911979Y-109621000D03*
X104911979Y-110891000D03*
X104911979Y-112161000D03*
X104911979Y-113431000D03*
X104911979Y-114701000D03*
X104911979Y-115971000D03*
%TD*%
D10*
%TO.C,R139*%
X81649997Y-121100000D03*
X79824997Y-121100000D03*
%TD*%
D13*
%TO.C,U53*%
X155568007Y-80262497D03*
X157468007Y-80262497D03*
X156518007Y-82537497D03*
%TD*%
%TO.C,U65*%
X105568007Y-130825000D03*
X107468007Y-130825000D03*
X106518007Y-133100000D03*
%TD*%
D14*
%TO.C,C43*%
X84812497Y-121100000D03*
X83262497Y-121100000D03*
%TD*%
D15*
%TO.C,L6*%
X83037497Y-126099999D03*
X83037497Y-123900001D03*
%TD*%
D14*
%TO.C,C19*%
X134812497Y-121100000D03*
X133262497Y-121100000D03*
%TD*%
D16*
%TO.C,C32*%
X126237497Y-73662497D03*
X126237497Y-75212497D03*
%TD*%
%TO.C,C24*%
X76237497Y-73662497D03*
X76237497Y-75212497D03*
%TD*%
D17*
%TO.C,R112*%
X126312497Y-70537497D03*
X128137497Y-70537497D03*
%TD*%
D13*
%TO.C,U29*%
X155568007Y-130825000D03*
X157468007Y-130825000D03*
X156518007Y-133100000D03*
%TD*%
D10*
%TO.C,R91*%
X81649997Y-70537497D03*
X79824997Y-70537497D03*
%TD*%
D12*
%TO.C,U36*%
X99911979Y-65408497D03*
X99911979Y-64138497D03*
X99911979Y-62868497D03*
X99911979Y-61598497D03*
X99911979Y-60328497D03*
X99911979Y-59058497D03*
X99911979Y-57788497D03*
X99911979Y-56518497D03*
X104911979Y-56518497D03*
X104911979Y-57788497D03*
X104911979Y-59058497D03*
X104911979Y-60328497D03*
X104911979Y-61598497D03*
X104911979Y-62868497D03*
X104911979Y-64138497D03*
X104911979Y-65408497D03*
%TD*%
D17*
%TO.C,R64*%
X126312497Y-121100000D03*
X128137497Y-121100000D03*
%TD*%
D14*
%TO.C,C27*%
X84812497Y-70537497D03*
X83262497Y-70537497D03*
%TD*%
D15*
%TO.C,L4*%
X83037497Y-75537496D03*
X83037497Y-73337498D03*
%TD*%
%TO.C,L3*%
X133037497Y-126099999D03*
X133037497Y-123900001D03*
%TD*%
D11*
%TO.C,U30*%
X129437497Y-125700000D03*
X128937497Y-125700001D03*
X128437497Y-125700000D03*
X128437497Y-124275000D03*
X128937497Y-124274999D03*
X129437497Y-124275000D03*
%TD*%
%TO.C,U42*%
X79437497Y-75137497D03*
X78937497Y-75137498D03*
X78437497Y-75137497D03*
X78437497Y-73712497D03*
X78937497Y-73712496D03*
X79437497Y-73712497D03*
%TD*%
D16*
%TO.C,C16*%
X126237497Y-124225000D03*
X126237497Y-125775000D03*
%TD*%
D15*
%TO.C,L5*%
X133037497Y-75537496D03*
X133037497Y-73337498D03*
%TD*%
D12*
%TO.C,U48*%
X149911979Y-65408497D03*
X149911979Y-64138497D03*
X149911979Y-62868497D03*
X149911979Y-61598497D03*
X149911979Y-60328497D03*
X149911979Y-59058497D03*
X149911979Y-57788497D03*
X149911979Y-56518497D03*
X154911979Y-56518497D03*
X154911979Y-57788497D03*
X154911979Y-59058497D03*
X154911979Y-60328497D03*
X154911979Y-61598497D03*
X154911979Y-62868497D03*
X154911979Y-64138497D03*
X154911979Y-65408497D03*
%TD*%
D14*
%TO.C,C35*%
X134812497Y-70537497D03*
X133262497Y-70537497D03*
%TD*%
D13*
%TO.C,U41*%
X105568007Y-80262497D03*
X107468007Y-80262497D03*
X106518007Y-82537497D03*
%TD*%
D17*
%TO.C,R136*%
X76312497Y-121100000D03*
X78137497Y-121100000D03*
%TD*%
D16*
%TO.C,C40*%
X76237497Y-124225000D03*
X76237497Y-125775000D03*
%TD*%
D17*
%TO.C,R88*%
X76312497Y-70537497D03*
X78137497Y-70537497D03*
%TD*%
M02*
