%TF.GenerationSoftware,KiCad,Pcbnew,9.0.4*%
%TF.CreationDate,2025-12-22T16:52:56-05:00*%
%TF.ProjectId,Mess-P20+PowerCircuit,4d657373-2d50-4323-902b-506f77657243,rev?*%
%TF.SameCoordinates,Original*%
%TF.FileFunction,Paste,Top*%
%TF.FilePolarity,Positive*%
%FSLAX46Y46*%
G04 Gerber Fmt 4.6, Leading zero omitted, Abs format (unit mm)*
G04 Created by KiCad (PCBNEW 9.0.4) date 2025-12-22 16:52:56*
%MOMM*%
%LPD*%
G01*
G04 APERTURE LIST*
G04 Aperture macros list*
%AMRoundRect*
0 Rectangle with rounded corners*
0 $1 Rounding radius*
0 $2 $3 $4 $5 $6 $7 $8 $9 X,Y pos of 4 corners*
0 Add a 4 corners polygon primitive as box body*
4,1,4,$2,$3,$4,$5,$6,$7,$8,$9,$2,$3,0*
0 Add four circle primitives for the rounded corners*
1,1,$1+$1,$2,$3*
1,1,$1+$1,$4,$5*
1,1,$1+$1,$6,$7*
1,1,$1+$1,$8,$9*
0 Add four rect primitives between the rounded corners*
20,1,$1+$1,$2,$3,$4,$5,0*
20,1,$1+$1,$4,$5,$6,$7,0*
20,1,$1+$1,$6,$7,$8,$9,0*
20,1,$1+$1,$8,$9,$2,$3,0*%
G04 Aperture macros list end*
%ADD10R,0.600000X1.450000*%
%ADD11R,0.300000X1.450000*%
%ADD12RoundRect,0.150000X0.587500X0.150000X-0.587500X0.150000X-0.587500X-0.150000X0.587500X-0.150000X0*%
%ADD13RoundRect,0.250000X-0.262500X-0.450000X0.262500X-0.450000X0.262500X0.450000X-0.262500X0.450000X0*%
%ADD14RoundRect,0.250000X0.262500X0.450000X-0.262500X0.450000X-0.262500X-0.450000X0.262500X-0.450000X0*%
%ADD15RoundRect,0.150000X-0.587500X-0.150000X0.587500X-0.150000X0.587500X0.150000X-0.587500X0.150000X0*%
%ADD16RoundRect,0.200000X0.275000X-0.200000X0.275000X0.200000X-0.275000X0.200000X-0.275000X-0.200000X0*%
%ADD17RoundRect,0.100000X-0.637500X-0.100000X0.637500X-0.100000X0.637500X0.100000X-0.637500X0.100000X0*%
%ADD18RoundRect,0.218750X0.256250X-0.218750X0.256250X0.218750X-0.256250X0.218750X-0.256250X-0.218750X0*%
%ADD19RoundRect,0.150000X0.150000X-0.587500X0.150000X0.587500X-0.150000X0.587500X-0.150000X-0.587500X0*%
%ADD20RoundRect,0.112500X0.112500X-0.187500X0.112500X0.187500X-0.112500X0.187500X-0.112500X-0.187500X0*%
%ADD21RoundRect,0.218750X-0.218750X-0.256250X0.218750X-0.256250X0.218750X0.256250X-0.218750X0.256250X0*%
%ADD22RoundRect,0.150000X-0.512500X-0.150000X0.512500X-0.150000X0.512500X0.150000X-0.512500X0.150000X0*%
%ADD23RoundRect,0.225000X0.225000X0.250000X-0.225000X0.250000X-0.225000X-0.250000X0.225000X-0.250000X0*%
%ADD24RoundRect,0.225000X0.250000X-0.225000X0.250000X0.225000X-0.250000X0.225000X-0.250000X-0.225000X0*%
%ADD25RoundRect,0.225000X-0.225000X-0.250000X0.225000X-0.250000X0.225000X0.250000X-0.225000X0.250000X0*%
%ADD26RoundRect,0.112500X0.187500X0.112500X-0.187500X0.112500X-0.187500X-0.112500X0.187500X-0.112500X0*%
%ADD27RoundRect,0.200000X-0.275000X0.200000X-0.275000X-0.200000X0.275000X-0.200000X0.275000X0.200000X0*%
%ADD28RoundRect,0.243750X0.243750X0.456250X-0.243750X0.456250X-0.243750X-0.456250X0.243750X-0.456250X0*%
%ADD29RoundRect,0.172500X-0.172500X0.172500X-0.172500X-0.172500X0.172500X-0.172500X0.172500X0.172500X0*%
%ADD30RoundRect,0.050000X-0.050000X0.375000X-0.050000X-0.375000X0.050000X-0.375000X0.050000X0.375000X0*%
%ADD31RoundRect,0.050000X-0.375000X0.050000X-0.375000X-0.050000X0.375000X-0.050000X0.375000X0.050000X0*%
%ADD32RoundRect,0.150000X-0.150000X0.587500X-0.150000X-0.587500X0.150000X-0.587500X0.150000X0.587500X0*%
%ADD33RoundRect,0.225000X-0.250000X0.225000X-0.250000X-0.225000X0.250000X-0.225000X0.250000X0.225000X0*%
%ADD34RoundRect,0.225000X-0.225000X-0.375000X0.225000X-0.375000X0.225000X0.375000X-0.225000X0.375000X0*%
%ADD35RoundRect,0.250000X-0.450000X-0.350000X0.450000X-0.350000X0.450000X0.350000X-0.450000X0.350000X0*%
%ADD36RoundRect,0.100000X-0.225000X-0.100000X0.225000X-0.100000X0.225000X0.100000X-0.225000X0.100000X0*%
%ADD37RoundRect,0.250000X-0.450000X0.262500X-0.450000X-0.262500X0.450000X-0.262500X0.450000X0.262500X0*%
G04 APERTURE END LIST*
D10*
%TO.C,U61*%
X99348007Y-136455000D03*
X100148007Y-136455000D03*
D11*
X101348007Y-136455000D03*
X102348007Y-136455000D03*
X102848007Y-136455000D03*
X103848007Y-136455000D03*
D10*
X105048007Y-136455000D03*
X105848007Y-136455000D03*
X105848007Y-136455000D03*
X105048007Y-136455000D03*
D11*
X104348007Y-136455000D03*
X103348007Y-136455000D03*
X101848007Y-136455000D03*
X100848007Y-136455000D03*
D10*
X100148007Y-136455000D03*
X99348007Y-136455000D03*
%TD*%
%TO.C,U49*%
X149348007Y-85892497D03*
X150148007Y-85892497D03*
D11*
X151348007Y-85892497D03*
X152348007Y-85892497D03*
X152848007Y-85892497D03*
X153848007Y-85892497D03*
D10*
X155048007Y-85892497D03*
X155848007Y-85892497D03*
X155848007Y-85892497D03*
X155048007Y-85892497D03*
D11*
X154348007Y-85892497D03*
X153348007Y-85892497D03*
X151848007Y-85892497D03*
X150848007Y-85892497D03*
D10*
X150148007Y-85892497D03*
X149348007Y-85892497D03*
%TD*%
D12*
%TO.C,U52*%
X133074997Y-56287497D03*
X133074997Y-54387497D03*
X131199996Y-55337497D03*
%TD*%
D13*
%TO.C,R98*%
X122112497Y-67037497D03*
X123937497Y-67037497D03*
%TD*%
D14*
%TO.C,R103*%
X123849997Y-55437497D03*
X122024997Y-55437497D03*
%TD*%
D15*
%TO.C,Q24*%
X122399997Y-126050000D03*
X122399997Y-127950000D03*
X124274998Y-127000000D03*
%TD*%
D13*
%TO.C,R58*%
X127212497Y-131200000D03*
X129037497Y-131200000D03*
%TD*%
%TO.C,R74*%
X72112497Y-67037497D03*
X73937497Y-67037497D03*
%TD*%
D16*
%TO.C,R119*%
X109418007Y-134350000D03*
X109418007Y-132700000D03*
%TD*%
D17*
%TO.C,U58*%
X99486979Y-106755999D03*
X99486979Y-107405999D03*
X99486979Y-108055999D03*
X99486979Y-108705999D03*
X99486979Y-109355999D03*
X99486979Y-110005999D03*
X99486979Y-110655999D03*
X99486979Y-111305999D03*
X99486979Y-111955999D03*
X99486979Y-112605999D03*
X105211979Y-112605999D03*
X105211979Y-111955999D03*
X105211979Y-111305999D03*
X105211979Y-110655999D03*
X105211979Y-110005999D03*
X105211979Y-109355999D03*
X105211979Y-108705999D03*
X105211979Y-108055999D03*
X105211979Y-107405999D03*
X105211979Y-106755999D03*
%TD*%
D14*
%TO.C,R77*%
X80837497Y-58737497D03*
X79012497Y-58737497D03*
%TD*%
%TO.C,R87*%
X73825000Y-58737497D03*
X72000000Y-58737497D03*
%TD*%
%TO.C,R57*%
X123949997Y-123400000D03*
X122124997Y-123400000D03*
%TD*%
%TO.C,R94*%
X137549997Y-60537497D03*
X135724997Y-60537497D03*
%TD*%
D18*
%TO.C,D30*%
X95918007Y-134287501D03*
X95918007Y-132712499D03*
%TD*%
D13*
%TO.C,R92*%
X75512496Y-55437497D03*
X77337496Y-55437497D03*
%TD*%
D19*
%TO.C,Q21*%
X122087497Y-114437500D03*
X123987497Y-114437500D03*
X123037497Y-112562499D03*
%TD*%
D13*
%TO.C,R109*%
X117424997Y-91937497D03*
X119249997Y-91937497D03*
%TD*%
D15*
%TO.C,Q49*%
X85737497Y-126300000D03*
X85737497Y-128200000D03*
X87612498Y-127250000D03*
%TD*%
D14*
%TO.C,R118*%
X87549997Y-111100000D03*
X85724997Y-111100000D03*
%TD*%
D19*
%TO.C,Q46*%
X72087496Y-102874999D03*
X73987496Y-102874999D03*
X73037496Y-100999998D03*
%TD*%
D20*
%TO.C,D29*%
X117715495Y-88937496D03*
X117715495Y-86837496D03*
%TD*%
D13*
%TO.C,R113*%
X135424997Y-91737497D03*
X137249997Y-91737497D03*
%TD*%
D21*
%TO.C,D13*%
X122049997Y-120600000D03*
X123624997Y-120600000D03*
%TD*%
D13*
%TO.C,R108*%
X130424997Y-87437497D03*
X132249997Y-87437497D03*
%TD*%
D22*
%TO.C,U63*%
X101743007Y-130500000D03*
X101743007Y-131450000D03*
X101743007Y-132400000D03*
X104018007Y-132400000D03*
X104018007Y-130500000D03*
%TD*%
D12*
%TO.C,U28*%
X133074997Y-106850000D03*
X133074997Y-104950000D03*
X131199996Y-105900000D03*
%TD*%
D13*
%TO.C,R89*%
X85424997Y-91737497D03*
X87249997Y-91737497D03*
%TD*%
%TO.C,R104*%
X126824997Y-52237497D03*
X128649997Y-52237497D03*
%TD*%
D23*
%TO.C,C25*%
X102568007Y-72937497D03*
X101018007Y-72937497D03*
%TD*%
D13*
%TO.C,R133*%
X67424997Y-142500000D03*
X69249997Y-142500000D03*
%TD*%
D24*
%TO.C,C36*%
X148618007Y-81512497D03*
X148618007Y-79962497D03*
%TD*%
D13*
%TO.C,R69*%
X126924997Y-124200000D03*
X128749997Y-124200000D03*
%TD*%
D25*
%TO.C,C23*%
X97723007Y-72937497D03*
X99273007Y-72937497D03*
%TD*%
D26*
%TO.C,D16*%
X119387497Y-131200000D03*
X117287497Y-131200000D03*
%TD*%
D15*
%TO.C,U45*%
X135699997Y-70987497D03*
X135699997Y-72887497D03*
X137574998Y-71937497D03*
%TD*%
D27*
%TO.C,R51*%
X145918007Y-129350000D03*
X145918007Y-131000000D03*
%TD*%
D12*
%TO.C,Q36*%
X76874997Y-87887497D03*
X76874997Y-85987497D03*
X74999996Y-86937497D03*
%TD*%
D27*
%TO.C,R99*%
X145918007Y-78787497D03*
X145918007Y-80437497D03*
%TD*%
D13*
%TO.C,R85*%
X67424997Y-91937497D03*
X69249997Y-91937497D03*
%TD*%
D14*
%TO.C,R72*%
X78849996Y-62368747D03*
X77024996Y-62368747D03*
%TD*%
D28*
%TO.C,D32*%
X77474997Y-120600000D03*
X75599997Y-120600000D03*
%TD*%
D19*
%TO.C,Q30*%
X72087496Y-52312496D03*
X73987496Y-52312496D03*
X73037496Y-50437495D03*
%TD*%
D29*
%TO.C,U20*%
X151671979Y-117370999D03*
X150851979Y-117370999D03*
X151671979Y-118190999D03*
X150851979Y-118190999D03*
D30*
X152061979Y-116330999D03*
X151661979Y-116330999D03*
X151261979Y-116330999D03*
X150861979Y-116330999D03*
X150461979Y-116330999D03*
D31*
X149811979Y-116980999D03*
X149811979Y-117380999D03*
X149811979Y-117780999D03*
X149811979Y-118180999D03*
X149811979Y-118580999D03*
D30*
X150461979Y-119230999D03*
X150861979Y-119230999D03*
X151261979Y-119230999D03*
X151661979Y-119230999D03*
X152061979Y-119230999D03*
D31*
X152711979Y-118580999D03*
X152711979Y-118180999D03*
X152711979Y-117780999D03*
X152711979Y-117380999D03*
X152711979Y-116980999D03*
%TD*%
D32*
%TO.C,Q13*%
X128687497Y-65093747D03*
X126787497Y-65093747D03*
X127737497Y-66968748D03*
%TD*%
D12*
%TO.C,U40*%
X83074997Y-56287497D03*
X83074997Y-54387497D03*
X81199996Y-55337497D03*
%TD*%
D33*
%TO.C,C34*%
X148618007Y-76687497D03*
X148618007Y-78237497D03*
%TD*%
D16*
%TO.C,R95*%
X159418007Y-83787497D03*
X159418007Y-82137497D03*
%TD*%
D24*
%TO.C,C44*%
X98618007Y-132075000D03*
X98618007Y-130525000D03*
%TD*%
D12*
%TO.C,Q31*%
X76474997Y-48637497D03*
X76474997Y-46737497D03*
X74599996Y-47687497D03*
%TD*%
D14*
%TO.C,R48*%
X128849996Y-112931250D03*
X127024996Y-112931250D03*
%TD*%
D19*
%TO.C,Q38*%
X122087496Y-52312496D03*
X123987496Y-52312496D03*
X123037496Y-50437495D03*
%TD*%
D17*
%TO.C,U34*%
X99486979Y-56193496D03*
X99486979Y-56843496D03*
X99486979Y-57493496D03*
X99486979Y-58143496D03*
X99486979Y-58793496D03*
X99486979Y-59443496D03*
X99486979Y-60093496D03*
X99486979Y-60743496D03*
X99486979Y-61393496D03*
X99486979Y-62043496D03*
X105211979Y-62043496D03*
X105211979Y-61393496D03*
X105211979Y-60743496D03*
X105211979Y-60093496D03*
X105211979Y-59443496D03*
X105211979Y-58793496D03*
X105211979Y-58143496D03*
X105211979Y-57493496D03*
X105211979Y-56843496D03*
X105211979Y-56193496D03*
%TD*%
D32*
%TO.C,Q12*%
X132587497Y-68999997D03*
X130687497Y-68999997D03*
X131637497Y-70874998D03*
%TD*%
D27*
%TO.C,R121*%
X109418007Y-129400000D03*
X109418007Y-131050000D03*
%TD*%
D22*
%TO.C,U39*%
X101743007Y-79937497D03*
X101743007Y-80887497D03*
X101743007Y-81837497D03*
X104018007Y-81837497D03*
X104018007Y-79937497D03*
%TD*%
%TO.C,U50*%
X135562497Y-87037497D03*
X135562497Y-87987496D03*
X135562497Y-88937495D03*
X137837497Y-88937495D03*
X137837497Y-87037497D03*
%TD*%
D25*
%TO.C,C30*%
X120787497Y-87737497D03*
X122337497Y-87737497D03*
%TD*%
D34*
%TO.C,D15*%
X121287497Y-131000000D03*
X124587497Y-131000000D03*
%TD*%
D14*
%TO.C,R134*%
X77637497Y-134000000D03*
X75812497Y-134000000D03*
%TD*%
D20*
%TO.C,D17*%
X117715495Y-139499999D03*
X117715495Y-137399999D03*
%TD*%
D15*
%TO.C,U57*%
X85699997Y-121550000D03*
X85699997Y-123450000D03*
X87574998Y-122500000D03*
%TD*%
D16*
%TO.C,R47*%
X159418007Y-134350000D03*
X159418007Y-132700000D03*
%TD*%
D35*
%TO.C,K4*%
X106118007Y-74737497D03*
X108318007Y-74737497D03*
X108318007Y-73037497D03*
X106118007Y-73037497D03*
%TD*%
D17*
%TO.C,U22*%
X149486979Y-106755999D03*
X149486979Y-107405999D03*
X149486979Y-108055999D03*
X149486979Y-108705999D03*
X149486979Y-109355999D03*
X149486979Y-110005999D03*
X149486979Y-110655999D03*
X149486979Y-111305999D03*
X149486979Y-111955999D03*
X149486979Y-112605999D03*
X155211979Y-112605999D03*
X155211979Y-111955999D03*
X155211979Y-111305999D03*
X155211979Y-110655999D03*
X155211979Y-110005999D03*
X155211979Y-109355999D03*
X155211979Y-108705999D03*
X155211979Y-108055999D03*
X155211979Y-107405999D03*
X155211979Y-106755999D03*
%TD*%
D13*
%TO.C,R131*%
X80924997Y-128100000D03*
X82749997Y-128100000D03*
%TD*%
D10*
%TO.C,U25*%
X149348007Y-136455000D03*
X150148007Y-136455000D03*
D11*
X151348007Y-136455000D03*
X152348007Y-136455000D03*
X152848007Y-136455000D03*
X153848007Y-136455000D03*
D10*
X155048007Y-136455000D03*
X155848007Y-136455000D03*
X155848007Y-136455000D03*
X155048007Y-136455000D03*
D11*
X154348007Y-136455000D03*
X153348007Y-136455000D03*
X151848007Y-136455000D03*
X150848007Y-136455000D03*
D10*
X150148007Y-136455000D03*
X149348007Y-136455000D03*
%TD*%
D14*
%TO.C,R46*%
X137549997Y-111100000D03*
X135724997Y-111100000D03*
%TD*%
D33*
%TO.C,C29*%
X106818007Y-80287497D03*
X106818007Y-81837497D03*
%TD*%
D15*
%TO.C,Q42*%
X122299997Y-90487497D03*
X122299997Y-92387497D03*
X124174998Y-91437497D03*
%TD*%
D13*
%TO.C,R126*%
X81424997Y-124600000D03*
X83249997Y-124600000D03*
%TD*%
D36*
%TO.C,U47*%
X132587497Y-80387497D03*
X132587497Y-81037497D03*
X132587497Y-81687497D03*
X134487497Y-81687497D03*
X134487497Y-80387497D03*
%TD*%
D35*
%TO.C,K6*%
X106118007Y-125300000D03*
X108318007Y-125300000D03*
X108318007Y-123600000D03*
X106118007Y-123600000D03*
%TD*%
D26*
%TO.C,D22*%
X69387497Y-80637497D03*
X67287497Y-80637497D03*
%TD*%
D12*
%TO.C,U64*%
X83074997Y-106850000D03*
X83074997Y-104950000D03*
X81199996Y-105900000D03*
%TD*%
D32*
%TO.C,Q8*%
X132587497Y-119562500D03*
X130687497Y-119562500D03*
X131637497Y-121437501D03*
%TD*%
D13*
%TO.C,R122*%
X72112497Y-117600000D03*
X73937497Y-117600000D03*
%TD*%
D27*
%TO.C,R49*%
X159418007Y-129400000D03*
X159418007Y-131050000D03*
%TD*%
D21*
%TO.C,D25*%
X122049997Y-70037497D03*
X123624997Y-70037497D03*
%TD*%
D33*
%TO.C,C42*%
X98618007Y-127250000D03*
X98618007Y-128800000D03*
%TD*%
D28*
%TO.C,D26*%
X127474997Y-70037497D03*
X125599997Y-70037497D03*
%TD*%
D27*
%TO.C,R123*%
X95918007Y-129350000D03*
X95918007Y-131000000D03*
%TD*%
D13*
%TO.C,R116*%
X125512496Y-55437497D03*
X127337496Y-55437497D03*
%TD*%
D18*
%TO.C,D12*%
X145918007Y-134287501D03*
X145918007Y-132712499D03*
%TD*%
D13*
%TO.C,R137*%
X85424997Y-142300000D03*
X87249997Y-142300000D03*
%TD*%
D32*
%TO.C,Q15*%
X78687497Y-115656250D03*
X76787497Y-115656250D03*
X77737497Y-117531251D03*
%TD*%
D18*
%TO.C,D18*%
X95918007Y-83724998D03*
X95918007Y-82149996D03*
%TD*%
D15*
%TO.C,Q50*%
X72299997Y-141050000D03*
X72299997Y-142950000D03*
X74174998Y-142000000D03*
%TD*%
D13*
%TO.C,R61*%
X117424997Y-142500000D03*
X119249997Y-142500000D03*
%TD*%
D22*
%TO.C,U51*%
X151743007Y-79937497D03*
X151743007Y-80887497D03*
X151743007Y-81837497D03*
X154018007Y-81837497D03*
X154018007Y-79937497D03*
%TD*%
D15*
%TO.C,Q25*%
X135737497Y-126300000D03*
X135737497Y-128200000D03*
X137612498Y-127250000D03*
%TD*%
D36*
%TO.C,U23*%
X132587497Y-130950000D03*
X132587497Y-131600000D03*
X132587497Y-132250000D03*
X134487497Y-132250000D03*
X134487497Y-130950000D03*
%TD*%
D13*
%TO.C,R65*%
X135424997Y-142300000D03*
X137249997Y-142300000D03*
%TD*%
D20*
%TO.C,D35*%
X67715495Y-139499999D03*
X67715495Y-137399999D03*
%TD*%
D37*
%TO.C,R66*%
X133337497Y-109887500D03*
X133337497Y-111712500D03*
%TD*%
D22*
%TO.C,U31*%
X70799999Y-83212496D03*
X70799999Y-85112494D03*
X73074999Y-84162495D03*
%TD*%
D13*
%TO.C,R59*%
X130924997Y-128100000D03*
X132749997Y-128100000D03*
%TD*%
D16*
%TO.C,R71*%
X109418007Y-83787497D03*
X109418007Y-82137497D03*
%TD*%
D15*
%TO.C,Q40*%
X122399997Y-75487497D03*
X122399997Y-77387497D03*
X124274998Y-76437497D03*
%TD*%
D14*
%TO.C,R135*%
X73825000Y-109300000D03*
X72000000Y-109300000D03*
%TD*%
D33*
%TO.C,C18*%
X148618007Y-127250000D03*
X148618007Y-128800000D03*
%TD*%
D22*
%TO.C,U55*%
X70799999Y-133774999D03*
X70799999Y-135674997D03*
X73074999Y-134724998D03*
%TD*%
D27*
%TO.C,R75*%
X95918007Y-78787497D03*
X95918007Y-80437497D03*
%TD*%
D21*
%TO.C,D19*%
X72049997Y-70037497D03*
X73624997Y-70037497D03*
%TD*%
D19*
%TO.C,Q37*%
X122087497Y-63874997D03*
X123987497Y-63874997D03*
X123037497Y-61999996D03*
%TD*%
D15*
%TO.C,Q34*%
X72299997Y-90487497D03*
X72299997Y-92387497D03*
X74174998Y-91437497D03*
%TD*%
D26*
%TO.C,D34*%
X69387497Y-131200000D03*
X67287497Y-131200000D03*
%TD*%
D28*
%TO.C,D20*%
X77474997Y-70037497D03*
X75599997Y-70037497D03*
%TD*%
D24*
%TO.C,C20*%
X148618007Y-132075000D03*
X148618007Y-130525000D03*
%TD*%
D14*
%TO.C,R127*%
X73849997Y-106000000D03*
X72024997Y-106000000D03*
%TD*%
D25*
%TO.C,C39*%
X97723007Y-123500000D03*
X99273007Y-123500000D03*
%TD*%
D37*
%TO.C,R90*%
X83337497Y-59324997D03*
X83337497Y-61149997D03*
%TD*%
D36*
%TO.C,U35*%
X82587497Y-80387497D03*
X82587497Y-81037497D03*
X82587497Y-81687497D03*
X84487497Y-81687497D03*
X84487497Y-80387497D03*
%TD*%
D12*
%TO.C,Q35*%
X81974997Y-92187497D03*
X81974997Y-90287497D03*
X80099996Y-91237497D03*
%TD*%
D15*
%TO.C,Q26*%
X122299997Y-141050000D03*
X122299997Y-142950000D03*
X124174998Y-142000000D03*
%TD*%
D13*
%TO.C,R54*%
X131424997Y-124600000D03*
X133249997Y-124600000D03*
%TD*%
%TO.C,R60*%
X130424997Y-138000000D03*
X132249997Y-138000000D03*
%TD*%
D26*
%TO.C,D28*%
X119387497Y-80637497D03*
X117287497Y-80637497D03*
%TD*%
D24*
%TO.C,C28*%
X98618007Y-81512497D03*
X98618007Y-79962497D03*
%TD*%
D19*
%TO.C,Q22*%
X122087496Y-102874999D03*
X123987496Y-102874999D03*
X123037496Y-100999998D03*
%TD*%
D23*
%TO.C,C33*%
X152568007Y-72937497D03*
X151018007Y-72937497D03*
%TD*%
%TO.C,C17*%
X152568007Y-123500000D03*
X151018007Y-123500000D03*
%TD*%
D33*
%TO.C,C21*%
X156818007Y-130850000D03*
X156818007Y-132400000D03*
%TD*%
D14*
%TO.C,R55*%
X123849997Y-106000000D03*
X122024997Y-106000000D03*
%TD*%
D36*
%TO.C,U59*%
X82587497Y-130950000D03*
X82587497Y-131600000D03*
X82587497Y-132250000D03*
X84487497Y-132250000D03*
X84487497Y-130950000D03*
%TD*%
D13*
%TO.C,R106*%
X127212497Y-80637497D03*
X129037497Y-80637497D03*
%TD*%
D34*
%TO.C,D27*%
X121287497Y-80437497D03*
X124587497Y-80437497D03*
%TD*%
D22*
%TO.C,U26*%
X135562497Y-137600000D03*
X135562497Y-138549999D03*
X135562497Y-139499998D03*
X137837497Y-139499998D03*
X137837497Y-137600000D03*
%TD*%
D14*
%TO.C,R96*%
X128849996Y-62368747D03*
X127024996Y-62368747D03*
%TD*%
D25*
%TO.C,C15*%
X147723007Y-123500000D03*
X149273007Y-123500000D03*
%TD*%
D34*
%TO.C,D33*%
X71287497Y-131000000D03*
X74587497Y-131000000D03*
%TD*%
D29*
%TO.C,U32*%
X101671979Y-66808496D03*
X100851979Y-66808496D03*
X101671979Y-67628496D03*
X100851979Y-67628496D03*
D30*
X102061979Y-65768496D03*
X101661979Y-65768496D03*
X101261979Y-65768496D03*
X100861979Y-65768496D03*
X100461979Y-65768496D03*
D31*
X99811979Y-66418496D03*
X99811979Y-66818496D03*
X99811979Y-67218496D03*
X99811979Y-67618496D03*
X99811979Y-68018496D03*
D30*
X100461979Y-68668496D03*
X100861979Y-68668496D03*
X101261979Y-68668496D03*
X101661979Y-68668496D03*
X102061979Y-68668496D03*
D31*
X102711979Y-68018496D03*
X102711979Y-67618496D03*
X102711979Y-67218496D03*
X102711979Y-66818496D03*
X102711979Y-66418496D03*
%TD*%
D20*
%TO.C,D23*%
X67715495Y-88937496D03*
X67715495Y-86837496D03*
%TD*%
D14*
%TO.C,R124*%
X77337498Y-109300000D03*
X75512498Y-109300000D03*
%TD*%
D32*
%TO.C,Q11*%
X78687497Y-65093747D03*
X76787497Y-65093747D03*
X77737497Y-66968748D03*
%TD*%
D14*
%TO.C,R52*%
X127337498Y-109300000D03*
X125512498Y-109300000D03*
%TD*%
D13*
%TO.C,R68*%
X125512496Y-106000000D03*
X127337496Y-106000000D03*
%TD*%
D37*
%TO.C,R114*%
X133337497Y-59324997D03*
X133337497Y-61149997D03*
%TD*%
D14*
%TO.C,R100*%
X127337498Y-58737497D03*
X125512498Y-58737497D03*
%TD*%
%TO.C,R63*%
X123825000Y-109300000D03*
X122000000Y-109300000D03*
%TD*%
%TO.C,R70*%
X87549997Y-60537497D03*
X85724997Y-60537497D03*
%TD*%
%TO.C,R105*%
X123949997Y-72837497D03*
X122124997Y-72837497D03*
%TD*%
D15*
%TO.C,U21*%
X135699997Y-121550000D03*
X135699997Y-123450000D03*
X137574998Y-122500000D03*
%TD*%
D28*
%TO.C,D14*%
X127474997Y-120600000D03*
X125599997Y-120600000D03*
%TD*%
D21*
%TO.C,D31*%
X72049997Y-120600000D03*
X73624997Y-120600000D03*
%TD*%
D14*
%TO.C,R125*%
X80837497Y-109300000D03*
X79012497Y-109300000D03*
%TD*%
%TO.C,R120*%
X78849996Y-112931250D03*
X77024996Y-112931250D03*
%TD*%
D35*
%TO.C,K5*%
X156118007Y-74737497D03*
X158318007Y-74737497D03*
X158318007Y-73037497D03*
X156118007Y-73037497D03*
%TD*%
D13*
%TO.C,R117*%
X126924997Y-73637497D03*
X128749997Y-73637497D03*
%TD*%
D29*
%TO.C,U56*%
X101671979Y-117370999D03*
X100851979Y-117370999D03*
X101671979Y-118190999D03*
X100851979Y-118190999D03*
D30*
X102061979Y-116330999D03*
X101661979Y-116330999D03*
X101261979Y-116330999D03*
X100861979Y-116330999D03*
X100461979Y-116330999D03*
D31*
X99811979Y-116980999D03*
X99811979Y-117380999D03*
X99811979Y-117780999D03*
X99811979Y-118180999D03*
X99811979Y-118580999D03*
D30*
X100461979Y-119230999D03*
X100861979Y-119230999D03*
X101261979Y-119230999D03*
X101661979Y-119230999D03*
X102061979Y-119230999D03*
D31*
X102711979Y-118580999D03*
X102711979Y-118180999D03*
X102711979Y-117780999D03*
X102711979Y-117380999D03*
X102711979Y-116980999D03*
%TD*%
D13*
%TO.C,R93*%
X76924997Y-73637497D03*
X78749997Y-73637497D03*
%TD*%
D33*
%TO.C,C37*%
X156818007Y-80287497D03*
X156818007Y-81837497D03*
%TD*%
D13*
%TO.C,R132*%
X80424997Y-138000000D03*
X82249997Y-138000000D03*
%TD*%
D15*
%TO.C,Q33*%
X85737497Y-75737497D03*
X85737497Y-77637497D03*
X87612498Y-76687497D03*
%TD*%
D27*
%TO.C,R73*%
X109418007Y-78837497D03*
X109418007Y-80487497D03*
%TD*%
D32*
%TO.C,Q10*%
X128687497Y-115656250D03*
X126787497Y-115656250D03*
X127737497Y-117531251D03*
%TD*%
D14*
%TO.C,R129*%
X73949997Y-123400000D03*
X72124997Y-123400000D03*
%TD*%
D35*
%TO.C,K3*%
X156118007Y-125300000D03*
X158318007Y-125300000D03*
X158318007Y-123600000D03*
X156118007Y-123600000D03*
%TD*%
D13*
%TO.C,R56*%
X126824997Y-102800000D03*
X128649997Y-102800000D03*
%TD*%
D12*
%TO.C,Q23*%
X126474997Y-99200000D03*
X126474997Y-97300000D03*
X124599996Y-98250000D03*
%TD*%
D13*
%TO.C,R84*%
X80424997Y-87437497D03*
X82249997Y-87437497D03*
%TD*%
D12*
%TO.C,Q39*%
X126474997Y-48637497D03*
X126474997Y-46737497D03*
X124599996Y-47687497D03*
%TD*%
D17*
%TO.C,U46*%
X149486979Y-56193496D03*
X149486979Y-56843496D03*
X149486979Y-57493496D03*
X149486979Y-58143496D03*
X149486979Y-58793496D03*
X149486979Y-59443496D03*
X149486979Y-60093496D03*
X149486979Y-60743496D03*
X149486979Y-61393496D03*
X149486979Y-62043496D03*
X155211979Y-62043496D03*
X155211979Y-61393496D03*
X155211979Y-60743496D03*
X155211979Y-60093496D03*
X155211979Y-59443496D03*
X155211979Y-58793496D03*
X155211979Y-58143496D03*
X155211979Y-57493496D03*
X155211979Y-56843496D03*
X155211979Y-56193496D03*
%TD*%
D22*
%TO.C,U43*%
X120799999Y-83212496D03*
X120799999Y-85112494D03*
X123074999Y-84162495D03*
%TD*%
D15*
%TO.C,Q32*%
X72399997Y-75487497D03*
X72399997Y-77387497D03*
X74274998Y-76437497D03*
%TD*%
D22*
%TO.C,U62*%
X85562497Y-137600000D03*
X85562497Y-138549999D03*
X85562497Y-139499998D03*
X87837497Y-139499998D03*
X87837497Y-137600000D03*
%TD*%
D27*
%TO.C,R97*%
X159418007Y-78837497D03*
X159418007Y-80487497D03*
%TD*%
D13*
%TO.C,R50*%
X122112497Y-117600000D03*
X123937497Y-117600000D03*
%TD*%
D15*
%TO.C,Q41*%
X135737497Y-75737497D03*
X135737497Y-77637497D03*
X137612498Y-76687497D03*
%TD*%
D13*
%TO.C,R83*%
X80924997Y-77537497D03*
X82749997Y-77537497D03*
%TD*%
D12*
%TO.C,Q51*%
X81974997Y-142750000D03*
X81974997Y-140850000D03*
X80099996Y-141800000D03*
%TD*%
D23*
%TO.C,C41*%
X102568007Y-123500000D03*
X101018007Y-123500000D03*
%TD*%
D13*
%TO.C,R141*%
X76924997Y-124200000D03*
X78749997Y-124200000D03*
%TD*%
D14*
%TO.C,R86*%
X77637497Y-83437497D03*
X75812497Y-83437497D03*
%TD*%
D10*
%TO.C,U37*%
X99348007Y-85892497D03*
X100148007Y-85892497D03*
D11*
X101348007Y-85892497D03*
X102348007Y-85892497D03*
X102848007Y-85892497D03*
X103848007Y-85892497D03*
D10*
X105048007Y-85892497D03*
X105848007Y-85892497D03*
X105848007Y-85892497D03*
X105048007Y-85892497D03*
D11*
X104348007Y-85892497D03*
X103348007Y-85892497D03*
X101848007Y-85892497D03*
X100848007Y-85892497D03*
D10*
X100148007Y-85892497D03*
X99348007Y-85892497D03*
%TD*%
D14*
%TO.C,R62*%
X127637497Y-134000000D03*
X125812497Y-134000000D03*
%TD*%
D13*
%TO.C,R140*%
X75512496Y-106000000D03*
X77337496Y-106000000D03*
%TD*%
D12*
%TO.C,Q52*%
X76874997Y-138450000D03*
X76874997Y-136550000D03*
X74999996Y-137500000D03*
%TD*%
D32*
%TO.C,Q9*%
X82587497Y-68999997D03*
X80687497Y-68999997D03*
X81637497Y-70874998D03*
%TD*%
D12*
%TO.C,Q27*%
X131974997Y-142750000D03*
X131974997Y-140850000D03*
X130099996Y-141800000D03*
%TD*%
%TO.C,Q28*%
X126874997Y-138450000D03*
X126874997Y-136550000D03*
X124999996Y-137500000D03*
%TD*%
D15*
%TO.C,U33*%
X85699997Y-70987497D03*
X85699997Y-72887497D03*
X87574998Y-71937497D03*
%TD*%
D25*
%TO.C,C38*%
X70787497Y-138300000D03*
X72337497Y-138300000D03*
%TD*%
D33*
%TO.C,C45*%
X106818007Y-130850000D03*
X106818007Y-132400000D03*
%TD*%
D34*
%TO.C,D21*%
X71287497Y-80437497D03*
X74587497Y-80437497D03*
%TD*%
D15*
%TO.C,Q48*%
X72399997Y-126050000D03*
X72399997Y-127950000D03*
X74274998Y-127000000D03*
%TD*%
D13*
%TO.C,R102*%
X131424997Y-74037497D03*
X133249997Y-74037497D03*
%TD*%
D14*
%TO.C,R101*%
X130837497Y-58737497D03*
X129012497Y-58737497D03*
%TD*%
D13*
%TO.C,R82*%
X77212497Y-80637497D03*
X79037497Y-80637497D03*
%TD*%
D33*
%TO.C,C26*%
X98618007Y-76687497D03*
X98618007Y-78237497D03*
%TD*%
D14*
%TO.C,R53*%
X130837497Y-109300000D03*
X129012497Y-109300000D03*
%TD*%
D19*
%TO.C,Q45*%
X72087497Y-114437500D03*
X73987497Y-114437500D03*
X73037497Y-112562499D03*
%TD*%
D32*
%TO.C,Q14*%
X82587497Y-119562500D03*
X80687497Y-119562500D03*
X81637497Y-121437501D03*
%TD*%
D22*
%TO.C,U38*%
X85562497Y-87037497D03*
X85562497Y-87987496D03*
X85562497Y-88937495D03*
X87837497Y-88937495D03*
X87837497Y-87037497D03*
%TD*%
D14*
%TO.C,R76*%
X77337498Y-58737497D03*
X75512498Y-58737497D03*
%TD*%
D25*
%TO.C,C14*%
X120787497Y-138300000D03*
X122337497Y-138300000D03*
%TD*%
D29*
%TO.C,U44*%
X151671979Y-66808496D03*
X150851979Y-66808496D03*
X151671979Y-67628496D03*
X150851979Y-67628496D03*
D30*
X152061979Y-65768496D03*
X151661979Y-65768496D03*
X151261979Y-65768496D03*
X150861979Y-65768496D03*
X150461979Y-65768496D03*
D31*
X149811979Y-66418496D03*
X149811979Y-66818496D03*
X149811979Y-67218496D03*
X149811979Y-67618496D03*
X149811979Y-68018496D03*
D30*
X150461979Y-68668496D03*
X150861979Y-68668496D03*
X151261979Y-68668496D03*
X151661979Y-68668496D03*
X152061979Y-68668496D03*
D31*
X152711979Y-68018496D03*
X152711979Y-67618496D03*
X152711979Y-67218496D03*
X152711979Y-66818496D03*
X152711979Y-66418496D03*
%TD*%
D14*
%TO.C,R79*%
X73849997Y-55437497D03*
X72024997Y-55437497D03*
%TD*%
D13*
%TO.C,R128*%
X76824997Y-102800000D03*
X78649997Y-102800000D03*
%TD*%
D12*
%TO.C,Q47*%
X76474997Y-99200000D03*
X76474997Y-97300000D03*
X74599996Y-98250000D03*
%TD*%
D13*
%TO.C,R80*%
X76824997Y-52237497D03*
X78649997Y-52237497D03*
%TD*%
D12*
%TO.C,Q43*%
X131974997Y-92187497D03*
X131974997Y-90287497D03*
X130099996Y-91237497D03*
%TD*%
D22*
%TO.C,U19*%
X120799999Y-133774999D03*
X120799999Y-135674997D03*
X123074999Y-134724998D03*
%TD*%
D12*
%TO.C,Q44*%
X126874997Y-87887497D03*
X126874997Y-85987497D03*
X124999996Y-86937497D03*
%TD*%
D13*
%TO.C,R130*%
X77212497Y-131200000D03*
X79037497Y-131200000D03*
%TD*%
D37*
%TO.C,R138*%
X83337497Y-109887500D03*
X83337497Y-111712500D03*
%TD*%
D25*
%TO.C,C31*%
X147723007Y-72937497D03*
X149273007Y-72937497D03*
%TD*%
D14*
%TO.C,R111*%
X123825000Y-58737497D03*
X122000000Y-58737497D03*
%TD*%
D19*
%TO.C,Q29*%
X72087497Y-63874997D03*
X73987497Y-63874997D03*
X73037497Y-61999996D03*
%TD*%
D22*
%TO.C,U27*%
X151743007Y-130500000D03*
X151743007Y-131450000D03*
X151743007Y-132400000D03*
X154018007Y-132400000D03*
X154018007Y-130500000D03*
%TD*%
D13*
%TO.C,R78*%
X81424997Y-74037497D03*
X83249997Y-74037497D03*
%TD*%
D18*
%TO.C,D24*%
X145918007Y-83724998D03*
X145918007Y-82149996D03*
%TD*%
D25*
%TO.C,C22*%
X70787497Y-87737497D03*
X72337497Y-87737497D03*
%TD*%
D14*
%TO.C,R110*%
X127637497Y-83437497D03*
X125812497Y-83437497D03*
%TD*%
%TO.C,R81*%
X73949997Y-72837497D03*
X72124997Y-72837497D03*
%TD*%
D13*
%TO.C,R107*%
X130924997Y-77537497D03*
X132749997Y-77537497D03*
%TD*%
M02*
